{
  "ticks_per_beat": 120,
  "tracks": [
    [
      {
        "type": "track_name",
        "name": "\"CAN`T STOP\" ",
        "time": 0
      },
      {
        "type": "copyright",
        "text": "@cargo2003",
        "time": 0
      },
      {
        "type": "text",
        "text": "Red Hot Chili Peppers",
        "time": 0
      },
      {
        "type": "text",
        "text": "Mi mineur",
        "time": 0
      },
      {
        "type": "text",
        "text": "Big Mike from Russia (gsoft@jeo.ru)\n",
        "time": 0
      },
      {
        "type": "smpte_offset",
        "frame_rate": 25,
        "hours": 32,
        "minutes": 0,
        "seconds": 3,
        "frames": 0,
        "sub_frames": 0,
        "time": 0
      },
      {
        "type": "time_signature",
        "numerator": 4,
        "denominator": 4,
        "clocks_per_click": 24,
        "notated_32nd_notes_per_beat": 8,
        "time": 0
      },
      {
        "type": "key_signature",
        "key": "G",
        "time": 0
      },
      {
        "type": "set_tempo",
        "tempo": 652174,
        "time": 0
      },
      {
        "type": "marker",
        "text": "intro",
        "time": 4320
      },
      {
        "type": "marker",
        "text": "first verse",
        "time": 1920
      },
      {
        "type": "marker",
        "text": "chorus",
        "time": 7680
      },
      {
        "type": "marker",
        "text": "second verse",
        "time": 3840
      },
      {
        "type": "marker",
        "text": "chorus",
        "time": 7680
      },
      {
        "type": "marker",
        "text": "third verse",
        "time": 3840
      },
      {
        "type": "marker",
        "text": "outro",
        "time": 7680
      },
      {
        "type": "marker",
        "text": "fourth verse",
        "time": 1920
      },
      {
        "type": "end_of_track",
        "time": 0
      }
    ],
    [
      {
        "type": "midi_port",
        "port": 0,
        "time": 0
      },
      {
        "type": "track_name",
        "name": "vocals",
        "time": 0
      },
      {
        "type": "program_change",
        "time": 0,
        "program": 65,
        "channel": 0
      },
      {
        "type": "control_change",
        "time": 0,
        "control": 7,
        "value": 127,
        "channel": 0
      },
      {
        "type": "control_change",
        "time": 0,
        "control": 10,
        "value": 80,
        "channel": 0
      },
      {
        "type": "note_on",
        "time": 6300,
        "note": 62,
        "velocity": 100,
        "channel": 0
      },
      {
        "type": "note_on",
        "time": 45,
        "note": 62,
        "velocity": 0,
        "channel": 0
      },
      {
        "type": "note_on",
        "time": 15,
        "note": 64,
        "velocity": 100,
        "channel": 0
      },
      {
        "type": "note_on",
        "time": 45,
        "note": 64,
        "velocity": 0,
        "channel": 0
      },
      {
        "type": "note_on",
        "time": 15,
        "note": 62,
        "velocity": 100,
        "channel": 0
      },
      {
        "type": "note_on",
        "time": 30,
        "note": 62,
        "velocity": 0,
        "channel": 0
      },
      {
        "type": "note_on",
        "time": 0,
        "note": 64,
        "velocity": 100,
        "channel": 0
      },
      {
        "type": "note_on",
        "time": 45,
        "note": 64,
        "velocity": 0,
        "channel": 0
      },
      {
        "type": "note_on",
        "time": 15,
        "note": 62,
        "velocity": 100,
        "channel": 0
      },
      {
        "type": "note_on",
        "time": 30,
        "note": 62,
        "velocity": 0,
        "channel": 0
      },
      {
        "type": "note_on",
        "time": 0,
        "note": 64,
        "velocity": 100,
        "channel": 0
      },
      {
        "type": "note_on",
        "time": 30,
        "note": 64,
        "velocity": 0,
        "channel": 0
      },
      {
        "type": "note_on",
        "time": 0,
        "note": 62,
        "velocity": 100,
        "channel": 0
      },
      {
        "type": "note_on",
        "time": 30,
        "note": 62,
        "velocity": 0,
        "channel": 0
      },
      {
        "type": "note_on",
        "time": 0,
        "note": 64,
        "velocity": 100,
        "channel": 0
      },
      {
        "type": "note_on",
        "time": 60,
        "note": 64,
        "velocity": 0,
        "channel": 0
      },
      {
        "type": "note_on",
        "time": 0,
        "note": 62,
        "velocity": 100,
        "channel": 0
      },
      {
        "type": "note_on",
        "time": 60,
        "note": 62,
        "velocity": 0,
        "channel": 0
      },
      {
        "type": "note_on",
        "time": 60,
        "note": 62,
        "velocity": 100,
        "channel": 0
      },
      {
        "type": "note_on",
        "time": 45,
        "note": 62,
        "velocity": 0,
        "channel": 0
      },
      {
        "type": "note_on",
        "time": 15,
        "note": 64,
        "velocity": 100,
        "channel": 0
      },
      {
        "type": "note_on",
        "time": 45,
        "note": 64,
        "velocity": 0,
        "channel": 0
      },
      {
        "type": "note_on",
        "time": 15,
        "note": 62,
        "velocity": 100,
        "channel": 0
      },
      {
        "type": "note_on",
        "time": 30,
        "note": 62,
        "velocity": 0,
        "channel": 0
      },
      {
        "type": "note_on",
        "time": 0,
        "note": 64,
        "velocity": 100,
        "channel": 0
      },
      {
        "type": "note_on",
        "time": 45,
        "note": 64,
        "velocity": 0,
        "channel": 0
      },
      {
        "type": "note_on",
        "time": 15,
        "note": 62,
        "velocity": 100,
        "channel": 0
      },
      {
        "type": "note_on",
        "time": 30,
        "note": 62,
        "velocity": 0,
        "channel": 0
      },
      {
        "type": "note_on",
        "time": 0,
        "note": 64,
        "velocity": 100,
        "channel": 0
      },
      {
        "type": "note_on",
        "time": 30,
        "note": 64,
        "velocity": 0,
        "channel": 0
      },
      {
        "type": "note_on",
        "time": 0,
        "note": 62,
        "velocity": 100,
        "channel": 0
      },
      {
        "type": "note_on",
        "time": 30,
        "note": 62,
        "velocity": 0,
        "channel": 0
      },
      {
        "type": "note_on",
        "time": 0,
        "note": 64,
        "velocity": 100,
        "channel": 0
      },
      {
        "type": "note_on",
        "time": 45,
        "note": 64,
        "velocity": 0,
        "channel": 0
      },
      {
        "type": "note_on",
        "time": 15,
        "note": 62,
        "velocity": 100,
        "channel": 0
      },
      {
        "type": "note_on",
        "time": 45,
        "note": 62,
        "velocity": 0,
        "channel": 0
      },
      {
        "type": "note_on",
        "time": 75,
        "note": 62,
        "velocity": 100,
        "channel": 0
      },
      {
        "type": "note_on",
        "time": 45,
        "note": 62,
        "velocity": 0,
        "channel": 0
      },
      {
        "type": "note_on",
        "time": 15,
        "note": 64,
        "velocity": 100,
        "channel": 0
      },
      {
        "type": "note_on",
        "time": 45,
        "note": 64,
        "velocity": 0,
        "channel": 0
      },
      {
        "type": "note_on",
        "time": 15,
        "note": 64,
        "velocity": 100,
        "channel": 0
      },
      {
        "type": "note_on",
        "time": 15,
        "note": 64,
        "velocity": 0,
        "channel": 0
      },
      {
        "type": "note_on",
        "time": 15,
        "note": 64,
        "velocity": 100,
        "channel": 0
      },
      {
        "type": "note_on",
        "time": 45,
        "note": 64,
        "velocity": 0,
        "channel": 0
      },
      {
        "type": "note_on",
        "time": 15,
        "note": 64,
        "velocity": 100,
        "channel": 0
      },
      {
        "type": "note_on",
        "time": 15,
        "note": 64,
        "velocity": 0,
        "channel": 0
      },
      {
        "type": "note_on",
        "time": 15,
        "note": 64,
        "velocity": 100,
        "channel": 0
      },
      {
        "type": "note_on",
        "time": 15,
        "note": 64,
        "velocity": 0,
        "channel": 0
      },
      {
        "type": "note_on",
        "time": 15,
        "note": 64,
        "velocity": 100,
        "channel": 0
      },
      {
        "type": "note_on",
        "time": 15,
        "note": 64,
        "velocity": 0,
        "channel": 0
      },
      {
        "type": "note_on",
        "time": 15,
        "note": 64,
        "velocity": 100,
        "channel": 0
      },
      {
        "type": "note_on",
        "time": 45,
        "note": 64,
        "velocity": 0,
        "channel": 0
      },
      {
        "type": "note_on",
        "time": 15,
        "note": 62,
        "velocity": 100,
        "channel": 0
      },
      {
        "type": "note_on",
        "time": 45,
        "note": 62,
        "velocity": 0,
        "channel": 0
      },
      {
        "type": "note_on",
        "time": 15,
        "note": 64,
        "velocity": 100,
        "channel": 0
      },
      {
        "type": "note_on",
        "time": 45,
        "note": 64,
        "velocity": 0,
        "channel": 0
      },
      {
        "type": "note_on",
        "time": 15,
        "note": 64,
        "velocity": 100,
        "channel": 0
      },
      {
        "type": "note_on",
        "time": 45,
        "note": 64,
        "velocity": 0,
        "channel": 0
      },
      {
        "type": "note_on",
        "time": 15,
        "note": 64,
        "velocity": 100,
        "channel": 0
      },
      {
        "type": "note_on",
        "time": 45,
        "note": 64,
        "velocity": 0,
        "channel": 0
      },
      {
        "type": "note_on",
        "time": 15,
        "note": 64,
        "velocity": 100,
        "channel": 0
      },
      {
        "type": "note_on",
        "time": 15,
        "note": 64,
        "velocity": 0,
        "channel": 0
      },
      {
        "type": "note_on",
        "time": 15,
        "note": 64,
        "velocity": 100,
        "channel": 0
      },
      {
        "type": "note_on",
        "time": 60,
        "note": 64,
        "velocity": 0,
        "channel": 0
      },
      {
        "type": "note_on",
        "time": 0,
        "note": 62,
        "velocity": 100,
        "channel": 0
      },
      {
        "type": "note_on",
        "time": 30,
        "note": 62,
        "velocity": 0,
        "channel": 0
      },
      {
        "type": "note_on",
        "time": 0,
        "note": 64,
        "velocity": 100,
        "channel": 0
      },
      {
        "type": "note_on",
        "time": 30,
        "note": 64,
        "velocity": 0,
        "channel": 0
      },
      {
        "type": "note_on",
        "time": 0,
        "note": 62,
        "velocity": 100,
        "channel": 0
      },
      {
        "type": "note_on",
        "time": 30,
        "note": 62,
        "velocity": 0,
        "channel": 0
      },
      {
        "type": "note_on",
        "time": 0,
        "note": 64,
        "velocity": 100,
        "channel": 0
      },
      {
        "type": "note_on",
        "time": 60,
        "note": 64,
        "velocity": 0,
        "channel": 0
      },
      {
        "type": "note_on",
        "time": 0,
        "note": 62,
        "velocity": 100,
        "channel": 0
      },
      {
        "type": "note_on",
        "time": 60,
        "note": 62,
        "velocity": 0,
        "channel": 0
      },
      {
        "type": "note_on",
        "time": 60,
        "note": 62,
        "velocity": 100,
        "channel": 0
      },
      {
        "type": "note_on",
        "time": 45,
        "note": 62,
        "velocity": 0,
        "channel": 0
      },
      {
        "type": "note_on",
        "time": 15,
        "note": 64,
        "velocity": 100,
        "channel": 0
      },
      {
        "type": "note_on",
        "time": 45,
        "note": 64,
        "velocity": 0,
        "channel": 0
      },
      {
        "type": "note_on",
        "time": 15,
        "note": 62,
        "velocity": 100,
        "channel": 0
      },
      {
        "type": "note_on",
        "time": 30,
        "note": 62,
        "velocity": 0,
        "channel": 0
      },
      {
        "type": "note_on",
        "time": 0,
        "note": 64,
        "velocity": 100,
        "channel": 0
      },
      {
        "type": "note_on",
        "time": 45,
        "note": 64,
        "velocity": 0,
        "channel": 0
      },
      {
        "type": "note_on",
        "time": 15,
        "note": 62,
        "velocity": 100,
        "channel": 0
      },
      {
        "type": "note_on",
        "time": 30,
        "note": 62,
        "velocity": 0,
        "channel": 0
      },
      {
        "type": "note_on",
        "time": 0,
        "note": 64,
        "velocity": 100,
        "channel": 0
      },
      {
        "type": "note_on",
        "time": 30,
        "note": 64,
        "velocity": 0,
        "channel": 0
      },
      {
        "type": "note_on",
        "time": 0,
        "note": 62,
        "velocity": 100,
        "channel": 0
      },
      {
        "type": "note_on",
        "time": 30,
        "note": 62,
        "velocity": 0,
        "channel": 0
      },
      {
        "type": "note_on",
        "time": 0,
        "note": 64,
        "velocity": 100,
        "channel": 0
      },
      {
        "type": "note_on",
        "time": 60,
        "note": 64,
        "velocity": 0,
        "channel": 0
      },
      {
        "type": "note_on",
        "time": 0,
        "note": 62,
        "velocity": 100,
        "channel": 0
      },
      {
        "type": "note_on",
        "time": 60,
        "note": 62,
        "velocity": 0,
        "channel": 0
      },
      {
        "type": "note_on",
        "time": 60,
        "note": 62,
        "velocity": 100,
        "channel": 0
      },
      {
        "type": "note_on",
        "time": 45,
        "note": 62,
        "velocity": 0,
        "channel": 0
      },
      {
        "type": "note_on",
        "time": 15,
        "note": 64,
        "velocity": 100,
        "channel": 0
      },
      {
        "type": "note_on",
        "time": 45,
        "note": 64,
        "velocity": 0,
        "channel": 0
      },
      {
        "type": "note_on",
        "time": 15,
        "note": 62,
        "velocity": 100,
        "channel": 0
      },
      {
        "type": "note_on",
        "time": 30,
        "note": 62,
        "velocity": 0,
        "channel": 0
      },
      {
        "type": "note_on",
        "time": 0,
        "note": 64,
        "velocity": 100,
        "channel": 0
      },
      {
        "type": "note_on",
        "time": 45,
        "note": 64,
        "velocity": 0,
        "channel": 0
      },
      {
        "type": "note_on",
        "time": 15,
        "note": 62,
        "velocity": 100,
        "channel": 0
      },
      {
        "type": "note_on",
        "time": 30,
        "note": 62,
        "velocity": 0,
        "channel": 0
      },
      {
        "type": "note_on",
        "time": 0,
        "note": 64,
        "velocity": 100,
        "channel": 0
      },
      {
        "type": "note_on",
        "time": 30,
        "note": 64,
        "velocity": 0,
        "channel": 0
      },
      {
        "type": "note_on",
        "time": 0,
        "note": 62,
        "velocity": 100,
        "channel": 0
      },
      {
        "type": "note_on",
        "time": 30,
        "note": 62,
        "velocity": 0,
        "channel": 0
      },
      {
        "type": "note_on",
        "time": 0,
        "note": 64,
        "velocity": 100,
        "channel": 0
      },
      {
        "type": "note_on",
        "time": 45,
        "note": 64,
        "velocity": 0,
        "channel": 0
      },
      {
        "type": "note_on",
        "time": 15,
        "note": 62,
        "velocity": 100,
        "channel": 0
      },
      {
        "type": "note_on",
        "time": 45,
        "note": 62,
        "velocity": 0,
        "channel": 0
      },
      {
        "type": "note_on",
        "time": 75,
        "note": 64,
        "velocity": 100,
        "channel": 0
      },
      {
        "type": "note_on",
        "time": 45,
        "note": 64,
        "velocity": 0,
        "channel": 0
      },
      {
        "type": "note_on",
        "time": 15,
        "note": 64,
        "velocity": 100,
        "channel": 0
      },
      {
        "type": "note_on",
        "time": 45,
        "note": 64,
        "velocity": 0,
        "channel": 0
      },
      {
        "type": "note_on",
        "time": 15,
        "note": 64,
        "velocity": 100,
        "channel": 0
      },
      {
        "type": "note_on",
        "time": 15,
        "note": 64,
        "velocity": 0,
        "channel": 0
      },
      {
        "type": "note_on",
        "time": 15,
        "note": 64,
        "velocity": 100,
        "channel": 0
      },
      {
        "type": "note_on",
        "time": 45,
        "note": 64,
        "velocity": 0,
        "channel": 0
      },
      {
        "type": "note_on",
        "time": 15,
        "note": 64,
        "velocity": 100,
        "channel": 0
      },
      {
        "type": "note_on",
        "time": 15,
        "note": 64,
        "velocity": 0,
        "channel": 0
      },
      {
        "type": "note_on",
        "time": 15,
        "note": 64,
        "velocity": 100,
        "channel": 0
      },
      {
        "type": "note_on",
        "time": 15,
        "note": 64,
        "velocity": 0,
        "channel": 0
      },
      {
        "type": "note_on",
        "time": 15,
        "note": 64,
        "velocity": 100,
        "channel": 0
      },
      {
        "type": "note_on",
        "time": 15,
        "note": 64,
        "velocity": 0,
        "channel": 0
      },
      {
        "type": "note_on",
        "time": 15,
        "note": 64,
        "velocity": 100,
        "channel": 0
      },
      {
        "type": "note_on",
        "time": 45,
        "note": 64,
        "velocity": 0,
        "channel": 0
      },
      {
        "type": "note_on",
        "time": 15,
        "note": 62,
        "velocity": 100,
        "channel": 0
      },
      {
        "type": "note_on",
        "time": 45,
        "note": 62,
        "velocity": 0,
        "channel": 0
      },
      {
        "type": "note_on",
        "time": 15,
        "note": 64,
        "velocity": 100,
        "channel": 0
      },
      {
        "type": "note_on",
        "time": 45,
        "note": 64,
        "velocity": 0,
        "channel": 0
      },
      {
        "type": "note_on",
        "time": 15,
        "note": 64,
        "velocity": 100,
        "channel": 0
      },
      {
        "type": "note_on",
        "time": 45,
        "note": 64,
        "velocity": 0,
        "channel": 0
      },
      {
        "type": "note_on",
        "time": 15,
        "note": 64,
        "velocity": 100,
        "channel": 0
      },
      {
        "type": "note_on",
        "time": 45,
        "note": 64,
        "velocity": 0,
        "channel": 0
      },
      {
        "type": "note_on",
        "time": 15,
        "note": 64,
        "velocity": 100,
        "channel": 0
      },
      {
        "type": "note_on",
        "time": 15,
        "note": 64,
        "velocity": 0,
        "channel": 0
      },
      {
        "type": "note_on",
        "time": 15,
        "note": 64,
        "velocity": 100,
        "channel": 0
      },
      {
        "type": "note_on",
        "time": 60,
        "note": 64,
        "velocity": 0,
        "channel": 0
      },
      {
        "type": "note_on",
        "time": 0,
        "note": 62,
        "velocity": 100,
        "channel": 0
      },
      {
        "type": "note_on",
        "time": 30,
        "note": 62,
        "velocity": 0,
        "channel": 0
      },
      {
        "type": "note_on",
        "time": 0,
        "note": 64,
        "velocity": 100,
        "channel": 0
      },
      {
        "type": "note_on",
        "time": 30,
        "note": 64,
        "velocity": 0,
        "channel": 0
      },
      {
        "type": "note_on",
        "time": 0,
        "note": 62,
        "velocity": 100,
        "channel": 0
      },
      {
        "type": "note_on",
        "time": 30,
        "note": 62,
        "velocity": 0,
        "channel": 0
      },
      {
        "type": "note_on",
        "time": 0,
        "note": 64,
        "velocity": 100,
        "channel": 0
      },
      {
        "type": "note_on",
        "time": 60,
        "note": 64,
        "velocity": 0,
        "channel": 0
      },
      {
        "type": "note_on",
        "time": 0,
        "note": 62,
        "velocity": 100,
        "channel": 0
      },
      {
        "type": "note_on",
        "time": 60,
        "note": 62,
        "velocity": 0,
        "channel": 0
      },
      {
        "type": "note_on",
        "time": 60,
        "note": 62,
        "velocity": 100,
        "channel": 0
      },
      {
        "type": "note_on",
        "time": 45,
        "note": 62,
        "velocity": 0,
        "channel": 0
      },
      {
        "type": "note_on",
        "time": 15,
        "note": 64,
        "velocity": 100,
        "channel": 0
      },
      {
        "type": "note_on",
        "time": 45,
        "note": 64,
        "velocity": 0,
        "channel": 0
      },
      {
        "type": "note_on",
        "time": 15,
        "note": 62,
        "velocity": 100,
        "channel": 0
      },
      {
        "type": "note_on",
        "time": 30,
        "note": 62,
        "velocity": 0,
        "channel": 0
      },
      {
        "type": "note_on",
        "time": 0,
        "note": 64,
        "velocity": 100,
        "channel": 0
      },
      {
        "type": "note_on",
        "time": 45,
        "note": 64,
        "velocity": 0,
        "channel": 0
      },
      {
        "type": "note_on",
        "time": 15,
        "note": 62,
        "velocity": 100,
        "channel": 0
      },
      {
        "type": "note_on",
        "time": 30,
        "note": 62,
        "velocity": 0,
        "channel": 0
      },
      {
        "type": "note_on",
        "time": 0,
        "note": 64,
        "velocity": 100,
        "channel": 0
      },
      {
        "type": "note_on",
        "time": 30,
        "note": 64,
        "velocity": 0,
        "channel": 0
      },
      {
        "type": "note_on",
        "time": 0,
        "note": 62,
        "velocity": 100,
        "channel": 0
      },
      {
        "type": "note_on",
        "time": 30,
        "note": 62,
        "velocity": 0,
        "channel": 0
      },
      {
        "type": "note_on",
        "time": 0,
        "note": 64,
        "velocity": 100,
        "channel": 0
      },
      {
        "type": "note_on",
        "time": 60,
        "note": 64,
        "velocity": 0,
        "channel": 0
      },
      {
        "type": "note_on",
        "time": 0,
        "note": 62,
        "velocity": 100,
        "channel": 0
      },
      {
        "type": "note_on",
        "time": 60,
        "note": 62,
        "velocity": 0,
        "channel": 0
      },
      {
        "type": "note_on",
        "time": 60,
        "note": 62,
        "velocity": 100,
        "channel": 0
      },
      {
        "type": "note_on",
        "time": 45,
        "note": 62,
        "velocity": 0,
        "channel": 0
      },
      {
        "type": "note_on",
        "time": 15,
        "note": 64,
        "velocity": 100,
        "channel": 0
      },
      {
        "type": "note_on",
        "time": 45,
        "note": 64,
        "velocity": 0,
        "channel": 0
      },
      {
        "type": "note_on",
        "time": 15,
        "note": 62,
        "velocity": 100,
        "channel": 0
      },
      {
        "type": "note_on",
        "time": 30,
        "note": 62,
        "velocity": 0,
        "channel": 0
      },
      {
        "type": "note_on",
        "time": 0,
        "note": 64,
        "velocity": 100,
        "channel": 0
      },
      {
        "type": "note_on",
        "time": 45,
        "note": 64,
        "velocity": 0,
        "channel": 0
      },
      {
        "type": "note_on",
        "time": 15,
        "note": 62,
        "velocity": 100,
        "channel": 0
      },
      {
        "type": "note_on",
        "time": 30,
        "note": 62,
        "velocity": 0,
        "channel": 0
      },
      {
        "type": "note_on",
        "time": 0,
        "note": 64,
        "velocity": 100,
        "channel": 0
      },
      {
        "type": "note_on",
        "time": 30,
        "note": 64,
        "velocity": 0,
        "channel": 0
      },
      {
        "type": "note_on",
        "time": 0,
        "note": 62,
        "velocity": 100,
        "channel": 0
      },
      {
        "type": "note_on",
        "time": 30,
        "note": 62,
        "velocity": 0,
        "channel": 0
      },
      {
        "type": "note_on",
        "time": 0,
        "note": 64,
        "velocity": 100,
        "channel": 0
      },
      {
        "type": "note_on",
        "time": 45,
        "note": 64,
        "velocity": 0,
        "channel": 0
      },
      {
        "type": "note_on",
        "time": 15,
        "note": 62,
        "velocity": 100,
        "channel": 0
      },
      {
        "type": "note_on",
        "time": 45,
        "note": 62,
        "velocity": 0,
        "channel": 0
      },
      {
        "type": "note_on",
        "time": 75,
        "note": 62,
        "velocity": 100,
        "channel": 0
      },
      {
        "type": "note_on",
        "time": 45,
        "note": 62,
        "velocity": 0,
        "channel": 0
      },
      {
        "type": "note_on",
        "time": 15,
        "note": 64,
        "velocity": 100,
        "channel": 0
      },
      {
        "type": "note_on",
        "time": 45,
        "note": 64,
        "velocity": 0,
        "channel": 0
      },
      {
        "type": "note_on",
        "time": 15,
        "note": 64,
        "velocity": 100,
        "channel": 0
      },
      {
        "type": "note_on",
        "time": 15,
        "note": 64,
        "velocity": 0,
        "channel": 0
      },
      {
        "type": "note_on",
        "time": 15,
        "note": 64,
        "velocity": 100,
        "channel": 0
      },
      {
        "type": "note_on",
        "time": 45,
        "note": 64,
        "velocity": 0,
        "channel": 0
      },
      {
        "type": "note_on",
        "time": 15,
        "note": 64,
        "velocity": 100,
        "channel": 0
      },
      {
        "type": "note_on",
        "time": 15,
        "note": 64,
        "velocity": 0,
        "channel": 0
      },
      {
        "type": "note_on",
        "time": 15,
        "note": 64,
        "velocity": 100,
        "channel": 0
      },
      {
        "type": "note_on",
        "time": 15,
        "note": 64,
        "velocity": 0,
        "channel": 0
      },
      {
        "type": "note_on",
        "time": 15,
        "note": 64,
        "velocity": 100,
        "channel": 0
      },
      {
        "type": "note_on",
        "time": 15,
        "note": 64,
        "velocity": 0,
        "channel": 0
      },
      {
        "type": "note_on",
        "time": 15,
        "note": 64,
        "velocity": 100,
        "channel": 0
      },
      {
        "type": "note_on",
        "time": 45,
        "note": 64,
        "velocity": 0,
        "channel": 0
      },
      {
        "type": "note_on",
        "time": 15,
        "note": 62,
        "velocity": 100,
        "channel": 0
      },
      {
        "type": "note_on",
        "time": 45,
        "note": 62,
        "velocity": 0,
        "channel": 0
      },
      {
        "type": "note_on",
        "time": 15,
        "note": 64,
        "velocity": 100,
        "channel": 0
      },
      {
        "type": "note_on",
        "time": 45,
        "note": 64,
        "velocity": 0,
        "channel": 0
      },
      {
        "type": "note_on",
        "time": 15,
        "note": 64,
        "velocity": 100,
        "channel": 0
      },
      {
        "type": "note_on",
        "time": 45,
        "note": 64,
        "velocity": 0,
        "channel": 0
      },
      {
        "type": "note_on",
        "time": 15,
        "note": 64,
        "velocity": 100,
        "channel": 0
      },
      {
        "type": "note_on",
        "time": 45,
        "note": 64,
        "velocity": 0,
        "channel": 0
      },
      {
        "type": "note_on",
        "time": 15,
        "note": 64,
        "velocity": 100,
        "channel": 0
      },
      {
        "type": "note_on",
        "time": 15,
        "note": 64,
        "velocity": 0,
        "channel": 0
      },
      {
        "type": "note_on",
        "time": 15,
        "note": 64,
        "velocity": 100,
        "channel": 0
      },
      {
        "type": "note_on",
        "time": 60,
        "note": 64,
        "velocity": 0,
        "channel": 0
      },
      {
        "type": "note_on",
        "time": 0,
        "note": 62,
        "velocity": 100,
        "channel": 0
      },
      {
        "type": "note_on",
        "time": 30,
        "note": 62,
        "velocity": 0,
        "channel": 0
      },
      {
        "type": "note_on",
        "time": 0,
        "note": 64,
        "velocity": 100,
        "channel": 0
      },
      {
        "type": "note_on",
        "time": 30,
        "note": 64,
        "velocity": 0,
        "channel": 0
      },
      {
        "type": "note_on",
        "time": 0,
        "note": 62,
        "velocity": 100,
        "channel": 0
      },
      {
        "type": "note_on",
        "time": 30,
        "note": 62,
        "velocity": 0,
        "channel": 0
      },
      {
        "type": "note_on",
        "time": 0,
        "note": 64,
        "velocity": 100,
        "channel": 0
      },
      {
        "type": "note_on",
        "time": 60,
        "note": 64,
        "velocity": 0,
        "channel": 0
      },
      {
        "type": "note_on",
        "time": 0,
        "note": 62,
        "velocity": 100,
        "channel": 0
      },
      {
        "type": "note_on",
        "time": 60,
        "note": 62,
        "velocity": 0,
        "channel": 0
      },
      {
        "type": "note_on",
        "time": 60,
        "note": 62,
        "velocity": 100,
        "channel": 0
      },
      {
        "type": "note_on",
        "time": 45,
        "note": 62,
        "velocity": 0,
        "channel": 0
      },
      {
        "type": "note_on",
        "time": 15,
        "note": 64,
        "velocity": 100,
        "channel": 0
      },
      {
        "type": "note_on",
        "time": 45,
        "note": 64,
        "velocity": 0,
        "channel": 0
      },
      {
        "type": "note_on",
        "time": 15,
        "note": 62,
        "velocity": 100,
        "channel": 0
      },
      {
        "type": "note_on",
        "time": 30,
        "note": 62,
        "velocity": 0,
        "channel": 0
      },
      {
        "type": "note_on",
        "time": 0,
        "note": 64,
        "velocity": 100,
        "channel": 0
      },
      {
        "type": "note_on",
        "time": 45,
        "note": 64,
        "velocity": 0,
        "channel": 0
      },
      {
        "type": "note_on",
        "time": 15,
        "note": 62,
        "velocity": 100,
        "channel": 0
      },
      {
        "type": "note_on",
        "time": 30,
        "note": 62,
        "velocity": 0,
        "channel": 0
      },
      {
        "type": "note_on",
        "time": 0,
        "note": 64,
        "velocity": 100,
        "channel": 0
      },
      {
        "type": "note_on",
        "time": 30,
        "note": 64,
        "velocity": 0,
        "channel": 0
      },
      {
        "type": "note_on",
        "time": 0,
        "note": 62,
        "velocity": 100,
        "channel": 0
      },
      {
        "type": "note_on",
        "time": 30,
        "note": 62,
        "velocity": 0,
        "channel": 0
      },
      {
        "type": "note_on",
        "time": 0,
        "note": 64,
        "velocity": 100,
        "channel": 0
      },
      {
        "type": "note_on",
        "time": 60,
        "note": 64,
        "velocity": 0,
        "channel": 0
      },
      {
        "type": "note_on",
        "time": 0,
        "note": 62,
        "velocity": 100,
        "channel": 0
      },
      {
        "type": "note_on",
        "time": 60,
        "note": 62,
        "velocity": 0,
        "channel": 0
      },
      {
        "type": "note_on",
        "time": 60,
        "note": 62,
        "velocity": 100,
        "channel": 0
      },
      {
        "type": "note_on",
        "time": 45,
        "note": 62,
        "velocity": 0,
        "channel": 0
      },
      {
        "type": "note_on",
        "time": 15,
        "note": 64,
        "velocity": 100,
        "channel": 0
      },
      {
        "type": "note_on",
        "time": 45,
        "note": 64,
        "velocity": 0,
        "channel": 0
      },
      {
        "type": "note_on",
        "time": 15,
        "note": 62,
        "velocity": 100,
        "channel": 0
      },
      {
        "type": "note_on",
        "time": 30,
        "note": 62,
        "velocity": 0,
        "channel": 0
      },
      {
        "type": "note_on",
        "time": 0,
        "note": 64,
        "velocity": 100,
        "channel": 0
      },
      {
        "type": "note_on",
        "time": 45,
        "note": 64,
        "velocity": 0,
        "channel": 0
      },
      {
        "type": "note_on",
        "time": 15,
        "note": 62,
        "velocity": 100,
        "channel": 0
      },
      {
        "type": "note_on",
        "time": 30,
        "note": 62,
        "velocity": 0,
        "channel": 0
      },
      {
        "type": "note_on",
        "time": 0,
        "note": 64,
        "velocity": 100,
        "channel": 0
      },
      {
        "type": "note_on",
        "time": 30,
        "note": 64,
        "velocity": 0,
        "channel": 0
      },
      {
        "type": "note_on",
        "time": 0,
        "note": 62,
        "velocity": 100,
        "channel": 0
      },
      {
        "type": "note_on",
        "time": 30,
        "note": 62,
        "velocity": 0,
        "channel": 0
      },
      {
        "type": "note_on",
        "time": 0,
        "note": 64,
        "velocity": 100,
        "channel": 0
      },
      {
        "type": "note_on",
        "time": 45,
        "note": 64,
        "velocity": 0,
        "channel": 0
      },
      {
        "type": "note_on",
        "time": 15,
        "note": 62,
        "velocity": 100,
        "channel": 0
      },
      {
        "type": "note_on",
        "time": 45,
        "note": 62,
        "velocity": 0,
        "channel": 0
      },
      {
        "type": "note_on",
        "time": 75,
        "note": 62,
        "velocity": 100,
        "channel": 0
      },
      {
        "type": "note_on",
        "time": 45,
        "note": 62,
        "velocity": 0,
        "channel": 0
      },
      {
        "type": "note_on",
        "time": 15,
        "note": 64,
        "velocity": 100,
        "channel": 0
      },
      {
        "type": "note_on",
        "time": 45,
        "note": 64,
        "velocity": 0,
        "channel": 0
      },
      {
        "type": "note_on",
        "time": 15,
        "note": 64,
        "velocity": 100,
        "channel": 0
      },
      {
        "type": "note_on",
        "time": 15,
        "note": 64,
        "velocity": 0,
        "channel": 0
      },
      {
        "type": "note_on",
        "time": 15,
        "note": 64,
        "velocity": 100,
        "channel": 0
      },
      {
        "type": "note_on",
        "time": 45,
        "note": 64,
        "velocity": 0,
        "channel": 0
      },
      {
        "type": "note_on",
        "time": 15,
        "note": 64,
        "velocity": 100,
        "channel": 0
      },
      {
        "type": "note_on",
        "time": 15,
        "note": 64,
        "velocity": 0,
        "channel": 0
      },
      {
        "type": "note_on",
        "time": 15,
        "note": 64,
        "velocity": 100,
        "channel": 0
      },
      {
        "type": "note_on",
        "time": 15,
        "note": 64,
        "velocity": 0,
        "channel": 0
      },
      {
        "type": "note_on",
        "time": 15,
        "note": 64,
        "velocity": 100,
        "channel": 0
      },
      {
        "type": "note_on",
        "time": 15,
        "note": 64,
        "velocity": 0,
        "channel": 0
      },
      {
        "type": "note_on",
        "time": 15,
        "note": 64,
        "velocity": 100,
        "channel": 0
      },
      {
        "type": "note_on",
        "time": 45,
        "note": 64,
        "velocity": 0,
        "channel": 0
      },
      {
        "type": "note_on",
        "time": 15,
        "note": 62,
        "velocity": 100,
        "channel": 0
      },
      {
        "type": "note_on",
        "time": 45,
        "note": 62,
        "velocity": 0,
        "channel": 0
      },
      {
        "type": "note_on",
        "time": 15,
        "note": 64,
        "velocity": 100,
        "channel": 0
      },
      {
        "type": "note_on",
        "time": 45,
        "note": 64,
        "velocity": 0,
        "channel": 0
      },
      {
        "type": "note_on",
        "time": 15,
        "note": 64,
        "velocity": 100,
        "channel": 0
      },
      {
        "type": "note_on",
        "time": 45,
        "note": 64,
        "velocity": 0,
        "channel": 0
      },
      {
        "type": "note_on",
        "time": 15,
        "note": 64,
        "velocity": 100,
        "channel": 0
      },
      {
        "type": "note_on",
        "time": 45,
        "note": 64,
        "velocity": 0,
        "channel": 0
      },
      {
        "type": "note_on",
        "time": 15,
        "note": 64,
        "velocity": 100,
        "channel": 0
      },
      {
        "type": "note_on",
        "time": 15,
        "note": 64,
        "velocity": 0,
        "channel": 0
      },
      {
        "type": "note_on",
        "time": 15,
        "note": 64,
        "velocity": 100,
        "channel": 0
      },
      {
        "type": "note_on",
        "time": 60,
        "note": 64,
        "velocity": 0,
        "channel": 0
      },
      {
        "type": "note_on",
        "time": 0,
        "note": 62,
        "velocity": 100,
        "channel": 0
      },
      {
        "type": "note_on",
        "time": 30,
        "note": 62,
        "velocity": 0,
        "channel": 0
      },
      {
        "type": "note_on",
        "time": 0,
        "note": 64,
        "velocity": 100,
        "channel": 0
      },
      {
        "type": "note_on",
        "time": 30,
        "note": 64,
        "velocity": 0,
        "channel": 0
      },
      {
        "type": "note_on",
        "time": 0,
        "note": 62,
        "velocity": 100,
        "channel": 0
      },
      {
        "type": "note_on",
        "time": 30,
        "note": 62,
        "velocity": 0,
        "channel": 0
      },
      {
        "type": "note_on",
        "time": 0,
        "note": 64,
        "velocity": 100,
        "channel": 0
      },
      {
        "type": "note_on",
        "time": 60,
        "note": 64,
        "velocity": 0,
        "channel": 0
      },
      {
        "type": "note_on",
        "time": 0,
        "note": 59,
        "velocity": 100,
        "channel": 0
      },
      {
        "type": "note_on",
        "time": 30,
        "note": 59,
        "velocity": 0,
        "channel": 0
      },
      {
        "type": "note_on",
        "time": 0,
        "note": 64,
        "velocity": 100,
        "channel": 0
      },
      {
        "type": "note_on",
        "time": 90,
        "note": 64,
        "velocity": 0,
        "channel": 0
      },
      {
        "type": "note_on",
        "time": 0,
        "note": 62,
        "velocity": 100,
        "channel": 0
      },
      {
        "type": "note_on",
        "time": 45,
        "note": 62,
        "velocity": 0,
        "channel": 0
      },
      {
        "type": "note_on",
        "time": 15,
        "note": 62,
        "velocity": 100,
        "channel": 0
      },
      {
        "type": "note_on",
        "time": 60,
        "note": 62,
        "velocity": 0,
        "channel": 0
      },
      {
        "type": "note_on",
        "time": 0,
        "note": 59,
        "velocity": 100,
        "channel": 0
      },
      {
        "type": "note_on",
        "time": 30,
        "note": 59,
        "velocity": 0,
        "channel": 0
      },
      {
        "type": "note_on",
        "time": 0,
        "note": 64,
        "velocity": 100,
        "channel": 0
      },
      {
        "type": "note_on",
        "time": 90,
        "note": 64,
        "velocity": 0,
        "channel": 0
      },
      {
        "type": "note_on",
        "time": 0,
        "note": 62,
        "velocity": 100,
        "channel": 0
      },
      {
        "type": "note_on",
        "time": 45,
        "note": 62,
        "velocity": 0,
        "channel": 0
      },
      {
        "type": "note_on",
        "time": 15,
        "note": 62,
        "velocity": 100,
        "channel": 0
      },
      {
        "type": "note_on",
        "time": 45,
        "note": 62,
        "velocity": 0,
        "channel": 0
      },
      {
        "type": "note_on",
        "time": 15,
        "note": 59,
        "velocity": 100,
        "channel": 0
      },
      {
        "type": "note_on",
        "time": 30,
        "note": 59,
        "velocity": 0,
        "channel": 0
      },
      {
        "type": "note_on",
        "time": 0,
        "note": 64,
        "velocity": 100,
        "channel": 0
      },
      {
        "type": "note_on",
        "time": 90,
        "note": 64,
        "velocity": 0,
        "channel": 0
      },
      {
        "type": "note_on",
        "time": 0,
        "note": 62,
        "velocity": 100,
        "channel": 0
      },
      {
        "type": "note_on",
        "time": 45,
        "note": 62,
        "velocity": 0,
        "channel": 0
      },
      {
        "type": "note_on",
        "time": 15,
        "note": 62,
        "velocity": 100,
        "channel": 0
      },
      {
        "type": "note_on",
        "time": 45,
        "note": 62,
        "velocity": 0,
        "channel": 0
      },
      {
        "type": "note_on",
        "time": 15,
        "note": 59,
        "velocity": 100,
        "channel": 0
      },
      {
        "type": "note_on",
        "time": 30,
        "note": 59,
        "velocity": 0,
        "channel": 0
      },
      {
        "type": "note_on",
        "time": 0,
        "note": 64,
        "velocity": 100,
        "channel": 0
      },
      {
        "type": "note_on",
        "time": 90,
        "note": 64,
        "velocity": 0,
        "channel": 0
      },
      {
        "type": "note_on",
        "time": 0,
        "note": 62,
        "velocity": 100,
        "channel": 0
      },
      {
        "type": "note_on",
        "time": 45,
        "note": 62,
        "velocity": 0,
        "channel": 0
      },
      {
        "type": "note_on",
        "time": 15,
        "note": 62,
        "velocity": 100,
        "channel": 0
      },
      {
        "type": "note_on",
        "time": 45,
        "note": 62,
        "velocity": 0,
        "channel": 0
      },
      {
        "type": "note_on",
        "time": 75,
        "note": 64,
        "velocity": 100,
        "channel": 0
      },
      {
        "type": "note_on",
        "time": 45,
        "note": 64,
        "velocity": 0,
        "channel": 0
      },
      {
        "type": "note_on",
        "time": 15,
        "note": 62,
        "velocity": 100,
        "channel": 0
      },
      {
        "type": "note_on",
        "time": 45,
        "note": 62,
        "velocity": 0,
        "channel": 0
      },
      {
        "type": "note_on",
        "time": 15,
        "note": 62,
        "velocity": 100,
        "channel": 0
      },
      {
        "type": "note_on",
        "time": 45,
        "note": 62,
        "velocity": 0,
        "channel": 0
      },
      {
        "type": "note_on",
        "time": 15,
        "note": 59,
        "velocity": 100,
        "channel": 0
      },
      {
        "type": "note_on",
        "time": 45,
        "note": 59,
        "velocity": 0,
        "channel": 0
      },
      {
        "type": "note_on",
        "time": 15,
        "note": 59,
        "velocity": 100,
        "channel": 0
      },
      {
        "type": "note_on",
        "time": 45,
        "note": 59,
        "velocity": 0,
        "channel": 0
      },
      {
        "type": "note_on",
        "time": 15,
        "note": 57,
        "velocity": 100,
        "channel": 0
      },
      {
        "type": "note_on",
        "time": 165,
        "note": 57,
        "velocity": 0,
        "channel": 0
      },
      {
        "type": "note_on",
        "time": 15,
        "note": 54,
        "velocity": 100,
        "channel": 0
      },
      {
        "type": "note_on",
        "time": 105,
        "note": 54,
        "velocity": 0,
        "channel": 0
      },
      {
        "type": "note_on",
        "time": 15,
        "note": 57,
        "velocity": 100,
        "channel": 0
      },
      {
        "type": "note_on",
        "time": 60,
        "note": 57,
        "velocity": 0,
        "channel": 0
      },
      {
        "type": "note_on",
        "time": 0,
        "note": 55,
        "velocity": 100,
        "channel": 0
      },
      {
        "type": "note_on",
        "time": 180,
        "note": 55,
        "velocity": 0,
        "channel": 0
      },
      {
        "type": "note_on",
        "time": 60,
        "note": 59,
        "velocity": 100,
        "channel": 0
      },
      {
        "type": "note_on",
        "time": 30,
        "note": 59,
        "velocity": 0,
        "channel": 0
      },
      {
        "type": "note_on",
        "time": 0,
        "note": 64,
        "velocity": 100,
        "channel": 0
      },
      {
        "type": "note_on",
        "time": 90,
        "note": 64,
        "velocity": 0,
        "channel": 0
      },
      {
        "type": "note_on",
        "time": 0,
        "note": 62,
        "velocity": 100,
        "channel": 0
      },
      {
        "type": "note_on",
        "time": 45,
        "note": 62,
        "velocity": 0,
        "channel": 0
      },
      {
        "type": "note_on",
        "time": 15,
        "note": 62,
        "velocity": 100,
        "channel": 0
      },
      {
        "type": "note_on",
        "time": 60,
        "note": 62,
        "velocity": 0,
        "channel": 0
      },
      {
        "type": "note_on",
        "time": 0,
        "note": 59,
        "velocity": 100,
        "channel": 0
      },
      {
        "type": "note_on",
        "time": 30,
        "note": 59,
        "velocity": 0,
        "channel": 0
      },
      {
        "type": "note_on",
        "time": 0,
        "note": 64,
        "velocity": 100,
        "channel": 0
      },
      {
        "type": "note_on",
        "time": 90,
        "note": 64,
        "velocity": 0,
        "channel": 0
      },
      {
        "type": "note_on",
        "time": 0,
        "note": 62,
        "velocity": 100,
        "channel": 0
      },
      {
        "type": "note_on",
        "time": 45,
        "note": 62,
        "velocity": 0,
        "channel": 0
      },
      {
        "type": "note_on",
        "time": 15,
        "note": 62,
        "velocity": 100,
        "channel": 0
      },
      {
        "type": "note_on",
        "time": 45,
        "note": 62,
        "velocity": 0,
        "channel": 0
      },
      {
        "type": "note_on",
        "time": 15,
        "note": 59,
        "velocity": 100,
        "channel": 0
      },
      {
        "type": "note_on",
        "time": 30,
        "note": 59,
        "velocity": 0,
        "channel": 0
      },
      {
        "type": "note_on",
        "time": 0,
        "note": 64,
        "velocity": 100,
        "channel": 0
      },
      {
        "type": "note_on",
        "time": 90,
        "note": 64,
        "velocity": 0,
        "channel": 0
      },
      {
        "type": "note_on",
        "time": 0,
        "note": 62,
        "velocity": 100,
        "channel": 0
      },
      {
        "type": "note_on",
        "time": 45,
        "note": 62,
        "velocity": 0,
        "channel": 0
      },
      {
        "type": "note_on",
        "time": 15,
        "note": 62,
        "velocity": 100,
        "channel": 0
      },
      {
        "type": "note_on",
        "time": 45,
        "note": 62,
        "velocity": 0,
        "channel": 0
      },
      {
        "type": "note_on",
        "time": 15,
        "note": 59,
        "velocity": 100,
        "channel": 0
      },
      {
        "type": "note_on",
        "time": 30,
        "note": 59,
        "velocity": 0,
        "channel": 0
      },
      {
        "type": "note_on",
        "time": 0,
        "note": 64,
        "velocity": 100,
        "channel": 0
      },
      {
        "type": "note_on",
        "time": 90,
        "note": 64,
        "velocity": 0,
        "channel": 0
      },
      {
        "type": "note_on",
        "time": 0,
        "note": 62,
        "velocity": 100,
        "channel": 0
      },
      {
        "type": "note_on",
        "time": 45,
        "note": 62,
        "velocity": 0,
        "channel": 0
      },
      {
        "type": "note_on",
        "time": 15,
        "note": 62,
        "velocity": 100,
        "channel": 0
      },
      {
        "type": "note_on",
        "time": 45,
        "note": 62,
        "velocity": 0,
        "channel": 0
      },
      {
        "type": "note_on",
        "time": 75,
        "note": 62,
        "velocity": 100,
        "channel": 0
      },
      {
        "type": "note_on",
        "time": 45,
        "note": 62,
        "velocity": 0,
        "channel": 0
      },
      {
        "type": "note_on",
        "time": 15,
        "note": 59,
        "velocity": 100,
        "channel": 0
      },
      {
        "type": "note_on",
        "time": 45,
        "note": 59,
        "velocity": 0,
        "channel": 0
      },
      {
        "type": "note_on",
        "time": 15,
        "note": 59,
        "velocity": 100,
        "channel": 0
      },
      {
        "type": "note_on",
        "time": 45,
        "note": 59,
        "velocity": 0,
        "channel": 0
      },
      {
        "type": "note_on",
        "time": 15,
        "note": 57,
        "velocity": 100,
        "channel": 0
      },
      {
        "type": "note_on",
        "time": 45,
        "note": 57,
        "velocity": 0,
        "channel": 0
      },
      {
        "type": "note_on",
        "time": 15,
        "note": 57,
        "velocity": 100,
        "channel": 0
      },
      {
        "type": "note_on",
        "time": 45,
        "note": 57,
        "velocity": 0,
        "channel": 0
      },
      {
        "type": "note_on",
        "time": 15,
        "note": 55,
        "velocity": 100,
        "channel": 0
      },
      {
        "type": "note_on",
        "time": 165,
        "note": 55,
        "velocity": 0,
        "channel": 0
      },
      {
        "type": "note_on",
        "time": 15,
        "note": 54,
        "velocity": 100,
        "channel": 0
      },
      {
        "type": "note_on",
        "time": 120,
        "note": 54,
        "velocity": 0,
        "channel": 0
      },
      {
        "type": "note_on",
        "time": 0,
        "note": 55,
        "velocity": 100,
        "channel": 0
      },
      {
        "type": "note_on",
        "time": 240,
        "note": 55,
        "velocity": 0,
        "channel": 0
      },
      {
        "type": "note_on",
        "time": 180,
        "note": 62,
        "velocity": 100,
        "channel": 0
      },
      {
        "type": "note_on",
        "time": 45,
        "note": 62,
        "velocity": 0,
        "channel": 0
      },
      {
        "type": "note_on",
        "time": 15,
        "note": 64,
        "velocity": 100,
        "channel": 0
      },
      {
        "type": "note_on",
        "time": 45,
        "note": 64,
        "velocity": 0,
        "channel": 0
      },
      {
        "type": "note_on",
        "time": 15,
        "note": 62,
        "velocity": 100,
        "channel": 0
      },
      {
        "type": "note_on",
        "time": 30,
        "note": 62,
        "velocity": 0,
        "channel": 0
      },
      {
        "type": "note_on",
        "time": 0,
        "note": 64,
        "velocity": 100,
        "channel": 0
      },
      {
        "type": "note_on",
        "time": 45,
        "note": 64,
        "velocity": 0,
        "channel": 0
      },
      {
        "type": "note_on",
        "time": 15,
        "note": 62,
        "velocity": 100,
        "channel": 0
      },
      {
        "type": "note_on",
        "time": 30,
        "note": 62,
        "velocity": 0,
        "channel": 0
      },
      {
        "type": "note_on",
        "time": 0,
        "note": 64,
        "velocity": 100,
        "channel": 0
      },
      {
        "type": "note_on",
        "time": 30,
        "note": 64,
        "velocity": 0,
        "channel": 0
      },
      {
        "type": "note_on",
        "time": 0,
        "note": 62,
        "velocity": 100,
        "channel": 0
      },
      {
        "type": "note_on",
        "time": 30,
        "note": 62,
        "velocity": 0,
        "channel": 0
      },
      {
        "type": "note_on",
        "time": 0,
        "note": 64,
        "velocity": 100,
        "channel": 0
      },
      {
        "type": "note_on",
        "time": 60,
        "note": 64,
        "velocity": 0,
        "channel": 0
      },
      {
        "type": "note_on",
        "time": 0,
        "note": 62,
        "velocity": 100,
        "channel": 0
      },
      {
        "type": "note_on",
        "time": 60,
        "note": 62,
        "velocity": 0,
        "channel": 0
      },
      {
        "type": "note_on",
        "time": 60,
        "note": 62,
        "velocity": 100,
        "channel": 0
      },
      {
        "type": "note_on",
        "time": 45,
        "note": 62,
        "velocity": 0,
        "channel": 0
      },
      {
        "type": "note_on",
        "time": 15,
        "note": 64,
        "velocity": 100,
        "channel": 0
      },
      {
        "type": "note_on",
        "time": 45,
        "note": 64,
        "velocity": 0,
        "channel": 0
      },
      {
        "type": "note_on",
        "time": 15,
        "note": 62,
        "velocity": 100,
        "channel": 0
      },
      {
        "type": "note_on",
        "time": 30,
        "note": 62,
        "velocity": 0,
        "channel": 0
      },
      {
        "type": "note_on",
        "time": 0,
        "note": 64,
        "velocity": 100,
        "channel": 0
      },
      {
        "type": "note_on",
        "time": 45,
        "note": 64,
        "velocity": 0,
        "channel": 0
      },
      {
        "type": "note_on",
        "time": 15,
        "note": 62,
        "velocity": 100,
        "channel": 0
      },
      {
        "type": "note_on",
        "time": 30,
        "note": 62,
        "velocity": 0,
        "channel": 0
      },
      {
        "type": "note_on",
        "time": 0,
        "note": 64,
        "velocity": 100,
        "channel": 0
      },
      {
        "type": "note_on",
        "time": 30,
        "note": 64,
        "velocity": 0,
        "channel": 0
      },
      {
        "type": "note_on",
        "time": 0,
        "note": 62,
        "velocity": 100,
        "channel": 0
      },
      {
        "type": "note_on",
        "time": 30,
        "note": 62,
        "velocity": 0,
        "channel": 0
      },
      {
        "type": "note_on",
        "time": 0,
        "note": 64,
        "velocity": 100,
        "channel": 0
      },
      {
        "type": "note_on",
        "time": 45,
        "note": 64,
        "velocity": 0,
        "channel": 0
      },
      {
        "type": "note_on",
        "time": 15,
        "note": 62,
        "velocity": 100,
        "channel": 0
      },
      {
        "type": "note_on",
        "time": 45,
        "note": 62,
        "velocity": 0,
        "channel": 0
      },
      {
        "type": "note_on",
        "time": 75,
        "note": 62,
        "velocity": 100,
        "channel": 0
      },
      {
        "type": "note_on",
        "time": 45,
        "note": 62,
        "velocity": 0,
        "channel": 0
      },
      {
        "type": "note_on",
        "time": 15,
        "note": 64,
        "velocity": 100,
        "channel": 0
      },
      {
        "type": "note_on",
        "time": 45,
        "note": 64,
        "velocity": 0,
        "channel": 0
      },
      {
        "type": "note_on",
        "time": 15,
        "note": 64,
        "velocity": 100,
        "channel": 0
      },
      {
        "type": "note_on",
        "time": 15,
        "note": 64,
        "velocity": 0,
        "channel": 0
      },
      {
        "type": "note_on",
        "time": 15,
        "note": 64,
        "velocity": 100,
        "channel": 0
      },
      {
        "type": "note_on",
        "time": 45,
        "note": 64,
        "velocity": 0,
        "channel": 0
      },
      {
        "type": "note_on",
        "time": 15,
        "note": 64,
        "velocity": 100,
        "channel": 0
      },
      {
        "type": "note_on",
        "time": 15,
        "note": 64,
        "velocity": 0,
        "channel": 0
      },
      {
        "type": "note_on",
        "time": 15,
        "note": 64,
        "velocity": 100,
        "channel": 0
      },
      {
        "type": "note_on",
        "time": 15,
        "note": 64,
        "velocity": 0,
        "channel": 0
      },
      {
        "type": "note_on",
        "time": 15,
        "note": 64,
        "velocity": 100,
        "channel": 0
      },
      {
        "type": "note_on",
        "time": 15,
        "note": 64,
        "velocity": 0,
        "channel": 0
      },
      {
        "type": "note_on",
        "time": 15,
        "note": 64,
        "velocity": 100,
        "channel": 0
      },
      {
        "type": "note_on",
        "time": 45,
        "note": 64,
        "velocity": 0,
        "channel": 0
      },
      {
        "type": "note_on",
        "time": 15,
        "note": 62,
        "velocity": 100,
        "channel": 0
      },
      {
        "type": "note_on",
        "time": 45,
        "note": 62,
        "velocity": 0,
        "channel": 0
      },
      {
        "type": "note_on",
        "time": 15,
        "note": 64,
        "velocity": 100,
        "channel": 0
      },
      {
        "type": "note_on",
        "time": 45,
        "note": 64,
        "velocity": 0,
        "channel": 0
      },
      {
        "type": "note_on",
        "time": 15,
        "note": 64,
        "velocity": 100,
        "channel": 0
      },
      {
        "type": "note_on",
        "time": 45,
        "note": 64,
        "velocity": 0,
        "channel": 0
      },
      {
        "type": "note_on",
        "time": 15,
        "note": 64,
        "velocity": 100,
        "channel": 0
      },
      {
        "type": "note_on",
        "time": 45,
        "note": 64,
        "velocity": 0,
        "channel": 0
      },
      {
        "type": "note_on",
        "time": 15,
        "note": 64,
        "velocity": 100,
        "channel": 0
      },
      {
        "type": "note_on",
        "time": 15,
        "note": 64,
        "velocity": 0,
        "channel": 0
      },
      {
        "type": "note_on",
        "time": 15,
        "note": 64,
        "velocity": 100,
        "channel": 0
      },
      {
        "type": "note_on",
        "time": 60,
        "note": 64,
        "velocity": 0,
        "channel": 0
      },
      {
        "type": "note_on",
        "time": 0,
        "note": 62,
        "velocity": 100,
        "channel": 0
      },
      {
        "type": "note_on",
        "time": 30,
        "note": 62,
        "velocity": 0,
        "channel": 0
      },
      {
        "type": "note_on",
        "time": 0,
        "note": 64,
        "velocity": 100,
        "channel": 0
      },
      {
        "type": "note_on",
        "time": 30,
        "note": 64,
        "velocity": 0,
        "channel": 0
      },
      {
        "type": "note_on",
        "time": 0,
        "note": 62,
        "velocity": 100,
        "channel": 0
      },
      {
        "type": "note_on",
        "time": 30,
        "note": 62,
        "velocity": 0,
        "channel": 0
      },
      {
        "type": "note_on",
        "time": 0,
        "note": 64,
        "velocity": 100,
        "channel": 0
      },
      {
        "type": "note_on",
        "time": 60,
        "note": 64,
        "velocity": 0,
        "channel": 0
      },
      {
        "type": "note_on",
        "time": 0,
        "note": 62,
        "velocity": 100,
        "channel": 0
      },
      {
        "type": "note_on",
        "time": 60,
        "note": 62,
        "velocity": 0,
        "channel": 0
      },
      {
        "type": "note_on",
        "time": 60,
        "note": 62,
        "velocity": 100,
        "channel": 0
      },
      {
        "type": "note_on",
        "time": 45,
        "note": 62,
        "velocity": 0,
        "channel": 0
      },
      {
        "type": "note_on",
        "time": 15,
        "note": 64,
        "velocity": 100,
        "channel": 0
      },
      {
        "type": "note_on",
        "time": 45,
        "note": 64,
        "velocity": 0,
        "channel": 0
      },
      {
        "type": "note_on",
        "time": 15,
        "note": 62,
        "velocity": 100,
        "channel": 0
      },
      {
        "type": "note_on",
        "time": 30,
        "note": 62,
        "velocity": 0,
        "channel": 0
      },
      {
        "type": "note_on",
        "time": 0,
        "note": 64,
        "velocity": 100,
        "channel": 0
      },
      {
        "type": "note_on",
        "time": 45,
        "note": 64,
        "velocity": 0,
        "channel": 0
      },
      {
        "type": "note_on",
        "time": 15,
        "note": 62,
        "velocity": 100,
        "channel": 0
      },
      {
        "type": "note_on",
        "time": 30,
        "note": 62,
        "velocity": 0,
        "channel": 0
      },
      {
        "type": "note_on",
        "time": 0,
        "note": 64,
        "velocity": 100,
        "channel": 0
      },
      {
        "type": "note_on",
        "time": 30,
        "note": 64,
        "velocity": 0,
        "channel": 0
      },
      {
        "type": "note_on",
        "time": 0,
        "note": 62,
        "velocity": 100,
        "channel": 0
      },
      {
        "type": "note_on",
        "time": 30,
        "note": 62,
        "velocity": 0,
        "channel": 0
      },
      {
        "type": "note_on",
        "time": 0,
        "note": 64,
        "velocity": 100,
        "channel": 0
      },
      {
        "type": "note_on",
        "time": 60,
        "note": 64,
        "velocity": 0,
        "channel": 0
      },
      {
        "type": "note_on",
        "time": 0,
        "note": 62,
        "velocity": 100,
        "channel": 0
      },
      {
        "type": "note_on",
        "time": 60,
        "note": 62,
        "velocity": 0,
        "channel": 0
      },
      {
        "type": "note_on",
        "time": 60,
        "note": 62,
        "velocity": 100,
        "channel": 0
      },
      {
        "type": "note_on",
        "time": 45,
        "note": 62,
        "velocity": 0,
        "channel": 0
      },
      {
        "type": "note_on",
        "time": 15,
        "note": 64,
        "velocity": 100,
        "channel": 0
      },
      {
        "type": "note_on",
        "time": 45,
        "note": 64,
        "velocity": 0,
        "channel": 0
      },
      {
        "type": "note_on",
        "time": 15,
        "note": 62,
        "velocity": 100,
        "channel": 0
      },
      {
        "type": "note_on",
        "time": 30,
        "note": 62,
        "velocity": 0,
        "channel": 0
      },
      {
        "type": "note_on",
        "time": 0,
        "note": 64,
        "velocity": 100,
        "channel": 0
      },
      {
        "type": "note_on",
        "time": 45,
        "note": 64,
        "velocity": 0,
        "channel": 0
      },
      {
        "type": "note_on",
        "time": 15,
        "note": 62,
        "velocity": 100,
        "channel": 0
      },
      {
        "type": "note_on",
        "time": 30,
        "note": 62,
        "velocity": 0,
        "channel": 0
      },
      {
        "type": "note_on",
        "time": 0,
        "note": 64,
        "velocity": 100,
        "channel": 0
      },
      {
        "type": "note_on",
        "time": 30,
        "note": 64,
        "velocity": 0,
        "channel": 0
      },
      {
        "type": "note_on",
        "time": 0,
        "note": 62,
        "velocity": 100,
        "channel": 0
      },
      {
        "type": "note_on",
        "time": 30,
        "note": 62,
        "velocity": 0,
        "channel": 0
      },
      {
        "type": "note_on",
        "time": 0,
        "note": 64,
        "velocity": 100,
        "channel": 0
      },
      {
        "type": "note_on",
        "time": 45,
        "note": 64,
        "velocity": 0,
        "channel": 0
      },
      {
        "type": "note_on",
        "time": 15,
        "note": 62,
        "velocity": 100,
        "channel": 0
      },
      {
        "type": "note_on",
        "time": 45,
        "note": 62,
        "velocity": 0,
        "channel": 0
      },
      {
        "type": "note_on",
        "time": 75,
        "note": 64,
        "velocity": 100,
        "channel": 0
      },
      {
        "type": "note_on",
        "time": 45,
        "note": 64,
        "velocity": 0,
        "channel": 0
      },
      {
        "type": "note_on",
        "time": 15,
        "note": 64,
        "velocity": 100,
        "channel": 0
      },
      {
        "type": "note_on",
        "time": 45,
        "note": 64,
        "velocity": 0,
        "channel": 0
      },
      {
        "type": "note_on",
        "time": 15,
        "note": 64,
        "velocity": 100,
        "channel": 0
      },
      {
        "type": "note_on",
        "time": 15,
        "note": 64,
        "velocity": 0,
        "channel": 0
      },
      {
        "type": "note_on",
        "time": 15,
        "note": 64,
        "velocity": 100,
        "channel": 0
      },
      {
        "type": "note_on",
        "time": 45,
        "note": 64,
        "velocity": 0,
        "channel": 0
      },
      {
        "type": "note_on",
        "time": 15,
        "note": 64,
        "velocity": 100,
        "channel": 0
      },
      {
        "type": "note_on",
        "time": 15,
        "note": 64,
        "velocity": 0,
        "channel": 0
      },
      {
        "type": "note_on",
        "time": 15,
        "note": 64,
        "velocity": 100,
        "channel": 0
      },
      {
        "type": "note_on",
        "time": 15,
        "note": 64,
        "velocity": 0,
        "channel": 0
      },
      {
        "type": "note_on",
        "time": 15,
        "note": 64,
        "velocity": 100,
        "channel": 0
      },
      {
        "type": "note_on",
        "time": 15,
        "note": 64,
        "velocity": 0,
        "channel": 0
      },
      {
        "type": "note_on",
        "time": 15,
        "note": 64,
        "velocity": 100,
        "channel": 0
      },
      {
        "type": "note_on",
        "time": 45,
        "note": 64,
        "velocity": 0,
        "channel": 0
      },
      {
        "type": "note_on",
        "time": 15,
        "note": 62,
        "velocity": 100,
        "channel": 0
      },
      {
        "type": "note_on",
        "time": 45,
        "note": 62,
        "velocity": 0,
        "channel": 0
      },
      {
        "type": "note_on",
        "time": 15,
        "note": 64,
        "velocity": 100,
        "channel": 0
      },
      {
        "type": "note_on",
        "time": 45,
        "note": 64,
        "velocity": 0,
        "channel": 0
      },
      {
        "type": "note_on",
        "time": 15,
        "note": 64,
        "velocity": 100,
        "channel": 0
      },
      {
        "type": "note_on",
        "time": 45,
        "note": 64,
        "velocity": 0,
        "channel": 0
      },
      {
        "type": "note_on",
        "time": 15,
        "note": 64,
        "velocity": 100,
        "channel": 0
      },
      {
        "type": "note_on",
        "time": 45,
        "note": 64,
        "velocity": 0,
        "channel": 0
      },
      {
        "type": "note_on",
        "time": 15,
        "note": 64,
        "velocity": 100,
        "channel": 0
      },
      {
        "type": "note_on",
        "time": 15,
        "note": 64,
        "velocity": 0,
        "channel": 0
      },
      {
        "type": "note_on",
        "time": 15,
        "note": 64,
        "velocity": 100,
        "channel": 0
      },
      {
        "type": "note_on",
        "time": 60,
        "note": 64,
        "velocity": 0,
        "channel": 0
      },
      {
        "type": "note_on",
        "time": 0,
        "note": 62,
        "velocity": 100,
        "channel": 0
      },
      {
        "type": "note_on",
        "time": 30,
        "note": 62,
        "velocity": 0,
        "channel": 0
      },
      {
        "type": "note_on",
        "time": 0,
        "note": 64,
        "velocity": 100,
        "channel": 0
      },
      {
        "type": "note_on",
        "time": 30,
        "note": 64,
        "velocity": 0,
        "channel": 0
      },
      {
        "type": "note_on",
        "time": 0,
        "note": 62,
        "velocity": 100,
        "channel": 0
      },
      {
        "type": "note_on",
        "time": 30,
        "note": 62,
        "velocity": 0,
        "channel": 0
      },
      {
        "type": "note_on",
        "time": 0,
        "note": 64,
        "velocity": 100,
        "channel": 0
      },
      {
        "type": "note_on",
        "time": 60,
        "note": 64,
        "velocity": 0,
        "channel": 0
      },
      {
        "type": "note_on",
        "time": 0,
        "note": 62,
        "velocity": 100,
        "channel": 0
      },
      {
        "type": "note_on",
        "time": 60,
        "note": 62,
        "velocity": 0,
        "channel": 0
      },
      {
        "type": "note_on",
        "time": 60,
        "note": 62,
        "velocity": 100,
        "channel": 0
      },
      {
        "type": "note_on",
        "time": 45,
        "note": 62,
        "velocity": 0,
        "channel": 0
      },
      {
        "type": "note_on",
        "time": 15,
        "note": 64,
        "velocity": 100,
        "channel": 0
      },
      {
        "type": "note_on",
        "time": 45,
        "note": 64,
        "velocity": 0,
        "channel": 0
      },
      {
        "type": "note_on",
        "time": 15,
        "note": 62,
        "velocity": 100,
        "channel": 0
      },
      {
        "type": "note_on",
        "time": 30,
        "note": 62,
        "velocity": 0,
        "channel": 0
      },
      {
        "type": "note_on",
        "time": 0,
        "note": 64,
        "velocity": 100,
        "channel": 0
      },
      {
        "type": "note_on",
        "time": 45,
        "note": 64,
        "velocity": 0,
        "channel": 0
      },
      {
        "type": "note_on",
        "time": 15,
        "note": 62,
        "velocity": 100,
        "channel": 0
      },
      {
        "type": "note_on",
        "time": 30,
        "note": 62,
        "velocity": 0,
        "channel": 0
      },
      {
        "type": "note_on",
        "time": 0,
        "note": 64,
        "velocity": 100,
        "channel": 0
      },
      {
        "type": "note_on",
        "time": 30,
        "note": 64,
        "velocity": 0,
        "channel": 0
      },
      {
        "type": "note_on",
        "time": 0,
        "note": 62,
        "velocity": 100,
        "channel": 0
      },
      {
        "type": "note_on",
        "time": 30,
        "note": 62,
        "velocity": 0,
        "channel": 0
      },
      {
        "type": "note_on",
        "time": 0,
        "note": 64,
        "velocity": 100,
        "channel": 0
      },
      {
        "type": "note_on",
        "time": 60,
        "note": 64,
        "velocity": 0,
        "channel": 0
      },
      {
        "type": "note_on",
        "time": 0,
        "note": 62,
        "velocity": 100,
        "channel": 0
      },
      {
        "type": "note_on",
        "time": 60,
        "note": 62,
        "velocity": 0,
        "channel": 0
      },
      {
        "type": "note_on",
        "time": 60,
        "note": 62,
        "velocity": 100,
        "channel": 0
      },
      {
        "type": "note_on",
        "time": 45,
        "note": 62,
        "velocity": 0,
        "channel": 0
      },
      {
        "type": "note_on",
        "time": 15,
        "note": 64,
        "velocity": 100,
        "channel": 0
      },
      {
        "type": "note_on",
        "time": 45,
        "note": 64,
        "velocity": 0,
        "channel": 0
      },
      {
        "type": "note_on",
        "time": 15,
        "note": 62,
        "velocity": 100,
        "channel": 0
      },
      {
        "type": "note_on",
        "time": 30,
        "note": 62,
        "velocity": 0,
        "channel": 0
      },
      {
        "type": "note_on",
        "time": 0,
        "note": 64,
        "velocity": 100,
        "channel": 0
      },
      {
        "type": "note_on",
        "time": 45,
        "note": 64,
        "velocity": 0,
        "channel": 0
      },
      {
        "type": "note_on",
        "time": 15,
        "note": 62,
        "velocity": 100,
        "channel": 0
      },
      {
        "type": "note_on",
        "time": 30,
        "note": 62,
        "velocity": 0,
        "channel": 0
      },
      {
        "type": "note_on",
        "time": 0,
        "note": 64,
        "velocity": 100,
        "channel": 0
      },
      {
        "type": "note_on",
        "time": 30,
        "note": 64,
        "velocity": 0,
        "channel": 0
      },
      {
        "type": "note_on",
        "time": 0,
        "note": 62,
        "velocity": 100,
        "channel": 0
      },
      {
        "type": "note_on",
        "time": 30,
        "note": 62,
        "velocity": 0,
        "channel": 0
      },
      {
        "type": "note_on",
        "time": 0,
        "note": 64,
        "velocity": 100,
        "channel": 0
      },
      {
        "type": "note_on",
        "time": 45,
        "note": 64,
        "velocity": 0,
        "channel": 0
      },
      {
        "type": "note_on",
        "time": 15,
        "note": 62,
        "velocity": 100,
        "channel": 0
      },
      {
        "type": "note_on",
        "time": 45,
        "note": 62,
        "velocity": 0,
        "channel": 0
      },
      {
        "type": "note_on",
        "time": 75,
        "note": 62,
        "velocity": 100,
        "channel": 0
      },
      {
        "type": "note_on",
        "time": 45,
        "note": 62,
        "velocity": 0,
        "channel": 0
      },
      {
        "type": "note_on",
        "time": 15,
        "note": 64,
        "velocity": 100,
        "channel": 0
      },
      {
        "type": "note_on",
        "time": 45,
        "note": 64,
        "velocity": 0,
        "channel": 0
      },
      {
        "type": "note_on",
        "time": 15,
        "note": 64,
        "velocity": 100,
        "channel": 0
      },
      {
        "type": "note_on",
        "time": 15,
        "note": 64,
        "velocity": 0,
        "channel": 0
      },
      {
        "type": "note_on",
        "time": 15,
        "note": 64,
        "velocity": 100,
        "channel": 0
      },
      {
        "type": "note_on",
        "time": 45,
        "note": 64,
        "velocity": 0,
        "channel": 0
      },
      {
        "type": "note_on",
        "time": 15,
        "note": 64,
        "velocity": 100,
        "channel": 0
      },
      {
        "type": "note_on",
        "time": 15,
        "note": 64,
        "velocity": 0,
        "channel": 0
      },
      {
        "type": "note_on",
        "time": 15,
        "note": 64,
        "velocity": 100,
        "channel": 0
      },
      {
        "type": "note_on",
        "time": 15,
        "note": 64,
        "velocity": 0,
        "channel": 0
      },
      {
        "type": "note_on",
        "time": 15,
        "note": 64,
        "velocity": 100,
        "channel": 0
      },
      {
        "type": "note_on",
        "time": 15,
        "note": 64,
        "velocity": 0,
        "channel": 0
      },
      {
        "type": "note_on",
        "time": 15,
        "note": 64,
        "velocity": 100,
        "channel": 0
      },
      {
        "type": "note_on",
        "time": 45,
        "note": 64,
        "velocity": 0,
        "channel": 0
      },
      {
        "type": "note_on",
        "time": 15,
        "note": 62,
        "velocity": 100,
        "channel": 0
      },
      {
        "type": "note_on",
        "time": 45,
        "note": 62,
        "velocity": 0,
        "channel": 0
      },
      {
        "type": "note_on",
        "time": 15,
        "note": 64,
        "velocity": 100,
        "channel": 0
      },
      {
        "type": "note_on",
        "time": 45,
        "note": 64,
        "velocity": 0,
        "channel": 0
      },
      {
        "type": "note_on",
        "time": 15,
        "note": 64,
        "velocity": 100,
        "channel": 0
      },
      {
        "type": "note_on",
        "time": 45,
        "note": 64,
        "velocity": 0,
        "channel": 0
      },
      {
        "type": "note_on",
        "time": 15,
        "note": 64,
        "velocity": 100,
        "channel": 0
      },
      {
        "type": "note_on",
        "time": 45,
        "note": 64,
        "velocity": 0,
        "channel": 0
      },
      {
        "type": "note_on",
        "time": 15,
        "note": 64,
        "velocity": 100,
        "channel": 0
      },
      {
        "type": "note_on",
        "time": 15,
        "note": 64,
        "velocity": 0,
        "channel": 0
      },
      {
        "type": "note_on",
        "time": 15,
        "note": 64,
        "velocity": 100,
        "channel": 0
      },
      {
        "type": "note_on",
        "time": 60,
        "note": 64,
        "velocity": 0,
        "channel": 0
      },
      {
        "type": "note_on",
        "time": 0,
        "note": 62,
        "velocity": 100,
        "channel": 0
      },
      {
        "type": "note_on",
        "time": 30,
        "note": 62,
        "velocity": 0,
        "channel": 0
      },
      {
        "type": "note_on",
        "time": 0,
        "note": 64,
        "velocity": 100,
        "channel": 0
      },
      {
        "type": "note_on",
        "time": 30,
        "note": 64,
        "velocity": 0,
        "channel": 0
      },
      {
        "type": "note_on",
        "time": 0,
        "note": 62,
        "velocity": 100,
        "channel": 0
      },
      {
        "type": "note_on",
        "time": 30,
        "note": 62,
        "velocity": 0,
        "channel": 0
      },
      {
        "type": "note_on",
        "time": 0,
        "note": 64,
        "velocity": 100,
        "channel": 0
      },
      {
        "type": "note_on",
        "time": 60,
        "note": 64,
        "velocity": 0,
        "channel": 0
      },
      {
        "type": "note_on",
        "time": 0,
        "note": 62,
        "velocity": 100,
        "channel": 0
      },
      {
        "type": "note_on",
        "time": 60,
        "note": 62,
        "velocity": 0,
        "channel": 0
      },
      {
        "type": "note_on",
        "time": 60,
        "note": 62,
        "velocity": 100,
        "channel": 0
      },
      {
        "type": "note_on",
        "time": 45,
        "note": 62,
        "velocity": 0,
        "channel": 0
      },
      {
        "type": "note_on",
        "time": 15,
        "note": 64,
        "velocity": 100,
        "channel": 0
      },
      {
        "type": "note_on",
        "time": 45,
        "note": 64,
        "velocity": 0,
        "channel": 0
      },
      {
        "type": "note_on",
        "time": 15,
        "note": 62,
        "velocity": 100,
        "channel": 0
      },
      {
        "type": "note_on",
        "time": 30,
        "note": 62,
        "velocity": 0,
        "channel": 0
      },
      {
        "type": "note_on",
        "time": 0,
        "note": 64,
        "velocity": 100,
        "channel": 0
      },
      {
        "type": "note_on",
        "time": 45,
        "note": 64,
        "velocity": 0,
        "channel": 0
      },
      {
        "type": "note_on",
        "time": 15,
        "note": 62,
        "velocity": 100,
        "channel": 0
      },
      {
        "type": "note_on",
        "time": 30,
        "note": 62,
        "velocity": 0,
        "channel": 0
      },
      {
        "type": "note_on",
        "time": 0,
        "note": 64,
        "velocity": 100,
        "channel": 0
      },
      {
        "type": "note_on",
        "time": 30,
        "note": 64,
        "velocity": 0,
        "channel": 0
      },
      {
        "type": "note_on",
        "time": 0,
        "note": 62,
        "velocity": 100,
        "channel": 0
      },
      {
        "type": "note_on",
        "time": 30,
        "note": 62,
        "velocity": 0,
        "channel": 0
      },
      {
        "type": "note_on",
        "time": 0,
        "note": 64,
        "velocity": 100,
        "channel": 0
      },
      {
        "type": "note_on",
        "time": 60,
        "note": 64,
        "velocity": 0,
        "channel": 0
      },
      {
        "type": "note_on",
        "time": 0,
        "note": 62,
        "velocity": 100,
        "channel": 0
      },
      {
        "type": "note_on",
        "time": 60,
        "note": 62,
        "velocity": 0,
        "channel": 0
      },
      {
        "type": "note_on",
        "time": 60,
        "note": 62,
        "velocity": 100,
        "channel": 0
      },
      {
        "type": "note_on",
        "time": 45,
        "note": 62,
        "velocity": 0,
        "channel": 0
      },
      {
        "type": "note_on",
        "time": 15,
        "note": 64,
        "velocity": 100,
        "channel": 0
      },
      {
        "type": "note_on",
        "time": 45,
        "note": 64,
        "velocity": 0,
        "channel": 0
      },
      {
        "type": "note_on",
        "time": 15,
        "note": 62,
        "velocity": 100,
        "channel": 0
      },
      {
        "type": "note_on",
        "time": 30,
        "note": 62,
        "velocity": 0,
        "channel": 0
      },
      {
        "type": "note_on",
        "time": 0,
        "note": 64,
        "velocity": 100,
        "channel": 0
      },
      {
        "type": "note_on",
        "time": 45,
        "note": 64,
        "velocity": 0,
        "channel": 0
      },
      {
        "type": "note_on",
        "time": 15,
        "note": 62,
        "velocity": 100,
        "channel": 0
      },
      {
        "type": "note_on",
        "time": 30,
        "note": 62,
        "velocity": 0,
        "channel": 0
      },
      {
        "type": "note_on",
        "time": 0,
        "note": 64,
        "velocity": 100,
        "channel": 0
      },
      {
        "type": "note_on",
        "time": 30,
        "note": 64,
        "velocity": 0,
        "channel": 0
      },
      {
        "type": "note_on",
        "time": 0,
        "note": 62,
        "velocity": 100,
        "channel": 0
      },
      {
        "type": "note_on",
        "time": 30,
        "note": 62,
        "velocity": 0,
        "channel": 0
      },
      {
        "type": "note_on",
        "time": 0,
        "note": 64,
        "velocity": 100,
        "channel": 0
      },
      {
        "type": "note_on",
        "time": 45,
        "note": 64,
        "velocity": 0,
        "channel": 0
      },
      {
        "type": "note_on",
        "time": 15,
        "note": 62,
        "velocity": 100,
        "channel": 0
      },
      {
        "type": "note_on",
        "time": 45,
        "note": 62,
        "velocity": 0,
        "channel": 0
      },
      {
        "type": "note_on",
        "time": 75,
        "note": 62,
        "velocity": 100,
        "channel": 0
      },
      {
        "type": "note_on",
        "time": 45,
        "note": 62,
        "velocity": 0,
        "channel": 0
      },
      {
        "type": "note_on",
        "time": 15,
        "note": 64,
        "velocity": 100,
        "channel": 0
      },
      {
        "type": "note_on",
        "time": 45,
        "note": 64,
        "velocity": 0,
        "channel": 0
      },
      {
        "type": "note_on",
        "time": 15,
        "note": 64,
        "velocity": 100,
        "channel": 0
      },
      {
        "type": "note_on",
        "time": 15,
        "note": 64,
        "velocity": 0,
        "channel": 0
      },
      {
        "type": "note_on",
        "time": 15,
        "note": 64,
        "velocity": 100,
        "channel": 0
      },
      {
        "type": "note_on",
        "time": 45,
        "note": 64,
        "velocity": 0,
        "channel": 0
      },
      {
        "type": "note_on",
        "time": 15,
        "note": 64,
        "velocity": 100,
        "channel": 0
      },
      {
        "type": "note_on",
        "time": 15,
        "note": 64,
        "velocity": 0,
        "channel": 0
      },
      {
        "type": "note_on",
        "time": 15,
        "note": 64,
        "velocity": 100,
        "channel": 0
      },
      {
        "type": "note_on",
        "time": 15,
        "note": 64,
        "velocity": 0,
        "channel": 0
      },
      {
        "type": "note_on",
        "time": 15,
        "note": 64,
        "velocity": 100,
        "channel": 0
      },
      {
        "type": "note_on",
        "time": 15,
        "note": 64,
        "velocity": 0,
        "channel": 0
      },
      {
        "type": "note_on",
        "time": 15,
        "note": 64,
        "velocity": 100,
        "channel": 0
      },
      {
        "type": "note_on",
        "time": 45,
        "note": 64,
        "velocity": 0,
        "channel": 0
      },
      {
        "type": "note_on",
        "time": 15,
        "note": 62,
        "velocity": 100,
        "channel": 0
      },
      {
        "type": "note_on",
        "time": 45,
        "note": 62,
        "velocity": 0,
        "channel": 0
      },
      {
        "type": "note_on",
        "time": 15,
        "note": 64,
        "velocity": 100,
        "channel": 0
      },
      {
        "type": "note_on",
        "time": 45,
        "note": 64,
        "velocity": 0,
        "channel": 0
      },
      {
        "type": "note_on",
        "time": 15,
        "note": 64,
        "velocity": 100,
        "channel": 0
      },
      {
        "type": "note_on",
        "time": 45,
        "note": 64,
        "velocity": 0,
        "channel": 0
      },
      {
        "type": "note_on",
        "time": 15,
        "note": 64,
        "velocity": 100,
        "channel": 0
      },
      {
        "type": "note_on",
        "time": 45,
        "note": 64,
        "velocity": 0,
        "channel": 0
      },
      {
        "type": "note_on",
        "time": 15,
        "note": 64,
        "velocity": 100,
        "channel": 0
      },
      {
        "type": "note_on",
        "time": 15,
        "note": 64,
        "velocity": 0,
        "channel": 0
      },
      {
        "type": "note_on",
        "time": 15,
        "note": 64,
        "velocity": 100,
        "channel": 0
      },
      {
        "type": "note_on",
        "time": 60,
        "note": 64,
        "velocity": 0,
        "channel": 0
      },
      {
        "type": "note_on",
        "time": 0,
        "note": 62,
        "velocity": 100,
        "channel": 0
      },
      {
        "type": "note_on",
        "time": 30,
        "note": 62,
        "velocity": 0,
        "channel": 0
      },
      {
        "type": "note_on",
        "time": 0,
        "note": 64,
        "velocity": 100,
        "channel": 0
      },
      {
        "type": "note_on",
        "time": 30,
        "note": 64,
        "velocity": 0,
        "channel": 0
      },
      {
        "type": "note_on",
        "time": 0,
        "note": 62,
        "velocity": 100,
        "channel": 0
      },
      {
        "type": "note_on",
        "time": 30,
        "note": 62,
        "velocity": 0,
        "channel": 0
      },
      {
        "type": "note_on",
        "time": 0,
        "note": 64,
        "velocity": 100,
        "channel": 0
      },
      {
        "type": "note_on",
        "time": 60,
        "note": 64,
        "velocity": 0,
        "channel": 0
      },
      {
        "type": "note_on",
        "time": 0,
        "note": 59,
        "velocity": 100,
        "channel": 0
      },
      {
        "type": "note_on",
        "time": 30,
        "note": 59,
        "velocity": 0,
        "channel": 0
      },
      {
        "type": "note_on",
        "time": 0,
        "note": 64,
        "velocity": 100,
        "channel": 0
      },
      {
        "type": "note_on",
        "time": 90,
        "note": 64,
        "velocity": 0,
        "channel": 0
      },
      {
        "type": "note_on",
        "time": 0,
        "note": 62,
        "velocity": 100,
        "channel": 0
      },
      {
        "type": "note_on",
        "time": 45,
        "note": 62,
        "velocity": 0,
        "channel": 0
      },
      {
        "type": "note_on",
        "time": 15,
        "note": 62,
        "velocity": 100,
        "channel": 0
      },
      {
        "type": "note_on",
        "time": 60,
        "note": 62,
        "velocity": 0,
        "channel": 0
      },
      {
        "type": "note_on",
        "time": 0,
        "note": 59,
        "velocity": 100,
        "channel": 0
      },
      {
        "type": "note_on",
        "time": 30,
        "note": 59,
        "velocity": 0,
        "channel": 0
      },
      {
        "type": "note_on",
        "time": 0,
        "note": 64,
        "velocity": 100,
        "channel": 0
      },
      {
        "type": "note_on",
        "time": 90,
        "note": 64,
        "velocity": 0,
        "channel": 0
      },
      {
        "type": "note_on",
        "time": 0,
        "note": 62,
        "velocity": 100,
        "channel": 0
      },
      {
        "type": "note_on",
        "time": 45,
        "note": 62,
        "velocity": 0,
        "channel": 0
      },
      {
        "type": "note_on",
        "time": 15,
        "note": 62,
        "velocity": 100,
        "channel": 0
      },
      {
        "type": "note_on",
        "time": 45,
        "note": 62,
        "velocity": 0,
        "channel": 0
      },
      {
        "type": "note_on",
        "time": 15,
        "note": 59,
        "velocity": 100,
        "channel": 0
      },
      {
        "type": "note_on",
        "time": 30,
        "note": 59,
        "velocity": 0,
        "channel": 0
      },
      {
        "type": "note_on",
        "time": 0,
        "note": 64,
        "velocity": 100,
        "channel": 0
      },
      {
        "type": "note_on",
        "time": 90,
        "note": 64,
        "velocity": 0,
        "channel": 0
      },
      {
        "type": "note_on",
        "time": 0,
        "note": 62,
        "velocity": 100,
        "channel": 0
      },
      {
        "type": "note_on",
        "time": 45,
        "note": 62,
        "velocity": 0,
        "channel": 0
      },
      {
        "type": "note_on",
        "time": 15,
        "note": 62,
        "velocity": 100,
        "channel": 0
      },
      {
        "type": "note_on",
        "time": 45,
        "note": 62,
        "velocity": 0,
        "channel": 0
      },
      {
        "type": "note_on",
        "time": 15,
        "note": 59,
        "velocity": 100,
        "channel": 0
      },
      {
        "type": "note_on",
        "time": 30,
        "note": 59,
        "velocity": 0,
        "channel": 0
      },
      {
        "type": "note_on",
        "time": 0,
        "note": 64,
        "velocity": 100,
        "channel": 0
      },
      {
        "type": "note_on",
        "time": 90,
        "note": 64,
        "velocity": 0,
        "channel": 0
      },
      {
        "type": "note_on",
        "time": 0,
        "note": 62,
        "velocity": 100,
        "channel": 0
      },
      {
        "type": "note_on",
        "time": 45,
        "note": 62,
        "velocity": 0,
        "channel": 0
      },
      {
        "type": "note_on",
        "time": 15,
        "note": 62,
        "velocity": 100,
        "channel": 0
      },
      {
        "type": "note_on",
        "time": 45,
        "note": 62,
        "velocity": 0,
        "channel": 0
      },
      {
        "type": "note_on",
        "time": 75,
        "note": 64,
        "velocity": 100,
        "channel": 0
      },
      {
        "type": "note_on",
        "time": 45,
        "note": 64,
        "velocity": 0,
        "channel": 0
      },
      {
        "type": "note_on",
        "time": 15,
        "note": 62,
        "velocity": 100,
        "channel": 0
      },
      {
        "type": "note_on",
        "time": 45,
        "note": 62,
        "velocity": 0,
        "channel": 0
      },
      {
        "type": "note_on",
        "time": 15,
        "note": 62,
        "velocity": 100,
        "channel": 0
      },
      {
        "type": "note_on",
        "time": 45,
        "note": 62,
        "velocity": 0,
        "channel": 0
      },
      {
        "type": "note_on",
        "time": 15,
        "note": 59,
        "velocity": 100,
        "channel": 0
      },
      {
        "type": "note_on",
        "time": 45,
        "note": 59,
        "velocity": 0,
        "channel": 0
      },
      {
        "type": "note_on",
        "time": 15,
        "note": 59,
        "velocity": 100,
        "channel": 0
      },
      {
        "type": "note_on",
        "time": 45,
        "note": 59,
        "velocity": 0,
        "channel": 0
      },
      {
        "type": "note_on",
        "time": 15,
        "note": 57,
        "velocity": 100,
        "channel": 0
      },
      {
        "type": "note_on",
        "time": 165,
        "note": 57,
        "velocity": 0,
        "channel": 0
      },
      {
        "type": "note_on",
        "time": 15,
        "note": 54,
        "velocity": 100,
        "channel": 0
      },
      {
        "type": "note_on",
        "time": 105,
        "note": 54,
        "velocity": 0,
        "channel": 0
      },
      {
        "type": "note_on",
        "time": 15,
        "note": 57,
        "velocity": 100,
        "channel": 0
      },
      {
        "type": "note_on",
        "time": 60,
        "note": 57,
        "velocity": 0,
        "channel": 0
      },
      {
        "type": "note_on",
        "time": 0,
        "note": 55,
        "velocity": 100,
        "channel": 0
      },
      {
        "type": "note_on",
        "time": 180,
        "note": 55,
        "velocity": 0,
        "channel": 0
      },
      {
        "type": "note_on",
        "time": 60,
        "note": 59,
        "velocity": 100,
        "channel": 0
      },
      {
        "type": "note_on",
        "time": 30,
        "note": 59,
        "velocity": 0,
        "channel": 0
      },
      {
        "type": "note_on",
        "time": 0,
        "note": 64,
        "velocity": 100,
        "channel": 0
      },
      {
        "type": "note_on",
        "time": 90,
        "note": 64,
        "velocity": 0,
        "channel": 0
      },
      {
        "type": "note_on",
        "time": 0,
        "note": 62,
        "velocity": 100,
        "channel": 0
      },
      {
        "type": "note_on",
        "time": 45,
        "note": 62,
        "velocity": 0,
        "channel": 0
      },
      {
        "type": "note_on",
        "time": 15,
        "note": 62,
        "velocity": 100,
        "channel": 0
      },
      {
        "type": "note_on",
        "time": 60,
        "note": 62,
        "velocity": 0,
        "channel": 0
      },
      {
        "type": "note_on",
        "time": 0,
        "note": 59,
        "velocity": 100,
        "channel": 0
      },
      {
        "type": "note_on",
        "time": 30,
        "note": 59,
        "velocity": 0,
        "channel": 0
      },
      {
        "type": "note_on",
        "time": 0,
        "note": 64,
        "velocity": 100,
        "channel": 0
      },
      {
        "type": "note_on",
        "time": 90,
        "note": 64,
        "velocity": 0,
        "channel": 0
      },
      {
        "type": "note_on",
        "time": 0,
        "note": 62,
        "velocity": 100,
        "channel": 0
      },
      {
        "type": "note_on",
        "time": 45,
        "note": 62,
        "velocity": 0,
        "channel": 0
      },
      {
        "type": "note_on",
        "time": 15,
        "note": 62,
        "velocity": 100,
        "channel": 0
      },
      {
        "type": "note_on",
        "time": 45,
        "note": 62,
        "velocity": 0,
        "channel": 0
      },
      {
        "type": "note_on",
        "time": 15,
        "note": 59,
        "velocity": 100,
        "channel": 0
      },
      {
        "type": "note_on",
        "time": 30,
        "note": 59,
        "velocity": 0,
        "channel": 0
      },
      {
        "type": "note_on",
        "time": 0,
        "note": 64,
        "velocity": 100,
        "channel": 0
      },
      {
        "type": "note_on",
        "time": 90,
        "note": 64,
        "velocity": 0,
        "channel": 0
      },
      {
        "type": "note_on",
        "time": 0,
        "note": 62,
        "velocity": 100,
        "channel": 0
      },
      {
        "type": "note_on",
        "time": 45,
        "note": 62,
        "velocity": 0,
        "channel": 0
      },
      {
        "type": "note_on",
        "time": 15,
        "note": 62,
        "velocity": 100,
        "channel": 0
      },
      {
        "type": "note_on",
        "time": 45,
        "note": 62,
        "velocity": 0,
        "channel": 0
      },
      {
        "type": "note_on",
        "time": 15,
        "note": 59,
        "velocity": 100,
        "channel": 0
      },
      {
        "type": "note_on",
        "time": 30,
        "note": 59,
        "velocity": 0,
        "channel": 0
      },
      {
        "type": "note_on",
        "time": 0,
        "note": 64,
        "velocity": 100,
        "channel": 0
      },
      {
        "type": "note_on",
        "time": 90,
        "note": 64,
        "velocity": 0,
        "channel": 0
      },
      {
        "type": "note_on",
        "time": 0,
        "note": 62,
        "velocity": 100,
        "channel": 0
      },
      {
        "type": "note_on",
        "time": 45,
        "note": 62,
        "velocity": 0,
        "channel": 0
      },
      {
        "type": "note_on",
        "time": 15,
        "note": 62,
        "velocity": 100,
        "channel": 0
      },
      {
        "type": "note_on",
        "time": 45,
        "note": 62,
        "velocity": 0,
        "channel": 0
      },
      {
        "type": "note_on",
        "time": 75,
        "note": 62,
        "velocity": 100,
        "channel": 0
      },
      {
        "type": "note_on",
        "time": 45,
        "note": 62,
        "velocity": 0,
        "channel": 0
      },
      {
        "type": "note_on",
        "time": 15,
        "note": 59,
        "velocity": 100,
        "channel": 0
      },
      {
        "type": "note_on",
        "time": 45,
        "note": 59,
        "velocity": 0,
        "channel": 0
      },
      {
        "type": "note_on",
        "time": 15,
        "note": 59,
        "velocity": 100,
        "channel": 0
      },
      {
        "type": "note_on",
        "time": 45,
        "note": 59,
        "velocity": 0,
        "channel": 0
      },
      {
        "type": "note_on",
        "time": 15,
        "note": 57,
        "velocity": 100,
        "channel": 0
      },
      {
        "type": "note_on",
        "time": 45,
        "note": 57,
        "velocity": 0,
        "channel": 0
      },
      {
        "type": "note_on",
        "time": 15,
        "note": 57,
        "velocity": 100,
        "channel": 0
      },
      {
        "type": "note_on",
        "time": 45,
        "note": 57,
        "velocity": 0,
        "channel": 0
      },
      {
        "type": "note_on",
        "time": 15,
        "note": 55,
        "velocity": 100,
        "channel": 0
      },
      {
        "type": "note_on",
        "time": 165,
        "note": 55,
        "velocity": 0,
        "channel": 0
      },
      {
        "type": "note_on",
        "time": 15,
        "note": 54,
        "velocity": 100,
        "channel": 0
      },
      {
        "type": "note_on",
        "time": 120,
        "note": 54,
        "velocity": 0,
        "channel": 0
      },
      {
        "type": "note_on",
        "time": 0,
        "note": 55,
        "velocity": 100,
        "channel": 0
      },
      {
        "type": "note_on",
        "time": 240,
        "note": 55,
        "velocity": 0,
        "channel": 0
      },
      {
        "type": "note_on",
        "time": 240,
        "note": 64,
        "velocity": 100,
        "channel": 0
      },
      {
        "type": "note_on",
        "time": 45,
        "note": 64,
        "velocity": 0,
        "channel": 0
      },
      {
        "type": "note_on",
        "time": 15,
        "note": 64,
        "velocity": 100,
        "channel": 0
      },
      {
        "type": "note_on",
        "time": 45,
        "note": 64,
        "velocity": 0,
        "channel": 0
      },
      {
        "type": "note_on",
        "time": 15,
        "note": 64,
        "velocity": 100,
        "channel": 0
      },
      {
        "type": "note_on",
        "time": 45,
        "note": 64,
        "velocity": 0,
        "channel": 0
      },
      {
        "type": "note_on",
        "time": 15,
        "note": 64,
        "velocity": 100,
        "channel": 0
      },
      {
        "type": "note_on",
        "time": 45,
        "note": 64,
        "velocity": 0,
        "channel": 0
      },
      {
        "type": "note_on",
        "time": 15,
        "note": 64,
        "velocity": 100,
        "channel": 0
      },
      {
        "type": "note_on",
        "time": 45,
        "note": 64,
        "velocity": 0,
        "channel": 0
      },
      {
        "type": "note_on",
        "time": 15,
        "note": 62,
        "velocity": 100,
        "channel": 0
      },
      {
        "type": "note_on",
        "time": 105,
        "note": 62,
        "velocity": 0,
        "channel": 0
      },
      {
        "type": "note_on",
        "time": 15,
        "note": 62,
        "velocity": 100,
        "channel": 0
      },
      {
        "type": "note_on",
        "time": 105,
        "note": 62,
        "velocity": 0,
        "channel": 0
      },
      {
        "type": "note_on",
        "time": 15,
        "note": 62,
        "velocity": 100,
        "channel": 0
      },
      {
        "type": "note_on",
        "time": 105,
        "note": 62,
        "velocity": 0,
        "channel": 0
      },
      {
        "type": "note_on",
        "time": 15,
        "note": 62,
        "velocity": 100,
        "channel": 0
      },
      {
        "type": "note_on",
        "time": 60,
        "note": 62,
        "velocity": 0,
        "channel": 0
      },
      {
        "type": "note_on",
        "time": 0,
        "note": 64,
        "velocity": 100,
        "channel": 0
      },
      {
        "type": "note_on",
        "time": 60,
        "note": 64,
        "velocity": 0,
        "channel": 0
      },
      {
        "type": "note_on",
        "time": 0,
        "note": 59,
        "velocity": 100,
        "channel": 0
      },
      {
        "type": "note_on",
        "time": 180,
        "note": 59,
        "velocity": 0,
        "channel": 0
      },
      {
        "type": "note_on",
        "time": 180,
        "note": 59,
        "velocity": 100,
        "channel": 0
      },
      {
        "type": "note_on",
        "time": 60,
        "note": 59,
        "velocity": 0,
        "channel": 0
      },
      {
        "type": "note_on",
        "time": 0,
        "note": 62,
        "velocity": 100,
        "channel": 0
      },
      {
        "type": "note_on",
        "time": 60,
        "note": 62,
        "velocity": 0,
        "channel": 0
      },
      {
        "type": "note_on",
        "time": 0,
        "note": 60,
        "velocity": 100,
        "channel": 0
      },
      {
        "type": "note_on",
        "time": 180,
        "note": 60,
        "velocity": 0,
        "channel": 0
      },
      {
        "type": "note_on",
        "time": 480,
        "note": 59,
        "velocity": 100,
        "channel": 0
      },
      {
        "type": "note_on",
        "time": 45,
        "note": 59,
        "velocity": 0,
        "channel": 0
      },
      {
        "type": "note_on",
        "time": 15,
        "note": 59,
        "velocity": 100,
        "channel": 0
      },
      {
        "type": "note_on",
        "time": 45,
        "note": 59,
        "velocity": 0,
        "channel": 0
      },
      {
        "type": "note_on",
        "time": 15,
        "note": 59,
        "velocity": 100,
        "channel": 0
      },
      {
        "type": "note_on",
        "time": 45,
        "note": 59,
        "velocity": 0,
        "channel": 0
      },
      {
        "type": "note_on",
        "time": 15,
        "note": 59,
        "velocity": 100,
        "channel": 0
      },
      {
        "type": "note_on",
        "time": 45,
        "note": 59,
        "velocity": 0,
        "channel": 0
      },
      {
        "type": "note_on",
        "time": 15,
        "note": 59,
        "velocity": 100,
        "channel": 0
      },
      {
        "type": "note_on",
        "time": 45,
        "note": 59,
        "velocity": 0,
        "channel": 0
      },
      {
        "type": "note_on",
        "time": 15,
        "note": 57,
        "velocity": 100,
        "channel": 0
      },
      {
        "type": "note_on",
        "time": 120,
        "note": 57,
        "velocity": 0,
        "channel": 0
      },
      {
        "type": "note_on",
        "time": 0,
        "note": 55,
        "velocity": 100,
        "channel": 0
      },
      {
        "type": "note_on",
        "time": 60,
        "note": 55,
        "velocity": 0,
        "channel": 0
      },
      {
        "type": "note_on",
        "time": 0,
        "note": 57,
        "velocity": 100,
        "channel": 0
      },
      {
        "type": "note_on",
        "time": 105,
        "note": 57,
        "velocity": 0,
        "channel": 0
      },
      {
        "type": "note_on",
        "time": 15,
        "note": 57,
        "velocity": 100,
        "channel": 0
      },
      {
        "type": "note_on",
        "time": 45,
        "note": 57,
        "velocity": 0,
        "channel": 0
      },
      {
        "type": "note_on",
        "time": 15,
        "note": 57,
        "velocity": 100,
        "channel": 0
      },
      {
        "type": "note_on",
        "time": 45,
        "note": 57,
        "velocity": 0,
        "channel": 0
      },
      {
        "type": "note_on",
        "time": 15,
        "note": 59,
        "velocity": 100,
        "channel": 0
      },
      {
        "type": "note_on",
        "time": 45,
        "note": 59,
        "velocity": 0,
        "channel": 0
      },
      {
        "type": "note_on",
        "time": 15,
        "note": 54,
        "velocity": 100,
        "channel": 0
      },
      {
        "type": "note_on",
        "time": 180,
        "note": 54,
        "velocity": 0,
        "channel": 0
      },
      {
        "type": "note_on",
        "time": 180,
        "note": 54,
        "velocity": 100,
        "channel": 0
      },
      {
        "type": "note_on",
        "time": 60,
        "note": 54,
        "velocity": 0,
        "channel": 0
      },
      {
        "type": "note_on",
        "time": 0,
        "note": 57,
        "velocity": 100,
        "channel": 0
      },
      {
        "type": "note_on",
        "time": 60,
        "note": 57,
        "velocity": 0,
        "channel": 0
      },
      {
        "type": "note_on",
        "time": 0,
        "note": 55,
        "velocity": 100,
        "channel": 0
      },
      {
        "type": "note_on",
        "time": 180,
        "note": 55,
        "velocity": 0,
        "channel": 0
      },
      {
        "type": "note_on",
        "time": 480,
        "note": 64,
        "velocity": 100,
        "channel": 0
      },
      {
        "type": "note_on",
        "time": 45,
        "note": 64,
        "velocity": 0,
        "channel": 0
      },
      {
        "type": "note_on",
        "time": 15,
        "note": 64,
        "velocity": 100,
        "channel": 0
      },
      {
        "type": "note_on",
        "time": 45,
        "note": 64,
        "velocity": 0,
        "channel": 0
      },
      {
        "type": "note_on",
        "time": 15,
        "note": 64,
        "velocity": 100,
        "channel": 0
      },
      {
        "type": "note_on",
        "time": 45,
        "note": 64,
        "velocity": 0,
        "channel": 0
      },
      {
        "type": "note_on",
        "time": 15,
        "note": 64,
        "velocity": 100,
        "channel": 0
      },
      {
        "type": "note_on",
        "time": 45,
        "note": 64,
        "velocity": 0,
        "channel": 0
      },
      {
        "type": "note_on",
        "time": 15,
        "note": 64,
        "velocity": 100,
        "channel": 0
      },
      {
        "type": "note_on",
        "time": 45,
        "note": 64,
        "velocity": 0,
        "channel": 0
      },
      {
        "type": "note_on",
        "time": 15,
        "note": 62,
        "velocity": 100,
        "channel": 0
      },
      {
        "type": "note_on",
        "time": 105,
        "note": 62,
        "velocity": 0,
        "channel": 0
      },
      {
        "type": "note_on",
        "time": 15,
        "note": 62,
        "velocity": 100,
        "channel": 0
      },
      {
        "type": "note_on",
        "time": 105,
        "note": 62,
        "velocity": 0,
        "channel": 0
      },
      {
        "type": "note_on",
        "time": 15,
        "note": 62,
        "velocity": 100,
        "channel": 0
      },
      {
        "type": "note_on",
        "time": 105,
        "note": 62,
        "velocity": 0,
        "channel": 0
      },
      {
        "type": "note_on",
        "time": 15,
        "note": 62,
        "velocity": 100,
        "channel": 0
      },
      {
        "type": "note_on",
        "time": 60,
        "note": 62,
        "velocity": 0,
        "channel": 0
      },
      {
        "type": "note_on",
        "time": 0,
        "note": 64,
        "velocity": 100,
        "channel": 0
      },
      {
        "type": "note_on",
        "time": 60,
        "note": 64,
        "velocity": 0,
        "channel": 0
      },
      {
        "type": "note_on",
        "time": 0,
        "note": 59,
        "velocity": 100,
        "channel": 0
      },
      {
        "type": "note_on",
        "time": 180,
        "note": 59,
        "velocity": 0,
        "channel": 0
      },
      {
        "type": "note_on",
        "time": 180,
        "note": 59,
        "velocity": 100,
        "channel": 0
      },
      {
        "type": "note_on",
        "time": 60,
        "note": 59,
        "velocity": 0,
        "channel": 0
      },
      {
        "type": "note_on",
        "time": 0,
        "note": 62,
        "velocity": 100,
        "channel": 0
      },
      {
        "type": "note_on",
        "time": 60,
        "note": 62,
        "velocity": 0,
        "channel": 0
      },
      {
        "type": "note_on",
        "time": 0,
        "note": 60,
        "velocity": 100,
        "channel": 0
      },
      {
        "type": "note_on",
        "time": 180,
        "note": 60,
        "velocity": 0,
        "channel": 0
      },
      {
        "type": "note_on",
        "time": 480,
        "note": 59,
        "velocity": 100,
        "channel": 0
      },
      {
        "type": "note_on",
        "time": 45,
        "note": 59,
        "velocity": 0,
        "channel": 0
      },
      {
        "type": "note_on",
        "time": 15,
        "note": 59,
        "velocity": 100,
        "channel": 0
      },
      {
        "type": "note_on",
        "time": 45,
        "note": 59,
        "velocity": 0,
        "channel": 0
      },
      {
        "type": "note_on",
        "time": 15,
        "note": 59,
        "velocity": 100,
        "channel": 0
      },
      {
        "type": "note_on",
        "time": 45,
        "note": 59,
        "velocity": 0,
        "channel": 0
      },
      {
        "type": "note_on",
        "time": 15,
        "note": 59,
        "velocity": 100,
        "channel": 0
      },
      {
        "type": "note_on",
        "time": 45,
        "note": 59,
        "velocity": 0,
        "channel": 0
      },
      {
        "type": "note_on",
        "time": 15,
        "note": 59,
        "velocity": 100,
        "channel": 0
      },
      {
        "type": "note_on",
        "time": 45,
        "note": 59,
        "velocity": 0,
        "channel": 0
      },
      {
        "type": "note_on",
        "time": 15,
        "note": 57,
        "velocity": 100,
        "channel": 0
      },
      {
        "type": "note_on",
        "time": 120,
        "note": 57,
        "velocity": 0,
        "channel": 0
      },
      {
        "type": "note_on",
        "time": 0,
        "note": 55,
        "velocity": 100,
        "channel": 0
      },
      {
        "type": "note_on",
        "time": 60,
        "note": 55,
        "velocity": 0,
        "channel": 0
      },
      {
        "type": "note_on",
        "time": 0,
        "note": 57,
        "velocity": 100,
        "channel": 0
      },
      {
        "type": "note_on",
        "time": 105,
        "note": 57,
        "velocity": 0,
        "channel": 0
      },
      {
        "type": "note_on",
        "time": 15,
        "note": 57,
        "velocity": 100,
        "channel": 0
      },
      {
        "type": "note_on",
        "time": 45,
        "note": 57,
        "velocity": 0,
        "channel": 0
      },
      {
        "type": "note_on",
        "time": 15,
        "note": 57,
        "velocity": 100,
        "channel": 0
      },
      {
        "type": "note_on",
        "time": 45,
        "note": 57,
        "velocity": 0,
        "channel": 0
      },
      {
        "type": "note_on",
        "time": 15,
        "note": 59,
        "velocity": 100,
        "channel": 0
      },
      {
        "type": "note_on",
        "time": 45,
        "note": 59,
        "velocity": 0,
        "channel": 0
      },
      {
        "type": "note_on",
        "time": 15,
        "note": 54,
        "velocity": 100,
        "channel": 0
      },
      {
        "type": "note_on",
        "time": 180,
        "note": 54,
        "velocity": 0,
        "channel": 0
      },
      {
        "type": "note_on",
        "time": 180,
        "note": 54,
        "velocity": 100,
        "channel": 0
      },
      {
        "type": "note_on",
        "time": 60,
        "note": 54,
        "velocity": 0,
        "channel": 0
      },
      {
        "type": "note_on",
        "time": 0,
        "note": 57,
        "velocity": 100,
        "channel": 0
      },
      {
        "type": "note_on",
        "time": 60,
        "note": 57,
        "velocity": 0,
        "channel": 0
      },
      {
        "type": "note_on",
        "time": 0,
        "note": 55,
        "velocity": 100,
        "channel": 0
      },
      {
        "type": "note_on",
        "time": 180,
        "note": 55,
        "velocity": 0,
        "channel": 0
      },
      {
        "type": "note_on",
        "time": 2340,
        "note": 62,
        "velocity": 100,
        "channel": 0
      },
      {
        "type": "note_on",
        "time": 45,
        "note": 62,
        "velocity": 0,
        "channel": 0
      },
      {
        "type": "note_on",
        "time": 15,
        "note": 64,
        "velocity": 100,
        "channel": 0
      },
      {
        "type": "note_on",
        "time": 45,
        "note": 64,
        "velocity": 0,
        "channel": 0
      },
      {
        "type": "note_on",
        "time": 15,
        "note": 62,
        "velocity": 100,
        "channel": 0
      },
      {
        "type": "note_on",
        "time": 30,
        "note": 62,
        "velocity": 0,
        "channel": 0
      },
      {
        "type": "note_on",
        "time": 0,
        "note": 64,
        "velocity": 100,
        "channel": 0
      },
      {
        "type": "note_on",
        "time": 45,
        "note": 64,
        "velocity": 0,
        "channel": 0
      },
      {
        "type": "note_on",
        "time": 15,
        "note": 62,
        "velocity": 100,
        "channel": 0
      },
      {
        "type": "note_on",
        "time": 30,
        "note": 62,
        "velocity": 0,
        "channel": 0
      },
      {
        "type": "note_on",
        "time": 0,
        "note": 64,
        "velocity": 100,
        "channel": 0
      },
      {
        "type": "note_on",
        "time": 30,
        "note": 64,
        "velocity": 0,
        "channel": 0
      },
      {
        "type": "note_on",
        "time": 0,
        "note": 62,
        "velocity": 100,
        "channel": 0
      },
      {
        "type": "note_on",
        "time": 30,
        "note": 62,
        "velocity": 0,
        "channel": 0
      },
      {
        "type": "note_on",
        "time": 0,
        "note": 64,
        "velocity": 100,
        "channel": 0
      },
      {
        "type": "note_on",
        "time": 60,
        "note": 64,
        "velocity": 0,
        "channel": 0
      },
      {
        "type": "note_on",
        "time": 0,
        "note": 62,
        "velocity": 100,
        "channel": 0
      },
      {
        "type": "note_on",
        "time": 60,
        "note": 62,
        "velocity": 0,
        "channel": 0
      },
      {
        "type": "note_on",
        "time": 60,
        "note": 62,
        "velocity": 100,
        "channel": 0
      },
      {
        "type": "note_on",
        "time": 45,
        "note": 62,
        "velocity": 0,
        "channel": 0
      },
      {
        "type": "note_on",
        "time": 15,
        "note": 64,
        "velocity": 100,
        "channel": 0
      },
      {
        "type": "note_on",
        "time": 45,
        "note": 64,
        "velocity": 0,
        "channel": 0
      },
      {
        "type": "note_on",
        "time": 15,
        "note": 62,
        "velocity": 100,
        "channel": 0
      },
      {
        "type": "note_on",
        "time": 30,
        "note": 62,
        "velocity": 0,
        "channel": 0
      },
      {
        "type": "note_on",
        "time": 0,
        "note": 64,
        "velocity": 100,
        "channel": 0
      },
      {
        "type": "note_on",
        "time": 45,
        "note": 64,
        "velocity": 0,
        "channel": 0
      },
      {
        "type": "note_on",
        "time": 15,
        "note": 62,
        "velocity": 100,
        "channel": 0
      },
      {
        "type": "note_on",
        "time": 30,
        "note": 62,
        "velocity": 0,
        "channel": 0
      },
      {
        "type": "note_on",
        "time": 0,
        "note": 64,
        "velocity": 100,
        "channel": 0
      },
      {
        "type": "note_on",
        "time": 30,
        "note": 64,
        "velocity": 0,
        "channel": 0
      },
      {
        "type": "note_on",
        "time": 0,
        "note": 62,
        "velocity": 100,
        "channel": 0
      },
      {
        "type": "note_on",
        "time": 30,
        "note": 62,
        "velocity": 0,
        "channel": 0
      },
      {
        "type": "note_on",
        "time": 0,
        "note": 64,
        "velocity": 100,
        "channel": 0
      },
      {
        "type": "note_on",
        "time": 45,
        "note": 64,
        "velocity": 0,
        "channel": 0
      },
      {
        "type": "note_on",
        "time": 15,
        "note": 62,
        "velocity": 100,
        "channel": 0
      },
      {
        "type": "note_on",
        "time": 45,
        "note": 62,
        "velocity": 0,
        "channel": 0
      },
      {
        "type": "note_on",
        "time": 75,
        "note": 62,
        "velocity": 100,
        "channel": 0
      },
      {
        "type": "note_on",
        "time": 45,
        "note": 62,
        "velocity": 0,
        "channel": 0
      },
      {
        "type": "note_on",
        "time": 15,
        "note": 64,
        "velocity": 100,
        "channel": 0
      },
      {
        "type": "note_on",
        "time": 45,
        "note": 64,
        "velocity": 0,
        "channel": 0
      },
      {
        "type": "note_on",
        "time": 15,
        "note": 64,
        "velocity": 100,
        "channel": 0
      },
      {
        "type": "note_on",
        "time": 15,
        "note": 64,
        "velocity": 0,
        "channel": 0
      },
      {
        "type": "note_on",
        "time": 15,
        "note": 64,
        "velocity": 100,
        "channel": 0
      },
      {
        "type": "note_on",
        "time": 45,
        "note": 64,
        "velocity": 0,
        "channel": 0
      },
      {
        "type": "note_on",
        "time": 15,
        "note": 64,
        "velocity": 100,
        "channel": 0
      },
      {
        "type": "note_on",
        "time": 15,
        "note": 64,
        "velocity": 0,
        "channel": 0
      },
      {
        "type": "note_on",
        "time": 15,
        "note": 64,
        "velocity": 100,
        "channel": 0
      },
      {
        "type": "note_on",
        "time": 15,
        "note": 64,
        "velocity": 0,
        "channel": 0
      },
      {
        "type": "note_on",
        "time": 15,
        "note": 64,
        "velocity": 100,
        "channel": 0
      },
      {
        "type": "note_on",
        "time": 15,
        "note": 64,
        "velocity": 0,
        "channel": 0
      },
      {
        "type": "note_on",
        "time": 15,
        "note": 64,
        "velocity": 100,
        "channel": 0
      },
      {
        "type": "note_on",
        "time": 45,
        "note": 64,
        "velocity": 0,
        "channel": 0
      },
      {
        "type": "note_on",
        "time": 15,
        "note": 62,
        "velocity": 100,
        "channel": 0
      },
      {
        "type": "note_on",
        "time": 45,
        "note": 62,
        "velocity": 0,
        "channel": 0
      },
      {
        "type": "note_on",
        "time": 15,
        "note": 64,
        "velocity": 100,
        "channel": 0
      },
      {
        "type": "note_on",
        "time": 45,
        "note": 64,
        "velocity": 0,
        "channel": 0
      },
      {
        "type": "note_on",
        "time": 15,
        "note": 64,
        "velocity": 100,
        "channel": 0
      },
      {
        "type": "note_on",
        "time": 45,
        "note": 64,
        "velocity": 0,
        "channel": 0
      },
      {
        "type": "note_on",
        "time": 15,
        "note": 64,
        "velocity": 100,
        "channel": 0
      },
      {
        "type": "note_on",
        "time": 45,
        "note": 64,
        "velocity": 0,
        "channel": 0
      },
      {
        "type": "note_on",
        "time": 15,
        "note": 64,
        "velocity": 100,
        "channel": 0
      },
      {
        "type": "note_on",
        "time": 15,
        "note": 64,
        "velocity": 0,
        "channel": 0
      },
      {
        "type": "note_on",
        "time": 15,
        "note": 64,
        "velocity": 100,
        "channel": 0
      },
      {
        "type": "note_on",
        "time": 60,
        "note": 64,
        "velocity": 0,
        "channel": 0
      },
      {
        "type": "note_on",
        "time": 0,
        "note": 62,
        "velocity": 100,
        "channel": 0
      },
      {
        "type": "note_on",
        "time": 30,
        "note": 62,
        "velocity": 0,
        "channel": 0
      },
      {
        "type": "note_on",
        "time": 0,
        "note": 64,
        "velocity": 100,
        "channel": 0
      },
      {
        "type": "note_on",
        "time": 30,
        "note": 64,
        "velocity": 0,
        "channel": 0
      },
      {
        "type": "note_on",
        "time": 0,
        "note": 62,
        "velocity": 100,
        "channel": 0
      },
      {
        "type": "note_on",
        "time": 30,
        "note": 62,
        "velocity": 0,
        "channel": 0
      },
      {
        "type": "note_on",
        "time": 0,
        "note": 64,
        "velocity": 100,
        "channel": 0
      },
      {
        "type": "note_on",
        "time": 60,
        "note": 64,
        "velocity": 0,
        "channel": 0
      },
      {
        "type": "note_on",
        "time": 0,
        "note": 62,
        "velocity": 100,
        "channel": 0
      },
      {
        "type": "note_on",
        "time": 60,
        "note": 62,
        "velocity": 0,
        "channel": 0
      },
      {
        "type": "note_on",
        "time": 60,
        "note": 62,
        "velocity": 100,
        "channel": 0
      },
      {
        "type": "note_on",
        "time": 45,
        "note": 62,
        "velocity": 0,
        "channel": 0
      },
      {
        "type": "note_on",
        "time": 15,
        "note": 64,
        "velocity": 100,
        "channel": 0
      },
      {
        "type": "note_on",
        "time": 45,
        "note": 64,
        "velocity": 0,
        "channel": 0
      },
      {
        "type": "note_on",
        "time": 15,
        "note": 62,
        "velocity": 100,
        "channel": 0
      },
      {
        "type": "note_on",
        "time": 30,
        "note": 62,
        "velocity": 0,
        "channel": 0
      },
      {
        "type": "note_on",
        "time": 0,
        "note": 64,
        "velocity": 100,
        "channel": 0
      },
      {
        "type": "note_on",
        "time": 45,
        "note": 64,
        "velocity": 0,
        "channel": 0
      },
      {
        "type": "note_on",
        "time": 15,
        "note": 62,
        "velocity": 100,
        "channel": 0
      },
      {
        "type": "note_on",
        "time": 30,
        "note": 62,
        "velocity": 0,
        "channel": 0
      },
      {
        "type": "note_on",
        "time": 0,
        "note": 64,
        "velocity": 100,
        "channel": 0
      },
      {
        "type": "note_on",
        "time": 30,
        "note": 64,
        "velocity": 0,
        "channel": 0
      },
      {
        "type": "note_on",
        "time": 0,
        "note": 62,
        "velocity": 100,
        "channel": 0
      },
      {
        "type": "note_on",
        "time": 30,
        "note": 62,
        "velocity": 0,
        "channel": 0
      },
      {
        "type": "note_on",
        "time": 0,
        "note": 64,
        "velocity": 100,
        "channel": 0
      },
      {
        "type": "note_on",
        "time": 60,
        "note": 64,
        "velocity": 0,
        "channel": 0
      },
      {
        "type": "note_on",
        "time": 0,
        "note": 62,
        "velocity": 100,
        "channel": 0
      },
      {
        "type": "note_on",
        "time": 60,
        "note": 62,
        "velocity": 0,
        "channel": 0
      },
      {
        "type": "note_on",
        "time": 60,
        "note": 62,
        "velocity": 100,
        "channel": 0
      },
      {
        "type": "note_on",
        "time": 45,
        "note": 62,
        "velocity": 0,
        "channel": 0
      },
      {
        "type": "note_on",
        "time": 15,
        "note": 64,
        "velocity": 100,
        "channel": 0
      },
      {
        "type": "note_on",
        "time": 45,
        "note": 64,
        "velocity": 0,
        "channel": 0
      },
      {
        "type": "note_on",
        "time": 15,
        "note": 62,
        "velocity": 100,
        "channel": 0
      },
      {
        "type": "note_on",
        "time": 30,
        "note": 62,
        "velocity": 0,
        "channel": 0
      },
      {
        "type": "note_on",
        "time": 0,
        "note": 64,
        "velocity": 100,
        "channel": 0
      },
      {
        "type": "note_on",
        "time": 45,
        "note": 64,
        "velocity": 0,
        "channel": 0
      },
      {
        "type": "note_on",
        "time": 15,
        "note": 62,
        "velocity": 100,
        "channel": 0
      },
      {
        "type": "note_on",
        "time": 30,
        "note": 62,
        "velocity": 0,
        "channel": 0
      },
      {
        "type": "note_on",
        "time": 0,
        "note": 64,
        "velocity": 100,
        "channel": 0
      },
      {
        "type": "note_on",
        "time": 30,
        "note": 64,
        "velocity": 0,
        "channel": 0
      },
      {
        "type": "note_on",
        "time": 0,
        "note": 62,
        "velocity": 100,
        "channel": 0
      },
      {
        "type": "note_on",
        "time": 30,
        "note": 62,
        "velocity": 0,
        "channel": 0
      },
      {
        "type": "note_on",
        "time": 0,
        "note": 64,
        "velocity": 100,
        "channel": 0
      },
      {
        "type": "note_on",
        "time": 45,
        "note": 64,
        "velocity": 0,
        "channel": 0
      },
      {
        "type": "note_on",
        "time": 15,
        "note": 62,
        "velocity": 100,
        "channel": 0
      },
      {
        "type": "note_on",
        "time": 45,
        "note": 62,
        "velocity": 0,
        "channel": 0
      },
      {
        "type": "note_on",
        "time": 75,
        "note": 62,
        "velocity": 100,
        "channel": 0
      },
      {
        "type": "note_on",
        "time": 45,
        "note": 62,
        "velocity": 0,
        "channel": 0
      },
      {
        "type": "note_on",
        "time": 15,
        "note": 64,
        "velocity": 100,
        "channel": 0
      },
      {
        "type": "note_on",
        "time": 45,
        "note": 64,
        "velocity": 0,
        "channel": 0
      },
      {
        "type": "note_on",
        "time": 15,
        "note": 64,
        "velocity": 100,
        "channel": 0
      },
      {
        "type": "note_on",
        "time": 15,
        "note": 64,
        "velocity": 0,
        "channel": 0
      },
      {
        "type": "note_on",
        "time": 15,
        "note": 64,
        "velocity": 100,
        "channel": 0
      },
      {
        "type": "note_on",
        "time": 45,
        "note": 64,
        "velocity": 0,
        "channel": 0
      },
      {
        "type": "note_on",
        "time": 15,
        "note": 64,
        "velocity": 100,
        "channel": 0
      },
      {
        "type": "note_on",
        "time": 15,
        "note": 64,
        "velocity": 0,
        "channel": 0
      },
      {
        "type": "note_on",
        "time": 15,
        "note": 64,
        "velocity": 100,
        "channel": 0
      },
      {
        "type": "note_on",
        "time": 15,
        "note": 64,
        "velocity": 0,
        "channel": 0
      },
      {
        "type": "note_on",
        "time": 15,
        "note": 64,
        "velocity": 100,
        "channel": 0
      },
      {
        "type": "note_on",
        "time": 15,
        "note": 64,
        "velocity": 0,
        "channel": 0
      },
      {
        "type": "note_on",
        "time": 15,
        "note": 64,
        "velocity": 100,
        "channel": 0
      },
      {
        "type": "note_on",
        "time": 45,
        "note": 64,
        "velocity": 0,
        "channel": 0
      },
      {
        "type": "note_on",
        "time": 15,
        "note": 62,
        "velocity": 100,
        "channel": 0
      },
      {
        "type": "note_on",
        "time": 45,
        "note": 62,
        "velocity": 0,
        "channel": 0
      },
      {
        "type": "note_on",
        "time": 15,
        "note": 64,
        "velocity": 100,
        "channel": 0
      },
      {
        "type": "note_on",
        "time": 45,
        "note": 64,
        "velocity": 0,
        "channel": 0
      },
      {
        "type": "note_on",
        "time": 15,
        "note": 64,
        "velocity": 100,
        "channel": 0
      },
      {
        "type": "note_on",
        "time": 45,
        "note": 64,
        "velocity": 0,
        "channel": 0
      },
      {
        "type": "note_on",
        "time": 15,
        "note": 64,
        "velocity": 100,
        "channel": 0
      },
      {
        "type": "note_on",
        "time": 45,
        "note": 64,
        "velocity": 0,
        "channel": 0
      },
      {
        "type": "note_on",
        "time": 15,
        "note": 64,
        "velocity": 100,
        "channel": 0
      },
      {
        "type": "note_on",
        "time": 15,
        "note": 64,
        "velocity": 0,
        "channel": 0
      },
      {
        "type": "note_on",
        "time": 15,
        "note": 64,
        "velocity": 100,
        "channel": 0
      },
      {
        "type": "note_on",
        "time": 60,
        "note": 64,
        "velocity": 0,
        "channel": 0
      },
      {
        "type": "note_on",
        "time": 0,
        "note": 62,
        "velocity": 100,
        "channel": 0
      },
      {
        "type": "note_on",
        "time": 30,
        "note": 62,
        "velocity": 0,
        "channel": 0
      },
      {
        "type": "note_on",
        "time": 0,
        "note": 64,
        "velocity": 100,
        "channel": 0
      },
      {
        "type": "note_on",
        "time": 30,
        "note": 64,
        "velocity": 0,
        "channel": 0
      },
      {
        "type": "note_on",
        "time": 0,
        "note": 62,
        "velocity": 100,
        "channel": 0
      },
      {
        "type": "note_on",
        "time": 30,
        "note": 62,
        "velocity": 0,
        "channel": 0
      },
      {
        "type": "note_on",
        "time": 0,
        "note": 64,
        "velocity": 100,
        "channel": 0
      },
      {
        "type": "note_on",
        "time": 60,
        "note": 64,
        "velocity": 0,
        "channel": 0
      },
      {
        "type": "note_on",
        "time": 0,
        "note": 62,
        "velocity": 100,
        "channel": 0
      },
      {
        "type": "note_on",
        "time": 60,
        "note": 62,
        "velocity": 0,
        "channel": 0
      },
      {
        "type": "note_on",
        "time": 60,
        "note": 62,
        "velocity": 100,
        "channel": 0
      },
      {
        "type": "note_on",
        "time": 45,
        "note": 62,
        "velocity": 0,
        "channel": 0
      },
      {
        "type": "note_on",
        "time": 15,
        "note": 64,
        "velocity": 100,
        "channel": 0
      },
      {
        "type": "note_on",
        "time": 45,
        "note": 64,
        "velocity": 0,
        "channel": 0
      },
      {
        "type": "note_on",
        "time": 15,
        "note": 62,
        "velocity": 100,
        "channel": 0
      },
      {
        "type": "note_on",
        "time": 30,
        "note": 62,
        "velocity": 0,
        "channel": 0
      },
      {
        "type": "note_on",
        "time": 0,
        "note": 64,
        "velocity": 100,
        "channel": 0
      },
      {
        "type": "note_on",
        "time": 45,
        "note": 64,
        "velocity": 0,
        "channel": 0
      },
      {
        "type": "note_on",
        "time": 15,
        "note": 62,
        "velocity": 100,
        "channel": 0
      },
      {
        "type": "note_on",
        "time": 30,
        "note": 62,
        "velocity": 0,
        "channel": 0
      },
      {
        "type": "note_on",
        "time": 0,
        "note": 64,
        "velocity": 100,
        "channel": 0
      },
      {
        "type": "note_on",
        "time": 30,
        "note": 64,
        "velocity": 0,
        "channel": 0
      },
      {
        "type": "note_on",
        "time": 0,
        "note": 62,
        "velocity": 100,
        "channel": 0
      },
      {
        "type": "note_on",
        "time": 30,
        "note": 62,
        "velocity": 0,
        "channel": 0
      },
      {
        "type": "note_on",
        "time": 0,
        "note": 64,
        "velocity": 100,
        "channel": 0
      },
      {
        "type": "note_on",
        "time": 60,
        "note": 64,
        "velocity": 0,
        "channel": 0
      },
      {
        "type": "note_on",
        "time": 0,
        "note": 62,
        "velocity": 100,
        "channel": 0
      },
      {
        "type": "note_on",
        "time": 60,
        "note": 62,
        "velocity": 0,
        "channel": 0
      },
      {
        "type": "note_on",
        "time": 60,
        "note": 62,
        "velocity": 100,
        "channel": 0
      },
      {
        "type": "note_on",
        "time": 45,
        "note": 62,
        "velocity": 0,
        "channel": 0
      },
      {
        "type": "note_on",
        "time": 15,
        "note": 64,
        "velocity": 100,
        "channel": 0
      },
      {
        "type": "note_on",
        "time": 45,
        "note": 64,
        "velocity": 0,
        "channel": 0
      },
      {
        "type": "note_on",
        "time": 15,
        "note": 62,
        "velocity": 100,
        "channel": 0
      },
      {
        "type": "note_on",
        "time": 30,
        "note": 62,
        "velocity": 0,
        "channel": 0
      },
      {
        "type": "note_on",
        "time": 0,
        "note": 64,
        "velocity": 100,
        "channel": 0
      },
      {
        "type": "note_on",
        "time": 45,
        "note": 64,
        "velocity": 0,
        "channel": 0
      },
      {
        "type": "note_on",
        "time": 15,
        "note": 62,
        "velocity": 100,
        "channel": 0
      },
      {
        "type": "note_on",
        "time": 30,
        "note": 62,
        "velocity": 0,
        "channel": 0
      },
      {
        "type": "note_on",
        "time": 0,
        "note": 64,
        "velocity": 100,
        "channel": 0
      },
      {
        "type": "note_on",
        "time": 30,
        "note": 64,
        "velocity": 0,
        "channel": 0
      },
      {
        "type": "note_on",
        "time": 0,
        "note": 62,
        "velocity": 100,
        "channel": 0
      },
      {
        "type": "note_on",
        "time": 30,
        "note": 62,
        "velocity": 0,
        "channel": 0
      },
      {
        "type": "note_on",
        "time": 0,
        "note": 64,
        "velocity": 100,
        "channel": 0
      },
      {
        "type": "note_on",
        "time": 45,
        "note": 64,
        "velocity": 0,
        "channel": 0
      },
      {
        "type": "note_on",
        "time": 15,
        "note": 62,
        "velocity": 100,
        "channel": 0
      },
      {
        "type": "note_on",
        "time": 45,
        "note": 62,
        "velocity": 0,
        "channel": 0
      },
      {
        "type": "note_on",
        "time": 75,
        "note": 62,
        "velocity": 100,
        "channel": 0
      },
      {
        "type": "note_on",
        "time": 45,
        "note": 62,
        "velocity": 0,
        "channel": 0
      },
      {
        "type": "note_on",
        "time": 15,
        "note": 64,
        "velocity": 100,
        "channel": 0
      },
      {
        "type": "note_on",
        "time": 45,
        "note": 64,
        "velocity": 0,
        "channel": 0
      },
      {
        "type": "note_on",
        "time": 15,
        "note": 64,
        "velocity": 100,
        "channel": 0
      },
      {
        "type": "note_on",
        "time": 15,
        "note": 64,
        "velocity": 0,
        "channel": 0
      },
      {
        "type": "note_on",
        "time": 15,
        "note": 64,
        "velocity": 100,
        "channel": 0
      },
      {
        "type": "note_on",
        "time": 45,
        "note": 64,
        "velocity": 0,
        "channel": 0
      },
      {
        "type": "note_on",
        "time": 15,
        "note": 64,
        "velocity": 100,
        "channel": 0
      },
      {
        "type": "note_on",
        "time": 15,
        "note": 64,
        "velocity": 0,
        "channel": 0
      },
      {
        "type": "note_on",
        "time": 15,
        "note": 64,
        "velocity": 100,
        "channel": 0
      },
      {
        "type": "note_on",
        "time": 15,
        "note": 64,
        "velocity": 0,
        "channel": 0
      },
      {
        "type": "note_on",
        "time": 15,
        "note": 64,
        "velocity": 100,
        "channel": 0
      },
      {
        "type": "note_on",
        "time": 15,
        "note": 64,
        "velocity": 0,
        "channel": 0
      },
      {
        "type": "note_on",
        "time": 15,
        "note": 64,
        "velocity": 100,
        "channel": 0
      },
      {
        "type": "note_on",
        "time": 45,
        "note": 64,
        "velocity": 0,
        "channel": 0
      },
      {
        "type": "note_on",
        "time": 15,
        "note": 62,
        "velocity": 100,
        "channel": 0
      },
      {
        "type": "note_on",
        "time": 45,
        "note": 62,
        "velocity": 0,
        "channel": 0
      },
      {
        "type": "note_on",
        "time": 15,
        "note": 64,
        "velocity": 100,
        "channel": 0
      },
      {
        "type": "note_on",
        "time": 45,
        "note": 64,
        "velocity": 0,
        "channel": 0
      },
      {
        "type": "note_on",
        "time": 15,
        "note": 64,
        "velocity": 100,
        "channel": 0
      },
      {
        "type": "note_on",
        "time": 45,
        "note": 64,
        "velocity": 0,
        "channel": 0
      },
      {
        "type": "note_on",
        "time": 15,
        "note": 64,
        "velocity": 100,
        "channel": 0
      },
      {
        "type": "note_on",
        "time": 45,
        "note": 64,
        "velocity": 0,
        "channel": 0
      },
      {
        "type": "note_on",
        "time": 15,
        "note": 64,
        "velocity": 100,
        "channel": 0
      },
      {
        "type": "note_on",
        "time": 15,
        "note": 64,
        "velocity": 0,
        "channel": 0
      },
      {
        "type": "note_on",
        "time": 15,
        "note": 64,
        "velocity": 100,
        "channel": 0
      },
      {
        "type": "note_on",
        "time": 60,
        "note": 64,
        "velocity": 0,
        "channel": 0
      },
      {
        "type": "note_on",
        "time": 0,
        "note": 62,
        "velocity": 100,
        "channel": 0
      },
      {
        "type": "note_on",
        "time": 30,
        "note": 62,
        "velocity": 0,
        "channel": 0
      },
      {
        "type": "note_on",
        "time": 0,
        "note": 64,
        "velocity": 100,
        "channel": 0
      },
      {
        "type": "note_on",
        "time": 30,
        "note": 64,
        "velocity": 0,
        "channel": 0
      },
      {
        "type": "note_on",
        "time": 0,
        "note": 62,
        "velocity": 100,
        "channel": 0
      },
      {
        "type": "note_on",
        "time": 30,
        "note": 62,
        "velocity": 0,
        "channel": 0
      },
      {
        "type": "note_on",
        "time": 0,
        "note": 64,
        "velocity": 100,
        "channel": 0
      },
      {
        "type": "note_on",
        "time": 60,
        "note": 64,
        "velocity": 0,
        "channel": 0
      },
      {
        "type": "note_on",
        "time": 0,
        "note": 62,
        "velocity": 100,
        "channel": 0
      },
      {
        "type": "note_on",
        "time": 60,
        "note": 62,
        "velocity": 0,
        "channel": 0
      },
      {
        "type": "note_on",
        "time": 60,
        "note": 62,
        "velocity": 100,
        "channel": 0
      },
      {
        "type": "note_on",
        "time": 45,
        "note": 62,
        "velocity": 0,
        "channel": 0
      },
      {
        "type": "note_on",
        "time": 15,
        "note": 64,
        "velocity": 100,
        "channel": 0
      },
      {
        "type": "note_on",
        "time": 45,
        "note": 64,
        "velocity": 0,
        "channel": 0
      },
      {
        "type": "note_on",
        "time": 15,
        "note": 62,
        "velocity": 100,
        "channel": 0
      },
      {
        "type": "note_on",
        "time": 30,
        "note": 62,
        "velocity": 0,
        "channel": 0
      },
      {
        "type": "note_on",
        "time": 0,
        "note": 64,
        "velocity": 100,
        "channel": 0
      },
      {
        "type": "note_on",
        "time": 45,
        "note": 64,
        "velocity": 0,
        "channel": 0
      },
      {
        "type": "note_on",
        "time": 15,
        "note": 62,
        "velocity": 100,
        "channel": 0
      },
      {
        "type": "note_on",
        "time": 30,
        "note": 62,
        "velocity": 0,
        "channel": 0
      },
      {
        "type": "note_on",
        "time": 0,
        "note": 64,
        "velocity": 100,
        "channel": 0
      },
      {
        "type": "note_on",
        "time": 30,
        "note": 64,
        "velocity": 0,
        "channel": 0
      },
      {
        "type": "note_on",
        "time": 0,
        "note": 62,
        "velocity": 100,
        "channel": 0
      },
      {
        "type": "note_on",
        "time": 30,
        "note": 62,
        "velocity": 0,
        "channel": 0
      },
      {
        "type": "note_on",
        "time": 0,
        "note": 64,
        "velocity": 100,
        "channel": 0
      },
      {
        "type": "note_on",
        "time": 60,
        "note": 64,
        "velocity": 0,
        "channel": 0
      },
      {
        "type": "note_on",
        "time": 0,
        "note": 62,
        "velocity": 100,
        "channel": 0
      },
      {
        "type": "note_on",
        "time": 60,
        "note": 62,
        "velocity": 0,
        "channel": 0
      },
      {
        "type": "note_on",
        "time": 60,
        "note": 62,
        "velocity": 100,
        "channel": 0
      },
      {
        "type": "note_on",
        "time": 45,
        "note": 62,
        "velocity": 0,
        "channel": 0
      },
      {
        "type": "note_on",
        "time": 15,
        "note": 64,
        "velocity": 100,
        "channel": 0
      },
      {
        "type": "note_on",
        "time": 45,
        "note": 64,
        "velocity": 0,
        "channel": 0
      },
      {
        "type": "note_on",
        "time": 15,
        "note": 62,
        "velocity": 100,
        "channel": 0
      },
      {
        "type": "note_on",
        "time": 30,
        "note": 62,
        "velocity": 0,
        "channel": 0
      },
      {
        "type": "note_on",
        "time": 0,
        "note": 64,
        "velocity": 100,
        "channel": 0
      },
      {
        "type": "note_on",
        "time": 45,
        "note": 64,
        "velocity": 0,
        "channel": 0
      },
      {
        "type": "note_on",
        "time": 15,
        "note": 62,
        "velocity": 100,
        "channel": 0
      },
      {
        "type": "note_on",
        "time": 30,
        "note": 62,
        "velocity": 0,
        "channel": 0
      },
      {
        "type": "note_on",
        "time": 0,
        "note": 64,
        "velocity": 100,
        "channel": 0
      },
      {
        "type": "note_on",
        "time": 30,
        "note": 64,
        "velocity": 0,
        "channel": 0
      },
      {
        "type": "note_on",
        "time": 0,
        "note": 62,
        "velocity": 100,
        "channel": 0
      },
      {
        "type": "note_on",
        "time": 30,
        "note": 62,
        "velocity": 0,
        "channel": 0
      },
      {
        "type": "note_on",
        "time": 0,
        "note": 64,
        "velocity": 100,
        "channel": 0
      },
      {
        "type": "note_on",
        "time": 45,
        "note": 64,
        "velocity": 0,
        "channel": 0
      },
      {
        "type": "note_on",
        "time": 15,
        "note": 62,
        "velocity": 100,
        "channel": 0
      },
      {
        "type": "note_on",
        "time": 45,
        "note": 62,
        "velocity": 0,
        "channel": 0
      },
      {
        "type": "note_on",
        "time": 75,
        "note": 62,
        "velocity": 100,
        "channel": 0
      },
      {
        "type": "note_on",
        "time": 45,
        "note": 62,
        "velocity": 0,
        "channel": 0
      },
      {
        "type": "note_on",
        "time": 15,
        "note": 64,
        "velocity": 100,
        "channel": 0
      },
      {
        "type": "note_on",
        "time": 45,
        "note": 64,
        "velocity": 0,
        "channel": 0
      },
      {
        "type": "note_on",
        "time": 15,
        "note": 64,
        "velocity": 100,
        "channel": 0
      },
      {
        "type": "note_on",
        "time": 15,
        "note": 64,
        "velocity": 0,
        "channel": 0
      },
      {
        "type": "note_on",
        "time": 15,
        "note": 64,
        "velocity": 100,
        "channel": 0
      },
      {
        "type": "note_on",
        "time": 45,
        "note": 64,
        "velocity": 0,
        "channel": 0
      },
      {
        "type": "note_on",
        "time": 15,
        "note": 64,
        "velocity": 100,
        "channel": 0
      },
      {
        "type": "note_on",
        "time": 15,
        "note": 64,
        "velocity": 0,
        "channel": 0
      },
      {
        "type": "note_on",
        "time": 15,
        "note": 64,
        "velocity": 100,
        "channel": 0
      },
      {
        "type": "note_on",
        "time": 15,
        "note": 64,
        "velocity": 0,
        "channel": 0
      },
      {
        "type": "note_on",
        "time": 15,
        "note": 64,
        "velocity": 100,
        "channel": 0
      },
      {
        "type": "note_on",
        "time": 15,
        "note": 64,
        "velocity": 0,
        "channel": 0
      },
      {
        "type": "note_on",
        "time": 15,
        "note": 64,
        "velocity": 100,
        "channel": 0
      },
      {
        "type": "note_on",
        "time": 45,
        "note": 64,
        "velocity": 0,
        "channel": 0
      },
      {
        "type": "note_on",
        "time": 15,
        "note": 62,
        "velocity": 100,
        "channel": 0
      },
      {
        "type": "note_on",
        "time": 45,
        "note": 62,
        "velocity": 0,
        "channel": 0
      },
      {
        "type": "note_on",
        "time": 15,
        "note": 64,
        "velocity": 100,
        "channel": 0
      },
      {
        "type": "note_on",
        "time": 45,
        "note": 64,
        "velocity": 0,
        "channel": 0
      },
      {
        "type": "note_on",
        "time": 15,
        "note": 64,
        "velocity": 100,
        "channel": 0
      },
      {
        "type": "note_on",
        "time": 45,
        "note": 64,
        "velocity": 0,
        "channel": 0
      },
      {
        "type": "note_on",
        "time": 15,
        "note": 64,
        "velocity": 100,
        "channel": 0
      },
      {
        "type": "note_on",
        "time": 45,
        "note": 64,
        "velocity": 0,
        "channel": 0
      },
      {
        "type": "note_on",
        "time": 15,
        "note": 64,
        "velocity": 100,
        "channel": 0
      },
      {
        "type": "note_on",
        "time": 15,
        "note": 64,
        "velocity": 0,
        "channel": 0
      },
      {
        "type": "note_on",
        "time": 15,
        "note": 64,
        "velocity": 100,
        "channel": 0
      },
      {
        "type": "note_on",
        "time": 60,
        "note": 64,
        "velocity": 0,
        "channel": 0
      },
      {
        "type": "note_on",
        "time": 0,
        "note": 62,
        "velocity": 100,
        "channel": 0
      },
      {
        "type": "note_on",
        "time": 30,
        "note": 62,
        "velocity": 0,
        "channel": 0
      },
      {
        "type": "note_on",
        "time": 0,
        "note": 64,
        "velocity": 100,
        "channel": 0
      },
      {
        "type": "note_on",
        "time": 30,
        "note": 64,
        "velocity": 0,
        "channel": 0
      },
      {
        "type": "note_on",
        "time": 0,
        "note": 62,
        "velocity": 100,
        "channel": 0
      },
      {
        "type": "note_on",
        "time": 30,
        "note": 62,
        "velocity": 0,
        "channel": 0
      },
      {
        "type": "note_on",
        "time": 0,
        "note": 64,
        "velocity": 100,
        "channel": 0
      },
      {
        "type": "note_on",
        "time": 60,
        "note": 64,
        "velocity": 0,
        "channel": 0
      },
      {
        "type": "note_on",
        "time": 0,
        "note": 62,
        "velocity": 100,
        "channel": 0
      },
      {
        "type": "note_on",
        "time": 60,
        "note": 62,
        "velocity": 0,
        "channel": 0
      },
      {
        "type": "note_on",
        "time": 60,
        "note": 62,
        "velocity": 100,
        "channel": 0
      },
      {
        "type": "note_on",
        "time": 45,
        "note": 62,
        "velocity": 0,
        "channel": 0
      },
      {
        "type": "note_on",
        "time": 15,
        "note": 64,
        "velocity": 100,
        "channel": 0
      },
      {
        "type": "note_on",
        "time": 45,
        "note": 64,
        "velocity": 0,
        "channel": 0
      },
      {
        "type": "note_on",
        "time": 15,
        "note": 62,
        "velocity": 100,
        "channel": 0
      },
      {
        "type": "note_on",
        "time": 30,
        "note": 62,
        "velocity": 0,
        "channel": 0
      },
      {
        "type": "note_on",
        "time": 0,
        "note": 64,
        "velocity": 100,
        "channel": 0
      },
      {
        "type": "note_on",
        "time": 45,
        "note": 64,
        "velocity": 0,
        "channel": 0
      },
      {
        "type": "note_on",
        "time": 15,
        "note": 62,
        "velocity": 100,
        "channel": 0
      },
      {
        "type": "note_on",
        "time": 30,
        "note": 62,
        "velocity": 0,
        "channel": 0
      },
      {
        "type": "note_on",
        "time": 0,
        "note": 64,
        "velocity": 100,
        "channel": 0
      },
      {
        "type": "note_on",
        "time": 30,
        "note": 64,
        "velocity": 0,
        "channel": 0
      },
      {
        "type": "note_on",
        "time": 0,
        "note": 62,
        "velocity": 100,
        "channel": 0
      },
      {
        "type": "note_on",
        "time": 30,
        "note": 62,
        "velocity": 0,
        "channel": 0
      },
      {
        "type": "note_on",
        "time": 0,
        "note": 64,
        "velocity": 100,
        "channel": 0
      },
      {
        "type": "note_on",
        "time": 60,
        "note": 64,
        "velocity": 0,
        "channel": 0
      },
      {
        "type": "note_on",
        "time": 0,
        "note": 62,
        "velocity": 100,
        "channel": 0
      },
      {
        "type": "note_on",
        "time": 60,
        "note": 62,
        "velocity": 0,
        "channel": 0
      },
      {
        "type": "note_on",
        "time": 60,
        "note": 62,
        "velocity": 100,
        "channel": 0
      },
      {
        "type": "note_on",
        "time": 45,
        "note": 62,
        "velocity": 0,
        "channel": 0
      },
      {
        "type": "note_on",
        "time": 15,
        "note": 64,
        "velocity": 100,
        "channel": 0
      },
      {
        "type": "note_on",
        "time": 45,
        "note": 64,
        "velocity": 0,
        "channel": 0
      },
      {
        "type": "note_on",
        "time": 15,
        "note": 62,
        "velocity": 100,
        "channel": 0
      },
      {
        "type": "note_on",
        "time": 30,
        "note": 62,
        "velocity": 0,
        "channel": 0
      },
      {
        "type": "note_on",
        "time": 0,
        "note": 64,
        "velocity": 100,
        "channel": 0
      },
      {
        "type": "note_on",
        "time": 45,
        "note": 64,
        "velocity": 0,
        "channel": 0
      },
      {
        "type": "note_on",
        "time": 15,
        "note": 62,
        "velocity": 100,
        "channel": 0
      },
      {
        "type": "note_on",
        "time": 30,
        "note": 62,
        "velocity": 0,
        "channel": 0
      },
      {
        "type": "note_on",
        "time": 0,
        "note": 64,
        "velocity": 100,
        "channel": 0
      },
      {
        "type": "note_on",
        "time": 30,
        "note": 64,
        "velocity": 0,
        "channel": 0
      },
      {
        "type": "note_on",
        "time": 0,
        "note": 62,
        "velocity": 100,
        "channel": 0
      },
      {
        "type": "note_on",
        "time": 30,
        "note": 62,
        "velocity": 0,
        "channel": 0
      },
      {
        "type": "note_on",
        "time": 0,
        "note": 64,
        "velocity": 100,
        "channel": 0
      },
      {
        "type": "note_on",
        "time": 45,
        "note": 64,
        "velocity": 0,
        "channel": 0
      },
      {
        "type": "note_on",
        "time": 15,
        "note": 62,
        "velocity": 100,
        "channel": 0
      },
      {
        "type": "note_on",
        "time": 45,
        "note": 62,
        "velocity": 0,
        "channel": 0
      },
      {
        "type": "note_on",
        "time": 75,
        "note": 64,
        "velocity": 100,
        "channel": 0
      },
      {
        "type": "note_on",
        "time": 30,
        "note": 64,
        "velocity": 0,
        "channel": 0
      },
      {
        "type": "note_on",
        "time": 0,
        "note": 62,
        "velocity": 100,
        "channel": 0
      },
      {
        "type": "note_on",
        "time": 30,
        "note": 62,
        "velocity": 0,
        "channel": 0
      },
      {
        "type": "note_on",
        "time": 0,
        "note": 64,
        "velocity": 100,
        "channel": 0
      },
      {
        "type": "note_on",
        "time": 45,
        "note": 64,
        "velocity": 0,
        "channel": 0
      },
      {
        "type": "note_on",
        "time": 15,
        "note": 64,
        "velocity": 100,
        "channel": 0
      },
      {
        "type": "note_on",
        "time": 15,
        "note": 64,
        "velocity": 0,
        "channel": 0
      },
      {
        "type": "note_on",
        "time": 15,
        "note": 64,
        "velocity": 100,
        "channel": 0
      },
      {
        "type": "note_on",
        "time": 45,
        "note": 64,
        "velocity": 0,
        "channel": 0
      },
      {
        "type": "note_on",
        "time": 15,
        "note": 64,
        "velocity": 100,
        "channel": 0
      },
      {
        "type": "note_on",
        "time": 15,
        "note": 64,
        "velocity": 0,
        "channel": 0
      },
      {
        "type": "note_on",
        "time": 15,
        "note": 64,
        "velocity": 100,
        "channel": 0
      },
      {
        "type": "note_on",
        "time": 15,
        "note": 64,
        "velocity": 0,
        "channel": 0
      },
      {
        "type": "note_on",
        "time": 15,
        "note": 64,
        "velocity": 100,
        "channel": 0
      },
      {
        "type": "note_on",
        "time": 15,
        "note": 64,
        "velocity": 0,
        "channel": 0
      },
      {
        "type": "note_on",
        "time": 15,
        "note": 64,
        "velocity": 100,
        "channel": 0
      },
      {
        "type": "note_on",
        "time": 45,
        "note": 64,
        "velocity": 0,
        "channel": 0
      },
      {
        "type": "note_on",
        "time": 15,
        "note": 62,
        "velocity": 100,
        "channel": 0
      },
      {
        "type": "note_on",
        "time": 45,
        "note": 62,
        "velocity": 0,
        "channel": 0
      },
      {
        "type": "note_on",
        "time": 15,
        "note": 64,
        "velocity": 100,
        "channel": 0
      },
      {
        "type": "note_on",
        "time": 15,
        "note": 64,
        "velocity": 0,
        "channel": 0
      },
      {
        "type": "note_on",
        "time": 15,
        "note": 64,
        "velocity": 100,
        "channel": 0
      },
      {
        "type": "note_on",
        "time": 15,
        "note": 64,
        "velocity": 0,
        "channel": 0
      },
      {
        "type": "note_on",
        "time": 15,
        "note": 64,
        "velocity": 100,
        "channel": 0
      },
      {
        "type": "note_on",
        "time": 45,
        "note": 64,
        "velocity": 0,
        "channel": 0
      },
      {
        "type": "note_on",
        "time": 15,
        "note": 64,
        "velocity": 100,
        "channel": 0
      },
      {
        "type": "note_on",
        "time": 45,
        "note": 64,
        "velocity": 0,
        "channel": 0
      },
      {
        "type": "note_on",
        "time": 15,
        "note": 64,
        "velocity": 100,
        "channel": 0
      },
      {
        "type": "note_on",
        "time": 15,
        "note": 64,
        "velocity": 0,
        "channel": 0
      },
      {
        "type": "note_on",
        "time": 15,
        "note": 64,
        "velocity": 100,
        "channel": 0
      },
      {
        "type": "note_on",
        "time": 60,
        "note": 64,
        "velocity": 0,
        "channel": 0
      },
      {
        "type": "note_on",
        "time": 0,
        "note": 62,
        "velocity": 100,
        "channel": 0
      },
      {
        "type": "note_on",
        "time": 30,
        "note": 62,
        "velocity": 0,
        "channel": 0
      },
      {
        "type": "note_on",
        "time": 0,
        "note": 64,
        "velocity": 100,
        "channel": 0
      },
      {
        "type": "note_on",
        "time": 30,
        "note": 64,
        "velocity": 0,
        "channel": 0
      },
      {
        "type": "note_on",
        "time": 0,
        "note": 62,
        "velocity": 100,
        "channel": 0
      },
      {
        "type": "note_on",
        "time": 30,
        "note": 62,
        "velocity": 0,
        "channel": 0
      },
      {
        "type": "note_on",
        "time": 0,
        "note": 64,
        "velocity": 100,
        "channel": 0
      },
      {
        "type": "note_on",
        "time": 60,
        "note": 64,
        "velocity": 0,
        "channel": 0
      },
      {
        "type": "note_on",
        "time": 0,
        "note": 62,
        "velocity": 100,
        "channel": 0
      },
      {
        "type": "note_on",
        "time": 60,
        "note": 62,
        "velocity": 0,
        "channel": 0
      },
      {
        "type": "note_on",
        "time": 60,
        "note": 62,
        "velocity": 100,
        "channel": 0
      },
      {
        "type": "note_on",
        "time": 45,
        "note": 62,
        "velocity": 0,
        "channel": 0
      },
      {
        "type": "note_on",
        "time": 15,
        "note": 64,
        "velocity": 100,
        "channel": 0
      },
      {
        "type": "note_on",
        "time": 45,
        "note": 64,
        "velocity": 0,
        "channel": 0
      },
      {
        "type": "note_on",
        "time": 15,
        "note": 62,
        "velocity": 100,
        "channel": 0
      },
      {
        "type": "note_on",
        "time": 30,
        "note": 62,
        "velocity": 0,
        "channel": 0
      },
      {
        "type": "note_on",
        "time": 0,
        "note": 64,
        "velocity": 100,
        "channel": 0
      },
      {
        "type": "note_on",
        "time": 45,
        "note": 64,
        "velocity": 0,
        "channel": 0
      },
      {
        "type": "note_on",
        "time": 15,
        "note": 62,
        "velocity": 100,
        "channel": 0
      },
      {
        "type": "note_on",
        "time": 30,
        "note": 62,
        "velocity": 0,
        "channel": 0
      },
      {
        "type": "note_on",
        "time": 0,
        "note": 64,
        "velocity": 100,
        "channel": 0
      },
      {
        "type": "note_on",
        "time": 30,
        "note": 64,
        "velocity": 0,
        "channel": 0
      },
      {
        "type": "note_on",
        "time": 0,
        "note": 62,
        "velocity": 100,
        "channel": 0
      },
      {
        "type": "note_on",
        "time": 30,
        "note": 62,
        "velocity": 0,
        "channel": 0
      },
      {
        "type": "note_on",
        "time": 0,
        "note": 64,
        "velocity": 100,
        "channel": 0
      },
      {
        "type": "note_on",
        "time": 60,
        "note": 64,
        "velocity": 0,
        "channel": 0
      },
      {
        "type": "note_on",
        "time": 0,
        "note": 62,
        "velocity": 100,
        "channel": 0
      },
      {
        "type": "note_on",
        "time": 60,
        "note": 62,
        "velocity": 0,
        "channel": 0
      },
      {
        "type": "note_on",
        "time": 60,
        "note": 62,
        "velocity": 100,
        "channel": 0
      },
      {
        "type": "note_on",
        "time": 45,
        "note": 62,
        "velocity": 0,
        "channel": 0
      },
      {
        "type": "note_on",
        "time": 15,
        "note": 64,
        "velocity": 100,
        "channel": 0
      },
      {
        "type": "note_on",
        "time": 45,
        "note": 64,
        "velocity": 0,
        "channel": 0
      },
      {
        "type": "note_on",
        "time": 15,
        "note": 62,
        "velocity": 100,
        "channel": 0
      },
      {
        "type": "note_on",
        "time": 30,
        "note": 62,
        "velocity": 0,
        "channel": 0
      },
      {
        "type": "note_on",
        "time": 0,
        "note": 64,
        "velocity": 100,
        "channel": 0
      },
      {
        "type": "note_on",
        "time": 45,
        "note": 64,
        "velocity": 0,
        "channel": 0
      },
      {
        "type": "note_on",
        "time": 15,
        "note": 62,
        "velocity": 100,
        "channel": 0
      },
      {
        "type": "note_on",
        "time": 30,
        "note": 62,
        "velocity": 0,
        "channel": 0
      },
      {
        "type": "note_on",
        "time": 0,
        "note": 64,
        "velocity": 100,
        "channel": 0
      },
      {
        "type": "note_on",
        "time": 30,
        "note": 64,
        "velocity": 0,
        "channel": 0
      },
      {
        "type": "note_on",
        "time": 0,
        "note": 62,
        "velocity": 100,
        "channel": 0
      },
      {
        "type": "note_on",
        "time": 30,
        "note": 62,
        "velocity": 0,
        "channel": 0
      },
      {
        "type": "note_on",
        "time": 0,
        "note": 64,
        "velocity": 100,
        "channel": 0
      },
      {
        "type": "note_on",
        "time": 45,
        "note": 64,
        "velocity": 0,
        "channel": 0
      },
      {
        "type": "note_on",
        "time": 15,
        "note": 62,
        "velocity": 100,
        "channel": 0
      },
      {
        "type": "note_on",
        "time": 45,
        "note": 62,
        "velocity": 0,
        "channel": 0
      },
      {
        "type": "end_of_track",
        "time": 0
      }
    ],
    [
      {
        "type": "midi_port",
        "port": 0,
        "time": 0
      },
      {
        "type": "track_name",
        "name": "guitar",
        "time": 0
      },
      {
        "type": "program_change",
        "time": 0,
        "program": 27,
        "channel": 1
      },
      {
        "type": "control_change",
        "time": 0,
        "control": 7,
        "value": 110,
        "channel": 1
      },
      {
        "type": "control_change",
        "time": 0,
        "control": 10,
        "value": 64,
        "channel": 1
      },
      {
        "type": "note_on",
        "time": 480,
        "note": 62,
        "velocity": 57,
        "channel": 1
      },
      {
        "type": "note_on",
        "time": 30,
        "note": 62,
        "velocity": 0,
        "channel": 1
      },
      {
        "type": "note_on",
        "time": 0,
        "note": 64,
        "velocity": 58,
        "channel": 1
      },
      {
        "type": "note_on",
        "time": 60,
        "note": 64,
        "velocity": 0,
        "channel": 1
      },
      {
        "type": "note_on",
        "time": 0,
        "note": 62,
        "velocity": 61,
        "channel": 1
      },
      {
        "type": "note_on",
        "time": 30,
        "note": 62,
        "velocity": 0,
        "channel": 1
      },
      {
        "type": "note_on",
        "time": 0,
        "note": 64,
        "velocity": 61,
        "channel": 1
      },
      {
        "type": "note_on",
        "time": 60,
        "note": 64,
        "velocity": 0,
        "channel": 1
      },
      {
        "type": "note_on",
        "time": 0,
        "note": 62,
        "velocity": 61,
        "channel": 1
      },
      {
        "type": "note_on",
        "time": 30,
        "note": 62,
        "velocity": 0,
        "channel": 1
      },
      {
        "type": "note_on",
        "time": 0,
        "note": 64,
        "velocity": 64,
        "channel": 1
      },
      {
        "type": "note_on",
        "time": 60,
        "note": 64,
        "velocity": 0,
        "channel": 1
      },
      {
        "type": "note_on",
        "time": 0,
        "note": 62,
        "velocity": 65,
        "channel": 1
      },
      {
        "type": "note_on",
        "time": 30,
        "note": 62,
        "velocity": 0,
        "channel": 1
      },
      {
        "type": "note_on",
        "time": 0,
        "note": 64,
        "velocity": 65,
        "channel": 1
      },
      {
        "type": "note_on",
        "time": 60,
        "note": 64,
        "velocity": 0,
        "channel": 1
      },
      {
        "type": "note_on",
        "time": 0,
        "note": 62,
        "velocity": 66,
        "channel": 1
      },
      {
        "type": "note_on",
        "time": 30,
        "note": 62,
        "velocity": 0,
        "channel": 1
      },
      {
        "type": "note_on",
        "time": 0,
        "note": 64,
        "velocity": 66,
        "channel": 1
      },
      {
        "type": "note_on",
        "time": 90,
        "note": 64,
        "velocity": 0,
        "channel": 1
      },
      {
        "type": "note_on",
        "time": 0,
        "note": 62,
        "velocity": 66,
        "channel": 1
      },
      {
        "type": "note_on",
        "time": 30,
        "note": 62,
        "velocity": 0,
        "channel": 1
      },
      {
        "type": "note_on",
        "time": 0,
        "note": 64,
        "velocity": 65,
        "channel": 1
      },
      {
        "type": "note_on",
        "time": 60,
        "note": 64,
        "velocity": 0,
        "channel": 1
      },
      {
        "type": "note_on",
        "time": 0,
        "note": 62,
        "velocity": 64,
        "channel": 1
      },
      {
        "type": "note_on",
        "time": 30,
        "note": 62,
        "velocity": 0,
        "channel": 1
      },
      {
        "type": "note_on",
        "time": 0,
        "note": 64,
        "velocity": 64,
        "channel": 1
      },
      {
        "type": "note_on",
        "time": 60,
        "note": 64,
        "velocity": 0,
        "channel": 1
      },
      {
        "type": "note_on",
        "time": 0,
        "note": 62,
        "velocity": 65,
        "channel": 1
      },
      {
        "type": "note_on",
        "time": 30,
        "note": 62,
        "velocity": 0,
        "channel": 1
      },
      {
        "type": "note_on",
        "time": 0,
        "note": 64,
        "velocity": 66,
        "channel": 1
      },
      {
        "type": "note_on",
        "time": 60,
        "note": 64,
        "velocity": 0,
        "channel": 1
      },
      {
        "type": "note_on",
        "time": 0,
        "note": 62,
        "velocity": 67,
        "channel": 1
      },
      {
        "type": "note_on",
        "time": 30,
        "note": 62,
        "velocity": 0,
        "channel": 1
      },
      {
        "type": "note_on",
        "time": 0,
        "note": 64,
        "velocity": 67,
        "channel": 1
      },
      {
        "type": "note_on",
        "time": 60,
        "note": 64,
        "velocity": 0,
        "channel": 1
      },
      {
        "type": "note_on",
        "time": 0,
        "note": 62,
        "velocity": 68,
        "channel": 1
      },
      {
        "type": "note_on",
        "time": 30,
        "note": 62,
        "velocity": 0,
        "channel": 1
      },
      {
        "type": "note_on",
        "time": 0,
        "note": 64,
        "velocity": 70,
        "channel": 1
      },
      {
        "type": "note_on",
        "time": 90,
        "note": 64,
        "velocity": 0,
        "channel": 1
      },
      {
        "type": "note_on",
        "time": 0,
        "note": 62,
        "velocity": 73,
        "channel": 1
      },
      {
        "type": "note_on",
        "time": 30,
        "note": 62,
        "velocity": 0,
        "channel": 1
      },
      {
        "type": "note_on",
        "time": 0,
        "note": 64,
        "velocity": 73,
        "channel": 1
      },
      {
        "type": "note_on",
        "time": 60,
        "note": 64,
        "velocity": 0,
        "channel": 1
      },
      {
        "type": "note_on",
        "time": 0,
        "note": 62,
        "velocity": 74,
        "channel": 1
      },
      {
        "type": "note_on",
        "time": 30,
        "note": 62,
        "velocity": 0,
        "channel": 1
      },
      {
        "type": "note_on",
        "time": 0,
        "note": 64,
        "velocity": 75,
        "channel": 1
      },
      {
        "type": "note_on",
        "time": 60,
        "note": 64,
        "velocity": 0,
        "channel": 1
      },
      {
        "type": "note_on",
        "time": 0,
        "note": 62,
        "velocity": 74,
        "channel": 1
      },
      {
        "type": "note_on",
        "time": 30,
        "note": 62,
        "velocity": 0,
        "channel": 1
      },
      {
        "type": "note_on",
        "time": 0,
        "note": 64,
        "velocity": 74,
        "channel": 1
      },
      {
        "type": "note_on",
        "time": 60,
        "note": 64,
        "velocity": 0,
        "channel": 1
      },
      {
        "type": "note_on",
        "time": 0,
        "note": 62,
        "velocity": 75,
        "channel": 1
      },
      {
        "type": "note_on",
        "time": 30,
        "note": 62,
        "velocity": 0,
        "channel": 1
      },
      {
        "type": "note_on",
        "time": 0,
        "note": 64,
        "velocity": 76,
        "channel": 1
      },
      {
        "type": "note_on",
        "time": 60,
        "note": 64,
        "velocity": 0,
        "channel": 1
      },
      {
        "type": "note_on",
        "time": 0,
        "note": 62,
        "velocity": 77,
        "channel": 1
      },
      {
        "type": "note_on",
        "time": 30,
        "note": 62,
        "velocity": 0,
        "channel": 1
      },
      {
        "type": "note_on",
        "time": 0,
        "note": 64,
        "velocity": 77,
        "channel": 1
      },
      {
        "type": "note_on",
        "time": 90,
        "note": 64,
        "velocity": 0,
        "channel": 1
      },
      {
        "type": "note_on",
        "time": 0,
        "note": 62,
        "velocity": 79,
        "channel": 1
      },
      {
        "type": "note_on",
        "time": 30,
        "note": 62,
        "velocity": 0,
        "channel": 1
      },
      {
        "type": "note_on",
        "time": 0,
        "note": 64,
        "velocity": 80,
        "channel": 1
      },
      {
        "type": "note_on",
        "time": 60,
        "note": 64,
        "velocity": 0,
        "channel": 1
      },
      {
        "type": "note_on",
        "time": 0,
        "note": 62,
        "velocity": 80,
        "channel": 1
      },
      {
        "type": "note_on",
        "time": 30,
        "note": 62,
        "velocity": 0,
        "channel": 1
      },
      {
        "type": "note_on",
        "time": 0,
        "note": 64,
        "velocity": 80,
        "channel": 1
      },
      {
        "type": "note_on",
        "time": 60,
        "note": 64,
        "velocity": 0,
        "channel": 1
      },
      {
        "type": "note_on",
        "time": 0,
        "note": 62,
        "velocity": 80,
        "channel": 1
      },
      {
        "type": "note_on",
        "time": 30,
        "note": 62,
        "velocity": 0,
        "channel": 1
      },
      {
        "type": "note_on",
        "time": 0,
        "note": 64,
        "velocity": 80,
        "channel": 1
      },
      {
        "type": "note_on",
        "time": 60,
        "note": 64,
        "velocity": 0,
        "channel": 1
      },
      {
        "type": "note_on",
        "time": 0,
        "note": 62,
        "velocity": 79,
        "channel": 1
      },
      {
        "type": "note_on",
        "time": 30,
        "note": 62,
        "velocity": 0,
        "channel": 1
      },
      {
        "type": "note_on",
        "time": 0,
        "note": 64,
        "velocity": 79,
        "channel": 1
      },
      {
        "type": "note_on",
        "time": 60,
        "note": 64,
        "velocity": 0,
        "channel": 1
      },
      {
        "type": "note_on",
        "time": 0,
        "note": 62,
        "velocity": 78,
        "channel": 1
      },
      {
        "type": "note_on",
        "time": 30,
        "note": 62,
        "velocity": 0,
        "channel": 1
      },
      {
        "type": "note_on",
        "time": 0,
        "note": 64,
        "velocity": 78,
        "channel": 1
      },
      {
        "type": "note_on",
        "time": 90,
        "note": 64,
        "velocity": 0,
        "channel": 1
      },
      {
        "type": "note_on",
        "time": 0,
        "note": 62,
        "velocity": 78,
        "channel": 1
      },
      {
        "type": "note_on",
        "time": 30,
        "note": 62,
        "velocity": 0,
        "channel": 1
      },
      {
        "type": "note_on",
        "time": 0,
        "note": 64,
        "velocity": 78,
        "channel": 1
      },
      {
        "type": "note_on",
        "time": 60,
        "note": 64,
        "velocity": 0,
        "channel": 1
      },
      {
        "type": "note_on",
        "time": 0,
        "note": 62,
        "velocity": 80,
        "channel": 1
      },
      {
        "type": "note_on",
        "time": 30,
        "note": 62,
        "velocity": 0,
        "channel": 1
      },
      {
        "type": "note_on",
        "time": 0,
        "note": 64,
        "velocity": 82,
        "channel": 1
      },
      {
        "type": "note_on",
        "time": 60,
        "note": 64,
        "velocity": 0,
        "channel": 1
      },
      {
        "type": "note_on",
        "time": 0,
        "note": 62,
        "velocity": 85,
        "channel": 1
      },
      {
        "type": "note_on",
        "time": 30,
        "note": 62,
        "velocity": 0,
        "channel": 1
      },
      {
        "type": "note_on",
        "time": 0,
        "note": 64,
        "velocity": 86,
        "channel": 1
      },
      {
        "type": "note_on",
        "time": 60,
        "note": 64,
        "velocity": 0,
        "channel": 1
      },
      {
        "type": "note_on",
        "time": 0,
        "note": 62,
        "velocity": 88,
        "channel": 1
      },
      {
        "type": "note_on",
        "time": 30,
        "note": 62,
        "velocity": 0,
        "channel": 1
      },
      {
        "type": "note_on",
        "time": 0,
        "note": 64,
        "velocity": 88,
        "channel": 1
      },
      {
        "type": "note_on",
        "time": 60,
        "note": 64,
        "velocity": 0,
        "channel": 1
      },
      {
        "type": "note_on",
        "time": 0,
        "note": 62,
        "velocity": 90,
        "channel": 1
      },
      {
        "type": "note_on",
        "time": 30,
        "note": 62,
        "velocity": 0,
        "channel": 1
      },
      {
        "type": "note_on",
        "time": 0,
        "note": 64,
        "velocity": 90,
        "channel": 1
      },
      {
        "type": "note_on",
        "time": 90,
        "note": 64,
        "velocity": 0,
        "channel": 1
      },
      {
        "type": "note_on",
        "time": 0,
        "note": 62,
        "velocity": 89,
        "channel": 1
      },
      {
        "type": "note_on",
        "time": 30,
        "note": 62,
        "velocity": 0,
        "channel": 1
      },
      {
        "type": "note_on",
        "time": 0,
        "note": 64,
        "velocity": 89,
        "channel": 1
      },
      {
        "type": "note_on",
        "time": 60,
        "note": 64,
        "velocity": 0,
        "channel": 1
      },
      {
        "type": "note_on",
        "time": 0,
        "note": 62,
        "velocity": 89,
        "channel": 1
      },
      {
        "type": "note_on",
        "time": 30,
        "note": 62,
        "velocity": 0,
        "channel": 1
      },
      {
        "type": "note_on",
        "time": 0,
        "note": 64,
        "velocity": 89,
        "channel": 1
      },
      {
        "type": "note_on",
        "time": 60,
        "note": 64,
        "velocity": 0,
        "channel": 1
      },
      {
        "type": "note_on",
        "time": 0,
        "note": 62,
        "velocity": 89,
        "channel": 1
      },
      {
        "type": "note_on",
        "time": 30,
        "note": 62,
        "velocity": 0,
        "channel": 1
      },
      {
        "type": "note_on",
        "time": 0,
        "note": 64,
        "velocity": 89,
        "channel": 1
      },
      {
        "type": "note_on",
        "time": 60,
        "note": 64,
        "velocity": 0,
        "channel": 1
      },
      {
        "type": "note_on",
        "time": 0,
        "note": 62,
        "velocity": 91,
        "channel": 1
      },
      {
        "type": "note_on",
        "time": 30,
        "note": 62,
        "velocity": 0,
        "channel": 1
      },
      {
        "type": "note_on",
        "time": 0,
        "note": 64,
        "velocity": 93,
        "channel": 1
      },
      {
        "type": "note_on",
        "time": 60,
        "note": 64,
        "velocity": 0,
        "channel": 1
      },
      {
        "type": "note_on",
        "time": 0,
        "note": 62,
        "velocity": 96,
        "channel": 1
      },
      {
        "type": "note_on",
        "time": 30,
        "note": 62,
        "velocity": 0,
        "channel": 1
      },
      {
        "type": "note_on",
        "time": 0,
        "note": 64,
        "velocity": 97,
        "channel": 1
      },
      {
        "type": "note_on",
        "time": 90,
        "note": 64,
        "velocity": 0,
        "channel": 1
      },
      {
        "type": "note_on",
        "time": 0,
        "note": 62,
        "velocity": 100,
        "channel": 1
      },
      {
        "type": "note_on",
        "time": 30,
        "note": 62,
        "velocity": 0,
        "channel": 1
      },
      {
        "type": "note_on",
        "time": 0,
        "note": 64,
        "velocity": 100,
        "channel": 1
      },
      {
        "type": "note_on",
        "time": 60,
        "note": 64,
        "velocity": 0,
        "channel": 1
      },
      {
        "type": "note_on",
        "time": 0,
        "note": 62,
        "velocity": 101,
        "channel": 1
      },
      {
        "type": "note_on",
        "time": 30,
        "note": 62,
        "velocity": 0,
        "channel": 1
      },
      {
        "type": "note_on",
        "time": 0,
        "note": 64,
        "velocity": 101,
        "channel": 1
      },
      {
        "type": "note_on",
        "time": 60,
        "note": 64,
        "velocity": 0,
        "channel": 1
      },
      {
        "type": "note_on",
        "time": 0,
        "note": 62,
        "velocity": 101,
        "channel": 1
      },
      {
        "type": "note_on",
        "time": 30,
        "note": 62,
        "velocity": 0,
        "channel": 1
      },
      {
        "type": "note_on",
        "time": 0,
        "note": 64,
        "velocity": 102,
        "channel": 1
      },
      {
        "type": "note_on",
        "time": 60,
        "note": 64,
        "velocity": 0,
        "channel": 1
      },
      {
        "type": "note_on",
        "time": 0,
        "note": 62,
        "velocity": 105,
        "channel": 1
      },
      {
        "type": "note_on",
        "time": 30,
        "note": 62,
        "velocity": 0,
        "channel": 1
      },
      {
        "type": "note_on",
        "time": 0,
        "note": 64,
        "velocity": 105,
        "channel": 1
      },
      {
        "type": "note_on",
        "time": 60,
        "note": 64,
        "velocity": 0,
        "channel": 1
      },
      {
        "type": "note_on",
        "time": 0,
        "note": 62,
        "velocity": 106,
        "channel": 1
      },
      {
        "type": "note_on",
        "time": 30,
        "note": 62,
        "velocity": 0,
        "channel": 1
      },
      {
        "type": "note_on",
        "time": 0,
        "note": 64,
        "velocity": 106,
        "channel": 1
      },
      {
        "type": "note_on",
        "time": 90,
        "note": 64,
        "velocity": 0,
        "channel": 1
      },
      {
        "type": "note_on",
        "time": 0,
        "note": 62,
        "velocity": 107,
        "channel": 1
      },
      {
        "type": "note_on",
        "time": 30,
        "note": 62,
        "velocity": 0,
        "channel": 1
      },
      {
        "type": "note_on",
        "time": 0,
        "note": 64,
        "velocity": 107,
        "channel": 1
      },
      {
        "type": "note_on",
        "time": 60,
        "note": 64,
        "velocity": 0,
        "channel": 1
      },
      {
        "type": "note_on",
        "time": 0,
        "note": 62,
        "velocity": 108,
        "channel": 1
      },
      {
        "type": "note_on",
        "time": 30,
        "note": 62,
        "velocity": 0,
        "channel": 1
      },
      {
        "type": "note_on",
        "time": 0,
        "note": 64,
        "velocity": 108,
        "channel": 1
      },
      {
        "type": "note_on",
        "time": 60,
        "note": 64,
        "velocity": 0,
        "channel": 1
      },
      {
        "type": "note_on",
        "time": 0,
        "note": 62,
        "velocity": 107,
        "channel": 1
      },
      {
        "type": "note_on",
        "time": 30,
        "note": 62,
        "velocity": 0,
        "channel": 1
      },
      {
        "type": "note_on",
        "time": 0,
        "note": 64,
        "velocity": 107,
        "channel": 1
      },
      {
        "type": "note_on",
        "time": 60,
        "note": 64,
        "velocity": 0,
        "channel": 1
      },
      {
        "type": "note_on",
        "time": 0,
        "note": 62,
        "velocity": 111,
        "channel": 1
      },
      {
        "type": "note_on",
        "time": 30,
        "note": 62,
        "velocity": 0,
        "channel": 1
      },
      {
        "type": "note_on",
        "time": 0,
        "note": 64,
        "velocity": 112,
        "channel": 1
      },
      {
        "type": "note_on",
        "time": 60,
        "note": 64,
        "velocity": 0,
        "channel": 1
      },
      {
        "type": "note_on",
        "time": 0,
        "note": 62,
        "velocity": 116,
        "channel": 1
      },
      {
        "type": "note_on",
        "time": 30,
        "note": 62,
        "velocity": 0,
        "channel": 1
      },
      {
        "type": "note_on",
        "time": 0,
        "note": 64,
        "velocity": 121,
        "channel": 1
      },
      {
        "type": "note_on",
        "time": 90,
        "note": 64,
        "velocity": 0,
        "channel": 1
      },
      {
        "type": "note_on",
        "time": 0,
        "note": 59,
        "velocity": 100,
        "channel": 1
      },
      {
        "type": "note_on",
        "time": 0,
        "note": 52,
        "velocity": 100,
        "channel": 1
      },
      {
        "type": "note_on",
        "time": 30,
        "note": 52,
        "velocity": 0,
        "channel": 1
      },
      {
        "type": "note_on",
        "time": 0,
        "note": 59,
        "velocity": 0,
        "channel": 1
      },
      {
        "type": "note_on",
        "time": 0,
        "note": 59,
        "velocity": 101,
        "channel": 1
      },
      {
        "type": "note_on",
        "time": 0,
        "note": 52,
        "velocity": 101,
        "channel": 1
      },
      {
        "type": "note_on",
        "time": 30,
        "note": 52,
        "velocity": 0,
        "channel": 1
      },
      {
        "type": "note_on",
        "time": 0,
        "note": 59,
        "velocity": 0,
        "channel": 1
      },
      {
        "type": "note_on",
        "time": 0,
        "note": 59,
        "velocity": 102,
        "channel": 1
      },
      {
        "type": "note_on",
        "time": 0,
        "note": 62,
        "velocity": 102,
        "channel": 1
      },
      {
        "type": "note_on",
        "time": 45,
        "note": 62,
        "velocity": 0,
        "channel": 1
      },
      {
        "type": "note_on",
        "time": 0,
        "note": 59,
        "velocity": 0,
        "channel": 1
      },
      {
        "type": "note_on",
        "time": 15,
        "note": 59,
        "velocity": 103,
        "channel": 1
      },
      {
        "type": "note_on",
        "time": 0,
        "note": 64,
        "velocity": 103,
        "channel": 1
      },
      {
        "type": "note_on",
        "time": 45,
        "note": 64,
        "velocity": 0,
        "channel": 1
      },
      {
        "type": "note_on",
        "time": 0,
        "note": 59,
        "velocity": 0,
        "channel": 1
      },
      {
        "type": "note_on",
        "time": 15,
        "note": 59,
        "velocity": 102,
        "channel": 1
      },
      {
        "type": "note_on",
        "time": 0,
        "note": 52,
        "velocity": 102,
        "channel": 1
      },
      {
        "type": "note_on",
        "time": 30,
        "note": 52,
        "velocity": 0,
        "channel": 1
      },
      {
        "type": "note_on",
        "time": 0,
        "note": 59,
        "velocity": 0,
        "channel": 1
      },
      {
        "type": "note_on",
        "time": 0,
        "note": 59,
        "velocity": 102,
        "channel": 1
      },
      {
        "type": "note_on",
        "time": 0,
        "note": 52,
        "velocity": 102,
        "channel": 1
      },
      {
        "type": "note_on",
        "time": 30,
        "note": 52,
        "velocity": 0,
        "channel": 1
      },
      {
        "type": "note_on",
        "time": 0,
        "note": 59,
        "velocity": 0,
        "channel": 1
      },
      {
        "type": "note_on",
        "time": 0,
        "note": 59,
        "velocity": 101,
        "channel": 1
      },
      {
        "type": "note_on",
        "time": 0,
        "note": 52,
        "velocity": 101,
        "channel": 1
      },
      {
        "type": "note_on",
        "time": 30,
        "note": 52,
        "velocity": 0,
        "channel": 1
      },
      {
        "type": "note_on",
        "time": 0,
        "note": 59,
        "velocity": 0,
        "channel": 1
      },
      {
        "type": "note_on",
        "time": 0,
        "note": 59,
        "velocity": 98,
        "channel": 1
      },
      {
        "type": "note_on",
        "time": 0,
        "note": 62,
        "velocity": 98,
        "channel": 1
      },
      {
        "type": "note_on",
        "time": 0,
        "note": 52,
        "velocity": 98,
        "channel": 1
      },
      {
        "type": "note_on",
        "time": 45,
        "note": 52,
        "velocity": 0,
        "channel": 1
      },
      {
        "type": "note_on",
        "time": 0,
        "note": 62,
        "velocity": 0,
        "channel": 1
      },
      {
        "type": "note_on",
        "time": 0,
        "note": 59,
        "velocity": 0,
        "channel": 1
      },
      {
        "type": "note_on",
        "time": 15,
        "note": 59,
        "velocity": 98,
        "channel": 1
      },
      {
        "type": "note_on",
        "time": 0,
        "note": 64,
        "velocity": 98,
        "channel": 1
      },
      {
        "type": "note_on",
        "time": 0,
        "note": 52,
        "velocity": 98,
        "channel": 1
      },
      {
        "type": "note_on",
        "time": 45,
        "note": 52,
        "velocity": 0,
        "channel": 1
      },
      {
        "type": "note_on",
        "time": 0,
        "note": 64,
        "velocity": 0,
        "channel": 1
      },
      {
        "type": "note_on",
        "time": 0,
        "note": 59,
        "velocity": 0,
        "channel": 1
      },
      {
        "type": "note_on",
        "time": 15,
        "note": 59,
        "velocity": 101,
        "channel": 1
      },
      {
        "type": "note_on",
        "time": 0,
        "note": 52,
        "velocity": 101,
        "channel": 1
      },
      {
        "type": "note_on",
        "time": 30,
        "note": 52,
        "velocity": 0,
        "channel": 1
      },
      {
        "type": "note_on",
        "time": 0,
        "note": 59,
        "velocity": 0,
        "channel": 1
      },
      {
        "type": "note_on",
        "time": 0,
        "note": 59,
        "velocity": 101,
        "channel": 1
      },
      {
        "type": "note_on",
        "time": 0,
        "note": 52,
        "velocity": 101,
        "channel": 1
      },
      {
        "type": "note_on",
        "time": 30,
        "note": 52,
        "velocity": 0,
        "channel": 1
      },
      {
        "type": "note_on",
        "time": 0,
        "note": 59,
        "velocity": 0,
        "channel": 1
      },
      {
        "type": "note_on",
        "time": 0,
        "note": 59,
        "velocity": 101,
        "channel": 1
      },
      {
        "type": "note_on",
        "time": 0,
        "note": 52,
        "velocity": 101,
        "channel": 1
      },
      {
        "type": "note_on",
        "time": 30,
        "note": 52,
        "velocity": 0,
        "channel": 1
      },
      {
        "type": "note_on",
        "time": 0,
        "note": 59,
        "velocity": 0,
        "channel": 1
      },
      {
        "type": "note_on",
        "time": 0,
        "note": 57,
        "velocity": 101,
        "channel": 1
      },
      {
        "type": "note_on",
        "time": 0,
        "note": 50,
        "velocity": 101,
        "channel": 1
      },
      {
        "type": "note_on",
        "time": 30,
        "note": 50,
        "velocity": 0,
        "channel": 1
      },
      {
        "type": "note_on",
        "time": 0,
        "note": 57,
        "velocity": 0,
        "channel": 1
      },
      {
        "type": "note_on",
        "time": 0,
        "note": 57,
        "velocity": 101,
        "channel": 1
      },
      {
        "type": "note_on",
        "time": 0,
        "note": 50,
        "velocity": 101,
        "channel": 1
      },
      {
        "type": "note_on",
        "time": 30,
        "note": 50,
        "velocity": 0,
        "channel": 1
      },
      {
        "type": "note_on",
        "time": 0,
        "note": 57,
        "velocity": 0,
        "channel": 1
      },
      {
        "type": "note_on",
        "time": 0,
        "note": 57,
        "velocity": 101,
        "channel": 1
      },
      {
        "type": "note_on",
        "time": 0,
        "note": 62,
        "velocity": 101,
        "channel": 1
      },
      {
        "type": "note_on",
        "time": 45,
        "note": 62,
        "velocity": 0,
        "channel": 1
      },
      {
        "type": "note_on",
        "time": 0,
        "note": 57,
        "velocity": 0,
        "channel": 1
      },
      {
        "type": "note_on",
        "time": 15,
        "note": 62,
        "velocity": 101,
        "channel": 1
      },
      {
        "type": "note_on",
        "time": 0,
        "note": 64,
        "velocity": 100,
        "channel": 1
      },
      {
        "type": "note_on",
        "time": 45,
        "note": 64,
        "velocity": 0,
        "channel": 1
      },
      {
        "type": "note_on",
        "time": 0,
        "note": 62,
        "velocity": 0,
        "channel": 1
      },
      {
        "type": "note_on",
        "time": 15,
        "note": 57,
        "velocity": 100,
        "channel": 1
      },
      {
        "type": "note_on",
        "time": 0,
        "note": 50,
        "velocity": 100,
        "channel": 1
      },
      {
        "type": "note_on",
        "time": 30,
        "note": 50,
        "velocity": 0,
        "channel": 1
      },
      {
        "type": "note_on",
        "time": 0,
        "note": 57,
        "velocity": 0,
        "channel": 1
      },
      {
        "type": "note_on",
        "time": 0,
        "note": 57,
        "velocity": 100,
        "channel": 1
      },
      {
        "type": "note_on",
        "time": 0,
        "note": 50,
        "velocity": 100,
        "channel": 1
      },
      {
        "type": "note_on",
        "time": 30,
        "note": 50,
        "velocity": 0,
        "channel": 1
      },
      {
        "type": "note_on",
        "time": 0,
        "note": 57,
        "velocity": 0,
        "channel": 1
      },
      {
        "type": "note_on",
        "time": 0,
        "note": 57,
        "velocity": 100,
        "channel": 1
      },
      {
        "type": "note_on",
        "time": 0,
        "note": 50,
        "velocity": 100,
        "channel": 1
      },
      {
        "type": "note_on",
        "time": 30,
        "note": 50,
        "velocity": 0,
        "channel": 1
      },
      {
        "type": "note_on",
        "time": 0,
        "note": 57,
        "velocity": 0,
        "channel": 1
      },
      {
        "type": "note_on",
        "time": 0,
        "note": 57,
        "velocity": 101,
        "channel": 1
      },
      {
        "type": "note_on",
        "time": 0,
        "note": 62,
        "velocity": 100,
        "channel": 1
      },
      {
        "type": "note_on",
        "time": 45,
        "note": 62,
        "velocity": 0,
        "channel": 1
      },
      {
        "type": "note_on",
        "time": 0,
        "note": 57,
        "velocity": 0,
        "channel": 1
      },
      {
        "type": "note_on",
        "time": 15,
        "note": 62,
        "velocity": 101,
        "channel": 1
      },
      {
        "type": "note_on",
        "time": 0,
        "note": 64,
        "velocity": 100,
        "channel": 1
      },
      {
        "type": "note_on",
        "time": 45,
        "note": 64,
        "velocity": 0,
        "channel": 1
      },
      {
        "type": "note_on",
        "time": 0,
        "note": 62,
        "velocity": 0,
        "channel": 1
      },
      {
        "type": "note_on",
        "time": 15,
        "note": 57,
        "velocity": 100,
        "channel": 1
      },
      {
        "type": "note_on",
        "time": 0,
        "note": 50,
        "velocity": 100,
        "channel": 1
      },
      {
        "type": "note_on",
        "time": 30,
        "note": 50,
        "velocity": 0,
        "channel": 1
      },
      {
        "type": "note_on",
        "time": 0,
        "note": 57,
        "velocity": 0,
        "channel": 1
      },
      {
        "type": "note_on",
        "time": 0,
        "note": 57,
        "velocity": 100,
        "channel": 1
      },
      {
        "type": "note_on",
        "time": 0,
        "note": 50,
        "velocity": 100,
        "channel": 1
      },
      {
        "type": "note_on",
        "time": 30,
        "note": 50,
        "velocity": 0,
        "channel": 1
      },
      {
        "type": "note_on",
        "time": 0,
        "note": 57,
        "velocity": 0,
        "channel": 1
      },
      {
        "type": "note_on",
        "time": 0,
        "note": 57,
        "velocity": 100,
        "channel": 1
      },
      {
        "type": "note_on",
        "time": 0,
        "note": 50,
        "velocity": 100,
        "channel": 1
      },
      {
        "type": "note_on",
        "time": 30,
        "note": 50,
        "velocity": 0,
        "channel": 1
      },
      {
        "type": "note_on",
        "time": 0,
        "note": 57,
        "velocity": 0,
        "channel": 1
      },
      {
        "type": "note_on",
        "time": 0,
        "note": 54,
        "velocity": 100,
        "channel": 1
      },
      {
        "type": "note_on",
        "time": 0,
        "note": 47,
        "velocity": 100,
        "channel": 1
      },
      {
        "type": "note_on",
        "time": 30,
        "note": 47,
        "velocity": 0,
        "channel": 1
      },
      {
        "type": "note_on",
        "time": 0,
        "note": 54,
        "velocity": 0,
        "channel": 1
      },
      {
        "type": "note_on",
        "time": 0,
        "note": 54,
        "velocity": 100,
        "channel": 1
      },
      {
        "type": "note_on",
        "time": 0,
        "note": 47,
        "velocity": 100,
        "channel": 1
      },
      {
        "type": "note_on",
        "time": 30,
        "note": 47,
        "velocity": 0,
        "channel": 1
      },
      {
        "type": "note_on",
        "time": 0,
        "note": 54,
        "velocity": 0,
        "channel": 1
      },
      {
        "type": "note_on",
        "time": 0,
        "note": 62,
        "velocity": 101,
        "channel": 1
      },
      {
        "type": "note_on",
        "time": 0,
        "note": 54,
        "velocity": 101,
        "channel": 1
      },
      {
        "type": "note_on",
        "time": 45,
        "note": 54,
        "velocity": 0,
        "channel": 1
      },
      {
        "type": "note_on",
        "time": 0,
        "note": 62,
        "velocity": 0,
        "channel": 1
      },
      {
        "type": "note_on",
        "time": 15,
        "note": 59,
        "velocity": 101,
        "channel": 1
      },
      {
        "type": "note_on",
        "time": 0,
        "note": 64,
        "velocity": 101,
        "channel": 1
      },
      {
        "type": "note_on",
        "time": 45,
        "note": 64,
        "velocity": 0,
        "channel": 1
      },
      {
        "type": "note_on",
        "time": 0,
        "note": 59,
        "velocity": 0,
        "channel": 1
      },
      {
        "type": "note_on",
        "time": 15,
        "note": 54,
        "velocity": 101,
        "channel": 1
      },
      {
        "type": "note_on",
        "time": 0,
        "note": 47,
        "velocity": 101,
        "channel": 1
      },
      {
        "type": "note_on",
        "time": 30,
        "note": 47,
        "velocity": 0,
        "channel": 1
      },
      {
        "type": "note_on",
        "time": 0,
        "note": 54,
        "velocity": 0,
        "channel": 1
      },
      {
        "type": "note_on",
        "time": 0,
        "note": 54,
        "velocity": 102,
        "channel": 1
      },
      {
        "type": "note_on",
        "time": 0,
        "note": 47,
        "velocity": 102,
        "channel": 1
      },
      {
        "type": "note_on",
        "time": 30,
        "note": 47,
        "velocity": 0,
        "channel": 1
      },
      {
        "type": "note_on",
        "time": 0,
        "note": 54,
        "velocity": 0,
        "channel": 1
      },
      {
        "type": "note_on",
        "time": 0,
        "note": 47,
        "velocity": 103,
        "channel": 1
      },
      {
        "type": "note_on",
        "time": 0,
        "note": 54,
        "velocity": 103,
        "channel": 1
      },
      {
        "type": "note_on",
        "time": 30,
        "note": 54,
        "velocity": 0,
        "channel": 1
      },
      {
        "type": "note_on",
        "time": 0,
        "note": 47,
        "velocity": 0,
        "channel": 1
      },
      {
        "type": "note_on",
        "time": 0,
        "note": 54,
        "velocity": 101,
        "channel": 1
      },
      {
        "type": "note_on",
        "time": 0,
        "note": 62,
        "velocity": 104,
        "channel": 1
      },
      {
        "type": "note_on",
        "time": 45,
        "note": 62,
        "velocity": 0,
        "channel": 1
      },
      {
        "type": "note_on",
        "time": 0,
        "note": 54,
        "velocity": 0,
        "channel": 1
      },
      {
        "type": "note_on",
        "time": 15,
        "note": 59,
        "velocity": 101,
        "channel": 1
      },
      {
        "type": "note_on",
        "time": 0,
        "note": 64,
        "velocity": 105,
        "channel": 1
      },
      {
        "type": "note_on",
        "time": 45,
        "note": 64,
        "velocity": 0,
        "channel": 1
      },
      {
        "type": "note_on",
        "time": 0,
        "note": 59,
        "velocity": 0,
        "channel": 1
      },
      {
        "type": "note_on",
        "time": 15,
        "note": 47,
        "velocity": 105,
        "channel": 1
      },
      {
        "type": "note_on",
        "time": 0,
        "note": 54,
        "velocity": 105,
        "channel": 1
      },
      {
        "type": "note_on",
        "time": 30,
        "note": 54,
        "velocity": 0,
        "channel": 1
      },
      {
        "type": "note_on",
        "time": 0,
        "note": 47,
        "velocity": 0,
        "channel": 1
      },
      {
        "type": "note_on",
        "time": 0,
        "note": 54,
        "velocity": 99,
        "channel": 1
      },
      {
        "type": "note_on",
        "time": 0,
        "note": 47,
        "velocity": 99,
        "channel": 1
      },
      {
        "type": "note_on",
        "time": 30,
        "note": 47,
        "velocity": 0,
        "channel": 1
      },
      {
        "type": "note_on",
        "time": 0,
        "note": 54,
        "velocity": 0,
        "channel": 1
      },
      {
        "type": "note_on",
        "time": 0,
        "note": 54,
        "velocity": 99,
        "channel": 1
      },
      {
        "type": "note_on",
        "time": 0,
        "note": 47,
        "velocity": 99,
        "channel": 1
      },
      {
        "type": "note_on",
        "time": 30,
        "note": 47,
        "velocity": 0,
        "channel": 1
      },
      {
        "type": "note_on",
        "time": 0,
        "note": 54,
        "velocity": 0,
        "channel": 1
      },
      {
        "type": "note_on",
        "time": 0,
        "note": 55,
        "velocity": 100,
        "channel": 1
      },
      {
        "type": "note_on",
        "time": 0,
        "note": 48,
        "velocity": 99,
        "channel": 1
      },
      {
        "type": "note_on",
        "time": 30,
        "note": 48,
        "velocity": 0,
        "channel": 1
      },
      {
        "type": "note_on",
        "time": 0,
        "note": 55,
        "velocity": 0,
        "channel": 1
      },
      {
        "type": "note_on",
        "time": 0,
        "note": 55,
        "velocity": 100,
        "channel": 1
      },
      {
        "type": "note_on",
        "time": 0,
        "note": 48,
        "velocity": 99,
        "channel": 1
      },
      {
        "type": "note_on",
        "time": 30,
        "note": 48,
        "velocity": 0,
        "channel": 1
      },
      {
        "type": "note_on",
        "time": 0,
        "note": 55,
        "velocity": 0,
        "channel": 1
      },
      {
        "type": "note_on",
        "time": 0,
        "note": 55,
        "velocity": 101,
        "channel": 1
      },
      {
        "type": "note_on",
        "time": 0,
        "note": 62,
        "velocity": 99,
        "channel": 1
      },
      {
        "type": "note_on",
        "time": 45,
        "note": 62,
        "velocity": 0,
        "channel": 1
      },
      {
        "type": "note_on",
        "time": 0,
        "note": 55,
        "velocity": 0,
        "channel": 1
      },
      {
        "type": "note_on",
        "time": 15,
        "note": 60,
        "velocity": 101,
        "channel": 1
      },
      {
        "type": "note_on",
        "time": 0,
        "note": 64,
        "velocity": 99,
        "channel": 1
      },
      {
        "type": "note_on",
        "time": 45,
        "note": 64,
        "velocity": 0,
        "channel": 1
      },
      {
        "type": "note_on",
        "time": 0,
        "note": 60,
        "velocity": 0,
        "channel": 1
      },
      {
        "type": "note_on",
        "time": 15,
        "note": 55,
        "velocity": 100,
        "channel": 1
      },
      {
        "type": "note_on",
        "time": 0,
        "note": 48,
        "velocity": 99,
        "channel": 1
      },
      {
        "type": "note_on",
        "time": 30,
        "note": 48,
        "velocity": 0,
        "channel": 1
      },
      {
        "type": "note_on",
        "time": 0,
        "note": 55,
        "velocity": 0,
        "channel": 1
      },
      {
        "type": "note_on",
        "time": 0,
        "note": 55,
        "velocity": 100,
        "channel": 1
      },
      {
        "type": "note_on",
        "time": 0,
        "note": 48,
        "velocity": 99,
        "channel": 1
      },
      {
        "type": "note_on",
        "time": 30,
        "note": 48,
        "velocity": 0,
        "channel": 1
      },
      {
        "type": "note_on",
        "time": 0,
        "note": 55,
        "velocity": 0,
        "channel": 1
      },
      {
        "type": "note_on",
        "time": 0,
        "note": 55,
        "velocity": 100,
        "channel": 1
      },
      {
        "type": "note_on",
        "time": 0,
        "note": 48,
        "velocity": 100,
        "channel": 1
      },
      {
        "type": "note_on",
        "time": 30,
        "note": 48,
        "velocity": 0,
        "channel": 1
      },
      {
        "type": "note_on",
        "time": 0,
        "note": 55,
        "velocity": 0,
        "channel": 1
      },
      {
        "type": "note_on",
        "time": 0,
        "note": 55,
        "velocity": 101,
        "channel": 1
      },
      {
        "type": "note_on",
        "time": 0,
        "note": 62,
        "velocity": 100,
        "channel": 1
      },
      {
        "type": "note_on",
        "time": 45,
        "note": 62,
        "velocity": 0,
        "channel": 1
      },
      {
        "type": "note_on",
        "time": 0,
        "note": 55,
        "velocity": 0,
        "channel": 1
      },
      {
        "type": "note_on",
        "time": 15,
        "note": 60,
        "velocity": 101,
        "channel": 1
      },
      {
        "type": "note_on",
        "time": 0,
        "note": 64,
        "velocity": 102,
        "channel": 1
      },
      {
        "type": "note_on",
        "time": 45,
        "note": 64,
        "velocity": 0,
        "channel": 1
      },
      {
        "type": "note_on",
        "time": 0,
        "note": 60,
        "velocity": 0,
        "channel": 1
      },
      {
        "type": "note_on",
        "time": 15,
        "note": 55,
        "velocity": 100,
        "channel": 1
      },
      {
        "type": "note_on",
        "time": 0,
        "note": 48,
        "velocity": 103,
        "channel": 1
      },
      {
        "type": "note_on",
        "time": 30,
        "note": 48,
        "velocity": 0,
        "channel": 1
      },
      {
        "type": "note_on",
        "time": 0,
        "note": 55,
        "velocity": 0,
        "channel": 1
      },
      {
        "type": "note_on",
        "time": 0,
        "note": 55,
        "velocity": 100,
        "channel": 1
      },
      {
        "type": "note_on",
        "time": 0,
        "note": 48,
        "velocity": 103,
        "channel": 1
      },
      {
        "type": "note_on",
        "time": 30,
        "note": 48,
        "velocity": 0,
        "channel": 1
      },
      {
        "type": "note_on",
        "time": 0,
        "note": 55,
        "velocity": 0,
        "channel": 1
      },
      {
        "type": "note_on",
        "time": 0,
        "note": 55,
        "velocity": 100,
        "channel": 1
      },
      {
        "type": "note_on",
        "time": 0,
        "note": 48,
        "velocity": 104,
        "channel": 1
      },
      {
        "type": "note_on",
        "time": 30,
        "note": 48,
        "velocity": 0,
        "channel": 1
      },
      {
        "type": "note_on",
        "time": 0,
        "note": 55,
        "velocity": 0,
        "channel": 1
      },
      {
        "type": "note_on",
        "time": 0,
        "note": 59,
        "velocity": 100,
        "channel": 1
      },
      {
        "type": "note_on",
        "time": 0,
        "note": 52,
        "velocity": 100,
        "channel": 1
      },
      {
        "type": "note_on",
        "time": 30,
        "note": 52,
        "velocity": 0,
        "channel": 1
      },
      {
        "type": "note_on",
        "time": 0,
        "note": 59,
        "velocity": 0,
        "channel": 1
      },
      {
        "type": "note_on",
        "time": 0,
        "note": 59,
        "velocity": 101,
        "channel": 1
      },
      {
        "type": "note_on",
        "time": 0,
        "note": 52,
        "velocity": 101,
        "channel": 1
      },
      {
        "type": "note_on",
        "time": 30,
        "note": 52,
        "velocity": 0,
        "channel": 1
      },
      {
        "type": "note_on",
        "time": 0,
        "note": 59,
        "velocity": 0,
        "channel": 1
      },
      {
        "type": "note_on",
        "time": 0,
        "note": 59,
        "velocity": 102,
        "channel": 1
      },
      {
        "type": "note_on",
        "time": 0,
        "note": 62,
        "velocity": 102,
        "channel": 1
      },
      {
        "type": "note_on",
        "time": 45,
        "note": 62,
        "velocity": 0,
        "channel": 1
      },
      {
        "type": "note_on",
        "time": 0,
        "note": 59,
        "velocity": 0,
        "channel": 1
      },
      {
        "type": "note_on",
        "time": 15,
        "note": 59,
        "velocity": 103,
        "channel": 1
      },
      {
        "type": "note_on",
        "time": 0,
        "note": 64,
        "velocity": 103,
        "channel": 1
      },
      {
        "type": "note_on",
        "time": 45,
        "note": 64,
        "velocity": 0,
        "channel": 1
      },
      {
        "type": "note_on",
        "time": 0,
        "note": 59,
        "velocity": 0,
        "channel": 1
      },
      {
        "type": "note_on",
        "time": 15,
        "note": 59,
        "velocity": 102,
        "channel": 1
      },
      {
        "type": "note_on",
        "time": 0,
        "note": 52,
        "velocity": 102,
        "channel": 1
      },
      {
        "type": "note_on",
        "time": 30,
        "note": 52,
        "velocity": 0,
        "channel": 1
      },
      {
        "type": "note_on",
        "time": 0,
        "note": 59,
        "velocity": 0,
        "channel": 1
      },
      {
        "type": "note_on",
        "time": 0,
        "note": 59,
        "velocity": 102,
        "channel": 1
      },
      {
        "type": "note_on",
        "time": 0,
        "note": 52,
        "velocity": 102,
        "channel": 1
      },
      {
        "type": "note_on",
        "time": 30,
        "note": 52,
        "velocity": 0,
        "channel": 1
      },
      {
        "type": "note_on",
        "time": 0,
        "note": 59,
        "velocity": 0,
        "channel": 1
      },
      {
        "type": "note_on",
        "time": 0,
        "note": 59,
        "velocity": 101,
        "channel": 1
      },
      {
        "type": "note_on",
        "time": 0,
        "note": 52,
        "velocity": 101,
        "channel": 1
      },
      {
        "type": "note_on",
        "time": 30,
        "note": 52,
        "velocity": 0,
        "channel": 1
      },
      {
        "type": "note_on",
        "time": 0,
        "note": 59,
        "velocity": 0,
        "channel": 1
      },
      {
        "type": "note_on",
        "time": 0,
        "note": 59,
        "velocity": 98,
        "channel": 1
      },
      {
        "type": "note_on",
        "time": 0,
        "note": 62,
        "velocity": 98,
        "channel": 1
      },
      {
        "type": "note_on",
        "time": 0,
        "note": 52,
        "velocity": 98,
        "channel": 1
      },
      {
        "type": "note_on",
        "time": 45,
        "note": 52,
        "velocity": 0,
        "channel": 1
      },
      {
        "type": "note_on",
        "time": 0,
        "note": 62,
        "velocity": 0,
        "channel": 1
      },
      {
        "type": "note_on",
        "time": 0,
        "note": 59,
        "velocity": 0,
        "channel": 1
      },
      {
        "type": "note_on",
        "time": 15,
        "note": 59,
        "velocity": 98,
        "channel": 1
      },
      {
        "type": "note_on",
        "time": 0,
        "note": 64,
        "velocity": 98,
        "channel": 1
      },
      {
        "type": "note_on",
        "time": 0,
        "note": 52,
        "velocity": 98,
        "channel": 1
      },
      {
        "type": "note_on",
        "time": 45,
        "note": 52,
        "velocity": 0,
        "channel": 1
      },
      {
        "type": "note_on",
        "time": 0,
        "note": 64,
        "velocity": 0,
        "channel": 1
      },
      {
        "type": "note_on",
        "time": 0,
        "note": 59,
        "velocity": 0,
        "channel": 1
      },
      {
        "type": "note_on",
        "time": 15,
        "note": 59,
        "velocity": 101,
        "channel": 1
      },
      {
        "type": "note_on",
        "time": 0,
        "note": 52,
        "velocity": 101,
        "channel": 1
      },
      {
        "type": "note_on",
        "time": 30,
        "note": 52,
        "velocity": 0,
        "channel": 1
      },
      {
        "type": "note_on",
        "time": 0,
        "note": 59,
        "velocity": 0,
        "channel": 1
      },
      {
        "type": "note_on",
        "time": 0,
        "note": 59,
        "velocity": 101,
        "channel": 1
      },
      {
        "type": "note_on",
        "time": 0,
        "note": 52,
        "velocity": 101,
        "channel": 1
      },
      {
        "type": "note_on",
        "time": 30,
        "note": 52,
        "velocity": 0,
        "channel": 1
      },
      {
        "type": "note_on",
        "time": 0,
        "note": 59,
        "velocity": 0,
        "channel": 1
      },
      {
        "type": "note_on",
        "time": 0,
        "note": 59,
        "velocity": 101,
        "channel": 1
      },
      {
        "type": "note_on",
        "time": 0,
        "note": 52,
        "velocity": 101,
        "channel": 1
      },
      {
        "type": "note_on",
        "time": 30,
        "note": 52,
        "velocity": 0,
        "channel": 1
      },
      {
        "type": "note_on",
        "time": 0,
        "note": 59,
        "velocity": 0,
        "channel": 1
      },
      {
        "type": "note_on",
        "time": 0,
        "note": 57,
        "velocity": 101,
        "channel": 1
      },
      {
        "type": "note_on",
        "time": 0,
        "note": 50,
        "velocity": 101,
        "channel": 1
      },
      {
        "type": "note_on",
        "time": 30,
        "note": 50,
        "velocity": 0,
        "channel": 1
      },
      {
        "type": "note_on",
        "time": 0,
        "note": 57,
        "velocity": 0,
        "channel": 1
      },
      {
        "type": "note_on",
        "time": 0,
        "note": 57,
        "velocity": 101,
        "channel": 1
      },
      {
        "type": "note_on",
        "time": 0,
        "note": 50,
        "velocity": 101,
        "channel": 1
      },
      {
        "type": "note_on",
        "time": 30,
        "note": 50,
        "velocity": 0,
        "channel": 1
      },
      {
        "type": "note_on",
        "time": 0,
        "note": 57,
        "velocity": 0,
        "channel": 1
      },
      {
        "type": "note_on",
        "time": 0,
        "note": 57,
        "velocity": 101,
        "channel": 1
      },
      {
        "type": "note_on",
        "time": 0,
        "note": 62,
        "velocity": 101,
        "channel": 1
      },
      {
        "type": "note_on",
        "time": 45,
        "note": 62,
        "velocity": 0,
        "channel": 1
      },
      {
        "type": "note_on",
        "time": 0,
        "note": 57,
        "velocity": 0,
        "channel": 1
      },
      {
        "type": "note_on",
        "time": 15,
        "note": 62,
        "velocity": 101,
        "channel": 1
      },
      {
        "type": "note_on",
        "time": 0,
        "note": 64,
        "velocity": 100,
        "channel": 1
      },
      {
        "type": "note_on",
        "time": 45,
        "note": 64,
        "velocity": 0,
        "channel": 1
      },
      {
        "type": "note_on",
        "time": 0,
        "note": 62,
        "velocity": 0,
        "channel": 1
      },
      {
        "type": "note_on",
        "time": 15,
        "note": 57,
        "velocity": 100,
        "channel": 1
      },
      {
        "type": "note_on",
        "time": 0,
        "note": 50,
        "velocity": 100,
        "channel": 1
      },
      {
        "type": "note_on",
        "time": 30,
        "note": 50,
        "velocity": 0,
        "channel": 1
      },
      {
        "type": "note_on",
        "time": 0,
        "note": 57,
        "velocity": 0,
        "channel": 1
      },
      {
        "type": "note_on",
        "time": 0,
        "note": 57,
        "velocity": 100,
        "channel": 1
      },
      {
        "type": "note_on",
        "time": 0,
        "note": 50,
        "velocity": 100,
        "channel": 1
      },
      {
        "type": "note_on",
        "time": 30,
        "note": 50,
        "velocity": 0,
        "channel": 1
      },
      {
        "type": "note_on",
        "time": 0,
        "note": 57,
        "velocity": 0,
        "channel": 1
      },
      {
        "type": "note_on",
        "time": 0,
        "note": 57,
        "velocity": 100,
        "channel": 1
      },
      {
        "type": "note_on",
        "time": 0,
        "note": 50,
        "velocity": 100,
        "channel": 1
      },
      {
        "type": "note_on",
        "time": 30,
        "note": 50,
        "velocity": 0,
        "channel": 1
      },
      {
        "type": "note_on",
        "time": 0,
        "note": 57,
        "velocity": 0,
        "channel": 1
      },
      {
        "type": "note_on",
        "time": 0,
        "note": 57,
        "velocity": 101,
        "channel": 1
      },
      {
        "type": "note_on",
        "time": 0,
        "note": 62,
        "velocity": 100,
        "channel": 1
      },
      {
        "type": "note_on",
        "time": 45,
        "note": 62,
        "velocity": 0,
        "channel": 1
      },
      {
        "type": "note_on",
        "time": 0,
        "note": 57,
        "velocity": 0,
        "channel": 1
      },
      {
        "type": "note_on",
        "time": 15,
        "note": 62,
        "velocity": 101,
        "channel": 1
      },
      {
        "type": "note_on",
        "time": 0,
        "note": 64,
        "velocity": 100,
        "channel": 1
      },
      {
        "type": "note_on",
        "time": 45,
        "note": 64,
        "velocity": 0,
        "channel": 1
      },
      {
        "type": "note_on",
        "time": 0,
        "note": 62,
        "velocity": 0,
        "channel": 1
      },
      {
        "type": "note_on",
        "time": 15,
        "note": 57,
        "velocity": 100,
        "channel": 1
      },
      {
        "type": "note_on",
        "time": 0,
        "note": 50,
        "velocity": 100,
        "channel": 1
      },
      {
        "type": "note_on",
        "time": 30,
        "note": 50,
        "velocity": 0,
        "channel": 1
      },
      {
        "type": "note_on",
        "time": 0,
        "note": 57,
        "velocity": 0,
        "channel": 1
      },
      {
        "type": "note_on",
        "time": 0,
        "note": 57,
        "velocity": 100,
        "channel": 1
      },
      {
        "type": "note_on",
        "time": 0,
        "note": 50,
        "velocity": 100,
        "channel": 1
      },
      {
        "type": "note_on",
        "time": 30,
        "note": 50,
        "velocity": 0,
        "channel": 1
      },
      {
        "type": "note_on",
        "time": 0,
        "note": 57,
        "velocity": 0,
        "channel": 1
      },
      {
        "type": "note_on",
        "time": 0,
        "note": 57,
        "velocity": 100,
        "channel": 1
      },
      {
        "type": "note_on",
        "time": 0,
        "note": 50,
        "velocity": 100,
        "channel": 1
      },
      {
        "type": "note_on",
        "time": 30,
        "note": 50,
        "velocity": 0,
        "channel": 1
      },
      {
        "type": "note_on",
        "time": 0,
        "note": 57,
        "velocity": 0,
        "channel": 1
      },
      {
        "type": "note_on",
        "time": 0,
        "note": 54,
        "velocity": 100,
        "channel": 1
      },
      {
        "type": "note_on",
        "time": 0,
        "note": 47,
        "velocity": 100,
        "channel": 1
      },
      {
        "type": "note_on",
        "time": 30,
        "note": 47,
        "velocity": 0,
        "channel": 1
      },
      {
        "type": "note_on",
        "time": 0,
        "note": 54,
        "velocity": 0,
        "channel": 1
      },
      {
        "type": "note_on",
        "time": 0,
        "note": 54,
        "velocity": 100,
        "channel": 1
      },
      {
        "type": "note_on",
        "time": 0,
        "note": 47,
        "velocity": 100,
        "channel": 1
      },
      {
        "type": "note_on",
        "time": 30,
        "note": 47,
        "velocity": 0,
        "channel": 1
      },
      {
        "type": "note_on",
        "time": 0,
        "note": 54,
        "velocity": 0,
        "channel": 1
      },
      {
        "type": "note_on",
        "time": 0,
        "note": 62,
        "velocity": 101,
        "channel": 1
      },
      {
        "type": "note_on",
        "time": 0,
        "note": 54,
        "velocity": 101,
        "channel": 1
      },
      {
        "type": "note_on",
        "time": 45,
        "note": 54,
        "velocity": 0,
        "channel": 1
      },
      {
        "type": "note_on",
        "time": 0,
        "note": 62,
        "velocity": 0,
        "channel": 1
      },
      {
        "type": "note_on",
        "time": 15,
        "note": 59,
        "velocity": 101,
        "channel": 1
      },
      {
        "type": "note_on",
        "time": 0,
        "note": 64,
        "velocity": 101,
        "channel": 1
      },
      {
        "type": "note_on",
        "time": 45,
        "note": 64,
        "velocity": 0,
        "channel": 1
      },
      {
        "type": "note_on",
        "time": 0,
        "note": 59,
        "velocity": 0,
        "channel": 1
      },
      {
        "type": "note_on",
        "time": 15,
        "note": 54,
        "velocity": 101,
        "channel": 1
      },
      {
        "type": "note_on",
        "time": 0,
        "note": 47,
        "velocity": 101,
        "channel": 1
      },
      {
        "type": "note_on",
        "time": 30,
        "note": 47,
        "velocity": 0,
        "channel": 1
      },
      {
        "type": "note_on",
        "time": 0,
        "note": 54,
        "velocity": 0,
        "channel": 1
      },
      {
        "type": "note_on",
        "time": 0,
        "note": 54,
        "velocity": 102,
        "channel": 1
      },
      {
        "type": "note_on",
        "time": 0,
        "note": 47,
        "velocity": 102,
        "channel": 1
      },
      {
        "type": "note_on",
        "time": 30,
        "note": 47,
        "velocity": 0,
        "channel": 1
      },
      {
        "type": "note_on",
        "time": 0,
        "note": 54,
        "velocity": 0,
        "channel": 1
      },
      {
        "type": "note_on",
        "time": 0,
        "note": 47,
        "velocity": 103,
        "channel": 1
      },
      {
        "type": "note_on",
        "time": 0,
        "note": 54,
        "velocity": 103,
        "channel": 1
      },
      {
        "type": "note_on",
        "time": 30,
        "note": 54,
        "velocity": 0,
        "channel": 1
      },
      {
        "type": "note_on",
        "time": 0,
        "note": 47,
        "velocity": 0,
        "channel": 1
      },
      {
        "type": "note_on",
        "time": 0,
        "note": 54,
        "velocity": 101,
        "channel": 1
      },
      {
        "type": "note_on",
        "time": 0,
        "note": 62,
        "velocity": 104,
        "channel": 1
      },
      {
        "type": "note_on",
        "time": 45,
        "note": 62,
        "velocity": 0,
        "channel": 1
      },
      {
        "type": "note_on",
        "time": 0,
        "note": 54,
        "velocity": 0,
        "channel": 1
      },
      {
        "type": "note_on",
        "time": 15,
        "note": 59,
        "velocity": 101,
        "channel": 1
      },
      {
        "type": "note_on",
        "time": 0,
        "note": 64,
        "velocity": 105,
        "channel": 1
      },
      {
        "type": "note_on",
        "time": 45,
        "note": 64,
        "velocity": 0,
        "channel": 1
      },
      {
        "type": "note_on",
        "time": 0,
        "note": 59,
        "velocity": 0,
        "channel": 1
      },
      {
        "type": "note_on",
        "time": 15,
        "note": 47,
        "velocity": 105,
        "channel": 1
      },
      {
        "type": "note_on",
        "time": 0,
        "note": 54,
        "velocity": 105,
        "channel": 1
      },
      {
        "type": "note_on",
        "time": 30,
        "note": 54,
        "velocity": 0,
        "channel": 1
      },
      {
        "type": "note_on",
        "time": 0,
        "note": 47,
        "velocity": 0,
        "channel": 1
      },
      {
        "type": "note_on",
        "time": 0,
        "note": 54,
        "velocity": 99,
        "channel": 1
      },
      {
        "type": "note_on",
        "time": 0,
        "note": 47,
        "velocity": 99,
        "channel": 1
      },
      {
        "type": "note_on",
        "time": 30,
        "note": 47,
        "velocity": 0,
        "channel": 1
      },
      {
        "type": "note_on",
        "time": 0,
        "note": 54,
        "velocity": 0,
        "channel": 1
      },
      {
        "type": "note_on",
        "time": 0,
        "note": 54,
        "velocity": 99,
        "channel": 1
      },
      {
        "type": "note_on",
        "time": 0,
        "note": 47,
        "velocity": 99,
        "channel": 1
      },
      {
        "type": "note_on",
        "time": 30,
        "note": 47,
        "velocity": 0,
        "channel": 1
      },
      {
        "type": "note_on",
        "time": 0,
        "note": 54,
        "velocity": 0,
        "channel": 1
      },
      {
        "type": "note_on",
        "time": 0,
        "note": 55,
        "velocity": 100,
        "channel": 1
      },
      {
        "type": "note_on",
        "time": 0,
        "note": 48,
        "velocity": 99,
        "channel": 1
      },
      {
        "type": "note_on",
        "time": 30,
        "note": 48,
        "velocity": 0,
        "channel": 1
      },
      {
        "type": "note_on",
        "time": 0,
        "note": 55,
        "velocity": 0,
        "channel": 1
      },
      {
        "type": "note_on",
        "time": 0,
        "note": 55,
        "velocity": 100,
        "channel": 1
      },
      {
        "type": "note_on",
        "time": 0,
        "note": 48,
        "velocity": 99,
        "channel": 1
      },
      {
        "type": "note_on",
        "time": 30,
        "note": 48,
        "velocity": 0,
        "channel": 1
      },
      {
        "type": "note_on",
        "time": 0,
        "note": 55,
        "velocity": 0,
        "channel": 1
      },
      {
        "type": "note_on",
        "time": 0,
        "note": 55,
        "velocity": 101,
        "channel": 1
      },
      {
        "type": "note_on",
        "time": 0,
        "note": 62,
        "velocity": 99,
        "channel": 1
      },
      {
        "type": "note_on",
        "time": 45,
        "note": 62,
        "velocity": 0,
        "channel": 1
      },
      {
        "type": "note_on",
        "time": 0,
        "note": 55,
        "velocity": 0,
        "channel": 1
      },
      {
        "type": "note_on",
        "time": 15,
        "note": 60,
        "velocity": 101,
        "channel": 1
      },
      {
        "type": "note_on",
        "time": 0,
        "note": 64,
        "velocity": 99,
        "channel": 1
      },
      {
        "type": "note_on",
        "time": 45,
        "note": 64,
        "velocity": 0,
        "channel": 1
      },
      {
        "type": "note_on",
        "time": 0,
        "note": 60,
        "velocity": 0,
        "channel": 1
      },
      {
        "type": "note_on",
        "time": 15,
        "note": 55,
        "velocity": 100,
        "channel": 1
      },
      {
        "type": "note_on",
        "time": 0,
        "note": 48,
        "velocity": 99,
        "channel": 1
      },
      {
        "type": "note_on",
        "time": 30,
        "note": 48,
        "velocity": 0,
        "channel": 1
      },
      {
        "type": "note_on",
        "time": 0,
        "note": 55,
        "velocity": 0,
        "channel": 1
      },
      {
        "type": "note_on",
        "time": 0,
        "note": 55,
        "velocity": 100,
        "channel": 1
      },
      {
        "type": "note_on",
        "time": 0,
        "note": 48,
        "velocity": 99,
        "channel": 1
      },
      {
        "type": "note_on",
        "time": 30,
        "note": 48,
        "velocity": 0,
        "channel": 1
      },
      {
        "type": "note_on",
        "time": 0,
        "note": 55,
        "velocity": 0,
        "channel": 1
      },
      {
        "type": "note_on",
        "time": 0,
        "note": 55,
        "velocity": 100,
        "channel": 1
      },
      {
        "type": "note_on",
        "time": 0,
        "note": 48,
        "velocity": 100,
        "channel": 1
      },
      {
        "type": "note_on",
        "time": 30,
        "note": 48,
        "velocity": 0,
        "channel": 1
      },
      {
        "type": "note_on",
        "time": 0,
        "note": 55,
        "velocity": 0,
        "channel": 1
      },
      {
        "type": "note_on",
        "time": 0,
        "note": 55,
        "velocity": 101,
        "channel": 1
      },
      {
        "type": "note_on",
        "time": 0,
        "note": 62,
        "velocity": 100,
        "channel": 1
      },
      {
        "type": "note_on",
        "time": 45,
        "note": 62,
        "velocity": 0,
        "channel": 1
      },
      {
        "type": "note_on",
        "time": 0,
        "note": 55,
        "velocity": 0,
        "channel": 1
      },
      {
        "type": "note_on",
        "time": 15,
        "note": 60,
        "velocity": 101,
        "channel": 1
      },
      {
        "type": "note_on",
        "time": 0,
        "note": 64,
        "velocity": 102,
        "channel": 1
      },
      {
        "type": "note_on",
        "time": 45,
        "note": 64,
        "velocity": 0,
        "channel": 1
      },
      {
        "type": "note_on",
        "time": 0,
        "note": 60,
        "velocity": 0,
        "channel": 1
      },
      {
        "type": "note_on",
        "time": 15,
        "note": 55,
        "velocity": 100,
        "channel": 1
      },
      {
        "type": "note_on",
        "time": 0,
        "note": 48,
        "velocity": 103,
        "channel": 1
      },
      {
        "type": "note_on",
        "time": 30,
        "note": 48,
        "velocity": 0,
        "channel": 1
      },
      {
        "type": "note_on",
        "time": 0,
        "note": 55,
        "velocity": 0,
        "channel": 1
      },
      {
        "type": "note_on",
        "time": 0,
        "note": 55,
        "velocity": 100,
        "channel": 1
      },
      {
        "type": "note_on",
        "time": 0,
        "note": 48,
        "velocity": 103,
        "channel": 1
      },
      {
        "type": "note_on",
        "time": 30,
        "note": 48,
        "velocity": 0,
        "channel": 1
      },
      {
        "type": "note_on",
        "time": 0,
        "note": 55,
        "velocity": 0,
        "channel": 1
      },
      {
        "type": "note_on",
        "time": 0,
        "note": 55,
        "velocity": 100,
        "channel": 1
      },
      {
        "type": "note_on",
        "time": 0,
        "note": 48,
        "velocity": 104,
        "channel": 1
      },
      {
        "type": "note_on",
        "time": 30,
        "note": 48,
        "velocity": 0,
        "channel": 1
      },
      {
        "type": "note_on",
        "time": 0,
        "note": 55,
        "velocity": 0,
        "channel": 1
      },
      {
        "type": "note_on",
        "time": 0,
        "note": 59,
        "velocity": 100,
        "channel": 1
      },
      {
        "type": "note_on",
        "time": 0,
        "note": 52,
        "velocity": 100,
        "channel": 1
      },
      {
        "type": "note_on",
        "time": 30,
        "note": 52,
        "velocity": 0,
        "channel": 1
      },
      {
        "type": "note_on",
        "time": 0,
        "note": 59,
        "velocity": 0,
        "channel": 1
      },
      {
        "type": "note_on",
        "time": 0,
        "note": 59,
        "velocity": 101,
        "channel": 1
      },
      {
        "type": "note_on",
        "time": 0,
        "note": 52,
        "velocity": 101,
        "channel": 1
      },
      {
        "type": "note_on",
        "time": 30,
        "note": 52,
        "velocity": 0,
        "channel": 1
      },
      {
        "type": "note_on",
        "time": 0,
        "note": 59,
        "velocity": 0,
        "channel": 1
      },
      {
        "type": "note_on",
        "time": 0,
        "note": 59,
        "velocity": 102,
        "channel": 1
      },
      {
        "type": "note_on",
        "time": 0,
        "note": 62,
        "velocity": 102,
        "channel": 1
      },
      {
        "type": "note_on",
        "time": 45,
        "note": 62,
        "velocity": 0,
        "channel": 1
      },
      {
        "type": "note_on",
        "time": 0,
        "note": 59,
        "velocity": 0,
        "channel": 1
      },
      {
        "type": "note_on",
        "time": 15,
        "note": 59,
        "velocity": 103,
        "channel": 1
      },
      {
        "type": "note_on",
        "time": 0,
        "note": 64,
        "velocity": 103,
        "channel": 1
      },
      {
        "type": "note_on",
        "time": 45,
        "note": 64,
        "velocity": 0,
        "channel": 1
      },
      {
        "type": "note_on",
        "time": 0,
        "note": 59,
        "velocity": 0,
        "channel": 1
      },
      {
        "type": "note_on",
        "time": 15,
        "note": 59,
        "velocity": 102,
        "channel": 1
      },
      {
        "type": "note_on",
        "time": 0,
        "note": 52,
        "velocity": 102,
        "channel": 1
      },
      {
        "type": "note_on",
        "time": 30,
        "note": 52,
        "velocity": 0,
        "channel": 1
      },
      {
        "type": "note_on",
        "time": 0,
        "note": 59,
        "velocity": 0,
        "channel": 1
      },
      {
        "type": "note_on",
        "time": 0,
        "note": 59,
        "velocity": 102,
        "channel": 1
      },
      {
        "type": "note_on",
        "time": 0,
        "note": 52,
        "velocity": 102,
        "channel": 1
      },
      {
        "type": "note_on",
        "time": 30,
        "note": 52,
        "velocity": 0,
        "channel": 1
      },
      {
        "type": "note_on",
        "time": 0,
        "note": 59,
        "velocity": 0,
        "channel": 1
      },
      {
        "type": "note_on",
        "time": 0,
        "note": 59,
        "velocity": 101,
        "channel": 1
      },
      {
        "type": "note_on",
        "time": 0,
        "note": 52,
        "velocity": 101,
        "channel": 1
      },
      {
        "type": "note_on",
        "time": 30,
        "note": 52,
        "velocity": 0,
        "channel": 1
      },
      {
        "type": "note_on",
        "time": 0,
        "note": 59,
        "velocity": 0,
        "channel": 1
      },
      {
        "type": "note_on",
        "time": 0,
        "note": 59,
        "velocity": 98,
        "channel": 1
      },
      {
        "type": "note_on",
        "time": 0,
        "note": 62,
        "velocity": 98,
        "channel": 1
      },
      {
        "type": "note_on",
        "time": 0,
        "note": 52,
        "velocity": 98,
        "channel": 1
      },
      {
        "type": "note_on",
        "time": 45,
        "note": 52,
        "velocity": 0,
        "channel": 1
      },
      {
        "type": "note_on",
        "time": 0,
        "note": 62,
        "velocity": 0,
        "channel": 1
      },
      {
        "type": "note_on",
        "time": 0,
        "note": 59,
        "velocity": 0,
        "channel": 1
      },
      {
        "type": "note_on",
        "time": 15,
        "note": 59,
        "velocity": 98,
        "channel": 1
      },
      {
        "type": "note_on",
        "time": 0,
        "note": 64,
        "velocity": 98,
        "channel": 1
      },
      {
        "type": "note_on",
        "time": 0,
        "note": 52,
        "velocity": 98,
        "channel": 1
      },
      {
        "type": "note_on",
        "time": 45,
        "note": 52,
        "velocity": 0,
        "channel": 1
      },
      {
        "type": "note_on",
        "time": 0,
        "note": 64,
        "velocity": 0,
        "channel": 1
      },
      {
        "type": "note_on",
        "time": 0,
        "note": 59,
        "velocity": 0,
        "channel": 1
      },
      {
        "type": "note_on",
        "time": 15,
        "note": 59,
        "velocity": 101,
        "channel": 1
      },
      {
        "type": "note_on",
        "time": 0,
        "note": 52,
        "velocity": 101,
        "channel": 1
      },
      {
        "type": "note_on",
        "time": 30,
        "note": 52,
        "velocity": 0,
        "channel": 1
      },
      {
        "type": "note_on",
        "time": 0,
        "note": 59,
        "velocity": 0,
        "channel": 1
      },
      {
        "type": "note_on",
        "time": 0,
        "note": 59,
        "velocity": 101,
        "channel": 1
      },
      {
        "type": "note_on",
        "time": 0,
        "note": 52,
        "velocity": 101,
        "channel": 1
      },
      {
        "type": "note_on",
        "time": 30,
        "note": 52,
        "velocity": 0,
        "channel": 1
      },
      {
        "type": "note_on",
        "time": 0,
        "note": 59,
        "velocity": 0,
        "channel": 1
      },
      {
        "type": "note_on",
        "time": 0,
        "note": 59,
        "velocity": 101,
        "channel": 1
      },
      {
        "type": "note_on",
        "time": 0,
        "note": 52,
        "velocity": 101,
        "channel": 1
      },
      {
        "type": "note_on",
        "time": 30,
        "note": 52,
        "velocity": 0,
        "channel": 1
      },
      {
        "type": "note_on",
        "time": 0,
        "note": 59,
        "velocity": 0,
        "channel": 1
      },
      {
        "type": "note_on",
        "time": 0,
        "note": 57,
        "velocity": 101,
        "channel": 1
      },
      {
        "type": "note_on",
        "time": 0,
        "note": 50,
        "velocity": 101,
        "channel": 1
      },
      {
        "type": "note_on",
        "time": 30,
        "note": 50,
        "velocity": 0,
        "channel": 1
      },
      {
        "type": "note_on",
        "time": 0,
        "note": 57,
        "velocity": 0,
        "channel": 1
      },
      {
        "type": "note_on",
        "time": 0,
        "note": 57,
        "velocity": 101,
        "channel": 1
      },
      {
        "type": "note_on",
        "time": 0,
        "note": 50,
        "velocity": 101,
        "channel": 1
      },
      {
        "type": "note_on",
        "time": 30,
        "note": 50,
        "velocity": 0,
        "channel": 1
      },
      {
        "type": "note_on",
        "time": 0,
        "note": 57,
        "velocity": 0,
        "channel": 1
      },
      {
        "type": "note_on",
        "time": 0,
        "note": 57,
        "velocity": 101,
        "channel": 1
      },
      {
        "type": "note_on",
        "time": 0,
        "note": 62,
        "velocity": 101,
        "channel": 1
      },
      {
        "type": "note_on",
        "time": 45,
        "note": 62,
        "velocity": 0,
        "channel": 1
      },
      {
        "type": "note_on",
        "time": 0,
        "note": 57,
        "velocity": 0,
        "channel": 1
      },
      {
        "type": "note_on",
        "time": 15,
        "note": 62,
        "velocity": 101,
        "channel": 1
      },
      {
        "type": "note_on",
        "time": 0,
        "note": 64,
        "velocity": 100,
        "channel": 1
      },
      {
        "type": "note_on",
        "time": 45,
        "note": 64,
        "velocity": 0,
        "channel": 1
      },
      {
        "type": "note_on",
        "time": 0,
        "note": 62,
        "velocity": 0,
        "channel": 1
      },
      {
        "type": "note_on",
        "time": 15,
        "note": 57,
        "velocity": 100,
        "channel": 1
      },
      {
        "type": "note_on",
        "time": 0,
        "note": 50,
        "velocity": 100,
        "channel": 1
      },
      {
        "type": "note_on",
        "time": 30,
        "note": 50,
        "velocity": 0,
        "channel": 1
      },
      {
        "type": "note_on",
        "time": 0,
        "note": 57,
        "velocity": 0,
        "channel": 1
      },
      {
        "type": "note_on",
        "time": 0,
        "note": 57,
        "velocity": 100,
        "channel": 1
      },
      {
        "type": "note_on",
        "time": 0,
        "note": 50,
        "velocity": 100,
        "channel": 1
      },
      {
        "type": "note_on",
        "time": 30,
        "note": 50,
        "velocity": 0,
        "channel": 1
      },
      {
        "type": "note_on",
        "time": 0,
        "note": 57,
        "velocity": 0,
        "channel": 1
      },
      {
        "type": "note_on",
        "time": 0,
        "note": 57,
        "velocity": 100,
        "channel": 1
      },
      {
        "type": "note_on",
        "time": 0,
        "note": 50,
        "velocity": 100,
        "channel": 1
      },
      {
        "type": "note_on",
        "time": 30,
        "note": 50,
        "velocity": 0,
        "channel": 1
      },
      {
        "type": "note_on",
        "time": 0,
        "note": 57,
        "velocity": 0,
        "channel": 1
      },
      {
        "type": "note_on",
        "time": 0,
        "note": 57,
        "velocity": 101,
        "channel": 1
      },
      {
        "type": "note_on",
        "time": 0,
        "note": 62,
        "velocity": 100,
        "channel": 1
      },
      {
        "type": "note_on",
        "time": 45,
        "note": 62,
        "velocity": 0,
        "channel": 1
      },
      {
        "type": "note_on",
        "time": 0,
        "note": 57,
        "velocity": 0,
        "channel": 1
      },
      {
        "type": "note_on",
        "time": 15,
        "note": 62,
        "velocity": 101,
        "channel": 1
      },
      {
        "type": "note_on",
        "time": 0,
        "note": 64,
        "velocity": 100,
        "channel": 1
      },
      {
        "type": "note_on",
        "time": 45,
        "note": 64,
        "velocity": 0,
        "channel": 1
      },
      {
        "type": "note_on",
        "time": 0,
        "note": 62,
        "velocity": 0,
        "channel": 1
      },
      {
        "type": "note_on",
        "time": 15,
        "note": 57,
        "velocity": 100,
        "channel": 1
      },
      {
        "type": "note_on",
        "time": 0,
        "note": 50,
        "velocity": 100,
        "channel": 1
      },
      {
        "type": "note_on",
        "time": 30,
        "note": 50,
        "velocity": 0,
        "channel": 1
      },
      {
        "type": "note_on",
        "time": 0,
        "note": 57,
        "velocity": 0,
        "channel": 1
      },
      {
        "type": "note_on",
        "time": 0,
        "note": 57,
        "velocity": 100,
        "channel": 1
      },
      {
        "type": "note_on",
        "time": 0,
        "note": 50,
        "velocity": 100,
        "channel": 1
      },
      {
        "type": "note_on",
        "time": 30,
        "note": 50,
        "velocity": 0,
        "channel": 1
      },
      {
        "type": "note_on",
        "time": 0,
        "note": 57,
        "velocity": 0,
        "channel": 1
      },
      {
        "type": "note_on",
        "time": 0,
        "note": 57,
        "velocity": 100,
        "channel": 1
      },
      {
        "type": "note_on",
        "time": 0,
        "note": 50,
        "velocity": 100,
        "channel": 1
      },
      {
        "type": "note_on",
        "time": 30,
        "note": 50,
        "velocity": 0,
        "channel": 1
      },
      {
        "type": "note_on",
        "time": 0,
        "note": 57,
        "velocity": 0,
        "channel": 1
      },
      {
        "type": "note_on",
        "time": 0,
        "note": 54,
        "velocity": 100,
        "channel": 1
      },
      {
        "type": "note_on",
        "time": 0,
        "note": 47,
        "velocity": 100,
        "channel": 1
      },
      {
        "type": "note_on",
        "time": 30,
        "note": 47,
        "velocity": 0,
        "channel": 1
      },
      {
        "type": "note_on",
        "time": 0,
        "note": 54,
        "velocity": 0,
        "channel": 1
      },
      {
        "type": "note_on",
        "time": 0,
        "note": 54,
        "velocity": 100,
        "channel": 1
      },
      {
        "type": "note_on",
        "time": 0,
        "note": 47,
        "velocity": 100,
        "channel": 1
      },
      {
        "type": "note_on",
        "time": 30,
        "note": 47,
        "velocity": 0,
        "channel": 1
      },
      {
        "type": "note_on",
        "time": 0,
        "note": 54,
        "velocity": 0,
        "channel": 1
      },
      {
        "type": "note_on",
        "time": 0,
        "note": 62,
        "velocity": 101,
        "channel": 1
      },
      {
        "type": "note_on",
        "time": 0,
        "note": 54,
        "velocity": 101,
        "channel": 1
      },
      {
        "type": "note_on",
        "time": 45,
        "note": 54,
        "velocity": 0,
        "channel": 1
      },
      {
        "type": "note_on",
        "time": 0,
        "note": 62,
        "velocity": 0,
        "channel": 1
      },
      {
        "type": "note_on",
        "time": 15,
        "note": 59,
        "velocity": 101,
        "channel": 1
      },
      {
        "type": "note_on",
        "time": 0,
        "note": 64,
        "velocity": 101,
        "channel": 1
      },
      {
        "type": "note_on",
        "time": 45,
        "note": 64,
        "velocity": 0,
        "channel": 1
      },
      {
        "type": "note_on",
        "time": 0,
        "note": 59,
        "velocity": 0,
        "channel": 1
      },
      {
        "type": "note_on",
        "time": 15,
        "note": 54,
        "velocity": 101,
        "channel": 1
      },
      {
        "type": "note_on",
        "time": 0,
        "note": 47,
        "velocity": 101,
        "channel": 1
      },
      {
        "type": "note_on",
        "time": 30,
        "note": 47,
        "velocity": 0,
        "channel": 1
      },
      {
        "type": "note_on",
        "time": 0,
        "note": 54,
        "velocity": 0,
        "channel": 1
      },
      {
        "type": "note_on",
        "time": 0,
        "note": 54,
        "velocity": 102,
        "channel": 1
      },
      {
        "type": "note_on",
        "time": 0,
        "note": 47,
        "velocity": 102,
        "channel": 1
      },
      {
        "type": "note_on",
        "time": 30,
        "note": 47,
        "velocity": 0,
        "channel": 1
      },
      {
        "type": "note_on",
        "time": 0,
        "note": 54,
        "velocity": 0,
        "channel": 1
      },
      {
        "type": "note_on",
        "time": 0,
        "note": 47,
        "velocity": 103,
        "channel": 1
      },
      {
        "type": "note_on",
        "time": 0,
        "note": 54,
        "velocity": 103,
        "channel": 1
      },
      {
        "type": "note_on",
        "time": 30,
        "note": 54,
        "velocity": 0,
        "channel": 1
      },
      {
        "type": "note_on",
        "time": 0,
        "note": 47,
        "velocity": 0,
        "channel": 1
      },
      {
        "type": "note_on",
        "time": 0,
        "note": 54,
        "velocity": 101,
        "channel": 1
      },
      {
        "type": "note_on",
        "time": 0,
        "note": 62,
        "velocity": 104,
        "channel": 1
      },
      {
        "type": "note_on",
        "time": 45,
        "note": 62,
        "velocity": 0,
        "channel": 1
      },
      {
        "type": "note_on",
        "time": 0,
        "note": 54,
        "velocity": 0,
        "channel": 1
      },
      {
        "type": "note_on",
        "time": 15,
        "note": 59,
        "velocity": 101,
        "channel": 1
      },
      {
        "type": "note_on",
        "time": 0,
        "note": 64,
        "velocity": 105,
        "channel": 1
      },
      {
        "type": "note_on",
        "time": 45,
        "note": 64,
        "velocity": 0,
        "channel": 1
      },
      {
        "type": "note_on",
        "time": 0,
        "note": 59,
        "velocity": 0,
        "channel": 1
      },
      {
        "type": "note_on",
        "time": 15,
        "note": 47,
        "velocity": 105,
        "channel": 1
      },
      {
        "type": "note_on",
        "time": 0,
        "note": 54,
        "velocity": 105,
        "channel": 1
      },
      {
        "type": "note_on",
        "time": 30,
        "note": 54,
        "velocity": 0,
        "channel": 1
      },
      {
        "type": "note_on",
        "time": 0,
        "note": 47,
        "velocity": 0,
        "channel": 1
      },
      {
        "type": "note_on",
        "time": 0,
        "note": 54,
        "velocity": 99,
        "channel": 1
      },
      {
        "type": "note_on",
        "time": 0,
        "note": 47,
        "velocity": 99,
        "channel": 1
      },
      {
        "type": "note_on",
        "time": 30,
        "note": 47,
        "velocity": 0,
        "channel": 1
      },
      {
        "type": "note_on",
        "time": 0,
        "note": 54,
        "velocity": 0,
        "channel": 1
      },
      {
        "type": "note_on",
        "time": 0,
        "note": 54,
        "velocity": 99,
        "channel": 1
      },
      {
        "type": "note_on",
        "time": 0,
        "note": 47,
        "velocity": 99,
        "channel": 1
      },
      {
        "type": "note_on",
        "time": 30,
        "note": 47,
        "velocity": 0,
        "channel": 1
      },
      {
        "type": "note_on",
        "time": 0,
        "note": 54,
        "velocity": 0,
        "channel": 1
      },
      {
        "type": "note_on",
        "time": 0,
        "note": 55,
        "velocity": 100,
        "channel": 1
      },
      {
        "type": "note_on",
        "time": 0,
        "note": 48,
        "velocity": 99,
        "channel": 1
      },
      {
        "type": "note_on",
        "time": 30,
        "note": 48,
        "velocity": 0,
        "channel": 1
      },
      {
        "type": "note_on",
        "time": 0,
        "note": 55,
        "velocity": 0,
        "channel": 1
      },
      {
        "type": "note_on",
        "time": 0,
        "note": 55,
        "velocity": 100,
        "channel": 1
      },
      {
        "type": "note_on",
        "time": 0,
        "note": 48,
        "velocity": 99,
        "channel": 1
      },
      {
        "type": "note_on",
        "time": 30,
        "note": 48,
        "velocity": 0,
        "channel": 1
      },
      {
        "type": "note_on",
        "time": 0,
        "note": 55,
        "velocity": 0,
        "channel": 1
      },
      {
        "type": "note_on",
        "time": 0,
        "note": 55,
        "velocity": 101,
        "channel": 1
      },
      {
        "type": "note_on",
        "time": 0,
        "note": 62,
        "velocity": 99,
        "channel": 1
      },
      {
        "type": "note_on",
        "time": 45,
        "note": 62,
        "velocity": 0,
        "channel": 1
      },
      {
        "type": "note_on",
        "time": 0,
        "note": 55,
        "velocity": 0,
        "channel": 1
      },
      {
        "type": "note_on",
        "time": 15,
        "note": 60,
        "velocity": 101,
        "channel": 1
      },
      {
        "type": "note_on",
        "time": 0,
        "note": 64,
        "velocity": 99,
        "channel": 1
      },
      {
        "type": "note_on",
        "time": 45,
        "note": 64,
        "velocity": 0,
        "channel": 1
      },
      {
        "type": "note_on",
        "time": 0,
        "note": 60,
        "velocity": 0,
        "channel": 1
      },
      {
        "type": "note_on",
        "time": 15,
        "note": 55,
        "velocity": 100,
        "channel": 1
      },
      {
        "type": "note_on",
        "time": 0,
        "note": 48,
        "velocity": 99,
        "channel": 1
      },
      {
        "type": "note_on",
        "time": 30,
        "note": 48,
        "velocity": 0,
        "channel": 1
      },
      {
        "type": "note_on",
        "time": 0,
        "note": 55,
        "velocity": 0,
        "channel": 1
      },
      {
        "type": "note_on",
        "time": 0,
        "note": 55,
        "velocity": 100,
        "channel": 1
      },
      {
        "type": "note_on",
        "time": 0,
        "note": 48,
        "velocity": 99,
        "channel": 1
      },
      {
        "type": "note_on",
        "time": 30,
        "note": 48,
        "velocity": 0,
        "channel": 1
      },
      {
        "type": "note_on",
        "time": 0,
        "note": 55,
        "velocity": 0,
        "channel": 1
      },
      {
        "type": "note_on",
        "time": 0,
        "note": 55,
        "velocity": 100,
        "channel": 1
      },
      {
        "type": "note_on",
        "time": 0,
        "note": 48,
        "velocity": 100,
        "channel": 1
      },
      {
        "type": "note_on",
        "time": 30,
        "note": 48,
        "velocity": 0,
        "channel": 1
      },
      {
        "type": "note_on",
        "time": 0,
        "note": 55,
        "velocity": 0,
        "channel": 1
      },
      {
        "type": "note_on",
        "time": 0,
        "note": 55,
        "velocity": 101,
        "channel": 1
      },
      {
        "type": "note_on",
        "time": 0,
        "note": 62,
        "velocity": 100,
        "channel": 1
      },
      {
        "type": "note_on",
        "time": 45,
        "note": 62,
        "velocity": 0,
        "channel": 1
      },
      {
        "type": "note_on",
        "time": 0,
        "note": 55,
        "velocity": 0,
        "channel": 1
      },
      {
        "type": "note_on",
        "time": 15,
        "note": 60,
        "velocity": 101,
        "channel": 1
      },
      {
        "type": "note_on",
        "time": 0,
        "note": 64,
        "velocity": 102,
        "channel": 1
      },
      {
        "type": "note_on",
        "time": 45,
        "note": 64,
        "velocity": 0,
        "channel": 1
      },
      {
        "type": "note_on",
        "time": 0,
        "note": 60,
        "velocity": 0,
        "channel": 1
      },
      {
        "type": "note_on",
        "time": 15,
        "note": 55,
        "velocity": 100,
        "channel": 1
      },
      {
        "type": "note_on",
        "time": 0,
        "note": 48,
        "velocity": 103,
        "channel": 1
      },
      {
        "type": "note_on",
        "time": 30,
        "note": 48,
        "velocity": 0,
        "channel": 1
      },
      {
        "type": "note_on",
        "time": 0,
        "note": 55,
        "velocity": 0,
        "channel": 1
      },
      {
        "type": "note_on",
        "time": 0,
        "note": 55,
        "velocity": 100,
        "channel": 1
      },
      {
        "type": "note_on",
        "time": 0,
        "note": 48,
        "velocity": 103,
        "channel": 1
      },
      {
        "type": "note_on",
        "time": 30,
        "note": 48,
        "velocity": 0,
        "channel": 1
      },
      {
        "type": "note_on",
        "time": 0,
        "note": 55,
        "velocity": 0,
        "channel": 1
      },
      {
        "type": "note_on",
        "time": 0,
        "note": 55,
        "velocity": 100,
        "channel": 1
      },
      {
        "type": "note_on",
        "time": 0,
        "note": 48,
        "velocity": 104,
        "channel": 1
      },
      {
        "type": "note_on",
        "time": 30,
        "note": 48,
        "velocity": 0,
        "channel": 1
      },
      {
        "type": "note_on",
        "time": 0,
        "note": 55,
        "velocity": 0,
        "channel": 1
      },
      {
        "type": "note_on",
        "time": 0,
        "note": 59,
        "velocity": 100,
        "channel": 1
      },
      {
        "type": "note_on",
        "time": 0,
        "note": 52,
        "velocity": 100,
        "channel": 1
      },
      {
        "type": "note_on",
        "time": 30,
        "note": 52,
        "velocity": 0,
        "channel": 1
      },
      {
        "type": "note_on",
        "time": 0,
        "note": 59,
        "velocity": 0,
        "channel": 1
      },
      {
        "type": "note_on",
        "time": 0,
        "note": 59,
        "velocity": 101,
        "channel": 1
      },
      {
        "type": "note_on",
        "time": 0,
        "note": 52,
        "velocity": 101,
        "channel": 1
      },
      {
        "type": "note_on",
        "time": 30,
        "note": 52,
        "velocity": 0,
        "channel": 1
      },
      {
        "type": "note_on",
        "time": 0,
        "note": 59,
        "velocity": 0,
        "channel": 1
      },
      {
        "type": "note_on",
        "time": 0,
        "note": 59,
        "velocity": 102,
        "channel": 1
      },
      {
        "type": "note_on",
        "time": 0,
        "note": 62,
        "velocity": 102,
        "channel": 1
      },
      {
        "type": "note_on",
        "time": 45,
        "note": 62,
        "velocity": 0,
        "channel": 1
      },
      {
        "type": "note_on",
        "time": 0,
        "note": 59,
        "velocity": 0,
        "channel": 1
      },
      {
        "type": "note_on",
        "time": 15,
        "note": 59,
        "velocity": 103,
        "channel": 1
      },
      {
        "type": "note_on",
        "time": 0,
        "note": 64,
        "velocity": 103,
        "channel": 1
      },
      {
        "type": "note_on",
        "time": 45,
        "note": 64,
        "velocity": 0,
        "channel": 1
      },
      {
        "type": "note_on",
        "time": 0,
        "note": 59,
        "velocity": 0,
        "channel": 1
      },
      {
        "type": "note_on",
        "time": 15,
        "note": 59,
        "velocity": 102,
        "channel": 1
      },
      {
        "type": "note_on",
        "time": 0,
        "note": 52,
        "velocity": 102,
        "channel": 1
      },
      {
        "type": "note_on",
        "time": 30,
        "note": 52,
        "velocity": 0,
        "channel": 1
      },
      {
        "type": "note_on",
        "time": 0,
        "note": 59,
        "velocity": 0,
        "channel": 1
      },
      {
        "type": "note_on",
        "time": 0,
        "note": 59,
        "velocity": 102,
        "channel": 1
      },
      {
        "type": "note_on",
        "time": 0,
        "note": 52,
        "velocity": 102,
        "channel": 1
      },
      {
        "type": "note_on",
        "time": 30,
        "note": 52,
        "velocity": 0,
        "channel": 1
      },
      {
        "type": "note_on",
        "time": 0,
        "note": 59,
        "velocity": 0,
        "channel": 1
      },
      {
        "type": "note_on",
        "time": 0,
        "note": 59,
        "velocity": 101,
        "channel": 1
      },
      {
        "type": "note_on",
        "time": 0,
        "note": 52,
        "velocity": 101,
        "channel": 1
      },
      {
        "type": "note_on",
        "time": 30,
        "note": 52,
        "velocity": 0,
        "channel": 1
      },
      {
        "type": "note_on",
        "time": 0,
        "note": 59,
        "velocity": 0,
        "channel": 1
      },
      {
        "type": "note_on",
        "time": 0,
        "note": 59,
        "velocity": 98,
        "channel": 1
      },
      {
        "type": "note_on",
        "time": 0,
        "note": 62,
        "velocity": 98,
        "channel": 1
      },
      {
        "type": "note_on",
        "time": 0,
        "note": 52,
        "velocity": 98,
        "channel": 1
      },
      {
        "type": "note_on",
        "time": 45,
        "note": 52,
        "velocity": 0,
        "channel": 1
      },
      {
        "type": "note_on",
        "time": 0,
        "note": 62,
        "velocity": 0,
        "channel": 1
      },
      {
        "type": "note_on",
        "time": 0,
        "note": 59,
        "velocity": 0,
        "channel": 1
      },
      {
        "type": "note_on",
        "time": 15,
        "note": 59,
        "velocity": 98,
        "channel": 1
      },
      {
        "type": "note_on",
        "time": 0,
        "note": 64,
        "velocity": 98,
        "channel": 1
      },
      {
        "type": "note_on",
        "time": 0,
        "note": 52,
        "velocity": 98,
        "channel": 1
      },
      {
        "type": "note_on",
        "time": 45,
        "note": 52,
        "velocity": 0,
        "channel": 1
      },
      {
        "type": "note_on",
        "time": 0,
        "note": 64,
        "velocity": 0,
        "channel": 1
      },
      {
        "type": "note_on",
        "time": 0,
        "note": 59,
        "velocity": 0,
        "channel": 1
      },
      {
        "type": "note_on",
        "time": 15,
        "note": 59,
        "velocity": 101,
        "channel": 1
      },
      {
        "type": "note_on",
        "time": 0,
        "note": 52,
        "velocity": 101,
        "channel": 1
      },
      {
        "type": "note_on",
        "time": 30,
        "note": 52,
        "velocity": 0,
        "channel": 1
      },
      {
        "type": "note_on",
        "time": 0,
        "note": 59,
        "velocity": 0,
        "channel": 1
      },
      {
        "type": "note_on",
        "time": 0,
        "note": 59,
        "velocity": 101,
        "channel": 1
      },
      {
        "type": "note_on",
        "time": 0,
        "note": 52,
        "velocity": 101,
        "channel": 1
      },
      {
        "type": "note_on",
        "time": 30,
        "note": 52,
        "velocity": 0,
        "channel": 1
      },
      {
        "type": "note_on",
        "time": 0,
        "note": 59,
        "velocity": 0,
        "channel": 1
      },
      {
        "type": "note_on",
        "time": 0,
        "note": 59,
        "velocity": 101,
        "channel": 1
      },
      {
        "type": "note_on",
        "time": 0,
        "note": 52,
        "velocity": 101,
        "channel": 1
      },
      {
        "type": "note_on",
        "time": 30,
        "note": 52,
        "velocity": 0,
        "channel": 1
      },
      {
        "type": "note_on",
        "time": 0,
        "note": 59,
        "velocity": 0,
        "channel": 1
      },
      {
        "type": "note_on",
        "time": 0,
        "note": 57,
        "velocity": 101,
        "channel": 1
      },
      {
        "type": "note_on",
        "time": 0,
        "note": 50,
        "velocity": 101,
        "channel": 1
      },
      {
        "type": "note_on",
        "time": 30,
        "note": 50,
        "velocity": 0,
        "channel": 1
      },
      {
        "type": "note_on",
        "time": 0,
        "note": 57,
        "velocity": 0,
        "channel": 1
      },
      {
        "type": "note_on",
        "time": 0,
        "note": 57,
        "velocity": 101,
        "channel": 1
      },
      {
        "type": "note_on",
        "time": 0,
        "note": 50,
        "velocity": 101,
        "channel": 1
      },
      {
        "type": "note_on",
        "time": 30,
        "note": 50,
        "velocity": 0,
        "channel": 1
      },
      {
        "type": "note_on",
        "time": 0,
        "note": 57,
        "velocity": 0,
        "channel": 1
      },
      {
        "type": "note_on",
        "time": 0,
        "note": 57,
        "velocity": 101,
        "channel": 1
      },
      {
        "type": "note_on",
        "time": 0,
        "note": 62,
        "velocity": 101,
        "channel": 1
      },
      {
        "type": "note_on",
        "time": 45,
        "note": 62,
        "velocity": 0,
        "channel": 1
      },
      {
        "type": "note_on",
        "time": 0,
        "note": 57,
        "velocity": 0,
        "channel": 1
      },
      {
        "type": "note_on",
        "time": 15,
        "note": 62,
        "velocity": 101,
        "channel": 1
      },
      {
        "type": "note_on",
        "time": 0,
        "note": 64,
        "velocity": 100,
        "channel": 1
      },
      {
        "type": "note_on",
        "time": 45,
        "note": 64,
        "velocity": 0,
        "channel": 1
      },
      {
        "type": "note_on",
        "time": 0,
        "note": 62,
        "velocity": 0,
        "channel": 1
      },
      {
        "type": "note_on",
        "time": 15,
        "note": 57,
        "velocity": 100,
        "channel": 1
      },
      {
        "type": "note_on",
        "time": 0,
        "note": 50,
        "velocity": 100,
        "channel": 1
      },
      {
        "type": "note_on",
        "time": 30,
        "note": 50,
        "velocity": 0,
        "channel": 1
      },
      {
        "type": "note_on",
        "time": 0,
        "note": 57,
        "velocity": 0,
        "channel": 1
      },
      {
        "type": "note_on",
        "time": 0,
        "note": 57,
        "velocity": 100,
        "channel": 1
      },
      {
        "type": "note_on",
        "time": 0,
        "note": 50,
        "velocity": 100,
        "channel": 1
      },
      {
        "type": "note_on",
        "time": 30,
        "note": 50,
        "velocity": 0,
        "channel": 1
      },
      {
        "type": "note_on",
        "time": 0,
        "note": 57,
        "velocity": 0,
        "channel": 1
      },
      {
        "type": "note_on",
        "time": 0,
        "note": 57,
        "velocity": 100,
        "channel": 1
      },
      {
        "type": "note_on",
        "time": 0,
        "note": 50,
        "velocity": 100,
        "channel": 1
      },
      {
        "type": "note_on",
        "time": 30,
        "note": 50,
        "velocity": 0,
        "channel": 1
      },
      {
        "type": "note_on",
        "time": 0,
        "note": 57,
        "velocity": 0,
        "channel": 1
      },
      {
        "type": "note_on",
        "time": 0,
        "note": 57,
        "velocity": 101,
        "channel": 1
      },
      {
        "type": "note_on",
        "time": 0,
        "note": 62,
        "velocity": 100,
        "channel": 1
      },
      {
        "type": "note_on",
        "time": 45,
        "note": 62,
        "velocity": 0,
        "channel": 1
      },
      {
        "type": "note_on",
        "time": 0,
        "note": 57,
        "velocity": 0,
        "channel": 1
      },
      {
        "type": "note_on",
        "time": 15,
        "note": 62,
        "velocity": 101,
        "channel": 1
      },
      {
        "type": "note_on",
        "time": 0,
        "note": 64,
        "velocity": 100,
        "channel": 1
      },
      {
        "type": "note_on",
        "time": 45,
        "note": 64,
        "velocity": 0,
        "channel": 1
      },
      {
        "type": "note_on",
        "time": 0,
        "note": 62,
        "velocity": 0,
        "channel": 1
      },
      {
        "type": "note_on",
        "time": 15,
        "note": 57,
        "velocity": 100,
        "channel": 1
      },
      {
        "type": "note_on",
        "time": 0,
        "note": 50,
        "velocity": 100,
        "channel": 1
      },
      {
        "type": "note_on",
        "time": 30,
        "note": 50,
        "velocity": 0,
        "channel": 1
      },
      {
        "type": "note_on",
        "time": 0,
        "note": 57,
        "velocity": 0,
        "channel": 1
      },
      {
        "type": "note_on",
        "time": 0,
        "note": 57,
        "velocity": 100,
        "channel": 1
      },
      {
        "type": "note_on",
        "time": 0,
        "note": 50,
        "velocity": 100,
        "channel": 1
      },
      {
        "type": "note_on",
        "time": 30,
        "note": 50,
        "velocity": 0,
        "channel": 1
      },
      {
        "type": "note_on",
        "time": 0,
        "note": 57,
        "velocity": 0,
        "channel": 1
      },
      {
        "type": "note_on",
        "time": 0,
        "note": 57,
        "velocity": 100,
        "channel": 1
      },
      {
        "type": "note_on",
        "time": 0,
        "note": 50,
        "velocity": 100,
        "channel": 1
      },
      {
        "type": "note_on",
        "time": 30,
        "note": 50,
        "velocity": 0,
        "channel": 1
      },
      {
        "type": "note_on",
        "time": 0,
        "note": 57,
        "velocity": 0,
        "channel": 1
      },
      {
        "type": "note_on",
        "time": 0,
        "note": 54,
        "velocity": 100,
        "channel": 1
      },
      {
        "type": "note_on",
        "time": 0,
        "note": 47,
        "velocity": 100,
        "channel": 1
      },
      {
        "type": "note_on",
        "time": 30,
        "note": 47,
        "velocity": 0,
        "channel": 1
      },
      {
        "type": "note_on",
        "time": 0,
        "note": 54,
        "velocity": 0,
        "channel": 1
      },
      {
        "type": "note_on",
        "time": 0,
        "note": 54,
        "velocity": 100,
        "channel": 1
      },
      {
        "type": "note_on",
        "time": 0,
        "note": 47,
        "velocity": 100,
        "channel": 1
      },
      {
        "type": "note_on",
        "time": 30,
        "note": 47,
        "velocity": 0,
        "channel": 1
      },
      {
        "type": "note_on",
        "time": 0,
        "note": 54,
        "velocity": 0,
        "channel": 1
      },
      {
        "type": "note_on",
        "time": 0,
        "note": 62,
        "velocity": 101,
        "channel": 1
      },
      {
        "type": "note_on",
        "time": 0,
        "note": 54,
        "velocity": 101,
        "channel": 1
      },
      {
        "type": "note_on",
        "time": 45,
        "note": 54,
        "velocity": 0,
        "channel": 1
      },
      {
        "type": "note_on",
        "time": 0,
        "note": 62,
        "velocity": 0,
        "channel": 1
      },
      {
        "type": "note_on",
        "time": 15,
        "note": 59,
        "velocity": 101,
        "channel": 1
      },
      {
        "type": "note_on",
        "time": 0,
        "note": 64,
        "velocity": 101,
        "channel": 1
      },
      {
        "type": "note_on",
        "time": 45,
        "note": 64,
        "velocity": 0,
        "channel": 1
      },
      {
        "type": "note_on",
        "time": 0,
        "note": 59,
        "velocity": 0,
        "channel": 1
      },
      {
        "type": "note_on",
        "time": 15,
        "note": 54,
        "velocity": 101,
        "channel": 1
      },
      {
        "type": "note_on",
        "time": 0,
        "note": 47,
        "velocity": 101,
        "channel": 1
      },
      {
        "type": "note_on",
        "time": 30,
        "note": 47,
        "velocity": 0,
        "channel": 1
      },
      {
        "type": "note_on",
        "time": 0,
        "note": 54,
        "velocity": 0,
        "channel": 1
      },
      {
        "type": "note_on",
        "time": 0,
        "note": 54,
        "velocity": 102,
        "channel": 1
      },
      {
        "type": "note_on",
        "time": 0,
        "note": 47,
        "velocity": 102,
        "channel": 1
      },
      {
        "type": "note_on",
        "time": 30,
        "note": 47,
        "velocity": 0,
        "channel": 1
      },
      {
        "type": "note_on",
        "time": 0,
        "note": 54,
        "velocity": 0,
        "channel": 1
      },
      {
        "type": "note_on",
        "time": 0,
        "note": 47,
        "velocity": 103,
        "channel": 1
      },
      {
        "type": "note_on",
        "time": 0,
        "note": 54,
        "velocity": 103,
        "channel": 1
      },
      {
        "type": "note_on",
        "time": 30,
        "note": 54,
        "velocity": 0,
        "channel": 1
      },
      {
        "type": "note_on",
        "time": 0,
        "note": 47,
        "velocity": 0,
        "channel": 1
      },
      {
        "type": "note_on",
        "time": 0,
        "note": 54,
        "velocity": 101,
        "channel": 1
      },
      {
        "type": "note_on",
        "time": 0,
        "note": 62,
        "velocity": 104,
        "channel": 1
      },
      {
        "type": "note_on",
        "time": 45,
        "note": 62,
        "velocity": 0,
        "channel": 1
      },
      {
        "type": "note_on",
        "time": 0,
        "note": 54,
        "velocity": 0,
        "channel": 1
      },
      {
        "type": "note_on",
        "time": 15,
        "note": 59,
        "velocity": 101,
        "channel": 1
      },
      {
        "type": "note_on",
        "time": 0,
        "note": 64,
        "velocity": 105,
        "channel": 1
      },
      {
        "type": "note_on",
        "time": 45,
        "note": 64,
        "velocity": 0,
        "channel": 1
      },
      {
        "type": "note_on",
        "time": 0,
        "note": 59,
        "velocity": 0,
        "channel": 1
      },
      {
        "type": "note_on",
        "time": 15,
        "note": 47,
        "velocity": 105,
        "channel": 1
      },
      {
        "type": "note_on",
        "time": 0,
        "note": 54,
        "velocity": 105,
        "channel": 1
      },
      {
        "type": "note_on",
        "time": 30,
        "note": 54,
        "velocity": 0,
        "channel": 1
      },
      {
        "type": "note_on",
        "time": 0,
        "note": 47,
        "velocity": 0,
        "channel": 1
      },
      {
        "type": "note_on",
        "time": 0,
        "note": 54,
        "velocity": 99,
        "channel": 1
      },
      {
        "type": "note_on",
        "time": 0,
        "note": 47,
        "velocity": 99,
        "channel": 1
      },
      {
        "type": "note_on",
        "time": 30,
        "note": 47,
        "velocity": 0,
        "channel": 1
      },
      {
        "type": "note_on",
        "time": 0,
        "note": 54,
        "velocity": 0,
        "channel": 1
      },
      {
        "type": "note_on",
        "time": 0,
        "note": 54,
        "velocity": 99,
        "channel": 1
      },
      {
        "type": "note_on",
        "time": 0,
        "note": 47,
        "velocity": 99,
        "channel": 1
      },
      {
        "type": "note_on",
        "time": 30,
        "note": 47,
        "velocity": 0,
        "channel": 1
      },
      {
        "type": "note_on",
        "time": 0,
        "note": 54,
        "velocity": 0,
        "channel": 1
      },
      {
        "type": "note_on",
        "time": 0,
        "note": 55,
        "velocity": 100,
        "channel": 1
      },
      {
        "type": "note_on",
        "time": 0,
        "note": 48,
        "velocity": 99,
        "channel": 1
      },
      {
        "type": "note_on",
        "time": 30,
        "note": 48,
        "velocity": 0,
        "channel": 1
      },
      {
        "type": "note_on",
        "time": 0,
        "note": 55,
        "velocity": 0,
        "channel": 1
      },
      {
        "type": "note_on",
        "time": 0,
        "note": 55,
        "velocity": 100,
        "channel": 1
      },
      {
        "type": "note_on",
        "time": 0,
        "note": 48,
        "velocity": 99,
        "channel": 1
      },
      {
        "type": "note_on",
        "time": 30,
        "note": 48,
        "velocity": 0,
        "channel": 1
      },
      {
        "type": "note_on",
        "time": 0,
        "note": 55,
        "velocity": 0,
        "channel": 1
      },
      {
        "type": "note_on",
        "time": 0,
        "note": 55,
        "velocity": 101,
        "channel": 1
      },
      {
        "type": "note_on",
        "time": 0,
        "note": 62,
        "velocity": 99,
        "channel": 1
      },
      {
        "type": "note_on",
        "time": 45,
        "note": 62,
        "velocity": 0,
        "channel": 1
      },
      {
        "type": "note_on",
        "time": 0,
        "note": 55,
        "velocity": 0,
        "channel": 1
      },
      {
        "type": "note_on",
        "time": 15,
        "note": 60,
        "velocity": 101,
        "channel": 1
      },
      {
        "type": "note_on",
        "time": 0,
        "note": 64,
        "velocity": 99,
        "channel": 1
      },
      {
        "type": "note_on",
        "time": 45,
        "note": 64,
        "velocity": 0,
        "channel": 1
      },
      {
        "type": "note_on",
        "time": 0,
        "note": 60,
        "velocity": 0,
        "channel": 1
      },
      {
        "type": "note_on",
        "time": 15,
        "note": 55,
        "velocity": 100,
        "channel": 1
      },
      {
        "type": "note_on",
        "time": 0,
        "note": 48,
        "velocity": 99,
        "channel": 1
      },
      {
        "type": "note_on",
        "time": 30,
        "note": 48,
        "velocity": 0,
        "channel": 1
      },
      {
        "type": "note_on",
        "time": 0,
        "note": 55,
        "velocity": 0,
        "channel": 1
      },
      {
        "type": "note_on",
        "time": 0,
        "note": 55,
        "velocity": 100,
        "channel": 1
      },
      {
        "type": "note_on",
        "time": 0,
        "note": 48,
        "velocity": 99,
        "channel": 1
      },
      {
        "type": "note_on",
        "time": 30,
        "note": 48,
        "velocity": 0,
        "channel": 1
      },
      {
        "type": "note_on",
        "time": 0,
        "note": 55,
        "velocity": 0,
        "channel": 1
      },
      {
        "type": "note_on",
        "time": 0,
        "note": 55,
        "velocity": 100,
        "channel": 1
      },
      {
        "type": "note_on",
        "time": 0,
        "note": 48,
        "velocity": 100,
        "channel": 1
      },
      {
        "type": "note_on",
        "time": 30,
        "note": 48,
        "velocity": 0,
        "channel": 1
      },
      {
        "type": "note_on",
        "time": 0,
        "note": 55,
        "velocity": 0,
        "channel": 1
      },
      {
        "type": "note_on",
        "time": 0,
        "note": 55,
        "velocity": 101,
        "channel": 1
      },
      {
        "type": "note_on",
        "time": 0,
        "note": 62,
        "velocity": 100,
        "channel": 1
      },
      {
        "type": "note_on",
        "time": 45,
        "note": 62,
        "velocity": 0,
        "channel": 1
      },
      {
        "type": "note_on",
        "time": 0,
        "note": 55,
        "velocity": 0,
        "channel": 1
      },
      {
        "type": "note_on",
        "time": 15,
        "note": 60,
        "velocity": 101,
        "channel": 1
      },
      {
        "type": "note_on",
        "time": 0,
        "note": 64,
        "velocity": 102,
        "channel": 1
      },
      {
        "type": "note_on",
        "time": 45,
        "note": 64,
        "velocity": 0,
        "channel": 1
      },
      {
        "type": "note_on",
        "time": 0,
        "note": 60,
        "velocity": 0,
        "channel": 1
      },
      {
        "type": "note_on",
        "time": 15,
        "note": 55,
        "velocity": 100,
        "channel": 1
      },
      {
        "type": "note_on",
        "time": 0,
        "note": 48,
        "velocity": 103,
        "channel": 1
      },
      {
        "type": "note_on",
        "time": 30,
        "note": 48,
        "velocity": 0,
        "channel": 1
      },
      {
        "type": "note_on",
        "time": 0,
        "note": 55,
        "velocity": 0,
        "channel": 1
      },
      {
        "type": "note_on",
        "time": 0,
        "note": 55,
        "velocity": 100,
        "channel": 1
      },
      {
        "type": "note_on",
        "time": 0,
        "note": 48,
        "velocity": 103,
        "channel": 1
      },
      {
        "type": "note_on",
        "time": 30,
        "note": 48,
        "velocity": 0,
        "channel": 1
      },
      {
        "type": "note_on",
        "time": 0,
        "note": 55,
        "velocity": 0,
        "channel": 1
      },
      {
        "type": "note_on",
        "time": 0,
        "note": 55,
        "velocity": 100,
        "channel": 1
      },
      {
        "type": "note_on",
        "time": 0,
        "note": 48,
        "velocity": 104,
        "channel": 1
      },
      {
        "type": "note_on",
        "time": 30,
        "note": 48,
        "velocity": 0,
        "channel": 1
      },
      {
        "type": "note_on",
        "time": 0,
        "note": 55,
        "velocity": 0,
        "channel": 1
      },
      {
        "type": "note_on",
        "time": 0,
        "note": 59,
        "velocity": 100,
        "channel": 1
      },
      {
        "type": "note_on",
        "time": 0,
        "note": 52,
        "velocity": 100,
        "channel": 1
      },
      {
        "type": "note_on",
        "time": 30,
        "note": 52,
        "velocity": 0,
        "channel": 1
      },
      {
        "type": "note_on",
        "time": 0,
        "note": 59,
        "velocity": 0,
        "channel": 1
      },
      {
        "type": "note_on",
        "time": 0,
        "note": 59,
        "velocity": 101,
        "channel": 1
      },
      {
        "type": "note_on",
        "time": 0,
        "note": 52,
        "velocity": 101,
        "channel": 1
      },
      {
        "type": "note_on",
        "time": 30,
        "note": 52,
        "velocity": 0,
        "channel": 1
      },
      {
        "type": "note_on",
        "time": 0,
        "note": 59,
        "velocity": 0,
        "channel": 1
      },
      {
        "type": "note_on",
        "time": 0,
        "note": 59,
        "velocity": 102,
        "channel": 1
      },
      {
        "type": "note_on",
        "time": 0,
        "note": 62,
        "velocity": 102,
        "channel": 1
      },
      {
        "type": "note_on",
        "time": 45,
        "note": 62,
        "velocity": 0,
        "channel": 1
      },
      {
        "type": "note_on",
        "time": 0,
        "note": 59,
        "velocity": 0,
        "channel": 1
      },
      {
        "type": "note_on",
        "time": 15,
        "note": 59,
        "velocity": 103,
        "channel": 1
      },
      {
        "type": "note_on",
        "time": 0,
        "note": 64,
        "velocity": 103,
        "channel": 1
      },
      {
        "type": "note_on",
        "time": 45,
        "note": 64,
        "velocity": 0,
        "channel": 1
      },
      {
        "type": "note_on",
        "time": 0,
        "note": 59,
        "velocity": 0,
        "channel": 1
      },
      {
        "type": "note_on",
        "time": 15,
        "note": 59,
        "velocity": 102,
        "channel": 1
      },
      {
        "type": "note_on",
        "time": 0,
        "note": 52,
        "velocity": 102,
        "channel": 1
      },
      {
        "type": "note_on",
        "time": 30,
        "note": 52,
        "velocity": 0,
        "channel": 1
      },
      {
        "type": "note_on",
        "time": 0,
        "note": 59,
        "velocity": 0,
        "channel": 1
      },
      {
        "type": "note_on",
        "time": 0,
        "note": 59,
        "velocity": 102,
        "channel": 1
      },
      {
        "type": "note_on",
        "time": 0,
        "note": 52,
        "velocity": 102,
        "channel": 1
      },
      {
        "type": "note_on",
        "time": 30,
        "note": 52,
        "velocity": 0,
        "channel": 1
      },
      {
        "type": "note_on",
        "time": 0,
        "note": 59,
        "velocity": 0,
        "channel": 1
      },
      {
        "type": "note_on",
        "time": 0,
        "note": 59,
        "velocity": 101,
        "channel": 1
      },
      {
        "type": "note_on",
        "time": 0,
        "note": 52,
        "velocity": 101,
        "channel": 1
      },
      {
        "type": "note_on",
        "time": 30,
        "note": 52,
        "velocity": 0,
        "channel": 1
      },
      {
        "type": "note_on",
        "time": 0,
        "note": 59,
        "velocity": 0,
        "channel": 1
      },
      {
        "type": "note_on",
        "time": 0,
        "note": 59,
        "velocity": 98,
        "channel": 1
      },
      {
        "type": "note_on",
        "time": 0,
        "note": 62,
        "velocity": 98,
        "channel": 1
      },
      {
        "type": "note_on",
        "time": 0,
        "note": 52,
        "velocity": 98,
        "channel": 1
      },
      {
        "type": "note_on",
        "time": 45,
        "note": 52,
        "velocity": 0,
        "channel": 1
      },
      {
        "type": "note_on",
        "time": 0,
        "note": 62,
        "velocity": 0,
        "channel": 1
      },
      {
        "type": "note_on",
        "time": 0,
        "note": 59,
        "velocity": 0,
        "channel": 1
      },
      {
        "type": "note_on",
        "time": 15,
        "note": 59,
        "velocity": 98,
        "channel": 1
      },
      {
        "type": "note_on",
        "time": 0,
        "note": 64,
        "velocity": 98,
        "channel": 1
      },
      {
        "type": "note_on",
        "time": 0,
        "note": 52,
        "velocity": 98,
        "channel": 1
      },
      {
        "type": "note_on",
        "time": 45,
        "note": 52,
        "velocity": 0,
        "channel": 1
      },
      {
        "type": "note_on",
        "time": 0,
        "note": 64,
        "velocity": 0,
        "channel": 1
      },
      {
        "type": "note_on",
        "time": 0,
        "note": 59,
        "velocity": 0,
        "channel": 1
      },
      {
        "type": "note_on",
        "time": 15,
        "note": 59,
        "velocity": 101,
        "channel": 1
      },
      {
        "type": "note_on",
        "time": 0,
        "note": 52,
        "velocity": 101,
        "channel": 1
      },
      {
        "type": "note_on",
        "time": 30,
        "note": 52,
        "velocity": 0,
        "channel": 1
      },
      {
        "type": "note_on",
        "time": 0,
        "note": 59,
        "velocity": 0,
        "channel": 1
      },
      {
        "type": "note_on",
        "time": 0,
        "note": 59,
        "velocity": 101,
        "channel": 1
      },
      {
        "type": "note_on",
        "time": 0,
        "note": 52,
        "velocity": 101,
        "channel": 1
      },
      {
        "type": "note_on",
        "time": 30,
        "note": 52,
        "velocity": 0,
        "channel": 1
      },
      {
        "type": "note_on",
        "time": 0,
        "note": 59,
        "velocity": 0,
        "channel": 1
      },
      {
        "type": "note_on",
        "time": 0,
        "note": 59,
        "velocity": 101,
        "channel": 1
      },
      {
        "type": "note_on",
        "time": 0,
        "note": 52,
        "velocity": 101,
        "channel": 1
      },
      {
        "type": "note_on",
        "time": 30,
        "note": 52,
        "velocity": 0,
        "channel": 1
      },
      {
        "type": "note_on",
        "time": 0,
        "note": 59,
        "velocity": 0,
        "channel": 1
      },
      {
        "type": "note_on",
        "time": 0,
        "note": 57,
        "velocity": 101,
        "channel": 1
      },
      {
        "type": "note_on",
        "time": 0,
        "note": 50,
        "velocity": 101,
        "channel": 1
      },
      {
        "type": "note_on",
        "time": 30,
        "note": 50,
        "velocity": 0,
        "channel": 1
      },
      {
        "type": "note_on",
        "time": 0,
        "note": 57,
        "velocity": 0,
        "channel": 1
      },
      {
        "type": "note_on",
        "time": 0,
        "note": 57,
        "velocity": 101,
        "channel": 1
      },
      {
        "type": "note_on",
        "time": 0,
        "note": 50,
        "velocity": 101,
        "channel": 1
      },
      {
        "type": "note_on",
        "time": 30,
        "note": 50,
        "velocity": 0,
        "channel": 1
      },
      {
        "type": "note_on",
        "time": 0,
        "note": 57,
        "velocity": 0,
        "channel": 1
      },
      {
        "type": "note_on",
        "time": 0,
        "note": 57,
        "velocity": 101,
        "channel": 1
      },
      {
        "type": "note_on",
        "time": 0,
        "note": 62,
        "velocity": 101,
        "channel": 1
      },
      {
        "type": "note_on",
        "time": 45,
        "note": 62,
        "velocity": 0,
        "channel": 1
      },
      {
        "type": "note_on",
        "time": 0,
        "note": 57,
        "velocity": 0,
        "channel": 1
      },
      {
        "type": "note_on",
        "time": 15,
        "note": 62,
        "velocity": 101,
        "channel": 1
      },
      {
        "type": "note_on",
        "time": 0,
        "note": 64,
        "velocity": 100,
        "channel": 1
      },
      {
        "type": "note_on",
        "time": 45,
        "note": 64,
        "velocity": 0,
        "channel": 1
      },
      {
        "type": "note_on",
        "time": 0,
        "note": 62,
        "velocity": 0,
        "channel": 1
      },
      {
        "type": "note_on",
        "time": 15,
        "note": 57,
        "velocity": 100,
        "channel": 1
      },
      {
        "type": "note_on",
        "time": 0,
        "note": 50,
        "velocity": 100,
        "channel": 1
      },
      {
        "type": "note_on",
        "time": 30,
        "note": 50,
        "velocity": 0,
        "channel": 1
      },
      {
        "type": "note_on",
        "time": 0,
        "note": 57,
        "velocity": 0,
        "channel": 1
      },
      {
        "type": "note_on",
        "time": 0,
        "note": 57,
        "velocity": 100,
        "channel": 1
      },
      {
        "type": "note_on",
        "time": 0,
        "note": 50,
        "velocity": 100,
        "channel": 1
      },
      {
        "type": "note_on",
        "time": 30,
        "note": 50,
        "velocity": 0,
        "channel": 1
      },
      {
        "type": "note_on",
        "time": 0,
        "note": 57,
        "velocity": 0,
        "channel": 1
      },
      {
        "type": "note_on",
        "time": 0,
        "note": 57,
        "velocity": 100,
        "channel": 1
      },
      {
        "type": "note_on",
        "time": 0,
        "note": 50,
        "velocity": 100,
        "channel": 1
      },
      {
        "type": "note_on",
        "time": 30,
        "note": 50,
        "velocity": 0,
        "channel": 1
      },
      {
        "type": "note_on",
        "time": 0,
        "note": 57,
        "velocity": 0,
        "channel": 1
      },
      {
        "type": "note_on",
        "time": 0,
        "note": 57,
        "velocity": 101,
        "channel": 1
      },
      {
        "type": "note_on",
        "time": 0,
        "note": 62,
        "velocity": 100,
        "channel": 1
      },
      {
        "type": "note_on",
        "time": 45,
        "note": 62,
        "velocity": 0,
        "channel": 1
      },
      {
        "type": "note_on",
        "time": 0,
        "note": 57,
        "velocity": 0,
        "channel": 1
      },
      {
        "type": "note_on",
        "time": 15,
        "note": 62,
        "velocity": 101,
        "channel": 1
      },
      {
        "type": "note_on",
        "time": 0,
        "note": 64,
        "velocity": 100,
        "channel": 1
      },
      {
        "type": "note_on",
        "time": 45,
        "note": 64,
        "velocity": 0,
        "channel": 1
      },
      {
        "type": "note_on",
        "time": 0,
        "note": 62,
        "velocity": 0,
        "channel": 1
      },
      {
        "type": "note_on",
        "time": 15,
        "note": 57,
        "velocity": 100,
        "channel": 1
      },
      {
        "type": "note_on",
        "time": 0,
        "note": 50,
        "velocity": 100,
        "channel": 1
      },
      {
        "type": "note_on",
        "time": 30,
        "note": 50,
        "velocity": 0,
        "channel": 1
      },
      {
        "type": "note_on",
        "time": 0,
        "note": 57,
        "velocity": 0,
        "channel": 1
      },
      {
        "type": "note_on",
        "time": 0,
        "note": 57,
        "velocity": 100,
        "channel": 1
      },
      {
        "type": "note_on",
        "time": 0,
        "note": 50,
        "velocity": 100,
        "channel": 1
      },
      {
        "type": "note_on",
        "time": 30,
        "note": 50,
        "velocity": 0,
        "channel": 1
      },
      {
        "type": "note_on",
        "time": 0,
        "note": 57,
        "velocity": 0,
        "channel": 1
      },
      {
        "type": "note_on",
        "time": 0,
        "note": 57,
        "velocity": 100,
        "channel": 1
      },
      {
        "type": "note_on",
        "time": 0,
        "note": 50,
        "velocity": 100,
        "channel": 1
      },
      {
        "type": "note_on",
        "time": 30,
        "note": 50,
        "velocity": 0,
        "channel": 1
      },
      {
        "type": "note_on",
        "time": 0,
        "note": 57,
        "velocity": 0,
        "channel": 1
      },
      {
        "type": "note_on",
        "time": 0,
        "note": 54,
        "velocity": 100,
        "channel": 1
      },
      {
        "type": "note_on",
        "time": 0,
        "note": 47,
        "velocity": 100,
        "channel": 1
      },
      {
        "type": "note_on",
        "time": 30,
        "note": 47,
        "velocity": 0,
        "channel": 1
      },
      {
        "type": "note_on",
        "time": 0,
        "note": 54,
        "velocity": 0,
        "channel": 1
      },
      {
        "type": "note_on",
        "time": 0,
        "note": 54,
        "velocity": 100,
        "channel": 1
      },
      {
        "type": "note_on",
        "time": 0,
        "note": 47,
        "velocity": 100,
        "channel": 1
      },
      {
        "type": "note_on",
        "time": 30,
        "note": 47,
        "velocity": 0,
        "channel": 1
      },
      {
        "type": "note_on",
        "time": 0,
        "note": 54,
        "velocity": 0,
        "channel": 1
      },
      {
        "type": "note_on",
        "time": 0,
        "note": 62,
        "velocity": 101,
        "channel": 1
      },
      {
        "type": "note_on",
        "time": 0,
        "note": 54,
        "velocity": 101,
        "channel": 1
      },
      {
        "type": "note_on",
        "time": 45,
        "note": 54,
        "velocity": 0,
        "channel": 1
      },
      {
        "type": "note_on",
        "time": 0,
        "note": 62,
        "velocity": 0,
        "channel": 1
      },
      {
        "type": "note_on",
        "time": 15,
        "note": 59,
        "velocity": 101,
        "channel": 1
      },
      {
        "type": "note_on",
        "time": 0,
        "note": 64,
        "velocity": 101,
        "channel": 1
      },
      {
        "type": "note_on",
        "time": 45,
        "note": 64,
        "velocity": 0,
        "channel": 1
      },
      {
        "type": "note_on",
        "time": 0,
        "note": 59,
        "velocity": 0,
        "channel": 1
      },
      {
        "type": "note_on",
        "time": 15,
        "note": 54,
        "velocity": 101,
        "channel": 1
      },
      {
        "type": "note_on",
        "time": 0,
        "note": 47,
        "velocity": 101,
        "channel": 1
      },
      {
        "type": "note_on",
        "time": 30,
        "note": 47,
        "velocity": 0,
        "channel": 1
      },
      {
        "type": "note_on",
        "time": 0,
        "note": 54,
        "velocity": 0,
        "channel": 1
      },
      {
        "type": "note_on",
        "time": 0,
        "note": 54,
        "velocity": 102,
        "channel": 1
      },
      {
        "type": "note_on",
        "time": 0,
        "note": 47,
        "velocity": 102,
        "channel": 1
      },
      {
        "type": "note_on",
        "time": 30,
        "note": 47,
        "velocity": 0,
        "channel": 1
      },
      {
        "type": "note_on",
        "time": 0,
        "note": 54,
        "velocity": 0,
        "channel": 1
      },
      {
        "type": "note_on",
        "time": 0,
        "note": 47,
        "velocity": 103,
        "channel": 1
      },
      {
        "type": "note_on",
        "time": 0,
        "note": 54,
        "velocity": 103,
        "channel": 1
      },
      {
        "type": "note_on",
        "time": 30,
        "note": 54,
        "velocity": 0,
        "channel": 1
      },
      {
        "type": "note_on",
        "time": 0,
        "note": 47,
        "velocity": 0,
        "channel": 1
      },
      {
        "type": "note_on",
        "time": 0,
        "note": 54,
        "velocity": 101,
        "channel": 1
      },
      {
        "type": "note_on",
        "time": 0,
        "note": 62,
        "velocity": 104,
        "channel": 1
      },
      {
        "type": "note_on",
        "time": 45,
        "note": 62,
        "velocity": 0,
        "channel": 1
      },
      {
        "type": "note_on",
        "time": 0,
        "note": 54,
        "velocity": 0,
        "channel": 1
      },
      {
        "type": "note_on",
        "time": 15,
        "note": 59,
        "velocity": 101,
        "channel": 1
      },
      {
        "type": "note_on",
        "time": 0,
        "note": 64,
        "velocity": 105,
        "channel": 1
      },
      {
        "type": "note_on",
        "time": 45,
        "note": 64,
        "velocity": 0,
        "channel": 1
      },
      {
        "type": "note_on",
        "time": 0,
        "note": 59,
        "velocity": 0,
        "channel": 1
      },
      {
        "type": "note_on",
        "time": 15,
        "note": 47,
        "velocity": 105,
        "channel": 1
      },
      {
        "type": "note_on",
        "time": 0,
        "note": 54,
        "velocity": 105,
        "channel": 1
      },
      {
        "type": "note_on",
        "time": 30,
        "note": 54,
        "velocity": 0,
        "channel": 1
      },
      {
        "type": "note_on",
        "time": 0,
        "note": 47,
        "velocity": 0,
        "channel": 1
      },
      {
        "type": "note_on",
        "time": 0,
        "note": 54,
        "velocity": 99,
        "channel": 1
      },
      {
        "type": "note_on",
        "time": 0,
        "note": 47,
        "velocity": 99,
        "channel": 1
      },
      {
        "type": "note_on",
        "time": 30,
        "note": 47,
        "velocity": 0,
        "channel": 1
      },
      {
        "type": "note_on",
        "time": 0,
        "note": 54,
        "velocity": 0,
        "channel": 1
      },
      {
        "type": "note_on",
        "time": 0,
        "note": 54,
        "velocity": 99,
        "channel": 1
      },
      {
        "type": "note_on",
        "time": 0,
        "note": 47,
        "velocity": 99,
        "channel": 1
      },
      {
        "type": "note_on",
        "time": 30,
        "note": 47,
        "velocity": 0,
        "channel": 1
      },
      {
        "type": "note_on",
        "time": 0,
        "note": 54,
        "velocity": 0,
        "channel": 1
      },
      {
        "type": "note_on",
        "time": 0,
        "note": 48,
        "velocity": 100,
        "channel": 1
      },
      {
        "type": "note_on",
        "time": 0,
        "note": 67,
        "velocity": 100,
        "channel": 1
      },
      {
        "type": "note_on",
        "time": 0,
        "note": 71,
        "velocity": 100,
        "channel": 1
      },
      {
        "type": "note_on",
        "time": 30,
        "note": 48,
        "velocity": 0,
        "channel": 1
      },
      {
        "type": "note_on",
        "time": 0,
        "note": 48,
        "velocity": 100,
        "channel": 1
      },
      {
        "type": "note_on",
        "time": 30,
        "note": 48,
        "velocity": 0,
        "channel": 1
      },
      {
        "type": "note_on",
        "time": 0,
        "note": 71,
        "velocity": 0,
        "channel": 1
      },
      {
        "type": "note_on",
        "time": 0,
        "note": 67,
        "velocity": 0,
        "channel": 1
      },
      {
        "type": "note_on",
        "time": 0,
        "note": 62,
        "velocity": 100,
        "channel": 1
      },
      {
        "type": "note_on",
        "time": 0,
        "note": 67,
        "velocity": 100,
        "channel": 1
      },
      {
        "type": "note_on",
        "time": 0,
        "note": 71,
        "velocity": 100,
        "channel": 1
      },
      {
        "type": "note_on",
        "time": 60,
        "note": 71,
        "velocity": 0,
        "channel": 1
      },
      {
        "type": "note_on",
        "time": 0,
        "note": 67,
        "velocity": 0,
        "channel": 1
      },
      {
        "type": "note_on",
        "time": 0,
        "note": 62,
        "velocity": 0,
        "channel": 1
      },
      {
        "type": "note_on",
        "time": 0,
        "note": 64,
        "velocity": 100,
        "channel": 1
      },
      {
        "type": "note_on",
        "time": 0,
        "note": 67,
        "velocity": 100,
        "channel": 1
      },
      {
        "type": "note_on",
        "time": 0,
        "note": 71,
        "velocity": 100,
        "channel": 1
      },
      {
        "type": "note_on",
        "time": 60,
        "note": 71,
        "velocity": 0,
        "channel": 1
      },
      {
        "type": "note_on",
        "time": 0,
        "note": 67,
        "velocity": 0,
        "channel": 1
      },
      {
        "type": "note_on",
        "time": 0,
        "note": 64,
        "velocity": 0,
        "channel": 1
      },
      {
        "type": "note_on",
        "time": 0,
        "note": 48,
        "velocity": 100,
        "channel": 1
      },
      {
        "type": "note_on",
        "time": 0,
        "note": 67,
        "velocity": 100,
        "channel": 1
      },
      {
        "type": "note_on",
        "time": 0,
        "note": 71,
        "velocity": 100,
        "channel": 1
      },
      {
        "type": "note_on",
        "time": 30,
        "note": 48,
        "velocity": 0,
        "channel": 1
      },
      {
        "type": "note_on",
        "time": 0,
        "note": 48,
        "velocity": 100,
        "channel": 1
      },
      {
        "type": "note_on",
        "time": 30,
        "note": 48,
        "velocity": 0,
        "channel": 1
      },
      {
        "type": "note_on",
        "time": 0,
        "note": 71,
        "velocity": 0,
        "channel": 1
      },
      {
        "type": "note_on",
        "time": 0,
        "note": 67,
        "velocity": 0,
        "channel": 1
      },
      {
        "type": "note_on",
        "time": 0,
        "note": 48,
        "velocity": 100,
        "channel": 1
      },
      {
        "type": "note_on",
        "time": 0,
        "note": 67,
        "velocity": 100,
        "channel": 1
      },
      {
        "type": "note_on",
        "time": 0,
        "note": 71,
        "velocity": 100,
        "channel": 1
      },
      {
        "type": "note_on",
        "time": 30,
        "note": 71,
        "velocity": 0,
        "channel": 1
      },
      {
        "type": "note_on",
        "time": 0,
        "note": 48,
        "velocity": 0,
        "channel": 1
      },
      {
        "type": "note_on",
        "time": 0,
        "note": 62,
        "velocity": 100,
        "channel": 1
      },
      {
        "type": "note_on",
        "time": 0,
        "note": 71,
        "velocity": 100,
        "channel": 1
      },
      {
        "type": "note_on",
        "time": 30,
        "note": 71,
        "velocity": 0,
        "channel": 1
      },
      {
        "type": "note_on",
        "time": 0,
        "note": 67,
        "velocity": 0,
        "channel": 1
      },
      {
        "type": "note_on",
        "time": 0,
        "note": 67,
        "velocity": 100,
        "channel": 1
      },
      {
        "type": "note_on",
        "time": 0,
        "note": 71,
        "velocity": 100,
        "channel": 1
      },
      {
        "type": "note_on",
        "time": 30,
        "note": 71,
        "velocity": 0,
        "channel": 1
      },
      {
        "type": "note_on",
        "time": 0,
        "note": 62,
        "velocity": 0,
        "channel": 1
      },
      {
        "type": "note_on",
        "time": 0,
        "note": 64,
        "velocity": 100,
        "channel": 1
      },
      {
        "type": "note_on",
        "time": 0,
        "note": 71,
        "velocity": 100,
        "channel": 1
      },
      {
        "type": "note_on",
        "time": 30,
        "note": 71,
        "velocity": 0,
        "channel": 1
      },
      {
        "type": "note_on",
        "time": 0,
        "note": 67,
        "velocity": 0,
        "channel": 1
      },
      {
        "type": "note_on",
        "time": 0,
        "note": 67,
        "velocity": 100,
        "channel": 1
      },
      {
        "type": "note_on",
        "time": 0,
        "note": 71,
        "velocity": 100,
        "channel": 1
      },
      {
        "type": "note_on",
        "time": 30,
        "note": 71,
        "velocity": 0,
        "channel": 1
      },
      {
        "type": "note_on",
        "time": 0,
        "note": 64,
        "velocity": 0,
        "channel": 1
      },
      {
        "type": "note_on",
        "time": 0,
        "note": 64,
        "velocity": 100,
        "channel": 1
      },
      {
        "type": "note_on",
        "time": 0,
        "note": 71,
        "velocity": 100,
        "channel": 1
      },
      {
        "type": "note_on",
        "time": 30,
        "note": 71,
        "velocity": 0,
        "channel": 1
      },
      {
        "type": "note_on",
        "time": 0,
        "note": 64,
        "velocity": 0,
        "channel": 1
      },
      {
        "type": "note_on",
        "time": 0,
        "note": 67,
        "velocity": 0,
        "channel": 1
      },
      {
        "type": "note_on",
        "time": 0,
        "note": 64,
        "velocity": 100,
        "channel": 1
      },
      {
        "type": "note_on",
        "time": 0,
        "note": 67,
        "velocity": 100,
        "channel": 1
      },
      {
        "type": "note_on",
        "time": 0,
        "note": 71,
        "velocity": 100,
        "channel": 1
      },
      {
        "type": "note_on",
        "time": 30,
        "note": 71,
        "velocity": 0,
        "channel": 1
      },
      {
        "type": "note_on",
        "time": 0,
        "note": 64,
        "velocity": 0,
        "channel": 1
      },
      {
        "type": "note_on",
        "time": 0,
        "note": 64,
        "velocity": 100,
        "channel": 1
      },
      {
        "type": "note_on",
        "time": 0,
        "note": 71,
        "velocity": 100,
        "channel": 1
      },
      {
        "type": "note_on",
        "time": 30,
        "note": 71,
        "velocity": 0,
        "channel": 1
      },
      {
        "type": "note_on",
        "time": 0,
        "note": 64,
        "velocity": 0,
        "channel": 1
      },
      {
        "type": "note_on",
        "time": 0,
        "note": 67,
        "velocity": 0,
        "channel": 1
      },
      {
        "type": "note_on",
        "time": 0,
        "note": 55,
        "velocity": 100,
        "channel": 1
      },
      {
        "type": "note_on",
        "time": 0,
        "note": 62,
        "velocity": 100,
        "channel": 1
      },
      {
        "type": "note_on",
        "time": 0,
        "note": 67,
        "velocity": 100,
        "channel": 1
      },
      {
        "type": "note_on",
        "time": 90,
        "note": 67,
        "velocity": 0,
        "channel": 1
      },
      {
        "type": "note_on",
        "time": 0,
        "note": 62,
        "velocity": 0,
        "channel": 1
      },
      {
        "type": "note_on",
        "time": 0,
        "note": 55,
        "velocity": 0,
        "channel": 1
      },
      {
        "type": "note_on",
        "time": 0,
        "note": 55,
        "velocity": 100,
        "channel": 1
      },
      {
        "type": "note_on",
        "time": 0,
        "note": 62,
        "velocity": 100,
        "channel": 1
      },
      {
        "type": "note_on",
        "time": 0,
        "note": 67,
        "velocity": 100,
        "channel": 1
      },
      {
        "type": "note_on",
        "time": 30,
        "note": 67,
        "velocity": 0,
        "channel": 1
      },
      {
        "type": "note_on",
        "time": 0,
        "note": 62,
        "velocity": 0,
        "channel": 1
      },
      {
        "type": "note_on",
        "time": 0,
        "note": 55,
        "velocity": 0,
        "channel": 1
      },
      {
        "type": "note_on",
        "time": 0,
        "note": 55,
        "velocity": 100,
        "channel": 1
      },
      {
        "type": "note_on",
        "time": 0,
        "note": 62,
        "velocity": 100,
        "channel": 1
      },
      {
        "type": "note_on",
        "time": 30,
        "note": 62,
        "velocity": 0,
        "channel": 1
      },
      {
        "type": "note_on",
        "time": 0,
        "note": 55,
        "velocity": 0,
        "channel": 1
      },
      {
        "type": "note_on",
        "time": 0,
        "note": 55,
        "velocity": 100,
        "channel": 1
      },
      {
        "type": "note_on",
        "time": 0,
        "note": 62,
        "velocity": 100,
        "channel": 1
      },
      {
        "type": "note_on",
        "time": 0,
        "note": 67,
        "velocity": 100,
        "channel": 1
      },
      {
        "type": "note_on",
        "time": 30,
        "note": 67,
        "velocity": 0,
        "channel": 1
      },
      {
        "type": "note_on",
        "time": 0,
        "note": 62,
        "velocity": 0,
        "channel": 1
      },
      {
        "type": "note_on",
        "time": 0,
        "note": 55,
        "velocity": 0,
        "channel": 1
      },
      {
        "type": "note_on",
        "time": 0,
        "note": 57,
        "velocity": 100,
        "channel": 1
      },
      {
        "type": "note_on",
        "time": 0,
        "note": 62,
        "velocity": 100,
        "channel": 1
      },
      {
        "type": "note_on",
        "time": 0,
        "note": 66,
        "velocity": 100,
        "channel": 1
      },
      {
        "type": "note_on",
        "time": 120,
        "note": 66,
        "velocity": 0,
        "channel": 1
      },
      {
        "type": "note_on",
        "time": 0,
        "note": 62,
        "velocity": 0,
        "channel": 1
      },
      {
        "type": "note_on",
        "time": 0,
        "note": 57,
        "velocity": 0,
        "channel": 1
      },
      {
        "type": "note_on",
        "time": 0,
        "note": 57,
        "velocity": 100,
        "channel": 1
      },
      {
        "type": "note_on",
        "time": 0,
        "note": 62,
        "velocity": 100,
        "channel": 1
      },
      {
        "type": "note_on",
        "time": 0,
        "note": 66,
        "velocity": 100,
        "channel": 1
      },
      {
        "type": "note_on",
        "time": 60,
        "note": 66,
        "velocity": 0,
        "channel": 1
      },
      {
        "type": "note_on",
        "time": 0,
        "note": 62,
        "velocity": 0,
        "channel": 1
      },
      {
        "type": "note_on",
        "time": 0,
        "note": 57,
        "velocity": 0,
        "channel": 1
      },
      {
        "type": "note_on",
        "time": 0,
        "note": 57,
        "velocity": 100,
        "channel": 1
      },
      {
        "type": "note_on",
        "time": 0,
        "note": 66,
        "velocity": 100,
        "channel": 1
      },
      {
        "type": "note_on",
        "time": 30,
        "note": 57,
        "velocity": 0,
        "channel": 1
      },
      {
        "type": "note_on",
        "time": 0,
        "note": 57,
        "velocity": 100,
        "channel": 1
      },
      {
        "type": "note_on",
        "time": 0,
        "note": 62,
        "velocity": 100,
        "channel": 1
      },
      {
        "type": "note_on",
        "time": 30,
        "note": 62,
        "velocity": 0,
        "channel": 1
      },
      {
        "type": "note_on",
        "time": 0,
        "note": 57,
        "velocity": 0,
        "channel": 1
      },
      {
        "type": "note_on",
        "time": 0,
        "note": 66,
        "velocity": 0,
        "channel": 1
      },
      {
        "type": "note_on",
        "time": 0,
        "note": 57,
        "velocity": 100,
        "channel": 1
      },
      {
        "type": "note_on",
        "time": 0,
        "note": 62,
        "velocity": 100,
        "channel": 1
      },
      {
        "type": "note_on",
        "time": 60,
        "note": 62,
        "velocity": 0,
        "channel": 1
      },
      {
        "type": "note_on",
        "time": 0,
        "note": 57,
        "velocity": 0,
        "channel": 1
      },
      {
        "type": "note_on",
        "time": 0,
        "note": 59,
        "velocity": 100,
        "channel": 1
      },
      {
        "type": "note_on",
        "time": 0,
        "note": 54,
        "velocity": 100,
        "channel": 1
      },
      {
        "type": "note_on",
        "time": 0,
        "note": 66,
        "velocity": 100,
        "channel": 1
      },
      {
        "type": "note_on",
        "time": 90,
        "note": 66,
        "velocity": 0,
        "channel": 1
      },
      {
        "type": "note_on",
        "time": 0,
        "note": 54,
        "velocity": 0,
        "channel": 1
      },
      {
        "type": "note_on",
        "time": 0,
        "note": 59,
        "velocity": 0,
        "channel": 1
      },
      {
        "type": "note_on",
        "time": 0,
        "note": 66,
        "velocity": 100,
        "channel": 1
      },
      {
        "type": "note_on",
        "time": 0,
        "note": 59,
        "velocity": 100,
        "channel": 1
      },
      {
        "type": "note_on",
        "time": 30,
        "note": 59,
        "velocity": 0,
        "channel": 1
      },
      {
        "type": "note_on",
        "time": 0,
        "note": 66,
        "velocity": 0,
        "channel": 1
      },
      {
        "type": "note_on",
        "time": 0,
        "note": 54,
        "velocity": 100,
        "channel": 1
      },
      {
        "type": "note_on",
        "time": 0,
        "note": 59,
        "velocity": 100,
        "channel": 1
      },
      {
        "type": "note_on",
        "time": 0,
        "note": 66,
        "velocity": 100,
        "channel": 1
      },
      {
        "type": "note_on",
        "time": 60,
        "note": 66,
        "velocity": 0,
        "channel": 1
      },
      {
        "type": "note_on",
        "time": 0,
        "note": 59,
        "velocity": 0,
        "channel": 1
      },
      {
        "type": "note_on",
        "time": 0,
        "note": 54,
        "velocity": 0,
        "channel": 1
      },
      {
        "type": "note_on",
        "time": 0,
        "note": 60,
        "velocity": 100,
        "channel": 1
      },
      {
        "type": "note_on",
        "time": 0,
        "note": 64,
        "velocity": 100,
        "channel": 1
      },
      {
        "type": "note_on",
        "time": 0,
        "note": 67,
        "velocity": 100,
        "channel": 1
      },
      {
        "type": "note_on",
        "time": 120,
        "note": 67,
        "velocity": 0,
        "channel": 1
      },
      {
        "type": "note_on",
        "time": 0,
        "note": 64,
        "velocity": 0,
        "channel": 1
      },
      {
        "type": "note_on",
        "time": 0,
        "note": 60,
        "velocity": 0,
        "channel": 1
      },
      {
        "type": "note_on",
        "time": 0,
        "note": 60,
        "velocity": 100,
        "channel": 1
      },
      {
        "type": "note_on",
        "time": 0,
        "note": 64,
        "velocity": 100,
        "channel": 1
      },
      {
        "type": "note_on",
        "time": 0,
        "note": 67,
        "velocity": 100,
        "channel": 1
      },
      {
        "type": "note_on",
        "time": 60,
        "note": 67,
        "velocity": 0,
        "channel": 1
      },
      {
        "type": "note_on",
        "time": 0,
        "note": 64,
        "velocity": 0,
        "channel": 1
      },
      {
        "type": "note_on",
        "time": 0,
        "note": 60,
        "velocity": 0,
        "channel": 1
      },
      {
        "type": "note_on",
        "time": 0,
        "note": 64,
        "velocity": 100,
        "channel": 1
      },
      {
        "type": "note_on",
        "time": 0,
        "note": 67,
        "velocity": 100,
        "channel": 1
      },
      {
        "type": "note_on",
        "time": 0,
        "note": 60,
        "velocity": 100,
        "channel": 1
      },
      {
        "type": "note_on",
        "time": 30,
        "note": 60,
        "velocity": 0,
        "channel": 1
      },
      {
        "type": "note_on",
        "time": 0,
        "note": 64,
        "velocity": 0,
        "channel": 1
      },
      {
        "type": "note_on",
        "time": 0,
        "note": 60,
        "velocity": 100,
        "channel": 1
      },
      {
        "type": "note_on",
        "time": 30,
        "note": 60,
        "velocity": 0,
        "channel": 1
      },
      {
        "type": "note_on",
        "time": 0,
        "note": 67,
        "velocity": 0,
        "channel": 1
      },
      {
        "type": "note_on",
        "time": 0,
        "note": 64,
        "velocity": 100,
        "channel": 1
      },
      {
        "type": "note_on",
        "time": 0,
        "note": 67,
        "velocity": 100,
        "channel": 1
      },
      {
        "type": "note_on",
        "time": 30,
        "note": 67,
        "velocity": 0,
        "channel": 1
      },
      {
        "type": "note_on",
        "time": 0,
        "note": 64,
        "velocity": 0,
        "channel": 1
      },
      {
        "type": "note_on",
        "time": 0,
        "note": 64,
        "velocity": 100,
        "channel": 1
      },
      {
        "type": "note_on",
        "time": 0,
        "note": 67,
        "velocity": 100,
        "channel": 1
      },
      {
        "type": "note_on",
        "time": 30,
        "note": 67,
        "velocity": 0,
        "channel": 1
      },
      {
        "type": "note_on",
        "time": 0,
        "note": 64,
        "velocity": 0,
        "channel": 1
      },
      {
        "type": "note_on",
        "time": 0,
        "note": 55,
        "velocity": 100,
        "channel": 1
      },
      {
        "type": "note_on",
        "time": 0,
        "note": 62,
        "velocity": 100,
        "channel": 1
      },
      {
        "type": "note_on",
        "time": 0,
        "note": 67,
        "velocity": 100,
        "channel": 1
      },
      {
        "type": "note_on",
        "time": 90,
        "note": 67,
        "velocity": 0,
        "channel": 1
      },
      {
        "type": "note_on",
        "time": 0,
        "note": 62,
        "velocity": 0,
        "channel": 1
      },
      {
        "type": "note_on",
        "time": 0,
        "note": 55,
        "velocity": 0,
        "channel": 1
      },
      {
        "type": "note_on",
        "time": 0,
        "note": 55,
        "velocity": 100,
        "channel": 1
      },
      {
        "type": "note_on",
        "time": 0,
        "note": 62,
        "velocity": 100,
        "channel": 1
      },
      {
        "type": "note_on",
        "time": 0,
        "note": 67,
        "velocity": 100,
        "channel": 1
      },
      {
        "type": "note_on",
        "time": 30,
        "note": 67,
        "velocity": 0,
        "channel": 1
      },
      {
        "type": "note_on",
        "time": 0,
        "note": 62,
        "velocity": 0,
        "channel": 1
      },
      {
        "type": "note_on",
        "time": 0,
        "note": 55,
        "velocity": 0,
        "channel": 1
      },
      {
        "type": "note_on",
        "time": 0,
        "note": 55,
        "velocity": 100,
        "channel": 1
      },
      {
        "type": "note_on",
        "time": 0,
        "note": 62,
        "velocity": 100,
        "channel": 1
      },
      {
        "type": "note_on",
        "time": 30,
        "note": 62,
        "velocity": 0,
        "channel": 1
      },
      {
        "type": "note_on",
        "time": 0,
        "note": 55,
        "velocity": 0,
        "channel": 1
      },
      {
        "type": "note_on",
        "time": 0,
        "note": 55,
        "velocity": 100,
        "channel": 1
      },
      {
        "type": "note_on",
        "time": 0,
        "note": 62,
        "velocity": 100,
        "channel": 1
      },
      {
        "type": "note_on",
        "time": 0,
        "note": 67,
        "velocity": 100,
        "channel": 1
      },
      {
        "type": "note_on",
        "time": 30,
        "note": 67,
        "velocity": 0,
        "channel": 1
      },
      {
        "type": "note_on",
        "time": 0,
        "note": 62,
        "velocity": 0,
        "channel": 1
      },
      {
        "type": "note_on",
        "time": 0,
        "note": 55,
        "velocity": 0,
        "channel": 1
      },
      {
        "type": "note_on",
        "time": 0,
        "note": 57,
        "velocity": 100,
        "channel": 1
      },
      {
        "type": "note_on",
        "time": 0,
        "note": 62,
        "velocity": 100,
        "channel": 1
      },
      {
        "type": "note_on",
        "time": 0,
        "note": 66,
        "velocity": 100,
        "channel": 1
      },
      {
        "type": "note_on",
        "time": 120,
        "note": 66,
        "velocity": 0,
        "channel": 1
      },
      {
        "type": "note_on",
        "time": 0,
        "note": 62,
        "velocity": 0,
        "channel": 1
      },
      {
        "type": "note_on",
        "time": 0,
        "note": 57,
        "velocity": 0,
        "channel": 1
      },
      {
        "type": "note_on",
        "time": 0,
        "note": 57,
        "velocity": 100,
        "channel": 1
      },
      {
        "type": "note_on",
        "time": 0,
        "note": 62,
        "velocity": 100,
        "channel": 1
      },
      {
        "type": "note_on",
        "time": 0,
        "note": 66,
        "velocity": 100,
        "channel": 1
      },
      {
        "type": "note_on",
        "time": 60,
        "note": 66,
        "velocity": 0,
        "channel": 1
      },
      {
        "type": "note_on",
        "time": 0,
        "note": 62,
        "velocity": 0,
        "channel": 1
      },
      {
        "type": "note_on",
        "time": 0,
        "note": 57,
        "velocity": 0,
        "channel": 1
      },
      {
        "type": "note_on",
        "time": 0,
        "note": 57,
        "velocity": 100,
        "channel": 1
      },
      {
        "type": "note_on",
        "time": 0,
        "note": 66,
        "velocity": 100,
        "channel": 1
      },
      {
        "type": "note_on",
        "time": 30,
        "note": 57,
        "velocity": 0,
        "channel": 1
      },
      {
        "type": "note_on",
        "time": 0,
        "note": 57,
        "velocity": 100,
        "channel": 1
      },
      {
        "type": "note_on",
        "time": 0,
        "note": 62,
        "velocity": 100,
        "channel": 1
      },
      {
        "type": "note_on",
        "time": 30,
        "note": 62,
        "velocity": 0,
        "channel": 1
      },
      {
        "type": "note_on",
        "time": 0,
        "note": 57,
        "velocity": 0,
        "channel": 1
      },
      {
        "type": "note_on",
        "time": 0,
        "note": 66,
        "velocity": 0,
        "channel": 1
      },
      {
        "type": "note_on",
        "time": 0,
        "note": 57,
        "velocity": 100,
        "channel": 1
      },
      {
        "type": "note_on",
        "time": 0,
        "note": 62,
        "velocity": 100,
        "channel": 1
      },
      {
        "type": "note_on",
        "time": 60,
        "note": 62,
        "velocity": 0,
        "channel": 1
      },
      {
        "type": "note_on",
        "time": 0,
        "note": 57,
        "velocity": 0,
        "channel": 1
      },
      {
        "type": "note_on",
        "time": 0,
        "note": 54,
        "velocity": 100,
        "channel": 1
      },
      {
        "type": "note_on",
        "time": 0,
        "note": 59,
        "velocity": 100,
        "channel": 1
      },
      {
        "type": "note_on",
        "time": 0,
        "note": 66,
        "velocity": 100,
        "channel": 1
      },
      {
        "type": "note_on",
        "time": 120,
        "note": 66,
        "velocity": 0,
        "channel": 1
      },
      {
        "type": "note_on",
        "time": 0,
        "note": 54,
        "velocity": 100,
        "channel": 1
      },
      {
        "type": "note_on",
        "time": 0,
        "note": 59,
        "velocity": 100,
        "channel": 1
      },
      {
        "type": "note_on",
        "time": 0,
        "note": 66,
        "velocity": 100,
        "channel": 1
      },
      {
        "type": "note_on",
        "time": 45,
        "note": 59,
        "velocity": 0,
        "channel": 1
      },
      {
        "type": "note_on",
        "time": 15,
        "note": 59,
        "velocity": 0,
        "channel": 1
      },
      {
        "type": "note_on",
        "time": 0,
        "note": 54,
        "velocity": 0,
        "channel": 1
      },
      {
        "type": "note_on",
        "time": 0,
        "note": 54,
        "velocity": 0,
        "channel": 1
      },
      {
        "type": "note_on",
        "time": 0,
        "note": 66,
        "velocity": 0,
        "channel": 1
      },
      {
        "type": "note_on",
        "time": 0,
        "note": 60,
        "velocity": 100,
        "channel": 1
      },
      {
        "type": "note_on",
        "time": 0,
        "note": 67,
        "velocity": 100,
        "channel": 1
      },
      {
        "type": "note_on",
        "time": 0,
        "note": 55,
        "velocity": 100,
        "channel": 1
      },
      {
        "type": "note_on",
        "time": 120,
        "note": 55,
        "velocity": 0,
        "channel": 1
      },
      {
        "type": "note_on",
        "time": 0,
        "note": 67,
        "velocity": 0,
        "channel": 1
      },
      {
        "type": "note_on",
        "time": 0,
        "note": 60,
        "velocity": 0,
        "channel": 1
      },
      {
        "type": "note_on",
        "time": 0,
        "note": 55,
        "velocity": 100,
        "channel": 1
      },
      {
        "type": "note_on",
        "time": 0,
        "note": 60,
        "velocity": 100,
        "channel": 1
      },
      {
        "type": "note_on",
        "time": 0,
        "note": 67,
        "velocity": 100,
        "channel": 1
      },
      {
        "type": "note_on",
        "time": 60,
        "note": 67,
        "velocity": 0,
        "channel": 1
      },
      {
        "type": "note_on",
        "time": 0,
        "note": 60,
        "velocity": 0,
        "channel": 1
      },
      {
        "type": "note_on",
        "time": 0,
        "note": 55,
        "velocity": 0,
        "channel": 1
      },
      {
        "type": "note_on",
        "time": 0,
        "note": 55,
        "velocity": 100,
        "channel": 1
      },
      {
        "type": "note_on",
        "time": 0,
        "note": 60,
        "velocity": 100,
        "channel": 1
      },
      {
        "type": "note_on",
        "time": 0,
        "note": 67,
        "velocity": 100,
        "channel": 1
      },
      {
        "type": "note_on",
        "time": 60,
        "note": 67,
        "velocity": 0,
        "channel": 1
      },
      {
        "type": "note_on",
        "time": 0,
        "note": 60,
        "velocity": 0,
        "channel": 1
      },
      {
        "type": "note_on",
        "time": 0,
        "note": 55,
        "velocity": 0,
        "channel": 1
      },
      {
        "type": "note_on",
        "time": 0,
        "note": 55,
        "velocity": 100,
        "channel": 1
      },
      {
        "type": "note_on",
        "time": 0,
        "note": 60,
        "velocity": 100,
        "channel": 1
      },
      {
        "type": "note_on",
        "time": 0,
        "note": 67,
        "velocity": 100,
        "channel": 1
      },
      {
        "type": "note_on",
        "time": 30,
        "note": 67,
        "velocity": 0,
        "channel": 1
      },
      {
        "type": "note_on",
        "time": 0,
        "note": 60,
        "velocity": 0,
        "channel": 1
      },
      {
        "type": "note_on",
        "time": 0,
        "note": 60,
        "velocity": 100,
        "channel": 1
      },
      {
        "type": "note_on",
        "time": 0,
        "note": 67,
        "velocity": 100,
        "channel": 1
      },
      {
        "type": "note_on",
        "time": 30,
        "note": 67,
        "velocity": 0,
        "channel": 1
      },
      {
        "type": "note_on",
        "time": 0,
        "note": 60,
        "velocity": 0,
        "channel": 1
      },
      {
        "type": "note_on",
        "time": 0,
        "note": 55,
        "velocity": 0,
        "channel": 1
      },
      {
        "type": "note_on",
        "time": 0,
        "note": 55,
        "velocity": 100,
        "channel": 1
      },
      {
        "type": "note_on",
        "time": 0,
        "note": 62,
        "velocity": 100,
        "channel": 1
      },
      {
        "type": "note_on",
        "time": 0,
        "note": 67,
        "velocity": 100,
        "channel": 1
      },
      {
        "type": "note_on",
        "time": 90,
        "note": 67,
        "velocity": 0,
        "channel": 1
      },
      {
        "type": "note_on",
        "time": 0,
        "note": 62,
        "velocity": 0,
        "channel": 1
      },
      {
        "type": "note_on",
        "time": 0,
        "note": 55,
        "velocity": 0,
        "channel": 1
      },
      {
        "type": "note_on",
        "time": 0,
        "note": 55,
        "velocity": 100,
        "channel": 1
      },
      {
        "type": "note_on",
        "time": 0,
        "note": 62,
        "velocity": 100,
        "channel": 1
      },
      {
        "type": "note_on",
        "time": 0,
        "note": 67,
        "velocity": 100,
        "channel": 1
      },
      {
        "type": "note_on",
        "time": 30,
        "note": 67,
        "velocity": 0,
        "channel": 1
      },
      {
        "type": "note_on",
        "time": 0,
        "note": 62,
        "velocity": 0,
        "channel": 1
      },
      {
        "type": "note_on",
        "time": 0,
        "note": 55,
        "velocity": 0,
        "channel": 1
      },
      {
        "type": "note_on",
        "time": 0,
        "note": 55,
        "velocity": 100,
        "channel": 1
      },
      {
        "type": "note_on",
        "time": 0,
        "note": 62,
        "velocity": 100,
        "channel": 1
      },
      {
        "type": "note_on",
        "time": 30,
        "note": 62,
        "velocity": 0,
        "channel": 1
      },
      {
        "type": "note_on",
        "time": 0,
        "note": 55,
        "velocity": 0,
        "channel": 1
      },
      {
        "type": "note_on",
        "time": 0,
        "note": 55,
        "velocity": 100,
        "channel": 1
      },
      {
        "type": "note_on",
        "time": 0,
        "note": 62,
        "velocity": 100,
        "channel": 1
      },
      {
        "type": "note_on",
        "time": 0,
        "note": 67,
        "velocity": 100,
        "channel": 1
      },
      {
        "type": "note_on",
        "time": 30,
        "note": 67,
        "velocity": 0,
        "channel": 1
      },
      {
        "type": "note_on",
        "time": 0,
        "note": 62,
        "velocity": 0,
        "channel": 1
      },
      {
        "type": "note_on",
        "time": 0,
        "note": 55,
        "velocity": 0,
        "channel": 1
      },
      {
        "type": "note_on",
        "time": 0,
        "note": 57,
        "velocity": 100,
        "channel": 1
      },
      {
        "type": "note_on",
        "time": 0,
        "note": 62,
        "velocity": 100,
        "channel": 1
      },
      {
        "type": "note_on",
        "time": 0,
        "note": 66,
        "velocity": 100,
        "channel": 1
      },
      {
        "type": "note_on",
        "time": 120,
        "note": 66,
        "velocity": 0,
        "channel": 1
      },
      {
        "type": "note_on",
        "time": 0,
        "note": 62,
        "velocity": 0,
        "channel": 1
      },
      {
        "type": "note_on",
        "time": 0,
        "note": 57,
        "velocity": 0,
        "channel": 1
      },
      {
        "type": "note_on",
        "time": 0,
        "note": 57,
        "velocity": 100,
        "channel": 1
      },
      {
        "type": "note_on",
        "time": 0,
        "note": 62,
        "velocity": 100,
        "channel": 1
      },
      {
        "type": "note_on",
        "time": 0,
        "note": 66,
        "velocity": 100,
        "channel": 1
      },
      {
        "type": "note_on",
        "time": 60,
        "note": 66,
        "velocity": 0,
        "channel": 1
      },
      {
        "type": "note_on",
        "time": 0,
        "note": 62,
        "velocity": 0,
        "channel": 1
      },
      {
        "type": "note_on",
        "time": 0,
        "note": 57,
        "velocity": 0,
        "channel": 1
      },
      {
        "type": "note_on",
        "time": 0,
        "note": 57,
        "velocity": 100,
        "channel": 1
      },
      {
        "type": "note_on",
        "time": 0,
        "note": 66,
        "velocity": 100,
        "channel": 1
      },
      {
        "type": "note_on",
        "time": 30,
        "note": 57,
        "velocity": 0,
        "channel": 1
      },
      {
        "type": "note_on",
        "time": 0,
        "note": 57,
        "velocity": 100,
        "channel": 1
      },
      {
        "type": "note_on",
        "time": 0,
        "note": 62,
        "velocity": 100,
        "channel": 1
      },
      {
        "type": "note_on",
        "time": 30,
        "note": 62,
        "velocity": 0,
        "channel": 1
      },
      {
        "type": "note_on",
        "time": 0,
        "note": 57,
        "velocity": 0,
        "channel": 1
      },
      {
        "type": "note_on",
        "time": 0,
        "note": 66,
        "velocity": 0,
        "channel": 1
      },
      {
        "type": "note_on",
        "time": 0,
        "note": 57,
        "velocity": 100,
        "channel": 1
      },
      {
        "type": "note_on",
        "time": 0,
        "note": 62,
        "velocity": 100,
        "channel": 1
      },
      {
        "type": "note_on",
        "time": 60,
        "note": 62,
        "velocity": 0,
        "channel": 1
      },
      {
        "type": "note_on",
        "time": 0,
        "note": 57,
        "velocity": 0,
        "channel": 1
      },
      {
        "type": "note_on",
        "time": 0,
        "note": 59,
        "velocity": 100,
        "channel": 1
      },
      {
        "type": "note_on",
        "time": 0,
        "note": 54,
        "velocity": 100,
        "channel": 1
      },
      {
        "type": "note_on",
        "time": 0,
        "note": 66,
        "velocity": 100,
        "channel": 1
      },
      {
        "type": "note_on",
        "time": 90,
        "note": 66,
        "velocity": 0,
        "channel": 1
      },
      {
        "type": "note_on",
        "time": 0,
        "note": 54,
        "velocity": 0,
        "channel": 1
      },
      {
        "type": "note_on",
        "time": 0,
        "note": 59,
        "velocity": 0,
        "channel": 1
      },
      {
        "type": "note_on",
        "time": 0,
        "note": 66,
        "velocity": 100,
        "channel": 1
      },
      {
        "type": "note_on",
        "time": 0,
        "note": 59,
        "velocity": 100,
        "channel": 1
      },
      {
        "type": "note_on",
        "time": 30,
        "note": 59,
        "velocity": 0,
        "channel": 1
      },
      {
        "type": "note_on",
        "time": 0,
        "note": 66,
        "velocity": 0,
        "channel": 1
      },
      {
        "type": "note_on",
        "time": 0,
        "note": 54,
        "velocity": 100,
        "channel": 1
      },
      {
        "type": "note_on",
        "time": 0,
        "note": 59,
        "velocity": 100,
        "channel": 1
      },
      {
        "type": "note_on",
        "time": 0,
        "note": 66,
        "velocity": 100,
        "channel": 1
      },
      {
        "type": "note_on",
        "time": 60,
        "note": 66,
        "velocity": 0,
        "channel": 1
      },
      {
        "type": "note_on",
        "time": 0,
        "note": 59,
        "velocity": 0,
        "channel": 1
      },
      {
        "type": "note_on",
        "time": 0,
        "note": 54,
        "velocity": 0,
        "channel": 1
      },
      {
        "type": "note_on",
        "time": 0,
        "note": 60,
        "velocity": 100,
        "channel": 1
      },
      {
        "type": "note_on",
        "time": 0,
        "note": 64,
        "velocity": 100,
        "channel": 1
      },
      {
        "type": "note_on",
        "time": 0,
        "note": 67,
        "velocity": 100,
        "channel": 1
      },
      {
        "type": "note_on",
        "time": 120,
        "note": 67,
        "velocity": 0,
        "channel": 1
      },
      {
        "type": "note_on",
        "time": 0,
        "note": 64,
        "velocity": 0,
        "channel": 1
      },
      {
        "type": "note_on",
        "time": 0,
        "note": 60,
        "velocity": 0,
        "channel": 1
      },
      {
        "type": "note_on",
        "time": 0,
        "note": 60,
        "velocity": 100,
        "channel": 1
      },
      {
        "type": "note_on",
        "time": 0,
        "note": 64,
        "velocity": 100,
        "channel": 1
      },
      {
        "type": "note_on",
        "time": 0,
        "note": 67,
        "velocity": 100,
        "channel": 1
      },
      {
        "type": "note_on",
        "time": 60,
        "note": 67,
        "velocity": 0,
        "channel": 1
      },
      {
        "type": "note_on",
        "time": 0,
        "note": 64,
        "velocity": 0,
        "channel": 1
      },
      {
        "type": "note_on",
        "time": 0,
        "note": 60,
        "velocity": 0,
        "channel": 1
      },
      {
        "type": "note_on",
        "time": 0,
        "note": 64,
        "velocity": 100,
        "channel": 1
      },
      {
        "type": "note_on",
        "time": 0,
        "note": 67,
        "velocity": 100,
        "channel": 1
      },
      {
        "type": "note_on",
        "time": 0,
        "note": 60,
        "velocity": 100,
        "channel": 1
      },
      {
        "type": "note_on",
        "time": 30,
        "note": 60,
        "velocity": 0,
        "channel": 1
      },
      {
        "type": "note_on",
        "time": 0,
        "note": 64,
        "velocity": 0,
        "channel": 1
      },
      {
        "type": "note_on",
        "time": 0,
        "note": 60,
        "velocity": 100,
        "channel": 1
      },
      {
        "type": "note_on",
        "time": 30,
        "note": 60,
        "velocity": 0,
        "channel": 1
      },
      {
        "type": "note_on",
        "time": 0,
        "note": 67,
        "velocity": 0,
        "channel": 1
      },
      {
        "type": "note_on",
        "time": 0,
        "note": 64,
        "velocity": 100,
        "channel": 1
      },
      {
        "type": "note_on",
        "time": 0,
        "note": 67,
        "velocity": 100,
        "channel": 1
      },
      {
        "type": "note_on",
        "time": 30,
        "note": 67,
        "velocity": 0,
        "channel": 1
      },
      {
        "type": "note_on",
        "time": 0,
        "note": 64,
        "velocity": 0,
        "channel": 1
      },
      {
        "type": "note_on",
        "time": 0,
        "note": 64,
        "velocity": 100,
        "channel": 1
      },
      {
        "type": "note_on",
        "time": 0,
        "note": 67,
        "velocity": 100,
        "channel": 1
      },
      {
        "type": "note_on",
        "time": 30,
        "note": 67,
        "velocity": 0,
        "channel": 1
      },
      {
        "type": "note_on",
        "time": 0,
        "note": 64,
        "velocity": 0,
        "channel": 1
      },
      {
        "type": "note_on",
        "time": 0,
        "note": 55,
        "velocity": 100,
        "channel": 1
      },
      {
        "type": "note_on",
        "time": 0,
        "note": 62,
        "velocity": 100,
        "channel": 1
      },
      {
        "type": "note_on",
        "time": 0,
        "note": 67,
        "velocity": 100,
        "channel": 1
      },
      {
        "type": "note_on",
        "time": 90,
        "note": 67,
        "velocity": 0,
        "channel": 1
      },
      {
        "type": "note_on",
        "time": 0,
        "note": 62,
        "velocity": 0,
        "channel": 1
      },
      {
        "type": "note_on",
        "time": 0,
        "note": 55,
        "velocity": 0,
        "channel": 1
      },
      {
        "type": "note_on",
        "time": 0,
        "note": 55,
        "velocity": 100,
        "channel": 1
      },
      {
        "type": "note_on",
        "time": 0,
        "note": 62,
        "velocity": 100,
        "channel": 1
      },
      {
        "type": "note_on",
        "time": 0,
        "note": 67,
        "velocity": 100,
        "channel": 1
      },
      {
        "type": "note_on",
        "time": 30,
        "note": 67,
        "velocity": 0,
        "channel": 1
      },
      {
        "type": "note_on",
        "time": 0,
        "note": 62,
        "velocity": 0,
        "channel": 1
      },
      {
        "type": "note_on",
        "time": 0,
        "note": 55,
        "velocity": 0,
        "channel": 1
      },
      {
        "type": "note_on",
        "time": 0,
        "note": 55,
        "velocity": 100,
        "channel": 1
      },
      {
        "type": "note_on",
        "time": 0,
        "note": 62,
        "velocity": 100,
        "channel": 1
      },
      {
        "type": "note_on",
        "time": 30,
        "note": 62,
        "velocity": 0,
        "channel": 1
      },
      {
        "type": "note_on",
        "time": 0,
        "note": 55,
        "velocity": 0,
        "channel": 1
      },
      {
        "type": "note_on",
        "time": 0,
        "note": 55,
        "velocity": 100,
        "channel": 1
      },
      {
        "type": "note_on",
        "time": 0,
        "note": 62,
        "velocity": 100,
        "channel": 1
      },
      {
        "type": "note_on",
        "time": 0,
        "note": 67,
        "velocity": 100,
        "channel": 1
      },
      {
        "type": "note_on",
        "time": 30,
        "note": 67,
        "velocity": 0,
        "channel": 1
      },
      {
        "type": "note_on",
        "time": 0,
        "note": 62,
        "velocity": 0,
        "channel": 1
      },
      {
        "type": "note_on",
        "time": 0,
        "note": 55,
        "velocity": 0,
        "channel": 1
      },
      {
        "type": "note_on",
        "time": 0,
        "note": 57,
        "velocity": 100,
        "channel": 1
      },
      {
        "type": "note_on",
        "time": 0,
        "note": 62,
        "velocity": 100,
        "channel": 1
      },
      {
        "type": "note_on",
        "time": 0,
        "note": 66,
        "velocity": 100,
        "channel": 1
      },
      {
        "type": "note_on",
        "time": 120,
        "note": 66,
        "velocity": 0,
        "channel": 1
      },
      {
        "type": "note_on",
        "time": 0,
        "note": 62,
        "velocity": 0,
        "channel": 1
      },
      {
        "type": "note_on",
        "time": 0,
        "note": 57,
        "velocity": 0,
        "channel": 1
      },
      {
        "type": "note_on",
        "time": 0,
        "note": 57,
        "velocity": 100,
        "channel": 1
      },
      {
        "type": "note_on",
        "time": 0,
        "note": 62,
        "velocity": 100,
        "channel": 1
      },
      {
        "type": "note_on",
        "time": 0,
        "note": 66,
        "velocity": 100,
        "channel": 1
      },
      {
        "type": "note_on",
        "time": 60,
        "note": 66,
        "velocity": 0,
        "channel": 1
      },
      {
        "type": "note_on",
        "time": 0,
        "note": 62,
        "velocity": 0,
        "channel": 1
      },
      {
        "type": "note_on",
        "time": 0,
        "note": 57,
        "velocity": 0,
        "channel": 1
      },
      {
        "type": "note_on",
        "time": 0,
        "note": 57,
        "velocity": 100,
        "channel": 1
      },
      {
        "type": "note_on",
        "time": 0,
        "note": 66,
        "velocity": 100,
        "channel": 1
      },
      {
        "type": "note_on",
        "time": 30,
        "note": 57,
        "velocity": 0,
        "channel": 1
      },
      {
        "type": "note_on",
        "time": 0,
        "note": 57,
        "velocity": 100,
        "channel": 1
      },
      {
        "type": "note_on",
        "time": 0,
        "note": 62,
        "velocity": 100,
        "channel": 1
      },
      {
        "type": "note_on",
        "time": 30,
        "note": 62,
        "velocity": 0,
        "channel": 1
      },
      {
        "type": "note_on",
        "time": 0,
        "note": 57,
        "velocity": 0,
        "channel": 1
      },
      {
        "type": "note_on",
        "time": 0,
        "note": 66,
        "velocity": 0,
        "channel": 1
      },
      {
        "type": "note_on",
        "time": 0,
        "note": 57,
        "velocity": 100,
        "channel": 1
      },
      {
        "type": "note_on",
        "time": 0,
        "note": 62,
        "velocity": 100,
        "channel": 1
      },
      {
        "type": "note_on",
        "time": 60,
        "note": 62,
        "velocity": 0,
        "channel": 1
      },
      {
        "type": "note_on",
        "time": 0,
        "note": 57,
        "velocity": 0,
        "channel": 1
      },
      {
        "type": "note_on",
        "time": 0,
        "note": 59,
        "velocity": 100,
        "channel": 1
      },
      {
        "type": "note_on",
        "time": 0,
        "note": 62,
        "velocity": 100,
        "channel": 1
      },
      {
        "type": "note_on",
        "time": 0,
        "note": 66,
        "velocity": 100,
        "channel": 1
      },
      {
        "type": "note_on",
        "time": 120,
        "note": 66,
        "velocity": 0,
        "channel": 1
      },
      {
        "type": "note_on",
        "time": 0,
        "note": 62,
        "velocity": 0,
        "channel": 1
      },
      {
        "type": "note_on",
        "time": 0,
        "note": 59,
        "velocity": 0,
        "channel": 1
      },
      {
        "type": "note_on",
        "time": 0,
        "note": 64,
        "velocity": 100,
        "channel": 1
      },
      {
        "type": "note_on",
        "time": 0,
        "note": 67,
        "velocity": 100,
        "channel": 1
      },
      {
        "type": "note_on",
        "time": 0,
        "note": 60,
        "velocity": 100,
        "channel": 1
      },
      {
        "type": "note_on",
        "time": 360,
        "note": 60,
        "velocity": 0,
        "channel": 1
      },
      {
        "type": "note_on",
        "time": 0,
        "note": 67,
        "velocity": 0,
        "channel": 1
      },
      {
        "type": "note_on",
        "time": 0,
        "note": 64,
        "velocity": 0,
        "channel": 1
      },
      {
        "type": "note_on",
        "time": 0,
        "note": 59,
        "velocity": 100,
        "channel": 1
      },
      {
        "type": "note_on",
        "time": 0,
        "note": 52,
        "velocity": 100,
        "channel": 1
      },
      {
        "type": "note_on",
        "time": 30,
        "note": 52,
        "velocity": 0,
        "channel": 1
      },
      {
        "type": "note_on",
        "time": 0,
        "note": 59,
        "velocity": 0,
        "channel": 1
      },
      {
        "type": "note_on",
        "time": 0,
        "note": 59,
        "velocity": 101,
        "channel": 1
      },
      {
        "type": "note_on",
        "time": 0,
        "note": 52,
        "velocity": 101,
        "channel": 1
      },
      {
        "type": "note_on",
        "time": 30,
        "note": 52,
        "velocity": 0,
        "channel": 1
      },
      {
        "type": "note_on",
        "time": 0,
        "note": 59,
        "velocity": 0,
        "channel": 1
      },
      {
        "type": "note_on",
        "time": 0,
        "note": 59,
        "velocity": 102,
        "channel": 1
      },
      {
        "type": "note_on",
        "time": 0,
        "note": 62,
        "velocity": 102,
        "channel": 1
      },
      {
        "type": "note_on",
        "time": 45,
        "note": 62,
        "velocity": 0,
        "channel": 1
      },
      {
        "type": "note_on",
        "time": 0,
        "note": 59,
        "velocity": 0,
        "channel": 1
      },
      {
        "type": "note_on",
        "time": 15,
        "note": 59,
        "velocity": 103,
        "channel": 1
      },
      {
        "type": "note_on",
        "time": 0,
        "note": 64,
        "velocity": 103,
        "channel": 1
      },
      {
        "type": "note_on",
        "time": 45,
        "note": 64,
        "velocity": 0,
        "channel": 1
      },
      {
        "type": "note_on",
        "time": 0,
        "note": 59,
        "velocity": 0,
        "channel": 1
      },
      {
        "type": "note_on",
        "time": 15,
        "note": 59,
        "velocity": 102,
        "channel": 1
      },
      {
        "type": "note_on",
        "time": 0,
        "note": 52,
        "velocity": 102,
        "channel": 1
      },
      {
        "type": "note_on",
        "time": 30,
        "note": 52,
        "velocity": 0,
        "channel": 1
      },
      {
        "type": "note_on",
        "time": 0,
        "note": 59,
        "velocity": 0,
        "channel": 1
      },
      {
        "type": "note_on",
        "time": 0,
        "note": 59,
        "velocity": 102,
        "channel": 1
      },
      {
        "type": "note_on",
        "time": 0,
        "note": 52,
        "velocity": 102,
        "channel": 1
      },
      {
        "type": "note_on",
        "time": 30,
        "note": 52,
        "velocity": 0,
        "channel": 1
      },
      {
        "type": "note_on",
        "time": 0,
        "note": 59,
        "velocity": 0,
        "channel": 1
      },
      {
        "type": "note_on",
        "time": 0,
        "note": 59,
        "velocity": 101,
        "channel": 1
      },
      {
        "type": "note_on",
        "time": 0,
        "note": 52,
        "velocity": 101,
        "channel": 1
      },
      {
        "type": "note_on",
        "time": 30,
        "note": 52,
        "velocity": 0,
        "channel": 1
      },
      {
        "type": "note_on",
        "time": 0,
        "note": 59,
        "velocity": 0,
        "channel": 1
      },
      {
        "type": "note_on",
        "time": 0,
        "note": 59,
        "velocity": 98,
        "channel": 1
      },
      {
        "type": "note_on",
        "time": 0,
        "note": 62,
        "velocity": 98,
        "channel": 1
      },
      {
        "type": "note_on",
        "time": 0,
        "note": 52,
        "velocity": 98,
        "channel": 1
      },
      {
        "type": "note_on",
        "time": 45,
        "note": 52,
        "velocity": 0,
        "channel": 1
      },
      {
        "type": "note_on",
        "time": 0,
        "note": 62,
        "velocity": 0,
        "channel": 1
      },
      {
        "type": "note_on",
        "time": 0,
        "note": 59,
        "velocity": 0,
        "channel": 1
      },
      {
        "type": "note_on",
        "time": 15,
        "note": 59,
        "velocity": 98,
        "channel": 1
      },
      {
        "type": "note_on",
        "time": 0,
        "note": 64,
        "velocity": 98,
        "channel": 1
      },
      {
        "type": "note_on",
        "time": 0,
        "note": 52,
        "velocity": 98,
        "channel": 1
      },
      {
        "type": "note_on",
        "time": 45,
        "note": 52,
        "velocity": 0,
        "channel": 1
      },
      {
        "type": "note_on",
        "time": 0,
        "note": 64,
        "velocity": 0,
        "channel": 1
      },
      {
        "type": "note_on",
        "time": 0,
        "note": 59,
        "velocity": 0,
        "channel": 1
      },
      {
        "type": "note_on",
        "time": 15,
        "note": 59,
        "velocity": 101,
        "channel": 1
      },
      {
        "type": "note_on",
        "time": 0,
        "note": 52,
        "velocity": 101,
        "channel": 1
      },
      {
        "type": "note_on",
        "time": 30,
        "note": 52,
        "velocity": 0,
        "channel": 1
      },
      {
        "type": "note_on",
        "time": 0,
        "note": 59,
        "velocity": 0,
        "channel": 1
      },
      {
        "type": "note_on",
        "time": 0,
        "note": 59,
        "velocity": 101,
        "channel": 1
      },
      {
        "type": "note_on",
        "time": 0,
        "note": 52,
        "velocity": 101,
        "channel": 1
      },
      {
        "type": "note_on",
        "time": 30,
        "note": 52,
        "velocity": 0,
        "channel": 1
      },
      {
        "type": "note_on",
        "time": 0,
        "note": 59,
        "velocity": 0,
        "channel": 1
      },
      {
        "type": "note_on",
        "time": 0,
        "note": 59,
        "velocity": 101,
        "channel": 1
      },
      {
        "type": "note_on",
        "time": 0,
        "note": 52,
        "velocity": 101,
        "channel": 1
      },
      {
        "type": "note_on",
        "time": 30,
        "note": 52,
        "velocity": 0,
        "channel": 1
      },
      {
        "type": "note_on",
        "time": 0,
        "note": 59,
        "velocity": 0,
        "channel": 1
      },
      {
        "type": "note_on",
        "time": 0,
        "note": 57,
        "velocity": 101,
        "channel": 1
      },
      {
        "type": "note_on",
        "time": 0,
        "note": 50,
        "velocity": 101,
        "channel": 1
      },
      {
        "type": "note_on",
        "time": 30,
        "note": 50,
        "velocity": 0,
        "channel": 1
      },
      {
        "type": "note_on",
        "time": 0,
        "note": 57,
        "velocity": 0,
        "channel": 1
      },
      {
        "type": "note_on",
        "time": 0,
        "note": 57,
        "velocity": 101,
        "channel": 1
      },
      {
        "type": "note_on",
        "time": 0,
        "note": 50,
        "velocity": 101,
        "channel": 1
      },
      {
        "type": "note_on",
        "time": 30,
        "note": 50,
        "velocity": 0,
        "channel": 1
      },
      {
        "type": "note_on",
        "time": 0,
        "note": 57,
        "velocity": 0,
        "channel": 1
      },
      {
        "type": "note_on",
        "time": 0,
        "note": 57,
        "velocity": 101,
        "channel": 1
      },
      {
        "type": "note_on",
        "time": 0,
        "note": 62,
        "velocity": 101,
        "channel": 1
      },
      {
        "type": "note_on",
        "time": 45,
        "note": 62,
        "velocity": 0,
        "channel": 1
      },
      {
        "type": "note_on",
        "time": 0,
        "note": 57,
        "velocity": 0,
        "channel": 1
      },
      {
        "type": "note_on",
        "time": 15,
        "note": 62,
        "velocity": 101,
        "channel": 1
      },
      {
        "type": "note_on",
        "time": 0,
        "note": 64,
        "velocity": 100,
        "channel": 1
      },
      {
        "type": "note_on",
        "time": 45,
        "note": 64,
        "velocity": 0,
        "channel": 1
      },
      {
        "type": "note_on",
        "time": 0,
        "note": 62,
        "velocity": 0,
        "channel": 1
      },
      {
        "type": "note_on",
        "time": 15,
        "note": 57,
        "velocity": 100,
        "channel": 1
      },
      {
        "type": "note_on",
        "time": 0,
        "note": 50,
        "velocity": 100,
        "channel": 1
      },
      {
        "type": "note_on",
        "time": 30,
        "note": 50,
        "velocity": 0,
        "channel": 1
      },
      {
        "type": "note_on",
        "time": 0,
        "note": 57,
        "velocity": 0,
        "channel": 1
      },
      {
        "type": "note_on",
        "time": 0,
        "note": 57,
        "velocity": 100,
        "channel": 1
      },
      {
        "type": "note_on",
        "time": 0,
        "note": 50,
        "velocity": 100,
        "channel": 1
      },
      {
        "type": "note_on",
        "time": 30,
        "note": 50,
        "velocity": 0,
        "channel": 1
      },
      {
        "type": "note_on",
        "time": 0,
        "note": 57,
        "velocity": 0,
        "channel": 1
      },
      {
        "type": "note_on",
        "time": 0,
        "note": 57,
        "velocity": 100,
        "channel": 1
      },
      {
        "type": "note_on",
        "time": 0,
        "note": 50,
        "velocity": 100,
        "channel": 1
      },
      {
        "type": "note_on",
        "time": 30,
        "note": 50,
        "velocity": 0,
        "channel": 1
      },
      {
        "type": "note_on",
        "time": 0,
        "note": 57,
        "velocity": 0,
        "channel": 1
      },
      {
        "type": "note_on",
        "time": 0,
        "note": 57,
        "velocity": 101,
        "channel": 1
      },
      {
        "type": "note_on",
        "time": 0,
        "note": 62,
        "velocity": 100,
        "channel": 1
      },
      {
        "type": "note_on",
        "time": 45,
        "note": 62,
        "velocity": 0,
        "channel": 1
      },
      {
        "type": "note_on",
        "time": 0,
        "note": 57,
        "velocity": 0,
        "channel": 1
      },
      {
        "type": "note_on",
        "time": 15,
        "note": 62,
        "velocity": 101,
        "channel": 1
      },
      {
        "type": "note_on",
        "time": 0,
        "note": 64,
        "velocity": 100,
        "channel": 1
      },
      {
        "type": "note_on",
        "time": 45,
        "note": 64,
        "velocity": 0,
        "channel": 1
      },
      {
        "type": "note_on",
        "time": 0,
        "note": 62,
        "velocity": 0,
        "channel": 1
      },
      {
        "type": "note_on",
        "time": 15,
        "note": 57,
        "velocity": 100,
        "channel": 1
      },
      {
        "type": "note_on",
        "time": 0,
        "note": 50,
        "velocity": 100,
        "channel": 1
      },
      {
        "type": "note_on",
        "time": 30,
        "note": 50,
        "velocity": 0,
        "channel": 1
      },
      {
        "type": "note_on",
        "time": 0,
        "note": 57,
        "velocity": 0,
        "channel": 1
      },
      {
        "type": "note_on",
        "time": 0,
        "note": 57,
        "velocity": 100,
        "channel": 1
      },
      {
        "type": "note_on",
        "time": 0,
        "note": 50,
        "velocity": 100,
        "channel": 1
      },
      {
        "type": "note_on",
        "time": 30,
        "note": 50,
        "velocity": 0,
        "channel": 1
      },
      {
        "type": "note_on",
        "time": 0,
        "note": 57,
        "velocity": 0,
        "channel": 1
      },
      {
        "type": "note_on",
        "time": 0,
        "note": 57,
        "velocity": 100,
        "channel": 1
      },
      {
        "type": "note_on",
        "time": 0,
        "note": 50,
        "velocity": 100,
        "channel": 1
      },
      {
        "type": "note_on",
        "time": 30,
        "note": 50,
        "velocity": 0,
        "channel": 1
      },
      {
        "type": "note_on",
        "time": 0,
        "note": 57,
        "velocity": 0,
        "channel": 1
      },
      {
        "type": "note_on",
        "time": 0,
        "note": 54,
        "velocity": 100,
        "channel": 1
      },
      {
        "type": "note_on",
        "time": 0,
        "note": 47,
        "velocity": 100,
        "channel": 1
      },
      {
        "type": "note_on",
        "time": 30,
        "note": 47,
        "velocity": 0,
        "channel": 1
      },
      {
        "type": "note_on",
        "time": 0,
        "note": 54,
        "velocity": 0,
        "channel": 1
      },
      {
        "type": "note_on",
        "time": 0,
        "note": 54,
        "velocity": 100,
        "channel": 1
      },
      {
        "type": "note_on",
        "time": 0,
        "note": 47,
        "velocity": 100,
        "channel": 1
      },
      {
        "type": "note_on",
        "time": 30,
        "note": 47,
        "velocity": 0,
        "channel": 1
      },
      {
        "type": "note_on",
        "time": 0,
        "note": 54,
        "velocity": 0,
        "channel": 1
      },
      {
        "type": "note_on",
        "time": 0,
        "note": 62,
        "velocity": 101,
        "channel": 1
      },
      {
        "type": "note_on",
        "time": 0,
        "note": 54,
        "velocity": 101,
        "channel": 1
      },
      {
        "type": "note_on",
        "time": 45,
        "note": 54,
        "velocity": 0,
        "channel": 1
      },
      {
        "type": "note_on",
        "time": 0,
        "note": 62,
        "velocity": 0,
        "channel": 1
      },
      {
        "type": "note_on",
        "time": 15,
        "note": 59,
        "velocity": 101,
        "channel": 1
      },
      {
        "type": "note_on",
        "time": 0,
        "note": 64,
        "velocity": 101,
        "channel": 1
      },
      {
        "type": "note_on",
        "time": 45,
        "note": 64,
        "velocity": 0,
        "channel": 1
      },
      {
        "type": "note_on",
        "time": 0,
        "note": 59,
        "velocity": 0,
        "channel": 1
      },
      {
        "type": "note_on",
        "time": 15,
        "note": 54,
        "velocity": 101,
        "channel": 1
      },
      {
        "type": "note_on",
        "time": 0,
        "note": 47,
        "velocity": 101,
        "channel": 1
      },
      {
        "type": "note_on",
        "time": 30,
        "note": 47,
        "velocity": 0,
        "channel": 1
      },
      {
        "type": "note_on",
        "time": 0,
        "note": 54,
        "velocity": 0,
        "channel": 1
      },
      {
        "type": "note_on",
        "time": 0,
        "note": 54,
        "velocity": 102,
        "channel": 1
      },
      {
        "type": "note_on",
        "time": 0,
        "note": 47,
        "velocity": 102,
        "channel": 1
      },
      {
        "type": "note_on",
        "time": 30,
        "note": 47,
        "velocity": 0,
        "channel": 1
      },
      {
        "type": "note_on",
        "time": 0,
        "note": 54,
        "velocity": 0,
        "channel": 1
      },
      {
        "type": "note_on",
        "time": 0,
        "note": 47,
        "velocity": 103,
        "channel": 1
      },
      {
        "type": "note_on",
        "time": 0,
        "note": 54,
        "velocity": 103,
        "channel": 1
      },
      {
        "type": "note_on",
        "time": 30,
        "note": 54,
        "velocity": 0,
        "channel": 1
      },
      {
        "type": "note_on",
        "time": 0,
        "note": 47,
        "velocity": 0,
        "channel": 1
      },
      {
        "type": "note_on",
        "time": 0,
        "note": 54,
        "velocity": 101,
        "channel": 1
      },
      {
        "type": "note_on",
        "time": 0,
        "note": 62,
        "velocity": 104,
        "channel": 1
      },
      {
        "type": "note_on",
        "time": 45,
        "note": 62,
        "velocity": 0,
        "channel": 1
      },
      {
        "type": "note_on",
        "time": 0,
        "note": 54,
        "velocity": 0,
        "channel": 1
      },
      {
        "type": "note_on",
        "time": 15,
        "note": 59,
        "velocity": 101,
        "channel": 1
      },
      {
        "type": "note_on",
        "time": 0,
        "note": 64,
        "velocity": 105,
        "channel": 1
      },
      {
        "type": "note_on",
        "time": 45,
        "note": 64,
        "velocity": 0,
        "channel": 1
      },
      {
        "type": "note_on",
        "time": 0,
        "note": 59,
        "velocity": 0,
        "channel": 1
      },
      {
        "type": "note_on",
        "time": 15,
        "note": 47,
        "velocity": 105,
        "channel": 1
      },
      {
        "type": "note_on",
        "time": 0,
        "note": 54,
        "velocity": 105,
        "channel": 1
      },
      {
        "type": "note_on",
        "time": 30,
        "note": 54,
        "velocity": 0,
        "channel": 1
      },
      {
        "type": "note_on",
        "time": 0,
        "note": 47,
        "velocity": 0,
        "channel": 1
      },
      {
        "type": "note_on",
        "time": 0,
        "note": 54,
        "velocity": 99,
        "channel": 1
      },
      {
        "type": "note_on",
        "time": 0,
        "note": 47,
        "velocity": 99,
        "channel": 1
      },
      {
        "type": "note_on",
        "time": 30,
        "note": 47,
        "velocity": 0,
        "channel": 1
      },
      {
        "type": "note_on",
        "time": 0,
        "note": 54,
        "velocity": 0,
        "channel": 1
      },
      {
        "type": "note_on",
        "time": 0,
        "note": 54,
        "velocity": 99,
        "channel": 1
      },
      {
        "type": "note_on",
        "time": 0,
        "note": 47,
        "velocity": 99,
        "channel": 1
      },
      {
        "type": "note_on",
        "time": 30,
        "note": 47,
        "velocity": 0,
        "channel": 1
      },
      {
        "type": "note_on",
        "time": 0,
        "note": 54,
        "velocity": 0,
        "channel": 1
      },
      {
        "type": "note_on",
        "time": 0,
        "note": 55,
        "velocity": 100,
        "channel": 1
      },
      {
        "type": "note_on",
        "time": 0,
        "note": 48,
        "velocity": 99,
        "channel": 1
      },
      {
        "type": "note_on",
        "time": 30,
        "note": 48,
        "velocity": 0,
        "channel": 1
      },
      {
        "type": "note_on",
        "time": 0,
        "note": 55,
        "velocity": 0,
        "channel": 1
      },
      {
        "type": "note_on",
        "time": 0,
        "note": 55,
        "velocity": 100,
        "channel": 1
      },
      {
        "type": "note_on",
        "time": 0,
        "note": 48,
        "velocity": 99,
        "channel": 1
      },
      {
        "type": "note_on",
        "time": 30,
        "note": 48,
        "velocity": 0,
        "channel": 1
      },
      {
        "type": "note_on",
        "time": 0,
        "note": 55,
        "velocity": 0,
        "channel": 1
      },
      {
        "type": "note_on",
        "time": 0,
        "note": 55,
        "velocity": 101,
        "channel": 1
      },
      {
        "type": "note_on",
        "time": 0,
        "note": 62,
        "velocity": 99,
        "channel": 1
      },
      {
        "type": "note_on",
        "time": 45,
        "note": 62,
        "velocity": 0,
        "channel": 1
      },
      {
        "type": "note_on",
        "time": 0,
        "note": 55,
        "velocity": 0,
        "channel": 1
      },
      {
        "type": "note_on",
        "time": 15,
        "note": 60,
        "velocity": 101,
        "channel": 1
      },
      {
        "type": "note_on",
        "time": 0,
        "note": 64,
        "velocity": 99,
        "channel": 1
      },
      {
        "type": "note_on",
        "time": 45,
        "note": 64,
        "velocity": 0,
        "channel": 1
      },
      {
        "type": "note_on",
        "time": 0,
        "note": 60,
        "velocity": 0,
        "channel": 1
      },
      {
        "type": "note_on",
        "time": 15,
        "note": 55,
        "velocity": 100,
        "channel": 1
      },
      {
        "type": "note_on",
        "time": 0,
        "note": 48,
        "velocity": 99,
        "channel": 1
      },
      {
        "type": "note_on",
        "time": 30,
        "note": 48,
        "velocity": 0,
        "channel": 1
      },
      {
        "type": "note_on",
        "time": 0,
        "note": 55,
        "velocity": 0,
        "channel": 1
      },
      {
        "type": "note_on",
        "time": 0,
        "note": 55,
        "velocity": 100,
        "channel": 1
      },
      {
        "type": "note_on",
        "time": 0,
        "note": 48,
        "velocity": 99,
        "channel": 1
      },
      {
        "type": "note_on",
        "time": 30,
        "note": 48,
        "velocity": 0,
        "channel": 1
      },
      {
        "type": "note_on",
        "time": 0,
        "note": 55,
        "velocity": 0,
        "channel": 1
      },
      {
        "type": "note_on",
        "time": 0,
        "note": 55,
        "velocity": 100,
        "channel": 1
      },
      {
        "type": "note_on",
        "time": 0,
        "note": 48,
        "velocity": 100,
        "channel": 1
      },
      {
        "type": "note_on",
        "time": 30,
        "note": 48,
        "velocity": 0,
        "channel": 1
      },
      {
        "type": "note_on",
        "time": 0,
        "note": 55,
        "velocity": 0,
        "channel": 1
      },
      {
        "type": "note_on",
        "time": 0,
        "note": 55,
        "velocity": 101,
        "channel": 1
      },
      {
        "type": "note_on",
        "time": 0,
        "note": 62,
        "velocity": 100,
        "channel": 1
      },
      {
        "type": "note_on",
        "time": 45,
        "note": 62,
        "velocity": 0,
        "channel": 1
      },
      {
        "type": "note_on",
        "time": 0,
        "note": 55,
        "velocity": 0,
        "channel": 1
      },
      {
        "type": "note_on",
        "time": 15,
        "note": 60,
        "velocity": 101,
        "channel": 1
      },
      {
        "type": "note_on",
        "time": 0,
        "note": 64,
        "velocity": 102,
        "channel": 1
      },
      {
        "type": "note_on",
        "time": 45,
        "note": 64,
        "velocity": 0,
        "channel": 1
      },
      {
        "type": "note_on",
        "time": 0,
        "note": 60,
        "velocity": 0,
        "channel": 1
      },
      {
        "type": "note_on",
        "time": 15,
        "note": 55,
        "velocity": 100,
        "channel": 1
      },
      {
        "type": "note_on",
        "time": 0,
        "note": 48,
        "velocity": 103,
        "channel": 1
      },
      {
        "type": "note_on",
        "time": 30,
        "note": 48,
        "velocity": 0,
        "channel": 1
      },
      {
        "type": "note_on",
        "time": 0,
        "note": 55,
        "velocity": 0,
        "channel": 1
      },
      {
        "type": "note_on",
        "time": 0,
        "note": 55,
        "velocity": 100,
        "channel": 1
      },
      {
        "type": "note_on",
        "time": 0,
        "note": 48,
        "velocity": 103,
        "channel": 1
      },
      {
        "type": "note_on",
        "time": 30,
        "note": 48,
        "velocity": 0,
        "channel": 1
      },
      {
        "type": "note_on",
        "time": 0,
        "note": 55,
        "velocity": 0,
        "channel": 1
      },
      {
        "type": "note_on",
        "time": 0,
        "note": 55,
        "velocity": 100,
        "channel": 1
      },
      {
        "type": "note_on",
        "time": 0,
        "note": 48,
        "velocity": 104,
        "channel": 1
      },
      {
        "type": "note_on",
        "time": 30,
        "note": 48,
        "velocity": 0,
        "channel": 1
      },
      {
        "type": "note_on",
        "time": 0,
        "note": 55,
        "velocity": 0,
        "channel": 1
      },
      {
        "type": "note_on",
        "time": 0,
        "note": 59,
        "velocity": 100,
        "channel": 1
      },
      {
        "type": "note_on",
        "time": 0,
        "note": 52,
        "velocity": 100,
        "channel": 1
      },
      {
        "type": "note_on",
        "time": 30,
        "note": 52,
        "velocity": 0,
        "channel": 1
      },
      {
        "type": "note_on",
        "time": 0,
        "note": 59,
        "velocity": 0,
        "channel": 1
      },
      {
        "type": "note_on",
        "time": 0,
        "note": 59,
        "velocity": 101,
        "channel": 1
      },
      {
        "type": "note_on",
        "time": 0,
        "note": 52,
        "velocity": 101,
        "channel": 1
      },
      {
        "type": "note_on",
        "time": 30,
        "note": 52,
        "velocity": 0,
        "channel": 1
      },
      {
        "type": "note_on",
        "time": 0,
        "note": 59,
        "velocity": 0,
        "channel": 1
      },
      {
        "type": "note_on",
        "time": 0,
        "note": 59,
        "velocity": 102,
        "channel": 1
      },
      {
        "type": "note_on",
        "time": 0,
        "note": 62,
        "velocity": 102,
        "channel": 1
      },
      {
        "type": "note_on",
        "time": 45,
        "note": 62,
        "velocity": 0,
        "channel": 1
      },
      {
        "type": "note_on",
        "time": 0,
        "note": 59,
        "velocity": 0,
        "channel": 1
      },
      {
        "type": "note_on",
        "time": 15,
        "note": 59,
        "velocity": 103,
        "channel": 1
      },
      {
        "type": "note_on",
        "time": 0,
        "note": 64,
        "velocity": 103,
        "channel": 1
      },
      {
        "type": "note_on",
        "time": 45,
        "note": 64,
        "velocity": 0,
        "channel": 1
      },
      {
        "type": "note_on",
        "time": 0,
        "note": 59,
        "velocity": 0,
        "channel": 1
      },
      {
        "type": "note_on",
        "time": 15,
        "note": 59,
        "velocity": 102,
        "channel": 1
      },
      {
        "type": "note_on",
        "time": 0,
        "note": 52,
        "velocity": 102,
        "channel": 1
      },
      {
        "type": "note_on",
        "time": 30,
        "note": 52,
        "velocity": 0,
        "channel": 1
      },
      {
        "type": "note_on",
        "time": 0,
        "note": 59,
        "velocity": 0,
        "channel": 1
      },
      {
        "type": "note_on",
        "time": 0,
        "note": 59,
        "velocity": 102,
        "channel": 1
      },
      {
        "type": "note_on",
        "time": 0,
        "note": 52,
        "velocity": 102,
        "channel": 1
      },
      {
        "type": "note_on",
        "time": 30,
        "note": 52,
        "velocity": 0,
        "channel": 1
      },
      {
        "type": "note_on",
        "time": 0,
        "note": 59,
        "velocity": 0,
        "channel": 1
      },
      {
        "type": "note_on",
        "time": 0,
        "note": 59,
        "velocity": 101,
        "channel": 1
      },
      {
        "type": "note_on",
        "time": 0,
        "note": 52,
        "velocity": 101,
        "channel": 1
      },
      {
        "type": "note_on",
        "time": 30,
        "note": 52,
        "velocity": 0,
        "channel": 1
      },
      {
        "type": "note_on",
        "time": 0,
        "note": 59,
        "velocity": 0,
        "channel": 1
      },
      {
        "type": "note_on",
        "time": 0,
        "note": 59,
        "velocity": 98,
        "channel": 1
      },
      {
        "type": "note_on",
        "time": 0,
        "note": 62,
        "velocity": 98,
        "channel": 1
      },
      {
        "type": "note_on",
        "time": 0,
        "note": 52,
        "velocity": 98,
        "channel": 1
      },
      {
        "type": "note_on",
        "time": 45,
        "note": 52,
        "velocity": 0,
        "channel": 1
      },
      {
        "type": "note_on",
        "time": 0,
        "note": 62,
        "velocity": 0,
        "channel": 1
      },
      {
        "type": "note_on",
        "time": 0,
        "note": 59,
        "velocity": 0,
        "channel": 1
      },
      {
        "type": "note_on",
        "time": 15,
        "note": 59,
        "velocity": 98,
        "channel": 1
      },
      {
        "type": "note_on",
        "time": 0,
        "note": 64,
        "velocity": 98,
        "channel": 1
      },
      {
        "type": "note_on",
        "time": 0,
        "note": 52,
        "velocity": 98,
        "channel": 1
      },
      {
        "type": "note_on",
        "time": 45,
        "note": 52,
        "velocity": 0,
        "channel": 1
      },
      {
        "type": "note_on",
        "time": 0,
        "note": 64,
        "velocity": 0,
        "channel": 1
      },
      {
        "type": "note_on",
        "time": 0,
        "note": 59,
        "velocity": 0,
        "channel": 1
      },
      {
        "type": "note_on",
        "time": 15,
        "note": 59,
        "velocity": 101,
        "channel": 1
      },
      {
        "type": "note_on",
        "time": 0,
        "note": 52,
        "velocity": 101,
        "channel": 1
      },
      {
        "type": "note_on",
        "time": 30,
        "note": 52,
        "velocity": 0,
        "channel": 1
      },
      {
        "type": "note_on",
        "time": 0,
        "note": 59,
        "velocity": 0,
        "channel": 1
      },
      {
        "type": "note_on",
        "time": 0,
        "note": 59,
        "velocity": 101,
        "channel": 1
      },
      {
        "type": "note_on",
        "time": 0,
        "note": 52,
        "velocity": 101,
        "channel": 1
      },
      {
        "type": "note_on",
        "time": 30,
        "note": 52,
        "velocity": 0,
        "channel": 1
      },
      {
        "type": "note_on",
        "time": 0,
        "note": 59,
        "velocity": 0,
        "channel": 1
      },
      {
        "type": "note_on",
        "time": 0,
        "note": 59,
        "velocity": 101,
        "channel": 1
      },
      {
        "type": "note_on",
        "time": 0,
        "note": 52,
        "velocity": 101,
        "channel": 1
      },
      {
        "type": "note_on",
        "time": 30,
        "note": 52,
        "velocity": 0,
        "channel": 1
      },
      {
        "type": "note_on",
        "time": 0,
        "note": 59,
        "velocity": 0,
        "channel": 1
      },
      {
        "type": "note_on",
        "time": 0,
        "note": 57,
        "velocity": 101,
        "channel": 1
      },
      {
        "type": "note_on",
        "time": 0,
        "note": 50,
        "velocity": 101,
        "channel": 1
      },
      {
        "type": "note_on",
        "time": 30,
        "note": 50,
        "velocity": 0,
        "channel": 1
      },
      {
        "type": "note_on",
        "time": 0,
        "note": 57,
        "velocity": 0,
        "channel": 1
      },
      {
        "type": "note_on",
        "time": 0,
        "note": 57,
        "velocity": 101,
        "channel": 1
      },
      {
        "type": "note_on",
        "time": 0,
        "note": 50,
        "velocity": 101,
        "channel": 1
      },
      {
        "type": "note_on",
        "time": 30,
        "note": 50,
        "velocity": 0,
        "channel": 1
      },
      {
        "type": "note_on",
        "time": 0,
        "note": 57,
        "velocity": 0,
        "channel": 1
      },
      {
        "type": "note_on",
        "time": 0,
        "note": 57,
        "velocity": 101,
        "channel": 1
      },
      {
        "type": "note_on",
        "time": 0,
        "note": 62,
        "velocity": 101,
        "channel": 1
      },
      {
        "type": "note_on",
        "time": 45,
        "note": 62,
        "velocity": 0,
        "channel": 1
      },
      {
        "type": "note_on",
        "time": 0,
        "note": 57,
        "velocity": 0,
        "channel": 1
      },
      {
        "type": "note_on",
        "time": 15,
        "note": 62,
        "velocity": 101,
        "channel": 1
      },
      {
        "type": "note_on",
        "time": 0,
        "note": 64,
        "velocity": 100,
        "channel": 1
      },
      {
        "type": "note_on",
        "time": 45,
        "note": 64,
        "velocity": 0,
        "channel": 1
      },
      {
        "type": "note_on",
        "time": 0,
        "note": 62,
        "velocity": 0,
        "channel": 1
      },
      {
        "type": "note_on",
        "time": 15,
        "note": 57,
        "velocity": 100,
        "channel": 1
      },
      {
        "type": "note_on",
        "time": 0,
        "note": 50,
        "velocity": 100,
        "channel": 1
      },
      {
        "type": "note_on",
        "time": 30,
        "note": 50,
        "velocity": 0,
        "channel": 1
      },
      {
        "type": "note_on",
        "time": 0,
        "note": 57,
        "velocity": 0,
        "channel": 1
      },
      {
        "type": "note_on",
        "time": 0,
        "note": 57,
        "velocity": 100,
        "channel": 1
      },
      {
        "type": "note_on",
        "time": 0,
        "note": 50,
        "velocity": 100,
        "channel": 1
      },
      {
        "type": "note_on",
        "time": 30,
        "note": 50,
        "velocity": 0,
        "channel": 1
      },
      {
        "type": "note_on",
        "time": 0,
        "note": 57,
        "velocity": 0,
        "channel": 1
      },
      {
        "type": "note_on",
        "time": 0,
        "note": 57,
        "velocity": 100,
        "channel": 1
      },
      {
        "type": "note_on",
        "time": 0,
        "note": 50,
        "velocity": 100,
        "channel": 1
      },
      {
        "type": "note_on",
        "time": 30,
        "note": 50,
        "velocity": 0,
        "channel": 1
      },
      {
        "type": "note_on",
        "time": 0,
        "note": 57,
        "velocity": 0,
        "channel": 1
      },
      {
        "type": "note_on",
        "time": 0,
        "note": 57,
        "velocity": 101,
        "channel": 1
      },
      {
        "type": "note_on",
        "time": 0,
        "note": 62,
        "velocity": 100,
        "channel": 1
      },
      {
        "type": "note_on",
        "time": 45,
        "note": 62,
        "velocity": 0,
        "channel": 1
      },
      {
        "type": "note_on",
        "time": 0,
        "note": 57,
        "velocity": 0,
        "channel": 1
      },
      {
        "type": "note_on",
        "time": 15,
        "note": 62,
        "velocity": 101,
        "channel": 1
      },
      {
        "type": "note_on",
        "time": 0,
        "note": 64,
        "velocity": 100,
        "channel": 1
      },
      {
        "type": "note_on",
        "time": 45,
        "note": 64,
        "velocity": 0,
        "channel": 1
      },
      {
        "type": "note_on",
        "time": 0,
        "note": 62,
        "velocity": 0,
        "channel": 1
      },
      {
        "type": "note_on",
        "time": 15,
        "note": 57,
        "velocity": 100,
        "channel": 1
      },
      {
        "type": "note_on",
        "time": 0,
        "note": 50,
        "velocity": 100,
        "channel": 1
      },
      {
        "type": "note_on",
        "time": 30,
        "note": 50,
        "velocity": 0,
        "channel": 1
      },
      {
        "type": "note_on",
        "time": 0,
        "note": 57,
        "velocity": 0,
        "channel": 1
      },
      {
        "type": "note_on",
        "time": 0,
        "note": 57,
        "velocity": 100,
        "channel": 1
      },
      {
        "type": "note_on",
        "time": 0,
        "note": 50,
        "velocity": 100,
        "channel": 1
      },
      {
        "type": "note_on",
        "time": 30,
        "note": 50,
        "velocity": 0,
        "channel": 1
      },
      {
        "type": "note_on",
        "time": 0,
        "note": 57,
        "velocity": 0,
        "channel": 1
      },
      {
        "type": "note_on",
        "time": 0,
        "note": 57,
        "velocity": 100,
        "channel": 1
      },
      {
        "type": "note_on",
        "time": 0,
        "note": 50,
        "velocity": 100,
        "channel": 1
      },
      {
        "type": "note_on",
        "time": 30,
        "note": 50,
        "velocity": 0,
        "channel": 1
      },
      {
        "type": "note_on",
        "time": 0,
        "note": 57,
        "velocity": 0,
        "channel": 1
      },
      {
        "type": "note_on",
        "time": 0,
        "note": 54,
        "velocity": 100,
        "channel": 1
      },
      {
        "type": "note_on",
        "time": 0,
        "note": 47,
        "velocity": 100,
        "channel": 1
      },
      {
        "type": "note_on",
        "time": 30,
        "note": 47,
        "velocity": 0,
        "channel": 1
      },
      {
        "type": "note_on",
        "time": 0,
        "note": 54,
        "velocity": 0,
        "channel": 1
      },
      {
        "type": "note_on",
        "time": 0,
        "note": 54,
        "velocity": 100,
        "channel": 1
      },
      {
        "type": "note_on",
        "time": 0,
        "note": 47,
        "velocity": 100,
        "channel": 1
      },
      {
        "type": "note_on",
        "time": 30,
        "note": 47,
        "velocity": 0,
        "channel": 1
      },
      {
        "type": "note_on",
        "time": 0,
        "note": 54,
        "velocity": 0,
        "channel": 1
      },
      {
        "type": "note_on",
        "time": 0,
        "note": 62,
        "velocity": 101,
        "channel": 1
      },
      {
        "type": "note_on",
        "time": 0,
        "note": 54,
        "velocity": 101,
        "channel": 1
      },
      {
        "type": "note_on",
        "time": 45,
        "note": 54,
        "velocity": 0,
        "channel": 1
      },
      {
        "type": "note_on",
        "time": 0,
        "note": 62,
        "velocity": 0,
        "channel": 1
      },
      {
        "type": "note_on",
        "time": 15,
        "note": 59,
        "velocity": 101,
        "channel": 1
      },
      {
        "type": "note_on",
        "time": 0,
        "note": 64,
        "velocity": 101,
        "channel": 1
      },
      {
        "type": "note_on",
        "time": 45,
        "note": 64,
        "velocity": 0,
        "channel": 1
      },
      {
        "type": "note_on",
        "time": 0,
        "note": 59,
        "velocity": 0,
        "channel": 1
      },
      {
        "type": "note_on",
        "time": 15,
        "note": 54,
        "velocity": 101,
        "channel": 1
      },
      {
        "type": "note_on",
        "time": 0,
        "note": 47,
        "velocity": 101,
        "channel": 1
      },
      {
        "type": "note_on",
        "time": 30,
        "note": 47,
        "velocity": 0,
        "channel": 1
      },
      {
        "type": "note_on",
        "time": 0,
        "note": 54,
        "velocity": 0,
        "channel": 1
      },
      {
        "type": "note_on",
        "time": 0,
        "note": 54,
        "velocity": 102,
        "channel": 1
      },
      {
        "type": "note_on",
        "time": 0,
        "note": 47,
        "velocity": 102,
        "channel": 1
      },
      {
        "type": "note_on",
        "time": 30,
        "note": 47,
        "velocity": 0,
        "channel": 1
      },
      {
        "type": "note_on",
        "time": 0,
        "note": 54,
        "velocity": 0,
        "channel": 1
      },
      {
        "type": "note_on",
        "time": 0,
        "note": 47,
        "velocity": 103,
        "channel": 1
      },
      {
        "type": "note_on",
        "time": 0,
        "note": 54,
        "velocity": 103,
        "channel": 1
      },
      {
        "type": "note_on",
        "time": 30,
        "note": 54,
        "velocity": 0,
        "channel": 1
      },
      {
        "type": "note_on",
        "time": 0,
        "note": 47,
        "velocity": 0,
        "channel": 1
      },
      {
        "type": "note_on",
        "time": 0,
        "note": 54,
        "velocity": 101,
        "channel": 1
      },
      {
        "type": "note_on",
        "time": 0,
        "note": 62,
        "velocity": 104,
        "channel": 1
      },
      {
        "type": "note_on",
        "time": 45,
        "note": 62,
        "velocity": 0,
        "channel": 1
      },
      {
        "type": "note_on",
        "time": 0,
        "note": 54,
        "velocity": 0,
        "channel": 1
      },
      {
        "type": "note_on",
        "time": 15,
        "note": 59,
        "velocity": 101,
        "channel": 1
      },
      {
        "type": "note_on",
        "time": 0,
        "note": 64,
        "velocity": 105,
        "channel": 1
      },
      {
        "type": "note_on",
        "time": 45,
        "note": 64,
        "velocity": 0,
        "channel": 1
      },
      {
        "type": "note_on",
        "time": 0,
        "note": 59,
        "velocity": 0,
        "channel": 1
      },
      {
        "type": "note_on",
        "time": 15,
        "note": 47,
        "velocity": 105,
        "channel": 1
      },
      {
        "type": "note_on",
        "time": 0,
        "note": 54,
        "velocity": 105,
        "channel": 1
      },
      {
        "type": "note_on",
        "time": 30,
        "note": 54,
        "velocity": 0,
        "channel": 1
      },
      {
        "type": "note_on",
        "time": 0,
        "note": 47,
        "velocity": 0,
        "channel": 1
      },
      {
        "type": "note_on",
        "time": 0,
        "note": 54,
        "velocity": 99,
        "channel": 1
      },
      {
        "type": "note_on",
        "time": 0,
        "note": 47,
        "velocity": 99,
        "channel": 1
      },
      {
        "type": "note_on",
        "time": 30,
        "note": 47,
        "velocity": 0,
        "channel": 1
      },
      {
        "type": "note_on",
        "time": 0,
        "note": 54,
        "velocity": 0,
        "channel": 1
      },
      {
        "type": "note_on",
        "time": 0,
        "note": 54,
        "velocity": 99,
        "channel": 1
      },
      {
        "type": "note_on",
        "time": 0,
        "note": 47,
        "velocity": 99,
        "channel": 1
      },
      {
        "type": "note_on",
        "time": 30,
        "note": 47,
        "velocity": 0,
        "channel": 1
      },
      {
        "type": "note_on",
        "time": 0,
        "note": 54,
        "velocity": 0,
        "channel": 1
      },
      {
        "type": "note_on",
        "time": 0,
        "note": 55,
        "velocity": 100,
        "channel": 1
      },
      {
        "type": "note_on",
        "time": 0,
        "note": 48,
        "velocity": 99,
        "channel": 1
      },
      {
        "type": "note_on",
        "time": 30,
        "note": 48,
        "velocity": 0,
        "channel": 1
      },
      {
        "type": "note_on",
        "time": 0,
        "note": 55,
        "velocity": 0,
        "channel": 1
      },
      {
        "type": "note_on",
        "time": 0,
        "note": 55,
        "velocity": 100,
        "channel": 1
      },
      {
        "type": "note_on",
        "time": 0,
        "note": 48,
        "velocity": 99,
        "channel": 1
      },
      {
        "type": "note_on",
        "time": 30,
        "note": 48,
        "velocity": 0,
        "channel": 1
      },
      {
        "type": "note_on",
        "time": 0,
        "note": 55,
        "velocity": 0,
        "channel": 1
      },
      {
        "type": "note_on",
        "time": 0,
        "note": 55,
        "velocity": 101,
        "channel": 1
      },
      {
        "type": "note_on",
        "time": 0,
        "note": 62,
        "velocity": 99,
        "channel": 1
      },
      {
        "type": "note_on",
        "time": 45,
        "note": 62,
        "velocity": 0,
        "channel": 1
      },
      {
        "type": "note_on",
        "time": 0,
        "note": 55,
        "velocity": 0,
        "channel": 1
      },
      {
        "type": "note_on",
        "time": 15,
        "note": 60,
        "velocity": 101,
        "channel": 1
      },
      {
        "type": "note_on",
        "time": 0,
        "note": 64,
        "velocity": 99,
        "channel": 1
      },
      {
        "type": "note_on",
        "time": 45,
        "note": 64,
        "velocity": 0,
        "channel": 1
      },
      {
        "type": "note_on",
        "time": 0,
        "note": 60,
        "velocity": 0,
        "channel": 1
      },
      {
        "type": "note_on",
        "time": 15,
        "note": 55,
        "velocity": 100,
        "channel": 1
      },
      {
        "type": "note_on",
        "time": 0,
        "note": 48,
        "velocity": 99,
        "channel": 1
      },
      {
        "type": "note_on",
        "time": 30,
        "note": 48,
        "velocity": 0,
        "channel": 1
      },
      {
        "type": "note_on",
        "time": 0,
        "note": 55,
        "velocity": 0,
        "channel": 1
      },
      {
        "type": "note_on",
        "time": 0,
        "note": 55,
        "velocity": 100,
        "channel": 1
      },
      {
        "type": "note_on",
        "time": 0,
        "note": 48,
        "velocity": 99,
        "channel": 1
      },
      {
        "type": "note_on",
        "time": 30,
        "note": 48,
        "velocity": 0,
        "channel": 1
      },
      {
        "type": "note_on",
        "time": 0,
        "note": 55,
        "velocity": 0,
        "channel": 1
      },
      {
        "type": "note_on",
        "time": 0,
        "note": 55,
        "velocity": 100,
        "channel": 1
      },
      {
        "type": "note_on",
        "time": 0,
        "note": 48,
        "velocity": 100,
        "channel": 1
      },
      {
        "type": "note_on",
        "time": 30,
        "note": 48,
        "velocity": 0,
        "channel": 1
      },
      {
        "type": "note_on",
        "time": 0,
        "note": 55,
        "velocity": 0,
        "channel": 1
      },
      {
        "type": "note_on",
        "time": 0,
        "note": 55,
        "velocity": 101,
        "channel": 1
      },
      {
        "type": "note_on",
        "time": 0,
        "note": 62,
        "velocity": 100,
        "channel": 1
      },
      {
        "type": "note_on",
        "time": 45,
        "note": 62,
        "velocity": 0,
        "channel": 1
      },
      {
        "type": "note_on",
        "time": 0,
        "note": 55,
        "velocity": 0,
        "channel": 1
      },
      {
        "type": "note_on",
        "time": 15,
        "note": 60,
        "velocity": 101,
        "channel": 1
      },
      {
        "type": "note_on",
        "time": 0,
        "note": 64,
        "velocity": 102,
        "channel": 1
      },
      {
        "type": "note_on",
        "time": 45,
        "note": 64,
        "velocity": 0,
        "channel": 1
      },
      {
        "type": "note_on",
        "time": 0,
        "note": 60,
        "velocity": 0,
        "channel": 1
      },
      {
        "type": "note_on",
        "time": 15,
        "note": 55,
        "velocity": 100,
        "channel": 1
      },
      {
        "type": "note_on",
        "time": 0,
        "note": 48,
        "velocity": 103,
        "channel": 1
      },
      {
        "type": "note_on",
        "time": 30,
        "note": 48,
        "velocity": 0,
        "channel": 1
      },
      {
        "type": "note_on",
        "time": 0,
        "note": 55,
        "velocity": 0,
        "channel": 1
      },
      {
        "type": "note_on",
        "time": 0,
        "note": 55,
        "velocity": 100,
        "channel": 1
      },
      {
        "type": "note_on",
        "time": 0,
        "note": 48,
        "velocity": 103,
        "channel": 1
      },
      {
        "type": "note_on",
        "time": 30,
        "note": 48,
        "velocity": 0,
        "channel": 1
      },
      {
        "type": "note_on",
        "time": 0,
        "note": 55,
        "velocity": 0,
        "channel": 1
      },
      {
        "type": "note_on",
        "time": 0,
        "note": 55,
        "velocity": 100,
        "channel": 1
      },
      {
        "type": "note_on",
        "time": 0,
        "note": 48,
        "velocity": 104,
        "channel": 1
      },
      {
        "type": "note_on",
        "time": 30,
        "note": 48,
        "velocity": 0,
        "channel": 1
      },
      {
        "type": "note_on",
        "time": 0,
        "note": 55,
        "velocity": 0,
        "channel": 1
      },
      {
        "type": "note_on",
        "time": 0,
        "note": 59,
        "velocity": 100,
        "channel": 1
      },
      {
        "type": "note_on",
        "time": 0,
        "note": 52,
        "velocity": 100,
        "channel": 1
      },
      {
        "type": "note_on",
        "time": 30,
        "note": 52,
        "velocity": 0,
        "channel": 1
      },
      {
        "type": "note_on",
        "time": 0,
        "note": 59,
        "velocity": 0,
        "channel": 1
      },
      {
        "type": "note_on",
        "time": 0,
        "note": 59,
        "velocity": 101,
        "channel": 1
      },
      {
        "type": "note_on",
        "time": 0,
        "note": 52,
        "velocity": 101,
        "channel": 1
      },
      {
        "type": "note_on",
        "time": 30,
        "note": 52,
        "velocity": 0,
        "channel": 1
      },
      {
        "type": "note_on",
        "time": 0,
        "note": 59,
        "velocity": 0,
        "channel": 1
      },
      {
        "type": "note_on",
        "time": 0,
        "note": 59,
        "velocity": 102,
        "channel": 1
      },
      {
        "type": "note_on",
        "time": 0,
        "note": 62,
        "velocity": 102,
        "channel": 1
      },
      {
        "type": "note_on",
        "time": 45,
        "note": 62,
        "velocity": 0,
        "channel": 1
      },
      {
        "type": "note_on",
        "time": 0,
        "note": 59,
        "velocity": 0,
        "channel": 1
      },
      {
        "type": "note_on",
        "time": 15,
        "note": 59,
        "velocity": 103,
        "channel": 1
      },
      {
        "type": "note_on",
        "time": 0,
        "note": 64,
        "velocity": 103,
        "channel": 1
      },
      {
        "type": "note_on",
        "time": 45,
        "note": 64,
        "velocity": 0,
        "channel": 1
      },
      {
        "type": "note_on",
        "time": 0,
        "note": 59,
        "velocity": 0,
        "channel": 1
      },
      {
        "type": "note_on",
        "time": 15,
        "note": 59,
        "velocity": 102,
        "channel": 1
      },
      {
        "type": "note_on",
        "time": 0,
        "note": 52,
        "velocity": 102,
        "channel": 1
      },
      {
        "type": "note_on",
        "time": 30,
        "note": 52,
        "velocity": 0,
        "channel": 1
      },
      {
        "type": "note_on",
        "time": 0,
        "note": 59,
        "velocity": 0,
        "channel": 1
      },
      {
        "type": "note_on",
        "time": 0,
        "note": 59,
        "velocity": 102,
        "channel": 1
      },
      {
        "type": "note_on",
        "time": 0,
        "note": 52,
        "velocity": 102,
        "channel": 1
      },
      {
        "type": "note_on",
        "time": 30,
        "note": 52,
        "velocity": 0,
        "channel": 1
      },
      {
        "type": "note_on",
        "time": 0,
        "note": 59,
        "velocity": 0,
        "channel": 1
      },
      {
        "type": "note_on",
        "time": 0,
        "note": 59,
        "velocity": 101,
        "channel": 1
      },
      {
        "type": "note_on",
        "time": 0,
        "note": 52,
        "velocity": 101,
        "channel": 1
      },
      {
        "type": "note_on",
        "time": 30,
        "note": 52,
        "velocity": 0,
        "channel": 1
      },
      {
        "type": "note_on",
        "time": 0,
        "note": 59,
        "velocity": 0,
        "channel": 1
      },
      {
        "type": "note_on",
        "time": 0,
        "note": 59,
        "velocity": 98,
        "channel": 1
      },
      {
        "type": "note_on",
        "time": 0,
        "note": 62,
        "velocity": 98,
        "channel": 1
      },
      {
        "type": "note_on",
        "time": 0,
        "note": 52,
        "velocity": 98,
        "channel": 1
      },
      {
        "type": "note_on",
        "time": 45,
        "note": 52,
        "velocity": 0,
        "channel": 1
      },
      {
        "type": "note_on",
        "time": 0,
        "note": 62,
        "velocity": 0,
        "channel": 1
      },
      {
        "type": "note_on",
        "time": 0,
        "note": 59,
        "velocity": 0,
        "channel": 1
      },
      {
        "type": "note_on",
        "time": 15,
        "note": 59,
        "velocity": 98,
        "channel": 1
      },
      {
        "type": "note_on",
        "time": 0,
        "note": 64,
        "velocity": 98,
        "channel": 1
      },
      {
        "type": "note_on",
        "time": 0,
        "note": 52,
        "velocity": 98,
        "channel": 1
      },
      {
        "type": "note_on",
        "time": 45,
        "note": 52,
        "velocity": 0,
        "channel": 1
      },
      {
        "type": "note_on",
        "time": 0,
        "note": 64,
        "velocity": 0,
        "channel": 1
      },
      {
        "type": "note_on",
        "time": 0,
        "note": 59,
        "velocity": 0,
        "channel": 1
      },
      {
        "type": "note_on",
        "time": 15,
        "note": 59,
        "velocity": 101,
        "channel": 1
      },
      {
        "type": "note_on",
        "time": 0,
        "note": 52,
        "velocity": 101,
        "channel": 1
      },
      {
        "type": "note_on",
        "time": 30,
        "note": 52,
        "velocity": 0,
        "channel": 1
      },
      {
        "type": "note_on",
        "time": 0,
        "note": 59,
        "velocity": 0,
        "channel": 1
      },
      {
        "type": "note_on",
        "time": 0,
        "note": 59,
        "velocity": 101,
        "channel": 1
      },
      {
        "type": "note_on",
        "time": 0,
        "note": 52,
        "velocity": 101,
        "channel": 1
      },
      {
        "type": "note_on",
        "time": 30,
        "note": 52,
        "velocity": 0,
        "channel": 1
      },
      {
        "type": "note_on",
        "time": 0,
        "note": 59,
        "velocity": 0,
        "channel": 1
      },
      {
        "type": "note_on",
        "time": 0,
        "note": 59,
        "velocity": 101,
        "channel": 1
      },
      {
        "type": "note_on",
        "time": 0,
        "note": 52,
        "velocity": 101,
        "channel": 1
      },
      {
        "type": "note_on",
        "time": 30,
        "note": 52,
        "velocity": 0,
        "channel": 1
      },
      {
        "type": "note_on",
        "time": 0,
        "note": 59,
        "velocity": 0,
        "channel": 1
      },
      {
        "type": "note_on",
        "time": 0,
        "note": 57,
        "velocity": 101,
        "channel": 1
      },
      {
        "type": "note_on",
        "time": 0,
        "note": 50,
        "velocity": 101,
        "channel": 1
      },
      {
        "type": "note_on",
        "time": 30,
        "note": 50,
        "velocity": 0,
        "channel": 1
      },
      {
        "type": "note_on",
        "time": 0,
        "note": 57,
        "velocity": 0,
        "channel": 1
      },
      {
        "type": "note_on",
        "time": 0,
        "note": 57,
        "velocity": 101,
        "channel": 1
      },
      {
        "type": "note_on",
        "time": 0,
        "note": 50,
        "velocity": 101,
        "channel": 1
      },
      {
        "type": "note_on",
        "time": 30,
        "note": 50,
        "velocity": 0,
        "channel": 1
      },
      {
        "type": "note_on",
        "time": 0,
        "note": 57,
        "velocity": 0,
        "channel": 1
      },
      {
        "type": "note_on",
        "time": 0,
        "note": 57,
        "velocity": 101,
        "channel": 1
      },
      {
        "type": "note_on",
        "time": 0,
        "note": 62,
        "velocity": 101,
        "channel": 1
      },
      {
        "type": "note_on",
        "time": 45,
        "note": 62,
        "velocity": 0,
        "channel": 1
      },
      {
        "type": "note_on",
        "time": 0,
        "note": 57,
        "velocity": 0,
        "channel": 1
      },
      {
        "type": "note_on",
        "time": 15,
        "note": 62,
        "velocity": 101,
        "channel": 1
      },
      {
        "type": "note_on",
        "time": 0,
        "note": 64,
        "velocity": 100,
        "channel": 1
      },
      {
        "type": "note_on",
        "time": 45,
        "note": 64,
        "velocity": 0,
        "channel": 1
      },
      {
        "type": "note_on",
        "time": 0,
        "note": 62,
        "velocity": 0,
        "channel": 1
      },
      {
        "type": "note_on",
        "time": 15,
        "note": 57,
        "velocity": 100,
        "channel": 1
      },
      {
        "type": "note_on",
        "time": 0,
        "note": 50,
        "velocity": 100,
        "channel": 1
      },
      {
        "type": "note_on",
        "time": 30,
        "note": 50,
        "velocity": 0,
        "channel": 1
      },
      {
        "type": "note_on",
        "time": 0,
        "note": 57,
        "velocity": 0,
        "channel": 1
      },
      {
        "type": "note_on",
        "time": 0,
        "note": 57,
        "velocity": 100,
        "channel": 1
      },
      {
        "type": "note_on",
        "time": 0,
        "note": 50,
        "velocity": 100,
        "channel": 1
      },
      {
        "type": "note_on",
        "time": 30,
        "note": 50,
        "velocity": 0,
        "channel": 1
      },
      {
        "type": "note_on",
        "time": 0,
        "note": 57,
        "velocity": 0,
        "channel": 1
      },
      {
        "type": "note_on",
        "time": 0,
        "note": 57,
        "velocity": 100,
        "channel": 1
      },
      {
        "type": "note_on",
        "time": 0,
        "note": 50,
        "velocity": 100,
        "channel": 1
      },
      {
        "type": "note_on",
        "time": 30,
        "note": 50,
        "velocity": 0,
        "channel": 1
      },
      {
        "type": "note_on",
        "time": 0,
        "note": 57,
        "velocity": 0,
        "channel": 1
      },
      {
        "type": "note_on",
        "time": 0,
        "note": 57,
        "velocity": 101,
        "channel": 1
      },
      {
        "type": "note_on",
        "time": 0,
        "note": 62,
        "velocity": 100,
        "channel": 1
      },
      {
        "type": "note_on",
        "time": 45,
        "note": 62,
        "velocity": 0,
        "channel": 1
      },
      {
        "type": "note_on",
        "time": 0,
        "note": 57,
        "velocity": 0,
        "channel": 1
      },
      {
        "type": "note_on",
        "time": 15,
        "note": 62,
        "velocity": 101,
        "channel": 1
      },
      {
        "type": "note_on",
        "time": 0,
        "note": 64,
        "velocity": 100,
        "channel": 1
      },
      {
        "type": "note_on",
        "time": 45,
        "note": 64,
        "velocity": 0,
        "channel": 1
      },
      {
        "type": "note_on",
        "time": 0,
        "note": 62,
        "velocity": 0,
        "channel": 1
      },
      {
        "type": "note_on",
        "time": 15,
        "note": 57,
        "velocity": 100,
        "channel": 1
      },
      {
        "type": "note_on",
        "time": 0,
        "note": 50,
        "velocity": 100,
        "channel": 1
      },
      {
        "type": "note_on",
        "time": 30,
        "note": 50,
        "velocity": 0,
        "channel": 1
      },
      {
        "type": "note_on",
        "time": 0,
        "note": 57,
        "velocity": 0,
        "channel": 1
      },
      {
        "type": "note_on",
        "time": 0,
        "note": 57,
        "velocity": 100,
        "channel": 1
      },
      {
        "type": "note_on",
        "time": 0,
        "note": 50,
        "velocity": 100,
        "channel": 1
      },
      {
        "type": "note_on",
        "time": 30,
        "note": 50,
        "velocity": 0,
        "channel": 1
      },
      {
        "type": "note_on",
        "time": 0,
        "note": 57,
        "velocity": 0,
        "channel": 1
      },
      {
        "type": "note_on",
        "time": 0,
        "note": 57,
        "velocity": 100,
        "channel": 1
      },
      {
        "type": "note_on",
        "time": 0,
        "note": 50,
        "velocity": 100,
        "channel": 1
      },
      {
        "type": "note_on",
        "time": 30,
        "note": 50,
        "velocity": 0,
        "channel": 1
      },
      {
        "type": "note_on",
        "time": 0,
        "note": 57,
        "velocity": 0,
        "channel": 1
      },
      {
        "type": "note_on",
        "time": 0,
        "note": 54,
        "velocity": 100,
        "channel": 1
      },
      {
        "type": "note_on",
        "time": 0,
        "note": 47,
        "velocity": 100,
        "channel": 1
      },
      {
        "type": "note_on",
        "time": 30,
        "note": 47,
        "velocity": 0,
        "channel": 1
      },
      {
        "type": "note_on",
        "time": 0,
        "note": 54,
        "velocity": 0,
        "channel": 1
      },
      {
        "type": "note_on",
        "time": 0,
        "note": 54,
        "velocity": 100,
        "channel": 1
      },
      {
        "type": "note_on",
        "time": 0,
        "note": 47,
        "velocity": 100,
        "channel": 1
      },
      {
        "type": "note_on",
        "time": 30,
        "note": 47,
        "velocity": 0,
        "channel": 1
      },
      {
        "type": "note_on",
        "time": 0,
        "note": 54,
        "velocity": 0,
        "channel": 1
      },
      {
        "type": "note_on",
        "time": 0,
        "note": 62,
        "velocity": 101,
        "channel": 1
      },
      {
        "type": "note_on",
        "time": 0,
        "note": 54,
        "velocity": 101,
        "channel": 1
      },
      {
        "type": "note_on",
        "time": 45,
        "note": 54,
        "velocity": 0,
        "channel": 1
      },
      {
        "type": "note_on",
        "time": 0,
        "note": 62,
        "velocity": 0,
        "channel": 1
      },
      {
        "type": "note_on",
        "time": 15,
        "note": 59,
        "velocity": 101,
        "channel": 1
      },
      {
        "type": "note_on",
        "time": 0,
        "note": 64,
        "velocity": 101,
        "channel": 1
      },
      {
        "type": "note_on",
        "time": 45,
        "note": 64,
        "velocity": 0,
        "channel": 1
      },
      {
        "type": "note_on",
        "time": 0,
        "note": 59,
        "velocity": 0,
        "channel": 1
      },
      {
        "type": "note_on",
        "time": 15,
        "note": 54,
        "velocity": 101,
        "channel": 1
      },
      {
        "type": "note_on",
        "time": 0,
        "note": 47,
        "velocity": 101,
        "channel": 1
      },
      {
        "type": "note_on",
        "time": 30,
        "note": 47,
        "velocity": 0,
        "channel": 1
      },
      {
        "type": "note_on",
        "time": 0,
        "note": 54,
        "velocity": 0,
        "channel": 1
      },
      {
        "type": "note_on",
        "time": 0,
        "note": 54,
        "velocity": 102,
        "channel": 1
      },
      {
        "type": "note_on",
        "time": 0,
        "note": 47,
        "velocity": 102,
        "channel": 1
      },
      {
        "type": "note_on",
        "time": 30,
        "note": 47,
        "velocity": 0,
        "channel": 1
      },
      {
        "type": "note_on",
        "time": 0,
        "note": 54,
        "velocity": 0,
        "channel": 1
      },
      {
        "type": "note_on",
        "time": 0,
        "note": 47,
        "velocity": 103,
        "channel": 1
      },
      {
        "type": "note_on",
        "time": 0,
        "note": 54,
        "velocity": 103,
        "channel": 1
      },
      {
        "type": "note_on",
        "time": 30,
        "note": 54,
        "velocity": 0,
        "channel": 1
      },
      {
        "type": "note_on",
        "time": 0,
        "note": 47,
        "velocity": 0,
        "channel": 1
      },
      {
        "type": "note_on",
        "time": 0,
        "note": 54,
        "velocity": 101,
        "channel": 1
      },
      {
        "type": "note_on",
        "time": 0,
        "note": 62,
        "velocity": 104,
        "channel": 1
      },
      {
        "type": "note_on",
        "time": 45,
        "note": 62,
        "velocity": 0,
        "channel": 1
      },
      {
        "type": "note_on",
        "time": 0,
        "note": 54,
        "velocity": 0,
        "channel": 1
      },
      {
        "type": "note_on",
        "time": 15,
        "note": 59,
        "velocity": 101,
        "channel": 1
      },
      {
        "type": "note_on",
        "time": 0,
        "note": 64,
        "velocity": 105,
        "channel": 1
      },
      {
        "type": "note_on",
        "time": 45,
        "note": 64,
        "velocity": 0,
        "channel": 1
      },
      {
        "type": "note_on",
        "time": 0,
        "note": 59,
        "velocity": 0,
        "channel": 1
      },
      {
        "type": "note_on",
        "time": 15,
        "note": 47,
        "velocity": 105,
        "channel": 1
      },
      {
        "type": "note_on",
        "time": 0,
        "note": 54,
        "velocity": 105,
        "channel": 1
      },
      {
        "type": "note_on",
        "time": 30,
        "note": 54,
        "velocity": 0,
        "channel": 1
      },
      {
        "type": "note_on",
        "time": 0,
        "note": 47,
        "velocity": 0,
        "channel": 1
      },
      {
        "type": "note_on",
        "time": 0,
        "note": 54,
        "velocity": 99,
        "channel": 1
      },
      {
        "type": "note_on",
        "time": 0,
        "note": 47,
        "velocity": 99,
        "channel": 1
      },
      {
        "type": "note_on",
        "time": 30,
        "note": 47,
        "velocity": 0,
        "channel": 1
      },
      {
        "type": "note_on",
        "time": 0,
        "note": 54,
        "velocity": 0,
        "channel": 1
      },
      {
        "type": "note_on",
        "time": 0,
        "note": 54,
        "velocity": 99,
        "channel": 1
      },
      {
        "type": "note_on",
        "time": 0,
        "note": 47,
        "velocity": 99,
        "channel": 1
      },
      {
        "type": "note_on",
        "time": 30,
        "note": 47,
        "velocity": 0,
        "channel": 1
      },
      {
        "type": "note_on",
        "time": 0,
        "note": 54,
        "velocity": 0,
        "channel": 1
      },
      {
        "type": "note_on",
        "time": 0,
        "note": 55,
        "velocity": 100,
        "channel": 1
      },
      {
        "type": "note_on",
        "time": 0,
        "note": 48,
        "velocity": 99,
        "channel": 1
      },
      {
        "type": "note_on",
        "time": 30,
        "note": 48,
        "velocity": 0,
        "channel": 1
      },
      {
        "type": "note_on",
        "time": 0,
        "note": 55,
        "velocity": 0,
        "channel": 1
      },
      {
        "type": "note_on",
        "time": 0,
        "note": 55,
        "velocity": 100,
        "channel": 1
      },
      {
        "type": "note_on",
        "time": 0,
        "note": 48,
        "velocity": 99,
        "channel": 1
      },
      {
        "type": "note_on",
        "time": 30,
        "note": 48,
        "velocity": 0,
        "channel": 1
      },
      {
        "type": "note_on",
        "time": 0,
        "note": 55,
        "velocity": 0,
        "channel": 1
      },
      {
        "type": "note_on",
        "time": 0,
        "note": 55,
        "velocity": 101,
        "channel": 1
      },
      {
        "type": "note_on",
        "time": 0,
        "note": 62,
        "velocity": 99,
        "channel": 1
      },
      {
        "type": "note_on",
        "time": 45,
        "note": 62,
        "velocity": 0,
        "channel": 1
      },
      {
        "type": "note_on",
        "time": 0,
        "note": 55,
        "velocity": 0,
        "channel": 1
      },
      {
        "type": "note_on",
        "time": 15,
        "note": 60,
        "velocity": 101,
        "channel": 1
      },
      {
        "type": "note_on",
        "time": 0,
        "note": 64,
        "velocity": 99,
        "channel": 1
      },
      {
        "type": "note_on",
        "time": 45,
        "note": 64,
        "velocity": 0,
        "channel": 1
      },
      {
        "type": "note_on",
        "time": 0,
        "note": 60,
        "velocity": 0,
        "channel": 1
      },
      {
        "type": "note_on",
        "time": 15,
        "note": 55,
        "velocity": 100,
        "channel": 1
      },
      {
        "type": "note_on",
        "time": 0,
        "note": 48,
        "velocity": 99,
        "channel": 1
      },
      {
        "type": "note_on",
        "time": 30,
        "note": 48,
        "velocity": 0,
        "channel": 1
      },
      {
        "type": "note_on",
        "time": 0,
        "note": 55,
        "velocity": 0,
        "channel": 1
      },
      {
        "type": "note_on",
        "time": 0,
        "note": 55,
        "velocity": 100,
        "channel": 1
      },
      {
        "type": "note_on",
        "time": 0,
        "note": 48,
        "velocity": 99,
        "channel": 1
      },
      {
        "type": "note_on",
        "time": 30,
        "note": 48,
        "velocity": 0,
        "channel": 1
      },
      {
        "type": "note_on",
        "time": 0,
        "note": 55,
        "velocity": 0,
        "channel": 1
      },
      {
        "type": "note_on",
        "time": 0,
        "note": 55,
        "velocity": 100,
        "channel": 1
      },
      {
        "type": "note_on",
        "time": 0,
        "note": 48,
        "velocity": 100,
        "channel": 1
      },
      {
        "type": "note_on",
        "time": 30,
        "note": 48,
        "velocity": 0,
        "channel": 1
      },
      {
        "type": "note_on",
        "time": 0,
        "note": 55,
        "velocity": 0,
        "channel": 1
      },
      {
        "type": "note_on",
        "time": 0,
        "note": 55,
        "velocity": 101,
        "channel": 1
      },
      {
        "type": "note_on",
        "time": 0,
        "note": 62,
        "velocity": 100,
        "channel": 1
      },
      {
        "type": "note_on",
        "time": 45,
        "note": 62,
        "velocity": 0,
        "channel": 1
      },
      {
        "type": "note_on",
        "time": 0,
        "note": 55,
        "velocity": 0,
        "channel": 1
      },
      {
        "type": "note_on",
        "time": 15,
        "note": 60,
        "velocity": 101,
        "channel": 1
      },
      {
        "type": "note_on",
        "time": 0,
        "note": 64,
        "velocity": 102,
        "channel": 1
      },
      {
        "type": "note_on",
        "time": 45,
        "note": 64,
        "velocity": 0,
        "channel": 1
      },
      {
        "type": "note_on",
        "time": 0,
        "note": 60,
        "velocity": 0,
        "channel": 1
      },
      {
        "type": "note_on",
        "time": 15,
        "note": 55,
        "velocity": 100,
        "channel": 1
      },
      {
        "type": "note_on",
        "time": 0,
        "note": 48,
        "velocity": 103,
        "channel": 1
      },
      {
        "type": "note_on",
        "time": 30,
        "note": 48,
        "velocity": 0,
        "channel": 1
      },
      {
        "type": "note_on",
        "time": 0,
        "note": 55,
        "velocity": 0,
        "channel": 1
      },
      {
        "type": "note_on",
        "time": 0,
        "note": 55,
        "velocity": 100,
        "channel": 1
      },
      {
        "type": "note_on",
        "time": 0,
        "note": 48,
        "velocity": 103,
        "channel": 1
      },
      {
        "type": "note_on",
        "time": 30,
        "note": 48,
        "velocity": 0,
        "channel": 1
      },
      {
        "type": "note_on",
        "time": 0,
        "note": 55,
        "velocity": 0,
        "channel": 1
      },
      {
        "type": "note_on",
        "time": 0,
        "note": 55,
        "velocity": 100,
        "channel": 1
      },
      {
        "type": "note_on",
        "time": 0,
        "note": 48,
        "velocity": 104,
        "channel": 1
      },
      {
        "type": "note_on",
        "time": 30,
        "note": 48,
        "velocity": 0,
        "channel": 1
      },
      {
        "type": "note_on",
        "time": 0,
        "note": 55,
        "velocity": 0,
        "channel": 1
      },
      {
        "type": "note_on",
        "time": 0,
        "note": 59,
        "velocity": 100,
        "channel": 1
      },
      {
        "type": "note_on",
        "time": 0,
        "note": 52,
        "velocity": 100,
        "channel": 1
      },
      {
        "type": "note_on",
        "time": 30,
        "note": 52,
        "velocity": 0,
        "channel": 1
      },
      {
        "type": "note_on",
        "time": 0,
        "note": 59,
        "velocity": 0,
        "channel": 1
      },
      {
        "type": "note_on",
        "time": 0,
        "note": 59,
        "velocity": 101,
        "channel": 1
      },
      {
        "type": "note_on",
        "time": 0,
        "note": 52,
        "velocity": 101,
        "channel": 1
      },
      {
        "type": "note_on",
        "time": 30,
        "note": 52,
        "velocity": 0,
        "channel": 1
      },
      {
        "type": "note_on",
        "time": 0,
        "note": 59,
        "velocity": 0,
        "channel": 1
      },
      {
        "type": "note_on",
        "time": 0,
        "note": 59,
        "velocity": 102,
        "channel": 1
      },
      {
        "type": "note_on",
        "time": 0,
        "note": 62,
        "velocity": 102,
        "channel": 1
      },
      {
        "type": "note_on",
        "time": 45,
        "note": 62,
        "velocity": 0,
        "channel": 1
      },
      {
        "type": "note_on",
        "time": 0,
        "note": 59,
        "velocity": 0,
        "channel": 1
      },
      {
        "type": "note_on",
        "time": 15,
        "note": 59,
        "velocity": 103,
        "channel": 1
      },
      {
        "type": "note_on",
        "time": 0,
        "note": 64,
        "velocity": 103,
        "channel": 1
      },
      {
        "type": "note_on",
        "time": 45,
        "note": 64,
        "velocity": 0,
        "channel": 1
      },
      {
        "type": "note_on",
        "time": 0,
        "note": 59,
        "velocity": 0,
        "channel": 1
      },
      {
        "type": "note_on",
        "time": 15,
        "note": 59,
        "velocity": 102,
        "channel": 1
      },
      {
        "type": "note_on",
        "time": 0,
        "note": 52,
        "velocity": 102,
        "channel": 1
      },
      {
        "type": "note_on",
        "time": 30,
        "note": 52,
        "velocity": 0,
        "channel": 1
      },
      {
        "type": "note_on",
        "time": 0,
        "note": 59,
        "velocity": 0,
        "channel": 1
      },
      {
        "type": "note_on",
        "time": 0,
        "note": 59,
        "velocity": 102,
        "channel": 1
      },
      {
        "type": "note_on",
        "time": 0,
        "note": 52,
        "velocity": 102,
        "channel": 1
      },
      {
        "type": "note_on",
        "time": 30,
        "note": 52,
        "velocity": 0,
        "channel": 1
      },
      {
        "type": "note_on",
        "time": 0,
        "note": 59,
        "velocity": 0,
        "channel": 1
      },
      {
        "type": "note_on",
        "time": 0,
        "note": 59,
        "velocity": 101,
        "channel": 1
      },
      {
        "type": "note_on",
        "time": 0,
        "note": 52,
        "velocity": 101,
        "channel": 1
      },
      {
        "type": "note_on",
        "time": 30,
        "note": 52,
        "velocity": 0,
        "channel": 1
      },
      {
        "type": "note_on",
        "time": 0,
        "note": 59,
        "velocity": 0,
        "channel": 1
      },
      {
        "type": "note_on",
        "time": 0,
        "note": 59,
        "velocity": 98,
        "channel": 1
      },
      {
        "type": "note_on",
        "time": 0,
        "note": 62,
        "velocity": 98,
        "channel": 1
      },
      {
        "type": "note_on",
        "time": 0,
        "note": 52,
        "velocity": 98,
        "channel": 1
      },
      {
        "type": "note_on",
        "time": 45,
        "note": 52,
        "velocity": 0,
        "channel": 1
      },
      {
        "type": "note_on",
        "time": 0,
        "note": 62,
        "velocity": 0,
        "channel": 1
      },
      {
        "type": "note_on",
        "time": 0,
        "note": 59,
        "velocity": 0,
        "channel": 1
      },
      {
        "type": "note_on",
        "time": 15,
        "note": 59,
        "velocity": 98,
        "channel": 1
      },
      {
        "type": "note_on",
        "time": 0,
        "note": 64,
        "velocity": 98,
        "channel": 1
      },
      {
        "type": "note_on",
        "time": 0,
        "note": 52,
        "velocity": 98,
        "channel": 1
      },
      {
        "type": "note_on",
        "time": 45,
        "note": 52,
        "velocity": 0,
        "channel": 1
      },
      {
        "type": "note_on",
        "time": 0,
        "note": 64,
        "velocity": 0,
        "channel": 1
      },
      {
        "type": "note_on",
        "time": 0,
        "note": 59,
        "velocity": 0,
        "channel": 1
      },
      {
        "type": "note_on",
        "time": 15,
        "note": 59,
        "velocity": 101,
        "channel": 1
      },
      {
        "type": "note_on",
        "time": 0,
        "note": 52,
        "velocity": 101,
        "channel": 1
      },
      {
        "type": "note_on",
        "time": 30,
        "note": 52,
        "velocity": 0,
        "channel": 1
      },
      {
        "type": "note_on",
        "time": 0,
        "note": 59,
        "velocity": 0,
        "channel": 1
      },
      {
        "type": "note_on",
        "time": 0,
        "note": 59,
        "velocity": 101,
        "channel": 1
      },
      {
        "type": "note_on",
        "time": 0,
        "note": 52,
        "velocity": 101,
        "channel": 1
      },
      {
        "type": "note_on",
        "time": 30,
        "note": 52,
        "velocity": 0,
        "channel": 1
      },
      {
        "type": "note_on",
        "time": 0,
        "note": 59,
        "velocity": 0,
        "channel": 1
      },
      {
        "type": "note_on",
        "time": 0,
        "note": 59,
        "velocity": 101,
        "channel": 1
      },
      {
        "type": "note_on",
        "time": 0,
        "note": 52,
        "velocity": 101,
        "channel": 1
      },
      {
        "type": "note_on",
        "time": 30,
        "note": 52,
        "velocity": 0,
        "channel": 1
      },
      {
        "type": "note_on",
        "time": 0,
        "note": 59,
        "velocity": 0,
        "channel": 1
      },
      {
        "type": "note_on",
        "time": 0,
        "note": 57,
        "velocity": 101,
        "channel": 1
      },
      {
        "type": "note_on",
        "time": 0,
        "note": 50,
        "velocity": 101,
        "channel": 1
      },
      {
        "type": "note_on",
        "time": 30,
        "note": 50,
        "velocity": 0,
        "channel": 1
      },
      {
        "type": "note_on",
        "time": 0,
        "note": 57,
        "velocity": 0,
        "channel": 1
      },
      {
        "type": "note_on",
        "time": 0,
        "note": 57,
        "velocity": 101,
        "channel": 1
      },
      {
        "type": "note_on",
        "time": 0,
        "note": 50,
        "velocity": 101,
        "channel": 1
      },
      {
        "type": "note_on",
        "time": 30,
        "note": 50,
        "velocity": 0,
        "channel": 1
      },
      {
        "type": "note_on",
        "time": 0,
        "note": 57,
        "velocity": 0,
        "channel": 1
      },
      {
        "type": "note_on",
        "time": 0,
        "note": 57,
        "velocity": 101,
        "channel": 1
      },
      {
        "type": "note_on",
        "time": 0,
        "note": 62,
        "velocity": 101,
        "channel": 1
      },
      {
        "type": "note_on",
        "time": 45,
        "note": 62,
        "velocity": 0,
        "channel": 1
      },
      {
        "type": "note_on",
        "time": 0,
        "note": 57,
        "velocity": 0,
        "channel": 1
      },
      {
        "type": "note_on",
        "time": 15,
        "note": 62,
        "velocity": 101,
        "channel": 1
      },
      {
        "type": "note_on",
        "time": 0,
        "note": 64,
        "velocity": 100,
        "channel": 1
      },
      {
        "type": "note_on",
        "time": 45,
        "note": 64,
        "velocity": 0,
        "channel": 1
      },
      {
        "type": "note_on",
        "time": 0,
        "note": 62,
        "velocity": 0,
        "channel": 1
      },
      {
        "type": "note_on",
        "time": 15,
        "note": 57,
        "velocity": 100,
        "channel": 1
      },
      {
        "type": "note_on",
        "time": 0,
        "note": 50,
        "velocity": 100,
        "channel": 1
      },
      {
        "type": "note_on",
        "time": 30,
        "note": 50,
        "velocity": 0,
        "channel": 1
      },
      {
        "type": "note_on",
        "time": 0,
        "note": 57,
        "velocity": 0,
        "channel": 1
      },
      {
        "type": "note_on",
        "time": 0,
        "note": 57,
        "velocity": 100,
        "channel": 1
      },
      {
        "type": "note_on",
        "time": 0,
        "note": 50,
        "velocity": 100,
        "channel": 1
      },
      {
        "type": "note_on",
        "time": 30,
        "note": 50,
        "velocity": 0,
        "channel": 1
      },
      {
        "type": "note_on",
        "time": 0,
        "note": 57,
        "velocity": 0,
        "channel": 1
      },
      {
        "type": "note_on",
        "time": 0,
        "note": 57,
        "velocity": 100,
        "channel": 1
      },
      {
        "type": "note_on",
        "time": 0,
        "note": 50,
        "velocity": 100,
        "channel": 1
      },
      {
        "type": "note_on",
        "time": 30,
        "note": 50,
        "velocity": 0,
        "channel": 1
      },
      {
        "type": "note_on",
        "time": 0,
        "note": 57,
        "velocity": 0,
        "channel": 1
      },
      {
        "type": "note_on",
        "time": 0,
        "note": 57,
        "velocity": 101,
        "channel": 1
      },
      {
        "type": "note_on",
        "time": 0,
        "note": 62,
        "velocity": 100,
        "channel": 1
      },
      {
        "type": "note_on",
        "time": 45,
        "note": 62,
        "velocity": 0,
        "channel": 1
      },
      {
        "type": "note_on",
        "time": 0,
        "note": 57,
        "velocity": 0,
        "channel": 1
      },
      {
        "type": "note_on",
        "time": 15,
        "note": 62,
        "velocity": 101,
        "channel": 1
      },
      {
        "type": "note_on",
        "time": 0,
        "note": 64,
        "velocity": 100,
        "channel": 1
      },
      {
        "type": "note_on",
        "time": 45,
        "note": 64,
        "velocity": 0,
        "channel": 1
      },
      {
        "type": "note_on",
        "time": 0,
        "note": 62,
        "velocity": 0,
        "channel": 1
      },
      {
        "type": "note_on",
        "time": 15,
        "note": 57,
        "velocity": 100,
        "channel": 1
      },
      {
        "type": "note_on",
        "time": 0,
        "note": 50,
        "velocity": 100,
        "channel": 1
      },
      {
        "type": "note_on",
        "time": 30,
        "note": 50,
        "velocity": 0,
        "channel": 1
      },
      {
        "type": "note_on",
        "time": 0,
        "note": 57,
        "velocity": 0,
        "channel": 1
      },
      {
        "type": "note_on",
        "time": 0,
        "note": 57,
        "velocity": 100,
        "channel": 1
      },
      {
        "type": "note_on",
        "time": 0,
        "note": 50,
        "velocity": 100,
        "channel": 1
      },
      {
        "type": "note_on",
        "time": 30,
        "note": 50,
        "velocity": 0,
        "channel": 1
      },
      {
        "type": "note_on",
        "time": 0,
        "note": 57,
        "velocity": 0,
        "channel": 1
      },
      {
        "type": "note_on",
        "time": 0,
        "note": 57,
        "velocity": 100,
        "channel": 1
      },
      {
        "type": "note_on",
        "time": 0,
        "note": 50,
        "velocity": 100,
        "channel": 1
      },
      {
        "type": "note_on",
        "time": 30,
        "note": 50,
        "velocity": 0,
        "channel": 1
      },
      {
        "type": "note_on",
        "time": 0,
        "note": 57,
        "velocity": 0,
        "channel": 1
      },
      {
        "type": "note_on",
        "time": 0,
        "note": 54,
        "velocity": 100,
        "channel": 1
      },
      {
        "type": "note_on",
        "time": 0,
        "note": 47,
        "velocity": 100,
        "channel": 1
      },
      {
        "type": "note_on",
        "time": 30,
        "note": 47,
        "velocity": 0,
        "channel": 1
      },
      {
        "type": "note_on",
        "time": 0,
        "note": 54,
        "velocity": 0,
        "channel": 1
      },
      {
        "type": "note_on",
        "time": 0,
        "note": 54,
        "velocity": 100,
        "channel": 1
      },
      {
        "type": "note_on",
        "time": 0,
        "note": 47,
        "velocity": 100,
        "channel": 1
      },
      {
        "type": "note_on",
        "time": 30,
        "note": 47,
        "velocity": 0,
        "channel": 1
      },
      {
        "type": "note_on",
        "time": 0,
        "note": 54,
        "velocity": 0,
        "channel": 1
      },
      {
        "type": "note_on",
        "time": 0,
        "note": 62,
        "velocity": 101,
        "channel": 1
      },
      {
        "type": "note_on",
        "time": 0,
        "note": 54,
        "velocity": 101,
        "channel": 1
      },
      {
        "type": "note_on",
        "time": 45,
        "note": 54,
        "velocity": 0,
        "channel": 1
      },
      {
        "type": "note_on",
        "time": 0,
        "note": 62,
        "velocity": 0,
        "channel": 1
      },
      {
        "type": "note_on",
        "time": 15,
        "note": 59,
        "velocity": 101,
        "channel": 1
      },
      {
        "type": "note_on",
        "time": 0,
        "note": 64,
        "velocity": 101,
        "channel": 1
      },
      {
        "type": "note_on",
        "time": 45,
        "note": 64,
        "velocity": 0,
        "channel": 1
      },
      {
        "type": "note_on",
        "time": 0,
        "note": 59,
        "velocity": 0,
        "channel": 1
      },
      {
        "type": "note_on",
        "time": 15,
        "note": 54,
        "velocity": 101,
        "channel": 1
      },
      {
        "type": "note_on",
        "time": 0,
        "note": 47,
        "velocity": 101,
        "channel": 1
      },
      {
        "type": "note_on",
        "time": 30,
        "note": 47,
        "velocity": 0,
        "channel": 1
      },
      {
        "type": "note_on",
        "time": 0,
        "note": 54,
        "velocity": 0,
        "channel": 1
      },
      {
        "type": "note_on",
        "time": 0,
        "note": 54,
        "velocity": 102,
        "channel": 1
      },
      {
        "type": "note_on",
        "time": 0,
        "note": 47,
        "velocity": 102,
        "channel": 1
      },
      {
        "type": "note_on",
        "time": 30,
        "note": 47,
        "velocity": 0,
        "channel": 1
      },
      {
        "type": "note_on",
        "time": 0,
        "note": 54,
        "velocity": 0,
        "channel": 1
      },
      {
        "type": "note_on",
        "time": 0,
        "note": 47,
        "velocity": 103,
        "channel": 1
      },
      {
        "type": "note_on",
        "time": 0,
        "note": 54,
        "velocity": 103,
        "channel": 1
      },
      {
        "type": "note_on",
        "time": 30,
        "note": 54,
        "velocity": 0,
        "channel": 1
      },
      {
        "type": "note_on",
        "time": 0,
        "note": 47,
        "velocity": 0,
        "channel": 1
      },
      {
        "type": "note_on",
        "time": 0,
        "note": 54,
        "velocity": 101,
        "channel": 1
      },
      {
        "type": "note_on",
        "time": 0,
        "note": 62,
        "velocity": 104,
        "channel": 1
      },
      {
        "type": "note_on",
        "time": 45,
        "note": 62,
        "velocity": 0,
        "channel": 1
      },
      {
        "type": "note_on",
        "time": 0,
        "note": 54,
        "velocity": 0,
        "channel": 1
      },
      {
        "type": "note_on",
        "time": 15,
        "note": 59,
        "velocity": 101,
        "channel": 1
      },
      {
        "type": "note_on",
        "time": 0,
        "note": 64,
        "velocity": 105,
        "channel": 1
      },
      {
        "type": "note_on",
        "time": 45,
        "note": 64,
        "velocity": 0,
        "channel": 1
      },
      {
        "type": "note_on",
        "time": 0,
        "note": 59,
        "velocity": 0,
        "channel": 1
      },
      {
        "type": "note_on",
        "time": 15,
        "note": 47,
        "velocity": 105,
        "channel": 1
      },
      {
        "type": "note_on",
        "time": 0,
        "note": 54,
        "velocity": 105,
        "channel": 1
      },
      {
        "type": "note_on",
        "time": 30,
        "note": 54,
        "velocity": 0,
        "channel": 1
      },
      {
        "type": "note_on",
        "time": 0,
        "note": 47,
        "velocity": 0,
        "channel": 1
      },
      {
        "type": "note_on",
        "time": 0,
        "note": 54,
        "velocity": 99,
        "channel": 1
      },
      {
        "type": "note_on",
        "time": 0,
        "note": 47,
        "velocity": 99,
        "channel": 1
      },
      {
        "type": "note_on",
        "time": 30,
        "note": 47,
        "velocity": 0,
        "channel": 1
      },
      {
        "type": "note_on",
        "time": 0,
        "note": 54,
        "velocity": 0,
        "channel": 1
      },
      {
        "type": "note_on",
        "time": 0,
        "note": 54,
        "velocity": 99,
        "channel": 1
      },
      {
        "type": "note_on",
        "time": 0,
        "note": 47,
        "velocity": 99,
        "channel": 1
      },
      {
        "type": "note_on",
        "time": 30,
        "note": 47,
        "velocity": 0,
        "channel": 1
      },
      {
        "type": "note_on",
        "time": 0,
        "note": 54,
        "velocity": 0,
        "channel": 1
      },
      {
        "type": "note_on",
        "time": 0,
        "note": 48,
        "velocity": 100,
        "channel": 1
      },
      {
        "type": "note_on",
        "time": 0,
        "note": 67,
        "velocity": 100,
        "channel": 1
      },
      {
        "type": "note_on",
        "time": 0,
        "note": 71,
        "velocity": 100,
        "channel": 1
      },
      {
        "type": "note_on",
        "time": 30,
        "note": 48,
        "velocity": 0,
        "channel": 1
      },
      {
        "type": "note_on",
        "time": 0,
        "note": 48,
        "velocity": 100,
        "channel": 1
      },
      {
        "type": "note_on",
        "time": 30,
        "note": 48,
        "velocity": 0,
        "channel": 1
      },
      {
        "type": "note_on",
        "time": 0,
        "note": 71,
        "velocity": 0,
        "channel": 1
      },
      {
        "type": "note_on",
        "time": 0,
        "note": 67,
        "velocity": 0,
        "channel": 1
      },
      {
        "type": "note_on",
        "time": 0,
        "note": 62,
        "velocity": 100,
        "channel": 1
      },
      {
        "type": "note_on",
        "time": 0,
        "note": 67,
        "velocity": 100,
        "channel": 1
      },
      {
        "type": "note_on",
        "time": 0,
        "note": 71,
        "velocity": 100,
        "channel": 1
      },
      {
        "type": "note_on",
        "time": 60,
        "note": 71,
        "velocity": 0,
        "channel": 1
      },
      {
        "type": "note_on",
        "time": 0,
        "note": 67,
        "velocity": 0,
        "channel": 1
      },
      {
        "type": "note_on",
        "time": 0,
        "note": 62,
        "velocity": 0,
        "channel": 1
      },
      {
        "type": "note_on",
        "time": 0,
        "note": 64,
        "velocity": 100,
        "channel": 1
      },
      {
        "type": "note_on",
        "time": 0,
        "note": 67,
        "velocity": 100,
        "channel": 1
      },
      {
        "type": "note_on",
        "time": 0,
        "note": 71,
        "velocity": 100,
        "channel": 1
      },
      {
        "type": "note_on",
        "time": 60,
        "note": 71,
        "velocity": 0,
        "channel": 1
      },
      {
        "type": "note_on",
        "time": 0,
        "note": 67,
        "velocity": 0,
        "channel": 1
      },
      {
        "type": "note_on",
        "time": 0,
        "note": 64,
        "velocity": 0,
        "channel": 1
      },
      {
        "type": "note_on",
        "time": 0,
        "note": 48,
        "velocity": 100,
        "channel": 1
      },
      {
        "type": "note_on",
        "time": 0,
        "note": 67,
        "velocity": 100,
        "channel": 1
      },
      {
        "type": "note_on",
        "time": 0,
        "note": 71,
        "velocity": 100,
        "channel": 1
      },
      {
        "type": "note_on",
        "time": 30,
        "note": 48,
        "velocity": 0,
        "channel": 1
      },
      {
        "type": "note_on",
        "time": 0,
        "note": 48,
        "velocity": 100,
        "channel": 1
      },
      {
        "type": "note_on",
        "time": 30,
        "note": 48,
        "velocity": 0,
        "channel": 1
      },
      {
        "type": "note_on",
        "time": 0,
        "note": 71,
        "velocity": 0,
        "channel": 1
      },
      {
        "type": "note_on",
        "time": 0,
        "note": 67,
        "velocity": 0,
        "channel": 1
      },
      {
        "type": "note_on",
        "time": 0,
        "note": 48,
        "velocity": 100,
        "channel": 1
      },
      {
        "type": "note_on",
        "time": 0,
        "note": 67,
        "velocity": 100,
        "channel": 1
      },
      {
        "type": "note_on",
        "time": 0,
        "note": 71,
        "velocity": 100,
        "channel": 1
      },
      {
        "type": "note_on",
        "time": 30,
        "note": 71,
        "velocity": 0,
        "channel": 1
      },
      {
        "type": "note_on",
        "time": 0,
        "note": 48,
        "velocity": 0,
        "channel": 1
      },
      {
        "type": "note_on",
        "time": 0,
        "note": 62,
        "velocity": 100,
        "channel": 1
      },
      {
        "type": "note_on",
        "time": 0,
        "note": 71,
        "velocity": 100,
        "channel": 1
      },
      {
        "type": "note_on",
        "time": 30,
        "note": 71,
        "velocity": 0,
        "channel": 1
      },
      {
        "type": "note_on",
        "time": 0,
        "note": 67,
        "velocity": 0,
        "channel": 1
      },
      {
        "type": "note_on",
        "time": 0,
        "note": 67,
        "velocity": 100,
        "channel": 1
      },
      {
        "type": "note_on",
        "time": 0,
        "note": 71,
        "velocity": 100,
        "channel": 1
      },
      {
        "type": "note_on",
        "time": 30,
        "note": 71,
        "velocity": 0,
        "channel": 1
      },
      {
        "type": "note_on",
        "time": 0,
        "note": 62,
        "velocity": 0,
        "channel": 1
      },
      {
        "type": "note_on",
        "time": 0,
        "note": 64,
        "velocity": 100,
        "channel": 1
      },
      {
        "type": "note_on",
        "time": 0,
        "note": 71,
        "velocity": 100,
        "channel": 1
      },
      {
        "type": "note_on",
        "time": 30,
        "note": 71,
        "velocity": 0,
        "channel": 1
      },
      {
        "type": "note_on",
        "time": 0,
        "note": 67,
        "velocity": 0,
        "channel": 1
      },
      {
        "type": "note_on",
        "time": 0,
        "note": 67,
        "velocity": 100,
        "channel": 1
      },
      {
        "type": "note_on",
        "time": 0,
        "note": 71,
        "velocity": 100,
        "channel": 1
      },
      {
        "type": "note_on",
        "time": 30,
        "note": 71,
        "velocity": 0,
        "channel": 1
      },
      {
        "type": "note_on",
        "time": 0,
        "note": 64,
        "velocity": 0,
        "channel": 1
      },
      {
        "type": "note_on",
        "time": 0,
        "note": 64,
        "velocity": 100,
        "channel": 1
      },
      {
        "type": "note_on",
        "time": 0,
        "note": 71,
        "velocity": 100,
        "channel": 1
      },
      {
        "type": "note_on",
        "time": 30,
        "note": 71,
        "velocity": 0,
        "channel": 1
      },
      {
        "type": "note_on",
        "time": 0,
        "note": 64,
        "velocity": 0,
        "channel": 1
      },
      {
        "type": "note_on",
        "time": 0,
        "note": 67,
        "velocity": 0,
        "channel": 1
      },
      {
        "type": "note_on",
        "time": 0,
        "note": 64,
        "velocity": 100,
        "channel": 1
      },
      {
        "type": "note_on",
        "time": 0,
        "note": 67,
        "velocity": 100,
        "channel": 1
      },
      {
        "type": "note_on",
        "time": 0,
        "note": 71,
        "velocity": 100,
        "channel": 1
      },
      {
        "type": "note_on",
        "time": 30,
        "note": 71,
        "velocity": 0,
        "channel": 1
      },
      {
        "type": "note_on",
        "time": 0,
        "note": 64,
        "velocity": 0,
        "channel": 1
      },
      {
        "type": "note_on",
        "time": 0,
        "note": 64,
        "velocity": 100,
        "channel": 1
      },
      {
        "type": "note_on",
        "time": 0,
        "note": 71,
        "velocity": 100,
        "channel": 1
      },
      {
        "type": "note_on",
        "time": 30,
        "note": 71,
        "velocity": 0,
        "channel": 1
      },
      {
        "type": "note_on",
        "time": 0,
        "note": 64,
        "velocity": 0,
        "channel": 1
      },
      {
        "type": "note_on",
        "time": 0,
        "note": 67,
        "velocity": 0,
        "channel": 1
      },
      {
        "type": "note_on",
        "time": 0,
        "note": 55,
        "velocity": 100,
        "channel": 1
      },
      {
        "type": "note_on",
        "time": 0,
        "note": 62,
        "velocity": 100,
        "channel": 1
      },
      {
        "type": "note_on",
        "time": 0,
        "note": 67,
        "velocity": 100,
        "channel": 1
      },
      {
        "type": "note_on",
        "time": 90,
        "note": 67,
        "velocity": 0,
        "channel": 1
      },
      {
        "type": "note_on",
        "time": 0,
        "note": 62,
        "velocity": 0,
        "channel": 1
      },
      {
        "type": "note_on",
        "time": 0,
        "note": 55,
        "velocity": 0,
        "channel": 1
      },
      {
        "type": "note_on",
        "time": 0,
        "note": 55,
        "velocity": 100,
        "channel": 1
      },
      {
        "type": "note_on",
        "time": 0,
        "note": 62,
        "velocity": 100,
        "channel": 1
      },
      {
        "type": "note_on",
        "time": 0,
        "note": 67,
        "velocity": 100,
        "channel": 1
      },
      {
        "type": "note_on",
        "time": 30,
        "note": 67,
        "velocity": 0,
        "channel": 1
      },
      {
        "type": "note_on",
        "time": 0,
        "note": 62,
        "velocity": 0,
        "channel": 1
      },
      {
        "type": "note_on",
        "time": 0,
        "note": 55,
        "velocity": 0,
        "channel": 1
      },
      {
        "type": "note_on",
        "time": 0,
        "note": 55,
        "velocity": 100,
        "channel": 1
      },
      {
        "type": "note_on",
        "time": 0,
        "note": 62,
        "velocity": 100,
        "channel": 1
      },
      {
        "type": "note_on",
        "time": 30,
        "note": 62,
        "velocity": 0,
        "channel": 1
      },
      {
        "type": "note_on",
        "time": 0,
        "note": 55,
        "velocity": 0,
        "channel": 1
      },
      {
        "type": "note_on",
        "time": 0,
        "note": 55,
        "velocity": 100,
        "channel": 1
      },
      {
        "type": "note_on",
        "time": 0,
        "note": 62,
        "velocity": 100,
        "channel": 1
      },
      {
        "type": "note_on",
        "time": 0,
        "note": 67,
        "velocity": 100,
        "channel": 1
      },
      {
        "type": "note_on",
        "time": 30,
        "note": 67,
        "velocity": 0,
        "channel": 1
      },
      {
        "type": "note_on",
        "time": 0,
        "note": 62,
        "velocity": 0,
        "channel": 1
      },
      {
        "type": "note_on",
        "time": 0,
        "note": 55,
        "velocity": 0,
        "channel": 1
      },
      {
        "type": "note_on",
        "time": 0,
        "note": 57,
        "velocity": 100,
        "channel": 1
      },
      {
        "type": "note_on",
        "time": 0,
        "note": 62,
        "velocity": 100,
        "channel": 1
      },
      {
        "type": "note_on",
        "time": 0,
        "note": 66,
        "velocity": 100,
        "channel": 1
      },
      {
        "type": "note_on",
        "time": 120,
        "note": 66,
        "velocity": 0,
        "channel": 1
      },
      {
        "type": "note_on",
        "time": 0,
        "note": 62,
        "velocity": 0,
        "channel": 1
      },
      {
        "type": "note_on",
        "time": 0,
        "note": 57,
        "velocity": 0,
        "channel": 1
      },
      {
        "type": "note_on",
        "time": 0,
        "note": 57,
        "velocity": 100,
        "channel": 1
      },
      {
        "type": "note_on",
        "time": 0,
        "note": 62,
        "velocity": 100,
        "channel": 1
      },
      {
        "type": "note_on",
        "time": 0,
        "note": 66,
        "velocity": 100,
        "channel": 1
      },
      {
        "type": "note_on",
        "time": 60,
        "note": 66,
        "velocity": 0,
        "channel": 1
      },
      {
        "type": "note_on",
        "time": 0,
        "note": 62,
        "velocity": 0,
        "channel": 1
      },
      {
        "type": "note_on",
        "time": 0,
        "note": 57,
        "velocity": 0,
        "channel": 1
      },
      {
        "type": "note_on",
        "time": 0,
        "note": 57,
        "velocity": 100,
        "channel": 1
      },
      {
        "type": "note_on",
        "time": 0,
        "note": 66,
        "velocity": 100,
        "channel": 1
      },
      {
        "type": "note_on",
        "time": 30,
        "note": 57,
        "velocity": 0,
        "channel": 1
      },
      {
        "type": "note_on",
        "time": 0,
        "note": 57,
        "velocity": 100,
        "channel": 1
      },
      {
        "type": "note_on",
        "time": 0,
        "note": 62,
        "velocity": 100,
        "channel": 1
      },
      {
        "type": "note_on",
        "time": 30,
        "note": 62,
        "velocity": 0,
        "channel": 1
      },
      {
        "type": "note_on",
        "time": 0,
        "note": 57,
        "velocity": 0,
        "channel": 1
      },
      {
        "type": "note_on",
        "time": 0,
        "note": 66,
        "velocity": 0,
        "channel": 1
      },
      {
        "type": "note_on",
        "time": 0,
        "note": 57,
        "velocity": 100,
        "channel": 1
      },
      {
        "type": "note_on",
        "time": 0,
        "note": 62,
        "velocity": 100,
        "channel": 1
      },
      {
        "type": "note_on",
        "time": 60,
        "note": 62,
        "velocity": 0,
        "channel": 1
      },
      {
        "type": "note_on",
        "time": 0,
        "note": 57,
        "velocity": 0,
        "channel": 1
      },
      {
        "type": "note_on",
        "time": 0,
        "note": 59,
        "velocity": 100,
        "channel": 1
      },
      {
        "type": "note_on",
        "time": 0,
        "note": 54,
        "velocity": 100,
        "channel": 1
      },
      {
        "type": "note_on",
        "time": 0,
        "note": 66,
        "velocity": 100,
        "channel": 1
      },
      {
        "type": "note_on",
        "time": 90,
        "note": 66,
        "velocity": 0,
        "channel": 1
      },
      {
        "type": "note_on",
        "time": 0,
        "note": 54,
        "velocity": 0,
        "channel": 1
      },
      {
        "type": "note_on",
        "time": 0,
        "note": 59,
        "velocity": 0,
        "channel": 1
      },
      {
        "type": "note_on",
        "time": 0,
        "note": 66,
        "velocity": 100,
        "channel": 1
      },
      {
        "type": "note_on",
        "time": 0,
        "note": 59,
        "velocity": 100,
        "channel": 1
      },
      {
        "type": "note_on",
        "time": 30,
        "note": 59,
        "velocity": 0,
        "channel": 1
      },
      {
        "type": "note_on",
        "time": 0,
        "note": 66,
        "velocity": 0,
        "channel": 1
      },
      {
        "type": "note_on",
        "time": 0,
        "note": 54,
        "velocity": 100,
        "channel": 1
      },
      {
        "type": "note_on",
        "time": 0,
        "note": 59,
        "velocity": 100,
        "channel": 1
      },
      {
        "type": "note_on",
        "time": 0,
        "note": 66,
        "velocity": 100,
        "channel": 1
      },
      {
        "type": "note_on",
        "time": 60,
        "note": 66,
        "velocity": 0,
        "channel": 1
      },
      {
        "type": "note_on",
        "time": 0,
        "note": 59,
        "velocity": 0,
        "channel": 1
      },
      {
        "type": "note_on",
        "time": 0,
        "note": 54,
        "velocity": 0,
        "channel": 1
      },
      {
        "type": "note_on",
        "time": 0,
        "note": 60,
        "velocity": 100,
        "channel": 1
      },
      {
        "type": "note_on",
        "time": 0,
        "note": 64,
        "velocity": 100,
        "channel": 1
      },
      {
        "type": "note_on",
        "time": 0,
        "note": 67,
        "velocity": 100,
        "channel": 1
      },
      {
        "type": "note_on",
        "time": 120,
        "note": 67,
        "velocity": 0,
        "channel": 1
      },
      {
        "type": "note_on",
        "time": 0,
        "note": 64,
        "velocity": 0,
        "channel": 1
      },
      {
        "type": "note_on",
        "time": 0,
        "note": 60,
        "velocity": 0,
        "channel": 1
      },
      {
        "type": "note_on",
        "time": 0,
        "note": 60,
        "velocity": 100,
        "channel": 1
      },
      {
        "type": "note_on",
        "time": 0,
        "note": 64,
        "velocity": 100,
        "channel": 1
      },
      {
        "type": "note_on",
        "time": 0,
        "note": 67,
        "velocity": 100,
        "channel": 1
      },
      {
        "type": "note_on",
        "time": 60,
        "note": 67,
        "velocity": 0,
        "channel": 1
      },
      {
        "type": "note_on",
        "time": 0,
        "note": 64,
        "velocity": 0,
        "channel": 1
      },
      {
        "type": "note_on",
        "time": 0,
        "note": 60,
        "velocity": 0,
        "channel": 1
      },
      {
        "type": "note_on",
        "time": 0,
        "note": 64,
        "velocity": 100,
        "channel": 1
      },
      {
        "type": "note_on",
        "time": 0,
        "note": 67,
        "velocity": 100,
        "channel": 1
      },
      {
        "type": "note_on",
        "time": 0,
        "note": 60,
        "velocity": 100,
        "channel": 1
      },
      {
        "type": "note_on",
        "time": 30,
        "note": 60,
        "velocity": 0,
        "channel": 1
      },
      {
        "type": "note_on",
        "time": 0,
        "note": 64,
        "velocity": 0,
        "channel": 1
      },
      {
        "type": "note_on",
        "time": 0,
        "note": 60,
        "velocity": 100,
        "channel": 1
      },
      {
        "type": "note_on",
        "time": 30,
        "note": 60,
        "velocity": 0,
        "channel": 1
      },
      {
        "type": "note_on",
        "time": 0,
        "note": 67,
        "velocity": 0,
        "channel": 1
      },
      {
        "type": "note_on",
        "time": 0,
        "note": 64,
        "velocity": 100,
        "channel": 1
      },
      {
        "type": "note_on",
        "time": 0,
        "note": 67,
        "velocity": 100,
        "channel": 1
      },
      {
        "type": "note_on",
        "time": 30,
        "note": 67,
        "velocity": 0,
        "channel": 1
      },
      {
        "type": "note_on",
        "time": 0,
        "note": 64,
        "velocity": 0,
        "channel": 1
      },
      {
        "type": "note_on",
        "time": 0,
        "note": 64,
        "velocity": 100,
        "channel": 1
      },
      {
        "type": "note_on",
        "time": 0,
        "note": 67,
        "velocity": 100,
        "channel": 1
      },
      {
        "type": "note_on",
        "time": 30,
        "note": 67,
        "velocity": 0,
        "channel": 1
      },
      {
        "type": "note_on",
        "time": 0,
        "note": 64,
        "velocity": 0,
        "channel": 1
      },
      {
        "type": "note_on",
        "time": 0,
        "note": 55,
        "velocity": 100,
        "channel": 1
      },
      {
        "type": "note_on",
        "time": 0,
        "note": 62,
        "velocity": 100,
        "channel": 1
      },
      {
        "type": "note_on",
        "time": 0,
        "note": 67,
        "velocity": 100,
        "channel": 1
      },
      {
        "type": "note_on",
        "time": 90,
        "note": 67,
        "velocity": 0,
        "channel": 1
      },
      {
        "type": "note_on",
        "time": 0,
        "note": 62,
        "velocity": 0,
        "channel": 1
      },
      {
        "type": "note_on",
        "time": 0,
        "note": 55,
        "velocity": 0,
        "channel": 1
      },
      {
        "type": "note_on",
        "time": 0,
        "note": 55,
        "velocity": 100,
        "channel": 1
      },
      {
        "type": "note_on",
        "time": 0,
        "note": 62,
        "velocity": 100,
        "channel": 1
      },
      {
        "type": "note_on",
        "time": 0,
        "note": 67,
        "velocity": 100,
        "channel": 1
      },
      {
        "type": "note_on",
        "time": 30,
        "note": 67,
        "velocity": 0,
        "channel": 1
      },
      {
        "type": "note_on",
        "time": 0,
        "note": 62,
        "velocity": 0,
        "channel": 1
      },
      {
        "type": "note_on",
        "time": 0,
        "note": 55,
        "velocity": 0,
        "channel": 1
      },
      {
        "type": "note_on",
        "time": 0,
        "note": 55,
        "velocity": 100,
        "channel": 1
      },
      {
        "type": "note_on",
        "time": 0,
        "note": 62,
        "velocity": 100,
        "channel": 1
      },
      {
        "type": "note_on",
        "time": 30,
        "note": 62,
        "velocity": 0,
        "channel": 1
      },
      {
        "type": "note_on",
        "time": 0,
        "note": 55,
        "velocity": 0,
        "channel": 1
      },
      {
        "type": "note_on",
        "time": 0,
        "note": 55,
        "velocity": 100,
        "channel": 1
      },
      {
        "type": "note_on",
        "time": 0,
        "note": 62,
        "velocity": 100,
        "channel": 1
      },
      {
        "type": "note_on",
        "time": 0,
        "note": 67,
        "velocity": 100,
        "channel": 1
      },
      {
        "type": "note_on",
        "time": 30,
        "note": 67,
        "velocity": 0,
        "channel": 1
      },
      {
        "type": "note_on",
        "time": 0,
        "note": 62,
        "velocity": 0,
        "channel": 1
      },
      {
        "type": "note_on",
        "time": 0,
        "note": 55,
        "velocity": 0,
        "channel": 1
      },
      {
        "type": "note_on",
        "time": 0,
        "note": 57,
        "velocity": 100,
        "channel": 1
      },
      {
        "type": "note_on",
        "time": 0,
        "note": 62,
        "velocity": 100,
        "channel": 1
      },
      {
        "type": "note_on",
        "time": 0,
        "note": 66,
        "velocity": 100,
        "channel": 1
      },
      {
        "type": "note_on",
        "time": 120,
        "note": 66,
        "velocity": 0,
        "channel": 1
      },
      {
        "type": "note_on",
        "time": 0,
        "note": 62,
        "velocity": 0,
        "channel": 1
      },
      {
        "type": "note_on",
        "time": 0,
        "note": 57,
        "velocity": 0,
        "channel": 1
      },
      {
        "type": "note_on",
        "time": 0,
        "note": 57,
        "velocity": 100,
        "channel": 1
      },
      {
        "type": "note_on",
        "time": 0,
        "note": 62,
        "velocity": 100,
        "channel": 1
      },
      {
        "type": "note_on",
        "time": 0,
        "note": 66,
        "velocity": 100,
        "channel": 1
      },
      {
        "type": "note_on",
        "time": 60,
        "note": 66,
        "velocity": 0,
        "channel": 1
      },
      {
        "type": "note_on",
        "time": 0,
        "note": 62,
        "velocity": 0,
        "channel": 1
      },
      {
        "type": "note_on",
        "time": 0,
        "note": 57,
        "velocity": 0,
        "channel": 1
      },
      {
        "type": "note_on",
        "time": 0,
        "note": 57,
        "velocity": 100,
        "channel": 1
      },
      {
        "type": "note_on",
        "time": 0,
        "note": 66,
        "velocity": 100,
        "channel": 1
      },
      {
        "type": "note_on",
        "time": 30,
        "note": 57,
        "velocity": 0,
        "channel": 1
      },
      {
        "type": "note_on",
        "time": 0,
        "note": 57,
        "velocity": 100,
        "channel": 1
      },
      {
        "type": "note_on",
        "time": 0,
        "note": 62,
        "velocity": 100,
        "channel": 1
      },
      {
        "type": "note_on",
        "time": 30,
        "note": 62,
        "velocity": 0,
        "channel": 1
      },
      {
        "type": "note_on",
        "time": 0,
        "note": 57,
        "velocity": 0,
        "channel": 1
      },
      {
        "type": "note_on",
        "time": 0,
        "note": 66,
        "velocity": 0,
        "channel": 1
      },
      {
        "type": "note_on",
        "time": 0,
        "note": 57,
        "velocity": 100,
        "channel": 1
      },
      {
        "type": "note_on",
        "time": 0,
        "note": 62,
        "velocity": 100,
        "channel": 1
      },
      {
        "type": "note_on",
        "time": 60,
        "note": 62,
        "velocity": 0,
        "channel": 1
      },
      {
        "type": "note_on",
        "time": 0,
        "note": 57,
        "velocity": 0,
        "channel": 1
      },
      {
        "type": "note_on",
        "time": 0,
        "note": 54,
        "velocity": 100,
        "channel": 1
      },
      {
        "type": "note_on",
        "time": 0,
        "note": 59,
        "velocity": 100,
        "channel": 1
      },
      {
        "type": "note_on",
        "time": 0,
        "note": 66,
        "velocity": 100,
        "channel": 1
      },
      {
        "type": "note_on",
        "time": 120,
        "note": 66,
        "velocity": 0,
        "channel": 1
      },
      {
        "type": "note_on",
        "time": 0,
        "note": 54,
        "velocity": 100,
        "channel": 1
      },
      {
        "type": "note_on",
        "time": 0,
        "note": 59,
        "velocity": 100,
        "channel": 1
      },
      {
        "type": "note_on",
        "time": 0,
        "note": 66,
        "velocity": 100,
        "channel": 1
      },
      {
        "type": "note_on",
        "time": 45,
        "note": 59,
        "velocity": 0,
        "channel": 1
      },
      {
        "type": "note_on",
        "time": 15,
        "note": 59,
        "velocity": 0,
        "channel": 1
      },
      {
        "type": "note_on",
        "time": 0,
        "note": 54,
        "velocity": 0,
        "channel": 1
      },
      {
        "type": "note_on",
        "time": 0,
        "note": 54,
        "velocity": 0,
        "channel": 1
      },
      {
        "type": "note_on",
        "time": 0,
        "note": 66,
        "velocity": 0,
        "channel": 1
      },
      {
        "type": "note_on",
        "time": 0,
        "note": 60,
        "velocity": 100,
        "channel": 1
      },
      {
        "type": "note_on",
        "time": 0,
        "note": 67,
        "velocity": 100,
        "channel": 1
      },
      {
        "type": "note_on",
        "time": 0,
        "note": 55,
        "velocity": 100,
        "channel": 1
      },
      {
        "type": "note_on",
        "time": 120,
        "note": 55,
        "velocity": 0,
        "channel": 1
      },
      {
        "type": "note_on",
        "time": 0,
        "note": 67,
        "velocity": 0,
        "channel": 1
      },
      {
        "type": "note_on",
        "time": 0,
        "note": 60,
        "velocity": 0,
        "channel": 1
      },
      {
        "type": "note_on",
        "time": 0,
        "note": 55,
        "velocity": 100,
        "channel": 1
      },
      {
        "type": "note_on",
        "time": 0,
        "note": 60,
        "velocity": 100,
        "channel": 1
      },
      {
        "type": "note_on",
        "time": 0,
        "note": 67,
        "velocity": 100,
        "channel": 1
      },
      {
        "type": "note_on",
        "time": 60,
        "note": 67,
        "velocity": 0,
        "channel": 1
      },
      {
        "type": "note_on",
        "time": 0,
        "note": 60,
        "velocity": 0,
        "channel": 1
      },
      {
        "type": "note_on",
        "time": 0,
        "note": 55,
        "velocity": 0,
        "channel": 1
      },
      {
        "type": "note_on",
        "time": 0,
        "note": 55,
        "velocity": 100,
        "channel": 1
      },
      {
        "type": "note_on",
        "time": 0,
        "note": 60,
        "velocity": 100,
        "channel": 1
      },
      {
        "type": "note_on",
        "time": 0,
        "note": 67,
        "velocity": 100,
        "channel": 1
      },
      {
        "type": "note_on",
        "time": 60,
        "note": 67,
        "velocity": 0,
        "channel": 1
      },
      {
        "type": "note_on",
        "time": 0,
        "note": 60,
        "velocity": 0,
        "channel": 1
      },
      {
        "type": "note_on",
        "time": 0,
        "note": 55,
        "velocity": 0,
        "channel": 1
      },
      {
        "type": "note_on",
        "time": 0,
        "note": 55,
        "velocity": 100,
        "channel": 1
      },
      {
        "type": "note_on",
        "time": 0,
        "note": 60,
        "velocity": 100,
        "channel": 1
      },
      {
        "type": "note_on",
        "time": 0,
        "note": 67,
        "velocity": 100,
        "channel": 1
      },
      {
        "type": "note_on",
        "time": 30,
        "note": 67,
        "velocity": 0,
        "channel": 1
      },
      {
        "type": "note_on",
        "time": 0,
        "note": 60,
        "velocity": 0,
        "channel": 1
      },
      {
        "type": "note_on",
        "time": 0,
        "note": 60,
        "velocity": 100,
        "channel": 1
      },
      {
        "type": "note_on",
        "time": 0,
        "note": 67,
        "velocity": 100,
        "channel": 1
      },
      {
        "type": "note_on",
        "time": 30,
        "note": 67,
        "velocity": 0,
        "channel": 1
      },
      {
        "type": "note_on",
        "time": 0,
        "note": 60,
        "velocity": 0,
        "channel": 1
      },
      {
        "type": "note_on",
        "time": 0,
        "note": 55,
        "velocity": 0,
        "channel": 1
      },
      {
        "type": "note_on",
        "time": 0,
        "note": 55,
        "velocity": 100,
        "channel": 1
      },
      {
        "type": "note_on",
        "time": 0,
        "note": 62,
        "velocity": 100,
        "channel": 1
      },
      {
        "type": "note_on",
        "time": 0,
        "note": 67,
        "velocity": 100,
        "channel": 1
      },
      {
        "type": "note_on",
        "time": 90,
        "note": 67,
        "velocity": 0,
        "channel": 1
      },
      {
        "type": "note_on",
        "time": 0,
        "note": 62,
        "velocity": 0,
        "channel": 1
      },
      {
        "type": "note_on",
        "time": 0,
        "note": 55,
        "velocity": 0,
        "channel": 1
      },
      {
        "type": "note_on",
        "time": 0,
        "note": 55,
        "velocity": 100,
        "channel": 1
      },
      {
        "type": "note_on",
        "time": 0,
        "note": 62,
        "velocity": 100,
        "channel": 1
      },
      {
        "type": "note_on",
        "time": 0,
        "note": 67,
        "velocity": 100,
        "channel": 1
      },
      {
        "type": "note_on",
        "time": 30,
        "note": 67,
        "velocity": 0,
        "channel": 1
      },
      {
        "type": "note_on",
        "time": 0,
        "note": 62,
        "velocity": 0,
        "channel": 1
      },
      {
        "type": "note_on",
        "time": 0,
        "note": 55,
        "velocity": 0,
        "channel": 1
      },
      {
        "type": "note_on",
        "time": 0,
        "note": 55,
        "velocity": 100,
        "channel": 1
      },
      {
        "type": "note_on",
        "time": 0,
        "note": 62,
        "velocity": 100,
        "channel": 1
      },
      {
        "type": "note_on",
        "time": 30,
        "note": 62,
        "velocity": 0,
        "channel": 1
      },
      {
        "type": "note_on",
        "time": 0,
        "note": 55,
        "velocity": 0,
        "channel": 1
      },
      {
        "type": "note_on",
        "time": 0,
        "note": 55,
        "velocity": 100,
        "channel": 1
      },
      {
        "type": "note_on",
        "time": 0,
        "note": 62,
        "velocity": 100,
        "channel": 1
      },
      {
        "type": "note_on",
        "time": 0,
        "note": 67,
        "velocity": 100,
        "channel": 1
      },
      {
        "type": "note_on",
        "time": 30,
        "note": 67,
        "velocity": 0,
        "channel": 1
      },
      {
        "type": "note_on",
        "time": 0,
        "note": 62,
        "velocity": 0,
        "channel": 1
      },
      {
        "type": "note_on",
        "time": 0,
        "note": 55,
        "velocity": 0,
        "channel": 1
      },
      {
        "type": "note_on",
        "time": 0,
        "note": 57,
        "velocity": 100,
        "channel": 1
      },
      {
        "type": "note_on",
        "time": 0,
        "note": 62,
        "velocity": 100,
        "channel": 1
      },
      {
        "type": "note_on",
        "time": 0,
        "note": 66,
        "velocity": 100,
        "channel": 1
      },
      {
        "type": "note_on",
        "time": 120,
        "note": 66,
        "velocity": 0,
        "channel": 1
      },
      {
        "type": "note_on",
        "time": 0,
        "note": 62,
        "velocity": 0,
        "channel": 1
      },
      {
        "type": "note_on",
        "time": 0,
        "note": 57,
        "velocity": 0,
        "channel": 1
      },
      {
        "type": "note_on",
        "time": 0,
        "note": 57,
        "velocity": 100,
        "channel": 1
      },
      {
        "type": "note_on",
        "time": 0,
        "note": 62,
        "velocity": 100,
        "channel": 1
      },
      {
        "type": "note_on",
        "time": 0,
        "note": 66,
        "velocity": 100,
        "channel": 1
      },
      {
        "type": "note_on",
        "time": 60,
        "note": 66,
        "velocity": 0,
        "channel": 1
      },
      {
        "type": "note_on",
        "time": 0,
        "note": 62,
        "velocity": 0,
        "channel": 1
      },
      {
        "type": "note_on",
        "time": 0,
        "note": 57,
        "velocity": 0,
        "channel": 1
      },
      {
        "type": "note_on",
        "time": 0,
        "note": 57,
        "velocity": 100,
        "channel": 1
      },
      {
        "type": "note_on",
        "time": 0,
        "note": 66,
        "velocity": 100,
        "channel": 1
      },
      {
        "type": "note_on",
        "time": 30,
        "note": 57,
        "velocity": 0,
        "channel": 1
      },
      {
        "type": "note_on",
        "time": 0,
        "note": 57,
        "velocity": 100,
        "channel": 1
      },
      {
        "type": "note_on",
        "time": 0,
        "note": 62,
        "velocity": 100,
        "channel": 1
      },
      {
        "type": "note_on",
        "time": 30,
        "note": 62,
        "velocity": 0,
        "channel": 1
      },
      {
        "type": "note_on",
        "time": 0,
        "note": 57,
        "velocity": 0,
        "channel": 1
      },
      {
        "type": "note_on",
        "time": 0,
        "note": 66,
        "velocity": 0,
        "channel": 1
      },
      {
        "type": "note_on",
        "time": 0,
        "note": 57,
        "velocity": 100,
        "channel": 1
      },
      {
        "type": "note_on",
        "time": 0,
        "note": 62,
        "velocity": 100,
        "channel": 1
      },
      {
        "type": "note_on",
        "time": 60,
        "note": 62,
        "velocity": 0,
        "channel": 1
      },
      {
        "type": "note_on",
        "time": 0,
        "note": 57,
        "velocity": 0,
        "channel": 1
      },
      {
        "type": "note_on",
        "time": 0,
        "note": 59,
        "velocity": 100,
        "channel": 1
      },
      {
        "type": "note_on",
        "time": 0,
        "note": 54,
        "velocity": 100,
        "channel": 1
      },
      {
        "type": "note_on",
        "time": 0,
        "note": 66,
        "velocity": 100,
        "channel": 1
      },
      {
        "type": "note_on",
        "time": 90,
        "note": 66,
        "velocity": 0,
        "channel": 1
      },
      {
        "type": "note_on",
        "time": 0,
        "note": 54,
        "velocity": 0,
        "channel": 1
      },
      {
        "type": "note_on",
        "time": 0,
        "note": 59,
        "velocity": 0,
        "channel": 1
      },
      {
        "type": "note_on",
        "time": 0,
        "note": 66,
        "velocity": 100,
        "channel": 1
      },
      {
        "type": "note_on",
        "time": 0,
        "note": 59,
        "velocity": 100,
        "channel": 1
      },
      {
        "type": "note_on",
        "time": 30,
        "note": 59,
        "velocity": 0,
        "channel": 1
      },
      {
        "type": "note_on",
        "time": 0,
        "note": 66,
        "velocity": 0,
        "channel": 1
      },
      {
        "type": "note_on",
        "time": 0,
        "note": 54,
        "velocity": 100,
        "channel": 1
      },
      {
        "type": "note_on",
        "time": 0,
        "note": 59,
        "velocity": 100,
        "channel": 1
      },
      {
        "type": "note_on",
        "time": 0,
        "note": 66,
        "velocity": 100,
        "channel": 1
      },
      {
        "type": "note_on",
        "time": 60,
        "note": 66,
        "velocity": 0,
        "channel": 1
      },
      {
        "type": "note_on",
        "time": 0,
        "note": 59,
        "velocity": 0,
        "channel": 1
      },
      {
        "type": "note_on",
        "time": 0,
        "note": 54,
        "velocity": 0,
        "channel": 1
      },
      {
        "type": "note_on",
        "time": 0,
        "note": 60,
        "velocity": 100,
        "channel": 1
      },
      {
        "type": "note_on",
        "time": 0,
        "note": 64,
        "velocity": 100,
        "channel": 1
      },
      {
        "type": "note_on",
        "time": 0,
        "note": 67,
        "velocity": 100,
        "channel": 1
      },
      {
        "type": "note_on",
        "time": 120,
        "note": 67,
        "velocity": 0,
        "channel": 1
      },
      {
        "type": "note_on",
        "time": 0,
        "note": 64,
        "velocity": 0,
        "channel": 1
      },
      {
        "type": "note_on",
        "time": 0,
        "note": 60,
        "velocity": 0,
        "channel": 1
      },
      {
        "type": "note_on",
        "time": 0,
        "note": 60,
        "velocity": 100,
        "channel": 1
      },
      {
        "type": "note_on",
        "time": 0,
        "note": 64,
        "velocity": 100,
        "channel": 1
      },
      {
        "type": "note_on",
        "time": 0,
        "note": 67,
        "velocity": 100,
        "channel": 1
      },
      {
        "type": "note_on",
        "time": 60,
        "note": 67,
        "velocity": 0,
        "channel": 1
      },
      {
        "type": "note_on",
        "time": 0,
        "note": 64,
        "velocity": 0,
        "channel": 1
      },
      {
        "type": "note_on",
        "time": 0,
        "note": 60,
        "velocity": 0,
        "channel": 1
      },
      {
        "type": "note_on",
        "time": 0,
        "note": 64,
        "velocity": 100,
        "channel": 1
      },
      {
        "type": "note_on",
        "time": 0,
        "note": 67,
        "velocity": 100,
        "channel": 1
      },
      {
        "type": "note_on",
        "time": 0,
        "note": 60,
        "velocity": 100,
        "channel": 1
      },
      {
        "type": "note_on",
        "time": 30,
        "note": 60,
        "velocity": 0,
        "channel": 1
      },
      {
        "type": "note_on",
        "time": 0,
        "note": 64,
        "velocity": 0,
        "channel": 1
      },
      {
        "type": "note_on",
        "time": 0,
        "note": 60,
        "velocity": 100,
        "channel": 1
      },
      {
        "type": "note_on",
        "time": 30,
        "note": 60,
        "velocity": 0,
        "channel": 1
      },
      {
        "type": "note_on",
        "time": 0,
        "note": 67,
        "velocity": 0,
        "channel": 1
      },
      {
        "type": "note_on",
        "time": 0,
        "note": 64,
        "velocity": 100,
        "channel": 1
      },
      {
        "type": "note_on",
        "time": 0,
        "note": 67,
        "velocity": 100,
        "channel": 1
      },
      {
        "type": "note_on",
        "time": 30,
        "note": 67,
        "velocity": 0,
        "channel": 1
      },
      {
        "type": "note_on",
        "time": 0,
        "note": 64,
        "velocity": 0,
        "channel": 1
      },
      {
        "type": "note_on",
        "time": 0,
        "note": 64,
        "velocity": 100,
        "channel": 1
      },
      {
        "type": "note_on",
        "time": 0,
        "note": 67,
        "velocity": 100,
        "channel": 1
      },
      {
        "type": "note_on",
        "time": 30,
        "note": 67,
        "velocity": 0,
        "channel": 1
      },
      {
        "type": "note_on",
        "time": 0,
        "note": 64,
        "velocity": 0,
        "channel": 1
      },
      {
        "type": "note_on",
        "time": 0,
        "note": 55,
        "velocity": 100,
        "channel": 1
      },
      {
        "type": "note_on",
        "time": 0,
        "note": 62,
        "velocity": 100,
        "channel": 1
      },
      {
        "type": "note_on",
        "time": 0,
        "note": 67,
        "velocity": 100,
        "channel": 1
      },
      {
        "type": "note_on",
        "time": 90,
        "note": 67,
        "velocity": 0,
        "channel": 1
      },
      {
        "type": "note_on",
        "time": 0,
        "note": 62,
        "velocity": 0,
        "channel": 1
      },
      {
        "type": "note_on",
        "time": 0,
        "note": 55,
        "velocity": 0,
        "channel": 1
      },
      {
        "type": "note_on",
        "time": 0,
        "note": 55,
        "velocity": 100,
        "channel": 1
      },
      {
        "type": "note_on",
        "time": 0,
        "note": 62,
        "velocity": 100,
        "channel": 1
      },
      {
        "type": "note_on",
        "time": 0,
        "note": 67,
        "velocity": 100,
        "channel": 1
      },
      {
        "type": "note_on",
        "time": 30,
        "note": 67,
        "velocity": 0,
        "channel": 1
      },
      {
        "type": "note_on",
        "time": 0,
        "note": 62,
        "velocity": 0,
        "channel": 1
      },
      {
        "type": "note_on",
        "time": 0,
        "note": 55,
        "velocity": 0,
        "channel": 1
      },
      {
        "type": "note_on",
        "time": 0,
        "note": 55,
        "velocity": 100,
        "channel": 1
      },
      {
        "type": "note_on",
        "time": 0,
        "note": 62,
        "velocity": 100,
        "channel": 1
      },
      {
        "type": "note_on",
        "time": 30,
        "note": 62,
        "velocity": 0,
        "channel": 1
      },
      {
        "type": "note_on",
        "time": 0,
        "note": 55,
        "velocity": 0,
        "channel": 1
      },
      {
        "type": "note_on",
        "time": 0,
        "note": 55,
        "velocity": 100,
        "channel": 1
      },
      {
        "type": "note_on",
        "time": 0,
        "note": 62,
        "velocity": 100,
        "channel": 1
      },
      {
        "type": "note_on",
        "time": 0,
        "note": 67,
        "velocity": 100,
        "channel": 1
      },
      {
        "type": "note_on",
        "time": 30,
        "note": 67,
        "velocity": 0,
        "channel": 1
      },
      {
        "type": "note_on",
        "time": 0,
        "note": 62,
        "velocity": 0,
        "channel": 1
      },
      {
        "type": "note_on",
        "time": 0,
        "note": 55,
        "velocity": 0,
        "channel": 1
      },
      {
        "type": "note_on",
        "time": 0,
        "note": 57,
        "velocity": 100,
        "channel": 1
      },
      {
        "type": "note_on",
        "time": 0,
        "note": 62,
        "velocity": 100,
        "channel": 1
      },
      {
        "type": "note_on",
        "time": 0,
        "note": 66,
        "velocity": 100,
        "channel": 1
      },
      {
        "type": "note_on",
        "time": 120,
        "note": 66,
        "velocity": 0,
        "channel": 1
      },
      {
        "type": "note_on",
        "time": 0,
        "note": 62,
        "velocity": 0,
        "channel": 1
      },
      {
        "type": "note_on",
        "time": 0,
        "note": 57,
        "velocity": 0,
        "channel": 1
      },
      {
        "type": "note_on",
        "time": 0,
        "note": 57,
        "velocity": 100,
        "channel": 1
      },
      {
        "type": "note_on",
        "time": 0,
        "note": 62,
        "velocity": 100,
        "channel": 1
      },
      {
        "type": "note_on",
        "time": 0,
        "note": 66,
        "velocity": 100,
        "channel": 1
      },
      {
        "type": "note_on",
        "time": 60,
        "note": 66,
        "velocity": 0,
        "channel": 1
      },
      {
        "type": "note_on",
        "time": 0,
        "note": 62,
        "velocity": 0,
        "channel": 1
      },
      {
        "type": "note_on",
        "time": 0,
        "note": 57,
        "velocity": 0,
        "channel": 1
      },
      {
        "type": "note_on",
        "time": 0,
        "note": 57,
        "velocity": 100,
        "channel": 1
      },
      {
        "type": "note_on",
        "time": 0,
        "note": 66,
        "velocity": 100,
        "channel": 1
      },
      {
        "type": "note_on",
        "time": 30,
        "note": 57,
        "velocity": 0,
        "channel": 1
      },
      {
        "type": "note_on",
        "time": 0,
        "note": 57,
        "velocity": 100,
        "channel": 1
      },
      {
        "type": "note_on",
        "time": 0,
        "note": 62,
        "velocity": 100,
        "channel": 1
      },
      {
        "type": "note_on",
        "time": 30,
        "note": 62,
        "velocity": 0,
        "channel": 1
      },
      {
        "type": "note_on",
        "time": 0,
        "note": 57,
        "velocity": 0,
        "channel": 1
      },
      {
        "type": "note_on",
        "time": 0,
        "note": 66,
        "velocity": 0,
        "channel": 1
      },
      {
        "type": "note_on",
        "time": 0,
        "note": 57,
        "velocity": 100,
        "channel": 1
      },
      {
        "type": "note_on",
        "time": 0,
        "note": 62,
        "velocity": 100,
        "channel": 1
      },
      {
        "type": "note_on",
        "time": 60,
        "note": 62,
        "velocity": 0,
        "channel": 1
      },
      {
        "type": "note_on",
        "time": 0,
        "note": 57,
        "velocity": 0,
        "channel": 1
      },
      {
        "type": "note_on",
        "time": 0,
        "note": 59,
        "velocity": 100,
        "channel": 1
      },
      {
        "type": "note_on",
        "time": 0,
        "note": 62,
        "velocity": 100,
        "channel": 1
      },
      {
        "type": "note_on",
        "time": 0,
        "note": 66,
        "velocity": 100,
        "channel": 1
      },
      {
        "type": "note_on",
        "time": 120,
        "note": 66,
        "velocity": 0,
        "channel": 1
      },
      {
        "type": "note_on",
        "time": 0,
        "note": 62,
        "velocity": 0,
        "channel": 1
      },
      {
        "type": "note_on",
        "time": 0,
        "note": 59,
        "velocity": 0,
        "channel": 1
      },
      {
        "type": "note_on",
        "time": 0,
        "note": 64,
        "velocity": 100,
        "channel": 1
      },
      {
        "type": "note_on",
        "time": 0,
        "note": 67,
        "velocity": 100,
        "channel": 1
      },
      {
        "type": "note_on",
        "time": 0,
        "note": 60,
        "velocity": 100,
        "channel": 1
      },
      {
        "type": "note_on",
        "time": 360,
        "note": 60,
        "velocity": 0,
        "channel": 1
      },
      {
        "type": "note_on",
        "time": 0,
        "note": 67,
        "velocity": 0,
        "channel": 1
      },
      {
        "type": "note_on",
        "time": 0,
        "note": 64,
        "velocity": 0,
        "channel": 1
      },
      {
        "type": "note_on",
        "time": 60,
        "note": 64,
        "velocity": 100,
        "channel": 1
      },
      {
        "type": "note_on",
        "time": 0,
        "note": 59,
        "velocity": 100,
        "channel": 1
      },
      {
        "type": "note_on",
        "time": 0,
        "note": 64,
        "velocity": 100,
        "channel": 1
      },
      {
        "type": "note_on",
        "time": 60,
        "note": 64,
        "velocity": 0,
        "channel": 1
      },
      {
        "type": "note_on",
        "time": 0,
        "note": 59,
        "velocity": 0,
        "channel": 1
      },
      {
        "type": "note_on",
        "time": 0,
        "note": 64,
        "velocity": 0,
        "channel": 1
      },
      {
        "type": "note_on",
        "time": 60,
        "note": 59,
        "velocity": 100,
        "channel": 1
      },
      {
        "type": "note_on",
        "time": 0,
        "note": 64,
        "velocity": 100,
        "channel": 1
      },
      {
        "type": "note_on",
        "time": 60,
        "note": 64,
        "velocity": 0,
        "channel": 1
      },
      {
        "type": "note_on",
        "time": 0,
        "note": 59,
        "velocity": 0,
        "channel": 1
      },
      {
        "type": "note_on",
        "time": 60,
        "note": 59,
        "velocity": 100,
        "channel": 1
      },
      {
        "type": "note_on",
        "time": 0,
        "note": 64,
        "velocity": 100,
        "channel": 1
      },
      {
        "type": "note_on",
        "time": 60,
        "note": 64,
        "velocity": 0,
        "channel": 1
      },
      {
        "type": "note_on",
        "time": 0,
        "note": 59,
        "velocity": 0,
        "channel": 1
      },
      {
        "type": "note_on",
        "time": 60,
        "note": 59,
        "velocity": 100,
        "channel": 1
      },
      {
        "type": "note_on",
        "time": 0,
        "note": 64,
        "velocity": 100,
        "channel": 1
      },
      {
        "type": "note_on",
        "time": 60,
        "note": 64,
        "velocity": 0,
        "channel": 1
      },
      {
        "type": "note_on",
        "time": 0,
        "note": 59,
        "velocity": 0,
        "channel": 1
      },
      {
        "type": "note_on",
        "time": 60,
        "note": 57,
        "velocity": 100,
        "channel": 1
      },
      {
        "type": "note_on",
        "time": 0,
        "note": 62,
        "velocity": 100,
        "channel": 1
      },
      {
        "type": "note_on",
        "time": 60,
        "note": 62,
        "velocity": 0,
        "channel": 1
      },
      {
        "type": "note_on",
        "time": 0,
        "note": 57,
        "velocity": 0,
        "channel": 1
      },
      {
        "type": "note_on",
        "time": 60,
        "note": 57,
        "velocity": 100,
        "channel": 1
      },
      {
        "type": "note_on",
        "time": 0,
        "note": 62,
        "velocity": 100,
        "channel": 1
      },
      {
        "type": "note_on",
        "time": 60,
        "note": 62,
        "velocity": 0,
        "channel": 1
      },
      {
        "type": "note_on",
        "time": 0,
        "note": 57,
        "velocity": 0,
        "channel": 1
      },
      {
        "type": "note_on",
        "time": 60,
        "note": 57,
        "velocity": 100,
        "channel": 1
      },
      {
        "type": "note_on",
        "time": 0,
        "note": 62,
        "velocity": 100,
        "channel": 1
      },
      {
        "type": "note_on",
        "time": 60,
        "note": 62,
        "velocity": 0,
        "channel": 1
      },
      {
        "type": "note_on",
        "time": 0,
        "note": 57,
        "velocity": 0,
        "channel": 1
      },
      {
        "type": "note_on",
        "time": 60,
        "note": 57,
        "velocity": 100,
        "channel": 1
      },
      {
        "type": "note_on",
        "time": 0,
        "note": 62,
        "velocity": 100,
        "channel": 1
      },
      {
        "type": "note_on",
        "time": 60,
        "note": 62,
        "velocity": 0,
        "channel": 1
      },
      {
        "type": "note_on",
        "time": 0,
        "note": 57,
        "velocity": 0,
        "channel": 1
      },
      {
        "type": "note_on",
        "time": 60,
        "note": 54,
        "velocity": 100,
        "channel": 1
      },
      {
        "type": "note_on",
        "time": 0,
        "note": 59,
        "velocity": 100,
        "channel": 1
      },
      {
        "type": "note_on",
        "time": 60,
        "note": 59,
        "velocity": 0,
        "channel": 1
      },
      {
        "type": "note_on",
        "time": 0,
        "note": 54,
        "velocity": 0,
        "channel": 1
      },
      {
        "type": "note_on",
        "time": 60,
        "note": 54,
        "velocity": 100,
        "channel": 1
      },
      {
        "type": "note_on",
        "time": 0,
        "note": 59,
        "velocity": 100,
        "channel": 1
      },
      {
        "type": "note_on",
        "time": 60,
        "note": 59,
        "velocity": 0,
        "channel": 1
      },
      {
        "type": "note_on",
        "time": 0,
        "note": 54,
        "velocity": 0,
        "channel": 1
      },
      {
        "type": "note_on",
        "time": 60,
        "note": 54,
        "velocity": 100,
        "channel": 1
      },
      {
        "type": "note_on",
        "time": 0,
        "note": 59,
        "velocity": 100,
        "channel": 1
      },
      {
        "type": "note_on",
        "time": 60,
        "note": 59,
        "velocity": 0,
        "channel": 1
      },
      {
        "type": "note_on",
        "time": 0,
        "note": 54,
        "velocity": 0,
        "channel": 1
      },
      {
        "type": "note_on",
        "time": 60,
        "note": 54,
        "velocity": 100,
        "channel": 1
      },
      {
        "type": "note_on",
        "time": 0,
        "note": 59,
        "velocity": 100,
        "channel": 1
      },
      {
        "type": "note_on",
        "time": 60,
        "note": 59,
        "velocity": 0,
        "channel": 1
      },
      {
        "type": "note_on",
        "time": 0,
        "note": 54,
        "velocity": 0,
        "channel": 1
      },
      {
        "type": "note_on",
        "time": 60,
        "note": 55,
        "velocity": 100,
        "channel": 1
      },
      {
        "type": "note_on",
        "time": 0,
        "note": 60,
        "velocity": 100,
        "channel": 1
      },
      {
        "type": "note_on",
        "time": 60,
        "note": 60,
        "velocity": 0,
        "channel": 1
      },
      {
        "type": "note_on",
        "time": 0,
        "note": 55,
        "velocity": 0,
        "channel": 1
      },
      {
        "type": "note_on",
        "time": 60,
        "note": 55,
        "velocity": 100,
        "channel": 1
      },
      {
        "type": "note_on",
        "time": 0,
        "note": 60,
        "velocity": 100,
        "channel": 1
      },
      {
        "type": "note_on",
        "time": 60,
        "note": 60,
        "velocity": 0,
        "channel": 1
      },
      {
        "type": "note_on",
        "time": 0,
        "note": 55,
        "velocity": 0,
        "channel": 1
      },
      {
        "type": "note_on",
        "time": 60,
        "note": 55,
        "velocity": 100,
        "channel": 1
      },
      {
        "type": "note_on",
        "time": 0,
        "note": 60,
        "velocity": 100,
        "channel": 1
      },
      {
        "type": "note_on",
        "time": 60,
        "note": 60,
        "velocity": 0,
        "channel": 1
      },
      {
        "type": "note_on",
        "time": 0,
        "note": 55,
        "velocity": 0,
        "channel": 1
      },
      {
        "type": "note_on",
        "time": 60,
        "note": 57,
        "velocity": 100,
        "channel": 1
      },
      {
        "type": "note_on",
        "time": 0,
        "note": 62,
        "velocity": 100,
        "channel": 1
      },
      {
        "type": "note_on",
        "time": 60,
        "note": 62,
        "velocity": 0,
        "channel": 1
      },
      {
        "type": "note_on",
        "time": 0,
        "note": 57,
        "velocity": 0,
        "channel": 1
      },
      {
        "type": "note_on",
        "time": 60,
        "note": 64,
        "velocity": 100,
        "channel": 1
      },
      {
        "type": "note_on",
        "time": 0,
        "note": 59,
        "velocity": 100,
        "channel": 1
      },
      {
        "type": "note_on",
        "time": 0,
        "note": 64,
        "velocity": 100,
        "channel": 1
      },
      {
        "type": "note_on",
        "time": 60,
        "note": 64,
        "velocity": 0,
        "channel": 1
      },
      {
        "type": "note_on",
        "time": 0,
        "note": 59,
        "velocity": 0,
        "channel": 1
      },
      {
        "type": "note_on",
        "time": 0,
        "note": 64,
        "velocity": 0,
        "channel": 1
      },
      {
        "type": "note_on",
        "time": 60,
        "note": 59,
        "velocity": 100,
        "channel": 1
      },
      {
        "type": "note_on",
        "time": 0,
        "note": 64,
        "velocity": 100,
        "channel": 1
      },
      {
        "type": "note_on",
        "time": 60,
        "note": 64,
        "velocity": 0,
        "channel": 1
      },
      {
        "type": "note_on",
        "time": 0,
        "note": 59,
        "velocity": 0,
        "channel": 1
      },
      {
        "type": "note_on",
        "time": 60,
        "note": 59,
        "velocity": 100,
        "channel": 1
      },
      {
        "type": "note_on",
        "time": 0,
        "note": 64,
        "velocity": 100,
        "channel": 1
      },
      {
        "type": "note_on",
        "time": 60,
        "note": 64,
        "velocity": 0,
        "channel": 1
      },
      {
        "type": "note_on",
        "time": 0,
        "note": 59,
        "velocity": 0,
        "channel": 1
      },
      {
        "type": "note_on",
        "time": 60,
        "note": 59,
        "velocity": 100,
        "channel": 1
      },
      {
        "type": "note_on",
        "time": 0,
        "note": 64,
        "velocity": 100,
        "channel": 1
      },
      {
        "type": "note_on",
        "time": 60,
        "note": 64,
        "velocity": 0,
        "channel": 1
      },
      {
        "type": "note_on",
        "time": 0,
        "note": 59,
        "velocity": 0,
        "channel": 1
      },
      {
        "type": "note_on",
        "time": 60,
        "note": 57,
        "velocity": 100,
        "channel": 1
      },
      {
        "type": "note_on",
        "time": 0,
        "note": 62,
        "velocity": 100,
        "channel": 1
      },
      {
        "type": "note_on",
        "time": 60,
        "note": 62,
        "velocity": 0,
        "channel": 1
      },
      {
        "type": "note_on",
        "time": 0,
        "note": 57,
        "velocity": 0,
        "channel": 1
      },
      {
        "type": "note_on",
        "time": 60,
        "note": 57,
        "velocity": 100,
        "channel": 1
      },
      {
        "type": "note_on",
        "time": 0,
        "note": 62,
        "velocity": 100,
        "channel": 1
      },
      {
        "type": "note_on",
        "time": 60,
        "note": 62,
        "velocity": 0,
        "channel": 1
      },
      {
        "type": "note_on",
        "time": 0,
        "note": 57,
        "velocity": 0,
        "channel": 1
      },
      {
        "type": "note_on",
        "time": 60,
        "note": 57,
        "velocity": 100,
        "channel": 1
      },
      {
        "type": "note_on",
        "time": 0,
        "note": 62,
        "velocity": 100,
        "channel": 1
      },
      {
        "type": "note_on",
        "time": 60,
        "note": 62,
        "velocity": 0,
        "channel": 1
      },
      {
        "type": "note_on",
        "time": 0,
        "note": 57,
        "velocity": 0,
        "channel": 1
      },
      {
        "type": "note_on",
        "time": 60,
        "note": 57,
        "velocity": 100,
        "channel": 1
      },
      {
        "type": "note_on",
        "time": 0,
        "note": 62,
        "velocity": 100,
        "channel": 1
      },
      {
        "type": "note_on",
        "time": 60,
        "note": 62,
        "velocity": 0,
        "channel": 1
      },
      {
        "type": "note_on",
        "time": 0,
        "note": 57,
        "velocity": 0,
        "channel": 1
      },
      {
        "type": "note_on",
        "time": 60,
        "note": 54,
        "velocity": 100,
        "channel": 1
      },
      {
        "type": "note_on",
        "time": 0,
        "note": 59,
        "velocity": 100,
        "channel": 1
      },
      {
        "type": "note_on",
        "time": 60,
        "note": 59,
        "velocity": 0,
        "channel": 1
      },
      {
        "type": "note_on",
        "time": 0,
        "note": 54,
        "velocity": 0,
        "channel": 1
      },
      {
        "type": "note_on",
        "time": 60,
        "note": 54,
        "velocity": 100,
        "channel": 1
      },
      {
        "type": "note_on",
        "time": 0,
        "note": 59,
        "velocity": 100,
        "channel": 1
      },
      {
        "type": "note_on",
        "time": 60,
        "note": 59,
        "velocity": 0,
        "channel": 1
      },
      {
        "type": "note_on",
        "time": 0,
        "note": 54,
        "velocity": 0,
        "channel": 1
      },
      {
        "type": "note_on",
        "time": 60,
        "note": 54,
        "velocity": 100,
        "channel": 1
      },
      {
        "type": "note_on",
        "time": 0,
        "note": 59,
        "velocity": 100,
        "channel": 1
      },
      {
        "type": "note_on",
        "time": 60,
        "note": 59,
        "velocity": 0,
        "channel": 1
      },
      {
        "type": "note_on",
        "time": 0,
        "note": 54,
        "velocity": 0,
        "channel": 1
      },
      {
        "type": "note_on",
        "time": 60,
        "note": 54,
        "velocity": 100,
        "channel": 1
      },
      {
        "type": "note_on",
        "time": 0,
        "note": 59,
        "velocity": 100,
        "channel": 1
      },
      {
        "type": "note_on",
        "time": 60,
        "note": 59,
        "velocity": 0,
        "channel": 1
      },
      {
        "type": "note_on",
        "time": 0,
        "note": 54,
        "velocity": 0,
        "channel": 1
      },
      {
        "type": "note_on",
        "time": 60,
        "note": 55,
        "velocity": 100,
        "channel": 1
      },
      {
        "type": "note_on",
        "time": 0,
        "note": 60,
        "velocity": 100,
        "channel": 1
      },
      {
        "type": "note_on",
        "time": 60,
        "note": 60,
        "velocity": 0,
        "channel": 1
      },
      {
        "type": "note_on",
        "time": 0,
        "note": 55,
        "velocity": 0,
        "channel": 1
      },
      {
        "type": "note_on",
        "time": 60,
        "note": 55,
        "velocity": 100,
        "channel": 1
      },
      {
        "type": "note_on",
        "time": 0,
        "note": 60,
        "velocity": 100,
        "channel": 1
      },
      {
        "type": "note_on",
        "time": 60,
        "note": 60,
        "velocity": 0,
        "channel": 1
      },
      {
        "type": "note_on",
        "time": 0,
        "note": 55,
        "velocity": 0,
        "channel": 1
      },
      {
        "type": "note_on",
        "time": 60,
        "note": 55,
        "velocity": 100,
        "channel": 1
      },
      {
        "type": "note_on",
        "time": 0,
        "note": 60,
        "velocity": 100,
        "channel": 1
      },
      {
        "type": "note_on",
        "time": 60,
        "note": 60,
        "velocity": 0,
        "channel": 1
      },
      {
        "type": "note_on",
        "time": 0,
        "note": 55,
        "velocity": 0,
        "channel": 1
      },
      {
        "type": "note_on",
        "time": 60,
        "note": 57,
        "velocity": 100,
        "channel": 1
      },
      {
        "type": "note_on",
        "time": 0,
        "note": 62,
        "velocity": 100,
        "channel": 1
      },
      {
        "type": "note_on",
        "time": 60,
        "note": 62,
        "velocity": 0,
        "channel": 1
      },
      {
        "type": "note_on",
        "time": 0,
        "note": 57,
        "velocity": 0,
        "channel": 1
      },
      {
        "type": "note_on",
        "time": 60,
        "note": 64,
        "velocity": 100,
        "channel": 1
      },
      {
        "type": "note_on",
        "time": 0,
        "note": 59,
        "velocity": 100,
        "channel": 1
      },
      {
        "type": "note_on",
        "time": 0,
        "note": 64,
        "velocity": 100,
        "channel": 1
      },
      {
        "type": "note_on",
        "time": 60,
        "note": 64,
        "velocity": 0,
        "channel": 1
      },
      {
        "type": "note_on",
        "time": 0,
        "note": 59,
        "velocity": 0,
        "channel": 1
      },
      {
        "type": "note_on",
        "time": 0,
        "note": 64,
        "velocity": 0,
        "channel": 1
      },
      {
        "type": "note_on",
        "time": 60,
        "note": 59,
        "velocity": 100,
        "channel": 1
      },
      {
        "type": "note_on",
        "time": 0,
        "note": 64,
        "velocity": 100,
        "channel": 1
      },
      {
        "type": "note_on",
        "time": 60,
        "note": 64,
        "velocity": 0,
        "channel": 1
      },
      {
        "type": "note_on",
        "time": 0,
        "note": 59,
        "velocity": 0,
        "channel": 1
      },
      {
        "type": "note_on",
        "time": 60,
        "note": 59,
        "velocity": 100,
        "channel": 1
      },
      {
        "type": "note_on",
        "time": 0,
        "note": 64,
        "velocity": 100,
        "channel": 1
      },
      {
        "type": "note_on",
        "time": 60,
        "note": 64,
        "velocity": 0,
        "channel": 1
      },
      {
        "type": "note_on",
        "time": 0,
        "note": 59,
        "velocity": 0,
        "channel": 1
      },
      {
        "type": "note_on",
        "time": 60,
        "note": 59,
        "velocity": 100,
        "channel": 1
      },
      {
        "type": "note_on",
        "time": 0,
        "note": 64,
        "velocity": 100,
        "channel": 1
      },
      {
        "type": "note_on",
        "time": 60,
        "note": 64,
        "velocity": 0,
        "channel": 1
      },
      {
        "type": "note_on",
        "time": 0,
        "note": 59,
        "velocity": 0,
        "channel": 1
      },
      {
        "type": "note_on",
        "time": 60,
        "note": 57,
        "velocity": 100,
        "channel": 1
      },
      {
        "type": "note_on",
        "time": 0,
        "note": 62,
        "velocity": 100,
        "channel": 1
      },
      {
        "type": "note_on",
        "time": 60,
        "note": 62,
        "velocity": 0,
        "channel": 1
      },
      {
        "type": "note_on",
        "time": 0,
        "note": 57,
        "velocity": 0,
        "channel": 1
      },
      {
        "type": "note_on",
        "time": 60,
        "note": 57,
        "velocity": 100,
        "channel": 1
      },
      {
        "type": "note_on",
        "time": 0,
        "note": 62,
        "velocity": 100,
        "channel": 1
      },
      {
        "type": "note_on",
        "time": 60,
        "note": 62,
        "velocity": 0,
        "channel": 1
      },
      {
        "type": "note_on",
        "time": 0,
        "note": 57,
        "velocity": 0,
        "channel": 1
      },
      {
        "type": "note_on",
        "time": 60,
        "note": 57,
        "velocity": 100,
        "channel": 1
      },
      {
        "type": "note_on",
        "time": 0,
        "note": 62,
        "velocity": 100,
        "channel": 1
      },
      {
        "type": "note_on",
        "time": 60,
        "note": 62,
        "velocity": 0,
        "channel": 1
      },
      {
        "type": "note_on",
        "time": 0,
        "note": 57,
        "velocity": 0,
        "channel": 1
      },
      {
        "type": "note_on",
        "time": 60,
        "note": 57,
        "velocity": 100,
        "channel": 1
      },
      {
        "type": "note_on",
        "time": 0,
        "note": 62,
        "velocity": 100,
        "channel": 1
      },
      {
        "type": "note_on",
        "time": 60,
        "note": 62,
        "velocity": 0,
        "channel": 1
      },
      {
        "type": "note_on",
        "time": 0,
        "note": 57,
        "velocity": 0,
        "channel": 1
      },
      {
        "type": "note_on",
        "time": 60,
        "note": 54,
        "velocity": 100,
        "channel": 1
      },
      {
        "type": "note_on",
        "time": 0,
        "note": 59,
        "velocity": 100,
        "channel": 1
      },
      {
        "type": "note_on",
        "time": 60,
        "note": 59,
        "velocity": 0,
        "channel": 1
      },
      {
        "type": "note_on",
        "time": 0,
        "note": 54,
        "velocity": 0,
        "channel": 1
      },
      {
        "type": "note_on",
        "time": 60,
        "note": 54,
        "velocity": 100,
        "channel": 1
      },
      {
        "type": "note_on",
        "time": 0,
        "note": 59,
        "velocity": 100,
        "channel": 1
      },
      {
        "type": "note_on",
        "time": 60,
        "note": 59,
        "velocity": 0,
        "channel": 1
      },
      {
        "type": "note_on",
        "time": 0,
        "note": 54,
        "velocity": 0,
        "channel": 1
      },
      {
        "type": "note_on",
        "time": 60,
        "note": 54,
        "velocity": 100,
        "channel": 1
      },
      {
        "type": "note_on",
        "time": 0,
        "note": 59,
        "velocity": 100,
        "channel": 1
      },
      {
        "type": "note_on",
        "time": 60,
        "note": 59,
        "velocity": 0,
        "channel": 1
      },
      {
        "type": "note_on",
        "time": 0,
        "note": 54,
        "velocity": 0,
        "channel": 1
      },
      {
        "type": "note_on",
        "time": 60,
        "note": 54,
        "velocity": 100,
        "channel": 1
      },
      {
        "type": "note_on",
        "time": 0,
        "note": 59,
        "velocity": 100,
        "channel": 1
      },
      {
        "type": "note_on",
        "time": 60,
        "note": 59,
        "velocity": 0,
        "channel": 1
      },
      {
        "type": "note_on",
        "time": 0,
        "note": 54,
        "velocity": 0,
        "channel": 1
      },
      {
        "type": "note_on",
        "time": 60,
        "note": 55,
        "velocity": 100,
        "channel": 1
      },
      {
        "type": "note_on",
        "time": 0,
        "note": 60,
        "velocity": 100,
        "channel": 1
      },
      {
        "type": "note_on",
        "time": 60,
        "note": 60,
        "velocity": 0,
        "channel": 1
      },
      {
        "type": "note_on",
        "time": 0,
        "note": 55,
        "velocity": 0,
        "channel": 1
      },
      {
        "type": "note_on",
        "time": 60,
        "note": 55,
        "velocity": 100,
        "channel": 1
      },
      {
        "type": "note_on",
        "time": 0,
        "note": 60,
        "velocity": 100,
        "channel": 1
      },
      {
        "type": "note_on",
        "time": 60,
        "note": 60,
        "velocity": 0,
        "channel": 1
      },
      {
        "type": "note_on",
        "time": 0,
        "note": 55,
        "velocity": 0,
        "channel": 1
      },
      {
        "type": "note_on",
        "time": 60,
        "note": 55,
        "velocity": 100,
        "channel": 1
      },
      {
        "type": "note_on",
        "time": 0,
        "note": 60,
        "velocity": 100,
        "channel": 1
      },
      {
        "type": "note_on",
        "time": 60,
        "note": 60,
        "velocity": 0,
        "channel": 1
      },
      {
        "type": "note_on",
        "time": 0,
        "note": 55,
        "velocity": 0,
        "channel": 1
      },
      {
        "type": "note_on",
        "time": 60,
        "note": 57,
        "velocity": 100,
        "channel": 1
      },
      {
        "type": "note_on",
        "time": 0,
        "note": 62,
        "velocity": 100,
        "channel": 1
      },
      {
        "type": "note_on",
        "time": 60,
        "note": 62,
        "velocity": 0,
        "channel": 1
      },
      {
        "type": "note_on",
        "time": 0,
        "note": 57,
        "velocity": 0,
        "channel": 1
      },
      {
        "type": "note_on",
        "time": 60,
        "note": 64,
        "velocity": 100,
        "channel": 1
      },
      {
        "type": "note_on",
        "time": 0,
        "note": 59,
        "velocity": 100,
        "channel": 1
      },
      {
        "type": "note_on",
        "time": 0,
        "note": 64,
        "velocity": 100,
        "channel": 1
      },
      {
        "type": "note_on",
        "time": 60,
        "note": 64,
        "velocity": 0,
        "channel": 1
      },
      {
        "type": "note_on",
        "time": 0,
        "note": 59,
        "velocity": 0,
        "channel": 1
      },
      {
        "type": "note_on",
        "time": 0,
        "note": 64,
        "velocity": 0,
        "channel": 1
      },
      {
        "type": "note_on",
        "time": 60,
        "note": 59,
        "velocity": 100,
        "channel": 1
      },
      {
        "type": "note_on",
        "time": 0,
        "note": 64,
        "velocity": 100,
        "channel": 1
      },
      {
        "type": "note_on",
        "time": 60,
        "note": 64,
        "velocity": 0,
        "channel": 1
      },
      {
        "type": "note_on",
        "time": 0,
        "note": 59,
        "velocity": 0,
        "channel": 1
      },
      {
        "type": "note_on",
        "time": 60,
        "note": 59,
        "velocity": 100,
        "channel": 1
      },
      {
        "type": "note_on",
        "time": 0,
        "note": 64,
        "velocity": 100,
        "channel": 1
      },
      {
        "type": "note_on",
        "time": 60,
        "note": 64,
        "velocity": 0,
        "channel": 1
      },
      {
        "type": "note_on",
        "time": 0,
        "note": 59,
        "velocity": 0,
        "channel": 1
      },
      {
        "type": "note_on",
        "time": 60,
        "note": 59,
        "velocity": 100,
        "channel": 1
      },
      {
        "type": "note_on",
        "time": 0,
        "note": 64,
        "velocity": 100,
        "channel": 1
      },
      {
        "type": "note_on",
        "time": 60,
        "note": 64,
        "velocity": 0,
        "channel": 1
      },
      {
        "type": "note_on",
        "time": 0,
        "note": 59,
        "velocity": 0,
        "channel": 1
      },
      {
        "type": "note_on",
        "time": 60,
        "note": 57,
        "velocity": 100,
        "channel": 1
      },
      {
        "type": "note_on",
        "time": 0,
        "note": 62,
        "velocity": 100,
        "channel": 1
      },
      {
        "type": "note_on",
        "time": 60,
        "note": 62,
        "velocity": 0,
        "channel": 1
      },
      {
        "type": "note_on",
        "time": 0,
        "note": 57,
        "velocity": 0,
        "channel": 1
      },
      {
        "type": "note_on",
        "time": 60,
        "note": 57,
        "velocity": 100,
        "channel": 1
      },
      {
        "type": "note_on",
        "time": 0,
        "note": 62,
        "velocity": 100,
        "channel": 1
      },
      {
        "type": "note_on",
        "time": 60,
        "note": 62,
        "velocity": 0,
        "channel": 1
      },
      {
        "type": "note_on",
        "time": 0,
        "note": 57,
        "velocity": 0,
        "channel": 1
      },
      {
        "type": "note_on",
        "time": 60,
        "note": 57,
        "velocity": 100,
        "channel": 1
      },
      {
        "type": "note_on",
        "time": 0,
        "note": 62,
        "velocity": 100,
        "channel": 1
      },
      {
        "type": "note_on",
        "time": 60,
        "note": 62,
        "velocity": 0,
        "channel": 1
      },
      {
        "type": "note_on",
        "time": 0,
        "note": 57,
        "velocity": 0,
        "channel": 1
      },
      {
        "type": "note_on",
        "time": 60,
        "note": 57,
        "velocity": 100,
        "channel": 1
      },
      {
        "type": "note_on",
        "time": 0,
        "note": 62,
        "velocity": 100,
        "channel": 1
      },
      {
        "type": "note_on",
        "time": 60,
        "note": 62,
        "velocity": 0,
        "channel": 1
      },
      {
        "type": "note_on",
        "time": 0,
        "note": 57,
        "velocity": 0,
        "channel": 1
      },
      {
        "type": "note_on",
        "time": 60,
        "note": 54,
        "velocity": 100,
        "channel": 1
      },
      {
        "type": "note_on",
        "time": 0,
        "note": 59,
        "velocity": 100,
        "channel": 1
      },
      {
        "type": "note_on",
        "time": 60,
        "note": 59,
        "velocity": 0,
        "channel": 1
      },
      {
        "type": "note_on",
        "time": 0,
        "note": 54,
        "velocity": 0,
        "channel": 1
      },
      {
        "type": "note_on",
        "time": 60,
        "note": 54,
        "velocity": 100,
        "channel": 1
      },
      {
        "type": "note_on",
        "time": 0,
        "note": 59,
        "velocity": 100,
        "channel": 1
      },
      {
        "type": "note_on",
        "time": 60,
        "note": 59,
        "velocity": 0,
        "channel": 1
      },
      {
        "type": "note_on",
        "time": 0,
        "note": 54,
        "velocity": 0,
        "channel": 1
      },
      {
        "type": "note_on",
        "time": 60,
        "note": 54,
        "velocity": 100,
        "channel": 1
      },
      {
        "type": "note_on",
        "time": 0,
        "note": 59,
        "velocity": 100,
        "channel": 1
      },
      {
        "type": "note_on",
        "time": 60,
        "note": 59,
        "velocity": 0,
        "channel": 1
      },
      {
        "type": "note_on",
        "time": 0,
        "note": 54,
        "velocity": 0,
        "channel": 1
      },
      {
        "type": "note_on",
        "time": 60,
        "note": 54,
        "velocity": 100,
        "channel": 1
      },
      {
        "type": "note_on",
        "time": 0,
        "note": 59,
        "velocity": 100,
        "channel": 1
      },
      {
        "type": "note_on",
        "time": 60,
        "note": 59,
        "velocity": 0,
        "channel": 1
      },
      {
        "type": "note_on",
        "time": 0,
        "note": 54,
        "velocity": 0,
        "channel": 1
      },
      {
        "type": "note_on",
        "time": 60,
        "note": 55,
        "velocity": 100,
        "channel": 1
      },
      {
        "type": "note_on",
        "time": 0,
        "note": 60,
        "velocity": 100,
        "channel": 1
      },
      {
        "type": "note_on",
        "time": 60,
        "note": 60,
        "velocity": 0,
        "channel": 1
      },
      {
        "type": "note_on",
        "time": 0,
        "note": 55,
        "velocity": 0,
        "channel": 1
      },
      {
        "type": "note_on",
        "time": 60,
        "note": 55,
        "velocity": 100,
        "channel": 1
      },
      {
        "type": "note_on",
        "time": 0,
        "note": 60,
        "velocity": 100,
        "channel": 1
      },
      {
        "type": "note_on",
        "time": 60,
        "note": 60,
        "velocity": 0,
        "channel": 1
      },
      {
        "type": "note_on",
        "time": 0,
        "note": 55,
        "velocity": 0,
        "channel": 1
      },
      {
        "type": "note_on",
        "time": 60,
        "note": 55,
        "velocity": 100,
        "channel": 1
      },
      {
        "type": "note_on",
        "time": 0,
        "note": 60,
        "velocity": 100,
        "channel": 1
      },
      {
        "type": "note_on",
        "time": 60,
        "note": 60,
        "velocity": 0,
        "channel": 1
      },
      {
        "type": "note_on",
        "time": 0,
        "note": 55,
        "velocity": 0,
        "channel": 1
      },
      {
        "type": "note_on",
        "time": 60,
        "note": 57,
        "velocity": 100,
        "channel": 1
      },
      {
        "type": "note_on",
        "time": 0,
        "note": 62,
        "velocity": 100,
        "channel": 1
      },
      {
        "type": "note_on",
        "time": 60,
        "note": 62,
        "velocity": 0,
        "channel": 1
      },
      {
        "type": "note_on",
        "time": 0,
        "note": 57,
        "velocity": 0,
        "channel": 1
      },
      {
        "type": "note_on",
        "time": 3840,
        "note": 59,
        "velocity": 53,
        "channel": 1
      },
      {
        "type": "note_on",
        "time": 0,
        "note": 52,
        "velocity": 53,
        "channel": 1
      },
      {
        "type": "note_on",
        "time": 30,
        "note": 52,
        "velocity": 0,
        "channel": 1
      },
      {
        "type": "note_on",
        "time": 0,
        "note": 59,
        "velocity": 0,
        "channel": 1
      },
      {
        "type": "note_on",
        "time": 0,
        "note": 59,
        "velocity": 53,
        "channel": 1
      },
      {
        "type": "note_on",
        "time": 0,
        "note": 52,
        "velocity": 53,
        "channel": 1
      },
      {
        "type": "note_on",
        "time": 30,
        "note": 52,
        "velocity": 0,
        "channel": 1
      },
      {
        "type": "note_on",
        "time": 0,
        "note": 59,
        "velocity": 0,
        "channel": 1
      },
      {
        "type": "note_on",
        "time": 0,
        "note": 59,
        "velocity": 53,
        "channel": 1
      },
      {
        "type": "note_on",
        "time": 0,
        "note": 62,
        "velocity": 53,
        "channel": 1
      },
      {
        "type": "note_on",
        "time": 45,
        "note": 62,
        "velocity": 0,
        "channel": 1
      },
      {
        "type": "note_on",
        "time": 0,
        "note": 59,
        "velocity": 0,
        "channel": 1
      },
      {
        "type": "note_on",
        "time": 15,
        "note": 59,
        "velocity": 52,
        "channel": 1
      },
      {
        "type": "note_on",
        "time": 0,
        "note": 64,
        "velocity": 52,
        "channel": 1
      },
      {
        "type": "note_on",
        "time": 45,
        "note": 64,
        "velocity": 0,
        "channel": 1
      },
      {
        "type": "note_on",
        "time": 0,
        "note": 59,
        "velocity": 0,
        "channel": 1
      },
      {
        "type": "note_on",
        "time": 15,
        "note": 59,
        "velocity": 51,
        "channel": 1
      },
      {
        "type": "note_on",
        "time": 0,
        "note": 52,
        "velocity": 51,
        "channel": 1
      },
      {
        "type": "note_on",
        "time": 30,
        "note": 52,
        "velocity": 0,
        "channel": 1
      },
      {
        "type": "note_on",
        "time": 0,
        "note": 59,
        "velocity": 0,
        "channel": 1
      },
      {
        "type": "note_on",
        "time": 0,
        "note": 59,
        "velocity": 50,
        "channel": 1
      },
      {
        "type": "note_on",
        "time": 0,
        "note": 52,
        "velocity": 50,
        "channel": 1
      },
      {
        "type": "note_on",
        "time": 30,
        "note": 52,
        "velocity": 0,
        "channel": 1
      },
      {
        "type": "note_on",
        "time": 0,
        "note": 59,
        "velocity": 0,
        "channel": 1
      },
      {
        "type": "note_on",
        "time": 0,
        "note": 59,
        "velocity": 50,
        "channel": 1
      },
      {
        "type": "note_on",
        "time": 0,
        "note": 52,
        "velocity": 50,
        "channel": 1
      },
      {
        "type": "note_on",
        "time": 30,
        "note": 52,
        "velocity": 0,
        "channel": 1
      },
      {
        "type": "note_on",
        "time": 0,
        "note": 59,
        "velocity": 0,
        "channel": 1
      },
      {
        "type": "note_on",
        "time": 0,
        "note": 59,
        "velocity": 50,
        "channel": 1
      },
      {
        "type": "note_on",
        "time": 0,
        "note": 62,
        "velocity": 50,
        "channel": 1
      },
      {
        "type": "note_on",
        "time": 0,
        "note": 52,
        "velocity": 50,
        "channel": 1
      },
      {
        "type": "note_on",
        "time": 45,
        "note": 52,
        "velocity": 0,
        "channel": 1
      },
      {
        "type": "note_on",
        "time": 0,
        "note": 62,
        "velocity": 0,
        "channel": 1
      },
      {
        "type": "note_on",
        "time": 0,
        "note": 59,
        "velocity": 0,
        "channel": 1
      },
      {
        "type": "note_on",
        "time": 15,
        "note": 59,
        "velocity": 49,
        "channel": 1
      },
      {
        "type": "note_on",
        "time": 0,
        "note": 64,
        "velocity": 49,
        "channel": 1
      },
      {
        "type": "note_on",
        "time": 0,
        "note": 52,
        "velocity": 49,
        "channel": 1
      },
      {
        "type": "note_on",
        "time": 45,
        "note": 52,
        "velocity": 0,
        "channel": 1
      },
      {
        "type": "note_on",
        "time": 0,
        "note": 64,
        "velocity": 0,
        "channel": 1
      },
      {
        "type": "note_on",
        "time": 0,
        "note": 59,
        "velocity": 0,
        "channel": 1
      },
      {
        "type": "note_on",
        "time": 15,
        "note": 59,
        "velocity": 49,
        "channel": 1
      },
      {
        "type": "note_on",
        "time": 0,
        "note": 52,
        "velocity": 49,
        "channel": 1
      },
      {
        "type": "note_on",
        "time": 30,
        "note": 52,
        "velocity": 0,
        "channel": 1
      },
      {
        "type": "note_on",
        "time": 0,
        "note": 59,
        "velocity": 0,
        "channel": 1
      },
      {
        "type": "note_on",
        "time": 0,
        "note": 59,
        "velocity": 50,
        "channel": 1
      },
      {
        "type": "note_on",
        "time": 0,
        "note": 52,
        "velocity": 50,
        "channel": 1
      },
      {
        "type": "note_on",
        "time": 30,
        "note": 52,
        "velocity": 0,
        "channel": 1
      },
      {
        "type": "note_on",
        "time": 0,
        "note": 59,
        "velocity": 0,
        "channel": 1
      },
      {
        "type": "note_on",
        "time": 0,
        "note": 59,
        "velocity": 51,
        "channel": 1
      },
      {
        "type": "note_on",
        "time": 0,
        "note": 52,
        "velocity": 51,
        "channel": 1
      },
      {
        "type": "note_on",
        "time": 30,
        "note": 52,
        "velocity": 0,
        "channel": 1
      },
      {
        "type": "note_on",
        "time": 0,
        "note": 59,
        "velocity": 0,
        "channel": 1
      },
      {
        "type": "note_on",
        "time": 0,
        "note": 57,
        "velocity": 52,
        "channel": 1
      },
      {
        "type": "note_on",
        "time": 0,
        "note": 50,
        "velocity": 52,
        "channel": 1
      },
      {
        "type": "note_on",
        "time": 30,
        "note": 50,
        "velocity": 0,
        "channel": 1
      },
      {
        "type": "note_on",
        "time": 0,
        "note": 57,
        "velocity": 0,
        "channel": 1
      },
      {
        "type": "note_on",
        "time": 0,
        "note": 57,
        "velocity": 54,
        "channel": 1
      },
      {
        "type": "note_on",
        "time": 0,
        "note": 50,
        "velocity": 54,
        "channel": 1
      },
      {
        "type": "note_on",
        "time": 30,
        "note": 50,
        "velocity": 0,
        "channel": 1
      },
      {
        "type": "note_on",
        "time": 0,
        "note": 57,
        "velocity": 0,
        "channel": 1
      },
      {
        "type": "note_on",
        "time": 0,
        "note": 57,
        "velocity": 56,
        "channel": 1
      },
      {
        "type": "note_on",
        "time": 0,
        "note": 62,
        "velocity": 56,
        "channel": 1
      },
      {
        "type": "note_on",
        "time": 45,
        "note": 62,
        "velocity": 0,
        "channel": 1
      },
      {
        "type": "note_on",
        "time": 0,
        "note": 57,
        "velocity": 0,
        "channel": 1
      },
      {
        "type": "note_on",
        "time": 15,
        "note": 62,
        "velocity": 59,
        "channel": 1
      },
      {
        "type": "note_on",
        "time": 0,
        "note": 64,
        "velocity": 59,
        "channel": 1
      },
      {
        "type": "note_on",
        "time": 45,
        "note": 64,
        "velocity": 0,
        "channel": 1
      },
      {
        "type": "note_on",
        "time": 0,
        "note": 62,
        "velocity": 0,
        "channel": 1
      },
      {
        "type": "note_on",
        "time": 15,
        "note": 57,
        "velocity": 62,
        "channel": 1
      },
      {
        "type": "note_on",
        "time": 0,
        "note": 50,
        "velocity": 62,
        "channel": 1
      },
      {
        "type": "note_on",
        "time": 30,
        "note": 50,
        "velocity": 0,
        "channel": 1
      },
      {
        "type": "note_on",
        "time": 0,
        "note": 57,
        "velocity": 0,
        "channel": 1
      },
      {
        "type": "note_on",
        "time": 0,
        "note": 57,
        "velocity": 61,
        "channel": 1
      },
      {
        "type": "note_on",
        "time": 0,
        "note": 50,
        "velocity": 61,
        "channel": 1
      },
      {
        "type": "note_on",
        "time": 30,
        "note": 50,
        "velocity": 0,
        "channel": 1
      },
      {
        "type": "note_on",
        "time": 0,
        "note": 57,
        "velocity": 0,
        "channel": 1
      },
      {
        "type": "note_on",
        "time": 0,
        "note": 57,
        "velocity": 61,
        "channel": 1
      },
      {
        "type": "note_on",
        "time": 0,
        "note": 50,
        "velocity": 61,
        "channel": 1
      },
      {
        "type": "note_on",
        "time": 30,
        "note": 50,
        "velocity": 0,
        "channel": 1
      },
      {
        "type": "note_on",
        "time": 0,
        "note": 57,
        "velocity": 0,
        "channel": 1
      },
      {
        "type": "note_on",
        "time": 0,
        "note": 57,
        "velocity": 60,
        "channel": 1
      },
      {
        "type": "note_on",
        "time": 0,
        "note": 62,
        "velocity": 60,
        "channel": 1
      },
      {
        "type": "note_on",
        "time": 45,
        "note": 62,
        "velocity": 0,
        "channel": 1
      },
      {
        "type": "note_on",
        "time": 0,
        "note": 57,
        "velocity": 0,
        "channel": 1
      },
      {
        "type": "note_on",
        "time": 15,
        "note": 62,
        "velocity": 58,
        "channel": 1
      },
      {
        "type": "note_on",
        "time": 0,
        "note": 64,
        "velocity": 58,
        "channel": 1
      },
      {
        "type": "note_on",
        "time": 45,
        "note": 64,
        "velocity": 0,
        "channel": 1
      },
      {
        "type": "note_on",
        "time": 0,
        "note": 62,
        "velocity": 0,
        "channel": 1
      },
      {
        "type": "note_on",
        "time": 15,
        "note": 57,
        "velocity": 56,
        "channel": 1
      },
      {
        "type": "note_on",
        "time": 0,
        "note": 50,
        "velocity": 56,
        "channel": 1
      },
      {
        "type": "note_on",
        "time": 30,
        "note": 50,
        "velocity": 0,
        "channel": 1
      },
      {
        "type": "note_on",
        "time": 0,
        "note": 57,
        "velocity": 0,
        "channel": 1
      },
      {
        "type": "note_on",
        "time": 0,
        "note": 57,
        "velocity": 56,
        "channel": 1
      },
      {
        "type": "note_on",
        "time": 0,
        "note": 50,
        "velocity": 56,
        "channel": 1
      },
      {
        "type": "note_on",
        "time": 30,
        "note": 50,
        "velocity": 0,
        "channel": 1
      },
      {
        "type": "note_on",
        "time": 0,
        "note": 57,
        "velocity": 0,
        "channel": 1
      },
      {
        "type": "note_on",
        "time": 0,
        "note": 57,
        "velocity": 56,
        "channel": 1
      },
      {
        "type": "note_on",
        "time": 0,
        "note": 50,
        "velocity": 56,
        "channel": 1
      },
      {
        "type": "note_on",
        "time": 30,
        "note": 50,
        "velocity": 0,
        "channel": 1
      },
      {
        "type": "note_on",
        "time": 0,
        "note": 57,
        "velocity": 0,
        "channel": 1
      },
      {
        "type": "note_on",
        "time": 0,
        "note": 54,
        "velocity": 56,
        "channel": 1
      },
      {
        "type": "note_on",
        "time": 0,
        "note": 47,
        "velocity": 56,
        "channel": 1
      },
      {
        "type": "note_on",
        "time": 30,
        "note": 47,
        "velocity": 0,
        "channel": 1
      },
      {
        "type": "note_on",
        "time": 0,
        "note": 54,
        "velocity": 0,
        "channel": 1
      },
      {
        "type": "note_on",
        "time": 0,
        "note": 54,
        "velocity": 55,
        "channel": 1
      },
      {
        "type": "note_on",
        "time": 0,
        "note": 47,
        "velocity": 55,
        "channel": 1
      },
      {
        "type": "note_on",
        "time": 30,
        "note": 47,
        "velocity": 0,
        "channel": 1
      },
      {
        "type": "note_on",
        "time": 0,
        "note": 54,
        "velocity": 0,
        "channel": 1
      },
      {
        "type": "note_on",
        "time": 0,
        "note": 62,
        "velocity": 54,
        "channel": 1
      },
      {
        "type": "note_on",
        "time": 0,
        "note": 54,
        "velocity": 54,
        "channel": 1
      },
      {
        "type": "note_on",
        "time": 45,
        "note": 54,
        "velocity": 0,
        "channel": 1
      },
      {
        "type": "note_on",
        "time": 0,
        "note": 62,
        "velocity": 0,
        "channel": 1
      },
      {
        "type": "note_on",
        "time": 15,
        "note": 59,
        "velocity": 53,
        "channel": 1
      },
      {
        "type": "note_on",
        "time": 0,
        "note": 64,
        "velocity": 53,
        "channel": 1
      },
      {
        "type": "note_on",
        "time": 45,
        "note": 64,
        "velocity": 0,
        "channel": 1
      },
      {
        "type": "note_on",
        "time": 0,
        "note": 59,
        "velocity": 0,
        "channel": 1
      },
      {
        "type": "note_on",
        "time": 15,
        "note": 54,
        "velocity": 52,
        "channel": 1
      },
      {
        "type": "note_on",
        "time": 0,
        "note": 47,
        "velocity": 52,
        "channel": 1
      },
      {
        "type": "note_on",
        "time": 30,
        "note": 47,
        "velocity": 0,
        "channel": 1
      },
      {
        "type": "note_on",
        "time": 0,
        "note": 54,
        "velocity": 0,
        "channel": 1
      },
      {
        "type": "note_on",
        "time": 0,
        "note": 54,
        "velocity": 52,
        "channel": 1
      },
      {
        "type": "note_on",
        "time": 0,
        "note": 47,
        "velocity": 52,
        "channel": 1
      },
      {
        "type": "note_on",
        "time": 30,
        "note": 47,
        "velocity": 0,
        "channel": 1
      },
      {
        "type": "note_on",
        "time": 0,
        "note": 54,
        "velocity": 0,
        "channel": 1
      },
      {
        "type": "note_on",
        "time": 0,
        "note": 47,
        "velocity": 52,
        "channel": 1
      },
      {
        "type": "note_on",
        "time": 0,
        "note": 54,
        "velocity": 52,
        "channel": 1
      },
      {
        "type": "note_on",
        "time": 30,
        "note": 54,
        "velocity": 0,
        "channel": 1
      },
      {
        "type": "note_on",
        "time": 0,
        "note": 47,
        "velocity": 0,
        "channel": 1
      },
      {
        "type": "note_on",
        "time": 0,
        "note": 54,
        "velocity": 52,
        "channel": 1
      },
      {
        "type": "note_on",
        "time": 0,
        "note": 62,
        "velocity": 52,
        "channel": 1
      },
      {
        "type": "note_on",
        "time": 45,
        "note": 62,
        "velocity": 0,
        "channel": 1
      },
      {
        "type": "note_on",
        "time": 0,
        "note": 54,
        "velocity": 0,
        "channel": 1
      },
      {
        "type": "note_on",
        "time": 15,
        "note": 59,
        "velocity": 53,
        "channel": 1
      },
      {
        "type": "note_on",
        "time": 0,
        "note": 64,
        "velocity": 53,
        "channel": 1
      },
      {
        "type": "note_on",
        "time": 45,
        "note": 64,
        "velocity": 0,
        "channel": 1
      },
      {
        "type": "note_on",
        "time": 0,
        "note": 59,
        "velocity": 0,
        "channel": 1
      },
      {
        "type": "note_on",
        "time": 15,
        "note": 47,
        "velocity": 53,
        "channel": 1
      },
      {
        "type": "note_on",
        "time": 0,
        "note": 54,
        "velocity": 53,
        "channel": 1
      },
      {
        "type": "note_on",
        "time": 30,
        "note": 54,
        "velocity": 0,
        "channel": 1
      },
      {
        "type": "note_on",
        "time": 0,
        "note": 47,
        "velocity": 0,
        "channel": 1
      },
      {
        "type": "note_on",
        "time": 0,
        "note": 54,
        "velocity": 52,
        "channel": 1
      },
      {
        "type": "note_on",
        "time": 0,
        "note": 47,
        "velocity": 52,
        "channel": 1
      },
      {
        "type": "note_on",
        "time": 30,
        "note": 47,
        "velocity": 0,
        "channel": 1
      },
      {
        "type": "note_on",
        "time": 0,
        "note": 54,
        "velocity": 0,
        "channel": 1
      },
      {
        "type": "note_on",
        "time": 0,
        "note": 54,
        "velocity": 54,
        "channel": 1
      },
      {
        "type": "note_on",
        "time": 0,
        "note": 47,
        "velocity": 54,
        "channel": 1
      },
      {
        "type": "note_on",
        "time": 30,
        "note": 47,
        "velocity": 0,
        "channel": 1
      },
      {
        "type": "note_on",
        "time": 0,
        "note": 54,
        "velocity": 0,
        "channel": 1
      },
      {
        "type": "note_on",
        "time": 0,
        "note": 55,
        "velocity": 53,
        "channel": 1
      },
      {
        "type": "note_on",
        "time": 0,
        "note": 48,
        "velocity": 53,
        "channel": 1
      },
      {
        "type": "note_on",
        "time": 30,
        "note": 48,
        "velocity": 0,
        "channel": 1
      },
      {
        "type": "note_on",
        "time": 0,
        "note": 55,
        "velocity": 0,
        "channel": 1
      },
      {
        "type": "note_on",
        "time": 0,
        "note": 55,
        "velocity": 53,
        "channel": 1
      },
      {
        "type": "note_on",
        "time": 0,
        "note": 48,
        "velocity": 53,
        "channel": 1
      },
      {
        "type": "note_on",
        "time": 30,
        "note": 48,
        "velocity": 0,
        "channel": 1
      },
      {
        "type": "note_on",
        "time": 0,
        "note": 55,
        "velocity": 0,
        "channel": 1
      },
      {
        "type": "note_on",
        "time": 0,
        "note": 55,
        "velocity": 53,
        "channel": 1
      },
      {
        "type": "note_on",
        "time": 0,
        "note": 62,
        "velocity": 53,
        "channel": 1
      },
      {
        "type": "note_on",
        "time": 45,
        "note": 62,
        "velocity": 0,
        "channel": 1
      },
      {
        "type": "note_on",
        "time": 0,
        "note": 55,
        "velocity": 0,
        "channel": 1
      },
      {
        "type": "note_on",
        "time": 15,
        "note": 60,
        "velocity": 53,
        "channel": 1
      },
      {
        "type": "note_on",
        "time": 0,
        "note": 64,
        "velocity": 53,
        "channel": 1
      },
      {
        "type": "note_on",
        "time": 45,
        "note": 64,
        "velocity": 0,
        "channel": 1
      },
      {
        "type": "note_on",
        "time": 0,
        "note": 60,
        "velocity": 0,
        "channel": 1
      },
      {
        "type": "note_on",
        "time": 15,
        "note": 55,
        "velocity": 53,
        "channel": 1
      },
      {
        "type": "note_on",
        "time": 0,
        "note": 48,
        "velocity": 53,
        "channel": 1
      },
      {
        "type": "note_on",
        "time": 30,
        "note": 48,
        "velocity": 0,
        "channel": 1
      },
      {
        "type": "note_on",
        "time": 0,
        "note": 55,
        "velocity": 0,
        "channel": 1
      },
      {
        "type": "note_on",
        "time": 0,
        "note": 55,
        "velocity": 53,
        "channel": 1
      },
      {
        "type": "note_on",
        "time": 0,
        "note": 48,
        "velocity": 53,
        "channel": 1
      },
      {
        "type": "note_on",
        "time": 30,
        "note": 48,
        "velocity": 0,
        "channel": 1
      },
      {
        "type": "note_on",
        "time": 0,
        "note": 55,
        "velocity": 0,
        "channel": 1
      },
      {
        "type": "note_on",
        "time": 0,
        "note": 55,
        "velocity": 53,
        "channel": 1
      },
      {
        "type": "note_on",
        "time": 0,
        "note": 48,
        "velocity": 53,
        "channel": 1
      },
      {
        "type": "note_on",
        "time": 30,
        "note": 48,
        "velocity": 0,
        "channel": 1
      },
      {
        "type": "note_on",
        "time": 0,
        "note": 55,
        "velocity": 0,
        "channel": 1
      },
      {
        "type": "note_on",
        "time": 0,
        "note": 55,
        "velocity": 53,
        "channel": 1
      },
      {
        "type": "note_on",
        "time": 0,
        "note": 62,
        "velocity": 53,
        "channel": 1
      },
      {
        "type": "note_on",
        "time": 45,
        "note": 62,
        "velocity": 0,
        "channel": 1
      },
      {
        "type": "note_on",
        "time": 0,
        "note": 55,
        "velocity": 0,
        "channel": 1
      },
      {
        "type": "note_on",
        "time": 15,
        "note": 60,
        "velocity": 53,
        "channel": 1
      },
      {
        "type": "note_on",
        "time": 0,
        "note": 64,
        "velocity": 53,
        "channel": 1
      },
      {
        "type": "note_on",
        "time": 45,
        "note": 64,
        "velocity": 0,
        "channel": 1
      },
      {
        "type": "note_on",
        "time": 0,
        "note": 60,
        "velocity": 0,
        "channel": 1
      },
      {
        "type": "note_on",
        "time": 15,
        "note": 55,
        "velocity": 53,
        "channel": 1
      },
      {
        "type": "note_on",
        "time": 0,
        "note": 48,
        "velocity": 53,
        "channel": 1
      },
      {
        "type": "note_on",
        "time": 30,
        "note": 48,
        "velocity": 0,
        "channel": 1
      },
      {
        "type": "note_on",
        "time": 0,
        "note": 55,
        "velocity": 0,
        "channel": 1
      },
      {
        "type": "note_on",
        "time": 0,
        "note": 55,
        "velocity": 53,
        "channel": 1
      },
      {
        "type": "note_on",
        "time": 0,
        "note": 48,
        "velocity": 53,
        "channel": 1
      },
      {
        "type": "note_on",
        "time": 30,
        "note": 48,
        "velocity": 0,
        "channel": 1
      },
      {
        "type": "note_on",
        "time": 0,
        "note": 55,
        "velocity": 0,
        "channel": 1
      },
      {
        "type": "note_on",
        "time": 0,
        "note": 55,
        "velocity": 53,
        "channel": 1
      },
      {
        "type": "note_on",
        "time": 0,
        "note": 48,
        "velocity": 53,
        "channel": 1
      },
      {
        "type": "note_on",
        "time": 30,
        "note": 48,
        "velocity": 0,
        "channel": 1
      },
      {
        "type": "note_on",
        "time": 0,
        "note": 55,
        "velocity": 0,
        "channel": 1
      },
      {
        "type": "note_on",
        "time": 0,
        "note": 59,
        "velocity": 53,
        "channel": 1
      },
      {
        "type": "note_on",
        "time": 0,
        "note": 52,
        "velocity": 53,
        "channel": 1
      },
      {
        "type": "note_on",
        "time": 30,
        "note": 52,
        "velocity": 0,
        "channel": 1
      },
      {
        "type": "note_on",
        "time": 0,
        "note": 59,
        "velocity": 0,
        "channel": 1
      },
      {
        "type": "note_on",
        "time": 0,
        "note": 59,
        "velocity": 54,
        "channel": 1
      },
      {
        "type": "note_on",
        "time": 0,
        "note": 52,
        "velocity": 54,
        "channel": 1
      },
      {
        "type": "note_on",
        "time": 30,
        "note": 52,
        "velocity": 0,
        "channel": 1
      },
      {
        "type": "note_on",
        "time": 0,
        "note": 59,
        "velocity": 0,
        "channel": 1
      },
      {
        "type": "note_on",
        "time": 0,
        "note": 59,
        "velocity": 54,
        "channel": 1
      },
      {
        "type": "note_on",
        "time": 0,
        "note": 62,
        "velocity": 54,
        "channel": 1
      },
      {
        "type": "note_on",
        "time": 45,
        "note": 62,
        "velocity": 0,
        "channel": 1
      },
      {
        "type": "note_on",
        "time": 0,
        "note": 59,
        "velocity": 0,
        "channel": 1
      },
      {
        "type": "note_on",
        "time": 15,
        "note": 59,
        "velocity": 55,
        "channel": 1
      },
      {
        "type": "note_on",
        "time": 0,
        "note": 64,
        "velocity": 55,
        "channel": 1
      },
      {
        "type": "note_on",
        "time": 45,
        "note": 64,
        "velocity": 0,
        "channel": 1
      },
      {
        "type": "note_on",
        "time": 0,
        "note": 59,
        "velocity": 0,
        "channel": 1
      },
      {
        "type": "note_on",
        "time": 15,
        "note": 59,
        "velocity": 55,
        "channel": 1
      },
      {
        "type": "note_on",
        "time": 0,
        "note": 52,
        "velocity": 55,
        "channel": 1
      },
      {
        "type": "note_on",
        "time": 30,
        "note": 52,
        "velocity": 0,
        "channel": 1
      },
      {
        "type": "note_on",
        "time": 0,
        "note": 59,
        "velocity": 0,
        "channel": 1
      },
      {
        "type": "note_on",
        "time": 0,
        "note": 59,
        "velocity": 56,
        "channel": 1
      },
      {
        "type": "note_on",
        "time": 0,
        "note": 52,
        "velocity": 56,
        "channel": 1
      },
      {
        "type": "note_on",
        "time": 30,
        "note": 52,
        "velocity": 0,
        "channel": 1
      },
      {
        "type": "note_on",
        "time": 0,
        "note": 59,
        "velocity": 0,
        "channel": 1
      },
      {
        "type": "note_on",
        "time": 0,
        "note": 59,
        "velocity": 57,
        "channel": 1
      },
      {
        "type": "note_on",
        "time": 0,
        "note": 52,
        "velocity": 57,
        "channel": 1
      },
      {
        "type": "note_on",
        "time": 30,
        "note": 52,
        "velocity": 0,
        "channel": 1
      },
      {
        "type": "note_on",
        "time": 0,
        "note": 59,
        "velocity": 0,
        "channel": 1
      },
      {
        "type": "note_on",
        "time": 0,
        "note": 59,
        "velocity": 57,
        "channel": 1
      },
      {
        "type": "note_on",
        "time": 0,
        "note": 62,
        "velocity": 57,
        "channel": 1
      },
      {
        "type": "note_on",
        "time": 0,
        "note": 52,
        "velocity": 57,
        "channel": 1
      },
      {
        "type": "note_on",
        "time": 45,
        "note": 52,
        "velocity": 0,
        "channel": 1
      },
      {
        "type": "note_on",
        "time": 0,
        "note": 62,
        "velocity": 0,
        "channel": 1
      },
      {
        "type": "note_on",
        "time": 0,
        "note": 59,
        "velocity": 0,
        "channel": 1
      },
      {
        "type": "note_on",
        "time": 15,
        "note": 59,
        "velocity": 57,
        "channel": 1
      },
      {
        "type": "note_on",
        "time": 0,
        "note": 64,
        "velocity": 57,
        "channel": 1
      },
      {
        "type": "note_on",
        "time": 0,
        "note": 52,
        "velocity": 57,
        "channel": 1
      },
      {
        "type": "note_on",
        "time": 45,
        "note": 52,
        "velocity": 0,
        "channel": 1
      },
      {
        "type": "note_on",
        "time": 0,
        "note": 64,
        "velocity": 0,
        "channel": 1
      },
      {
        "type": "note_on",
        "time": 0,
        "note": 59,
        "velocity": 0,
        "channel": 1
      },
      {
        "type": "note_on",
        "time": 15,
        "note": 59,
        "velocity": 57,
        "channel": 1
      },
      {
        "type": "note_on",
        "time": 0,
        "note": 52,
        "velocity": 57,
        "channel": 1
      },
      {
        "type": "note_on",
        "time": 30,
        "note": 52,
        "velocity": 0,
        "channel": 1
      },
      {
        "type": "note_on",
        "time": 0,
        "note": 59,
        "velocity": 0,
        "channel": 1
      },
      {
        "type": "note_on",
        "time": 0,
        "note": 59,
        "velocity": 57,
        "channel": 1
      },
      {
        "type": "note_on",
        "time": 0,
        "note": 52,
        "velocity": 57,
        "channel": 1
      },
      {
        "type": "note_on",
        "time": 30,
        "note": 52,
        "velocity": 0,
        "channel": 1
      },
      {
        "type": "note_on",
        "time": 0,
        "note": 59,
        "velocity": 0,
        "channel": 1
      },
      {
        "type": "note_on",
        "time": 0,
        "note": 59,
        "velocity": 58,
        "channel": 1
      },
      {
        "type": "note_on",
        "time": 0,
        "note": 52,
        "velocity": 58,
        "channel": 1
      },
      {
        "type": "note_on",
        "time": 30,
        "note": 52,
        "velocity": 0,
        "channel": 1
      },
      {
        "type": "note_on",
        "time": 0,
        "note": 59,
        "velocity": 0,
        "channel": 1
      },
      {
        "type": "note_on",
        "time": 0,
        "note": 57,
        "velocity": 57,
        "channel": 1
      },
      {
        "type": "note_on",
        "time": 0,
        "note": 50,
        "velocity": 57,
        "channel": 1
      },
      {
        "type": "note_on",
        "time": 30,
        "note": 50,
        "velocity": 0,
        "channel": 1
      },
      {
        "type": "note_on",
        "time": 0,
        "note": 57,
        "velocity": 0,
        "channel": 1
      },
      {
        "type": "note_on",
        "time": 0,
        "note": 57,
        "velocity": 57,
        "channel": 1
      },
      {
        "type": "note_on",
        "time": 0,
        "note": 50,
        "velocity": 57,
        "channel": 1
      },
      {
        "type": "note_on",
        "time": 30,
        "note": 50,
        "velocity": 0,
        "channel": 1
      },
      {
        "type": "note_on",
        "time": 0,
        "note": 57,
        "velocity": 0,
        "channel": 1
      },
      {
        "type": "note_on",
        "time": 0,
        "note": 57,
        "velocity": 56,
        "channel": 1
      },
      {
        "type": "note_on",
        "time": 0,
        "note": 62,
        "velocity": 56,
        "channel": 1
      },
      {
        "type": "note_on",
        "time": 45,
        "note": 62,
        "velocity": 0,
        "channel": 1
      },
      {
        "type": "note_on",
        "time": 0,
        "note": 57,
        "velocity": 0,
        "channel": 1
      },
      {
        "type": "note_on",
        "time": 15,
        "note": 62,
        "velocity": 56,
        "channel": 1
      },
      {
        "type": "note_on",
        "time": 0,
        "note": 64,
        "velocity": 56,
        "channel": 1
      },
      {
        "type": "note_on",
        "time": 45,
        "note": 64,
        "velocity": 0,
        "channel": 1
      },
      {
        "type": "note_on",
        "time": 0,
        "note": 62,
        "velocity": 0,
        "channel": 1
      },
      {
        "type": "note_on",
        "time": 15,
        "note": 57,
        "velocity": 56,
        "channel": 1
      },
      {
        "type": "note_on",
        "time": 0,
        "note": 50,
        "velocity": 56,
        "channel": 1
      },
      {
        "type": "note_on",
        "time": 30,
        "note": 50,
        "velocity": 0,
        "channel": 1
      },
      {
        "type": "note_on",
        "time": 0,
        "note": 57,
        "velocity": 0,
        "channel": 1
      },
      {
        "type": "note_on",
        "time": 0,
        "note": 57,
        "velocity": 56,
        "channel": 1
      },
      {
        "type": "note_on",
        "time": 0,
        "note": 50,
        "velocity": 56,
        "channel": 1
      },
      {
        "type": "note_on",
        "time": 30,
        "note": 50,
        "velocity": 0,
        "channel": 1
      },
      {
        "type": "note_on",
        "time": 0,
        "note": 57,
        "velocity": 0,
        "channel": 1
      },
      {
        "type": "note_on",
        "time": 0,
        "note": 57,
        "velocity": 56,
        "channel": 1
      },
      {
        "type": "note_on",
        "time": 0,
        "note": 50,
        "velocity": 56,
        "channel": 1
      },
      {
        "type": "note_on",
        "time": 30,
        "note": 50,
        "velocity": 0,
        "channel": 1
      },
      {
        "type": "note_on",
        "time": 0,
        "note": 57,
        "velocity": 0,
        "channel": 1
      },
      {
        "type": "note_on",
        "time": 0,
        "note": 57,
        "velocity": 56,
        "channel": 1
      },
      {
        "type": "note_on",
        "time": 0,
        "note": 62,
        "velocity": 56,
        "channel": 1
      },
      {
        "type": "note_on",
        "time": 45,
        "note": 62,
        "velocity": 0,
        "channel": 1
      },
      {
        "type": "note_on",
        "time": 0,
        "note": 57,
        "velocity": 0,
        "channel": 1
      },
      {
        "type": "note_on",
        "time": 15,
        "note": 62,
        "velocity": 56,
        "channel": 1
      },
      {
        "type": "note_on",
        "time": 0,
        "note": 64,
        "velocity": 56,
        "channel": 1
      },
      {
        "type": "note_on",
        "time": 45,
        "note": 64,
        "velocity": 0,
        "channel": 1
      },
      {
        "type": "note_on",
        "time": 0,
        "note": 62,
        "velocity": 0,
        "channel": 1
      },
      {
        "type": "note_on",
        "time": 15,
        "note": 57,
        "velocity": 56,
        "channel": 1
      },
      {
        "type": "note_on",
        "time": 0,
        "note": 50,
        "velocity": 56,
        "channel": 1
      },
      {
        "type": "note_on",
        "time": 30,
        "note": 50,
        "velocity": 0,
        "channel": 1
      },
      {
        "type": "note_on",
        "time": 0,
        "note": 57,
        "velocity": 0,
        "channel": 1
      },
      {
        "type": "note_on",
        "time": 0,
        "note": 57,
        "velocity": 56,
        "channel": 1
      },
      {
        "type": "note_on",
        "time": 0,
        "note": 50,
        "velocity": 56,
        "channel": 1
      },
      {
        "type": "note_on",
        "time": 30,
        "note": 50,
        "velocity": 0,
        "channel": 1
      },
      {
        "type": "note_on",
        "time": 0,
        "note": 57,
        "velocity": 0,
        "channel": 1
      },
      {
        "type": "note_on",
        "time": 0,
        "note": 57,
        "velocity": 56,
        "channel": 1
      },
      {
        "type": "note_on",
        "time": 0,
        "note": 50,
        "velocity": 56,
        "channel": 1
      },
      {
        "type": "note_on",
        "time": 30,
        "note": 50,
        "velocity": 0,
        "channel": 1
      },
      {
        "type": "note_on",
        "time": 0,
        "note": 57,
        "velocity": 0,
        "channel": 1
      },
      {
        "type": "note_on",
        "time": 0,
        "note": 54,
        "velocity": 56,
        "channel": 1
      },
      {
        "type": "note_on",
        "time": 0,
        "note": 47,
        "velocity": 56,
        "channel": 1
      },
      {
        "type": "note_on",
        "time": 30,
        "note": 47,
        "velocity": 0,
        "channel": 1
      },
      {
        "type": "note_on",
        "time": 0,
        "note": 54,
        "velocity": 0,
        "channel": 1
      },
      {
        "type": "note_on",
        "time": 0,
        "note": 54,
        "velocity": 56,
        "channel": 1
      },
      {
        "type": "note_on",
        "time": 0,
        "note": 47,
        "velocity": 56,
        "channel": 1
      },
      {
        "type": "note_on",
        "time": 30,
        "note": 47,
        "velocity": 0,
        "channel": 1
      },
      {
        "type": "note_on",
        "time": 0,
        "note": 54,
        "velocity": 0,
        "channel": 1
      },
      {
        "type": "note_on",
        "time": 0,
        "note": 62,
        "velocity": 56,
        "channel": 1
      },
      {
        "type": "note_on",
        "time": 0,
        "note": 54,
        "velocity": 56,
        "channel": 1
      },
      {
        "type": "note_on",
        "time": 45,
        "note": 54,
        "velocity": 0,
        "channel": 1
      },
      {
        "type": "note_on",
        "time": 0,
        "note": 62,
        "velocity": 0,
        "channel": 1
      },
      {
        "type": "note_on",
        "time": 15,
        "note": 59,
        "velocity": 56,
        "channel": 1
      },
      {
        "type": "note_on",
        "time": 0,
        "note": 64,
        "velocity": 56,
        "channel": 1
      },
      {
        "type": "note_on",
        "time": 45,
        "note": 64,
        "velocity": 0,
        "channel": 1
      },
      {
        "type": "note_on",
        "time": 0,
        "note": 59,
        "velocity": 0,
        "channel": 1
      },
      {
        "type": "note_on",
        "time": 15,
        "note": 54,
        "velocity": 57,
        "channel": 1
      },
      {
        "type": "note_on",
        "time": 0,
        "note": 47,
        "velocity": 57,
        "channel": 1
      },
      {
        "type": "note_on",
        "time": 30,
        "note": 47,
        "velocity": 0,
        "channel": 1
      },
      {
        "type": "note_on",
        "time": 0,
        "note": 54,
        "velocity": 0,
        "channel": 1
      },
      {
        "type": "note_on",
        "time": 0,
        "note": 54,
        "velocity": 58,
        "channel": 1
      },
      {
        "type": "note_on",
        "time": 0,
        "note": 47,
        "velocity": 58,
        "channel": 1
      },
      {
        "type": "note_on",
        "time": 30,
        "note": 47,
        "velocity": 0,
        "channel": 1
      },
      {
        "type": "note_on",
        "time": 0,
        "note": 54,
        "velocity": 0,
        "channel": 1
      },
      {
        "type": "note_on",
        "time": 0,
        "note": 47,
        "velocity": 58,
        "channel": 1
      },
      {
        "type": "note_on",
        "time": 0,
        "note": 54,
        "velocity": 58,
        "channel": 1
      },
      {
        "type": "note_on",
        "time": 30,
        "note": 54,
        "velocity": 0,
        "channel": 1
      },
      {
        "type": "note_on",
        "time": 0,
        "note": 47,
        "velocity": 0,
        "channel": 1
      },
      {
        "type": "note_on",
        "time": 0,
        "note": 54,
        "velocity": 58,
        "channel": 1
      },
      {
        "type": "note_on",
        "time": 0,
        "note": 62,
        "velocity": 58,
        "channel": 1
      },
      {
        "type": "note_on",
        "time": 45,
        "note": 62,
        "velocity": 0,
        "channel": 1
      },
      {
        "type": "note_on",
        "time": 0,
        "note": 54,
        "velocity": 0,
        "channel": 1
      },
      {
        "type": "note_on",
        "time": 15,
        "note": 59,
        "velocity": 58,
        "channel": 1
      },
      {
        "type": "note_on",
        "time": 0,
        "note": 64,
        "velocity": 58,
        "channel": 1
      },
      {
        "type": "note_on",
        "time": 45,
        "note": 64,
        "velocity": 0,
        "channel": 1
      },
      {
        "type": "note_on",
        "time": 0,
        "note": 59,
        "velocity": 0,
        "channel": 1
      },
      {
        "type": "note_on",
        "time": 15,
        "note": 47,
        "velocity": 59,
        "channel": 1
      },
      {
        "type": "note_on",
        "time": 0,
        "note": 54,
        "velocity": 59,
        "channel": 1
      },
      {
        "type": "note_on",
        "time": 30,
        "note": 54,
        "velocity": 0,
        "channel": 1
      },
      {
        "type": "note_on",
        "time": 0,
        "note": 47,
        "velocity": 0,
        "channel": 1
      },
      {
        "type": "note_on",
        "time": 0,
        "note": 54,
        "velocity": 59,
        "channel": 1
      },
      {
        "type": "note_on",
        "time": 0,
        "note": 47,
        "velocity": 59,
        "channel": 1
      },
      {
        "type": "note_on",
        "time": 30,
        "note": 47,
        "velocity": 0,
        "channel": 1
      },
      {
        "type": "note_on",
        "time": 0,
        "note": 54,
        "velocity": 0,
        "channel": 1
      },
      {
        "type": "note_on",
        "time": 0,
        "note": 54,
        "velocity": 60,
        "channel": 1
      },
      {
        "type": "note_on",
        "time": 0,
        "note": 47,
        "velocity": 60,
        "channel": 1
      },
      {
        "type": "note_on",
        "time": 30,
        "note": 47,
        "velocity": 0,
        "channel": 1
      },
      {
        "type": "note_on",
        "time": 0,
        "note": 54,
        "velocity": 0,
        "channel": 1
      },
      {
        "type": "note_on",
        "time": 0,
        "note": 55,
        "velocity": 61,
        "channel": 1
      },
      {
        "type": "note_on",
        "time": 0,
        "note": 48,
        "velocity": 61,
        "channel": 1
      },
      {
        "type": "note_on",
        "time": 30,
        "note": 48,
        "velocity": 0,
        "channel": 1
      },
      {
        "type": "note_on",
        "time": 0,
        "note": 55,
        "velocity": 0,
        "channel": 1
      },
      {
        "type": "note_on",
        "time": 0,
        "note": 55,
        "velocity": 61,
        "channel": 1
      },
      {
        "type": "note_on",
        "time": 0,
        "note": 48,
        "velocity": 61,
        "channel": 1
      },
      {
        "type": "note_on",
        "time": 30,
        "note": 48,
        "velocity": 0,
        "channel": 1
      },
      {
        "type": "note_on",
        "time": 0,
        "note": 55,
        "velocity": 0,
        "channel": 1
      },
      {
        "type": "note_on",
        "time": 0,
        "note": 55,
        "velocity": 62,
        "channel": 1
      },
      {
        "type": "note_on",
        "time": 0,
        "note": 62,
        "velocity": 62,
        "channel": 1
      },
      {
        "type": "note_on",
        "time": 45,
        "note": 62,
        "velocity": 0,
        "channel": 1
      },
      {
        "type": "note_on",
        "time": 0,
        "note": 55,
        "velocity": 0,
        "channel": 1
      },
      {
        "type": "note_on",
        "time": 15,
        "note": 60,
        "velocity": 57,
        "channel": 1
      },
      {
        "type": "note_on",
        "time": 0,
        "note": 64,
        "velocity": 57,
        "channel": 1
      },
      {
        "type": "note_on",
        "time": 45,
        "note": 64,
        "velocity": 0,
        "channel": 1
      },
      {
        "type": "note_on",
        "time": 0,
        "note": 60,
        "velocity": 0,
        "channel": 1
      },
      {
        "type": "note_on",
        "time": 15,
        "note": 55,
        "velocity": 57,
        "channel": 1
      },
      {
        "type": "note_on",
        "time": 0,
        "note": 48,
        "velocity": 57,
        "channel": 1
      },
      {
        "type": "note_on",
        "time": 30,
        "note": 48,
        "velocity": 0,
        "channel": 1
      },
      {
        "type": "note_on",
        "time": 0,
        "note": 55,
        "velocity": 0,
        "channel": 1
      },
      {
        "type": "note_on",
        "time": 0,
        "note": 55,
        "velocity": 57,
        "channel": 1
      },
      {
        "type": "note_on",
        "time": 0,
        "note": 48,
        "velocity": 57,
        "channel": 1
      },
      {
        "type": "note_on",
        "time": 30,
        "note": 48,
        "velocity": 0,
        "channel": 1
      },
      {
        "type": "note_on",
        "time": 0,
        "note": 55,
        "velocity": 0,
        "channel": 1
      },
      {
        "type": "note_on",
        "time": 0,
        "note": 55,
        "velocity": 57,
        "channel": 1
      },
      {
        "type": "note_on",
        "time": 0,
        "note": 48,
        "velocity": 57,
        "channel": 1
      },
      {
        "type": "note_on",
        "time": 30,
        "note": 48,
        "velocity": 0,
        "channel": 1
      },
      {
        "type": "note_on",
        "time": 0,
        "note": 55,
        "velocity": 0,
        "channel": 1
      },
      {
        "type": "note_on",
        "time": 0,
        "note": 55,
        "velocity": 57,
        "channel": 1
      },
      {
        "type": "note_on",
        "time": 0,
        "note": 62,
        "velocity": 57,
        "channel": 1
      },
      {
        "type": "note_on",
        "time": 45,
        "note": 62,
        "velocity": 0,
        "channel": 1
      },
      {
        "type": "note_on",
        "time": 0,
        "note": 55,
        "velocity": 0,
        "channel": 1
      },
      {
        "type": "note_on",
        "time": 15,
        "note": 60,
        "velocity": 57,
        "channel": 1
      },
      {
        "type": "note_on",
        "time": 0,
        "note": 64,
        "velocity": 57,
        "channel": 1
      },
      {
        "type": "note_on",
        "time": 45,
        "note": 64,
        "velocity": 0,
        "channel": 1
      },
      {
        "type": "note_on",
        "time": 0,
        "note": 60,
        "velocity": 0,
        "channel": 1
      },
      {
        "type": "note_on",
        "time": 15,
        "note": 55,
        "velocity": 57,
        "channel": 1
      },
      {
        "type": "note_on",
        "time": 0,
        "note": 48,
        "velocity": 57,
        "channel": 1
      },
      {
        "type": "note_on",
        "time": 30,
        "note": 48,
        "velocity": 0,
        "channel": 1
      },
      {
        "type": "note_on",
        "time": 0,
        "note": 55,
        "velocity": 0,
        "channel": 1
      },
      {
        "type": "note_on",
        "time": 0,
        "note": 55,
        "velocity": 57,
        "channel": 1
      },
      {
        "type": "note_on",
        "time": 0,
        "note": 48,
        "velocity": 57,
        "channel": 1
      },
      {
        "type": "note_on",
        "time": 30,
        "note": 48,
        "velocity": 0,
        "channel": 1
      },
      {
        "type": "note_on",
        "time": 0,
        "note": 55,
        "velocity": 0,
        "channel": 1
      },
      {
        "type": "note_on",
        "time": 0,
        "note": 55,
        "velocity": 57,
        "channel": 1
      },
      {
        "type": "note_on",
        "time": 0,
        "note": 48,
        "velocity": 57,
        "channel": 1
      },
      {
        "type": "note_on",
        "time": 30,
        "note": 48,
        "velocity": 0,
        "channel": 1
      },
      {
        "type": "note_on",
        "time": 0,
        "note": 55,
        "velocity": 0,
        "channel": 1
      },
      {
        "type": "note_on",
        "time": 0,
        "note": 59,
        "velocity": 100,
        "channel": 1
      },
      {
        "type": "note_on",
        "time": 0,
        "note": 52,
        "velocity": 100,
        "channel": 1
      },
      {
        "type": "note_on",
        "time": 30,
        "note": 52,
        "velocity": 0,
        "channel": 1
      },
      {
        "type": "note_on",
        "time": 0,
        "note": 59,
        "velocity": 0,
        "channel": 1
      },
      {
        "type": "note_on",
        "time": 0,
        "note": 59,
        "velocity": 101,
        "channel": 1
      },
      {
        "type": "note_on",
        "time": 0,
        "note": 52,
        "velocity": 101,
        "channel": 1
      },
      {
        "type": "note_on",
        "time": 30,
        "note": 52,
        "velocity": 0,
        "channel": 1
      },
      {
        "type": "note_on",
        "time": 0,
        "note": 59,
        "velocity": 0,
        "channel": 1
      },
      {
        "type": "note_on",
        "time": 0,
        "note": 59,
        "velocity": 102,
        "channel": 1
      },
      {
        "type": "note_on",
        "time": 0,
        "note": 62,
        "velocity": 102,
        "channel": 1
      },
      {
        "type": "note_on",
        "time": 45,
        "note": 62,
        "velocity": 0,
        "channel": 1
      },
      {
        "type": "note_on",
        "time": 0,
        "note": 59,
        "velocity": 0,
        "channel": 1
      },
      {
        "type": "note_on",
        "time": 15,
        "note": 59,
        "velocity": 103,
        "channel": 1
      },
      {
        "type": "note_on",
        "time": 0,
        "note": 64,
        "velocity": 103,
        "channel": 1
      },
      {
        "type": "note_on",
        "time": 45,
        "note": 64,
        "velocity": 0,
        "channel": 1
      },
      {
        "type": "note_on",
        "time": 0,
        "note": 59,
        "velocity": 0,
        "channel": 1
      },
      {
        "type": "note_on",
        "time": 15,
        "note": 59,
        "velocity": 102,
        "channel": 1
      },
      {
        "type": "note_on",
        "time": 0,
        "note": 52,
        "velocity": 102,
        "channel": 1
      },
      {
        "type": "note_on",
        "time": 30,
        "note": 52,
        "velocity": 0,
        "channel": 1
      },
      {
        "type": "note_on",
        "time": 0,
        "note": 59,
        "velocity": 0,
        "channel": 1
      },
      {
        "type": "note_on",
        "time": 0,
        "note": 59,
        "velocity": 102,
        "channel": 1
      },
      {
        "type": "note_on",
        "time": 0,
        "note": 52,
        "velocity": 102,
        "channel": 1
      },
      {
        "type": "note_on",
        "time": 30,
        "note": 52,
        "velocity": 0,
        "channel": 1
      },
      {
        "type": "note_on",
        "time": 0,
        "note": 59,
        "velocity": 0,
        "channel": 1
      },
      {
        "type": "note_on",
        "time": 0,
        "note": 59,
        "velocity": 101,
        "channel": 1
      },
      {
        "type": "note_on",
        "time": 0,
        "note": 52,
        "velocity": 101,
        "channel": 1
      },
      {
        "type": "note_on",
        "time": 30,
        "note": 52,
        "velocity": 0,
        "channel": 1
      },
      {
        "type": "note_on",
        "time": 0,
        "note": 59,
        "velocity": 0,
        "channel": 1
      },
      {
        "type": "note_on",
        "time": 0,
        "note": 59,
        "velocity": 98,
        "channel": 1
      },
      {
        "type": "note_on",
        "time": 0,
        "note": 62,
        "velocity": 98,
        "channel": 1
      },
      {
        "type": "note_on",
        "time": 0,
        "note": 52,
        "velocity": 98,
        "channel": 1
      },
      {
        "type": "note_on",
        "time": 45,
        "note": 52,
        "velocity": 0,
        "channel": 1
      },
      {
        "type": "note_on",
        "time": 0,
        "note": 62,
        "velocity": 0,
        "channel": 1
      },
      {
        "type": "note_on",
        "time": 0,
        "note": 59,
        "velocity": 0,
        "channel": 1
      },
      {
        "type": "note_on",
        "time": 15,
        "note": 59,
        "velocity": 98,
        "channel": 1
      },
      {
        "type": "note_on",
        "time": 0,
        "note": 64,
        "velocity": 98,
        "channel": 1
      },
      {
        "type": "note_on",
        "time": 0,
        "note": 52,
        "velocity": 98,
        "channel": 1
      },
      {
        "type": "note_on",
        "time": 45,
        "note": 52,
        "velocity": 0,
        "channel": 1
      },
      {
        "type": "note_on",
        "time": 0,
        "note": 64,
        "velocity": 0,
        "channel": 1
      },
      {
        "type": "note_on",
        "time": 0,
        "note": 59,
        "velocity": 0,
        "channel": 1
      },
      {
        "type": "note_on",
        "time": 15,
        "note": 59,
        "velocity": 101,
        "channel": 1
      },
      {
        "type": "note_on",
        "time": 0,
        "note": 52,
        "velocity": 101,
        "channel": 1
      },
      {
        "type": "note_on",
        "time": 30,
        "note": 52,
        "velocity": 0,
        "channel": 1
      },
      {
        "type": "note_on",
        "time": 0,
        "note": 59,
        "velocity": 0,
        "channel": 1
      },
      {
        "type": "note_on",
        "time": 0,
        "note": 59,
        "velocity": 101,
        "channel": 1
      },
      {
        "type": "note_on",
        "time": 0,
        "note": 52,
        "velocity": 101,
        "channel": 1
      },
      {
        "type": "note_on",
        "time": 30,
        "note": 52,
        "velocity": 0,
        "channel": 1
      },
      {
        "type": "note_on",
        "time": 0,
        "note": 59,
        "velocity": 0,
        "channel": 1
      },
      {
        "type": "note_on",
        "time": 0,
        "note": 59,
        "velocity": 101,
        "channel": 1
      },
      {
        "type": "note_on",
        "time": 0,
        "note": 52,
        "velocity": 101,
        "channel": 1
      },
      {
        "type": "note_on",
        "time": 30,
        "note": 52,
        "velocity": 0,
        "channel": 1
      },
      {
        "type": "note_on",
        "time": 0,
        "note": 59,
        "velocity": 0,
        "channel": 1
      },
      {
        "type": "note_on",
        "time": 0,
        "note": 57,
        "velocity": 101,
        "channel": 1
      },
      {
        "type": "note_on",
        "time": 0,
        "note": 50,
        "velocity": 101,
        "channel": 1
      },
      {
        "type": "note_on",
        "time": 30,
        "note": 50,
        "velocity": 0,
        "channel": 1
      },
      {
        "type": "note_on",
        "time": 0,
        "note": 57,
        "velocity": 0,
        "channel": 1
      },
      {
        "type": "note_on",
        "time": 0,
        "note": 57,
        "velocity": 101,
        "channel": 1
      },
      {
        "type": "note_on",
        "time": 0,
        "note": 50,
        "velocity": 101,
        "channel": 1
      },
      {
        "type": "note_on",
        "time": 30,
        "note": 50,
        "velocity": 0,
        "channel": 1
      },
      {
        "type": "note_on",
        "time": 0,
        "note": 57,
        "velocity": 0,
        "channel": 1
      },
      {
        "type": "note_on",
        "time": 0,
        "note": 57,
        "velocity": 101,
        "channel": 1
      },
      {
        "type": "note_on",
        "time": 0,
        "note": 62,
        "velocity": 101,
        "channel": 1
      },
      {
        "type": "note_on",
        "time": 45,
        "note": 62,
        "velocity": 0,
        "channel": 1
      },
      {
        "type": "note_on",
        "time": 0,
        "note": 57,
        "velocity": 0,
        "channel": 1
      },
      {
        "type": "note_on",
        "time": 15,
        "note": 62,
        "velocity": 101,
        "channel": 1
      },
      {
        "type": "note_on",
        "time": 0,
        "note": 64,
        "velocity": 100,
        "channel": 1
      },
      {
        "type": "note_on",
        "time": 45,
        "note": 64,
        "velocity": 0,
        "channel": 1
      },
      {
        "type": "note_on",
        "time": 0,
        "note": 62,
        "velocity": 0,
        "channel": 1
      },
      {
        "type": "note_on",
        "time": 15,
        "note": 57,
        "velocity": 100,
        "channel": 1
      },
      {
        "type": "note_on",
        "time": 0,
        "note": 50,
        "velocity": 100,
        "channel": 1
      },
      {
        "type": "note_on",
        "time": 30,
        "note": 50,
        "velocity": 0,
        "channel": 1
      },
      {
        "type": "note_on",
        "time": 0,
        "note": 57,
        "velocity": 0,
        "channel": 1
      },
      {
        "type": "note_on",
        "time": 0,
        "note": 57,
        "velocity": 100,
        "channel": 1
      },
      {
        "type": "note_on",
        "time": 0,
        "note": 50,
        "velocity": 100,
        "channel": 1
      },
      {
        "type": "note_on",
        "time": 30,
        "note": 50,
        "velocity": 0,
        "channel": 1
      },
      {
        "type": "note_on",
        "time": 0,
        "note": 57,
        "velocity": 0,
        "channel": 1
      },
      {
        "type": "note_on",
        "time": 0,
        "note": 57,
        "velocity": 100,
        "channel": 1
      },
      {
        "type": "note_on",
        "time": 0,
        "note": 50,
        "velocity": 100,
        "channel": 1
      },
      {
        "type": "note_on",
        "time": 30,
        "note": 50,
        "velocity": 0,
        "channel": 1
      },
      {
        "type": "note_on",
        "time": 0,
        "note": 57,
        "velocity": 0,
        "channel": 1
      },
      {
        "type": "note_on",
        "time": 0,
        "note": 57,
        "velocity": 101,
        "channel": 1
      },
      {
        "type": "note_on",
        "time": 0,
        "note": 62,
        "velocity": 100,
        "channel": 1
      },
      {
        "type": "note_on",
        "time": 45,
        "note": 62,
        "velocity": 0,
        "channel": 1
      },
      {
        "type": "note_on",
        "time": 0,
        "note": 57,
        "velocity": 0,
        "channel": 1
      },
      {
        "type": "note_on",
        "time": 15,
        "note": 62,
        "velocity": 101,
        "channel": 1
      },
      {
        "type": "note_on",
        "time": 0,
        "note": 64,
        "velocity": 100,
        "channel": 1
      },
      {
        "type": "note_on",
        "time": 45,
        "note": 64,
        "velocity": 0,
        "channel": 1
      },
      {
        "type": "note_on",
        "time": 0,
        "note": 62,
        "velocity": 0,
        "channel": 1
      },
      {
        "type": "note_on",
        "time": 15,
        "note": 57,
        "velocity": 100,
        "channel": 1
      },
      {
        "type": "note_on",
        "time": 0,
        "note": 50,
        "velocity": 100,
        "channel": 1
      },
      {
        "type": "note_on",
        "time": 30,
        "note": 50,
        "velocity": 0,
        "channel": 1
      },
      {
        "type": "note_on",
        "time": 0,
        "note": 57,
        "velocity": 0,
        "channel": 1
      },
      {
        "type": "note_on",
        "time": 0,
        "note": 57,
        "velocity": 100,
        "channel": 1
      },
      {
        "type": "note_on",
        "time": 0,
        "note": 50,
        "velocity": 100,
        "channel": 1
      },
      {
        "type": "note_on",
        "time": 30,
        "note": 50,
        "velocity": 0,
        "channel": 1
      },
      {
        "type": "note_on",
        "time": 0,
        "note": 57,
        "velocity": 0,
        "channel": 1
      },
      {
        "type": "note_on",
        "time": 0,
        "note": 57,
        "velocity": 100,
        "channel": 1
      },
      {
        "type": "note_on",
        "time": 0,
        "note": 50,
        "velocity": 100,
        "channel": 1
      },
      {
        "type": "note_on",
        "time": 30,
        "note": 50,
        "velocity": 0,
        "channel": 1
      },
      {
        "type": "note_on",
        "time": 0,
        "note": 57,
        "velocity": 0,
        "channel": 1
      },
      {
        "type": "note_on",
        "time": 0,
        "note": 54,
        "velocity": 100,
        "channel": 1
      },
      {
        "type": "note_on",
        "time": 0,
        "note": 47,
        "velocity": 100,
        "channel": 1
      },
      {
        "type": "note_on",
        "time": 30,
        "note": 47,
        "velocity": 0,
        "channel": 1
      },
      {
        "type": "note_on",
        "time": 0,
        "note": 54,
        "velocity": 0,
        "channel": 1
      },
      {
        "type": "note_on",
        "time": 0,
        "note": 54,
        "velocity": 100,
        "channel": 1
      },
      {
        "type": "note_on",
        "time": 0,
        "note": 47,
        "velocity": 100,
        "channel": 1
      },
      {
        "type": "note_on",
        "time": 30,
        "note": 47,
        "velocity": 0,
        "channel": 1
      },
      {
        "type": "note_on",
        "time": 0,
        "note": 54,
        "velocity": 0,
        "channel": 1
      },
      {
        "type": "note_on",
        "time": 0,
        "note": 62,
        "velocity": 101,
        "channel": 1
      },
      {
        "type": "note_on",
        "time": 0,
        "note": 54,
        "velocity": 101,
        "channel": 1
      },
      {
        "type": "note_on",
        "time": 45,
        "note": 54,
        "velocity": 0,
        "channel": 1
      },
      {
        "type": "note_on",
        "time": 0,
        "note": 62,
        "velocity": 0,
        "channel": 1
      },
      {
        "type": "note_on",
        "time": 15,
        "note": 59,
        "velocity": 101,
        "channel": 1
      },
      {
        "type": "note_on",
        "time": 0,
        "note": 64,
        "velocity": 101,
        "channel": 1
      },
      {
        "type": "note_on",
        "time": 45,
        "note": 64,
        "velocity": 0,
        "channel": 1
      },
      {
        "type": "note_on",
        "time": 0,
        "note": 59,
        "velocity": 0,
        "channel": 1
      },
      {
        "type": "note_on",
        "time": 15,
        "note": 54,
        "velocity": 101,
        "channel": 1
      },
      {
        "type": "note_on",
        "time": 0,
        "note": 47,
        "velocity": 101,
        "channel": 1
      },
      {
        "type": "note_on",
        "time": 30,
        "note": 47,
        "velocity": 0,
        "channel": 1
      },
      {
        "type": "note_on",
        "time": 0,
        "note": 54,
        "velocity": 0,
        "channel": 1
      },
      {
        "type": "note_on",
        "time": 0,
        "note": 54,
        "velocity": 102,
        "channel": 1
      },
      {
        "type": "note_on",
        "time": 0,
        "note": 47,
        "velocity": 102,
        "channel": 1
      },
      {
        "type": "note_on",
        "time": 30,
        "note": 47,
        "velocity": 0,
        "channel": 1
      },
      {
        "type": "note_on",
        "time": 0,
        "note": 54,
        "velocity": 0,
        "channel": 1
      },
      {
        "type": "note_on",
        "time": 0,
        "note": 47,
        "velocity": 103,
        "channel": 1
      },
      {
        "type": "note_on",
        "time": 0,
        "note": 54,
        "velocity": 103,
        "channel": 1
      },
      {
        "type": "note_on",
        "time": 30,
        "note": 54,
        "velocity": 0,
        "channel": 1
      },
      {
        "type": "note_on",
        "time": 0,
        "note": 47,
        "velocity": 0,
        "channel": 1
      },
      {
        "type": "note_on",
        "time": 0,
        "note": 54,
        "velocity": 101,
        "channel": 1
      },
      {
        "type": "note_on",
        "time": 0,
        "note": 62,
        "velocity": 104,
        "channel": 1
      },
      {
        "type": "note_on",
        "time": 45,
        "note": 62,
        "velocity": 0,
        "channel": 1
      },
      {
        "type": "note_on",
        "time": 0,
        "note": 54,
        "velocity": 0,
        "channel": 1
      },
      {
        "type": "note_on",
        "time": 15,
        "note": 59,
        "velocity": 101,
        "channel": 1
      },
      {
        "type": "note_on",
        "time": 0,
        "note": 64,
        "velocity": 105,
        "channel": 1
      },
      {
        "type": "note_on",
        "time": 45,
        "note": 64,
        "velocity": 0,
        "channel": 1
      },
      {
        "type": "note_on",
        "time": 0,
        "note": 59,
        "velocity": 0,
        "channel": 1
      },
      {
        "type": "note_on",
        "time": 15,
        "note": 47,
        "velocity": 105,
        "channel": 1
      },
      {
        "type": "note_on",
        "time": 0,
        "note": 54,
        "velocity": 105,
        "channel": 1
      },
      {
        "type": "note_on",
        "time": 30,
        "note": 54,
        "velocity": 0,
        "channel": 1
      },
      {
        "type": "note_on",
        "time": 0,
        "note": 47,
        "velocity": 0,
        "channel": 1
      },
      {
        "type": "note_on",
        "time": 0,
        "note": 54,
        "velocity": 99,
        "channel": 1
      },
      {
        "type": "note_on",
        "time": 0,
        "note": 47,
        "velocity": 99,
        "channel": 1
      },
      {
        "type": "note_on",
        "time": 30,
        "note": 47,
        "velocity": 0,
        "channel": 1
      },
      {
        "type": "note_on",
        "time": 0,
        "note": 54,
        "velocity": 0,
        "channel": 1
      },
      {
        "type": "note_on",
        "time": 0,
        "note": 54,
        "velocity": 99,
        "channel": 1
      },
      {
        "type": "note_on",
        "time": 0,
        "note": 47,
        "velocity": 99,
        "channel": 1
      },
      {
        "type": "note_on",
        "time": 30,
        "note": 47,
        "velocity": 0,
        "channel": 1
      },
      {
        "type": "note_on",
        "time": 0,
        "note": 54,
        "velocity": 0,
        "channel": 1
      },
      {
        "type": "note_on",
        "time": 0,
        "note": 55,
        "velocity": 100,
        "channel": 1
      },
      {
        "type": "note_on",
        "time": 0,
        "note": 48,
        "velocity": 99,
        "channel": 1
      },
      {
        "type": "note_on",
        "time": 30,
        "note": 48,
        "velocity": 0,
        "channel": 1
      },
      {
        "type": "note_on",
        "time": 0,
        "note": 55,
        "velocity": 0,
        "channel": 1
      },
      {
        "type": "note_on",
        "time": 0,
        "note": 55,
        "velocity": 100,
        "channel": 1
      },
      {
        "type": "note_on",
        "time": 0,
        "note": 48,
        "velocity": 99,
        "channel": 1
      },
      {
        "type": "note_on",
        "time": 30,
        "note": 48,
        "velocity": 0,
        "channel": 1
      },
      {
        "type": "note_on",
        "time": 0,
        "note": 55,
        "velocity": 0,
        "channel": 1
      },
      {
        "type": "note_on",
        "time": 0,
        "note": 55,
        "velocity": 101,
        "channel": 1
      },
      {
        "type": "note_on",
        "time": 0,
        "note": 62,
        "velocity": 99,
        "channel": 1
      },
      {
        "type": "note_on",
        "time": 45,
        "note": 62,
        "velocity": 0,
        "channel": 1
      },
      {
        "type": "note_on",
        "time": 0,
        "note": 55,
        "velocity": 0,
        "channel": 1
      },
      {
        "type": "note_on",
        "time": 15,
        "note": 60,
        "velocity": 101,
        "channel": 1
      },
      {
        "type": "note_on",
        "time": 0,
        "note": 64,
        "velocity": 99,
        "channel": 1
      },
      {
        "type": "note_on",
        "time": 45,
        "note": 64,
        "velocity": 0,
        "channel": 1
      },
      {
        "type": "note_on",
        "time": 0,
        "note": 60,
        "velocity": 0,
        "channel": 1
      },
      {
        "type": "note_on",
        "time": 15,
        "note": 55,
        "velocity": 100,
        "channel": 1
      },
      {
        "type": "note_on",
        "time": 0,
        "note": 48,
        "velocity": 99,
        "channel": 1
      },
      {
        "type": "note_on",
        "time": 30,
        "note": 48,
        "velocity": 0,
        "channel": 1
      },
      {
        "type": "note_on",
        "time": 0,
        "note": 55,
        "velocity": 0,
        "channel": 1
      },
      {
        "type": "note_on",
        "time": 0,
        "note": 55,
        "velocity": 100,
        "channel": 1
      },
      {
        "type": "note_on",
        "time": 0,
        "note": 48,
        "velocity": 99,
        "channel": 1
      },
      {
        "type": "note_on",
        "time": 30,
        "note": 48,
        "velocity": 0,
        "channel": 1
      },
      {
        "type": "note_on",
        "time": 0,
        "note": 55,
        "velocity": 0,
        "channel": 1
      },
      {
        "type": "note_on",
        "time": 0,
        "note": 55,
        "velocity": 100,
        "channel": 1
      },
      {
        "type": "note_on",
        "time": 0,
        "note": 48,
        "velocity": 100,
        "channel": 1
      },
      {
        "type": "note_on",
        "time": 30,
        "note": 48,
        "velocity": 0,
        "channel": 1
      },
      {
        "type": "note_on",
        "time": 0,
        "note": 55,
        "velocity": 0,
        "channel": 1
      },
      {
        "type": "note_on",
        "time": 0,
        "note": 55,
        "velocity": 101,
        "channel": 1
      },
      {
        "type": "note_on",
        "time": 0,
        "note": 62,
        "velocity": 100,
        "channel": 1
      },
      {
        "type": "note_on",
        "time": 45,
        "note": 62,
        "velocity": 0,
        "channel": 1
      },
      {
        "type": "note_on",
        "time": 0,
        "note": 55,
        "velocity": 0,
        "channel": 1
      },
      {
        "type": "note_on",
        "time": 15,
        "note": 60,
        "velocity": 101,
        "channel": 1
      },
      {
        "type": "note_on",
        "time": 0,
        "note": 64,
        "velocity": 102,
        "channel": 1
      },
      {
        "type": "note_on",
        "time": 45,
        "note": 64,
        "velocity": 0,
        "channel": 1
      },
      {
        "type": "note_on",
        "time": 0,
        "note": 60,
        "velocity": 0,
        "channel": 1
      },
      {
        "type": "note_on",
        "time": 15,
        "note": 55,
        "velocity": 100,
        "channel": 1
      },
      {
        "type": "note_on",
        "time": 0,
        "note": 48,
        "velocity": 103,
        "channel": 1
      },
      {
        "type": "note_on",
        "time": 30,
        "note": 48,
        "velocity": 0,
        "channel": 1
      },
      {
        "type": "note_on",
        "time": 0,
        "note": 55,
        "velocity": 0,
        "channel": 1
      },
      {
        "type": "note_on",
        "time": 0,
        "note": 55,
        "velocity": 100,
        "channel": 1
      },
      {
        "type": "note_on",
        "time": 0,
        "note": 48,
        "velocity": 103,
        "channel": 1
      },
      {
        "type": "note_on",
        "time": 30,
        "note": 48,
        "velocity": 0,
        "channel": 1
      },
      {
        "type": "note_on",
        "time": 0,
        "note": 55,
        "velocity": 0,
        "channel": 1
      },
      {
        "type": "note_on",
        "time": 0,
        "note": 55,
        "velocity": 100,
        "channel": 1
      },
      {
        "type": "note_on",
        "time": 0,
        "note": 48,
        "velocity": 104,
        "channel": 1
      },
      {
        "type": "note_on",
        "time": 30,
        "note": 48,
        "velocity": 0,
        "channel": 1
      },
      {
        "type": "note_on",
        "time": 0,
        "note": 55,
        "velocity": 0,
        "channel": 1
      },
      {
        "type": "note_on",
        "time": 0,
        "note": 59,
        "velocity": 100,
        "channel": 1
      },
      {
        "type": "note_on",
        "time": 0,
        "note": 52,
        "velocity": 100,
        "channel": 1
      },
      {
        "type": "note_on",
        "time": 30,
        "note": 52,
        "velocity": 0,
        "channel": 1
      },
      {
        "type": "note_on",
        "time": 0,
        "note": 59,
        "velocity": 0,
        "channel": 1
      },
      {
        "type": "note_on",
        "time": 0,
        "note": 59,
        "velocity": 101,
        "channel": 1
      },
      {
        "type": "note_on",
        "time": 0,
        "note": 52,
        "velocity": 101,
        "channel": 1
      },
      {
        "type": "note_on",
        "time": 30,
        "note": 52,
        "velocity": 0,
        "channel": 1
      },
      {
        "type": "note_on",
        "time": 0,
        "note": 59,
        "velocity": 0,
        "channel": 1
      },
      {
        "type": "note_on",
        "time": 0,
        "note": 59,
        "velocity": 102,
        "channel": 1
      },
      {
        "type": "note_on",
        "time": 0,
        "note": 62,
        "velocity": 102,
        "channel": 1
      },
      {
        "type": "note_on",
        "time": 45,
        "note": 62,
        "velocity": 0,
        "channel": 1
      },
      {
        "type": "note_on",
        "time": 0,
        "note": 59,
        "velocity": 0,
        "channel": 1
      },
      {
        "type": "note_on",
        "time": 15,
        "note": 59,
        "velocity": 103,
        "channel": 1
      },
      {
        "type": "note_on",
        "time": 0,
        "note": 64,
        "velocity": 103,
        "channel": 1
      },
      {
        "type": "note_on",
        "time": 45,
        "note": 64,
        "velocity": 0,
        "channel": 1
      },
      {
        "type": "note_on",
        "time": 0,
        "note": 59,
        "velocity": 0,
        "channel": 1
      },
      {
        "type": "note_on",
        "time": 15,
        "note": 59,
        "velocity": 102,
        "channel": 1
      },
      {
        "type": "note_on",
        "time": 0,
        "note": 52,
        "velocity": 102,
        "channel": 1
      },
      {
        "type": "note_on",
        "time": 30,
        "note": 52,
        "velocity": 0,
        "channel": 1
      },
      {
        "type": "note_on",
        "time": 0,
        "note": 59,
        "velocity": 0,
        "channel": 1
      },
      {
        "type": "note_on",
        "time": 0,
        "note": 59,
        "velocity": 102,
        "channel": 1
      },
      {
        "type": "note_on",
        "time": 0,
        "note": 52,
        "velocity": 102,
        "channel": 1
      },
      {
        "type": "note_on",
        "time": 30,
        "note": 52,
        "velocity": 0,
        "channel": 1
      },
      {
        "type": "note_on",
        "time": 0,
        "note": 59,
        "velocity": 0,
        "channel": 1
      },
      {
        "type": "note_on",
        "time": 0,
        "note": 59,
        "velocity": 101,
        "channel": 1
      },
      {
        "type": "note_on",
        "time": 0,
        "note": 52,
        "velocity": 101,
        "channel": 1
      },
      {
        "type": "note_on",
        "time": 30,
        "note": 52,
        "velocity": 0,
        "channel": 1
      },
      {
        "type": "note_on",
        "time": 0,
        "note": 59,
        "velocity": 0,
        "channel": 1
      },
      {
        "type": "note_on",
        "time": 0,
        "note": 59,
        "velocity": 98,
        "channel": 1
      },
      {
        "type": "note_on",
        "time": 0,
        "note": 62,
        "velocity": 98,
        "channel": 1
      },
      {
        "type": "note_on",
        "time": 0,
        "note": 52,
        "velocity": 98,
        "channel": 1
      },
      {
        "type": "note_on",
        "time": 45,
        "note": 52,
        "velocity": 0,
        "channel": 1
      },
      {
        "type": "note_on",
        "time": 0,
        "note": 62,
        "velocity": 0,
        "channel": 1
      },
      {
        "type": "note_on",
        "time": 0,
        "note": 59,
        "velocity": 0,
        "channel": 1
      },
      {
        "type": "note_on",
        "time": 15,
        "note": 59,
        "velocity": 98,
        "channel": 1
      },
      {
        "type": "note_on",
        "time": 0,
        "note": 64,
        "velocity": 98,
        "channel": 1
      },
      {
        "type": "note_on",
        "time": 0,
        "note": 52,
        "velocity": 98,
        "channel": 1
      },
      {
        "type": "note_on",
        "time": 45,
        "note": 52,
        "velocity": 0,
        "channel": 1
      },
      {
        "type": "note_on",
        "time": 0,
        "note": 64,
        "velocity": 0,
        "channel": 1
      },
      {
        "type": "note_on",
        "time": 0,
        "note": 59,
        "velocity": 0,
        "channel": 1
      },
      {
        "type": "note_on",
        "time": 15,
        "note": 59,
        "velocity": 101,
        "channel": 1
      },
      {
        "type": "note_on",
        "time": 0,
        "note": 52,
        "velocity": 101,
        "channel": 1
      },
      {
        "type": "note_on",
        "time": 30,
        "note": 52,
        "velocity": 0,
        "channel": 1
      },
      {
        "type": "note_on",
        "time": 0,
        "note": 59,
        "velocity": 0,
        "channel": 1
      },
      {
        "type": "note_on",
        "time": 0,
        "note": 59,
        "velocity": 101,
        "channel": 1
      },
      {
        "type": "note_on",
        "time": 0,
        "note": 52,
        "velocity": 101,
        "channel": 1
      },
      {
        "type": "note_on",
        "time": 30,
        "note": 52,
        "velocity": 0,
        "channel": 1
      },
      {
        "type": "note_on",
        "time": 0,
        "note": 59,
        "velocity": 0,
        "channel": 1
      },
      {
        "type": "note_on",
        "time": 0,
        "note": 59,
        "velocity": 101,
        "channel": 1
      },
      {
        "type": "note_on",
        "time": 0,
        "note": 52,
        "velocity": 101,
        "channel": 1
      },
      {
        "type": "note_on",
        "time": 30,
        "note": 52,
        "velocity": 0,
        "channel": 1
      },
      {
        "type": "note_on",
        "time": 0,
        "note": 59,
        "velocity": 0,
        "channel": 1
      },
      {
        "type": "note_on",
        "time": 0,
        "note": 57,
        "velocity": 101,
        "channel": 1
      },
      {
        "type": "note_on",
        "time": 0,
        "note": 50,
        "velocity": 101,
        "channel": 1
      },
      {
        "type": "note_on",
        "time": 30,
        "note": 50,
        "velocity": 0,
        "channel": 1
      },
      {
        "type": "note_on",
        "time": 0,
        "note": 57,
        "velocity": 0,
        "channel": 1
      },
      {
        "type": "note_on",
        "time": 0,
        "note": 57,
        "velocity": 101,
        "channel": 1
      },
      {
        "type": "note_on",
        "time": 0,
        "note": 50,
        "velocity": 101,
        "channel": 1
      },
      {
        "type": "note_on",
        "time": 30,
        "note": 50,
        "velocity": 0,
        "channel": 1
      },
      {
        "type": "note_on",
        "time": 0,
        "note": 57,
        "velocity": 0,
        "channel": 1
      },
      {
        "type": "note_on",
        "time": 0,
        "note": 57,
        "velocity": 101,
        "channel": 1
      },
      {
        "type": "note_on",
        "time": 0,
        "note": 62,
        "velocity": 101,
        "channel": 1
      },
      {
        "type": "note_on",
        "time": 45,
        "note": 62,
        "velocity": 0,
        "channel": 1
      },
      {
        "type": "note_on",
        "time": 0,
        "note": 57,
        "velocity": 0,
        "channel": 1
      },
      {
        "type": "note_on",
        "time": 15,
        "note": 62,
        "velocity": 101,
        "channel": 1
      },
      {
        "type": "note_on",
        "time": 0,
        "note": 64,
        "velocity": 100,
        "channel": 1
      },
      {
        "type": "note_on",
        "time": 45,
        "note": 64,
        "velocity": 0,
        "channel": 1
      },
      {
        "type": "note_on",
        "time": 0,
        "note": 62,
        "velocity": 0,
        "channel": 1
      },
      {
        "type": "note_on",
        "time": 15,
        "note": 57,
        "velocity": 100,
        "channel": 1
      },
      {
        "type": "note_on",
        "time": 0,
        "note": 50,
        "velocity": 100,
        "channel": 1
      },
      {
        "type": "note_on",
        "time": 30,
        "note": 50,
        "velocity": 0,
        "channel": 1
      },
      {
        "type": "note_on",
        "time": 0,
        "note": 57,
        "velocity": 0,
        "channel": 1
      },
      {
        "type": "note_on",
        "time": 0,
        "note": 57,
        "velocity": 100,
        "channel": 1
      },
      {
        "type": "note_on",
        "time": 0,
        "note": 50,
        "velocity": 100,
        "channel": 1
      },
      {
        "type": "note_on",
        "time": 30,
        "note": 50,
        "velocity": 0,
        "channel": 1
      },
      {
        "type": "note_on",
        "time": 0,
        "note": 57,
        "velocity": 0,
        "channel": 1
      },
      {
        "type": "note_on",
        "time": 0,
        "note": 57,
        "velocity": 100,
        "channel": 1
      },
      {
        "type": "note_on",
        "time": 0,
        "note": 50,
        "velocity": 100,
        "channel": 1
      },
      {
        "type": "note_on",
        "time": 30,
        "note": 50,
        "velocity": 0,
        "channel": 1
      },
      {
        "type": "note_on",
        "time": 0,
        "note": 57,
        "velocity": 0,
        "channel": 1
      },
      {
        "type": "note_on",
        "time": 0,
        "note": 57,
        "velocity": 101,
        "channel": 1
      },
      {
        "type": "note_on",
        "time": 0,
        "note": 62,
        "velocity": 100,
        "channel": 1
      },
      {
        "type": "note_on",
        "time": 45,
        "note": 62,
        "velocity": 0,
        "channel": 1
      },
      {
        "type": "note_on",
        "time": 0,
        "note": 57,
        "velocity": 0,
        "channel": 1
      },
      {
        "type": "note_on",
        "time": 15,
        "note": 62,
        "velocity": 101,
        "channel": 1
      },
      {
        "type": "note_on",
        "time": 0,
        "note": 64,
        "velocity": 100,
        "channel": 1
      },
      {
        "type": "note_on",
        "time": 45,
        "note": 64,
        "velocity": 0,
        "channel": 1
      },
      {
        "type": "note_on",
        "time": 0,
        "note": 62,
        "velocity": 0,
        "channel": 1
      },
      {
        "type": "note_on",
        "time": 15,
        "note": 57,
        "velocity": 100,
        "channel": 1
      },
      {
        "type": "note_on",
        "time": 0,
        "note": 50,
        "velocity": 100,
        "channel": 1
      },
      {
        "type": "note_on",
        "time": 30,
        "note": 50,
        "velocity": 0,
        "channel": 1
      },
      {
        "type": "note_on",
        "time": 0,
        "note": 57,
        "velocity": 0,
        "channel": 1
      },
      {
        "type": "note_on",
        "time": 0,
        "note": 57,
        "velocity": 100,
        "channel": 1
      },
      {
        "type": "note_on",
        "time": 0,
        "note": 50,
        "velocity": 100,
        "channel": 1
      },
      {
        "type": "note_on",
        "time": 30,
        "note": 50,
        "velocity": 0,
        "channel": 1
      },
      {
        "type": "note_on",
        "time": 0,
        "note": 57,
        "velocity": 0,
        "channel": 1
      },
      {
        "type": "note_on",
        "time": 0,
        "note": 57,
        "velocity": 100,
        "channel": 1
      },
      {
        "type": "note_on",
        "time": 0,
        "note": 50,
        "velocity": 100,
        "channel": 1
      },
      {
        "type": "note_on",
        "time": 30,
        "note": 50,
        "velocity": 0,
        "channel": 1
      },
      {
        "type": "note_on",
        "time": 0,
        "note": 57,
        "velocity": 0,
        "channel": 1
      },
      {
        "type": "note_on",
        "time": 0,
        "note": 54,
        "velocity": 100,
        "channel": 1
      },
      {
        "type": "note_on",
        "time": 0,
        "note": 47,
        "velocity": 100,
        "channel": 1
      },
      {
        "type": "note_on",
        "time": 30,
        "note": 47,
        "velocity": 0,
        "channel": 1
      },
      {
        "type": "note_on",
        "time": 0,
        "note": 54,
        "velocity": 0,
        "channel": 1
      },
      {
        "type": "note_on",
        "time": 0,
        "note": 54,
        "velocity": 100,
        "channel": 1
      },
      {
        "type": "note_on",
        "time": 0,
        "note": 47,
        "velocity": 100,
        "channel": 1
      },
      {
        "type": "note_on",
        "time": 30,
        "note": 47,
        "velocity": 0,
        "channel": 1
      },
      {
        "type": "note_on",
        "time": 0,
        "note": 54,
        "velocity": 0,
        "channel": 1
      },
      {
        "type": "note_on",
        "time": 0,
        "note": 62,
        "velocity": 101,
        "channel": 1
      },
      {
        "type": "note_on",
        "time": 0,
        "note": 54,
        "velocity": 101,
        "channel": 1
      },
      {
        "type": "note_on",
        "time": 45,
        "note": 54,
        "velocity": 0,
        "channel": 1
      },
      {
        "type": "note_on",
        "time": 0,
        "note": 62,
        "velocity": 0,
        "channel": 1
      },
      {
        "type": "note_on",
        "time": 15,
        "note": 59,
        "velocity": 101,
        "channel": 1
      },
      {
        "type": "note_on",
        "time": 0,
        "note": 64,
        "velocity": 101,
        "channel": 1
      },
      {
        "type": "note_on",
        "time": 45,
        "note": 64,
        "velocity": 0,
        "channel": 1
      },
      {
        "type": "note_on",
        "time": 0,
        "note": 59,
        "velocity": 0,
        "channel": 1
      },
      {
        "type": "note_on",
        "time": 15,
        "note": 54,
        "velocity": 101,
        "channel": 1
      },
      {
        "type": "note_on",
        "time": 0,
        "note": 47,
        "velocity": 101,
        "channel": 1
      },
      {
        "type": "note_on",
        "time": 30,
        "note": 47,
        "velocity": 0,
        "channel": 1
      },
      {
        "type": "note_on",
        "time": 0,
        "note": 54,
        "velocity": 0,
        "channel": 1
      },
      {
        "type": "note_on",
        "time": 0,
        "note": 54,
        "velocity": 102,
        "channel": 1
      },
      {
        "type": "note_on",
        "time": 0,
        "note": 47,
        "velocity": 102,
        "channel": 1
      },
      {
        "type": "note_on",
        "time": 30,
        "note": 47,
        "velocity": 0,
        "channel": 1
      },
      {
        "type": "note_on",
        "time": 0,
        "note": 54,
        "velocity": 0,
        "channel": 1
      },
      {
        "type": "note_on",
        "time": 0,
        "note": 47,
        "velocity": 103,
        "channel": 1
      },
      {
        "type": "note_on",
        "time": 0,
        "note": 54,
        "velocity": 103,
        "channel": 1
      },
      {
        "type": "note_on",
        "time": 30,
        "note": 54,
        "velocity": 0,
        "channel": 1
      },
      {
        "type": "note_on",
        "time": 0,
        "note": 47,
        "velocity": 0,
        "channel": 1
      },
      {
        "type": "note_on",
        "time": 0,
        "note": 54,
        "velocity": 101,
        "channel": 1
      },
      {
        "type": "note_on",
        "time": 0,
        "note": 62,
        "velocity": 104,
        "channel": 1
      },
      {
        "type": "note_on",
        "time": 45,
        "note": 62,
        "velocity": 0,
        "channel": 1
      },
      {
        "type": "note_on",
        "time": 0,
        "note": 54,
        "velocity": 0,
        "channel": 1
      },
      {
        "type": "note_on",
        "time": 15,
        "note": 59,
        "velocity": 101,
        "channel": 1
      },
      {
        "type": "note_on",
        "time": 0,
        "note": 64,
        "velocity": 105,
        "channel": 1
      },
      {
        "type": "note_on",
        "time": 45,
        "note": 64,
        "velocity": 0,
        "channel": 1
      },
      {
        "type": "note_on",
        "time": 0,
        "note": 59,
        "velocity": 0,
        "channel": 1
      },
      {
        "type": "note_on",
        "time": 15,
        "note": 47,
        "velocity": 105,
        "channel": 1
      },
      {
        "type": "note_on",
        "time": 0,
        "note": 54,
        "velocity": 105,
        "channel": 1
      },
      {
        "type": "note_on",
        "time": 30,
        "note": 54,
        "velocity": 0,
        "channel": 1
      },
      {
        "type": "note_on",
        "time": 0,
        "note": 47,
        "velocity": 0,
        "channel": 1
      },
      {
        "type": "note_on",
        "time": 0,
        "note": 54,
        "velocity": 99,
        "channel": 1
      },
      {
        "type": "note_on",
        "time": 0,
        "note": 47,
        "velocity": 99,
        "channel": 1
      },
      {
        "type": "note_on",
        "time": 30,
        "note": 47,
        "velocity": 0,
        "channel": 1
      },
      {
        "type": "note_on",
        "time": 0,
        "note": 54,
        "velocity": 0,
        "channel": 1
      },
      {
        "type": "note_on",
        "time": 0,
        "note": 54,
        "velocity": 99,
        "channel": 1
      },
      {
        "type": "note_on",
        "time": 0,
        "note": 47,
        "velocity": 99,
        "channel": 1
      },
      {
        "type": "note_on",
        "time": 30,
        "note": 47,
        "velocity": 0,
        "channel": 1
      },
      {
        "type": "note_on",
        "time": 0,
        "note": 54,
        "velocity": 0,
        "channel": 1
      },
      {
        "type": "note_on",
        "time": 0,
        "note": 55,
        "velocity": 92,
        "channel": 1
      },
      {
        "type": "note_on",
        "time": 0,
        "note": 48,
        "velocity": 92,
        "channel": 1
      },
      {
        "type": "note_on",
        "time": 30,
        "note": 48,
        "velocity": 0,
        "channel": 1
      },
      {
        "type": "note_on",
        "time": 0,
        "note": 55,
        "velocity": 0,
        "channel": 1
      },
      {
        "type": "note_on",
        "time": 0,
        "note": 55,
        "velocity": 92,
        "channel": 1
      },
      {
        "type": "note_on",
        "time": 0,
        "note": 48,
        "velocity": 92,
        "channel": 1
      },
      {
        "type": "note_on",
        "time": 30,
        "note": 48,
        "velocity": 0,
        "channel": 1
      },
      {
        "type": "note_on",
        "time": 0,
        "note": 55,
        "velocity": 0,
        "channel": 1
      },
      {
        "type": "note_on",
        "time": 0,
        "note": 55,
        "velocity": 90,
        "channel": 1
      },
      {
        "type": "note_on",
        "time": 0,
        "note": 62,
        "velocity": 90,
        "channel": 1
      },
      {
        "type": "note_on",
        "time": 45,
        "note": 62,
        "velocity": 0,
        "channel": 1
      },
      {
        "type": "note_on",
        "time": 0,
        "note": 55,
        "velocity": 0,
        "channel": 1
      },
      {
        "type": "note_on",
        "time": 15,
        "note": 60,
        "velocity": 86,
        "channel": 1
      },
      {
        "type": "note_on",
        "time": 0,
        "note": 64,
        "velocity": 86,
        "channel": 1
      },
      {
        "type": "note_on",
        "time": 45,
        "note": 64,
        "velocity": 0,
        "channel": 1
      },
      {
        "type": "note_on",
        "time": 0,
        "note": 60,
        "velocity": 0,
        "channel": 1
      },
      {
        "type": "note_on",
        "time": 15,
        "note": 55,
        "velocity": 84,
        "channel": 1
      },
      {
        "type": "note_on",
        "time": 0,
        "note": 48,
        "velocity": 84,
        "channel": 1
      },
      {
        "type": "note_on",
        "time": 30,
        "note": 48,
        "velocity": 0,
        "channel": 1
      },
      {
        "type": "note_on",
        "time": 0,
        "note": 55,
        "velocity": 0,
        "channel": 1
      },
      {
        "type": "note_on",
        "time": 0,
        "note": 55,
        "velocity": 83,
        "channel": 1
      },
      {
        "type": "note_on",
        "time": 0,
        "note": 48,
        "velocity": 83,
        "channel": 1
      },
      {
        "type": "note_on",
        "time": 30,
        "note": 48,
        "velocity": 0,
        "channel": 1
      },
      {
        "type": "note_on",
        "time": 0,
        "note": 55,
        "velocity": 0,
        "channel": 1
      },
      {
        "type": "note_on",
        "time": 0,
        "note": 55,
        "velocity": 83,
        "channel": 1
      },
      {
        "type": "note_on",
        "time": 0,
        "note": 48,
        "velocity": 83,
        "channel": 1
      },
      {
        "type": "note_on",
        "time": 30,
        "note": 48,
        "velocity": 0,
        "channel": 1
      },
      {
        "type": "note_on",
        "time": 0,
        "note": 55,
        "velocity": 0,
        "channel": 1
      },
      {
        "type": "note_on",
        "time": 0,
        "note": 55,
        "velocity": 82,
        "channel": 1
      },
      {
        "type": "note_on",
        "time": 0,
        "note": 62,
        "velocity": 82,
        "channel": 1
      },
      {
        "type": "note_on",
        "time": 45,
        "note": 62,
        "velocity": 0,
        "channel": 1
      },
      {
        "type": "note_on",
        "time": 0,
        "note": 55,
        "velocity": 0,
        "channel": 1
      },
      {
        "type": "note_on",
        "time": 15,
        "note": 60,
        "velocity": 78,
        "channel": 1
      },
      {
        "type": "note_on",
        "time": 0,
        "note": 64,
        "velocity": 78,
        "channel": 1
      },
      {
        "type": "note_on",
        "time": 45,
        "note": 64,
        "velocity": 0,
        "channel": 1
      },
      {
        "type": "note_on",
        "time": 0,
        "note": 60,
        "velocity": 0,
        "channel": 1
      },
      {
        "type": "note_on",
        "time": 15,
        "note": 55,
        "velocity": 60,
        "channel": 1
      },
      {
        "type": "note_on",
        "time": 0,
        "note": 48,
        "velocity": 60,
        "channel": 1
      },
      {
        "type": "note_on",
        "time": 30,
        "note": 48,
        "velocity": 0,
        "channel": 1
      },
      {
        "type": "note_on",
        "time": 0,
        "note": 55,
        "velocity": 0,
        "channel": 1
      },
      {
        "type": "note_on",
        "time": 0,
        "note": 55,
        "velocity": 59,
        "channel": 1
      },
      {
        "type": "note_on",
        "time": 0,
        "note": 48,
        "velocity": 59,
        "channel": 1
      },
      {
        "type": "note_on",
        "time": 30,
        "note": 48,
        "velocity": 0,
        "channel": 1
      },
      {
        "type": "note_on",
        "time": 0,
        "note": 55,
        "velocity": 0,
        "channel": 1
      },
      {
        "type": "note_on",
        "time": 0,
        "note": 55,
        "velocity": 60,
        "channel": 1
      },
      {
        "type": "note_on",
        "time": 0,
        "note": 48,
        "velocity": 60,
        "channel": 1
      },
      {
        "type": "note_on",
        "time": 30,
        "note": 48,
        "velocity": 0,
        "channel": 1
      },
      {
        "type": "note_on",
        "time": 0,
        "note": 55,
        "velocity": 0,
        "channel": 1
      },
      {
        "type": "end_of_track",
        "time": 0
      }
    ],
    [
      {
        "type": "midi_port",
        "port": 0,
        "time": 0
      },
      {
        "type": "track_name",
        "name": "bass",
        "time": 0
      },
      {
        "type": "program_change",
        "time": 0,
        "program": 33,
        "channel": 2
      },
      {
        "type": "control_change",
        "time": 0,
        "control": 7,
        "value": 90,
        "channel": 2
      },
      {
        "type": "control_change",
        "time": 0,
        "control": 10,
        "value": 64,
        "channel": 2
      },
      {
        "type": "note_on",
        "time": 480,
        "note": 52,
        "velocity": 100,
        "channel": 2
      },
      {
        "type": "note_on",
        "time": 30,
        "note": 52,
        "velocity": 0,
        "channel": 2
      },
      {
        "type": "note_on",
        "time": 0,
        "note": 52,
        "velocity": 100,
        "channel": 2
      },
      {
        "type": "note_on",
        "time": 30,
        "note": 52,
        "velocity": 0,
        "channel": 2
      },
      {
        "type": "note_on",
        "time": 0,
        "note": 52,
        "velocity": 100,
        "channel": 2
      },
      {
        "type": "note_on",
        "time": 30,
        "note": 52,
        "velocity": 0,
        "channel": 2
      },
      {
        "type": "note_on",
        "time": 0,
        "note": 52,
        "velocity": 100,
        "channel": 2
      },
      {
        "type": "note_on",
        "time": 30,
        "note": 52,
        "velocity": 0,
        "channel": 2
      },
      {
        "type": "note_on",
        "time": 0,
        "note": 52,
        "velocity": 100,
        "channel": 2
      },
      {
        "type": "note_on",
        "time": 30,
        "note": 52,
        "velocity": 0,
        "channel": 2
      },
      {
        "type": "note_on",
        "time": 0,
        "note": 52,
        "velocity": 100,
        "channel": 2
      },
      {
        "type": "note_on",
        "time": 30,
        "note": 52,
        "velocity": 0,
        "channel": 2
      },
      {
        "type": "note_on",
        "time": 0,
        "note": 52,
        "velocity": 100,
        "channel": 2
      },
      {
        "type": "note_on",
        "time": 30,
        "note": 52,
        "velocity": 0,
        "channel": 2
      },
      {
        "type": "note_on",
        "time": 0,
        "note": 52,
        "velocity": 100,
        "channel": 2
      },
      {
        "type": "note_on",
        "time": 30,
        "note": 52,
        "velocity": 0,
        "channel": 2
      },
      {
        "type": "note_on",
        "time": 0,
        "note": 52,
        "velocity": 100,
        "channel": 2
      },
      {
        "type": "note_on",
        "time": 30,
        "note": 52,
        "velocity": 0,
        "channel": 2
      },
      {
        "type": "note_on",
        "time": 0,
        "note": 52,
        "velocity": 100,
        "channel": 2
      },
      {
        "type": "note_on",
        "time": 30,
        "note": 52,
        "velocity": 0,
        "channel": 2
      },
      {
        "type": "note_on",
        "time": 0,
        "note": 52,
        "velocity": 100,
        "channel": 2
      },
      {
        "type": "note_on",
        "time": 30,
        "note": 52,
        "velocity": 0,
        "channel": 2
      },
      {
        "type": "note_on",
        "time": 0,
        "note": 52,
        "velocity": 100,
        "channel": 2
      },
      {
        "type": "note_on",
        "time": 30,
        "note": 52,
        "velocity": 0,
        "channel": 2
      },
      {
        "type": "note_on",
        "time": 0,
        "note": 52,
        "velocity": 100,
        "channel": 2
      },
      {
        "type": "note_on",
        "time": 30,
        "note": 52,
        "velocity": 0,
        "channel": 2
      },
      {
        "type": "note_on",
        "time": 0,
        "note": 52,
        "velocity": 100,
        "channel": 2
      },
      {
        "type": "note_on",
        "time": 30,
        "note": 52,
        "velocity": 0,
        "channel": 2
      },
      {
        "type": "note_on",
        "time": 0,
        "note": 52,
        "velocity": 100,
        "channel": 2
      },
      {
        "type": "note_on",
        "time": 30,
        "note": 52,
        "velocity": 0,
        "channel": 2
      },
      {
        "type": "note_on",
        "time": 0,
        "note": 52,
        "velocity": 100,
        "channel": 2
      },
      {
        "type": "note_on",
        "time": 30,
        "note": 52,
        "velocity": 0,
        "channel": 2
      },
      {
        "type": "note_on",
        "time": 0,
        "note": 52,
        "velocity": 100,
        "channel": 2
      },
      {
        "type": "note_on",
        "time": 30,
        "note": 52,
        "velocity": 0,
        "channel": 2
      },
      {
        "type": "note_on",
        "time": 0,
        "note": 52,
        "velocity": 100,
        "channel": 2
      },
      {
        "type": "note_on",
        "time": 30,
        "note": 52,
        "velocity": 0,
        "channel": 2
      },
      {
        "type": "note_on",
        "time": 0,
        "note": 52,
        "velocity": 100,
        "channel": 2
      },
      {
        "type": "note_on",
        "time": 30,
        "note": 52,
        "velocity": 0,
        "channel": 2
      },
      {
        "type": "note_on",
        "time": 0,
        "note": 52,
        "velocity": 100,
        "channel": 2
      },
      {
        "type": "note_on",
        "time": 30,
        "note": 52,
        "velocity": 0,
        "channel": 2
      },
      {
        "type": "note_on",
        "time": 0,
        "note": 52,
        "velocity": 100,
        "channel": 2
      },
      {
        "type": "note_on",
        "time": 30,
        "note": 52,
        "velocity": 0,
        "channel": 2
      },
      {
        "type": "note_on",
        "time": 0,
        "note": 52,
        "velocity": 100,
        "channel": 2
      },
      {
        "type": "note_on",
        "time": 30,
        "note": 52,
        "velocity": 0,
        "channel": 2
      },
      {
        "type": "note_on",
        "time": 0,
        "note": 52,
        "velocity": 100,
        "channel": 2
      },
      {
        "type": "note_on",
        "time": 30,
        "note": 52,
        "velocity": 0,
        "channel": 2
      },
      {
        "type": "note_on",
        "time": 0,
        "note": 52,
        "velocity": 100,
        "channel": 2
      },
      {
        "type": "note_on",
        "time": 30,
        "note": 52,
        "velocity": 0,
        "channel": 2
      },
      {
        "type": "note_on",
        "time": 0,
        "note": 52,
        "velocity": 100,
        "channel": 2
      },
      {
        "type": "note_on",
        "time": 30,
        "note": 52,
        "velocity": 0,
        "channel": 2
      },
      {
        "type": "note_on",
        "time": 0,
        "note": 52,
        "velocity": 100,
        "channel": 2
      },
      {
        "type": "note_on",
        "time": 30,
        "note": 52,
        "velocity": 0,
        "channel": 2
      },
      {
        "type": "note_on",
        "time": 0,
        "note": 52,
        "velocity": 100,
        "channel": 2
      },
      {
        "type": "note_on",
        "time": 30,
        "note": 52,
        "velocity": 0,
        "channel": 2
      },
      {
        "type": "note_on",
        "time": 0,
        "note": 52,
        "velocity": 100,
        "channel": 2
      },
      {
        "type": "note_on",
        "time": 30,
        "note": 52,
        "velocity": 0,
        "channel": 2
      },
      {
        "type": "note_on",
        "time": 0,
        "note": 52,
        "velocity": 100,
        "channel": 2
      },
      {
        "type": "note_on",
        "time": 30,
        "note": 52,
        "velocity": 0,
        "channel": 2
      },
      {
        "type": "note_on",
        "time": 0,
        "note": 52,
        "velocity": 100,
        "channel": 2
      },
      {
        "type": "note_on",
        "time": 30,
        "note": 52,
        "velocity": 0,
        "channel": 2
      },
      {
        "type": "note_on",
        "time": 0,
        "note": 52,
        "velocity": 100,
        "channel": 2
      },
      {
        "type": "note_on",
        "time": 30,
        "note": 52,
        "velocity": 0,
        "channel": 2
      },
      {
        "type": "note_on",
        "time": 0,
        "note": 52,
        "velocity": 100,
        "channel": 2
      },
      {
        "type": "note_on",
        "time": 30,
        "note": 52,
        "velocity": 0,
        "channel": 2
      },
      {
        "type": "note_on",
        "time": 0,
        "note": 52,
        "velocity": 100,
        "channel": 2
      },
      {
        "type": "note_on",
        "time": 30,
        "note": 52,
        "velocity": 0,
        "channel": 2
      },
      {
        "type": "note_on",
        "time": 0,
        "note": 52,
        "velocity": 100,
        "channel": 2
      },
      {
        "type": "note_on",
        "time": 30,
        "note": 52,
        "velocity": 0,
        "channel": 2
      },
      {
        "type": "note_on",
        "time": 0,
        "note": 52,
        "velocity": 100,
        "channel": 2
      },
      {
        "type": "note_on",
        "time": 30,
        "note": 52,
        "velocity": 0,
        "channel": 2
      },
      {
        "type": "note_on",
        "time": 0,
        "note": 52,
        "velocity": 100,
        "channel": 2
      },
      {
        "type": "note_on",
        "time": 30,
        "note": 52,
        "velocity": 0,
        "channel": 2
      },
      {
        "type": "note_on",
        "time": 0,
        "note": 52,
        "velocity": 100,
        "channel": 2
      },
      {
        "type": "note_on",
        "time": 30,
        "note": 52,
        "velocity": 0,
        "channel": 2
      },
      {
        "type": "note_on",
        "time": 0,
        "note": 52,
        "velocity": 100,
        "channel": 2
      },
      {
        "type": "note_on",
        "time": 30,
        "note": 52,
        "velocity": 0,
        "channel": 2
      },
      {
        "type": "note_on",
        "time": 0,
        "note": 52,
        "velocity": 100,
        "channel": 2
      },
      {
        "type": "note_on",
        "time": 30,
        "note": 52,
        "velocity": 0,
        "channel": 2
      },
      {
        "type": "note_on",
        "time": 0,
        "note": 52,
        "velocity": 100,
        "channel": 2
      },
      {
        "type": "note_on",
        "time": 30,
        "note": 52,
        "velocity": 0,
        "channel": 2
      },
      {
        "type": "note_on",
        "time": 0,
        "note": 52,
        "velocity": 100,
        "channel": 2
      },
      {
        "type": "note_on",
        "time": 30,
        "note": 52,
        "velocity": 0,
        "channel": 2
      },
      {
        "type": "note_on",
        "time": 0,
        "note": 52,
        "velocity": 100,
        "channel": 2
      },
      {
        "type": "note_on",
        "time": 30,
        "note": 52,
        "velocity": 0,
        "channel": 2
      },
      {
        "type": "note_on",
        "time": 0,
        "note": 52,
        "velocity": 100,
        "channel": 2
      },
      {
        "type": "note_on",
        "time": 30,
        "note": 52,
        "velocity": 0,
        "channel": 2
      },
      {
        "type": "note_on",
        "time": 0,
        "note": 52,
        "velocity": 100,
        "channel": 2
      },
      {
        "type": "note_on",
        "time": 30,
        "note": 52,
        "velocity": 0,
        "channel": 2
      },
      {
        "type": "note_on",
        "time": 0,
        "note": 52,
        "velocity": 100,
        "channel": 2
      },
      {
        "type": "note_on",
        "time": 30,
        "note": 52,
        "velocity": 0,
        "channel": 2
      },
      {
        "type": "note_on",
        "time": 0,
        "note": 52,
        "velocity": 100,
        "channel": 2
      },
      {
        "type": "note_on",
        "time": 30,
        "note": 52,
        "velocity": 0,
        "channel": 2
      },
      {
        "type": "note_on",
        "time": 0,
        "note": 52,
        "velocity": 100,
        "channel": 2
      },
      {
        "type": "note_on",
        "time": 30,
        "note": 52,
        "velocity": 0,
        "channel": 2
      },
      {
        "type": "note_on",
        "time": 0,
        "note": 52,
        "velocity": 100,
        "channel": 2
      },
      {
        "type": "note_on",
        "time": 30,
        "note": 52,
        "velocity": 0,
        "channel": 2
      },
      {
        "type": "note_on",
        "time": 0,
        "note": 52,
        "velocity": 100,
        "channel": 2
      },
      {
        "type": "note_on",
        "time": 30,
        "note": 52,
        "velocity": 0,
        "channel": 2
      },
      {
        "type": "note_on",
        "time": 0,
        "note": 52,
        "velocity": 100,
        "channel": 2
      },
      {
        "type": "note_on",
        "time": 30,
        "note": 52,
        "velocity": 0,
        "channel": 2
      },
      {
        "type": "note_on",
        "time": 0,
        "note": 52,
        "velocity": 100,
        "channel": 2
      },
      {
        "type": "note_on",
        "time": 30,
        "note": 52,
        "velocity": 0,
        "channel": 2
      },
      {
        "type": "note_on",
        "time": 0,
        "note": 52,
        "velocity": 100,
        "channel": 2
      },
      {
        "type": "note_on",
        "time": 30,
        "note": 52,
        "velocity": 0,
        "channel": 2
      },
      {
        "type": "note_on",
        "time": 0,
        "note": 52,
        "velocity": 100,
        "channel": 2
      },
      {
        "type": "note_on",
        "time": 30,
        "note": 52,
        "velocity": 0,
        "channel": 2
      },
      {
        "type": "note_on",
        "time": 0,
        "note": 52,
        "velocity": 100,
        "channel": 2
      },
      {
        "type": "note_on",
        "time": 30,
        "note": 52,
        "velocity": 0,
        "channel": 2
      },
      {
        "type": "note_on",
        "time": 0,
        "note": 52,
        "velocity": 100,
        "channel": 2
      },
      {
        "type": "note_on",
        "time": 30,
        "note": 52,
        "velocity": 0,
        "channel": 2
      },
      {
        "type": "note_on",
        "time": 0,
        "note": 52,
        "velocity": 100,
        "channel": 2
      },
      {
        "type": "note_on",
        "time": 30,
        "note": 52,
        "velocity": 0,
        "channel": 2
      },
      {
        "type": "note_on",
        "time": 0,
        "note": 52,
        "velocity": 100,
        "channel": 2
      },
      {
        "type": "note_on",
        "time": 30,
        "note": 52,
        "velocity": 0,
        "channel": 2
      },
      {
        "type": "note_on",
        "time": 0,
        "note": 52,
        "velocity": 100,
        "channel": 2
      },
      {
        "type": "note_on",
        "time": 30,
        "note": 52,
        "velocity": 0,
        "channel": 2
      },
      {
        "type": "note_on",
        "time": 0,
        "note": 52,
        "velocity": 100,
        "channel": 2
      },
      {
        "type": "note_on",
        "time": 30,
        "note": 52,
        "velocity": 0,
        "channel": 2
      },
      {
        "type": "note_on",
        "time": 0,
        "note": 52,
        "velocity": 100,
        "channel": 2
      },
      {
        "type": "note_on",
        "time": 30,
        "note": 52,
        "velocity": 0,
        "channel": 2
      },
      {
        "type": "note_on",
        "time": 0,
        "note": 52,
        "velocity": 100,
        "channel": 2
      },
      {
        "type": "note_on",
        "time": 30,
        "note": 52,
        "velocity": 0,
        "channel": 2
      },
      {
        "type": "note_on",
        "time": 0,
        "note": 52,
        "velocity": 100,
        "channel": 2
      },
      {
        "type": "note_on",
        "time": 30,
        "note": 52,
        "velocity": 0,
        "channel": 2
      },
      {
        "type": "note_on",
        "time": 0,
        "note": 52,
        "velocity": 100,
        "channel": 2
      },
      {
        "type": "note_on",
        "time": 30,
        "note": 52,
        "velocity": 0,
        "channel": 2
      },
      {
        "type": "note_on",
        "time": 0,
        "note": 52,
        "velocity": 100,
        "channel": 2
      },
      {
        "type": "note_on",
        "time": 30,
        "note": 52,
        "velocity": 0,
        "channel": 2
      },
      {
        "type": "note_on",
        "time": 0,
        "note": 52,
        "velocity": 100,
        "channel": 2
      },
      {
        "type": "note_on",
        "time": 30,
        "note": 52,
        "velocity": 0,
        "channel": 2
      },
      {
        "type": "note_on",
        "time": 0,
        "note": 52,
        "velocity": 100,
        "channel": 2
      },
      {
        "type": "note_on",
        "time": 30,
        "note": 52,
        "velocity": 0,
        "channel": 2
      },
      {
        "type": "note_on",
        "time": 0,
        "note": 52,
        "velocity": 100,
        "channel": 2
      },
      {
        "type": "note_on",
        "time": 30,
        "note": 52,
        "velocity": 0,
        "channel": 2
      },
      {
        "type": "note_on",
        "time": 0,
        "note": 52,
        "velocity": 100,
        "channel": 2
      },
      {
        "type": "note_on",
        "time": 30,
        "note": 52,
        "velocity": 0,
        "channel": 2
      },
      {
        "type": "note_on",
        "time": 0,
        "note": 52,
        "velocity": 100,
        "channel": 2
      },
      {
        "type": "note_on",
        "time": 30,
        "note": 52,
        "velocity": 0,
        "channel": 2
      },
      {
        "type": "note_on",
        "time": 0,
        "note": 52,
        "velocity": 100,
        "channel": 2
      },
      {
        "type": "note_on",
        "time": 30,
        "note": 52,
        "velocity": 0,
        "channel": 2
      },
      {
        "type": "note_on",
        "time": 0,
        "note": 52,
        "velocity": 100,
        "channel": 2
      },
      {
        "type": "note_on",
        "time": 30,
        "note": 52,
        "velocity": 0,
        "channel": 2
      },
      {
        "type": "note_on",
        "time": 0,
        "note": 52,
        "velocity": 100,
        "channel": 2
      },
      {
        "type": "note_on",
        "time": 30,
        "note": 52,
        "velocity": 0,
        "channel": 2
      },
      {
        "type": "note_on",
        "time": 0,
        "note": 52,
        "velocity": 100,
        "channel": 2
      },
      {
        "type": "note_on",
        "time": 30,
        "note": 52,
        "velocity": 0,
        "channel": 2
      },
      {
        "type": "note_on",
        "time": 0,
        "note": 52,
        "velocity": 100,
        "channel": 2
      },
      {
        "type": "note_on",
        "time": 30,
        "note": 52,
        "velocity": 0,
        "channel": 2
      },
      {
        "type": "note_on",
        "time": 0,
        "note": 52,
        "velocity": 100,
        "channel": 2
      },
      {
        "type": "note_on",
        "time": 30,
        "note": 52,
        "velocity": 0,
        "channel": 2
      },
      {
        "type": "note_on",
        "time": 0,
        "note": 52,
        "velocity": 100,
        "channel": 2
      },
      {
        "type": "note_on",
        "time": 30,
        "note": 52,
        "velocity": 0,
        "channel": 2
      },
      {
        "type": "note_on",
        "time": 0,
        "note": 52,
        "velocity": 100,
        "channel": 2
      },
      {
        "type": "note_on",
        "time": 30,
        "note": 52,
        "velocity": 0,
        "channel": 2
      },
      {
        "type": "note_on",
        "time": 0,
        "note": 52,
        "velocity": 100,
        "channel": 2
      },
      {
        "type": "note_on",
        "time": 30,
        "note": 52,
        "velocity": 0,
        "channel": 2
      },
      {
        "type": "note_on",
        "time": 0,
        "note": 52,
        "velocity": 100,
        "channel": 2
      },
      {
        "type": "note_on",
        "time": 30,
        "note": 52,
        "velocity": 0,
        "channel": 2
      },
      {
        "type": "note_on",
        "time": 0,
        "note": 52,
        "velocity": 100,
        "channel": 2
      },
      {
        "type": "note_on",
        "time": 30,
        "note": 52,
        "velocity": 0,
        "channel": 2
      },
      {
        "type": "note_on",
        "time": 0,
        "note": 52,
        "velocity": 100,
        "channel": 2
      },
      {
        "type": "note_on",
        "time": 30,
        "note": 52,
        "velocity": 0,
        "channel": 2
      },
      {
        "type": "note_on",
        "time": 0,
        "note": 52,
        "velocity": 100,
        "channel": 2
      },
      {
        "type": "note_on",
        "time": 30,
        "note": 52,
        "velocity": 0,
        "channel": 2
      },
      {
        "type": "note_on",
        "time": 0,
        "note": 52,
        "velocity": 100,
        "channel": 2
      },
      {
        "type": "note_on",
        "time": 30,
        "note": 52,
        "velocity": 0,
        "channel": 2
      },
      {
        "type": "note_on",
        "time": 0,
        "note": 52,
        "velocity": 100,
        "channel": 2
      },
      {
        "type": "note_on",
        "time": 30,
        "note": 52,
        "velocity": 0,
        "channel": 2
      },
      {
        "type": "note_on",
        "time": 0,
        "note": 52,
        "velocity": 100,
        "channel": 2
      },
      {
        "type": "note_on",
        "time": 30,
        "note": 52,
        "velocity": 0,
        "channel": 2
      },
      {
        "type": "note_on",
        "time": 0,
        "note": 52,
        "velocity": 100,
        "channel": 2
      },
      {
        "type": "note_on",
        "time": 30,
        "note": 52,
        "velocity": 0,
        "channel": 2
      },
      {
        "type": "note_on",
        "time": 0,
        "note": 52,
        "velocity": 100,
        "channel": 2
      },
      {
        "type": "note_on",
        "time": 30,
        "note": 52,
        "velocity": 0,
        "channel": 2
      },
      {
        "type": "note_on",
        "time": 0,
        "note": 52,
        "velocity": 100,
        "channel": 2
      },
      {
        "type": "note_on",
        "time": 30,
        "note": 52,
        "velocity": 0,
        "channel": 2
      },
      {
        "type": "note_on",
        "time": 0,
        "note": 52,
        "velocity": 100,
        "channel": 2
      },
      {
        "type": "note_on",
        "time": 30,
        "note": 52,
        "velocity": 0,
        "channel": 2
      },
      {
        "type": "note_on",
        "time": 0,
        "note": 52,
        "velocity": 100,
        "channel": 2
      },
      {
        "type": "note_on",
        "time": 30,
        "note": 52,
        "velocity": 0,
        "channel": 2
      },
      {
        "type": "note_on",
        "time": 0,
        "note": 52,
        "velocity": 100,
        "channel": 2
      },
      {
        "type": "note_on",
        "time": 30,
        "note": 52,
        "velocity": 0,
        "channel": 2
      },
      {
        "type": "note_on",
        "time": 0,
        "note": 52,
        "velocity": 100,
        "channel": 2
      },
      {
        "type": "note_on",
        "time": 30,
        "note": 52,
        "velocity": 0,
        "channel": 2
      },
      {
        "type": "note_on",
        "time": 0,
        "note": 52,
        "velocity": 100,
        "channel": 2
      },
      {
        "type": "note_on",
        "time": 30,
        "note": 52,
        "velocity": 0,
        "channel": 2
      },
      {
        "type": "note_on",
        "time": 0,
        "note": 52,
        "velocity": 100,
        "channel": 2
      },
      {
        "type": "note_on",
        "time": 30,
        "note": 52,
        "velocity": 0,
        "channel": 2
      },
      {
        "type": "note_on",
        "time": 0,
        "note": 52,
        "velocity": 100,
        "channel": 2
      },
      {
        "type": "note_on",
        "time": 30,
        "note": 52,
        "velocity": 0,
        "channel": 2
      },
      {
        "type": "note_on",
        "time": 0,
        "note": 52,
        "velocity": 100,
        "channel": 2
      },
      {
        "type": "note_on",
        "time": 30,
        "note": 52,
        "velocity": 0,
        "channel": 2
      },
      {
        "type": "note_on",
        "time": 0,
        "note": 52,
        "velocity": 100,
        "channel": 2
      },
      {
        "type": "note_on",
        "time": 30,
        "note": 52,
        "velocity": 0,
        "channel": 2
      },
      {
        "type": "note_on",
        "time": 0,
        "note": 52,
        "velocity": 100,
        "channel": 2
      },
      {
        "type": "note_on",
        "time": 30,
        "note": 52,
        "velocity": 0,
        "channel": 2
      },
      {
        "type": "note_on",
        "time": 0,
        "note": 52,
        "velocity": 100,
        "channel": 2
      },
      {
        "type": "note_on",
        "time": 30,
        "note": 52,
        "velocity": 0,
        "channel": 2
      },
      {
        "type": "note_on",
        "time": 0,
        "note": 52,
        "velocity": 100,
        "channel": 2
      },
      {
        "type": "note_on",
        "time": 30,
        "note": 52,
        "velocity": 0,
        "channel": 2
      },
      {
        "type": "note_on",
        "time": 0,
        "note": 52,
        "velocity": 100,
        "channel": 2
      },
      {
        "type": "note_on",
        "time": 30,
        "note": 52,
        "velocity": 0,
        "channel": 2
      },
      {
        "type": "note_on",
        "time": 0,
        "note": 52,
        "velocity": 100,
        "channel": 2
      },
      {
        "type": "note_on",
        "time": 30,
        "note": 52,
        "velocity": 0,
        "channel": 2
      },
      {
        "type": "note_on",
        "time": 0,
        "note": 52,
        "velocity": 100,
        "channel": 2
      },
      {
        "type": "note_on",
        "time": 30,
        "note": 52,
        "velocity": 0,
        "channel": 2
      },
      {
        "type": "note_on",
        "time": 0,
        "note": 52,
        "velocity": 100,
        "channel": 2
      },
      {
        "type": "note_on",
        "time": 30,
        "note": 52,
        "velocity": 0,
        "channel": 2
      },
      {
        "type": "note_on",
        "time": 0,
        "note": 52,
        "velocity": 100,
        "channel": 2
      },
      {
        "type": "note_on",
        "time": 30,
        "note": 52,
        "velocity": 0,
        "channel": 2
      },
      {
        "type": "note_on",
        "time": 0,
        "note": 52,
        "velocity": 100,
        "channel": 2
      },
      {
        "type": "note_on",
        "time": 30,
        "note": 52,
        "velocity": 0,
        "channel": 2
      },
      {
        "type": "note_on",
        "time": 0,
        "note": 52,
        "velocity": 100,
        "channel": 2
      },
      {
        "type": "note_on",
        "time": 30,
        "note": 52,
        "velocity": 0,
        "channel": 2
      },
      {
        "type": "note_on",
        "time": 0,
        "note": 52,
        "velocity": 100,
        "channel": 2
      },
      {
        "type": "note_on",
        "time": 30,
        "note": 52,
        "velocity": 0,
        "channel": 2
      },
      {
        "type": "note_on",
        "time": 0,
        "note": 52,
        "velocity": 100,
        "channel": 2
      },
      {
        "type": "note_on",
        "time": 30,
        "note": 52,
        "velocity": 0,
        "channel": 2
      },
      {
        "type": "note_on",
        "time": 0,
        "note": 52,
        "velocity": 100,
        "channel": 2
      },
      {
        "type": "note_on",
        "time": 30,
        "note": 52,
        "velocity": 0,
        "channel": 2
      },
      {
        "type": "note_on",
        "time": 0,
        "note": 52,
        "velocity": 100,
        "channel": 2
      },
      {
        "type": "note_on",
        "time": 30,
        "note": 52,
        "velocity": 0,
        "channel": 2
      },
      {
        "type": "note_on",
        "time": 0,
        "note": 52,
        "velocity": 100,
        "channel": 2
      },
      {
        "type": "note_on",
        "time": 30,
        "note": 52,
        "velocity": 0,
        "channel": 2
      },
      {
        "type": "note_on",
        "time": 0,
        "note": 52,
        "velocity": 100,
        "channel": 2
      },
      {
        "type": "note_on",
        "time": 30,
        "note": 52,
        "velocity": 0,
        "channel": 2
      },
      {
        "type": "note_on",
        "time": 0,
        "note": 52,
        "velocity": 100,
        "channel": 2
      },
      {
        "type": "note_on",
        "time": 30,
        "note": 52,
        "velocity": 0,
        "channel": 2
      },
      {
        "type": "note_on",
        "time": 0,
        "note": 52,
        "velocity": 100,
        "channel": 2
      },
      {
        "type": "note_on",
        "time": 30,
        "note": 52,
        "velocity": 0,
        "channel": 2
      },
      {
        "type": "note_on",
        "time": 0,
        "note": 52,
        "velocity": 100,
        "channel": 2
      },
      {
        "type": "note_on",
        "time": 30,
        "note": 52,
        "velocity": 0,
        "channel": 2
      },
      {
        "type": "note_on",
        "time": 0,
        "note": 52,
        "velocity": 100,
        "channel": 2
      },
      {
        "type": "note_on",
        "time": 30,
        "note": 52,
        "velocity": 0,
        "channel": 2
      },
      {
        "type": "note_on",
        "time": 0,
        "note": 52,
        "velocity": 100,
        "channel": 2
      },
      {
        "type": "note_on",
        "time": 30,
        "note": 52,
        "velocity": 0,
        "channel": 2
      },
      {
        "type": "note_on",
        "time": 0,
        "note": 52,
        "velocity": 100,
        "channel": 2
      },
      {
        "type": "note_on",
        "time": 30,
        "note": 52,
        "velocity": 0,
        "channel": 2
      },
      {
        "type": "note_on",
        "time": 0,
        "note": 52,
        "velocity": 100,
        "channel": 2
      },
      {
        "type": "note_on",
        "time": 30,
        "note": 52,
        "velocity": 0,
        "channel": 2
      },
      {
        "type": "note_on",
        "time": 0,
        "note": 52,
        "velocity": 100,
        "channel": 2
      },
      {
        "type": "note_on",
        "time": 30,
        "note": 52,
        "velocity": 0,
        "channel": 2
      },
      {
        "type": "note_on",
        "time": 0,
        "note": 52,
        "velocity": 100,
        "channel": 2
      },
      {
        "type": "note_on",
        "time": 30,
        "note": 52,
        "velocity": 0,
        "channel": 2
      },
      {
        "type": "note_on",
        "time": 0,
        "note": 52,
        "velocity": 100,
        "channel": 2
      },
      {
        "type": "note_on",
        "time": 30,
        "note": 52,
        "velocity": 0,
        "channel": 2
      },
      {
        "type": "note_on",
        "time": 0,
        "note": 52,
        "velocity": 100,
        "channel": 2
      },
      {
        "type": "note_on",
        "time": 30,
        "note": 52,
        "velocity": 0,
        "channel": 2
      },
      {
        "type": "note_on",
        "time": 0,
        "note": 52,
        "velocity": 100,
        "channel": 2
      },
      {
        "type": "note_on",
        "time": 30,
        "note": 52,
        "velocity": 0,
        "channel": 2
      },
      {
        "type": "note_on",
        "time": 0,
        "note": 52,
        "velocity": 100,
        "channel": 2
      },
      {
        "type": "note_on",
        "time": 30,
        "note": 52,
        "velocity": 0,
        "channel": 2
      },
      {
        "type": "note_on",
        "time": 0,
        "note": 52,
        "velocity": 100,
        "channel": 2
      },
      {
        "type": "note_on",
        "time": 30,
        "note": 52,
        "velocity": 0,
        "channel": 2
      },
      {
        "type": "note_on",
        "time": 0,
        "note": 52,
        "velocity": 100,
        "channel": 2
      },
      {
        "type": "note_on",
        "time": 30,
        "note": 52,
        "velocity": 0,
        "channel": 2
      },
      {
        "type": "note_on",
        "time": 0,
        "note": 40,
        "velocity": 100,
        "channel": 2
      },
      {
        "type": "note_on",
        "time": 30,
        "note": 40,
        "velocity": 0,
        "channel": 2
      },
      {
        "type": "note_on",
        "time": 3810,
        "note": 40,
        "velocity": 100,
        "channel": 2
      },
      {
        "type": "note_on",
        "time": 30,
        "note": 40,
        "velocity": 0,
        "channel": 2
      },
      {
        "type": "note_on",
        "time": 30,
        "note": 50,
        "velocity": 100,
        "channel": 2
      },
      {
        "type": "note_on",
        "time": 45,
        "note": 50,
        "velocity": 0,
        "channel": 2
      },
      {
        "type": "note_on",
        "time": 15,
        "note": 52,
        "velocity": 100,
        "channel": 2
      },
      {
        "type": "note_on",
        "time": 45,
        "note": 52,
        "velocity": 0,
        "channel": 2
      },
      {
        "type": "note_on",
        "time": 15,
        "note": 40,
        "velocity": 100,
        "channel": 2
      },
      {
        "type": "note_on",
        "time": 30,
        "note": 40,
        "velocity": 0,
        "channel": 2
      },
      {
        "type": "note_on",
        "time": 0,
        "note": 40,
        "velocity": 100,
        "channel": 2
      },
      {
        "type": "note_on",
        "time": 30,
        "note": 40,
        "velocity": 0,
        "channel": 2
      },
      {
        "type": "note_on",
        "time": 0,
        "note": 40,
        "velocity": 100,
        "channel": 2
      },
      {
        "type": "note_on",
        "time": 30,
        "note": 40,
        "velocity": 0,
        "channel": 2
      },
      {
        "type": "note_on",
        "time": 0,
        "note": 50,
        "velocity": 100,
        "channel": 2
      },
      {
        "type": "note_on",
        "time": 45,
        "note": 50,
        "velocity": 0,
        "channel": 2
      },
      {
        "type": "note_on",
        "time": 15,
        "note": 52,
        "velocity": 100,
        "channel": 2
      },
      {
        "type": "note_on",
        "time": 45,
        "note": 52,
        "velocity": 0,
        "channel": 2
      },
      {
        "type": "note_on",
        "time": 15,
        "note": 40,
        "velocity": 100,
        "channel": 2
      },
      {
        "type": "note_on",
        "time": 30,
        "note": 40,
        "velocity": 0,
        "channel": 2
      },
      {
        "type": "note_on",
        "time": 0,
        "note": 52,
        "velocity": 100,
        "channel": 2
      },
      {
        "type": "note_on",
        "time": 30,
        "note": 52,
        "velocity": 0,
        "channel": 2
      },
      {
        "type": "note_on",
        "time": 30,
        "note": 38,
        "velocity": 100,
        "channel": 2
      },
      {
        "type": "note_on",
        "time": 30,
        "note": 38,
        "velocity": 0,
        "channel": 2
      },
      {
        "type": "note_on",
        "time": 30,
        "note": 50,
        "velocity": 100,
        "channel": 2
      },
      {
        "type": "note_on",
        "time": 45,
        "note": 50,
        "velocity": 0,
        "channel": 2
      },
      {
        "type": "note_on",
        "time": 15,
        "note": 52,
        "velocity": 100,
        "channel": 2
      },
      {
        "type": "note_on",
        "time": 45,
        "note": 52,
        "velocity": 0,
        "channel": 2
      },
      {
        "type": "note_on",
        "time": 15,
        "note": 38,
        "velocity": 100,
        "channel": 2
      },
      {
        "type": "note_on",
        "time": 60,
        "note": 38,
        "velocity": 0,
        "channel": 2
      },
      {
        "type": "note_on",
        "time": 30,
        "note": 50,
        "velocity": 100,
        "channel": 2
      },
      {
        "type": "note_on",
        "time": 45,
        "note": 50,
        "velocity": 0,
        "channel": 2
      },
      {
        "type": "note_on",
        "time": 15,
        "note": 52,
        "velocity": 100,
        "channel": 2
      },
      {
        "type": "note_on",
        "time": 45,
        "note": 52,
        "velocity": 0,
        "channel": 2
      },
      {
        "type": "note_on",
        "time": 15,
        "note": 50,
        "velocity": 100,
        "channel": 2
      },
      {
        "type": "note_on",
        "time": 30,
        "note": 50,
        "velocity": 0,
        "channel": 2
      },
      {
        "type": "note_on",
        "time": 0,
        "note": 45,
        "velocity": 100,
        "channel": 2
      },
      {
        "type": "note_on",
        "time": 30,
        "note": 45,
        "velocity": 0,
        "channel": 2
      },
      {
        "type": "note_on",
        "time": 30,
        "note": 47,
        "velocity": 100,
        "channel": 2
      },
      {
        "type": "note_on",
        "time": 60,
        "note": 47,
        "velocity": 0,
        "channel": 2
      },
      {
        "type": "note_on",
        "time": 0,
        "note": 59,
        "velocity": 100,
        "channel": 2
      },
      {
        "type": "note_on",
        "time": 45,
        "note": 59,
        "velocity": 0,
        "channel": 2
      },
      {
        "type": "note_on",
        "time": 15,
        "note": 59,
        "velocity": 100,
        "channel": 2
      },
      {
        "type": "note_on",
        "time": 45,
        "note": 59,
        "velocity": 0,
        "channel": 2
      },
      {
        "type": "note_on",
        "time": 15,
        "note": 47,
        "velocity": 100,
        "channel": 2
      },
      {
        "type": "note_on",
        "time": 30,
        "note": 47,
        "velocity": 0,
        "channel": 2
      },
      {
        "type": "note_on",
        "time": 0,
        "note": 47,
        "velocity": 100,
        "channel": 2
      },
      {
        "type": "note_on",
        "time": 30,
        "note": 47,
        "velocity": 0,
        "channel": 2
      },
      {
        "type": "note_on",
        "time": 30,
        "note": 47,
        "velocity": 100,
        "channel": 2
      },
      {
        "type": "note_on",
        "time": 45,
        "note": 47,
        "velocity": 0,
        "channel": 2
      },
      {
        "type": "note_on",
        "time": 15,
        "note": 47,
        "velocity": 100,
        "channel": 2
      },
      {
        "type": "note_on",
        "time": 45,
        "note": 47,
        "velocity": 0,
        "channel": 2
      },
      {
        "type": "note_on",
        "time": 15,
        "note": 47,
        "velocity": 100,
        "channel": 2
      },
      {
        "type": "note_on",
        "time": 30,
        "note": 47,
        "velocity": 0,
        "channel": 2
      },
      {
        "type": "note_on",
        "time": 0,
        "note": 47,
        "velocity": 100,
        "channel": 2
      },
      {
        "type": "note_on",
        "time": 30,
        "note": 47,
        "velocity": 0,
        "channel": 2
      },
      {
        "type": "note_on",
        "time": 0,
        "note": 43,
        "velocity": 100,
        "channel": 2
      },
      {
        "type": "note_on",
        "time": 30,
        "note": 43,
        "velocity": 0,
        "channel": 2
      },
      {
        "type": "note_on",
        "time": 0,
        "note": 48,
        "velocity": 100,
        "channel": 2
      },
      {
        "type": "note_on",
        "time": 60,
        "note": 48,
        "velocity": 0,
        "channel": 2
      },
      {
        "type": "note_on",
        "time": 0,
        "note": 60,
        "velocity": 100,
        "channel": 2
      },
      {
        "type": "note_on",
        "time": 45,
        "note": 60,
        "velocity": 0,
        "channel": 2
      },
      {
        "type": "note_on",
        "time": 15,
        "note": 60,
        "velocity": 100,
        "channel": 2
      },
      {
        "type": "note_on",
        "time": 45,
        "note": 60,
        "velocity": 0,
        "channel": 2
      },
      {
        "type": "note_on",
        "time": 15,
        "note": 48,
        "velocity": 100,
        "channel": 2
      },
      {
        "type": "note_on",
        "time": 30,
        "note": 48,
        "velocity": 0,
        "channel": 2
      },
      {
        "type": "note_on",
        "time": 0,
        "note": 48,
        "velocity": 100,
        "channel": 2
      },
      {
        "type": "note_on",
        "time": 30,
        "note": 48,
        "velocity": 0,
        "channel": 2
      },
      {
        "type": "note_on",
        "time": 0,
        "note": 48,
        "velocity": 100,
        "channel": 2
      },
      {
        "type": "note_on",
        "time": 30,
        "note": 48,
        "velocity": 0,
        "channel": 2
      },
      {
        "type": "note_on",
        "time": 0,
        "note": 48,
        "velocity": 100,
        "channel": 2
      },
      {
        "type": "note_on",
        "time": 45,
        "note": 48,
        "velocity": 0,
        "channel": 2
      },
      {
        "type": "note_on",
        "time": 15,
        "note": 48,
        "velocity": 100,
        "channel": 2
      },
      {
        "type": "note_on",
        "time": 45,
        "note": 48,
        "velocity": 0,
        "channel": 2
      },
      {
        "type": "note_on",
        "time": 15,
        "note": 48,
        "velocity": 100,
        "channel": 2
      },
      {
        "type": "note_on",
        "time": 30,
        "note": 48,
        "velocity": 0,
        "channel": 2
      },
      {
        "type": "note_on",
        "time": 0,
        "note": 48,
        "velocity": 100,
        "channel": 2
      },
      {
        "type": "note_on",
        "time": 30,
        "note": 48,
        "velocity": 0,
        "channel": 2
      },
      {
        "type": "note_on",
        "time": 0,
        "note": 50,
        "velocity": 100,
        "channel": 2
      },
      {
        "type": "note_on",
        "time": 30,
        "note": 50,
        "velocity": 0,
        "channel": 2
      },
      {
        "type": "note_on",
        "time": 0,
        "note": 40,
        "velocity": 100,
        "channel": 2
      },
      {
        "type": "note_on",
        "time": 30,
        "note": 40,
        "velocity": 0,
        "channel": 2
      },
      {
        "type": "note_on",
        "time": 30,
        "note": 50,
        "velocity": 100,
        "channel": 2
      },
      {
        "type": "note_on",
        "time": 45,
        "note": 50,
        "velocity": 0,
        "channel": 2
      },
      {
        "type": "note_on",
        "time": 15,
        "note": 52,
        "velocity": 100,
        "channel": 2
      },
      {
        "type": "note_on",
        "time": 45,
        "note": 52,
        "velocity": 0,
        "channel": 2
      },
      {
        "type": "note_on",
        "time": 15,
        "note": 40,
        "velocity": 100,
        "channel": 2
      },
      {
        "type": "note_on",
        "time": 30,
        "note": 40,
        "velocity": 0,
        "channel": 2
      },
      {
        "type": "note_on",
        "time": 0,
        "note": 40,
        "velocity": 100,
        "channel": 2
      },
      {
        "type": "note_on",
        "time": 30,
        "note": 40,
        "velocity": 0,
        "channel": 2
      },
      {
        "type": "note_on",
        "time": 0,
        "note": 40,
        "velocity": 100,
        "channel": 2
      },
      {
        "type": "note_on",
        "time": 30,
        "note": 40,
        "velocity": 0,
        "channel": 2
      },
      {
        "type": "note_on",
        "time": 0,
        "note": 50,
        "velocity": 100,
        "channel": 2
      },
      {
        "type": "note_on",
        "time": 45,
        "note": 50,
        "velocity": 0,
        "channel": 2
      },
      {
        "type": "note_on",
        "time": 15,
        "note": 52,
        "velocity": 100,
        "channel": 2
      },
      {
        "type": "note_on",
        "time": 45,
        "note": 52,
        "velocity": 0,
        "channel": 2
      },
      {
        "type": "note_on",
        "time": 15,
        "note": 52,
        "velocity": 100,
        "channel": 2
      },
      {
        "type": "note_on",
        "time": 30,
        "note": 52,
        "velocity": 0,
        "channel": 2
      },
      {
        "type": "note_on",
        "time": 0,
        "note": 40,
        "velocity": 100,
        "channel": 2
      },
      {
        "type": "note_on",
        "time": 30,
        "note": 40,
        "velocity": 0,
        "channel": 2
      },
      {
        "type": "note_on",
        "time": 30,
        "note": 38,
        "velocity": 100,
        "channel": 2
      },
      {
        "type": "note_on",
        "time": 60,
        "note": 38,
        "velocity": 0,
        "channel": 2
      },
      {
        "type": "note_on",
        "time": 0,
        "note": 50,
        "velocity": 100,
        "channel": 2
      },
      {
        "type": "note_on",
        "time": 45,
        "note": 50,
        "velocity": 0,
        "channel": 2
      },
      {
        "type": "note_on",
        "time": 15,
        "note": 52,
        "velocity": 100,
        "channel": 2
      },
      {
        "type": "note_on",
        "time": 45,
        "note": 52,
        "velocity": 0,
        "channel": 2
      },
      {
        "type": "note_on",
        "time": 15,
        "note": 38,
        "velocity": 100,
        "channel": 2
      },
      {
        "type": "note_on",
        "time": 60,
        "note": 38,
        "velocity": 0,
        "channel": 2
      },
      {
        "type": "note_on",
        "time": 30,
        "note": 50,
        "velocity": 100,
        "channel": 2
      },
      {
        "type": "note_on",
        "time": 45,
        "note": 50,
        "velocity": 0,
        "channel": 2
      },
      {
        "type": "note_on",
        "time": 15,
        "note": 52,
        "velocity": 100,
        "channel": 2
      },
      {
        "type": "note_on",
        "time": 45,
        "note": 52,
        "velocity": 0,
        "channel": 2
      },
      {
        "type": "note_on",
        "time": 15,
        "note": 50,
        "velocity": 100,
        "channel": 2
      },
      {
        "type": "note_on",
        "time": 30,
        "note": 50,
        "velocity": 0,
        "channel": 2
      },
      {
        "type": "note_on",
        "time": 0,
        "note": 45,
        "velocity": 100,
        "channel": 2
      },
      {
        "type": "note_on",
        "time": 30,
        "note": 45,
        "velocity": 0,
        "channel": 2
      },
      {
        "type": "note_on",
        "time": 30,
        "note": 47,
        "velocity": 100,
        "channel": 2
      },
      {
        "type": "note_on",
        "time": 60,
        "note": 47,
        "velocity": 0,
        "channel": 2
      },
      {
        "type": "note_on",
        "time": 0,
        "note": 59,
        "velocity": 100,
        "channel": 2
      },
      {
        "type": "note_on",
        "time": 45,
        "note": 59,
        "velocity": 0,
        "channel": 2
      },
      {
        "type": "note_on",
        "time": 15,
        "note": 59,
        "velocity": 100,
        "channel": 2
      },
      {
        "type": "note_on",
        "time": 45,
        "note": 59,
        "velocity": 0,
        "channel": 2
      },
      {
        "type": "note_on",
        "time": 15,
        "note": 47,
        "velocity": 100,
        "channel": 2
      },
      {
        "type": "note_on",
        "time": 30,
        "note": 47,
        "velocity": 0,
        "channel": 2
      },
      {
        "type": "note_on",
        "time": 0,
        "note": 48,
        "velocity": 100,
        "channel": 2
      },
      {
        "type": "note_on",
        "time": 30,
        "note": 48,
        "velocity": 0,
        "channel": 2
      },
      {
        "type": "note_on",
        "time": 30,
        "note": 47,
        "velocity": 100,
        "channel": 2
      },
      {
        "type": "note_on",
        "time": 45,
        "note": 47,
        "velocity": 0,
        "channel": 2
      },
      {
        "type": "note_on",
        "time": 15,
        "note": 47,
        "velocity": 100,
        "channel": 2
      },
      {
        "type": "note_on",
        "time": 45,
        "note": 47,
        "velocity": 0,
        "channel": 2
      },
      {
        "type": "note_on",
        "time": 15,
        "note": 47,
        "velocity": 100,
        "channel": 2
      },
      {
        "type": "note_on",
        "time": 30,
        "note": 47,
        "velocity": 0,
        "channel": 2
      },
      {
        "type": "note_on",
        "time": 0,
        "note": 47,
        "velocity": 100,
        "channel": 2
      },
      {
        "type": "note_on",
        "time": 30,
        "note": 47,
        "velocity": 0,
        "channel": 2
      },
      {
        "type": "note_on",
        "time": 0,
        "note": 47,
        "velocity": 100,
        "channel": 2
      },
      {
        "type": "note_on",
        "time": 30,
        "note": 47,
        "velocity": 0,
        "channel": 2
      },
      {
        "type": "note_on",
        "time": 0,
        "note": 48,
        "velocity": 100,
        "channel": 2
      },
      {
        "type": "note_on",
        "time": 60,
        "note": 48,
        "velocity": 0,
        "channel": 2
      },
      {
        "type": "note_on",
        "time": 0,
        "note": 60,
        "velocity": 100,
        "channel": 2
      },
      {
        "type": "note_on",
        "time": 45,
        "note": 60,
        "velocity": 0,
        "channel": 2
      },
      {
        "type": "note_on",
        "time": 15,
        "note": 60,
        "velocity": 100,
        "channel": 2
      },
      {
        "type": "note_on",
        "time": 45,
        "note": 60,
        "velocity": 0,
        "channel": 2
      },
      {
        "type": "note_on",
        "time": 15,
        "note": 48,
        "velocity": 100,
        "channel": 2
      },
      {
        "type": "note_on",
        "time": 60,
        "note": 48,
        "velocity": 0,
        "channel": 2
      },
      {
        "type": "note_on",
        "time": 30,
        "note": 48,
        "velocity": 100,
        "channel": 2
      },
      {
        "type": "note_on",
        "time": 45,
        "note": 48,
        "velocity": 0,
        "channel": 2
      },
      {
        "type": "note_on",
        "time": 15,
        "note": 48,
        "velocity": 100,
        "channel": 2
      },
      {
        "type": "note_on",
        "time": 45,
        "note": 48,
        "velocity": 0,
        "channel": 2
      },
      {
        "type": "note_on",
        "time": 15,
        "note": 48,
        "velocity": 100,
        "channel": 2
      },
      {
        "type": "note_on",
        "time": 30,
        "note": 48,
        "velocity": 0,
        "channel": 2
      },
      {
        "type": "note_on",
        "time": 0,
        "note": 48,
        "velocity": 100,
        "channel": 2
      },
      {
        "type": "note_on",
        "time": 30,
        "note": 48,
        "velocity": 0,
        "channel": 2
      },
      {
        "type": "note_on",
        "time": 0,
        "note": 50,
        "velocity": 100,
        "channel": 2
      },
      {
        "type": "note_on",
        "time": 30,
        "note": 50,
        "velocity": 0,
        "channel": 2
      },
      {
        "type": "note_on",
        "time": 0,
        "note": 40,
        "velocity": 100,
        "channel": 2
      },
      {
        "type": "note_on",
        "time": 30,
        "note": 40,
        "velocity": 0,
        "channel": 2
      },
      {
        "type": "note_on",
        "time": 30,
        "note": 50,
        "velocity": 100,
        "channel": 2
      },
      {
        "type": "note_on",
        "time": 45,
        "note": 50,
        "velocity": 0,
        "channel": 2
      },
      {
        "type": "note_on",
        "time": 15,
        "note": 52,
        "velocity": 100,
        "channel": 2
      },
      {
        "type": "note_on",
        "time": 45,
        "note": 52,
        "velocity": 0,
        "channel": 2
      },
      {
        "type": "note_on",
        "time": 15,
        "note": 40,
        "velocity": 100,
        "channel": 2
      },
      {
        "type": "note_on",
        "time": 30,
        "note": 40,
        "velocity": 0,
        "channel": 2
      },
      {
        "type": "note_on",
        "time": 0,
        "note": 40,
        "velocity": 100,
        "channel": 2
      },
      {
        "type": "note_on",
        "time": 30,
        "note": 40,
        "velocity": 0,
        "channel": 2
      },
      {
        "type": "note_on",
        "time": 0,
        "note": 40,
        "velocity": 100,
        "channel": 2
      },
      {
        "type": "note_on",
        "time": 30,
        "note": 40,
        "velocity": 0,
        "channel": 2
      },
      {
        "type": "note_on",
        "time": 0,
        "note": 50,
        "velocity": 100,
        "channel": 2
      },
      {
        "type": "note_on",
        "time": 45,
        "note": 50,
        "velocity": 0,
        "channel": 2
      },
      {
        "type": "note_on",
        "time": 15,
        "note": 52,
        "velocity": 100,
        "channel": 2
      },
      {
        "type": "note_on",
        "time": 45,
        "note": 52,
        "velocity": 0,
        "channel": 2
      },
      {
        "type": "note_on",
        "time": 15,
        "note": 52,
        "velocity": 100,
        "channel": 2
      },
      {
        "type": "note_on",
        "time": 30,
        "note": 52,
        "velocity": 0,
        "channel": 2
      },
      {
        "type": "note_on",
        "time": 0,
        "note": 40,
        "velocity": 100,
        "channel": 2
      },
      {
        "type": "note_on",
        "time": 30,
        "note": 40,
        "velocity": 0,
        "channel": 2
      },
      {
        "type": "note_on",
        "time": 30,
        "note": 38,
        "velocity": 100,
        "channel": 2
      },
      {
        "type": "note_on",
        "time": 30,
        "note": 38,
        "velocity": 0,
        "channel": 2
      },
      {
        "type": "note_on",
        "time": 30,
        "note": 50,
        "velocity": 100,
        "channel": 2
      },
      {
        "type": "note_on",
        "time": 45,
        "note": 50,
        "velocity": 0,
        "channel": 2
      },
      {
        "type": "note_on",
        "time": 15,
        "note": 52,
        "velocity": 100,
        "channel": 2
      },
      {
        "type": "note_on",
        "time": 45,
        "note": 52,
        "velocity": 0,
        "channel": 2
      },
      {
        "type": "note_on",
        "time": 15,
        "note": 38,
        "velocity": 100,
        "channel": 2
      },
      {
        "type": "note_on",
        "time": 60,
        "note": 38,
        "velocity": 0,
        "channel": 2
      },
      {
        "type": "note_on",
        "time": 30,
        "note": 50,
        "velocity": 100,
        "channel": 2
      },
      {
        "type": "note_on",
        "time": 45,
        "note": 50,
        "velocity": 0,
        "channel": 2
      },
      {
        "type": "note_on",
        "time": 15,
        "note": 52,
        "velocity": 100,
        "channel": 2
      },
      {
        "type": "note_on",
        "time": 45,
        "note": 52,
        "velocity": 0,
        "channel": 2
      },
      {
        "type": "note_on",
        "time": 15,
        "note": 50,
        "velocity": 100,
        "channel": 2
      },
      {
        "type": "note_on",
        "time": 30,
        "note": 50,
        "velocity": 0,
        "channel": 2
      },
      {
        "type": "note_on",
        "time": 0,
        "note": 45,
        "velocity": 100,
        "channel": 2
      },
      {
        "type": "note_on",
        "time": 30,
        "note": 45,
        "velocity": 0,
        "channel": 2
      },
      {
        "type": "note_on",
        "time": 30,
        "note": 47,
        "velocity": 100,
        "channel": 2
      },
      {
        "type": "note_on",
        "time": 60,
        "note": 47,
        "velocity": 0,
        "channel": 2
      },
      {
        "type": "note_on",
        "time": 0,
        "note": 59,
        "velocity": 100,
        "channel": 2
      },
      {
        "type": "note_on",
        "time": 45,
        "note": 59,
        "velocity": 0,
        "channel": 2
      },
      {
        "type": "note_on",
        "time": 15,
        "note": 59,
        "velocity": 100,
        "channel": 2
      },
      {
        "type": "note_on",
        "time": 45,
        "note": 59,
        "velocity": 0,
        "channel": 2
      },
      {
        "type": "note_on",
        "time": 15,
        "note": 47,
        "velocity": 100,
        "channel": 2
      },
      {
        "type": "note_on",
        "time": 30,
        "note": 47,
        "velocity": 0,
        "channel": 2
      },
      {
        "type": "note_on",
        "time": 0,
        "note": 47,
        "velocity": 100,
        "channel": 2
      },
      {
        "type": "note_on",
        "time": 30,
        "note": 47,
        "velocity": 0,
        "channel": 2
      },
      {
        "type": "note_on",
        "time": 30,
        "note": 47,
        "velocity": 100,
        "channel": 2
      },
      {
        "type": "note_on",
        "time": 45,
        "note": 47,
        "velocity": 0,
        "channel": 2
      },
      {
        "type": "note_on",
        "time": 15,
        "note": 47,
        "velocity": 100,
        "channel": 2
      },
      {
        "type": "note_on",
        "time": 45,
        "note": 47,
        "velocity": 0,
        "channel": 2
      },
      {
        "type": "note_on",
        "time": 15,
        "note": 47,
        "velocity": 100,
        "channel": 2
      },
      {
        "type": "note_on",
        "time": 30,
        "note": 47,
        "velocity": 0,
        "channel": 2
      },
      {
        "type": "note_on",
        "time": 0,
        "note": 48,
        "velocity": 100,
        "channel": 2
      },
      {
        "type": "note_on",
        "time": 30,
        "note": 48,
        "velocity": 0,
        "channel": 2
      },
      {
        "type": "note_on",
        "time": 0,
        "note": 47,
        "velocity": 100,
        "channel": 2
      },
      {
        "type": "note_on",
        "time": 30,
        "note": 47,
        "velocity": 0,
        "channel": 2
      },
      {
        "type": "note_on",
        "time": 0,
        "note": 48,
        "velocity": 100,
        "channel": 2
      },
      {
        "type": "note_on",
        "time": 60,
        "note": 48,
        "velocity": 0,
        "channel": 2
      },
      {
        "type": "note_on",
        "time": 0,
        "note": 60,
        "velocity": 100,
        "channel": 2
      },
      {
        "type": "note_on",
        "time": 45,
        "note": 60,
        "velocity": 0,
        "channel": 2
      },
      {
        "type": "note_on",
        "time": 15,
        "note": 60,
        "velocity": 100,
        "channel": 2
      },
      {
        "type": "note_on",
        "time": 45,
        "note": 60,
        "velocity": 0,
        "channel": 2
      },
      {
        "type": "note_on",
        "time": 15,
        "note": 48,
        "velocity": 100,
        "channel": 2
      },
      {
        "type": "note_on",
        "time": 60,
        "note": 48,
        "velocity": 0,
        "channel": 2
      },
      {
        "type": "note_on",
        "time": 30,
        "note": 48,
        "velocity": 100,
        "channel": 2
      },
      {
        "type": "note_on",
        "time": 45,
        "note": 48,
        "velocity": 0,
        "channel": 2
      },
      {
        "type": "note_on",
        "time": 15,
        "note": 48,
        "velocity": 100,
        "channel": 2
      },
      {
        "type": "note_on",
        "time": 45,
        "note": 48,
        "velocity": 0,
        "channel": 2
      },
      {
        "type": "note_on",
        "time": 15,
        "note": 48,
        "velocity": 100,
        "channel": 2
      },
      {
        "type": "note_on",
        "time": 30,
        "note": 48,
        "velocity": 0,
        "channel": 2
      },
      {
        "type": "note_on",
        "time": 0,
        "note": 48,
        "velocity": 100,
        "channel": 2
      },
      {
        "type": "note_on",
        "time": 30,
        "note": 48,
        "velocity": 0,
        "channel": 2
      },
      {
        "type": "note_on",
        "time": 0,
        "note": 50,
        "velocity": 100,
        "channel": 2
      },
      {
        "type": "note_on",
        "time": 30,
        "note": 50,
        "velocity": 0,
        "channel": 2
      },
      {
        "type": "note_on",
        "time": 0,
        "note": 43,
        "velocity": 100,
        "channel": 2
      },
      {
        "type": "note_on",
        "time": 75,
        "note": 43,
        "velocity": 0,
        "channel": 2
      },
      {
        "type": "note_on",
        "time": 15,
        "note": 47,
        "velocity": 100,
        "channel": 2
      },
      {
        "type": "note_on",
        "time": 30,
        "note": 47,
        "velocity": 0,
        "channel": 2
      },
      {
        "type": "note_on",
        "time": 0,
        "note": 48,
        "velocity": 100,
        "channel": 2
      },
      {
        "type": "note_on",
        "time": 30,
        "note": 48,
        "velocity": 0,
        "channel": 2
      },
      {
        "type": "note_on",
        "time": 0,
        "note": 49,
        "velocity": 100,
        "channel": 2
      },
      {
        "type": "note_on",
        "time": 30,
        "note": 49,
        "velocity": 0,
        "channel": 2
      },
      {
        "type": "note_on",
        "time": 0,
        "note": 50,
        "velocity": 100,
        "channel": 2
      },
      {
        "type": "note_on",
        "time": 120,
        "note": 50,
        "velocity": 0,
        "channel": 2
      },
      {
        "type": "note_on",
        "time": 0,
        "note": 50,
        "velocity": 100,
        "channel": 2
      },
      {
        "type": "note_on",
        "time": 60,
        "note": 50,
        "velocity": 0,
        "channel": 2
      },
      {
        "type": "note_on",
        "time": 0,
        "note": 50,
        "velocity": 100,
        "channel": 2
      },
      {
        "type": "note_on",
        "time": 60,
        "note": 50,
        "velocity": 0,
        "channel": 2
      },
      {
        "type": "note_on",
        "time": 60,
        "note": 47,
        "velocity": 100,
        "channel": 2
      },
      {
        "type": "note_on",
        "time": 60,
        "note": 47,
        "velocity": 0,
        "channel": 2
      },
      {
        "type": "note_on",
        "time": 30,
        "note": 45,
        "velocity": 100,
        "channel": 2
      },
      {
        "type": "note_on",
        "time": 30,
        "note": 45,
        "velocity": 0,
        "channel": 2
      },
      {
        "type": "note_on",
        "time": 0,
        "note": 47,
        "velocity": 100,
        "channel": 2
      },
      {
        "type": "note_on",
        "time": 30,
        "note": 47,
        "velocity": 0,
        "channel": 2
      },
      {
        "type": "note_on",
        "time": 0,
        "note": 45,
        "velocity": 100,
        "channel": 2
      },
      {
        "type": "note_on",
        "time": 30,
        "note": 45,
        "velocity": 0,
        "channel": 2
      },
      {
        "type": "note_on",
        "time": 0,
        "note": 48,
        "velocity": 100,
        "channel": 2
      },
      {
        "type": "note_on",
        "time": 210,
        "note": 48,
        "velocity": 0,
        "channel": 2
      },
      {
        "type": "note_on",
        "time": 0,
        "note": 50,
        "velocity": 100,
        "channel": 2
      },
      {
        "type": "note_on",
        "time": 30,
        "note": 50,
        "velocity": 0,
        "channel": 2
      },
      {
        "type": "note_on",
        "time": 0,
        "note": 47,
        "velocity": 100,
        "channel": 2
      },
      {
        "type": "note_on",
        "time": 30,
        "note": 47,
        "velocity": 0,
        "channel": 2
      },
      {
        "type": "note_on",
        "time": 0,
        "note": 50,
        "velocity": 100,
        "channel": 2
      },
      {
        "type": "note_on",
        "time": 30,
        "note": 50,
        "velocity": 0,
        "channel": 2
      },
      {
        "type": "note_on",
        "time": 0,
        "note": 43,
        "velocity": 100,
        "channel": 2
      },
      {
        "type": "note_on",
        "time": 75,
        "note": 43,
        "velocity": 0,
        "channel": 2
      },
      {
        "type": "note_on",
        "time": 15,
        "note": 47,
        "velocity": 100,
        "channel": 2
      },
      {
        "type": "note_on",
        "time": 30,
        "note": 47,
        "velocity": 0,
        "channel": 2
      },
      {
        "type": "note_on",
        "time": 0,
        "note": 48,
        "velocity": 100,
        "channel": 2
      },
      {
        "type": "note_on",
        "time": 30,
        "note": 48,
        "velocity": 0,
        "channel": 2
      },
      {
        "type": "note_on",
        "time": 0,
        "note": 49,
        "velocity": 100,
        "channel": 2
      },
      {
        "type": "note_on",
        "time": 30,
        "note": 49,
        "velocity": 0,
        "channel": 2
      },
      {
        "type": "note_on",
        "time": 0,
        "note": 50,
        "velocity": 100,
        "channel": 2
      },
      {
        "type": "note_on",
        "time": 120,
        "note": 50,
        "velocity": 0,
        "channel": 2
      },
      {
        "type": "note_on",
        "time": 0,
        "note": 50,
        "velocity": 100,
        "channel": 2
      },
      {
        "type": "note_on",
        "time": 60,
        "note": 50,
        "velocity": 0,
        "channel": 2
      },
      {
        "type": "note_on",
        "time": 0,
        "note": 50,
        "velocity": 100,
        "channel": 2
      },
      {
        "type": "note_on",
        "time": 60,
        "note": 50,
        "velocity": 0,
        "channel": 2
      },
      {
        "type": "note_on",
        "time": 60,
        "note": 47,
        "velocity": 100,
        "channel": 2
      },
      {
        "type": "note_on",
        "time": 90,
        "note": 47,
        "velocity": 0,
        "channel": 2
      },
      {
        "type": "note_on",
        "time": 0,
        "note": 45,
        "velocity": 100,
        "channel": 2
      },
      {
        "type": "note_on",
        "time": 30,
        "note": 45,
        "velocity": 0,
        "channel": 2
      },
      {
        "type": "note_on",
        "time": 0,
        "note": 47,
        "velocity": 100,
        "channel": 2
      },
      {
        "type": "note_on",
        "time": 30,
        "note": 47,
        "velocity": 0,
        "channel": 2
      },
      {
        "type": "note_on",
        "time": 0,
        "note": 45,
        "velocity": 100,
        "channel": 2
      },
      {
        "type": "note_on",
        "time": 30,
        "note": 45,
        "velocity": 0,
        "channel": 2
      },
      {
        "type": "note_on",
        "time": 0,
        "note": 48,
        "velocity": 100,
        "channel": 2
      },
      {
        "type": "note_on",
        "time": 120,
        "note": 48,
        "velocity": 0,
        "channel": 2
      },
      {
        "type": "note_on",
        "time": 0,
        "note": 48,
        "velocity": 100,
        "channel": 2
      },
      {
        "type": "note_on",
        "time": 45,
        "note": 48,
        "velocity": 100,
        "channel": 2
      },
      {
        "type": "note_on",
        "time": 15,
        "note": 48,
        "velocity": 0,
        "channel": 2
      },
      {
        "type": "note_on",
        "time": 0,
        "note": 48,
        "velocity": 0,
        "channel": 2
      },
      {
        "type": "note_on",
        "time": 0,
        "note": 52,
        "velocity": 100,
        "channel": 2
      },
      {
        "type": "note_on",
        "time": 60,
        "note": 52,
        "velocity": 0,
        "channel": 2
      },
      {
        "type": "note_on",
        "time": 0,
        "note": 50,
        "velocity": 100,
        "channel": 2
      },
      {
        "type": "note_on",
        "time": 60,
        "note": 50,
        "velocity": 0,
        "channel": 2
      },
      {
        "type": "note_on",
        "time": 0,
        "note": 43,
        "velocity": 100,
        "channel": 2
      },
      {
        "type": "note_on",
        "time": 75,
        "note": 43,
        "velocity": 0,
        "channel": 2
      },
      {
        "type": "note_on",
        "time": 15,
        "note": 47,
        "velocity": 100,
        "channel": 2
      },
      {
        "type": "note_on",
        "time": 30,
        "note": 47,
        "velocity": 0,
        "channel": 2
      },
      {
        "type": "note_on",
        "time": 0,
        "note": 48,
        "velocity": 100,
        "channel": 2
      },
      {
        "type": "note_on",
        "time": 30,
        "note": 48,
        "velocity": 0,
        "channel": 2
      },
      {
        "type": "note_on",
        "time": 0,
        "note": 49,
        "velocity": 100,
        "channel": 2
      },
      {
        "type": "note_on",
        "time": 30,
        "note": 49,
        "velocity": 0,
        "channel": 2
      },
      {
        "type": "note_on",
        "time": 0,
        "note": 50,
        "velocity": 100,
        "channel": 2
      },
      {
        "type": "note_on",
        "time": 120,
        "note": 50,
        "velocity": 0,
        "channel": 2
      },
      {
        "type": "note_on",
        "time": 0,
        "note": 50,
        "velocity": 100,
        "channel": 2
      },
      {
        "type": "note_on",
        "time": 60,
        "note": 50,
        "velocity": 0,
        "channel": 2
      },
      {
        "type": "note_on",
        "time": 0,
        "note": 50,
        "velocity": 100,
        "channel": 2
      },
      {
        "type": "note_on",
        "time": 60,
        "note": 50,
        "velocity": 0,
        "channel": 2
      },
      {
        "type": "note_on",
        "time": 60,
        "note": 47,
        "velocity": 100,
        "channel": 2
      },
      {
        "type": "note_on",
        "time": 60,
        "note": 47,
        "velocity": 0,
        "channel": 2
      },
      {
        "type": "note_on",
        "time": 30,
        "note": 55,
        "velocity": 100,
        "channel": 2
      },
      {
        "type": "note_on",
        "time": 60,
        "note": 48,
        "velocity": 100,
        "channel": 2
      },
      {
        "type": "note_on",
        "time": 30,
        "note": 48,
        "velocity": 0,
        "channel": 2
      },
      {
        "type": "note_on",
        "time": 0,
        "note": 55,
        "velocity": 0,
        "channel": 2
      },
      {
        "type": "note_on",
        "time": 0,
        "note": 48,
        "velocity": 100,
        "channel": 2
      },
      {
        "type": "note_on",
        "time": 120,
        "note": 48,
        "velocity": 0,
        "channel": 2
      },
      {
        "type": "note_on",
        "time": 0,
        "note": 48,
        "velocity": 100,
        "channel": 2
      },
      {
        "type": "note_on",
        "time": 60,
        "note": 48,
        "velocity": 0,
        "channel": 2
      },
      {
        "type": "note_on",
        "time": 0,
        "note": 48,
        "velocity": 100,
        "channel": 2
      },
      {
        "type": "note_on",
        "time": 30,
        "note": 48,
        "velocity": 0,
        "channel": 2
      },
      {
        "type": "note_on",
        "time": 0,
        "note": 50,
        "velocity": 100,
        "channel": 2
      },
      {
        "type": "note_on",
        "time": 30,
        "note": 50,
        "velocity": 0,
        "channel": 2
      },
      {
        "type": "note_on",
        "time": 60,
        "note": 43,
        "velocity": 100,
        "channel": 2
      },
      {
        "type": "note_on",
        "time": 75,
        "note": 43,
        "velocity": 0,
        "channel": 2
      },
      {
        "type": "note_on",
        "time": 15,
        "note": 47,
        "velocity": 100,
        "channel": 2
      },
      {
        "type": "note_on",
        "time": 30,
        "note": 47,
        "velocity": 0,
        "channel": 2
      },
      {
        "type": "note_on",
        "time": 0,
        "note": 48,
        "velocity": 100,
        "channel": 2
      },
      {
        "type": "note_on",
        "time": 30,
        "note": 48,
        "velocity": 0,
        "channel": 2
      },
      {
        "type": "note_on",
        "time": 0,
        "note": 49,
        "velocity": 100,
        "channel": 2
      },
      {
        "type": "note_on",
        "time": 30,
        "note": 49,
        "velocity": 0,
        "channel": 2
      },
      {
        "type": "note_on",
        "time": 0,
        "note": 50,
        "velocity": 100,
        "channel": 2
      },
      {
        "type": "note_on",
        "time": 120,
        "note": 50,
        "velocity": 0,
        "channel": 2
      },
      {
        "type": "note_on",
        "time": 0,
        "note": 50,
        "velocity": 100,
        "channel": 2
      },
      {
        "type": "note_on",
        "time": 60,
        "note": 50,
        "velocity": 0,
        "channel": 2
      },
      {
        "type": "note_on",
        "time": 0,
        "note": 50,
        "velocity": 100,
        "channel": 2
      },
      {
        "type": "note_on",
        "time": 60,
        "note": 50,
        "velocity": 0,
        "channel": 2
      },
      {
        "type": "note_on",
        "time": 60,
        "note": 47,
        "velocity": 100,
        "channel": 2
      },
      {
        "type": "note_on",
        "time": 120,
        "note": 47,
        "velocity": 0,
        "channel": 2
      },
      {
        "type": "note_on",
        "time": 0,
        "note": 48,
        "velocity": 100,
        "channel": 2
      },
      {
        "type": "note_on",
        "time": 360,
        "note": 48,
        "velocity": 0,
        "channel": 2
      },
      {
        "type": "note_on",
        "time": 0,
        "note": 40,
        "velocity": 100,
        "channel": 2
      },
      {
        "type": "note_on",
        "time": 30,
        "note": 40,
        "velocity": 0,
        "channel": 2
      },
      {
        "type": "note_on",
        "time": 30,
        "note": 50,
        "velocity": 100,
        "channel": 2
      },
      {
        "type": "note_on",
        "time": 45,
        "note": 50,
        "velocity": 0,
        "channel": 2
      },
      {
        "type": "note_on",
        "time": 15,
        "note": 52,
        "velocity": 100,
        "channel": 2
      },
      {
        "type": "note_on",
        "time": 45,
        "note": 52,
        "velocity": 0,
        "channel": 2
      },
      {
        "type": "note_on",
        "time": 15,
        "note": 40,
        "velocity": 100,
        "channel": 2
      },
      {
        "type": "note_on",
        "time": 30,
        "note": 40,
        "velocity": 0,
        "channel": 2
      },
      {
        "type": "note_on",
        "time": 0,
        "note": 40,
        "velocity": 100,
        "channel": 2
      },
      {
        "type": "note_on",
        "time": 30,
        "note": 40,
        "velocity": 0,
        "channel": 2
      },
      {
        "type": "note_on",
        "time": 0,
        "note": 40,
        "velocity": 100,
        "channel": 2
      },
      {
        "type": "note_on",
        "time": 30,
        "note": 40,
        "velocity": 0,
        "channel": 2
      },
      {
        "type": "note_on",
        "time": 0,
        "note": 50,
        "velocity": 100,
        "channel": 2
      },
      {
        "type": "note_on",
        "time": 45,
        "note": 50,
        "velocity": 0,
        "channel": 2
      },
      {
        "type": "note_on",
        "time": 15,
        "note": 52,
        "velocity": 100,
        "channel": 2
      },
      {
        "type": "note_on",
        "time": 45,
        "note": 52,
        "velocity": 0,
        "channel": 2
      },
      {
        "type": "note_on",
        "time": 15,
        "note": 52,
        "velocity": 100,
        "channel": 2
      },
      {
        "type": "note_on",
        "time": 30,
        "note": 52,
        "velocity": 0,
        "channel": 2
      },
      {
        "type": "note_on",
        "time": 0,
        "note": 40,
        "velocity": 100,
        "channel": 2
      },
      {
        "type": "note_on",
        "time": 30,
        "note": 40,
        "velocity": 0,
        "channel": 2
      },
      {
        "type": "note_on",
        "time": 30,
        "note": 38,
        "velocity": 100,
        "channel": 2
      },
      {
        "type": "note_on",
        "time": 30,
        "note": 38,
        "velocity": 0,
        "channel": 2
      },
      {
        "type": "note_on",
        "time": 30,
        "note": 50,
        "velocity": 100,
        "channel": 2
      },
      {
        "type": "note_on",
        "time": 45,
        "note": 50,
        "velocity": 0,
        "channel": 2
      },
      {
        "type": "note_on",
        "time": 15,
        "note": 52,
        "velocity": 100,
        "channel": 2
      },
      {
        "type": "note_on",
        "time": 45,
        "note": 52,
        "velocity": 0,
        "channel": 2
      },
      {
        "type": "note_on",
        "time": 15,
        "note": 38,
        "velocity": 100,
        "channel": 2
      },
      {
        "type": "note_on",
        "time": 60,
        "note": 38,
        "velocity": 0,
        "channel": 2
      },
      {
        "type": "note_on",
        "time": 30,
        "note": 50,
        "velocity": 100,
        "channel": 2
      },
      {
        "type": "note_on",
        "time": 45,
        "note": 50,
        "velocity": 0,
        "channel": 2
      },
      {
        "type": "note_on",
        "time": 15,
        "note": 52,
        "velocity": 100,
        "channel": 2
      },
      {
        "type": "note_on",
        "time": 45,
        "note": 52,
        "velocity": 0,
        "channel": 2
      },
      {
        "type": "note_on",
        "time": 15,
        "note": 50,
        "velocity": 100,
        "channel": 2
      },
      {
        "type": "note_on",
        "time": 30,
        "note": 50,
        "velocity": 0,
        "channel": 2
      },
      {
        "type": "note_on",
        "time": 0,
        "note": 45,
        "velocity": 100,
        "channel": 2
      },
      {
        "type": "note_on",
        "time": 30,
        "note": 45,
        "velocity": 0,
        "channel": 2
      },
      {
        "type": "note_on",
        "time": 30,
        "note": 47,
        "velocity": 100,
        "channel": 2
      },
      {
        "type": "note_on",
        "time": 60,
        "note": 47,
        "velocity": 0,
        "channel": 2
      },
      {
        "type": "note_on",
        "time": 0,
        "note": 59,
        "velocity": 100,
        "channel": 2
      },
      {
        "type": "note_on",
        "time": 45,
        "note": 59,
        "velocity": 0,
        "channel": 2
      },
      {
        "type": "note_on",
        "time": 15,
        "note": 59,
        "velocity": 100,
        "channel": 2
      },
      {
        "type": "note_on",
        "time": 45,
        "note": 59,
        "velocity": 0,
        "channel": 2
      },
      {
        "type": "note_on",
        "time": 15,
        "note": 47,
        "velocity": 100,
        "channel": 2
      },
      {
        "type": "note_on",
        "time": 30,
        "note": 47,
        "velocity": 0,
        "channel": 2
      },
      {
        "type": "note_on",
        "time": 0,
        "note": 47,
        "velocity": 100,
        "channel": 2
      },
      {
        "type": "note_on",
        "time": 30,
        "note": 47,
        "velocity": 0,
        "channel": 2
      },
      {
        "type": "note_on",
        "time": 30,
        "note": 47,
        "velocity": 100,
        "channel": 2
      },
      {
        "type": "note_on",
        "time": 45,
        "note": 47,
        "velocity": 0,
        "channel": 2
      },
      {
        "type": "note_on",
        "time": 15,
        "note": 47,
        "velocity": 100,
        "channel": 2
      },
      {
        "type": "note_on",
        "time": 45,
        "note": 47,
        "velocity": 0,
        "channel": 2
      },
      {
        "type": "note_on",
        "time": 15,
        "note": 47,
        "velocity": 100,
        "channel": 2
      },
      {
        "type": "note_on",
        "time": 30,
        "note": 47,
        "velocity": 0,
        "channel": 2
      },
      {
        "type": "note_on",
        "time": 0,
        "note": 47,
        "velocity": 100,
        "channel": 2
      },
      {
        "type": "note_on",
        "time": 30,
        "note": 47,
        "velocity": 0,
        "channel": 2
      },
      {
        "type": "note_on",
        "time": 0,
        "note": 43,
        "velocity": 100,
        "channel": 2
      },
      {
        "type": "note_on",
        "time": 30,
        "note": 43,
        "velocity": 0,
        "channel": 2
      },
      {
        "type": "note_on",
        "time": 0,
        "note": 48,
        "velocity": 100,
        "channel": 2
      },
      {
        "type": "note_on",
        "time": 60,
        "note": 48,
        "velocity": 0,
        "channel": 2
      },
      {
        "type": "note_on",
        "time": 0,
        "note": 60,
        "velocity": 100,
        "channel": 2
      },
      {
        "type": "note_on",
        "time": 45,
        "note": 60,
        "velocity": 0,
        "channel": 2
      },
      {
        "type": "note_on",
        "time": 15,
        "note": 60,
        "velocity": 100,
        "channel": 2
      },
      {
        "type": "note_on",
        "time": 45,
        "note": 60,
        "velocity": 0,
        "channel": 2
      },
      {
        "type": "note_on",
        "time": 15,
        "note": 48,
        "velocity": 100,
        "channel": 2
      },
      {
        "type": "note_on",
        "time": 60,
        "note": 48,
        "velocity": 0,
        "channel": 2
      },
      {
        "type": "note_on",
        "time": 30,
        "note": 48,
        "velocity": 100,
        "channel": 2
      },
      {
        "type": "note_on",
        "time": 45,
        "note": 48,
        "velocity": 0,
        "channel": 2
      },
      {
        "type": "note_on",
        "time": 15,
        "note": 48,
        "velocity": 100,
        "channel": 2
      },
      {
        "type": "note_on",
        "time": 45,
        "note": 48,
        "velocity": 0,
        "channel": 2
      },
      {
        "type": "note_on",
        "time": 15,
        "note": 48,
        "velocity": 100,
        "channel": 2
      },
      {
        "type": "note_on",
        "time": 30,
        "note": 48,
        "velocity": 0,
        "channel": 2
      },
      {
        "type": "note_on",
        "time": 0,
        "note": 48,
        "velocity": 100,
        "channel": 2
      },
      {
        "type": "note_on",
        "time": 30,
        "note": 48,
        "velocity": 0,
        "channel": 2
      },
      {
        "type": "note_on",
        "time": 0,
        "note": 50,
        "velocity": 100,
        "channel": 2
      },
      {
        "type": "note_on",
        "time": 30,
        "note": 50,
        "velocity": 0,
        "channel": 2
      },
      {
        "type": "note_on",
        "time": 0,
        "note": 40,
        "velocity": 100,
        "channel": 2
      },
      {
        "type": "note_on",
        "time": 30,
        "note": 40,
        "velocity": 0,
        "channel": 2
      },
      {
        "type": "note_on",
        "time": 30,
        "note": 50,
        "velocity": 100,
        "channel": 2
      },
      {
        "type": "note_on",
        "time": 45,
        "note": 50,
        "velocity": 0,
        "channel": 2
      },
      {
        "type": "note_on",
        "time": 15,
        "note": 52,
        "velocity": 100,
        "channel": 2
      },
      {
        "type": "note_on",
        "time": 45,
        "note": 52,
        "velocity": 0,
        "channel": 2
      },
      {
        "type": "note_on",
        "time": 15,
        "note": 40,
        "velocity": 100,
        "channel": 2
      },
      {
        "type": "note_on",
        "time": 30,
        "note": 40,
        "velocity": 0,
        "channel": 2
      },
      {
        "type": "note_on",
        "time": 0,
        "note": 40,
        "velocity": 100,
        "channel": 2
      },
      {
        "type": "note_on",
        "time": 30,
        "note": 40,
        "velocity": 0,
        "channel": 2
      },
      {
        "type": "note_on",
        "time": 0,
        "note": 40,
        "velocity": 100,
        "channel": 2
      },
      {
        "type": "note_on",
        "time": 30,
        "note": 40,
        "velocity": 0,
        "channel": 2
      },
      {
        "type": "note_on",
        "time": 0,
        "note": 50,
        "velocity": 100,
        "channel": 2
      },
      {
        "type": "note_on",
        "time": 45,
        "note": 50,
        "velocity": 0,
        "channel": 2
      },
      {
        "type": "note_on",
        "time": 15,
        "note": 52,
        "velocity": 100,
        "channel": 2
      },
      {
        "type": "note_on",
        "time": 45,
        "note": 52,
        "velocity": 0,
        "channel": 2
      },
      {
        "type": "note_on",
        "time": 15,
        "note": 52,
        "velocity": 100,
        "channel": 2
      },
      {
        "type": "note_on",
        "time": 30,
        "note": 52,
        "velocity": 0,
        "channel": 2
      },
      {
        "type": "note_on",
        "time": 0,
        "note": 40,
        "velocity": 100,
        "channel": 2
      },
      {
        "type": "note_on",
        "time": 30,
        "note": 40,
        "velocity": 0,
        "channel": 2
      },
      {
        "type": "note_on",
        "time": 30,
        "note": 38,
        "velocity": 100,
        "channel": 2
      },
      {
        "type": "note_on",
        "time": 30,
        "note": 38,
        "velocity": 0,
        "channel": 2
      },
      {
        "type": "note_on",
        "time": 30,
        "note": 50,
        "velocity": 100,
        "channel": 2
      },
      {
        "type": "note_on",
        "time": 45,
        "note": 50,
        "velocity": 0,
        "channel": 2
      },
      {
        "type": "note_on",
        "time": 15,
        "note": 52,
        "velocity": 100,
        "channel": 2
      },
      {
        "type": "note_on",
        "time": 45,
        "note": 52,
        "velocity": 0,
        "channel": 2
      },
      {
        "type": "note_on",
        "time": 15,
        "note": 38,
        "velocity": 100,
        "channel": 2
      },
      {
        "type": "note_on",
        "time": 60,
        "note": 38,
        "velocity": 0,
        "channel": 2
      },
      {
        "type": "note_on",
        "time": 30,
        "note": 50,
        "velocity": 100,
        "channel": 2
      },
      {
        "type": "note_on",
        "time": 45,
        "note": 50,
        "velocity": 0,
        "channel": 2
      },
      {
        "type": "note_on",
        "time": 15,
        "note": 52,
        "velocity": 100,
        "channel": 2
      },
      {
        "type": "note_on",
        "time": 45,
        "note": 52,
        "velocity": 0,
        "channel": 2
      },
      {
        "type": "note_on",
        "time": 15,
        "note": 50,
        "velocity": 100,
        "channel": 2
      },
      {
        "type": "note_on",
        "time": 30,
        "note": 50,
        "velocity": 0,
        "channel": 2
      },
      {
        "type": "note_on",
        "time": 0,
        "note": 45,
        "velocity": 100,
        "channel": 2
      },
      {
        "type": "note_on",
        "time": 30,
        "note": 45,
        "velocity": 0,
        "channel": 2
      },
      {
        "type": "note_on",
        "time": 30,
        "note": 47,
        "velocity": 100,
        "channel": 2
      },
      {
        "type": "note_on",
        "time": 60,
        "note": 47,
        "velocity": 0,
        "channel": 2
      },
      {
        "type": "note_on",
        "time": 0,
        "note": 59,
        "velocity": 100,
        "channel": 2
      },
      {
        "type": "note_on",
        "time": 45,
        "note": 59,
        "velocity": 0,
        "channel": 2
      },
      {
        "type": "note_on",
        "time": 15,
        "note": 59,
        "velocity": 100,
        "channel": 2
      },
      {
        "type": "note_on",
        "time": 45,
        "note": 59,
        "velocity": 0,
        "channel": 2
      },
      {
        "type": "note_on",
        "time": 15,
        "note": 47,
        "velocity": 100,
        "channel": 2
      },
      {
        "type": "note_on",
        "time": 30,
        "note": 47,
        "velocity": 0,
        "channel": 2
      },
      {
        "type": "note_on",
        "time": 0,
        "note": 47,
        "velocity": 100,
        "channel": 2
      },
      {
        "type": "note_on",
        "time": 30,
        "note": 47,
        "velocity": 0,
        "channel": 2
      },
      {
        "type": "note_on",
        "time": 30,
        "note": 47,
        "velocity": 100,
        "channel": 2
      },
      {
        "type": "note_on",
        "time": 45,
        "note": 47,
        "velocity": 0,
        "channel": 2
      },
      {
        "type": "note_on",
        "time": 15,
        "note": 47,
        "velocity": 100,
        "channel": 2
      },
      {
        "type": "note_on",
        "time": 45,
        "note": 47,
        "velocity": 0,
        "channel": 2
      },
      {
        "type": "note_on",
        "time": 15,
        "note": 47,
        "velocity": 100,
        "channel": 2
      },
      {
        "type": "note_on",
        "time": 30,
        "note": 47,
        "velocity": 0,
        "channel": 2
      },
      {
        "type": "note_on",
        "time": 0,
        "note": 47,
        "velocity": 100,
        "channel": 2
      },
      {
        "type": "note_on",
        "time": 30,
        "note": 47,
        "velocity": 0,
        "channel": 2
      },
      {
        "type": "note_on",
        "time": 0,
        "note": 47,
        "velocity": 100,
        "channel": 2
      },
      {
        "type": "note_on",
        "time": 30,
        "note": 47,
        "velocity": 0,
        "channel": 2
      },
      {
        "type": "note_on",
        "time": 0,
        "note": 48,
        "velocity": 100,
        "channel": 2
      },
      {
        "type": "note_on",
        "time": 60,
        "note": 48,
        "velocity": 0,
        "channel": 2
      },
      {
        "type": "note_on",
        "time": 0,
        "note": 60,
        "velocity": 100,
        "channel": 2
      },
      {
        "type": "note_on",
        "time": 45,
        "note": 60,
        "velocity": 0,
        "channel": 2
      },
      {
        "type": "note_on",
        "time": 15,
        "note": 60,
        "velocity": 100,
        "channel": 2
      },
      {
        "type": "note_on",
        "time": 45,
        "note": 60,
        "velocity": 0,
        "channel": 2
      },
      {
        "type": "note_on",
        "time": 15,
        "note": 48,
        "velocity": 100,
        "channel": 2
      },
      {
        "type": "note_on",
        "time": 60,
        "note": 48,
        "velocity": 0,
        "channel": 2
      },
      {
        "type": "note_on",
        "time": 30,
        "note": 48,
        "velocity": 100,
        "channel": 2
      },
      {
        "type": "note_on",
        "time": 45,
        "note": 48,
        "velocity": 0,
        "channel": 2
      },
      {
        "type": "note_on",
        "time": 15,
        "note": 48,
        "velocity": 100,
        "channel": 2
      },
      {
        "type": "note_on",
        "time": 45,
        "note": 48,
        "velocity": 0,
        "channel": 2
      },
      {
        "type": "note_on",
        "time": 15,
        "note": 48,
        "velocity": 100,
        "channel": 2
      },
      {
        "type": "note_on",
        "time": 30,
        "note": 48,
        "velocity": 0,
        "channel": 2
      },
      {
        "type": "note_on",
        "time": 0,
        "note": 48,
        "velocity": 100,
        "channel": 2
      },
      {
        "type": "note_on",
        "time": 30,
        "note": 48,
        "velocity": 0,
        "channel": 2
      },
      {
        "type": "note_on",
        "time": 0,
        "note": 50,
        "velocity": 100,
        "channel": 2
      },
      {
        "type": "note_on",
        "time": 30,
        "note": 50,
        "velocity": 0,
        "channel": 2
      },
      {
        "type": "note_on",
        "time": 0,
        "note": 40,
        "velocity": 100,
        "channel": 2
      },
      {
        "type": "note_on",
        "time": 30,
        "note": 40,
        "velocity": 0,
        "channel": 2
      },
      {
        "type": "note_on",
        "time": 30,
        "note": 50,
        "velocity": 100,
        "channel": 2
      },
      {
        "type": "note_on",
        "time": 45,
        "note": 50,
        "velocity": 0,
        "channel": 2
      },
      {
        "type": "note_on",
        "time": 15,
        "note": 52,
        "velocity": 100,
        "channel": 2
      },
      {
        "type": "note_on",
        "time": 45,
        "note": 52,
        "velocity": 0,
        "channel": 2
      },
      {
        "type": "note_on",
        "time": 15,
        "note": 40,
        "velocity": 100,
        "channel": 2
      },
      {
        "type": "note_on",
        "time": 30,
        "note": 40,
        "velocity": 0,
        "channel": 2
      },
      {
        "type": "note_on",
        "time": 0,
        "note": 40,
        "velocity": 100,
        "channel": 2
      },
      {
        "type": "note_on",
        "time": 30,
        "note": 40,
        "velocity": 0,
        "channel": 2
      },
      {
        "type": "note_on",
        "time": 0,
        "note": 40,
        "velocity": 100,
        "channel": 2
      },
      {
        "type": "note_on",
        "time": 30,
        "note": 40,
        "velocity": 0,
        "channel": 2
      },
      {
        "type": "note_on",
        "time": 0,
        "note": 50,
        "velocity": 100,
        "channel": 2
      },
      {
        "type": "note_on",
        "time": 45,
        "note": 50,
        "velocity": 0,
        "channel": 2
      },
      {
        "type": "note_on",
        "time": 15,
        "note": 52,
        "velocity": 100,
        "channel": 2
      },
      {
        "type": "note_on",
        "time": 45,
        "note": 52,
        "velocity": 0,
        "channel": 2
      },
      {
        "type": "note_on",
        "time": 15,
        "note": 52,
        "velocity": 100,
        "channel": 2
      },
      {
        "type": "note_on",
        "time": 30,
        "note": 52,
        "velocity": 0,
        "channel": 2
      },
      {
        "type": "note_on",
        "time": 0,
        "note": 40,
        "velocity": 100,
        "channel": 2
      },
      {
        "type": "note_on",
        "time": 30,
        "note": 40,
        "velocity": 0,
        "channel": 2
      },
      {
        "type": "note_on",
        "time": 30,
        "note": 38,
        "velocity": 100,
        "channel": 2
      },
      {
        "type": "note_on",
        "time": 30,
        "note": 38,
        "velocity": 0,
        "channel": 2
      },
      {
        "type": "note_on",
        "time": 30,
        "note": 50,
        "velocity": 100,
        "channel": 2
      },
      {
        "type": "note_on",
        "time": 45,
        "note": 50,
        "velocity": 0,
        "channel": 2
      },
      {
        "type": "note_on",
        "time": 15,
        "note": 52,
        "velocity": 100,
        "channel": 2
      },
      {
        "type": "note_on",
        "time": 45,
        "note": 52,
        "velocity": 0,
        "channel": 2
      },
      {
        "type": "note_on",
        "time": 15,
        "note": 38,
        "velocity": 100,
        "channel": 2
      },
      {
        "type": "note_on",
        "time": 60,
        "note": 38,
        "velocity": 0,
        "channel": 2
      },
      {
        "type": "note_on",
        "time": 30,
        "note": 50,
        "velocity": 100,
        "channel": 2
      },
      {
        "type": "note_on",
        "time": 45,
        "note": 50,
        "velocity": 0,
        "channel": 2
      },
      {
        "type": "note_on",
        "time": 15,
        "note": 52,
        "velocity": 100,
        "channel": 2
      },
      {
        "type": "note_on",
        "time": 45,
        "note": 52,
        "velocity": 0,
        "channel": 2
      },
      {
        "type": "note_on",
        "time": 15,
        "note": 50,
        "velocity": 100,
        "channel": 2
      },
      {
        "type": "note_on",
        "time": 30,
        "note": 50,
        "velocity": 0,
        "channel": 2
      },
      {
        "type": "note_on",
        "time": 0,
        "note": 45,
        "velocity": 100,
        "channel": 2
      },
      {
        "type": "note_on",
        "time": 30,
        "note": 45,
        "velocity": 0,
        "channel": 2
      },
      {
        "type": "note_on",
        "time": 30,
        "note": 47,
        "velocity": 100,
        "channel": 2
      },
      {
        "type": "note_on",
        "time": 60,
        "note": 47,
        "velocity": 0,
        "channel": 2
      },
      {
        "type": "note_on",
        "time": 0,
        "note": 59,
        "velocity": 100,
        "channel": 2
      },
      {
        "type": "note_on",
        "time": 45,
        "note": 59,
        "velocity": 0,
        "channel": 2
      },
      {
        "type": "note_on",
        "time": 15,
        "note": 59,
        "velocity": 100,
        "channel": 2
      },
      {
        "type": "note_on",
        "time": 45,
        "note": 59,
        "velocity": 0,
        "channel": 2
      },
      {
        "type": "note_on",
        "time": 15,
        "note": 47,
        "velocity": 100,
        "channel": 2
      },
      {
        "type": "note_on",
        "time": 30,
        "note": 47,
        "velocity": 0,
        "channel": 2
      },
      {
        "type": "note_on",
        "time": 0,
        "note": 47,
        "velocity": 100,
        "channel": 2
      },
      {
        "type": "note_on",
        "time": 30,
        "note": 47,
        "velocity": 0,
        "channel": 2
      },
      {
        "type": "note_on",
        "time": 30,
        "note": 47,
        "velocity": 100,
        "channel": 2
      },
      {
        "type": "note_on",
        "time": 45,
        "note": 47,
        "velocity": 0,
        "channel": 2
      },
      {
        "type": "note_on",
        "time": 15,
        "note": 47,
        "velocity": 100,
        "channel": 2
      },
      {
        "type": "note_on",
        "time": 45,
        "note": 47,
        "velocity": 0,
        "channel": 2
      },
      {
        "type": "note_on",
        "time": 15,
        "note": 47,
        "velocity": 100,
        "channel": 2
      },
      {
        "type": "note_on",
        "time": 30,
        "note": 47,
        "velocity": 0,
        "channel": 2
      },
      {
        "type": "note_on",
        "time": 0,
        "note": 47,
        "velocity": 100,
        "channel": 2
      },
      {
        "type": "note_on",
        "time": 30,
        "note": 47,
        "velocity": 0,
        "channel": 2
      },
      {
        "type": "note_on",
        "time": 0,
        "note": 47,
        "velocity": 100,
        "channel": 2
      },
      {
        "type": "note_on",
        "time": 30,
        "note": 47,
        "velocity": 0,
        "channel": 2
      },
      {
        "type": "note_on",
        "time": 0,
        "note": 48,
        "velocity": 100,
        "channel": 2
      },
      {
        "type": "note_on",
        "time": 60,
        "note": 48,
        "velocity": 0,
        "channel": 2
      },
      {
        "type": "note_on",
        "time": 0,
        "note": 60,
        "velocity": 100,
        "channel": 2
      },
      {
        "type": "note_on",
        "time": 45,
        "note": 60,
        "velocity": 0,
        "channel": 2
      },
      {
        "type": "note_on",
        "time": 15,
        "note": 60,
        "velocity": 100,
        "channel": 2
      },
      {
        "type": "note_on",
        "time": 45,
        "note": 60,
        "velocity": 0,
        "channel": 2
      },
      {
        "type": "note_on",
        "time": 15,
        "note": 48,
        "velocity": 100,
        "channel": 2
      },
      {
        "type": "note_on",
        "time": 60,
        "note": 48,
        "velocity": 0,
        "channel": 2
      },
      {
        "type": "note_on",
        "time": 30,
        "note": 48,
        "velocity": 100,
        "channel": 2
      },
      {
        "type": "note_on",
        "time": 45,
        "note": 48,
        "velocity": 0,
        "channel": 2
      },
      {
        "type": "note_on",
        "time": 15,
        "note": 48,
        "velocity": 100,
        "channel": 2
      },
      {
        "type": "note_on",
        "time": 45,
        "note": 48,
        "velocity": 0,
        "channel": 2
      },
      {
        "type": "note_on",
        "time": 15,
        "note": 48,
        "velocity": 100,
        "channel": 2
      },
      {
        "type": "note_on",
        "time": 30,
        "note": 48,
        "velocity": 0,
        "channel": 2
      },
      {
        "type": "note_on",
        "time": 0,
        "note": 48,
        "velocity": 100,
        "channel": 2
      },
      {
        "type": "note_on",
        "time": 30,
        "note": 48,
        "velocity": 0,
        "channel": 2
      },
      {
        "type": "note_on",
        "time": 0,
        "note": 50,
        "velocity": 100,
        "channel": 2
      },
      {
        "type": "note_on",
        "time": 30,
        "note": 50,
        "velocity": 0,
        "channel": 2
      },
      {
        "type": "note_on",
        "time": 0,
        "note": 40,
        "velocity": 100,
        "channel": 2
      },
      {
        "type": "note_on",
        "time": 30,
        "note": 40,
        "velocity": 0,
        "channel": 2
      },
      {
        "type": "note_on",
        "time": 30,
        "note": 50,
        "velocity": 100,
        "channel": 2
      },
      {
        "type": "note_on",
        "time": 45,
        "note": 50,
        "velocity": 0,
        "channel": 2
      },
      {
        "type": "note_on",
        "time": 15,
        "note": 52,
        "velocity": 100,
        "channel": 2
      },
      {
        "type": "note_on",
        "time": 45,
        "note": 52,
        "velocity": 0,
        "channel": 2
      },
      {
        "type": "note_on",
        "time": 15,
        "note": 40,
        "velocity": 100,
        "channel": 2
      },
      {
        "type": "note_on",
        "time": 30,
        "note": 40,
        "velocity": 0,
        "channel": 2
      },
      {
        "type": "note_on",
        "time": 0,
        "note": 40,
        "velocity": 100,
        "channel": 2
      },
      {
        "type": "note_on",
        "time": 30,
        "note": 40,
        "velocity": 0,
        "channel": 2
      },
      {
        "type": "note_on",
        "time": 0,
        "note": 40,
        "velocity": 100,
        "channel": 2
      },
      {
        "type": "note_on",
        "time": 30,
        "note": 40,
        "velocity": 0,
        "channel": 2
      },
      {
        "type": "note_on",
        "time": 0,
        "note": 50,
        "velocity": 100,
        "channel": 2
      },
      {
        "type": "note_on",
        "time": 45,
        "note": 50,
        "velocity": 0,
        "channel": 2
      },
      {
        "type": "note_on",
        "time": 15,
        "note": 52,
        "velocity": 100,
        "channel": 2
      },
      {
        "type": "note_on",
        "time": 45,
        "note": 52,
        "velocity": 0,
        "channel": 2
      },
      {
        "type": "note_on",
        "time": 15,
        "note": 52,
        "velocity": 100,
        "channel": 2
      },
      {
        "type": "note_on",
        "time": 30,
        "note": 52,
        "velocity": 0,
        "channel": 2
      },
      {
        "type": "note_on",
        "time": 0,
        "note": 40,
        "velocity": 100,
        "channel": 2
      },
      {
        "type": "note_on",
        "time": 30,
        "note": 40,
        "velocity": 0,
        "channel": 2
      },
      {
        "type": "note_on",
        "time": 30,
        "note": 38,
        "velocity": 100,
        "channel": 2
      },
      {
        "type": "note_on",
        "time": 30,
        "note": 38,
        "velocity": 0,
        "channel": 2
      },
      {
        "type": "note_on",
        "time": 30,
        "note": 50,
        "velocity": 100,
        "channel": 2
      },
      {
        "type": "note_on",
        "time": 45,
        "note": 50,
        "velocity": 0,
        "channel": 2
      },
      {
        "type": "note_on",
        "time": 15,
        "note": 52,
        "velocity": 100,
        "channel": 2
      },
      {
        "type": "note_on",
        "time": 45,
        "note": 52,
        "velocity": 0,
        "channel": 2
      },
      {
        "type": "note_on",
        "time": 15,
        "note": 38,
        "velocity": 100,
        "channel": 2
      },
      {
        "type": "note_on",
        "time": 60,
        "note": 38,
        "velocity": 0,
        "channel": 2
      },
      {
        "type": "note_on",
        "time": 30,
        "note": 50,
        "velocity": 100,
        "channel": 2
      },
      {
        "type": "note_on",
        "time": 45,
        "note": 50,
        "velocity": 0,
        "channel": 2
      },
      {
        "type": "note_on",
        "time": 15,
        "note": 52,
        "velocity": 100,
        "channel": 2
      },
      {
        "type": "note_on",
        "time": 45,
        "note": 52,
        "velocity": 0,
        "channel": 2
      },
      {
        "type": "note_on",
        "time": 15,
        "note": 50,
        "velocity": 100,
        "channel": 2
      },
      {
        "type": "note_on",
        "time": 30,
        "note": 50,
        "velocity": 0,
        "channel": 2
      },
      {
        "type": "note_on",
        "time": 0,
        "note": 45,
        "velocity": 100,
        "channel": 2
      },
      {
        "type": "note_on",
        "time": 30,
        "note": 45,
        "velocity": 0,
        "channel": 2
      },
      {
        "type": "note_on",
        "time": 30,
        "note": 47,
        "velocity": 100,
        "channel": 2
      },
      {
        "type": "note_on",
        "time": 60,
        "note": 47,
        "velocity": 0,
        "channel": 2
      },
      {
        "type": "note_on",
        "time": 0,
        "note": 59,
        "velocity": 100,
        "channel": 2
      },
      {
        "type": "note_on",
        "time": 45,
        "note": 59,
        "velocity": 0,
        "channel": 2
      },
      {
        "type": "note_on",
        "time": 15,
        "note": 59,
        "velocity": 100,
        "channel": 2
      },
      {
        "type": "note_on",
        "time": 45,
        "note": 59,
        "velocity": 0,
        "channel": 2
      },
      {
        "type": "note_on",
        "time": 15,
        "note": 47,
        "velocity": 100,
        "channel": 2
      },
      {
        "type": "note_on",
        "time": 30,
        "note": 47,
        "velocity": 0,
        "channel": 2
      },
      {
        "type": "note_on",
        "time": 0,
        "note": 47,
        "velocity": 100,
        "channel": 2
      },
      {
        "type": "note_on",
        "time": 30,
        "note": 47,
        "velocity": 0,
        "channel": 2
      },
      {
        "type": "note_on",
        "time": 30,
        "note": 47,
        "velocity": 100,
        "channel": 2
      },
      {
        "type": "note_on",
        "time": 45,
        "note": 47,
        "velocity": 0,
        "channel": 2
      },
      {
        "type": "note_on",
        "time": 15,
        "note": 47,
        "velocity": 100,
        "channel": 2
      },
      {
        "type": "note_on",
        "time": 45,
        "note": 47,
        "velocity": 0,
        "channel": 2
      },
      {
        "type": "note_on",
        "time": 15,
        "note": 47,
        "velocity": 100,
        "channel": 2
      },
      {
        "type": "note_on",
        "time": 30,
        "note": 47,
        "velocity": 0,
        "channel": 2
      },
      {
        "type": "note_on",
        "time": 0,
        "note": 47,
        "velocity": 100,
        "channel": 2
      },
      {
        "type": "note_on",
        "time": 30,
        "note": 47,
        "velocity": 0,
        "channel": 2
      },
      {
        "type": "note_on",
        "time": 0,
        "note": 47,
        "velocity": 100,
        "channel": 2
      },
      {
        "type": "note_on",
        "time": 30,
        "note": 47,
        "velocity": 0,
        "channel": 2
      },
      {
        "type": "note_on",
        "time": 0,
        "note": 48,
        "velocity": 100,
        "channel": 2
      },
      {
        "type": "note_on",
        "time": 60,
        "note": 48,
        "velocity": 0,
        "channel": 2
      },
      {
        "type": "note_on",
        "time": 0,
        "note": 60,
        "velocity": 100,
        "channel": 2
      },
      {
        "type": "note_on",
        "time": 45,
        "note": 60,
        "velocity": 0,
        "channel": 2
      },
      {
        "type": "note_on",
        "time": 15,
        "note": 60,
        "velocity": 100,
        "channel": 2
      },
      {
        "type": "note_on",
        "time": 45,
        "note": 60,
        "velocity": 0,
        "channel": 2
      },
      {
        "type": "note_on",
        "time": 15,
        "note": 48,
        "velocity": 100,
        "channel": 2
      },
      {
        "type": "note_on",
        "time": 60,
        "note": 48,
        "velocity": 0,
        "channel": 2
      },
      {
        "type": "note_on",
        "time": 30,
        "note": 48,
        "velocity": 100,
        "channel": 2
      },
      {
        "type": "note_on",
        "time": 45,
        "note": 48,
        "velocity": 0,
        "channel": 2
      },
      {
        "type": "note_on",
        "time": 15,
        "note": 48,
        "velocity": 100,
        "channel": 2
      },
      {
        "type": "note_on",
        "time": 45,
        "note": 48,
        "velocity": 0,
        "channel": 2
      },
      {
        "type": "note_on",
        "time": 15,
        "note": 48,
        "velocity": 100,
        "channel": 2
      },
      {
        "type": "note_on",
        "time": 30,
        "note": 48,
        "velocity": 0,
        "channel": 2
      },
      {
        "type": "note_on",
        "time": 0,
        "note": 48,
        "velocity": 100,
        "channel": 2
      },
      {
        "type": "note_on",
        "time": 30,
        "note": 48,
        "velocity": 0,
        "channel": 2
      },
      {
        "type": "note_on",
        "time": 0,
        "note": 50,
        "velocity": 100,
        "channel": 2
      },
      {
        "type": "note_on",
        "time": 30,
        "note": 50,
        "velocity": 0,
        "channel": 2
      },
      {
        "type": "note_on",
        "time": 0,
        "note": 43,
        "velocity": 100,
        "channel": 2
      },
      {
        "type": "note_on",
        "time": 75,
        "note": 43,
        "velocity": 0,
        "channel": 2
      },
      {
        "type": "note_on",
        "time": 15,
        "note": 47,
        "velocity": 100,
        "channel": 2
      },
      {
        "type": "note_on",
        "time": 30,
        "note": 47,
        "velocity": 0,
        "channel": 2
      },
      {
        "type": "note_on",
        "time": 0,
        "note": 48,
        "velocity": 100,
        "channel": 2
      },
      {
        "type": "note_on",
        "time": 30,
        "note": 48,
        "velocity": 0,
        "channel": 2
      },
      {
        "type": "note_on",
        "time": 0,
        "note": 49,
        "velocity": 100,
        "channel": 2
      },
      {
        "type": "note_on",
        "time": 30,
        "note": 49,
        "velocity": 0,
        "channel": 2
      },
      {
        "type": "note_on",
        "time": 0,
        "note": 50,
        "velocity": 100,
        "channel": 2
      },
      {
        "type": "note_on",
        "time": 120,
        "note": 50,
        "velocity": 0,
        "channel": 2
      },
      {
        "type": "note_on",
        "time": 0,
        "note": 50,
        "velocity": 100,
        "channel": 2
      },
      {
        "type": "note_on",
        "time": 60,
        "note": 50,
        "velocity": 0,
        "channel": 2
      },
      {
        "type": "note_on",
        "time": 0,
        "note": 50,
        "velocity": 100,
        "channel": 2
      },
      {
        "type": "note_on",
        "time": 60,
        "note": 50,
        "velocity": 0,
        "channel": 2
      },
      {
        "type": "note_on",
        "time": 60,
        "note": 47,
        "velocity": 100,
        "channel": 2
      },
      {
        "type": "note_on",
        "time": 60,
        "note": 47,
        "velocity": 0,
        "channel": 2
      },
      {
        "type": "note_on",
        "time": 30,
        "note": 45,
        "velocity": 100,
        "channel": 2
      },
      {
        "type": "note_on",
        "time": 30,
        "note": 45,
        "velocity": 0,
        "channel": 2
      },
      {
        "type": "note_on",
        "time": 0,
        "note": 47,
        "velocity": 100,
        "channel": 2
      },
      {
        "type": "note_on",
        "time": 30,
        "note": 47,
        "velocity": 0,
        "channel": 2
      },
      {
        "type": "note_on",
        "time": 0,
        "note": 45,
        "velocity": 100,
        "channel": 2
      },
      {
        "type": "note_on",
        "time": 30,
        "note": 45,
        "velocity": 0,
        "channel": 2
      },
      {
        "type": "note_on",
        "time": 0,
        "note": 48,
        "velocity": 100,
        "channel": 2
      },
      {
        "type": "note_on",
        "time": 60,
        "note": 48,
        "velocity": 0,
        "channel": 2
      },
      {
        "type": "note_on",
        "time": 60,
        "note": 48,
        "velocity": 100,
        "channel": 2
      },
      {
        "type": "note_on",
        "time": 60,
        "note": 48,
        "velocity": 0,
        "channel": 2
      },
      {
        "type": "note_on",
        "time": 0,
        "note": 47,
        "velocity": 100,
        "channel": 2
      },
      {
        "type": "note_on",
        "time": 30,
        "note": 47,
        "velocity": 0,
        "channel": 2
      },
      {
        "type": "note_on",
        "time": 0,
        "note": 48,
        "velocity": 100,
        "channel": 2
      },
      {
        "type": "note_on",
        "time": 30,
        "note": 48,
        "velocity": 0,
        "channel": 2
      },
      {
        "type": "note_on",
        "time": 0,
        "note": 47,
        "velocity": 100,
        "channel": 2
      },
      {
        "type": "note_on",
        "time": 60,
        "note": 47,
        "velocity": 0,
        "channel": 2
      },
      {
        "type": "note_on",
        "time": 0,
        "note": 43,
        "velocity": 100,
        "channel": 2
      },
      {
        "type": "note_on",
        "time": 75,
        "note": 43,
        "velocity": 0,
        "channel": 2
      },
      {
        "type": "note_on",
        "time": 15,
        "note": 47,
        "velocity": 100,
        "channel": 2
      },
      {
        "type": "note_on",
        "time": 30,
        "note": 47,
        "velocity": 0,
        "channel": 2
      },
      {
        "type": "note_on",
        "time": 0,
        "note": 48,
        "velocity": 100,
        "channel": 2
      },
      {
        "type": "note_on",
        "time": 30,
        "note": 48,
        "velocity": 0,
        "channel": 2
      },
      {
        "type": "note_on",
        "time": 0,
        "note": 49,
        "velocity": 100,
        "channel": 2
      },
      {
        "type": "note_on",
        "time": 30,
        "note": 49,
        "velocity": 0,
        "channel": 2
      },
      {
        "type": "note_on",
        "time": 0,
        "note": 50,
        "velocity": 100,
        "channel": 2
      },
      {
        "type": "note_on",
        "time": 120,
        "note": 50,
        "velocity": 0,
        "channel": 2
      },
      {
        "type": "note_on",
        "time": 0,
        "note": 50,
        "velocity": 100,
        "channel": 2
      },
      {
        "type": "note_on",
        "time": 60,
        "note": 50,
        "velocity": 0,
        "channel": 2
      },
      {
        "type": "note_on",
        "time": 0,
        "note": 50,
        "velocity": 100,
        "channel": 2
      },
      {
        "type": "note_on",
        "time": 60,
        "note": 50,
        "velocity": 0,
        "channel": 2
      },
      {
        "type": "note_on",
        "time": 60,
        "note": 47,
        "velocity": 100,
        "channel": 2
      },
      {
        "type": "note_on",
        "time": 90,
        "note": 47,
        "velocity": 0,
        "channel": 2
      },
      {
        "type": "note_on",
        "time": 0,
        "note": 55,
        "velocity": 100,
        "channel": 2
      },
      {
        "type": "note_on",
        "time": 30,
        "note": 55,
        "velocity": 0,
        "channel": 2
      },
      {
        "type": "note_on",
        "time": 0,
        "note": 55,
        "velocity": 100,
        "channel": 2
      },
      {
        "type": "note_on",
        "time": 60,
        "note": 55,
        "velocity": 0,
        "channel": 2
      },
      {
        "type": "note_on",
        "time": 0,
        "note": 48,
        "velocity": 100,
        "channel": 2
      },
      {
        "type": "note_on",
        "time": 120,
        "note": 48,
        "velocity": 0,
        "channel": 2
      },
      {
        "type": "note_on",
        "time": 0,
        "note": 48,
        "velocity": 100,
        "channel": 2
      },
      {
        "type": "note_on",
        "time": 60,
        "note": 48,
        "velocity": 0,
        "channel": 2
      },
      {
        "type": "note_on",
        "time": 0,
        "note": 47,
        "velocity": 100,
        "channel": 2
      },
      {
        "type": "note_on",
        "time": 60,
        "note": 47,
        "velocity": 0,
        "channel": 2
      },
      {
        "type": "note_on",
        "time": 0,
        "note": 45,
        "velocity": 100,
        "channel": 2
      },
      {
        "type": "note_on",
        "time": 60,
        "note": 45,
        "velocity": 0,
        "channel": 2
      },
      {
        "type": "note_on",
        "time": 0,
        "note": 43,
        "velocity": 100,
        "channel": 2
      },
      {
        "type": "note_on",
        "time": 75,
        "note": 43,
        "velocity": 0,
        "channel": 2
      },
      {
        "type": "note_on",
        "time": 15,
        "note": 47,
        "velocity": 100,
        "channel": 2
      },
      {
        "type": "note_on",
        "time": 30,
        "note": 47,
        "velocity": 0,
        "channel": 2
      },
      {
        "type": "note_on",
        "time": 0,
        "note": 48,
        "velocity": 100,
        "channel": 2
      },
      {
        "type": "note_on",
        "time": 30,
        "note": 48,
        "velocity": 0,
        "channel": 2
      },
      {
        "type": "note_on",
        "time": 0,
        "note": 49,
        "velocity": 100,
        "channel": 2
      },
      {
        "type": "note_on",
        "time": 30,
        "note": 49,
        "velocity": 0,
        "channel": 2
      },
      {
        "type": "note_on",
        "time": 0,
        "note": 50,
        "velocity": 100,
        "channel": 2
      },
      {
        "type": "note_on",
        "time": 120,
        "note": 50,
        "velocity": 0,
        "channel": 2
      },
      {
        "type": "note_on",
        "time": 0,
        "note": 50,
        "velocity": 100,
        "channel": 2
      },
      {
        "type": "note_on",
        "time": 60,
        "note": 50,
        "velocity": 0,
        "channel": 2
      },
      {
        "type": "note_on",
        "time": 0,
        "note": 50,
        "velocity": 100,
        "channel": 2
      },
      {
        "type": "note_on",
        "time": 60,
        "note": 50,
        "velocity": 0,
        "channel": 2
      },
      {
        "type": "note_on",
        "time": 60,
        "note": 47,
        "velocity": 100,
        "channel": 2
      },
      {
        "type": "note_on",
        "time": 60,
        "note": 47,
        "velocity": 0,
        "channel": 2
      },
      {
        "type": "note_on",
        "time": 30,
        "note": 45,
        "velocity": 100,
        "channel": 2
      },
      {
        "type": "note_on",
        "time": 30,
        "note": 45,
        "velocity": 0,
        "channel": 2
      },
      {
        "type": "note_on",
        "time": 0,
        "note": 47,
        "velocity": 100,
        "channel": 2
      },
      {
        "type": "note_on",
        "time": 30,
        "note": 47,
        "velocity": 0,
        "channel": 2
      },
      {
        "type": "note_on",
        "time": 0,
        "note": 45,
        "velocity": 100,
        "channel": 2
      },
      {
        "type": "note_on",
        "time": 30,
        "note": 45,
        "velocity": 0,
        "channel": 2
      },
      {
        "type": "note_on",
        "time": 0,
        "note": 48,
        "velocity": 100,
        "channel": 2
      },
      {
        "type": "note_on",
        "time": 60,
        "note": 48,
        "velocity": 0,
        "channel": 2
      },
      {
        "type": "note_on",
        "time": 60,
        "note": 48,
        "velocity": 100,
        "channel": 2
      },
      {
        "type": "note_on",
        "time": 60,
        "note": 48,
        "velocity": 0,
        "channel": 2
      },
      {
        "type": "note_on",
        "time": 0,
        "note": 47,
        "velocity": 100,
        "channel": 2
      },
      {
        "type": "note_on",
        "time": 30,
        "note": 47,
        "velocity": 0,
        "channel": 2
      },
      {
        "type": "note_on",
        "time": 0,
        "note": 48,
        "velocity": 100,
        "channel": 2
      },
      {
        "type": "note_on",
        "time": 30,
        "note": 48,
        "velocity": 0,
        "channel": 2
      },
      {
        "type": "note_on",
        "time": 0,
        "note": 47,
        "velocity": 100,
        "channel": 2
      },
      {
        "type": "note_on",
        "time": 60,
        "note": 47,
        "velocity": 0,
        "channel": 2
      },
      {
        "type": "note_on",
        "time": 0,
        "note": 43,
        "velocity": 100,
        "channel": 2
      },
      {
        "type": "note_on",
        "time": 75,
        "note": 43,
        "velocity": 0,
        "channel": 2
      },
      {
        "type": "note_on",
        "time": 15,
        "note": 47,
        "velocity": 100,
        "channel": 2
      },
      {
        "type": "note_on",
        "time": 30,
        "note": 47,
        "velocity": 0,
        "channel": 2
      },
      {
        "type": "note_on",
        "time": 0,
        "note": 48,
        "velocity": 100,
        "channel": 2
      },
      {
        "type": "note_on",
        "time": 30,
        "note": 48,
        "velocity": 0,
        "channel": 2
      },
      {
        "type": "note_on",
        "time": 0,
        "note": 49,
        "velocity": 100,
        "channel": 2
      },
      {
        "type": "note_on",
        "time": 30,
        "note": 49,
        "velocity": 0,
        "channel": 2
      },
      {
        "type": "note_on",
        "time": 0,
        "note": 50,
        "velocity": 100,
        "channel": 2
      },
      {
        "type": "note_on",
        "time": 120,
        "note": 50,
        "velocity": 0,
        "channel": 2
      },
      {
        "type": "note_on",
        "time": 0,
        "note": 50,
        "velocity": 100,
        "channel": 2
      },
      {
        "type": "note_on",
        "time": 60,
        "note": 50,
        "velocity": 0,
        "channel": 2
      },
      {
        "type": "note_on",
        "time": 0,
        "note": 50,
        "velocity": 100,
        "channel": 2
      },
      {
        "type": "note_on",
        "time": 60,
        "note": 50,
        "velocity": 0,
        "channel": 2
      },
      {
        "type": "note_on",
        "time": 60,
        "note": 47,
        "velocity": 100,
        "channel": 2
      },
      {
        "type": "note_on",
        "time": 120,
        "note": 47,
        "velocity": 0,
        "channel": 2
      },
      {
        "type": "note_on",
        "time": 0,
        "note": 48,
        "velocity": 100,
        "channel": 2
      },
      {
        "type": "note_on",
        "time": 360,
        "note": 48,
        "velocity": 0,
        "channel": 2
      },
      {
        "type": "note_on",
        "time": 0,
        "note": 52,
        "velocity": 100,
        "channel": 2
      },
      {
        "type": "note_on",
        "time": 60,
        "note": 55,
        "velocity": 100,
        "channel": 2
      },
      {
        "type": "note_on",
        "time": 30,
        "note": 52,
        "velocity": 0,
        "channel": 2
      },
      {
        "type": "note_on",
        "time": 30,
        "note": 55,
        "velocity": 0,
        "channel": 2
      },
      {
        "type": "note_on",
        "time": 0,
        "note": 64,
        "velocity": 100,
        "channel": 2
      },
      {
        "type": "note_on",
        "time": 60,
        "note": 52,
        "velocity": 100,
        "channel": 2
      },
      {
        "type": "note_on",
        "time": 30,
        "note": 64,
        "velocity": 0,
        "channel": 2
      },
      {
        "type": "note_on",
        "time": 30,
        "note": 52,
        "velocity": 0,
        "channel": 2
      },
      {
        "type": "note_on",
        "time": 240,
        "note": 62,
        "velocity": 100,
        "channel": 2
      },
      {
        "type": "note_on",
        "time": 60,
        "note": 62,
        "velocity": 0,
        "channel": 2
      },
      {
        "type": "note_on",
        "time": 0,
        "note": 57,
        "velocity": 100,
        "channel": 2
      },
      {
        "type": "note_on",
        "time": 60,
        "note": 57,
        "velocity": 0,
        "channel": 2
      },
      {
        "type": "note_on",
        "time": 0,
        "note": 50,
        "velocity": 100,
        "channel": 2
      },
      {
        "type": "note_on",
        "time": 90,
        "note": 50,
        "velocity": 0,
        "channel": 2
      },
      {
        "type": "note_on",
        "time": 30,
        "note": 62,
        "velocity": 100,
        "channel": 2
      },
      {
        "type": "note_on",
        "time": 60,
        "note": 62,
        "velocity": 0,
        "channel": 2
      },
      {
        "type": "note_on",
        "time": 180,
        "note": 47,
        "velocity": 100,
        "channel": 2
      },
      {
        "type": "note_on",
        "time": 30,
        "note": 47,
        "velocity": 0,
        "channel": 2
      },
      {
        "type": "note_on",
        "time": 0,
        "note": 47,
        "velocity": 100,
        "channel": 2
      },
      {
        "type": "note_on",
        "time": 30,
        "note": 47,
        "velocity": 0,
        "channel": 2
      },
      {
        "type": "note_on",
        "time": 0,
        "note": 47,
        "velocity": 100,
        "channel": 2
      },
      {
        "type": "note_on",
        "time": 30,
        "note": 47,
        "velocity": 0,
        "channel": 2
      },
      {
        "type": "note_on",
        "time": 0,
        "note": 47,
        "velocity": 100,
        "channel": 2
      },
      {
        "type": "note_on",
        "time": 30,
        "note": 47,
        "velocity": 0,
        "channel": 2
      },
      {
        "type": "note_on",
        "time": 0,
        "note": 59,
        "velocity": 100,
        "channel": 2
      },
      {
        "type": "note_on",
        "time": 60,
        "note": 47,
        "velocity": 100,
        "channel": 2
      },
      {
        "type": "note_on",
        "time": 30,
        "note": 59,
        "velocity": 0,
        "channel": 2
      },
      {
        "type": "note_on",
        "time": 30,
        "note": 47,
        "velocity": 0,
        "channel": 2
      },
      {
        "type": "note_on",
        "time": 240,
        "note": 62,
        "velocity": 100,
        "channel": 2
      },
      {
        "type": "note_on",
        "time": 60,
        "note": 62,
        "velocity": 0,
        "channel": 2
      },
      {
        "type": "note_on",
        "time": 0,
        "note": 60,
        "velocity": 100,
        "channel": 2
      },
      {
        "type": "note_on",
        "time": 45,
        "note": 60,
        "velocity": 0,
        "channel": 2
      },
      {
        "type": "note_on",
        "time": 15,
        "note": 48,
        "velocity": 100,
        "channel": 2
      },
      {
        "type": "note_on",
        "time": 60,
        "note": 60,
        "velocity": 100,
        "channel": 2
      },
      {
        "type": "note_on",
        "time": 30,
        "note": 48,
        "velocity": 0,
        "channel": 2
      },
      {
        "type": "note_on",
        "time": 15,
        "note": 60,
        "velocity": 0,
        "channel": 2
      },
      {
        "type": "note_on",
        "time": 255,
        "note": 52,
        "velocity": 100,
        "channel": 2
      },
      {
        "type": "note_on",
        "time": 60,
        "note": 52,
        "velocity": 0,
        "channel": 2
      },
      {
        "type": "note_on",
        "time": 0,
        "note": 64,
        "velocity": 100,
        "channel": 2
      },
      {
        "type": "note_on",
        "time": 60,
        "note": 64,
        "velocity": 0,
        "channel": 2
      },
      {
        "type": "note_on",
        "time": 0,
        "note": 64,
        "velocity": 100,
        "channel": 2
      },
      {
        "type": "note_on",
        "time": 60,
        "note": 64,
        "velocity": 0,
        "channel": 2
      },
      {
        "type": "note_on",
        "time": 0,
        "note": 52,
        "velocity": 100,
        "channel": 2
      },
      {
        "type": "note_on",
        "time": 60,
        "note": 52,
        "velocity": 0,
        "channel": 2
      },
      {
        "type": "note_on",
        "time": 300,
        "note": 62,
        "velocity": 100,
        "channel": 2
      },
      {
        "type": "note_on",
        "time": 60,
        "note": 62,
        "velocity": 0,
        "channel": 2
      },
      {
        "type": "note_on",
        "time": 0,
        "note": 50,
        "velocity": 100,
        "channel": 2
      },
      {
        "type": "note_on",
        "time": 60,
        "note": 50,
        "velocity": 100,
        "channel": 2
      },
      {
        "type": "note_on",
        "time": 30,
        "note": 50,
        "velocity": 0,
        "channel": 2
      },
      {
        "type": "note_on",
        "time": 30,
        "note": 50,
        "velocity": 0,
        "channel": 2
      },
      {
        "type": "note_on",
        "time": 240,
        "note": 47,
        "velocity": 100,
        "channel": 2
      },
      {
        "type": "note_on",
        "time": 30,
        "note": 47,
        "velocity": 0,
        "channel": 2
      },
      {
        "type": "note_on",
        "time": 0,
        "note": 47,
        "velocity": 100,
        "channel": 2
      },
      {
        "type": "note_on",
        "time": 30,
        "note": 47,
        "velocity": 0,
        "channel": 2
      },
      {
        "type": "note_on",
        "time": 0,
        "note": 47,
        "velocity": 100,
        "channel": 2
      },
      {
        "type": "note_on",
        "time": 30,
        "note": 47,
        "velocity": 0,
        "channel": 2
      },
      {
        "type": "note_on",
        "time": 0,
        "note": 47,
        "velocity": 100,
        "channel": 2
      },
      {
        "type": "note_on",
        "time": 30,
        "note": 47,
        "velocity": 0,
        "channel": 2
      },
      {
        "type": "note_on",
        "time": 0,
        "note": 59,
        "velocity": 100,
        "channel": 2
      },
      {
        "type": "note_on",
        "time": 60,
        "note": 47,
        "velocity": 100,
        "channel": 2
      },
      {
        "type": "note_on",
        "time": 30,
        "note": 59,
        "velocity": 0,
        "channel": 2
      },
      {
        "type": "note_on",
        "time": 30,
        "note": 47,
        "velocity": 0,
        "channel": 2
      },
      {
        "type": "note_on",
        "time": 240,
        "note": 62,
        "velocity": 100,
        "channel": 2
      },
      {
        "type": "note_on",
        "time": 60,
        "note": 62,
        "velocity": 0,
        "channel": 2
      },
      {
        "type": "note_on",
        "time": 0,
        "note": 60,
        "velocity": 100,
        "channel": 2
      },
      {
        "type": "note_on",
        "time": 60,
        "note": 48,
        "velocity": 100,
        "channel": 2
      },
      {
        "type": "note_on",
        "time": 30,
        "note": 60,
        "velocity": 0,
        "channel": 2
      },
      {
        "type": "note_on",
        "time": 30,
        "note": 48,
        "velocity": 0,
        "channel": 2
      },
      {
        "type": "note_on",
        "time": 0,
        "note": 60,
        "velocity": 100,
        "channel": 2
      },
      {
        "type": "note_on",
        "time": 60,
        "note": 60,
        "velocity": 0,
        "channel": 2
      },
      {
        "type": "note_on",
        "time": 60,
        "note": 50,
        "velocity": 100,
        "channel": 2
      },
      {
        "type": "note_on",
        "time": 60,
        "note": 50,
        "velocity": 0,
        "channel": 2
      },
      {
        "type": "note_on",
        "time": 60,
        "note": 51,
        "velocity": 100,
        "channel": 2
      },
      {
        "type": "note_on",
        "time": 60,
        "note": 51,
        "velocity": 0,
        "channel": 2
      },
      {
        "type": "note_on",
        "time": 0,
        "note": 52,
        "velocity": 100,
        "channel": 2
      },
      {
        "type": "note_on",
        "time": 60,
        "note": 55,
        "velocity": 100,
        "channel": 2
      },
      {
        "type": "note_on",
        "time": 30,
        "note": 52,
        "velocity": 0,
        "channel": 2
      },
      {
        "type": "note_on",
        "time": 30,
        "note": 55,
        "velocity": 0,
        "channel": 2
      },
      {
        "type": "note_on",
        "time": 0,
        "note": 64,
        "velocity": 100,
        "channel": 2
      },
      {
        "type": "note_on",
        "time": 60,
        "note": 52,
        "velocity": 100,
        "channel": 2
      },
      {
        "type": "note_on",
        "time": 30,
        "note": 64,
        "velocity": 0,
        "channel": 2
      },
      {
        "type": "note_on",
        "time": 30,
        "note": 52,
        "velocity": 0,
        "channel": 2
      },
      {
        "type": "note_on",
        "time": 240,
        "note": 62,
        "velocity": 100,
        "channel": 2
      },
      {
        "type": "note_on",
        "time": 60,
        "note": 62,
        "velocity": 0,
        "channel": 2
      },
      {
        "type": "note_on",
        "time": 0,
        "note": 50,
        "velocity": 100,
        "channel": 2
      },
      {
        "type": "note_on",
        "time": 60,
        "note": 50,
        "velocity": 0,
        "channel": 2
      },
      {
        "type": "note_on",
        "time": 0,
        "note": 45,
        "velocity": 100,
        "channel": 2
      },
      {
        "type": "note_on",
        "time": 60,
        "note": 50,
        "velocity": 100,
        "channel": 2
      },
      {
        "type": "note_on",
        "time": 30,
        "note": 45,
        "velocity": 0,
        "channel": 2
      },
      {
        "type": "note_on",
        "time": 30,
        "note": 50,
        "velocity": 0,
        "channel": 2
      },
      {
        "type": "note_on",
        "time": 240,
        "note": 47,
        "velocity": 100,
        "channel": 2
      },
      {
        "type": "note_on",
        "time": 30,
        "note": 47,
        "velocity": 0,
        "channel": 2
      },
      {
        "type": "note_on",
        "time": 0,
        "note": 47,
        "velocity": 100,
        "channel": 2
      },
      {
        "type": "note_on",
        "time": 30,
        "note": 47,
        "velocity": 0,
        "channel": 2
      },
      {
        "type": "note_on",
        "time": 0,
        "note": 47,
        "velocity": 100,
        "channel": 2
      },
      {
        "type": "note_on",
        "time": 30,
        "note": 47,
        "velocity": 0,
        "channel": 2
      },
      {
        "type": "note_on",
        "time": 0,
        "note": 47,
        "velocity": 100,
        "channel": 2
      },
      {
        "type": "note_on",
        "time": 30,
        "note": 47,
        "velocity": 0,
        "channel": 2
      },
      {
        "type": "note_on",
        "time": 0,
        "note": 59,
        "velocity": 100,
        "channel": 2
      },
      {
        "type": "note_on",
        "time": 60,
        "note": 47,
        "velocity": 100,
        "channel": 2
      },
      {
        "type": "note_on",
        "time": 30,
        "note": 47,
        "velocity": 0,
        "channel": 2
      },
      {
        "type": "note_on",
        "time": 0,
        "note": 59,
        "velocity": 0,
        "channel": 2
      },
      {
        "type": "note_on",
        "time": 270,
        "note": 62,
        "velocity": 100,
        "channel": 2
      },
      {
        "type": "note_on",
        "time": 60,
        "note": 62,
        "velocity": 0,
        "channel": 2
      },
      {
        "type": "note_on",
        "time": 0,
        "note": 60,
        "velocity": 100,
        "channel": 2
      },
      {
        "type": "note_on",
        "time": 45,
        "note": 60,
        "velocity": 0,
        "channel": 2
      },
      {
        "type": "note_on",
        "time": 15,
        "note": 48,
        "velocity": 100,
        "channel": 2
      },
      {
        "type": "note_on",
        "time": 60,
        "note": 60,
        "velocity": 100,
        "channel": 2
      },
      {
        "type": "note_on",
        "time": 30,
        "note": 48,
        "velocity": 0,
        "channel": 2
      },
      {
        "type": "note_on",
        "time": 15,
        "note": 60,
        "velocity": 0,
        "channel": 2
      },
      {
        "type": "note_on",
        "time": 45,
        "note": 55,
        "velocity": 100,
        "channel": 2
      },
      {
        "type": "note_on",
        "time": 30,
        "note": 55,
        "velocity": 0,
        "channel": 2
      },
      {
        "type": "note_on",
        "time": 30,
        "note": 57,
        "velocity": 100,
        "channel": 2
      },
      {
        "type": "note_on",
        "time": 30,
        "note": 57,
        "velocity": 0,
        "channel": 2
      },
      {
        "type": "note_on",
        "time": 60,
        "note": 50,
        "velocity": 100,
        "channel": 2
      },
      {
        "type": "note_on",
        "time": 30,
        "note": 50,
        "velocity": 0,
        "channel": 2
      },
      {
        "type": "note_on",
        "time": 0,
        "note": 51,
        "velocity": 100,
        "channel": 2
      },
      {
        "type": "note_on",
        "time": 30,
        "note": 51,
        "velocity": 0,
        "channel": 2
      },
      {
        "type": "note_on",
        "time": 0,
        "note": 52,
        "velocity": 100,
        "channel": 2
      },
      {
        "type": "note_on",
        "time": 60,
        "note": 52,
        "velocity": 0,
        "channel": 2
      },
      {
        "type": "note_on",
        "time": 0,
        "note": 55,
        "velocity": 100,
        "channel": 2
      },
      {
        "type": "note_on",
        "time": 60,
        "note": 55,
        "velocity": 0,
        "channel": 2
      },
      {
        "type": "note_on",
        "time": 0,
        "note": 64,
        "velocity": 100,
        "channel": 2
      },
      {
        "type": "note_on",
        "time": 60,
        "note": 64,
        "velocity": 0,
        "channel": 2
      },
      {
        "type": "note_on",
        "time": 0,
        "note": 52,
        "velocity": 100,
        "channel": 2
      },
      {
        "type": "note_on",
        "time": 60,
        "note": 52,
        "velocity": 0,
        "channel": 2
      },
      {
        "type": "note_on",
        "time": 300,
        "note": 62,
        "velocity": 100,
        "channel": 2
      },
      {
        "type": "note_on",
        "time": 60,
        "note": 62,
        "velocity": 0,
        "channel": 2
      },
      {
        "type": "note_on",
        "time": 0,
        "note": 50,
        "velocity": 100,
        "channel": 2
      },
      {
        "type": "note_on",
        "time": 60,
        "note": 62,
        "velocity": 100,
        "channel": 2
      },
      {
        "type": "note_on",
        "time": 30,
        "note": 50,
        "velocity": 0,
        "channel": 2
      },
      {
        "type": "note_on",
        "time": 30,
        "note": 62,
        "velocity": 0,
        "channel": 2
      },
      {
        "type": "note_on",
        "time": 240,
        "note": 47,
        "velocity": 100,
        "channel": 2
      },
      {
        "type": "note_on",
        "time": 60,
        "note": 47,
        "velocity": 0,
        "channel": 2
      },
      {
        "type": "note_on",
        "time": 0,
        "note": 47,
        "velocity": 100,
        "channel": 2
      },
      {
        "type": "note_on",
        "time": 60,
        "note": 47,
        "velocity": 0,
        "channel": 2
      },
      {
        "type": "note_on",
        "time": 0,
        "note": 59,
        "velocity": 100,
        "channel": 2
      },
      {
        "type": "note_on",
        "time": 60,
        "note": 47,
        "velocity": 100,
        "channel": 2
      },
      {
        "type": "note_on",
        "time": 30,
        "note": 59,
        "velocity": 0,
        "channel": 2
      },
      {
        "type": "note_on",
        "time": 30,
        "note": 47,
        "velocity": 0,
        "channel": 2
      },
      {
        "type": "note_on",
        "time": 180,
        "note": 47,
        "velocity": 100,
        "channel": 2
      },
      {
        "type": "note_on",
        "time": 60,
        "note": 47,
        "velocity": 0,
        "channel": 2
      },
      {
        "type": "note_on",
        "time": 0,
        "note": 62,
        "velocity": 100,
        "channel": 2
      },
      {
        "type": "note_on",
        "time": 60,
        "note": 62,
        "velocity": 0,
        "channel": 2
      },
      {
        "type": "note_on",
        "time": 0,
        "note": 60,
        "velocity": 100,
        "channel": 2
      },
      {
        "type": "note_on",
        "time": 60,
        "note": 60,
        "velocity": 0,
        "channel": 2
      },
      {
        "type": "note_on",
        "time": 0,
        "note": 48,
        "velocity": 100,
        "channel": 2
      },
      {
        "type": "note_on",
        "time": 210,
        "note": 48,
        "velocity": 0,
        "channel": 2
      },
      {
        "type": "note_on",
        "time": 150,
        "note": 40,
        "velocity": 100,
        "channel": 2
      },
      {
        "type": "note_on",
        "time": 30,
        "note": 40,
        "velocity": 0,
        "channel": 2
      },
      {
        "type": "note_on",
        "time": 30,
        "note": 50,
        "velocity": 100,
        "channel": 2
      },
      {
        "type": "note_on",
        "time": 45,
        "note": 50,
        "velocity": 0,
        "channel": 2
      },
      {
        "type": "note_on",
        "time": 15,
        "note": 52,
        "velocity": 100,
        "channel": 2
      },
      {
        "type": "note_on",
        "time": 45,
        "note": 52,
        "velocity": 0,
        "channel": 2
      },
      {
        "type": "note_on",
        "time": 15,
        "note": 47,
        "velocity": 100,
        "channel": 2
      },
      {
        "type": "note_on",
        "time": 30,
        "note": 47,
        "velocity": 0,
        "channel": 2
      },
      {
        "type": "note_on",
        "time": 0,
        "note": 47,
        "velocity": 100,
        "channel": 2
      },
      {
        "type": "note_on",
        "time": 30,
        "note": 47,
        "velocity": 0,
        "channel": 2
      },
      {
        "type": "note_on",
        "time": 0,
        "note": 47,
        "velocity": 100,
        "channel": 2
      },
      {
        "type": "note_on",
        "time": 30,
        "note": 47,
        "velocity": 0,
        "channel": 2
      },
      {
        "type": "note_on",
        "time": 0,
        "note": 50,
        "velocity": 100,
        "channel": 2
      },
      {
        "type": "note_on",
        "time": 45,
        "note": 50,
        "velocity": 0,
        "channel": 2
      },
      {
        "type": "note_on",
        "time": 15,
        "note": 52,
        "velocity": 100,
        "channel": 2
      },
      {
        "type": "note_on",
        "time": 60,
        "note": 52,
        "velocity": 0,
        "channel": 2
      },
      {
        "type": "note_on",
        "time": 0,
        "note": 47,
        "velocity": 100,
        "channel": 2
      },
      {
        "type": "note_on",
        "time": 30,
        "note": 47,
        "velocity": 0,
        "channel": 2
      },
      {
        "type": "note_on",
        "time": 0,
        "note": 52,
        "velocity": 100,
        "channel": 2
      },
      {
        "type": "note_on",
        "time": 30,
        "note": 52,
        "velocity": 0,
        "channel": 2
      },
      {
        "type": "note_on",
        "time": 0,
        "note": 47,
        "velocity": 100,
        "channel": 2
      },
      {
        "type": "note_on",
        "time": 30,
        "note": 47,
        "velocity": 0,
        "channel": 2
      },
      {
        "type": "note_on",
        "time": 0,
        "note": 38,
        "velocity": 100,
        "channel": 2
      },
      {
        "type": "note_on",
        "time": 30,
        "note": 38,
        "velocity": 0,
        "channel": 2
      },
      {
        "type": "note_on",
        "time": 30,
        "note": 50,
        "velocity": 100,
        "channel": 2
      },
      {
        "type": "note_on",
        "time": 45,
        "note": 50,
        "velocity": 0,
        "channel": 2
      },
      {
        "type": "note_on",
        "time": 15,
        "note": 52,
        "velocity": 100,
        "channel": 2
      },
      {
        "type": "note_on",
        "time": 45,
        "note": 52,
        "velocity": 0,
        "channel": 2
      },
      {
        "type": "note_on",
        "time": 15,
        "note": 47,
        "velocity": 100,
        "channel": 2
      },
      {
        "type": "note_on",
        "time": 30,
        "note": 47,
        "velocity": 0,
        "channel": 2
      },
      {
        "type": "note_on",
        "time": 0,
        "note": 47,
        "velocity": 100,
        "channel": 2
      },
      {
        "type": "note_on",
        "time": 30,
        "note": 47,
        "velocity": 0,
        "channel": 2
      },
      {
        "type": "note_on",
        "time": 0,
        "note": 47,
        "velocity": 100,
        "channel": 2
      },
      {
        "type": "note_on",
        "time": 30,
        "note": 47,
        "velocity": 0,
        "channel": 2
      },
      {
        "type": "note_on",
        "time": 0,
        "note": 50,
        "velocity": 100,
        "channel": 2
      },
      {
        "type": "note_on",
        "time": 45,
        "note": 50,
        "velocity": 0,
        "channel": 2
      },
      {
        "type": "note_on",
        "time": 15,
        "note": 52,
        "velocity": 100,
        "channel": 2
      },
      {
        "type": "note_on",
        "time": 30,
        "note": 47,
        "velocity": 100,
        "channel": 2
      },
      {
        "type": "note_on",
        "time": 15,
        "note": 52,
        "velocity": 0,
        "channel": 2
      },
      {
        "type": "note_on",
        "time": 15,
        "note": 47,
        "velocity": 0,
        "channel": 2
      },
      {
        "type": "note_on",
        "time": 0,
        "note": 50,
        "velocity": 100,
        "channel": 2
      },
      {
        "type": "note_on",
        "time": 30,
        "note": 50,
        "velocity": 0,
        "channel": 2
      },
      {
        "type": "note_on",
        "time": 0,
        "note": 45,
        "velocity": 100,
        "channel": 2
      },
      {
        "type": "note_on",
        "time": 45,
        "note": 45,
        "velocity": 0,
        "channel": 2
      },
      {
        "type": "note_on",
        "time": 15,
        "note": 35,
        "velocity": 100,
        "channel": 2
      },
      {
        "type": "note_on",
        "time": 30,
        "note": 35,
        "velocity": 0,
        "channel": 2
      },
      {
        "type": "note_on",
        "time": 30,
        "note": 45,
        "velocity": 100,
        "channel": 2
      },
      {
        "type": "note_on",
        "time": 45,
        "note": 45,
        "velocity": 0,
        "channel": 2
      },
      {
        "type": "note_on",
        "time": 15,
        "note": 47,
        "velocity": 100,
        "channel": 2
      },
      {
        "type": "note_on",
        "time": 45,
        "note": 47,
        "velocity": 0,
        "channel": 2
      },
      {
        "type": "note_on",
        "time": 15,
        "note": 42,
        "velocity": 100,
        "channel": 2
      },
      {
        "type": "note_on",
        "time": 30,
        "note": 42,
        "velocity": 0,
        "channel": 2
      },
      {
        "type": "note_on",
        "time": 0,
        "note": 45,
        "velocity": 100,
        "channel": 2
      },
      {
        "type": "note_on",
        "time": 30,
        "note": 45,
        "velocity": 0,
        "channel": 2
      },
      {
        "type": "note_on",
        "time": 0,
        "note": 42,
        "velocity": 100,
        "channel": 2
      },
      {
        "type": "note_on",
        "time": 30,
        "note": 42,
        "velocity": 0,
        "channel": 2
      },
      {
        "type": "note_on",
        "time": 0,
        "note": 47,
        "velocity": 100,
        "channel": 2
      },
      {
        "type": "note_on",
        "time": 45,
        "note": 47,
        "velocity": 0,
        "channel": 2
      },
      {
        "type": "note_on",
        "time": 15,
        "note": 47,
        "velocity": 100,
        "channel": 2
      },
      {
        "type": "note_on",
        "time": 45,
        "note": 47,
        "velocity": 0,
        "channel": 2
      },
      {
        "type": "note_on",
        "time": 15,
        "note": 42,
        "velocity": 100,
        "channel": 2
      },
      {
        "type": "note_on",
        "time": 30,
        "note": 42,
        "velocity": 0,
        "channel": 2
      },
      {
        "type": "note_on",
        "time": 0,
        "note": 47,
        "velocity": 100,
        "channel": 2
      },
      {
        "type": "note_on",
        "time": 30,
        "note": 47,
        "velocity": 0,
        "channel": 2
      },
      {
        "type": "note_on",
        "time": 0,
        "note": 42,
        "velocity": 100,
        "channel": 2
      },
      {
        "type": "note_on",
        "time": 30,
        "note": 42,
        "velocity": 0,
        "channel": 2
      },
      {
        "type": "note_on",
        "time": 0,
        "note": 36,
        "velocity": 100,
        "channel": 2
      },
      {
        "type": "note_on",
        "time": 30,
        "note": 36,
        "velocity": 0,
        "channel": 2
      },
      {
        "type": "note_on",
        "time": 30,
        "note": 48,
        "velocity": 100,
        "channel": 2
      },
      {
        "type": "note_on",
        "time": 45,
        "note": 48,
        "velocity": 0,
        "channel": 2
      },
      {
        "type": "note_on",
        "time": 15,
        "note": 48,
        "velocity": 100,
        "channel": 2
      },
      {
        "type": "note_on",
        "time": 45,
        "note": 48,
        "velocity": 0,
        "channel": 2
      },
      {
        "type": "note_on",
        "time": 15,
        "note": 43,
        "velocity": 100,
        "channel": 2
      },
      {
        "type": "note_on",
        "time": 30,
        "note": 43,
        "velocity": 0,
        "channel": 2
      },
      {
        "type": "note_on",
        "time": 0,
        "note": 43,
        "velocity": 100,
        "channel": 2
      },
      {
        "type": "note_on",
        "time": 30,
        "note": 43,
        "velocity": 0,
        "channel": 2
      },
      {
        "type": "note_on",
        "time": 0,
        "note": 47,
        "velocity": 100,
        "channel": 2
      },
      {
        "type": "note_on",
        "time": 30,
        "note": 47,
        "velocity": 0,
        "channel": 2
      },
      {
        "type": "note_on",
        "time": 0,
        "note": 50,
        "velocity": 100,
        "channel": 2
      },
      {
        "type": "note_on",
        "time": 30,
        "note": 50,
        "velocity": 0,
        "channel": 2
      },
      {
        "type": "note_on",
        "time": 0,
        "note": 50,
        "velocity": 100,
        "channel": 2
      },
      {
        "type": "note_on",
        "time": 30,
        "note": 50,
        "velocity": 0,
        "channel": 2
      },
      {
        "type": "note_on",
        "time": 0,
        "note": 47,
        "velocity": 100,
        "channel": 2
      },
      {
        "type": "note_on",
        "time": 30,
        "note": 47,
        "velocity": 0,
        "channel": 2
      },
      {
        "type": "note_on",
        "time": 0,
        "note": 50,
        "velocity": 100,
        "channel": 2
      },
      {
        "type": "note_on",
        "time": 30,
        "note": 50,
        "velocity": 0,
        "channel": 2
      },
      {
        "type": "note_on",
        "time": 0,
        "note": 47,
        "velocity": 100,
        "channel": 2
      },
      {
        "type": "note_on",
        "time": 30,
        "note": 47,
        "velocity": 0,
        "channel": 2
      },
      {
        "type": "note_on",
        "time": 0,
        "note": 50,
        "velocity": 100,
        "channel": 2
      },
      {
        "type": "note_on",
        "time": 30,
        "note": 50,
        "velocity": 0,
        "channel": 2
      },
      {
        "type": "note_on",
        "time": 0,
        "note": 47,
        "velocity": 100,
        "channel": 2
      },
      {
        "type": "note_on",
        "time": 30,
        "note": 47,
        "velocity": 0,
        "channel": 2
      },
      {
        "type": "note_on",
        "time": 0,
        "note": 40,
        "velocity": 100,
        "channel": 2
      },
      {
        "type": "note_on",
        "time": 30,
        "note": 40,
        "velocity": 0,
        "channel": 2
      },
      {
        "type": "note_on",
        "time": 30,
        "note": 50,
        "velocity": 100,
        "channel": 2
      },
      {
        "type": "note_on",
        "time": 45,
        "note": 50,
        "velocity": 0,
        "channel": 2
      },
      {
        "type": "note_on",
        "time": 15,
        "note": 52,
        "velocity": 100,
        "channel": 2
      },
      {
        "type": "note_on",
        "time": 45,
        "note": 52,
        "velocity": 0,
        "channel": 2
      },
      {
        "type": "note_on",
        "time": 15,
        "note": 47,
        "velocity": 100,
        "channel": 2
      },
      {
        "type": "note_on",
        "time": 30,
        "note": 47,
        "velocity": 0,
        "channel": 2
      },
      {
        "type": "note_on",
        "time": 0,
        "note": 47,
        "velocity": 100,
        "channel": 2
      },
      {
        "type": "note_on",
        "time": 30,
        "note": 47,
        "velocity": 0,
        "channel": 2
      },
      {
        "type": "note_on",
        "time": 0,
        "note": 47,
        "velocity": 100,
        "channel": 2
      },
      {
        "type": "note_on",
        "time": 30,
        "note": 47,
        "velocity": 0,
        "channel": 2
      },
      {
        "type": "note_on",
        "time": 0,
        "note": 50,
        "velocity": 100,
        "channel": 2
      },
      {
        "type": "note_on",
        "time": 45,
        "note": 50,
        "velocity": 0,
        "channel": 2
      },
      {
        "type": "note_on",
        "time": 15,
        "note": 52,
        "velocity": 100,
        "channel": 2
      },
      {
        "type": "note_on",
        "time": 60,
        "note": 52,
        "velocity": 0,
        "channel": 2
      },
      {
        "type": "note_on",
        "time": 0,
        "note": 47,
        "velocity": 100,
        "channel": 2
      },
      {
        "type": "note_on",
        "time": 30,
        "note": 47,
        "velocity": 0,
        "channel": 2
      },
      {
        "type": "note_on",
        "time": 0,
        "note": 52,
        "velocity": 100,
        "channel": 2
      },
      {
        "type": "note_on",
        "time": 30,
        "note": 52,
        "velocity": 0,
        "channel": 2
      },
      {
        "type": "note_on",
        "time": 0,
        "note": 47,
        "velocity": 100,
        "channel": 2
      },
      {
        "type": "note_on",
        "time": 30,
        "note": 47,
        "velocity": 0,
        "channel": 2
      },
      {
        "type": "note_on",
        "time": 0,
        "note": 50,
        "velocity": 100,
        "channel": 2
      },
      {
        "type": "note_on",
        "time": 30,
        "note": 50,
        "velocity": 0,
        "channel": 2
      },
      {
        "type": "note_on",
        "time": 0,
        "note": 45,
        "velocity": 100,
        "channel": 2
      },
      {
        "type": "note_on",
        "time": 30,
        "note": 45,
        "velocity": 0,
        "channel": 2
      },
      {
        "type": "note_on",
        "time": 0,
        "note": 50,
        "velocity": 100,
        "channel": 2
      },
      {
        "type": "note_on",
        "time": 45,
        "note": 50,
        "velocity": 0,
        "channel": 2
      },
      {
        "type": "note_on",
        "time": 15,
        "note": 52,
        "velocity": 100,
        "channel": 2
      },
      {
        "type": "note_on",
        "time": 45,
        "note": 52,
        "velocity": 0,
        "channel": 2
      },
      {
        "type": "note_on",
        "time": 15,
        "note": 45,
        "velocity": 100,
        "channel": 2
      },
      {
        "type": "note_on",
        "time": 30,
        "note": 45,
        "velocity": 0,
        "channel": 2
      },
      {
        "type": "note_on",
        "time": 0,
        "note": 45,
        "velocity": 100,
        "channel": 2
      },
      {
        "type": "note_on",
        "time": 30,
        "note": 45,
        "velocity": 0,
        "channel": 2
      },
      {
        "type": "note_on",
        "time": 0,
        "note": 45,
        "velocity": 100,
        "channel": 2
      },
      {
        "type": "note_on",
        "time": 30,
        "note": 45,
        "velocity": 0,
        "channel": 2
      },
      {
        "type": "note_on",
        "time": 0,
        "note": 50,
        "velocity": 100,
        "channel": 2
      },
      {
        "type": "note_on",
        "time": 45,
        "note": 50,
        "velocity": 0,
        "channel": 2
      },
      {
        "type": "note_on",
        "time": 15,
        "note": 52,
        "velocity": 100,
        "channel": 2
      },
      {
        "type": "note_on",
        "time": 30,
        "note": 47,
        "velocity": 100,
        "channel": 2
      },
      {
        "type": "note_on",
        "time": 15,
        "note": 52,
        "velocity": 0,
        "channel": 2
      },
      {
        "type": "note_on",
        "time": 15,
        "note": 47,
        "velocity": 0,
        "channel": 2
      },
      {
        "type": "note_on",
        "time": 0,
        "note": 50,
        "velocity": 100,
        "channel": 2
      },
      {
        "type": "note_on",
        "time": 30,
        "note": 50,
        "velocity": 0,
        "channel": 2
      },
      {
        "type": "note_on",
        "time": 0,
        "note": 47,
        "velocity": 100,
        "channel": 2
      },
      {
        "type": "note_on",
        "time": 45,
        "note": 47,
        "velocity": 0,
        "channel": 2
      },
      {
        "type": "note_on",
        "time": 15,
        "note": 47,
        "velocity": 100,
        "channel": 2
      },
      {
        "type": "note_on",
        "time": 30,
        "note": 47,
        "velocity": 100,
        "channel": 2
      },
      {
        "type": "note_on",
        "time": 15,
        "note": 47,
        "velocity": 0,
        "channel": 2
      },
      {
        "type": "note_on",
        "time": 15,
        "note": 47,
        "velocity": 0,
        "channel": 2
      },
      {
        "type": "note_on",
        "time": 0,
        "note": 47,
        "velocity": 100,
        "channel": 2
      },
      {
        "type": "note_on",
        "time": 45,
        "note": 47,
        "velocity": 0,
        "channel": 2
      },
      {
        "type": "note_on",
        "time": 15,
        "note": 47,
        "velocity": 100,
        "channel": 2
      },
      {
        "type": "note_on",
        "time": 45,
        "note": 47,
        "velocity": 0,
        "channel": 2
      },
      {
        "type": "note_on",
        "time": 15,
        "note": 42,
        "velocity": 100,
        "channel": 2
      },
      {
        "type": "note_on",
        "time": 30,
        "note": 42,
        "velocity": 0,
        "channel": 2
      },
      {
        "type": "note_on",
        "time": 0,
        "note": 45,
        "velocity": 100,
        "channel": 2
      },
      {
        "type": "note_on",
        "time": 30,
        "note": 45,
        "velocity": 0,
        "channel": 2
      },
      {
        "type": "note_on",
        "time": 0,
        "note": 42,
        "velocity": 100,
        "channel": 2
      },
      {
        "type": "note_on",
        "time": 30,
        "note": 42,
        "velocity": 0,
        "channel": 2
      },
      {
        "type": "note_on",
        "time": 0,
        "note": 47,
        "velocity": 100,
        "channel": 2
      },
      {
        "type": "note_on",
        "time": 45,
        "note": 47,
        "velocity": 0,
        "channel": 2
      },
      {
        "type": "note_on",
        "time": 15,
        "note": 47,
        "velocity": 100,
        "channel": 2
      },
      {
        "type": "note_on",
        "time": 45,
        "note": 47,
        "velocity": 0,
        "channel": 2
      },
      {
        "type": "note_on",
        "time": 15,
        "note": 42,
        "velocity": 100,
        "channel": 2
      },
      {
        "type": "note_on",
        "time": 30,
        "note": 42,
        "velocity": 0,
        "channel": 2
      },
      {
        "type": "note_on",
        "time": 0,
        "note": 47,
        "velocity": 100,
        "channel": 2
      },
      {
        "type": "note_on",
        "time": 30,
        "note": 47,
        "velocity": 0,
        "channel": 2
      },
      {
        "type": "note_on",
        "time": 0,
        "note": 42,
        "velocity": 100,
        "channel": 2
      },
      {
        "type": "note_on",
        "time": 30,
        "note": 42,
        "velocity": 0,
        "channel": 2
      },
      {
        "type": "note_on",
        "time": 0,
        "note": 48,
        "velocity": 100,
        "channel": 2
      },
      {
        "type": "note_on",
        "time": 30,
        "note": 48,
        "velocity": 0,
        "channel": 2
      },
      {
        "type": "note_on",
        "time": 0,
        "note": 48,
        "velocity": 100,
        "channel": 2
      },
      {
        "type": "note_on",
        "time": 30,
        "note": 48,
        "velocity": 0,
        "channel": 2
      },
      {
        "type": "note_on",
        "time": 0,
        "note": 48,
        "velocity": 100,
        "channel": 2
      },
      {
        "type": "note_on",
        "time": 45,
        "note": 48,
        "velocity": 0,
        "channel": 2
      },
      {
        "type": "note_on",
        "time": 15,
        "note": 48,
        "velocity": 100,
        "channel": 2
      },
      {
        "type": "note_on",
        "time": 45,
        "note": 48,
        "velocity": 0,
        "channel": 2
      },
      {
        "type": "note_on",
        "time": 15,
        "note": 43,
        "velocity": 100,
        "channel": 2
      },
      {
        "type": "note_on",
        "time": 30,
        "note": 43,
        "velocity": 0,
        "channel": 2
      },
      {
        "type": "note_on",
        "time": 0,
        "note": 43,
        "velocity": 100,
        "channel": 2
      },
      {
        "type": "note_on",
        "time": 30,
        "note": 43,
        "velocity": 0,
        "channel": 2
      },
      {
        "type": "note_on",
        "time": 0,
        "note": 41,
        "velocity": 100,
        "channel": 2
      },
      {
        "type": "note_on",
        "time": 30,
        "note": 41,
        "velocity": 0,
        "channel": 2
      },
      {
        "type": "note_on",
        "time": 0,
        "note": 48,
        "velocity": 100,
        "channel": 2
      },
      {
        "type": "note_on",
        "time": 45,
        "note": 48,
        "velocity": 0,
        "channel": 2
      },
      {
        "type": "note_on",
        "time": 15,
        "note": 48,
        "velocity": 100,
        "channel": 2
      },
      {
        "type": "note_on",
        "time": 45,
        "note": 48,
        "velocity": 0,
        "channel": 2
      },
      {
        "type": "note_on",
        "time": 15,
        "note": 43,
        "velocity": 100,
        "channel": 2
      },
      {
        "type": "note_on",
        "time": 30,
        "note": 43,
        "velocity": 0,
        "channel": 2
      },
      {
        "type": "note_on",
        "time": 0,
        "note": 45,
        "velocity": 100,
        "channel": 2
      },
      {
        "type": "note_on",
        "time": 30,
        "note": 45,
        "velocity": 0,
        "channel": 2
      },
      {
        "type": "note_on",
        "time": 0,
        "note": 43,
        "velocity": 100,
        "channel": 2
      },
      {
        "type": "note_on",
        "time": 30,
        "note": 43,
        "velocity": 0,
        "channel": 2
      },
      {
        "type": "note_on",
        "time": 0,
        "note": 52,
        "velocity": 100,
        "channel": 2
      },
      {
        "type": "note_on",
        "time": 30,
        "note": 52,
        "velocity": 0,
        "channel": 2
      },
      {
        "type": "note_on",
        "time": 0,
        "note": 47,
        "velocity": 100,
        "channel": 2
      },
      {
        "type": "note_on",
        "time": 30,
        "note": 47,
        "velocity": 0,
        "channel": 2
      },
      {
        "type": "note_on",
        "time": 0,
        "note": 50,
        "velocity": 100,
        "channel": 2
      },
      {
        "type": "note_on",
        "time": 45,
        "note": 50,
        "velocity": 0,
        "channel": 2
      },
      {
        "type": "note_on",
        "time": 15,
        "note": 52,
        "velocity": 100,
        "channel": 2
      },
      {
        "type": "note_on",
        "time": 45,
        "note": 52,
        "velocity": 0,
        "channel": 2
      },
      {
        "type": "note_on",
        "time": 15,
        "note": 47,
        "velocity": 100,
        "channel": 2
      },
      {
        "type": "note_on",
        "time": 30,
        "note": 47,
        "velocity": 0,
        "channel": 2
      },
      {
        "type": "note_on",
        "time": 0,
        "note": 47,
        "velocity": 100,
        "channel": 2
      },
      {
        "type": "note_on",
        "time": 30,
        "note": 47,
        "velocity": 0,
        "channel": 2
      },
      {
        "type": "note_on",
        "time": 0,
        "note": 47,
        "velocity": 100,
        "channel": 2
      },
      {
        "type": "note_on",
        "time": 30,
        "note": 47,
        "velocity": 0,
        "channel": 2
      },
      {
        "type": "note_on",
        "time": 0,
        "note": 50,
        "velocity": 100,
        "channel": 2
      },
      {
        "type": "note_on",
        "time": 45,
        "note": 50,
        "velocity": 0,
        "channel": 2
      },
      {
        "type": "note_on",
        "time": 15,
        "note": 52,
        "velocity": 100,
        "channel": 2
      },
      {
        "type": "note_on",
        "time": 60,
        "note": 52,
        "velocity": 0,
        "channel": 2
      },
      {
        "type": "note_on",
        "time": 0,
        "note": 47,
        "velocity": 100,
        "channel": 2
      },
      {
        "type": "note_on",
        "time": 30,
        "note": 47,
        "velocity": 0,
        "channel": 2
      },
      {
        "type": "note_on",
        "time": 0,
        "note": 52,
        "velocity": 100,
        "channel": 2
      },
      {
        "type": "note_on",
        "time": 30,
        "note": 52,
        "velocity": 0,
        "channel": 2
      },
      {
        "type": "note_on",
        "time": 0,
        "note": 47,
        "velocity": 100,
        "channel": 2
      },
      {
        "type": "note_on",
        "time": 30,
        "note": 47,
        "velocity": 0,
        "channel": 2
      },
      {
        "type": "note_on",
        "time": 0,
        "note": 50,
        "velocity": 100,
        "channel": 2
      },
      {
        "type": "note_on",
        "time": 30,
        "note": 50,
        "velocity": 0,
        "channel": 2
      },
      {
        "type": "note_on",
        "time": 0,
        "note": 45,
        "velocity": 100,
        "channel": 2
      },
      {
        "type": "note_on",
        "time": 30,
        "note": 45,
        "velocity": 0,
        "channel": 2
      },
      {
        "type": "note_on",
        "time": 0,
        "note": 50,
        "velocity": 100,
        "channel": 2
      },
      {
        "type": "note_on",
        "time": 45,
        "note": 50,
        "velocity": 0,
        "channel": 2
      },
      {
        "type": "note_on",
        "time": 15,
        "note": 52,
        "velocity": 100,
        "channel": 2
      },
      {
        "type": "note_on",
        "time": 45,
        "note": 52,
        "velocity": 0,
        "channel": 2
      },
      {
        "type": "note_on",
        "time": 15,
        "note": 45,
        "velocity": 100,
        "channel": 2
      },
      {
        "type": "note_on",
        "time": 30,
        "note": 45,
        "velocity": 0,
        "channel": 2
      },
      {
        "type": "note_on",
        "time": 0,
        "note": 45,
        "velocity": 100,
        "channel": 2
      },
      {
        "type": "note_on",
        "time": 30,
        "note": 45,
        "velocity": 0,
        "channel": 2
      },
      {
        "type": "note_on",
        "time": 0,
        "note": 45,
        "velocity": 100,
        "channel": 2
      },
      {
        "type": "note_on",
        "time": 30,
        "note": 45,
        "velocity": 0,
        "channel": 2
      },
      {
        "type": "note_on",
        "time": 0,
        "note": 50,
        "velocity": 100,
        "channel": 2
      },
      {
        "type": "note_on",
        "time": 45,
        "note": 50,
        "velocity": 0,
        "channel": 2
      },
      {
        "type": "note_on",
        "time": 15,
        "note": 52,
        "velocity": 100,
        "channel": 2
      },
      {
        "type": "note_on",
        "time": 30,
        "note": 47,
        "velocity": 100,
        "channel": 2
      },
      {
        "type": "note_on",
        "time": 15,
        "note": 52,
        "velocity": 0,
        "channel": 2
      },
      {
        "type": "note_on",
        "time": 15,
        "note": 47,
        "velocity": 0,
        "channel": 2
      },
      {
        "type": "note_on",
        "time": 0,
        "note": 50,
        "velocity": 100,
        "channel": 2
      },
      {
        "type": "note_on",
        "time": 30,
        "note": 50,
        "velocity": 0,
        "channel": 2
      },
      {
        "type": "note_on",
        "time": 0,
        "note": 47,
        "velocity": 100,
        "channel": 2
      },
      {
        "type": "note_on",
        "time": 45,
        "note": 47,
        "velocity": 0,
        "channel": 2
      },
      {
        "type": "note_on",
        "time": 15,
        "note": 47,
        "velocity": 100,
        "channel": 2
      },
      {
        "type": "note_on",
        "time": 30,
        "note": 47,
        "velocity": 0,
        "channel": 2
      },
      {
        "type": "note_on",
        "time": 0,
        "note": 47,
        "velocity": 100,
        "channel": 2
      },
      {
        "type": "note_on",
        "time": 30,
        "note": 47,
        "velocity": 0,
        "channel": 2
      },
      {
        "type": "note_on",
        "time": 0,
        "note": 47,
        "velocity": 100,
        "channel": 2
      },
      {
        "type": "note_on",
        "time": 45,
        "note": 47,
        "velocity": 0,
        "channel": 2
      },
      {
        "type": "note_on",
        "time": 15,
        "note": 47,
        "velocity": 100,
        "channel": 2
      },
      {
        "type": "note_on",
        "time": 45,
        "note": 47,
        "velocity": 0,
        "channel": 2
      },
      {
        "type": "note_on",
        "time": 15,
        "note": 42,
        "velocity": 100,
        "channel": 2
      },
      {
        "type": "note_on",
        "time": 30,
        "note": 42,
        "velocity": 0,
        "channel": 2
      },
      {
        "type": "note_on",
        "time": 0,
        "note": 45,
        "velocity": 100,
        "channel": 2
      },
      {
        "type": "note_on",
        "time": 30,
        "note": 45,
        "velocity": 0,
        "channel": 2
      },
      {
        "type": "note_on",
        "time": 0,
        "note": 42,
        "velocity": 100,
        "channel": 2
      },
      {
        "type": "note_on",
        "time": 30,
        "note": 42,
        "velocity": 0,
        "channel": 2
      },
      {
        "type": "note_on",
        "time": 0,
        "note": 47,
        "velocity": 100,
        "channel": 2
      },
      {
        "type": "note_on",
        "time": 45,
        "note": 47,
        "velocity": 0,
        "channel": 2
      },
      {
        "type": "note_on",
        "time": 15,
        "note": 47,
        "velocity": 100,
        "channel": 2
      },
      {
        "type": "note_on",
        "time": 45,
        "note": 47,
        "velocity": 0,
        "channel": 2
      },
      {
        "type": "note_on",
        "time": 15,
        "note": 42,
        "velocity": 100,
        "channel": 2
      },
      {
        "type": "note_on",
        "time": 30,
        "note": 42,
        "velocity": 0,
        "channel": 2
      },
      {
        "type": "note_on",
        "time": 0,
        "note": 47,
        "velocity": 100,
        "channel": 2
      },
      {
        "type": "note_on",
        "time": 30,
        "note": 47,
        "velocity": 0,
        "channel": 2
      },
      {
        "type": "note_on",
        "time": 0,
        "note": 42,
        "velocity": 100,
        "channel": 2
      },
      {
        "type": "note_on",
        "time": 30,
        "note": 42,
        "velocity": 0,
        "channel": 2
      },
      {
        "type": "note_on",
        "time": 0,
        "note": 48,
        "velocity": 100,
        "channel": 2
      },
      {
        "type": "note_on",
        "time": 30,
        "note": 48,
        "velocity": 0,
        "channel": 2
      },
      {
        "type": "note_on",
        "time": 0,
        "note": 48,
        "velocity": 100,
        "channel": 2
      },
      {
        "type": "note_on",
        "time": 30,
        "note": 48,
        "velocity": 0,
        "channel": 2
      },
      {
        "type": "note_on",
        "time": 0,
        "note": 48,
        "velocity": 100,
        "channel": 2
      },
      {
        "type": "note_on",
        "time": 45,
        "note": 48,
        "velocity": 0,
        "channel": 2
      },
      {
        "type": "note_on",
        "time": 15,
        "note": 48,
        "velocity": 100,
        "channel": 2
      },
      {
        "type": "note_on",
        "time": 45,
        "note": 48,
        "velocity": 0,
        "channel": 2
      },
      {
        "type": "note_on",
        "time": 15,
        "note": 43,
        "velocity": 100,
        "channel": 2
      },
      {
        "type": "note_on",
        "time": 30,
        "note": 43,
        "velocity": 0,
        "channel": 2
      },
      {
        "type": "note_on",
        "time": 0,
        "note": 43,
        "velocity": 100,
        "channel": 2
      },
      {
        "type": "note_on",
        "time": 30,
        "note": 43,
        "velocity": 0,
        "channel": 2
      },
      {
        "type": "note_on",
        "time": 0,
        "note": 41,
        "velocity": 100,
        "channel": 2
      },
      {
        "type": "note_on",
        "time": 30,
        "note": 41,
        "velocity": 0,
        "channel": 2
      },
      {
        "type": "note_on",
        "time": 0,
        "note": 48,
        "velocity": 100,
        "channel": 2
      },
      {
        "type": "note_on",
        "time": 45,
        "note": 48,
        "velocity": 0,
        "channel": 2
      },
      {
        "type": "note_on",
        "time": 15,
        "note": 48,
        "velocity": 100,
        "channel": 2
      },
      {
        "type": "note_on",
        "time": 45,
        "note": 48,
        "velocity": 0,
        "channel": 2
      },
      {
        "type": "note_on",
        "time": 15,
        "note": 43,
        "velocity": 100,
        "channel": 2
      },
      {
        "type": "note_on",
        "time": 30,
        "note": 43,
        "velocity": 0,
        "channel": 2
      },
      {
        "type": "note_on",
        "time": 0,
        "note": 45,
        "velocity": 100,
        "channel": 2
      },
      {
        "type": "note_on",
        "time": 30,
        "note": 45,
        "velocity": 0,
        "channel": 2
      },
      {
        "type": "note_on",
        "time": 0,
        "note": 43,
        "velocity": 100,
        "channel": 2
      },
      {
        "type": "note_on",
        "time": 30,
        "note": 43,
        "velocity": 0,
        "channel": 2
      },
      {
        "type": "note_on",
        "time": 0,
        "note": 52,
        "velocity": 100,
        "channel": 2
      },
      {
        "type": "note_on",
        "time": 30,
        "note": 52,
        "velocity": 0,
        "channel": 2
      },
      {
        "type": "note_on",
        "time": 0,
        "note": 47,
        "velocity": 100,
        "channel": 2
      },
      {
        "type": "note_on",
        "time": 30,
        "note": 47,
        "velocity": 0,
        "channel": 2
      },
      {
        "type": "note_on",
        "time": 0,
        "note": 50,
        "velocity": 100,
        "channel": 2
      },
      {
        "type": "note_on",
        "time": 45,
        "note": 50,
        "velocity": 0,
        "channel": 2
      },
      {
        "type": "note_on",
        "time": 15,
        "note": 52,
        "velocity": 100,
        "channel": 2
      },
      {
        "type": "note_on",
        "time": 45,
        "note": 52,
        "velocity": 0,
        "channel": 2
      },
      {
        "type": "note_on",
        "time": 15,
        "note": 47,
        "velocity": 100,
        "channel": 2
      },
      {
        "type": "note_on",
        "time": 30,
        "note": 47,
        "velocity": 0,
        "channel": 2
      },
      {
        "type": "note_on",
        "time": 0,
        "note": 47,
        "velocity": 100,
        "channel": 2
      },
      {
        "type": "note_on",
        "time": 30,
        "note": 47,
        "velocity": 0,
        "channel": 2
      },
      {
        "type": "note_on",
        "time": 0,
        "note": 47,
        "velocity": 100,
        "channel": 2
      },
      {
        "type": "note_on",
        "time": 30,
        "note": 47,
        "velocity": 0,
        "channel": 2
      },
      {
        "type": "note_on",
        "time": 0,
        "note": 50,
        "velocity": 100,
        "channel": 2
      },
      {
        "type": "note_on",
        "time": 45,
        "note": 50,
        "velocity": 0,
        "channel": 2
      },
      {
        "type": "note_on",
        "time": 15,
        "note": 52,
        "velocity": 100,
        "channel": 2
      },
      {
        "type": "note_on",
        "time": 60,
        "note": 52,
        "velocity": 0,
        "channel": 2
      },
      {
        "type": "note_on",
        "time": 0,
        "note": 47,
        "velocity": 100,
        "channel": 2
      },
      {
        "type": "note_on",
        "time": 30,
        "note": 47,
        "velocity": 0,
        "channel": 2
      },
      {
        "type": "note_on",
        "time": 0,
        "note": 52,
        "velocity": 100,
        "channel": 2
      },
      {
        "type": "note_on",
        "time": 30,
        "note": 52,
        "velocity": 0,
        "channel": 2
      },
      {
        "type": "note_on",
        "time": 0,
        "note": 47,
        "velocity": 100,
        "channel": 2
      },
      {
        "type": "note_on",
        "time": 30,
        "note": 47,
        "velocity": 0,
        "channel": 2
      },
      {
        "type": "note_on",
        "time": 0,
        "note": 50,
        "velocity": 100,
        "channel": 2
      },
      {
        "type": "note_on",
        "time": 30,
        "note": 50,
        "velocity": 0,
        "channel": 2
      },
      {
        "type": "note_on",
        "time": 0,
        "note": 45,
        "velocity": 100,
        "channel": 2
      },
      {
        "type": "note_on",
        "time": 30,
        "note": 45,
        "velocity": 0,
        "channel": 2
      },
      {
        "type": "note_on",
        "time": 0,
        "note": 50,
        "velocity": 100,
        "channel": 2
      },
      {
        "type": "note_on",
        "time": 45,
        "note": 50,
        "velocity": 0,
        "channel": 2
      },
      {
        "type": "note_on",
        "time": 15,
        "note": 52,
        "velocity": 100,
        "channel": 2
      },
      {
        "type": "note_on",
        "time": 45,
        "note": 52,
        "velocity": 0,
        "channel": 2
      },
      {
        "type": "note_on",
        "time": 15,
        "note": 45,
        "velocity": 100,
        "channel": 2
      },
      {
        "type": "note_on",
        "time": 30,
        "note": 45,
        "velocity": 0,
        "channel": 2
      },
      {
        "type": "note_on",
        "time": 0,
        "note": 45,
        "velocity": 100,
        "channel": 2
      },
      {
        "type": "note_on",
        "time": 30,
        "note": 45,
        "velocity": 0,
        "channel": 2
      },
      {
        "type": "note_on",
        "time": 0,
        "note": 45,
        "velocity": 100,
        "channel": 2
      },
      {
        "type": "note_on",
        "time": 30,
        "note": 45,
        "velocity": 0,
        "channel": 2
      },
      {
        "type": "note_on",
        "time": 0,
        "note": 50,
        "velocity": 100,
        "channel": 2
      },
      {
        "type": "note_on",
        "time": 45,
        "note": 50,
        "velocity": 0,
        "channel": 2
      },
      {
        "type": "note_on",
        "time": 15,
        "note": 52,
        "velocity": 100,
        "channel": 2
      },
      {
        "type": "note_on",
        "time": 30,
        "note": 47,
        "velocity": 100,
        "channel": 2
      },
      {
        "type": "note_on",
        "time": 15,
        "note": 52,
        "velocity": 0,
        "channel": 2
      },
      {
        "type": "note_on",
        "time": 15,
        "note": 47,
        "velocity": 0,
        "channel": 2
      },
      {
        "type": "note_on",
        "time": 0,
        "note": 50,
        "velocity": 100,
        "channel": 2
      },
      {
        "type": "note_on",
        "time": 30,
        "note": 50,
        "velocity": 0,
        "channel": 2
      },
      {
        "type": "note_on",
        "time": 0,
        "note": 47,
        "velocity": 100,
        "channel": 2
      },
      {
        "type": "note_on",
        "time": 45,
        "note": 47,
        "velocity": 0,
        "channel": 2
      },
      {
        "type": "note_on",
        "time": 15,
        "note": 47,
        "velocity": 100,
        "channel": 2
      },
      {
        "type": "note_on",
        "time": 30,
        "note": 47,
        "velocity": 0,
        "channel": 2
      },
      {
        "type": "note_on",
        "time": 0,
        "note": 47,
        "velocity": 100,
        "channel": 2
      },
      {
        "type": "note_on",
        "time": 30,
        "note": 47,
        "velocity": 0,
        "channel": 2
      },
      {
        "type": "note_on",
        "time": 0,
        "note": 47,
        "velocity": 100,
        "channel": 2
      },
      {
        "type": "note_on",
        "time": 45,
        "note": 47,
        "velocity": 0,
        "channel": 2
      },
      {
        "type": "note_on",
        "time": 15,
        "note": 47,
        "velocity": 100,
        "channel": 2
      },
      {
        "type": "note_on",
        "time": 45,
        "note": 47,
        "velocity": 0,
        "channel": 2
      },
      {
        "type": "note_on",
        "time": 15,
        "note": 42,
        "velocity": 100,
        "channel": 2
      },
      {
        "type": "note_on",
        "time": 30,
        "note": 42,
        "velocity": 0,
        "channel": 2
      },
      {
        "type": "note_on",
        "time": 0,
        "note": 45,
        "velocity": 100,
        "channel": 2
      },
      {
        "type": "note_on",
        "time": 30,
        "note": 45,
        "velocity": 0,
        "channel": 2
      },
      {
        "type": "note_on",
        "time": 0,
        "note": 42,
        "velocity": 100,
        "channel": 2
      },
      {
        "type": "note_on",
        "time": 30,
        "note": 42,
        "velocity": 0,
        "channel": 2
      },
      {
        "type": "note_on",
        "time": 0,
        "note": 47,
        "velocity": 100,
        "channel": 2
      },
      {
        "type": "note_on",
        "time": 45,
        "note": 47,
        "velocity": 0,
        "channel": 2
      },
      {
        "type": "note_on",
        "time": 15,
        "note": 47,
        "velocity": 100,
        "channel": 2
      },
      {
        "type": "note_on",
        "time": 45,
        "note": 47,
        "velocity": 0,
        "channel": 2
      },
      {
        "type": "note_on",
        "time": 15,
        "note": 42,
        "velocity": 100,
        "channel": 2
      },
      {
        "type": "note_on",
        "time": 30,
        "note": 42,
        "velocity": 0,
        "channel": 2
      },
      {
        "type": "note_on",
        "time": 0,
        "note": 47,
        "velocity": 100,
        "channel": 2
      },
      {
        "type": "note_on",
        "time": 30,
        "note": 47,
        "velocity": 0,
        "channel": 2
      },
      {
        "type": "note_on",
        "time": 0,
        "note": 42,
        "velocity": 100,
        "channel": 2
      },
      {
        "type": "note_on",
        "time": 30,
        "note": 42,
        "velocity": 0,
        "channel": 2
      },
      {
        "type": "note_on",
        "time": 0,
        "note": 48,
        "velocity": 100,
        "channel": 2
      },
      {
        "type": "note_on",
        "time": 30,
        "note": 48,
        "velocity": 0,
        "channel": 2
      },
      {
        "type": "note_on",
        "time": 0,
        "note": 43,
        "velocity": 100,
        "channel": 2
      },
      {
        "type": "note_on",
        "time": 30,
        "note": 43,
        "velocity": 0,
        "channel": 2
      },
      {
        "type": "note_on",
        "time": 0,
        "note": 48,
        "velocity": 100,
        "channel": 2
      },
      {
        "type": "note_on",
        "time": 45,
        "note": 48,
        "velocity": 0,
        "channel": 2
      },
      {
        "type": "note_on",
        "time": 15,
        "note": 48,
        "velocity": 100,
        "channel": 2
      },
      {
        "type": "note_on",
        "time": 45,
        "note": 48,
        "velocity": 0,
        "channel": 2
      },
      {
        "type": "note_on",
        "time": 15,
        "note": 43,
        "velocity": 100,
        "channel": 2
      },
      {
        "type": "note_on",
        "time": 30,
        "note": 43,
        "velocity": 0,
        "channel": 2
      },
      {
        "type": "note_on",
        "time": 0,
        "note": 43,
        "velocity": 100,
        "channel": 2
      },
      {
        "type": "note_on",
        "time": 30,
        "note": 43,
        "velocity": 0,
        "channel": 2
      },
      {
        "type": "note_on",
        "time": 0,
        "note": 41,
        "velocity": 100,
        "channel": 2
      },
      {
        "type": "note_on",
        "time": 30,
        "note": 41,
        "velocity": 0,
        "channel": 2
      },
      {
        "type": "note_on",
        "time": 0,
        "note": 48,
        "velocity": 100,
        "channel": 2
      },
      {
        "type": "note_on",
        "time": 45,
        "note": 48,
        "velocity": 0,
        "channel": 2
      },
      {
        "type": "note_on",
        "time": 15,
        "note": 48,
        "velocity": 100,
        "channel": 2
      },
      {
        "type": "note_on",
        "time": 45,
        "note": 48,
        "velocity": 0,
        "channel": 2
      },
      {
        "type": "note_on",
        "time": 15,
        "note": 43,
        "velocity": 100,
        "channel": 2
      },
      {
        "type": "note_on",
        "time": 30,
        "note": 43,
        "velocity": 0,
        "channel": 2
      },
      {
        "type": "note_on",
        "time": 0,
        "note": 45,
        "velocity": 100,
        "channel": 2
      },
      {
        "type": "note_on",
        "time": 30,
        "note": 45,
        "velocity": 0,
        "channel": 2
      },
      {
        "type": "note_on",
        "time": 0,
        "note": 43,
        "velocity": 100,
        "channel": 2
      },
      {
        "type": "note_on",
        "time": 30,
        "note": 43,
        "velocity": 0,
        "channel": 2
      },
      {
        "type": "note_on",
        "time": 0,
        "note": 40,
        "velocity": 100,
        "channel": 2
      },
      {
        "type": "note_on",
        "time": 30,
        "note": 40,
        "velocity": 0,
        "channel": 2
      },
      {
        "type": "note_on",
        "time": 30,
        "note": 50,
        "velocity": 100,
        "channel": 2
      },
      {
        "type": "note_on",
        "time": 45,
        "note": 50,
        "velocity": 0,
        "channel": 2
      },
      {
        "type": "note_on",
        "time": 15,
        "note": 52,
        "velocity": 100,
        "channel": 2
      },
      {
        "type": "note_on",
        "time": 45,
        "note": 52,
        "velocity": 0,
        "channel": 2
      },
      {
        "type": "note_on",
        "time": 15,
        "note": 40,
        "velocity": 100,
        "channel": 2
      },
      {
        "type": "note_on",
        "time": 30,
        "note": 40,
        "velocity": 0,
        "channel": 2
      },
      {
        "type": "note_on",
        "time": 0,
        "note": 40,
        "velocity": 100,
        "channel": 2
      },
      {
        "type": "note_on",
        "time": 30,
        "note": 40,
        "velocity": 0,
        "channel": 2
      },
      {
        "type": "note_on",
        "time": 0,
        "note": 40,
        "velocity": 100,
        "channel": 2
      },
      {
        "type": "note_on",
        "time": 30,
        "note": 40,
        "velocity": 0,
        "channel": 2
      },
      {
        "type": "note_on",
        "time": 0,
        "note": 50,
        "velocity": 100,
        "channel": 2
      },
      {
        "type": "note_on",
        "time": 45,
        "note": 50,
        "velocity": 0,
        "channel": 2
      },
      {
        "type": "note_on",
        "time": 15,
        "note": 52,
        "velocity": 100,
        "channel": 2
      },
      {
        "type": "note_on",
        "time": 45,
        "note": 52,
        "velocity": 0,
        "channel": 2
      },
      {
        "type": "note_on",
        "time": 15,
        "note": 52,
        "velocity": 100,
        "channel": 2
      },
      {
        "type": "note_on",
        "time": 30,
        "note": 52,
        "velocity": 0,
        "channel": 2
      },
      {
        "type": "note_on",
        "time": 0,
        "note": 38,
        "velocity": 100,
        "channel": 2
      },
      {
        "type": "note_on",
        "time": 30,
        "note": 38,
        "velocity": 0,
        "channel": 2
      },
      {
        "type": "note_on",
        "time": 30,
        "note": 38,
        "velocity": 100,
        "channel": 2
      },
      {
        "type": "note_on",
        "time": 30,
        "note": 38,
        "velocity": 0,
        "channel": 2
      },
      {
        "type": "note_on",
        "time": 30,
        "note": 50,
        "velocity": 100,
        "channel": 2
      },
      {
        "type": "note_on",
        "time": 45,
        "note": 50,
        "velocity": 0,
        "channel": 2
      },
      {
        "type": "note_on",
        "time": 15,
        "note": 52,
        "velocity": 100,
        "channel": 2
      },
      {
        "type": "note_on",
        "time": 45,
        "note": 52,
        "velocity": 0,
        "channel": 2
      },
      {
        "type": "note_on",
        "time": 15,
        "note": 38,
        "velocity": 100,
        "channel": 2
      },
      {
        "type": "note_on",
        "time": 60,
        "note": 38,
        "velocity": 0,
        "channel": 2
      },
      {
        "type": "note_on",
        "time": 30,
        "note": 50,
        "velocity": 100,
        "channel": 2
      },
      {
        "type": "note_on",
        "time": 45,
        "note": 50,
        "velocity": 0,
        "channel": 2
      },
      {
        "type": "note_on",
        "time": 15,
        "note": 52,
        "velocity": 100,
        "channel": 2
      },
      {
        "type": "note_on",
        "time": 45,
        "note": 52,
        "velocity": 0,
        "channel": 2
      },
      {
        "type": "note_on",
        "time": 15,
        "note": 50,
        "velocity": 100,
        "channel": 2
      },
      {
        "type": "note_on",
        "time": 30,
        "note": 50,
        "velocity": 0,
        "channel": 2
      },
      {
        "type": "note_on",
        "time": 0,
        "note": 45,
        "velocity": 100,
        "channel": 2
      },
      {
        "type": "note_on",
        "time": 30,
        "note": 45,
        "velocity": 0,
        "channel": 2
      },
      {
        "type": "note_on",
        "time": 30,
        "note": 47,
        "velocity": 100,
        "channel": 2
      },
      {
        "type": "note_on",
        "time": 60,
        "note": 47,
        "velocity": 0,
        "channel": 2
      },
      {
        "type": "note_on",
        "time": 0,
        "note": 59,
        "velocity": 100,
        "channel": 2
      },
      {
        "type": "note_on",
        "time": 45,
        "note": 59,
        "velocity": 0,
        "channel": 2
      },
      {
        "type": "note_on",
        "time": 15,
        "note": 59,
        "velocity": 100,
        "channel": 2
      },
      {
        "type": "note_on",
        "time": 45,
        "note": 59,
        "velocity": 0,
        "channel": 2
      },
      {
        "type": "note_on",
        "time": 15,
        "note": 47,
        "velocity": 100,
        "channel": 2
      },
      {
        "type": "note_on",
        "time": 30,
        "note": 47,
        "velocity": 0,
        "channel": 2
      },
      {
        "type": "note_on",
        "time": 0,
        "note": 47,
        "velocity": 100,
        "channel": 2
      },
      {
        "type": "note_on",
        "time": 30,
        "note": 47,
        "velocity": 0,
        "channel": 2
      },
      {
        "type": "note_on",
        "time": 30,
        "note": 47,
        "velocity": 100,
        "channel": 2
      },
      {
        "type": "note_on",
        "time": 45,
        "note": 47,
        "velocity": 0,
        "channel": 2
      },
      {
        "type": "note_on",
        "time": 15,
        "note": 47,
        "velocity": 100,
        "channel": 2
      },
      {
        "type": "note_on",
        "time": 45,
        "note": 47,
        "velocity": 0,
        "channel": 2
      },
      {
        "type": "note_on",
        "time": 15,
        "note": 47,
        "velocity": 100,
        "channel": 2
      },
      {
        "type": "note_on",
        "time": 30,
        "note": 47,
        "velocity": 0,
        "channel": 2
      },
      {
        "type": "note_on",
        "time": 0,
        "note": 47,
        "velocity": 100,
        "channel": 2
      },
      {
        "type": "note_on",
        "time": 30,
        "note": 47,
        "velocity": 0,
        "channel": 2
      },
      {
        "type": "note_on",
        "time": 0,
        "note": 47,
        "velocity": 100,
        "channel": 2
      },
      {
        "type": "note_on",
        "time": 30,
        "note": 47,
        "velocity": 0,
        "channel": 2
      },
      {
        "type": "note_on",
        "time": 0,
        "note": 48,
        "velocity": 100,
        "channel": 2
      },
      {
        "type": "note_on",
        "time": 60,
        "note": 48,
        "velocity": 0,
        "channel": 2
      },
      {
        "type": "note_on",
        "time": 0,
        "note": 60,
        "velocity": 100,
        "channel": 2
      },
      {
        "type": "note_on",
        "time": 45,
        "note": 60,
        "velocity": 0,
        "channel": 2
      },
      {
        "type": "note_on",
        "time": 15,
        "note": 60,
        "velocity": 100,
        "channel": 2
      },
      {
        "type": "note_on",
        "time": 45,
        "note": 60,
        "velocity": 0,
        "channel": 2
      },
      {
        "type": "note_on",
        "time": 15,
        "note": 48,
        "velocity": 100,
        "channel": 2
      },
      {
        "type": "note_on",
        "time": 60,
        "note": 48,
        "velocity": 0,
        "channel": 2
      },
      {
        "type": "note_on",
        "time": 30,
        "note": 48,
        "velocity": 100,
        "channel": 2
      },
      {
        "type": "note_on",
        "time": 45,
        "note": 48,
        "velocity": 0,
        "channel": 2
      },
      {
        "type": "note_on",
        "time": 15,
        "note": 48,
        "velocity": 100,
        "channel": 2
      },
      {
        "type": "note_on",
        "time": 45,
        "note": 48,
        "velocity": 0,
        "channel": 2
      },
      {
        "type": "note_on",
        "time": 15,
        "note": 48,
        "velocity": 100,
        "channel": 2
      },
      {
        "type": "note_on",
        "time": 30,
        "note": 48,
        "velocity": 0,
        "channel": 2
      },
      {
        "type": "note_on",
        "time": 0,
        "note": 48,
        "velocity": 100,
        "channel": 2
      },
      {
        "type": "note_on",
        "time": 30,
        "note": 48,
        "velocity": 0,
        "channel": 2
      },
      {
        "type": "note_on",
        "time": 0,
        "note": 50,
        "velocity": 100,
        "channel": 2
      },
      {
        "type": "note_on",
        "time": 30,
        "note": 50,
        "velocity": 0,
        "channel": 2
      },
      {
        "type": "note_on",
        "time": 0,
        "note": 40,
        "velocity": 100,
        "channel": 2
      },
      {
        "type": "note_on",
        "time": 30,
        "note": 40,
        "velocity": 0,
        "channel": 2
      },
      {
        "type": "note_on",
        "time": 30,
        "note": 50,
        "velocity": 100,
        "channel": 2
      },
      {
        "type": "note_on",
        "time": 45,
        "note": 50,
        "velocity": 0,
        "channel": 2
      },
      {
        "type": "note_on",
        "time": 15,
        "note": 52,
        "velocity": 100,
        "channel": 2
      },
      {
        "type": "note_on",
        "time": 45,
        "note": 52,
        "velocity": 0,
        "channel": 2
      },
      {
        "type": "note_on",
        "time": 15,
        "note": 40,
        "velocity": 100,
        "channel": 2
      },
      {
        "type": "note_on",
        "time": 30,
        "note": 40,
        "velocity": 0,
        "channel": 2
      },
      {
        "type": "note_on",
        "time": 0,
        "note": 40,
        "velocity": 100,
        "channel": 2
      },
      {
        "type": "note_on",
        "time": 30,
        "note": 40,
        "velocity": 0,
        "channel": 2
      },
      {
        "type": "note_on",
        "time": 0,
        "note": 40,
        "velocity": 100,
        "channel": 2
      },
      {
        "type": "note_on",
        "time": 30,
        "note": 40,
        "velocity": 0,
        "channel": 2
      },
      {
        "type": "note_on",
        "time": 0,
        "note": 50,
        "velocity": 100,
        "channel": 2
      },
      {
        "type": "note_on",
        "time": 45,
        "note": 50,
        "velocity": 0,
        "channel": 2
      },
      {
        "type": "note_on",
        "time": 15,
        "note": 52,
        "velocity": 100,
        "channel": 2
      },
      {
        "type": "note_on",
        "time": 45,
        "note": 52,
        "velocity": 0,
        "channel": 2
      },
      {
        "type": "note_on",
        "time": 15,
        "note": 52,
        "velocity": 100,
        "channel": 2
      },
      {
        "type": "note_on",
        "time": 30,
        "note": 52,
        "velocity": 0,
        "channel": 2
      },
      {
        "type": "note_on",
        "time": 0,
        "note": 40,
        "velocity": 100,
        "channel": 2
      },
      {
        "type": "note_on",
        "time": 30,
        "note": 40,
        "velocity": 0,
        "channel": 2
      },
      {
        "type": "note_on",
        "time": 30,
        "note": 38,
        "velocity": 100,
        "channel": 2
      },
      {
        "type": "note_on",
        "time": 30,
        "note": 38,
        "velocity": 0,
        "channel": 2
      },
      {
        "type": "note_on",
        "time": 30,
        "note": 50,
        "velocity": 100,
        "channel": 2
      },
      {
        "type": "note_on",
        "time": 45,
        "note": 50,
        "velocity": 0,
        "channel": 2
      },
      {
        "type": "note_on",
        "time": 15,
        "note": 52,
        "velocity": 100,
        "channel": 2
      },
      {
        "type": "note_on",
        "time": 45,
        "note": 52,
        "velocity": 0,
        "channel": 2
      },
      {
        "type": "note_on",
        "time": 15,
        "note": 38,
        "velocity": 100,
        "channel": 2
      },
      {
        "type": "note_on",
        "time": 60,
        "note": 38,
        "velocity": 0,
        "channel": 2
      },
      {
        "type": "note_on",
        "time": 30,
        "note": 50,
        "velocity": 100,
        "channel": 2
      },
      {
        "type": "note_on",
        "time": 45,
        "note": 50,
        "velocity": 0,
        "channel": 2
      },
      {
        "type": "note_on",
        "time": 15,
        "note": 52,
        "velocity": 100,
        "channel": 2
      },
      {
        "type": "note_on",
        "time": 45,
        "note": 52,
        "velocity": 0,
        "channel": 2
      },
      {
        "type": "note_on",
        "time": 15,
        "note": 50,
        "velocity": 100,
        "channel": 2
      },
      {
        "type": "note_on",
        "time": 30,
        "note": 50,
        "velocity": 0,
        "channel": 2
      },
      {
        "type": "note_on",
        "time": 0,
        "note": 45,
        "velocity": 100,
        "channel": 2
      },
      {
        "type": "note_on",
        "time": 30,
        "note": 45,
        "velocity": 0,
        "channel": 2
      },
      {
        "type": "note_on",
        "time": 30,
        "note": 47,
        "velocity": 100,
        "channel": 2
      },
      {
        "type": "note_on",
        "time": 60,
        "note": 47,
        "velocity": 0,
        "channel": 2
      },
      {
        "type": "note_on",
        "time": 0,
        "note": 59,
        "velocity": 100,
        "channel": 2
      },
      {
        "type": "note_on",
        "time": 45,
        "note": 59,
        "velocity": 0,
        "channel": 2
      },
      {
        "type": "note_on",
        "time": 15,
        "note": 59,
        "velocity": 100,
        "channel": 2
      },
      {
        "type": "note_on",
        "time": 45,
        "note": 59,
        "velocity": 0,
        "channel": 2
      },
      {
        "type": "note_on",
        "time": 15,
        "note": 47,
        "velocity": 100,
        "channel": 2
      },
      {
        "type": "note_on",
        "time": 30,
        "note": 47,
        "velocity": 0,
        "channel": 2
      },
      {
        "type": "note_on",
        "time": 0,
        "note": 47,
        "velocity": 100,
        "channel": 2
      },
      {
        "type": "note_on",
        "time": 30,
        "note": 47,
        "velocity": 0,
        "channel": 2
      },
      {
        "type": "note_on",
        "time": 30,
        "note": 47,
        "velocity": 100,
        "channel": 2
      },
      {
        "type": "note_on",
        "time": 45,
        "note": 47,
        "velocity": 0,
        "channel": 2
      },
      {
        "type": "note_on",
        "time": 15,
        "note": 47,
        "velocity": 100,
        "channel": 2
      },
      {
        "type": "note_on",
        "time": 45,
        "note": 47,
        "velocity": 0,
        "channel": 2
      },
      {
        "type": "note_on",
        "time": 15,
        "note": 47,
        "velocity": 100,
        "channel": 2
      },
      {
        "type": "note_on",
        "time": 30,
        "note": 47,
        "velocity": 0,
        "channel": 2
      },
      {
        "type": "note_on",
        "time": 0,
        "note": 48,
        "velocity": 100,
        "channel": 2
      },
      {
        "type": "note_on",
        "time": 30,
        "note": 48,
        "velocity": 0,
        "channel": 2
      },
      {
        "type": "note_on",
        "time": 0,
        "note": 47,
        "velocity": 100,
        "channel": 2
      },
      {
        "type": "note_on",
        "time": 30,
        "note": 47,
        "velocity": 0,
        "channel": 2
      },
      {
        "type": "note_on",
        "time": 0,
        "note": 48,
        "velocity": 100,
        "channel": 2
      },
      {
        "type": "note_on",
        "time": 60,
        "note": 48,
        "velocity": 0,
        "channel": 2
      },
      {
        "type": "note_on",
        "time": 0,
        "note": 60,
        "velocity": 100,
        "channel": 2
      },
      {
        "type": "note_on",
        "time": 45,
        "note": 60,
        "velocity": 0,
        "channel": 2
      },
      {
        "type": "note_on",
        "time": 15,
        "note": 60,
        "velocity": 100,
        "channel": 2
      },
      {
        "type": "note_on",
        "time": 45,
        "note": 60,
        "velocity": 0,
        "channel": 2
      },
      {
        "type": "note_on",
        "time": 15,
        "note": 48,
        "velocity": 100,
        "channel": 2
      },
      {
        "type": "note_on",
        "time": 60,
        "note": 48,
        "velocity": 0,
        "channel": 2
      },
      {
        "type": "note_on",
        "time": 30,
        "note": 48,
        "velocity": 100,
        "channel": 2
      },
      {
        "type": "note_on",
        "time": 45,
        "note": 48,
        "velocity": 0,
        "channel": 2
      },
      {
        "type": "note_on",
        "time": 15,
        "note": 48,
        "velocity": 100,
        "channel": 2
      },
      {
        "type": "note_on",
        "time": 45,
        "note": 48,
        "velocity": 0,
        "channel": 2
      },
      {
        "type": "end_of_track",
        "time": 0
      }
    ],
    [
      {
        "type": "midi_port",
        "port": 0,
        "time": 0
      },
      {
        "type": "track_name",
        "name": "back vocals",
        "time": 0
      },
      {
        "type": "program_change",
        "time": 0,
        "program": 54,
        "channel": 3
      },
      {
        "type": "control_change",
        "time": 0,
        "control": 7,
        "value": 90,
        "channel": 3
      },
      {
        "type": "control_change",
        "time": 0,
        "control": 10,
        "value": 64,
        "channel": 3
      },
      {
        "type": "note_on",
        "time": 10080,
        "note": 67,
        "velocity": 100,
        "channel": 3
      },
      {
        "type": "note_on",
        "time": 360,
        "note": 67,
        "velocity": 0,
        "channel": 3
      },
      {
        "type": "note_on",
        "time": 0,
        "note": 71,
        "velocity": 100,
        "channel": 3
      },
      {
        "type": "note_on",
        "time": 120,
        "note": 71,
        "velocity": 0,
        "channel": 3
      },
      {
        "type": "note_on",
        "time": 0,
        "note": 66,
        "velocity": 100,
        "channel": 3
      },
      {
        "type": "note_on",
        "time": 360,
        "note": 66,
        "velocity": 0,
        "channel": 3
      },
      {
        "type": "note_on",
        "time": 0,
        "note": 69,
        "velocity": 100,
        "channel": 3
      },
      {
        "type": "note_on",
        "time": 120,
        "note": 69,
        "velocity": 0,
        "channel": 3
      },
      {
        "type": "note_on",
        "time": 0,
        "note": 62,
        "velocity": 100,
        "channel": 3
      },
      {
        "type": "note_on",
        "time": 360,
        "note": 62,
        "velocity": 0,
        "channel": 3
      },
      {
        "type": "note_on",
        "time": 0,
        "note": 66,
        "velocity": 100,
        "channel": 3
      },
      {
        "type": "note_on",
        "time": 120,
        "note": 66,
        "velocity": 0,
        "channel": 3
      },
      {
        "type": "note_on",
        "time": 0,
        "note": 64,
        "velocity": 100,
        "channel": 3
      },
      {
        "type": "note_on",
        "time": 480,
        "note": 64,
        "velocity": 0,
        "channel": 3
      },
      {
        "type": "note_on",
        "time": 0,
        "note": 67,
        "velocity": 100,
        "channel": 3
      },
      {
        "type": "note_on",
        "time": 360,
        "note": 67,
        "velocity": 0,
        "channel": 3
      },
      {
        "type": "note_on",
        "time": 0,
        "note": 71,
        "velocity": 100,
        "channel": 3
      },
      {
        "type": "note_on",
        "time": 120,
        "note": 71,
        "velocity": 0,
        "channel": 3
      },
      {
        "type": "note_on",
        "time": 0,
        "note": 66,
        "velocity": 100,
        "channel": 3
      },
      {
        "type": "note_on",
        "time": 360,
        "note": 66,
        "velocity": 0,
        "channel": 3
      },
      {
        "type": "note_on",
        "time": 0,
        "note": 69,
        "velocity": 100,
        "channel": 3
      },
      {
        "type": "note_on",
        "time": 120,
        "note": 69,
        "velocity": 0,
        "channel": 3
      },
      {
        "type": "note_on",
        "time": 0,
        "note": 62,
        "velocity": 100,
        "channel": 3
      },
      {
        "type": "note_on",
        "time": 360,
        "note": 62,
        "velocity": 0,
        "channel": 3
      },
      {
        "type": "note_on",
        "time": 0,
        "note": 66,
        "velocity": 100,
        "channel": 3
      },
      {
        "type": "note_on",
        "time": 120,
        "note": 66,
        "velocity": 0,
        "channel": 3
      },
      {
        "type": "note_on",
        "time": 0,
        "note": 64,
        "velocity": 100,
        "channel": 3
      },
      {
        "type": "note_on",
        "time": 480,
        "note": 64,
        "velocity": 0,
        "channel": 3
      },
      {
        "type": "note_on",
        "time": 7680,
        "note": 67,
        "velocity": 100,
        "channel": 3
      },
      {
        "type": "note_on",
        "time": 360,
        "note": 67,
        "velocity": 0,
        "channel": 3
      },
      {
        "type": "note_on",
        "time": 0,
        "note": 71,
        "velocity": 100,
        "channel": 3
      },
      {
        "type": "note_on",
        "time": 120,
        "note": 71,
        "velocity": 0,
        "channel": 3
      },
      {
        "type": "note_on",
        "time": 0,
        "note": 66,
        "velocity": 100,
        "channel": 3
      },
      {
        "type": "note_on",
        "time": 360,
        "note": 66,
        "velocity": 0,
        "channel": 3
      },
      {
        "type": "note_on",
        "time": 0,
        "note": 69,
        "velocity": 100,
        "channel": 3
      },
      {
        "type": "note_on",
        "time": 120,
        "note": 69,
        "velocity": 0,
        "channel": 3
      },
      {
        "type": "note_on",
        "time": 0,
        "note": 62,
        "velocity": 100,
        "channel": 3
      },
      {
        "type": "note_on",
        "time": 360,
        "note": 62,
        "velocity": 0,
        "channel": 3
      },
      {
        "type": "note_on",
        "time": 0,
        "note": 66,
        "velocity": 100,
        "channel": 3
      },
      {
        "type": "note_on",
        "time": 120,
        "note": 66,
        "velocity": 0,
        "channel": 3
      },
      {
        "type": "note_on",
        "time": 0,
        "note": 64,
        "velocity": 100,
        "channel": 3
      },
      {
        "type": "note_on",
        "time": 480,
        "note": 64,
        "velocity": 0,
        "channel": 3
      },
      {
        "type": "note_on",
        "time": 0,
        "note": 67,
        "velocity": 100,
        "channel": 3
      },
      {
        "type": "note_on",
        "time": 360,
        "note": 67,
        "velocity": 0,
        "channel": 3
      },
      {
        "type": "note_on",
        "time": 0,
        "note": 71,
        "velocity": 100,
        "channel": 3
      },
      {
        "type": "note_on",
        "time": 120,
        "note": 71,
        "velocity": 0,
        "channel": 3
      },
      {
        "type": "note_on",
        "time": 0,
        "note": 66,
        "velocity": 100,
        "channel": 3
      },
      {
        "type": "note_on",
        "time": 360,
        "note": 66,
        "velocity": 0,
        "channel": 3
      },
      {
        "type": "note_on",
        "time": 0,
        "note": 69,
        "velocity": 100,
        "channel": 3
      },
      {
        "type": "note_on",
        "time": 120,
        "note": 69,
        "velocity": 0,
        "channel": 3
      },
      {
        "type": "note_on",
        "time": 0,
        "note": 62,
        "velocity": 100,
        "channel": 3
      },
      {
        "type": "note_on",
        "time": 360,
        "note": 62,
        "velocity": 0,
        "channel": 3
      },
      {
        "type": "note_on",
        "time": 0,
        "note": 66,
        "velocity": 100,
        "channel": 3
      },
      {
        "type": "note_on",
        "time": 120,
        "note": 66,
        "velocity": 0,
        "channel": 3
      },
      {
        "type": "note_on",
        "time": 0,
        "note": 64,
        "velocity": 100,
        "channel": 3
      },
      {
        "type": "note_on",
        "time": 480,
        "note": 64,
        "velocity": 0,
        "channel": 3
      },
      {
        "type": "note_on",
        "time": 15360,
        "note": 67,
        "velocity": 100,
        "channel": 3
      },
      {
        "type": "note_on",
        "time": 360,
        "note": 67,
        "velocity": 0,
        "channel": 3
      },
      {
        "type": "note_on",
        "time": 0,
        "note": 71,
        "velocity": 100,
        "channel": 3
      },
      {
        "type": "note_on",
        "time": 120,
        "note": 71,
        "velocity": 0,
        "channel": 3
      },
      {
        "type": "note_on",
        "time": 0,
        "note": 66,
        "velocity": 100,
        "channel": 3
      },
      {
        "type": "note_on",
        "time": 360,
        "note": 66,
        "velocity": 0,
        "channel": 3
      },
      {
        "type": "note_on",
        "time": 0,
        "note": 69,
        "velocity": 100,
        "channel": 3
      },
      {
        "type": "note_on",
        "time": 120,
        "note": 69,
        "velocity": 0,
        "channel": 3
      },
      {
        "type": "note_on",
        "time": 0,
        "note": 62,
        "velocity": 100,
        "channel": 3
      },
      {
        "type": "note_on",
        "time": 360,
        "note": 62,
        "velocity": 0,
        "channel": 3
      },
      {
        "type": "note_on",
        "time": 0,
        "note": 66,
        "velocity": 100,
        "channel": 3
      },
      {
        "type": "note_on",
        "time": 120,
        "note": 66,
        "velocity": 0,
        "channel": 3
      },
      {
        "type": "note_on",
        "time": 0,
        "note": 64,
        "velocity": 100,
        "channel": 3
      },
      {
        "type": "note_on",
        "time": 480,
        "note": 64,
        "velocity": 0,
        "channel": 3
      },
      {
        "type": "note_on",
        "time": 0,
        "note": 67,
        "velocity": 100,
        "channel": 3
      },
      {
        "type": "note_on",
        "time": 360,
        "note": 67,
        "velocity": 0,
        "channel": 3
      },
      {
        "type": "note_on",
        "time": 0,
        "note": 71,
        "velocity": 100,
        "channel": 3
      },
      {
        "type": "note_on",
        "time": 120,
        "note": 71,
        "velocity": 0,
        "channel": 3
      },
      {
        "type": "note_on",
        "time": 0,
        "note": 66,
        "velocity": 100,
        "channel": 3
      },
      {
        "type": "note_on",
        "time": 360,
        "note": 66,
        "velocity": 0,
        "channel": 3
      },
      {
        "type": "note_on",
        "time": 0,
        "note": 69,
        "velocity": 100,
        "channel": 3
      },
      {
        "type": "note_on",
        "time": 120,
        "note": 69,
        "velocity": 0,
        "channel": 3
      },
      {
        "type": "note_on",
        "time": 0,
        "note": 62,
        "velocity": 100,
        "channel": 3
      },
      {
        "type": "note_on",
        "time": 360,
        "note": 62,
        "velocity": 0,
        "channel": 3
      },
      {
        "type": "note_on",
        "time": 0,
        "note": 66,
        "velocity": 100,
        "channel": 3
      },
      {
        "type": "note_on",
        "time": 120,
        "note": 66,
        "velocity": 0,
        "channel": 3
      },
      {
        "type": "note_on",
        "time": 0,
        "note": 64,
        "velocity": 100,
        "channel": 3
      },
      {
        "type": "note_on",
        "time": 480,
        "note": 64,
        "velocity": 0,
        "channel": 3
      },
      {
        "type": "end_of_track",
        "time": 0
      }
    ],
    [
      {
        "type": "midi_port",
        "port": 0,
        "time": 0
      },
      {
        "type": "track_name",
        "name": "solo guitar",
        "time": 0
      },
      {
        "type": "program_change",
        "time": 0,
        "program": 30,
        "channel": 4
      },
      {
        "type": "control_change",
        "time": 0,
        "control": 7,
        "value": 90,
        "channel": 4
      },
      {
        "type": "control_change",
        "time": 0,
        "control": 10,
        "value": 64,
        "channel": 4
      },
      {
        "type": "note_on",
        "time": 33120,
        "note": 76,
        "velocity": 100,
        "channel": 4
      },
      {
        "type": "note_on",
        "time": 30,
        "note": 76,
        "velocity": 0,
        "channel": 4
      },
      {
        "type": "note_on",
        "time": 0,
        "note": 71,
        "velocity": 100,
        "channel": 4
      },
      {
        "type": "note_on",
        "time": 30,
        "note": 71,
        "velocity": 0,
        "channel": 4
      },
      {
        "type": "note_on",
        "time": 0,
        "note": 67,
        "velocity": 100,
        "channel": 4
      },
      {
        "type": "note_on",
        "time": 30,
        "note": 67,
        "velocity": 0,
        "channel": 4
      },
      {
        "type": "note_on",
        "time": 0,
        "note": 76,
        "velocity": 100,
        "channel": 4
      },
      {
        "type": "note_on",
        "time": 30,
        "note": 76,
        "velocity": 0,
        "channel": 4
      },
      {
        "type": "note_on",
        "time": 0,
        "note": 71,
        "velocity": 100,
        "channel": 4
      },
      {
        "type": "note_on",
        "time": 30,
        "note": 71,
        "velocity": 0,
        "channel": 4
      },
      {
        "type": "note_on",
        "time": 0,
        "note": 67,
        "velocity": 100,
        "channel": 4
      },
      {
        "type": "note_on",
        "time": 30,
        "note": 67,
        "velocity": 0,
        "channel": 4
      },
      {
        "type": "note_on",
        "time": 0,
        "note": 76,
        "velocity": 100,
        "channel": 4
      },
      {
        "type": "note_on",
        "time": 30,
        "note": 76,
        "velocity": 0,
        "channel": 4
      },
      {
        "type": "note_on",
        "time": 0,
        "note": 71,
        "velocity": 100,
        "channel": 4
      },
      {
        "type": "note_on",
        "time": 30,
        "note": 71,
        "velocity": 0,
        "channel": 4
      },
      {
        "type": "note_on",
        "time": 0,
        "note": 67,
        "velocity": 100,
        "channel": 4
      },
      {
        "type": "note_on",
        "time": 30,
        "note": 67,
        "velocity": 0,
        "channel": 4
      },
      {
        "type": "note_on",
        "time": 0,
        "note": 76,
        "velocity": 100,
        "channel": 4
      },
      {
        "type": "note_on",
        "time": 30,
        "note": 76,
        "velocity": 0,
        "channel": 4
      },
      {
        "type": "note_on",
        "time": 0,
        "note": 71,
        "velocity": 100,
        "channel": 4
      },
      {
        "type": "note_on",
        "time": 30,
        "note": 71,
        "velocity": 0,
        "channel": 4
      },
      {
        "type": "note_on",
        "time": 0,
        "note": 67,
        "velocity": 100,
        "channel": 4
      },
      {
        "type": "note_on",
        "time": 30,
        "note": 67,
        "velocity": 0,
        "channel": 4
      },
      {
        "type": "note_on",
        "time": 0,
        "note": 76,
        "velocity": 100,
        "channel": 4
      },
      {
        "type": "note_on",
        "time": 30,
        "note": 76,
        "velocity": 0,
        "channel": 4
      },
      {
        "type": "note_on",
        "time": 0,
        "note": 71,
        "velocity": 100,
        "channel": 4
      },
      {
        "type": "note_on",
        "time": 30,
        "note": 71,
        "velocity": 0,
        "channel": 4
      },
      {
        "type": "note_on",
        "time": 0,
        "note": 76,
        "velocity": 100,
        "channel": 4
      },
      {
        "type": "note_on",
        "time": 30,
        "note": 76,
        "velocity": 0,
        "channel": 4
      },
      {
        "type": "note_on",
        "time": 0,
        "note": 71,
        "velocity": 100,
        "channel": 4
      },
      {
        "type": "note_on",
        "time": 30,
        "note": 71,
        "velocity": 0,
        "channel": 4
      },
      {
        "type": "note_on",
        "time": 0,
        "note": 74,
        "velocity": 100,
        "channel": 4
      },
      {
        "type": "note_on",
        "time": 30,
        "note": 74,
        "velocity": 0,
        "channel": 4
      },
      {
        "type": "note_on",
        "time": 0,
        "note": 69,
        "velocity": 100,
        "channel": 4
      },
      {
        "type": "note_on",
        "time": 30,
        "note": 69,
        "velocity": 0,
        "channel": 4
      },
      {
        "type": "note_on",
        "time": 0,
        "note": 66,
        "velocity": 100,
        "channel": 4
      },
      {
        "type": "note_on",
        "time": 30,
        "note": 66,
        "velocity": 0,
        "channel": 4
      },
      {
        "type": "note_on",
        "time": 0,
        "note": 74,
        "velocity": 100,
        "channel": 4
      },
      {
        "type": "note_on",
        "time": 30,
        "note": 74,
        "velocity": 0,
        "channel": 4
      },
      {
        "type": "note_on",
        "time": 0,
        "note": 69,
        "velocity": 100,
        "channel": 4
      },
      {
        "type": "note_on",
        "time": 30,
        "note": 69,
        "velocity": 0,
        "channel": 4
      },
      {
        "type": "note_on",
        "time": 0,
        "note": 66,
        "velocity": 100,
        "channel": 4
      },
      {
        "type": "note_on",
        "time": 30,
        "note": 66,
        "velocity": 0,
        "channel": 4
      },
      {
        "type": "note_on",
        "time": 0,
        "note": 74,
        "velocity": 100,
        "channel": 4
      },
      {
        "type": "note_on",
        "time": 30,
        "note": 74,
        "velocity": 0,
        "channel": 4
      },
      {
        "type": "note_on",
        "time": 0,
        "note": 71,
        "velocity": 100,
        "channel": 4
      },
      {
        "type": "note_on",
        "time": 30,
        "note": 71,
        "velocity": 0,
        "channel": 4
      },
      {
        "type": "note_on",
        "time": 0,
        "note": 74,
        "velocity": 100,
        "channel": 4
      },
      {
        "type": "note_on",
        "time": 30,
        "note": 74,
        "velocity": 0,
        "channel": 4
      },
      {
        "type": "note_on",
        "time": 0,
        "note": 71,
        "velocity": 100,
        "channel": 4
      },
      {
        "type": "note_on",
        "time": 30,
        "note": 71,
        "velocity": 0,
        "channel": 4
      },
      {
        "type": "note_on",
        "time": 0,
        "note": 74,
        "velocity": 100,
        "channel": 4
      },
      {
        "type": "note_on",
        "time": 30,
        "note": 74,
        "velocity": 0,
        "channel": 4
      },
      {
        "type": "note_on",
        "time": 0,
        "note": 71,
        "velocity": 100,
        "channel": 4
      },
      {
        "type": "note_on",
        "time": 30,
        "note": 71,
        "velocity": 0,
        "channel": 4
      },
      {
        "type": "note_on",
        "time": 0,
        "note": 74,
        "velocity": 100,
        "channel": 4
      },
      {
        "type": "note_on",
        "time": 30,
        "note": 74,
        "velocity": 0,
        "channel": 4
      },
      {
        "type": "note_on",
        "time": 0,
        "note": 71,
        "velocity": 100,
        "channel": 4
      },
      {
        "type": "note_on",
        "time": 30,
        "note": 71,
        "velocity": 0,
        "channel": 4
      },
      {
        "type": "note_on",
        "time": 0,
        "note": 69,
        "velocity": 100,
        "channel": 4
      },
      {
        "type": "note_on",
        "time": 30,
        "note": 69,
        "velocity": 0,
        "channel": 4
      },
      {
        "type": "note_on",
        "time": 0,
        "note": 66,
        "velocity": 100,
        "channel": 4
      },
      {
        "type": "note_on",
        "time": 30,
        "note": 66,
        "velocity": 0,
        "channel": 4
      },
      {
        "type": "note_on",
        "time": 0,
        "note": 62,
        "velocity": 100,
        "channel": 4
      },
      {
        "type": "note_on",
        "time": 30,
        "note": 62,
        "velocity": 0,
        "channel": 4
      },
      {
        "type": "note_on",
        "time": 0,
        "note": 69,
        "velocity": 100,
        "channel": 4
      },
      {
        "type": "note_on",
        "time": 30,
        "note": 69,
        "velocity": 0,
        "channel": 4
      },
      {
        "type": "note_on",
        "time": 0,
        "note": 66,
        "velocity": 100,
        "channel": 4
      },
      {
        "type": "note_on",
        "time": 30,
        "note": 66,
        "velocity": 0,
        "channel": 4
      },
      {
        "type": "note_on",
        "time": 0,
        "note": 62,
        "velocity": 100,
        "channel": 4
      },
      {
        "type": "note_on",
        "time": 30,
        "note": 62,
        "velocity": 0,
        "channel": 4
      },
      {
        "type": "note_on",
        "time": 0,
        "note": 69,
        "velocity": 100,
        "channel": 4
      },
      {
        "type": "note_on",
        "time": 30,
        "note": 69,
        "velocity": 0,
        "channel": 4
      },
      {
        "type": "note_on",
        "time": 0,
        "note": 66,
        "velocity": 100,
        "channel": 4
      },
      {
        "type": "note_on",
        "time": 30,
        "note": 66,
        "velocity": 0,
        "channel": 4
      },
      {
        "type": "note_on",
        "time": 0,
        "note": 62,
        "velocity": 100,
        "channel": 4
      },
      {
        "type": "note_on",
        "time": 30,
        "note": 62,
        "velocity": 0,
        "channel": 4
      },
      {
        "type": "note_on",
        "time": 0,
        "note": 69,
        "velocity": 100,
        "channel": 4
      },
      {
        "type": "note_on",
        "time": 30,
        "note": 69,
        "velocity": 0,
        "channel": 4
      },
      {
        "type": "note_on",
        "time": 0,
        "note": 66,
        "velocity": 100,
        "channel": 4
      },
      {
        "type": "note_on",
        "time": 30,
        "note": 66,
        "velocity": 0,
        "channel": 4
      },
      {
        "type": "note_on",
        "time": 0,
        "note": 62,
        "velocity": 100,
        "channel": 4
      },
      {
        "type": "note_on",
        "time": 30,
        "note": 62,
        "velocity": 0,
        "channel": 4
      },
      {
        "type": "note_on",
        "time": 0,
        "note": 69,
        "velocity": 100,
        "channel": 4
      },
      {
        "type": "note_on",
        "time": 30,
        "note": 69,
        "velocity": 0,
        "channel": 4
      },
      {
        "type": "note_on",
        "time": 0,
        "note": 66,
        "velocity": 100,
        "channel": 4
      },
      {
        "type": "note_on",
        "time": 30,
        "note": 66,
        "velocity": 0,
        "channel": 4
      },
      {
        "type": "note_on",
        "time": 0,
        "note": 62,
        "velocity": 100,
        "channel": 4
      },
      {
        "type": "note_on",
        "time": 30,
        "note": 62,
        "velocity": 0,
        "channel": 4
      },
      {
        "type": "note_on",
        "time": 0,
        "note": 69,
        "velocity": 100,
        "channel": 4
      },
      {
        "type": "note_on",
        "time": 30,
        "note": 69,
        "velocity": 0,
        "channel": 4
      },
      {
        "type": "note_on",
        "time": 0,
        "note": 66,
        "velocity": 100,
        "channel": 4
      },
      {
        "type": "note_on",
        "time": 30,
        "note": 66,
        "velocity": 0,
        "channel": 4
      },
      {
        "type": "note_on",
        "time": 0,
        "note": 62,
        "velocity": 100,
        "channel": 4
      },
      {
        "type": "note_on",
        "time": 30,
        "note": 62,
        "velocity": 0,
        "channel": 4
      },
      {
        "type": "note_on",
        "time": 0,
        "note": 64,
        "velocity": 100,
        "channel": 4
      },
      {
        "type": "note_on",
        "time": 30,
        "note": 64,
        "velocity": 0,
        "channel": 4
      },
      {
        "type": "note_on",
        "time": 0,
        "note": 71,
        "velocity": 100,
        "channel": 4
      },
      {
        "type": "note_on",
        "time": 30,
        "note": 71,
        "velocity": 0,
        "channel": 4
      },
      {
        "type": "note_on",
        "time": 0,
        "note": 67,
        "velocity": 100,
        "channel": 4
      },
      {
        "type": "note_on",
        "time": 30,
        "note": 67,
        "velocity": 0,
        "channel": 4
      },
      {
        "type": "note_on",
        "time": 0,
        "note": 64,
        "velocity": 100,
        "channel": 4
      },
      {
        "type": "note_on",
        "time": 30,
        "note": 64,
        "velocity": 0,
        "channel": 4
      },
      {
        "type": "note_on",
        "time": 0,
        "note": 71,
        "velocity": 100,
        "channel": 4
      },
      {
        "type": "note_on",
        "time": 30,
        "note": 71,
        "velocity": 0,
        "channel": 4
      },
      {
        "type": "note_on",
        "time": 0,
        "note": 67,
        "velocity": 100,
        "channel": 4
      },
      {
        "type": "note_on",
        "time": 30,
        "note": 67,
        "velocity": 0,
        "channel": 4
      },
      {
        "type": "note_on",
        "time": 0,
        "note": 64,
        "velocity": 100,
        "channel": 4
      },
      {
        "type": "note_on",
        "time": 30,
        "note": 64,
        "velocity": 0,
        "channel": 4
      },
      {
        "type": "note_on",
        "time": 0,
        "note": 71,
        "velocity": 100,
        "channel": 4
      },
      {
        "type": "note_on",
        "time": 30,
        "note": 71,
        "velocity": 0,
        "channel": 4
      },
      {
        "type": "note_on",
        "time": 0,
        "note": 67,
        "velocity": 100,
        "channel": 4
      },
      {
        "type": "note_on",
        "time": 30,
        "note": 67,
        "velocity": 0,
        "channel": 4
      },
      {
        "type": "note_on",
        "time": 0,
        "note": 71,
        "velocity": 100,
        "channel": 4
      },
      {
        "type": "note_on",
        "time": 30,
        "note": 71,
        "velocity": 0,
        "channel": 4
      },
      {
        "type": "note_on",
        "time": 0,
        "note": 67,
        "velocity": 100,
        "channel": 4
      },
      {
        "type": "note_on",
        "time": 30,
        "note": 67,
        "velocity": 0,
        "channel": 4
      },
      {
        "type": "note_on",
        "time": 0,
        "note": 64,
        "velocity": 100,
        "channel": 4
      },
      {
        "type": "note_on",
        "time": 30,
        "note": 64,
        "velocity": 0,
        "channel": 4
      },
      {
        "type": "note_on",
        "time": 0,
        "note": 67,
        "velocity": 100,
        "channel": 4
      },
      {
        "type": "note_on",
        "time": 30,
        "note": 67,
        "velocity": 0,
        "channel": 4
      },
      {
        "type": "note_on",
        "time": 0,
        "note": 71,
        "velocity": 100,
        "channel": 4
      },
      {
        "type": "note_on",
        "time": 30,
        "note": 71,
        "velocity": 0,
        "channel": 4
      },
      {
        "type": "note_on",
        "time": 0,
        "note": 67,
        "velocity": 100,
        "channel": 4
      },
      {
        "type": "note_on",
        "time": 30,
        "note": 67,
        "velocity": 0,
        "channel": 4
      },
      {
        "type": "note_on",
        "time": 0,
        "note": 64,
        "velocity": 100,
        "channel": 4
      },
      {
        "type": "note_on",
        "time": 30,
        "note": 64,
        "velocity": 0,
        "channel": 4
      },
      {
        "type": "note_on",
        "time": 0,
        "note": 76,
        "velocity": 100,
        "channel": 4
      },
      {
        "type": "note_on",
        "time": 30,
        "note": 76,
        "velocity": 0,
        "channel": 4
      },
      {
        "type": "note_on",
        "time": 0,
        "note": 71,
        "velocity": 100,
        "channel": 4
      },
      {
        "type": "note_on",
        "time": 30,
        "note": 71,
        "velocity": 0,
        "channel": 4
      },
      {
        "type": "note_on",
        "time": 0,
        "note": 67,
        "velocity": 100,
        "channel": 4
      },
      {
        "type": "note_on",
        "time": 30,
        "note": 67,
        "velocity": 0,
        "channel": 4
      },
      {
        "type": "note_on",
        "time": 0,
        "note": 76,
        "velocity": 100,
        "channel": 4
      },
      {
        "type": "note_on",
        "time": 30,
        "note": 76,
        "velocity": 0,
        "channel": 4
      },
      {
        "type": "note_on",
        "time": 0,
        "note": 71,
        "velocity": 100,
        "channel": 4
      },
      {
        "type": "note_on",
        "time": 30,
        "note": 71,
        "velocity": 0,
        "channel": 4
      },
      {
        "type": "note_on",
        "time": 0,
        "note": 67,
        "velocity": 100,
        "channel": 4
      },
      {
        "type": "note_on",
        "time": 30,
        "note": 67,
        "velocity": 0,
        "channel": 4
      },
      {
        "type": "note_on",
        "time": 0,
        "note": 76,
        "velocity": 100,
        "channel": 4
      },
      {
        "type": "note_on",
        "time": 30,
        "note": 76,
        "velocity": 0,
        "channel": 4
      },
      {
        "type": "note_on",
        "time": 0,
        "note": 71,
        "velocity": 100,
        "channel": 4
      },
      {
        "type": "note_on",
        "time": 30,
        "note": 71,
        "velocity": 0,
        "channel": 4
      },
      {
        "type": "note_on",
        "time": 0,
        "note": 67,
        "velocity": 100,
        "channel": 4
      },
      {
        "type": "note_on",
        "time": 30,
        "note": 67,
        "velocity": 0,
        "channel": 4
      },
      {
        "type": "note_on",
        "time": 0,
        "note": 76,
        "velocity": 100,
        "channel": 4
      },
      {
        "type": "note_on",
        "time": 30,
        "note": 76,
        "velocity": 0,
        "channel": 4
      },
      {
        "type": "note_on",
        "time": 0,
        "note": 71,
        "velocity": 100,
        "channel": 4
      },
      {
        "type": "note_on",
        "time": 30,
        "note": 71,
        "velocity": 0,
        "channel": 4
      },
      {
        "type": "note_on",
        "time": 0,
        "note": 67,
        "velocity": 100,
        "channel": 4
      },
      {
        "type": "note_on",
        "time": 30,
        "note": 67,
        "velocity": 0,
        "channel": 4
      },
      {
        "type": "note_on",
        "time": 0,
        "note": 76,
        "velocity": 100,
        "channel": 4
      },
      {
        "type": "note_on",
        "time": 30,
        "note": 76,
        "velocity": 0,
        "channel": 4
      },
      {
        "type": "note_on",
        "time": 0,
        "note": 71,
        "velocity": 100,
        "channel": 4
      },
      {
        "type": "note_on",
        "time": 30,
        "note": 71,
        "velocity": 0,
        "channel": 4
      },
      {
        "type": "note_on",
        "time": 0,
        "note": 76,
        "velocity": 100,
        "channel": 4
      },
      {
        "type": "note_on",
        "time": 30,
        "note": 76,
        "velocity": 0,
        "channel": 4
      },
      {
        "type": "note_on",
        "time": 0,
        "note": 71,
        "velocity": 100,
        "channel": 4
      },
      {
        "type": "note_on",
        "time": 30,
        "note": 71,
        "velocity": 0,
        "channel": 4
      },
      {
        "type": "note_on",
        "time": 0,
        "note": 74,
        "velocity": 100,
        "channel": 4
      },
      {
        "type": "note_on",
        "time": 30,
        "note": 74,
        "velocity": 0,
        "channel": 4
      },
      {
        "type": "note_on",
        "time": 0,
        "note": 69,
        "velocity": 100,
        "channel": 4
      },
      {
        "type": "note_on",
        "time": 30,
        "note": 69,
        "velocity": 0,
        "channel": 4
      },
      {
        "type": "note_on",
        "time": 0,
        "note": 66,
        "velocity": 100,
        "channel": 4
      },
      {
        "type": "note_on",
        "time": 30,
        "note": 66,
        "velocity": 0,
        "channel": 4
      },
      {
        "type": "note_on",
        "time": 0,
        "note": 74,
        "velocity": 100,
        "channel": 4
      },
      {
        "type": "note_on",
        "time": 30,
        "note": 74,
        "velocity": 0,
        "channel": 4
      },
      {
        "type": "note_on",
        "time": 0,
        "note": 69,
        "velocity": 100,
        "channel": 4
      },
      {
        "type": "note_on",
        "time": 30,
        "note": 69,
        "velocity": 0,
        "channel": 4
      },
      {
        "type": "note_on",
        "time": 0,
        "note": 66,
        "velocity": 100,
        "channel": 4
      },
      {
        "type": "note_on",
        "time": 30,
        "note": 66,
        "velocity": 0,
        "channel": 4
      },
      {
        "type": "note_on",
        "time": 0,
        "note": 74,
        "velocity": 100,
        "channel": 4
      },
      {
        "type": "note_on",
        "time": 30,
        "note": 74,
        "velocity": 0,
        "channel": 4
      },
      {
        "type": "note_on",
        "time": 0,
        "note": 71,
        "velocity": 100,
        "channel": 4
      },
      {
        "type": "note_on",
        "time": 30,
        "note": 71,
        "velocity": 0,
        "channel": 4
      },
      {
        "type": "note_on",
        "time": 0,
        "note": 74,
        "velocity": 100,
        "channel": 4
      },
      {
        "type": "note_on",
        "time": 30,
        "note": 74,
        "velocity": 0,
        "channel": 4
      },
      {
        "type": "note_on",
        "time": 0,
        "note": 71,
        "velocity": 100,
        "channel": 4
      },
      {
        "type": "note_on",
        "time": 30,
        "note": 71,
        "velocity": 0,
        "channel": 4
      },
      {
        "type": "note_on",
        "time": 0,
        "note": 74,
        "velocity": 100,
        "channel": 4
      },
      {
        "type": "note_on",
        "time": 30,
        "note": 74,
        "velocity": 0,
        "channel": 4
      },
      {
        "type": "note_on",
        "time": 0,
        "note": 71,
        "velocity": 100,
        "channel": 4
      },
      {
        "type": "note_on",
        "time": 30,
        "note": 71,
        "velocity": 0,
        "channel": 4
      },
      {
        "type": "note_on",
        "time": 0,
        "note": 74,
        "velocity": 100,
        "channel": 4
      },
      {
        "type": "note_on",
        "time": 30,
        "note": 74,
        "velocity": 0,
        "channel": 4
      },
      {
        "type": "note_on",
        "time": 0,
        "note": 71,
        "velocity": 100,
        "channel": 4
      },
      {
        "type": "note_on",
        "time": 30,
        "note": 71,
        "velocity": 0,
        "channel": 4
      },
      {
        "type": "note_on",
        "time": 0,
        "note": 69,
        "velocity": 100,
        "channel": 4
      },
      {
        "type": "note_on",
        "time": 30,
        "note": 69,
        "velocity": 0,
        "channel": 4
      },
      {
        "type": "note_on",
        "time": 0,
        "note": 66,
        "velocity": 100,
        "channel": 4
      },
      {
        "type": "note_on",
        "time": 30,
        "note": 66,
        "velocity": 0,
        "channel": 4
      },
      {
        "type": "note_on",
        "time": 0,
        "note": 62,
        "velocity": 100,
        "channel": 4
      },
      {
        "type": "note_on",
        "time": 30,
        "note": 62,
        "velocity": 0,
        "channel": 4
      },
      {
        "type": "note_on",
        "time": 0,
        "note": 69,
        "velocity": 100,
        "channel": 4
      },
      {
        "type": "note_on",
        "time": 30,
        "note": 69,
        "velocity": 0,
        "channel": 4
      },
      {
        "type": "note_on",
        "time": 0,
        "note": 66,
        "velocity": 100,
        "channel": 4
      },
      {
        "type": "note_on",
        "time": 30,
        "note": 66,
        "velocity": 0,
        "channel": 4
      },
      {
        "type": "note_on",
        "time": 0,
        "note": 62,
        "velocity": 100,
        "channel": 4
      },
      {
        "type": "note_on",
        "time": 30,
        "note": 62,
        "velocity": 0,
        "channel": 4
      },
      {
        "type": "note_on",
        "time": 0,
        "note": 69,
        "velocity": 100,
        "channel": 4
      },
      {
        "type": "note_on",
        "time": 30,
        "note": 69,
        "velocity": 0,
        "channel": 4
      },
      {
        "type": "note_on",
        "time": 0,
        "note": 66,
        "velocity": 100,
        "channel": 4
      },
      {
        "type": "note_on",
        "time": 30,
        "note": 66,
        "velocity": 0,
        "channel": 4
      },
      {
        "type": "note_on",
        "time": 0,
        "note": 62,
        "velocity": 100,
        "channel": 4
      },
      {
        "type": "note_on",
        "time": 30,
        "note": 62,
        "velocity": 0,
        "channel": 4
      },
      {
        "type": "note_on",
        "time": 0,
        "note": 69,
        "velocity": 100,
        "channel": 4
      },
      {
        "type": "note_on",
        "time": 30,
        "note": 69,
        "velocity": 0,
        "channel": 4
      },
      {
        "type": "note_on",
        "time": 0,
        "note": 66,
        "velocity": 100,
        "channel": 4
      },
      {
        "type": "note_on",
        "time": 30,
        "note": 66,
        "velocity": 0,
        "channel": 4
      },
      {
        "type": "note_on",
        "time": 0,
        "note": 62,
        "velocity": 100,
        "channel": 4
      },
      {
        "type": "note_on",
        "time": 30,
        "note": 62,
        "velocity": 0,
        "channel": 4
      },
      {
        "type": "note_on",
        "time": 0,
        "note": 69,
        "velocity": 100,
        "channel": 4
      },
      {
        "type": "note_on",
        "time": 30,
        "note": 69,
        "velocity": 0,
        "channel": 4
      },
      {
        "type": "note_on",
        "time": 0,
        "note": 66,
        "velocity": 100,
        "channel": 4
      },
      {
        "type": "note_on",
        "time": 30,
        "note": 66,
        "velocity": 0,
        "channel": 4
      },
      {
        "type": "note_on",
        "time": 0,
        "note": 62,
        "velocity": 100,
        "channel": 4
      },
      {
        "type": "note_on",
        "time": 30,
        "note": 62,
        "velocity": 0,
        "channel": 4
      },
      {
        "type": "note_on",
        "time": 0,
        "note": 69,
        "velocity": 100,
        "channel": 4
      },
      {
        "type": "note_on",
        "time": 30,
        "note": 69,
        "velocity": 0,
        "channel": 4
      },
      {
        "type": "note_on",
        "time": 0,
        "note": 66,
        "velocity": 100,
        "channel": 4
      },
      {
        "type": "note_on",
        "time": 30,
        "note": 66,
        "velocity": 0,
        "channel": 4
      },
      {
        "type": "note_on",
        "time": 0,
        "note": 62,
        "velocity": 100,
        "channel": 4
      },
      {
        "type": "note_on",
        "time": 30,
        "note": 62,
        "velocity": 0,
        "channel": 4
      },
      {
        "type": "note_on",
        "time": 0,
        "note": 64,
        "velocity": 100,
        "channel": 4
      },
      {
        "type": "note_on",
        "time": 30,
        "note": 64,
        "velocity": 0,
        "channel": 4
      },
      {
        "type": "note_on",
        "time": 0,
        "note": 71,
        "velocity": 99,
        "channel": 4
      },
      {
        "type": "note_on",
        "time": 30,
        "note": 71,
        "velocity": 0,
        "channel": 4
      },
      {
        "type": "note_on",
        "time": 0,
        "note": 67,
        "velocity": 99,
        "channel": 4
      },
      {
        "type": "note_on",
        "time": 30,
        "note": 67,
        "velocity": 0,
        "channel": 4
      },
      {
        "type": "note_on",
        "time": 0,
        "note": 64,
        "velocity": 99,
        "channel": 4
      },
      {
        "type": "note_on",
        "time": 30,
        "note": 64,
        "velocity": 0,
        "channel": 4
      },
      {
        "type": "note_on",
        "time": 0,
        "note": 71,
        "velocity": 101,
        "channel": 4
      },
      {
        "type": "note_on",
        "time": 30,
        "note": 71,
        "velocity": 0,
        "channel": 4
      },
      {
        "type": "note_on",
        "time": 0,
        "note": 67,
        "velocity": 102,
        "channel": 4
      },
      {
        "type": "note_on",
        "time": 30,
        "note": 67,
        "velocity": 0,
        "channel": 4
      },
      {
        "type": "note_on",
        "time": 0,
        "note": 64,
        "velocity": 104,
        "channel": 4
      },
      {
        "type": "note_on",
        "time": 30,
        "note": 64,
        "velocity": 0,
        "channel": 4
      },
      {
        "type": "note_on",
        "time": 0,
        "note": 71,
        "velocity": 105,
        "channel": 4
      },
      {
        "type": "note_on",
        "time": 30,
        "note": 71,
        "velocity": 0,
        "channel": 4
      },
      {
        "type": "note_on",
        "time": 0,
        "note": 67,
        "velocity": 107,
        "channel": 4
      },
      {
        "type": "note_on",
        "time": 30,
        "note": 67,
        "velocity": 0,
        "channel": 4
      },
      {
        "type": "note_on",
        "time": 0,
        "note": 71,
        "velocity": 109,
        "channel": 4
      },
      {
        "type": "note_on",
        "time": 30,
        "note": 71,
        "velocity": 0,
        "channel": 4
      },
      {
        "type": "note_on",
        "time": 0,
        "note": 67,
        "velocity": 110,
        "channel": 4
      },
      {
        "type": "note_on",
        "time": 30,
        "note": 67,
        "velocity": 0,
        "channel": 4
      },
      {
        "type": "note_on",
        "time": 0,
        "note": 64,
        "velocity": 113,
        "channel": 4
      },
      {
        "type": "note_on",
        "time": 30,
        "note": 64,
        "velocity": 0,
        "channel": 4
      },
      {
        "type": "note_on",
        "time": 0,
        "note": 67,
        "velocity": 114,
        "channel": 4
      },
      {
        "type": "note_on",
        "time": 30,
        "note": 67,
        "velocity": 0,
        "channel": 4
      },
      {
        "type": "note_on",
        "time": 0,
        "note": 71,
        "velocity": 116,
        "channel": 4
      },
      {
        "type": "note_on",
        "time": 30,
        "note": 71,
        "velocity": 0,
        "channel": 4
      },
      {
        "type": "note_on",
        "time": 0,
        "note": 67,
        "velocity": 118,
        "channel": 4
      },
      {
        "type": "note_on",
        "time": 30,
        "note": 67,
        "velocity": 0,
        "channel": 4
      },
      {
        "type": "note_on",
        "time": 0,
        "note": 64,
        "velocity": 121,
        "channel": 4
      },
      {
        "type": "note_on",
        "time": 30,
        "note": 64,
        "velocity": 0,
        "channel": 4
      },
      {
        "type": "note_on",
        "time": 0,
        "note": 76,
        "velocity": 100,
        "channel": 4
      },
      {
        "type": "note_on",
        "time": 360,
        "note": 76,
        "velocity": 0,
        "channel": 4
      },
      {
        "type": "note_on",
        "time": 0,
        "note": 76,
        "velocity": 100,
        "channel": 4
      },
      {
        "type": "note_on",
        "time": 120,
        "note": 76,
        "velocity": 0,
        "channel": 4
      },
      {
        "type": "note_on",
        "time": 0,
        "note": 74,
        "velocity": 100,
        "channel": 4
      },
      {
        "type": "note_on",
        "time": 360,
        "note": 74,
        "velocity": 0,
        "channel": 4
      },
      {
        "type": "note_on",
        "time": 0,
        "note": 74,
        "velocity": 100,
        "channel": 4
      },
      {
        "type": "note_on",
        "time": 120,
        "note": 74,
        "velocity": 0,
        "channel": 4
      },
      {
        "type": "note_on",
        "time": 0,
        "note": 71,
        "velocity": 100,
        "channel": 4
      },
      {
        "type": "note_on",
        "time": 360,
        "note": 71,
        "velocity": 0,
        "channel": 4
      },
      {
        "type": "note_on",
        "time": 0,
        "note": 71,
        "velocity": 100,
        "channel": 4
      },
      {
        "type": "note_on",
        "time": 120,
        "note": 71,
        "velocity": 0,
        "channel": 4
      },
      {
        "type": "note_on",
        "time": 0,
        "note": 67,
        "velocity": 100,
        "channel": 4
      },
      {
        "type": "note_on",
        "time": 480,
        "note": 67,
        "velocity": 0,
        "channel": 4
      },
      {
        "type": "note_on",
        "time": 0,
        "note": 76,
        "velocity": 100,
        "channel": 4
      },
      {
        "type": "note_on",
        "time": 300,
        "note": 76,
        "velocity": 0,
        "channel": 4
      },
      {
        "type": "note_on",
        "time": 0,
        "note": 78,
        "velocity": 100,
        "channel": 4
      },
      {
        "type": "note_on",
        "time": 180,
        "note": 78,
        "velocity": 0,
        "channel": 4
      },
      {
        "type": "note_on",
        "time": 0,
        "note": 74,
        "velocity": 100,
        "channel": 4
      },
      {
        "type": "note_on",
        "time": 360,
        "note": 74,
        "velocity": 0,
        "channel": 4
      },
      {
        "type": "note_on",
        "time": 0,
        "note": 76,
        "velocity": 100,
        "channel": 4
      },
      {
        "type": "note_on",
        "time": 120,
        "note": 76,
        "velocity": 0,
        "channel": 4
      },
      {
        "type": "note_on",
        "time": 0,
        "note": 71,
        "velocity": 100,
        "channel": 4
      },
      {
        "type": "note_on",
        "time": 360,
        "note": 71,
        "velocity": 0,
        "channel": 4
      },
      {
        "type": "note_on",
        "time": 0,
        "note": 74,
        "velocity": 100,
        "channel": 4
      },
      {
        "type": "note_on",
        "time": 120,
        "note": 74,
        "velocity": 0,
        "channel": 4
      },
      {
        "type": "note_on",
        "time": 0,
        "note": 69,
        "velocity": 100,
        "channel": 4
      },
      {
        "type": "note_on",
        "time": 60,
        "note": 69,
        "velocity": 0,
        "channel": 4
      },
      {
        "type": "note_on",
        "time": 0,
        "note": 67,
        "velocity": 100,
        "channel": 4
      },
      {
        "type": "note_on",
        "time": 420,
        "note": 67,
        "velocity": 0,
        "channel": 4
      },
      {
        "type": "end_of_track",
        "time": 0
      }
    ],
    [
      {
        "type": "midi_port",
        "port": 0,
        "time": 0
      },
      {
        "type": "track_name",
        "name": "drums",
        "time": 0
      },
      {
        "type": "control_change",
        "time": 0,
        "control": 7,
        "value": 120,
        "channel": 9
      },
      {
        "type": "control_change",
        "time": 0,
        "control": 10,
        "value": 64,
        "channel": 9
      },
      {
        "type": "note_on",
        "time": 0,
        "note": 37,
        "velocity": 100,
        "channel": 9
      },
      {
        "type": "note_on",
        "time": 15,
        "note": 37,
        "velocity": 0,
        "channel": 9
      },
      {
        "type": "note_on",
        "time": 105,
        "note": 37,
        "velocity": 100,
        "channel": 9
      },
      {
        "type": "note_on",
        "time": 15,
        "note": 37,
        "velocity": 0,
        "channel": 9
      },
      {
        "type": "note_on",
        "time": 105,
        "note": 37,
        "velocity": 100,
        "channel": 9
      },
      {
        "type": "note_on",
        "time": 15,
        "note": 37,
        "velocity": 0,
        "channel": 9
      },
      {
        "type": "note_on",
        "time": 105,
        "note": 37,
        "velocity": 100,
        "channel": 9
      },
      {
        "type": "note_on",
        "time": 15,
        "note": 37,
        "velocity": 0,
        "channel": 9
      },
      {
        "type": "note_on",
        "time": 105,
        "note": 36,
        "velocity": 55,
        "channel": 9
      },
      {
        "type": "note_on",
        "time": 15,
        "note": 36,
        "velocity": 0,
        "channel": 9
      },
      {
        "type": "note_on",
        "time": 15,
        "note": 36,
        "velocity": 55,
        "channel": 9
      },
      {
        "type": "note_on",
        "time": 15,
        "note": 36,
        "velocity": 0,
        "channel": 9
      },
      {
        "type": "note_on",
        "time": 15,
        "note": 36,
        "velocity": 55,
        "channel": 9
      },
      {
        "type": "note_on",
        "time": 15,
        "note": 36,
        "velocity": 0,
        "channel": 9
      },
      {
        "type": "note_on",
        "time": 15,
        "note": 36,
        "velocity": 55,
        "channel": 9
      },
      {
        "type": "note_on",
        "time": 15,
        "note": 36,
        "velocity": 0,
        "channel": 9
      },
      {
        "type": "note_on",
        "time": 15,
        "note": 36,
        "velocity": 56,
        "channel": 9
      },
      {
        "type": "note_on",
        "time": 15,
        "note": 36,
        "velocity": 0,
        "channel": 9
      },
      {
        "type": "note_on",
        "time": 15,
        "note": 36,
        "velocity": 57,
        "channel": 9
      },
      {
        "type": "note_on",
        "time": 15,
        "note": 36,
        "velocity": 0,
        "channel": 9
      },
      {
        "type": "note_on",
        "time": 15,
        "note": 36,
        "velocity": 59,
        "channel": 9
      },
      {
        "type": "note_on",
        "time": 15,
        "note": 36,
        "velocity": 0,
        "channel": 9
      },
      {
        "type": "note_on",
        "time": 15,
        "note": 36,
        "velocity": 60,
        "channel": 9
      },
      {
        "type": "note_on",
        "time": 15,
        "note": 36,
        "velocity": 0,
        "channel": 9
      },
      {
        "type": "note_on",
        "time": 15,
        "note": 36,
        "velocity": 61,
        "channel": 9
      },
      {
        "type": "note_on",
        "time": 15,
        "note": 36,
        "velocity": 0,
        "channel": 9
      },
      {
        "type": "note_on",
        "time": 15,
        "note": 36,
        "velocity": 62,
        "channel": 9
      },
      {
        "type": "note_on",
        "time": 15,
        "note": 36,
        "velocity": 0,
        "channel": 9
      },
      {
        "type": "note_on",
        "time": 15,
        "note": 36,
        "velocity": 63,
        "channel": 9
      },
      {
        "type": "note_on",
        "time": 15,
        "note": 36,
        "velocity": 0,
        "channel": 9
      },
      {
        "type": "note_on",
        "time": 15,
        "note": 36,
        "velocity": 63,
        "channel": 9
      },
      {
        "type": "note_on",
        "time": 15,
        "note": 36,
        "velocity": 0,
        "channel": 9
      },
      {
        "type": "note_on",
        "time": 15,
        "note": 36,
        "velocity": 64,
        "channel": 9
      },
      {
        "type": "note_on",
        "time": 15,
        "note": 36,
        "velocity": 0,
        "channel": 9
      },
      {
        "type": "note_on",
        "time": 15,
        "note": 36,
        "velocity": 65,
        "channel": 9
      },
      {
        "type": "note_on",
        "time": 15,
        "note": 36,
        "velocity": 0,
        "channel": 9
      },
      {
        "type": "note_on",
        "time": 15,
        "note": 36,
        "velocity": 67,
        "channel": 9
      },
      {
        "type": "note_on",
        "time": 15,
        "note": 36,
        "velocity": 0,
        "channel": 9
      },
      {
        "type": "note_on",
        "time": 15,
        "note": 36,
        "velocity": 67,
        "channel": 9
      },
      {
        "type": "note_on",
        "time": 15,
        "note": 36,
        "velocity": 0,
        "channel": 9
      },
      {
        "type": "note_on",
        "time": 15,
        "note": 36,
        "velocity": 67,
        "channel": 9
      },
      {
        "type": "note_on",
        "time": 0,
        "note": 35,
        "velocity": 67,
        "channel": 9
      },
      {
        "type": "note_on",
        "time": 15,
        "note": 35,
        "velocity": 0,
        "channel": 9
      },
      {
        "type": "note_on",
        "time": 0,
        "note": 36,
        "velocity": 0,
        "channel": 9
      },
      {
        "type": "note_on",
        "time": 15,
        "note": 36,
        "velocity": 67,
        "channel": 9
      },
      {
        "type": "note_on",
        "time": 0,
        "note": 35,
        "velocity": 67,
        "channel": 9
      },
      {
        "type": "note_on",
        "time": 15,
        "note": 35,
        "velocity": 0,
        "channel": 9
      },
      {
        "type": "note_on",
        "time": 0,
        "note": 36,
        "velocity": 0,
        "channel": 9
      },
      {
        "type": "note_on",
        "time": 15,
        "note": 36,
        "velocity": 67,
        "channel": 9
      },
      {
        "type": "note_on",
        "time": 0,
        "note": 35,
        "velocity": 67,
        "channel": 9
      },
      {
        "type": "note_on",
        "time": 15,
        "note": 35,
        "velocity": 0,
        "channel": 9
      },
      {
        "type": "note_on",
        "time": 0,
        "note": 36,
        "velocity": 0,
        "channel": 9
      },
      {
        "type": "note_on",
        "time": 15,
        "note": 36,
        "velocity": 68,
        "channel": 9
      },
      {
        "type": "note_on",
        "time": 0,
        "note": 35,
        "velocity": 68,
        "channel": 9
      },
      {
        "type": "note_on",
        "time": 15,
        "note": 35,
        "velocity": 0,
        "channel": 9
      },
      {
        "type": "note_on",
        "time": 0,
        "note": 36,
        "velocity": 0,
        "channel": 9
      },
      {
        "type": "note_on",
        "time": 15,
        "note": 36,
        "velocity": 68,
        "channel": 9
      },
      {
        "type": "note_on",
        "time": 0,
        "note": 35,
        "velocity": 68,
        "channel": 9
      },
      {
        "type": "note_on",
        "time": 15,
        "note": 35,
        "velocity": 0,
        "channel": 9
      },
      {
        "type": "note_on",
        "time": 0,
        "note": 36,
        "velocity": 0,
        "channel": 9
      },
      {
        "type": "note_on",
        "time": 15,
        "note": 36,
        "velocity": 68,
        "channel": 9
      },
      {
        "type": "note_on",
        "time": 0,
        "note": 35,
        "velocity": 68,
        "channel": 9
      },
      {
        "type": "note_on",
        "time": 15,
        "note": 35,
        "velocity": 0,
        "channel": 9
      },
      {
        "type": "note_on",
        "time": 0,
        "note": 36,
        "velocity": 0,
        "channel": 9
      },
      {
        "type": "note_on",
        "time": 15,
        "note": 36,
        "velocity": 71,
        "channel": 9
      },
      {
        "type": "note_on",
        "time": 0,
        "note": 35,
        "velocity": 71,
        "channel": 9
      },
      {
        "type": "note_on",
        "time": 15,
        "note": 35,
        "velocity": 0,
        "channel": 9
      },
      {
        "type": "note_on",
        "time": 0,
        "note": 36,
        "velocity": 0,
        "channel": 9
      },
      {
        "type": "note_on",
        "time": 15,
        "note": 36,
        "velocity": 72,
        "channel": 9
      },
      {
        "type": "note_on",
        "time": 0,
        "note": 35,
        "velocity": 72,
        "channel": 9
      },
      {
        "type": "note_on",
        "time": 15,
        "note": 35,
        "velocity": 0,
        "channel": 9
      },
      {
        "type": "note_on",
        "time": 0,
        "note": 36,
        "velocity": 0,
        "channel": 9
      },
      {
        "type": "note_on",
        "time": 15,
        "note": 36,
        "velocity": 72,
        "channel": 9
      },
      {
        "type": "note_on",
        "time": 0,
        "note": 35,
        "velocity": 72,
        "channel": 9
      },
      {
        "type": "note_on",
        "time": 15,
        "note": 35,
        "velocity": 0,
        "channel": 9
      },
      {
        "type": "note_on",
        "time": 0,
        "note": 36,
        "velocity": 0,
        "channel": 9
      },
      {
        "type": "note_on",
        "time": 15,
        "note": 36,
        "velocity": 72,
        "channel": 9
      },
      {
        "type": "note_on",
        "time": 0,
        "note": 35,
        "velocity": 72,
        "channel": 9
      },
      {
        "type": "note_on",
        "time": 15,
        "note": 35,
        "velocity": 0,
        "channel": 9
      },
      {
        "type": "note_on",
        "time": 0,
        "note": 36,
        "velocity": 0,
        "channel": 9
      },
      {
        "type": "note_on",
        "time": 15,
        "note": 36,
        "velocity": 72,
        "channel": 9
      },
      {
        "type": "note_on",
        "time": 0,
        "note": 35,
        "velocity": 72,
        "channel": 9
      },
      {
        "type": "note_on",
        "time": 15,
        "note": 35,
        "velocity": 0,
        "channel": 9
      },
      {
        "type": "note_on",
        "time": 0,
        "note": 36,
        "velocity": 0,
        "channel": 9
      },
      {
        "type": "note_on",
        "time": 15,
        "note": 36,
        "velocity": 72,
        "channel": 9
      },
      {
        "type": "note_on",
        "time": 0,
        "note": 35,
        "velocity": 72,
        "channel": 9
      },
      {
        "type": "note_on",
        "time": 15,
        "note": 35,
        "velocity": 0,
        "channel": 9
      },
      {
        "type": "note_on",
        "time": 0,
        "note": 36,
        "velocity": 0,
        "channel": 9
      },
      {
        "type": "note_on",
        "time": 15,
        "note": 36,
        "velocity": 72,
        "channel": 9
      },
      {
        "type": "note_on",
        "time": 0,
        "note": 35,
        "velocity": 72,
        "channel": 9
      },
      {
        "type": "note_on",
        "time": 15,
        "note": 35,
        "velocity": 0,
        "channel": 9
      },
      {
        "type": "note_on",
        "time": 0,
        "note": 36,
        "velocity": 0,
        "channel": 9
      },
      {
        "type": "note_on",
        "time": 15,
        "note": 36,
        "velocity": 72,
        "channel": 9
      },
      {
        "type": "note_on",
        "time": 0,
        "note": 35,
        "velocity": 72,
        "channel": 9
      },
      {
        "type": "note_on",
        "time": 15,
        "note": 35,
        "velocity": 0,
        "channel": 9
      },
      {
        "type": "note_on",
        "time": 0,
        "note": 36,
        "velocity": 0,
        "channel": 9
      },
      {
        "type": "note_on",
        "time": 15,
        "note": 36,
        "velocity": 72,
        "channel": 9
      },
      {
        "type": "note_on",
        "time": 0,
        "note": 35,
        "velocity": 72,
        "channel": 9
      },
      {
        "type": "note_on",
        "time": 15,
        "note": 35,
        "velocity": 0,
        "channel": 9
      },
      {
        "type": "note_on",
        "time": 0,
        "note": 36,
        "velocity": 0,
        "channel": 9
      },
      {
        "type": "note_on",
        "time": 15,
        "note": 36,
        "velocity": 72,
        "channel": 9
      },
      {
        "type": "note_on",
        "time": 0,
        "note": 35,
        "velocity": 72,
        "channel": 9
      },
      {
        "type": "note_on",
        "time": 15,
        "note": 35,
        "velocity": 0,
        "channel": 9
      },
      {
        "type": "note_on",
        "time": 0,
        "note": 36,
        "velocity": 0,
        "channel": 9
      },
      {
        "type": "note_on",
        "time": 15,
        "note": 36,
        "velocity": 72,
        "channel": 9
      },
      {
        "type": "note_on",
        "time": 0,
        "note": 35,
        "velocity": 72,
        "channel": 9
      },
      {
        "type": "note_on",
        "time": 0,
        "note": 41,
        "velocity": 72,
        "channel": 9
      },
      {
        "type": "note_on",
        "time": 15,
        "note": 41,
        "velocity": 0,
        "channel": 9
      },
      {
        "type": "note_on",
        "time": 0,
        "note": 35,
        "velocity": 0,
        "channel": 9
      },
      {
        "type": "note_on",
        "time": 0,
        "note": 36,
        "velocity": 0,
        "channel": 9
      },
      {
        "type": "note_on",
        "time": 15,
        "note": 36,
        "velocity": 72,
        "channel": 9
      },
      {
        "type": "note_on",
        "time": 0,
        "note": 35,
        "velocity": 72,
        "channel": 9
      },
      {
        "type": "note_on",
        "time": 0,
        "note": 41,
        "velocity": 72,
        "channel": 9
      },
      {
        "type": "note_on",
        "time": 15,
        "note": 41,
        "velocity": 0,
        "channel": 9
      },
      {
        "type": "note_on",
        "time": 0,
        "note": 35,
        "velocity": 0,
        "channel": 9
      },
      {
        "type": "note_on",
        "time": 0,
        "note": 36,
        "velocity": 0,
        "channel": 9
      },
      {
        "type": "note_on",
        "time": 15,
        "note": 36,
        "velocity": 72,
        "channel": 9
      },
      {
        "type": "note_on",
        "time": 0,
        "note": 35,
        "velocity": 72,
        "channel": 9
      },
      {
        "type": "note_on",
        "time": 0,
        "note": 41,
        "velocity": 72,
        "channel": 9
      },
      {
        "type": "note_on",
        "time": 15,
        "note": 41,
        "velocity": 0,
        "channel": 9
      },
      {
        "type": "note_on",
        "time": 0,
        "note": 35,
        "velocity": 0,
        "channel": 9
      },
      {
        "type": "note_on",
        "time": 0,
        "note": 36,
        "velocity": 0,
        "channel": 9
      },
      {
        "type": "note_on",
        "time": 15,
        "note": 36,
        "velocity": 72,
        "channel": 9
      },
      {
        "type": "note_on",
        "time": 0,
        "note": 35,
        "velocity": 72,
        "channel": 9
      },
      {
        "type": "note_on",
        "time": 0,
        "note": 41,
        "velocity": 72,
        "channel": 9
      },
      {
        "type": "note_on",
        "time": 15,
        "note": 41,
        "velocity": 0,
        "channel": 9
      },
      {
        "type": "note_on",
        "time": 0,
        "note": 35,
        "velocity": 0,
        "channel": 9
      },
      {
        "type": "note_on",
        "time": 0,
        "note": 36,
        "velocity": 0,
        "channel": 9
      },
      {
        "type": "note_on",
        "time": 15,
        "note": 36,
        "velocity": 72,
        "channel": 9
      },
      {
        "type": "note_on",
        "time": 0,
        "note": 35,
        "velocity": 72,
        "channel": 9
      },
      {
        "type": "note_on",
        "time": 0,
        "note": 41,
        "velocity": 72,
        "channel": 9
      },
      {
        "type": "note_on",
        "time": 15,
        "note": 41,
        "velocity": 0,
        "channel": 9
      },
      {
        "type": "note_on",
        "time": 0,
        "note": 35,
        "velocity": 0,
        "channel": 9
      },
      {
        "type": "note_on",
        "time": 0,
        "note": 36,
        "velocity": 0,
        "channel": 9
      },
      {
        "type": "note_on",
        "time": 15,
        "note": 36,
        "velocity": 74,
        "channel": 9
      },
      {
        "type": "note_on",
        "time": 0,
        "note": 35,
        "velocity": 74,
        "channel": 9
      },
      {
        "type": "note_on",
        "time": 0,
        "note": 41,
        "velocity": 74,
        "channel": 9
      },
      {
        "type": "note_on",
        "time": 15,
        "note": 41,
        "velocity": 0,
        "channel": 9
      },
      {
        "type": "note_on",
        "time": 0,
        "note": 35,
        "velocity": 0,
        "channel": 9
      },
      {
        "type": "note_on",
        "time": 0,
        "note": 36,
        "velocity": 0,
        "channel": 9
      },
      {
        "type": "note_on",
        "time": 15,
        "note": 36,
        "velocity": 75,
        "channel": 9
      },
      {
        "type": "note_on",
        "time": 0,
        "note": 35,
        "velocity": 75,
        "channel": 9
      },
      {
        "type": "note_on",
        "time": 0,
        "note": 41,
        "velocity": 75,
        "channel": 9
      },
      {
        "type": "note_on",
        "time": 15,
        "note": 41,
        "velocity": 0,
        "channel": 9
      },
      {
        "type": "note_on",
        "time": 0,
        "note": 35,
        "velocity": 0,
        "channel": 9
      },
      {
        "type": "note_on",
        "time": 0,
        "note": 36,
        "velocity": 0,
        "channel": 9
      },
      {
        "type": "note_on",
        "time": 15,
        "note": 36,
        "velocity": 75,
        "channel": 9
      },
      {
        "type": "note_on",
        "time": 0,
        "note": 35,
        "velocity": 75,
        "channel": 9
      },
      {
        "type": "note_on",
        "time": 0,
        "note": 41,
        "velocity": 75,
        "channel": 9
      },
      {
        "type": "note_on",
        "time": 15,
        "note": 41,
        "velocity": 0,
        "channel": 9
      },
      {
        "type": "note_on",
        "time": 0,
        "note": 35,
        "velocity": 0,
        "channel": 9
      },
      {
        "type": "note_on",
        "time": 0,
        "note": 36,
        "velocity": 0,
        "channel": 9
      },
      {
        "type": "note_on",
        "time": 15,
        "note": 36,
        "velocity": 75,
        "channel": 9
      },
      {
        "type": "note_on",
        "time": 0,
        "note": 35,
        "velocity": 75,
        "channel": 9
      },
      {
        "type": "note_on",
        "time": 0,
        "note": 41,
        "velocity": 75,
        "channel": 9
      },
      {
        "type": "note_on",
        "time": 15,
        "note": 41,
        "velocity": 0,
        "channel": 9
      },
      {
        "type": "note_on",
        "time": 0,
        "note": 35,
        "velocity": 0,
        "channel": 9
      },
      {
        "type": "note_on",
        "time": 0,
        "note": 36,
        "velocity": 0,
        "channel": 9
      },
      {
        "type": "note_on",
        "time": 15,
        "note": 36,
        "velocity": 75,
        "channel": 9
      },
      {
        "type": "note_on",
        "time": 0,
        "note": 35,
        "velocity": 75,
        "channel": 9
      },
      {
        "type": "note_on",
        "time": 0,
        "note": 41,
        "velocity": 75,
        "channel": 9
      },
      {
        "type": "note_on",
        "time": 15,
        "note": 41,
        "velocity": 0,
        "channel": 9
      },
      {
        "type": "note_on",
        "time": 0,
        "note": 35,
        "velocity": 0,
        "channel": 9
      },
      {
        "type": "note_on",
        "time": 0,
        "note": 36,
        "velocity": 0,
        "channel": 9
      },
      {
        "type": "note_on",
        "time": 15,
        "note": 36,
        "velocity": 76,
        "channel": 9
      },
      {
        "type": "note_on",
        "time": 0,
        "note": 35,
        "velocity": 76,
        "channel": 9
      },
      {
        "type": "note_on",
        "time": 0,
        "note": 41,
        "velocity": 76,
        "channel": 9
      },
      {
        "type": "note_on",
        "time": 15,
        "note": 41,
        "velocity": 0,
        "channel": 9
      },
      {
        "type": "note_on",
        "time": 0,
        "note": 35,
        "velocity": 0,
        "channel": 9
      },
      {
        "type": "note_on",
        "time": 0,
        "note": 36,
        "velocity": 0,
        "channel": 9
      },
      {
        "type": "note_on",
        "time": 15,
        "note": 36,
        "velocity": 76,
        "channel": 9
      },
      {
        "type": "note_on",
        "time": 0,
        "note": 35,
        "velocity": 76,
        "channel": 9
      },
      {
        "type": "note_on",
        "time": 0,
        "note": 41,
        "velocity": 76,
        "channel": 9
      },
      {
        "type": "note_on",
        "time": 15,
        "note": 41,
        "velocity": 0,
        "channel": 9
      },
      {
        "type": "note_on",
        "time": 0,
        "note": 35,
        "velocity": 0,
        "channel": 9
      },
      {
        "type": "note_on",
        "time": 0,
        "note": 36,
        "velocity": 0,
        "channel": 9
      },
      {
        "type": "note_on",
        "time": 15,
        "note": 36,
        "velocity": 76,
        "channel": 9
      },
      {
        "type": "note_on",
        "time": 0,
        "note": 35,
        "velocity": 76,
        "channel": 9
      },
      {
        "type": "note_on",
        "time": 0,
        "note": 41,
        "velocity": 76,
        "channel": 9
      },
      {
        "type": "note_on",
        "time": 15,
        "note": 41,
        "velocity": 0,
        "channel": 9
      },
      {
        "type": "note_on",
        "time": 0,
        "note": 35,
        "velocity": 0,
        "channel": 9
      },
      {
        "type": "note_on",
        "time": 0,
        "note": 36,
        "velocity": 0,
        "channel": 9
      },
      {
        "type": "note_on",
        "time": 15,
        "note": 36,
        "velocity": 76,
        "channel": 9
      },
      {
        "type": "note_on",
        "time": 0,
        "note": 35,
        "velocity": 76,
        "channel": 9
      },
      {
        "type": "note_on",
        "time": 0,
        "note": 41,
        "velocity": 76,
        "channel": 9
      },
      {
        "type": "note_on",
        "time": 15,
        "note": 41,
        "velocity": 0,
        "channel": 9
      },
      {
        "type": "note_on",
        "time": 0,
        "note": 35,
        "velocity": 0,
        "channel": 9
      },
      {
        "type": "note_on",
        "time": 0,
        "note": 36,
        "velocity": 0,
        "channel": 9
      },
      {
        "type": "note_on",
        "time": 15,
        "note": 36,
        "velocity": 76,
        "channel": 9
      },
      {
        "type": "note_on",
        "time": 0,
        "note": 35,
        "velocity": 76,
        "channel": 9
      },
      {
        "type": "note_on",
        "time": 0,
        "note": 41,
        "velocity": 76,
        "channel": 9
      },
      {
        "type": "note_on",
        "time": 15,
        "note": 41,
        "velocity": 0,
        "channel": 9
      },
      {
        "type": "note_on",
        "time": 0,
        "note": 35,
        "velocity": 0,
        "channel": 9
      },
      {
        "type": "note_on",
        "time": 0,
        "note": 36,
        "velocity": 0,
        "channel": 9
      },
      {
        "type": "note_on",
        "time": 15,
        "note": 36,
        "velocity": 76,
        "channel": 9
      },
      {
        "type": "note_on",
        "time": 0,
        "note": 35,
        "velocity": 76,
        "channel": 9
      },
      {
        "type": "note_on",
        "time": 0,
        "note": 41,
        "velocity": 76,
        "channel": 9
      },
      {
        "type": "note_on",
        "time": 15,
        "note": 41,
        "velocity": 0,
        "channel": 9
      },
      {
        "type": "note_on",
        "time": 0,
        "note": 35,
        "velocity": 0,
        "channel": 9
      },
      {
        "type": "note_on",
        "time": 0,
        "note": 36,
        "velocity": 0,
        "channel": 9
      },
      {
        "type": "note_on",
        "time": 15,
        "note": 36,
        "velocity": 76,
        "channel": 9
      },
      {
        "type": "note_on",
        "time": 0,
        "note": 35,
        "velocity": 76,
        "channel": 9
      },
      {
        "type": "note_on",
        "time": 0,
        "note": 41,
        "velocity": 76,
        "channel": 9
      },
      {
        "type": "note_on",
        "time": 0,
        "note": 43,
        "velocity": 76,
        "channel": 9
      },
      {
        "type": "note_on",
        "time": 15,
        "note": 43,
        "velocity": 0,
        "channel": 9
      },
      {
        "type": "note_on",
        "time": 0,
        "note": 36,
        "velocity": 0,
        "channel": 9
      },
      {
        "type": "note_on",
        "time": 0,
        "note": 35,
        "velocity": 0,
        "channel": 9
      },
      {
        "type": "note_on",
        "time": 0,
        "note": 41,
        "velocity": 0,
        "channel": 9
      },
      {
        "type": "note_on",
        "time": 15,
        "note": 36,
        "velocity": 76,
        "channel": 9
      },
      {
        "type": "note_on",
        "time": 0,
        "note": 35,
        "velocity": 76,
        "channel": 9
      },
      {
        "type": "note_on",
        "time": 0,
        "note": 41,
        "velocity": 76,
        "channel": 9
      },
      {
        "type": "note_on",
        "time": 0,
        "note": 43,
        "velocity": 76,
        "channel": 9
      },
      {
        "type": "note_on",
        "time": 15,
        "note": 43,
        "velocity": 0,
        "channel": 9
      },
      {
        "type": "note_on",
        "time": 0,
        "note": 36,
        "velocity": 0,
        "channel": 9
      },
      {
        "type": "note_on",
        "time": 0,
        "note": 35,
        "velocity": 0,
        "channel": 9
      },
      {
        "type": "note_on",
        "time": 0,
        "note": 41,
        "velocity": 0,
        "channel": 9
      },
      {
        "type": "note_on",
        "time": 15,
        "note": 36,
        "velocity": 76,
        "channel": 9
      },
      {
        "type": "note_on",
        "time": 0,
        "note": 35,
        "velocity": 76,
        "channel": 9
      },
      {
        "type": "note_on",
        "time": 0,
        "note": 41,
        "velocity": 76,
        "channel": 9
      },
      {
        "type": "note_on",
        "time": 0,
        "note": 43,
        "velocity": 76,
        "channel": 9
      },
      {
        "type": "note_on",
        "time": 15,
        "note": 43,
        "velocity": 0,
        "channel": 9
      },
      {
        "type": "note_on",
        "time": 0,
        "note": 36,
        "velocity": 0,
        "channel": 9
      },
      {
        "type": "note_on",
        "time": 0,
        "note": 35,
        "velocity": 0,
        "channel": 9
      },
      {
        "type": "note_on",
        "time": 0,
        "note": 41,
        "velocity": 0,
        "channel": 9
      },
      {
        "type": "note_on",
        "time": 15,
        "note": 36,
        "velocity": 76,
        "channel": 9
      },
      {
        "type": "note_on",
        "time": 0,
        "note": 35,
        "velocity": 76,
        "channel": 9
      },
      {
        "type": "note_on",
        "time": 0,
        "note": 41,
        "velocity": 76,
        "channel": 9
      },
      {
        "type": "note_on",
        "time": 0,
        "note": 43,
        "velocity": 76,
        "channel": 9
      },
      {
        "type": "note_on",
        "time": 15,
        "note": 43,
        "velocity": 0,
        "channel": 9
      },
      {
        "type": "note_on",
        "time": 0,
        "note": 36,
        "velocity": 0,
        "channel": 9
      },
      {
        "type": "note_on",
        "time": 0,
        "note": 35,
        "velocity": 0,
        "channel": 9
      },
      {
        "type": "note_on",
        "time": 0,
        "note": 41,
        "velocity": 0,
        "channel": 9
      },
      {
        "type": "note_on",
        "time": 15,
        "note": 36,
        "velocity": 76,
        "channel": 9
      },
      {
        "type": "note_on",
        "time": 0,
        "note": 35,
        "velocity": 76,
        "channel": 9
      },
      {
        "type": "note_on",
        "time": 0,
        "note": 41,
        "velocity": 76,
        "channel": 9
      },
      {
        "type": "note_on",
        "time": 0,
        "note": 43,
        "velocity": 76,
        "channel": 9
      },
      {
        "type": "note_on",
        "time": 15,
        "note": 43,
        "velocity": 0,
        "channel": 9
      },
      {
        "type": "note_on",
        "time": 0,
        "note": 36,
        "velocity": 0,
        "channel": 9
      },
      {
        "type": "note_on",
        "time": 0,
        "note": 35,
        "velocity": 0,
        "channel": 9
      },
      {
        "type": "note_on",
        "time": 0,
        "note": 41,
        "velocity": 0,
        "channel": 9
      },
      {
        "type": "note_on",
        "time": 15,
        "note": 36,
        "velocity": 78,
        "channel": 9
      },
      {
        "type": "note_on",
        "time": 0,
        "note": 35,
        "velocity": 78,
        "channel": 9
      },
      {
        "type": "note_on",
        "time": 0,
        "note": 41,
        "velocity": 78,
        "channel": 9
      },
      {
        "type": "note_on",
        "time": 0,
        "note": 43,
        "velocity": 78,
        "channel": 9
      },
      {
        "type": "note_on",
        "time": 15,
        "note": 43,
        "velocity": 0,
        "channel": 9
      },
      {
        "type": "note_on",
        "time": 0,
        "note": 36,
        "velocity": 0,
        "channel": 9
      },
      {
        "type": "note_on",
        "time": 0,
        "note": 35,
        "velocity": 0,
        "channel": 9
      },
      {
        "type": "note_on",
        "time": 0,
        "note": 41,
        "velocity": 0,
        "channel": 9
      },
      {
        "type": "note_on",
        "time": 15,
        "note": 36,
        "velocity": 78,
        "channel": 9
      },
      {
        "type": "note_on",
        "time": 0,
        "note": 35,
        "velocity": 78,
        "channel": 9
      },
      {
        "type": "note_on",
        "time": 0,
        "note": 41,
        "velocity": 78,
        "channel": 9
      },
      {
        "type": "note_on",
        "time": 0,
        "note": 43,
        "velocity": 78,
        "channel": 9
      },
      {
        "type": "note_on",
        "time": 15,
        "note": 43,
        "velocity": 0,
        "channel": 9
      },
      {
        "type": "note_on",
        "time": 0,
        "note": 36,
        "velocity": 0,
        "channel": 9
      },
      {
        "type": "note_on",
        "time": 0,
        "note": 35,
        "velocity": 0,
        "channel": 9
      },
      {
        "type": "note_on",
        "time": 0,
        "note": 41,
        "velocity": 0,
        "channel": 9
      },
      {
        "type": "note_on",
        "time": 15,
        "note": 36,
        "velocity": 79,
        "channel": 9
      },
      {
        "type": "note_on",
        "time": 0,
        "note": 35,
        "velocity": 79,
        "channel": 9
      },
      {
        "type": "note_on",
        "time": 0,
        "note": 41,
        "velocity": 79,
        "channel": 9
      },
      {
        "type": "note_on",
        "time": 0,
        "note": 43,
        "velocity": 79,
        "channel": 9
      },
      {
        "type": "note_on",
        "time": 15,
        "note": 43,
        "velocity": 0,
        "channel": 9
      },
      {
        "type": "note_on",
        "time": 0,
        "note": 36,
        "velocity": 0,
        "channel": 9
      },
      {
        "type": "note_on",
        "time": 0,
        "note": 35,
        "velocity": 0,
        "channel": 9
      },
      {
        "type": "note_on",
        "time": 0,
        "note": 41,
        "velocity": 0,
        "channel": 9
      },
      {
        "type": "note_on",
        "time": 15,
        "note": 36,
        "velocity": 79,
        "channel": 9
      },
      {
        "type": "note_on",
        "time": 0,
        "note": 35,
        "velocity": 79,
        "channel": 9
      },
      {
        "type": "note_on",
        "time": 0,
        "note": 41,
        "velocity": 79,
        "channel": 9
      },
      {
        "type": "note_on",
        "time": 0,
        "note": 43,
        "velocity": 79,
        "channel": 9
      },
      {
        "type": "note_on",
        "time": 15,
        "note": 43,
        "velocity": 0,
        "channel": 9
      },
      {
        "type": "note_on",
        "time": 0,
        "note": 36,
        "velocity": 0,
        "channel": 9
      },
      {
        "type": "note_on",
        "time": 0,
        "note": 35,
        "velocity": 0,
        "channel": 9
      },
      {
        "type": "note_on",
        "time": 0,
        "note": 41,
        "velocity": 0,
        "channel": 9
      },
      {
        "type": "note_on",
        "time": 15,
        "note": 36,
        "velocity": 79,
        "channel": 9
      },
      {
        "type": "note_on",
        "time": 0,
        "note": 35,
        "velocity": 79,
        "channel": 9
      },
      {
        "type": "note_on",
        "time": 0,
        "note": 41,
        "velocity": 79,
        "channel": 9
      },
      {
        "type": "note_on",
        "time": 0,
        "note": 43,
        "velocity": 79,
        "channel": 9
      },
      {
        "type": "note_on",
        "time": 15,
        "note": 43,
        "velocity": 0,
        "channel": 9
      },
      {
        "type": "note_on",
        "time": 0,
        "note": 36,
        "velocity": 0,
        "channel": 9
      },
      {
        "type": "note_on",
        "time": 0,
        "note": 35,
        "velocity": 0,
        "channel": 9
      },
      {
        "type": "note_on",
        "time": 0,
        "note": 41,
        "velocity": 0,
        "channel": 9
      },
      {
        "type": "note_on",
        "time": 15,
        "note": 36,
        "velocity": 79,
        "channel": 9
      },
      {
        "type": "note_on",
        "time": 0,
        "note": 35,
        "velocity": 79,
        "channel": 9
      },
      {
        "type": "note_on",
        "time": 0,
        "note": 41,
        "velocity": 79,
        "channel": 9
      },
      {
        "type": "note_on",
        "time": 0,
        "note": 43,
        "velocity": 79,
        "channel": 9
      },
      {
        "type": "note_on",
        "time": 15,
        "note": 43,
        "velocity": 0,
        "channel": 9
      },
      {
        "type": "note_on",
        "time": 0,
        "note": 36,
        "velocity": 0,
        "channel": 9
      },
      {
        "type": "note_on",
        "time": 0,
        "note": 35,
        "velocity": 0,
        "channel": 9
      },
      {
        "type": "note_on",
        "time": 0,
        "note": 41,
        "velocity": 0,
        "channel": 9
      },
      {
        "type": "note_on",
        "time": 15,
        "note": 36,
        "velocity": 79,
        "channel": 9
      },
      {
        "type": "note_on",
        "time": 0,
        "note": 35,
        "velocity": 79,
        "channel": 9
      },
      {
        "type": "note_on",
        "time": 0,
        "note": 41,
        "velocity": 79,
        "channel": 9
      },
      {
        "type": "note_on",
        "time": 0,
        "note": 43,
        "velocity": 79,
        "channel": 9
      },
      {
        "type": "note_on",
        "time": 15,
        "note": 43,
        "velocity": 0,
        "channel": 9
      },
      {
        "type": "note_on",
        "time": 0,
        "note": 36,
        "velocity": 0,
        "channel": 9
      },
      {
        "type": "note_on",
        "time": 0,
        "note": 35,
        "velocity": 0,
        "channel": 9
      },
      {
        "type": "note_on",
        "time": 0,
        "note": 41,
        "velocity": 0,
        "channel": 9
      },
      {
        "type": "note_on",
        "time": 15,
        "note": 36,
        "velocity": 79,
        "channel": 9
      },
      {
        "type": "note_on",
        "time": 0,
        "note": 35,
        "velocity": 79,
        "channel": 9
      },
      {
        "type": "note_on",
        "time": 0,
        "note": 41,
        "velocity": 79,
        "channel": 9
      },
      {
        "type": "note_on",
        "time": 0,
        "note": 43,
        "velocity": 79,
        "channel": 9
      },
      {
        "type": "note_on",
        "time": 15,
        "note": 43,
        "velocity": 0,
        "channel": 9
      },
      {
        "type": "note_on",
        "time": 0,
        "note": 36,
        "velocity": 0,
        "channel": 9
      },
      {
        "type": "note_on",
        "time": 0,
        "note": 35,
        "velocity": 0,
        "channel": 9
      },
      {
        "type": "note_on",
        "time": 0,
        "note": 41,
        "velocity": 0,
        "channel": 9
      },
      {
        "type": "note_on",
        "time": 15,
        "note": 36,
        "velocity": 78,
        "channel": 9
      },
      {
        "type": "note_on",
        "time": 0,
        "note": 35,
        "velocity": 78,
        "channel": 9
      },
      {
        "type": "note_on",
        "time": 0,
        "note": 41,
        "velocity": 78,
        "channel": 9
      },
      {
        "type": "note_on",
        "time": 0,
        "note": 43,
        "velocity": 78,
        "channel": 9
      },
      {
        "type": "note_on",
        "time": 15,
        "note": 43,
        "velocity": 0,
        "channel": 9
      },
      {
        "type": "note_on",
        "time": 0,
        "note": 36,
        "velocity": 0,
        "channel": 9
      },
      {
        "type": "note_on",
        "time": 0,
        "note": 35,
        "velocity": 0,
        "channel": 9
      },
      {
        "type": "note_on",
        "time": 0,
        "note": 41,
        "velocity": 0,
        "channel": 9
      },
      {
        "type": "note_on",
        "time": 15,
        "note": 36,
        "velocity": 78,
        "channel": 9
      },
      {
        "type": "note_on",
        "time": 0,
        "note": 35,
        "velocity": 78,
        "channel": 9
      },
      {
        "type": "note_on",
        "time": 0,
        "note": 41,
        "velocity": 78,
        "channel": 9
      },
      {
        "type": "note_on",
        "time": 0,
        "note": 43,
        "velocity": 78,
        "channel": 9
      },
      {
        "type": "note_on",
        "time": 15,
        "note": 43,
        "velocity": 0,
        "channel": 9
      },
      {
        "type": "note_on",
        "time": 0,
        "note": 36,
        "velocity": 0,
        "channel": 9
      },
      {
        "type": "note_on",
        "time": 0,
        "note": 35,
        "velocity": 0,
        "channel": 9
      },
      {
        "type": "note_on",
        "time": 0,
        "note": 41,
        "velocity": 0,
        "channel": 9
      },
      {
        "type": "note_on",
        "time": 15,
        "note": 36,
        "velocity": 78,
        "channel": 9
      },
      {
        "type": "note_on",
        "time": 0,
        "note": 35,
        "velocity": 78,
        "channel": 9
      },
      {
        "type": "note_on",
        "time": 0,
        "note": 41,
        "velocity": 78,
        "channel": 9
      },
      {
        "type": "note_on",
        "time": 0,
        "note": 43,
        "velocity": 78,
        "channel": 9
      },
      {
        "type": "note_on",
        "time": 15,
        "note": 43,
        "velocity": 0,
        "channel": 9
      },
      {
        "type": "note_on",
        "time": 0,
        "note": 36,
        "velocity": 0,
        "channel": 9
      },
      {
        "type": "note_on",
        "time": 0,
        "note": 35,
        "velocity": 0,
        "channel": 9
      },
      {
        "type": "note_on",
        "time": 0,
        "note": 41,
        "velocity": 0,
        "channel": 9
      },
      {
        "type": "note_on",
        "time": 15,
        "note": 40,
        "velocity": 65,
        "channel": 9
      },
      {
        "type": "note_on",
        "time": 0,
        "note": 36,
        "velocity": 65,
        "channel": 9
      },
      {
        "type": "note_on",
        "time": 15,
        "note": 36,
        "velocity": 0,
        "channel": 9
      },
      {
        "type": "note_on",
        "time": 0,
        "note": 40,
        "velocity": 0,
        "channel": 9
      },
      {
        "type": "note_on",
        "time": 15,
        "note": 40,
        "velocity": 68,
        "channel": 9
      },
      {
        "type": "note_on",
        "time": 0,
        "note": 36,
        "velocity": 68,
        "channel": 9
      },
      {
        "type": "note_on",
        "time": 15,
        "note": 36,
        "velocity": 0,
        "channel": 9
      },
      {
        "type": "note_on",
        "time": 0,
        "note": 40,
        "velocity": 0,
        "channel": 9
      },
      {
        "type": "note_on",
        "time": 15,
        "note": 40,
        "velocity": 69,
        "channel": 9
      },
      {
        "type": "note_on",
        "time": 0,
        "note": 36,
        "velocity": 69,
        "channel": 9
      },
      {
        "type": "note_on",
        "time": 15,
        "note": 36,
        "velocity": 0,
        "channel": 9
      },
      {
        "type": "note_on",
        "time": 0,
        "note": 40,
        "velocity": 0,
        "channel": 9
      },
      {
        "type": "note_on",
        "time": 15,
        "note": 40,
        "velocity": 69,
        "channel": 9
      },
      {
        "type": "note_on",
        "time": 0,
        "note": 36,
        "velocity": 69,
        "channel": 9
      },
      {
        "type": "note_on",
        "time": 15,
        "note": 36,
        "velocity": 0,
        "channel": 9
      },
      {
        "type": "note_on",
        "time": 0,
        "note": 40,
        "velocity": 0,
        "channel": 9
      },
      {
        "type": "note_on",
        "time": 15,
        "note": 40,
        "velocity": 69,
        "channel": 9
      },
      {
        "type": "note_on",
        "time": 0,
        "note": 36,
        "velocity": 69,
        "channel": 9
      },
      {
        "type": "note_on",
        "time": 15,
        "note": 36,
        "velocity": 0,
        "channel": 9
      },
      {
        "type": "note_on",
        "time": 0,
        "note": 40,
        "velocity": 0,
        "channel": 9
      },
      {
        "type": "note_on",
        "time": 15,
        "note": 40,
        "velocity": 70,
        "channel": 9
      },
      {
        "type": "note_on",
        "time": 0,
        "note": 36,
        "velocity": 70,
        "channel": 9
      },
      {
        "type": "note_on",
        "time": 15,
        "note": 36,
        "velocity": 0,
        "channel": 9
      },
      {
        "type": "note_on",
        "time": 0,
        "note": 40,
        "velocity": 0,
        "channel": 9
      },
      {
        "type": "note_on",
        "time": 15,
        "note": 40,
        "velocity": 71,
        "channel": 9
      },
      {
        "type": "note_on",
        "time": 0,
        "note": 36,
        "velocity": 71,
        "channel": 9
      },
      {
        "type": "note_on",
        "time": 15,
        "note": 36,
        "velocity": 0,
        "channel": 9
      },
      {
        "type": "note_on",
        "time": 0,
        "note": 40,
        "velocity": 0,
        "channel": 9
      },
      {
        "type": "note_on",
        "time": 15,
        "note": 40,
        "velocity": 72,
        "channel": 9
      },
      {
        "type": "note_on",
        "time": 0,
        "note": 36,
        "velocity": 72,
        "channel": 9
      },
      {
        "type": "note_on",
        "time": 15,
        "note": 36,
        "velocity": 0,
        "channel": 9
      },
      {
        "type": "note_on",
        "time": 0,
        "note": 40,
        "velocity": 0,
        "channel": 9
      },
      {
        "type": "note_on",
        "time": 15,
        "note": 40,
        "velocity": 72,
        "channel": 9
      },
      {
        "type": "note_on",
        "time": 0,
        "note": 36,
        "velocity": 72,
        "channel": 9
      },
      {
        "type": "note_on",
        "time": 15,
        "note": 36,
        "velocity": 0,
        "channel": 9
      },
      {
        "type": "note_on",
        "time": 0,
        "note": 40,
        "velocity": 0,
        "channel": 9
      },
      {
        "type": "note_on",
        "time": 15,
        "note": 40,
        "velocity": 72,
        "channel": 9
      },
      {
        "type": "note_on",
        "time": 0,
        "note": 36,
        "velocity": 72,
        "channel": 9
      },
      {
        "type": "note_on",
        "time": 15,
        "note": 36,
        "velocity": 0,
        "channel": 9
      },
      {
        "type": "note_on",
        "time": 0,
        "note": 40,
        "velocity": 0,
        "channel": 9
      },
      {
        "type": "note_on",
        "time": 15,
        "note": 40,
        "velocity": 72,
        "channel": 9
      },
      {
        "type": "note_on",
        "time": 0,
        "note": 36,
        "velocity": 72,
        "channel": 9
      },
      {
        "type": "note_on",
        "time": 15,
        "note": 36,
        "velocity": 0,
        "channel": 9
      },
      {
        "type": "note_on",
        "time": 0,
        "note": 40,
        "velocity": 0,
        "channel": 9
      },
      {
        "type": "note_on",
        "time": 15,
        "note": 40,
        "velocity": 72,
        "channel": 9
      },
      {
        "type": "note_on",
        "time": 0,
        "note": 36,
        "velocity": 72,
        "channel": 9
      },
      {
        "type": "note_on",
        "time": 15,
        "note": 36,
        "velocity": 0,
        "channel": 9
      },
      {
        "type": "note_on",
        "time": 0,
        "note": 40,
        "velocity": 0,
        "channel": 9
      },
      {
        "type": "note_on",
        "time": 15,
        "note": 40,
        "velocity": 72,
        "channel": 9
      },
      {
        "type": "note_on",
        "time": 0,
        "note": 36,
        "velocity": 72,
        "channel": 9
      },
      {
        "type": "note_on",
        "time": 15,
        "note": 36,
        "velocity": 0,
        "channel": 9
      },
      {
        "type": "note_on",
        "time": 0,
        "note": 40,
        "velocity": 0,
        "channel": 9
      },
      {
        "type": "note_on",
        "time": 15,
        "note": 40,
        "velocity": 72,
        "channel": 9
      },
      {
        "type": "note_on",
        "time": 0,
        "note": 36,
        "velocity": 72,
        "channel": 9
      },
      {
        "type": "note_on",
        "time": 15,
        "note": 36,
        "velocity": 0,
        "channel": 9
      },
      {
        "type": "note_on",
        "time": 0,
        "note": 40,
        "velocity": 0,
        "channel": 9
      },
      {
        "type": "note_on",
        "time": 15,
        "note": 40,
        "velocity": 73,
        "channel": 9
      },
      {
        "type": "note_on",
        "time": 0,
        "note": 36,
        "velocity": 73,
        "channel": 9
      },
      {
        "type": "note_on",
        "time": 15,
        "note": 36,
        "velocity": 0,
        "channel": 9
      },
      {
        "type": "note_on",
        "time": 0,
        "note": 40,
        "velocity": 0,
        "channel": 9
      },
      {
        "type": "note_on",
        "time": 15,
        "note": 40,
        "velocity": 73,
        "channel": 9
      },
      {
        "type": "note_on",
        "time": 0,
        "note": 36,
        "velocity": 73,
        "channel": 9
      },
      {
        "type": "note_on",
        "time": 15,
        "note": 36,
        "velocity": 0,
        "channel": 9
      },
      {
        "type": "note_on",
        "time": 0,
        "note": 40,
        "velocity": 0,
        "channel": 9
      },
      {
        "type": "note_on",
        "time": 15,
        "note": 40,
        "velocity": 74,
        "channel": 9
      },
      {
        "type": "note_on",
        "time": 0,
        "note": 36,
        "velocity": 74,
        "channel": 9
      },
      {
        "type": "note_on",
        "time": 15,
        "note": 36,
        "velocity": 0,
        "channel": 9
      },
      {
        "type": "note_on",
        "time": 0,
        "note": 40,
        "velocity": 0,
        "channel": 9
      },
      {
        "type": "note_on",
        "time": 15,
        "note": 40,
        "velocity": 76,
        "channel": 9
      },
      {
        "type": "note_on",
        "time": 0,
        "note": 36,
        "velocity": 76,
        "channel": 9
      },
      {
        "type": "note_on",
        "time": 15,
        "note": 36,
        "velocity": 0,
        "channel": 9
      },
      {
        "type": "note_on",
        "time": 0,
        "note": 40,
        "velocity": 0,
        "channel": 9
      },
      {
        "type": "note_on",
        "time": 15,
        "note": 40,
        "velocity": 77,
        "channel": 9
      },
      {
        "type": "note_on",
        "time": 0,
        "note": 36,
        "velocity": 77,
        "channel": 9
      },
      {
        "type": "note_on",
        "time": 15,
        "note": 36,
        "velocity": 0,
        "channel": 9
      },
      {
        "type": "note_on",
        "time": 0,
        "note": 40,
        "velocity": 0,
        "channel": 9
      },
      {
        "type": "note_on",
        "time": 15,
        "note": 40,
        "velocity": 78,
        "channel": 9
      },
      {
        "type": "note_on",
        "time": 0,
        "note": 36,
        "velocity": 78,
        "channel": 9
      },
      {
        "type": "note_on",
        "time": 15,
        "note": 36,
        "velocity": 0,
        "channel": 9
      },
      {
        "type": "note_on",
        "time": 0,
        "note": 40,
        "velocity": 0,
        "channel": 9
      },
      {
        "type": "note_on",
        "time": 15,
        "note": 40,
        "velocity": 78,
        "channel": 9
      },
      {
        "type": "note_on",
        "time": 0,
        "note": 36,
        "velocity": 78,
        "channel": 9
      },
      {
        "type": "note_on",
        "time": 15,
        "note": 36,
        "velocity": 0,
        "channel": 9
      },
      {
        "type": "note_on",
        "time": 0,
        "note": 40,
        "velocity": 0,
        "channel": 9
      },
      {
        "type": "note_on",
        "time": 15,
        "note": 40,
        "velocity": 76,
        "channel": 9
      },
      {
        "type": "note_on",
        "time": 0,
        "note": 36,
        "velocity": 76,
        "channel": 9
      },
      {
        "type": "note_on",
        "time": 15,
        "note": 36,
        "velocity": 0,
        "channel": 9
      },
      {
        "type": "note_on",
        "time": 0,
        "note": 40,
        "velocity": 0,
        "channel": 9
      },
      {
        "type": "note_on",
        "time": 15,
        "note": 40,
        "velocity": 76,
        "channel": 9
      },
      {
        "type": "note_on",
        "time": 0,
        "note": 36,
        "velocity": 76,
        "channel": 9
      },
      {
        "type": "note_on",
        "time": 15,
        "note": 36,
        "velocity": 0,
        "channel": 9
      },
      {
        "type": "note_on",
        "time": 0,
        "note": 40,
        "velocity": 0,
        "channel": 9
      },
      {
        "type": "note_on",
        "time": 15,
        "note": 40,
        "velocity": 79,
        "channel": 9
      },
      {
        "type": "note_on",
        "time": 0,
        "note": 36,
        "velocity": 79,
        "channel": 9
      },
      {
        "type": "note_on",
        "time": 15,
        "note": 36,
        "velocity": 0,
        "channel": 9
      },
      {
        "type": "note_on",
        "time": 0,
        "note": 40,
        "velocity": 0,
        "channel": 9
      },
      {
        "type": "note_on",
        "time": 15,
        "note": 40,
        "velocity": 82,
        "channel": 9
      },
      {
        "type": "note_on",
        "time": 0,
        "note": 36,
        "velocity": 82,
        "channel": 9
      },
      {
        "type": "note_on",
        "time": 15,
        "note": 36,
        "velocity": 0,
        "channel": 9
      },
      {
        "type": "note_on",
        "time": 0,
        "note": 40,
        "velocity": 0,
        "channel": 9
      },
      {
        "type": "note_on",
        "time": 15,
        "note": 40,
        "velocity": 83,
        "channel": 9
      },
      {
        "type": "note_on",
        "time": 0,
        "note": 36,
        "velocity": 83,
        "channel": 9
      },
      {
        "type": "note_on",
        "time": 15,
        "note": 36,
        "velocity": 0,
        "channel": 9
      },
      {
        "type": "note_on",
        "time": 0,
        "note": 40,
        "velocity": 0,
        "channel": 9
      },
      {
        "type": "note_on",
        "time": 15,
        "note": 40,
        "velocity": 84,
        "channel": 9
      },
      {
        "type": "note_on",
        "time": 0,
        "note": 36,
        "velocity": 84,
        "channel": 9
      },
      {
        "type": "note_on",
        "time": 15,
        "note": 36,
        "velocity": 0,
        "channel": 9
      },
      {
        "type": "note_on",
        "time": 0,
        "note": 40,
        "velocity": 0,
        "channel": 9
      },
      {
        "type": "note_on",
        "time": 15,
        "note": 40,
        "velocity": 86,
        "channel": 9
      },
      {
        "type": "note_on",
        "time": 0,
        "note": 36,
        "velocity": 86,
        "channel": 9
      },
      {
        "type": "note_on",
        "time": 15,
        "note": 36,
        "velocity": 0,
        "channel": 9
      },
      {
        "type": "note_on",
        "time": 0,
        "note": 40,
        "velocity": 0,
        "channel": 9
      },
      {
        "type": "note_on",
        "time": 15,
        "note": 40,
        "velocity": 87,
        "channel": 9
      },
      {
        "type": "note_on",
        "time": 0,
        "note": 36,
        "velocity": 87,
        "channel": 9
      },
      {
        "type": "note_on",
        "time": 15,
        "note": 36,
        "velocity": 0,
        "channel": 9
      },
      {
        "type": "note_on",
        "time": 0,
        "note": 40,
        "velocity": 0,
        "channel": 9
      },
      {
        "type": "note_on",
        "time": 15,
        "note": 40,
        "velocity": 88,
        "channel": 9
      },
      {
        "type": "note_on",
        "time": 0,
        "note": 36,
        "velocity": 88,
        "channel": 9
      },
      {
        "type": "note_on",
        "time": 15,
        "note": 36,
        "velocity": 0,
        "channel": 9
      },
      {
        "type": "note_on",
        "time": 0,
        "note": 40,
        "velocity": 0,
        "channel": 9
      },
      {
        "type": "note_on",
        "time": 15,
        "note": 40,
        "velocity": 90,
        "channel": 9
      },
      {
        "type": "note_on",
        "time": 0,
        "note": 36,
        "velocity": 90,
        "channel": 9
      },
      {
        "type": "note_on",
        "time": 15,
        "note": 36,
        "velocity": 0,
        "channel": 9
      },
      {
        "type": "note_on",
        "time": 0,
        "note": 40,
        "velocity": 0,
        "channel": 9
      },
      {
        "type": "note_on",
        "time": 15,
        "note": 40,
        "velocity": 92,
        "channel": 9
      },
      {
        "type": "note_on",
        "time": 0,
        "note": 36,
        "velocity": 92,
        "channel": 9
      },
      {
        "type": "note_on",
        "time": 15,
        "note": 36,
        "velocity": 0,
        "channel": 9
      },
      {
        "type": "note_on",
        "time": 0,
        "note": 40,
        "velocity": 0,
        "channel": 9
      },
      {
        "type": "note_on",
        "time": 15,
        "note": 36,
        "velocity": 82,
        "channel": 9
      },
      {
        "type": "note_on",
        "time": 0,
        "note": 38,
        "velocity": 82,
        "channel": 9
      },
      {
        "type": "note_on",
        "time": 0,
        "note": 40,
        "velocity": 82,
        "channel": 9
      },
      {
        "type": "note_on",
        "time": 15,
        "note": 40,
        "velocity": 0,
        "channel": 9
      },
      {
        "type": "note_on",
        "time": 0,
        "note": 38,
        "velocity": 0,
        "channel": 9
      },
      {
        "type": "note_on",
        "time": 0,
        "note": 36,
        "velocity": 0,
        "channel": 9
      },
      {
        "type": "note_on",
        "time": 15,
        "note": 36,
        "velocity": 82,
        "channel": 9
      },
      {
        "type": "note_on",
        "time": 0,
        "note": 38,
        "velocity": 82,
        "channel": 9
      },
      {
        "type": "note_on",
        "time": 0,
        "note": 40,
        "velocity": 82,
        "channel": 9
      },
      {
        "type": "note_on",
        "time": 15,
        "note": 40,
        "velocity": 0,
        "channel": 9
      },
      {
        "type": "note_on",
        "time": 0,
        "note": 38,
        "velocity": 0,
        "channel": 9
      },
      {
        "type": "note_on",
        "time": 0,
        "note": 36,
        "velocity": 0,
        "channel": 9
      },
      {
        "type": "note_on",
        "time": 15,
        "note": 36,
        "velocity": 84,
        "channel": 9
      },
      {
        "type": "note_on",
        "time": 0,
        "note": 38,
        "velocity": 84,
        "channel": 9
      },
      {
        "type": "note_on",
        "time": 0,
        "note": 40,
        "velocity": 84,
        "channel": 9
      },
      {
        "type": "note_on",
        "time": 15,
        "note": 40,
        "velocity": 0,
        "channel": 9
      },
      {
        "type": "note_on",
        "time": 0,
        "note": 38,
        "velocity": 0,
        "channel": 9
      },
      {
        "type": "note_on",
        "time": 0,
        "note": 36,
        "velocity": 0,
        "channel": 9
      },
      {
        "type": "note_on",
        "time": 15,
        "note": 36,
        "velocity": 86,
        "channel": 9
      },
      {
        "type": "note_on",
        "time": 0,
        "note": 38,
        "velocity": 86,
        "channel": 9
      },
      {
        "type": "note_on",
        "time": 0,
        "note": 40,
        "velocity": 86,
        "channel": 9
      },
      {
        "type": "note_on",
        "time": 15,
        "note": 40,
        "velocity": 0,
        "channel": 9
      },
      {
        "type": "note_on",
        "time": 0,
        "note": 38,
        "velocity": 0,
        "channel": 9
      },
      {
        "type": "note_on",
        "time": 0,
        "note": 36,
        "velocity": 0,
        "channel": 9
      },
      {
        "type": "note_on",
        "time": 15,
        "note": 36,
        "velocity": 88,
        "channel": 9
      },
      {
        "type": "note_on",
        "time": 0,
        "note": 38,
        "velocity": 88,
        "channel": 9
      },
      {
        "type": "note_on",
        "time": 0,
        "note": 40,
        "velocity": 88,
        "channel": 9
      },
      {
        "type": "note_on",
        "time": 15,
        "note": 40,
        "velocity": 0,
        "channel": 9
      },
      {
        "type": "note_on",
        "time": 0,
        "note": 38,
        "velocity": 0,
        "channel": 9
      },
      {
        "type": "note_on",
        "time": 0,
        "note": 36,
        "velocity": 0,
        "channel": 9
      },
      {
        "type": "note_on",
        "time": 15,
        "note": 36,
        "velocity": 89,
        "channel": 9
      },
      {
        "type": "note_on",
        "time": 0,
        "note": 38,
        "velocity": 89,
        "channel": 9
      },
      {
        "type": "note_on",
        "time": 0,
        "note": 40,
        "velocity": 89,
        "channel": 9
      },
      {
        "type": "note_on",
        "time": 15,
        "note": 40,
        "velocity": 0,
        "channel": 9
      },
      {
        "type": "note_on",
        "time": 0,
        "note": 38,
        "velocity": 0,
        "channel": 9
      },
      {
        "type": "note_on",
        "time": 0,
        "note": 36,
        "velocity": 0,
        "channel": 9
      },
      {
        "type": "note_on",
        "time": 15,
        "note": 36,
        "velocity": 91,
        "channel": 9
      },
      {
        "type": "note_on",
        "time": 0,
        "note": 38,
        "velocity": 91,
        "channel": 9
      },
      {
        "type": "note_on",
        "time": 0,
        "note": 40,
        "velocity": 91,
        "channel": 9
      },
      {
        "type": "note_on",
        "time": 15,
        "note": 40,
        "velocity": 0,
        "channel": 9
      },
      {
        "type": "note_on",
        "time": 0,
        "note": 38,
        "velocity": 0,
        "channel": 9
      },
      {
        "type": "note_on",
        "time": 0,
        "note": 36,
        "velocity": 0,
        "channel": 9
      },
      {
        "type": "note_on",
        "time": 15,
        "note": 36,
        "velocity": 93,
        "channel": 9
      },
      {
        "type": "note_on",
        "time": 0,
        "note": 38,
        "velocity": 93,
        "channel": 9
      },
      {
        "type": "note_on",
        "time": 0,
        "note": 40,
        "velocity": 93,
        "channel": 9
      },
      {
        "type": "note_on",
        "time": 15,
        "note": 40,
        "velocity": 0,
        "channel": 9
      },
      {
        "type": "note_on",
        "time": 0,
        "note": 38,
        "velocity": 0,
        "channel": 9
      },
      {
        "type": "note_on",
        "time": 0,
        "note": 36,
        "velocity": 0,
        "channel": 9
      },
      {
        "type": "note_on",
        "time": 15,
        "note": 36,
        "velocity": 94,
        "channel": 9
      },
      {
        "type": "note_on",
        "time": 0,
        "note": 38,
        "velocity": 94,
        "channel": 9
      },
      {
        "type": "note_on",
        "time": 0,
        "note": 40,
        "velocity": 94,
        "channel": 9
      },
      {
        "type": "note_on",
        "time": 15,
        "note": 40,
        "velocity": 0,
        "channel": 9
      },
      {
        "type": "note_on",
        "time": 0,
        "note": 38,
        "velocity": 0,
        "channel": 9
      },
      {
        "type": "note_on",
        "time": 0,
        "note": 36,
        "velocity": 0,
        "channel": 9
      },
      {
        "type": "note_on",
        "time": 15,
        "note": 36,
        "velocity": 96,
        "channel": 9
      },
      {
        "type": "note_on",
        "time": 0,
        "note": 38,
        "velocity": 96,
        "channel": 9
      },
      {
        "type": "note_on",
        "time": 0,
        "note": 40,
        "velocity": 96,
        "channel": 9
      },
      {
        "type": "note_on",
        "time": 15,
        "note": 40,
        "velocity": 0,
        "channel": 9
      },
      {
        "type": "note_on",
        "time": 0,
        "note": 38,
        "velocity": 0,
        "channel": 9
      },
      {
        "type": "note_on",
        "time": 0,
        "note": 36,
        "velocity": 0,
        "channel": 9
      },
      {
        "type": "note_on",
        "time": 15,
        "note": 36,
        "velocity": 97,
        "channel": 9
      },
      {
        "type": "note_on",
        "time": 0,
        "note": 38,
        "velocity": 97,
        "channel": 9
      },
      {
        "type": "note_on",
        "time": 0,
        "note": 40,
        "velocity": 97,
        "channel": 9
      },
      {
        "type": "note_on",
        "time": 15,
        "note": 40,
        "velocity": 0,
        "channel": 9
      },
      {
        "type": "note_on",
        "time": 0,
        "note": 38,
        "velocity": 0,
        "channel": 9
      },
      {
        "type": "note_on",
        "time": 0,
        "note": 36,
        "velocity": 0,
        "channel": 9
      },
      {
        "type": "note_on",
        "time": 15,
        "note": 36,
        "velocity": 100,
        "channel": 9
      },
      {
        "type": "note_on",
        "time": 0,
        "note": 38,
        "velocity": 100,
        "channel": 9
      },
      {
        "type": "note_on",
        "time": 0,
        "note": 40,
        "velocity": 100,
        "channel": 9
      },
      {
        "type": "note_on",
        "time": 15,
        "note": 40,
        "velocity": 0,
        "channel": 9
      },
      {
        "type": "note_on",
        "time": 0,
        "note": 38,
        "velocity": 0,
        "channel": 9
      },
      {
        "type": "note_on",
        "time": 0,
        "note": 36,
        "velocity": 0,
        "channel": 9
      },
      {
        "type": "note_on",
        "time": 15,
        "note": 36,
        "velocity": 101,
        "channel": 9
      },
      {
        "type": "note_on",
        "time": 0,
        "note": 38,
        "velocity": 101,
        "channel": 9
      },
      {
        "type": "note_on",
        "time": 0,
        "note": 40,
        "velocity": 101,
        "channel": 9
      },
      {
        "type": "note_on",
        "time": 15,
        "note": 40,
        "velocity": 0,
        "channel": 9
      },
      {
        "type": "note_on",
        "time": 0,
        "note": 38,
        "velocity": 0,
        "channel": 9
      },
      {
        "type": "note_on",
        "time": 0,
        "note": 36,
        "velocity": 0,
        "channel": 9
      },
      {
        "type": "note_on",
        "time": 15,
        "note": 36,
        "velocity": 102,
        "channel": 9
      },
      {
        "type": "note_on",
        "time": 0,
        "note": 38,
        "velocity": 102,
        "channel": 9
      },
      {
        "type": "note_on",
        "time": 0,
        "note": 40,
        "velocity": 102,
        "channel": 9
      },
      {
        "type": "note_on",
        "time": 15,
        "note": 40,
        "velocity": 0,
        "channel": 9
      },
      {
        "type": "note_on",
        "time": 0,
        "note": 38,
        "velocity": 0,
        "channel": 9
      },
      {
        "type": "note_on",
        "time": 0,
        "note": 36,
        "velocity": 0,
        "channel": 9
      },
      {
        "type": "note_on",
        "time": 15,
        "note": 36,
        "velocity": 103,
        "channel": 9
      },
      {
        "type": "note_on",
        "time": 0,
        "note": 38,
        "velocity": 103,
        "channel": 9
      },
      {
        "type": "note_on",
        "time": 0,
        "note": 40,
        "velocity": 103,
        "channel": 9
      },
      {
        "type": "note_on",
        "time": 15,
        "note": 40,
        "velocity": 0,
        "channel": 9
      },
      {
        "type": "note_on",
        "time": 0,
        "note": 38,
        "velocity": 0,
        "channel": 9
      },
      {
        "type": "note_on",
        "time": 0,
        "note": 36,
        "velocity": 0,
        "channel": 9
      },
      {
        "type": "note_on",
        "time": 15,
        "note": 36,
        "velocity": 104,
        "channel": 9
      },
      {
        "type": "note_on",
        "time": 0,
        "note": 38,
        "velocity": 104,
        "channel": 9
      },
      {
        "type": "note_on",
        "time": 0,
        "note": 40,
        "velocity": 104,
        "channel": 9
      },
      {
        "type": "note_on",
        "time": 15,
        "note": 40,
        "velocity": 0,
        "channel": 9
      },
      {
        "type": "note_on",
        "time": 0,
        "note": 38,
        "velocity": 0,
        "channel": 9
      },
      {
        "type": "note_on",
        "time": 0,
        "note": 36,
        "velocity": 0,
        "channel": 9
      },
      {
        "type": "note_on",
        "time": 15,
        "note": 36,
        "velocity": 104,
        "channel": 9
      },
      {
        "type": "note_on",
        "time": 0,
        "note": 44,
        "velocity": 104,
        "channel": 9
      },
      {
        "type": "note_on",
        "time": 0,
        "note": 38,
        "velocity": 104,
        "channel": 9
      },
      {
        "type": "note_on",
        "time": 0,
        "note": 40,
        "velocity": 104,
        "channel": 9
      },
      {
        "type": "note_on",
        "time": 15,
        "note": 40,
        "velocity": 0,
        "channel": 9
      },
      {
        "type": "note_on",
        "time": 0,
        "note": 36,
        "velocity": 0,
        "channel": 9
      },
      {
        "type": "note_on",
        "time": 0,
        "note": 44,
        "velocity": 0,
        "channel": 9
      },
      {
        "type": "note_on",
        "time": 0,
        "note": 38,
        "velocity": 0,
        "channel": 9
      },
      {
        "type": "note_on",
        "time": 15,
        "note": 36,
        "velocity": 105,
        "channel": 9
      },
      {
        "type": "note_on",
        "time": 0,
        "note": 44,
        "velocity": 105,
        "channel": 9
      },
      {
        "type": "note_on",
        "time": 0,
        "note": 38,
        "velocity": 105,
        "channel": 9
      },
      {
        "type": "note_on",
        "time": 0,
        "note": 40,
        "velocity": 105,
        "channel": 9
      },
      {
        "type": "note_on",
        "time": 15,
        "note": 40,
        "velocity": 0,
        "channel": 9
      },
      {
        "type": "note_on",
        "time": 0,
        "note": 36,
        "velocity": 0,
        "channel": 9
      },
      {
        "type": "note_on",
        "time": 0,
        "note": 44,
        "velocity": 0,
        "channel": 9
      },
      {
        "type": "note_on",
        "time": 0,
        "note": 38,
        "velocity": 0,
        "channel": 9
      },
      {
        "type": "note_on",
        "time": 15,
        "note": 36,
        "velocity": 106,
        "channel": 9
      },
      {
        "type": "note_on",
        "time": 0,
        "note": 44,
        "velocity": 106,
        "channel": 9
      },
      {
        "type": "note_on",
        "time": 0,
        "note": 38,
        "velocity": 106,
        "channel": 9
      },
      {
        "type": "note_on",
        "time": 0,
        "note": 40,
        "velocity": 106,
        "channel": 9
      },
      {
        "type": "note_on",
        "time": 15,
        "note": 40,
        "velocity": 0,
        "channel": 9
      },
      {
        "type": "note_on",
        "time": 0,
        "note": 36,
        "velocity": 0,
        "channel": 9
      },
      {
        "type": "note_on",
        "time": 0,
        "note": 44,
        "velocity": 0,
        "channel": 9
      },
      {
        "type": "note_on",
        "time": 0,
        "note": 38,
        "velocity": 0,
        "channel": 9
      },
      {
        "type": "note_on",
        "time": 15,
        "note": 36,
        "velocity": 107,
        "channel": 9
      },
      {
        "type": "note_on",
        "time": 0,
        "note": 44,
        "velocity": 107,
        "channel": 9
      },
      {
        "type": "note_on",
        "time": 0,
        "note": 38,
        "velocity": 107,
        "channel": 9
      },
      {
        "type": "note_on",
        "time": 0,
        "note": 40,
        "velocity": 107,
        "channel": 9
      },
      {
        "type": "note_on",
        "time": 15,
        "note": 40,
        "velocity": 0,
        "channel": 9
      },
      {
        "type": "note_on",
        "time": 0,
        "note": 36,
        "velocity": 0,
        "channel": 9
      },
      {
        "type": "note_on",
        "time": 0,
        "note": 44,
        "velocity": 0,
        "channel": 9
      },
      {
        "type": "note_on",
        "time": 0,
        "note": 38,
        "velocity": 0,
        "channel": 9
      },
      {
        "type": "note_on",
        "time": 15,
        "note": 36,
        "velocity": 108,
        "channel": 9
      },
      {
        "type": "note_on",
        "time": 0,
        "note": 44,
        "velocity": 108,
        "channel": 9
      },
      {
        "type": "note_on",
        "time": 0,
        "note": 38,
        "velocity": 108,
        "channel": 9
      },
      {
        "type": "note_on",
        "time": 0,
        "note": 40,
        "velocity": 108,
        "channel": 9
      },
      {
        "type": "note_on",
        "time": 15,
        "note": 40,
        "velocity": 0,
        "channel": 9
      },
      {
        "type": "note_on",
        "time": 0,
        "note": 36,
        "velocity": 0,
        "channel": 9
      },
      {
        "type": "note_on",
        "time": 0,
        "note": 44,
        "velocity": 0,
        "channel": 9
      },
      {
        "type": "note_on",
        "time": 0,
        "note": 38,
        "velocity": 0,
        "channel": 9
      },
      {
        "type": "note_on",
        "time": 15,
        "note": 36,
        "velocity": 108,
        "channel": 9
      },
      {
        "type": "note_on",
        "time": 0,
        "note": 44,
        "velocity": 108,
        "channel": 9
      },
      {
        "type": "note_on",
        "time": 0,
        "note": 38,
        "velocity": 108,
        "channel": 9
      },
      {
        "type": "note_on",
        "time": 0,
        "note": 40,
        "velocity": 108,
        "channel": 9
      },
      {
        "type": "note_on",
        "time": 15,
        "note": 40,
        "velocity": 0,
        "channel": 9
      },
      {
        "type": "note_on",
        "time": 0,
        "note": 36,
        "velocity": 0,
        "channel": 9
      },
      {
        "type": "note_on",
        "time": 0,
        "note": 44,
        "velocity": 0,
        "channel": 9
      },
      {
        "type": "note_on",
        "time": 0,
        "note": 38,
        "velocity": 0,
        "channel": 9
      },
      {
        "type": "note_on",
        "time": 15,
        "note": 36,
        "velocity": 108,
        "channel": 9
      },
      {
        "type": "note_on",
        "time": 0,
        "note": 44,
        "velocity": 108,
        "channel": 9
      },
      {
        "type": "note_on",
        "time": 0,
        "note": 38,
        "velocity": 108,
        "channel": 9
      },
      {
        "type": "note_on",
        "time": 0,
        "note": 40,
        "velocity": 108,
        "channel": 9
      },
      {
        "type": "note_on",
        "time": 15,
        "note": 40,
        "velocity": 0,
        "channel": 9
      },
      {
        "type": "note_on",
        "time": 0,
        "note": 36,
        "velocity": 0,
        "channel": 9
      },
      {
        "type": "note_on",
        "time": 0,
        "note": 44,
        "velocity": 0,
        "channel": 9
      },
      {
        "type": "note_on",
        "time": 0,
        "note": 38,
        "velocity": 0,
        "channel": 9
      },
      {
        "type": "note_on",
        "time": 15,
        "note": 36,
        "velocity": 108,
        "channel": 9
      },
      {
        "type": "note_on",
        "time": 0,
        "note": 44,
        "velocity": 108,
        "channel": 9
      },
      {
        "type": "note_on",
        "time": 0,
        "note": 38,
        "velocity": 108,
        "channel": 9
      },
      {
        "type": "note_on",
        "time": 0,
        "note": 40,
        "velocity": 108,
        "channel": 9
      },
      {
        "type": "note_on",
        "time": 15,
        "note": 40,
        "velocity": 0,
        "channel": 9
      },
      {
        "type": "note_on",
        "time": 0,
        "note": 36,
        "velocity": 0,
        "channel": 9
      },
      {
        "type": "note_on",
        "time": 0,
        "note": 44,
        "velocity": 0,
        "channel": 9
      },
      {
        "type": "note_on",
        "time": 0,
        "note": 38,
        "velocity": 0,
        "channel": 9
      },
      {
        "type": "note_on",
        "time": 15,
        "note": 36,
        "velocity": 110,
        "channel": 9
      },
      {
        "type": "note_on",
        "time": 0,
        "note": 46,
        "velocity": 110,
        "channel": 9
      },
      {
        "type": "note_on",
        "time": 0,
        "note": 44,
        "velocity": 110,
        "channel": 9
      },
      {
        "type": "note_on",
        "time": 0,
        "note": 40,
        "velocity": 110,
        "channel": 9
      },
      {
        "type": "note_on",
        "time": 0,
        "note": 38,
        "velocity": 110,
        "channel": 9
      },
      {
        "type": "note_on",
        "time": 15,
        "note": 38,
        "velocity": 0,
        "channel": 9
      },
      {
        "type": "note_on",
        "time": 0,
        "note": 44,
        "velocity": 0,
        "channel": 9
      },
      {
        "type": "note_on",
        "time": 0,
        "note": 36,
        "velocity": 0,
        "channel": 9
      },
      {
        "type": "note_on",
        "time": 0,
        "note": 46,
        "velocity": 0,
        "channel": 9
      },
      {
        "type": "note_on",
        "time": 0,
        "note": 40,
        "velocity": 0,
        "channel": 9
      },
      {
        "type": "note_on",
        "time": 15,
        "note": 36,
        "velocity": 109,
        "channel": 9
      },
      {
        "type": "note_on",
        "time": 0,
        "note": 46,
        "velocity": 109,
        "channel": 9
      },
      {
        "type": "note_on",
        "time": 0,
        "note": 44,
        "velocity": 109,
        "channel": 9
      },
      {
        "type": "note_on",
        "time": 0,
        "note": 38,
        "velocity": 109,
        "channel": 9
      },
      {
        "type": "note_on",
        "time": 0,
        "note": 40,
        "velocity": 109,
        "channel": 9
      },
      {
        "type": "note_on",
        "time": 15,
        "note": 40,
        "velocity": 0,
        "channel": 9
      },
      {
        "type": "note_on",
        "time": 0,
        "note": 44,
        "velocity": 0,
        "channel": 9
      },
      {
        "type": "note_on",
        "time": 0,
        "note": 36,
        "velocity": 0,
        "channel": 9
      },
      {
        "type": "note_on",
        "time": 0,
        "note": 46,
        "velocity": 0,
        "channel": 9
      },
      {
        "type": "note_on",
        "time": 0,
        "note": 38,
        "velocity": 0,
        "channel": 9
      },
      {
        "type": "note_on",
        "time": 15,
        "note": 36,
        "velocity": 109,
        "channel": 9
      },
      {
        "type": "note_on",
        "time": 0,
        "note": 46,
        "velocity": 109,
        "channel": 9
      },
      {
        "type": "note_on",
        "time": 0,
        "note": 44,
        "velocity": 109,
        "channel": 9
      },
      {
        "type": "note_on",
        "time": 0,
        "note": 38,
        "velocity": 109,
        "channel": 9
      },
      {
        "type": "note_on",
        "time": 0,
        "note": 40,
        "velocity": 109,
        "channel": 9
      },
      {
        "type": "note_on",
        "time": 15,
        "note": 40,
        "velocity": 0,
        "channel": 9
      },
      {
        "type": "note_on",
        "time": 0,
        "note": 44,
        "velocity": 0,
        "channel": 9
      },
      {
        "type": "note_on",
        "time": 0,
        "note": 36,
        "velocity": 0,
        "channel": 9
      },
      {
        "type": "note_on",
        "time": 0,
        "note": 46,
        "velocity": 0,
        "channel": 9
      },
      {
        "type": "note_on",
        "time": 0,
        "note": 38,
        "velocity": 0,
        "channel": 9
      },
      {
        "type": "note_on",
        "time": 15,
        "note": 36,
        "velocity": 110,
        "channel": 9
      },
      {
        "type": "note_on",
        "time": 0,
        "note": 46,
        "velocity": 110,
        "channel": 9
      },
      {
        "type": "note_on",
        "time": 0,
        "note": 44,
        "velocity": 110,
        "channel": 9
      },
      {
        "type": "note_on",
        "time": 0,
        "note": 38,
        "velocity": 110,
        "channel": 9
      },
      {
        "type": "note_on",
        "time": 0,
        "note": 40,
        "velocity": 110,
        "channel": 9
      },
      {
        "type": "note_on",
        "time": 15,
        "note": 40,
        "velocity": 0,
        "channel": 9
      },
      {
        "type": "note_on",
        "time": 0,
        "note": 44,
        "velocity": 0,
        "channel": 9
      },
      {
        "type": "note_on",
        "time": 0,
        "note": 36,
        "velocity": 0,
        "channel": 9
      },
      {
        "type": "note_on",
        "time": 0,
        "note": 46,
        "velocity": 0,
        "channel": 9
      },
      {
        "type": "note_on",
        "time": 0,
        "note": 38,
        "velocity": 0,
        "channel": 9
      },
      {
        "type": "note_on",
        "time": 15,
        "note": 36,
        "velocity": 110,
        "channel": 9
      },
      {
        "type": "note_on",
        "time": 0,
        "note": 46,
        "velocity": 110,
        "channel": 9
      },
      {
        "type": "note_on",
        "time": 0,
        "note": 44,
        "velocity": 110,
        "channel": 9
      },
      {
        "type": "note_on",
        "time": 0,
        "note": 38,
        "velocity": 110,
        "channel": 9
      },
      {
        "type": "note_on",
        "time": 0,
        "note": 40,
        "velocity": 110,
        "channel": 9
      },
      {
        "type": "note_on",
        "time": 15,
        "note": 40,
        "velocity": 0,
        "channel": 9
      },
      {
        "type": "note_on",
        "time": 0,
        "note": 44,
        "velocity": 0,
        "channel": 9
      },
      {
        "type": "note_on",
        "time": 0,
        "note": 36,
        "velocity": 0,
        "channel": 9
      },
      {
        "type": "note_on",
        "time": 0,
        "note": 46,
        "velocity": 0,
        "channel": 9
      },
      {
        "type": "note_on",
        "time": 0,
        "note": 38,
        "velocity": 0,
        "channel": 9
      },
      {
        "type": "note_on",
        "time": 15,
        "note": 36,
        "velocity": 112,
        "channel": 9
      },
      {
        "type": "note_on",
        "time": 0,
        "note": 46,
        "velocity": 112,
        "channel": 9
      },
      {
        "type": "note_on",
        "time": 0,
        "note": 44,
        "velocity": 112,
        "channel": 9
      },
      {
        "type": "note_on",
        "time": 0,
        "note": 38,
        "velocity": 112,
        "channel": 9
      },
      {
        "type": "note_on",
        "time": 0,
        "note": 40,
        "velocity": 112,
        "channel": 9
      },
      {
        "type": "note_on",
        "time": 15,
        "note": 40,
        "velocity": 0,
        "channel": 9
      },
      {
        "type": "note_on",
        "time": 0,
        "note": 44,
        "velocity": 0,
        "channel": 9
      },
      {
        "type": "note_on",
        "time": 0,
        "note": 36,
        "velocity": 0,
        "channel": 9
      },
      {
        "type": "note_on",
        "time": 0,
        "note": 46,
        "velocity": 0,
        "channel": 9
      },
      {
        "type": "note_on",
        "time": 0,
        "note": 38,
        "velocity": 0,
        "channel": 9
      },
      {
        "type": "note_on",
        "time": 15,
        "note": 36,
        "velocity": 112,
        "channel": 9
      },
      {
        "type": "note_on",
        "time": 0,
        "note": 46,
        "velocity": 112,
        "channel": 9
      },
      {
        "type": "note_on",
        "time": 0,
        "note": 44,
        "velocity": 112,
        "channel": 9
      },
      {
        "type": "note_on",
        "time": 0,
        "note": 38,
        "velocity": 112,
        "channel": 9
      },
      {
        "type": "note_on",
        "time": 0,
        "note": 40,
        "velocity": 112,
        "channel": 9
      },
      {
        "type": "note_on",
        "time": 15,
        "note": 40,
        "velocity": 0,
        "channel": 9
      },
      {
        "type": "note_on",
        "time": 0,
        "note": 44,
        "velocity": 0,
        "channel": 9
      },
      {
        "type": "note_on",
        "time": 0,
        "note": 36,
        "velocity": 0,
        "channel": 9
      },
      {
        "type": "note_on",
        "time": 0,
        "note": 46,
        "velocity": 0,
        "channel": 9
      },
      {
        "type": "note_on",
        "time": 0,
        "note": 38,
        "velocity": 0,
        "channel": 9
      },
      {
        "type": "note_on",
        "time": 15,
        "note": 36,
        "velocity": 115,
        "channel": 9
      },
      {
        "type": "note_on",
        "time": 0,
        "note": 46,
        "velocity": 115,
        "channel": 9
      },
      {
        "type": "note_on",
        "time": 0,
        "note": 44,
        "velocity": 115,
        "channel": 9
      },
      {
        "type": "note_on",
        "time": 0,
        "note": 38,
        "velocity": 115,
        "channel": 9
      },
      {
        "type": "note_on",
        "time": 0,
        "note": 40,
        "velocity": 115,
        "channel": 9
      },
      {
        "type": "note_on",
        "time": 15,
        "note": 40,
        "velocity": 0,
        "channel": 9
      },
      {
        "type": "note_on",
        "time": 0,
        "note": 44,
        "velocity": 0,
        "channel": 9
      },
      {
        "type": "note_on",
        "time": 0,
        "note": 36,
        "velocity": 0,
        "channel": 9
      },
      {
        "type": "note_on",
        "time": 0,
        "note": 46,
        "velocity": 0,
        "channel": 9
      },
      {
        "type": "note_on",
        "time": 0,
        "note": 38,
        "velocity": 0,
        "channel": 9
      },
      {
        "type": "note_on",
        "time": 15,
        "note": 38,
        "velocity": 116,
        "channel": 9
      },
      {
        "type": "note_on",
        "time": 0,
        "note": 40,
        "velocity": 116,
        "channel": 9
      },
      {
        "type": "note_on",
        "time": 0,
        "note": 52,
        "velocity": 116,
        "channel": 9
      },
      {
        "type": "note_on",
        "time": 15,
        "note": 52,
        "velocity": 0,
        "channel": 9
      },
      {
        "type": "note_on",
        "time": 0,
        "note": 40,
        "velocity": 0,
        "channel": 9
      },
      {
        "type": "note_on",
        "time": 0,
        "note": 38,
        "velocity": 0,
        "channel": 9
      },
      {
        "type": "note_on",
        "time": 1880,
        "note": 38,
        "velocity": 100,
        "channel": 9
      },
      {
        "type": "note_on",
        "time": 9,
        "note": 38,
        "velocity": 100,
        "channel": 9
      },
      {
        "type": "note_on",
        "time": 6,
        "note": 38,
        "velocity": 0,
        "channel": 9
      },
      {
        "type": "note_on",
        "time": 2,
        "note": 38,
        "velocity": 100,
        "channel": 9
      },
      {
        "type": "note_on",
        "time": 7,
        "note": 38,
        "velocity": 0,
        "channel": 9
      },
      {
        "type": "note_on",
        "time": 1,
        "note": 46,
        "velocity": 100,
        "channel": 9
      },
      {
        "type": "note_on",
        "time": 0,
        "note": 36,
        "velocity": 100,
        "channel": 9
      },
      {
        "type": "note_on",
        "time": 7,
        "note": 38,
        "velocity": 0,
        "channel": 9
      },
      {
        "type": "note_on",
        "time": 8,
        "note": 36,
        "velocity": 0,
        "channel": 9
      },
      {
        "type": "note_on",
        "time": 0,
        "note": 46,
        "velocity": 0,
        "channel": 9
      },
      {
        "type": "note_on",
        "time": 41,
        "note": 36,
        "velocity": 100,
        "channel": 9
      },
      {
        "type": "note_on",
        "time": 4,
        "note": 46,
        "velocity": 100,
        "channel": 9
      },
      {
        "type": "note_on",
        "time": 11,
        "note": 36,
        "velocity": 0,
        "channel": 9
      },
      {
        "type": "note_on",
        "time": 4,
        "note": 46,
        "velocity": 0,
        "channel": 9
      },
      {
        "type": "note_on",
        "time": 43,
        "note": 40,
        "velocity": 100,
        "channel": 9
      },
      {
        "type": "note_on",
        "time": 0,
        "note": 38,
        "velocity": 100,
        "channel": 9
      },
      {
        "type": "note_on",
        "time": 2,
        "note": 46,
        "velocity": 100,
        "channel": 9
      },
      {
        "type": "note_on",
        "time": 13,
        "note": 38,
        "velocity": 0,
        "channel": 9
      },
      {
        "type": "note_on",
        "time": 0,
        "note": 40,
        "velocity": 0,
        "channel": 9
      },
      {
        "type": "note_on",
        "time": 2,
        "note": 46,
        "velocity": 0,
        "channel": 9
      },
      {
        "type": "note_on",
        "time": 45,
        "note": 46,
        "velocity": 100,
        "channel": 9
      },
      {
        "type": "note_on",
        "time": 0,
        "note": 36,
        "velocity": 100,
        "channel": 9
      },
      {
        "type": "note_on",
        "time": 15,
        "note": 36,
        "velocity": 0,
        "channel": 9
      },
      {
        "type": "note_on",
        "time": 0,
        "note": 46,
        "velocity": 0,
        "channel": 9
      },
      {
        "type": "note_on",
        "time": 45,
        "note": 46,
        "velocity": 100,
        "channel": 9
      },
      {
        "type": "note_on",
        "time": 15,
        "note": 46,
        "velocity": 0,
        "channel": 9
      },
      {
        "type": "note_on",
        "time": 45,
        "note": 46,
        "velocity": 100,
        "channel": 9
      },
      {
        "type": "note_on",
        "time": 0,
        "note": 36,
        "velocity": 100,
        "channel": 9
      },
      {
        "type": "note_on",
        "time": 15,
        "note": 36,
        "velocity": 0,
        "channel": 9
      },
      {
        "type": "note_on",
        "time": 0,
        "note": 46,
        "velocity": 0,
        "channel": 9
      },
      {
        "type": "note_on",
        "time": 45,
        "note": 46,
        "velocity": 100,
        "channel": 9
      },
      {
        "type": "note_on",
        "time": 0,
        "note": 40,
        "velocity": 100,
        "channel": 9
      },
      {
        "type": "note_on",
        "time": 0,
        "note": 38,
        "velocity": 100,
        "channel": 9
      },
      {
        "type": "note_on",
        "time": 15,
        "note": 38,
        "velocity": 0,
        "channel": 9
      },
      {
        "type": "note_on",
        "time": 0,
        "note": 40,
        "velocity": 0,
        "channel": 9
      },
      {
        "type": "note_on",
        "time": 0,
        "note": 46,
        "velocity": 0,
        "channel": 9
      },
      {
        "type": "note_on",
        "time": 45,
        "note": 46,
        "velocity": 100,
        "channel": 9
      },
      {
        "type": "note_on",
        "time": 15,
        "note": 46,
        "velocity": 0,
        "channel": 9
      },
      {
        "type": "note_on",
        "time": 45,
        "note": 46,
        "velocity": 100,
        "channel": 9
      },
      {
        "type": "note_on",
        "time": 0,
        "note": 36,
        "velocity": 100,
        "channel": 9
      },
      {
        "type": "note_on",
        "time": 15,
        "note": 36,
        "velocity": 0,
        "channel": 9
      },
      {
        "type": "note_on",
        "time": 0,
        "note": 46,
        "velocity": 0,
        "channel": 9
      },
      {
        "type": "note_on",
        "time": 45,
        "note": 46,
        "velocity": 100,
        "channel": 9
      },
      {
        "type": "note_on",
        "time": 0,
        "note": 36,
        "velocity": 100,
        "channel": 9
      },
      {
        "type": "note_on",
        "time": 15,
        "note": 36,
        "velocity": 0,
        "channel": 9
      },
      {
        "type": "note_on",
        "time": 0,
        "note": 46,
        "velocity": 0,
        "channel": 9
      },
      {
        "type": "note_on",
        "time": 45,
        "note": 46,
        "velocity": 100,
        "channel": 9
      },
      {
        "type": "note_on",
        "time": 0,
        "note": 40,
        "velocity": 100,
        "channel": 9
      },
      {
        "type": "note_on",
        "time": 0,
        "note": 38,
        "velocity": 100,
        "channel": 9
      },
      {
        "type": "note_on",
        "time": 15,
        "note": 38,
        "velocity": 0,
        "channel": 9
      },
      {
        "type": "note_on",
        "time": 0,
        "note": 40,
        "velocity": 0,
        "channel": 9
      },
      {
        "type": "note_on",
        "time": 0,
        "note": 46,
        "velocity": 0,
        "channel": 9
      },
      {
        "type": "note_on",
        "time": 45,
        "note": 46,
        "velocity": 100,
        "channel": 9
      },
      {
        "type": "note_on",
        "time": 0,
        "note": 36,
        "velocity": 100,
        "channel": 9
      },
      {
        "type": "note_on",
        "time": 15,
        "note": 36,
        "velocity": 0,
        "channel": 9
      },
      {
        "type": "note_on",
        "time": 0,
        "note": 46,
        "velocity": 0,
        "channel": 9
      },
      {
        "type": "note_on",
        "time": 45,
        "note": 46,
        "velocity": 100,
        "channel": 9
      },
      {
        "type": "note_on",
        "time": 0,
        "note": 36,
        "velocity": 100,
        "channel": 9
      },
      {
        "type": "note_on",
        "time": 15,
        "note": 36,
        "velocity": 0,
        "channel": 9
      },
      {
        "type": "note_on",
        "time": 0,
        "note": 46,
        "velocity": 0,
        "channel": 9
      },
      {
        "type": "note_on",
        "time": 15,
        "note": 38,
        "velocity": 100,
        "channel": 9
      },
      {
        "type": "note_on",
        "time": 15,
        "note": 38,
        "velocity": 0,
        "channel": 9
      },
      {
        "type": "note_on",
        "time": 15,
        "note": 46,
        "velocity": 100,
        "channel": 9
      },
      {
        "type": "note_on",
        "time": 15,
        "note": 46,
        "velocity": 0,
        "channel": 9
      },
      {
        "type": "note_on",
        "time": 45,
        "note": 46,
        "velocity": 100,
        "channel": 9
      },
      {
        "type": "note_on",
        "time": 0,
        "note": 38,
        "velocity": 100,
        "channel": 9
      },
      {
        "type": "note_on",
        "time": 0,
        "note": 40,
        "velocity": 100,
        "channel": 9
      },
      {
        "type": "note_on",
        "time": 15,
        "note": 40,
        "velocity": 0,
        "channel": 9
      },
      {
        "type": "note_on",
        "time": 0,
        "note": 38,
        "velocity": 0,
        "channel": 9
      },
      {
        "type": "note_on",
        "time": 0,
        "note": 46,
        "velocity": 0,
        "channel": 9
      },
      {
        "type": "note_on",
        "time": 45,
        "note": 46,
        "velocity": 100,
        "channel": 9
      },
      {
        "type": "note_on",
        "time": 15,
        "note": 46,
        "velocity": 0,
        "channel": 9
      },
      {
        "type": "note_on",
        "time": 45,
        "note": 46,
        "velocity": 100,
        "channel": 9
      },
      {
        "type": "note_on",
        "time": 0,
        "note": 36,
        "velocity": 100,
        "channel": 9
      },
      {
        "type": "note_on",
        "time": 15,
        "note": 36,
        "velocity": 0,
        "channel": 9
      },
      {
        "type": "note_on",
        "time": 0,
        "note": 46,
        "velocity": 0,
        "channel": 9
      },
      {
        "type": "note_on",
        "time": 41,
        "note": 36,
        "velocity": 100,
        "channel": 9
      },
      {
        "type": "note_on",
        "time": 4,
        "note": 46,
        "velocity": 100,
        "channel": 9
      },
      {
        "type": "note_on",
        "time": 11,
        "note": 36,
        "velocity": 0,
        "channel": 9
      },
      {
        "type": "note_on",
        "time": 4,
        "note": 46,
        "velocity": 0,
        "channel": 9
      },
      {
        "type": "note_on",
        "time": 43,
        "note": 40,
        "velocity": 100,
        "channel": 9
      },
      {
        "type": "note_on",
        "time": 0,
        "note": 38,
        "velocity": 100,
        "channel": 9
      },
      {
        "type": "note_on",
        "time": 2,
        "note": 46,
        "velocity": 100,
        "channel": 9
      },
      {
        "type": "note_on",
        "time": 13,
        "note": 38,
        "velocity": 0,
        "channel": 9
      },
      {
        "type": "note_on",
        "time": 0,
        "note": 40,
        "velocity": 0,
        "channel": 9
      },
      {
        "type": "note_on",
        "time": 2,
        "note": 46,
        "velocity": 0,
        "channel": 9
      },
      {
        "type": "note_on",
        "time": 45,
        "note": 46,
        "velocity": 100,
        "channel": 9
      },
      {
        "type": "note_on",
        "time": 0,
        "note": 36,
        "velocity": 100,
        "channel": 9
      },
      {
        "type": "note_on",
        "time": 15,
        "note": 36,
        "velocity": 0,
        "channel": 9
      },
      {
        "type": "note_on",
        "time": 0,
        "note": 46,
        "velocity": 0,
        "channel": 9
      },
      {
        "type": "note_on",
        "time": 45,
        "note": 46,
        "velocity": 100,
        "channel": 9
      },
      {
        "type": "note_on",
        "time": 15,
        "note": 46,
        "velocity": 0,
        "channel": 9
      },
      {
        "type": "note_on",
        "time": 45,
        "note": 46,
        "velocity": 100,
        "channel": 9
      },
      {
        "type": "note_on",
        "time": 0,
        "note": 36,
        "velocity": 100,
        "channel": 9
      },
      {
        "type": "note_on",
        "time": 15,
        "note": 36,
        "velocity": 0,
        "channel": 9
      },
      {
        "type": "note_on",
        "time": 0,
        "note": 46,
        "velocity": 0,
        "channel": 9
      },
      {
        "type": "note_on",
        "time": 45,
        "note": 46,
        "velocity": 100,
        "channel": 9
      },
      {
        "type": "note_on",
        "time": 0,
        "note": 40,
        "velocity": 100,
        "channel": 9
      },
      {
        "type": "note_on",
        "time": 0,
        "note": 38,
        "velocity": 100,
        "channel": 9
      },
      {
        "type": "note_on",
        "time": 15,
        "note": 38,
        "velocity": 0,
        "channel": 9
      },
      {
        "type": "note_on",
        "time": 0,
        "note": 40,
        "velocity": 0,
        "channel": 9
      },
      {
        "type": "note_on",
        "time": 0,
        "note": 46,
        "velocity": 0,
        "channel": 9
      },
      {
        "type": "note_on",
        "time": 45,
        "note": 46,
        "velocity": 100,
        "channel": 9
      },
      {
        "type": "note_on",
        "time": 15,
        "note": 46,
        "velocity": 0,
        "channel": 9
      },
      {
        "type": "note_on",
        "time": 45,
        "note": 46,
        "velocity": 100,
        "channel": 9
      },
      {
        "type": "note_on",
        "time": 0,
        "note": 36,
        "velocity": 100,
        "channel": 9
      },
      {
        "type": "note_on",
        "time": 15,
        "note": 36,
        "velocity": 0,
        "channel": 9
      },
      {
        "type": "note_on",
        "time": 0,
        "note": 46,
        "velocity": 0,
        "channel": 9
      },
      {
        "type": "note_on",
        "time": 45,
        "note": 46,
        "velocity": 100,
        "channel": 9
      },
      {
        "type": "note_on",
        "time": 0,
        "note": 36,
        "velocity": 100,
        "channel": 9
      },
      {
        "type": "note_on",
        "time": 15,
        "note": 36,
        "velocity": 0,
        "channel": 9
      },
      {
        "type": "note_on",
        "time": 0,
        "note": 46,
        "velocity": 0,
        "channel": 9
      },
      {
        "type": "note_on",
        "time": 45,
        "note": 46,
        "velocity": 100,
        "channel": 9
      },
      {
        "type": "note_on",
        "time": 0,
        "note": 40,
        "velocity": 100,
        "channel": 9
      },
      {
        "type": "note_on",
        "time": 0,
        "note": 38,
        "velocity": 100,
        "channel": 9
      },
      {
        "type": "note_on",
        "time": 15,
        "note": 38,
        "velocity": 0,
        "channel": 9
      },
      {
        "type": "note_on",
        "time": 0,
        "note": 40,
        "velocity": 0,
        "channel": 9
      },
      {
        "type": "note_on",
        "time": 0,
        "note": 46,
        "velocity": 0,
        "channel": 9
      },
      {
        "type": "note_on",
        "time": 45,
        "note": 46,
        "velocity": 100,
        "channel": 9
      },
      {
        "type": "note_on",
        "time": 0,
        "note": 36,
        "velocity": 100,
        "channel": 9
      },
      {
        "type": "note_on",
        "time": 15,
        "note": 36,
        "velocity": 0,
        "channel": 9
      },
      {
        "type": "note_on",
        "time": 0,
        "note": 46,
        "velocity": 0,
        "channel": 9
      },
      {
        "type": "note_on",
        "time": 45,
        "note": 46,
        "velocity": 100,
        "channel": 9
      },
      {
        "type": "note_on",
        "time": 0,
        "note": 36,
        "velocity": 100,
        "channel": 9
      },
      {
        "type": "note_on",
        "time": 15,
        "note": 36,
        "velocity": 0,
        "channel": 9
      },
      {
        "type": "note_on",
        "time": 0,
        "note": 46,
        "velocity": 0,
        "channel": 9
      },
      {
        "type": "note_on",
        "time": 15,
        "note": 38,
        "velocity": 100,
        "channel": 9
      },
      {
        "type": "note_on",
        "time": 15,
        "note": 38,
        "velocity": 0,
        "channel": 9
      },
      {
        "type": "note_on",
        "time": 15,
        "note": 46,
        "velocity": 100,
        "channel": 9
      },
      {
        "type": "note_on",
        "time": 15,
        "note": 46,
        "velocity": 0,
        "channel": 9
      },
      {
        "type": "note_on",
        "time": 45,
        "note": 46,
        "velocity": 100,
        "channel": 9
      },
      {
        "type": "note_on",
        "time": 0,
        "note": 38,
        "velocity": 100,
        "channel": 9
      },
      {
        "type": "note_on",
        "time": 0,
        "note": 40,
        "velocity": 100,
        "channel": 9
      },
      {
        "type": "note_on",
        "time": 15,
        "note": 40,
        "velocity": 0,
        "channel": 9
      },
      {
        "type": "note_on",
        "time": 0,
        "note": 38,
        "velocity": 0,
        "channel": 9
      },
      {
        "type": "note_on",
        "time": 0,
        "note": 46,
        "velocity": 0,
        "channel": 9
      },
      {
        "type": "note_on",
        "time": 45,
        "note": 46,
        "velocity": 100,
        "channel": 9
      },
      {
        "type": "note_on",
        "time": 15,
        "note": 46,
        "velocity": 0,
        "channel": 9
      },
      {
        "type": "note_on",
        "time": 45,
        "note": 46,
        "velocity": 100,
        "channel": 9
      },
      {
        "type": "note_on",
        "time": 0,
        "note": 36,
        "velocity": 100,
        "channel": 9
      },
      {
        "type": "note_on",
        "time": 15,
        "note": 36,
        "velocity": 0,
        "channel": 9
      },
      {
        "type": "note_on",
        "time": 0,
        "note": 46,
        "velocity": 0,
        "channel": 9
      },
      {
        "type": "note_on",
        "time": 41,
        "note": 36,
        "velocity": 100,
        "channel": 9
      },
      {
        "type": "note_on",
        "time": 4,
        "note": 46,
        "velocity": 100,
        "channel": 9
      },
      {
        "type": "note_on",
        "time": 11,
        "note": 36,
        "velocity": 0,
        "channel": 9
      },
      {
        "type": "note_on",
        "time": 4,
        "note": 46,
        "velocity": 0,
        "channel": 9
      },
      {
        "type": "note_on",
        "time": 43,
        "note": 40,
        "velocity": 100,
        "channel": 9
      },
      {
        "type": "note_on",
        "time": 0,
        "note": 38,
        "velocity": 100,
        "channel": 9
      },
      {
        "type": "note_on",
        "time": 2,
        "note": 46,
        "velocity": 100,
        "channel": 9
      },
      {
        "type": "note_on",
        "time": 13,
        "note": 38,
        "velocity": 0,
        "channel": 9
      },
      {
        "type": "note_on",
        "time": 0,
        "note": 40,
        "velocity": 0,
        "channel": 9
      },
      {
        "type": "note_on",
        "time": 2,
        "note": 46,
        "velocity": 0,
        "channel": 9
      },
      {
        "type": "note_on",
        "time": 45,
        "note": 46,
        "velocity": 100,
        "channel": 9
      },
      {
        "type": "note_on",
        "time": 0,
        "note": 36,
        "velocity": 100,
        "channel": 9
      },
      {
        "type": "note_on",
        "time": 15,
        "note": 36,
        "velocity": 0,
        "channel": 9
      },
      {
        "type": "note_on",
        "time": 0,
        "note": 46,
        "velocity": 0,
        "channel": 9
      },
      {
        "type": "note_on",
        "time": 45,
        "note": 46,
        "velocity": 100,
        "channel": 9
      },
      {
        "type": "note_on",
        "time": 15,
        "note": 46,
        "velocity": 0,
        "channel": 9
      },
      {
        "type": "note_on",
        "time": 45,
        "note": 46,
        "velocity": 100,
        "channel": 9
      },
      {
        "type": "note_on",
        "time": 0,
        "note": 36,
        "velocity": 100,
        "channel": 9
      },
      {
        "type": "note_on",
        "time": 15,
        "note": 36,
        "velocity": 0,
        "channel": 9
      },
      {
        "type": "note_on",
        "time": 0,
        "note": 46,
        "velocity": 0,
        "channel": 9
      },
      {
        "type": "note_on",
        "time": 45,
        "note": 46,
        "velocity": 100,
        "channel": 9
      },
      {
        "type": "note_on",
        "time": 0,
        "note": 40,
        "velocity": 100,
        "channel": 9
      },
      {
        "type": "note_on",
        "time": 0,
        "note": 38,
        "velocity": 100,
        "channel": 9
      },
      {
        "type": "note_on",
        "time": 15,
        "note": 38,
        "velocity": 0,
        "channel": 9
      },
      {
        "type": "note_on",
        "time": 0,
        "note": 40,
        "velocity": 0,
        "channel": 9
      },
      {
        "type": "note_on",
        "time": 0,
        "note": 46,
        "velocity": 0,
        "channel": 9
      },
      {
        "type": "note_on",
        "time": 45,
        "note": 46,
        "velocity": 100,
        "channel": 9
      },
      {
        "type": "note_on",
        "time": 15,
        "note": 46,
        "velocity": 0,
        "channel": 9
      },
      {
        "type": "note_on",
        "time": 45,
        "note": 46,
        "velocity": 100,
        "channel": 9
      },
      {
        "type": "note_on",
        "time": 0,
        "note": 36,
        "velocity": 100,
        "channel": 9
      },
      {
        "type": "note_on",
        "time": 15,
        "note": 36,
        "velocity": 0,
        "channel": 9
      },
      {
        "type": "note_on",
        "time": 0,
        "note": 46,
        "velocity": 0,
        "channel": 9
      },
      {
        "type": "note_on",
        "time": 45,
        "note": 46,
        "velocity": 100,
        "channel": 9
      },
      {
        "type": "note_on",
        "time": 0,
        "note": 36,
        "velocity": 100,
        "channel": 9
      },
      {
        "type": "note_on",
        "time": 15,
        "note": 36,
        "velocity": 0,
        "channel": 9
      },
      {
        "type": "note_on",
        "time": 0,
        "note": 46,
        "velocity": 0,
        "channel": 9
      },
      {
        "type": "note_on",
        "time": 45,
        "note": 46,
        "velocity": 100,
        "channel": 9
      },
      {
        "type": "note_on",
        "time": 0,
        "note": 40,
        "velocity": 100,
        "channel": 9
      },
      {
        "type": "note_on",
        "time": 0,
        "note": 38,
        "velocity": 100,
        "channel": 9
      },
      {
        "type": "note_on",
        "time": 15,
        "note": 38,
        "velocity": 0,
        "channel": 9
      },
      {
        "type": "note_on",
        "time": 0,
        "note": 40,
        "velocity": 0,
        "channel": 9
      },
      {
        "type": "note_on",
        "time": 0,
        "note": 46,
        "velocity": 0,
        "channel": 9
      },
      {
        "type": "note_on",
        "time": 45,
        "note": 46,
        "velocity": 100,
        "channel": 9
      },
      {
        "type": "note_on",
        "time": 0,
        "note": 36,
        "velocity": 100,
        "channel": 9
      },
      {
        "type": "note_on",
        "time": 15,
        "note": 36,
        "velocity": 0,
        "channel": 9
      },
      {
        "type": "note_on",
        "time": 0,
        "note": 46,
        "velocity": 0,
        "channel": 9
      },
      {
        "type": "note_on",
        "time": 45,
        "note": 46,
        "velocity": 100,
        "channel": 9
      },
      {
        "type": "note_on",
        "time": 0,
        "note": 36,
        "velocity": 100,
        "channel": 9
      },
      {
        "type": "note_on",
        "time": 15,
        "note": 36,
        "velocity": 0,
        "channel": 9
      },
      {
        "type": "note_on",
        "time": 0,
        "note": 46,
        "velocity": 0,
        "channel": 9
      },
      {
        "type": "note_on",
        "time": 15,
        "note": 38,
        "velocity": 100,
        "channel": 9
      },
      {
        "type": "note_on",
        "time": 15,
        "note": 38,
        "velocity": 0,
        "channel": 9
      },
      {
        "type": "note_on",
        "time": 15,
        "note": 46,
        "velocity": 100,
        "channel": 9
      },
      {
        "type": "note_on",
        "time": 15,
        "note": 46,
        "velocity": 0,
        "channel": 9
      },
      {
        "type": "note_on",
        "time": 45,
        "note": 46,
        "velocity": 100,
        "channel": 9
      },
      {
        "type": "note_on",
        "time": 0,
        "note": 38,
        "velocity": 100,
        "channel": 9
      },
      {
        "type": "note_on",
        "time": 0,
        "note": 40,
        "velocity": 100,
        "channel": 9
      },
      {
        "type": "note_on",
        "time": 15,
        "note": 40,
        "velocity": 0,
        "channel": 9
      },
      {
        "type": "note_on",
        "time": 0,
        "note": 38,
        "velocity": 0,
        "channel": 9
      },
      {
        "type": "note_on",
        "time": 0,
        "note": 46,
        "velocity": 0,
        "channel": 9
      },
      {
        "type": "note_on",
        "time": 45,
        "note": 46,
        "velocity": 100,
        "channel": 9
      },
      {
        "type": "note_on",
        "time": 15,
        "note": 46,
        "velocity": 0,
        "channel": 9
      },
      {
        "type": "note_on",
        "time": 45,
        "note": 46,
        "velocity": 100,
        "channel": 9
      },
      {
        "type": "note_on",
        "time": 0,
        "note": 36,
        "velocity": 100,
        "channel": 9
      },
      {
        "type": "note_on",
        "time": 15,
        "note": 36,
        "velocity": 0,
        "channel": 9
      },
      {
        "type": "note_on",
        "time": 0,
        "note": 46,
        "velocity": 0,
        "channel": 9
      },
      {
        "type": "note_on",
        "time": 41,
        "note": 36,
        "velocity": 100,
        "channel": 9
      },
      {
        "type": "note_on",
        "time": 4,
        "note": 46,
        "velocity": 100,
        "channel": 9
      },
      {
        "type": "note_on",
        "time": 11,
        "note": 36,
        "velocity": 0,
        "channel": 9
      },
      {
        "type": "note_on",
        "time": 4,
        "note": 46,
        "velocity": 0,
        "channel": 9
      },
      {
        "type": "note_on",
        "time": 43,
        "note": 40,
        "velocity": 100,
        "channel": 9
      },
      {
        "type": "note_on",
        "time": 0,
        "note": 38,
        "velocity": 100,
        "channel": 9
      },
      {
        "type": "note_on",
        "time": 2,
        "note": 46,
        "velocity": 100,
        "channel": 9
      },
      {
        "type": "note_on",
        "time": 13,
        "note": 38,
        "velocity": 0,
        "channel": 9
      },
      {
        "type": "note_on",
        "time": 0,
        "note": 40,
        "velocity": 0,
        "channel": 9
      },
      {
        "type": "note_on",
        "time": 2,
        "note": 46,
        "velocity": 0,
        "channel": 9
      },
      {
        "type": "note_on",
        "time": 45,
        "note": 46,
        "velocity": 100,
        "channel": 9
      },
      {
        "type": "note_on",
        "time": 0,
        "note": 36,
        "velocity": 100,
        "channel": 9
      },
      {
        "type": "note_on",
        "time": 15,
        "note": 36,
        "velocity": 0,
        "channel": 9
      },
      {
        "type": "note_on",
        "time": 0,
        "note": 46,
        "velocity": 0,
        "channel": 9
      },
      {
        "type": "note_on",
        "time": 45,
        "note": 46,
        "velocity": 100,
        "channel": 9
      },
      {
        "type": "note_on",
        "time": 15,
        "note": 46,
        "velocity": 0,
        "channel": 9
      },
      {
        "type": "note_on",
        "time": 45,
        "note": 46,
        "velocity": 100,
        "channel": 9
      },
      {
        "type": "note_on",
        "time": 0,
        "note": 36,
        "velocity": 100,
        "channel": 9
      },
      {
        "type": "note_on",
        "time": 15,
        "note": 36,
        "velocity": 0,
        "channel": 9
      },
      {
        "type": "note_on",
        "time": 0,
        "note": 46,
        "velocity": 0,
        "channel": 9
      },
      {
        "type": "note_on",
        "time": 45,
        "note": 46,
        "velocity": 100,
        "channel": 9
      },
      {
        "type": "note_on",
        "time": 0,
        "note": 40,
        "velocity": 100,
        "channel": 9
      },
      {
        "type": "note_on",
        "time": 0,
        "note": 38,
        "velocity": 100,
        "channel": 9
      },
      {
        "type": "note_on",
        "time": 15,
        "note": 38,
        "velocity": 0,
        "channel": 9
      },
      {
        "type": "note_on",
        "time": 0,
        "note": 40,
        "velocity": 0,
        "channel": 9
      },
      {
        "type": "note_on",
        "time": 0,
        "note": 46,
        "velocity": 0,
        "channel": 9
      },
      {
        "type": "note_on",
        "time": 45,
        "note": 46,
        "velocity": 100,
        "channel": 9
      },
      {
        "type": "note_on",
        "time": 15,
        "note": 46,
        "velocity": 0,
        "channel": 9
      },
      {
        "type": "note_on",
        "time": 45,
        "note": 46,
        "velocity": 100,
        "channel": 9
      },
      {
        "type": "note_on",
        "time": 0,
        "note": 36,
        "velocity": 100,
        "channel": 9
      },
      {
        "type": "note_on",
        "time": 15,
        "note": 36,
        "velocity": 0,
        "channel": 9
      },
      {
        "type": "note_on",
        "time": 0,
        "note": 46,
        "velocity": 0,
        "channel": 9
      },
      {
        "type": "note_on",
        "time": 45,
        "note": 46,
        "velocity": 100,
        "channel": 9
      },
      {
        "type": "note_on",
        "time": 0,
        "note": 36,
        "velocity": 100,
        "channel": 9
      },
      {
        "type": "note_on",
        "time": 15,
        "note": 36,
        "velocity": 0,
        "channel": 9
      },
      {
        "type": "note_on",
        "time": 0,
        "note": 46,
        "velocity": 0,
        "channel": 9
      },
      {
        "type": "note_on",
        "time": 45,
        "note": 46,
        "velocity": 100,
        "channel": 9
      },
      {
        "type": "note_on",
        "time": 0,
        "note": 40,
        "velocity": 100,
        "channel": 9
      },
      {
        "type": "note_on",
        "time": 0,
        "note": 38,
        "velocity": 100,
        "channel": 9
      },
      {
        "type": "note_on",
        "time": 15,
        "note": 38,
        "velocity": 0,
        "channel": 9
      },
      {
        "type": "note_on",
        "time": 0,
        "note": 40,
        "velocity": 0,
        "channel": 9
      },
      {
        "type": "note_on",
        "time": 0,
        "note": 46,
        "velocity": 0,
        "channel": 9
      },
      {
        "type": "note_on",
        "time": 45,
        "note": 46,
        "velocity": 100,
        "channel": 9
      },
      {
        "type": "note_on",
        "time": 0,
        "note": 36,
        "velocity": 100,
        "channel": 9
      },
      {
        "type": "note_on",
        "time": 15,
        "note": 36,
        "velocity": 0,
        "channel": 9
      },
      {
        "type": "note_on",
        "time": 0,
        "note": 46,
        "velocity": 0,
        "channel": 9
      },
      {
        "type": "note_on",
        "time": 45,
        "note": 46,
        "velocity": 100,
        "channel": 9
      },
      {
        "type": "note_on",
        "time": 0,
        "note": 36,
        "velocity": 100,
        "channel": 9
      },
      {
        "type": "note_on",
        "time": 15,
        "note": 36,
        "velocity": 0,
        "channel": 9
      },
      {
        "type": "note_on",
        "time": 0,
        "note": 46,
        "velocity": 0,
        "channel": 9
      },
      {
        "type": "note_on",
        "time": 15,
        "note": 38,
        "velocity": 100,
        "channel": 9
      },
      {
        "type": "note_on",
        "time": 15,
        "note": 38,
        "velocity": 0,
        "channel": 9
      },
      {
        "type": "note_on",
        "time": 15,
        "note": 46,
        "velocity": 100,
        "channel": 9
      },
      {
        "type": "note_on",
        "time": 15,
        "note": 46,
        "velocity": 0,
        "channel": 9
      },
      {
        "type": "note_on",
        "time": 45,
        "note": 46,
        "velocity": 100,
        "channel": 9
      },
      {
        "type": "note_on",
        "time": 0,
        "note": 38,
        "velocity": 100,
        "channel": 9
      },
      {
        "type": "note_on",
        "time": 0,
        "note": 40,
        "velocity": 100,
        "channel": 9
      },
      {
        "type": "note_on",
        "time": 15,
        "note": 40,
        "velocity": 0,
        "channel": 9
      },
      {
        "type": "note_on",
        "time": 0,
        "note": 38,
        "velocity": 0,
        "channel": 9
      },
      {
        "type": "note_on",
        "time": 0,
        "note": 46,
        "velocity": 0,
        "channel": 9
      },
      {
        "type": "note_on",
        "time": 45,
        "note": 46,
        "velocity": 100,
        "channel": 9
      },
      {
        "type": "note_on",
        "time": 15,
        "note": 46,
        "velocity": 0,
        "channel": 9
      },
      {
        "type": "note_on",
        "time": 45,
        "note": 46,
        "velocity": 100,
        "channel": 9
      },
      {
        "type": "note_on",
        "time": 0,
        "note": 36,
        "velocity": 100,
        "channel": 9
      },
      {
        "type": "note_on",
        "time": 15,
        "note": 36,
        "velocity": 0,
        "channel": 9
      },
      {
        "type": "note_on",
        "time": 0,
        "note": 46,
        "velocity": 0,
        "channel": 9
      },
      {
        "type": "note_on",
        "time": 41,
        "note": 36,
        "velocity": 100,
        "channel": 9
      },
      {
        "type": "note_on",
        "time": 4,
        "note": 46,
        "velocity": 100,
        "channel": 9
      },
      {
        "type": "note_on",
        "time": 11,
        "note": 36,
        "velocity": 0,
        "channel": 9
      },
      {
        "type": "note_on",
        "time": 4,
        "note": 46,
        "velocity": 0,
        "channel": 9
      },
      {
        "type": "note_on",
        "time": 43,
        "note": 40,
        "velocity": 100,
        "channel": 9
      },
      {
        "type": "note_on",
        "time": 0,
        "note": 38,
        "velocity": 100,
        "channel": 9
      },
      {
        "type": "note_on",
        "time": 2,
        "note": 46,
        "velocity": 100,
        "channel": 9
      },
      {
        "type": "note_on",
        "time": 13,
        "note": 38,
        "velocity": 0,
        "channel": 9
      },
      {
        "type": "note_on",
        "time": 0,
        "note": 40,
        "velocity": 0,
        "channel": 9
      },
      {
        "type": "note_on",
        "time": 2,
        "note": 46,
        "velocity": 0,
        "channel": 9
      },
      {
        "type": "note_on",
        "time": 45,
        "note": 46,
        "velocity": 100,
        "channel": 9
      },
      {
        "type": "note_on",
        "time": 0,
        "note": 36,
        "velocity": 100,
        "channel": 9
      },
      {
        "type": "note_on",
        "time": 15,
        "note": 36,
        "velocity": 0,
        "channel": 9
      },
      {
        "type": "note_on",
        "time": 0,
        "note": 46,
        "velocity": 0,
        "channel": 9
      },
      {
        "type": "note_on",
        "time": 45,
        "note": 46,
        "velocity": 100,
        "channel": 9
      },
      {
        "type": "note_on",
        "time": 15,
        "note": 46,
        "velocity": 0,
        "channel": 9
      },
      {
        "type": "note_on",
        "time": 45,
        "note": 46,
        "velocity": 100,
        "channel": 9
      },
      {
        "type": "note_on",
        "time": 0,
        "note": 36,
        "velocity": 100,
        "channel": 9
      },
      {
        "type": "note_on",
        "time": 15,
        "note": 36,
        "velocity": 0,
        "channel": 9
      },
      {
        "type": "note_on",
        "time": 0,
        "note": 46,
        "velocity": 0,
        "channel": 9
      },
      {
        "type": "note_on",
        "time": 45,
        "note": 46,
        "velocity": 100,
        "channel": 9
      },
      {
        "type": "note_on",
        "time": 0,
        "note": 40,
        "velocity": 100,
        "channel": 9
      },
      {
        "type": "note_on",
        "time": 0,
        "note": 38,
        "velocity": 100,
        "channel": 9
      },
      {
        "type": "note_on",
        "time": 15,
        "note": 38,
        "velocity": 0,
        "channel": 9
      },
      {
        "type": "note_on",
        "time": 0,
        "note": 40,
        "velocity": 0,
        "channel": 9
      },
      {
        "type": "note_on",
        "time": 0,
        "note": 46,
        "velocity": 0,
        "channel": 9
      },
      {
        "type": "note_on",
        "time": 45,
        "note": 46,
        "velocity": 100,
        "channel": 9
      },
      {
        "type": "note_on",
        "time": 15,
        "note": 46,
        "velocity": 0,
        "channel": 9
      },
      {
        "type": "note_on",
        "time": 45,
        "note": 46,
        "velocity": 100,
        "channel": 9
      },
      {
        "type": "note_on",
        "time": 0,
        "note": 36,
        "velocity": 100,
        "channel": 9
      },
      {
        "type": "note_on",
        "time": 15,
        "note": 36,
        "velocity": 0,
        "channel": 9
      },
      {
        "type": "note_on",
        "time": 0,
        "note": 46,
        "velocity": 0,
        "channel": 9
      },
      {
        "type": "note_on",
        "time": 45,
        "note": 46,
        "velocity": 100,
        "channel": 9
      },
      {
        "type": "note_on",
        "time": 0,
        "note": 36,
        "velocity": 100,
        "channel": 9
      },
      {
        "type": "note_on",
        "time": 15,
        "note": 36,
        "velocity": 0,
        "channel": 9
      },
      {
        "type": "note_on",
        "time": 0,
        "note": 46,
        "velocity": 0,
        "channel": 9
      },
      {
        "type": "note_on",
        "time": 45,
        "note": 46,
        "velocity": 100,
        "channel": 9
      },
      {
        "type": "note_on",
        "time": 0,
        "note": 40,
        "velocity": 100,
        "channel": 9
      },
      {
        "type": "note_on",
        "time": 0,
        "note": 38,
        "velocity": 100,
        "channel": 9
      },
      {
        "type": "note_on",
        "time": 15,
        "note": 38,
        "velocity": 0,
        "channel": 9
      },
      {
        "type": "note_on",
        "time": 0,
        "note": 40,
        "velocity": 0,
        "channel": 9
      },
      {
        "type": "note_on",
        "time": 0,
        "note": 46,
        "velocity": 0,
        "channel": 9
      },
      {
        "type": "note_on",
        "time": 45,
        "note": 46,
        "velocity": 100,
        "channel": 9
      },
      {
        "type": "note_on",
        "time": 0,
        "note": 36,
        "velocity": 100,
        "channel": 9
      },
      {
        "type": "note_on",
        "time": 15,
        "note": 36,
        "velocity": 0,
        "channel": 9
      },
      {
        "type": "note_on",
        "time": 0,
        "note": 46,
        "velocity": 0,
        "channel": 9
      },
      {
        "type": "note_on",
        "time": 45,
        "note": 46,
        "velocity": 100,
        "channel": 9
      },
      {
        "type": "note_on",
        "time": 0,
        "note": 36,
        "velocity": 100,
        "channel": 9
      },
      {
        "type": "note_on",
        "time": 15,
        "note": 36,
        "velocity": 0,
        "channel": 9
      },
      {
        "type": "note_on",
        "time": 0,
        "note": 46,
        "velocity": 0,
        "channel": 9
      },
      {
        "type": "note_on",
        "time": 15,
        "note": 38,
        "velocity": 100,
        "channel": 9
      },
      {
        "type": "note_on",
        "time": 15,
        "note": 38,
        "velocity": 0,
        "channel": 9
      },
      {
        "type": "note_on",
        "time": 15,
        "note": 46,
        "velocity": 100,
        "channel": 9
      },
      {
        "type": "note_on",
        "time": 15,
        "note": 46,
        "velocity": 0,
        "channel": 9
      },
      {
        "type": "note_on",
        "time": 45,
        "note": 46,
        "velocity": 100,
        "channel": 9
      },
      {
        "type": "note_on",
        "time": 0,
        "note": 38,
        "velocity": 100,
        "channel": 9
      },
      {
        "type": "note_on",
        "time": 0,
        "note": 40,
        "velocity": 100,
        "channel": 9
      },
      {
        "type": "note_on",
        "time": 15,
        "note": 40,
        "velocity": 0,
        "channel": 9
      },
      {
        "type": "note_on",
        "time": 0,
        "note": 38,
        "velocity": 0,
        "channel": 9
      },
      {
        "type": "note_on",
        "time": 0,
        "note": 46,
        "velocity": 0,
        "channel": 9
      },
      {
        "type": "note_on",
        "time": 45,
        "note": 46,
        "velocity": 100,
        "channel": 9
      },
      {
        "type": "note_on",
        "time": 15,
        "note": 46,
        "velocity": 0,
        "channel": 9
      },
      {
        "type": "note_on",
        "time": 45,
        "note": 46,
        "velocity": 100,
        "channel": 9
      },
      {
        "type": "note_on",
        "time": 0,
        "note": 36,
        "velocity": 100,
        "channel": 9
      },
      {
        "type": "note_on",
        "time": 15,
        "note": 36,
        "velocity": 0,
        "channel": 9
      },
      {
        "type": "note_on",
        "time": 0,
        "note": 46,
        "velocity": 0,
        "channel": 9
      },
      {
        "type": "note_on",
        "time": 41,
        "note": 36,
        "velocity": 100,
        "channel": 9
      },
      {
        "type": "note_on",
        "time": 4,
        "note": 46,
        "velocity": 100,
        "channel": 9
      },
      {
        "type": "note_on",
        "time": 11,
        "note": 36,
        "velocity": 0,
        "channel": 9
      },
      {
        "type": "note_on",
        "time": 4,
        "note": 46,
        "velocity": 0,
        "channel": 9
      },
      {
        "type": "note_on",
        "time": 43,
        "note": 40,
        "velocity": 100,
        "channel": 9
      },
      {
        "type": "note_on",
        "time": 0,
        "note": 38,
        "velocity": 100,
        "channel": 9
      },
      {
        "type": "note_on",
        "time": 2,
        "note": 46,
        "velocity": 100,
        "channel": 9
      },
      {
        "type": "note_on",
        "time": 13,
        "note": 38,
        "velocity": 0,
        "channel": 9
      },
      {
        "type": "note_on",
        "time": 0,
        "note": 40,
        "velocity": 0,
        "channel": 9
      },
      {
        "type": "note_on",
        "time": 2,
        "note": 46,
        "velocity": 0,
        "channel": 9
      },
      {
        "type": "note_on",
        "time": 45,
        "note": 46,
        "velocity": 100,
        "channel": 9
      },
      {
        "type": "note_on",
        "time": 0,
        "note": 36,
        "velocity": 100,
        "channel": 9
      },
      {
        "type": "note_on",
        "time": 15,
        "note": 36,
        "velocity": 0,
        "channel": 9
      },
      {
        "type": "note_on",
        "time": 0,
        "note": 46,
        "velocity": 0,
        "channel": 9
      },
      {
        "type": "note_on",
        "time": 45,
        "note": 46,
        "velocity": 100,
        "channel": 9
      },
      {
        "type": "note_on",
        "time": 15,
        "note": 46,
        "velocity": 0,
        "channel": 9
      },
      {
        "type": "note_on",
        "time": 45,
        "note": 46,
        "velocity": 100,
        "channel": 9
      },
      {
        "type": "note_on",
        "time": 0,
        "note": 36,
        "velocity": 100,
        "channel": 9
      },
      {
        "type": "note_on",
        "time": 15,
        "note": 36,
        "velocity": 0,
        "channel": 9
      },
      {
        "type": "note_on",
        "time": 0,
        "note": 46,
        "velocity": 0,
        "channel": 9
      },
      {
        "type": "note_on",
        "time": 45,
        "note": 46,
        "velocity": 100,
        "channel": 9
      },
      {
        "type": "note_on",
        "time": 0,
        "note": 40,
        "velocity": 100,
        "channel": 9
      },
      {
        "type": "note_on",
        "time": 0,
        "note": 38,
        "velocity": 100,
        "channel": 9
      },
      {
        "type": "note_on",
        "time": 15,
        "note": 38,
        "velocity": 0,
        "channel": 9
      },
      {
        "type": "note_on",
        "time": 0,
        "note": 40,
        "velocity": 0,
        "channel": 9
      },
      {
        "type": "note_on",
        "time": 0,
        "note": 46,
        "velocity": 0,
        "channel": 9
      },
      {
        "type": "note_on",
        "time": 45,
        "note": 46,
        "velocity": 100,
        "channel": 9
      },
      {
        "type": "note_on",
        "time": 15,
        "note": 46,
        "velocity": 0,
        "channel": 9
      },
      {
        "type": "note_on",
        "time": 45,
        "note": 46,
        "velocity": 100,
        "channel": 9
      },
      {
        "type": "note_on",
        "time": 0,
        "note": 36,
        "velocity": 100,
        "channel": 9
      },
      {
        "type": "note_on",
        "time": 15,
        "note": 36,
        "velocity": 0,
        "channel": 9
      },
      {
        "type": "note_on",
        "time": 0,
        "note": 46,
        "velocity": 0,
        "channel": 9
      },
      {
        "type": "note_on",
        "time": 45,
        "note": 46,
        "velocity": 100,
        "channel": 9
      },
      {
        "type": "note_on",
        "time": 0,
        "note": 36,
        "velocity": 100,
        "channel": 9
      },
      {
        "type": "note_on",
        "time": 15,
        "note": 36,
        "velocity": 0,
        "channel": 9
      },
      {
        "type": "note_on",
        "time": 0,
        "note": 46,
        "velocity": 0,
        "channel": 9
      },
      {
        "type": "note_on",
        "time": 45,
        "note": 46,
        "velocity": 100,
        "channel": 9
      },
      {
        "type": "note_on",
        "time": 0,
        "note": 40,
        "velocity": 100,
        "channel": 9
      },
      {
        "type": "note_on",
        "time": 0,
        "note": 38,
        "velocity": 100,
        "channel": 9
      },
      {
        "type": "note_on",
        "time": 15,
        "note": 38,
        "velocity": 0,
        "channel": 9
      },
      {
        "type": "note_on",
        "time": 0,
        "note": 40,
        "velocity": 0,
        "channel": 9
      },
      {
        "type": "note_on",
        "time": 0,
        "note": 46,
        "velocity": 0,
        "channel": 9
      },
      {
        "type": "note_on",
        "time": 45,
        "note": 46,
        "velocity": 100,
        "channel": 9
      },
      {
        "type": "note_on",
        "time": 0,
        "note": 36,
        "velocity": 100,
        "channel": 9
      },
      {
        "type": "note_on",
        "time": 15,
        "note": 36,
        "velocity": 0,
        "channel": 9
      },
      {
        "type": "note_on",
        "time": 0,
        "note": 46,
        "velocity": 0,
        "channel": 9
      },
      {
        "type": "note_on",
        "time": 45,
        "note": 46,
        "velocity": 100,
        "channel": 9
      },
      {
        "type": "note_on",
        "time": 0,
        "note": 36,
        "velocity": 100,
        "channel": 9
      },
      {
        "type": "note_on",
        "time": 15,
        "note": 36,
        "velocity": 0,
        "channel": 9
      },
      {
        "type": "note_on",
        "time": 0,
        "note": 46,
        "velocity": 0,
        "channel": 9
      },
      {
        "type": "note_on",
        "time": 15,
        "note": 38,
        "velocity": 100,
        "channel": 9
      },
      {
        "type": "note_on",
        "time": 15,
        "note": 38,
        "velocity": 0,
        "channel": 9
      },
      {
        "type": "note_on",
        "time": 15,
        "note": 46,
        "velocity": 100,
        "channel": 9
      },
      {
        "type": "note_on",
        "time": 15,
        "note": 46,
        "velocity": 0,
        "channel": 9
      },
      {
        "type": "note_on",
        "time": 45,
        "note": 46,
        "velocity": 100,
        "channel": 9
      },
      {
        "type": "note_on",
        "time": 0,
        "note": 38,
        "velocity": 100,
        "channel": 9
      },
      {
        "type": "note_on",
        "time": 0,
        "note": 40,
        "velocity": 100,
        "channel": 9
      },
      {
        "type": "note_on",
        "time": 15,
        "note": 40,
        "velocity": 0,
        "channel": 9
      },
      {
        "type": "note_on",
        "time": 0,
        "note": 38,
        "velocity": 0,
        "channel": 9
      },
      {
        "type": "note_on",
        "time": 0,
        "note": 46,
        "velocity": 0,
        "channel": 9
      },
      {
        "type": "note_on",
        "time": 45,
        "note": 46,
        "velocity": 100,
        "channel": 9
      },
      {
        "type": "note_on",
        "time": 15,
        "note": 46,
        "velocity": 0,
        "channel": 9
      },
      {
        "type": "note_on",
        "time": 45,
        "note": 46,
        "velocity": 100,
        "channel": 9
      },
      {
        "type": "note_on",
        "time": 0,
        "note": 36,
        "velocity": 100,
        "channel": 9
      },
      {
        "type": "note_on",
        "time": 15,
        "note": 36,
        "velocity": 0,
        "channel": 9
      },
      {
        "type": "note_on",
        "time": 0,
        "note": 46,
        "velocity": 0,
        "channel": 9
      },
      {
        "type": "note_on",
        "time": 41,
        "note": 36,
        "velocity": 100,
        "channel": 9
      },
      {
        "type": "note_on",
        "time": 4,
        "note": 46,
        "velocity": 100,
        "channel": 9
      },
      {
        "type": "note_on",
        "time": 11,
        "note": 36,
        "velocity": 0,
        "channel": 9
      },
      {
        "type": "note_on",
        "time": 4,
        "note": 46,
        "velocity": 0,
        "channel": 9
      },
      {
        "type": "note_on",
        "time": 43,
        "note": 40,
        "velocity": 100,
        "channel": 9
      },
      {
        "type": "note_on",
        "time": 0,
        "note": 38,
        "velocity": 100,
        "channel": 9
      },
      {
        "type": "note_on",
        "time": 2,
        "note": 46,
        "velocity": 100,
        "channel": 9
      },
      {
        "type": "note_on",
        "time": 13,
        "note": 38,
        "velocity": 0,
        "channel": 9
      },
      {
        "type": "note_on",
        "time": 0,
        "note": 40,
        "velocity": 0,
        "channel": 9
      },
      {
        "type": "note_on",
        "time": 2,
        "note": 46,
        "velocity": 0,
        "channel": 9
      },
      {
        "type": "note_on",
        "time": 45,
        "note": 46,
        "velocity": 100,
        "channel": 9
      },
      {
        "type": "note_on",
        "time": 0,
        "note": 36,
        "velocity": 100,
        "channel": 9
      },
      {
        "type": "note_on",
        "time": 15,
        "note": 36,
        "velocity": 0,
        "channel": 9
      },
      {
        "type": "note_on",
        "time": 0,
        "note": 46,
        "velocity": 0,
        "channel": 9
      },
      {
        "type": "note_on",
        "time": 45,
        "note": 46,
        "velocity": 100,
        "channel": 9
      },
      {
        "type": "note_on",
        "time": 15,
        "note": 46,
        "velocity": 0,
        "channel": 9
      },
      {
        "type": "note_on",
        "time": 45,
        "note": 46,
        "velocity": 100,
        "channel": 9
      },
      {
        "type": "note_on",
        "time": 0,
        "note": 36,
        "velocity": 100,
        "channel": 9
      },
      {
        "type": "note_on",
        "time": 15,
        "note": 36,
        "velocity": 0,
        "channel": 9
      },
      {
        "type": "note_on",
        "time": 0,
        "note": 46,
        "velocity": 0,
        "channel": 9
      },
      {
        "type": "note_on",
        "time": 45,
        "note": 46,
        "velocity": 100,
        "channel": 9
      },
      {
        "type": "note_on",
        "time": 0,
        "note": 40,
        "velocity": 100,
        "channel": 9
      },
      {
        "type": "note_on",
        "time": 0,
        "note": 38,
        "velocity": 100,
        "channel": 9
      },
      {
        "type": "note_on",
        "time": 15,
        "note": 38,
        "velocity": 0,
        "channel": 9
      },
      {
        "type": "note_on",
        "time": 0,
        "note": 40,
        "velocity": 0,
        "channel": 9
      },
      {
        "type": "note_on",
        "time": 0,
        "note": 46,
        "velocity": 0,
        "channel": 9
      },
      {
        "type": "note_on",
        "time": 45,
        "note": 46,
        "velocity": 100,
        "channel": 9
      },
      {
        "type": "note_on",
        "time": 15,
        "note": 46,
        "velocity": 0,
        "channel": 9
      },
      {
        "type": "note_on",
        "time": 45,
        "note": 46,
        "velocity": 100,
        "channel": 9
      },
      {
        "type": "note_on",
        "time": 0,
        "note": 36,
        "velocity": 100,
        "channel": 9
      },
      {
        "type": "note_on",
        "time": 15,
        "note": 36,
        "velocity": 0,
        "channel": 9
      },
      {
        "type": "note_on",
        "time": 0,
        "note": 46,
        "velocity": 0,
        "channel": 9
      },
      {
        "type": "note_on",
        "time": 45,
        "note": 46,
        "velocity": 100,
        "channel": 9
      },
      {
        "type": "note_on",
        "time": 0,
        "note": 36,
        "velocity": 100,
        "channel": 9
      },
      {
        "type": "note_on",
        "time": 15,
        "note": 36,
        "velocity": 0,
        "channel": 9
      },
      {
        "type": "note_on",
        "time": 0,
        "note": 46,
        "velocity": 0,
        "channel": 9
      },
      {
        "type": "note_on",
        "time": 45,
        "note": 46,
        "velocity": 100,
        "channel": 9
      },
      {
        "type": "note_on",
        "time": 0,
        "note": 40,
        "velocity": 100,
        "channel": 9
      },
      {
        "type": "note_on",
        "time": 0,
        "note": 38,
        "velocity": 100,
        "channel": 9
      },
      {
        "type": "note_on",
        "time": 15,
        "note": 38,
        "velocity": 0,
        "channel": 9
      },
      {
        "type": "note_on",
        "time": 0,
        "note": 40,
        "velocity": 0,
        "channel": 9
      },
      {
        "type": "note_on",
        "time": 0,
        "note": 46,
        "velocity": 0,
        "channel": 9
      },
      {
        "type": "note_on",
        "time": 45,
        "note": 46,
        "velocity": 100,
        "channel": 9
      },
      {
        "type": "note_on",
        "time": 0,
        "note": 36,
        "velocity": 100,
        "channel": 9
      },
      {
        "type": "note_on",
        "time": 15,
        "note": 36,
        "velocity": 0,
        "channel": 9
      },
      {
        "type": "note_on",
        "time": 0,
        "note": 46,
        "velocity": 0,
        "channel": 9
      },
      {
        "type": "note_on",
        "time": 45,
        "note": 46,
        "velocity": 100,
        "channel": 9
      },
      {
        "type": "note_on",
        "time": 0,
        "note": 36,
        "velocity": 100,
        "channel": 9
      },
      {
        "type": "note_on",
        "time": 15,
        "note": 36,
        "velocity": 0,
        "channel": 9
      },
      {
        "type": "note_on",
        "time": 0,
        "note": 46,
        "velocity": 0,
        "channel": 9
      },
      {
        "type": "note_on",
        "time": 15,
        "note": 38,
        "velocity": 100,
        "channel": 9
      },
      {
        "type": "note_on",
        "time": 15,
        "note": 38,
        "velocity": 0,
        "channel": 9
      },
      {
        "type": "note_on",
        "time": 15,
        "note": 46,
        "velocity": 100,
        "channel": 9
      },
      {
        "type": "note_on",
        "time": 15,
        "note": 46,
        "velocity": 0,
        "channel": 9
      },
      {
        "type": "note_on",
        "time": 45,
        "note": 46,
        "velocity": 100,
        "channel": 9
      },
      {
        "type": "note_on",
        "time": 0,
        "note": 38,
        "velocity": 100,
        "channel": 9
      },
      {
        "type": "note_on",
        "time": 0,
        "note": 40,
        "velocity": 100,
        "channel": 9
      },
      {
        "type": "note_on",
        "time": 15,
        "note": 40,
        "velocity": 0,
        "channel": 9
      },
      {
        "type": "note_on",
        "time": 0,
        "note": 38,
        "velocity": 0,
        "channel": 9
      },
      {
        "type": "note_on",
        "time": 0,
        "note": 46,
        "velocity": 0,
        "channel": 9
      },
      {
        "type": "note_on",
        "time": 45,
        "note": 46,
        "velocity": 100,
        "channel": 9
      },
      {
        "type": "note_on",
        "time": 15,
        "note": 46,
        "velocity": 0,
        "channel": 9
      },
      {
        "type": "note_on",
        "time": 45,
        "note": 46,
        "velocity": 100,
        "channel": 9
      },
      {
        "type": "note_on",
        "time": 0,
        "note": 36,
        "velocity": 100,
        "channel": 9
      },
      {
        "type": "note_on",
        "time": 15,
        "note": 36,
        "velocity": 0,
        "channel": 9
      },
      {
        "type": "note_on",
        "time": 0,
        "note": 46,
        "velocity": 0,
        "channel": 9
      },
      {
        "type": "note_on",
        "time": 45,
        "note": 46,
        "velocity": 100,
        "channel": 9
      },
      {
        "type": "note_on",
        "time": 0,
        "note": 36,
        "velocity": 100,
        "channel": 9
      },
      {
        "type": "note_on",
        "time": 15,
        "note": 36,
        "velocity": 0,
        "channel": 9
      },
      {
        "type": "note_on",
        "time": 0,
        "note": 46,
        "velocity": 0,
        "channel": 9
      },
      {
        "type": "note_on",
        "time": 45,
        "note": 46,
        "velocity": 100,
        "channel": 9
      },
      {
        "type": "note_on",
        "time": 0,
        "note": 40,
        "velocity": 100,
        "channel": 9
      },
      {
        "type": "note_on",
        "time": 0,
        "note": 38,
        "velocity": 100,
        "channel": 9
      },
      {
        "type": "note_on",
        "time": 15,
        "note": 38,
        "velocity": 0,
        "channel": 9
      },
      {
        "type": "note_on",
        "time": 0,
        "note": 40,
        "velocity": 0,
        "channel": 9
      },
      {
        "type": "note_on",
        "time": 0,
        "note": 46,
        "velocity": 0,
        "channel": 9
      },
      {
        "type": "note_on",
        "time": 45,
        "note": 46,
        "velocity": 100,
        "channel": 9
      },
      {
        "type": "note_on",
        "time": 0,
        "note": 36,
        "velocity": 100,
        "channel": 9
      },
      {
        "type": "note_on",
        "time": 15,
        "note": 36,
        "velocity": 0,
        "channel": 9
      },
      {
        "type": "note_on",
        "time": 0,
        "note": 46,
        "velocity": 0,
        "channel": 9
      },
      {
        "type": "note_on",
        "time": 45,
        "note": 46,
        "velocity": 100,
        "channel": 9
      },
      {
        "type": "note_on",
        "time": 0,
        "note": 36,
        "velocity": 100,
        "channel": 9
      },
      {
        "type": "note_on",
        "time": 15,
        "note": 36,
        "velocity": 0,
        "channel": 9
      },
      {
        "type": "note_on",
        "time": 0,
        "note": 46,
        "velocity": 0,
        "channel": 9
      },
      {
        "type": "note_on",
        "time": 15,
        "note": 38,
        "velocity": 100,
        "channel": 9
      },
      {
        "type": "note_on",
        "time": 15,
        "note": 38,
        "velocity": 0,
        "channel": 9
      },
      {
        "type": "note_on",
        "time": 15,
        "note": 46,
        "velocity": 100,
        "channel": 9
      },
      {
        "type": "note_on",
        "time": 15,
        "note": 46,
        "velocity": 0,
        "channel": 9
      },
      {
        "type": "note_on",
        "time": 45,
        "note": 46,
        "velocity": 100,
        "channel": 9
      },
      {
        "type": "note_on",
        "time": 0,
        "note": 38,
        "velocity": 100,
        "channel": 9
      },
      {
        "type": "note_on",
        "time": 0,
        "note": 40,
        "velocity": 100,
        "channel": 9
      },
      {
        "type": "note_on",
        "time": 15,
        "note": 40,
        "velocity": 0,
        "channel": 9
      },
      {
        "type": "note_on",
        "time": 0,
        "note": 38,
        "velocity": 0,
        "channel": 9
      },
      {
        "type": "note_on",
        "time": 0,
        "note": 46,
        "velocity": 0,
        "channel": 9
      },
      {
        "type": "note_on",
        "time": 45,
        "note": 46,
        "velocity": 100,
        "channel": 9
      },
      {
        "type": "note_on",
        "time": 15,
        "note": 46,
        "velocity": 0,
        "channel": 9
      },
      {
        "type": "note_on",
        "time": 45,
        "note": 46,
        "velocity": 100,
        "channel": 9
      },
      {
        "type": "note_on",
        "time": 0,
        "note": 36,
        "velocity": 100,
        "channel": 9
      },
      {
        "type": "note_on",
        "time": 15,
        "note": 36,
        "velocity": 0,
        "channel": 9
      },
      {
        "type": "note_on",
        "time": 0,
        "note": 46,
        "velocity": 0,
        "channel": 9
      },
      {
        "type": "note_on",
        "time": 45,
        "note": 46,
        "velocity": 100,
        "channel": 9
      },
      {
        "type": "note_on",
        "time": 0,
        "note": 36,
        "velocity": 100,
        "channel": 9
      },
      {
        "type": "note_on",
        "time": 15,
        "note": 36,
        "velocity": 0,
        "channel": 9
      },
      {
        "type": "note_on",
        "time": 0,
        "note": 46,
        "velocity": 0,
        "channel": 9
      },
      {
        "type": "note_on",
        "time": 45,
        "note": 46,
        "velocity": 100,
        "channel": 9
      },
      {
        "type": "note_on",
        "time": 0,
        "note": 40,
        "velocity": 100,
        "channel": 9
      },
      {
        "type": "note_on",
        "time": 0,
        "note": 38,
        "velocity": 100,
        "channel": 9
      },
      {
        "type": "note_on",
        "time": 15,
        "note": 38,
        "velocity": 0,
        "channel": 9
      },
      {
        "type": "note_on",
        "time": 0,
        "note": 40,
        "velocity": 0,
        "channel": 9
      },
      {
        "type": "note_on",
        "time": 0,
        "note": 46,
        "velocity": 0,
        "channel": 9
      },
      {
        "type": "note_on",
        "time": 45,
        "note": 46,
        "velocity": 100,
        "channel": 9
      },
      {
        "type": "note_on",
        "time": 0,
        "note": 36,
        "velocity": 100,
        "channel": 9
      },
      {
        "type": "note_on",
        "time": 15,
        "note": 36,
        "velocity": 0,
        "channel": 9
      },
      {
        "type": "note_on",
        "time": 0,
        "note": 46,
        "velocity": 0,
        "channel": 9
      },
      {
        "type": "note_on",
        "time": 45,
        "note": 52,
        "velocity": 100,
        "channel": 9
      },
      {
        "type": "note_on",
        "time": 0,
        "note": 46,
        "velocity": 100,
        "channel": 9
      },
      {
        "type": "note_on",
        "time": 0,
        "note": 36,
        "velocity": 100,
        "channel": 9
      },
      {
        "type": "note_on",
        "time": 15,
        "note": 36,
        "velocity": 0,
        "channel": 9
      },
      {
        "type": "note_on",
        "time": 0,
        "note": 46,
        "velocity": 0,
        "channel": 9
      },
      {
        "type": "note_on",
        "time": 0,
        "note": 52,
        "velocity": 0,
        "channel": 9
      },
      {
        "type": "note_on",
        "time": 15,
        "note": 40,
        "velocity": 100,
        "channel": 9
      },
      {
        "type": "note_on",
        "time": 0,
        "note": 38,
        "velocity": 100,
        "channel": 9
      },
      {
        "type": "note_on",
        "time": 15,
        "note": 38,
        "velocity": 0,
        "channel": 9
      },
      {
        "type": "note_on",
        "time": 0,
        "note": 40,
        "velocity": 0,
        "channel": 9
      },
      {
        "type": "note_on",
        "time": 15,
        "note": 46,
        "velocity": 100,
        "channel": 9
      },
      {
        "type": "note_on",
        "time": 15,
        "note": 46,
        "velocity": 0,
        "channel": 9
      },
      {
        "type": "note_on",
        "time": 15,
        "note": 38,
        "velocity": 100,
        "channel": 9
      },
      {
        "type": "note_on",
        "time": 15,
        "note": 38,
        "velocity": 0,
        "channel": 9
      },
      {
        "type": "note_on",
        "time": 15,
        "note": 52,
        "velocity": 100,
        "channel": 9
      },
      {
        "type": "note_on",
        "time": 0,
        "note": 46,
        "velocity": 100,
        "channel": 9
      },
      {
        "type": "note_on",
        "time": 0,
        "note": 38,
        "velocity": 100,
        "channel": 9
      },
      {
        "type": "note_on",
        "time": 0,
        "note": 40,
        "velocity": 100,
        "channel": 9
      },
      {
        "type": "note_on",
        "time": 15,
        "note": 40,
        "velocity": 0,
        "channel": 9
      },
      {
        "type": "note_on",
        "time": 0,
        "note": 52,
        "velocity": 0,
        "channel": 9
      },
      {
        "type": "note_on",
        "time": 0,
        "note": 46,
        "velocity": 0,
        "channel": 9
      },
      {
        "type": "note_on",
        "time": 0,
        "note": 38,
        "velocity": 0,
        "channel": 9
      },
      {
        "type": "note_on",
        "time": 45,
        "note": 52,
        "velocity": 100,
        "channel": 9
      },
      {
        "type": "note_on",
        "time": 0,
        "note": 46,
        "velocity": 100,
        "channel": 9
      },
      {
        "type": "note_on",
        "time": 0,
        "note": 38,
        "velocity": 100,
        "channel": 9
      },
      {
        "type": "note_on",
        "time": 0,
        "note": 40,
        "velocity": 100,
        "channel": 9
      },
      {
        "type": "note_on",
        "time": 15,
        "note": 40,
        "velocity": 0,
        "channel": 9
      },
      {
        "type": "note_on",
        "time": 0,
        "note": 52,
        "velocity": 0,
        "channel": 9
      },
      {
        "type": "note_on",
        "time": 0,
        "note": 46,
        "velocity": 0,
        "channel": 9
      },
      {
        "type": "note_on",
        "time": 0,
        "note": 38,
        "velocity": 0,
        "channel": 9
      },
      {
        "type": "note_on",
        "time": 15,
        "note": 52,
        "velocity": 100,
        "channel": 9
      },
      {
        "type": "note_on",
        "time": 0,
        "note": 46,
        "velocity": 100,
        "channel": 9
      },
      {
        "type": "note_on",
        "time": 0,
        "note": 40,
        "velocity": 100,
        "channel": 9
      },
      {
        "type": "note_on",
        "time": 0,
        "note": 38,
        "velocity": 100,
        "channel": 9
      },
      {
        "type": "note_on",
        "time": 15,
        "note": 38,
        "velocity": 0,
        "channel": 9
      },
      {
        "type": "note_on",
        "time": 0,
        "note": 52,
        "velocity": 0,
        "channel": 9
      },
      {
        "type": "note_on",
        "time": 0,
        "note": 46,
        "velocity": 0,
        "channel": 9
      },
      {
        "type": "note_on",
        "time": 0,
        "note": 40,
        "velocity": 0,
        "channel": 9
      },
      {
        "type": "note_on",
        "time": 15,
        "note": 46,
        "velocity": 100,
        "channel": 9
      },
      {
        "type": "note_on",
        "time": 0,
        "note": 49,
        "velocity": 100,
        "channel": 9
      },
      {
        "type": "note_on",
        "time": 0,
        "note": 35,
        "velocity": 100,
        "channel": 9
      },
      {
        "type": "note_on",
        "time": 0,
        "note": 36,
        "velocity": 100,
        "channel": 9
      },
      {
        "type": "note_on",
        "time": 15,
        "note": 36,
        "velocity": 0,
        "channel": 9
      },
      {
        "type": "note_on",
        "time": 0,
        "note": 46,
        "velocity": 0,
        "channel": 9
      },
      {
        "type": "note_on",
        "time": 0,
        "note": 49,
        "velocity": 0,
        "channel": 9
      },
      {
        "type": "note_on",
        "time": 0,
        "note": 35,
        "velocity": 0,
        "channel": 9
      },
      {
        "type": "note_on",
        "time": 45,
        "note": 46,
        "velocity": 100,
        "channel": 9
      },
      {
        "type": "note_on",
        "time": 0,
        "note": 36,
        "velocity": 100,
        "channel": 9
      },
      {
        "type": "note_on",
        "time": 15,
        "note": 36,
        "velocity": 0,
        "channel": 9
      },
      {
        "type": "note_on",
        "time": 0,
        "note": 46,
        "velocity": 0,
        "channel": 9
      },
      {
        "type": "note_on",
        "time": 45,
        "note": 46,
        "velocity": 100,
        "channel": 9
      },
      {
        "type": "note_on",
        "time": 0,
        "note": 40,
        "velocity": 100,
        "channel": 9
      },
      {
        "type": "note_on",
        "time": 0,
        "note": 38,
        "velocity": 100,
        "channel": 9
      },
      {
        "type": "note_on",
        "time": 15,
        "note": 38,
        "velocity": 0,
        "channel": 9
      },
      {
        "type": "note_on",
        "time": 0,
        "note": 40,
        "velocity": 0,
        "channel": 9
      },
      {
        "type": "note_on",
        "time": 0,
        "note": 46,
        "velocity": 0,
        "channel": 9
      },
      {
        "type": "note_on",
        "time": 45,
        "note": 52,
        "velocity": 100,
        "channel": 9
      },
      {
        "type": "note_on",
        "time": 0,
        "note": 46,
        "velocity": 100,
        "channel": 9
      },
      {
        "type": "note_on",
        "time": 0,
        "note": 39,
        "velocity": 100,
        "channel": 9
      },
      {
        "type": "note_on",
        "time": 15,
        "note": 39,
        "velocity": 0,
        "channel": 9
      },
      {
        "type": "note_on",
        "time": 0,
        "note": 46,
        "velocity": 0,
        "channel": 9
      },
      {
        "type": "note_on",
        "time": 0,
        "note": 52,
        "velocity": 0,
        "channel": 9
      },
      {
        "type": "note_on",
        "time": 45,
        "note": 46,
        "velocity": 100,
        "channel": 9
      },
      {
        "type": "note_on",
        "time": 0,
        "note": 39,
        "velocity": 100,
        "channel": 9
      },
      {
        "type": "note_on",
        "time": 15,
        "note": 39,
        "velocity": 0,
        "channel": 9
      },
      {
        "type": "note_on",
        "time": 0,
        "note": 46,
        "velocity": 0,
        "channel": 9
      },
      {
        "type": "note_on",
        "time": 45,
        "note": 46,
        "velocity": 100,
        "channel": 9
      },
      {
        "type": "note_on",
        "time": 0,
        "note": 39,
        "velocity": 100,
        "channel": 9
      },
      {
        "type": "note_on",
        "time": 15,
        "note": 39,
        "velocity": 0,
        "channel": 9
      },
      {
        "type": "note_on",
        "time": 0,
        "note": 46,
        "velocity": 0,
        "channel": 9
      },
      {
        "type": "note_on",
        "time": 45,
        "note": 46,
        "velocity": 100,
        "channel": 9
      },
      {
        "type": "note_on",
        "time": 0,
        "note": 37,
        "velocity": 100,
        "channel": 9
      },
      {
        "type": "note_on",
        "time": 0,
        "note": 39,
        "velocity": 100,
        "channel": 9
      },
      {
        "type": "note_on",
        "time": 0,
        "note": 40,
        "velocity": 100,
        "channel": 9
      },
      {
        "type": "note_on",
        "time": 15,
        "note": 40,
        "velocity": 0,
        "channel": 9
      },
      {
        "type": "note_on",
        "time": 0,
        "note": 46,
        "velocity": 0,
        "channel": 9
      },
      {
        "type": "note_on",
        "time": 0,
        "note": 37,
        "velocity": 0,
        "channel": 9
      },
      {
        "type": "note_on",
        "time": 0,
        "note": 39,
        "velocity": 0,
        "channel": 9
      },
      {
        "type": "note_on",
        "time": 45,
        "note": 46,
        "velocity": 100,
        "channel": 9
      },
      {
        "type": "note_on",
        "time": 0,
        "note": 35,
        "velocity": 100,
        "channel": 9
      },
      {
        "type": "note_on",
        "time": 0,
        "note": 36,
        "velocity": 100,
        "channel": 9
      },
      {
        "type": "note_on",
        "time": 15,
        "note": 36,
        "velocity": 0,
        "channel": 9
      },
      {
        "type": "note_on",
        "time": 0,
        "note": 35,
        "velocity": 0,
        "channel": 9
      },
      {
        "type": "note_on",
        "time": 0,
        "note": 46,
        "velocity": 0,
        "channel": 9
      },
      {
        "type": "note_on",
        "time": 45,
        "note": 46,
        "velocity": 100,
        "channel": 9
      },
      {
        "type": "note_on",
        "time": 0,
        "note": 49,
        "velocity": 100,
        "channel": 9
      },
      {
        "type": "note_on",
        "time": 0,
        "note": 35,
        "velocity": 100,
        "channel": 9
      },
      {
        "type": "note_on",
        "time": 0,
        "note": 36,
        "velocity": 100,
        "channel": 9
      },
      {
        "type": "note_on",
        "time": 15,
        "note": 36,
        "velocity": 0,
        "channel": 9
      },
      {
        "type": "note_on",
        "time": 0,
        "note": 46,
        "velocity": 0,
        "channel": 9
      },
      {
        "type": "note_on",
        "time": 0,
        "note": 49,
        "velocity": 0,
        "channel": 9
      },
      {
        "type": "note_on",
        "time": 0,
        "note": 35,
        "velocity": 0,
        "channel": 9
      },
      {
        "type": "note_on",
        "time": 45,
        "note": 46,
        "velocity": 100,
        "channel": 9
      },
      {
        "type": "note_on",
        "time": 0,
        "note": 36,
        "velocity": 100,
        "channel": 9
      },
      {
        "type": "note_on",
        "time": 15,
        "note": 36,
        "velocity": 0,
        "channel": 9
      },
      {
        "type": "note_on",
        "time": 0,
        "note": 46,
        "velocity": 0,
        "channel": 9
      },
      {
        "type": "note_on",
        "time": 45,
        "note": 46,
        "velocity": 100,
        "channel": 9
      },
      {
        "type": "note_on",
        "time": 0,
        "note": 40,
        "velocity": 100,
        "channel": 9
      },
      {
        "type": "note_on",
        "time": 0,
        "note": 38,
        "velocity": 100,
        "channel": 9
      },
      {
        "type": "note_on",
        "time": 15,
        "note": 38,
        "velocity": 0,
        "channel": 9
      },
      {
        "type": "note_on",
        "time": 0,
        "note": 40,
        "velocity": 0,
        "channel": 9
      },
      {
        "type": "note_on",
        "time": 0,
        "note": 46,
        "velocity": 0,
        "channel": 9
      },
      {
        "type": "note_on",
        "time": 45,
        "note": 52,
        "velocity": 100,
        "channel": 9
      },
      {
        "type": "note_on",
        "time": 0,
        "note": 46,
        "velocity": 100,
        "channel": 9
      },
      {
        "type": "note_on",
        "time": 0,
        "note": 39,
        "velocity": 100,
        "channel": 9
      },
      {
        "type": "note_on",
        "time": 15,
        "note": 39,
        "velocity": 0,
        "channel": 9
      },
      {
        "type": "note_on",
        "time": 0,
        "note": 46,
        "velocity": 0,
        "channel": 9
      },
      {
        "type": "note_on",
        "time": 0,
        "note": 52,
        "velocity": 0,
        "channel": 9
      },
      {
        "type": "note_on",
        "time": 45,
        "note": 46,
        "velocity": 100,
        "channel": 9
      },
      {
        "type": "note_on",
        "time": 0,
        "note": 39,
        "velocity": 100,
        "channel": 9
      },
      {
        "type": "note_on",
        "time": 15,
        "note": 39,
        "velocity": 0,
        "channel": 9
      },
      {
        "type": "note_on",
        "time": 0,
        "note": 46,
        "velocity": 0,
        "channel": 9
      },
      {
        "type": "note_on",
        "time": 45,
        "note": 46,
        "velocity": 100,
        "channel": 9
      },
      {
        "type": "note_on",
        "time": 0,
        "note": 39,
        "velocity": 100,
        "channel": 9
      },
      {
        "type": "note_on",
        "time": 15,
        "note": 39,
        "velocity": 0,
        "channel": 9
      },
      {
        "type": "note_on",
        "time": 0,
        "note": 46,
        "velocity": 0,
        "channel": 9
      },
      {
        "type": "note_on",
        "time": 45,
        "note": 46,
        "velocity": 100,
        "channel": 9
      },
      {
        "type": "note_on",
        "time": 0,
        "note": 37,
        "velocity": 100,
        "channel": 9
      },
      {
        "type": "note_on",
        "time": 0,
        "note": 39,
        "velocity": 100,
        "channel": 9
      },
      {
        "type": "note_on",
        "time": 0,
        "note": 40,
        "velocity": 100,
        "channel": 9
      },
      {
        "type": "note_on",
        "time": 15,
        "note": 40,
        "velocity": 0,
        "channel": 9
      },
      {
        "type": "note_on",
        "time": 0,
        "note": 46,
        "velocity": 0,
        "channel": 9
      },
      {
        "type": "note_on",
        "time": 0,
        "note": 37,
        "velocity": 0,
        "channel": 9
      },
      {
        "type": "note_on",
        "time": 0,
        "note": 39,
        "velocity": 0,
        "channel": 9
      },
      {
        "type": "note_on",
        "time": 45,
        "note": 46,
        "velocity": 100,
        "channel": 9
      },
      {
        "type": "note_on",
        "time": 0,
        "note": 35,
        "velocity": 100,
        "channel": 9
      },
      {
        "type": "note_on",
        "time": 0,
        "note": 36,
        "velocity": 100,
        "channel": 9
      },
      {
        "type": "note_on",
        "time": 15,
        "note": 36,
        "velocity": 0,
        "channel": 9
      },
      {
        "type": "note_on",
        "time": 0,
        "note": 35,
        "velocity": 0,
        "channel": 9
      },
      {
        "type": "note_on",
        "time": 0,
        "note": 46,
        "velocity": 0,
        "channel": 9
      },
      {
        "type": "note_on",
        "time": 45,
        "note": 46,
        "velocity": 100,
        "channel": 9
      },
      {
        "type": "note_on",
        "time": 0,
        "note": 49,
        "velocity": 100,
        "channel": 9
      },
      {
        "type": "note_on",
        "time": 0,
        "note": 35,
        "velocity": 100,
        "channel": 9
      },
      {
        "type": "note_on",
        "time": 0,
        "note": 36,
        "velocity": 100,
        "channel": 9
      },
      {
        "type": "note_on",
        "time": 15,
        "note": 36,
        "velocity": 0,
        "channel": 9
      },
      {
        "type": "note_on",
        "time": 0,
        "note": 46,
        "velocity": 0,
        "channel": 9
      },
      {
        "type": "note_on",
        "time": 0,
        "note": 49,
        "velocity": 0,
        "channel": 9
      },
      {
        "type": "note_on",
        "time": 0,
        "note": 35,
        "velocity": 0,
        "channel": 9
      },
      {
        "type": "note_on",
        "time": 45,
        "note": 46,
        "velocity": 100,
        "channel": 9
      },
      {
        "type": "note_on",
        "time": 0,
        "note": 36,
        "velocity": 100,
        "channel": 9
      },
      {
        "type": "note_on",
        "time": 15,
        "note": 36,
        "velocity": 0,
        "channel": 9
      },
      {
        "type": "note_on",
        "time": 0,
        "note": 46,
        "velocity": 0,
        "channel": 9
      },
      {
        "type": "note_on",
        "time": 45,
        "note": 46,
        "velocity": 100,
        "channel": 9
      },
      {
        "type": "note_on",
        "time": 0,
        "note": 40,
        "velocity": 100,
        "channel": 9
      },
      {
        "type": "note_on",
        "time": 0,
        "note": 38,
        "velocity": 100,
        "channel": 9
      },
      {
        "type": "note_on",
        "time": 15,
        "note": 38,
        "velocity": 0,
        "channel": 9
      },
      {
        "type": "note_on",
        "time": 0,
        "note": 40,
        "velocity": 0,
        "channel": 9
      },
      {
        "type": "note_on",
        "time": 0,
        "note": 46,
        "velocity": 0,
        "channel": 9
      },
      {
        "type": "note_on",
        "time": 45,
        "note": 52,
        "velocity": 100,
        "channel": 9
      },
      {
        "type": "note_on",
        "time": 0,
        "note": 46,
        "velocity": 100,
        "channel": 9
      },
      {
        "type": "note_on",
        "time": 0,
        "note": 39,
        "velocity": 100,
        "channel": 9
      },
      {
        "type": "note_on",
        "time": 15,
        "note": 39,
        "velocity": 0,
        "channel": 9
      },
      {
        "type": "note_on",
        "time": 0,
        "note": 46,
        "velocity": 0,
        "channel": 9
      },
      {
        "type": "note_on",
        "time": 0,
        "note": 52,
        "velocity": 0,
        "channel": 9
      },
      {
        "type": "note_on",
        "time": 45,
        "note": 46,
        "velocity": 100,
        "channel": 9
      },
      {
        "type": "note_on",
        "time": 0,
        "note": 39,
        "velocity": 100,
        "channel": 9
      },
      {
        "type": "note_on",
        "time": 15,
        "note": 39,
        "velocity": 0,
        "channel": 9
      },
      {
        "type": "note_on",
        "time": 0,
        "note": 46,
        "velocity": 0,
        "channel": 9
      },
      {
        "type": "note_on",
        "time": 45,
        "note": 46,
        "velocity": 100,
        "channel": 9
      },
      {
        "type": "note_on",
        "time": 0,
        "note": 39,
        "velocity": 100,
        "channel": 9
      },
      {
        "type": "note_on",
        "time": 15,
        "note": 39,
        "velocity": 0,
        "channel": 9
      },
      {
        "type": "note_on",
        "time": 0,
        "note": 46,
        "velocity": 0,
        "channel": 9
      },
      {
        "type": "note_on",
        "time": 45,
        "note": 46,
        "velocity": 100,
        "channel": 9
      },
      {
        "type": "note_on",
        "time": 0,
        "note": 37,
        "velocity": 100,
        "channel": 9
      },
      {
        "type": "note_on",
        "time": 0,
        "note": 39,
        "velocity": 100,
        "channel": 9
      },
      {
        "type": "note_on",
        "time": 0,
        "note": 40,
        "velocity": 100,
        "channel": 9
      },
      {
        "type": "note_on",
        "time": 15,
        "note": 40,
        "velocity": 0,
        "channel": 9
      },
      {
        "type": "note_on",
        "time": 0,
        "note": 46,
        "velocity": 0,
        "channel": 9
      },
      {
        "type": "note_on",
        "time": 0,
        "note": 37,
        "velocity": 0,
        "channel": 9
      },
      {
        "type": "note_on",
        "time": 0,
        "note": 39,
        "velocity": 0,
        "channel": 9
      },
      {
        "type": "note_on",
        "time": 45,
        "note": 46,
        "velocity": 100,
        "channel": 9
      },
      {
        "type": "note_on",
        "time": 0,
        "note": 35,
        "velocity": 100,
        "channel": 9
      },
      {
        "type": "note_on",
        "time": 0,
        "note": 36,
        "velocity": 100,
        "channel": 9
      },
      {
        "type": "note_on",
        "time": 15,
        "note": 36,
        "velocity": 0,
        "channel": 9
      },
      {
        "type": "note_on",
        "time": 0,
        "note": 35,
        "velocity": 0,
        "channel": 9
      },
      {
        "type": "note_on",
        "time": 0,
        "note": 46,
        "velocity": 0,
        "channel": 9
      },
      {
        "type": "note_on",
        "time": 45,
        "note": 46,
        "velocity": 100,
        "channel": 9
      },
      {
        "type": "note_on",
        "time": 0,
        "note": 49,
        "velocity": 100,
        "channel": 9
      },
      {
        "type": "note_on",
        "time": 0,
        "note": 35,
        "velocity": 100,
        "channel": 9
      },
      {
        "type": "note_on",
        "time": 0,
        "note": 36,
        "velocity": 100,
        "channel": 9
      },
      {
        "type": "note_on",
        "time": 15,
        "note": 36,
        "velocity": 0,
        "channel": 9
      },
      {
        "type": "note_on",
        "time": 0,
        "note": 46,
        "velocity": 0,
        "channel": 9
      },
      {
        "type": "note_on",
        "time": 0,
        "note": 49,
        "velocity": 0,
        "channel": 9
      },
      {
        "type": "note_on",
        "time": 0,
        "note": 35,
        "velocity": 0,
        "channel": 9
      },
      {
        "type": "note_on",
        "time": 45,
        "note": 46,
        "velocity": 100,
        "channel": 9
      },
      {
        "type": "note_on",
        "time": 0,
        "note": 36,
        "velocity": 100,
        "channel": 9
      },
      {
        "type": "note_on",
        "time": 15,
        "note": 36,
        "velocity": 0,
        "channel": 9
      },
      {
        "type": "note_on",
        "time": 0,
        "note": 46,
        "velocity": 0,
        "channel": 9
      },
      {
        "type": "note_on",
        "time": 45,
        "note": 46,
        "velocity": 100,
        "channel": 9
      },
      {
        "type": "note_on",
        "time": 0,
        "note": 40,
        "velocity": 100,
        "channel": 9
      },
      {
        "type": "note_on",
        "time": 0,
        "note": 38,
        "velocity": 100,
        "channel": 9
      },
      {
        "type": "note_on",
        "time": 15,
        "note": 38,
        "velocity": 0,
        "channel": 9
      },
      {
        "type": "note_on",
        "time": 0,
        "note": 40,
        "velocity": 0,
        "channel": 9
      },
      {
        "type": "note_on",
        "time": 0,
        "note": 46,
        "velocity": 0,
        "channel": 9
      },
      {
        "type": "note_on",
        "time": 45,
        "note": 52,
        "velocity": 100,
        "channel": 9
      },
      {
        "type": "note_on",
        "time": 0,
        "note": 36,
        "velocity": 100,
        "channel": 9
      },
      {
        "type": "note_on",
        "time": 0,
        "note": 46,
        "velocity": 100,
        "channel": 9
      },
      {
        "type": "note_on",
        "time": 15,
        "note": 46,
        "velocity": 0,
        "channel": 9
      },
      {
        "type": "note_on",
        "time": 0,
        "note": 36,
        "velocity": 0,
        "channel": 9
      },
      {
        "type": "note_on",
        "time": 0,
        "note": 52,
        "velocity": 0,
        "channel": 9
      },
      {
        "type": "note_on",
        "time": 45,
        "note": 46,
        "velocity": 100,
        "channel": 9
      },
      {
        "type": "note_on",
        "time": 0,
        "note": 35,
        "velocity": 100,
        "channel": 9
      },
      {
        "type": "note_on",
        "time": 0,
        "note": 36,
        "velocity": 100,
        "channel": 9
      },
      {
        "type": "note_on",
        "time": 15,
        "note": 36,
        "velocity": 0,
        "channel": 9
      },
      {
        "type": "note_on",
        "time": 0,
        "note": 35,
        "velocity": 0,
        "channel": 9
      },
      {
        "type": "note_on",
        "time": 0,
        "note": 46,
        "velocity": 0,
        "channel": 9
      },
      {
        "type": "note_on",
        "time": 15,
        "note": 38,
        "velocity": 100,
        "channel": 9
      },
      {
        "type": "note_on",
        "time": 0,
        "note": 40,
        "velocity": 100,
        "channel": 9
      },
      {
        "type": "note_on",
        "time": 15,
        "note": 40,
        "velocity": 0,
        "channel": 9
      },
      {
        "type": "note_on",
        "time": 0,
        "note": 38,
        "velocity": 0,
        "channel": 9
      },
      {
        "type": "note_on",
        "time": 15,
        "note": 46,
        "velocity": 100,
        "channel": 9
      },
      {
        "type": "note_on",
        "time": 15,
        "note": 46,
        "velocity": 0,
        "channel": 9
      },
      {
        "type": "note_on",
        "time": 45,
        "note": 46,
        "velocity": 100,
        "channel": 9
      },
      {
        "type": "note_on",
        "time": 0,
        "note": 38,
        "velocity": 100,
        "channel": 9
      },
      {
        "type": "note_on",
        "time": 0,
        "note": 40,
        "velocity": 100,
        "channel": 9
      },
      {
        "type": "note_on",
        "time": 15,
        "note": 40,
        "velocity": 0,
        "channel": 9
      },
      {
        "type": "note_on",
        "time": 0,
        "note": 38,
        "velocity": 0,
        "channel": 9
      },
      {
        "type": "note_on",
        "time": 0,
        "note": 46,
        "velocity": 0,
        "channel": 9
      },
      {
        "type": "note_on",
        "time": 37,
        "note": 38,
        "velocity": 100,
        "channel": 9
      },
      {
        "type": "note_on",
        "time": 8,
        "note": 38,
        "velocity": 100,
        "channel": 9
      },
      {
        "type": "note_on",
        "time": 0,
        "note": 40,
        "velocity": 100,
        "channel": 9
      },
      {
        "type": "note_on",
        "time": 0,
        "note": 46,
        "velocity": 100,
        "channel": 9
      },
      {
        "type": "note_on",
        "time": 7,
        "note": 38,
        "velocity": 0,
        "channel": 9
      },
      {
        "type": "note_on",
        "time": 8,
        "note": 38,
        "velocity": 0,
        "channel": 9
      },
      {
        "type": "note_on",
        "time": 0,
        "note": 40,
        "velocity": 0,
        "channel": 9
      },
      {
        "type": "note_on",
        "time": 0,
        "note": 46,
        "velocity": 0,
        "channel": 9
      },
      {
        "type": "note_on",
        "time": 15,
        "note": 38,
        "velocity": 100,
        "channel": 9
      },
      {
        "type": "note_on",
        "time": 15,
        "note": 38,
        "velocity": 0,
        "channel": 9
      },
      {
        "type": "note_on",
        "time": 15,
        "note": 46,
        "velocity": 100,
        "channel": 9
      },
      {
        "type": "note_on",
        "time": 0,
        "note": 49,
        "velocity": 100,
        "channel": 9
      },
      {
        "type": "note_on",
        "time": 0,
        "note": 35,
        "velocity": 100,
        "channel": 9
      },
      {
        "type": "note_on",
        "time": 0,
        "note": 36,
        "velocity": 100,
        "channel": 9
      },
      {
        "type": "note_on",
        "time": 15,
        "note": 36,
        "velocity": 0,
        "channel": 9
      },
      {
        "type": "note_on",
        "time": 0,
        "note": 46,
        "velocity": 0,
        "channel": 9
      },
      {
        "type": "note_on",
        "time": 0,
        "note": 49,
        "velocity": 0,
        "channel": 9
      },
      {
        "type": "note_on",
        "time": 0,
        "note": 35,
        "velocity": 0,
        "channel": 9
      },
      {
        "type": "note_on",
        "time": 45,
        "note": 46,
        "velocity": 100,
        "channel": 9
      },
      {
        "type": "note_on",
        "time": 0,
        "note": 36,
        "velocity": 100,
        "channel": 9
      },
      {
        "type": "note_on",
        "time": 15,
        "note": 36,
        "velocity": 0,
        "channel": 9
      },
      {
        "type": "note_on",
        "time": 0,
        "note": 46,
        "velocity": 0,
        "channel": 9
      },
      {
        "type": "note_on",
        "time": 45,
        "note": 46,
        "velocity": 100,
        "channel": 9
      },
      {
        "type": "note_on",
        "time": 0,
        "note": 40,
        "velocity": 100,
        "channel": 9
      },
      {
        "type": "note_on",
        "time": 0,
        "note": 38,
        "velocity": 100,
        "channel": 9
      },
      {
        "type": "note_on",
        "time": 15,
        "note": 38,
        "velocity": 0,
        "channel": 9
      },
      {
        "type": "note_on",
        "time": 0,
        "note": 40,
        "velocity": 0,
        "channel": 9
      },
      {
        "type": "note_on",
        "time": 0,
        "note": 46,
        "velocity": 0,
        "channel": 9
      },
      {
        "type": "note_on",
        "time": 45,
        "note": 52,
        "velocity": 100,
        "channel": 9
      },
      {
        "type": "note_on",
        "time": 0,
        "note": 46,
        "velocity": 100,
        "channel": 9
      },
      {
        "type": "note_on",
        "time": 0,
        "note": 39,
        "velocity": 100,
        "channel": 9
      },
      {
        "type": "note_on",
        "time": 15,
        "note": 39,
        "velocity": 0,
        "channel": 9
      },
      {
        "type": "note_on",
        "time": 0,
        "note": 46,
        "velocity": 0,
        "channel": 9
      },
      {
        "type": "note_on",
        "time": 0,
        "note": 52,
        "velocity": 0,
        "channel": 9
      },
      {
        "type": "note_on",
        "time": 45,
        "note": 46,
        "velocity": 100,
        "channel": 9
      },
      {
        "type": "note_on",
        "time": 0,
        "note": 39,
        "velocity": 100,
        "channel": 9
      },
      {
        "type": "note_on",
        "time": 15,
        "note": 39,
        "velocity": 0,
        "channel": 9
      },
      {
        "type": "note_on",
        "time": 0,
        "note": 46,
        "velocity": 0,
        "channel": 9
      },
      {
        "type": "note_on",
        "time": 45,
        "note": 46,
        "velocity": 100,
        "channel": 9
      },
      {
        "type": "note_on",
        "time": 0,
        "note": 39,
        "velocity": 100,
        "channel": 9
      },
      {
        "type": "note_on",
        "time": 15,
        "note": 39,
        "velocity": 0,
        "channel": 9
      },
      {
        "type": "note_on",
        "time": 0,
        "note": 46,
        "velocity": 0,
        "channel": 9
      },
      {
        "type": "note_on",
        "time": 45,
        "note": 46,
        "velocity": 100,
        "channel": 9
      },
      {
        "type": "note_on",
        "time": 0,
        "note": 37,
        "velocity": 100,
        "channel": 9
      },
      {
        "type": "note_on",
        "time": 0,
        "note": 39,
        "velocity": 100,
        "channel": 9
      },
      {
        "type": "note_on",
        "time": 0,
        "note": 40,
        "velocity": 100,
        "channel": 9
      },
      {
        "type": "note_on",
        "time": 15,
        "note": 40,
        "velocity": 0,
        "channel": 9
      },
      {
        "type": "note_on",
        "time": 0,
        "note": 46,
        "velocity": 0,
        "channel": 9
      },
      {
        "type": "note_on",
        "time": 0,
        "note": 37,
        "velocity": 0,
        "channel": 9
      },
      {
        "type": "note_on",
        "time": 0,
        "note": 39,
        "velocity": 0,
        "channel": 9
      },
      {
        "type": "note_on",
        "time": 45,
        "note": 46,
        "velocity": 100,
        "channel": 9
      },
      {
        "type": "note_on",
        "time": 0,
        "note": 35,
        "velocity": 100,
        "channel": 9
      },
      {
        "type": "note_on",
        "time": 0,
        "note": 36,
        "velocity": 100,
        "channel": 9
      },
      {
        "type": "note_on",
        "time": 15,
        "note": 36,
        "velocity": 0,
        "channel": 9
      },
      {
        "type": "note_on",
        "time": 0,
        "note": 35,
        "velocity": 0,
        "channel": 9
      },
      {
        "type": "note_on",
        "time": 0,
        "note": 46,
        "velocity": 0,
        "channel": 9
      },
      {
        "type": "note_on",
        "time": 45,
        "note": 46,
        "velocity": 100,
        "channel": 9
      },
      {
        "type": "note_on",
        "time": 0,
        "note": 49,
        "velocity": 100,
        "channel": 9
      },
      {
        "type": "note_on",
        "time": 0,
        "note": 35,
        "velocity": 100,
        "channel": 9
      },
      {
        "type": "note_on",
        "time": 0,
        "note": 36,
        "velocity": 100,
        "channel": 9
      },
      {
        "type": "note_on",
        "time": 15,
        "note": 36,
        "velocity": 0,
        "channel": 9
      },
      {
        "type": "note_on",
        "time": 0,
        "note": 46,
        "velocity": 0,
        "channel": 9
      },
      {
        "type": "note_on",
        "time": 0,
        "note": 49,
        "velocity": 0,
        "channel": 9
      },
      {
        "type": "note_on",
        "time": 0,
        "note": 35,
        "velocity": 0,
        "channel": 9
      },
      {
        "type": "note_on",
        "time": 45,
        "note": 46,
        "velocity": 100,
        "channel": 9
      },
      {
        "type": "note_on",
        "time": 0,
        "note": 36,
        "velocity": 100,
        "channel": 9
      },
      {
        "type": "note_on",
        "time": 15,
        "note": 36,
        "velocity": 0,
        "channel": 9
      },
      {
        "type": "note_on",
        "time": 0,
        "note": 46,
        "velocity": 0,
        "channel": 9
      },
      {
        "type": "note_on",
        "time": 45,
        "note": 46,
        "velocity": 100,
        "channel": 9
      },
      {
        "type": "note_on",
        "time": 0,
        "note": 40,
        "velocity": 100,
        "channel": 9
      },
      {
        "type": "note_on",
        "time": 0,
        "note": 38,
        "velocity": 100,
        "channel": 9
      },
      {
        "type": "note_on",
        "time": 15,
        "note": 38,
        "velocity": 0,
        "channel": 9
      },
      {
        "type": "note_on",
        "time": 0,
        "note": 40,
        "velocity": 0,
        "channel": 9
      },
      {
        "type": "note_on",
        "time": 0,
        "note": 46,
        "velocity": 0,
        "channel": 9
      },
      {
        "type": "note_on",
        "time": 45,
        "note": 52,
        "velocity": 100,
        "channel": 9
      },
      {
        "type": "note_on",
        "time": 0,
        "note": 46,
        "velocity": 100,
        "channel": 9
      },
      {
        "type": "note_on",
        "time": 0,
        "note": 39,
        "velocity": 100,
        "channel": 9
      },
      {
        "type": "note_on",
        "time": 15,
        "note": 39,
        "velocity": 0,
        "channel": 9
      },
      {
        "type": "note_on",
        "time": 0,
        "note": 46,
        "velocity": 0,
        "channel": 9
      },
      {
        "type": "note_on",
        "time": 0,
        "note": 52,
        "velocity": 0,
        "channel": 9
      },
      {
        "type": "note_on",
        "time": 45,
        "note": 46,
        "velocity": 100,
        "channel": 9
      },
      {
        "type": "note_on",
        "time": 0,
        "note": 39,
        "velocity": 100,
        "channel": 9
      },
      {
        "type": "note_on",
        "time": 15,
        "note": 39,
        "velocity": 0,
        "channel": 9
      },
      {
        "type": "note_on",
        "time": 0,
        "note": 46,
        "velocity": 0,
        "channel": 9
      },
      {
        "type": "note_on",
        "time": 45,
        "note": 46,
        "velocity": 100,
        "channel": 9
      },
      {
        "type": "note_on",
        "time": 0,
        "note": 39,
        "velocity": 100,
        "channel": 9
      },
      {
        "type": "note_on",
        "time": 15,
        "note": 39,
        "velocity": 0,
        "channel": 9
      },
      {
        "type": "note_on",
        "time": 0,
        "note": 46,
        "velocity": 0,
        "channel": 9
      },
      {
        "type": "note_on",
        "time": 45,
        "note": 46,
        "velocity": 100,
        "channel": 9
      },
      {
        "type": "note_on",
        "time": 0,
        "note": 37,
        "velocity": 100,
        "channel": 9
      },
      {
        "type": "note_on",
        "time": 0,
        "note": 39,
        "velocity": 100,
        "channel": 9
      },
      {
        "type": "note_on",
        "time": 0,
        "note": 40,
        "velocity": 100,
        "channel": 9
      },
      {
        "type": "note_on",
        "time": 15,
        "note": 40,
        "velocity": 0,
        "channel": 9
      },
      {
        "type": "note_on",
        "time": 0,
        "note": 46,
        "velocity": 0,
        "channel": 9
      },
      {
        "type": "note_on",
        "time": 0,
        "note": 37,
        "velocity": 0,
        "channel": 9
      },
      {
        "type": "note_on",
        "time": 0,
        "note": 39,
        "velocity": 0,
        "channel": 9
      },
      {
        "type": "note_on",
        "time": 45,
        "note": 46,
        "velocity": 100,
        "channel": 9
      },
      {
        "type": "note_on",
        "time": 0,
        "note": 35,
        "velocity": 100,
        "channel": 9
      },
      {
        "type": "note_on",
        "time": 0,
        "note": 36,
        "velocity": 100,
        "channel": 9
      },
      {
        "type": "note_on",
        "time": 15,
        "note": 36,
        "velocity": 0,
        "channel": 9
      },
      {
        "type": "note_on",
        "time": 0,
        "note": 35,
        "velocity": 0,
        "channel": 9
      },
      {
        "type": "note_on",
        "time": 0,
        "note": 46,
        "velocity": 0,
        "channel": 9
      },
      {
        "type": "note_on",
        "time": 45,
        "note": 46,
        "velocity": 100,
        "channel": 9
      },
      {
        "type": "note_on",
        "time": 0,
        "note": 49,
        "velocity": 100,
        "channel": 9
      },
      {
        "type": "note_on",
        "time": 0,
        "note": 35,
        "velocity": 100,
        "channel": 9
      },
      {
        "type": "note_on",
        "time": 0,
        "note": 36,
        "velocity": 100,
        "channel": 9
      },
      {
        "type": "note_on",
        "time": 15,
        "note": 36,
        "velocity": 0,
        "channel": 9
      },
      {
        "type": "note_on",
        "time": 0,
        "note": 46,
        "velocity": 0,
        "channel": 9
      },
      {
        "type": "note_on",
        "time": 0,
        "note": 49,
        "velocity": 0,
        "channel": 9
      },
      {
        "type": "note_on",
        "time": 0,
        "note": 35,
        "velocity": 0,
        "channel": 9
      },
      {
        "type": "note_on",
        "time": 45,
        "note": 46,
        "velocity": 100,
        "channel": 9
      },
      {
        "type": "note_on",
        "time": 0,
        "note": 36,
        "velocity": 100,
        "channel": 9
      },
      {
        "type": "note_on",
        "time": 15,
        "note": 36,
        "velocity": 0,
        "channel": 9
      },
      {
        "type": "note_on",
        "time": 0,
        "note": 46,
        "velocity": 0,
        "channel": 9
      },
      {
        "type": "note_on",
        "time": 45,
        "note": 46,
        "velocity": 100,
        "channel": 9
      },
      {
        "type": "note_on",
        "time": 0,
        "note": 40,
        "velocity": 100,
        "channel": 9
      },
      {
        "type": "note_on",
        "time": 0,
        "note": 38,
        "velocity": 100,
        "channel": 9
      },
      {
        "type": "note_on",
        "time": 15,
        "note": 38,
        "velocity": 0,
        "channel": 9
      },
      {
        "type": "note_on",
        "time": 0,
        "note": 40,
        "velocity": 0,
        "channel": 9
      },
      {
        "type": "note_on",
        "time": 0,
        "note": 46,
        "velocity": 0,
        "channel": 9
      },
      {
        "type": "note_on",
        "time": 45,
        "note": 52,
        "velocity": 100,
        "channel": 9
      },
      {
        "type": "note_on",
        "time": 0,
        "note": 46,
        "velocity": 100,
        "channel": 9
      },
      {
        "type": "note_on",
        "time": 0,
        "note": 39,
        "velocity": 100,
        "channel": 9
      },
      {
        "type": "note_on",
        "time": 15,
        "note": 39,
        "velocity": 0,
        "channel": 9
      },
      {
        "type": "note_on",
        "time": 0,
        "note": 46,
        "velocity": 0,
        "channel": 9
      },
      {
        "type": "note_on",
        "time": 0,
        "note": 52,
        "velocity": 0,
        "channel": 9
      },
      {
        "type": "note_on",
        "time": 45,
        "note": 46,
        "velocity": 100,
        "channel": 9
      },
      {
        "type": "note_on",
        "time": 0,
        "note": 39,
        "velocity": 100,
        "channel": 9
      },
      {
        "type": "note_on",
        "time": 15,
        "note": 39,
        "velocity": 0,
        "channel": 9
      },
      {
        "type": "note_on",
        "time": 0,
        "note": 46,
        "velocity": 0,
        "channel": 9
      },
      {
        "type": "note_on",
        "time": 45,
        "note": 46,
        "velocity": 100,
        "channel": 9
      },
      {
        "type": "note_on",
        "time": 0,
        "note": 39,
        "velocity": 100,
        "channel": 9
      },
      {
        "type": "note_on",
        "time": 15,
        "note": 39,
        "velocity": 0,
        "channel": 9
      },
      {
        "type": "note_on",
        "time": 0,
        "note": 46,
        "velocity": 0,
        "channel": 9
      },
      {
        "type": "note_on",
        "time": 45,
        "note": 46,
        "velocity": 100,
        "channel": 9
      },
      {
        "type": "note_on",
        "time": 0,
        "note": 37,
        "velocity": 100,
        "channel": 9
      },
      {
        "type": "note_on",
        "time": 0,
        "note": 39,
        "velocity": 100,
        "channel": 9
      },
      {
        "type": "note_on",
        "time": 0,
        "note": 40,
        "velocity": 100,
        "channel": 9
      },
      {
        "type": "note_on",
        "time": 15,
        "note": 40,
        "velocity": 0,
        "channel": 9
      },
      {
        "type": "note_on",
        "time": 0,
        "note": 46,
        "velocity": 0,
        "channel": 9
      },
      {
        "type": "note_on",
        "time": 0,
        "note": 37,
        "velocity": 0,
        "channel": 9
      },
      {
        "type": "note_on",
        "time": 0,
        "note": 39,
        "velocity": 0,
        "channel": 9
      },
      {
        "type": "note_on",
        "time": 45,
        "note": 46,
        "velocity": 100,
        "channel": 9
      },
      {
        "type": "note_on",
        "time": 0,
        "note": 35,
        "velocity": 100,
        "channel": 9
      },
      {
        "type": "note_on",
        "time": 0,
        "note": 36,
        "velocity": 100,
        "channel": 9
      },
      {
        "type": "note_on",
        "time": 15,
        "note": 36,
        "velocity": 0,
        "channel": 9
      },
      {
        "type": "note_on",
        "time": 0,
        "note": 35,
        "velocity": 0,
        "channel": 9
      },
      {
        "type": "note_on",
        "time": 0,
        "note": 46,
        "velocity": 0,
        "channel": 9
      },
      {
        "type": "note_on",
        "time": 45,
        "note": 40,
        "velocity": 100,
        "channel": 9
      },
      {
        "type": "note_on",
        "time": 0,
        "note": 38,
        "velocity": 100,
        "channel": 9
      },
      {
        "type": "note_on",
        "time": 0,
        "note": 49,
        "velocity": 100,
        "channel": 9
      },
      {
        "type": "note_on",
        "time": 0,
        "note": 46,
        "velocity": 100,
        "channel": 9
      },
      {
        "type": "note_on",
        "time": 15,
        "note": 46,
        "velocity": 0,
        "channel": 9
      },
      {
        "type": "note_on",
        "time": 0,
        "note": 40,
        "velocity": 0,
        "channel": 9
      },
      {
        "type": "note_on",
        "time": 0,
        "note": 38,
        "velocity": 0,
        "channel": 9
      },
      {
        "type": "note_on",
        "time": 0,
        "note": 49,
        "velocity": 0,
        "channel": 9
      },
      {
        "type": "note_on",
        "time": 105,
        "note": 46,
        "velocity": 100,
        "channel": 9
      },
      {
        "type": "note_on",
        "time": 0,
        "note": 35,
        "velocity": 100,
        "channel": 9
      },
      {
        "type": "note_on",
        "time": 0,
        "note": 36,
        "velocity": 100,
        "channel": 9
      },
      {
        "type": "note_on",
        "time": 15,
        "note": 36,
        "velocity": 0,
        "channel": 9
      },
      {
        "type": "note_on",
        "time": 0,
        "note": 35,
        "velocity": 0,
        "channel": 9
      },
      {
        "type": "note_on",
        "time": 0,
        "note": 46,
        "velocity": 0,
        "channel": 9
      },
      {
        "type": "note_on",
        "time": 195,
        "note": 38,
        "velocity": 100,
        "channel": 9
      },
      {
        "type": "note_on",
        "time": 15,
        "note": 38,
        "velocity": 0,
        "channel": 9
      },
      {
        "type": "note_on",
        "time": 15,
        "note": 40,
        "velocity": 100,
        "channel": 9
      },
      {
        "type": "note_on",
        "time": 0,
        "note": 38,
        "velocity": 100,
        "channel": 9
      },
      {
        "type": "note_on",
        "time": 15,
        "note": 38,
        "velocity": 0,
        "channel": 9
      },
      {
        "type": "note_on",
        "time": 0,
        "note": 40,
        "velocity": 0,
        "channel": 9
      },
      {
        "type": "note_on",
        "time": 45,
        "note": 40,
        "velocity": 100,
        "channel": 9
      },
      {
        "type": "note_on",
        "time": 0,
        "note": 38,
        "velocity": 100,
        "channel": 9
      },
      {
        "type": "note_on",
        "time": 15,
        "note": 38,
        "velocity": 0,
        "channel": 9
      },
      {
        "type": "note_on",
        "time": 0,
        "note": 40,
        "velocity": 0,
        "channel": 9
      },
      {
        "type": "note_on",
        "time": 45,
        "note": 46,
        "velocity": 100,
        "channel": 9
      },
      {
        "type": "note_on",
        "time": 0,
        "note": 36,
        "velocity": 100,
        "channel": 9
      },
      {
        "type": "note_on",
        "time": 15,
        "note": 36,
        "velocity": 0,
        "channel": 9
      },
      {
        "type": "note_on",
        "time": 0,
        "note": 46,
        "velocity": 0,
        "channel": 9
      },
      {
        "type": "note_on",
        "time": 41,
        "note": 36,
        "velocity": 100,
        "channel": 9
      },
      {
        "type": "note_on",
        "time": 4,
        "note": 46,
        "velocity": 100,
        "channel": 9
      },
      {
        "type": "note_on",
        "time": 11,
        "note": 36,
        "velocity": 0,
        "channel": 9
      },
      {
        "type": "note_on",
        "time": 4,
        "note": 46,
        "velocity": 0,
        "channel": 9
      },
      {
        "type": "note_on",
        "time": 43,
        "note": 40,
        "velocity": 100,
        "channel": 9
      },
      {
        "type": "note_on",
        "time": 0,
        "note": 38,
        "velocity": 100,
        "channel": 9
      },
      {
        "type": "note_on",
        "time": 2,
        "note": 46,
        "velocity": 100,
        "channel": 9
      },
      {
        "type": "note_on",
        "time": 13,
        "note": 38,
        "velocity": 0,
        "channel": 9
      },
      {
        "type": "note_on",
        "time": 0,
        "note": 40,
        "velocity": 0,
        "channel": 9
      },
      {
        "type": "note_on",
        "time": 2,
        "note": 46,
        "velocity": 0,
        "channel": 9
      },
      {
        "type": "note_on",
        "time": 45,
        "note": 46,
        "velocity": 100,
        "channel": 9
      },
      {
        "type": "note_on",
        "time": 0,
        "note": 36,
        "velocity": 100,
        "channel": 9
      },
      {
        "type": "note_on",
        "time": 15,
        "note": 36,
        "velocity": 0,
        "channel": 9
      },
      {
        "type": "note_on",
        "time": 0,
        "note": 46,
        "velocity": 0,
        "channel": 9
      },
      {
        "type": "note_on",
        "time": 45,
        "note": 46,
        "velocity": 100,
        "channel": 9
      },
      {
        "type": "note_on",
        "time": 15,
        "note": 46,
        "velocity": 0,
        "channel": 9
      },
      {
        "type": "note_on",
        "time": 45,
        "note": 46,
        "velocity": 100,
        "channel": 9
      },
      {
        "type": "note_on",
        "time": 0,
        "note": 36,
        "velocity": 100,
        "channel": 9
      },
      {
        "type": "note_on",
        "time": 15,
        "note": 36,
        "velocity": 0,
        "channel": 9
      },
      {
        "type": "note_on",
        "time": 0,
        "note": 46,
        "velocity": 0,
        "channel": 9
      },
      {
        "type": "note_on",
        "time": 45,
        "note": 46,
        "velocity": 100,
        "channel": 9
      },
      {
        "type": "note_on",
        "time": 0,
        "note": 40,
        "velocity": 100,
        "channel": 9
      },
      {
        "type": "note_on",
        "time": 0,
        "note": 38,
        "velocity": 100,
        "channel": 9
      },
      {
        "type": "note_on",
        "time": 15,
        "note": 38,
        "velocity": 0,
        "channel": 9
      },
      {
        "type": "note_on",
        "time": 0,
        "note": 40,
        "velocity": 0,
        "channel": 9
      },
      {
        "type": "note_on",
        "time": 0,
        "note": 46,
        "velocity": 0,
        "channel": 9
      },
      {
        "type": "note_on",
        "time": 45,
        "note": 46,
        "velocity": 100,
        "channel": 9
      },
      {
        "type": "note_on",
        "time": 15,
        "note": 46,
        "velocity": 0,
        "channel": 9
      },
      {
        "type": "note_on",
        "time": 45,
        "note": 46,
        "velocity": 100,
        "channel": 9
      },
      {
        "type": "note_on",
        "time": 0,
        "note": 36,
        "velocity": 100,
        "channel": 9
      },
      {
        "type": "note_on",
        "time": 15,
        "note": 36,
        "velocity": 0,
        "channel": 9
      },
      {
        "type": "note_on",
        "time": 0,
        "note": 46,
        "velocity": 0,
        "channel": 9
      },
      {
        "type": "note_on",
        "time": 45,
        "note": 46,
        "velocity": 100,
        "channel": 9
      },
      {
        "type": "note_on",
        "time": 0,
        "note": 36,
        "velocity": 100,
        "channel": 9
      },
      {
        "type": "note_on",
        "time": 15,
        "note": 36,
        "velocity": 0,
        "channel": 9
      },
      {
        "type": "note_on",
        "time": 0,
        "note": 46,
        "velocity": 0,
        "channel": 9
      },
      {
        "type": "note_on",
        "time": 45,
        "note": 46,
        "velocity": 100,
        "channel": 9
      },
      {
        "type": "note_on",
        "time": 0,
        "note": 40,
        "velocity": 100,
        "channel": 9
      },
      {
        "type": "note_on",
        "time": 0,
        "note": 38,
        "velocity": 100,
        "channel": 9
      },
      {
        "type": "note_on",
        "time": 15,
        "note": 38,
        "velocity": 0,
        "channel": 9
      },
      {
        "type": "note_on",
        "time": 0,
        "note": 40,
        "velocity": 0,
        "channel": 9
      },
      {
        "type": "note_on",
        "time": 0,
        "note": 46,
        "velocity": 0,
        "channel": 9
      },
      {
        "type": "note_on",
        "time": 45,
        "note": 46,
        "velocity": 100,
        "channel": 9
      },
      {
        "type": "note_on",
        "time": 0,
        "note": 36,
        "velocity": 100,
        "channel": 9
      },
      {
        "type": "note_on",
        "time": 15,
        "note": 36,
        "velocity": 0,
        "channel": 9
      },
      {
        "type": "note_on",
        "time": 0,
        "note": 46,
        "velocity": 0,
        "channel": 9
      },
      {
        "type": "note_on",
        "time": 45,
        "note": 46,
        "velocity": 100,
        "channel": 9
      },
      {
        "type": "note_on",
        "time": 0,
        "note": 36,
        "velocity": 100,
        "channel": 9
      },
      {
        "type": "note_on",
        "time": 15,
        "note": 36,
        "velocity": 0,
        "channel": 9
      },
      {
        "type": "note_on",
        "time": 0,
        "note": 46,
        "velocity": 0,
        "channel": 9
      },
      {
        "type": "note_on",
        "time": 15,
        "note": 38,
        "velocity": 100,
        "channel": 9
      },
      {
        "type": "note_on",
        "time": 15,
        "note": 38,
        "velocity": 0,
        "channel": 9
      },
      {
        "type": "note_on",
        "time": 15,
        "note": 46,
        "velocity": 100,
        "channel": 9
      },
      {
        "type": "note_on",
        "time": 15,
        "note": 46,
        "velocity": 0,
        "channel": 9
      },
      {
        "type": "note_on",
        "time": 45,
        "note": 46,
        "velocity": 100,
        "channel": 9
      },
      {
        "type": "note_on",
        "time": 0,
        "note": 38,
        "velocity": 100,
        "channel": 9
      },
      {
        "type": "note_on",
        "time": 0,
        "note": 40,
        "velocity": 100,
        "channel": 9
      },
      {
        "type": "note_on",
        "time": 15,
        "note": 40,
        "velocity": 0,
        "channel": 9
      },
      {
        "type": "note_on",
        "time": 0,
        "note": 38,
        "velocity": 0,
        "channel": 9
      },
      {
        "type": "note_on",
        "time": 0,
        "note": 46,
        "velocity": 0,
        "channel": 9
      },
      {
        "type": "note_on",
        "time": 45,
        "note": 46,
        "velocity": 100,
        "channel": 9
      },
      {
        "type": "note_on",
        "time": 15,
        "note": 46,
        "velocity": 0,
        "channel": 9
      },
      {
        "type": "note_on",
        "time": 45,
        "note": 46,
        "velocity": 100,
        "channel": 9
      },
      {
        "type": "note_on",
        "time": 0,
        "note": 36,
        "velocity": 100,
        "channel": 9
      },
      {
        "type": "note_on",
        "time": 15,
        "note": 36,
        "velocity": 0,
        "channel": 9
      },
      {
        "type": "note_on",
        "time": 0,
        "note": 46,
        "velocity": 0,
        "channel": 9
      },
      {
        "type": "note_on",
        "time": 41,
        "note": 36,
        "velocity": 100,
        "channel": 9
      },
      {
        "type": "note_on",
        "time": 4,
        "note": 46,
        "velocity": 100,
        "channel": 9
      },
      {
        "type": "note_on",
        "time": 11,
        "note": 36,
        "velocity": 0,
        "channel": 9
      },
      {
        "type": "note_on",
        "time": 4,
        "note": 46,
        "velocity": 0,
        "channel": 9
      },
      {
        "type": "note_on",
        "time": 43,
        "note": 40,
        "velocity": 100,
        "channel": 9
      },
      {
        "type": "note_on",
        "time": 0,
        "note": 38,
        "velocity": 100,
        "channel": 9
      },
      {
        "type": "note_on",
        "time": 2,
        "note": 46,
        "velocity": 100,
        "channel": 9
      },
      {
        "type": "note_on",
        "time": 13,
        "note": 38,
        "velocity": 0,
        "channel": 9
      },
      {
        "type": "note_on",
        "time": 0,
        "note": 40,
        "velocity": 0,
        "channel": 9
      },
      {
        "type": "note_on",
        "time": 2,
        "note": 46,
        "velocity": 0,
        "channel": 9
      },
      {
        "type": "note_on",
        "time": 45,
        "note": 46,
        "velocity": 100,
        "channel": 9
      },
      {
        "type": "note_on",
        "time": 0,
        "note": 36,
        "velocity": 100,
        "channel": 9
      },
      {
        "type": "note_on",
        "time": 15,
        "note": 36,
        "velocity": 0,
        "channel": 9
      },
      {
        "type": "note_on",
        "time": 0,
        "note": 46,
        "velocity": 0,
        "channel": 9
      },
      {
        "type": "note_on",
        "time": 45,
        "note": 46,
        "velocity": 100,
        "channel": 9
      },
      {
        "type": "note_on",
        "time": 15,
        "note": 46,
        "velocity": 0,
        "channel": 9
      },
      {
        "type": "note_on",
        "time": 45,
        "note": 46,
        "velocity": 100,
        "channel": 9
      },
      {
        "type": "note_on",
        "time": 0,
        "note": 36,
        "velocity": 100,
        "channel": 9
      },
      {
        "type": "note_on",
        "time": 15,
        "note": 36,
        "velocity": 0,
        "channel": 9
      },
      {
        "type": "note_on",
        "time": 0,
        "note": 46,
        "velocity": 0,
        "channel": 9
      },
      {
        "type": "note_on",
        "time": 45,
        "note": 46,
        "velocity": 100,
        "channel": 9
      },
      {
        "type": "note_on",
        "time": 0,
        "note": 40,
        "velocity": 100,
        "channel": 9
      },
      {
        "type": "note_on",
        "time": 0,
        "note": 38,
        "velocity": 100,
        "channel": 9
      },
      {
        "type": "note_on",
        "time": 15,
        "note": 38,
        "velocity": 0,
        "channel": 9
      },
      {
        "type": "note_on",
        "time": 0,
        "note": 40,
        "velocity": 0,
        "channel": 9
      },
      {
        "type": "note_on",
        "time": 0,
        "note": 46,
        "velocity": 0,
        "channel": 9
      },
      {
        "type": "note_on",
        "time": 45,
        "note": 46,
        "velocity": 100,
        "channel": 9
      },
      {
        "type": "note_on",
        "time": 15,
        "note": 46,
        "velocity": 0,
        "channel": 9
      },
      {
        "type": "note_on",
        "time": 45,
        "note": 46,
        "velocity": 100,
        "channel": 9
      },
      {
        "type": "note_on",
        "time": 0,
        "note": 36,
        "velocity": 100,
        "channel": 9
      },
      {
        "type": "note_on",
        "time": 15,
        "note": 36,
        "velocity": 0,
        "channel": 9
      },
      {
        "type": "note_on",
        "time": 0,
        "note": 46,
        "velocity": 0,
        "channel": 9
      },
      {
        "type": "note_on",
        "time": 45,
        "note": 46,
        "velocity": 100,
        "channel": 9
      },
      {
        "type": "note_on",
        "time": 0,
        "note": 36,
        "velocity": 100,
        "channel": 9
      },
      {
        "type": "note_on",
        "time": 15,
        "note": 36,
        "velocity": 0,
        "channel": 9
      },
      {
        "type": "note_on",
        "time": 0,
        "note": 46,
        "velocity": 0,
        "channel": 9
      },
      {
        "type": "note_on",
        "time": 45,
        "note": 46,
        "velocity": 100,
        "channel": 9
      },
      {
        "type": "note_on",
        "time": 0,
        "note": 40,
        "velocity": 100,
        "channel": 9
      },
      {
        "type": "note_on",
        "time": 0,
        "note": 38,
        "velocity": 100,
        "channel": 9
      },
      {
        "type": "note_on",
        "time": 15,
        "note": 38,
        "velocity": 0,
        "channel": 9
      },
      {
        "type": "note_on",
        "time": 0,
        "note": 40,
        "velocity": 0,
        "channel": 9
      },
      {
        "type": "note_on",
        "time": 0,
        "note": 46,
        "velocity": 0,
        "channel": 9
      },
      {
        "type": "note_on",
        "time": 45,
        "note": 46,
        "velocity": 100,
        "channel": 9
      },
      {
        "type": "note_on",
        "time": 0,
        "note": 36,
        "velocity": 100,
        "channel": 9
      },
      {
        "type": "note_on",
        "time": 15,
        "note": 36,
        "velocity": 0,
        "channel": 9
      },
      {
        "type": "note_on",
        "time": 0,
        "note": 46,
        "velocity": 0,
        "channel": 9
      },
      {
        "type": "note_on",
        "time": 45,
        "note": 46,
        "velocity": 100,
        "channel": 9
      },
      {
        "type": "note_on",
        "time": 0,
        "note": 36,
        "velocity": 100,
        "channel": 9
      },
      {
        "type": "note_on",
        "time": 15,
        "note": 36,
        "velocity": 0,
        "channel": 9
      },
      {
        "type": "note_on",
        "time": 0,
        "note": 46,
        "velocity": 0,
        "channel": 9
      },
      {
        "type": "note_on",
        "time": 15,
        "note": 38,
        "velocity": 100,
        "channel": 9
      },
      {
        "type": "note_on",
        "time": 15,
        "note": 38,
        "velocity": 0,
        "channel": 9
      },
      {
        "type": "note_on",
        "time": 15,
        "note": 46,
        "velocity": 100,
        "channel": 9
      },
      {
        "type": "note_on",
        "time": 15,
        "note": 46,
        "velocity": 0,
        "channel": 9
      },
      {
        "type": "note_on",
        "time": 45,
        "note": 46,
        "velocity": 100,
        "channel": 9
      },
      {
        "type": "note_on",
        "time": 0,
        "note": 38,
        "velocity": 100,
        "channel": 9
      },
      {
        "type": "note_on",
        "time": 0,
        "note": 40,
        "velocity": 100,
        "channel": 9
      },
      {
        "type": "note_on",
        "time": 15,
        "note": 40,
        "velocity": 0,
        "channel": 9
      },
      {
        "type": "note_on",
        "time": 0,
        "note": 38,
        "velocity": 0,
        "channel": 9
      },
      {
        "type": "note_on",
        "time": 0,
        "note": 46,
        "velocity": 0,
        "channel": 9
      },
      {
        "type": "note_on",
        "time": 45,
        "note": 46,
        "velocity": 100,
        "channel": 9
      },
      {
        "type": "note_on",
        "time": 15,
        "note": 46,
        "velocity": 0,
        "channel": 9
      },
      {
        "type": "note_on",
        "time": 45,
        "note": 46,
        "velocity": 100,
        "channel": 9
      },
      {
        "type": "note_on",
        "time": 0,
        "note": 36,
        "velocity": 100,
        "channel": 9
      },
      {
        "type": "note_on",
        "time": 15,
        "note": 36,
        "velocity": 0,
        "channel": 9
      },
      {
        "type": "note_on",
        "time": 0,
        "note": 46,
        "velocity": 0,
        "channel": 9
      },
      {
        "type": "note_on",
        "time": 41,
        "note": 36,
        "velocity": 100,
        "channel": 9
      },
      {
        "type": "note_on",
        "time": 4,
        "note": 46,
        "velocity": 100,
        "channel": 9
      },
      {
        "type": "note_on",
        "time": 11,
        "note": 36,
        "velocity": 0,
        "channel": 9
      },
      {
        "type": "note_on",
        "time": 4,
        "note": 46,
        "velocity": 0,
        "channel": 9
      },
      {
        "type": "note_on",
        "time": 43,
        "note": 40,
        "velocity": 100,
        "channel": 9
      },
      {
        "type": "note_on",
        "time": 0,
        "note": 38,
        "velocity": 100,
        "channel": 9
      },
      {
        "type": "note_on",
        "time": 2,
        "note": 46,
        "velocity": 100,
        "channel": 9
      },
      {
        "type": "note_on",
        "time": 13,
        "note": 38,
        "velocity": 0,
        "channel": 9
      },
      {
        "type": "note_on",
        "time": 0,
        "note": 40,
        "velocity": 0,
        "channel": 9
      },
      {
        "type": "note_on",
        "time": 2,
        "note": 46,
        "velocity": 0,
        "channel": 9
      },
      {
        "type": "note_on",
        "time": 45,
        "note": 46,
        "velocity": 100,
        "channel": 9
      },
      {
        "type": "note_on",
        "time": 0,
        "note": 36,
        "velocity": 100,
        "channel": 9
      },
      {
        "type": "note_on",
        "time": 15,
        "note": 36,
        "velocity": 0,
        "channel": 9
      },
      {
        "type": "note_on",
        "time": 0,
        "note": 46,
        "velocity": 0,
        "channel": 9
      },
      {
        "type": "note_on",
        "time": 45,
        "note": 46,
        "velocity": 100,
        "channel": 9
      },
      {
        "type": "note_on",
        "time": 15,
        "note": 46,
        "velocity": 0,
        "channel": 9
      },
      {
        "type": "note_on",
        "time": 45,
        "note": 46,
        "velocity": 100,
        "channel": 9
      },
      {
        "type": "note_on",
        "time": 0,
        "note": 36,
        "velocity": 100,
        "channel": 9
      },
      {
        "type": "note_on",
        "time": 15,
        "note": 36,
        "velocity": 0,
        "channel": 9
      },
      {
        "type": "note_on",
        "time": 0,
        "note": 46,
        "velocity": 0,
        "channel": 9
      },
      {
        "type": "note_on",
        "time": 45,
        "note": 46,
        "velocity": 100,
        "channel": 9
      },
      {
        "type": "note_on",
        "time": 0,
        "note": 40,
        "velocity": 100,
        "channel": 9
      },
      {
        "type": "note_on",
        "time": 0,
        "note": 38,
        "velocity": 100,
        "channel": 9
      },
      {
        "type": "note_on",
        "time": 15,
        "note": 38,
        "velocity": 0,
        "channel": 9
      },
      {
        "type": "note_on",
        "time": 0,
        "note": 40,
        "velocity": 0,
        "channel": 9
      },
      {
        "type": "note_on",
        "time": 0,
        "note": 46,
        "velocity": 0,
        "channel": 9
      },
      {
        "type": "note_on",
        "time": 45,
        "note": 46,
        "velocity": 100,
        "channel": 9
      },
      {
        "type": "note_on",
        "time": 15,
        "note": 46,
        "velocity": 0,
        "channel": 9
      },
      {
        "type": "note_on",
        "time": 45,
        "note": 46,
        "velocity": 100,
        "channel": 9
      },
      {
        "type": "note_on",
        "time": 0,
        "note": 36,
        "velocity": 100,
        "channel": 9
      },
      {
        "type": "note_on",
        "time": 15,
        "note": 36,
        "velocity": 0,
        "channel": 9
      },
      {
        "type": "note_on",
        "time": 0,
        "note": 46,
        "velocity": 0,
        "channel": 9
      },
      {
        "type": "note_on",
        "time": 45,
        "note": 46,
        "velocity": 100,
        "channel": 9
      },
      {
        "type": "note_on",
        "time": 0,
        "note": 36,
        "velocity": 100,
        "channel": 9
      },
      {
        "type": "note_on",
        "time": 15,
        "note": 36,
        "velocity": 0,
        "channel": 9
      },
      {
        "type": "note_on",
        "time": 0,
        "note": 46,
        "velocity": 0,
        "channel": 9
      },
      {
        "type": "note_on",
        "time": 45,
        "note": 46,
        "velocity": 100,
        "channel": 9
      },
      {
        "type": "note_on",
        "time": 0,
        "note": 40,
        "velocity": 100,
        "channel": 9
      },
      {
        "type": "note_on",
        "time": 0,
        "note": 38,
        "velocity": 100,
        "channel": 9
      },
      {
        "type": "note_on",
        "time": 15,
        "note": 38,
        "velocity": 0,
        "channel": 9
      },
      {
        "type": "note_on",
        "time": 0,
        "note": 40,
        "velocity": 0,
        "channel": 9
      },
      {
        "type": "note_on",
        "time": 0,
        "note": 46,
        "velocity": 0,
        "channel": 9
      },
      {
        "type": "note_on",
        "time": 45,
        "note": 46,
        "velocity": 100,
        "channel": 9
      },
      {
        "type": "note_on",
        "time": 0,
        "note": 36,
        "velocity": 100,
        "channel": 9
      },
      {
        "type": "note_on",
        "time": 15,
        "note": 36,
        "velocity": 0,
        "channel": 9
      },
      {
        "type": "note_on",
        "time": 0,
        "note": 46,
        "velocity": 0,
        "channel": 9
      },
      {
        "type": "note_on",
        "time": 45,
        "note": 46,
        "velocity": 100,
        "channel": 9
      },
      {
        "type": "note_on",
        "time": 0,
        "note": 36,
        "velocity": 100,
        "channel": 9
      },
      {
        "type": "note_on",
        "time": 15,
        "note": 36,
        "velocity": 0,
        "channel": 9
      },
      {
        "type": "note_on",
        "time": 0,
        "note": 46,
        "velocity": 0,
        "channel": 9
      },
      {
        "type": "note_on",
        "time": 15,
        "note": 38,
        "velocity": 100,
        "channel": 9
      },
      {
        "type": "note_on",
        "time": 15,
        "note": 38,
        "velocity": 0,
        "channel": 9
      },
      {
        "type": "note_on",
        "time": 15,
        "note": 46,
        "velocity": 100,
        "channel": 9
      },
      {
        "type": "note_on",
        "time": 15,
        "note": 46,
        "velocity": 0,
        "channel": 9
      },
      {
        "type": "note_on",
        "time": 45,
        "note": 46,
        "velocity": 100,
        "channel": 9
      },
      {
        "type": "note_on",
        "time": 0,
        "note": 38,
        "velocity": 100,
        "channel": 9
      },
      {
        "type": "note_on",
        "time": 0,
        "note": 40,
        "velocity": 100,
        "channel": 9
      },
      {
        "type": "note_on",
        "time": 15,
        "note": 40,
        "velocity": 0,
        "channel": 9
      },
      {
        "type": "note_on",
        "time": 0,
        "note": 38,
        "velocity": 0,
        "channel": 9
      },
      {
        "type": "note_on",
        "time": 0,
        "note": 46,
        "velocity": 0,
        "channel": 9
      },
      {
        "type": "note_on",
        "time": 45,
        "note": 46,
        "velocity": 100,
        "channel": 9
      },
      {
        "type": "note_on",
        "time": 15,
        "note": 46,
        "velocity": 0,
        "channel": 9
      },
      {
        "type": "note_on",
        "time": 45,
        "note": 46,
        "velocity": 100,
        "channel": 9
      },
      {
        "type": "note_on",
        "time": 0,
        "note": 36,
        "velocity": 100,
        "channel": 9
      },
      {
        "type": "note_on",
        "time": 15,
        "note": 36,
        "velocity": 0,
        "channel": 9
      },
      {
        "type": "note_on",
        "time": 0,
        "note": 46,
        "velocity": 0,
        "channel": 9
      },
      {
        "type": "note_on",
        "time": 41,
        "note": 36,
        "velocity": 100,
        "channel": 9
      },
      {
        "type": "note_on",
        "time": 4,
        "note": 46,
        "velocity": 100,
        "channel": 9
      },
      {
        "type": "note_on",
        "time": 11,
        "note": 36,
        "velocity": 0,
        "channel": 9
      },
      {
        "type": "note_on",
        "time": 4,
        "note": 46,
        "velocity": 0,
        "channel": 9
      },
      {
        "type": "note_on",
        "time": 43,
        "note": 40,
        "velocity": 100,
        "channel": 9
      },
      {
        "type": "note_on",
        "time": 0,
        "note": 38,
        "velocity": 100,
        "channel": 9
      },
      {
        "type": "note_on",
        "time": 2,
        "note": 46,
        "velocity": 100,
        "channel": 9
      },
      {
        "type": "note_on",
        "time": 13,
        "note": 38,
        "velocity": 0,
        "channel": 9
      },
      {
        "type": "note_on",
        "time": 0,
        "note": 40,
        "velocity": 0,
        "channel": 9
      },
      {
        "type": "note_on",
        "time": 2,
        "note": 46,
        "velocity": 0,
        "channel": 9
      },
      {
        "type": "note_on",
        "time": 45,
        "note": 46,
        "velocity": 100,
        "channel": 9
      },
      {
        "type": "note_on",
        "time": 0,
        "note": 36,
        "velocity": 100,
        "channel": 9
      },
      {
        "type": "note_on",
        "time": 15,
        "note": 36,
        "velocity": 0,
        "channel": 9
      },
      {
        "type": "note_on",
        "time": 0,
        "note": 46,
        "velocity": 0,
        "channel": 9
      },
      {
        "type": "note_on",
        "time": 45,
        "note": 46,
        "velocity": 100,
        "channel": 9
      },
      {
        "type": "note_on",
        "time": 15,
        "note": 46,
        "velocity": 0,
        "channel": 9
      },
      {
        "type": "note_on",
        "time": 45,
        "note": 46,
        "velocity": 100,
        "channel": 9
      },
      {
        "type": "note_on",
        "time": 0,
        "note": 36,
        "velocity": 100,
        "channel": 9
      },
      {
        "type": "note_on",
        "time": 15,
        "note": 36,
        "velocity": 0,
        "channel": 9
      },
      {
        "type": "note_on",
        "time": 0,
        "note": 46,
        "velocity": 0,
        "channel": 9
      },
      {
        "type": "note_on",
        "time": 45,
        "note": 46,
        "velocity": 100,
        "channel": 9
      },
      {
        "type": "note_on",
        "time": 0,
        "note": 40,
        "velocity": 100,
        "channel": 9
      },
      {
        "type": "note_on",
        "time": 0,
        "note": 38,
        "velocity": 100,
        "channel": 9
      },
      {
        "type": "note_on",
        "time": 15,
        "note": 38,
        "velocity": 0,
        "channel": 9
      },
      {
        "type": "note_on",
        "time": 0,
        "note": 40,
        "velocity": 0,
        "channel": 9
      },
      {
        "type": "note_on",
        "time": 0,
        "note": 46,
        "velocity": 0,
        "channel": 9
      },
      {
        "type": "note_on",
        "time": 45,
        "note": 46,
        "velocity": 100,
        "channel": 9
      },
      {
        "type": "note_on",
        "time": 15,
        "note": 46,
        "velocity": 0,
        "channel": 9
      },
      {
        "type": "note_on",
        "time": 45,
        "note": 46,
        "velocity": 100,
        "channel": 9
      },
      {
        "type": "note_on",
        "time": 0,
        "note": 36,
        "velocity": 100,
        "channel": 9
      },
      {
        "type": "note_on",
        "time": 15,
        "note": 36,
        "velocity": 0,
        "channel": 9
      },
      {
        "type": "note_on",
        "time": 0,
        "note": 46,
        "velocity": 0,
        "channel": 9
      },
      {
        "type": "note_on",
        "time": 45,
        "note": 46,
        "velocity": 100,
        "channel": 9
      },
      {
        "type": "note_on",
        "time": 0,
        "note": 36,
        "velocity": 100,
        "channel": 9
      },
      {
        "type": "note_on",
        "time": 15,
        "note": 36,
        "velocity": 0,
        "channel": 9
      },
      {
        "type": "note_on",
        "time": 0,
        "note": 46,
        "velocity": 0,
        "channel": 9
      },
      {
        "type": "note_on",
        "time": 45,
        "note": 46,
        "velocity": 100,
        "channel": 9
      },
      {
        "type": "note_on",
        "time": 0,
        "note": 40,
        "velocity": 100,
        "channel": 9
      },
      {
        "type": "note_on",
        "time": 0,
        "note": 38,
        "velocity": 100,
        "channel": 9
      },
      {
        "type": "note_on",
        "time": 15,
        "note": 38,
        "velocity": 0,
        "channel": 9
      },
      {
        "type": "note_on",
        "time": 0,
        "note": 40,
        "velocity": 0,
        "channel": 9
      },
      {
        "type": "note_on",
        "time": 0,
        "note": 46,
        "velocity": 0,
        "channel": 9
      },
      {
        "type": "note_on",
        "time": 45,
        "note": 46,
        "velocity": 100,
        "channel": 9
      },
      {
        "type": "note_on",
        "time": 0,
        "note": 36,
        "velocity": 100,
        "channel": 9
      },
      {
        "type": "note_on",
        "time": 15,
        "note": 36,
        "velocity": 0,
        "channel": 9
      },
      {
        "type": "note_on",
        "time": 0,
        "note": 46,
        "velocity": 0,
        "channel": 9
      },
      {
        "type": "note_on",
        "time": 45,
        "note": 46,
        "velocity": 100,
        "channel": 9
      },
      {
        "type": "note_on",
        "time": 0,
        "note": 36,
        "velocity": 100,
        "channel": 9
      },
      {
        "type": "note_on",
        "time": 15,
        "note": 36,
        "velocity": 0,
        "channel": 9
      },
      {
        "type": "note_on",
        "time": 0,
        "note": 46,
        "velocity": 0,
        "channel": 9
      },
      {
        "type": "note_on",
        "time": 15,
        "note": 38,
        "velocity": 100,
        "channel": 9
      },
      {
        "type": "note_on",
        "time": 15,
        "note": 38,
        "velocity": 0,
        "channel": 9
      },
      {
        "type": "note_on",
        "time": 15,
        "note": 46,
        "velocity": 100,
        "channel": 9
      },
      {
        "type": "note_on",
        "time": 15,
        "note": 46,
        "velocity": 0,
        "channel": 9
      },
      {
        "type": "note_on",
        "time": 45,
        "note": 46,
        "velocity": 100,
        "channel": 9
      },
      {
        "type": "note_on",
        "time": 0,
        "note": 38,
        "velocity": 100,
        "channel": 9
      },
      {
        "type": "note_on",
        "time": 0,
        "note": 40,
        "velocity": 100,
        "channel": 9
      },
      {
        "type": "note_on",
        "time": 15,
        "note": 40,
        "velocity": 0,
        "channel": 9
      },
      {
        "type": "note_on",
        "time": 0,
        "note": 38,
        "velocity": 0,
        "channel": 9
      },
      {
        "type": "note_on",
        "time": 0,
        "note": 46,
        "velocity": 0,
        "channel": 9
      },
      {
        "type": "note_on",
        "time": 45,
        "note": 46,
        "velocity": 100,
        "channel": 9
      },
      {
        "type": "note_on",
        "time": 15,
        "note": 46,
        "velocity": 0,
        "channel": 9
      },
      {
        "type": "note_on",
        "time": 45,
        "note": 46,
        "velocity": 100,
        "channel": 9
      },
      {
        "type": "note_on",
        "time": 0,
        "note": 36,
        "velocity": 100,
        "channel": 9
      },
      {
        "type": "note_on",
        "time": 15,
        "note": 36,
        "velocity": 0,
        "channel": 9
      },
      {
        "type": "note_on",
        "time": 0,
        "note": 46,
        "velocity": 0,
        "channel": 9
      },
      {
        "type": "note_on",
        "time": 41,
        "note": 36,
        "velocity": 100,
        "channel": 9
      },
      {
        "type": "note_on",
        "time": 4,
        "note": 46,
        "velocity": 100,
        "channel": 9
      },
      {
        "type": "note_on",
        "time": 11,
        "note": 36,
        "velocity": 0,
        "channel": 9
      },
      {
        "type": "note_on",
        "time": 4,
        "note": 46,
        "velocity": 0,
        "channel": 9
      },
      {
        "type": "note_on",
        "time": 43,
        "note": 40,
        "velocity": 100,
        "channel": 9
      },
      {
        "type": "note_on",
        "time": 0,
        "note": 38,
        "velocity": 100,
        "channel": 9
      },
      {
        "type": "note_on",
        "time": 2,
        "note": 46,
        "velocity": 100,
        "channel": 9
      },
      {
        "type": "note_on",
        "time": 13,
        "note": 38,
        "velocity": 0,
        "channel": 9
      },
      {
        "type": "note_on",
        "time": 0,
        "note": 40,
        "velocity": 0,
        "channel": 9
      },
      {
        "type": "note_on",
        "time": 2,
        "note": 46,
        "velocity": 0,
        "channel": 9
      },
      {
        "type": "note_on",
        "time": 45,
        "note": 46,
        "velocity": 100,
        "channel": 9
      },
      {
        "type": "note_on",
        "time": 0,
        "note": 36,
        "velocity": 100,
        "channel": 9
      },
      {
        "type": "note_on",
        "time": 15,
        "note": 36,
        "velocity": 0,
        "channel": 9
      },
      {
        "type": "note_on",
        "time": 0,
        "note": 46,
        "velocity": 0,
        "channel": 9
      },
      {
        "type": "note_on",
        "time": 45,
        "note": 46,
        "velocity": 100,
        "channel": 9
      },
      {
        "type": "note_on",
        "time": 15,
        "note": 46,
        "velocity": 0,
        "channel": 9
      },
      {
        "type": "note_on",
        "time": 45,
        "note": 46,
        "velocity": 100,
        "channel": 9
      },
      {
        "type": "note_on",
        "time": 0,
        "note": 36,
        "velocity": 100,
        "channel": 9
      },
      {
        "type": "note_on",
        "time": 15,
        "note": 36,
        "velocity": 0,
        "channel": 9
      },
      {
        "type": "note_on",
        "time": 0,
        "note": 46,
        "velocity": 0,
        "channel": 9
      },
      {
        "type": "note_on",
        "time": 45,
        "note": 46,
        "velocity": 100,
        "channel": 9
      },
      {
        "type": "note_on",
        "time": 0,
        "note": 40,
        "velocity": 100,
        "channel": 9
      },
      {
        "type": "note_on",
        "time": 0,
        "note": 38,
        "velocity": 100,
        "channel": 9
      },
      {
        "type": "note_on",
        "time": 15,
        "note": 38,
        "velocity": 0,
        "channel": 9
      },
      {
        "type": "note_on",
        "time": 0,
        "note": 40,
        "velocity": 0,
        "channel": 9
      },
      {
        "type": "note_on",
        "time": 0,
        "note": 46,
        "velocity": 0,
        "channel": 9
      },
      {
        "type": "note_on",
        "time": 45,
        "note": 46,
        "velocity": 100,
        "channel": 9
      },
      {
        "type": "note_on",
        "time": 15,
        "note": 46,
        "velocity": 0,
        "channel": 9
      },
      {
        "type": "note_on",
        "time": 45,
        "note": 46,
        "velocity": 100,
        "channel": 9
      },
      {
        "type": "note_on",
        "time": 0,
        "note": 36,
        "velocity": 100,
        "channel": 9
      },
      {
        "type": "note_on",
        "time": 15,
        "note": 36,
        "velocity": 0,
        "channel": 9
      },
      {
        "type": "note_on",
        "time": 0,
        "note": 46,
        "velocity": 0,
        "channel": 9
      },
      {
        "type": "note_on",
        "time": 45,
        "note": 46,
        "velocity": 100,
        "channel": 9
      },
      {
        "type": "note_on",
        "time": 0,
        "note": 36,
        "velocity": 100,
        "channel": 9
      },
      {
        "type": "note_on",
        "time": 15,
        "note": 36,
        "velocity": 0,
        "channel": 9
      },
      {
        "type": "note_on",
        "time": 0,
        "note": 46,
        "velocity": 0,
        "channel": 9
      },
      {
        "type": "note_on",
        "time": 45,
        "note": 46,
        "velocity": 100,
        "channel": 9
      },
      {
        "type": "note_on",
        "time": 0,
        "note": 40,
        "velocity": 100,
        "channel": 9
      },
      {
        "type": "note_on",
        "time": 0,
        "note": 38,
        "velocity": 100,
        "channel": 9
      },
      {
        "type": "note_on",
        "time": 15,
        "note": 38,
        "velocity": 0,
        "channel": 9
      },
      {
        "type": "note_on",
        "time": 0,
        "note": 40,
        "velocity": 0,
        "channel": 9
      },
      {
        "type": "note_on",
        "time": 0,
        "note": 46,
        "velocity": 0,
        "channel": 9
      },
      {
        "type": "note_on",
        "time": 45,
        "note": 46,
        "velocity": 100,
        "channel": 9
      },
      {
        "type": "note_on",
        "time": 0,
        "note": 36,
        "velocity": 100,
        "channel": 9
      },
      {
        "type": "note_on",
        "time": 15,
        "note": 36,
        "velocity": 0,
        "channel": 9
      },
      {
        "type": "note_on",
        "time": 0,
        "note": 46,
        "velocity": 0,
        "channel": 9
      },
      {
        "type": "note_on",
        "time": 45,
        "note": 46,
        "velocity": 100,
        "channel": 9
      },
      {
        "type": "note_on",
        "time": 0,
        "note": 36,
        "velocity": 100,
        "channel": 9
      },
      {
        "type": "note_on",
        "time": 15,
        "note": 36,
        "velocity": 0,
        "channel": 9
      },
      {
        "type": "note_on",
        "time": 0,
        "note": 46,
        "velocity": 0,
        "channel": 9
      },
      {
        "type": "note_on",
        "time": 15,
        "note": 38,
        "velocity": 100,
        "channel": 9
      },
      {
        "type": "note_on",
        "time": 15,
        "note": 38,
        "velocity": 0,
        "channel": 9
      },
      {
        "type": "note_on",
        "time": 15,
        "note": 46,
        "velocity": 100,
        "channel": 9
      },
      {
        "type": "note_on",
        "time": 15,
        "note": 46,
        "velocity": 0,
        "channel": 9
      },
      {
        "type": "note_on",
        "time": 45,
        "note": 46,
        "velocity": 100,
        "channel": 9
      },
      {
        "type": "note_on",
        "time": 0,
        "note": 38,
        "velocity": 100,
        "channel": 9
      },
      {
        "type": "note_on",
        "time": 0,
        "note": 40,
        "velocity": 100,
        "channel": 9
      },
      {
        "type": "note_on",
        "time": 15,
        "note": 40,
        "velocity": 0,
        "channel": 9
      },
      {
        "type": "note_on",
        "time": 0,
        "note": 38,
        "velocity": 0,
        "channel": 9
      },
      {
        "type": "note_on",
        "time": 0,
        "note": 46,
        "velocity": 0,
        "channel": 9
      },
      {
        "type": "note_on",
        "time": 45,
        "note": 46,
        "velocity": 100,
        "channel": 9
      },
      {
        "type": "note_on",
        "time": 15,
        "note": 46,
        "velocity": 0,
        "channel": 9
      },
      {
        "type": "note_on",
        "time": 45,
        "note": 46,
        "velocity": 100,
        "channel": 9
      },
      {
        "type": "note_on",
        "time": 0,
        "note": 36,
        "velocity": 100,
        "channel": 9
      },
      {
        "type": "note_on",
        "time": 15,
        "note": 36,
        "velocity": 0,
        "channel": 9
      },
      {
        "type": "note_on",
        "time": 0,
        "note": 46,
        "velocity": 0,
        "channel": 9
      },
      {
        "type": "note_on",
        "time": 41,
        "note": 36,
        "velocity": 100,
        "channel": 9
      },
      {
        "type": "note_on",
        "time": 4,
        "note": 46,
        "velocity": 100,
        "channel": 9
      },
      {
        "type": "note_on",
        "time": 11,
        "note": 36,
        "velocity": 0,
        "channel": 9
      },
      {
        "type": "note_on",
        "time": 4,
        "note": 46,
        "velocity": 0,
        "channel": 9
      },
      {
        "type": "note_on",
        "time": 43,
        "note": 40,
        "velocity": 100,
        "channel": 9
      },
      {
        "type": "note_on",
        "time": 0,
        "note": 38,
        "velocity": 100,
        "channel": 9
      },
      {
        "type": "note_on",
        "time": 2,
        "note": 46,
        "velocity": 100,
        "channel": 9
      },
      {
        "type": "note_on",
        "time": 13,
        "note": 38,
        "velocity": 0,
        "channel": 9
      },
      {
        "type": "note_on",
        "time": 0,
        "note": 40,
        "velocity": 0,
        "channel": 9
      },
      {
        "type": "note_on",
        "time": 2,
        "note": 46,
        "velocity": 0,
        "channel": 9
      },
      {
        "type": "note_on",
        "time": 45,
        "note": 46,
        "velocity": 100,
        "channel": 9
      },
      {
        "type": "note_on",
        "time": 0,
        "note": 36,
        "velocity": 100,
        "channel": 9
      },
      {
        "type": "note_on",
        "time": 15,
        "note": 36,
        "velocity": 0,
        "channel": 9
      },
      {
        "type": "note_on",
        "time": 0,
        "note": 46,
        "velocity": 0,
        "channel": 9
      },
      {
        "type": "note_on",
        "time": 45,
        "note": 46,
        "velocity": 100,
        "channel": 9
      },
      {
        "type": "note_on",
        "time": 15,
        "note": 46,
        "velocity": 0,
        "channel": 9
      },
      {
        "type": "note_on",
        "time": 45,
        "note": 46,
        "velocity": 100,
        "channel": 9
      },
      {
        "type": "note_on",
        "time": 0,
        "note": 36,
        "velocity": 100,
        "channel": 9
      },
      {
        "type": "note_on",
        "time": 15,
        "note": 36,
        "velocity": 0,
        "channel": 9
      },
      {
        "type": "note_on",
        "time": 0,
        "note": 46,
        "velocity": 0,
        "channel": 9
      },
      {
        "type": "note_on",
        "time": 45,
        "note": 46,
        "velocity": 100,
        "channel": 9
      },
      {
        "type": "note_on",
        "time": 0,
        "note": 40,
        "velocity": 100,
        "channel": 9
      },
      {
        "type": "note_on",
        "time": 0,
        "note": 38,
        "velocity": 100,
        "channel": 9
      },
      {
        "type": "note_on",
        "time": 15,
        "note": 38,
        "velocity": 0,
        "channel": 9
      },
      {
        "type": "note_on",
        "time": 0,
        "note": 40,
        "velocity": 0,
        "channel": 9
      },
      {
        "type": "note_on",
        "time": 0,
        "note": 46,
        "velocity": 0,
        "channel": 9
      },
      {
        "type": "note_on",
        "time": 45,
        "note": 46,
        "velocity": 100,
        "channel": 9
      },
      {
        "type": "note_on",
        "time": 15,
        "note": 46,
        "velocity": 0,
        "channel": 9
      },
      {
        "type": "note_on",
        "time": 45,
        "note": 46,
        "velocity": 100,
        "channel": 9
      },
      {
        "type": "note_on",
        "time": 0,
        "note": 36,
        "velocity": 100,
        "channel": 9
      },
      {
        "type": "note_on",
        "time": 15,
        "note": 36,
        "velocity": 0,
        "channel": 9
      },
      {
        "type": "note_on",
        "time": 0,
        "note": 46,
        "velocity": 0,
        "channel": 9
      },
      {
        "type": "note_on",
        "time": 45,
        "note": 46,
        "velocity": 100,
        "channel": 9
      },
      {
        "type": "note_on",
        "time": 0,
        "note": 36,
        "velocity": 100,
        "channel": 9
      },
      {
        "type": "note_on",
        "time": 15,
        "note": 36,
        "velocity": 0,
        "channel": 9
      },
      {
        "type": "note_on",
        "time": 0,
        "note": 46,
        "velocity": 0,
        "channel": 9
      },
      {
        "type": "note_on",
        "time": 45,
        "note": 46,
        "velocity": 100,
        "channel": 9
      },
      {
        "type": "note_on",
        "time": 0,
        "note": 40,
        "velocity": 100,
        "channel": 9
      },
      {
        "type": "note_on",
        "time": 0,
        "note": 38,
        "velocity": 100,
        "channel": 9
      },
      {
        "type": "note_on",
        "time": 15,
        "note": 38,
        "velocity": 0,
        "channel": 9
      },
      {
        "type": "note_on",
        "time": 0,
        "note": 40,
        "velocity": 0,
        "channel": 9
      },
      {
        "type": "note_on",
        "time": 0,
        "note": 46,
        "velocity": 0,
        "channel": 9
      },
      {
        "type": "note_on",
        "time": 45,
        "note": 46,
        "velocity": 100,
        "channel": 9
      },
      {
        "type": "note_on",
        "time": 0,
        "note": 36,
        "velocity": 100,
        "channel": 9
      },
      {
        "type": "note_on",
        "time": 15,
        "note": 36,
        "velocity": 0,
        "channel": 9
      },
      {
        "type": "note_on",
        "time": 0,
        "note": 46,
        "velocity": 0,
        "channel": 9
      },
      {
        "type": "note_on",
        "time": 45,
        "note": 46,
        "velocity": 100,
        "channel": 9
      },
      {
        "type": "note_on",
        "time": 0,
        "note": 36,
        "velocity": 100,
        "channel": 9
      },
      {
        "type": "note_on",
        "time": 15,
        "note": 36,
        "velocity": 0,
        "channel": 9
      },
      {
        "type": "note_on",
        "time": 0,
        "note": 46,
        "velocity": 0,
        "channel": 9
      },
      {
        "type": "note_on",
        "time": 15,
        "note": 38,
        "velocity": 100,
        "channel": 9
      },
      {
        "type": "note_on",
        "time": 15,
        "note": 38,
        "velocity": 0,
        "channel": 9
      },
      {
        "type": "note_on",
        "time": 15,
        "note": 46,
        "velocity": 100,
        "channel": 9
      },
      {
        "type": "note_on",
        "time": 15,
        "note": 46,
        "velocity": 0,
        "channel": 9
      },
      {
        "type": "note_on",
        "time": 45,
        "note": 46,
        "velocity": 100,
        "channel": 9
      },
      {
        "type": "note_on",
        "time": 0,
        "note": 38,
        "velocity": 100,
        "channel": 9
      },
      {
        "type": "note_on",
        "time": 0,
        "note": 40,
        "velocity": 100,
        "channel": 9
      },
      {
        "type": "note_on",
        "time": 15,
        "note": 40,
        "velocity": 0,
        "channel": 9
      },
      {
        "type": "note_on",
        "time": 0,
        "note": 38,
        "velocity": 0,
        "channel": 9
      },
      {
        "type": "note_on",
        "time": 0,
        "note": 46,
        "velocity": 0,
        "channel": 9
      },
      {
        "type": "note_on",
        "time": 45,
        "note": 46,
        "velocity": 100,
        "channel": 9
      },
      {
        "type": "note_on",
        "time": 15,
        "note": 46,
        "velocity": 0,
        "channel": 9
      },
      {
        "type": "note_on",
        "time": 45,
        "note": 46,
        "velocity": 100,
        "channel": 9
      },
      {
        "type": "note_on",
        "time": 0,
        "note": 36,
        "velocity": 100,
        "channel": 9
      },
      {
        "type": "note_on",
        "time": 15,
        "note": 36,
        "velocity": 0,
        "channel": 9
      },
      {
        "type": "note_on",
        "time": 0,
        "note": 46,
        "velocity": 0,
        "channel": 9
      },
      {
        "type": "note_on",
        "time": 41,
        "note": 36,
        "velocity": 100,
        "channel": 9
      },
      {
        "type": "note_on",
        "time": 4,
        "note": 46,
        "velocity": 100,
        "channel": 9
      },
      {
        "type": "note_on",
        "time": 11,
        "note": 36,
        "velocity": 0,
        "channel": 9
      },
      {
        "type": "note_on",
        "time": 4,
        "note": 46,
        "velocity": 0,
        "channel": 9
      },
      {
        "type": "note_on",
        "time": 43,
        "note": 40,
        "velocity": 100,
        "channel": 9
      },
      {
        "type": "note_on",
        "time": 0,
        "note": 38,
        "velocity": 100,
        "channel": 9
      },
      {
        "type": "note_on",
        "time": 2,
        "note": 46,
        "velocity": 100,
        "channel": 9
      },
      {
        "type": "note_on",
        "time": 13,
        "note": 38,
        "velocity": 0,
        "channel": 9
      },
      {
        "type": "note_on",
        "time": 0,
        "note": 40,
        "velocity": 0,
        "channel": 9
      },
      {
        "type": "note_on",
        "time": 2,
        "note": 46,
        "velocity": 0,
        "channel": 9
      },
      {
        "type": "note_on",
        "time": 45,
        "note": 46,
        "velocity": 100,
        "channel": 9
      },
      {
        "type": "note_on",
        "time": 0,
        "note": 36,
        "velocity": 100,
        "channel": 9
      },
      {
        "type": "note_on",
        "time": 15,
        "note": 36,
        "velocity": 0,
        "channel": 9
      },
      {
        "type": "note_on",
        "time": 0,
        "note": 46,
        "velocity": 0,
        "channel": 9
      },
      {
        "type": "note_on",
        "time": 45,
        "note": 46,
        "velocity": 100,
        "channel": 9
      },
      {
        "type": "note_on",
        "time": 15,
        "note": 46,
        "velocity": 0,
        "channel": 9
      },
      {
        "type": "note_on",
        "time": 45,
        "note": 46,
        "velocity": 100,
        "channel": 9
      },
      {
        "type": "note_on",
        "time": 0,
        "note": 36,
        "velocity": 100,
        "channel": 9
      },
      {
        "type": "note_on",
        "time": 15,
        "note": 36,
        "velocity": 0,
        "channel": 9
      },
      {
        "type": "note_on",
        "time": 0,
        "note": 46,
        "velocity": 0,
        "channel": 9
      },
      {
        "type": "note_on",
        "time": 45,
        "note": 46,
        "velocity": 100,
        "channel": 9
      },
      {
        "type": "note_on",
        "time": 0,
        "note": 40,
        "velocity": 100,
        "channel": 9
      },
      {
        "type": "note_on",
        "time": 0,
        "note": 38,
        "velocity": 100,
        "channel": 9
      },
      {
        "type": "note_on",
        "time": 15,
        "note": 38,
        "velocity": 0,
        "channel": 9
      },
      {
        "type": "note_on",
        "time": 0,
        "note": 40,
        "velocity": 0,
        "channel": 9
      },
      {
        "type": "note_on",
        "time": 0,
        "note": 46,
        "velocity": 0,
        "channel": 9
      },
      {
        "type": "note_on",
        "time": 45,
        "note": 46,
        "velocity": 100,
        "channel": 9
      },
      {
        "type": "note_on",
        "time": 15,
        "note": 46,
        "velocity": 0,
        "channel": 9
      },
      {
        "type": "note_on",
        "time": 45,
        "note": 46,
        "velocity": 100,
        "channel": 9
      },
      {
        "type": "note_on",
        "time": 0,
        "note": 36,
        "velocity": 100,
        "channel": 9
      },
      {
        "type": "note_on",
        "time": 15,
        "note": 36,
        "velocity": 0,
        "channel": 9
      },
      {
        "type": "note_on",
        "time": 0,
        "note": 46,
        "velocity": 0,
        "channel": 9
      },
      {
        "type": "note_on",
        "time": 45,
        "note": 46,
        "velocity": 100,
        "channel": 9
      },
      {
        "type": "note_on",
        "time": 0,
        "note": 36,
        "velocity": 100,
        "channel": 9
      },
      {
        "type": "note_on",
        "time": 15,
        "note": 36,
        "velocity": 0,
        "channel": 9
      },
      {
        "type": "note_on",
        "time": 0,
        "note": 46,
        "velocity": 0,
        "channel": 9
      },
      {
        "type": "note_on",
        "time": 45,
        "note": 46,
        "velocity": 100,
        "channel": 9
      },
      {
        "type": "note_on",
        "time": 0,
        "note": 40,
        "velocity": 100,
        "channel": 9
      },
      {
        "type": "note_on",
        "time": 0,
        "note": 38,
        "velocity": 100,
        "channel": 9
      },
      {
        "type": "note_on",
        "time": 15,
        "note": 38,
        "velocity": 0,
        "channel": 9
      },
      {
        "type": "note_on",
        "time": 0,
        "note": 40,
        "velocity": 0,
        "channel": 9
      },
      {
        "type": "note_on",
        "time": 0,
        "note": 46,
        "velocity": 0,
        "channel": 9
      },
      {
        "type": "note_on",
        "time": 45,
        "note": 46,
        "velocity": 100,
        "channel": 9
      },
      {
        "type": "note_on",
        "time": 0,
        "note": 36,
        "velocity": 100,
        "channel": 9
      },
      {
        "type": "note_on",
        "time": 15,
        "note": 36,
        "velocity": 0,
        "channel": 9
      },
      {
        "type": "note_on",
        "time": 0,
        "note": 46,
        "velocity": 0,
        "channel": 9
      },
      {
        "type": "note_on",
        "time": 45,
        "note": 46,
        "velocity": 100,
        "channel": 9
      },
      {
        "type": "note_on",
        "time": 0,
        "note": 36,
        "velocity": 100,
        "channel": 9
      },
      {
        "type": "note_on",
        "time": 15,
        "note": 36,
        "velocity": 0,
        "channel": 9
      },
      {
        "type": "note_on",
        "time": 0,
        "note": 46,
        "velocity": 0,
        "channel": 9
      },
      {
        "type": "note_on",
        "time": 15,
        "note": 38,
        "velocity": 100,
        "channel": 9
      },
      {
        "type": "note_on",
        "time": 15,
        "note": 38,
        "velocity": 0,
        "channel": 9
      },
      {
        "type": "note_on",
        "time": 15,
        "note": 46,
        "velocity": 100,
        "channel": 9
      },
      {
        "type": "note_on",
        "time": 15,
        "note": 46,
        "velocity": 0,
        "channel": 9
      },
      {
        "type": "note_on",
        "time": 45,
        "note": 46,
        "velocity": 100,
        "channel": 9
      },
      {
        "type": "note_on",
        "time": 0,
        "note": 38,
        "velocity": 100,
        "channel": 9
      },
      {
        "type": "note_on",
        "time": 0,
        "note": 40,
        "velocity": 100,
        "channel": 9
      },
      {
        "type": "note_on",
        "time": 15,
        "note": 40,
        "velocity": 0,
        "channel": 9
      },
      {
        "type": "note_on",
        "time": 0,
        "note": 38,
        "velocity": 0,
        "channel": 9
      },
      {
        "type": "note_on",
        "time": 0,
        "note": 46,
        "velocity": 0,
        "channel": 9
      },
      {
        "type": "note_on",
        "time": 45,
        "note": 46,
        "velocity": 100,
        "channel": 9
      },
      {
        "type": "note_on",
        "time": 15,
        "note": 46,
        "velocity": 0,
        "channel": 9
      },
      {
        "type": "note_on",
        "time": 45,
        "note": 46,
        "velocity": 100,
        "channel": 9
      },
      {
        "type": "note_on",
        "time": 0,
        "note": 36,
        "velocity": 100,
        "channel": 9
      },
      {
        "type": "note_on",
        "time": 15,
        "note": 36,
        "velocity": 0,
        "channel": 9
      },
      {
        "type": "note_on",
        "time": 0,
        "note": 46,
        "velocity": 0,
        "channel": 9
      },
      {
        "type": "note_on",
        "time": 45,
        "note": 46,
        "velocity": 100,
        "channel": 9
      },
      {
        "type": "note_on",
        "time": 0,
        "note": 36,
        "velocity": 100,
        "channel": 9
      },
      {
        "type": "note_on",
        "time": 15,
        "note": 36,
        "velocity": 0,
        "channel": 9
      },
      {
        "type": "note_on",
        "time": 0,
        "note": 46,
        "velocity": 0,
        "channel": 9
      },
      {
        "type": "note_on",
        "time": 45,
        "note": 46,
        "velocity": 100,
        "channel": 9
      },
      {
        "type": "note_on",
        "time": 0,
        "note": 40,
        "velocity": 100,
        "channel": 9
      },
      {
        "type": "note_on",
        "time": 0,
        "note": 38,
        "velocity": 100,
        "channel": 9
      },
      {
        "type": "note_on",
        "time": 15,
        "note": 38,
        "velocity": 0,
        "channel": 9
      },
      {
        "type": "note_on",
        "time": 0,
        "note": 40,
        "velocity": 0,
        "channel": 9
      },
      {
        "type": "note_on",
        "time": 0,
        "note": 46,
        "velocity": 0,
        "channel": 9
      },
      {
        "type": "note_on",
        "time": 45,
        "note": 46,
        "velocity": 100,
        "channel": 9
      },
      {
        "type": "note_on",
        "time": 0,
        "note": 36,
        "velocity": 100,
        "channel": 9
      },
      {
        "type": "note_on",
        "time": 15,
        "note": 36,
        "velocity": 0,
        "channel": 9
      },
      {
        "type": "note_on",
        "time": 0,
        "note": 46,
        "velocity": 0,
        "channel": 9
      },
      {
        "type": "note_on",
        "time": 45,
        "note": 46,
        "velocity": 100,
        "channel": 9
      },
      {
        "type": "note_on",
        "time": 0,
        "note": 36,
        "velocity": 100,
        "channel": 9
      },
      {
        "type": "note_on",
        "time": 15,
        "note": 36,
        "velocity": 0,
        "channel": 9
      },
      {
        "type": "note_on",
        "time": 0,
        "note": 46,
        "velocity": 0,
        "channel": 9
      },
      {
        "type": "note_on",
        "time": 15,
        "note": 38,
        "velocity": 100,
        "channel": 9
      },
      {
        "type": "note_on",
        "time": 15,
        "note": 38,
        "velocity": 0,
        "channel": 9
      },
      {
        "type": "note_on",
        "time": 15,
        "note": 46,
        "velocity": 100,
        "channel": 9
      },
      {
        "type": "note_on",
        "time": 15,
        "note": 46,
        "velocity": 0,
        "channel": 9
      },
      {
        "type": "note_on",
        "time": 45,
        "note": 46,
        "velocity": 100,
        "channel": 9
      },
      {
        "type": "note_on",
        "time": 0,
        "note": 38,
        "velocity": 100,
        "channel": 9
      },
      {
        "type": "note_on",
        "time": 0,
        "note": 40,
        "velocity": 100,
        "channel": 9
      },
      {
        "type": "note_on",
        "time": 15,
        "note": 40,
        "velocity": 0,
        "channel": 9
      },
      {
        "type": "note_on",
        "time": 0,
        "note": 38,
        "velocity": 0,
        "channel": 9
      },
      {
        "type": "note_on",
        "time": 0,
        "note": 46,
        "velocity": 0,
        "channel": 9
      },
      {
        "type": "note_on",
        "time": 45,
        "note": 46,
        "velocity": 100,
        "channel": 9
      },
      {
        "type": "note_on",
        "time": 15,
        "note": 46,
        "velocity": 0,
        "channel": 9
      },
      {
        "type": "note_on",
        "time": 45,
        "note": 46,
        "velocity": 100,
        "channel": 9
      },
      {
        "type": "note_on",
        "time": 0,
        "note": 36,
        "velocity": 100,
        "channel": 9
      },
      {
        "type": "note_on",
        "time": 15,
        "note": 36,
        "velocity": 0,
        "channel": 9
      },
      {
        "type": "note_on",
        "time": 0,
        "note": 46,
        "velocity": 0,
        "channel": 9
      },
      {
        "type": "note_on",
        "time": 45,
        "note": 46,
        "velocity": 100,
        "channel": 9
      },
      {
        "type": "note_on",
        "time": 0,
        "note": 36,
        "velocity": 100,
        "channel": 9
      },
      {
        "type": "note_on",
        "time": 15,
        "note": 36,
        "velocity": 0,
        "channel": 9
      },
      {
        "type": "note_on",
        "time": 0,
        "note": 46,
        "velocity": 0,
        "channel": 9
      },
      {
        "type": "note_on",
        "time": 45,
        "note": 46,
        "velocity": 100,
        "channel": 9
      },
      {
        "type": "note_on",
        "time": 0,
        "note": 40,
        "velocity": 100,
        "channel": 9
      },
      {
        "type": "note_on",
        "time": 0,
        "note": 38,
        "velocity": 100,
        "channel": 9
      },
      {
        "type": "note_on",
        "time": 15,
        "note": 38,
        "velocity": 0,
        "channel": 9
      },
      {
        "type": "note_on",
        "time": 0,
        "note": 40,
        "velocity": 0,
        "channel": 9
      },
      {
        "type": "note_on",
        "time": 0,
        "note": 46,
        "velocity": 0,
        "channel": 9
      },
      {
        "type": "note_on",
        "time": 45,
        "note": 46,
        "velocity": 100,
        "channel": 9
      },
      {
        "type": "note_on",
        "time": 0,
        "note": 36,
        "velocity": 100,
        "channel": 9
      },
      {
        "type": "note_on",
        "time": 15,
        "note": 36,
        "velocity": 0,
        "channel": 9
      },
      {
        "type": "note_on",
        "time": 0,
        "note": 46,
        "velocity": 0,
        "channel": 9
      },
      {
        "type": "note_on",
        "time": 45,
        "note": 52,
        "velocity": 100,
        "channel": 9
      },
      {
        "type": "note_on",
        "time": 0,
        "note": 46,
        "velocity": 100,
        "channel": 9
      },
      {
        "type": "note_on",
        "time": 0,
        "note": 36,
        "velocity": 100,
        "channel": 9
      },
      {
        "type": "note_on",
        "time": 15,
        "note": 36,
        "velocity": 0,
        "channel": 9
      },
      {
        "type": "note_on",
        "time": 0,
        "note": 46,
        "velocity": 0,
        "channel": 9
      },
      {
        "type": "note_on",
        "time": 0,
        "note": 52,
        "velocity": 0,
        "channel": 9
      },
      {
        "type": "note_on",
        "time": 15,
        "note": 40,
        "velocity": 100,
        "channel": 9
      },
      {
        "type": "note_on",
        "time": 0,
        "note": 38,
        "velocity": 100,
        "channel": 9
      },
      {
        "type": "note_on",
        "time": 15,
        "note": 38,
        "velocity": 0,
        "channel": 9
      },
      {
        "type": "note_on",
        "time": 0,
        "note": 40,
        "velocity": 0,
        "channel": 9
      },
      {
        "type": "note_on",
        "time": 15,
        "note": 46,
        "velocity": 100,
        "channel": 9
      },
      {
        "type": "note_on",
        "time": 15,
        "note": 46,
        "velocity": 0,
        "channel": 9
      },
      {
        "type": "note_on",
        "time": 15,
        "note": 38,
        "velocity": 100,
        "channel": 9
      },
      {
        "type": "note_on",
        "time": 15,
        "note": 38,
        "velocity": 0,
        "channel": 9
      },
      {
        "type": "note_on",
        "time": 15,
        "note": 52,
        "velocity": 100,
        "channel": 9
      },
      {
        "type": "note_on",
        "time": 0,
        "note": 46,
        "velocity": 100,
        "channel": 9
      },
      {
        "type": "note_on",
        "time": 0,
        "note": 38,
        "velocity": 100,
        "channel": 9
      },
      {
        "type": "note_on",
        "time": 0,
        "note": 40,
        "velocity": 100,
        "channel": 9
      },
      {
        "type": "note_on",
        "time": 15,
        "note": 40,
        "velocity": 0,
        "channel": 9
      },
      {
        "type": "note_on",
        "time": 0,
        "note": 52,
        "velocity": 0,
        "channel": 9
      },
      {
        "type": "note_on",
        "time": 0,
        "note": 46,
        "velocity": 0,
        "channel": 9
      },
      {
        "type": "note_on",
        "time": 0,
        "note": 38,
        "velocity": 0,
        "channel": 9
      },
      {
        "type": "note_on",
        "time": 45,
        "note": 52,
        "velocity": 100,
        "channel": 9
      },
      {
        "type": "note_on",
        "time": 0,
        "note": 46,
        "velocity": 100,
        "channel": 9
      },
      {
        "type": "note_on",
        "time": 0,
        "note": 38,
        "velocity": 100,
        "channel": 9
      },
      {
        "type": "note_on",
        "time": 0,
        "note": 40,
        "velocity": 100,
        "channel": 9
      },
      {
        "type": "note_on",
        "time": 15,
        "note": 40,
        "velocity": 0,
        "channel": 9
      },
      {
        "type": "note_on",
        "time": 0,
        "note": 52,
        "velocity": 0,
        "channel": 9
      },
      {
        "type": "note_on",
        "time": 0,
        "note": 46,
        "velocity": 0,
        "channel": 9
      },
      {
        "type": "note_on",
        "time": 0,
        "note": 38,
        "velocity": 0,
        "channel": 9
      },
      {
        "type": "note_on",
        "time": 15,
        "note": 52,
        "velocity": 100,
        "channel": 9
      },
      {
        "type": "note_on",
        "time": 0,
        "note": 46,
        "velocity": 100,
        "channel": 9
      },
      {
        "type": "note_on",
        "time": 0,
        "note": 40,
        "velocity": 100,
        "channel": 9
      },
      {
        "type": "note_on",
        "time": 0,
        "note": 38,
        "velocity": 100,
        "channel": 9
      },
      {
        "type": "note_on",
        "time": 15,
        "note": 38,
        "velocity": 0,
        "channel": 9
      },
      {
        "type": "note_on",
        "time": 0,
        "note": 52,
        "velocity": 0,
        "channel": 9
      },
      {
        "type": "note_on",
        "time": 0,
        "note": 46,
        "velocity": 0,
        "channel": 9
      },
      {
        "type": "note_on",
        "time": 0,
        "note": 40,
        "velocity": 0,
        "channel": 9
      },
      {
        "type": "note_on",
        "time": 15,
        "note": 46,
        "velocity": 100,
        "channel": 9
      },
      {
        "type": "note_on",
        "time": 0,
        "note": 49,
        "velocity": 100,
        "channel": 9
      },
      {
        "type": "note_on",
        "time": 0,
        "note": 35,
        "velocity": 100,
        "channel": 9
      },
      {
        "type": "note_on",
        "time": 0,
        "note": 36,
        "velocity": 100,
        "channel": 9
      },
      {
        "type": "note_on",
        "time": 15,
        "note": 36,
        "velocity": 0,
        "channel": 9
      },
      {
        "type": "note_on",
        "time": 0,
        "note": 46,
        "velocity": 0,
        "channel": 9
      },
      {
        "type": "note_on",
        "time": 0,
        "note": 49,
        "velocity": 0,
        "channel": 9
      },
      {
        "type": "note_on",
        "time": 0,
        "note": 35,
        "velocity": 0,
        "channel": 9
      },
      {
        "type": "note_on",
        "time": 45,
        "note": 46,
        "velocity": 100,
        "channel": 9
      },
      {
        "type": "note_on",
        "time": 0,
        "note": 36,
        "velocity": 100,
        "channel": 9
      },
      {
        "type": "note_on",
        "time": 15,
        "note": 36,
        "velocity": 0,
        "channel": 9
      },
      {
        "type": "note_on",
        "time": 0,
        "note": 46,
        "velocity": 0,
        "channel": 9
      },
      {
        "type": "note_on",
        "time": 45,
        "note": 46,
        "velocity": 100,
        "channel": 9
      },
      {
        "type": "note_on",
        "time": 0,
        "note": 40,
        "velocity": 100,
        "channel": 9
      },
      {
        "type": "note_on",
        "time": 0,
        "note": 38,
        "velocity": 100,
        "channel": 9
      },
      {
        "type": "note_on",
        "time": 15,
        "note": 38,
        "velocity": 0,
        "channel": 9
      },
      {
        "type": "note_on",
        "time": 0,
        "note": 40,
        "velocity": 0,
        "channel": 9
      },
      {
        "type": "note_on",
        "time": 0,
        "note": 46,
        "velocity": 0,
        "channel": 9
      },
      {
        "type": "note_on",
        "time": 45,
        "note": 49,
        "velocity": 100,
        "channel": 9
      },
      {
        "type": "note_on",
        "time": 0,
        "note": 46,
        "velocity": 100,
        "channel": 9
      },
      {
        "type": "note_on",
        "time": 0,
        "note": 39,
        "velocity": 100,
        "channel": 9
      },
      {
        "type": "note_on",
        "time": 15,
        "note": 39,
        "velocity": 0,
        "channel": 9
      },
      {
        "type": "note_on",
        "time": 0,
        "note": 46,
        "velocity": 0,
        "channel": 9
      },
      {
        "type": "note_on",
        "time": 0,
        "note": 49,
        "velocity": 0,
        "channel": 9
      },
      {
        "type": "note_on",
        "time": 45,
        "note": 46,
        "velocity": 100,
        "channel": 9
      },
      {
        "type": "note_on",
        "time": 0,
        "note": 39,
        "velocity": 100,
        "channel": 9
      },
      {
        "type": "note_on",
        "time": 15,
        "note": 39,
        "velocity": 0,
        "channel": 9
      },
      {
        "type": "note_on",
        "time": 0,
        "note": 46,
        "velocity": 0,
        "channel": 9
      },
      {
        "type": "note_on",
        "time": 45,
        "note": 46,
        "velocity": 100,
        "channel": 9
      },
      {
        "type": "note_on",
        "time": 0,
        "note": 39,
        "velocity": 100,
        "channel": 9
      },
      {
        "type": "note_on",
        "time": 15,
        "note": 39,
        "velocity": 0,
        "channel": 9
      },
      {
        "type": "note_on",
        "time": 0,
        "note": 46,
        "velocity": 0,
        "channel": 9
      },
      {
        "type": "note_on",
        "time": 45,
        "note": 46,
        "velocity": 100,
        "channel": 9
      },
      {
        "type": "note_on",
        "time": 0,
        "note": 37,
        "velocity": 100,
        "channel": 9
      },
      {
        "type": "note_on",
        "time": 0,
        "note": 39,
        "velocity": 100,
        "channel": 9
      },
      {
        "type": "note_on",
        "time": 0,
        "note": 40,
        "velocity": 100,
        "channel": 9
      },
      {
        "type": "note_on",
        "time": 15,
        "note": 40,
        "velocity": 0,
        "channel": 9
      },
      {
        "type": "note_on",
        "time": 0,
        "note": 46,
        "velocity": 0,
        "channel": 9
      },
      {
        "type": "note_on",
        "time": 0,
        "note": 37,
        "velocity": 0,
        "channel": 9
      },
      {
        "type": "note_on",
        "time": 0,
        "note": 39,
        "velocity": 0,
        "channel": 9
      },
      {
        "type": "note_on",
        "time": 45,
        "note": 46,
        "velocity": 100,
        "channel": 9
      },
      {
        "type": "note_on",
        "time": 0,
        "note": 35,
        "velocity": 100,
        "channel": 9
      },
      {
        "type": "note_on",
        "time": 0,
        "note": 36,
        "velocity": 100,
        "channel": 9
      },
      {
        "type": "note_on",
        "time": 15,
        "note": 36,
        "velocity": 0,
        "channel": 9
      },
      {
        "type": "note_on",
        "time": 0,
        "note": 35,
        "velocity": 0,
        "channel": 9
      },
      {
        "type": "note_on",
        "time": 0,
        "note": 46,
        "velocity": 0,
        "channel": 9
      },
      {
        "type": "note_on",
        "time": 45,
        "note": 46,
        "velocity": 100,
        "channel": 9
      },
      {
        "type": "note_on",
        "time": 0,
        "note": 49,
        "velocity": 100,
        "channel": 9
      },
      {
        "type": "note_on",
        "time": 0,
        "note": 35,
        "velocity": 100,
        "channel": 9
      },
      {
        "type": "note_on",
        "time": 0,
        "note": 36,
        "velocity": 100,
        "channel": 9
      },
      {
        "type": "note_on",
        "time": 15,
        "note": 36,
        "velocity": 0,
        "channel": 9
      },
      {
        "type": "note_on",
        "time": 0,
        "note": 46,
        "velocity": 0,
        "channel": 9
      },
      {
        "type": "note_on",
        "time": 0,
        "note": 49,
        "velocity": 0,
        "channel": 9
      },
      {
        "type": "note_on",
        "time": 0,
        "note": 35,
        "velocity": 0,
        "channel": 9
      },
      {
        "type": "note_on",
        "time": 45,
        "note": 46,
        "velocity": 100,
        "channel": 9
      },
      {
        "type": "note_on",
        "time": 0,
        "note": 36,
        "velocity": 100,
        "channel": 9
      },
      {
        "type": "note_on",
        "time": 15,
        "note": 36,
        "velocity": 0,
        "channel": 9
      },
      {
        "type": "note_on",
        "time": 0,
        "note": 46,
        "velocity": 0,
        "channel": 9
      },
      {
        "type": "note_on",
        "time": 45,
        "note": 46,
        "velocity": 100,
        "channel": 9
      },
      {
        "type": "note_on",
        "time": 0,
        "note": 40,
        "velocity": 100,
        "channel": 9
      },
      {
        "type": "note_on",
        "time": 0,
        "note": 38,
        "velocity": 100,
        "channel": 9
      },
      {
        "type": "note_on",
        "time": 15,
        "note": 38,
        "velocity": 0,
        "channel": 9
      },
      {
        "type": "note_on",
        "time": 0,
        "note": 40,
        "velocity": 0,
        "channel": 9
      },
      {
        "type": "note_on",
        "time": 0,
        "note": 46,
        "velocity": 0,
        "channel": 9
      },
      {
        "type": "note_on",
        "time": 45,
        "note": 49,
        "velocity": 100,
        "channel": 9
      },
      {
        "type": "note_on",
        "time": 0,
        "note": 46,
        "velocity": 100,
        "channel": 9
      },
      {
        "type": "note_on",
        "time": 0,
        "note": 39,
        "velocity": 100,
        "channel": 9
      },
      {
        "type": "note_on",
        "time": 15,
        "note": 39,
        "velocity": 0,
        "channel": 9
      },
      {
        "type": "note_on",
        "time": 0,
        "note": 46,
        "velocity": 0,
        "channel": 9
      },
      {
        "type": "note_on",
        "time": 0,
        "note": 49,
        "velocity": 0,
        "channel": 9
      },
      {
        "type": "note_on",
        "time": 45,
        "note": 46,
        "velocity": 100,
        "channel": 9
      },
      {
        "type": "note_on",
        "time": 0,
        "note": 39,
        "velocity": 100,
        "channel": 9
      },
      {
        "type": "note_on",
        "time": 15,
        "note": 39,
        "velocity": 0,
        "channel": 9
      },
      {
        "type": "note_on",
        "time": 0,
        "note": 46,
        "velocity": 0,
        "channel": 9
      },
      {
        "type": "note_on",
        "time": 45,
        "note": 46,
        "velocity": 100,
        "channel": 9
      },
      {
        "type": "note_on",
        "time": 0,
        "note": 39,
        "velocity": 100,
        "channel": 9
      },
      {
        "type": "note_on",
        "time": 15,
        "note": 39,
        "velocity": 0,
        "channel": 9
      },
      {
        "type": "note_on",
        "time": 0,
        "note": 46,
        "velocity": 0,
        "channel": 9
      },
      {
        "type": "note_on",
        "time": 45,
        "note": 46,
        "velocity": 100,
        "channel": 9
      },
      {
        "type": "note_on",
        "time": 0,
        "note": 37,
        "velocity": 100,
        "channel": 9
      },
      {
        "type": "note_on",
        "time": 0,
        "note": 39,
        "velocity": 100,
        "channel": 9
      },
      {
        "type": "note_on",
        "time": 0,
        "note": 40,
        "velocity": 100,
        "channel": 9
      },
      {
        "type": "note_on",
        "time": 15,
        "note": 40,
        "velocity": 0,
        "channel": 9
      },
      {
        "type": "note_on",
        "time": 0,
        "note": 46,
        "velocity": 0,
        "channel": 9
      },
      {
        "type": "note_on",
        "time": 0,
        "note": 37,
        "velocity": 0,
        "channel": 9
      },
      {
        "type": "note_on",
        "time": 0,
        "note": 39,
        "velocity": 0,
        "channel": 9
      },
      {
        "type": "note_on",
        "time": 45,
        "note": 46,
        "velocity": 100,
        "channel": 9
      },
      {
        "type": "note_on",
        "time": 0,
        "note": 35,
        "velocity": 100,
        "channel": 9
      },
      {
        "type": "note_on",
        "time": 0,
        "note": 36,
        "velocity": 100,
        "channel": 9
      },
      {
        "type": "note_on",
        "time": 15,
        "note": 36,
        "velocity": 0,
        "channel": 9
      },
      {
        "type": "note_on",
        "time": 0,
        "note": 35,
        "velocity": 0,
        "channel": 9
      },
      {
        "type": "note_on",
        "time": 0,
        "note": 46,
        "velocity": 0,
        "channel": 9
      },
      {
        "type": "note_on",
        "time": 45,
        "note": 46,
        "velocity": 100,
        "channel": 9
      },
      {
        "type": "note_on",
        "time": 0,
        "note": 49,
        "velocity": 100,
        "channel": 9
      },
      {
        "type": "note_on",
        "time": 0,
        "note": 35,
        "velocity": 100,
        "channel": 9
      },
      {
        "type": "note_on",
        "time": 0,
        "note": 36,
        "velocity": 100,
        "channel": 9
      },
      {
        "type": "note_on",
        "time": 15,
        "note": 36,
        "velocity": 0,
        "channel": 9
      },
      {
        "type": "note_on",
        "time": 0,
        "note": 46,
        "velocity": 0,
        "channel": 9
      },
      {
        "type": "note_on",
        "time": 0,
        "note": 49,
        "velocity": 0,
        "channel": 9
      },
      {
        "type": "note_on",
        "time": 0,
        "note": 35,
        "velocity": 0,
        "channel": 9
      },
      {
        "type": "note_on",
        "time": 45,
        "note": 46,
        "velocity": 100,
        "channel": 9
      },
      {
        "type": "note_on",
        "time": 0,
        "note": 36,
        "velocity": 100,
        "channel": 9
      },
      {
        "type": "note_on",
        "time": 15,
        "note": 36,
        "velocity": 0,
        "channel": 9
      },
      {
        "type": "note_on",
        "time": 0,
        "note": 46,
        "velocity": 0,
        "channel": 9
      },
      {
        "type": "note_on",
        "time": 45,
        "note": 46,
        "velocity": 100,
        "channel": 9
      },
      {
        "type": "note_on",
        "time": 0,
        "note": 40,
        "velocity": 100,
        "channel": 9
      },
      {
        "type": "note_on",
        "time": 0,
        "note": 38,
        "velocity": 100,
        "channel": 9
      },
      {
        "type": "note_on",
        "time": 15,
        "note": 38,
        "velocity": 0,
        "channel": 9
      },
      {
        "type": "note_on",
        "time": 0,
        "note": 40,
        "velocity": 0,
        "channel": 9
      },
      {
        "type": "note_on",
        "time": 0,
        "note": 46,
        "velocity": 0,
        "channel": 9
      },
      {
        "type": "note_on",
        "time": 45,
        "note": 49,
        "velocity": 100,
        "channel": 9
      },
      {
        "type": "note_on",
        "time": 0,
        "note": 46,
        "velocity": 100,
        "channel": 9
      },
      {
        "type": "note_on",
        "time": 0,
        "note": 39,
        "velocity": 100,
        "channel": 9
      },
      {
        "type": "note_on",
        "time": 15,
        "note": 39,
        "velocity": 0,
        "channel": 9
      },
      {
        "type": "note_on",
        "time": 0,
        "note": 46,
        "velocity": 0,
        "channel": 9
      },
      {
        "type": "note_on",
        "time": 0,
        "note": 49,
        "velocity": 0,
        "channel": 9
      },
      {
        "type": "note_on",
        "time": 45,
        "note": 46,
        "velocity": 100,
        "channel": 9
      },
      {
        "type": "note_on",
        "time": 0,
        "note": 39,
        "velocity": 100,
        "channel": 9
      },
      {
        "type": "note_on",
        "time": 15,
        "note": 39,
        "velocity": 0,
        "channel": 9
      },
      {
        "type": "note_on",
        "time": 0,
        "note": 46,
        "velocity": 0,
        "channel": 9
      },
      {
        "type": "note_on",
        "time": 45,
        "note": 46,
        "velocity": 100,
        "channel": 9
      },
      {
        "type": "note_on",
        "time": 0,
        "note": 39,
        "velocity": 100,
        "channel": 9
      },
      {
        "type": "note_on",
        "time": 15,
        "note": 39,
        "velocity": 0,
        "channel": 9
      },
      {
        "type": "note_on",
        "time": 0,
        "note": 46,
        "velocity": 0,
        "channel": 9
      },
      {
        "type": "note_on",
        "time": 45,
        "note": 46,
        "velocity": 100,
        "channel": 9
      },
      {
        "type": "note_on",
        "time": 0,
        "note": 37,
        "velocity": 100,
        "channel": 9
      },
      {
        "type": "note_on",
        "time": 0,
        "note": 39,
        "velocity": 100,
        "channel": 9
      },
      {
        "type": "note_on",
        "time": 0,
        "note": 40,
        "velocity": 100,
        "channel": 9
      },
      {
        "type": "note_on",
        "time": 15,
        "note": 40,
        "velocity": 0,
        "channel": 9
      },
      {
        "type": "note_on",
        "time": 0,
        "note": 46,
        "velocity": 0,
        "channel": 9
      },
      {
        "type": "note_on",
        "time": 0,
        "note": 37,
        "velocity": 0,
        "channel": 9
      },
      {
        "type": "note_on",
        "time": 0,
        "note": 39,
        "velocity": 0,
        "channel": 9
      },
      {
        "type": "note_on",
        "time": 45,
        "note": 46,
        "velocity": 100,
        "channel": 9
      },
      {
        "type": "note_on",
        "time": 0,
        "note": 35,
        "velocity": 100,
        "channel": 9
      },
      {
        "type": "note_on",
        "time": 0,
        "note": 36,
        "velocity": 100,
        "channel": 9
      },
      {
        "type": "note_on",
        "time": 15,
        "note": 36,
        "velocity": 0,
        "channel": 9
      },
      {
        "type": "note_on",
        "time": 0,
        "note": 35,
        "velocity": 0,
        "channel": 9
      },
      {
        "type": "note_on",
        "time": 0,
        "note": 46,
        "velocity": 0,
        "channel": 9
      },
      {
        "type": "note_on",
        "time": 45,
        "note": 46,
        "velocity": 100,
        "channel": 9
      },
      {
        "type": "note_on",
        "time": 0,
        "note": 49,
        "velocity": 100,
        "channel": 9
      },
      {
        "type": "note_on",
        "time": 0,
        "note": 35,
        "velocity": 100,
        "channel": 9
      },
      {
        "type": "note_on",
        "time": 0,
        "note": 36,
        "velocity": 100,
        "channel": 9
      },
      {
        "type": "note_on",
        "time": 15,
        "note": 36,
        "velocity": 0,
        "channel": 9
      },
      {
        "type": "note_on",
        "time": 0,
        "note": 46,
        "velocity": 0,
        "channel": 9
      },
      {
        "type": "note_on",
        "time": 0,
        "note": 49,
        "velocity": 0,
        "channel": 9
      },
      {
        "type": "note_on",
        "time": 0,
        "note": 35,
        "velocity": 0,
        "channel": 9
      },
      {
        "type": "note_on",
        "time": 45,
        "note": 46,
        "velocity": 100,
        "channel": 9
      },
      {
        "type": "note_on",
        "time": 0,
        "note": 36,
        "velocity": 100,
        "channel": 9
      },
      {
        "type": "note_on",
        "time": 15,
        "note": 36,
        "velocity": 0,
        "channel": 9
      },
      {
        "type": "note_on",
        "time": 0,
        "note": 46,
        "velocity": 0,
        "channel": 9
      },
      {
        "type": "note_on",
        "time": 45,
        "note": 46,
        "velocity": 100,
        "channel": 9
      },
      {
        "type": "note_on",
        "time": 0,
        "note": 40,
        "velocity": 100,
        "channel": 9
      },
      {
        "type": "note_on",
        "time": 0,
        "note": 38,
        "velocity": 100,
        "channel": 9
      },
      {
        "type": "note_on",
        "time": 15,
        "note": 38,
        "velocity": 0,
        "channel": 9
      },
      {
        "type": "note_on",
        "time": 0,
        "note": 40,
        "velocity": 0,
        "channel": 9
      },
      {
        "type": "note_on",
        "time": 0,
        "note": 46,
        "velocity": 0,
        "channel": 9
      },
      {
        "type": "note_on",
        "time": 45,
        "note": 36,
        "velocity": 100,
        "channel": 9
      },
      {
        "type": "note_on",
        "time": 0,
        "note": 46,
        "velocity": 100,
        "channel": 9
      },
      {
        "type": "note_on",
        "time": 15,
        "note": 46,
        "velocity": 0,
        "channel": 9
      },
      {
        "type": "note_on",
        "time": 0,
        "note": 36,
        "velocity": 0,
        "channel": 9
      },
      {
        "type": "note_on",
        "time": 45,
        "note": 46,
        "velocity": 100,
        "channel": 9
      },
      {
        "type": "note_on",
        "time": 0,
        "note": 35,
        "velocity": 100,
        "channel": 9
      },
      {
        "type": "note_on",
        "time": 0,
        "note": 36,
        "velocity": 100,
        "channel": 9
      },
      {
        "type": "note_on",
        "time": 15,
        "note": 36,
        "velocity": 0,
        "channel": 9
      },
      {
        "type": "note_on",
        "time": 0,
        "note": 35,
        "velocity": 0,
        "channel": 9
      },
      {
        "type": "note_on",
        "time": 0,
        "note": 46,
        "velocity": 0,
        "channel": 9
      },
      {
        "type": "note_on",
        "time": 15,
        "note": 38,
        "velocity": 100,
        "channel": 9
      },
      {
        "type": "note_on",
        "time": 0,
        "note": 40,
        "velocity": 100,
        "channel": 9
      },
      {
        "type": "note_on",
        "time": 15,
        "note": 40,
        "velocity": 0,
        "channel": 9
      },
      {
        "type": "note_on",
        "time": 0,
        "note": 38,
        "velocity": 0,
        "channel": 9
      },
      {
        "type": "note_on",
        "time": 15,
        "note": 46,
        "velocity": 100,
        "channel": 9
      },
      {
        "type": "note_on",
        "time": 15,
        "note": 46,
        "velocity": 0,
        "channel": 9
      },
      {
        "type": "note_on",
        "time": 45,
        "note": 46,
        "velocity": 100,
        "channel": 9
      },
      {
        "type": "note_on",
        "time": 0,
        "note": 38,
        "velocity": 100,
        "channel": 9
      },
      {
        "type": "note_on",
        "time": 0,
        "note": 40,
        "velocity": 100,
        "channel": 9
      },
      {
        "type": "note_on",
        "time": 15,
        "note": 40,
        "velocity": 0,
        "channel": 9
      },
      {
        "type": "note_on",
        "time": 0,
        "note": 38,
        "velocity": 0,
        "channel": 9
      },
      {
        "type": "note_on",
        "time": 0,
        "note": 46,
        "velocity": 0,
        "channel": 9
      },
      {
        "type": "note_on",
        "time": 37,
        "note": 38,
        "velocity": 100,
        "channel": 9
      },
      {
        "type": "note_on",
        "time": 8,
        "note": 38,
        "velocity": 100,
        "channel": 9
      },
      {
        "type": "note_on",
        "time": 0,
        "note": 40,
        "velocity": 100,
        "channel": 9
      },
      {
        "type": "note_on",
        "time": 0,
        "note": 46,
        "velocity": 100,
        "channel": 9
      },
      {
        "type": "note_on",
        "time": 7,
        "note": 38,
        "velocity": 0,
        "channel": 9
      },
      {
        "type": "note_on",
        "time": 8,
        "note": 38,
        "velocity": 0,
        "channel": 9
      },
      {
        "type": "note_on",
        "time": 0,
        "note": 40,
        "velocity": 0,
        "channel": 9
      },
      {
        "type": "note_on",
        "time": 0,
        "note": 46,
        "velocity": 0,
        "channel": 9
      },
      {
        "type": "note_on",
        "time": 15,
        "note": 38,
        "velocity": 100,
        "channel": 9
      },
      {
        "type": "note_on",
        "time": 15,
        "note": 38,
        "velocity": 0,
        "channel": 9
      },
      {
        "type": "note_on",
        "time": 15,
        "note": 46,
        "velocity": 100,
        "channel": 9
      },
      {
        "type": "note_on",
        "time": 0,
        "note": 49,
        "velocity": 100,
        "channel": 9
      },
      {
        "type": "note_on",
        "time": 0,
        "note": 35,
        "velocity": 100,
        "channel": 9
      },
      {
        "type": "note_on",
        "time": 0,
        "note": 36,
        "velocity": 100,
        "channel": 9
      },
      {
        "type": "note_on",
        "time": 15,
        "note": 36,
        "velocity": 0,
        "channel": 9
      },
      {
        "type": "note_on",
        "time": 0,
        "note": 46,
        "velocity": 0,
        "channel": 9
      },
      {
        "type": "note_on",
        "time": 0,
        "note": 49,
        "velocity": 0,
        "channel": 9
      },
      {
        "type": "note_on",
        "time": 0,
        "note": 35,
        "velocity": 0,
        "channel": 9
      },
      {
        "type": "note_on",
        "time": 45,
        "note": 46,
        "velocity": 100,
        "channel": 9
      },
      {
        "type": "note_on",
        "time": 0,
        "note": 36,
        "velocity": 100,
        "channel": 9
      },
      {
        "type": "note_on",
        "time": 15,
        "note": 36,
        "velocity": 0,
        "channel": 9
      },
      {
        "type": "note_on",
        "time": 0,
        "note": 46,
        "velocity": 0,
        "channel": 9
      },
      {
        "type": "note_on",
        "time": 45,
        "note": 46,
        "velocity": 100,
        "channel": 9
      },
      {
        "type": "note_on",
        "time": 0,
        "note": 40,
        "velocity": 100,
        "channel": 9
      },
      {
        "type": "note_on",
        "time": 0,
        "note": 38,
        "velocity": 100,
        "channel": 9
      },
      {
        "type": "note_on",
        "time": 15,
        "note": 38,
        "velocity": 0,
        "channel": 9
      },
      {
        "type": "note_on",
        "time": 0,
        "note": 40,
        "velocity": 0,
        "channel": 9
      },
      {
        "type": "note_on",
        "time": 0,
        "note": 46,
        "velocity": 0,
        "channel": 9
      },
      {
        "type": "note_on",
        "time": 45,
        "note": 49,
        "velocity": 100,
        "channel": 9
      },
      {
        "type": "note_on",
        "time": 0,
        "note": 46,
        "velocity": 100,
        "channel": 9
      },
      {
        "type": "note_on",
        "time": 0,
        "note": 39,
        "velocity": 100,
        "channel": 9
      },
      {
        "type": "note_on",
        "time": 15,
        "note": 39,
        "velocity": 0,
        "channel": 9
      },
      {
        "type": "note_on",
        "time": 0,
        "note": 46,
        "velocity": 0,
        "channel": 9
      },
      {
        "type": "note_on",
        "time": 0,
        "note": 49,
        "velocity": 0,
        "channel": 9
      },
      {
        "type": "note_on",
        "time": 45,
        "note": 46,
        "velocity": 100,
        "channel": 9
      },
      {
        "type": "note_on",
        "time": 0,
        "note": 39,
        "velocity": 100,
        "channel": 9
      },
      {
        "type": "note_on",
        "time": 15,
        "note": 39,
        "velocity": 0,
        "channel": 9
      },
      {
        "type": "note_on",
        "time": 0,
        "note": 46,
        "velocity": 0,
        "channel": 9
      },
      {
        "type": "note_on",
        "time": 45,
        "note": 46,
        "velocity": 100,
        "channel": 9
      },
      {
        "type": "note_on",
        "time": 0,
        "note": 39,
        "velocity": 100,
        "channel": 9
      },
      {
        "type": "note_on",
        "time": 15,
        "note": 39,
        "velocity": 0,
        "channel": 9
      },
      {
        "type": "note_on",
        "time": 0,
        "note": 46,
        "velocity": 0,
        "channel": 9
      },
      {
        "type": "note_on",
        "time": 45,
        "note": 46,
        "velocity": 100,
        "channel": 9
      },
      {
        "type": "note_on",
        "time": 0,
        "note": 37,
        "velocity": 100,
        "channel": 9
      },
      {
        "type": "note_on",
        "time": 0,
        "note": 39,
        "velocity": 100,
        "channel": 9
      },
      {
        "type": "note_on",
        "time": 0,
        "note": 40,
        "velocity": 100,
        "channel": 9
      },
      {
        "type": "note_on",
        "time": 15,
        "note": 40,
        "velocity": 0,
        "channel": 9
      },
      {
        "type": "note_on",
        "time": 0,
        "note": 46,
        "velocity": 0,
        "channel": 9
      },
      {
        "type": "note_on",
        "time": 0,
        "note": 37,
        "velocity": 0,
        "channel": 9
      },
      {
        "type": "note_on",
        "time": 0,
        "note": 39,
        "velocity": 0,
        "channel": 9
      },
      {
        "type": "note_on",
        "time": 45,
        "note": 46,
        "velocity": 100,
        "channel": 9
      },
      {
        "type": "note_on",
        "time": 0,
        "note": 35,
        "velocity": 100,
        "channel": 9
      },
      {
        "type": "note_on",
        "time": 0,
        "note": 36,
        "velocity": 100,
        "channel": 9
      },
      {
        "type": "note_on",
        "time": 15,
        "note": 36,
        "velocity": 0,
        "channel": 9
      },
      {
        "type": "note_on",
        "time": 0,
        "note": 35,
        "velocity": 0,
        "channel": 9
      },
      {
        "type": "note_on",
        "time": 0,
        "note": 46,
        "velocity": 0,
        "channel": 9
      },
      {
        "type": "note_on",
        "time": 45,
        "note": 46,
        "velocity": 100,
        "channel": 9
      },
      {
        "type": "note_on",
        "time": 0,
        "note": 49,
        "velocity": 100,
        "channel": 9
      },
      {
        "type": "note_on",
        "time": 0,
        "note": 35,
        "velocity": 100,
        "channel": 9
      },
      {
        "type": "note_on",
        "time": 0,
        "note": 36,
        "velocity": 100,
        "channel": 9
      },
      {
        "type": "note_on",
        "time": 15,
        "note": 36,
        "velocity": 0,
        "channel": 9
      },
      {
        "type": "note_on",
        "time": 0,
        "note": 46,
        "velocity": 0,
        "channel": 9
      },
      {
        "type": "note_on",
        "time": 0,
        "note": 49,
        "velocity": 0,
        "channel": 9
      },
      {
        "type": "note_on",
        "time": 0,
        "note": 35,
        "velocity": 0,
        "channel": 9
      },
      {
        "type": "note_on",
        "time": 45,
        "note": 46,
        "velocity": 100,
        "channel": 9
      },
      {
        "type": "note_on",
        "time": 0,
        "note": 36,
        "velocity": 100,
        "channel": 9
      },
      {
        "type": "note_on",
        "time": 15,
        "note": 36,
        "velocity": 0,
        "channel": 9
      },
      {
        "type": "note_on",
        "time": 0,
        "note": 46,
        "velocity": 0,
        "channel": 9
      },
      {
        "type": "note_on",
        "time": 45,
        "note": 46,
        "velocity": 100,
        "channel": 9
      },
      {
        "type": "note_on",
        "time": 0,
        "note": 40,
        "velocity": 100,
        "channel": 9
      },
      {
        "type": "note_on",
        "time": 0,
        "note": 38,
        "velocity": 100,
        "channel": 9
      },
      {
        "type": "note_on",
        "time": 15,
        "note": 38,
        "velocity": 0,
        "channel": 9
      },
      {
        "type": "note_on",
        "time": 0,
        "note": 40,
        "velocity": 0,
        "channel": 9
      },
      {
        "type": "note_on",
        "time": 0,
        "note": 46,
        "velocity": 0,
        "channel": 9
      },
      {
        "type": "note_on",
        "time": 45,
        "note": 49,
        "velocity": 100,
        "channel": 9
      },
      {
        "type": "note_on",
        "time": 0,
        "note": 46,
        "velocity": 100,
        "channel": 9
      },
      {
        "type": "note_on",
        "time": 0,
        "note": 39,
        "velocity": 100,
        "channel": 9
      },
      {
        "type": "note_on",
        "time": 15,
        "note": 39,
        "velocity": 0,
        "channel": 9
      },
      {
        "type": "note_on",
        "time": 0,
        "note": 46,
        "velocity": 0,
        "channel": 9
      },
      {
        "type": "note_on",
        "time": 0,
        "note": 49,
        "velocity": 0,
        "channel": 9
      },
      {
        "type": "note_on",
        "time": 45,
        "note": 46,
        "velocity": 100,
        "channel": 9
      },
      {
        "type": "note_on",
        "time": 0,
        "note": 39,
        "velocity": 100,
        "channel": 9
      },
      {
        "type": "note_on",
        "time": 15,
        "note": 39,
        "velocity": 0,
        "channel": 9
      },
      {
        "type": "note_on",
        "time": 0,
        "note": 46,
        "velocity": 0,
        "channel": 9
      },
      {
        "type": "note_on",
        "time": 45,
        "note": 46,
        "velocity": 100,
        "channel": 9
      },
      {
        "type": "note_on",
        "time": 0,
        "note": 39,
        "velocity": 100,
        "channel": 9
      },
      {
        "type": "note_on",
        "time": 15,
        "note": 39,
        "velocity": 0,
        "channel": 9
      },
      {
        "type": "note_on",
        "time": 0,
        "note": 46,
        "velocity": 0,
        "channel": 9
      },
      {
        "type": "note_on",
        "time": 45,
        "note": 46,
        "velocity": 100,
        "channel": 9
      },
      {
        "type": "note_on",
        "time": 0,
        "note": 37,
        "velocity": 100,
        "channel": 9
      },
      {
        "type": "note_on",
        "time": 0,
        "note": 39,
        "velocity": 100,
        "channel": 9
      },
      {
        "type": "note_on",
        "time": 0,
        "note": 40,
        "velocity": 100,
        "channel": 9
      },
      {
        "type": "note_on",
        "time": 15,
        "note": 40,
        "velocity": 0,
        "channel": 9
      },
      {
        "type": "note_on",
        "time": 0,
        "note": 46,
        "velocity": 0,
        "channel": 9
      },
      {
        "type": "note_on",
        "time": 0,
        "note": 37,
        "velocity": 0,
        "channel": 9
      },
      {
        "type": "note_on",
        "time": 0,
        "note": 39,
        "velocity": 0,
        "channel": 9
      },
      {
        "type": "note_on",
        "time": 45,
        "note": 46,
        "velocity": 100,
        "channel": 9
      },
      {
        "type": "note_on",
        "time": 0,
        "note": 35,
        "velocity": 100,
        "channel": 9
      },
      {
        "type": "note_on",
        "time": 0,
        "note": 36,
        "velocity": 100,
        "channel": 9
      },
      {
        "type": "note_on",
        "time": 15,
        "note": 36,
        "velocity": 0,
        "channel": 9
      },
      {
        "type": "note_on",
        "time": 0,
        "note": 35,
        "velocity": 0,
        "channel": 9
      },
      {
        "type": "note_on",
        "time": 0,
        "note": 46,
        "velocity": 0,
        "channel": 9
      },
      {
        "type": "note_on",
        "time": 45,
        "note": 46,
        "velocity": 100,
        "channel": 9
      },
      {
        "type": "note_on",
        "time": 0,
        "note": 49,
        "velocity": 100,
        "channel": 9
      },
      {
        "type": "note_on",
        "time": 0,
        "note": 35,
        "velocity": 100,
        "channel": 9
      },
      {
        "type": "note_on",
        "time": 0,
        "note": 36,
        "velocity": 100,
        "channel": 9
      },
      {
        "type": "note_on",
        "time": 15,
        "note": 36,
        "velocity": 0,
        "channel": 9
      },
      {
        "type": "note_on",
        "time": 0,
        "note": 46,
        "velocity": 0,
        "channel": 9
      },
      {
        "type": "note_on",
        "time": 0,
        "note": 49,
        "velocity": 0,
        "channel": 9
      },
      {
        "type": "note_on",
        "time": 0,
        "note": 35,
        "velocity": 0,
        "channel": 9
      },
      {
        "type": "note_on",
        "time": 45,
        "note": 46,
        "velocity": 100,
        "channel": 9
      },
      {
        "type": "note_on",
        "time": 0,
        "note": 36,
        "velocity": 100,
        "channel": 9
      },
      {
        "type": "note_on",
        "time": 15,
        "note": 36,
        "velocity": 0,
        "channel": 9
      },
      {
        "type": "note_on",
        "time": 0,
        "note": 46,
        "velocity": 0,
        "channel": 9
      },
      {
        "type": "note_on",
        "time": 45,
        "note": 46,
        "velocity": 100,
        "channel": 9
      },
      {
        "type": "note_on",
        "time": 0,
        "note": 40,
        "velocity": 100,
        "channel": 9
      },
      {
        "type": "note_on",
        "time": 0,
        "note": 38,
        "velocity": 100,
        "channel": 9
      },
      {
        "type": "note_on",
        "time": 15,
        "note": 38,
        "velocity": 0,
        "channel": 9
      },
      {
        "type": "note_on",
        "time": 0,
        "note": 40,
        "velocity": 0,
        "channel": 9
      },
      {
        "type": "note_on",
        "time": 0,
        "note": 46,
        "velocity": 0,
        "channel": 9
      },
      {
        "type": "note_on",
        "time": 45,
        "note": 49,
        "velocity": 100,
        "channel": 9
      },
      {
        "type": "note_on",
        "time": 0,
        "note": 46,
        "velocity": 100,
        "channel": 9
      },
      {
        "type": "note_on",
        "time": 0,
        "note": 39,
        "velocity": 100,
        "channel": 9
      },
      {
        "type": "note_on",
        "time": 15,
        "note": 39,
        "velocity": 0,
        "channel": 9
      },
      {
        "type": "note_on",
        "time": 0,
        "note": 46,
        "velocity": 0,
        "channel": 9
      },
      {
        "type": "note_on",
        "time": 0,
        "note": 49,
        "velocity": 0,
        "channel": 9
      },
      {
        "type": "note_on",
        "time": 45,
        "note": 46,
        "velocity": 100,
        "channel": 9
      },
      {
        "type": "note_on",
        "time": 0,
        "note": 39,
        "velocity": 100,
        "channel": 9
      },
      {
        "type": "note_on",
        "time": 15,
        "note": 39,
        "velocity": 0,
        "channel": 9
      },
      {
        "type": "note_on",
        "time": 0,
        "note": 46,
        "velocity": 0,
        "channel": 9
      },
      {
        "type": "note_on",
        "time": 45,
        "note": 46,
        "velocity": 100,
        "channel": 9
      },
      {
        "type": "note_on",
        "time": 0,
        "note": 39,
        "velocity": 100,
        "channel": 9
      },
      {
        "type": "note_on",
        "time": 15,
        "note": 39,
        "velocity": 0,
        "channel": 9
      },
      {
        "type": "note_on",
        "time": 0,
        "note": 46,
        "velocity": 0,
        "channel": 9
      },
      {
        "type": "note_on",
        "time": 45,
        "note": 46,
        "velocity": 100,
        "channel": 9
      },
      {
        "type": "note_on",
        "time": 0,
        "note": 37,
        "velocity": 100,
        "channel": 9
      },
      {
        "type": "note_on",
        "time": 0,
        "note": 39,
        "velocity": 100,
        "channel": 9
      },
      {
        "type": "note_on",
        "time": 0,
        "note": 40,
        "velocity": 100,
        "channel": 9
      },
      {
        "type": "note_on",
        "time": 15,
        "note": 40,
        "velocity": 0,
        "channel": 9
      },
      {
        "type": "note_on",
        "time": 0,
        "note": 46,
        "velocity": 0,
        "channel": 9
      },
      {
        "type": "note_on",
        "time": 0,
        "note": 37,
        "velocity": 0,
        "channel": 9
      },
      {
        "type": "note_on",
        "time": 0,
        "note": 39,
        "velocity": 0,
        "channel": 9
      },
      {
        "type": "note_on",
        "time": 45,
        "note": 46,
        "velocity": 100,
        "channel": 9
      },
      {
        "type": "note_on",
        "time": 0,
        "note": 35,
        "velocity": 100,
        "channel": 9
      },
      {
        "type": "note_on",
        "time": 0,
        "note": 36,
        "velocity": 100,
        "channel": 9
      },
      {
        "type": "note_on",
        "time": 15,
        "note": 36,
        "velocity": 0,
        "channel": 9
      },
      {
        "type": "note_on",
        "time": 0,
        "note": 35,
        "velocity": 0,
        "channel": 9
      },
      {
        "type": "note_on",
        "time": 0,
        "note": 46,
        "velocity": 0,
        "channel": 9
      },
      {
        "type": "note_on",
        "time": 45,
        "note": 40,
        "velocity": 100,
        "channel": 9
      },
      {
        "type": "note_on",
        "time": 0,
        "note": 38,
        "velocity": 100,
        "channel": 9
      },
      {
        "type": "note_on",
        "time": 0,
        "note": 49,
        "velocity": 100,
        "channel": 9
      },
      {
        "type": "note_on",
        "time": 0,
        "note": 46,
        "velocity": 100,
        "channel": 9
      },
      {
        "type": "note_on",
        "time": 15,
        "note": 46,
        "velocity": 0,
        "channel": 9
      },
      {
        "type": "note_on",
        "time": 0,
        "note": 40,
        "velocity": 0,
        "channel": 9
      },
      {
        "type": "note_on",
        "time": 0,
        "note": 38,
        "velocity": 0,
        "channel": 9
      },
      {
        "type": "note_on",
        "time": 0,
        "note": 49,
        "velocity": 0,
        "channel": 9
      },
      {
        "type": "note_on",
        "time": 105,
        "note": 46,
        "velocity": 100,
        "channel": 9
      },
      {
        "type": "note_on",
        "time": 0,
        "note": 36,
        "velocity": 100,
        "channel": 9
      },
      {
        "type": "note_on",
        "time": 15,
        "note": 36,
        "velocity": 0,
        "channel": 9
      },
      {
        "type": "note_on",
        "time": 0,
        "note": 46,
        "velocity": 0,
        "channel": 9
      },
      {
        "type": "note_on",
        "time": 105,
        "note": 36,
        "velocity": 100,
        "channel": 9
      },
      {
        "type": "note_on",
        "time": 15,
        "note": 36,
        "velocity": 0,
        "channel": 9
      },
      {
        "type": "note_on",
        "time": 105,
        "note": 36,
        "velocity": 100,
        "channel": 9
      },
      {
        "type": "note_on",
        "time": 15,
        "note": 36,
        "velocity": 0,
        "channel": 9
      },
      {
        "type": "note_on",
        "time": 45,
        "note": 46,
        "velocity": 100,
        "channel": 9
      },
      {
        "type": "note_on",
        "time": 15,
        "note": 46,
        "velocity": 0,
        "channel": 9
      },
      {
        "type": "note_on",
        "time": 45,
        "note": 44,
        "velocity": 100,
        "channel": 9
      },
      {
        "type": "note_on",
        "time": 0,
        "note": 36,
        "velocity": 100,
        "channel": 9
      },
      {
        "type": "note_on",
        "time": 15,
        "note": 36,
        "velocity": 0,
        "channel": 9
      },
      {
        "type": "note_on",
        "time": 0,
        "note": 44,
        "velocity": 0,
        "channel": 9
      },
      {
        "type": "note_on",
        "time": 45,
        "note": 46,
        "velocity": 100,
        "channel": 9
      },
      {
        "type": "note_on",
        "time": 15,
        "note": 46,
        "velocity": 0,
        "channel": 9
      },
      {
        "type": "note_on",
        "time": 45,
        "note": 44,
        "velocity": 100,
        "channel": 9
      },
      {
        "type": "note_on",
        "time": 0,
        "note": 38,
        "velocity": 100,
        "channel": 9
      },
      {
        "type": "note_on",
        "time": 15,
        "note": 38,
        "velocity": 0,
        "channel": 9
      },
      {
        "type": "note_on",
        "time": 0,
        "note": 44,
        "velocity": 0,
        "channel": 9
      },
      {
        "type": "note_on",
        "time": 45,
        "note": 46,
        "velocity": 100,
        "channel": 9
      },
      {
        "type": "note_on",
        "time": 15,
        "note": 46,
        "velocity": 0,
        "channel": 9
      },
      {
        "type": "note_on",
        "time": 45,
        "note": 44,
        "velocity": 100,
        "channel": 9
      },
      {
        "type": "note_on",
        "time": 0,
        "note": 36,
        "velocity": 100,
        "channel": 9
      },
      {
        "type": "note_on",
        "time": 15,
        "note": 36,
        "velocity": 0,
        "channel": 9
      },
      {
        "type": "note_on",
        "time": 0,
        "note": 44,
        "velocity": 0,
        "channel": 9
      },
      {
        "type": "note_on",
        "time": 45,
        "note": 46,
        "velocity": 100,
        "channel": 9
      },
      {
        "type": "note_on",
        "time": 15,
        "note": 46,
        "velocity": 0,
        "channel": 9
      },
      {
        "type": "note_on",
        "time": 45,
        "note": 38,
        "velocity": 100,
        "channel": 9
      },
      {
        "type": "note_on",
        "time": 0,
        "note": 44,
        "velocity": 100,
        "channel": 9
      },
      {
        "type": "note_on",
        "time": 15,
        "note": 44,
        "velocity": 0,
        "channel": 9
      },
      {
        "type": "note_on",
        "time": 0,
        "note": 38,
        "velocity": 0,
        "channel": 9
      },
      {
        "type": "note_on",
        "time": 45,
        "note": 46,
        "velocity": 100,
        "channel": 9
      },
      {
        "type": "note_on",
        "time": 15,
        "note": 46,
        "velocity": 0,
        "channel": 9
      },
      {
        "type": "note_on",
        "time": 45,
        "note": 44,
        "velocity": 100,
        "channel": 9
      },
      {
        "type": "note_on",
        "time": 0,
        "note": 36,
        "velocity": 100,
        "channel": 9
      },
      {
        "type": "note_on",
        "time": 15,
        "note": 36,
        "velocity": 0,
        "channel": 9
      },
      {
        "type": "note_on",
        "time": 0,
        "note": 44,
        "velocity": 0,
        "channel": 9
      },
      {
        "type": "note_on",
        "time": 45,
        "note": 46,
        "velocity": 100,
        "channel": 9
      },
      {
        "type": "note_on",
        "time": 15,
        "note": 46,
        "velocity": 0,
        "channel": 9
      },
      {
        "type": "note_on",
        "time": 45,
        "note": 44,
        "velocity": 100,
        "channel": 9
      },
      {
        "type": "note_on",
        "time": 0,
        "note": 38,
        "velocity": 100,
        "channel": 9
      },
      {
        "type": "note_on",
        "time": 15,
        "note": 38,
        "velocity": 0,
        "channel": 9
      },
      {
        "type": "note_on",
        "time": 0,
        "note": 44,
        "velocity": 0,
        "channel": 9
      },
      {
        "type": "note_on",
        "time": 45,
        "note": 46,
        "velocity": 100,
        "channel": 9
      },
      {
        "type": "note_on",
        "time": 15,
        "note": 46,
        "velocity": 0,
        "channel": 9
      },
      {
        "type": "note_on",
        "time": 45,
        "note": 44,
        "velocity": 100,
        "channel": 9
      },
      {
        "type": "note_on",
        "time": 0,
        "note": 36,
        "velocity": 100,
        "channel": 9
      },
      {
        "type": "note_on",
        "time": 15,
        "note": 36,
        "velocity": 0,
        "channel": 9
      },
      {
        "type": "note_on",
        "time": 0,
        "note": 44,
        "velocity": 0,
        "channel": 9
      },
      {
        "type": "note_on",
        "time": 45,
        "note": 46,
        "velocity": 100,
        "channel": 9
      },
      {
        "type": "note_on",
        "time": 15,
        "note": 46,
        "velocity": 0,
        "channel": 9
      },
      {
        "type": "note_on",
        "time": 45,
        "note": 38,
        "velocity": 100,
        "channel": 9
      },
      {
        "type": "note_on",
        "time": 0,
        "note": 44,
        "velocity": 100,
        "channel": 9
      },
      {
        "type": "note_on",
        "time": 15,
        "note": 44,
        "velocity": 0,
        "channel": 9
      },
      {
        "type": "note_on",
        "time": 0,
        "note": 38,
        "velocity": 0,
        "channel": 9
      },
      {
        "type": "note_on",
        "time": 45,
        "note": 46,
        "velocity": 100,
        "channel": 9
      },
      {
        "type": "note_on",
        "time": 15,
        "note": 46,
        "velocity": 0,
        "channel": 9
      },
      {
        "type": "note_on",
        "time": 45,
        "note": 44,
        "velocity": 100,
        "channel": 9
      },
      {
        "type": "note_on",
        "time": 0,
        "note": 36,
        "velocity": 100,
        "channel": 9
      },
      {
        "type": "note_on",
        "time": 15,
        "note": 36,
        "velocity": 0,
        "channel": 9
      },
      {
        "type": "note_on",
        "time": 0,
        "note": 44,
        "velocity": 0,
        "channel": 9
      },
      {
        "type": "note_on",
        "time": 45,
        "note": 46,
        "velocity": 100,
        "channel": 9
      },
      {
        "type": "note_on",
        "time": 15,
        "note": 46,
        "velocity": 0,
        "channel": 9
      },
      {
        "type": "note_on",
        "time": 45,
        "note": 44,
        "velocity": 100,
        "channel": 9
      },
      {
        "type": "note_on",
        "time": 0,
        "note": 38,
        "velocity": 100,
        "channel": 9
      },
      {
        "type": "note_on",
        "time": 15,
        "note": 38,
        "velocity": 0,
        "channel": 9
      },
      {
        "type": "note_on",
        "time": 0,
        "note": 44,
        "velocity": 0,
        "channel": 9
      },
      {
        "type": "note_on",
        "time": 45,
        "note": 46,
        "velocity": 100,
        "channel": 9
      },
      {
        "type": "note_on",
        "time": 15,
        "note": 46,
        "velocity": 0,
        "channel": 9
      },
      {
        "type": "note_on",
        "time": 45,
        "note": 44,
        "velocity": 100,
        "channel": 9
      },
      {
        "type": "note_on",
        "time": 0,
        "note": 36,
        "velocity": 100,
        "channel": 9
      },
      {
        "type": "note_on",
        "time": 15,
        "note": 36,
        "velocity": 0,
        "channel": 9
      },
      {
        "type": "note_on",
        "time": 0,
        "note": 44,
        "velocity": 0,
        "channel": 9
      },
      {
        "type": "note_on",
        "time": 45,
        "note": 46,
        "velocity": 100,
        "channel": 9
      },
      {
        "type": "note_on",
        "time": 15,
        "note": 46,
        "velocity": 0,
        "channel": 9
      },
      {
        "type": "note_on",
        "time": 45,
        "note": 38,
        "velocity": 100,
        "channel": 9
      },
      {
        "type": "note_on",
        "time": 0,
        "note": 44,
        "velocity": 100,
        "channel": 9
      },
      {
        "type": "note_on",
        "time": 15,
        "note": 44,
        "velocity": 0,
        "channel": 9
      },
      {
        "type": "note_on",
        "time": 0,
        "note": 38,
        "velocity": 0,
        "channel": 9
      },
      {
        "type": "note_on",
        "time": 45,
        "note": 46,
        "velocity": 100,
        "channel": 9
      },
      {
        "type": "note_on",
        "time": 15,
        "note": 46,
        "velocity": 0,
        "channel": 9
      },
      {
        "type": "note_on",
        "time": 45,
        "note": 44,
        "velocity": 100,
        "channel": 9
      },
      {
        "type": "note_on",
        "time": 0,
        "note": 36,
        "velocity": 100,
        "channel": 9
      },
      {
        "type": "note_on",
        "time": 15,
        "note": 36,
        "velocity": 0,
        "channel": 9
      },
      {
        "type": "note_on",
        "time": 0,
        "note": 44,
        "velocity": 0,
        "channel": 9
      },
      {
        "type": "note_on",
        "time": 45,
        "note": 46,
        "velocity": 100,
        "channel": 9
      },
      {
        "type": "note_on",
        "time": 15,
        "note": 46,
        "velocity": 0,
        "channel": 9
      },
      {
        "type": "note_on",
        "time": 45,
        "note": 44,
        "velocity": 100,
        "channel": 9
      },
      {
        "type": "note_on",
        "time": 0,
        "note": 38,
        "velocity": 100,
        "channel": 9
      },
      {
        "type": "note_on",
        "time": 15,
        "note": 38,
        "velocity": 0,
        "channel": 9
      },
      {
        "type": "note_on",
        "time": 0,
        "note": 44,
        "velocity": 0,
        "channel": 9
      },
      {
        "type": "note_on",
        "time": 45,
        "note": 46,
        "velocity": 100,
        "channel": 9
      },
      {
        "type": "note_on",
        "time": 15,
        "note": 46,
        "velocity": 0,
        "channel": 9
      },
      {
        "type": "note_on",
        "time": 45,
        "note": 44,
        "velocity": 100,
        "channel": 9
      },
      {
        "type": "note_on",
        "time": 0,
        "note": 36,
        "velocity": 100,
        "channel": 9
      },
      {
        "type": "note_on",
        "time": 15,
        "note": 36,
        "velocity": 0,
        "channel": 9
      },
      {
        "type": "note_on",
        "time": 0,
        "note": 44,
        "velocity": 0,
        "channel": 9
      },
      {
        "type": "note_on",
        "time": 45,
        "note": 46,
        "velocity": 100,
        "channel": 9
      },
      {
        "type": "note_on",
        "time": 15,
        "note": 46,
        "velocity": 0,
        "channel": 9
      },
      {
        "type": "note_on",
        "time": 45,
        "note": 38,
        "velocity": 100,
        "channel": 9
      },
      {
        "type": "note_on",
        "time": 0,
        "note": 44,
        "velocity": 100,
        "channel": 9
      },
      {
        "type": "note_on",
        "time": 15,
        "note": 44,
        "velocity": 0,
        "channel": 9
      },
      {
        "type": "note_on",
        "time": 0,
        "note": 38,
        "velocity": 0,
        "channel": 9
      },
      {
        "type": "note_on",
        "time": 45,
        "note": 46,
        "velocity": 100,
        "channel": 9
      },
      {
        "type": "note_on",
        "time": 15,
        "note": 46,
        "velocity": 0,
        "channel": 9
      },
      {
        "type": "note_on",
        "time": 45,
        "note": 44,
        "velocity": 100,
        "channel": 9
      },
      {
        "type": "note_on",
        "time": 0,
        "note": 36,
        "velocity": 100,
        "channel": 9
      },
      {
        "type": "note_on",
        "time": 15,
        "note": 36,
        "velocity": 0,
        "channel": 9
      },
      {
        "type": "note_on",
        "time": 0,
        "note": 44,
        "velocity": 0,
        "channel": 9
      },
      {
        "type": "note_on",
        "time": 45,
        "note": 46,
        "velocity": 100,
        "channel": 9
      },
      {
        "type": "note_on",
        "time": 15,
        "note": 46,
        "velocity": 0,
        "channel": 9
      },
      {
        "type": "note_on",
        "time": 45,
        "note": 44,
        "velocity": 100,
        "channel": 9
      },
      {
        "type": "note_on",
        "time": 0,
        "note": 38,
        "velocity": 100,
        "channel": 9
      },
      {
        "type": "note_on",
        "time": 15,
        "note": 38,
        "velocity": 0,
        "channel": 9
      },
      {
        "type": "note_on",
        "time": 0,
        "note": 44,
        "velocity": 0,
        "channel": 9
      },
      {
        "type": "note_on",
        "time": 45,
        "note": 46,
        "velocity": 100,
        "channel": 9
      },
      {
        "type": "note_on",
        "time": 15,
        "note": 46,
        "velocity": 0,
        "channel": 9
      },
      {
        "type": "note_on",
        "time": 45,
        "note": 44,
        "velocity": 100,
        "channel": 9
      },
      {
        "type": "note_on",
        "time": 0,
        "note": 36,
        "velocity": 100,
        "channel": 9
      },
      {
        "type": "note_on",
        "time": 15,
        "note": 36,
        "velocity": 0,
        "channel": 9
      },
      {
        "type": "note_on",
        "time": 0,
        "note": 44,
        "velocity": 0,
        "channel": 9
      },
      {
        "type": "note_on",
        "time": 45,
        "note": 46,
        "velocity": 100,
        "channel": 9
      },
      {
        "type": "note_on",
        "time": 15,
        "note": 46,
        "velocity": 0,
        "channel": 9
      },
      {
        "type": "note_on",
        "time": 45,
        "note": 38,
        "velocity": 100,
        "channel": 9
      },
      {
        "type": "note_on",
        "time": 0,
        "note": 44,
        "velocity": 100,
        "channel": 9
      },
      {
        "type": "note_on",
        "time": 15,
        "note": 44,
        "velocity": 0,
        "channel": 9
      },
      {
        "type": "note_on",
        "time": 0,
        "note": 38,
        "velocity": 0,
        "channel": 9
      },
      {
        "type": "note_on",
        "time": 45,
        "note": 46,
        "velocity": 100,
        "channel": 9
      },
      {
        "type": "note_on",
        "time": 15,
        "note": 46,
        "velocity": 0,
        "channel": 9
      },
      {
        "type": "note_on",
        "time": 45,
        "note": 44,
        "velocity": 100,
        "channel": 9
      },
      {
        "type": "note_on",
        "time": 0,
        "note": 36,
        "velocity": 100,
        "channel": 9
      },
      {
        "type": "note_on",
        "time": 15,
        "note": 36,
        "velocity": 0,
        "channel": 9
      },
      {
        "type": "note_on",
        "time": 0,
        "note": 44,
        "velocity": 0,
        "channel": 9
      },
      {
        "type": "note_on",
        "time": 45,
        "note": 46,
        "velocity": 100,
        "channel": 9
      },
      {
        "type": "note_on",
        "time": 15,
        "note": 46,
        "velocity": 0,
        "channel": 9
      },
      {
        "type": "note_on",
        "time": 45,
        "note": 44,
        "velocity": 100,
        "channel": 9
      },
      {
        "type": "note_on",
        "time": 0,
        "note": 38,
        "velocity": 100,
        "channel": 9
      },
      {
        "type": "note_on",
        "time": 15,
        "note": 38,
        "velocity": 0,
        "channel": 9
      },
      {
        "type": "note_on",
        "time": 0,
        "note": 44,
        "velocity": 0,
        "channel": 9
      },
      {
        "type": "note_on",
        "time": 45,
        "note": 46,
        "velocity": 100,
        "channel": 9
      },
      {
        "type": "note_on",
        "time": 15,
        "note": 46,
        "velocity": 0,
        "channel": 9
      },
      {
        "type": "note_on",
        "time": 45,
        "note": 44,
        "velocity": 100,
        "channel": 9
      },
      {
        "type": "note_on",
        "time": 0,
        "note": 36,
        "velocity": 100,
        "channel": 9
      },
      {
        "type": "note_on",
        "time": 15,
        "note": 36,
        "velocity": 0,
        "channel": 9
      },
      {
        "type": "note_on",
        "time": 0,
        "note": 44,
        "velocity": 0,
        "channel": 9
      },
      {
        "type": "note_on",
        "time": 45,
        "note": 46,
        "velocity": 100,
        "channel": 9
      },
      {
        "type": "note_on",
        "time": 15,
        "note": 46,
        "velocity": 0,
        "channel": 9
      },
      {
        "type": "note_on",
        "time": 45,
        "note": 38,
        "velocity": 100,
        "channel": 9
      },
      {
        "type": "note_on",
        "time": 0,
        "note": 44,
        "velocity": 100,
        "channel": 9
      },
      {
        "type": "note_on",
        "time": 15,
        "note": 44,
        "velocity": 0,
        "channel": 9
      },
      {
        "type": "note_on",
        "time": 0,
        "note": 38,
        "velocity": 0,
        "channel": 9
      },
      {
        "type": "note_on",
        "time": 45,
        "note": 46,
        "velocity": 100,
        "channel": 9
      },
      {
        "type": "note_on",
        "time": 15,
        "note": 46,
        "velocity": 0,
        "channel": 9
      },
      {
        "type": "note_on",
        "time": 45,
        "note": 44,
        "velocity": 100,
        "channel": 9
      },
      {
        "type": "note_on",
        "time": 0,
        "note": 36,
        "velocity": 100,
        "channel": 9
      },
      {
        "type": "note_on",
        "time": 15,
        "note": 36,
        "velocity": 0,
        "channel": 9
      },
      {
        "type": "note_on",
        "time": 0,
        "note": 44,
        "velocity": 0,
        "channel": 9
      },
      {
        "type": "note_on",
        "time": 45,
        "note": 46,
        "velocity": 100,
        "channel": 9
      },
      {
        "type": "note_on",
        "time": 15,
        "note": 46,
        "velocity": 0,
        "channel": 9
      },
      {
        "type": "note_on",
        "time": 45,
        "note": 44,
        "velocity": 100,
        "channel": 9
      },
      {
        "type": "note_on",
        "time": 0,
        "note": 38,
        "velocity": 100,
        "channel": 9
      },
      {
        "type": "note_on",
        "time": 15,
        "note": 38,
        "velocity": 0,
        "channel": 9
      },
      {
        "type": "note_on",
        "time": 0,
        "note": 44,
        "velocity": 0,
        "channel": 9
      },
      {
        "type": "note_on",
        "time": 45,
        "note": 46,
        "velocity": 100,
        "channel": 9
      },
      {
        "type": "note_on",
        "time": 15,
        "note": 46,
        "velocity": 0,
        "channel": 9
      },
      {
        "type": "note_on",
        "time": 45,
        "note": 44,
        "velocity": 100,
        "channel": 9
      },
      {
        "type": "note_on",
        "time": 0,
        "note": 36,
        "velocity": 100,
        "channel": 9
      },
      {
        "type": "note_on",
        "time": 15,
        "note": 36,
        "velocity": 0,
        "channel": 9
      },
      {
        "type": "note_on",
        "time": 0,
        "note": 44,
        "velocity": 0,
        "channel": 9
      },
      {
        "type": "note_on",
        "time": 45,
        "note": 46,
        "velocity": 100,
        "channel": 9
      },
      {
        "type": "note_on",
        "time": 15,
        "note": 46,
        "velocity": 0,
        "channel": 9
      },
      {
        "type": "note_on",
        "time": 45,
        "note": 38,
        "velocity": 100,
        "channel": 9
      },
      {
        "type": "note_on",
        "time": 0,
        "note": 44,
        "velocity": 100,
        "channel": 9
      },
      {
        "type": "note_on",
        "time": 15,
        "note": 44,
        "velocity": 0,
        "channel": 9
      },
      {
        "type": "note_on",
        "time": 0,
        "note": 38,
        "velocity": 0,
        "channel": 9
      },
      {
        "type": "note_on",
        "time": 45,
        "note": 46,
        "velocity": 100,
        "channel": 9
      },
      {
        "type": "note_on",
        "time": 15,
        "note": 46,
        "velocity": 0,
        "channel": 9
      },
      {
        "type": "note_on",
        "time": 45,
        "note": 44,
        "velocity": 100,
        "channel": 9
      },
      {
        "type": "note_on",
        "time": 0,
        "note": 36,
        "velocity": 100,
        "channel": 9
      },
      {
        "type": "note_on",
        "time": 15,
        "note": 36,
        "velocity": 0,
        "channel": 9
      },
      {
        "type": "note_on",
        "time": 0,
        "note": 44,
        "velocity": 0,
        "channel": 9
      },
      {
        "type": "note_on",
        "time": 45,
        "note": 46,
        "velocity": 100,
        "channel": 9
      },
      {
        "type": "note_on",
        "time": 15,
        "note": 46,
        "velocity": 0,
        "channel": 9
      },
      {
        "type": "note_on",
        "time": 45,
        "note": 44,
        "velocity": 100,
        "channel": 9
      },
      {
        "type": "note_on",
        "time": 0,
        "note": 38,
        "velocity": 100,
        "channel": 9
      },
      {
        "type": "note_on",
        "time": 15,
        "note": 38,
        "velocity": 0,
        "channel": 9
      },
      {
        "type": "note_on",
        "time": 0,
        "note": 44,
        "velocity": 0,
        "channel": 9
      },
      {
        "type": "note_on",
        "time": 45,
        "note": 46,
        "velocity": 100,
        "channel": 9
      },
      {
        "type": "note_on",
        "time": 15,
        "note": 46,
        "velocity": 0,
        "channel": 9
      },
      {
        "type": "note_on",
        "time": 45,
        "note": 44,
        "velocity": 100,
        "channel": 9
      },
      {
        "type": "note_on",
        "time": 0,
        "note": 36,
        "velocity": 100,
        "channel": 9
      },
      {
        "type": "note_on",
        "time": 15,
        "note": 36,
        "velocity": 0,
        "channel": 9
      },
      {
        "type": "note_on",
        "time": 0,
        "note": 44,
        "velocity": 0,
        "channel": 9
      },
      {
        "type": "note_on",
        "time": 45,
        "note": 46,
        "velocity": 100,
        "channel": 9
      },
      {
        "type": "note_on",
        "time": 15,
        "note": 46,
        "velocity": 0,
        "channel": 9
      },
      {
        "type": "note_on",
        "time": 45,
        "note": 38,
        "velocity": 100,
        "channel": 9
      },
      {
        "type": "note_on",
        "time": 0,
        "note": 44,
        "velocity": 100,
        "channel": 9
      },
      {
        "type": "note_on",
        "time": 15,
        "note": 44,
        "velocity": 0,
        "channel": 9
      },
      {
        "type": "note_on",
        "time": 0,
        "note": 38,
        "velocity": 0,
        "channel": 9
      },
      {
        "type": "note_on",
        "time": 45,
        "note": 38,
        "velocity": 100,
        "channel": 9
      },
      {
        "type": "note_on",
        "time": 0,
        "note": 46,
        "velocity": 100,
        "channel": 9
      },
      {
        "type": "note_on",
        "time": 15,
        "note": 46,
        "velocity": 0,
        "channel": 9
      },
      {
        "type": "note_on",
        "time": 0,
        "note": 38,
        "velocity": 0,
        "channel": 9
      },
      {
        "type": "note_on",
        "time": 15,
        "note": 38,
        "velocity": 100,
        "channel": 9
      },
      {
        "type": "note_on",
        "time": 15,
        "note": 38,
        "velocity": 0,
        "channel": 9
      },
      {
        "type": "note_on",
        "time": 15,
        "note": 44,
        "velocity": 100,
        "channel": 9
      },
      {
        "type": "note_on",
        "time": 0,
        "note": 36,
        "velocity": 100,
        "channel": 9
      },
      {
        "type": "note_on",
        "time": 15,
        "note": 36,
        "velocity": 0,
        "channel": 9
      },
      {
        "type": "note_on",
        "time": 0,
        "note": 44,
        "velocity": 0,
        "channel": 9
      },
      {
        "type": "note_on",
        "time": 45,
        "note": 46,
        "velocity": 100,
        "channel": 9
      },
      {
        "type": "note_on",
        "time": 15,
        "note": 46,
        "velocity": 0,
        "channel": 9
      },
      {
        "type": "note_on",
        "time": 45,
        "note": 44,
        "velocity": 100,
        "channel": 9
      },
      {
        "type": "note_on",
        "time": 0,
        "note": 38,
        "velocity": 100,
        "channel": 9
      },
      {
        "type": "note_on",
        "time": 15,
        "note": 38,
        "velocity": 0,
        "channel": 9
      },
      {
        "type": "note_on",
        "time": 0,
        "note": 44,
        "velocity": 0,
        "channel": 9
      },
      {
        "type": "note_on",
        "time": 45,
        "note": 46,
        "velocity": 100,
        "channel": 9
      },
      {
        "type": "note_on",
        "time": 15,
        "note": 46,
        "velocity": 0,
        "channel": 9
      },
      {
        "type": "note_on",
        "time": 45,
        "note": 44,
        "velocity": 100,
        "channel": 9
      },
      {
        "type": "note_on",
        "time": 0,
        "note": 36,
        "velocity": 100,
        "channel": 9
      },
      {
        "type": "note_on",
        "time": 15,
        "note": 36,
        "velocity": 0,
        "channel": 9
      },
      {
        "type": "note_on",
        "time": 0,
        "note": 44,
        "velocity": 0,
        "channel": 9
      },
      {
        "type": "note_on",
        "time": 45,
        "note": 46,
        "velocity": 100,
        "channel": 9
      },
      {
        "type": "note_on",
        "time": 15,
        "note": 46,
        "velocity": 0,
        "channel": 9
      },
      {
        "type": "note_on",
        "time": 45,
        "note": 38,
        "velocity": 100,
        "channel": 9
      },
      {
        "type": "note_on",
        "time": 0,
        "note": 44,
        "velocity": 100,
        "channel": 9
      },
      {
        "type": "note_on",
        "time": 15,
        "note": 44,
        "velocity": 0,
        "channel": 9
      },
      {
        "type": "note_on",
        "time": 0,
        "note": 38,
        "velocity": 0,
        "channel": 9
      },
      {
        "type": "note_on",
        "time": 45,
        "note": 46,
        "velocity": 100,
        "channel": 9
      },
      {
        "type": "note_on",
        "time": 15,
        "note": 46,
        "velocity": 0,
        "channel": 9
      },
      {
        "type": "note_on",
        "time": 45,
        "note": 44,
        "velocity": 100,
        "channel": 9
      },
      {
        "type": "note_on",
        "time": 0,
        "note": 36,
        "velocity": 100,
        "channel": 9
      },
      {
        "type": "note_on",
        "time": 15,
        "note": 36,
        "velocity": 0,
        "channel": 9
      },
      {
        "type": "note_on",
        "time": 0,
        "note": 44,
        "velocity": 0,
        "channel": 9
      },
      {
        "type": "note_on",
        "time": 45,
        "note": 46,
        "velocity": 100,
        "channel": 9
      },
      {
        "type": "note_on",
        "time": 15,
        "note": 46,
        "velocity": 0,
        "channel": 9
      },
      {
        "type": "note_on",
        "time": 45,
        "note": 44,
        "velocity": 100,
        "channel": 9
      },
      {
        "type": "note_on",
        "time": 0,
        "note": 38,
        "velocity": 100,
        "channel": 9
      },
      {
        "type": "note_on",
        "time": 15,
        "note": 38,
        "velocity": 0,
        "channel": 9
      },
      {
        "type": "note_on",
        "time": 0,
        "note": 44,
        "velocity": 0,
        "channel": 9
      },
      {
        "type": "note_on",
        "time": 45,
        "note": 46,
        "velocity": 100,
        "channel": 9
      },
      {
        "type": "note_on",
        "time": 15,
        "note": 46,
        "velocity": 0,
        "channel": 9
      },
      {
        "type": "note_on",
        "time": 45,
        "note": 44,
        "velocity": 100,
        "channel": 9
      },
      {
        "type": "note_on",
        "time": 0,
        "note": 36,
        "velocity": 100,
        "channel": 9
      },
      {
        "type": "note_on",
        "time": 15,
        "note": 36,
        "velocity": 0,
        "channel": 9
      },
      {
        "type": "note_on",
        "time": 0,
        "note": 44,
        "velocity": 0,
        "channel": 9
      },
      {
        "type": "note_on",
        "time": 45,
        "note": 46,
        "velocity": 100,
        "channel": 9
      },
      {
        "type": "note_on",
        "time": 15,
        "note": 46,
        "velocity": 0,
        "channel": 9
      },
      {
        "type": "note_on",
        "time": 45,
        "note": 38,
        "velocity": 100,
        "channel": 9
      },
      {
        "type": "note_on",
        "time": 0,
        "note": 44,
        "velocity": 100,
        "channel": 9
      },
      {
        "type": "note_on",
        "time": 15,
        "note": 44,
        "velocity": 0,
        "channel": 9
      },
      {
        "type": "note_on",
        "time": 0,
        "note": 38,
        "velocity": 0,
        "channel": 9
      },
      {
        "type": "note_on",
        "time": 45,
        "note": 46,
        "velocity": 100,
        "channel": 9
      },
      {
        "type": "note_on",
        "time": 15,
        "note": 46,
        "velocity": 0,
        "channel": 9
      },
      {
        "type": "note_on",
        "time": 45,
        "note": 44,
        "velocity": 100,
        "channel": 9
      },
      {
        "type": "note_on",
        "time": 0,
        "note": 36,
        "velocity": 100,
        "channel": 9
      },
      {
        "type": "note_on",
        "time": 15,
        "note": 36,
        "velocity": 0,
        "channel": 9
      },
      {
        "type": "note_on",
        "time": 0,
        "note": 44,
        "velocity": 0,
        "channel": 9
      },
      {
        "type": "note_on",
        "time": 45,
        "note": 46,
        "velocity": 100,
        "channel": 9
      },
      {
        "type": "note_on",
        "time": 15,
        "note": 46,
        "velocity": 0,
        "channel": 9
      },
      {
        "type": "note_on",
        "time": 45,
        "note": 44,
        "velocity": 100,
        "channel": 9
      },
      {
        "type": "note_on",
        "time": 0,
        "note": 38,
        "velocity": 100,
        "channel": 9
      },
      {
        "type": "note_on",
        "time": 15,
        "note": 38,
        "velocity": 0,
        "channel": 9
      },
      {
        "type": "note_on",
        "time": 0,
        "note": 44,
        "velocity": 0,
        "channel": 9
      },
      {
        "type": "note_on",
        "time": 45,
        "note": 46,
        "velocity": 100,
        "channel": 9
      },
      {
        "type": "note_on",
        "time": 15,
        "note": 46,
        "velocity": 0,
        "channel": 9
      },
      {
        "type": "note_on",
        "time": 45,
        "note": 44,
        "velocity": 100,
        "channel": 9
      },
      {
        "type": "note_on",
        "time": 0,
        "note": 36,
        "velocity": 100,
        "channel": 9
      },
      {
        "type": "note_on",
        "time": 15,
        "note": 36,
        "velocity": 0,
        "channel": 9
      },
      {
        "type": "note_on",
        "time": 0,
        "note": 44,
        "velocity": 0,
        "channel": 9
      },
      {
        "type": "note_on",
        "time": 45,
        "note": 46,
        "velocity": 100,
        "channel": 9
      },
      {
        "type": "note_on",
        "time": 15,
        "note": 46,
        "velocity": 0,
        "channel": 9
      },
      {
        "type": "note_on",
        "time": 45,
        "note": 38,
        "velocity": 100,
        "channel": 9
      },
      {
        "type": "note_on",
        "time": 0,
        "note": 44,
        "velocity": 100,
        "channel": 9
      },
      {
        "type": "note_on",
        "time": 15,
        "note": 44,
        "velocity": 0,
        "channel": 9
      },
      {
        "type": "note_on",
        "time": 0,
        "note": 38,
        "velocity": 0,
        "channel": 9
      },
      {
        "type": "note_on",
        "time": 45,
        "note": 46,
        "velocity": 100,
        "channel": 9
      },
      {
        "type": "note_on",
        "time": 15,
        "note": 46,
        "velocity": 0,
        "channel": 9
      },
      {
        "type": "note_on",
        "time": 45,
        "note": 44,
        "velocity": 100,
        "channel": 9
      },
      {
        "type": "note_on",
        "time": 0,
        "note": 36,
        "velocity": 100,
        "channel": 9
      },
      {
        "type": "note_on",
        "time": 15,
        "note": 36,
        "velocity": 0,
        "channel": 9
      },
      {
        "type": "note_on",
        "time": 0,
        "note": 44,
        "velocity": 0,
        "channel": 9
      },
      {
        "type": "note_on",
        "time": 45,
        "note": 46,
        "velocity": 100,
        "channel": 9
      },
      {
        "type": "note_on",
        "time": 15,
        "note": 46,
        "velocity": 0,
        "channel": 9
      },
      {
        "type": "note_on",
        "time": 45,
        "note": 44,
        "velocity": 100,
        "channel": 9
      },
      {
        "type": "note_on",
        "time": 0,
        "note": 38,
        "velocity": 100,
        "channel": 9
      },
      {
        "type": "note_on",
        "time": 15,
        "note": 38,
        "velocity": 0,
        "channel": 9
      },
      {
        "type": "note_on",
        "time": 0,
        "note": 44,
        "velocity": 0,
        "channel": 9
      },
      {
        "type": "note_on",
        "time": 45,
        "note": 46,
        "velocity": 100,
        "channel": 9
      },
      {
        "type": "note_on",
        "time": 15,
        "note": 46,
        "velocity": 0,
        "channel": 9
      },
      {
        "type": "note_on",
        "time": 45,
        "note": 44,
        "velocity": 100,
        "channel": 9
      },
      {
        "type": "note_on",
        "time": 0,
        "note": 36,
        "velocity": 100,
        "channel": 9
      },
      {
        "type": "note_on",
        "time": 15,
        "note": 36,
        "velocity": 0,
        "channel": 9
      },
      {
        "type": "note_on",
        "time": 0,
        "note": 44,
        "velocity": 0,
        "channel": 9
      },
      {
        "type": "note_on",
        "time": 45,
        "note": 46,
        "velocity": 100,
        "channel": 9
      },
      {
        "type": "note_on",
        "time": 15,
        "note": 46,
        "velocity": 0,
        "channel": 9
      },
      {
        "type": "note_on",
        "time": 45,
        "note": 38,
        "velocity": 100,
        "channel": 9
      },
      {
        "type": "note_on",
        "time": 0,
        "note": 44,
        "velocity": 100,
        "channel": 9
      },
      {
        "type": "note_on",
        "time": 15,
        "note": 44,
        "velocity": 0,
        "channel": 9
      },
      {
        "type": "note_on",
        "time": 0,
        "note": 38,
        "velocity": 0,
        "channel": 9
      },
      {
        "type": "note_on",
        "time": 45,
        "note": 46,
        "velocity": 100,
        "channel": 9
      },
      {
        "type": "note_on",
        "time": 15,
        "note": 46,
        "velocity": 0,
        "channel": 9
      },
      {
        "type": "note_on",
        "time": 45,
        "note": 44,
        "velocity": 100,
        "channel": 9
      },
      {
        "type": "note_on",
        "time": 0,
        "note": 36,
        "velocity": 100,
        "channel": 9
      },
      {
        "type": "note_on",
        "time": 15,
        "note": 36,
        "velocity": 0,
        "channel": 9
      },
      {
        "type": "note_on",
        "time": 0,
        "note": 44,
        "velocity": 0,
        "channel": 9
      },
      {
        "type": "note_on",
        "time": 45,
        "note": 46,
        "velocity": 100,
        "channel": 9
      },
      {
        "type": "note_on",
        "time": 15,
        "note": 46,
        "velocity": 0,
        "channel": 9
      },
      {
        "type": "note_on",
        "time": 45,
        "note": 44,
        "velocity": 100,
        "channel": 9
      },
      {
        "type": "note_on",
        "time": 0,
        "note": 38,
        "velocity": 100,
        "channel": 9
      },
      {
        "type": "note_on",
        "time": 15,
        "note": 38,
        "velocity": 0,
        "channel": 9
      },
      {
        "type": "note_on",
        "time": 0,
        "note": 44,
        "velocity": 0,
        "channel": 9
      },
      {
        "type": "note_on",
        "time": 45,
        "note": 46,
        "velocity": 100,
        "channel": 9
      },
      {
        "type": "note_on",
        "time": 15,
        "note": 46,
        "velocity": 0,
        "channel": 9
      },
      {
        "type": "note_on",
        "time": 45,
        "note": 44,
        "velocity": 100,
        "channel": 9
      },
      {
        "type": "note_on",
        "time": 0,
        "note": 36,
        "velocity": 100,
        "channel": 9
      },
      {
        "type": "note_on",
        "time": 15,
        "note": 36,
        "velocity": 0,
        "channel": 9
      },
      {
        "type": "note_on",
        "time": 0,
        "note": 44,
        "velocity": 0,
        "channel": 9
      },
      {
        "type": "note_on",
        "time": 45,
        "note": 46,
        "velocity": 100,
        "channel": 9
      },
      {
        "type": "note_on",
        "time": 15,
        "note": 46,
        "velocity": 0,
        "channel": 9
      },
      {
        "type": "note_on",
        "time": 45,
        "note": 38,
        "velocity": 100,
        "channel": 9
      },
      {
        "type": "note_on",
        "time": 0,
        "note": 44,
        "velocity": 100,
        "channel": 9
      },
      {
        "type": "note_on",
        "time": 15,
        "note": 44,
        "velocity": 0,
        "channel": 9
      },
      {
        "type": "note_on",
        "time": 0,
        "note": 38,
        "velocity": 0,
        "channel": 9
      },
      {
        "type": "note_on",
        "time": 45,
        "note": 46,
        "velocity": 100,
        "channel": 9
      },
      {
        "type": "note_on",
        "time": 15,
        "note": 46,
        "velocity": 0,
        "channel": 9
      },
      {
        "type": "note_on",
        "time": 45,
        "note": 44,
        "velocity": 100,
        "channel": 9
      },
      {
        "type": "note_on",
        "time": 0,
        "note": 36,
        "velocity": 100,
        "channel": 9
      },
      {
        "type": "note_on",
        "time": 15,
        "note": 36,
        "velocity": 0,
        "channel": 9
      },
      {
        "type": "note_on",
        "time": 0,
        "note": 44,
        "velocity": 0,
        "channel": 9
      },
      {
        "type": "note_on",
        "time": 45,
        "note": 46,
        "velocity": 100,
        "channel": 9
      },
      {
        "type": "note_on",
        "time": 15,
        "note": 46,
        "velocity": 0,
        "channel": 9
      },
      {
        "type": "note_on",
        "time": 45,
        "note": 44,
        "velocity": 100,
        "channel": 9
      },
      {
        "type": "note_on",
        "time": 0,
        "note": 38,
        "velocity": 100,
        "channel": 9
      },
      {
        "type": "note_on",
        "time": 15,
        "note": 38,
        "velocity": 0,
        "channel": 9
      },
      {
        "type": "note_on",
        "time": 0,
        "note": 44,
        "velocity": 0,
        "channel": 9
      },
      {
        "type": "note_on",
        "time": 45,
        "note": 46,
        "velocity": 100,
        "channel": 9
      },
      {
        "type": "note_on",
        "time": 15,
        "note": 46,
        "velocity": 0,
        "channel": 9
      },
      {
        "type": "note_on",
        "time": 45,
        "note": 44,
        "velocity": 100,
        "channel": 9
      },
      {
        "type": "note_on",
        "time": 0,
        "note": 36,
        "velocity": 100,
        "channel": 9
      },
      {
        "type": "note_on",
        "time": 15,
        "note": 36,
        "velocity": 0,
        "channel": 9
      },
      {
        "type": "note_on",
        "time": 0,
        "note": 44,
        "velocity": 0,
        "channel": 9
      },
      {
        "type": "note_on",
        "time": 45,
        "note": 46,
        "velocity": 100,
        "channel": 9
      },
      {
        "type": "note_on",
        "time": 15,
        "note": 46,
        "velocity": 0,
        "channel": 9
      },
      {
        "type": "note_on",
        "time": 45,
        "note": 38,
        "velocity": 100,
        "channel": 9
      },
      {
        "type": "note_on",
        "time": 0,
        "note": 44,
        "velocity": 100,
        "channel": 9
      },
      {
        "type": "note_on",
        "time": 15,
        "note": 44,
        "velocity": 0,
        "channel": 9
      },
      {
        "type": "note_on",
        "time": 0,
        "note": 38,
        "velocity": 0,
        "channel": 9
      },
      {
        "type": "note_on",
        "time": 45,
        "note": 46,
        "velocity": 100,
        "channel": 9
      },
      {
        "type": "note_on",
        "time": 15,
        "note": 46,
        "velocity": 0,
        "channel": 9
      },
      {
        "type": "note_on",
        "time": 45,
        "note": 44,
        "velocity": 100,
        "channel": 9
      },
      {
        "type": "note_on",
        "time": 0,
        "note": 36,
        "velocity": 100,
        "channel": 9
      },
      {
        "type": "note_on",
        "time": 15,
        "note": 36,
        "velocity": 0,
        "channel": 9
      },
      {
        "type": "note_on",
        "time": 0,
        "note": 44,
        "velocity": 0,
        "channel": 9
      },
      {
        "type": "note_on",
        "time": 45,
        "note": 46,
        "velocity": 100,
        "channel": 9
      },
      {
        "type": "note_on",
        "time": 15,
        "note": 46,
        "velocity": 0,
        "channel": 9
      },
      {
        "type": "note_on",
        "time": 45,
        "note": 44,
        "velocity": 100,
        "channel": 9
      },
      {
        "type": "note_on",
        "time": 0,
        "note": 38,
        "velocity": 100,
        "channel": 9
      },
      {
        "type": "note_on",
        "time": 15,
        "note": 38,
        "velocity": 0,
        "channel": 9
      },
      {
        "type": "note_on",
        "time": 0,
        "note": 44,
        "velocity": 0,
        "channel": 9
      },
      {
        "type": "note_on",
        "time": 45,
        "note": 46,
        "velocity": 100,
        "channel": 9
      },
      {
        "type": "note_on",
        "time": 15,
        "note": 46,
        "velocity": 0,
        "channel": 9
      },
      {
        "type": "note_on",
        "time": 45,
        "note": 44,
        "velocity": 100,
        "channel": 9
      },
      {
        "type": "note_on",
        "time": 0,
        "note": 36,
        "velocity": 100,
        "channel": 9
      },
      {
        "type": "note_on",
        "time": 15,
        "note": 36,
        "velocity": 0,
        "channel": 9
      },
      {
        "type": "note_on",
        "time": 0,
        "note": 44,
        "velocity": 0,
        "channel": 9
      },
      {
        "type": "note_on",
        "time": 45,
        "note": 46,
        "velocity": 100,
        "channel": 9
      },
      {
        "type": "note_on",
        "time": 15,
        "note": 46,
        "velocity": 0,
        "channel": 9
      },
      {
        "type": "note_on",
        "time": 45,
        "note": 38,
        "velocity": 100,
        "channel": 9
      },
      {
        "type": "note_on",
        "time": 0,
        "note": 44,
        "velocity": 100,
        "channel": 9
      },
      {
        "type": "note_on",
        "time": 15,
        "note": 44,
        "velocity": 0,
        "channel": 9
      },
      {
        "type": "note_on",
        "time": 0,
        "note": 38,
        "velocity": 0,
        "channel": 9
      },
      {
        "type": "note_on",
        "time": 45,
        "note": 46,
        "velocity": 100,
        "channel": 9
      },
      {
        "type": "note_on",
        "time": 15,
        "note": 46,
        "velocity": 0,
        "channel": 9
      },
      {
        "type": "note_on",
        "time": 45,
        "note": 49,
        "velocity": 100,
        "channel": 9
      },
      {
        "type": "note_on",
        "time": 0,
        "note": 36,
        "velocity": 100,
        "channel": 9
      },
      {
        "type": "note_on",
        "time": 15,
        "note": 36,
        "velocity": 0,
        "channel": 9
      },
      {
        "type": "note_on",
        "time": 0,
        "note": 49,
        "velocity": 0,
        "channel": 9
      },
      {
        "type": "note_on",
        "time": 45,
        "note": 46,
        "velocity": 100,
        "channel": 9
      },
      {
        "type": "note_on",
        "time": 15,
        "note": 46,
        "velocity": 0,
        "channel": 9
      },
      {
        "type": "note_on",
        "time": 45,
        "note": 49,
        "velocity": 100,
        "channel": 9
      },
      {
        "type": "note_on",
        "time": 0,
        "note": 38,
        "velocity": 100,
        "channel": 9
      },
      {
        "type": "note_on",
        "time": 15,
        "note": 38,
        "velocity": 0,
        "channel": 9
      },
      {
        "type": "note_on",
        "time": 0,
        "note": 49,
        "velocity": 0,
        "channel": 9
      },
      {
        "type": "note_on",
        "time": 45,
        "note": 46,
        "velocity": 100,
        "channel": 9
      },
      {
        "type": "note_on",
        "time": 15,
        "note": 46,
        "velocity": 0,
        "channel": 9
      },
      {
        "type": "note_on",
        "time": 45,
        "note": 49,
        "velocity": 100,
        "channel": 9
      },
      {
        "type": "note_on",
        "time": 0,
        "note": 36,
        "velocity": 100,
        "channel": 9
      },
      {
        "type": "note_on",
        "time": 15,
        "note": 36,
        "velocity": 0,
        "channel": 9
      },
      {
        "type": "note_on",
        "time": 0,
        "note": 49,
        "velocity": 0,
        "channel": 9
      },
      {
        "type": "note_on",
        "time": 45,
        "note": 49,
        "velocity": 100,
        "channel": 9
      },
      {
        "type": "note_on",
        "time": 0,
        "note": 46,
        "velocity": 100,
        "channel": 9
      },
      {
        "type": "note_on",
        "time": 15,
        "note": 46,
        "velocity": 0,
        "channel": 9
      },
      {
        "type": "note_on",
        "time": 0,
        "note": 49,
        "velocity": 0,
        "channel": 9
      },
      {
        "type": "note_on",
        "time": 45,
        "note": 49,
        "velocity": 100,
        "channel": 9
      },
      {
        "type": "note_on",
        "time": 0,
        "note": 38,
        "velocity": 100,
        "channel": 9
      },
      {
        "type": "note_on",
        "time": 15,
        "note": 38,
        "velocity": 0,
        "channel": 9
      },
      {
        "type": "note_on",
        "time": 0,
        "note": 49,
        "velocity": 0,
        "channel": 9
      },
      {
        "type": "note_on",
        "time": 45,
        "note": 49,
        "velocity": 100,
        "channel": 9
      },
      {
        "type": "note_on",
        "time": 15,
        "note": 49,
        "velocity": 0,
        "channel": 9
      },
      {
        "type": "note_on",
        "time": 45,
        "note": 36,
        "velocity": 100,
        "channel": 9
      },
      {
        "type": "note_on",
        "time": 0,
        "note": 38,
        "velocity": 100,
        "channel": 9
      },
      {
        "type": "note_on",
        "time": 0,
        "note": 49,
        "velocity": 100,
        "channel": 9
      },
      {
        "type": "note_on",
        "time": 0,
        "note": 52,
        "velocity": 100,
        "channel": 9
      },
      {
        "type": "note_on",
        "time": 15,
        "note": 52,
        "velocity": 0,
        "channel": 9
      },
      {
        "type": "note_on",
        "time": 0,
        "note": 36,
        "velocity": 0,
        "channel": 9
      },
      {
        "type": "note_on",
        "time": 0,
        "note": 38,
        "velocity": 0,
        "channel": 9
      },
      {
        "type": "note_on",
        "time": 0,
        "note": 49,
        "velocity": 0,
        "channel": 9
      },
      {
        "type": "note_on",
        "time": 1425,
        "note": 51,
        "velocity": 100,
        "channel": 9
      },
      {
        "type": "note_on",
        "time": 0,
        "note": 44,
        "velocity": 100,
        "channel": 9
      },
      {
        "type": "note_on",
        "time": 15,
        "note": 44,
        "velocity": 0,
        "channel": 9
      },
      {
        "type": "note_on",
        "time": 0,
        "note": 51,
        "velocity": 0,
        "channel": 9
      },
      {
        "type": "note_on",
        "time": 105,
        "note": 44,
        "velocity": 100,
        "channel": 9
      },
      {
        "type": "note_on",
        "time": 15,
        "note": 44,
        "velocity": 0,
        "channel": 9
      },
      {
        "type": "note_on",
        "time": 79,
        "note": 38,
        "velocity": 100,
        "channel": 9
      },
      {
        "type": "note_on",
        "time": 8,
        "note": 38,
        "velocity": 100,
        "channel": 9
      },
      {
        "type": "note_on",
        "time": 7,
        "note": 38,
        "velocity": 0,
        "channel": 9
      },
      {
        "type": "note_on",
        "time": 3,
        "note": 38,
        "velocity": 100,
        "channel": 9
      },
      {
        "type": "note_on",
        "time": 5,
        "note": 38,
        "velocity": 0,
        "channel": 9
      },
      {
        "type": "note_on",
        "time": 3,
        "note": 35,
        "velocity": 100,
        "channel": 9
      },
      {
        "type": "note_on",
        "time": 7,
        "note": 38,
        "velocity": 0,
        "channel": 9
      },
      {
        "type": "note_on",
        "time": 8,
        "note": 35,
        "velocity": 0,
        "channel": 9
      },
      {
        "type": "note_on",
        "time": 15,
        "note": 38,
        "velocity": 100,
        "channel": 9
      },
      {
        "type": "note_on",
        "time": 15,
        "note": 38,
        "velocity": 0,
        "channel": 9
      },
      {
        "type": "note_on",
        "time": 15,
        "note": 38,
        "velocity": 100,
        "channel": 9
      },
      {
        "type": "note_on",
        "time": 15,
        "note": 38,
        "velocity": 0,
        "channel": 9
      },
      {
        "type": "note_on",
        "time": 15,
        "note": 38,
        "velocity": 100,
        "channel": 9
      },
      {
        "type": "note_on",
        "time": 15,
        "note": 38,
        "velocity": 0,
        "channel": 9
      },
      {
        "type": "note_on",
        "time": 15,
        "note": 35,
        "velocity": 100,
        "channel": 9
      },
      {
        "type": "note_on",
        "time": 15,
        "note": 35,
        "velocity": 0,
        "channel": 9
      },
      {
        "type": "note_on",
        "time": 15,
        "note": 40,
        "velocity": 100,
        "channel": 9
      },
      {
        "type": "note_on",
        "time": 0,
        "note": 38,
        "velocity": 100,
        "channel": 9
      },
      {
        "type": "note_on",
        "time": 15,
        "note": 38,
        "velocity": 0,
        "channel": 9
      },
      {
        "type": "note_on",
        "time": 0,
        "note": 40,
        "velocity": 0,
        "channel": 9
      },
      {
        "type": "note_on",
        "time": 15,
        "note": 40,
        "velocity": 100,
        "channel": 9
      },
      {
        "type": "note_on",
        "time": 0,
        "note": 38,
        "velocity": 100,
        "channel": 9
      },
      {
        "type": "note_on",
        "time": 15,
        "note": 38,
        "velocity": 0,
        "channel": 9
      },
      {
        "type": "note_on",
        "time": 0,
        "note": 40,
        "velocity": 0,
        "channel": 9
      },
      {
        "type": "note_on",
        "time": 15,
        "note": 40,
        "velocity": 100,
        "channel": 9
      },
      {
        "type": "note_on",
        "time": 0,
        "note": 38,
        "velocity": 100,
        "channel": 9
      },
      {
        "type": "note_on",
        "time": 15,
        "note": 38,
        "velocity": 0,
        "channel": 9
      },
      {
        "type": "note_on",
        "time": 0,
        "note": 40,
        "velocity": 0,
        "channel": 9
      },
      {
        "type": "note_on",
        "time": 15,
        "note": 46,
        "velocity": 100,
        "channel": 9
      },
      {
        "type": "note_on",
        "time": 0,
        "note": 36,
        "velocity": 100,
        "channel": 9
      },
      {
        "type": "note_on",
        "time": 15,
        "note": 36,
        "velocity": 0,
        "channel": 9
      },
      {
        "type": "note_on",
        "time": 0,
        "note": 46,
        "velocity": 0,
        "channel": 9
      },
      {
        "type": "note_on",
        "time": 41,
        "note": 36,
        "velocity": 100,
        "channel": 9
      },
      {
        "type": "note_on",
        "time": 4,
        "note": 46,
        "velocity": 100,
        "channel": 9
      },
      {
        "type": "note_on",
        "time": 11,
        "note": 36,
        "velocity": 0,
        "channel": 9
      },
      {
        "type": "note_on",
        "time": 4,
        "note": 46,
        "velocity": 0,
        "channel": 9
      },
      {
        "type": "note_on",
        "time": 43,
        "note": 40,
        "velocity": 100,
        "channel": 9
      },
      {
        "type": "note_on",
        "time": 0,
        "note": 38,
        "velocity": 100,
        "channel": 9
      },
      {
        "type": "note_on",
        "time": 2,
        "note": 46,
        "velocity": 100,
        "channel": 9
      },
      {
        "type": "note_on",
        "time": 13,
        "note": 38,
        "velocity": 0,
        "channel": 9
      },
      {
        "type": "note_on",
        "time": 0,
        "note": 40,
        "velocity": 0,
        "channel": 9
      },
      {
        "type": "note_on",
        "time": 2,
        "note": 46,
        "velocity": 0,
        "channel": 9
      },
      {
        "type": "note_on",
        "time": 45,
        "note": 46,
        "velocity": 100,
        "channel": 9
      },
      {
        "type": "note_on",
        "time": 0,
        "note": 36,
        "velocity": 100,
        "channel": 9
      },
      {
        "type": "note_on",
        "time": 15,
        "note": 36,
        "velocity": 0,
        "channel": 9
      },
      {
        "type": "note_on",
        "time": 0,
        "note": 46,
        "velocity": 0,
        "channel": 9
      },
      {
        "type": "note_on",
        "time": 45,
        "note": 46,
        "velocity": 100,
        "channel": 9
      },
      {
        "type": "note_on",
        "time": 15,
        "note": 46,
        "velocity": 0,
        "channel": 9
      },
      {
        "type": "note_on",
        "time": 45,
        "note": 46,
        "velocity": 100,
        "channel": 9
      },
      {
        "type": "note_on",
        "time": 0,
        "note": 36,
        "velocity": 100,
        "channel": 9
      },
      {
        "type": "note_on",
        "time": 15,
        "note": 36,
        "velocity": 0,
        "channel": 9
      },
      {
        "type": "note_on",
        "time": 0,
        "note": 46,
        "velocity": 0,
        "channel": 9
      },
      {
        "type": "note_on",
        "time": 45,
        "note": 46,
        "velocity": 100,
        "channel": 9
      },
      {
        "type": "note_on",
        "time": 0,
        "note": 40,
        "velocity": 100,
        "channel": 9
      },
      {
        "type": "note_on",
        "time": 0,
        "note": 38,
        "velocity": 100,
        "channel": 9
      },
      {
        "type": "note_on",
        "time": 15,
        "note": 38,
        "velocity": 0,
        "channel": 9
      },
      {
        "type": "note_on",
        "time": 0,
        "note": 40,
        "velocity": 0,
        "channel": 9
      },
      {
        "type": "note_on",
        "time": 0,
        "note": 46,
        "velocity": 0,
        "channel": 9
      },
      {
        "type": "note_on",
        "time": 45,
        "note": 46,
        "velocity": 100,
        "channel": 9
      },
      {
        "type": "note_on",
        "time": 15,
        "note": 46,
        "velocity": 0,
        "channel": 9
      },
      {
        "type": "note_on",
        "time": 45,
        "note": 46,
        "velocity": 100,
        "channel": 9
      },
      {
        "type": "note_on",
        "time": 0,
        "note": 36,
        "velocity": 100,
        "channel": 9
      },
      {
        "type": "note_on",
        "time": 15,
        "note": 36,
        "velocity": 0,
        "channel": 9
      },
      {
        "type": "note_on",
        "time": 0,
        "note": 46,
        "velocity": 0,
        "channel": 9
      },
      {
        "type": "note_on",
        "time": 45,
        "note": 46,
        "velocity": 100,
        "channel": 9
      },
      {
        "type": "note_on",
        "time": 0,
        "note": 36,
        "velocity": 100,
        "channel": 9
      },
      {
        "type": "note_on",
        "time": 15,
        "note": 36,
        "velocity": 0,
        "channel": 9
      },
      {
        "type": "note_on",
        "time": 0,
        "note": 46,
        "velocity": 0,
        "channel": 9
      },
      {
        "type": "note_on",
        "time": 45,
        "note": 46,
        "velocity": 100,
        "channel": 9
      },
      {
        "type": "note_on",
        "time": 0,
        "note": 40,
        "velocity": 100,
        "channel": 9
      },
      {
        "type": "note_on",
        "time": 0,
        "note": 38,
        "velocity": 100,
        "channel": 9
      },
      {
        "type": "note_on",
        "time": 15,
        "note": 38,
        "velocity": 0,
        "channel": 9
      },
      {
        "type": "note_on",
        "time": 0,
        "note": 40,
        "velocity": 0,
        "channel": 9
      },
      {
        "type": "note_on",
        "time": 0,
        "note": 46,
        "velocity": 0,
        "channel": 9
      },
      {
        "type": "note_on",
        "time": 45,
        "note": 46,
        "velocity": 100,
        "channel": 9
      },
      {
        "type": "note_on",
        "time": 0,
        "note": 36,
        "velocity": 100,
        "channel": 9
      },
      {
        "type": "note_on",
        "time": 15,
        "note": 36,
        "velocity": 0,
        "channel": 9
      },
      {
        "type": "note_on",
        "time": 0,
        "note": 46,
        "velocity": 0,
        "channel": 9
      },
      {
        "type": "note_on",
        "time": 45,
        "note": 46,
        "velocity": 100,
        "channel": 9
      },
      {
        "type": "note_on",
        "time": 0,
        "note": 36,
        "velocity": 100,
        "channel": 9
      },
      {
        "type": "note_on",
        "time": 15,
        "note": 36,
        "velocity": 0,
        "channel": 9
      },
      {
        "type": "note_on",
        "time": 0,
        "note": 46,
        "velocity": 0,
        "channel": 9
      },
      {
        "type": "note_on",
        "time": 15,
        "note": 38,
        "velocity": 100,
        "channel": 9
      },
      {
        "type": "note_on",
        "time": 15,
        "note": 38,
        "velocity": 0,
        "channel": 9
      },
      {
        "type": "note_on",
        "time": 15,
        "note": 46,
        "velocity": 100,
        "channel": 9
      },
      {
        "type": "note_on",
        "time": 15,
        "note": 46,
        "velocity": 0,
        "channel": 9
      },
      {
        "type": "note_on",
        "time": 45,
        "note": 46,
        "velocity": 100,
        "channel": 9
      },
      {
        "type": "note_on",
        "time": 0,
        "note": 38,
        "velocity": 100,
        "channel": 9
      },
      {
        "type": "note_on",
        "time": 0,
        "note": 40,
        "velocity": 100,
        "channel": 9
      },
      {
        "type": "note_on",
        "time": 15,
        "note": 40,
        "velocity": 0,
        "channel": 9
      },
      {
        "type": "note_on",
        "time": 0,
        "note": 38,
        "velocity": 0,
        "channel": 9
      },
      {
        "type": "note_on",
        "time": 0,
        "note": 46,
        "velocity": 0,
        "channel": 9
      },
      {
        "type": "note_on",
        "time": 45,
        "note": 46,
        "velocity": 100,
        "channel": 9
      },
      {
        "type": "note_on",
        "time": 15,
        "note": 46,
        "velocity": 0,
        "channel": 9
      },
      {
        "type": "note_on",
        "time": 45,
        "note": 46,
        "velocity": 100,
        "channel": 9
      },
      {
        "type": "note_on",
        "time": 0,
        "note": 36,
        "velocity": 100,
        "channel": 9
      },
      {
        "type": "note_on",
        "time": 15,
        "note": 36,
        "velocity": 0,
        "channel": 9
      },
      {
        "type": "note_on",
        "time": 0,
        "note": 46,
        "velocity": 0,
        "channel": 9
      },
      {
        "type": "note_on",
        "time": 41,
        "note": 36,
        "velocity": 100,
        "channel": 9
      },
      {
        "type": "note_on",
        "time": 4,
        "note": 46,
        "velocity": 100,
        "channel": 9
      },
      {
        "type": "note_on",
        "time": 11,
        "note": 36,
        "velocity": 0,
        "channel": 9
      },
      {
        "type": "note_on",
        "time": 4,
        "note": 46,
        "velocity": 0,
        "channel": 9
      },
      {
        "type": "note_on",
        "time": 43,
        "note": 40,
        "velocity": 100,
        "channel": 9
      },
      {
        "type": "note_on",
        "time": 0,
        "note": 38,
        "velocity": 100,
        "channel": 9
      },
      {
        "type": "note_on",
        "time": 2,
        "note": 46,
        "velocity": 100,
        "channel": 9
      },
      {
        "type": "note_on",
        "time": 13,
        "note": 38,
        "velocity": 0,
        "channel": 9
      },
      {
        "type": "note_on",
        "time": 0,
        "note": 40,
        "velocity": 0,
        "channel": 9
      },
      {
        "type": "note_on",
        "time": 2,
        "note": 46,
        "velocity": 0,
        "channel": 9
      },
      {
        "type": "note_on",
        "time": 45,
        "note": 46,
        "velocity": 100,
        "channel": 9
      },
      {
        "type": "note_on",
        "time": 0,
        "note": 36,
        "velocity": 100,
        "channel": 9
      },
      {
        "type": "note_on",
        "time": 15,
        "note": 36,
        "velocity": 0,
        "channel": 9
      },
      {
        "type": "note_on",
        "time": 0,
        "note": 46,
        "velocity": 0,
        "channel": 9
      },
      {
        "type": "note_on",
        "time": 45,
        "note": 46,
        "velocity": 100,
        "channel": 9
      },
      {
        "type": "note_on",
        "time": 15,
        "note": 46,
        "velocity": 0,
        "channel": 9
      },
      {
        "type": "note_on",
        "time": 45,
        "note": 46,
        "velocity": 100,
        "channel": 9
      },
      {
        "type": "note_on",
        "time": 0,
        "note": 36,
        "velocity": 100,
        "channel": 9
      },
      {
        "type": "note_on",
        "time": 15,
        "note": 36,
        "velocity": 0,
        "channel": 9
      },
      {
        "type": "note_on",
        "time": 0,
        "note": 46,
        "velocity": 0,
        "channel": 9
      },
      {
        "type": "note_on",
        "time": 45,
        "note": 46,
        "velocity": 100,
        "channel": 9
      },
      {
        "type": "note_on",
        "time": 0,
        "note": 40,
        "velocity": 100,
        "channel": 9
      },
      {
        "type": "note_on",
        "time": 0,
        "note": 38,
        "velocity": 100,
        "channel": 9
      },
      {
        "type": "note_on",
        "time": 15,
        "note": 38,
        "velocity": 0,
        "channel": 9
      },
      {
        "type": "note_on",
        "time": 0,
        "note": 40,
        "velocity": 0,
        "channel": 9
      },
      {
        "type": "note_on",
        "time": 0,
        "note": 46,
        "velocity": 0,
        "channel": 9
      },
      {
        "type": "note_on",
        "time": 45,
        "note": 46,
        "velocity": 100,
        "channel": 9
      },
      {
        "type": "note_on",
        "time": 15,
        "note": 46,
        "velocity": 0,
        "channel": 9
      },
      {
        "type": "note_on",
        "time": 45,
        "note": 46,
        "velocity": 100,
        "channel": 9
      },
      {
        "type": "note_on",
        "time": 0,
        "note": 36,
        "velocity": 100,
        "channel": 9
      },
      {
        "type": "note_on",
        "time": 15,
        "note": 36,
        "velocity": 0,
        "channel": 9
      },
      {
        "type": "note_on",
        "time": 0,
        "note": 46,
        "velocity": 0,
        "channel": 9
      },
      {
        "type": "note_on",
        "time": 45,
        "note": 46,
        "velocity": 100,
        "channel": 9
      },
      {
        "type": "note_on",
        "time": 0,
        "note": 36,
        "velocity": 100,
        "channel": 9
      },
      {
        "type": "note_on",
        "time": 15,
        "note": 36,
        "velocity": 0,
        "channel": 9
      },
      {
        "type": "note_on",
        "time": 0,
        "note": 46,
        "velocity": 0,
        "channel": 9
      },
      {
        "type": "note_on",
        "time": 45,
        "note": 46,
        "velocity": 100,
        "channel": 9
      },
      {
        "type": "note_on",
        "time": 0,
        "note": 40,
        "velocity": 100,
        "channel": 9
      },
      {
        "type": "note_on",
        "time": 0,
        "note": 38,
        "velocity": 100,
        "channel": 9
      },
      {
        "type": "note_on",
        "time": 15,
        "note": 38,
        "velocity": 0,
        "channel": 9
      },
      {
        "type": "note_on",
        "time": 0,
        "note": 40,
        "velocity": 0,
        "channel": 9
      },
      {
        "type": "note_on",
        "time": 0,
        "note": 46,
        "velocity": 0,
        "channel": 9
      },
      {
        "type": "note_on",
        "time": 45,
        "note": 46,
        "velocity": 100,
        "channel": 9
      },
      {
        "type": "note_on",
        "time": 0,
        "note": 36,
        "velocity": 100,
        "channel": 9
      },
      {
        "type": "note_on",
        "time": 15,
        "note": 36,
        "velocity": 0,
        "channel": 9
      },
      {
        "type": "note_on",
        "time": 0,
        "note": 46,
        "velocity": 0,
        "channel": 9
      },
      {
        "type": "note_on",
        "time": 45,
        "note": 46,
        "velocity": 100,
        "channel": 9
      },
      {
        "type": "note_on",
        "time": 0,
        "note": 36,
        "velocity": 100,
        "channel": 9
      },
      {
        "type": "note_on",
        "time": 15,
        "note": 36,
        "velocity": 0,
        "channel": 9
      },
      {
        "type": "note_on",
        "time": 0,
        "note": 46,
        "velocity": 0,
        "channel": 9
      },
      {
        "type": "note_on",
        "time": 15,
        "note": 38,
        "velocity": 100,
        "channel": 9
      },
      {
        "type": "note_on",
        "time": 15,
        "note": 38,
        "velocity": 0,
        "channel": 9
      },
      {
        "type": "note_on",
        "time": 15,
        "note": 46,
        "velocity": 100,
        "channel": 9
      },
      {
        "type": "note_on",
        "time": 15,
        "note": 46,
        "velocity": 0,
        "channel": 9
      },
      {
        "type": "note_on",
        "time": 45,
        "note": 46,
        "velocity": 100,
        "channel": 9
      },
      {
        "type": "note_on",
        "time": 0,
        "note": 38,
        "velocity": 100,
        "channel": 9
      },
      {
        "type": "note_on",
        "time": 0,
        "note": 40,
        "velocity": 100,
        "channel": 9
      },
      {
        "type": "note_on",
        "time": 15,
        "note": 40,
        "velocity": 0,
        "channel": 9
      },
      {
        "type": "note_on",
        "time": 0,
        "note": 38,
        "velocity": 0,
        "channel": 9
      },
      {
        "type": "note_on",
        "time": 0,
        "note": 46,
        "velocity": 0,
        "channel": 9
      },
      {
        "type": "note_on",
        "time": 45,
        "note": 46,
        "velocity": 100,
        "channel": 9
      },
      {
        "type": "note_on",
        "time": 15,
        "note": 46,
        "velocity": 0,
        "channel": 9
      },
      {
        "type": "note_on",
        "time": 45,
        "note": 46,
        "velocity": 100,
        "channel": 9
      },
      {
        "type": "note_on",
        "time": 0,
        "note": 36,
        "velocity": 100,
        "channel": 9
      },
      {
        "type": "note_on",
        "time": 15,
        "note": 36,
        "velocity": 0,
        "channel": 9
      },
      {
        "type": "note_on",
        "time": 0,
        "note": 46,
        "velocity": 0,
        "channel": 9
      },
      {
        "type": "note_on",
        "time": 41,
        "note": 36,
        "velocity": 100,
        "channel": 9
      },
      {
        "type": "note_on",
        "time": 4,
        "note": 46,
        "velocity": 100,
        "channel": 9
      },
      {
        "type": "note_on",
        "time": 11,
        "note": 36,
        "velocity": 0,
        "channel": 9
      },
      {
        "type": "note_on",
        "time": 4,
        "note": 46,
        "velocity": 0,
        "channel": 9
      },
      {
        "type": "note_on",
        "time": 43,
        "note": 40,
        "velocity": 100,
        "channel": 9
      },
      {
        "type": "note_on",
        "time": 0,
        "note": 38,
        "velocity": 100,
        "channel": 9
      },
      {
        "type": "note_on",
        "time": 2,
        "note": 46,
        "velocity": 100,
        "channel": 9
      },
      {
        "type": "note_on",
        "time": 13,
        "note": 38,
        "velocity": 0,
        "channel": 9
      },
      {
        "type": "note_on",
        "time": 0,
        "note": 40,
        "velocity": 0,
        "channel": 9
      },
      {
        "type": "note_on",
        "time": 2,
        "note": 46,
        "velocity": 0,
        "channel": 9
      },
      {
        "type": "note_on",
        "time": 45,
        "note": 46,
        "velocity": 100,
        "channel": 9
      },
      {
        "type": "note_on",
        "time": 0,
        "note": 36,
        "velocity": 100,
        "channel": 9
      },
      {
        "type": "note_on",
        "time": 15,
        "note": 36,
        "velocity": 0,
        "channel": 9
      },
      {
        "type": "note_on",
        "time": 0,
        "note": 46,
        "velocity": 0,
        "channel": 9
      },
      {
        "type": "note_on",
        "time": 45,
        "note": 46,
        "velocity": 100,
        "channel": 9
      },
      {
        "type": "note_on",
        "time": 15,
        "note": 46,
        "velocity": 0,
        "channel": 9
      },
      {
        "type": "note_on",
        "time": 45,
        "note": 46,
        "velocity": 100,
        "channel": 9
      },
      {
        "type": "note_on",
        "time": 0,
        "note": 36,
        "velocity": 100,
        "channel": 9
      },
      {
        "type": "note_on",
        "time": 15,
        "note": 36,
        "velocity": 0,
        "channel": 9
      },
      {
        "type": "note_on",
        "time": 0,
        "note": 46,
        "velocity": 0,
        "channel": 9
      },
      {
        "type": "note_on",
        "time": 45,
        "note": 46,
        "velocity": 100,
        "channel": 9
      },
      {
        "type": "note_on",
        "time": 0,
        "note": 40,
        "velocity": 100,
        "channel": 9
      },
      {
        "type": "note_on",
        "time": 0,
        "note": 38,
        "velocity": 100,
        "channel": 9
      },
      {
        "type": "note_on",
        "time": 15,
        "note": 38,
        "velocity": 0,
        "channel": 9
      },
      {
        "type": "note_on",
        "time": 0,
        "note": 40,
        "velocity": 0,
        "channel": 9
      },
      {
        "type": "note_on",
        "time": 0,
        "note": 46,
        "velocity": 0,
        "channel": 9
      },
      {
        "type": "note_on",
        "time": 45,
        "note": 46,
        "velocity": 100,
        "channel": 9
      },
      {
        "type": "note_on",
        "time": 15,
        "note": 46,
        "velocity": 0,
        "channel": 9
      },
      {
        "type": "note_on",
        "time": 45,
        "note": 46,
        "velocity": 100,
        "channel": 9
      },
      {
        "type": "note_on",
        "time": 0,
        "note": 36,
        "velocity": 100,
        "channel": 9
      },
      {
        "type": "note_on",
        "time": 15,
        "note": 36,
        "velocity": 0,
        "channel": 9
      },
      {
        "type": "note_on",
        "time": 0,
        "note": 46,
        "velocity": 0,
        "channel": 9
      },
      {
        "type": "note_on",
        "time": 45,
        "note": 46,
        "velocity": 100,
        "channel": 9
      },
      {
        "type": "note_on",
        "time": 0,
        "note": 36,
        "velocity": 100,
        "channel": 9
      },
      {
        "type": "note_on",
        "time": 15,
        "note": 36,
        "velocity": 0,
        "channel": 9
      },
      {
        "type": "note_on",
        "time": 0,
        "note": 46,
        "velocity": 0,
        "channel": 9
      },
      {
        "type": "note_on",
        "time": 45,
        "note": 46,
        "velocity": 100,
        "channel": 9
      },
      {
        "type": "note_on",
        "time": 0,
        "note": 40,
        "velocity": 100,
        "channel": 9
      },
      {
        "type": "note_on",
        "time": 0,
        "note": 38,
        "velocity": 100,
        "channel": 9
      },
      {
        "type": "note_on",
        "time": 15,
        "note": 38,
        "velocity": 0,
        "channel": 9
      },
      {
        "type": "note_on",
        "time": 0,
        "note": 40,
        "velocity": 0,
        "channel": 9
      },
      {
        "type": "note_on",
        "time": 0,
        "note": 46,
        "velocity": 0,
        "channel": 9
      },
      {
        "type": "note_on",
        "time": 45,
        "note": 46,
        "velocity": 100,
        "channel": 9
      },
      {
        "type": "note_on",
        "time": 0,
        "note": 36,
        "velocity": 100,
        "channel": 9
      },
      {
        "type": "note_on",
        "time": 15,
        "note": 36,
        "velocity": 0,
        "channel": 9
      },
      {
        "type": "note_on",
        "time": 0,
        "note": 46,
        "velocity": 0,
        "channel": 9
      },
      {
        "type": "note_on",
        "time": 45,
        "note": 46,
        "velocity": 100,
        "channel": 9
      },
      {
        "type": "note_on",
        "time": 0,
        "note": 36,
        "velocity": 100,
        "channel": 9
      },
      {
        "type": "note_on",
        "time": 15,
        "note": 36,
        "velocity": 0,
        "channel": 9
      },
      {
        "type": "note_on",
        "time": 0,
        "note": 46,
        "velocity": 0,
        "channel": 9
      },
      {
        "type": "note_on",
        "time": 15,
        "note": 38,
        "velocity": 100,
        "channel": 9
      },
      {
        "type": "note_on",
        "time": 15,
        "note": 38,
        "velocity": 0,
        "channel": 9
      },
      {
        "type": "note_on",
        "time": 15,
        "note": 46,
        "velocity": 100,
        "channel": 9
      },
      {
        "type": "note_on",
        "time": 15,
        "note": 46,
        "velocity": 0,
        "channel": 9
      },
      {
        "type": "note_on",
        "time": 45,
        "note": 46,
        "velocity": 100,
        "channel": 9
      },
      {
        "type": "note_on",
        "time": 0,
        "note": 38,
        "velocity": 100,
        "channel": 9
      },
      {
        "type": "note_on",
        "time": 0,
        "note": 40,
        "velocity": 100,
        "channel": 9
      },
      {
        "type": "note_on",
        "time": 15,
        "note": 40,
        "velocity": 0,
        "channel": 9
      },
      {
        "type": "note_on",
        "time": 0,
        "note": 38,
        "velocity": 0,
        "channel": 9
      },
      {
        "type": "note_on",
        "time": 0,
        "note": 46,
        "velocity": 0,
        "channel": 9
      },
      {
        "type": "note_on",
        "time": 45,
        "note": 46,
        "velocity": 100,
        "channel": 9
      },
      {
        "type": "note_on",
        "time": 15,
        "note": 46,
        "velocity": 0,
        "channel": 9
      },
      {
        "type": "note_on",
        "time": 45,
        "note": 46,
        "velocity": 100,
        "channel": 9
      },
      {
        "type": "note_on",
        "time": 0,
        "note": 36,
        "velocity": 100,
        "channel": 9
      },
      {
        "type": "note_on",
        "time": 15,
        "note": 36,
        "velocity": 0,
        "channel": 9
      },
      {
        "type": "note_on",
        "time": 0,
        "note": 46,
        "velocity": 0,
        "channel": 9
      },
      {
        "type": "note_on",
        "time": 41,
        "note": 36,
        "velocity": 100,
        "channel": 9
      },
      {
        "type": "note_on",
        "time": 4,
        "note": 46,
        "velocity": 100,
        "channel": 9
      },
      {
        "type": "note_on",
        "time": 11,
        "note": 36,
        "velocity": 0,
        "channel": 9
      },
      {
        "type": "note_on",
        "time": 4,
        "note": 46,
        "velocity": 0,
        "channel": 9
      },
      {
        "type": "note_on",
        "time": 43,
        "note": 40,
        "velocity": 100,
        "channel": 9
      },
      {
        "type": "note_on",
        "time": 0,
        "note": 38,
        "velocity": 100,
        "channel": 9
      },
      {
        "type": "note_on",
        "time": 2,
        "note": 46,
        "velocity": 100,
        "channel": 9
      },
      {
        "type": "note_on",
        "time": 13,
        "note": 38,
        "velocity": 0,
        "channel": 9
      },
      {
        "type": "note_on",
        "time": 0,
        "note": 40,
        "velocity": 0,
        "channel": 9
      },
      {
        "type": "note_on",
        "time": 2,
        "note": 46,
        "velocity": 0,
        "channel": 9
      },
      {
        "type": "note_on",
        "time": 45,
        "note": 46,
        "velocity": 100,
        "channel": 9
      },
      {
        "type": "note_on",
        "time": 0,
        "note": 36,
        "velocity": 100,
        "channel": 9
      },
      {
        "type": "note_on",
        "time": 15,
        "note": 36,
        "velocity": 0,
        "channel": 9
      },
      {
        "type": "note_on",
        "time": 0,
        "note": 46,
        "velocity": 0,
        "channel": 9
      },
      {
        "type": "note_on",
        "time": 45,
        "note": 46,
        "velocity": 100,
        "channel": 9
      },
      {
        "type": "note_on",
        "time": 15,
        "note": 46,
        "velocity": 0,
        "channel": 9
      },
      {
        "type": "note_on",
        "time": 45,
        "note": 46,
        "velocity": 100,
        "channel": 9
      },
      {
        "type": "note_on",
        "time": 0,
        "note": 36,
        "velocity": 100,
        "channel": 9
      },
      {
        "type": "note_on",
        "time": 15,
        "note": 36,
        "velocity": 0,
        "channel": 9
      },
      {
        "type": "note_on",
        "time": 0,
        "note": 46,
        "velocity": 0,
        "channel": 9
      },
      {
        "type": "note_on",
        "time": 45,
        "note": 46,
        "velocity": 100,
        "channel": 9
      },
      {
        "type": "note_on",
        "time": 0,
        "note": 40,
        "velocity": 100,
        "channel": 9
      },
      {
        "type": "note_on",
        "time": 0,
        "note": 38,
        "velocity": 100,
        "channel": 9
      },
      {
        "type": "note_on",
        "time": 15,
        "note": 38,
        "velocity": 0,
        "channel": 9
      },
      {
        "type": "note_on",
        "time": 0,
        "note": 40,
        "velocity": 0,
        "channel": 9
      },
      {
        "type": "note_on",
        "time": 0,
        "note": 46,
        "velocity": 0,
        "channel": 9
      },
      {
        "type": "note_on",
        "time": 45,
        "note": 46,
        "velocity": 100,
        "channel": 9
      },
      {
        "type": "note_on",
        "time": 15,
        "note": 46,
        "velocity": 0,
        "channel": 9
      },
      {
        "type": "note_on",
        "time": 45,
        "note": 46,
        "velocity": 100,
        "channel": 9
      },
      {
        "type": "note_on",
        "time": 0,
        "note": 36,
        "velocity": 100,
        "channel": 9
      },
      {
        "type": "note_on",
        "time": 15,
        "note": 36,
        "velocity": 0,
        "channel": 9
      },
      {
        "type": "note_on",
        "time": 0,
        "note": 46,
        "velocity": 0,
        "channel": 9
      },
      {
        "type": "note_on",
        "time": 45,
        "note": 46,
        "velocity": 100,
        "channel": 9
      },
      {
        "type": "note_on",
        "time": 0,
        "note": 36,
        "velocity": 100,
        "channel": 9
      },
      {
        "type": "note_on",
        "time": 15,
        "note": 36,
        "velocity": 0,
        "channel": 9
      },
      {
        "type": "note_on",
        "time": 0,
        "note": 46,
        "velocity": 0,
        "channel": 9
      },
      {
        "type": "note_on",
        "time": 45,
        "note": 46,
        "velocity": 100,
        "channel": 9
      },
      {
        "type": "note_on",
        "time": 0,
        "note": 40,
        "velocity": 100,
        "channel": 9
      },
      {
        "type": "note_on",
        "time": 0,
        "note": 38,
        "velocity": 100,
        "channel": 9
      },
      {
        "type": "note_on",
        "time": 15,
        "note": 38,
        "velocity": 0,
        "channel": 9
      },
      {
        "type": "note_on",
        "time": 0,
        "note": 40,
        "velocity": 0,
        "channel": 9
      },
      {
        "type": "note_on",
        "time": 0,
        "note": 46,
        "velocity": 0,
        "channel": 9
      },
      {
        "type": "note_on",
        "time": 45,
        "note": 46,
        "velocity": 100,
        "channel": 9
      },
      {
        "type": "note_on",
        "time": 0,
        "note": 36,
        "velocity": 100,
        "channel": 9
      },
      {
        "type": "note_on",
        "time": 15,
        "note": 36,
        "velocity": 0,
        "channel": 9
      },
      {
        "type": "note_on",
        "time": 0,
        "note": 46,
        "velocity": 0,
        "channel": 9
      },
      {
        "type": "note_on",
        "time": 45,
        "note": 46,
        "velocity": 100,
        "channel": 9
      },
      {
        "type": "note_on",
        "time": 0,
        "note": 36,
        "velocity": 100,
        "channel": 9
      },
      {
        "type": "note_on",
        "time": 15,
        "note": 36,
        "velocity": 0,
        "channel": 9
      },
      {
        "type": "note_on",
        "time": 0,
        "note": 46,
        "velocity": 0,
        "channel": 9
      },
      {
        "type": "note_on",
        "time": 15,
        "note": 38,
        "velocity": 100,
        "channel": 9
      },
      {
        "type": "note_on",
        "time": 15,
        "note": 38,
        "velocity": 0,
        "channel": 9
      },
      {
        "type": "note_on",
        "time": 15,
        "note": 46,
        "velocity": 100,
        "channel": 9
      },
      {
        "type": "note_on",
        "time": 15,
        "note": 46,
        "velocity": 0,
        "channel": 9
      },
      {
        "type": "note_on",
        "time": 45,
        "note": 46,
        "velocity": 100,
        "channel": 9
      },
      {
        "type": "note_on",
        "time": 0,
        "note": 38,
        "velocity": 100,
        "channel": 9
      },
      {
        "type": "note_on",
        "time": 0,
        "note": 40,
        "velocity": 100,
        "channel": 9
      },
      {
        "type": "note_on",
        "time": 15,
        "note": 40,
        "velocity": 0,
        "channel": 9
      },
      {
        "type": "note_on",
        "time": 0,
        "note": 38,
        "velocity": 0,
        "channel": 9
      },
      {
        "type": "note_on",
        "time": 0,
        "note": 46,
        "velocity": 0,
        "channel": 9
      },
      {
        "type": "note_on",
        "time": 45,
        "note": 46,
        "velocity": 100,
        "channel": 9
      },
      {
        "type": "note_on",
        "time": 15,
        "note": 46,
        "velocity": 0,
        "channel": 9
      },
      {
        "type": "note_on",
        "time": 45,
        "note": 46,
        "velocity": 100,
        "channel": 9
      },
      {
        "type": "note_on",
        "time": 0,
        "note": 36,
        "velocity": 100,
        "channel": 9
      },
      {
        "type": "note_on",
        "time": 15,
        "note": 36,
        "velocity": 0,
        "channel": 9
      },
      {
        "type": "note_on",
        "time": 0,
        "note": 46,
        "velocity": 0,
        "channel": 9
      },
      {
        "type": "note_on",
        "time": 41,
        "note": 36,
        "velocity": 100,
        "channel": 9
      },
      {
        "type": "note_on",
        "time": 4,
        "note": 46,
        "velocity": 100,
        "channel": 9
      },
      {
        "type": "note_on",
        "time": 11,
        "note": 36,
        "velocity": 0,
        "channel": 9
      },
      {
        "type": "note_on",
        "time": 4,
        "note": 46,
        "velocity": 0,
        "channel": 9
      },
      {
        "type": "note_on",
        "time": 43,
        "note": 40,
        "velocity": 100,
        "channel": 9
      },
      {
        "type": "note_on",
        "time": 0,
        "note": 38,
        "velocity": 100,
        "channel": 9
      },
      {
        "type": "note_on",
        "time": 2,
        "note": 46,
        "velocity": 100,
        "channel": 9
      },
      {
        "type": "note_on",
        "time": 13,
        "note": 38,
        "velocity": 0,
        "channel": 9
      },
      {
        "type": "note_on",
        "time": 0,
        "note": 40,
        "velocity": 0,
        "channel": 9
      },
      {
        "type": "note_on",
        "time": 2,
        "note": 46,
        "velocity": 0,
        "channel": 9
      },
      {
        "type": "note_on",
        "time": 45,
        "note": 46,
        "velocity": 100,
        "channel": 9
      },
      {
        "type": "note_on",
        "time": 0,
        "note": 36,
        "velocity": 100,
        "channel": 9
      },
      {
        "type": "note_on",
        "time": 15,
        "note": 36,
        "velocity": 0,
        "channel": 9
      },
      {
        "type": "note_on",
        "time": 0,
        "note": 46,
        "velocity": 0,
        "channel": 9
      },
      {
        "type": "note_on",
        "time": 45,
        "note": 46,
        "velocity": 100,
        "channel": 9
      },
      {
        "type": "note_on",
        "time": 15,
        "note": 46,
        "velocity": 0,
        "channel": 9
      },
      {
        "type": "note_on",
        "time": 45,
        "note": 46,
        "velocity": 100,
        "channel": 9
      },
      {
        "type": "note_on",
        "time": 0,
        "note": 36,
        "velocity": 100,
        "channel": 9
      },
      {
        "type": "note_on",
        "time": 15,
        "note": 36,
        "velocity": 0,
        "channel": 9
      },
      {
        "type": "note_on",
        "time": 0,
        "note": 46,
        "velocity": 0,
        "channel": 9
      },
      {
        "type": "note_on",
        "time": 45,
        "note": 46,
        "velocity": 100,
        "channel": 9
      },
      {
        "type": "note_on",
        "time": 0,
        "note": 40,
        "velocity": 100,
        "channel": 9
      },
      {
        "type": "note_on",
        "time": 0,
        "note": 38,
        "velocity": 100,
        "channel": 9
      },
      {
        "type": "note_on",
        "time": 15,
        "note": 38,
        "velocity": 0,
        "channel": 9
      },
      {
        "type": "note_on",
        "time": 0,
        "note": 40,
        "velocity": 0,
        "channel": 9
      },
      {
        "type": "note_on",
        "time": 0,
        "note": 46,
        "velocity": 0,
        "channel": 9
      },
      {
        "type": "note_on",
        "time": 45,
        "note": 46,
        "velocity": 100,
        "channel": 9
      },
      {
        "type": "note_on",
        "time": 15,
        "note": 46,
        "velocity": 0,
        "channel": 9
      },
      {
        "type": "note_on",
        "time": 45,
        "note": 46,
        "velocity": 100,
        "channel": 9
      },
      {
        "type": "note_on",
        "time": 0,
        "note": 36,
        "velocity": 100,
        "channel": 9
      },
      {
        "type": "note_on",
        "time": 15,
        "note": 36,
        "velocity": 0,
        "channel": 9
      },
      {
        "type": "note_on",
        "time": 0,
        "note": 46,
        "velocity": 0,
        "channel": 9
      },
      {
        "type": "note_on",
        "time": 45,
        "note": 46,
        "velocity": 100,
        "channel": 9
      },
      {
        "type": "note_on",
        "time": 0,
        "note": 36,
        "velocity": 100,
        "channel": 9
      },
      {
        "type": "note_on",
        "time": 15,
        "note": 36,
        "velocity": 0,
        "channel": 9
      },
      {
        "type": "note_on",
        "time": 0,
        "note": 46,
        "velocity": 0,
        "channel": 9
      },
      {
        "type": "note_on",
        "time": 45,
        "note": 46,
        "velocity": 100,
        "channel": 9
      },
      {
        "type": "note_on",
        "time": 0,
        "note": 40,
        "velocity": 100,
        "channel": 9
      },
      {
        "type": "note_on",
        "time": 0,
        "note": 38,
        "velocity": 100,
        "channel": 9
      },
      {
        "type": "note_on",
        "time": 15,
        "note": 38,
        "velocity": 0,
        "channel": 9
      },
      {
        "type": "note_on",
        "time": 0,
        "note": 40,
        "velocity": 0,
        "channel": 9
      },
      {
        "type": "note_on",
        "time": 0,
        "note": 46,
        "velocity": 0,
        "channel": 9
      },
      {
        "type": "note_on",
        "time": 45,
        "note": 46,
        "velocity": 100,
        "channel": 9
      },
      {
        "type": "note_on",
        "time": 0,
        "note": 36,
        "velocity": 100,
        "channel": 9
      },
      {
        "type": "note_on",
        "time": 15,
        "note": 36,
        "velocity": 0,
        "channel": 9
      },
      {
        "type": "note_on",
        "time": 0,
        "note": 46,
        "velocity": 0,
        "channel": 9
      },
      {
        "type": "note_on",
        "time": 45,
        "note": 46,
        "velocity": 100,
        "channel": 9
      },
      {
        "type": "note_on",
        "time": 0,
        "note": 36,
        "velocity": 100,
        "channel": 9
      },
      {
        "type": "note_on",
        "time": 15,
        "note": 36,
        "velocity": 0,
        "channel": 9
      },
      {
        "type": "note_on",
        "time": 0,
        "note": 46,
        "velocity": 0,
        "channel": 9
      },
      {
        "type": "note_on",
        "time": 15,
        "note": 38,
        "velocity": 100,
        "channel": 9
      },
      {
        "type": "note_on",
        "time": 15,
        "note": 38,
        "velocity": 0,
        "channel": 9
      },
      {
        "type": "note_on",
        "time": 15,
        "note": 46,
        "velocity": 100,
        "channel": 9
      },
      {
        "type": "note_on",
        "time": 15,
        "note": 46,
        "velocity": 0,
        "channel": 9
      },
      {
        "type": "note_on",
        "time": 45,
        "note": 46,
        "velocity": 100,
        "channel": 9
      },
      {
        "type": "note_on",
        "time": 0,
        "note": 38,
        "velocity": 100,
        "channel": 9
      },
      {
        "type": "note_on",
        "time": 0,
        "note": 40,
        "velocity": 100,
        "channel": 9
      },
      {
        "type": "note_on",
        "time": 15,
        "note": 40,
        "velocity": 0,
        "channel": 9
      },
      {
        "type": "note_on",
        "time": 0,
        "note": 38,
        "velocity": 0,
        "channel": 9
      },
      {
        "type": "note_on",
        "time": 0,
        "note": 46,
        "velocity": 0,
        "channel": 9
      },
      {
        "type": "note_on",
        "time": 45,
        "note": 46,
        "velocity": 100,
        "channel": 9
      },
      {
        "type": "note_on",
        "time": 15,
        "note": 46,
        "velocity": 0,
        "channel": 9
      },
      {
        "type": "note_on",
        "time": 45,
        "note": 46,
        "velocity": 100,
        "channel": 9
      },
      {
        "type": "note_on",
        "time": 0,
        "note": 36,
        "velocity": 100,
        "channel": 9
      },
      {
        "type": "note_on",
        "time": 15,
        "note": 36,
        "velocity": 0,
        "channel": 9
      },
      {
        "type": "note_on",
        "time": 0,
        "note": 46,
        "velocity": 0,
        "channel": 9
      },
      {
        "type": "note_on",
        "time": 45,
        "note": 46,
        "velocity": 100,
        "channel": 9
      },
      {
        "type": "note_on",
        "time": 0,
        "note": 36,
        "velocity": 100,
        "channel": 9
      },
      {
        "type": "note_on",
        "time": 15,
        "note": 36,
        "velocity": 0,
        "channel": 9
      },
      {
        "type": "note_on",
        "time": 0,
        "note": 46,
        "velocity": 0,
        "channel": 9
      },
      {
        "type": "note_on",
        "time": 45,
        "note": 46,
        "velocity": 100,
        "channel": 9
      },
      {
        "type": "note_on",
        "time": 0,
        "note": 40,
        "velocity": 100,
        "channel": 9
      },
      {
        "type": "note_on",
        "time": 0,
        "note": 38,
        "velocity": 100,
        "channel": 9
      },
      {
        "type": "note_on",
        "time": 15,
        "note": 38,
        "velocity": 0,
        "channel": 9
      },
      {
        "type": "note_on",
        "time": 0,
        "note": 40,
        "velocity": 0,
        "channel": 9
      },
      {
        "type": "note_on",
        "time": 0,
        "note": 46,
        "velocity": 0,
        "channel": 9
      },
      {
        "type": "note_on",
        "time": 45,
        "note": 46,
        "velocity": 100,
        "channel": 9
      },
      {
        "type": "note_on",
        "time": 0,
        "note": 36,
        "velocity": 100,
        "channel": 9
      },
      {
        "type": "note_on",
        "time": 15,
        "note": 36,
        "velocity": 0,
        "channel": 9
      },
      {
        "type": "note_on",
        "time": 0,
        "note": 46,
        "velocity": 0,
        "channel": 9
      },
      {
        "type": "note_on",
        "time": 45,
        "note": 46,
        "velocity": 100,
        "channel": 9
      },
      {
        "type": "note_on",
        "time": 0,
        "note": 36,
        "velocity": 100,
        "channel": 9
      },
      {
        "type": "note_on",
        "time": 15,
        "note": 36,
        "velocity": 0,
        "channel": 9
      },
      {
        "type": "note_on",
        "time": 0,
        "note": 46,
        "velocity": 0,
        "channel": 9
      },
      {
        "type": "note_on",
        "time": 15,
        "note": 38,
        "velocity": 100,
        "channel": 9
      },
      {
        "type": "note_on",
        "time": 15,
        "note": 38,
        "velocity": 0,
        "channel": 9
      },
      {
        "type": "note_on",
        "time": 15,
        "note": 46,
        "velocity": 100,
        "channel": 9
      },
      {
        "type": "note_on",
        "time": 15,
        "note": 46,
        "velocity": 0,
        "channel": 9
      },
      {
        "type": "note_on",
        "time": 45,
        "note": 46,
        "velocity": 100,
        "channel": 9
      },
      {
        "type": "note_on",
        "time": 0,
        "note": 38,
        "velocity": 100,
        "channel": 9
      },
      {
        "type": "note_on",
        "time": 0,
        "note": 40,
        "velocity": 100,
        "channel": 9
      },
      {
        "type": "note_on",
        "time": 15,
        "note": 40,
        "velocity": 0,
        "channel": 9
      },
      {
        "type": "note_on",
        "time": 0,
        "note": 38,
        "velocity": 0,
        "channel": 9
      },
      {
        "type": "note_on",
        "time": 0,
        "note": 46,
        "velocity": 0,
        "channel": 9
      },
      {
        "type": "note_on",
        "time": 45,
        "note": 46,
        "velocity": 100,
        "channel": 9
      },
      {
        "type": "note_on",
        "time": 15,
        "note": 46,
        "velocity": 0,
        "channel": 9
      },
      {
        "type": "note_on",
        "time": 45,
        "note": 46,
        "velocity": 100,
        "channel": 9
      },
      {
        "type": "note_on",
        "time": 0,
        "note": 36,
        "velocity": 100,
        "channel": 9
      },
      {
        "type": "note_on",
        "time": 15,
        "note": 36,
        "velocity": 0,
        "channel": 9
      },
      {
        "type": "note_on",
        "time": 0,
        "note": 46,
        "velocity": 0,
        "channel": 9
      },
      {
        "type": "note_on",
        "time": 45,
        "note": 46,
        "velocity": 100,
        "channel": 9
      },
      {
        "type": "note_on",
        "time": 0,
        "note": 36,
        "velocity": 100,
        "channel": 9
      },
      {
        "type": "note_on",
        "time": 15,
        "note": 36,
        "velocity": 0,
        "channel": 9
      },
      {
        "type": "note_on",
        "time": 0,
        "note": 46,
        "velocity": 0,
        "channel": 9
      },
      {
        "type": "note_on",
        "time": 45,
        "note": 46,
        "velocity": 100,
        "channel": 9
      },
      {
        "type": "note_on",
        "time": 0,
        "note": 40,
        "velocity": 100,
        "channel": 9
      },
      {
        "type": "note_on",
        "time": 0,
        "note": 38,
        "velocity": 100,
        "channel": 9
      },
      {
        "type": "note_on",
        "time": 15,
        "note": 38,
        "velocity": 0,
        "channel": 9
      },
      {
        "type": "note_on",
        "time": 0,
        "note": 40,
        "velocity": 0,
        "channel": 9
      },
      {
        "type": "note_on",
        "time": 0,
        "note": 46,
        "velocity": 0,
        "channel": 9
      },
      {
        "type": "note_on",
        "time": 45,
        "note": 46,
        "velocity": 100,
        "channel": 9
      },
      {
        "type": "note_on",
        "time": 0,
        "note": 36,
        "velocity": 100,
        "channel": 9
      },
      {
        "type": "note_on",
        "time": 15,
        "note": 36,
        "velocity": 0,
        "channel": 9
      },
      {
        "type": "note_on",
        "time": 0,
        "note": 46,
        "velocity": 0,
        "channel": 9
      },
      {
        "type": "note_on",
        "time": 45,
        "note": 52,
        "velocity": 100,
        "channel": 9
      },
      {
        "type": "note_on",
        "time": 0,
        "note": 46,
        "velocity": 100,
        "channel": 9
      },
      {
        "type": "note_on",
        "time": 0,
        "note": 36,
        "velocity": 100,
        "channel": 9
      },
      {
        "type": "note_on",
        "time": 15,
        "note": 36,
        "velocity": 0,
        "channel": 9
      },
      {
        "type": "note_on",
        "time": 0,
        "note": 46,
        "velocity": 0,
        "channel": 9
      },
      {
        "type": "note_on",
        "time": 0,
        "note": 52,
        "velocity": 0,
        "channel": 9
      },
      {
        "type": "note_on",
        "time": 15,
        "note": 40,
        "velocity": 100,
        "channel": 9
      },
      {
        "type": "note_on",
        "time": 0,
        "note": 38,
        "velocity": 100,
        "channel": 9
      },
      {
        "type": "note_on",
        "time": 15,
        "note": 38,
        "velocity": 0,
        "channel": 9
      },
      {
        "type": "note_on",
        "time": 0,
        "note": 40,
        "velocity": 0,
        "channel": 9
      },
      {
        "type": "note_on",
        "time": 15,
        "note": 46,
        "velocity": 100,
        "channel": 9
      },
      {
        "type": "note_on",
        "time": 15,
        "note": 46,
        "velocity": 0,
        "channel": 9
      },
      {
        "type": "note_on",
        "time": 15,
        "note": 38,
        "velocity": 100,
        "channel": 9
      },
      {
        "type": "note_on",
        "time": 15,
        "note": 38,
        "velocity": 0,
        "channel": 9
      },
      {
        "type": "note_on",
        "time": 15,
        "note": 52,
        "velocity": 100,
        "channel": 9
      },
      {
        "type": "note_on",
        "time": 0,
        "note": 46,
        "velocity": 100,
        "channel": 9
      },
      {
        "type": "note_on",
        "time": 0,
        "note": 38,
        "velocity": 100,
        "channel": 9
      },
      {
        "type": "note_on",
        "time": 0,
        "note": 40,
        "velocity": 100,
        "channel": 9
      },
      {
        "type": "note_on",
        "time": 15,
        "note": 40,
        "velocity": 0,
        "channel": 9
      },
      {
        "type": "note_on",
        "time": 0,
        "note": 52,
        "velocity": 0,
        "channel": 9
      },
      {
        "type": "note_on",
        "time": 0,
        "note": 46,
        "velocity": 0,
        "channel": 9
      },
      {
        "type": "note_on",
        "time": 0,
        "note": 38,
        "velocity": 0,
        "channel": 9
      },
      {
        "type": "note_on",
        "time": 45,
        "note": 52,
        "velocity": 100,
        "channel": 9
      },
      {
        "type": "note_on",
        "time": 0,
        "note": 46,
        "velocity": 100,
        "channel": 9
      },
      {
        "type": "note_on",
        "time": 0,
        "note": 38,
        "velocity": 100,
        "channel": 9
      },
      {
        "type": "note_on",
        "time": 0,
        "note": 40,
        "velocity": 100,
        "channel": 9
      },
      {
        "type": "note_on",
        "time": 15,
        "note": 40,
        "velocity": 0,
        "channel": 9
      },
      {
        "type": "note_on",
        "time": 0,
        "note": 52,
        "velocity": 0,
        "channel": 9
      },
      {
        "type": "note_on",
        "time": 0,
        "note": 46,
        "velocity": 0,
        "channel": 9
      },
      {
        "type": "note_on",
        "time": 0,
        "note": 38,
        "velocity": 0,
        "channel": 9
      },
      {
        "type": "note_on",
        "time": 15,
        "note": 52,
        "velocity": 100,
        "channel": 9
      },
      {
        "type": "note_on",
        "time": 0,
        "note": 46,
        "velocity": 100,
        "channel": 9
      },
      {
        "type": "note_on",
        "time": 0,
        "note": 40,
        "velocity": 100,
        "channel": 9
      },
      {
        "type": "note_on",
        "time": 0,
        "note": 38,
        "velocity": 100,
        "channel": 9
      },
      {
        "type": "note_on",
        "time": 15,
        "note": 38,
        "velocity": 0,
        "channel": 9
      },
      {
        "type": "note_on",
        "time": 0,
        "note": 52,
        "velocity": 0,
        "channel": 9
      },
      {
        "type": "note_on",
        "time": 0,
        "note": 46,
        "velocity": 0,
        "channel": 9
      },
      {
        "type": "note_on",
        "time": 0,
        "note": 40,
        "velocity": 0,
        "channel": 9
      },
      {
        "type": "note_on",
        "time": 15,
        "note": 46,
        "velocity": 100,
        "channel": 9
      },
      {
        "type": "note_on",
        "time": 0,
        "note": 36,
        "velocity": 100,
        "channel": 9
      },
      {
        "type": "note_on",
        "time": 15,
        "note": 36,
        "velocity": 0,
        "channel": 9
      },
      {
        "type": "note_on",
        "time": 0,
        "note": 46,
        "velocity": 0,
        "channel": 9
      },
      {
        "type": "note_on",
        "time": 41,
        "note": 36,
        "velocity": 100,
        "channel": 9
      },
      {
        "type": "note_on",
        "time": 4,
        "note": 46,
        "velocity": 100,
        "channel": 9
      },
      {
        "type": "note_on",
        "time": 11,
        "note": 36,
        "velocity": 0,
        "channel": 9
      },
      {
        "type": "note_on",
        "time": 4,
        "note": 46,
        "velocity": 0,
        "channel": 9
      },
      {
        "type": "note_on",
        "time": 43,
        "note": 40,
        "velocity": 100,
        "channel": 9
      },
      {
        "type": "note_on",
        "time": 0,
        "note": 38,
        "velocity": 100,
        "channel": 9
      },
      {
        "type": "note_on",
        "time": 2,
        "note": 46,
        "velocity": 100,
        "channel": 9
      },
      {
        "type": "note_on",
        "time": 13,
        "note": 38,
        "velocity": 0,
        "channel": 9
      },
      {
        "type": "note_on",
        "time": 0,
        "note": 40,
        "velocity": 0,
        "channel": 9
      },
      {
        "type": "note_on",
        "time": 2,
        "note": 46,
        "velocity": 0,
        "channel": 9
      },
      {
        "type": "note_on",
        "time": 45,
        "note": 46,
        "velocity": 100,
        "channel": 9
      },
      {
        "type": "note_on",
        "time": 0,
        "note": 36,
        "velocity": 100,
        "channel": 9
      },
      {
        "type": "note_on",
        "time": 15,
        "note": 36,
        "velocity": 0,
        "channel": 9
      },
      {
        "type": "note_on",
        "time": 0,
        "note": 46,
        "velocity": 0,
        "channel": 9
      },
      {
        "type": "note_on",
        "time": 45,
        "note": 46,
        "velocity": 100,
        "channel": 9
      },
      {
        "type": "note_on",
        "time": 15,
        "note": 46,
        "velocity": 0,
        "channel": 9
      },
      {
        "type": "note_on",
        "time": 45,
        "note": 46,
        "velocity": 100,
        "channel": 9
      },
      {
        "type": "note_on",
        "time": 0,
        "note": 36,
        "velocity": 100,
        "channel": 9
      },
      {
        "type": "note_on",
        "time": 15,
        "note": 36,
        "velocity": 0,
        "channel": 9
      },
      {
        "type": "note_on",
        "time": 0,
        "note": 46,
        "velocity": 0,
        "channel": 9
      },
      {
        "type": "note_on",
        "time": 45,
        "note": 46,
        "velocity": 100,
        "channel": 9
      },
      {
        "type": "note_on",
        "time": 0,
        "note": 40,
        "velocity": 100,
        "channel": 9
      },
      {
        "type": "note_on",
        "time": 0,
        "note": 38,
        "velocity": 100,
        "channel": 9
      },
      {
        "type": "note_on",
        "time": 15,
        "note": 38,
        "velocity": 0,
        "channel": 9
      },
      {
        "type": "note_on",
        "time": 0,
        "note": 40,
        "velocity": 0,
        "channel": 9
      },
      {
        "type": "note_on",
        "time": 0,
        "note": 46,
        "velocity": 0,
        "channel": 9
      },
      {
        "type": "note_on",
        "time": 45,
        "note": 46,
        "velocity": 100,
        "channel": 9
      },
      {
        "type": "note_on",
        "time": 15,
        "note": 46,
        "velocity": 0,
        "channel": 9
      },
      {
        "type": "note_on",
        "time": 45,
        "note": 46,
        "velocity": 100,
        "channel": 9
      },
      {
        "type": "note_on",
        "time": 0,
        "note": 36,
        "velocity": 100,
        "channel": 9
      },
      {
        "type": "note_on",
        "time": 15,
        "note": 36,
        "velocity": 0,
        "channel": 9
      },
      {
        "type": "note_on",
        "time": 0,
        "note": 46,
        "velocity": 0,
        "channel": 9
      },
      {
        "type": "note_on",
        "time": 45,
        "note": 46,
        "velocity": 100,
        "channel": 9
      },
      {
        "type": "note_on",
        "time": 0,
        "note": 36,
        "velocity": 100,
        "channel": 9
      },
      {
        "type": "note_on",
        "time": 15,
        "note": 36,
        "velocity": 0,
        "channel": 9
      },
      {
        "type": "note_on",
        "time": 0,
        "note": 46,
        "velocity": 0,
        "channel": 9
      },
      {
        "type": "note_on",
        "time": 45,
        "note": 46,
        "velocity": 100,
        "channel": 9
      },
      {
        "type": "note_on",
        "time": 0,
        "note": 40,
        "velocity": 100,
        "channel": 9
      },
      {
        "type": "note_on",
        "time": 0,
        "note": 38,
        "velocity": 100,
        "channel": 9
      },
      {
        "type": "note_on",
        "time": 15,
        "note": 38,
        "velocity": 0,
        "channel": 9
      },
      {
        "type": "note_on",
        "time": 0,
        "note": 40,
        "velocity": 0,
        "channel": 9
      },
      {
        "type": "note_on",
        "time": 0,
        "note": 46,
        "velocity": 0,
        "channel": 9
      },
      {
        "type": "note_on",
        "time": 45,
        "note": 46,
        "velocity": 100,
        "channel": 9
      },
      {
        "type": "note_on",
        "time": 0,
        "note": 36,
        "velocity": 100,
        "channel": 9
      },
      {
        "type": "note_on",
        "time": 15,
        "note": 36,
        "velocity": 0,
        "channel": 9
      },
      {
        "type": "note_on",
        "time": 0,
        "note": 46,
        "velocity": 0,
        "channel": 9
      },
      {
        "type": "note_on",
        "time": 45,
        "note": 46,
        "velocity": 100,
        "channel": 9
      },
      {
        "type": "note_on",
        "time": 0,
        "note": 36,
        "velocity": 100,
        "channel": 9
      },
      {
        "type": "note_on",
        "time": 15,
        "note": 36,
        "velocity": 0,
        "channel": 9
      },
      {
        "type": "note_on",
        "time": 0,
        "note": 46,
        "velocity": 0,
        "channel": 9
      },
      {
        "type": "note_on",
        "time": 15,
        "note": 38,
        "velocity": 100,
        "channel": 9
      },
      {
        "type": "note_on",
        "time": 15,
        "note": 38,
        "velocity": 0,
        "channel": 9
      },
      {
        "type": "note_on",
        "time": 15,
        "note": 46,
        "velocity": 100,
        "channel": 9
      },
      {
        "type": "note_on",
        "time": 15,
        "note": 46,
        "velocity": 0,
        "channel": 9
      },
      {
        "type": "note_on",
        "time": 45,
        "note": 46,
        "velocity": 100,
        "channel": 9
      },
      {
        "type": "note_on",
        "time": 0,
        "note": 38,
        "velocity": 100,
        "channel": 9
      },
      {
        "type": "note_on",
        "time": 0,
        "note": 40,
        "velocity": 100,
        "channel": 9
      },
      {
        "type": "note_on",
        "time": 15,
        "note": 40,
        "velocity": 0,
        "channel": 9
      },
      {
        "type": "note_on",
        "time": 0,
        "note": 38,
        "velocity": 0,
        "channel": 9
      },
      {
        "type": "note_on",
        "time": 0,
        "note": 46,
        "velocity": 0,
        "channel": 9
      },
      {
        "type": "note_on",
        "time": 45,
        "note": 46,
        "velocity": 100,
        "channel": 9
      },
      {
        "type": "note_on",
        "time": 15,
        "note": 46,
        "velocity": 0,
        "channel": 9
      },
      {
        "type": "note_on",
        "time": 45,
        "note": 46,
        "velocity": 100,
        "channel": 9
      },
      {
        "type": "note_on",
        "time": 0,
        "note": 36,
        "velocity": 100,
        "channel": 9
      },
      {
        "type": "note_on",
        "time": 15,
        "note": 36,
        "velocity": 0,
        "channel": 9
      },
      {
        "type": "note_on",
        "time": 0,
        "note": 46,
        "velocity": 0,
        "channel": 9
      },
      {
        "type": "note_on",
        "time": 45,
        "note": 46,
        "velocity": 100,
        "channel": 9
      },
      {
        "type": "note_on",
        "time": 0,
        "note": 36,
        "velocity": 100,
        "channel": 9
      },
      {
        "type": "note_on",
        "time": 15,
        "note": 36,
        "velocity": 0,
        "channel": 9
      },
      {
        "type": "note_on",
        "time": 0,
        "note": 46,
        "velocity": 0,
        "channel": 9
      },
      {
        "type": "note_on",
        "time": 45,
        "note": 46,
        "velocity": 100,
        "channel": 9
      },
      {
        "type": "note_on",
        "time": 0,
        "note": 40,
        "velocity": 100,
        "channel": 9
      },
      {
        "type": "note_on",
        "time": 0,
        "note": 38,
        "velocity": 100,
        "channel": 9
      },
      {
        "type": "note_on",
        "time": 15,
        "note": 38,
        "velocity": 0,
        "channel": 9
      },
      {
        "type": "note_on",
        "time": 0,
        "note": 40,
        "velocity": 0,
        "channel": 9
      },
      {
        "type": "note_on",
        "time": 0,
        "note": 46,
        "velocity": 0,
        "channel": 9
      },
      {
        "type": "note_on",
        "time": 45,
        "note": 46,
        "velocity": 100,
        "channel": 9
      },
      {
        "type": "note_on",
        "time": 0,
        "note": 36,
        "velocity": 100,
        "channel": 9
      },
      {
        "type": "note_on",
        "time": 15,
        "note": 36,
        "velocity": 0,
        "channel": 9
      },
      {
        "type": "note_on",
        "time": 0,
        "note": 46,
        "velocity": 0,
        "channel": 9
      },
      {
        "type": "note_on",
        "time": 45,
        "note": 46,
        "velocity": 100,
        "channel": 9
      },
      {
        "type": "note_on",
        "time": 0,
        "note": 36,
        "velocity": 100,
        "channel": 9
      },
      {
        "type": "note_on",
        "time": 15,
        "note": 36,
        "velocity": 0,
        "channel": 9
      },
      {
        "type": "note_on",
        "time": 0,
        "note": 46,
        "velocity": 0,
        "channel": 9
      },
      {
        "type": "note_on",
        "time": 15,
        "note": 38,
        "velocity": 100,
        "channel": 9
      },
      {
        "type": "note_on",
        "time": 15,
        "note": 38,
        "velocity": 0,
        "channel": 9
      },
      {
        "type": "note_on",
        "time": 15,
        "note": 46,
        "velocity": 100,
        "channel": 9
      },
      {
        "type": "note_on",
        "time": 15,
        "note": 46,
        "velocity": 0,
        "channel": 9
      },
      {
        "type": "note_on",
        "time": 45,
        "note": 46,
        "velocity": 100,
        "channel": 9
      },
      {
        "type": "note_on",
        "time": 0,
        "note": 38,
        "velocity": 100,
        "channel": 9
      },
      {
        "type": "note_on",
        "time": 0,
        "note": 40,
        "velocity": 100,
        "channel": 9
      },
      {
        "type": "note_on",
        "time": 15,
        "note": 40,
        "velocity": 0,
        "channel": 9
      },
      {
        "type": "note_on",
        "time": 0,
        "note": 38,
        "velocity": 0,
        "channel": 9
      },
      {
        "type": "note_on",
        "time": 0,
        "note": 46,
        "velocity": 0,
        "channel": 9
      },
      {
        "type": "note_on",
        "time": 45,
        "note": 46,
        "velocity": 100,
        "channel": 9
      },
      {
        "type": "note_on",
        "time": 15,
        "note": 46,
        "velocity": 0,
        "channel": 9
      },
      {
        "type": "note_on",
        "time": 45,
        "note": 46,
        "velocity": 100,
        "channel": 9
      },
      {
        "type": "note_on",
        "time": 0,
        "note": 36,
        "velocity": 100,
        "channel": 9
      },
      {
        "type": "note_on",
        "time": 15,
        "note": 36,
        "velocity": 0,
        "channel": 9
      },
      {
        "type": "note_on",
        "time": 0,
        "note": 46,
        "velocity": 0,
        "channel": 9
      },
      {
        "type": "note_on",
        "time": 45,
        "note": 46,
        "velocity": 100,
        "channel": 9
      },
      {
        "type": "note_on",
        "time": 0,
        "note": 36,
        "velocity": 100,
        "channel": 9
      },
      {
        "type": "note_on",
        "time": 15,
        "note": 36,
        "velocity": 0,
        "channel": 9
      },
      {
        "type": "note_on",
        "time": 0,
        "note": 46,
        "velocity": 0,
        "channel": 9
      },
      {
        "type": "note_on",
        "time": 45,
        "note": 46,
        "velocity": 100,
        "channel": 9
      },
      {
        "type": "note_on",
        "time": 0,
        "note": 40,
        "velocity": 100,
        "channel": 9
      },
      {
        "type": "note_on",
        "time": 0,
        "note": 38,
        "velocity": 100,
        "channel": 9
      },
      {
        "type": "note_on",
        "time": 15,
        "note": 38,
        "velocity": 0,
        "channel": 9
      },
      {
        "type": "note_on",
        "time": 0,
        "note": 40,
        "velocity": 0,
        "channel": 9
      },
      {
        "type": "note_on",
        "time": 0,
        "note": 46,
        "velocity": 0,
        "channel": 9
      },
      {
        "type": "note_on",
        "time": 45,
        "note": 46,
        "velocity": 100,
        "channel": 9
      },
      {
        "type": "note_on",
        "time": 0,
        "note": 36,
        "velocity": 100,
        "channel": 9
      },
      {
        "type": "note_on",
        "time": 15,
        "note": 36,
        "velocity": 0,
        "channel": 9
      },
      {
        "type": "note_on",
        "time": 0,
        "note": 46,
        "velocity": 0,
        "channel": 9
      },
      {
        "type": "note_on",
        "time": 45,
        "note": 52,
        "velocity": 100,
        "channel": 9
      },
      {
        "type": "note_on",
        "time": 0,
        "note": 46,
        "velocity": 100,
        "channel": 9
      },
      {
        "type": "note_on",
        "time": 0,
        "note": 36,
        "velocity": 100,
        "channel": 9
      },
      {
        "type": "note_on",
        "time": 15,
        "note": 36,
        "velocity": 0,
        "channel": 9
      },
      {
        "type": "note_on",
        "time": 0,
        "note": 46,
        "velocity": 0,
        "channel": 9
      },
      {
        "type": "note_on",
        "time": 0,
        "note": 52,
        "velocity": 0,
        "channel": 9
      },
      {
        "type": "note_on",
        "time": 15,
        "note": 40,
        "velocity": 100,
        "channel": 9
      },
      {
        "type": "note_on",
        "time": 0,
        "note": 38,
        "velocity": 100,
        "channel": 9
      },
      {
        "type": "note_on",
        "time": 15,
        "note": 38,
        "velocity": 0,
        "channel": 9
      },
      {
        "type": "note_on",
        "time": 0,
        "note": 40,
        "velocity": 0,
        "channel": 9
      },
      {
        "type": "note_on",
        "time": 15,
        "note": 46,
        "velocity": 100,
        "channel": 9
      },
      {
        "type": "note_on",
        "time": 15,
        "note": 46,
        "velocity": 0,
        "channel": 9
      },
      {
        "type": "note_on",
        "time": 15,
        "note": 38,
        "velocity": 100,
        "channel": 9
      },
      {
        "type": "note_on",
        "time": 15,
        "note": 38,
        "velocity": 0,
        "channel": 9
      },
      {
        "type": "note_on",
        "time": 15,
        "note": 52,
        "velocity": 100,
        "channel": 9
      },
      {
        "type": "note_on",
        "time": 0,
        "note": 46,
        "velocity": 100,
        "channel": 9
      },
      {
        "type": "note_on",
        "time": 0,
        "note": 38,
        "velocity": 100,
        "channel": 9
      },
      {
        "type": "note_on",
        "time": 0,
        "note": 40,
        "velocity": 100,
        "channel": 9
      },
      {
        "type": "note_on",
        "time": 15,
        "note": 40,
        "velocity": 0,
        "channel": 9
      },
      {
        "type": "note_on",
        "time": 0,
        "note": 52,
        "velocity": 0,
        "channel": 9
      },
      {
        "type": "note_on",
        "time": 0,
        "note": 46,
        "velocity": 0,
        "channel": 9
      },
      {
        "type": "note_on",
        "time": 0,
        "note": 38,
        "velocity": 0,
        "channel": 9
      },
      {
        "type": "note_on",
        "time": 45,
        "note": 52,
        "velocity": 100,
        "channel": 9
      },
      {
        "type": "note_on",
        "time": 0,
        "note": 46,
        "velocity": 100,
        "channel": 9
      },
      {
        "type": "note_on",
        "time": 0,
        "note": 38,
        "velocity": 100,
        "channel": 9
      },
      {
        "type": "note_on",
        "time": 0,
        "note": 40,
        "velocity": 100,
        "channel": 9
      },
      {
        "type": "note_on",
        "time": 15,
        "note": 40,
        "velocity": 0,
        "channel": 9
      },
      {
        "type": "note_on",
        "time": 0,
        "note": 52,
        "velocity": 0,
        "channel": 9
      },
      {
        "type": "note_on",
        "time": 0,
        "note": 46,
        "velocity": 0,
        "channel": 9
      },
      {
        "type": "note_on",
        "time": 0,
        "note": 38,
        "velocity": 0,
        "channel": 9
      },
      {
        "type": "note_on",
        "time": 15,
        "note": 52,
        "velocity": 100,
        "channel": 9
      },
      {
        "type": "note_on",
        "time": 0,
        "note": 46,
        "velocity": 100,
        "channel": 9
      },
      {
        "type": "note_on",
        "time": 0,
        "note": 40,
        "velocity": 100,
        "channel": 9
      },
      {
        "type": "note_on",
        "time": 0,
        "note": 38,
        "velocity": 100,
        "channel": 9
      },
      {
        "type": "note_on",
        "time": 15,
        "note": 38,
        "velocity": 0,
        "channel": 9
      },
      {
        "type": "note_on",
        "time": 0,
        "note": 52,
        "velocity": 0,
        "channel": 9
      },
      {
        "type": "note_on",
        "time": 0,
        "note": 46,
        "velocity": 0,
        "channel": 9
      },
      {
        "type": "note_on",
        "time": 0,
        "note": 40,
        "velocity": 0,
        "channel": 9
      },
      {
        "type": "end_of_track",
        "time": 0
      }
    ],
    [
      {
        "type": "midi_port",
        "port": 0,
        "time": 0
      },
      {
        "type": "track_name",
        "name": "bass",
        "time": 0
      },
      {
        "type": "program_change",
        "time": 0,
        "program": 37,
        "channel": 5
      },
      {
        "type": "control_change",
        "time": 0,
        "control": 7,
        "value": 100,
        "channel": 5
      },
      {
        "type": "control_change",
        "time": 0,
        "control": 10,
        "value": 64,
        "channel": 5
      },
      {
        "type": "note_on",
        "time": 8160,
        "note": 28,
        "velocity": 100,
        "channel": 5
      },
      {
        "type": "note_on",
        "time": 30,
        "note": 28,
        "velocity": 0,
        "channel": 5
      },
      {
        "type": "note_on",
        "time": 0,
        "note": 28,
        "velocity": 100,
        "channel": 5
      },
      {
        "type": "note_on",
        "time": 30,
        "note": 28,
        "velocity": 0,
        "channel": 5
      },
      {
        "type": "note_on",
        "time": 0,
        "note": 38,
        "velocity": 100,
        "channel": 5
      },
      {
        "type": "note_on",
        "time": 45,
        "note": 38,
        "velocity": 0,
        "channel": 5
      },
      {
        "type": "note_on",
        "time": 15,
        "note": 40,
        "velocity": 100,
        "channel": 5
      },
      {
        "type": "note_on",
        "time": 45,
        "note": 40,
        "velocity": 0,
        "channel": 5
      },
      {
        "type": "note_on",
        "time": 15,
        "note": 28,
        "velocity": 100,
        "channel": 5
      },
      {
        "type": "note_on",
        "time": 30,
        "note": 28,
        "velocity": 0,
        "channel": 5
      },
      {
        "type": "note_on",
        "time": 0,
        "note": 28,
        "velocity": 100,
        "channel": 5
      },
      {
        "type": "note_on",
        "time": 30,
        "note": 28,
        "velocity": 0,
        "channel": 5
      },
      {
        "type": "note_on",
        "time": 0,
        "note": 28,
        "velocity": 100,
        "channel": 5
      },
      {
        "type": "note_on",
        "time": 30,
        "note": 28,
        "velocity": 0,
        "channel": 5
      },
      {
        "type": "note_on",
        "time": 0,
        "note": 38,
        "velocity": 100,
        "channel": 5
      },
      {
        "type": "note_on",
        "time": 45,
        "note": 38,
        "velocity": 0,
        "channel": 5
      },
      {
        "type": "note_on",
        "time": 15,
        "note": 40,
        "velocity": 100,
        "channel": 5
      },
      {
        "type": "note_on",
        "time": 45,
        "note": 40,
        "velocity": 0,
        "channel": 5
      },
      {
        "type": "note_on",
        "time": 105,
        "note": 26,
        "velocity": 100,
        "channel": 5
      },
      {
        "type": "note_on",
        "time": 30,
        "note": 26,
        "velocity": 0,
        "channel": 5
      },
      {
        "type": "note_on",
        "time": 0,
        "note": 26,
        "velocity": 100,
        "channel": 5
      },
      {
        "type": "note_on",
        "time": 30,
        "note": 26,
        "velocity": 0,
        "channel": 5
      },
      {
        "type": "note_on",
        "time": 0,
        "note": 38,
        "velocity": 100,
        "channel": 5
      },
      {
        "type": "note_on",
        "time": 45,
        "note": 38,
        "velocity": 0,
        "channel": 5
      },
      {
        "type": "note_on",
        "time": 15,
        "note": 40,
        "velocity": 100,
        "channel": 5
      },
      {
        "type": "note_on",
        "time": 45,
        "note": 40,
        "velocity": 0,
        "channel": 5
      },
      {
        "type": "note_on",
        "time": 15,
        "note": 26,
        "velocity": 100,
        "channel": 5
      },
      {
        "type": "note_on",
        "time": 60,
        "note": 26,
        "velocity": 0,
        "channel": 5
      },
      {
        "type": "note_on",
        "time": 30,
        "note": 38,
        "velocity": 100,
        "channel": 5
      },
      {
        "type": "note_on",
        "time": 45,
        "note": 38,
        "velocity": 0,
        "channel": 5
      },
      {
        "type": "note_on",
        "time": 15,
        "note": 40,
        "velocity": 100,
        "channel": 5
      },
      {
        "type": "note_on",
        "time": 45,
        "note": 40,
        "velocity": 0,
        "channel": 5
      },
      {
        "type": "note_on",
        "time": 105,
        "note": 30,
        "velocity": 100,
        "channel": 5
      },
      {
        "type": "note_on",
        "time": 60,
        "note": 30,
        "velocity": 0,
        "channel": 5
      },
      {
        "type": "note_on",
        "time": 0,
        "note": 35,
        "velocity": 100,
        "channel": 5
      },
      {
        "type": "note_on",
        "time": 45,
        "note": 35,
        "velocity": 0,
        "channel": 5
      },
      {
        "type": "note_on",
        "time": 15,
        "note": 35,
        "velocity": 100,
        "channel": 5
      },
      {
        "type": "note_on",
        "time": 45,
        "note": 35,
        "velocity": 0,
        "channel": 5
      },
      {
        "type": "note_on",
        "time": 15,
        "note": 30,
        "velocity": 100,
        "channel": 5
      },
      {
        "type": "note_on",
        "time": 60,
        "note": 30,
        "velocity": 0,
        "channel": 5
      },
      {
        "type": "note_on",
        "time": 30,
        "note": 35,
        "velocity": 100,
        "channel": 5
      },
      {
        "type": "note_on",
        "time": 45,
        "note": 35,
        "velocity": 0,
        "channel": 5
      },
      {
        "type": "note_on",
        "time": 15,
        "note": 35,
        "velocity": 100,
        "channel": 5
      },
      {
        "type": "note_on",
        "time": 45,
        "note": 35,
        "velocity": 0,
        "channel": 5
      },
      {
        "type": "note_on",
        "time": 15,
        "note": 30,
        "velocity": 100,
        "channel": 5
      },
      {
        "type": "note_on",
        "time": 30,
        "note": 30,
        "velocity": 0,
        "channel": 5
      },
      {
        "type": "note_on",
        "time": 0,
        "note": 30,
        "velocity": 100,
        "channel": 5
      },
      {
        "type": "note_on",
        "time": 30,
        "note": 30,
        "velocity": 0,
        "channel": 5
      },
      {
        "type": "note_on",
        "time": 0,
        "note": 30,
        "velocity": 100,
        "channel": 5
      },
      {
        "type": "note_on",
        "time": 30,
        "note": 30,
        "velocity": 0,
        "channel": 5
      },
      {
        "type": "note_on",
        "time": 0,
        "note": 31,
        "velocity": 100,
        "channel": 5
      },
      {
        "type": "note_on",
        "time": 60,
        "note": 31,
        "velocity": 0,
        "channel": 5
      },
      {
        "type": "note_on",
        "time": 0,
        "note": 36,
        "velocity": 100,
        "channel": 5
      },
      {
        "type": "note_on",
        "time": 45,
        "note": 36,
        "velocity": 0,
        "channel": 5
      },
      {
        "type": "note_on",
        "time": 15,
        "note": 36,
        "velocity": 100,
        "channel": 5
      },
      {
        "type": "note_on",
        "time": 45,
        "note": 36,
        "velocity": 0,
        "channel": 5
      },
      {
        "type": "note_on",
        "time": 15,
        "note": 31,
        "velocity": 100,
        "channel": 5
      },
      {
        "type": "note_on",
        "time": 60,
        "note": 31,
        "velocity": 0,
        "channel": 5
      },
      {
        "type": "note_on",
        "time": 30,
        "note": 36,
        "velocity": 100,
        "channel": 5
      },
      {
        "type": "note_on",
        "time": 45,
        "note": 36,
        "velocity": 0,
        "channel": 5
      },
      {
        "type": "note_on",
        "time": 15,
        "note": 36,
        "velocity": 100,
        "channel": 5
      },
      {
        "type": "note_on",
        "time": 45,
        "note": 36,
        "velocity": 0,
        "channel": 5
      },
      {
        "type": "note_on",
        "time": 15,
        "note": 31,
        "velocity": 100,
        "channel": 5
      },
      {
        "type": "note_on",
        "time": 30,
        "note": 31,
        "velocity": 0,
        "channel": 5
      },
      {
        "type": "note_on",
        "time": 0,
        "note": 31,
        "velocity": 100,
        "channel": 5
      },
      {
        "type": "note_on",
        "time": 30,
        "note": 31,
        "velocity": 0,
        "channel": 5
      },
      {
        "type": "note_on",
        "time": 0,
        "note": 31,
        "velocity": 100,
        "channel": 5
      },
      {
        "type": "note_on",
        "time": 30,
        "note": 31,
        "velocity": 0,
        "channel": 5
      },
      {
        "type": "note_on",
        "time": 0,
        "note": 28,
        "velocity": 100,
        "channel": 5
      },
      {
        "type": "note_on",
        "time": 30,
        "note": 28,
        "velocity": 0,
        "channel": 5
      },
      {
        "type": "note_on",
        "time": 0,
        "note": 28,
        "velocity": 100,
        "channel": 5
      },
      {
        "type": "note_on",
        "time": 30,
        "note": 28,
        "velocity": 0,
        "channel": 5
      },
      {
        "type": "note_on",
        "time": 0,
        "note": 38,
        "velocity": 100,
        "channel": 5
      },
      {
        "type": "note_on",
        "time": 45,
        "note": 38,
        "velocity": 0,
        "channel": 5
      },
      {
        "type": "note_on",
        "time": 15,
        "note": 40,
        "velocity": 100,
        "channel": 5
      },
      {
        "type": "note_on",
        "time": 45,
        "note": 40,
        "velocity": 0,
        "channel": 5
      },
      {
        "type": "note_on",
        "time": 15,
        "note": 28,
        "velocity": 100,
        "channel": 5
      },
      {
        "type": "note_on",
        "time": 30,
        "note": 28,
        "velocity": 0,
        "channel": 5
      },
      {
        "type": "note_on",
        "time": 0,
        "note": 28,
        "velocity": 100,
        "channel": 5
      },
      {
        "type": "note_on",
        "time": 30,
        "note": 28,
        "velocity": 0,
        "channel": 5
      },
      {
        "type": "note_on",
        "time": 0,
        "note": 28,
        "velocity": 100,
        "channel": 5
      },
      {
        "type": "note_on",
        "time": 30,
        "note": 28,
        "velocity": 0,
        "channel": 5
      },
      {
        "type": "note_on",
        "time": 0,
        "note": 38,
        "velocity": 100,
        "channel": 5
      },
      {
        "type": "note_on",
        "time": 45,
        "note": 38,
        "velocity": 0,
        "channel": 5
      },
      {
        "type": "note_on",
        "time": 15,
        "note": 40,
        "velocity": 100,
        "channel": 5
      },
      {
        "type": "note_on",
        "time": 45,
        "note": 40,
        "velocity": 0,
        "channel": 5
      },
      {
        "type": "note_on",
        "time": 105,
        "note": 26,
        "velocity": 100,
        "channel": 5
      },
      {
        "type": "note_on",
        "time": 30,
        "note": 26,
        "velocity": 0,
        "channel": 5
      },
      {
        "type": "note_on",
        "time": 0,
        "note": 26,
        "velocity": 100,
        "channel": 5
      },
      {
        "type": "note_on",
        "time": 30,
        "note": 26,
        "velocity": 0,
        "channel": 5
      },
      {
        "type": "note_on",
        "time": 0,
        "note": 38,
        "velocity": 100,
        "channel": 5
      },
      {
        "type": "note_on",
        "time": 45,
        "note": 38,
        "velocity": 0,
        "channel": 5
      },
      {
        "type": "note_on",
        "time": 15,
        "note": 40,
        "velocity": 100,
        "channel": 5
      },
      {
        "type": "note_on",
        "time": 45,
        "note": 40,
        "velocity": 0,
        "channel": 5
      },
      {
        "type": "note_on",
        "time": 15,
        "note": 26,
        "velocity": 100,
        "channel": 5
      },
      {
        "type": "note_on",
        "time": 60,
        "note": 26,
        "velocity": 0,
        "channel": 5
      },
      {
        "type": "note_on",
        "time": 30,
        "note": 38,
        "velocity": 100,
        "channel": 5
      },
      {
        "type": "note_on",
        "time": 45,
        "note": 38,
        "velocity": 0,
        "channel": 5
      },
      {
        "type": "note_on",
        "time": 15,
        "note": 40,
        "velocity": 100,
        "channel": 5
      },
      {
        "type": "note_on",
        "time": 45,
        "note": 40,
        "velocity": 0,
        "channel": 5
      },
      {
        "type": "note_on",
        "time": 105,
        "note": 30,
        "velocity": 100,
        "channel": 5
      },
      {
        "type": "note_on",
        "time": 60,
        "note": 30,
        "velocity": 0,
        "channel": 5
      },
      {
        "type": "note_on",
        "time": 0,
        "note": 35,
        "velocity": 100,
        "channel": 5
      },
      {
        "type": "note_on",
        "time": 45,
        "note": 35,
        "velocity": 0,
        "channel": 5
      },
      {
        "type": "note_on",
        "time": 15,
        "note": 35,
        "velocity": 100,
        "channel": 5
      },
      {
        "type": "note_on",
        "time": 45,
        "note": 35,
        "velocity": 0,
        "channel": 5
      },
      {
        "type": "note_on",
        "time": 15,
        "note": 30,
        "velocity": 100,
        "channel": 5
      },
      {
        "type": "note_on",
        "time": 60,
        "note": 30,
        "velocity": 0,
        "channel": 5
      },
      {
        "type": "note_on",
        "time": 30,
        "note": 35,
        "velocity": 100,
        "channel": 5
      },
      {
        "type": "note_on",
        "time": 45,
        "note": 35,
        "velocity": 0,
        "channel": 5
      },
      {
        "type": "note_on",
        "time": 15,
        "note": 35,
        "velocity": 100,
        "channel": 5
      },
      {
        "type": "note_on",
        "time": 45,
        "note": 35,
        "velocity": 0,
        "channel": 5
      },
      {
        "type": "note_on",
        "time": 15,
        "note": 30,
        "velocity": 100,
        "channel": 5
      },
      {
        "type": "note_on",
        "time": 30,
        "note": 30,
        "velocity": 0,
        "channel": 5
      },
      {
        "type": "note_on",
        "time": 0,
        "note": 30,
        "velocity": 100,
        "channel": 5
      },
      {
        "type": "note_on",
        "time": 30,
        "note": 30,
        "velocity": 0,
        "channel": 5
      },
      {
        "type": "note_on",
        "time": 0,
        "note": 30,
        "velocity": 100,
        "channel": 5
      },
      {
        "type": "note_on",
        "time": 30,
        "note": 30,
        "velocity": 0,
        "channel": 5
      },
      {
        "type": "note_on",
        "time": 0,
        "note": 31,
        "velocity": 100,
        "channel": 5
      },
      {
        "type": "note_on",
        "time": 60,
        "note": 31,
        "velocity": 0,
        "channel": 5
      },
      {
        "type": "note_on",
        "time": 0,
        "note": 36,
        "velocity": 100,
        "channel": 5
      },
      {
        "type": "note_on",
        "time": 45,
        "note": 36,
        "velocity": 0,
        "channel": 5
      },
      {
        "type": "note_on",
        "time": 15,
        "note": 36,
        "velocity": 100,
        "channel": 5
      },
      {
        "type": "note_on",
        "time": 45,
        "note": 36,
        "velocity": 0,
        "channel": 5
      },
      {
        "type": "note_on",
        "time": 15,
        "note": 31,
        "velocity": 100,
        "channel": 5
      },
      {
        "type": "note_on",
        "time": 60,
        "note": 31,
        "velocity": 0,
        "channel": 5
      },
      {
        "type": "note_on",
        "time": 30,
        "note": 36,
        "velocity": 100,
        "channel": 5
      },
      {
        "type": "note_on",
        "time": 45,
        "note": 36,
        "velocity": 0,
        "channel": 5
      },
      {
        "type": "note_on",
        "time": 15,
        "note": 36,
        "velocity": 100,
        "channel": 5
      },
      {
        "type": "note_on",
        "time": 45,
        "note": 36,
        "velocity": 0,
        "channel": 5
      },
      {
        "type": "note_on",
        "time": 15,
        "note": 31,
        "velocity": 100,
        "channel": 5
      },
      {
        "type": "note_on",
        "time": 30,
        "note": 31,
        "velocity": 0,
        "channel": 5
      },
      {
        "type": "note_on",
        "time": 0,
        "note": 31,
        "velocity": 100,
        "channel": 5
      },
      {
        "type": "note_on",
        "time": 30,
        "note": 31,
        "velocity": 0,
        "channel": 5
      },
      {
        "type": "note_on",
        "time": 0,
        "note": 31,
        "velocity": 100,
        "channel": 5
      },
      {
        "type": "note_on",
        "time": 30,
        "note": 31,
        "velocity": 0,
        "channel": 5
      },
      {
        "type": "note_on",
        "time": 0,
        "note": 28,
        "velocity": 100,
        "channel": 5
      },
      {
        "type": "note_on",
        "time": 30,
        "note": 28,
        "velocity": 0,
        "channel": 5
      },
      {
        "type": "note_on",
        "time": 0,
        "note": 28,
        "velocity": 100,
        "channel": 5
      },
      {
        "type": "note_on",
        "time": 30,
        "note": 28,
        "velocity": 0,
        "channel": 5
      },
      {
        "type": "note_on",
        "time": 0,
        "note": 38,
        "velocity": 100,
        "channel": 5
      },
      {
        "type": "note_on",
        "time": 45,
        "note": 38,
        "velocity": 0,
        "channel": 5
      },
      {
        "type": "note_on",
        "time": 15,
        "note": 40,
        "velocity": 100,
        "channel": 5
      },
      {
        "type": "note_on",
        "time": 45,
        "note": 40,
        "velocity": 0,
        "channel": 5
      },
      {
        "type": "note_on",
        "time": 15,
        "note": 28,
        "velocity": 100,
        "channel": 5
      },
      {
        "type": "note_on",
        "time": 30,
        "note": 28,
        "velocity": 0,
        "channel": 5
      },
      {
        "type": "note_on",
        "time": 0,
        "note": 28,
        "velocity": 100,
        "channel": 5
      },
      {
        "type": "note_on",
        "time": 30,
        "note": 28,
        "velocity": 0,
        "channel": 5
      },
      {
        "type": "note_on",
        "time": 0,
        "note": 28,
        "velocity": 100,
        "channel": 5
      },
      {
        "type": "note_on",
        "time": 30,
        "note": 28,
        "velocity": 0,
        "channel": 5
      },
      {
        "type": "note_on",
        "time": 0,
        "note": 38,
        "velocity": 100,
        "channel": 5
      },
      {
        "type": "note_on",
        "time": 45,
        "note": 38,
        "velocity": 0,
        "channel": 5
      },
      {
        "type": "note_on",
        "time": 15,
        "note": 40,
        "velocity": 100,
        "channel": 5
      },
      {
        "type": "note_on",
        "time": 45,
        "note": 40,
        "velocity": 0,
        "channel": 5
      },
      {
        "type": "note_on",
        "time": 105,
        "note": 26,
        "velocity": 100,
        "channel": 5
      },
      {
        "type": "note_on",
        "time": 30,
        "note": 26,
        "velocity": 0,
        "channel": 5
      },
      {
        "type": "note_on",
        "time": 0,
        "note": 26,
        "velocity": 100,
        "channel": 5
      },
      {
        "type": "note_on",
        "time": 30,
        "note": 26,
        "velocity": 0,
        "channel": 5
      },
      {
        "type": "note_on",
        "time": 0,
        "note": 38,
        "velocity": 100,
        "channel": 5
      },
      {
        "type": "note_on",
        "time": 45,
        "note": 38,
        "velocity": 0,
        "channel": 5
      },
      {
        "type": "note_on",
        "time": 15,
        "note": 40,
        "velocity": 100,
        "channel": 5
      },
      {
        "type": "note_on",
        "time": 45,
        "note": 40,
        "velocity": 0,
        "channel": 5
      },
      {
        "type": "note_on",
        "time": 15,
        "note": 26,
        "velocity": 100,
        "channel": 5
      },
      {
        "type": "note_on",
        "time": 60,
        "note": 26,
        "velocity": 0,
        "channel": 5
      },
      {
        "type": "note_on",
        "time": 30,
        "note": 38,
        "velocity": 100,
        "channel": 5
      },
      {
        "type": "note_on",
        "time": 45,
        "note": 38,
        "velocity": 0,
        "channel": 5
      },
      {
        "type": "note_on",
        "time": 15,
        "note": 40,
        "velocity": 100,
        "channel": 5
      },
      {
        "type": "note_on",
        "time": 45,
        "note": 40,
        "velocity": 0,
        "channel": 5
      },
      {
        "type": "note_on",
        "time": 105,
        "note": 30,
        "velocity": 100,
        "channel": 5
      },
      {
        "type": "note_on",
        "time": 60,
        "note": 30,
        "velocity": 0,
        "channel": 5
      },
      {
        "type": "note_on",
        "time": 0,
        "note": 35,
        "velocity": 100,
        "channel": 5
      },
      {
        "type": "note_on",
        "time": 45,
        "note": 35,
        "velocity": 0,
        "channel": 5
      },
      {
        "type": "note_on",
        "time": 15,
        "note": 35,
        "velocity": 100,
        "channel": 5
      },
      {
        "type": "note_on",
        "time": 45,
        "note": 35,
        "velocity": 0,
        "channel": 5
      },
      {
        "type": "note_on",
        "time": 15,
        "note": 30,
        "velocity": 100,
        "channel": 5
      },
      {
        "type": "note_on",
        "time": 60,
        "note": 30,
        "velocity": 0,
        "channel": 5
      },
      {
        "type": "note_on",
        "time": 30,
        "note": 35,
        "velocity": 100,
        "channel": 5
      },
      {
        "type": "note_on",
        "time": 45,
        "note": 35,
        "velocity": 0,
        "channel": 5
      },
      {
        "type": "note_on",
        "time": 15,
        "note": 35,
        "velocity": 100,
        "channel": 5
      },
      {
        "type": "note_on",
        "time": 45,
        "note": 35,
        "velocity": 0,
        "channel": 5
      },
      {
        "type": "note_on",
        "time": 15,
        "note": 30,
        "velocity": 100,
        "channel": 5
      },
      {
        "type": "note_on",
        "time": 30,
        "note": 30,
        "velocity": 0,
        "channel": 5
      },
      {
        "type": "note_on",
        "time": 0,
        "note": 30,
        "velocity": 100,
        "channel": 5
      },
      {
        "type": "note_on",
        "time": 30,
        "note": 30,
        "velocity": 0,
        "channel": 5
      },
      {
        "type": "note_on",
        "time": 0,
        "note": 30,
        "velocity": 100,
        "channel": 5
      },
      {
        "type": "note_on",
        "time": 30,
        "note": 30,
        "velocity": 0,
        "channel": 5
      },
      {
        "type": "note_on",
        "time": 0,
        "note": 31,
        "velocity": 100,
        "channel": 5
      },
      {
        "type": "note_on",
        "time": 60,
        "note": 31,
        "velocity": 0,
        "channel": 5
      },
      {
        "type": "note_on",
        "time": 0,
        "note": 36,
        "velocity": 100,
        "channel": 5
      },
      {
        "type": "note_on",
        "time": 45,
        "note": 36,
        "velocity": 0,
        "channel": 5
      },
      {
        "type": "note_on",
        "time": 15,
        "note": 36,
        "velocity": 100,
        "channel": 5
      },
      {
        "type": "note_on",
        "time": 45,
        "note": 36,
        "velocity": 0,
        "channel": 5
      },
      {
        "type": "note_on",
        "time": 15,
        "note": 31,
        "velocity": 100,
        "channel": 5
      },
      {
        "type": "note_on",
        "time": 60,
        "note": 31,
        "velocity": 0,
        "channel": 5
      },
      {
        "type": "note_on",
        "time": 30,
        "note": 36,
        "velocity": 100,
        "channel": 5
      },
      {
        "type": "note_on",
        "time": 45,
        "note": 36,
        "velocity": 0,
        "channel": 5
      },
      {
        "type": "note_on",
        "time": 15,
        "note": 36,
        "velocity": 100,
        "channel": 5
      },
      {
        "type": "note_on",
        "time": 45,
        "note": 36,
        "velocity": 0,
        "channel": 5
      },
      {
        "type": "note_on",
        "time": 15,
        "note": 31,
        "velocity": 100,
        "channel": 5
      },
      {
        "type": "note_on",
        "time": 30,
        "note": 31,
        "velocity": 0,
        "channel": 5
      },
      {
        "type": "note_on",
        "time": 0,
        "note": 31,
        "velocity": 100,
        "channel": 5
      },
      {
        "type": "note_on",
        "time": 30,
        "note": 31,
        "velocity": 0,
        "channel": 5
      },
      {
        "type": "note_on",
        "time": 0,
        "note": 31,
        "velocity": 100,
        "channel": 5
      },
      {
        "type": "note_on",
        "time": 30,
        "note": 31,
        "velocity": 0,
        "channel": 5
      },
      {
        "type": "note_on",
        "time": 0,
        "note": 31,
        "velocity": 100,
        "channel": 5
      },
      {
        "type": "note_on",
        "time": 75,
        "note": 31,
        "velocity": 0,
        "channel": 5
      },
      {
        "type": "note_on",
        "time": 15,
        "note": 31,
        "velocity": 100,
        "channel": 5
      },
      {
        "type": "note_on",
        "time": 30,
        "note": 31,
        "velocity": 0,
        "channel": 5
      },
      {
        "type": "note_on",
        "time": 0,
        "note": 40,
        "velocity": 100,
        "channel": 5
      },
      {
        "type": "note_on",
        "time": 60,
        "note": 40,
        "velocity": 0,
        "channel": 5
      },
      {
        "type": "note_on",
        "time": 0,
        "note": 38,
        "velocity": 100,
        "channel": 5
      },
      {
        "type": "note_on",
        "time": 120,
        "note": 38,
        "velocity": 0,
        "channel": 5
      },
      {
        "type": "note_on",
        "time": 60,
        "note": 38,
        "velocity": 100,
        "channel": 5
      },
      {
        "type": "note_on",
        "time": 60,
        "note": 38,
        "velocity": 0,
        "channel": 5
      },
      {
        "type": "note_on",
        "time": 0,
        "note": 38,
        "velocity": 100,
        "channel": 5
      },
      {
        "type": "note_on",
        "time": 60,
        "note": 38,
        "velocity": 0,
        "channel": 5
      },
      {
        "type": "note_on",
        "time": 0,
        "note": 35,
        "velocity": 100,
        "channel": 5
      },
      {
        "type": "note_on",
        "time": 60,
        "note": 35,
        "velocity": 0,
        "channel": 5
      },
      {
        "type": "note_on",
        "time": 30,
        "note": 35,
        "velocity": 100,
        "channel": 5
      },
      {
        "type": "note_on",
        "time": 30,
        "note": 35,
        "velocity": 0,
        "channel": 5
      },
      {
        "type": "note_on",
        "time": 0,
        "note": 35,
        "velocity": 100,
        "channel": 5
      },
      {
        "type": "note_on",
        "time": 60,
        "note": 35,
        "velocity": 0,
        "channel": 5
      },
      {
        "type": "note_on",
        "time": 0,
        "note": 36,
        "velocity": 100,
        "channel": 5
      },
      {
        "type": "note_on",
        "time": 60,
        "note": 36,
        "velocity": 0,
        "channel": 5
      },
      {
        "type": "note_on",
        "time": 60,
        "note": 36,
        "velocity": 100,
        "channel": 5
      },
      {
        "type": "note_on",
        "time": 60,
        "note": 36,
        "velocity": 0,
        "channel": 5
      },
      {
        "type": "note_on",
        "time": 0,
        "note": 35,
        "velocity": 100,
        "channel": 5
      },
      {
        "type": "note_on",
        "time": 30,
        "note": 35,
        "velocity": 0,
        "channel": 5
      },
      {
        "type": "note_on",
        "time": 0,
        "note": 36,
        "velocity": 100,
        "channel": 5
      },
      {
        "type": "note_on",
        "time": 30,
        "note": 36,
        "velocity": 0,
        "channel": 5
      },
      {
        "type": "note_on",
        "time": 0,
        "note": 35,
        "velocity": 100,
        "channel": 5
      },
      {
        "type": "note_on",
        "time": 60,
        "note": 35,
        "velocity": 0,
        "channel": 5
      },
      {
        "type": "note_on",
        "time": 0,
        "note": 31,
        "velocity": 100,
        "channel": 5
      },
      {
        "type": "note_on",
        "time": 75,
        "note": 31,
        "velocity": 0,
        "channel": 5
      },
      {
        "type": "note_on",
        "time": 15,
        "note": 31,
        "velocity": 100,
        "channel": 5
      },
      {
        "type": "note_on",
        "time": 30,
        "note": 31,
        "velocity": 0,
        "channel": 5
      },
      {
        "type": "note_on",
        "time": 0,
        "note": 40,
        "velocity": 100,
        "channel": 5
      },
      {
        "type": "note_on",
        "time": 60,
        "note": 40,
        "velocity": 0,
        "channel": 5
      },
      {
        "type": "note_on",
        "time": 0,
        "note": 38,
        "velocity": 100,
        "channel": 5
      },
      {
        "type": "note_on",
        "time": 120,
        "note": 38,
        "velocity": 0,
        "channel": 5
      },
      {
        "type": "note_on",
        "time": 60,
        "note": 38,
        "velocity": 100,
        "channel": 5
      },
      {
        "type": "note_on",
        "time": 60,
        "note": 38,
        "velocity": 0,
        "channel": 5
      },
      {
        "type": "note_on",
        "time": 0,
        "note": 38,
        "velocity": 100,
        "channel": 5
      },
      {
        "type": "note_on",
        "time": 60,
        "note": 38,
        "velocity": 0,
        "channel": 5
      },
      {
        "type": "note_on",
        "time": 0,
        "note": 35,
        "velocity": 100,
        "channel": 5
      },
      {
        "type": "note_on",
        "time": 90,
        "note": 35,
        "velocity": 0,
        "channel": 5
      },
      {
        "type": "note_on",
        "time": 0,
        "note": 42,
        "velocity": 100,
        "channel": 5
      },
      {
        "type": "note_on",
        "time": 30,
        "note": 42,
        "velocity": 0,
        "channel": 5
      },
      {
        "type": "note_on",
        "time": 0,
        "note": 35,
        "velocity": 100,
        "channel": 5
      },
      {
        "type": "note_on",
        "time": 60,
        "note": 35,
        "velocity": 0,
        "channel": 5
      },
      {
        "type": "note_on",
        "time": 0,
        "note": 31,
        "velocity": 100,
        "channel": 5
      },
      {
        "type": "note_on",
        "time": 120,
        "note": 31,
        "velocity": 0,
        "channel": 5
      },
      {
        "type": "note_on",
        "time": 0,
        "note": 36,
        "velocity": 100,
        "channel": 5
      },
      {
        "type": "note_on",
        "time": 60,
        "note": 36,
        "velocity": 0,
        "channel": 5
      },
      {
        "type": "note_on",
        "time": 0,
        "note": 35,
        "velocity": 100,
        "channel": 5
      },
      {
        "type": "note_on",
        "time": 60,
        "note": 35,
        "velocity": 0,
        "channel": 5
      },
      {
        "type": "note_on",
        "time": 0,
        "note": 33,
        "velocity": 100,
        "channel": 5
      },
      {
        "type": "note_on",
        "time": 60,
        "note": 33,
        "velocity": 0,
        "channel": 5
      },
      {
        "type": "note_on",
        "time": 0,
        "note": 31,
        "velocity": 100,
        "channel": 5
      },
      {
        "type": "note_on",
        "time": 75,
        "note": 31,
        "velocity": 0,
        "channel": 5
      },
      {
        "type": "note_on",
        "time": 15,
        "note": 31,
        "velocity": 100,
        "channel": 5
      },
      {
        "type": "note_on",
        "time": 30,
        "note": 31,
        "velocity": 0,
        "channel": 5
      },
      {
        "type": "note_on",
        "time": 0,
        "note": 40,
        "velocity": 100,
        "channel": 5
      },
      {
        "type": "note_on",
        "time": 60,
        "note": 40,
        "velocity": 0,
        "channel": 5
      },
      {
        "type": "note_on",
        "time": 0,
        "note": 38,
        "velocity": 100,
        "channel": 5
      },
      {
        "type": "note_on",
        "time": 120,
        "note": 38,
        "velocity": 0,
        "channel": 5
      },
      {
        "type": "note_on",
        "time": 60,
        "note": 38,
        "velocity": 100,
        "channel": 5
      },
      {
        "type": "note_on",
        "time": 60,
        "note": 38,
        "velocity": 0,
        "channel": 5
      },
      {
        "type": "note_on",
        "time": 0,
        "note": 38,
        "velocity": 100,
        "channel": 5
      },
      {
        "type": "note_on",
        "time": 60,
        "note": 38,
        "velocity": 0,
        "channel": 5
      },
      {
        "type": "note_on",
        "time": 0,
        "note": 35,
        "velocity": 100,
        "channel": 5
      },
      {
        "type": "note_on",
        "time": 60,
        "note": 35,
        "velocity": 0,
        "channel": 5
      },
      {
        "type": "note_on",
        "time": 30,
        "note": 35,
        "velocity": 100,
        "channel": 5
      },
      {
        "type": "note_on",
        "time": 30,
        "note": 35,
        "velocity": 0,
        "channel": 5
      },
      {
        "type": "note_on",
        "time": 0,
        "note": 35,
        "velocity": 100,
        "channel": 5
      },
      {
        "type": "note_on",
        "time": 60,
        "note": 35,
        "velocity": 0,
        "channel": 5
      },
      {
        "type": "note_on",
        "time": 0,
        "note": 36,
        "velocity": 100,
        "channel": 5
      },
      {
        "type": "note_on",
        "time": 60,
        "note": 36,
        "velocity": 0,
        "channel": 5
      },
      {
        "type": "note_on",
        "time": 60,
        "note": 36,
        "velocity": 100,
        "channel": 5
      },
      {
        "type": "note_on",
        "time": 60,
        "note": 36,
        "velocity": 0,
        "channel": 5
      },
      {
        "type": "note_on",
        "time": 0,
        "note": 35,
        "velocity": 100,
        "channel": 5
      },
      {
        "type": "note_on",
        "time": 30,
        "note": 35,
        "velocity": 0,
        "channel": 5
      },
      {
        "type": "note_on",
        "time": 0,
        "note": 36,
        "velocity": 100,
        "channel": 5
      },
      {
        "type": "note_on",
        "time": 30,
        "note": 36,
        "velocity": 0,
        "channel": 5
      },
      {
        "type": "note_on",
        "time": 0,
        "note": 35,
        "velocity": 100,
        "channel": 5
      },
      {
        "type": "note_on",
        "time": 60,
        "note": 35,
        "velocity": 0,
        "channel": 5
      },
      {
        "type": "note_on",
        "time": 0,
        "note": 31,
        "velocity": 100,
        "channel": 5
      },
      {
        "type": "note_on",
        "time": 75,
        "note": 31,
        "velocity": 0,
        "channel": 5
      },
      {
        "type": "note_on",
        "time": 15,
        "note": 31,
        "velocity": 100,
        "channel": 5
      },
      {
        "type": "note_on",
        "time": 30,
        "note": 31,
        "velocity": 0,
        "channel": 5
      },
      {
        "type": "note_on",
        "time": 0,
        "note": 40,
        "velocity": 100,
        "channel": 5
      },
      {
        "type": "note_on",
        "time": 60,
        "note": 40,
        "velocity": 0,
        "channel": 5
      },
      {
        "type": "note_on",
        "time": 0,
        "note": 38,
        "velocity": 100,
        "channel": 5
      },
      {
        "type": "note_on",
        "time": 120,
        "note": 38,
        "velocity": 0,
        "channel": 5
      },
      {
        "type": "note_on",
        "time": 60,
        "note": 38,
        "velocity": 100,
        "channel": 5
      },
      {
        "type": "note_on",
        "time": 60,
        "note": 38,
        "velocity": 0,
        "channel": 5
      },
      {
        "type": "note_on",
        "time": 0,
        "note": 38,
        "velocity": 100,
        "channel": 5
      },
      {
        "type": "note_on",
        "time": 60,
        "note": 38,
        "velocity": 0,
        "channel": 5
      },
      {
        "type": "note_on",
        "time": 0,
        "note": 35,
        "velocity": 100,
        "channel": 5
      },
      {
        "type": "note_on",
        "time": 120,
        "note": 35,
        "velocity": 0,
        "channel": 5
      },
      {
        "type": "note_on",
        "time": 0,
        "note": 36,
        "velocity": 100,
        "channel": 5
      },
      {
        "type": "note_on",
        "time": 360,
        "note": 36,
        "velocity": 0,
        "channel": 5
      },
      {
        "type": "note_on",
        "time": 0,
        "note": 28,
        "velocity": 100,
        "channel": 5
      },
      {
        "type": "note_on",
        "time": 30,
        "note": 28,
        "velocity": 0,
        "channel": 5
      },
      {
        "type": "note_on",
        "time": 0,
        "note": 28,
        "velocity": 100,
        "channel": 5
      },
      {
        "type": "note_on",
        "time": 30,
        "note": 28,
        "velocity": 0,
        "channel": 5
      },
      {
        "type": "note_on",
        "time": 0,
        "note": 38,
        "velocity": 100,
        "channel": 5
      },
      {
        "type": "note_on",
        "time": 45,
        "note": 38,
        "velocity": 0,
        "channel": 5
      },
      {
        "type": "note_on",
        "time": 15,
        "note": 40,
        "velocity": 100,
        "channel": 5
      },
      {
        "type": "note_on",
        "time": 45,
        "note": 40,
        "velocity": 0,
        "channel": 5
      },
      {
        "type": "note_on",
        "time": 15,
        "note": 28,
        "velocity": 100,
        "channel": 5
      },
      {
        "type": "note_on",
        "time": 30,
        "note": 28,
        "velocity": 0,
        "channel": 5
      },
      {
        "type": "note_on",
        "time": 0,
        "note": 28,
        "velocity": 100,
        "channel": 5
      },
      {
        "type": "note_on",
        "time": 30,
        "note": 28,
        "velocity": 0,
        "channel": 5
      },
      {
        "type": "note_on",
        "time": 0,
        "note": 28,
        "velocity": 100,
        "channel": 5
      },
      {
        "type": "note_on",
        "time": 30,
        "note": 28,
        "velocity": 0,
        "channel": 5
      },
      {
        "type": "note_on",
        "time": 0,
        "note": 38,
        "velocity": 100,
        "channel": 5
      },
      {
        "type": "note_on",
        "time": 45,
        "note": 38,
        "velocity": 0,
        "channel": 5
      },
      {
        "type": "note_on",
        "time": 15,
        "note": 40,
        "velocity": 100,
        "channel": 5
      },
      {
        "type": "note_on",
        "time": 45,
        "note": 40,
        "velocity": 0,
        "channel": 5
      },
      {
        "type": "note_on",
        "time": 105,
        "note": 26,
        "velocity": 100,
        "channel": 5
      },
      {
        "type": "note_on",
        "time": 30,
        "note": 26,
        "velocity": 0,
        "channel": 5
      },
      {
        "type": "note_on",
        "time": 0,
        "note": 26,
        "velocity": 100,
        "channel": 5
      },
      {
        "type": "note_on",
        "time": 30,
        "note": 26,
        "velocity": 0,
        "channel": 5
      },
      {
        "type": "note_on",
        "time": 0,
        "note": 38,
        "velocity": 100,
        "channel": 5
      },
      {
        "type": "note_on",
        "time": 45,
        "note": 38,
        "velocity": 0,
        "channel": 5
      },
      {
        "type": "note_on",
        "time": 15,
        "note": 40,
        "velocity": 100,
        "channel": 5
      },
      {
        "type": "note_on",
        "time": 45,
        "note": 40,
        "velocity": 0,
        "channel": 5
      },
      {
        "type": "note_on",
        "time": 15,
        "note": 26,
        "velocity": 100,
        "channel": 5
      },
      {
        "type": "note_on",
        "time": 60,
        "note": 26,
        "velocity": 0,
        "channel": 5
      },
      {
        "type": "note_on",
        "time": 30,
        "note": 38,
        "velocity": 100,
        "channel": 5
      },
      {
        "type": "note_on",
        "time": 45,
        "note": 38,
        "velocity": 0,
        "channel": 5
      },
      {
        "type": "note_on",
        "time": 15,
        "note": 40,
        "velocity": 100,
        "channel": 5
      },
      {
        "type": "note_on",
        "time": 45,
        "note": 40,
        "velocity": 0,
        "channel": 5
      },
      {
        "type": "note_on",
        "time": 105,
        "note": 30,
        "velocity": 100,
        "channel": 5
      },
      {
        "type": "note_on",
        "time": 60,
        "note": 30,
        "velocity": 0,
        "channel": 5
      },
      {
        "type": "note_on",
        "time": 0,
        "note": 35,
        "velocity": 100,
        "channel": 5
      },
      {
        "type": "note_on",
        "time": 45,
        "note": 35,
        "velocity": 0,
        "channel": 5
      },
      {
        "type": "note_on",
        "time": 15,
        "note": 35,
        "velocity": 100,
        "channel": 5
      },
      {
        "type": "note_on",
        "time": 45,
        "note": 35,
        "velocity": 0,
        "channel": 5
      },
      {
        "type": "note_on",
        "time": 15,
        "note": 30,
        "velocity": 100,
        "channel": 5
      },
      {
        "type": "note_on",
        "time": 60,
        "note": 30,
        "velocity": 0,
        "channel": 5
      },
      {
        "type": "note_on",
        "time": 30,
        "note": 35,
        "velocity": 100,
        "channel": 5
      },
      {
        "type": "note_on",
        "time": 45,
        "note": 35,
        "velocity": 0,
        "channel": 5
      },
      {
        "type": "note_on",
        "time": 15,
        "note": 35,
        "velocity": 100,
        "channel": 5
      },
      {
        "type": "note_on",
        "time": 45,
        "note": 35,
        "velocity": 0,
        "channel": 5
      },
      {
        "type": "note_on",
        "time": 15,
        "note": 30,
        "velocity": 100,
        "channel": 5
      },
      {
        "type": "note_on",
        "time": 30,
        "note": 30,
        "velocity": 0,
        "channel": 5
      },
      {
        "type": "note_on",
        "time": 0,
        "note": 30,
        "velocity": 100,
        "channel": 5
      },
      {
        "type": "note_on",
        "time": 30,
        "note": 30,
        "velocity": 0,
        "channel": 5
      },
      {
        "type": "note_on",
        "time": 0,
        "note": 30,
        "velocity": 100,
        "channel": 5
      },
      {
        "type": "note_on",
        "time": 30,
        "note": 30,
        "velocity": 0,
        "channel": 5
      },
      {
        "type": "note_on",
        "time": 0,
        "note": 31,
        "velocity": 100,
        "channel": 5
      },
      {
        "type": "note_on",
        "time": 60,
        "note": 31,
        "velocity": 0,
        "channel": 5
      },
      {
        "type": "note_on",
        "time": 0,
        "note": 36,
        "velocity": 100,
        "channel": 5
      },
      {
        "type": "note_on",
        "time": 45,
        "note": 36,
        "velocity": 0,
        "channel": 5
      },
      {
        "type": "note_on",
        "time": 15,
        "note": 36,
        "velocity": 100,
        "channel": 5
      },
      {
        "type": "note_on",
        "time": 45,
        "note": 36,
        "velocity": 0,
        "channel": 5
      },
      {
        "type": "note_on",
        "time": 15,
        "note": 31,
        "velocity": 100,
        "channel": 5
      },
      {
        "type": "note_on",
        "time": 60,
        "note": 31,
        "velocity": 0,
        "channel": 5
      },
      {
        "type": "note_on",
        "time": 30,
        "note": 36,
        "velocity": 100,
        "channel": 5
      },
      {
        "type": "note_on",
        "time": 45,
        "note": 36,
        "velocity": 0,
        "channel": 5
      },
      {
        "type": "note_on",
        "time": 15,
        "note": 36,
        "velocity": 100,
        "channel": 5
      },
      {
        "type": "note_on",
        "time": 45,
        "note": 36,
        "velocity": 0,
        "channel": 5
      },
      {
        "type": "note_on",
        "time": 15,
        "note": 31,
        "velocity": 100,
        "channel": 5
      },
      {
        "type": "note_on",
        "time": 30,
        "note": 31,
        "velocity": 0,
        "channel": 5
      },
      {
        "type": "note_on",
        "time": 0,
        "note": 31,
        "velocity": 100,
        "channel": 5
      },
      {
        "type": "note_on",
        "time": 30,
        "note": 31,
        "velocity": 0,
        "channel": 5
      },
      {
        "type": "note_on",
        "time": 0,
        "note": 31,
        "velocity": 100,
        "channel": 5
      },
      {
        "type": "note_on",
        "time": 30,
        "note": 31,
        "velocity": 0,
        "channel": 5
      },
      {
        "type": "note_on",
        "time": 0,
        "note": 28,
        "velocity": 100,
        "channel": 5
      },
      {
        "type": "note_on",
        "time": 30,
        "note": 28,
        "velocity": 0,
        "channel": 5
      },
      {
        "type": "note_on",
        "time": 0,
        "note": 28,
        "velocity": 100,
        "channel": 5
      },
      {
        "type": "note_on",
        "time": 30,
        "note": 28,
        "velocity": 0,
        "channel": 5
      },
      {
        "type": "note_on",
        "time": 0,
        "note": 38,
        "velocity": 100,
        "channel": 5
      },
      {
        "type": "note_on",
        "time": 45,
        "note": 38,
        "velocity": 0,
        "channel": 5
      },
      {
        "type": "note_on",
        "time": 15,
        "note": 40,
        "velocity": 100,
        "channel": 5
      },
      {
        "type": "note_on",
        "time": 45,
        "note": 40,
        "velocity": 0,
        "channel": 5
      },
      {
        "type": "note_on",
        "time": 15,
        "note": 28,
        "velocity": 100,
        "channel": 5
      },
      {
        "type": "note_on",
        "time": 30,
        "note": 28,
        "velocity": 0,
        "channel": 5
      },
      {
        "type": "note_on",
        "time": 0,
        "note": 28,
        "velocity": 100,
        "channel": 5
      },
      {
        "type": "note_on",
        "time": 30,
        "note": 28,
        "velocity": 0,
        "channel": 5
      },
      {
        "type": "note_on",
        "time": 0,
        "note": 28,
        "velocity": 100,
        "channel": 5
      },
      {
        "type": "note_on",
        "time": 30,
        "note": 28,
        "velocity": 0,
        "channel": 5
      },
      {
        "type": "note_on",
        "time": 0,
        "note": 38,
        "velocity": 100,
        "channel": 5
      },
      {
        "type": "note_on",
        "time": 45,
        "note": 38,
        "velocity": 0,
        "channel": 5
      },
      {
        "type": "note_on",
        "time": 15,
        "note": 40,
        "velocity": 100,
        "channel": 5
      },
      {
        "type": "note_on",
        "time": 45,
        "note": 40,
        "velocity": 0,
        "channel": 5
      },
      {
        "type": "note_on",
        "time": 105,
        "note": 26,
        "velocity": 100,
        "channel": 5
      },
      {
        "type": "note_on",
        "time": 30,
        "note": 26,
        "velocity": 0,
        "channel": 5
      },
      {
        "type": "note_on",
        "time": 0,
        "note": 26,
        "velocity": 100,
        "channel": 5
      },
      {
        "type": "note_on",
        "time": 30,
        "note": 26,
        "velocity": 0,
        "channel": 5
      },
      {
        "type": "note_on",
        "time": 0,
        "note": 38,
        "velocity": 100,
        "channel": 5
      },
      {
        "type": "note_on",
        "time": 45,
        "note": 38,
        "velocity": 0,
        "channel": 5
      },
      {
        "type": "note_on",
        "time": 15,
        "note": 40,
        "velocity": 100,
        "channel": 5
      },
      {
        "type": "note_on",
        "time": 45,
        "note": 40,
        "velocity": 0,
        "channel": 5
      },
      {
        "type": "note_on",
        "time": 15,
        "note": 26,
        "velocity": 100,
        "channel": 5
      },
      {
        "type": "note_on",
        "time": 60,
        "note": 26,
        "velocity": 0,
        "channel": 5
      },
      {
        "type": "note_on",
        "time": 30,
        "note": 38,
        "velocity": 100,
        "channel": 5
      },
      {
        "type": "note_on",
        "time": 45,
        "note": 38,
        "velocity": 0,
        "channel": 5
      },
      {
        "type": "note_on",
        "time": 15,
        "note": 40,
        "velocity": 100,
        "channel": 5
      },
      {
        "type": "note_on",
        "time": 45,
        "note": 40,
        "velocity": 0,
        "channel": 5
      },
      {
        "type": "note_on",
        "time": 105,
        "note": 30,
        "velocity": 100,
        "channel": 5
      },
      {
        "type": "note_on",
        "time": 60,
        "note": 30,
        "velocity": 0,
        "channel": 5
      },
      {
        "type": "note_on",
        "time": 0,
        "note": 35,
        "velocity": 100,
        "channel": 5
      },
      {
        "type": "note_on",
        "time": 45,
        "note": 35,
        "velocity": 0,
        "channel": 5
      },
      {
        "type": "note_on",
        "time": 15,
        "note": 35,
        "velocity": 100,
        "channel": 5
      },
      {
        "type": "note_on",
        "time": 45,
        "note": 35,
        "velocity": 0,
        "channel": 5
      },
      {
        "type": "note_on",
        "time": 15,
        "note": 30,
        "velocity": 100,
        "channel": 5
      },
      {
        "type": "note_on",
        "time": 60,
        "note": 30,
        "velocity": 0,
        "channel": 5
      },
      {
        "type": "note_on",
        "time": 30,
        "note": 35,
        "velocity": 100,
        "channel": 5
      },
      {
        "type": "note_on",
        "time": 45,
        "note": 35,
        "velocity": 0,
        "channel": 5
      },
      {
        "type": "note_on",
        "time": 15,
        "note": 35,
        "velocity": 100,
        "channel": 5
      },
      {
        "type": "note_on",
        "time": 45,
        "note": 35,
        "velocity": 0,
        "channel": 5
      },
      {
        "type": "note_on",
        "time": 15,
        "note": 30,
        "velocity": 100,
        "channel": 5
      },
      {
        "type": "note_on",
        "time": 30,
        "note": 30,
        "velocity": 0,
        "channel": 5
      },
      {
        "type": "note_on",
        "time": 0,
        "note": 30,
        "velocity": 100,
        "channel": 5
      },
      {
        "type": "note_on",
        "time": 30,
        "note": 30,
        "velocity": 0,
        "channel": 5
      },
      {
        "type": "note_on",
        "time": 0,
        "note": 30,
        "velocity": 100,
        "channel": 5
      },
      {
        "type": "note_on",
        "time": 30,
        "note": 30,
        "velocity": 0,
        "channel": 5
      },
      {
        "type": "note_on",
        "time": 0,
        "note": 31,
        "velocity": 100,
        "channel": 5
      },
      {
        "type": "note_on",
        "time": 60,
        "note": 31,
        "velocity": 0,
        "channel": 5
      },
      {
        "type": "note_on",
        "time": 0,
        "note": 36,
        "velocity": 100,
        "channel": 5
      },
      {
        "type": "note_on",
        "time": 45,
        "note": 36,
        "velocity": 0,
        "channel": 5
      },
      {
        "type": "note_on",
        "time": 15,
        "note": 36,
        "velocity": 100,
        "channel": 5
      },
      {
        "type": "note_on",
        "time": 45,
        "note": 36,
        "velocity": 0,
        "channel": 5
      },
      {
        "type": "note_on",
        "time": 15,
        "note": 31,
        "velocity": 100,
        "channel": 5
      },
      {
        "type": "note_on",
        "time": 60,
        "note": 31,
        "velocity": 0,
        "channel": 5
      },
      {
        "type": "note_on",
        "time": 30,
        "note": 36,
        "velocity": 100,
        "channel": 5
      },
      {
        "type": "note_on",
        "time": 45,
        "note": 36,
        "velocity": 0,
        "channel": 5
      },
      {
        "type": "note_on",
        "time": 15,
        "note": 36,
        "velocity": 100,
        "channel": 5
      },
      {
        "type": "note_on",
        "time": 45,
        "note": 36,
        "velocity": 0,
        "channel": 5
      },
      {
        "type": "note_on",
        "time": 15,
        "note": 31,
        "velocity": 100,
        "channel": 5
      },
      {
        "type": "note_on",
        "time": 30,
        "note": 31,
        "velocity": 0,
        "channel": 5
      },
      {
        "type": "note_on",
        "time": 0,
        "note": 31,
        "velocity": 100,
        "channel": 5
      },
      {
        "type": "note_on",
        "time": 30,
        "note": 31,
        "velocity": 0,
        "channel": 5
      },
      {
        "type": "note_on",
        "time": 0,
        "note": 31,
        "velocity": 100,
        "channel": 5
      },
      {
        "type": "note_on",
        "time": 30,
        "note": 31,
        "velocity": 0,
        "channel": 5
      },
      {
        "type": "note_on",
        "time": 0,
        "note": 28,
        "velocity": 100,
        "channel": 5
      },
      {
        "type": "note_on",
        "time": 30,
        "note": 28,
        "velocity": 0,
        "channel": 5
      },
      {
        "type": "note_on",
        "time": 0,
        "note": 28,
        "velocity": 100,
        "channel": 5
      },
      {
        "type": "note_on",
        "time": 30,
        "note": 28,
        "velocity": 0,
        "channel": 5
      },
      {
        "type": "note_on",
        "time": 0,
        "note": 38,
        "velocity": 100,
        "channel": 5
      },
      {
        "type": "note_on",
        "time": 45,
        "note": 38,
        "velocity": 0,
        "channel": 5
      },
      {
        "type": "note_on",
        "time": 15,
        "note": 40,
        "velocity": 100,
        "channel": 5
      },
      {
        "type": "note_on",
        "time": 45,
        "note": 40,
        "velocity": 0,
        "channel": 5
      },
      {
        "type": "note_on",
        "time": 15,
        "note": 28,
        "velocity": 100,
        "channel": 5
      },
      {
        "type": "note_on",
        "time": 30,
        "note": 28,
        "velocity": 0,
        "channel": 5
      },
      {
        "type": "note_on",
        "time": 0,
        "note": 28,
        "velocity": 100,
        "channel": 5
      },
      {
        "type": "note_on",
        "time": 30,
        "note": 28,
        "velocity": 0,
        "channel": 5
      },
      {
        "type": "note_on",
        "time": 0,
        "note": 28,
        "velocity": 100,
        "channel": 5
      },
      {
        "type": "note_on",
        "time": 30,
        "note": 28,
        "velocity": 0,
        "channel": 5
      },
      {
        "type": "note_on",
        "time": 0,
        "note": 38,
        "velocity": 100,
        "channel": 5
      },
      {
        "type": "note_on",
        "time": 45,
        "note": 38,
        "velocity": 0,
        "channel": 5
      },
      {
        "type": "note_on",
        "time": 15,
        "note": 40,
        "velocity": 100,
        "channel": 5
      },
      {
        "type": "note_on",
        "time": 45,
        "note": 40,
        "velocity": 0,
        "channel": 5
      },
      {
        "type": "note_on",
        "time": 105,
        "note": 26,
        "velocity": 100,
        "channel": 5
      },
      {
        "type": "note_on",
        "time": 30,
        "note": 26,
        "velocity": 0,
        "channel": 5
      },
      {
        "type": "note_on",
        "time": 0,
        "note": 26,
        "velocity": 100,
        "channel": 5
      },
      {
        "type": "note_on",
        "time": 30,
        "note": 26,
        "velocity": 0,
        "channel": 5
      },
      {
        "type": "note_on",
        "time": 0,
        "note": 38,
        "velocity": 100,
        "channel": 5
      },
      {
        "type": "note_on",
        "time": 45,
        "note": 38,
        "velocity": 0,
        "channel": 5
      },
      {
        "type": "note_on",
        "time": 15,
        "note": 40,
        "velocity": 100,
        "channel": 5
      },
      {
        "type": "note_on",
        "time": 45,
        "note": 40,
        "velocity": 0,
        "channel": 5
      },
      {
        "type": "note_on",
        "time": 15,
        "note": 26,
        "velocity": 100,
        "channel": 5
      },
      {
        "type": "note_on",
        "time": 60,
        "note": 26,
        "velocity": 0,
        "channel": 5
      },
      {
        "type": "note_on",
        "time": 30,
        "note": 38,
        "velocity": 100,
        "channel": 5
      },
      {
        "type": "note_on",
        "time": 45,
        "note": 38,
        "velocity": 0,
        "channel": 5
      },
      {
        "type": "note_on",
        "time": 15,
        "note": 40,
        "velocity": 100,
        "channel": 5
      },
      {
        "type": "note_on",
        "time": 45,
        "note": 40,
        "velocity": 0,
        "channel": 5
      },
      {
        "type": "note_on",
        "time": 105,
        "note": 30,
        "velocity": 100,
        "channel": 5
      },
      {
        "type": "note_on",
        "time": 60,
        "note": 30,
        "velocity": 0,
        "channel": 5
      },
      {
        "type": "note_on",
        "time": 0,
        "note": 35,
        "velocity": 100,
        "channel": 5
      },
      {
        "type": "note_on",
        "time": 45,
        "note": 35,
        "velocity": 0,
        "channel": 5
      },
      {
        "type": "note_on",
        "time": 15,
        "note": 35,
        "velocity": 100,
        "channel": 5
      },
      {
        "type": "note_on",
        "time": 45,
        "note": 35,
        "velocity": 0,
        "channel": 5
      },
      {
        "type": "note_on",
        "time": 15,
        "note": 30,
        "velocity": 100,
        "channel": 5
      },
      {
        "type": "note_on",
        "time": 60,
        "note": 30,
        "velocity": 0,
        "channel": 5
      },
      {
        "type": "note_on",
        "time": 30,
        "note": 35,
        "velocity": 100,
        "channel": 5
      },
      {
        "type": "note_on",
        "time": 45,
        "note": 35,
        "velocity": 0,
        "channel": 5
      },
      {
        "type": "note_on",
        "time": 15,
        "note": 35,
        "velocity": 100,
        "channel": 5
      },
      {
        "type": "note_on",
        "time": 45,
        "note": 35,
        "velocity": 0,
        "channel": 5
      },
      {
        "type": "note_on",
        "time": 15,
        "note": 30,
        "velocity": 100,
        "channel": 5
      },
      {
        "type": "note_on",
        "time": 30,
        "note": 30,
        "velocity": 0,
        "channel": 5
      },
      {
        "type": "note_on",
        "time": 0,
        "note": 30,
        "velocity": 100,
        "channel": 5
      },
      {
        "type": "note_on",
        "time": 30,
        "note": 30,
        "velocity": 0,
        "channel": 5
      },
      {
        "type": "note_on",
        "time": 0,
        "note": 30,
        "velocity": 100,
        "channel": 5
      },
      {
        "type": "note_on",
        "time": 30,
        "note": 30,
        "velocity": 0,
        "channel": 5
      },
      {
        "type": "note_on",
        "time": 0,
        "note": 31,
        "velocity": 100,
        "channel": 5
      },
      {
        "type": "note_on",
        "time": 60,
        "note": 31,
        "velocity": 0,
        "channel": 5
      },
      {
        "type": "note_on",
        "time": 0,
        "note": 36,
        "velocity": 100,
        "channel": 5
      },
      {
        "type": "note_on",
        "time": 45,
        "note": 36,
        "velocity": 0,
        "channel": 5
      },
      {
        "type": "note_on",
        "time": 15,
        "note": 36,
        "velocity": 100,
        "channel": 5
      },
      {
        "type": "note_on",
        "time": 45,
        "note": 36,
        "velocity": 0,
        "channel": 5
      },
      {
        "type": "note_on",
        "time": 15,
        "note": 31,
        "velocity": 100,
        "channel": 5
      },
      {
        "type": "note_on",
        "time": 60,
        "note": 31,
        "velocity": 0,
        "channel": 5
      },
      {
        "type": "note_on",
        "time": 30,
        "note": 36,
        "velocity": 100,
        "channel": 5
      },
      {
        "type": "note_on",
        "time": 45,
        "note": 36,
        "velocity": 0,
        "channel": 5
      },
      {
        "type": "note_on",
        "time": 15,
        "note": 36,
        "velocity": 100,
        "channel": 5
      },
      {
        "type": "note_on",
        "time": 45,
        "note": 36,
        "velocity": 0,
        "channel": 5
      },
      {
        "type": "note_on",
        "time": 15,
        "note": 31,
        "velocity": 100,
        "channel": 5
      },
      {
        "type": "note_on",
        "time": 30,
        "note": 31,
        "velocity": 0,
        "channel": 5
      },
      {
        "type": "note_on",
        "time": 0,
        "note": 31,
        "velocity": 100,
        "channel": 5
      },
      {
        "type": "note_on",
        "time": 30,
        "note": 31,
        "velocity": 0,
        "channel": 5
      },
      {
        "type": "note_on",
        "time": 0,
        "note": 31,
        "velocity": 100,
        "channel": 5
      },
      {
        "type": "note_on",
        "time": 30,
        "note": 31,
        "velocity": 0,
        "channel": 5
      },
      {
        "type": "note_on",
        "time": 0,
        "note": 28,
        "velocity": 100,
        "channel": 5
      },
      {
        "type": "note_on",
        "time": 30,
        "note": 28,
        "velocity": 0,
        "channel": 5
      },
      {
        "type": "note_on",
        "time": 0,
        "note": 28,
        "velocity": 100,
        "channel": 5
      },
      {
        "type": "note_on",
        "time": 30,
        "note": 28,
        "velocity": 0,
        "channel": 5
      },
      {
        "type": "note_on",
        "time": 0,
        "note": 38,
        "velocity": 100,
        "channel": 5
      },
      {
        "type": "note_on",
        "time": 45,
        "note": 38,
        "velocity": 0,
        "channel": 5
      },
      {
        "type": "note_on",
        "time": 15,
        "note": 40,
        "velocity": 100,
        "channel": 5
      },
      {
        "type": "note_on",
        "time": 45,
        "note": 40,
        "velocity": 0,
        "channel": 5
      },
      {
        "type": "note_on",
        "time": 15,
        "note": 28,
        "velocity": 100,
        "channel": 5
      },
      {
        "type": "note_on",
        "time": 30,
        "note": 28,
        "velocity": 0,
        "channel": 5
      },
      {
        "type": "note_on",
        "time": 0,
        "note": 28,
        "velocity": 100,
        "channel": 5
      },
      {
        "type": "note_on",
        "time": 30,
        "note": 28,
        "velocity": 0,
        "channel": 5
      },
      {
        "type": "note_on",
        "time": 0,
        "note": 28,
        "velocity": 100,
        "channel": 5
      },
      {
        "type": "note_on",
        "time": 30,
        "note": 28,
        "velocity": 0,
        "channel": 5
      },
      {
        "type": "note_on",
        "time": 0,
        "note": 38,
        "velocity": 100,
        "channel": 5
      },
      {
        "type": "note_on",
        "time": 45,
        "note": 38,
        "velocity": 0,
        "channel": 5
      },
      {
        "type": "note_on",
        "time": 15,
        "note": 40,
        "velocity": 100,
        "channel": 5
      },
      {
        "type": "note_on",
        "time": 45,
        "note": 40,
        "velocity": 0,
        "channel": 5
      },
      {
        "type": "note_on",
        "time": 105,
        "note": 26,
        "velocity": 100,
        "channel": 5
      },
      {
        "type": "note_on",
        "time": 30,
        "note": 26,
        "velocity": 0,
        "channel": 5
      },
      {
        "type": "note_on",
        "time": 0,
        "note": 26,
        "velocity": 100,
        "channel": 5
      },
      {
        "type": "note_on",
        "time": 30,
        "note": 26,
        "velocity": 0,
        "channel": 5
      },
      {
        "type": "note_on",
        "time": 0,
        "note": 38,
        "velocity": 100,
        "channel": 5
      },
      {
        "type": "note_on",
        "time": 45,
        "note": 38,
        "velocity": 0,
        "channel": 5
      },
      {
        "type": "note_on",
        "time": 15,
        "note": 40,
        "velocity": 100,
        "channel": 5
      },
      {
        "type": "note_on",
        "time": 45,
        "note": 40,
        "velocity": 0,
        "channel": 5
      },
      {
        "type": "note_on",
        "time": 15,
        "note": 26,
        "velocity": 100,
        "channel": 5
      },
      {
        "type": "note_on",
        "time": 60,
        "note": 26,
        "velocity": 0,
        "channel": 5
      },
      {
        "type": "note_on",
        "time": 30,
        "note": 38,
        "velocity": 100,
        "channel": 5
      },
      {
        "type": "note_on",
        "time": 45,
        "note": 38,
        "velocity": 0,
        "channel": 5
      },
      {
        "type": "note_on",
        "time": 15,
        "note": 40,
        "velocity": 100,
        "channel": 5
      },
      {
        "type": "note_on",
        "time": 45,
        "note": 40,
        "velocity": 0,
        "channel": 5
      },
      {
        "type": "note_on",
        "time": 105,
        "note": 30,
        "velocity": 100,
        "channel": 5
      },
      {
        "type": "note_on",
        "time": 60,
        "note": 30,
        "velocity": 0,
        "channel": 5
      },
      {
        "type": "note_on",
        "time": 0,
        "note": 35,
        "velocity": 100,
        "channel": 5
      },
      {
        "type": "note_on",
        "time": 45,
        "note": 35,
        "velocity": 0,
        "channel": 5
      },
      {
        "type": "note_on",
        "time": 15,
        "note": 35,
        "velocity": 100,
        "channel": 5
      },
      {
        "type": "note_on",
        "time": 45,
        "note": 35,
        "velocity": 0,
        "channel": 5
      },
      {
        "type": "note_on",
        "time": 15,
        "note": 30,
        "velocity": 100,
        "channel": 5
      },
      {
        "type": "note_on",
        "time": 60,
        "note": 30,
        "velocity": 0,
        "channel": 5
      },
      {
        "type": "note_on",
        "time": 30,
        "note": 35,
        "velocity": 100,
        "channel": 5
      },
      {
        "type": "note_on",
        "time": 45,
        "note": 35,
        "velocity": 0,
        "channel": 5
      },
      {
        "type": "note_on",
        "time": 15,
        "note": 35,
        "velocity": 100,
        "channel": 5
      },
      {
        "type": "note_on",
        "time": 45,
        "note": 35,
        "velocity": 0,
        "channel": 5
      },
      {
        "type": "note_on",
        "time": 15,
        "note": 30,
        "velocity": 100,
        "channel": 5
      },
      {
        "type": "note_on",
        "time": 30,
        "note": 30,
        "velocity": 0,
        "channel": 5
      },
      {
        "type": "note_on",
        "time": 0,
        "note": 30,
        "velocity": 100,
        "channel": 5
      },
      {
        "type": "note_on",
        "time": 30,
        "note": 30,
        "velocity": 0,
        "channel": 5
      },
      {
        "type": "note_on",
        "time": 0,
        "note": 30,
        "velocity": 100,
        "channel": 5
      },
      {
        "type": "note_on",
        "time": 30,
        "note": 30,
        "velocity": 0,
        "channel": 5
      },
      {
        "type": "note_on",
        "time": 0,
        "note": 31,
        "velocity": 100,
        "channel": 5
      },
      {
        "type": "note_on",
        "time": 60,
        "note": 31,
        "velocity": 0,
        "channel": 5
      },
      {
        "type": "note_on",
        "time": 0,
        "note": 36,
        "velocity": 100,
        "channel": 5
      },
      {
        "type": "note_on",
        "time": 45,
        "note": 36,
        "velocity": 0,
        "channel": 5
      },
      {
        "type": "note_on",
        "time": 15,
        "note": 36,
        "velocity": 100,
        "channel": 5
      },
      {
        "type": "note_on",
        "time": 45,
        "note": 36,
        "velocity": 0,
        "channel": 5
      },
      {
        "type": "note_on",
        "time": 15,
        "note": 31,
        "velocity": 100,
        "channel": 5
      },
      {
        "type": "note_on",
        "time": 60,
        "note": 31,
        "velocity": 0,
        "channel": 5
      },
      {
        "type": "note_on",
        "time": 30,
        "note": 36,
        "velocity": 100,
        "channel": 5
      },
      {
        "type": "note_on",
        "time": 45,
        "note": 36,
        "velocity": 0,
        "channel": 5
      },
      {
        "type": "note_on",
        "time": 15,
        "note": 36,
        "velocity": 100,
        "channel": 5
      },
      {
        "type": "note_on",
        "time": 45,
        "note": 36,
        "velocity": 0,
        "channel": 5
      },
      {
        "type": "note_on",
        "time": 15,
        "note": 31,
        "velocity": 100,
        "channel": 5
      },
      {
        "type": "note_on",
        "time": 30,
        "note": 31,
        "velocity": 0,
        "channel": 5
      },
      {
        "type": "note_on",
        "time": 0,
        "note": 31,
        "velocity": 100,
        "channel": 5
      },
      {
        "type": "note_on",
        "time": 30,
        "note": 31,
        "velocity": 0,
        "channel": 5
      },
      {
        "type": "note_on",
        "time": 0,
        "note": 31,
        "velocity": 100,
        "channel": 5
      },
      {
        "type": "note_on",
        "time": 30,
        "note": 31,
        "velocity": 0,
        "channel": 5
      },
      {
        "type": "note_on",
        "time": 0,
        "note": 31,
        "velocity": 100,
        "channel": 5
      },
      {
        "type": "note_on",
        "time": 75,
        "note": 31,
        "velocity": 0,
        "channel": 5
      },
      {
        "type": "note_on",
        "time": 15,
        "note": 31,
        "velocity": 100,
        "channel": 5
      },
      {
        "type": "note_on",
        "time": 30,
        "note": 31,
        "velocity": 0,
        "channel": 5
      },
      {
        "type": "note_on",
        "time": 0,
        "note": 40,
        "velocity": 100,
        "channel": 5
      },
      {
        "type": "note_on",
        "time": 60,
        "note": 40,
        "velocity": 0,
        "channel": 5
      },
      {
        "type": "note_on",
        "time": 0,
        "note": 38,
        "velocity": 100,
        "channel": 5
      },
      {
        "type": "note_on",
        "time": 120,
        "note": 38,
        "velocity": 0,
        "channel": 5
      },
      {
        "type": "note_on",
        "time": 60,
        "note": 38,
        "velocity": 100,
        "channel": 5
      },
      {
        "type": "note_on",
        "time": 60,
        "note": 38,
        "velocity": 0,
        "channel": 5
      },
      {
        "type": "note_on",
        "time": 0,
        "note": 38,
        "velocity": 100,
        "channel": 5
      },
      {
        "type": "note_on",
        "time": 60,
        "note": 38,
        "velocity": 0,
        "channel": 5
      },
      {
        "type": "note_on",
        "time": 0,
        "note": 35,
        "velocity": 100,
        "channel": 5
      },
      {
        "type": "note_on",
        "time": 60,
        "note": 35,
        "velocity": 0,
        "channel": 5
      },
      {
        "type": "note_on",
        "time": 30,
        "note": 35,
        "velocity": 100,
        "channel": 5
      },
      {
        "type": "note_on",
        "time": 30,
        "note": 35,
        "velocity": 0,
        "channel": 5
      },
      {
        "type": "note_on",
        "time": 0,
        "note": 35,
        "velocity": 100,
        "channel": 5
      },
      {
        "type": "note_on",
        "time": 60,
        "note": 35,
        "velocity": 0,
        "channel": 5
      },
      {
        "type": "note_on",
        "time": 0,
        "note": 36,
        "velocity": 100,
        "channel": 5
      },
      {
        "type": "note_on",
        "time": 60,
        "note": 36,
        "velocity": 0,
        "channel": 5
      },
      {
        "type": "note_on",
        "time": 60,
        "note": 36,
        "velocity": 100,
        "channel": 5
      },
      {
        "type": "note_on",
        "time": 60,
        "note": 36,
        "velocity": 0,
        "channel": 5
      },
      {
        "type": "note_on",
        "time": 0,
        "note": 35,
        "velocity": 100,
        "channel": 5
      },
      {
        "type": "note_on",
        "time": 30,
        "note": 35,
        "velocity": 0,
        "channel": 5
      },
      {
        "type": "note_on",
        "time": 0,
        "note": 36,
        "velocity": 100,
        "channel": 5
      },
      {
        "type": "note_on",
        "time": 30,
        "note": 36,
        "velocity": 0,
        "channel": 5
      },
      {
        "type": "note_on",
        "time": 0,
        "note": 35,
        "velocity": 100,
        "channel": 5
      },
      {
        "type": "note_on",
        "time": 60,
        "note": 35,
        "velocity": 0,
        "channel": 5
      },
      {
        "type": "note_on",
        "time": 0,
        "note": 31,
        "velocity": 100,
        "channel": 5
      },
      {
        "type": "note_on",
        "time": 75,
        "note": 31,
        "velocity": 0,
        "channel": 5
      },
      {
        "type": "note_on",
        "time": 15,
        "note": 31,
        "velocity": 100,
        "channel": 5
      },
      {
        "type": "note_on",
        "time": 30,
        "note": 31,
        "velocity": 0,
        "channel": 5
      },
      {
        "type": "note_on",
        "time": 0,
        "note": 40,
        "velocity": 100,
        "channel": 5
      },
      {
        "type": "note_on",
        "time": 60,
        "note": 40,
        "velocity": 0,
        "channel": 5
      },
      {
        "type": "note_on",
        "time": 0,
        "note": 38,
        "velocity": 100,
        "channel": 5
      },
      {
        "type": "note_on",
        "time": 120,
        "note": 38,
        "velocity": 0,
        "channel": 5
      },
      {
        "type": "note_on",
        "time": 60,
        "note": 38,
        "velocity": 100,
        "channel": 5
      },
      {
        "type": "note_on",
        "time": 60,
        "note": 38,
        "velocity": 0,
        "channel": 5
      },
      {
        "type": "note_on",
        "time": 0,
        "note": 38,
        "velocity": 100,
        "channel": 5
      },
      {
        "type": "note_on",
        "time": 60,
        "note": 38,
        "velocity": 0,
        "channel": 5
      },
      {
        "type": "note_on",
        "time": 0,
        "note": 35,
        "velocity": 100,
        "channel": 5
      },
      {
        "type": "note_on",
        "time": 90,
        "note": 35,
        "velocity": 0,
        "channel": 5
      },
      {
        "type": "note_on",
        "time": 0,
        "note": 42,
        "velocity": 100,
        "channel": 5
      },
      {
        "type": "note_on",
        "time": 30,
        "note": 42,
        "velocity": 0,
        "channel": 5
      },
      {
        "type": "note_on",
        "time": 0,
        "note": 35,
        "velocity": 100,
        "channel": 5
      },
      {
        "type": "note_on",
        "time": 60,
        "note": 35,
        "velocity": 0,
        "channel": 5
      },
      {
        "type": "note_on",
        "time": 0,
        "note": 31,
        "velocity": 100,
        "channel": 5
      },
      {
        "type": "note_on",
        "time": 120,
        "note": 31,
        "velocity": 0,
        "channel": 5
      },
      {
        "type": "note_on",
        "time": 0,
        "note": 36,
        "velocity": 100,
        "channel": 5
      },
      {
        "type": "note_on",
        "time": 60,
        "note": 36,
        "velocity": 0,
        "channel": 5
      },
      {
        "type": "note_on",
        "time": 0,
        "note": 35,
        "velocity": 100,
        "channel": 5
      },
      {
        "type": "note_on",
        "time": 60,
        "note": 35,
        "velocity": 0,
        "channel": 5
      },
      {
        "type": "note_on",
        "time": 0,
        "note": 33,
        "velocity": 100,
        "channel": 5
      },
      {
        "type": "note_on",
        "time": 60,
        "note": 33,
        "velocity": 0,
        "channel": 5
      },
      {
        "type": "note_on",
        "time": 0,
        "note": 31,
        "velocity": 100,
        "channel": 5
      },
      {
        "type": "note_on",
        "time": 75,
        "note": 31,
        "velocity": 0,
        "channel": 5
      },
      {
        "type": "note_on",
        "time": 15,
        "note": 31,
        "velocity": 100,
        "channel": 5
      },
      {
        "type": "note_on",
        "time": 30,
        "note": 31,
        "velocity": 0,
        "channel": 5
      },
      {
        "type": "note_on",
        "time": 0,
        "note": 40,
        "velocity": 100,
        "channel": 5
      },
      {
        "type": "note_on",
        "time": 60,
        "note": 40,
        "velocity": 0,
        "channel": 5
      },
      {
        "type": "note_on",
        "time": 0,
        "note": 38,
        "velocity": 100,
        "channel": 5
      },
      {
        "type": "note_on",
        "time": 120,
        "note": 38,
        "velocity": 0,
        "channel": 5
      },
      {
        "type": "note_on",
        "time": 60,
        "note": 38,
        "velocity": 100,
        "channel": 5
      },
      {
        "type": "note_on",
        "time": 60,
        "note": 38,
        "velocity": 0,
        "channel": 5
      },
      {
        "type": "note_on",
        "time": 0,
        "note": 38,
        "velocity": 100,
        "channel": 5
      },
      {
        "type": "note_on",
        "time": 60,
        "note": 38,
        "velocity": 0,
        "channel": 5
      },
      {
        "type": "note_on",
        "time": 0,
        "note": 35,
        "velocity": 100,
        "channel": 5
      },
      {
        "type": "note_on",
        "time": 60,
        "note": 35,
        "velocity": 0,
        "channel": 5
      },
      {
        "type": "note_on",
        "time": 30,
        "note": 35,
        "velocity": 100,
        "channel": 5
      },
      {
        "type": "note_on",
        "time": 30,
        "note": 35,
        "velocity": 0,
        "channel": 5
      },
      {
        "type": "note_on",
        "time": 0,
        "note": 35,
        "velocity": 100,
        "channel": 5
      },
      {
        "type": "note_on",
        "time": 60,
        "note": 35,
        "velocity": 0,
        "channel": 5
      },
      {
        "type": "note_on",
        "time": 0,
        "note": 36,
        "velocity": 100,
        "channel": 5
      },
      {
        "type": "note_on",
        "time": 60,
        "note": 36,
        "velocity": 0,
        "channel": 5
      },
      {
        "type": "note_on",
        "time": 60,
        "note": 36,
        "velocity": 100,
        "channel": 5
      },
      {
        "type": "note_on",
        "time": 60,
        "note": 36,
        "velocity": 0,
        "channel": 5
      },
      {
        "type": "note_on",
        "time": 0,
        "note": 35,
        "velocity": 100,
        "channel": 5
      },
      {
        "type": "note_on",
        "time": 30,
        "note": 35,
        "velocity": 0,
        "channel": 5
      },
      {
        "type": "note_on",
        "time": 0,
        "note": 36,
        "velocity": 100,
        "channel": 5
      },
      {
        "type": "note_on",
        "time": 30,
        "note": 36,
        "velocity": 0,
        "channel": 5
      },
      {
        "type": "note_on",
        "time": 0,
        "note": 35,
        "velocity": 100,
        "channel": 5
      },
      {
        "type": "note_on",
        "time": 60,
        "note": 35,
        "velocity": 0,
        "channel": 5
      },
      {
        "type": "note_on",
        "time": 0,
        "note": 31,
        "velocity": 100,
        "channel": 5
      },
      {
        "type": "note_on",
        "time": 75,
        "note": 31,
        "velocity": 0,
        "channel": 5
      },
      {
        "type": "note_on",
        "time": 15,
        "note": 31,
        "velocity": 100,
        "channel": 5
      },
      {
        "type": "note_on",
        "time": 30,
        "note": 31,
        "velocity": 0,
        "channel": 5
      },
      {
        "type": "note_on",
        "time": 0,
        "note": 40,
        "velocity": 100,
        "channel": 5
      },
      {
        "type": "note_on",
        "time": 60,
        "note": 40,
        "velocity": 0,
        "channel": 5
      },
      {
        "type": "note_on",
        "time": 0,
        "note": 38,
        "velocity": 100,
        "channel": 5
      },
      {
        "type": "note_on",
        "time": 120,
        "note": 38,
        "velocity": 0,
        "channel": 5
      },
      {
        "type": "note_on",
        "time": 60,
        "note": 38,
        "velocity": 100,
        "channel": 5
      },
      {
        "type": "note_on",
        "time": 60,
        "note": 38,
        "velocity": 0,
        "channel": 5
      },
      {
        "type": "note_on",
        "time": 0,
        "note": 38,
        "velocity": 100,
        "channel": 5
      },
      {
        "type": "note_on",
        "time": 60,
        "note": 38,
        "velocity": 0,
        "channel": 5
      },
      {
        "type": "note_on",
        "time": 0,
        "note": 30,
        "velocity": 100,
        "channel": 5
      },
      {
        "type": "note_on",
        "time": 120,
        "note": 30,
        "velocity": 0,
        "channel": 5
      },
      {
        "type": "note_on",
        "time": 0,
        "note": 31,
        "velocity": 100,
        "channel": 5
      },
      {
        "type": "note_on",
        "time": 360,
        "note": 31,
        "velocity": 0,
        "channel": 5
      },
      {
        "type": "note_on",
        "time": 0,
        "note": 40,
        "velocity": 100,
        "channel": 5
      },
      {
        "type": "note_on",
        "time": 90,
        "note": 40,
        "velocity": 0,
        "channel": 5
      },
      {
        "type": "note_on",
        "time": 30,
        "note": 40,
        "velocity": 100,
        "channel": 5
      },
      {
        "type": "note_on",
        "time": 90,
        "note": 40,
        "velocity": 0,
        "channel": 5
      },
      {
        "type": "note_on",
        "time": 270,
        "note": 38,
        "velocity": 100,
        "channel": 5
      },
      {
        "type": "note_on",
        "time": 60,
        "note": 38,
        "velocity": 0,
        "channel": 5
      },
      {
        "type": "note_on",
        "time": 0,
        "note": 33,
        "velocity": 100,
        "channel": 5
      },
      {
        "type": "note_on",
        "time": 60,
        "note": 33,
        "velocity": 0,
        "channel": 5
      },
      {
        "type": "note_on",
        "time": 0,
        "note": 38,
        "velocity": 100,
        "channel": 5
      },
      {
        "type": "note_on",
        "time": 90,
        "note": 38,
        "velocity": 0,
        "channel": 5
      },
      {
        "type": "note_on",
        "time": 270,
        "note": 35,
        "velocity": 100,
        "channel": 5
      },
      {
        "type": "note_on",
        "time": 60,
        "note": 35,
        "velocity": 0,
        "channel": 5
      },
      {
        "type": "note_on",
        "time": 0,
        "note": 30,
        "velocity": 100,
        "channel": 5
      },
      {
        "type": "note_on",
        "time": 60,
        "note": 30,
        "velocity": 0,
        "channel": 5
      },
      {
        "type": "note_on",
        "time": 0,
        "note": 35,
        "velocity": 100,
        "channel": 5
      },
      {
        "type": "note_on",
        "time": 90,
        "note": 35,
        "velocity": 0,
        "channel": 5
      },
      {
        "type": "note_on",
        "time": 270,
        "note": 38,
        "velocity": 100,
        "channel": 5
      },
      {
        "type": "note_on",
        "time": 60,
        "note": 38,
        "velocity": 0,
        "channel": 5
      },
      {
        "type": "note_on",
        "time": 0,
        "note": 36,
        "velocity": 100,
        "channel": 5
      },
      {
        "type": "note_on",
        "time": 45,
        "note": 36,
        "velocity": 0,
        "channel": 5
      },
      {
        "type": "note_on",
        "time": 15,
        "note": 36,
        "velocity": 100,
        "channel": 5
      },
      {
        "type": "note_on",
        "time": 90,
        "note": 36,
        "velocity": 0,
        "channel": 5
      },
      {
        "type": "note_on",
        "time": 270,
        "note": 35,
        "velocity": 100,
        "channel": 5
      },
      {
        "type": "note_on",
        "time": 60,
        "note": 35,
        "velocity": 0,
        "channel": 5
      },
      {
        "type": "note_on",
        "time": 0,
        "note": 35,
        "velocity": 100,
        "channel": 5
      },
      {
        "type": "note_on",
        "time": 60,
        "note": 35,
        "velocity": 0,
        "channel": 5
      },
      {
        "type": "note_on",
        "time": 0,
        "note": 35,
        "velocity": 100,
        "channel": 5
      },
      {
        "type": "note_on",
        "time": 105,
        "note": 35,
        "velocity": 0,
        "channel": 5
      },
      {
        "type": "note_on",
        "time": 255,
        "note": 33,
        "velocity": 100,
        "channel": 5
      },
      {
        "type": "note_on",
        "time": 60,
        "note": 33,
        "velocity": 0,
        "channel": 5
      },
      {
        "type": "note_on",
        "time": 0,
        "note": 33,
        "velocity": 100,
        "channel": 5
      },
      {
        "type": "note_on",
        "time": 60,
        "note": 33,
        "velocity": 0,
        "channel": 5
      },
      {
        "type": "note_on",
        "time": 0,
        "note": 33,
        "velocity": 100,
        "channel": 5
      },
      {
        "type": "note_on",
        "time": 90,
        "note": 33,
        "velocity": 0,
        "channel": 5
      },
      {
        "type": "note_on",
        "time": 210,
        "note": 30,
        "velocity": 100,
        "channel": 5
      },
      {
        "type": "note_on",
        "time": 60,
        "note": 30,
        "velocity": 0,
        "channel": 5
      },
      {
        "type": "note_on",
        "time": 0,
        "note": 35,
        "velocity": 100,
        "channel": 5
      },
      {
        "type": "note_on",
        "time": 60,
        "note": 35,
        "velocity": 0,
        "channel": 5
      },
      {
        "type": "note_on",
        "time": 0,
        "note": 35,
        "velocity": 100,
        "channel": 5
      },
      {
        "type": "note_on",
        "time": 60,
        "note": 35,
        "velocity": 0,
        "channel": 5
      },
      {
        "type": "note_on",
        "time": 0,
        "note": 35,
        "velocity": 100,
        "channel": 5
      },
      {
        "type": "note_on",
        "time": 90,
        "note": 35,
        "velocity": 0,
        "channel": 5
      },
      {
        "type": "note_on",
        "time": 210,
        "note": 35,
        "velocity": 100,
        "channel": 5
      },
      {
        "type": "note_on",
        "time": 60,
        "note": 35,
        "velocity": 0,
        "channel": 5
      },
      {
        "type": "note_on",
        "time": 0,
        "note": 36,
        "velocity": 100,
        "channel": 5
      },
      {
        "type": "note_on",
        "time": 60,
        "note": 36,
        "velocity": 0,
        "channel": 5
      },
      {
        "type": "note_on",
        "time": 0,
        "note": 38,
        "velocity": 100,
        "channel": 5
      },
      {
        "type": "note_on",
        "time": 60,
        "note": 38,
        "velocity": 0,
        "channel": 5
      },
      {
        "type": "note_on",
        "time": 0,
        "note": 36,
        "velocity": 100,
        "channel": 5
      },
      {
        "type": "note_on",
        "time": 90,
        "note": 36,
        "velocity": 0,
        "channel": 5
      },
      {
        "type": "note_on",
        "time": 270,
        "note": 40,
        "velocity": 100,
        "channel": 5
      },
      {
        "type": "note_on",
        "time": 90,
        "note": 40,
        "velocity": 0,
        "channel": 5
      },
      {
        "type": "note_on",
        "time": 30,
        "note": 40,
        "velocity": 100,
        "channel": 5
      },
      {
        "type": "note_on",
        "time": 90,
        "note": 40,
        "velocity": 0,
        "channel": 5
      },
      {
        "type": "note_on",
        "time": 270,
        "note": 38,
        "velocity": 100,
        "channel": 5
      },
      {
        "type": "note_on",
        "time": 60,
        "note": 38,
        "velocity": 0,
        "channel": 5
      },
      {
        "type": "note_on",
        "time": 0,
        "note": 33,
        "velocity": 100,
        "channel": 5
      },
      {
        "type": "note_on",
        "time": 60,
        "note": 33,
        "velocity": 0,
        "channel": 5
      },
      {
        "type": "note_on",
        "time": 0,
        "note": 38,
        "velocity": 100,
        "channel": 5
      },
      {
        "type": "note_on",
        "time": 90,
        "note": 38,
        "velocity": 0,
        "channel": 5
      },
      {
        "type": "note_on",
        "time": 270,
        "note": 35,
        "velocity": 100,
        "channel": 5
      },
      {
        "type": "note_on",
        "time": 60,
        "note": 35,
        "velocity": 0,
        "channel": 5
      },
      {
        "type": "note_on",
        "time": 0,
        "note": 30,
        "velocity": 100,
        "channel": 5
      },
      {
        "type": "note_on",
        "time": 60,
        "note": 30,
        "velocity": 0,
        "channel": 5
      },
      {
        "type": "note_on",
        "time": 0,
        "note": 35,
        "velocity": 100,
        "channel": 5
      },
      {
        "type": "note_on",
        "time": 90,
        "note": 35,
        "velocity": 0,
        "channel": 5
      },
      {
        "type": "note_on",
        "time": 270,
        "note": 38,
        "velocity": 100,
        "channel": 5
      },
      {
        "type": "note_on",
        "time": 60,
        "note": 38,
        "velocity": 0,
        "channel": 5
      },
      {
        "type": "note_on",
        "time": 0,
        "note": 36,
        "velocity": 100,
        "channel": 5
      },
      {
        "type": "note_on",
        "time": 45,
        "note": 36,
        "velocity": 0,
        "channel": 5
      },
      {
        "type": "note_on",
        "time": 15,
        "note": 36,
        "velocity": 100,
        "channel": 5
      },
      {
        "type": "note_on",
        "time": 90,
        "note": 36,
        "velocity": 0,
        "channel": 5
      },
      {
        "type": "note_on",
        "time": 270,
        "note": 35,
        "velocity": 100,
        "channel": 5
      },
      {
        "type": "note_on",
        "time": 60,
        "note": 35,
        "velocity": 0,
        "channel": 5
      },
      {
        "type": "note_on",
        "time": 0,
        "note": 35,
        "velocity": 100,
        "channel": 5
      },
      {
        "type": "note_on",
        "time": 60,
        "note": 35,
        "velocity": 0,
        "channel": 5
      },
      {
        "type": "note_on",
        "time": 0,
        "note": 35,
        "velocity": 100,
        "channel": 5
      },
      {
        "type": "note_on",
        "time": 105,
        "note": 35,
        "velocity": 0,
        "channel": 5
      },
      {
        "type": "note_on",
        "time": 255,
        "note": 33,
        "velocity": 100,
        "channel": 5
      },
      {
        "type": "note_on",
        "time": 60,
        "note": 33,
        "velocity": 0,
        "channel": 5
      },
      {
        "type": "note_on",
        "time": 0,
        "note": 33,
        "velocity": 100,
        "channel": 5
      },
      {
        "type": "note_on",
        "time": 60,
        "note": 33,
        "velocity": 0,
        "channel": 5
      },
      {
        "type": "note_on",
        "time": 0,
        "note": 33,
        "velocity": 100,
        "channel": 5
      },
      {
        "type": "note_on",
        "time": 90,
        "note": 33,
        "velocity": 0,
        "channel": 5
      },
      {
        "type": "note_on",
        "time": 210,
        "note": 30,
        "velocity": 100,
        "channel": 5
      },
      {
        "type": "note_on",
        "time": 60,
        "note": 30,
        "velocity": 0,
        "channel": 5
      },
      {
        "type": "note_on",
        "time": 0,
        "note": 35,
        "velocity": 100,
        "channel": 5
      },
      {
        "type": "note_on",
        "time": 60,
        "note": 35,
        "velocity": 0,
        "channel": 5
      },
      {
        "type": "note_on",
        "time": 0,
        "note": 35,
        "velocity": 100,
        "channel": 5
      },
      {
        "type": "note_on",
        "time": 60,
        "note": 35,
        "velocity": 0,
        "channel": 5
      },
      {
        "type": "note_on",
        "time": 0,
        "note": 35,
        "velocity": 100,
        "channel": 5
      },
      {
        "type": "note_on",
        "time": 90,
        "note": 35,
        "velocity": 0,
        "channel": 5
      },
      {
        "type": "note_on",
        "time": 210,
        "note": 35,
        "velocity": 100,
        "channel": 5
      },
      {
        "type": "note_on",
        "time": 60,
        "note": 35,
        "velocity": 0,
        "channel": 5
      },
      {
        "type": "note_on",
        "time": 0,
        "note": 36,
        "velocity": 100,
        "channel": 5
      },
      {
        "type": "note_on",
        "time": 60,
        "note": 36,
        "velocity": 0,
        "channel": 5
      },
      {
        "type": "note_on",
        "time": 0,
        "note": 38,
        "velocity": 100,
        "channel": 5
      },
      {
        "type": "note_on",
        "time": 60,
        "note": 38,
        "velocity": 0,
        "channel": 5
      },
      {
        "type": "note_on",
        "time": 0,
        "note": 36,
        "velocity": 100,
        "channel": 5
      },
      {
        "type": "note_on",
        "time": 60,
        "note": 36,
        "velocity": 0,
        "channel": 5
      },
      {
        "type": "note_on",
        "time": 0,
        "note": 36,
        "velocity": 100,
        "channel": 5
      },
      {
        "type": "note_on",
        "time": 60,
        "note": 36,
        "velocity": 0,
        "channel": 5
      },
      {
        "type": "note_on",
        "time": 0,
        "note": 36,
        "velocity": 100,
        "channel": 5
      },
      {
        "type": "note_on",
        "time": 60,
        "note": 36,
        "velocity": 0,
        "channel": 5
      },
      {
        "type": "note_on",
        "time": 0,
        "note": 36,
        "velocity": 100,
        "channel": 5
      },
      {
        "type": "note_on",
        "time": 60,
        "note": 36,
        "velocity": 0,
        "channel": 5
      },
      {
        "type": "note_on",
        "time": 0,
        "note": 36,
        "velocity": 100,
        "channel": 5
      },
      {
        "type": "note_on",
        "time": 60,
        "note": 36,
        "velocity": 0,
        "channel": 5
      },
      {
        "type": "note_on",
        "time": 0,
        "note": 38,
        "velocity": 100,
        "channel": 5
      },
      {
        "type": "note_on",
        "time": 60,
        "note": 38,
        "velocity": 0,
        "channel": 5
      },
      {
        "type": "note_on",
        "time": 0,
        "note": 40,
        "velocity": 100,
        "channel": 5
      },
      {
        "type": "note_on",
        "time": 30,
        "note": 40,
        "velocity": 0,
        "channel": 5
      },
      {
        "type": "note_on",
        "time": 0,
        "note": 35,
        "velocity": 100,
        "channel": 5
      },
      {
        "type": "note_on",
        "time": 30,
        "note": 35,
        "velocity": 0,
        "channel": 5
      },
      {
        "type": "note_on",
        "time": 0,
        "note": 38,
        "velocity": 100,
        "channel": 5
      },
      {
        "type": "note_on",
        "time": 45,
        "note": 38,
        "velocity": 0,
        "channel": 5
      },
      {
        "type": "note_on",
        "time": 15,
        "note": 40,
        "velocity": 100,
        "channel": 5
      },
      {
        "type": "note_on",
        "time": 45,
        "note": 40,
        "velocity": 0,
        "channel": 5
      },
      {
        "type": "note_on",
        "time": 15,
        "note": 35,
        "velocity": 100,
        "channel": 5
      },
      {
        "type": "note_on",
        "time": 30,
        "note": 35,
        "velocity": 0,
        "channel": 5
      },
      {
        "type": "note_on",
        "time": 0,
        "note": 35,
        "velocity": 100,
        "channel": 5
      },
      {
        "type": "note_on",
        "time": 30,
        "note": 35,
        "velocity": 0,
        "channel": 5
      },
      {
        "type": "note_on",
        "time": 0,
        "note": 35,
        "velocity": 100,
        "channel": 5
      },
      {
        "type": "note_on",
        "time": 30,
        "note": 35,
        "velocity": 0,
        "channel": 5
      },
      {
        "type": "note_on",
        "time": 0,
        "note": 38,
        "velocity": 100,
        "channel": 5
      },
      {
        "type": "note_on",
        "time": 45,
        "note": 38,
        "velocity": 0,
        "channel": 5
      },
      {
        "type": "note_on",
        "time": 15,
        "note": 40,
        "velocity": 100,
        "channel": 5
      },
      {
        "type": "note_on",
        "time": 60,
        "note": 40,
        "velocity": 0,
        "channel": 5
      },
      {
        "type": "note_on",
        "time": 0,
        "note": 35,
        "velocity": 100,
        "channel": 5
      },
      {
        "type": "note_on",
        "time": 30,
        "note": 35,
        "velocity": 0,
        "channel": 5
      },
      {
        "type": "note_on",
        "time": 0,
        "note": 40,
        "velocity": 100,
        "channel": 5
      },
      {
        "type": "note_on",
        "time": 30,
        "note": 40,
        "velocity": 0,
        "channel": 5
      },
      {
        "type": "note_on",
        "time": 0,
        "note": 35,
        "velocity": 100,
        "channel": 5
      },
      {
        "type": "note_on",
        "time": 30,
        "note": 35,
        "velocity": 0,
        "channel": 5
      },
      {
        "type": "note_on",
        "time": 0,
        "note": 38,
        "velocity": 100,
        "channel": 5
      },
      {
        "type": "note_on",
        "time": 30,
        "note": 38,
        "velocity": 0,
        "channel": 5
      },
      {
        "type": "note_on",
        "time": 0,
        "note": 33,
        "velocity": 100,
        "channel": 5
      },
      {
        "type": "note_on",
        "time": 30,
        "note": 33,
        "velocity": 0,
        "channel": 5
      },
      {
        "type": "note_on",
        "time": 0,
        "note": 38,
        "velocity": 100,
        "channel": 5
      },
      {
        "type": "note_on",
        "time": 45,
        "note": 38,
        "velocity": 0,
        "channel": 5
      },
      {
        "type": "note_on",
        "time": 15,
        "note": 40,
        "velocity": 100,
        "channel": 5
      },
      {
        "type": "note_on",
        "time": 45,
        "note": 40,
        "velocity": 0,
        "channel": 5
      },
      {
        "type": "note_on",
        "time": 15,
        "note": 33,
        "velocity": 100,
        "channel": 5
      },
      {
        "type": "note_on",
        "time": 30,
        "note": 33,
        "velocity": 0,
        "channel": 5
      },
      {
        "type": "note_on",
        "time": 0,
        "note": 33,
        "velocity": 100,
        "channel": 5
      },
      {
        "type": "note_on",
        "time": 30,
        "note": 33,
        "velocity": 0,
        "channel": 5
      },
      {
        "type": "note_on",
        "time": 0,
        "note": 33,
        "velocity": 100,
        "channel": 5
      },
      {
        "type": "note_on",
        "time": 30,
        "note": 33,
        "velocity": 0,
        "channel": 5
      },
      {
        "type": "note_on",
        "time": 0,
        "note": 38,
        "velocity": 100,
        "channel": 5
      },
      {
        "type": "note_on",
        "time": 45,
        "note": 38,
        "velocity": 0,
        "channel": 5
      },
      {
        "type": "note_on",
        "time": 15,
        "note": 40,
        "velocity": 100,
        "channel": 5
      },
      {
        "type": "note_on",
        "time": 30,
        "note": 35,
        "velocity": 100,
        "channel": 5
      },
      {
        "type": "note_on",
        "time": 15,
        "note": 40,
        "velocity": 0,
        "channel": 5
      },
      {
        "type": "note_on",
        "time": 15,
        "note": 35,
        "velocity": 0,
        "channel": 5
      },
      {
        "type": "note_on",
        "time": 0,
        "note": 38,
        "velocity": 100,
        "channel": 5
      },
      {
        "type": "note_on",
        "time": 30,
        "note": 38,
        "velocity": 0,
        "channel": 5
      },
      {
        "type": "note_on",
        "time": 0,
        "note": 35,
        "velocity": 100,
        "channel": 5
      },
      {
        "type": "note_on",
        "time": 45,
        "note": 35,
        "velocity": 0,
        "channel": 5
      },
      {
        "type": "note_on",
        "time": 15,
        "note": 30,
        "velocity": 100,
        "channel": 5
      },
      {
        "type": "note_on",
        "time": 30,
        "note": 30,
        "velocity": 0,
        "channel": 5
      },
      {
        "type": "note_on",
        "time": 0,
        "note": 30,
        "velocity": 100,
        "channel": 5
      },
      {
        "type": "note_on",
        "time": 30,
        "note": 30,
        "velocity": 0,
        "channel": 5
      },
      {
        "type": "note_on",
        "time": 0,
        "note": 35,
        "velocity": 100,
        "channel": 5
      },
      {
        "type": "note_on",
        "time": 45,
        "note": 35,
        "velocity": 0,
        "channel": 5
      },
      {
        "type": "note_on",
        "time": 15,
        "note": 35,
        "velocity": 100,
        "channel": 5
      },
      {
        "type": "note_on",
        "time": 45,
        "note": 35,
        "velocity": 0,
        "channel": 5
      },
      {
        "type": "note_on",
        "time": 15,
        "note": 30,
        "velocity": 100,
        "channel": 5
      },
      {
        "type": "note_on",
        "time": 30,
        "note": 30,
        "velocity": 0,
        "channel": 5
      },
      {
        "type": "note_on",
        "time": 0,
        "note": 33,
        "velocity": 100,
        "channel": 5
      },
      {
        "type": "note_on",
        "time": 30,
        "note": 33,
        "velocity": 0,
        "channel": 5
      },
      {
        "type": "note_on",
        "time": 0,
        "note": 30,
        "velocity": 100,
        "channel": 5
      },
      {
        "type": "note_on",
        "time": 30,
        "note": 30,
        "velocity": 0,
        "channel": 5
      },
      {
        "type": "note_on",
        "time": 0,
        "note": 35,
        "velocity": 100,
        "channel": 5
      },
      {
        "type": "note_on",
        "time": 45,
        "note": 35,
        "velocity": 0,
        "channel": 5
      },
      {
        "type": "note_on",
        "time": 15,
        "note": 35,
        "velocity": 100,
        "channel": 5
      },
      {
        "type": "note_on",
        "time": 45,
        "note": 35,
        "velocity": 0,
        "channel": 5
      },
      {
        "type": "note_on",
        "time": 15,
        "note": 30,
        "velocity": 100,
        "channel": 5
      },
      {
        "type": "note_on",
        "time": 30,
        "note": 30,
        "velocity": 0,
        "channel": 5
      },
      {
        "type": "note_on",
        "time": 0,
        "note": 35,
        "velocity": 100,
        "channel": 5
      },
      {
        "type": "note_on",
        "time": 30,
        "note": 35,
        "velocity": 0,
        "channel": 5
      },
      {
        "type": "note_on",
        "time": 0,
        "note": 30,
        "velocity": 100,
        "channel": 5
      },
      {
        "type": "note_on",
        "time": 30,
        "note": 30,
        "velocity": 0,
        "channel": 5
      },
      {
        "type": "note_on",
        "time": 0,
        "note": 31,
        "velocity": 100,
        "channel": 5
      },
      {
        "type": "note_on",
        "time": 30,
        "note": 31,
        "velocity": 0,
        "channel": 5
      },
      {
        "type": "note_on",
        "time": 0,
        "note": 31,
        "velocity": 100,
        "channel": 5
      },
      {
        "type": "note_on",
        "time": 30,
        "note": 31,
        "velocity": 0,
        "channel": 5
      },
      {
        "type": "note_on",
        "time": 0,
        "note": 36,
        "velocity": 100,
        "channel": 5
      },
      {
        "type": "note_on",
        "time": 45,
        "note": 36,
        "velocity": 0,
        "channel": 5
      },
      {
        "type": "note_on",
        "time": 15,
        "note": 36,
        "velocity": 100,
        "channel": 5
      },
      {
        "type": "note_on",
        "time": 45,
        "note": 36,
        "velocity": 0,
        "channel": 5
      },
      {
        "type": "note_on",
        "time": 15,
        "note": 31,
        "velocity": 100,
        "channel": 5
      },
      {
        "type": "note_on",
        "time": 30,
        "note": 31,
        "velocity": 0,
        "channel": 5
      },
      {
        "type": "note_on",
        "time": 0,
        "note": 31,
        "velocity": 100,
        "channel": 5
      },
      {
        "type": "note_on",
        "time": 30,
        "note": 31,
        "velocity": 0,
        "channel": 5
      },
      {
        "type": "note_on",
        "time": 0,
        "note": 35,
        "velocity": 100,
        "channel": 5
      },
      {
        "type": "note_on",
        "time": 30,
        "note": 35,
        "velocity": 0,
        "channel": 5
      },
      {
        "type": "note_on",
        "time": 0,
        "note": 38,
        "velocity": 100,
        "channel": 5
      },
      {
        "type": "note_on",
        "time": 30,
        "note": 38,
        "velocity": 0,
        "channel": 5
      },
      {
        "type": "note_on",
        "time": 0,
        "note": 38,
        "velocity": 100,
        "channel": 5
      },
      {
        "type": "note_on",
        "time": 30,
        "note": 38,
        "velocity": 0,
        "channel": 5
      },
      {
        "type": "note_on",
        "time": 0,
        "note": 35,
        "velocity": 100,
        "channel": 5
      },
      {
        "type": "note_on",
        "time": 30,
        "note": 35,
        "velocity": 0,
        "channel": 5
      },
      {
        "type": "note_on",
        "time": 0,
        "note": 38,
        "velocity": 100,
        "channel": 5
      },
      {
        "type": "note_on",
        "time": 30,
        "note": 38,
        "velocity": 0,
        "channel": 5
      },
      {
        "type": "note_on",
        "time": 0,
        "note": 35,
        "velocity": 100,
        "channel": 5
      },
      {
        "type": "note_on",
        "time": 30,
        "note": 35,
        "velocity": 0,
        "channel": 5
      },
      {
        "type": "note_on",
        "time": 0,
        "note": 38,
        "velocity": 100,
        "channel": 5
      },
      {
        "type": "note_on",
        "time": 30,
        "note": 38,
        "velocity": 0,
        "channel": 5
      },
      {
        "type": "note_on",
        "time": 0,
        "note": 35,
        "velocity": 100,
        "channel": 5
      },
      {
        "type": "note_on",
        "time": 30,
        "note": 35,
        "velocity": 0,
        "channel": 5
      },
      {
        "type": "note_on",
        "time": 0,
        "note": 40,
        "velocity": 100,
        "channel": 5
      },
      {
        "type": "note_on",
        "time": 30,
        "note": 40,
        "velocity": 0,
        "channel": 5
      },
      {
        "type": "note_on",
        "time": 0,
        "note": 35,
        "velocity": 100,
        "channel": 5
      },
      {
        "type": "note_on",
        "time": 30,
        "note": 35,
        "velocity": 0,
        "channel": 5
      },
      {
        "type": "note_on",
        "time": 0,
        "note": 38,
        "velocity": 100,
        "channel": 5
      },
      {
        "type": "note_on",
        "time": 45,
        "note": 38,
        "velocity": 0,
        "channel": 5
      },
      {
        "type": "note_on",
        "time": 15,
        "note": 40,
        "velocity": 100,
        "channel": 5
      },
      {
        "type": "note_on",
        "time": 45,
        "note": 40,
        "velocity": 0,
        "channel": 5
      },
      {
        "type": "note_on",
        "time": 15,
        "note": 35,
        "velocity": 100,
        "channel": 5
      },
      {
        "type": "note_on",
        "time": 30,
        "note": 35,
        "velocity": 0,
        "channel": 5
      },
      {
        "type": "note_on",
        "time": 0,
        "note": 35,
        "velocity": 100,
        "channel": 5
      },
      {
        "type": "note_on",
        "time": 30,
        "note": 35,
        "velocity": 0,
        "channel": 5
      },
      {
        "type": "note_on",
        "time": 0,
        "note": 35,
        "velocity": 100,
        "channel": 5
      },
      {
        "type": "note_on",
        "time": 30,
        "note": 35,
        "velocity": 0,
        "channel": 5
      },
      {
        "type": "note_on",
        "time": 0,
        "note": 38,
        "velocity": 100,
        "channel": 5
      },
      {
        "type": "note_on",
        "time": 45,
        "note": 38,
        "velocity": 0,
        "channel": 5
      },
      {
        "type": "note_on",
        "time": 15,
        "note": 40,
        "velocity": 100,
        "channel": 5
      },
      {
        "type": "note_on",
        "time": 60,
        "note": 40,
        "velocity": 0,
        "channel": 5
      },
      {
        "type": "note_on",
        "time": 0,
        "note": 35,
        "velocity": 100,
        "channel": 5
      },
      {
        "type": "note_on",
        "time": 30,
        "note": 35,
        "velocity": 0,
        "channel": 5
      },
      {
        "type": "note_on",
        "time": 0,
        "note": 40,
        "velocity": 100,
        "channel": 5
      },
      {
        "type": "note_on",
        "time": 30,
        "note": 40,
        "velocity": 0,
        "channel": 5
      },
      {
        "type": "note_on",
        "time": 0,
        "note": 35,
        "velocity": 100,
        "channel": 5
      },
      {
        "type": "note_on",
        "time": 30,
        "note": 35,
        "velocity": 0,
        "channel": 5
      },
      {
        "type": "note_on",
        "time": 0,
        "note": 38,
        "velocity": 100,
        "channel": 5
      },
      {
        "type": "note_on",
        "time": 30,
        "note": 38,
        "velocity": 0,
        "channel": 5
      },
      {
        "type": "note_on",
        "time": 0,
        "note": 33,
        "velocity": 100,
        "channel": 5
      },
      {
        "type": "note_on",
        "time": 30,
        "note": 33,
        "velocity": 0,
        "channel": 5
      },
      {
        "type": "note_on",
        "time": 0,
        "note": 38,
        "velocity": 100,
        "channel": 5
      },
      {
        "type": "note_on",
        "time": 45,
        "note": 38,
        "velocity": 0,
        "channel": 5
      },
      {
        "type": "note_on",
        "time": 15,
        "note": 40,
        "velocity": 100,
        "channel": 5
      },
      {
        "type": "note_on",
        "time": 45,
        "note": 40,
        "velocity": 0,
        "channel": 5
      },
      {
        "type": "note_on",
        "time": 15,
        "note": 33,
        "velocity": 100,
        "channel": 5
      },
      {
        "type": "note_on",
        "time": 30,
        "note": 33,
        "velocity": 0,
        "channel": 5
      },
      {
        "type": "note_on",
        "time": 0,
        "note": 33,
        "velocity": 100,
        "channel": 5
      },
      {
        "type": "note_on",
        "time": 30,
        "note": 33,
        "velocity": 0,
        "channel": 5
      },
      {
        "type": "note_on",
        "time": 0,
        "note": 33,
        "velocity": 100,
        "channel": 5
      },
      {
        "type": "note_on",
        "time": 30,
        "note": 33,
        "velocity": 0,
        "channel": 5
      },
      {
        "type": "note_on",
        "time": 0,
        "note": 38,
        "velocity": 100,
        "channel": 5
      },
      {
        "type": "note_on",
        "time": 45,
        "note": 38,
        "velocity": 0,
        "channel": 5
      },
      {
        "type": "note_on",
        "time": 15,
        "note": 40,
        "velocity": 100,
        "channel": 5
      },
      {
        "type": "note_on",
        "time": 30,
        "note": 35,
        "velocity": 100,
        "channel": 5
      },
      {
        "type": "note_on",
        "time": 15,
        "note": 40,
        "velocity": 0,
        "channel": 5
      },
      {
        "type": "note_on",
        "time": 15,
        "note": 35,
        "velocity": 0,
        "channel": 5
      },
      {
        "type": "note_on",
        "time": 0,
        "note": 38,
        "velocity": 100,
        "channel": 5
      },
      {
        "type": "note_on",
        "time": 30,
        "note": 38,
        "velocity": 0,
        "channel": 5
      },
      {
        "type": "note_on",
        "time": 0,
        "note": 35,
        "velocity": 100,
        "channel": 5
      },
      {
        "type": "note_on",
        "time": 45,
        "note": 35,
        "velocity": 0,
        "channel": 5
      },
      {
        "type": "note_on",
        "time": 15,
        "note": 30,
        "velocity": 100,
        "channel": 5
      },
      {
        "type": "note_on",
        "time": 30,
        "note": 30,
        "velocity": 0,
        "channel": 5
      },
      {
        "type": "note_on",
        "time": 0,
        "note": 30,
        "velocity": 100,
        "channel": 5
      },
      {
        "type": "note_on",
        "time": 30,
        "note": 30,
        "velocity": 0,
        "channel": 5
      },
      {
        "type": "note_on",
        "time": 0,
        "note": 35,
        "velocity": 100,
        "channel": 5
      },
      {
        "type": "note_on",
        "time": 45,
        "note": 35,
        "velocity": 0,
        "channel": 5
      },
      {
        "type": "note_on",
        "time": 15,
        "note": 35,
        "velocity": 100,
        "channel": 5
      },
      {
        "type": "note_on",
        "time": 45,
        "note": 35,
        "velocity": 0,
        "channel": 5
      },
      {
        "type": "note_on",
        "time": 15,
        "note": 30,
        "velocity": 100,
        "channel": 5
      },
      {
        "type": "note_on",
        "time": 30,
        "note": 30,
        "velocity": 0,
        "channel": 5
      },
      {
        "type": "note_on",
        "time": 0,
        "note": 33,
        "velocity": 100,
        "channel": 5
      },
      {
        "type": "note_on",
        "time": 30,
        "note": 33,
        "velocity": 0,
        "channel": 5
      },
      {
        "type": "note_on",
        "time": 0,
        "note": 30,
        "velocity": 100,
        "channel": 5
      },
      {
        "type": "note_on",
        "time": 30,
        "note": 30,
        "velocity": 0,
        "channel": 5
      },
      {
        "type": "note_on",
        "time": 0,
        "note": 35,
        "velocity": 100,
        "channel": 5
      },
      {
        "type": "note_on",
        "time": 45,
        "note": 35,
        "velocity": 0,
        "channel": 5
      },
      {
        "type": "note_on",
        "time": 15,
        "note": 35,
        "velocity": 100,
        "channel": 5
      },
      {
        "type": "note_on",
        "time": 45,
        "note": 35,
        "velocity": 0,
        "channel": 5
      },
      {
        "type": "note_on",
        "time": 15,
        "note": 30,
        "velocity": 100,
        "channel": 5
      },
      {
        "type": "note_on",
        "time": 30,
        "note": 30,
        "velocity": 0,
        "channel": 5
      },
      {
        "type": "note_on",
        "time": 0,
        "note": 35,
        "velocity": 100,
        "channel": 5
      },
      {
        "type": "note_on",
        "time": 30,
        "note": 35,
        "velocity": 0,
        "channel": 5
      },
      {
        "type": "note_on",
        "time": 0,
        "note": 30,
        "velocity": 100,
        "channel": 5
      },
      {
        "type": "note_on",
        "time": 30,
        "note": 30,
        "velocity": 0,
        "channel": 5
      },
      {
        "type": "note_on",
        "time": 0,
        "note": 31,
        "velocity": 100,
        "channel": 5
      },
      {
        "type": "note_on",
        "time": 30,
        "note": 31,
        "velocity": 0,
        "channel": 5
      },
      {
        "type": "note_on",
        "time": 0,
        "note": 31,
        "velocity": 100,
        "channel": 5
      },
      {
        "type": "note_on",
        "time": 30,
        "note": 31,
        "velocity": 0,
        "channel": 5
      },
      {
        "type": "note_on",
        "time": 0,
        "note": 36,
        "velocity": 100,
        "channel": 5
      },
      {
        "type": "note_on",
        "time": 45,
        "note": 36,
        "velocity": 0,
        "channel": 5
      },
      {
        "type": "note_on",
        "time": 15,
        "note": 36,
        "velocity": 100,
        "channel": 5
      },
      {
        "type": "note_on",
        "time": 45,
        "note": 36,
        "velocity": 0,
        "channel": 5
      },
      {
        "type": "note_on",
        "time": 15,
        "note": 31,
        "velocity": 100,
        "channel": 5
      },
      {
        "type": "note_on",
        "time": 30,
        "note": 31,
        "velocity": 0,
        "channel": 5
      },
      {
        "type": "note_on",
        "time": 0,
        "note": 31,
        "velocity": 100,
        "channel": 5
      },
      {
        "type": "note_on",
        "time": 30,
        "note": 31,
        "velocity": 0,
        "channel": 5
      },
      {
        "type": "note_on",
        "time": 0,
        "note": 29,
        "velocity": 100,
        "channel": 5
      },
      {
        "type": "note_on",
        "time": 30,
        "note": 29,
        "velocity": 0,
        "channel": 5
      },
      {
        "type": "note_on",
        "time": 0,
        "note": 36,
        "velocity": 100,
        "channel": 5
      },
      {
        "type": "note_on",
        "time": 45,
        "note": 36,
        "velocity": 0,
        "channel": 5
      },
      {
        "type": "note_on",
        "time": 15,
        "note": 36,
        "velocity": 100,
        "channel": 5
      },
      {
        "type": "note_on",
        "time": 45,
        "note": 36,
        "velocity": 0,
        "channel": 5
      },
      {
        "type": "note_on",
        "time": 15,
        "note": 31,
        "velocity": 100,
        "channel": 5
      },
      {
        "type": "note_on",
        "time": 30,
        "note": 31,
        "velocity": 0,
        "channel": 5
      },
      {
        "type": "note_on",
        "time": 0,
        "note": 33,
        "velocity": 100,
        "channel": 5
      },
      {
        "type": "note_on",
        "time": 30,
        "note": 33,
        "velocity": 0,
        "channel": 5
      },
      {
        "type": "note_on",
        "time": 0,
        "note": 31,
        "velocity": 100,
        "channel": 5
      },
      {
        "type": "note_on",
        "time": 30,
        "note": 31,
        "velocity": 0,
        "channel": 5
      },
      {
        "type": "note_on",
        "time": 0,
        "note": 40,
        "velocity": 100,
        "channel": 5
      },
      {
        "type": "note_on",
        "time": 30,
        "note": 40,
        "velocity": 0,
        "channel": 5
      },
      {
        "type": "note_on",
        "time": 0,
        "note": 35,
        "velocity": 100,
        "channel": 5
      },
      {
        "type": "note_on",
        "time": 30,
        "note": 35,
        "velocity": 0,
        "channel": 5
      },
      {
        "type": "note_on",
        "time": 0,
        "note": 38,
        "velocity": 100,
        "channel": 5
      },
      {
        "type": "note_on",
        "time": 45,
        "note": 38,
        "velocity": 0,
        "channel": 5
      },
      {
        "type": "note_on",
        "time": 15,
        "note": 40,
        "velocity": 100,
        "channel": 5
      },
      {
        "type": "note_on",
        "time": 45,
        "note": 40,
        "velocity": 0,
        "channel": 5
      },
      {
        "type": "note_on",
        "time": 15,
        "note": 35,
        "velocity": 100,
        "channel": 5
      },
      {
        "type": "note_on",
        "time": 30,
        "note": 35,
        "velocity": 0,
        "channel": 5
      },
      {
        "type": "note_on",
        "time": 0,
        "note": 35,
        "velocity": 100,
        "channel": 5
      },
      {
        "type": "note_on",
        "time": 30,
        "note": 35,
        "velocity": 0,
        "channel": 5
      },
      {
        "type": "note_on",
        "time": 0,
        "note": 35,
        "velocity": 100,
        "channel": 5
      },
      {
        "type": "note_on",
        "time": 30,
        "note": 35,
        "velocity": 0,
        "channel": 5
      },
      {
        "type": "note_on",
        "time": 0,
        "note": 38,
        "velocity": 100,
        "channel": 5
      },
      {
        "type": "note_on",
        "time": 45,
        "note": 38,
        "velocity": 0,
        "channel": 5
      },
      {
        "type": "note_on",
        "time": 15,
        "note": 40,
        "velocity": 100,
        "channel": 5
      },
      {
        "type": "note_on",
        "time": 60,
        "note": 40,
        "velocity": 0,
        "channel": 5
      },
      {
        "type": "note_on",
        "time": 0,
        "note": 35,
        "velocity": 100,
        "channel": 5
      },
      {
        "type": "note_on",
        "time": 30,
        "note": 35,
        "velocity": 0,
        "channel": 5
      },
      {
        "type": "note_on",
        "time": 0,
        "note": 40,
        "velocity": 100,
        "channel": 5
      },
      {
        "type": "note_on",
        "time": 30,
        "note": 40,
        "velocity": 0,
        "channel": 5
      },
      {
        "type": "note_on",
        "time": 0,
        "note": 35,
        "velocity": 100,
        "channel": 5
      },
      {
        "type": "note_on",
        "time": 30,
        "note": 35,
        "velocity": 0,
        "channel": 5
      },
      {
        "type": "note_on",
        "time": 0,
        "note": 38,
        "velocity": 100,
        "channel": 5
      },
      {
        "type": "note_on",
        "time": 30,
        "note": 38,
        "velocity": 0,
        "channel": 5
      },
      {
        "type": "note_on",
        "time": 0,
        "note": 33,
        "velocity": 100,
        "channel": 5
      },
      {
        "type": "note_on",
        "time": 30,
        "note": 33,
        "velocity": 0,
        "channel": 5
      },
      {
        "type": "note_on",
        "time": 0,
        "note": 38,
        "velocity": 100,
        "channel": 5
      },
      {
        "type": "note_on",
        "time": 45,
        "note": 38,
        "velocity": 0,
        "channel": 5
      },
      {
        "type": "note_on",
        "time": 15,
        "note": 40,
        "velocity": 100,
        "channel": 5
      },
      {
        "type": "note_on",
        "time": 45,
        "note": 40,
        "velocity": 0,
        "channel": 5
      },
      {
        "type": "note_on",
        "time": 15,
        "note": 33,
        "velocity": 100,
        "channel": 5
      },
      {
        "type": "note_on",
        "time": 30,
        "note": 33,
        "velocity": 0,
        "channel": 5
      },
      {
        "type": "note_on",
        "time": 0,
        "note": 33,
        "velocity": 100,
        "channel": 5
      },
      {
        "type": "note_on",
        "time": 30,
        "note": 33,
        "velocity": 0,
        "channel": 5
      },
      {
        "type": "note_on",
        "time": 0,
        "note": 33,
        "velocity": 100,
        "channel": 5
      },
      {
        "type": "note_on",
        "time": 30,
        "note": 33,
        "velocity": 0,
        "channel": 5
      },
      {
        "type": "note_on",
        "time": 0,
        "note": 38,
        "velocity": 100,
        "channel": 5
      },
      {
        "type": "note_on",
        "time": 45,
        "note": 38,
        "velocity": 0,
        "channel": 5
      },
      {
        "type": "note_on",
        "time": 15,
        "note": 40,
        "velocity": 100,
        "channel": 5
      },
      {
        "type": "note_on",
        "time": 30,
        "note": 35,
        "velocity": 100,
        "channel": 5
      },
      {
        "type": "note_on",
        "time": 15,
        "note": 40,
        "velocity": 0,
        "channel": 5
      },
      {
        "type": "note_on",
        "time": 15,
        "note": 35,
        "velocity": 0,
        "channel": 5
      },
      {
        "type": "note_on",
        "time": 0,
        "note": 38,
        "velocity": 100,
        "channel": 5
      },
      {
        "type": "note_on",
        "time": 30,
        "note": 38,
        "velocity": 0,
        "channel": 5
      },
      {
        "type": "note_on",
        "time": 0,
        "note": 35,
        "velocity": 100,
        "channel": 5
      },
      {
        "type": "note_on",
        "time": 45,
        "note": 35,
        "velocity": 0,
        "channel": 5
      },
      {
        "type": "note_on",
        "time": 15,
        "note": 30,
        "velocity": 100,
        "channel": 5
      },
      {
        "type": "note_on",
        "time": 30,
        "note": 30,
        "velocity": 0,
        "channel": 5
      },
      {
        "type": "note_on",
        "time": 0,
        "note": 30,
        "velocity": 100,
        "channel": 5
      },
      {
        "type": "note_on",
        "time": 30,
        "note": 30,
        "velocity": 0,
        "channel": 5
      },
      {
        "type": "note_on",
        "time": 0,
        "note": 35,
        "velocity": 100,
        "channel": 5
      },
      {
        "type": "note_on",
        "time": 45,
        "note": 35,
        "velocity": 0,
        "channel": 5
      },
      {
        "type": "note_on",
        "time": 15,
        "note": 35,
        "velocity": 100,
        "channel": 5
      },
      {
        "type": "note_on",
        "time": 45,
        "note": 35,
        "velocity": 0,
        "channel": 5
      },
      {
        "type": "note_on",
        "time": 15,
        "note": 30,
        "velocity": 100,
        "channel": 5
      },
      {
        "type": "note_on",
        "time": 30,
        "note": 30,
        "velocity": 0,
        "channel": 5
      },
      {
        "type": "note_on",
        "time": 0,
        "note": 33,
        "velocity": 100,
        "channel": 5
      },
      {
        "type": "note_on",
        "time": 30,
        "note": 33,
        "velocity": 0,
        "channel": 5
      },
      {
        "type": "note_on",
        "time": 0,
        "note": 30,
        "velocity": 100,
        "channel": 5
      },
      {
        "type": "note_on",
        "time": 30,
        "note": 30,
        "velocity": 0,
        "channel": 5
      },
      {
        "type": "note_on",
        "time": 0,
        "note": 35,
        "velocity": 100,
        "channel": 5
      },
      {
        "type": "note_on",
        "time": 45,
        "note": 35,
        "velocity": 0,
        "channel": 5
      },
      {
        "type": "note_on",
        "time": 15,
        "note": 35,
        "velocity": 100,
        "channel": 5
      },
      {
        "type": "note_on",
        "time": 45,
        "note": 35,
        "velocity": 0,
        "channel": 5
      },
      {
        "type": "note_on",
        "time": 15,
        "note": 30,
        "velocity": 100,
        "channel": 5
      },
      {
        "type": "note_on",
        "time": 30,
        "note": 30,
        "velocity": 0,
        "channel": 5
      },
      {
        "type": "note_on",
        "time": 0,
        "note": 35,
        "velocity": 100,
        "channel": 5
      },
      {
        "type": "note_on",
        "time": 30,
        "note": 35,
        "velocity": 0,
        "channel": 5
      },
      {
        "type": "note_on",
        "time": 0,
        "note": 30,
        "velocity": 100,
        "channel": 5
      },
      {
        "type": "note_on",
        "time": 30,
        "note": 30,
        "velocity": 0,
        "channel": 5
      },
      {
        "type": "note_on",
        "time": 0,
        "note": 31,
        "velocity": 100,
        "channel": 5
      },
      {
        "type": "note_on",
        "time": 30,
        "note": 31,
        "velocity": 0,
        "channel": 5
      },
      {
        "type": "note_on",
        "time": 0,
        "note": 31,
        "velocity": 100,
        "channel": 5
      },
      {
        "type": "note_on",
        "time": 30,
        "note": 31,
        "velocity": 0,
        "channel": 5
      },
      {
        "type": "note_on",
        "time": 0,
        "note": 36,
        "velocity": 100,
        "channel": 5
      },
      {
        "type": "note_on",
        "time": 45,
        "note": 36,
        "velocity": 0,
        "channel": 5
      },
      {
        "type": "note_on",
        "time": 15,
        "note": 36,
        "velocity": 100,
        "channel": 5
      },
      {
        "type": "note_on",
        "time": 45,
        "note": 36,
        "velocity": 0,
        "channel": 5
      },
      {
        "type": "note_on",
        "time": 15,
        "note": 31,
        "velocity": 100,
        "channel": 5
      },
      {
        "type": "note_on",
        "time": 30,
        "note": 31,
        "velocity": 0,
        "channel": 5
      },
      {
        "type": "note_on",
        "time": 0,
        "note": 31,
        "velocity": 100,
        "channel": 5
      },
      {
        "type": "note_on",
        "time": 30,
        "note": 31,
        "velocity": 0,
        "channel": 5
      },
      {
        "type": "note_on",
        "time": 0,
        "note": 29,
        "velocity": 100,
        "channel": 5
      },
      {
        "type": "note_on",
        "time": 30,
        "note": 29,
        "velocity": 0,
        "channel": 5
      },
      {
        "type": "note_on",
        "time": 0,
        "note": 36,
        "velocity": 100,
        "channel": 5
      },
      {
        "type": "note_on",
        "time": 45,
        "note": 36,
        "velocity": 0,
        "channel": 5
      },
      {
        "type": "note_on",
        "time": 15,
        "note": 36,
        "velocity": 100,
        "channel": 5
      },
      {
        "type": "note_on",
        "time": 45,
        "note": 36,
        "velocity": 0,
        "channel": 5
      },
      {
        "type": "note_on",
        "time": 15,
        "note": 31,
        "velocity": 100,
        "channel": 5
      },
      {
        "type": "note_on",
        "time": 30,
        "note": 31,
        "velocity": 0,
        "channel": 5
      },
      {
        "type": "note_on",
        "time": 0,
        "note": 33,
        "velocity": 100,
        "channel": 5
      },
      {
        "type": "note_on",
        "time": 30,
        "note": 33,
        "velocity": 0,
        "channel": 5
      },
      {
        "type": "note_on",
        "time": 0,
        "note": 31,
        "velocity": 100,
        "channel": 5
      },
      {
        "type": "note_on",
        "time": 30,
        "note": 31,
        "velocity": 0,
        "channel": 5
      },
      {
        "type": "note_on",
        "time": 0,
        "note": 40,
        "velocity": 100,
        "channel": 5
      },
      {
        "type": "note_on",
        "time": 30,
        "note": 40,
        "velocity": 0,
        "channel": 5
      },
      {
        "type": "note_on",
        "time": 0,
        "note": 35,
        "velocity": 100,
        "channel": 5
      },
      {
        "type": "note_on",
        "time": 30,
        "note": 35,
        "velocity": 0,
        "channel": 5
      },
      {
        "type": "note_on",
        "time": 0,
        "note": 38,
        "velocity": 100,
        "channel": 5
      },
      {
        "type": "note_on",
        "time": 45,
        "note": 38,
        "velocity": 0,
        "channel": 5
      },
      {
        "type": "note_on",
        "time": 15,
        "note": 40,
        "velocity": 100,
        "channel": 5
      },
      {
        "type": "note_on",
        "time": 45,
        "note": 40,
        "velocity": 0,
        "channel": 5
      },
      {
        "type": "note_on",
        "time": 15,
        "note": 35,
        "velocity": 100,
        "channel": 5
      },
      {
        "type": "note_on",
        "time": 30,
        "note": 35,
        "velocity": 0,
        "channel": 5
      },
      {
        "type": "note_on",
        "time": 0,
        "note": 35,
        "velocity": 100,
        "channel": 5
      },
      {
        "type": "note_on",
        "time": 30,
        "note": 35,
        "velocity": 0,
        "channel": 5
      },
      {
        "type": "note_on",
        "time": 0,
        "note": 35,
        "velocity": 100,
        "channel": 5
      },
      {
        "type": "note_on",
        "time": 30,
        "note": 35,
        "velocity": 0,
        "channel": 5
      },
      {
        "type": "note_on",
        "time": 0,
        "note": 38,
        "velocity": 100,
        "channel": 5
      },
      {
        "type": "note_on",
        "time": 45,
        "note": 38,
        "velocity": 0,
        "channel": 5
      },
      {
        "type": "note_on",
        "time": 15,
        "note": 40,
        "velocity": 100,
        "channel": 5
      },
      {
        "type": "note_on",
        "time": 60,
        "note": 40,
        "velocity": 0,
        "channel": 5
      },
      {
        "type": "note_on",
        "time": 0,
        "note": 35,
        "velocity": 100,
        "channel": 5
      },
      {
        "type": "note_on",
        "time": 30,
        "note": 35,
        "velocity": 0,
        "channel": 5
      },
      {
        "type": "note_on",
        "time": 0,
        "note": 40,
        "velocity": 100,
        "channel": 5
      },
      {
        "type": "note_on",
        "time": 30,
        "note": 40,
        "velocity": 0,
        "channel": 5
      },
      {
        "type": "note_on",
        "time": 0,
        "note": 35,
        "velocity": 100,
        "channel": 5
      },
      {
        "type": "note_on",
        "time": 30,
        "note": 35,
        "velocity": 0,
        "channel": 5
      },
      {
        "type": "note_on",
        "time": 0,
        "note": 38,
        "velocity": 100,
        "channel": 5
      },
      {
        "type": "note_on",
        "time": 30,
        "note": 38,
        "velocity": 0,
        "channel": 5
      },
      {
        "type": "note_on",
        "time": 0,
        "note": 33,
        "velocity": 100,
        "channel": 5
      },
      {
        "type": "note_on",
        "time": 30,
        "note": 33,
        "velocity": 0,
        "channel": 5
      },
      {
        "type": "note_on",
        "time": 0,
        "note": 38,
        "velocity": 100,
        "channel": 5
      },
      {
        "type": "note_on",
        "time": 45,
        "note": 38,
        "velocity": 0,
        "channel": 5
      },
      {
        "type": "note_on",
        "time": 15,
        "note": 40,
        "velocity": 100,
        "channel": 5
      },
      {
        "type": "note_on",
        "time": 45,
        "note": 40,
        "velocity": 0,
        "channel": 5
      },
      {
        "type": "note_on",
        "time": 15,
        "note": 33,
        "velocity": 100,
        "channel": 5
      },
      {
        "type": "note_on",
        "time": 30,
        "note": 33,
        "velocity": 0,
        "channel": 5
      },
      {
        "type": "note_on",
        "time": 0,
        "note": 33,
        "velocity": 100,
        "channel": 5
      },
      {
        "type": "note_on",
        "time": 30,
        "note": 33,
        "velocity": 0,
        "channel": 5
      },
      {
        "type": "note_on",
        "time": 0,
        "note": 33,
        "velocity": 100,
        "channel": 5
      },
      {
        "type": "note_on",
        "time": 30,
        "note": 33,
        "velocity": 0,
        "channel": 5
      },
      {
        "type": "note_on",
        "time": 0,
        "note": 38,
        "velocity": 100,
        "channel": 5
      },
      {
        "type": "note_on",
        "time": 45,
        "note": 38,
        "velocity": 0,
        "channel": 5
      },
      {
        "type": "note_on",
        "time": 15,
        "note": 40,
        "velocity": 100,
        "channel": 5
      },
      {
        "type": "note_on",
        "time": 30,
        "note": 35,
        "velocity": 100,
        "channel": 5
      },
      {
        "type": "note_on",
        "time": 15,
        "note": 40,
        "velocity": 0,
        "channel": 5
      },
      {
        "type": "note_on",
        "time": 15,
        "note": 35,
        "velocity": 0,
        "channel": 5
      },
      {
        "type": "note_on",
        "time": 0,
        "note": 38,
        "velocity": 100,
        "channel": 5
      },
      {
        "type": "note_on",
        "time": 30,
        "note": 38,
        "velocity": 0,
        "channel": 5
      },
      {
        "type": "note_on",
        "time": 0,
        "note": 35,
        "velocity": 100,
        "channel": 5
      },
      {
        "type": "note_on",
        "time": 45,
        "note": 35,
        "velocity": 0,
        "channel": 5
      },
      {
        "type": "note_on",
        "time": 15,
        "note": 30,
        "velocity": 100,
        "channel": 5
      },
      {
        "type": "note_on",
        "time": 30,
        "note": 30,
        "velocity": 0,
        "channel": 5
      },
      {
        "type": "note_on",
        "time": 0,
        "note": 30,
        "velocity": 100,
        "channel": 5
      },
      {
        "type": "note_on",
        "time": 30,
        "note": 30,
        "velocity": 0,
        "channel": 5
      },
      {
        "type": "note_on",
        "time": 0,
        "note": 35,
        "velocity": 100,
        "channel": 5
      },
      {
        "type": "note_on",
        "time": 45,
        "note": 35,
        "velocity": 0,
        "channel": 5
      },
      {
        "type": "note_on",
        "time": 15,
        "note": 35,
        "velocity": 100,
        "channel": 5
      },
      {
        "type": "note_on",
        "time": 45,
        "note": 35,
        "velocity": 0,
        "channel": 5
      },
      {
        "type": "note_on",
        "time": 15,
        "note": 30,
        "velocity": 100,
        "channel": 5
      },
      {
        "type": "note_on",
        "time": 30,
        "note": 30,
        "velocity": 0,
        "channel": 5
      },
      {
        "type": "note_on",
        "time": 0,
        "note": 33,
        "velocity": 100,
        "channel": 5
      },
      {
        "type": "note_on",
        "time": 30,
        "note": 33,
        "velocity": 0,
        "channel": 5
      },
      {
        "type": "note_on",
        "time": 0,
        "note": 30,
        "velocity": 100,
        "channel": 5
      },
      {
        "type": "note_on",
        "time": 30,
        "note": 30,
        "velocity": 0,
        "channel": 5
      },
      {
        "type": "note_on",
        "time": 0,
        "note": 35,
        "velocity": 100,
        "channel": 5
      },
      {
        "type": "note_on",
        "time": 45,
        "note": 35,
        "velocity": 0,
        "channel": 5
      },
      {
        "type": "note_on",
        "time": 15,
        "note": 35,
        "velocity": 100,
        "channel": 5
      },
      {
        "type": "note_on",
        "time": 45,
        "note": 35,
        "velocity": 0,
        "channel": 5
      },
      {
        "type": "note_on",
        "time": 15,
        "note": 30,
        "velocity": 100,
        "channel": 5
      },
      {
        "type": "note_on",
        "time": 30,
        "note": 30,
        "velocity": 0,
        "channel": 5
      },
      {
        "type": "note_on",
        "time": 0,
        "note": 35,
        "velocity": 100,
        "channel": 5
      },
      {
        "type": "note_on",
        "time": 30,
        "note": 35,
        "velocity": 0,
        "channel": 5
      },
      {
        "type": "note_on",
        "time": 0,
        "note": 30,
        "velocity": 100,
        "channel": 5
      },
      {
        "type": "note_on",
        "time": 30,
        "note": 30,
        "velocity": 0,
        "channel": 5
      },
      {
        "type": "note_on",
        "time": 0,
        "note": 31,
        "velocity": 100,
        "channel": 5
      },
      {
        "type": "note_on",
        "time": 30,
        "note": 31,
        "velocity": 0,
        "channel": 5
      },
      {
        "type": "note_on",
        "time": 0,
        "note": 31,
        "velocity": 100,
        "channel": 5
      },
      {
        "type": "note_on",
        "time": 30,
        "note": 31,
        "velocity": 0,
        "channel": 5
      },
      {
        "type": "note_on",
        "time": 0,
        "note": 36,
        "velocity": 100,
        "channel": 5
      },
      {
        "type": "note_on",
        "time": 45,
        "note": 36,
        "velocity": 0,
        "channel": 5
      },
      {
        "type": "note_on",
        "time": 15,
        "note": 36,
        "velocity": 100,
        "channel": 5
      },
      {
        "type": "note_on",
        "time": 45,
        "note": 36,
        "velocity": 0,
        "channel": 5
      },
      {
        "type": "note_on",
        "time": 15,
        "note": 31,
        "velocity": 100,
        "channel": 5
      },
      {
        "type": "note_on",
        "time": 30,
        "note": 31,
        "velocity": 0,
        "channel": 5
      },
      {
        "type": "note_on",
        "time": 0,
        "note": 31,
        "velocity": 100,
        "channel": 5
      },
      {
        "type": "note_on",
        "time": 30,
        "note": 31,
        "velocity": 0,
        "channel": 5
      },
      {
        "type": "note_on",
        "time": 0,
        "note": 29,
        "velocity": 100,
        "channel": 5
      },
      {
        "type": "note_on",
        "time": 30,
        "note": 29,
        "velocity": 0,
        "channel": 5
      },
      {
        "type": "note_on",
        "time": 0,
        "note": 36,
        "velocity": 100,
        "channel": 5
      },
      {
        "type": "note_on",
        "time": 45,
        "note": 36,
        "velocity": 0,
        "channel": 5
      },
      {
        "type": "note_on",
        "time": 15,
        "note": 36,
        "velocity": 100,
        "channel": 5
      },
      {
        "type": "note_on",
        "time": 45,
        "note": 36,
        "velocity": 0,
        "channel": 5
      },
      {
        "type": "note_on",
        "time": 15,
        "note": 31,
        "velocity": 100,
        "channel": 5
      },
      {
        "type": "note_on",
        "time": 30,
        "note": 31,
        "velocity": 0,
        "channel": 5
      },
      {
        "type": "note_on",
        "time": 0,
        "note": 33,
        "velocity": 100,
        "channel": 5
      },
      {
        "type": "note_on",
        "time": 30,
        "note": 33,
        "velocity": 0,
        "channel": 5
      },
      {
        "type": "note_on",
        "time": 0,
        "note": 31,
        "velocity": 100,
        "channel": 5
      },
      {
        "type": "note_on",
        "time": 30,
        "note": 31,
        "velocity": 0,
        "channel": 5
      },
      {
        "type": "note_on",
        "time": 0,
        "note": 28,
        "velocity": 100,
        "channel": 5
      },
      {
        "type": "note_on",
        "time": 30,
        "note": 28,
        "velocity": 0,
        "channel": 5
      },
      {
        "type": "note_on",
        "time": 0,
        "note": 28,
        "velocity": 100,
        "channel": 5
      },
      {
        "type": "note_on",
        "time": 30,
        "note": 28,
        "velocity": 0,
        "channel": 5
      },
      {
        "type": "note_on",
        "time": 0,
        "note": 38,
        "velocity": 100,
        "channel": 5
      },
      {
        "type": "note_on",
        "time": 45,
        "note": 38,
        "velocity": 0,
        "channel": 5
      },
      {
        "type": "note_on",
        "time": 15,
        "note": 40,
        "velocity": 100,
        "channel": 5
      },
      {
        "type": "note_on",
        "time": 45,
        "note": 40,
        "velocity": 0,
        "channel": 5
      },
      {
        "type": "note_on",
        "time": 15,
        "note": 28,
        "velocity": 100,
        "channel": 5
      },
      {
        "type": "note_on",
        "time": 30,
        "note": 28,
        "velocity": 0,
        "channel": 5
      },
      {
        "type": "note_on",
        "time": 0,
        "note": 28,
        "velocity": 100,
        "channel": 5
      },
      {
        "type": "note_on",
        "time": 30,
        "note": 28,
        "velocity": 0,
        "channel": 5
      },
      {
        "type": "note_on",
        "time": 0,
        "note": 28,
        "velocity": 100,
        "channel": 5
      },
      {
        "type": "note_on",
        "time": 30,
        "note": 28,
        "velocity": 0,
        "channel": 5
      },
      {
        "type": "note_on",
        "time": 0,
        "note": 38,
        "velocity": 100,
        "channel": 5
      },
      {
        "type": "note_on",
        "time": 45,
        "note": 38,
        "velocity": 0,
        "channel": 5
      },
      {
        "type": "note_on",
        "time": 15,
        "note": 40,
        "velocity": 100,
        "channel": 5
      },
      {
        "type": "note_on",
        "time": 45,
        "note": 40,
        "velocity": 0,
        "channel": 5
      },
      {
        "type": "note_on",
        "time": 105,
        "note": 26,
        "velocity": 100,
        "channel": 5
      },
      {
        "type": "note_on",
        "time": 30,
        "note": 26,
        "velocity": 0,
        "channel": 5
      },
      {
        "type": "note_on",
        "time": 0,
        "note": 26,
        "velocity": 100,
        "channel": 5
      },
      {
        "type": "note_on",
        "time": 30,
        "note": 26,
        "velocity": 0,
        "channel": 5
      },
      {
        "type": "note_on",
        "time": 0,
        "note": 38,
        "velocity": 100,
        "channel": 5
      },
      {
        "type": "note_on",
        "time": 45,
        "note": 38,
        "velocity": 0,
        "channel": 5
      },
      {
        "type": "note_on",
        "time": 15,
        "note": 40,
        "velocity": 100,
        "channel": 5
      },
      {
        "type": "note_on",
        "time": 45,
        "note": 40,
        "velocity": 0,
        "channel": 5
      },
      {
        "type": "note_on",
        "time": 15,
        "note": 26,
        "velocity": 100,
        "channel": 5
      },
      {
        "type": "note_on",
        "time": 60,
        "note": 26,
        "velocity": 0,
        "channel": 5
      },
      {
        "type": "note_on",
        "time": 30,
        "note": 38,
        "velocity": 100,
        "channel": 5
      },
      {
        "type": "note_on",
        "time": 45,
        "note": 38,
        "velocity": 0,
        "channel": 5
      },
      {
        "type": "note_on",
        "time": 15,
        "note": 40,
        "velocity": 100,
        "channel": 5
      },
      {
        "type": "note_on",
        "time": 45,
        "note": 40,
        "velocity": 0,
        "channel": 5
      },
      {
        "type": "note_on",
        "time": 105,
        "note": 30,
        "velocity": 100,
        "channel": 5
      },
      {
        "type": "note_on",
        "time": 60,
        "note": 30,
        "velocity": 0,
        "channel": 5
      },
      {
        "type": "note_on",
        "time": 0,
        "note": 35,
        "velocity": 100,
        "channel": 5
      },
      {
        "type": "note_on",
        "time": 45,
        "note": 35,
        "velocity": 0,
        "channel": 5
      },
      {
        "type": "note_on",
        "time": 15,
        "note": 35,
        "velocity": 100,
        "channel": 5
      },
      {
        "type": "note_on",
        "time": 45,
        "note": 35,
        "velocity": 0,
        "channel": 5
      },
      {
        "type": "note_on",
        "time": 15,
        "note": 30,
        "velocity": 100,
        "channel": 5
      },
      {
        "type": "note_on",
        "time": 60,
        "note": 30,
        "velocity": 0,
        "channel": 5
      },
      {
        "type": "note_on",
        "time": 30,
        "note": 35,
        "velocity": 100,
        "channel": 5
      },
      {
        "type": "note_on",
        "time": 45,
        "note": 35,
        "velocity": 0,
        "channel": 5
      },
      {
        "type": "note_on",
        "time": 15,
        "note": 35,
        "velocity": 100,
        "channel": 5
      },
      {
        "type": "note_on",
        "time": 45,
        "note": 35,
        "velocity": 0,
        "channel": 5
      },
      {
        "type": "note_on",
        "time": 15,
        "note": 30,
        "velocity": 100,
        "channel": 5
      },
      {
        "type": "note_on",
        "time": 30,
        "note": 30,
        "velocity": 0,
        "channel": 5
      },
      {
        "type": "note_on",
        "time": 0,
        "note": 30,
        "velocity": 100,
        "channel": 5
      },
      {
        "type": "note_on",
        "time": 30,
        "note": 30,
        "velocity": 0,
        "channel": 5
      },
      {
        "type": "note_on",
        "time": 0,
        "note": 30,
        "velocity": 100,
        "channel": 5
      },
      {
        "type": "note_on",
        "time": 30,
        "note": 30,
        "velocity": 0,
        "channel": 5
      },
      {
        "type": "note_on",
        "time": 0,
        "note": 31,
        "velocity": 100,
        "channel": 5
      },
      {
        "type": "note_on",
        "time": 60,
        "note": 31,
        "velocity": 0,
        "channel": 5
      },
      {
        "type": "note_on",
        "time": 0,
        "note": 36,
        "velocity": 100,
        "channel": 5
      },
      {
        "type": "note_on",
        "time": 45,
        "note": 36,
        "velocity": 0,
        "channel": 5
      },
      {
        "type": "note_on",
        "time": 15,
        "note": 36,
        "velocity": 100,
        "channel": 5
      },
      {
        "type": "note_on",
        "time": 45,
        "note": 36,
        "velocity": 0,
        "channel": 5
      },
      {
        "type": "note_on",
        "time": 15,
        "note": 31,
        "velocity": 100,
        "channel": 5
      },
      {
        "type": "note_on",
        "time": 60,
        "note": 31,
        "velocity": 0,
        "channel": 5
      },
      {
        "type": "note_on",
        "time": 30,
        "note": 36,
        "velocity": 100,
        "channel": 5
      },
      {
        "type": "note_on",
        "time": 45,
        "note": 36,
        "velocity": 0,
        "channel": 5
      },
      {
        "type": "note_on",
        "time": 15,
        "note": 36,
        "velocity": 100,
        "channel": 5
      },
      {
        "type": "note_on",
        "time": 45,
        "note": 36,
        "velocity": 0,
        "channel": 5
      },
      {
        "type": "note_on",
        "time": 15,
        "note": 31,
        "velocity": 100,
        "channel": 5
      },
      {
        "type": "note_on",
        "time": 30,
        "note": 31,
        "velocity": 0,
        "channel": 5
      },
      {
        "type": "note_on",
        "time": 0,
        "note": 31,
        "velocity": 100,
        "channel": 5
      },
      {
        "type": "note_on",
        "time": 30,
        "note": 31,
        "velocity": 0,
        "channel": 5
      },
      {
        "type": "note_on",
        "time": 0,
        "note": 31,
        "velocity": 100,
        "channel": 5
      },
      {
        "type": "note_on",
        "time": 30,
        "note": 31,
        "velocity": 0,
        "channel": 5
      },
      {
        "type": "note_on",
        "time": 0,
        "note": 28,
        "velocity": 100,
        "channel": 5
      },
      {
        "type": "note_on",
        "time": 30,
        "note": 28,
        "velocity": 0,
        "channel": 5
      },
      {
        "type": "note_on",
        "time": 0,
        "note": 28,
        "velocity": 100,
        "channel": 5
      },
      {
        "type": "note_on",
        "time": 30,
        "note": 28,
        "velocity": 0,
        "channel": 5
      },
      {
        "type": "note_on",
        "time": 0,
        "note": 38,
        "velocity": 100,
        "channel": 5
      },
      {
        "type": "note_on",
        "time": 45,
        "note": 38,
        "velocity": 0,
        "channel": 5
      },
      {
        "type": "note_on",
        "time": 15,
        "note": 40,
        "velocity": 100,
        "channel": 5
      },
      {
        "type": "note_on",
        "time": 45,
        "note": 40,
        "velocity": 0,
        "channel": 5
      },
      {
        "type": "note_on",
        "time": 15,
        "note": 28,
        "velocity": 100,
        "channel": 5
      },
      {
        "type": "note_on",
        "time": 30,
        "note": 28,
        "velocity": 0,
        "channel": 5
      },
      {
        "type": "note_on",
        "time": 0,
        "note": 28,
        "velocity": 100,
        "channel": 5
      },
      {
        "type": "note_on",
        "time": 30,
        "note": 28,
        "velocity": 0,
        "channel": 5
      },
      {
        "type": "note_on",
        "time": 0,
        "note": 28,
        "velocity": 100,
        "channel": 5
      },
      {
        "type": "note_on",
        "time": 30,
        "note": 28,
        "velocity": 0,
        "channel": 5
      },
      {
        "type": "note_on",
        "time": 0,
        "note": 38,
        "velocity": 100,
        "channel": 5
      },
      {
        "type": "note_on",
        "time": 45,
        "note": 38,
        "velocity": 0,
        "channel": 5
      },
      {
        "type": "note_on",
        "time": 15,
        "note": 40,
        "velocity": 100,
        "channel": 5
      },
      {
        "type": "note_on",
        "time": 45,
        "note": 40,
        "velocity": 0,
        "channel": 5
      },
      {
        "type": "note_on",
        "time": 105,
        "note": 26,
        "velocity": 100,
        "channel": 5
      },
      {
        "type": "note_on",
        "time": 30,
        "note": 26,
        "velocity": 0,
        "channel": 5
      },
      {
        "type": "note_on",
        "time": 0,
        "note": 26,
        "velocity": 100,
        "channel": 5
      },
      {
        "type": "note_on",
        "time": 30,
        "note": 26,
        "velocity": 0,
        "channel": 5
      },
      {
        "type": "note_on",
        "time": 0,
        "note": 38,
        "velocity": 100,
        "channel": 5
      },
      {
        "type": "note_on",
        "time": 45,
        "note": 38,
        "velocity": 0,
        "channel": 5
      },
      {
        "type": "note_on",
        "time": 15,
        "note": 40,
        "velocity": 100,
        "channel": 5
      },
      {
        "type": "note_on",
        "time": 45,
        "note": 40,
        "velocity": 0,
        "channel": 5
      },
      {
        "type": "note_on",
        "time": 15,
        "note": 26,
        "velocity": 100,
        "channel": 5
      },
      {
        "type": "note_on",
        "time": 60,
        "note": 26,
        "velocity": 0,
        "channel": 5
      },
      {
        "type": "note_on",
        "time": 30,
        "note": 38,
        "velocity": 100,
        "channel": 5
      },
      {
        "type": "note_on",
        "time": 45,
        "note": 38,
        "velocity": 0,
        "channel": 5
      },
      {
        "type": "note_on",
        "time": 15,
        "note": 40,
        "velocity": 100,
        "channel": 5
      },
      {
        "type": "note_on",
        "time": 45,
        "note": 40,
        "velocity": 0,
        "channel": 5
      },
      {
        "type": "note_on",
        "time": 105,
        "note": 30,
        "velocity": 100,
        "channel": 5
      },
      {
        "type": "note_on",
        "time": 60,
        "note": 30,
        "velocity": 0,
        "channel": 5
      },
      {
        "type": "note_on",
        "time": 0,
        "note": 35,
        "velocity": 100,
        "channel": 5
      },
      {
        "type": "note_on",
        "time": 45,
        "note": 35,
        "velocity": 0,
        "channel": 5
      },
      {
        "type": "note_on",
        "time": 15,
        "note": 35,
        "velocity": 100,
        "channel": 5
      },
      {
        "type": "note_on",
        "time": 45,
        "note": 35,
        "velocity": 0,
        "channel": 5
      },
      {
        "type": "note_on",
        "time": 15,
        "note": 30,
        "velocity": 100,
        "channel": 5
      },
      {
        "type": "note_on",
        "time": 60,
        "note": 30,
        "velocity": 0,
        "channel": 5
      },
      {
        "type": "note_on",
        "time": 30,
        "note": 35,
        "velocity": 100,
        "channel": 5
      },
      {
        "type": "note_on",
        "time": 45,
        "note": 35,
        "velocity": 0,
        "channel": 5
      },
      {
        "type": "note_on",
        "time": 15,
        "note": 35,
        "velocity": 100,
        "channel": 5
      },
      {
        "type": "note_on",
        "time": 45,
        "note": 35,
        "velocity": 0,
        "channel": 5
      },
      {
        "type": "note_on",
        "time": 15,
        "note": 30,
        "velocity": 100,
        "channel": 5
      },
      {
        "type": "note_on",
        "time": 30,
        "note": 30,
        "velocity": 0,
        "channel": 5
      },
      {
        "type": "note_on",
        "time": 0,
        "note": 30,
        "velocity": 100,
        "channel": 5
      },
      {
        "type": "note_on",
        "time": 30,
        "note": 30,
        "velocity": 0,
        "channel": 5
      },
      {
        "type": "note_on",
        "time": 0,
        "note": 30,
        "velocity": 100,
        "channel": 5
      },
      {
        "type": "note_on",
        "time": 30,
        "note": 30,
        "velocity": 0,
        "channel": 5
      },
      {
        "type": "note_on",
        "time": 0,
        "note": 31,
        "velocity": 100,
        "channel": 5
      },
      {
        "type": "note_on",
        "time": 60,
        "note": 31,
        "velocity": 0,
        "channel": 5
      },
      {
        "type": "note_on",
        "time": 0,
        "note": 36,
        "velocity": 100,
        "channel": 5
      },
      {
        "type": "note_on",
        "time": 45,
        "note": 36,
        "velocity": 0,
        "channel": 5
      },
      {
        "type": "note_on",
        "time": 15,
        "note": 36,
        "velocity": 100,
        "channel": 5
      },
      {
        "type": "note_on",
        "time": 45,
        "note": 36,
        "velocity": 0,
        "channel": 5
      },
      {
        "type": "note_on",
        "time": 15,
        "note": 31,
        "velocity": 100,
        "channel": 5
      },
      {
        "type": "note_on",
        "time": 60,
        "note": 31,
        "velocity": 0,
        "channel": 5
      },
      {
        "type": "note_on",
        "time": 30,
        "note": 36,
        "velocity": 100,
        "channel": 5
      },
      {
        "type": "note_on",
        "time": 45,
        "note": 36,
        "velocity": 0,
        "channel": 5
      },
      {
        "type": "note_on",
        "time": 15,
        "note": 36,
        "velocity": 100,
        "channel": 5
      },
      {
        "type": "note_on",
        "time": 45,
        "note": 36,
        "velocity": 0,
        "channel": 5
      },
      {
        "type": "end_of_track",
        "time": 0
      }
    ],
    [
      {
        "type": "midi_port",
        "port": 0,
        "time": 0
      },
      {
        "type": "program_change",
        "time": 0,
        "program": 36,
        "channel": 6
      },
      {
        "type": "note_on",
        "time": 8160,
        "note": 40,
        "velocity": 100,
        "channel": 6
      },
      {
        "type": "note_on",
        "time": 30,
        "note": 40,
        "velocity": 0,
        "channel": 6
      },
      {
        "type": "note_on",
        "time": 0,
        "note": 40,
        "velocity": 100,
        "channel": 6
      },
      {
        "type": "note_on",
        "time": 30,
        "note": 40,
        "velocity": 0,
        "channel": 6
      },
      {
        "type": "note_on",
        "time": 0,
        "note": 50,
        "velocity": 100,
        "channel": 6
      },
      {
        "type": "note_on",
        "time": 45,
        "note": 50,
        "velocity": 0,
        "channel": 6
      },
      {
        "type": "note_on",
        "time": 15,
        "note": 52,
        "velocity": 100,
        "channel": 6
      },
      {
        "type": "note_on",
        "time": 45,
        "note": 52,
        "velocity": 0,
        "channel": 6
      },
      {
        "type": "note_on",
        "time": 15,
        "note": 40,
        "velocity": 100,
        "channel": 6
      },
      {
        "type": "note_on",
        "time": 30,
        "note": 40,
        "velocity": 0,
        "channel": 6
      },
      {
        "type": "note_on",
        "time": 0,
        "note": 40,
        "velocity": 100,
        "channel": 6
      },
      {
        "type": "note_on",
        "time": 30,
        "note": 40,
        "velocity": 0,
        "channel": 6
      },
      {
        "type": "note_on",
        "time": 0,
        "note": 40,
        "velocity": 100,
        "channel": 6
      },
      {
        "type": "note_on",
        "time": 30,
        "note": 40,
        "velocity": 0,
        "channel": 6
      },
      {
        "type": "note_on",
        "time": 0,
        "note": 50,
        "velocity": 100,
        "channel": 6
      },
      {
        "type": "note_on",
        "time": 45,
        "note": 50,
        "velocity": 0,
        "channel": 6
      },
      {
        "type": "note_on",
        "time": 15,
        "note": 52,
        "velocity": 100,
        "channel": 6
      },
      {
        "type": "note_on",
        "time": 45,
        "note": 52,
        "velocity": 0,
        "channel": 6
      },
      {
        "type": "note_on",
        "time": 105,
        "note": 38,
        "velocity": 100,
        "channel": 6
      },
      {
        "type": "note_on",
        "time": 30,
        "note": 38,
        "velocity": 0,
        "channel": 6
      },
      {
        "type": "note_on",
        "time": 0,
        "note": 38,
        "velocity": 100,
        "channel": 6
      },
      {
        "type": "note_on",
        "time": 30,
        "note": 38,
        "velocity": 0,
        "channel": 6
      },
      {
        "type": "note_on",
        "time": 0,
        "note": 50,
        "velocity": 100,
        "channel": 6
      },
      {
        "type": "note_on",
        "time": 45,
        "note": 50,
        "velocity": 0,
        "channel": 6
      },
      {
        "type": "note_on",
        "time": 15,
        "note": 52,
        "velocity": 100,
        "channel": 6
      },
      {
        "type": "note_on",
        "time": 45,
        "note": 52,
        "velocity": 0,
        "channel": 6
      },
      {
        "type": "note_on",
        "time": 15,
        "note": 38,
        "velocity": 100,
        "channel": 6
      },
      {
        "type": "note_on",
        "time": 60,
        "note": 38,
        "velocity": 0,
        "channel": 6
      },
      {
        "type": "note_on",
        "time": 30,
        "note": 50,
        "velocity": 100,
        "channel": 6
      },
      {
        "type": "note_on",
        "time": 45,
        "note": 50,
        "velocity": 0,
        "channel": 6
      },
      {
        "type": "note_on",
        "time": 15,
        "note": 52,
        "velocity": 100,
        "channel": 6
      },
      {
        "type": "note_on",
        "time": 45,
        "note": 52,
        "velocity": 0,
        "channel": 6
      },
      {
        "type": "note_on",
        "time": 105,
        "note": 42,
        "velocity": 100,
        "channel": 6
      },
      {
        "type": "note_on",
        "time": 60,
        "note": 42,
        "velocity": 0,
        "channel": 6
      },
      {
        "type": "note_on",
        "time": 0,
        "note": 47,
        "velocity": 100,
        "channel": 6
      },
      {
        "type": "note_on",
        "time": 45,
        "note": 47,
        "velocity": 0,
        "channel": 6
      },
      {
        "type": "note_on",
        "time": 15,
        "note": 47,
        "velocity": 100,
        "channel": 6
      },
      {
        "type": "note_on",
        "time": 45,
        "note": 47,
        "velocity": 0,
        "channel": 6
      },
      {
        "type": "note_on",
        "time": 15,
        "note": 42,
        "velocity": 100,
        "channel": 6
      },
      {
        "type": "note_on",
        "time": 60,
        "note": 42,
        "velocity": 0,
        "channel": 6
      },
      {
        "type": "note_on",
        "time": 30,
        "note": 47,
        "velocity": 100,
        "channel": 6
      },
      {
        "type": "note_on",
        "time": 45,
        "note": 47,
        "velocity": 0,
        "channel": 6
      },
      {
        "type": "note_on",
        "time": 15,
        "note": 47,
        "velocity": 100,
        "channel": 6
      },
      {
        "type": "note_on",
        "time": 45,
        "note": 47,
        "velocity": 0,
        "channel": 6
      },
      {
        "type": "note_on",
        "time": 15,
        "note": 42,
        "velocity": 100,
        "channel": 6
      },
      {
        "type": "note_on",
        "time": 30,
        "note": 42,
        "velocity": 0,
        "channel": 6
      },
      {
        "type": "note_on",
        "time": 0,
        "note": 42,
        "velocity": 100,
        "channel": 6
      },
      {
        "type": "note_on",
        "time": 30,
        "note": 42,
        "velocity": 0,
        "channel": 6
      },
      {
        "type": "note_on",
        "time": 0,
        "note": 42,
        "velocity": 100,
        "channel": 6
      },
      {
        "type": "note_on",
        "time": 30,
        "note": 42,
        "velocity": 0,
        "channel": 6
      },
      {
        "type": "note_on",
        "time": 0,
        "note": 43,
        "velocity": 100,
        "channel": 6
      },
      {
        "type": "note_on",
        "time": 60,
        "note": 43,
        "velocity": 0,
        "channel": 6
      },
      {
        "type": "note_on",
        "time": 0,
        "note": 48,
        "velocity": 100,
        "channel": 6
      },
      {
        "type": "note_on",
        "time": 45,
        "note": 48,
        "velocity": 0,
        "channel": 6
      },
      {
        "type": "note_on",
        "time": 15,
        "note": 48,
        "velocity": 100,
        "channel": 6
      },
      {
        "type": "note_on",
        "time": 45,
        "note": 48,
        "velocity": 0,
        "channel": 6
      },
      {
        "type": "note_on",
        "time": 15,
        "note": 43,
        "velocity": 100,
        "channel": 6
      },
      {
        "type": "note_on",
        "time": 60,
        "note": 43,
        "velocity": 0,
        "channel": 6
      },
      {
        "type": "note_on",
        "time": 30,
        "note": 48,
        "velocity": 100,
        "channel": 6
      },
      {
        "type": "note_on",
        "time": 45,
        "note": 48,
        "velocity": 0,
        "channel": 6
      },
      {
        "type": "note_on",
        "time": 15,
        "note": 48,
        "velocity": 100,
        "channel": 6
      },
      {
        "type": "note_on",
        "time": 45,
        "note": 48,
        "velocity": 0,
        "channel": 6
      },
      {
        "type": "note_on",
        "time": 15,
        "note": 43,
        "velocity": 100,
        "channel": 6
      },
      {
        "type": "note_on",
        "time": 30,
        "note": 43,
        "velocity": 0,
        "channel": 6
      },
      {
        "type": "note_on",
        "time": 0,
        "note": 43,
        "velocity": 100,
        "channel": 6
      },
      {
        "type": "note_on",
        "time": 30,
        "note": 43,
        "velocity": 0,
        "channel": 6
      },
      {
        "type": "note_on",
        "time": 0,
        "note": 43,
        "velocity": 100,
        "channel": 6
      },
      {
        "type": "note_on",
        "time": 30,
        "note": 43,
        "velocity": 0,
        "channel": 6
      },
      {
        "type": "note_on",
        "time": 0,
        "note": 40,
        "velocity": 100,
        "channel": 6
      },
      {
        "type": "note_on",
        "time": 30,
        "note": 40,
        "velocity": 0,
        "channel": 6
      },
      {
        "type": "note_on",
        "time": 0,
        "note": 40,
        "velocity": 100,
        "channel": 6
      },
      {
        "type": "note_on",
        "time": 30,
        "note": 40,
        "velocity": 0,
        "channel": 6
      },
      {
        "type": "note_on",
        "time": 0,
        "note": 50,
        "velocity": 100,
        "channel": 6
      },
      {
        "type": "note_on",
        "time": 45,
        "note": 50,
        "velocity": 0,
        "channel": 6
      },
      {
        "type": "note_on",
        "time": 15,
        "note": 52,
        "velocity": 100,
        "channel": 6
      },
      {
        "type": "note_on",
        "time": 45,
        "note": 52,
        "velocity": 0,
        "channel": 6
      },
      {
        "type": "note_on",
        "time": 15,
        "note": 40,
        "velocity": 100,
        "channel": 6
      },
      {
        "type": "note_on",
        "time": 30,
        "note": 40,
        "velocity": 0,
        "channel": 6
      },
      {
        "type": "note_on",
        "time": 0,
        "note": 40,
        "velocity": 100,
        "channel": 6
      },
      {
        "type": "note_on",
        "time": 30,
        "note": 40,
        "velocity": 0,
        "channel": 6
      },
      {
        "type": "note_on",
        "time": 0,
        "note": 40,
        "velocity": 100,
        "channel": 6
      },
      {
        "type": "note_on",
        "time": 30,
        "note": 40,
        "velocity": 0,
        "channel": 6
      },
      {
        "type": "note_on",
        "time": 0,
        "note": 50,
        "velocity": 100,
        "channel": 6
      },
      {
        "type": "note_on",
        "time": 45,
        "note": 50,
        "velocity": 0,
        "channel": 6
      },
      {
        "type": "note_on",
        "time": 15,
        "note": 52,
        "velocity": 100,
        "channel": 6
      },
      {
        "type": "note_on",
        "time": 45,
        "note": 52,
        "velocity": 0,
        "channel": 6
      },
      {
        "type": "note_on",
        "time": 105,
        "note": 38,
        "velocity": 100,
        "channel": 6
      },
      {
        "type": "note_on",
        "time": 30,
        "note": 38,
        "velocity": 0,
        "channel": 6
      },
      {
        "type": "note_on",
        "time": 0,
        "note": 38,
        "velocity": 100,
        "channel": 6
      },
      {
        "type": "note_on",
        "time": 30,
        "note": 38,
        "velocity": 0,
        "channel": 6
      },
      {
        "type": "note_on",
        "time": 0,
        "note": 50,
        "velocity": 100,
        "channel": 6
      },
      {
        "type": "note_on",
        "time": 45,
        "note": 50,
        "velocity": 0,
        "channel": 6
      },
      {
        "type": "note_on",
        "time": 15,
        "note": 52,
        "velocity": 100,
        "channel": 6
      },
      {
        "type": "note_on",
        "time": 45,
        "note": 52,
        "velocity": 0,
        "channel": 6
      },
      {
        "type": "note_on",
        "time": 15,
        "note": 38,
        "velocity": 100,
        "channel": 6
      },
      {
        "type": "note_on",
        "time": 60,
        "note": 38,
        "velocity": 0,
        "channel": 6
      },
      {
        "type": "note_on",
        "time": 30,
        "note": 50,
        "velocity": 100,
        "channel": 6
      },
      {
        "type": "note_on",
        "time": 45,
        "note": 50,
        "velocity": 0,
        "channel": 6
      },
      {
        "type": "note_on",
        "time": 15,
        "note": 52,
        "velocity": 100,
        "channel": 6
      },
      {
        "type": "note_on",
        "time": 45,
        "note": 52,
        "velocity": 0,
        "channel": 6
      },
      {
        "type": "note_on",
        "time": 105,
        "note": 42,
        "velocity": 100,
        "channel": 6
      },
      {
        "type": "note_on",
        "time": 60,
        "note": 42,
        "velocity": 0,
        "channel": 6
      },
      {
        "type": "note_on",
        "time": 0,
        "note": 47,
        "velocity": 100,
        "channel": 6
      },
      {
        "type": "note_on",
        "time": 45,
        "note": 47,
        "velocity": 0,
        "channel": 6
      },
      {
        "type": "note_on",
        "time": 15,
        "note": 47,
        "velocity": 100,
        "channel": 6
      },
      {
        "type": "note_on",
        "time": 45,
        "note": 47,
        "velocity": 0,
        "channel": 6
      },
      {
        "type": "note_on",
        "time": 15,
        "note": 42,
        "velocity": 100,
        "channel": 6
      },
      {
        "type": "note_on",
        "time": 60,
        "note": 42,
        "velocity": 0,
        "channel": 6
      },
      {
        "type": "note_on",
        "time": 30,
        "note": 47,
        "velocity": 100,
        "channel": 6
      },
      {
        "type": "note_on",
        "time": 45,
        "note": 47,
        "velocity": 0,
        "channel": 6
      },
      {
        "type": "note_on",
        "time": 15,
        "note": 47,
        "velocity": 100,
        "channel": 6
      },
      {
        "type": "note_on",
        "time": 45,
        "note": 47,
        "velocity": 0,
        "channel": 6
      },
      {
        "type": "note_on",
        "time": 15,
        "note": 42,
        "velocity": 100,
        "channel": 6
      },
      {
        "type": "note_on",
        "time": 30,
        "note": 42,
        "velocity": 0,
        "channel": 6
      },
      {
        "type": "note_on",
        "time": 0,
        "note": 42,
        "velocity": 100,
        "channel": 6
      },
      {
        "type": "note_on",
        "time": 30,
        "note": 42,
        "velocity": 0,
        "channel": 6
      },
      {
        "type": "note_on",
        "time": 0,
        "note": 42,
        "velocity": 100,
        "channel": 6
      },
      {
        "type": "note_on",
        "time": 30,
        "note": 42,
        "velocity": 0,
        "channel": 6
      },
      {
        "type": "note_on",
        "time": 0,
        "note": 43,
        "velocity": 100,
        "channel": 6
      },
      {
        "type": "note_on",
        "time": 60,
        "note": 43,
        "velocity": 0,
        "channel": 6
      },
      {
        "type": "note_on",
        "time": 0,
        "note": 48,
        "velocity": 100,
        "channel": 6
      },
      {
        "type": "note_on",
        "time": 45,
        "note": 48,
        "velocity": 0,
        "channel": 6
      },
      {
        "type": "note_on",
        "time": 15,
        "note": 48,
        "velocity": 100,
        "channel": 6
      },
      {
        "type": "note_on",
        "time": 45,
        "note": 48,
        "velocity": 0,
        "channel": 6
      },
      {
        "type": "note_on",
        "time": 15,
        "note": 43,
        "velocity": 100,
        "channel": 6
      },
      {
        "type": "note_on",
        "time": 60,
        "note": 43,
        "velocity": 0,
        "channel": 6
      },
      {
        "type": "note_on",
        "time": 30,
        "note": 48,
        "velocity": 100,
        "channel": 6
      },
      {
        "type": "note_on",
        "time": 45,
        "note": 48,
        "velocity": 0,
        "channel": 6
      },
      {
        "type": "note_on",
        "time": 15,
        "note": 48,
        "velocity": 100,
        "channel": 6
      },
      {
        "type": "note_on",
        "time": 45,
        "note": 48,
        "velocity": 0,
        "channel": 6
      },
      {
        "type": "note_on",
        "time": 15,
        "note": 43,
        "velocity": 100,
        "channel": 6
      },
      {
        "type": "note_on",
        "time": 30,
        "note": 43,
        "velocity": 0,
        "channel": 6
      },
      {
        "type": "note_on",
        "time": 0,
        "note": 43,
        "velocity": 100,
        "channel": 6
      },
      {
        "type": "note_on",
        "time": 30,
        "note": 43,
        "velocity": 0,
        "channel": 6
      },
      {
        "type": "note_on",
        "time": 0,
        "note": 43,
        "velocity": 100,
        "channel": 6
      },
      {
        "type": "note_on",
        "time": 30,
        "note": 43,
        "velocity": 0,
        "channel": 6
      },
      {
        "type": "note_on",
        "time": 0,
        "note": 40,
        "velocity": 100,
        "channel": 6
      },
      {
        "type": "note_on",
        "time": 30,
        "note": 40,
        "velocity": 0,
        "channel": 6
      },
      {
        "type": "note_on",
        "time": 0,
        "note": 40,
        "velocity": 100,
        "channel": 6
      },
      {
        "type": "note_on",
        "time": 30,
        "note": 40,
        "velocity": 0,
        "channel": 6
      },
      {
        "type": "note_on",
        "time": 0,
        "note": 50,
        "velocity": 100,
        "channel": 6
      },
      {
        "type": "note_on",
        "time": 45,
        "note": 50,
        "velocity": 0,
        "channel": 6
      },
      {
        "type": "note_on",
        "time": 15,
        "note": 52,
        "velocity": 100,
        "channel": 6
      },
      {
        "type": "note_on",
        "time": 45,
        "note": 52,
        "velocity": 0,
        "channel": 6
      },
      {
        "type": "note_on",
        "time": 15,
        "note": 40,
        "velocity": 100,
        "channel": 6
      },
      {
        "type": "note_on",
        "time": 30,
        "note": 40,
        "velocity": 0,
        "channel": 6
      },
      {
        "type": "note_on",
        "time": 0,
        "note": 40,
        "velocity": 100,
        "channel": 6
      },
      {
        "type": "note_on",
        "time": 30,
        "note": 40,
        "velocity": 0,
        "channel": 6
      },
      {
        "type": "note_on",
        "time": 0,
        "note": 40,
        "velocity": 100,
        "channel": 6
      },
      {
        "type": "note_on",
        "time": 30,
        "note": 40,
        "velocity": 0,
        "channel": 6
      },
      {
        "type": "note_on",
        "time": 0,
        "note": 50,
        "velocity": 100,
        "channel": 6
      },
      {
        "type": "note_on",
        "time": 45,
        "note": 50,
        "velocity": 0,
        "channel": 6
      },
      {
        "type": "note_on",
        "time": 15,
        "note": 52,
        "velocity": 100,
        "channel": 6
      },
      {
        "type": "note_on",
        "time": 45,
        "note": 52,
        "velocity": 0,
        "channel": 6
      },
      {
        "type": "note_on",
        "time": 105,
        "note": 38,
        "velocity": 100,
        "channel": 6
      },
      {
        "type": "note_on",
        "time": 30,
        "note": 38,
        "velocity": 0,
        "channel": 6
      },
      {
        "type": "note_on",
        "time": 0,
        "note": 38,
        "velocity": 100,
        "channel": 6
      },
      {
        "type": "note_on",
        "time": 30,
        "note": 38,
        "velocity": 0,
        "channel": 6
      },
      {
        "type": "note_on",
        "time": 0,
        "note": 50,
        "velocity": 100,
        "channel": 6
      },
      {
        "type": "note_on",
        "time": 45,
        "note": 50,
        "velocity": 0,
        "channel": 6
      },
      {
        "type": "note_on",
        "time": 15,
        "note": 52,
        "velocity": 100,
        "channel": 6
      },
      {
        "type": "note_on",
        "time": 45,
        "note": 52,
        "velocity": 0,
        "channel": 6
      },
      {
        "type": "note_on",
        "time": 15,
        "note": 38,
        "velocity": 100,
        "channel": 6
      },
      {
        "type": "note_on",
        "time": 60,
        "note": 38,
        "velocity": 0,
        "channel": 6
      },
      {
        "type": "note_on",
        "time": 30,
        "note": 50,
        "velocity": 100,
        "channel": 6
      },
      {
        "type": "note_on",
        "time": 45,
        "note": 50,
        "velocity": 0,
        "channel": 6
      },
      {
        "type": "note_on",
        "time": 15,
        "note": 52,
        "velocity": 100,
        "channel": 6
      },
      {
        "type": "note_on",
        "time": 45,
        "note": 52,
        "velocity": 0,
        "channel": 6
      },
      {
        "type": "note_on",
        "time": 105,
        "note": 42,
        "velocity": 100,
        "channel": 6
      },
      {
        "type": "note_on",
        "time": 60,
        "note": 42,
        "velocity": 0,
        "channel": 6
      },
      {
        "type": "note_on",
        "time": 0,
        "note": 47,
        "velocity": 100,
        "channel": 6
      },
      {
        "type": "note_on",
        "time": 45,
        "note": 47,
        "velocity": 0,
        "channel": 6
      },
      {
        "type": "note_on",
        "time": 15,
        "note": 47,
        "velocity": 100,
        "channel": 6
      },
      {
        "type": "note_on",
        "time": 45,
        "note": 47,
        "velocity": 0,
        "channel": 6
      },
      {
        "type": "note_on",
        "time": 15,
        "note": 42,
        "velocity": 100,
        "channel": 6
      },
      {
        "type": "note_on",
        "time": 60,
        "note": 42,
        "velocity": 0,
        "channel": 6
      },
      {
        "type": "note_on",
        "time": 30,
        "note": 47,
        "velocity": 100,
        "channel": 6
      },
      {
        "type": "note_on",
        "time": 45,
        "note": 47,
        "velocity": 0,
        "channel": 6
      },
      {
        "type": "note_on",
        "time": 15,
        "note": 47,
        "velocity": 100,
        "channel": 6
      },
      {
        "type": "note_on",
        "time": 45,
        "note": 47,
        "velocity": 0,
        "channel": 6
      },
      {
        "type": "note_on",
        "time": 15,
        "note": 42,
        "velocity": 100,
        "channel": 6
      },
      {
        "type": "note_on",
        "time": 30,
        "note": 42,
        "velocity": 0,
        "channel": 6
      },
      {
        "type": "note_on",
        "time": 0,
        "note": 42,
        "velocity": 100,
        "channel": 6
      },
      {
        "type": "note_on",
        "time": 30,
        "note": 42,
        "velocity": 0,
        "channel": 6
      },
      {
        "type": "note_on",
        "time": 0,
        "note": 42,
        "velocity": 100,
        "channel": 6
      },
      {
        "type": "note_on",
        "time": 30,
        "note": 42,
        "velocity": 0,
        "channel": 6
      },
      {
        "type": "note_on",
        "time": 0,
        "note": 43,
        "velocity": 100,
        "channel": 6
      },
      {
        "type": "note_on",
        "time": 60,
        "note": 43,
        "velocity": 0,
        "channel": 6
      },
      {
        "type": "note_on",
        "time": 0,
        "note": 48,
        "velocity": 100,
        "channel": 6
      },
      {
        "type": "note_on",
        "time": 45,
        "note": 48,
        "velocity": 0,
        "channel": 6
      },
      {
        "type": "note_on",
        "time": 15,
        "note": 48,
        "velocity": 100,
        "channel": 6
      },
      {
        "type": "note_on",
        "time": 45,
        "note": 48,
        "velocity": 0,
        "channel": 6
      },
      {
        "type": "note_on",
        "time": 15,
        "note": 43,
        "velocity": 100,
        "channel": 6
      },
      {
        "type": "note_on",
        "time": 60,
        "note": 43,
        "velocity": 0,
        "channel": 6
      },
      {
        "type": "note_on",
        "time": 30,
        "note": 48,
        "velocity": 100,
        "channel": 6
      },
      {
        "type": "note_on",
        "time": 45,
        "note": 48,
        "velocity": 0,
        "channel": 6
      },
      {
        "type": "note_on",
        "time": 15,
        "note": 48,
        "velocity": 100,
        "channel": 6
      },
      {
        "type": "note_on",
        "time": 45,
        "note": 48,
        "velocity": 0,
        "channel": 6
      },
      {
        "type": "note_on",
        "time": 15,
        "note": 43,
        "velocity": 100,
        "channel": 6
      },
      {
        "type": "note_on",
        "time": 30,
        "note": 43,
        "velocity": 0,
        "channel": 6
      },
      {
        "type": "note_on",
        "time": 0,
        "note": 43,
        "velocity": 100,
        "channel": 6
      },
      {
        "type": "note_on",
        "time": 30,
        "note": 43,
        "velocity": 0,
        "channel": 6
      },
      {
        "type": "note_on",
        "time": 0,
        "note": 43,
        "velocity": 100,
        "channel": 6
      },
      {
        "type": "note_on",
        "time": 30,
        "note": 43,
        "velocity": 0,
        "channel": 6
      },
      {
        "type": "note_on",
        "time": 0,
        "note": 43,
        "velocity": 100,
        "channel": 6
      },
      {
        "type": "note_on",
        "time": 75,
        "note": 43,
        "velocity": 0,
        "channel": 6
      },
      {
        "type": "note_on",
        "time": 15,
        "note": 43,
        "velocity": 100,
        "channel": 6
      },
      {
        "type": "note_on",
        "time": 30,
        "note": 43,
        "velocity": 0,
        "channel": 6
      },
      {
        "type": "note_on",
        "time": 0,
        "note": 52,
        "velocity": 100,
        "channel": 6
      },
      {
        "type": "note_on",
        "time": 60,
        "note": 52,
        "velocity": 0,
        "channel": 6
      },
      {
        "type": "note_on",
        "time": 0,
        "note": 50,
        "velocity": 100,
        "channel": 6
      },
      {
        "type": "note_on",
        "time": 120,
        "note": 50,
        "velocity": 0,
        "channel": 6
      },
      {
        "type": "note_on",
        "time": 60,
        "note": 50,
        "velocity": 100,
        "channel": 6
      },
      {
        "type": "note_on",
        "time": 60,
        "note": 50,
        "velocity": 0,
        "channel": 6
      },
      {
        "type": "note_on",
        "time": 0,
        "note": 50,
        "velocity": 100,
        "channel": 6
      },
      {
        "type": "note_on",
        "time": 60,
        "note": 50,
        "velocity": 0,
        "channel": 6
      },
      {
        "type": "note_on",
        "time": 0,
        "note": 47,
        "velocity": 100,
        "channel": 6
      },
      {
        "type": "note_on",
        "time": 60,
        "note": 47,
        "velocity": 0,
        "channel": 6
      },
      {
        "type": "note_on",
        "time": 30,
        "note": 47,
        "velocity": 100,
        "channel": 6
      },
      {
        "type": "note_on",
        "time": 30,
        "note": 47,
        "velocity": 0,
        "channel": 6
      },
      {
        "type": "note_on",
        "time": 0,
        "note": 47,
        "velocity": 100,
        "channel": 6
      },
      {
        "type": "note_on",
        "time": 60,
        "note": 47,
        "velocity": 0,
        "channel": 6
      },
      {
        "type": "note_on",
        "time": 0,
        "note": 48,
        "velocity": 100,
        "channel": 6
      },
      {
        "type": "note_on",
        "time": 60,
        "note": 48,
        "velocity": 0,
        "channel": 6
      },
      {
        "type": "note_on",
        "time": 60,
        "note": 48,
        "velocity": 100,
        "channel": 6
      },
      {
        "type": "note_on",
        "time": 60,
        "note": 48,
        "velocity": 0,
        "channel": 6
      },
      {
        "type": "note_on",
        "time": 0,
        "note": 47,
        "velocity": 100,
        "channel": 6
      },
      {
        "type": "note_on",
        "time": 30,
        "note": 47,
        "velocity": 0,
        "channel": 6
      },
      {
        "type": "note_on",
        "time": 0,
        "note": 48,
        "velocity": 100,
        "channel": 6
      },
      {
        "type": "note_on",
        "time": 30,
        "note": 48,
        "velocity": 0,
        "channel": 6
      },
      {
        "type": "note_on",
        "time": 0,
        "note": 47,
        "velocity": 100,
        "channel": 6
      },
      {
        "type": "note_on",
        "time": 60,
        "note": 47,
        "velocity": 0,
        "channel": 6
      },
      {
        "type": "note_on",
        "time": 0,
        "note": 43,
        "velocity": 100,
        "channel": 6
      },
      {
        "type": "note_on",
        "time": 75,
        "note": 43,
        "velocity": 0,
        "channel": 6
      },
      {
        "type": "note_on",
        "time": 15,
        "note": 43,
        "velocity": 100,
        "channel": 6
      },
      {
        "type": "note_on",
        "time": 30,
        "note": 43,
        "velocity": 0,
        "channel": 6
      },
      {
        "type": "note_on",
        "time": 0,
        "note": 52,
        "velocity": 100,
        "channel": 6
      },
      {
        "type": "note_on",
        "time": 60,
        "note": 52,
        "velocity": 0,
        "channel": 6
      },
      {
        "type": "note_on",
        "time": 0,
        "note": 50,
        "velocity": 100,
        "channel": 6
      },
      {
        "type": "note_on",
        "time": 120,
        "note": 50,
        "velocity": 0,
        "channel": 6
      },
      {
        "type": "note_on",
        "time": 60,
        "note": 50,
        "velocity": 100,
        "channel": 6
      },
      {
        "type": "note_on",
        "time": 60,
        "note": 50,
        "velocity": 0,
        "channel": 6
      },
      {
        "type": "note_on",
        "time": 0,
        "note": 50,
        "velocity": 100,
        "channel": 6
      },
      {
        "type": "note_on",
        "time": 60,
        "note": 50,
        "velocity": 0,
        "channel": 6
      },
      {
        "type": "note_on",
        "time": 0,
        "note": 47,
        "velocity": 100,
        "channel": 6
      },
      {
        "type": "note_on",
        "time": 90,
        "note": 47,
        "velocity": 0,
        "channel": 6
      },
      {
        "type": "note_on",
        "time": 0,
        "note": 54,
        "velocity": 100,
        "channel": 6
      },
      {
        "type": "note_on",
        "time": 30,
        "note": 54,
        "velocity": 0,
        "channel": 6
      },
      {
        "type": "note_on",
        "time": 0,
        "note": 47,
        "velocity": 100,
        "channel": 6
      },
      {
        "type": "note_on",
        "time": 60,
        "note": 47,
        "velocity": 0,
        "channel": 6
      },
      {
        "type": "note_on",
        "time": 0,
        "note": 43,
        "velocity": 100,
        "channel": 6
      },
      {
        "type": "note_on",
        "time": 120,
        "note": 43,
        "velocity": 0,
        "channel": 6
      },
      {
        "type": "note_on",
        "time": 0,
        "note": 48,
        "velocity": 100,
        "channel": 6
      },
      {
        "type": "note_on",
        "time": 60,
        "note": 48,
        "velocity": 0,
        "channel": 6
      },
      {
        "type": "note_on",
        "time": 0,
        "note": 47,
        "velocity": 100,
        "channel": 6
      },
      {
        "type": "note_on",
        "time": 60,
        "note": 47,
        "velocity": 0,
        "channel": 6
      },
      {
        "type": "note_on",
        "time": 0,
        "note": 45,
        "velocity": 100,
        "channel": 6
      },
      {
        "type": "note_on",
        "time": 60,
        "note": 45,
        "velocity": 0,
        "channel": 6
      },
      {
        "type": "note_on",
        "time": 0,
        "note": 43,
        "velocity": 100,
        "channel": 6
      },
      {
        "type": "note_on",
        "time": 75,
        "note": 43,
        "velocity": 0,
        "channel": 6
      },
      {
        "type": "note_on",
        "time": 15,
        "note": 43,
        "velocity": 100,
        "channel": 6
      },
      {
        "type": "note_on",
        "time": 30,
        "note": 43,
        "velocity": 0,
        "channel": 6
      },
      {
        "type": "note_on",
        "time": 0,
        "note": 52,
        "velocity": 100,
        "channel": 6
      },
      {
        "type": "note_on",
        "time": 60,
        "note": 52,
        "velocity": 0,
        "channel": 6
      },
      {
        "type": "note_on",
        "time": 0,
        "note": 50,
        "velocity": 100,
        "channel": 6
      },
      {
        "type": "note_on",
        "time": 120,
        "note": 50,
        "velocity": 0,
        "channel": 6
      },
      {
        "type": "note_on",
        "time": 60,
        "note": 50,
        "velocity": 100,
        "channel": 6
      },
      {
        "type": "note_on",
        "time": 60,
        "note": 50,
        "velocity": 0,
        "channel": 6
      },
      {
        "type": "note_on",
        "time": 0,
        "note": 50,
        "velocity": 100,
        "channel": 6
      },
      {
        "type": "note_on",
        "time": 60,
        "note": 50,
        "velocity": 0,
        "channel": 6
      },
      {
        "type": "note_on",
        "time": 0,
        "note": 47,
        "velocity": 100,
        "channel": 6
      },
      {
        "type": "note_on",
        "time": 60,
        "note": 47,
        "velocity": 0,
        "channel": 6
      },
      {
        "type": "note_on",
        "time": 30,
        "note": 47,
        "velocity": 100,
        "channel": 6
      },
      {
        "type": "note_on",
        "time": 30,
        "note": 47,
        "velocity": 0,
        "channel": 6
      },
      {
        "type": "note_on",
        "time": 0,
        "note": 47,
        "velocity": 100,
        "channel": 6
      },
      {
        "type": "note_on",
        "time": 60,
        "note": 47,
        "velocity": 0,
        "channel": 6
      },
      {
        "type": "note_on",
        "time": 0,
        "note": 48,
        "velocity": 100,
        "channel": 6
      },
      {
        "type": "note_on",
        "time": 60,
        "note": 48,
        "velocity": 0,
        "channel": 6
      },
      {
        "type": "note_on",
        "time": 60,
        "note": 48,
        "velocity": 100,
        "channel": 6
      },
      {
        "type": "note_on",
        "time": 60,
        "note": 48,
        "velocity": 0,
        "channel": 6
      },
      {
        "type": "note_on",
        "time": 0,
        "note": 47,
        "velocity": 100,
        "channel": 6
      },
      {
        "type": "note_on",
        "time": 30,
        "note": 47,
        "velocity": 0,
        "channel": 6
      },
      {
        "type": "note_on",
        "time": 0,
        "note": 48,
        "velocity": 100,
        "channel": 6
      },
      {
        "type": "note_on",
        "time": 30,
        "note": 48,
        "velocity": 0,
        "channel": 6
      },
      {
        "type": "note_on",
        "time": 0,
        "note": 47,
        "velocity": 100,
        "channel": 6
      },
      {
        "type": "note_on",
        "time": 60,
        "note": 47,
        "velocity": 0,
        "channel": 6
      },
      {
        "type": "note_on",
        "time": 0,
        "note": 43,
        "velocity": 100,
        "channel": 6
      },
      {
        "type": "note_on",
        "time": 75,
        "note": 43,
        "velocity": 0,
        "channel": 6
      },
      {
        "type": "note_on",
        "time": 15,
        "note": 43,
        "velocity": 100,
        "channel": 6
      },
      {
        "type": "note_on",
        "time": 30,
        "note": 43,
        "velocity": 0,
        "channel": 6
      },
      {
        "type": "note_on",
        "time": 0,
        "note": 52,
        "velocity": 100,
        "channel": 6
      },
      {
        "type": "note_on",
        "time": 60,
        "note": 52,
        "velocity": 0,
        "channel": 6
      },
      {
        "type": "note_on",
        "time": 0,
        "note": 50,
        "velocity": 100,
        "channel": 6
      },
      {
        "type": "note_on",
        "time": 120,
        "note": 50,
        "velocity": 0,
        "channel": 6
      },
      {
        "type": "note_on",
        "time": 60,
        "note": 50,
        "velocity": 100,
        "channel": 6
      },
      {
        "type": "note_on",
        "time": 60,
        "note": 50,
        "velocity": 0,
        "channel": 6
      },
      {
        "type": "note_on",
        "time": 0,
        "note": 50,
        "velocity": 100,
        "channel": 6
      },
      {
        "type": "note_on",
        "time": 60,
        "note": 50,
        "velocity": 0,
        "channel": 6
      },
      {
        "type": "note_on",
        "time": 0,
        "note": 47,
        "velocity": 100,
        "channel": 6
      },
      {
        "type": "note_on",
        "time": 120,
        "note": 47,
        "velocity": 0,
        "channel": 6
      },
      {
        "type": "note_on",
        "time": 0,
        "note": 48,
        "velocity": 100,
        "channel": 6
      },
      {
        "type": "note_on",
        "time": 360,
        "note": 48,
        "velocity": 0,
        "channel": 6
      },
      {
        "type": "note_on",
        "time": 0,
        "note": 40,
        "velocity": 100,
        "channel": 6
      },
      {
        "type": "note_on",
        "time": 30,
        "note": 40,
        "velocity": 0,
        "channel": 6
      },
      {
        "type": "note_on",
        "time": 0,
        "note": 40,
        "velocity": 100,
        "channel": 6
      },
      {
        "type": "note_on",
        "time": 30,
        "note": 40,
        "velocity": 0,
        "channel": 6
      },
      {
        "type": "note_on",
        "time": 0,
        "note": 50,
        "velocity": 100,
        "channel": 6
      },
      {
        "type": "note_on",
        "time": 45,
        "note": 50,
        "velocity": 0,
        "channel": 6
      },
      {
        "type": "note_on",
        "time": 15,
        "note": 52,
        "velocity": 100,
        "channel": 6
      },
      {
        "type": "note_on",
        "time": 45,
        "note": 52,
        "velocity": 0,
        "channel": 6
      },
      {
        "type": "note_on",
        "time": 15,
        "note": 40,
        "velocity": 100,
        "channel": 6
      },
      {
        "type": "note_on",
        "time": 30,
        "note": 40,
        "velocity": 0,
        "channel": 6
      },
      {
        "type": "note_on",
        "time": 0,
        "note": 40,
        "velocity": 100,
        "channel": 6
      },
      {
        "type": "note_on",
        "time": 30,
        "note": 40,
        "velocity": 0,
        "channel": 6
      },
      {
        "type": "note_on",
        "time": 0,
        "note": 40,
        "velocity": 100,
        "channel": 6
      },
      {
        "type": "note_on",
        "time": 30,
        "note": 40,
        "velocity": 0,
        "channel": 6
      },
      {
        "type": "note_on",
        "time": 0,
        "note": 50,
        "velocity": 100,
        "channel": 6
      },
      {
        "type": "note_on",
        "time": 45,
        "note": 50,
        "velocity": 0,
        "channel": 6
      },
      {
        "type": "note_on",
        "time": 15,
        "note": 52,
        "velocity": 100,
        "channel": 6
      },
      {
        "type": "note_on",
        "time": 45,
        "note": 52,
        "velocity": 0,
        "channel": 6
      },
      {
        "type": "note_on",
        "time": 105,
        "note": 38,
        "velocity": 100,
        "channel": 6
      },
      {
        "type": "note_on",
        "time": 30,
        "note": 38,
        "velocity": 0,
        "channel": 6
      },
      {
        "type": "note_on",
        "time": 0,
        "note": 38,
        "velocity": 100,
        "channel": 6
      },
      {
        "type": "note_on",
        "time": 30,
        "note": 38,
        "velocity": 0,
        "channel": 6
      },
      {
        "type": "note_on",
        "time": 0,
        "note": 50,
        "velocity": 100,
        "channel": 6
      },
      {
        "type": "note_on",
        "time": 45,
        "note": 50,
        "velocity": 0,
        "channel": 6
      },
      {
        "type": "note_on",
        "time": 15,
        "note": 52,
        "velocity": 100,
        "channel": 6
      },
      {
        "type": "note_on",
        "time": 45,
        "note": 52,
        "velocity": 0,
        "channel": 6
      },
      {
        "type": "note_on",
        "time": 15,
        "note": 38,
        "velocity": 100,
        "channel": 6
      },
      {
        "type": "note_on",
        "time": 60,
        "note": 38,
        "velocity": 0,
        "channel": 6
      },
      {
        "type": "note_on",
        "time": 30,
        "note": 50,
        "velocity": 100,
        "channel": 6
      },
      {
        "type": "note_on",
        "time": 45,
        "note": 50,
        "velocity": 0,
        "channel": 6
      },
      {
        "type": "note_on",
        "time": 15,
        "note": 52,
        "velocity": 100,
        "channel": 6
      },
      {
        "type": "note_on",
        "time": 45,
        "note": 52,
        "velocity": 0,
        "channel": 6
      },
      {
        "type": "note_on",
        "time": 105,
        "note": 42,
        "velocity": 100,
        "channel": 6
      },
      {
        "type": "note_on",
        "time": 60,
        "note": 42,
        "velocity": 0,
        "channel": 6
      },
      {
        "type": "note_on",
        "time": 0,
        "note": 47,
        "velocity": 100,
        "channel": 6
      },
      {
        "type": "note_on",
        "time": 45,
        "note": 47,
        "velocity": 0,
        "channel": 6
      },
      {
        "type": "note_on",
        "time": 15,
        "note": 47,
        "velocity": 100,
        "channel": 6
      },
      {
        "type": "note_on",
        "time": 45,
        "note": 47,
        "velocity": 0,
        "channel": 6
      },
      {
        "type": "note_on",
        "time": 15,
        "note": 42,
        "velocity": 100,
        "channel": 6
      },
      {
        "type": "note_on",
        "time": 60,
        "note": 42,
        "velocity": 0,
        "channel": 6
      },
      {
        "type": "note_on",
        "time": 30,
        "note": 47,
        "velocity": 100,
        "channel": 6
      },
      {
        "type": "note_on",
        "time": 45,
        "note": 47,
        "velocity": 0,
        "channel": 6
      },
      {
        "type": "note_on",
        "time": 15,
        "note": 47,
        "velocity": 100,
        "channel": 6
      },
      {
        "type": "note_on",
        "time": 45,
        "note": 47,
        "velocity": 0,
        "channel": 6
      },
      {
        "type": "note_on",
        "time": 15,
        "note": 42,
        "velocity": 100,
        "channel": 6
      },
      {
        "type": "note_on",
        "time": 30,
        "note": 42,
        "velocity": 0,
        "channel": 6
      },
      {
        "type": "note_on",
        "time": 0,
        "note": 42,
        "velocity": 100,
        "channel": 6
      },
      {
        "type": "note_on",
        "time": 30,
        "note": 42,
        "velocity": 0,
        "channel": 6
      },
      {
        "type": "note_on",
        "time": 0,
        "note": 42,
        "velocity": 100,
        "channel": 6
      },
      {
        "type": "note_on",
        "time": 30,
        "note": 42,
        "velocity": 0,
        "channel": 6
      },
      {
        "type": "note_on",
        "time": 0,
        "note": 43,
        "velocity": 100,
        "channel": 6
      },
      {
        "type": "note_on",
        "time": 60,
        "note": 43,
        "velocity": 0,
        "channel": 6
      },
      {
        "type": "note_on",
        "time": 0,
        "note": 48,
        "velocity": 100,
        "channel": 6
      },
      {
        "type": "note_on",
        "time": 45,
        "note": 48,
        "velocity": 0,
        "channel": 6
      },
      {
        "type": "note_on",
        "time": 15,
        "note": 48,
        "velocity": 100,
        "channel": 6
      },
      {
        "type": "note_on",
        "time": 45,
        "note": 48,
        "velocity": 0,
        "channel": 6
      },
      {
        "type": "note_on",
        "time": 15,
        "note": 43,
        "velocity": 100,
        "channel": 6
      },
      {
        "type": "note_on",
        "time": 60,
        "note": 43,
        "velocity": 0,
        "channel": 6
      },
      {
        "type": "note_on",
        "time": 30,
        "note": 48,
        "velocity": 100,
        "channel": 6
      },
      {
        "type": "note_on",
        "time": 45,
        "note": 48,
        "velocity": 0,
        "channel": 6
      },
      {
        "type": "note_on",
        "time": 15,
        "note": 48,
        "velocity": 100,
        "channel": 6
      },
      {
        "type": "note_on",
        "time": 45,
        "note": 48,
        "velocity": 0,
        "channel": 6
      },
      {
        "type": "note_on",
        "time": 15,
        "note": 43,
        "velocity": 100,
        "channel": 6
      },
      {
        "type": "note_on",
        "time": 30,
        "note": 43,
        "velocity": 0,
        "channel": 6
      },
      {
        "type": "note_on",
        "time": 0,
        "note": 43,
        "velocity": 100,
        "channel": 6
      },
      {
        "type": "note_on",
        "time": 30,
        "note": 43,
        "velocity": 0,
        "channel": 6
      },
      {
        "type": "note_on",
        "time": 0,
        "note": 43,
        "velocity": 100,
        "channel": 6
      },
      {
        "type": "note_on",
        "time": 30,
        "note": 43,
        "velocity": 0,
        "channel": 6
      },
      {
        "type": "note_on",
        "time": 0,
        "note": 40,
        "velocity": 100,
        "channel": 6
      },
      {
        "type": "note_on",
        "time": 30,
        "note": 40,
        "velocity": 0,
        "channel": 6
      },
      {
        "type": "note_on",
        "time": 0,
        "note": 40,
        "velocity": 100,
        "channel": 6
      },
      {
        "type": "note_on",
        "time": 30,
        "note": 40,
        "velocity": 0,
        "channel": 6
      },
      {
        "type": "note_on",
        "time": 0,
        "note": 50,
        "velocity": 100,
        "channel": 6
      },
      {
        "type": "note_on",
        "time": 45,
        "note": 50,
        "velocity": 0,
        "channel": 6
      },
      {
        "type": "note_on",
        "time": 15,
        "note": 52,
        "velocity": 100,
        "channel": 6
      },
      {
        "type": "note_on",
        "time": 45,
        "note": 52,
        "velocity": 0,
        "channel": 6
      },
      {
        "type": "note_on",
        "time": 15,
        "note": 40,
        "velocity": 100,
        "channel": 6
      },
      {
        "type": "note_on",
        "time": 30,
        "note": 40,
        "velocity": 0,
        "channel": 6
      },
      {
        "type": "note_on",
        "time": 0,
        "note": 40,
        "velocity": 100,
        "channel": 6
      },
      {
        "type": "note_on",
        "time": 30,
        "note": 40,
        "velocity": 0,
        "channel": 6
      },
      {
        "type": "note_on",
        "time": 0,
        "note": 40,
        "velocity": 100,
        "channel": 6
      },
      {
        "type": "note_on",
        "time": 30,
        "note": 40,
        "velocity": 0,
        "channel": 6
      },
      {
        "type": "note_on",
        "time": 0,
        "note": 50,
        "velocity": 100,
        "channel": 6
      },
      {
        "type": "note_on",
        "time": 45,
        "note": 50,
        "velocity": 0,
        "channel": 6
      },
      {
        "type": "note_on",
        "time": 15,
        "note": 52,
        "velocity": 100,
        "channel": 6
      },
      {
        "type": "note_on",
        "time": 45,
        "note": 52,
        "velocity": 0,
        "channel": 6
      },
      {
        "type": "note_on",
        "time": 105,
        "note": 38,
        "velocity": 100,
        "channel": 6
      },
      {
        "type": "note_on",
        "time": 30,
        "note": 38,
        "velocity": 0,
        "channel": 6
      },
      {
        "type": "note_on",
        "time": 0,
        "note": 38,
        "velocity": 100,
        "channel": 6
      },
      {
        "type": "note_on",
        "time": 30,
        "note": 38,
        "velocity": 0,
        "channel": 6
      },
      {
        "type": "note_on",
        "time": 0,
        "note": 50,
        "velocity": 100,
        "channel": 6
      },
      {
        "type": "note_on",
        "time": 45,
        "note": 50,
        "velocity": 0,
        "channel": 6
      },
      {
        "type": "note_on",
        "time": 15,
        "note": 52,
        "velocity": 100,
        "channel": 6
      },
      {
        "type": "note_on",
        "time": 45,
        "note": 52,
        "velocity": 0,
        "channel": 6
      },
      {
        "type": "note_on",
        "time": 15,
        "note": 38,
        "velocity": 100,
        "channel": 6
      },
      {
        "type": "note_on",
        "time": 60,
        "note": 38,
        "velocity": 0,
        "channel": 6
      },
      {
        "type": "note_on",
        "time": 30,
        "note": 50,
        "velocity": 100,
        "channel": 6
      },
      {
        "type": "note_on",
        "time": 45,
        "note": 50,
        "velocity": 0,
        "channel": 6
      },
      {
        "type": "note_on",
        "time": 15,
        "note": 52,
        "velocity": 100,
        "channel": 6
      },
      {
        "type": "note_on",
        "time": 45,
        "note": 52,
        "velocity": 0,
        "channel": 6
      },
      {
        "type": "note_on",
        "time": 105,
        "note": 42,
        "velocity": 100,
        "channel": 6
      },
      {
        "type": "note_on",
        "time": 60,
        "note": 42,
        "velocity": 0,
        "channel": 6
      },
      {
        "type": "note_on",
        "time": 0,
        "note": 47,
        "velocity": 100,
        "channel": 6
      },
      {
        "type": "note_on",
        "time": 45,
        "note": 47,
        "velocity": 0,
        "channel": 6
      },
      {
        "type": "note_on",
        "time": 15,
        "note": 47,
        "velocity": 100,
        "channel": 6
      },
      {
        "type": "note_on",
        "time": 45,
        "note": 47,
        "velocity": 0,
        "channel": 6
      },
      {
        "type": "note_on",
        "time": 15,
        "note": 42,
        "velocity": 100,
        "channel": 6
      },
      {
        "type": "note_on",
        "time": 60,
        "note": 42,
        "velocity": 0,
        "channel": 6
      },
      {
        "type": "note_on",
        "time": 30,
        "note": 47,
        "velocity": 100,
        "channel": 6
      },
      {
        "type": "note_on",
        "time": 45,
        "note": 47,
        "velocity": 0,
        "channel": 6
      },
      {
        "type": "note_on",
        "time": 15,
        "note": 47,
        "velocity": 100,
        "channel": 6
      },
      {
        "type": "note_on",
        "time": 45,
        "note": 47,
        "velocity": 0,
        "channel": 6
      },
      {
        "type": "note_on",
        "time": 15,
        "note": 42,
        "velocity": 100,
        "channel": 6
      },
      {
        "type": "note_on",
        "time": 30,
        "note": 42,
        "velocity": 0,
        "channel": 6
      },
      {
        "type": "note_on",
        "time": 0,
        "note": 42,
        "velocity": 100,
        "channel": 6
      },
      {
        "type": "note_on",
        "time": 30,
        "note": 42,
        "velocity": 0,
        "channel": 6
      },
      {
        "type": "note_on",
        "time": 0,
        "note": 42,
        "velocity": 100,
        "channel": 6
      },
      {
        "type": "note_on",
        "time": 30,
        "note": 42,
        "velocity": 0,
        "channel": 6
      },
      {
        "type": "note_on",
        "time": 0,
        "note": 43,
        "velocity": 100,
        "channel": 6
      },
      {
        "type": "note_on",
        "time": 60,
        "note": 43,
        "velocity": 0,
        "channel": 6
      },
      {
        "type": "note_on",
        "time": 0,
        "note": 48,
        "velocity": 100,
        "channel": 6
      },
      {
        "type": "note_on",
        "time": 45,
        "note": 48,
        "velocity": 0,
        "channel": 6
      },
      {
        "type": "note_on",
        "time": 15,
        "note": 48,
        "velocity": 100,
        "channel": 6
      },
      {
        "type": "note_on",
        "time": 45,
        "note": 48,
        "velocity": 0,
        "channel": 6
      },
      {
        "type": "note_on",
        "time": 15,
        "note": 43,
        "velocity": 100,
        "channel": 6
      },
      {
        "type": "note_on",
        "time": 60,
        "note": 43,
        "velocity": 0,
        "channel": 6
      },
      {
        "type": "note_on",
        "time": 30,
        "note": 48,
        "velocity": 100,
        "channel": 6
      },
      {
        "type": "note_on",
        "time": 45,
        "note": 48,
        "velocity": 0,
        "channel": 6
      },
      {
        "type": "note_on",
        "time": 15,
        "note": 48,
        "velocity": 100,
        "channel": 6
      },
      {
        "type": "note_on",
        "time": 45,
        "note": 48,
        "velocity": 0,
        "channel": 6
      },
      {
        "type": "note_on",
        "time": 15,
        "note": 43,
        "velocity": 100,
        "channel": 6
      },
      {
        "type": "note_on",
        "time": 30,
        "note": 43,
        "velocity": 0,
        "channel": 6
      },
      {
        "type": "note_on",
        "time": 0,
        "note": 43,
        "velocity": 100,
        "channel": 6
      },
      {
        "type": "note_on",
        "time": 30,
        "note": 43,
        "velocity": 0,
        "channel": 6
      },
      {
        "type": "note_on",
        "time": 0,
        "note": 43,
        "velocity": 100,
        "channel": 6
      },
      {
        "type": "note_on",
        "time": 30,
        "note": 43,
        "velocity": 0,
        "channel": 6
      },
      {
        "type": "note_on",
        "time": 0,
        "note": 40,
        "velocity": 100,
        "channel": 6
      },
      {
        "type": "note_on",
        "time": 30,
        "note": 40,
        "velocity": 0,
        "channel": 6
      },
      {
        "type": "note_on",
        "time": 0,
        "note": 40,
        "velocity": 100,
        "channel": 6
      },
      {
        "type": "note_on",
        "time": 30,
        "note": 40,
        "velocity": 0,
        "channel": 6
      },
      {
        "type": "note_on",
        "time": 0,
        "note": 50,
        "velocity": 100,
        "channel": 6
      },
      {
        "type": "note_on",
        "time": 45,
        "note": 50,
        "velocity": 0,
        "channel": 6
      },
      {
        "type": "note_on",
        "time": 15,
        "note": 52,
        "velocity": 100,
        "channel": 6
      },
      {
        "type": "note_on",
        "time": 45,
        "note": 52,
        "velocity": 0,
        "channel": 6
      },
      {
        "type": "note_on",
        "time": 15,
        "note": 40,
        "velocity": 100,
        "channel": 6
      },
      {
        "type": "note_on",
        "time": 30,
        "note": 40,
        "velocity": 0,
        "channel": 6
      },
      {
        "type": "note_on",
        "time": 0,
        "note": 40,
        "velocity": 100,
        "channel": 6
      },
      {
        "type": "note_on",
        "time": 30,
        "note": 40,
        "velocity": 0,
        "channel": 6
      },
      {
        "type": "note_on",
        "time": 0,
        "note": 40,
        "velocity": 100,
        "channel": 6
      },
      {
        "type": "note_on",
        "time": 30,
        "note": 40,
        "velocity": 0,
        "channel": 6
      },
      {
        "type": "note_on",
        "time": 0,
        "note": 50,
        "velocity": 100,
        "channel": 6
      },
      {
        "type": "note_on",
        "time": 45,
        "note": 50,
        "velocity": 0,
        "channel": 6
      },
      {
        "type": "note_on",
        "time": 15,
        "note": 52,
        "velocity": 100,
        "channel": 6
      },
      {
        "type": "note_on",
        "time": 45,
        "note": 52,
        "velocity": 0,
        "channel": 6
      },
      {
        "type": "note_on",
        "time": 105,
        "note": 38,
        "velocity": 100,
        "channel": 6
      },
      {
        "type": "note_on",
        "time": 30,
        "note": 38,
        "velocity": 0,
        "channel": 6
      },
      {
        "type": "note_on",
        "time": 0,
        "note": 38,
        "velocity": 100,
        "channel": 6
      },
      {
        "type": "note_on",
        "time": 30,
        "note": 38,
        "velocity": 0,
        "channel": 6
      },
      {
        "type": "note_on",
        "time": 0,
        "note": 50,
        "velocity": 100,
        "channel": 6
      },
      {
        "type": "note_on",
        "time": 45,
        "note": 50,
        "velocity": 0,
        "channel": 6
      },
      {
        "type": "note_on",
        "time": 15,
        "note": 52,
        "velocity": 100,
        "channel": 6
      },
      {
        "type": "note_on",
        "time": 45,
        "note": 52,
        "velocity": 0,
        "channel": 6
      },
      {
        "type": "note_on",
        "time": 15,
        "note": 38,
        "velocity": 100,
        "channel": 6
      },
      {
        "type": "note_on",
        "time": 60,
        "note": 38,
        "velocity": 0,
        "channel": 6
      },
      {
        "type": "note_on",
        "time": 30,
        "note": 50,
        "velocity": 100,
        "channel": 6
      },
      {
        "type": "note_on",
        "time": 45,
        "note": 50,
        "velocity": 0,
        "channel": 6
      },
      {
        "type": "note_on",
        "time": 15,
        "note": 52,
        "velocity": 100,
        "channel": 6
      },
      {
        "type": "note_on",
        "time": 45,
        "note": 52,
        "velocity": 0,
        "channel": 6
      },
      {
        "type": "note_on",
        "time": 105,
        "note": 42,
        "velocity": 100,
        "channel": 6
      },
      {
        "type": "note_on",
        "time": 60,
        "note": 42,
        "velocity": 0,
        "channel": 6
      },
      {
        "type": "note_on",
        "time": 0,
        "note": 47,
        "velocity": 100,
        "channel": 6
      },
      {
        "type": "note_on",
        "time": 45,
        "note": 47,
        "velocity": 0,
        "channel": 6
      },
      {
        "type": "note_on",
        "time": 15,
        "note": 47,
        "velocity": 100,
        "channel": 6
      },
      {
        "type": "note_on",
        "time": 45,
        "note": 47,
        "velocity": 0,
        "channel": 6
      },
      {
        "type": "note_on",
        "time": 15,
        "note": 42,
        "velocity": 100,
        "channel": 6
      },
      {
        "type": "note_on",
        "time": 60,
        "note": 42,
        "velocity": 0,
        "channel": 6
      },
      {
        "type": "note_on",
        "time": 30,
        "note": 47,
        "velocity": 100,
        "channel": 6
      },
      {
        "type": "note_on",
        "time": 45,
        "note": 47,
        "velocity": 0,
        "channel": 6
      },
      {
        "type": "note_on",
        "time": 15,
        "note": 47,
        "velocity": 100,
        "channel": 6
      },
      {
        "type": "note_on",
        "time": 45,
        "note": 47,
        "velocity": 0,
        "channel": 6
      },
      {
        "type": "note_on",
        "time": 15,
        "note": 42,
        "velocity": 100,
        "channel": 6
      },
      {
        "type": "note_on",
        "time": 30,
        "note": 42,
        "velocity": 0,
        "channel": 6
      },
      {
        "type": "note_on",
        "time": 0,
        "note": 42,
        "velocity": 100,
        "channel": 6
      },
      {
        "type": "note_on",
        "time": 30,
        "note": 42,
        "velocity": 0,
        "channel": 6
      },
      {
        "type": "note_on",
        "time": 0,
        "note": 42,
        "velocity": 100,
        "channel": 6
      },
      {
        "type": "note_on",
        "time": 30,
        "note": 42,
        "velocity": 0,
        "channel": 6
      },
      {
        "type": "note_on",
        "time": 0,
        "note": 43,
        "velocity": 100,
        "channel": 6
      },
      {
        "type": "note_on",
        "time": 60,
        "note": 43,
        "velocity": 0,
        "channel": 6
      },
      {
        "type": "note_on",
        "time": 0,
        "note": 48,
        "velocity": 100,
        "channel": 6
      },
      {
        "type": "note_on",
        "time": 45,
        "note": 48,
        "velocity": 0,
        "channel": 6
      },
      {
        "type": "note_on",
        "time": 15,
        "note": 48,
        "velocity": 100,
        "channel": 6
      },
      {
        "type": "note_on",
        "time": 45,
        "note": 48,
        "velocity": 0,
        "channel": 6
      },
      {
        "type": "note_on",
        "time": 15,
        "note": 43,
        "velocity": 100,
        "channel": 6
      },
      {
        "type": "note_on",
        "time": 60,
        "note": 43,
        "velocity": 0,
        "channel": 6
      },
      {
        "type": "note_on",
        "time": 30,
        "note": 48,
        "velocity": 100,
        "channel": 6
      },
      {
        "type": "note_on",
        "time": 45,
        "note": 48,
        "velocity": 0,
        "channel": 6
      },
      {
        "type": "note_on",
        "time": 15,
        "note": 48,
        "velocity": 100,
        "channel": 6
      },
      {
        "type": "note_on",
        "time": 45,
        "note": 48,
        "velocity": 0,
        "channel": 6
      },
      {
        "type": "note_on",
        "time": 15,
        "note": 43,
        "velocity": 100,
        "channel": 6
      },
      {
        "type": "note_on",
        "time": 30,
        "note": 43,
        "velocity": 0,
        "channel": 6
      },
      {
        "type": "note_on",
        "time": 0,
        "note": 43,
        "velocity": 100,
        "channel": 6
      },
      {
        "type": "note_on",
        "time": 30,
        "note": 43,
        "velocity": 0,
        "channel": 6
      },
      {
        "type": "note_on",
        "time": 0,
        "note": 43,
        "velocity": 100,
        "channel": 6
      },
      {
        "type": "note_on",
        "time": 30,
        "note": 43,
        "velocity": 0,
        "channel": 6
      },
      {
        "type": "note_on",
        "time": 0,
        "note": 40,
        "velocity": 100,
        "channel": 6
      },
      {
        "type": "note_on",
        "time": 30,
        "note": 40,
        "velocity": 0,
        "channel": 6
      },
      {
        "type": "note_on",
        "time": 0,
        "note": 40,
        "velocity": 100,
        "channel": 6
      },
      {
        "type": "note_on",
        "time": 30,
        "note": 40,
        "velocity": 0,
        "channel": 6
      },
      {
        "type": "note_on",
        "time": 0,
        "note": 50,
        "velocity": 100,
        "channel": 6
      },
      {
        "type": "note_on",
        "time": 45,
        "note": 50,
        "velocity": 0,
        "channel": 6
      },
      {
        "type": "note_on",
        "time": 15,
        "note": 52,
        "velocity": 100,
        "channel": 6
      },
      {
        "type": "note_on",
        "time": 45,
        "note": 52,
        "velocity": 0,
        "channel": 6
      },
      {
        "type": "note_on",
        "time": 15,
        "note": 40,
        "velocity": 100,
        "channel": 6
      },
      {
        "type": "note_on",
        "time": 30,
        "note": 40,
        "velocity": 0,
        "channel": 6
      },
      {
        "type": "note_on",
        "time": 0,
        "note": 40,
        "velocity": 100,
        "channel": 6
      },
      {
        "type": "note_on",
        "time": 30,
        "note": 40,
        "velocity": 0,
        "channel": 6
      },
      {
        "type": "note_on",
        "time": 0,
        "note": 40,
        "velocity": 100,
        "channel": 6
      },
      {
        "type": "note_on",
        "time": 30,
        "note": 40,
        "velocity": 0,
        "channel": 6
      },
      {
        "type": "note_on",
        "time": 0,
        "note": 50,
        "velocity": 100,
        "channel": 6
      },
      {
        "type": "note_on",
        "time": 45,
        "note": 50,
        "velocity": 0,
        "channel": 6
      },
      {
        "type": "note_on",
        "time": 15,
        "note": 52,
        "velocity": 100,
        "channel": 6
      },
      {
        "type": "note_on",
        "time": 45,
        "note": 52,
        "velocity": 0,
        "channel": 6
      },
      {
        "type": "note_on",
        "time": 105,
        "note": 38,
        "velocity": 100,
        "channel": 6
      },
      {
        "type": "note_on",
        "time": 30,
        "note": 38,
        "velocity": 0,
        "channel": 6
      },
      {
        "type": "note_on",
        "time": 0,
        "note": 38,
        "velocity": 100,
        "channel": 6
      },
      {
        "type": "note_on",
        "time": 30,
        "note": 38,
        "velocity": 0,
        "channel": 6
      },
      {
        "type": "note_on",
        "time": 0,
        "note": 50,
        "velocity": 100,
        "channel": 6
      },
      {
        "type": "note_on",
        "time": 45,
        "note": 50,
        "velocity": 0,
        "channel": 6
      },
      {
        "type": "note_on",
        "time": 15,
        "note": 52,
        "velocity": 100,
        "channel": 6
      },
      {
        "type": "note_on",
        "time": 45,
        "note": 52,
        "velocity": 0,
        "channel": 6
      },
      {
        "type": "note_on",
        "time": 15,
        "note": 38,
        "velocity": 100,
        "channel": 6
      },
      {
        "type": "note_on",
        "time": 60,
        "note": 38,
        "velocity": 0,
        "channel": 6
      },
      {
        "type": "note_on",
        "time": 30,
        "note": 50,
        "velocity": 100,
        "channel": 6
      },
      {
        "type": "note_on",
        "time": 45,
        "note": 50,
        "velocity": 0,
        "channel": 6
      },
      {
        "type": "note_on",
        "time": 15,
        "note": 52,
        "velocity": 100,
        "channel": 6
      },
      {
        "type": "note_on",
        "time": 45,
        "note": 52,
        "velocity": 0,
        "channel": 6
      },
      {
        "type": "note_on",
        "time": 105,
        "note": 42,
        "velocity": 100,
        "channel": 6
      },
      {
        "type": "note_on",
        "time": 60,
        "note": 42,
        "velocity": 0,
        "channel": 6
      },
      {
        "type": "note_on",
        "time": 0,
        "note": 47,
        "velocity": 100,
        "channel": 6
      },
      {
        "type": "note_on",
        "time": 45,
        "note": 47,
        "velocity": 0,
        "channel": 6
      },
      {
        "type": "note_on",
        "time": 15,
        "note": 47,
        "velocity": 100,
        "channel": 6
      },
      {
        "type": "note_on",
        "time": 45,
        "note": 47,
        "velocity": 0,
        "channel": 6
      },
      {
        "type": "note_on",
        "time": 15,
        "note": 42,
        "velocity": 100,
        "channel": 6
      },
      {
        "type": "note_on",
        "time": 60,
        "note": 42,
        "velocity": 0,
        "channel": 6
      },
      {
        "type": "note_on",
        "time": 30,
        "note": 47,
        "velocity": 100,
        "channel": 6
      },
      {
        "type": "note_on",
        "time": 45,
        "note": 47,
        "velocity": 0,
        "channel": 6
      },
      {
        "type": "note_on",
        "time": 15,
        "note": 47,
        "velocity": 100,
        "channel": 6
      },
      {
        "type": "note_on",
        "time": 45,
        "note": 47,
        "velocity": 0,
        "channel": 6
      },
      {
        "type": "note_on",
        "time": 15,
        "note": 42,
        "velocity": 100,
        "channel": 6
      },
      {
        "type": "note_on",
        "time": 30,
        "note": 42,
        "velocity": 0,
        "channel": 6
      },
      {
        "type": "note_on",
        "time": 0,
        "note": 42,
        "velocity": 100,
        "channel": 6
      },
      {
        "type": "note_on",
        "time": 30,
        "note": 42,
        "velocity": 0,
        "channel": 6
      },
      {
        "type": "note_on",
        "time": 0,
        "note": 42,
        "velocity": 100,
        "channel": 6
      },
      {
        "type": "note_on",
        "time": 30,
        "note": 42,
        "velocity": 0,
        "channel": 6
      },
      {
        "type": "note_on",
        "time": 0,
        "note": 43,
        "velocity": 100,
        "channel": 6
      },
      {
        "type": "note_on",
        "time": 60,
        "note": 43,
        "velocity": 0,
        "channel": 6
      },
      {
        "type": "note_on",
        "time": 0,
        "note": 48,
        "velocity": 100,
        "channel": 6
      },
      {
        "type": "note_on",
        "time": 45,
        "note": 48,
        "velocity": 0,
        "channel": 6
      },
      {
        "type": "note_on",
        "time": 15,
        "note": 48,
        "velocity": 100,
        "channel": 6
      },
      {
        "type": "note_on",
        "time": 45,
        "note": 48,
        "velocity": 0,
        "channel": 6
      },
      {
        "type": "note_on",
        "time": 15,
        "note": 43,
        "velocity": 100,
        "channel": 6
      },
      {
        "type": "note_on",
        "time": 60,
        "note": 43,
        "velocity": 0,
        "channel": 6
      },
      {
        "type": "note_on",
        "time": 30,
        "note": 48,
        "velocity": 100,
        "channel": 6
      },
      {
        "type": "note_on",
        "time": 45,
        "note": 48,
        "velocity": 0,
        "channel": 6
      },
      {
        "type": "note_on",
        "time": 15,
        "note": 48,
        "velocity": 100,
        "channel": 6
      },
      {
        "type": "note_on",
        "time": 45,
        "note": 48,
        "velocity": 0,
        "channel": 6
      },
      {
        "type": "note_on",
        "time": 15,
        "note": 43,
        "velocity": 100,
        "channel": 6
      },
      {
        "type": "note_on",
        "time": 30,
        "note": 43,
        "velocity": 0,
        "channel": 6
      },
      {
        "type": "note_on",
        "time": 0,
        "note": 43,
        "velocity": 100,
        "channel": 6
      },
      {
        "type": "note_on",
        "time": 30,
        "note": 43,
        "velocity": 0,
        "channel": 6
      },
      {
        "type": "note_on",
        "time": 0,
        "note": 43,
        "velocity": 100,
        "channel": 6
      },
      {
        "type": "note_on",
        "time": 30,
        "note": 43,
        "velocity": 0,
        "channel": 6
      },
      {
        "type": "note_on",
        "time": 0,
        "note": 43,
        "velocity": 100,
        "channel": 6
      },
      {
        "type": "note_on",
        "time": 75,
        "note": 43,
        "velocity": 0,
        "channel": 6
      },
      {
        "type": "note_on",
        "time": 15,
        "note": 43,
        "velocity": 100,
        "channel": 6
      },
      {
        "type": "note_on",
        "time": 30,
        "note": 43,
        "velocity": 0,
        "channel": 6
      },
      {
        "type": "note_on",
        "time": 0,
        "note": 52,
        "velocity": 100,
        "channel": 6
      },
      {
        "type": "note_on",
        "time": 60,
        "note": 52,
        "velocity": 0,
        "channel": 6
      },
      {
        "type": "note_on",
        "time": 0,
        "note": 50,
        "velocity": 100,
        "channel": 6
      },
      {
        "type": "note_on",
        "time": 120,
        "note": 50,
        "velocity": 0,
        "channel": 6
      },
      {
        "type": "note_on",
        "time": 60,
        "note": 50,
        "velocity": 100,
        "channel": 6
      },
      {
        "type": "note_on",
        "time": 60,
        "note": 50,
        "velocity": 0,
        "channel": 6
      },
      {
        "type": "note_on",
        "time": 0,
        "note": 50,
        "velocity": 100,
        "channel": 6
      },
      {
        "type": "note_on",
        "time": 60,
        "note": 50,
        "velocity": 0,
        "channel": 6
      },
      {
        "type": "note_on",
        "time": 0,
        "note": 47,
        "velocity": 100,
        "channel": 6
      },
      {
        "type": "note_on",
        "time": 60,
        "note": 47,
        "velocity": 0,
        "channel": 6
      },
      {
        "type": "note_on",
        "time": 30,
        "note": 47,
        "velocity": 100,
        "channel": 6
      },
      {
        "type": "note_on",
        "time": 30,
        "note": 47,
        "velocity": 0,
        "channel": 6
      },
      {
        "type": "note_on",
        "time": 0,
        "note": 47,
        "velocity": 100,
        "channel": 6
      },
      {
        "type": "note_on",
        "time": 60,
        "note": 47,
        "velocity": 0,
        "channel": 6
      },
      {
        "type": "note_on",
        "time": 0,
        "note": 48,
        "velocity": 100,
        "channel": 6
      },
      {
        "type": "note_on",
        "time": 60,
        "note": 48,
        "velocity": 0,
        "channel": 6
      },
      {
        "type": "note_on",
        "time": 60,
        "note": 48,
        "velocity": 100,
        "channel": 6
      },
      {
        "type": "note_on",
        "time": 60,
        "note": 48,
        "velocity": 0,
        "channel": 6
      },
      {
        "type": "note_on",
        "time": 0,
        "note": 47,
        "velocity": 100,
        "channel": 6
      },
      {
        "type": "note_on",
        "time": 30,
        "note": 47,
        "velocity": 0,
        "channel": 6
      },
      {
        "type": "note_on",
        "time": 0,
        "note": 48,
        "velocity": 100,
        "channel": 6
      },
      {
        "type": "note_on",
        "time": 30,
        "note": 48,
        "velocity": 0,
        "channel": 6
      },
      {
        "type": "note_on",
        "time": 0,
        "note": 47,
        "velocity": 100,
        "channel": 6
      },
      {
        "type": "note_on",
        "time": 60,
        "note": 47,
        "velocity": 0,
        "channel": 6
      },
      {
        "type": "note_on",
        "time": 0,
        "note": 43,
        "velocity": 100,
        "channel": 6
      },
      {
        "type": "note_on",
        "time": 75,
        "note": 43,
        "velocity": 0,
        "channel": 6
      },
      {
        "type": "note_on",
        "time": 15,
        "note": 43,
        "velocity": 100,
        "channel": 6
      },
      {
        "type": "note_on",
        "time": 30,
        "note": 43,
        "velocity": 0,
        "channel": 6
      },
      {
        "type": "note_on",
        "time": 0,
        "note": 52,
        "velocity": 100,
        "channel": 6
      },
      {
        "type": "note_on",
        "time": 60,
        "note": 52,
        "velocity": 0,
        "channel": 6
      },
      {
        "type": "note_on",
        "time": 0,
        "note": 50,
        "velocity": 100,
        "channel": 6
      },
      {
        "type": "note_on",
        "time": 120,
        "note": 50,
        "velocity": 0,
        "channel": 6
      },
      {
        "type": "note_on",
        "time": 60,
        "note": 50,
        "velocity": 100,
        "channel": 6
      },
      {
        "type": "note_on",
        "time": 60,
        "note": 50,
        "velocity": 0,
        "channel": 6
      },
      {
        "type": "note_on",
        "time": 0,
        "note": 50,
        "velocity": 100,
        "channel": 6
      },
      {
        "type": "note_on",
        "time": 60,
        "note": 50,
        "velocity": 0,
        "channel": 6
      },
      {
        "type": "note_on",
        "time": 0,
        "note": 47,
        "velocity": 100,
        "channel": 6
      },
      {
        "type": "note_on",
        "time": 90,
        "note": 47,
        "velocity": 0,
        "channel": 6
      },
      {
        "type": "note_on",
        "time": 0,
        "note": 54,
        "velocity": 100,
        "channel": 6
      },
      {
        "type": "note_on",
        "time": 30,
        "note": 54,
        "velocity": 0,
        "channel": 6
      },
      {
        "type": "note_on",
        "time": 0,
        "note": 47,
        "velocity": 100,
        "channel": 6
      },
      {
        "type": "note_on",
        "time": 60,
        "note": 47,
        "velocity": 0,
        "channel": 6
      },
      {
        "type": "note_on",
        "time": 0,
        "note": 43,
        "velocity": 100,
        "channel": 6
      },
      {
        "type": "note_on",
        "time": 120,
        "note": 43,
        "velocity": 0,
        "channel": 6
      },
      {
        "type": "note_on",
        "time": 0,
        "note": 48,
        "velocity": 100,
        "channel": 6
      },
      {
        "type": "note_on",
        "time": 60,
        "note": 48,
        "velocity": 0,
        "channel": 6
      },
      {
        "type": "note_on",
        "time": 0,
        "note": 47,
        "velocity": 100,
        "channel": 6
      },
      {
        "type": "note_on",
        "time": 60,
        "note": 47,
        "velocity": 0,
        "channel": 6
      },
      {
        "type": "note_on",
        "time": 0,
        "note": 45,
        "velocity": 100,
        "channel": 6
      },
      {
        "type": "note_on",
        "time": 60,
        "note": 45,
        "velocity": 0,
        "channel": 6
      },
      {
        "type": "note_on",
        "time": 0,
        "note": 43,
        "velocity": 100,
        "channel": 6
      },
      {
        "type": "note_on",
        "time": 75,
        "note": 43,
        "velocity": 0,
        "channel": 6
      },
      {
        "type": "note_on",
        "time": 15,
        "note": 43,
        "velocity": 100,
        "channel": 6
      },
      {
        "type": "note_on",
        "time": 30,
        "note": 43,
        "velocity": 0,
        "channel": 6
      },
      {
        "type": "note_on",
        "time": 0,
        "note": 52,
        "velocity": 100,
        "channel": 6
      },
      {
        "type": "note_on",
        "time": 60,
        "note": 52,
        "velocity": 0,
        "channel": 6
      },
      {
        "type": "note_on",
        "time": 0,
        "note": 50,
        "velocity": 100,
        "channel": 6
      },
      {
        "type": "note_on",
        "time": 120,
        "note": 50,
        "velocity": 0,
        "channel": 6
      },
      {
        "type": "note_on",
        "time": 60,
        "note": 50,
        "velocity": 100,
        "channel": 6
      },
      {
        "type": "note_on",
        "time": 60,
        "note": 50,
        "velocity": 0,
        "channel": 6
      },
      {
        "type": "note_on",
        "time": 0,
        "note": 50,
        "velocity": 100,
        "channel": 6
      },
      {
        "type": "note_on",
        "time": 60,
        "note": 50,
        "velocity": 0,
        "channel": 6
      },
      {
        "type": "note_on",
        "time": 0,
        "note": 47,
        "velocity": 100,
        "channel": 6
      },
      {
        "type": "note_on",
        "time": 60,
        "note": 47,
        "velocity": 0,
        "channel": 6
      },
      {
        "type": "note_on",
        "time": 30,
        "note": 47,
        "velocity": 100,
        "channel": 6
      },
      {
        "type": "note_on",
        "time": 30,
        "note": 47,
        "velocity": 0,
        "channel": 6
      },
      {
        "type": "note_on",
        "time": 0,
        "note": 47,
        "velocity": 100,
        "channel": 6
      },
      {
        "type": "note_on",
        "time": 60,
        "note": 47,
        "velocity": 0,
        "channel": 6
      },
      {
        "type": "note_on",
        "time": 0,
        "note": 48,
        "velocity": 100,
        "channel": 6
      },
      {
        "type": "note_on",
        "time": 60,
        "note": 48,
        "velocity": 0,
        "channel": 6
      },
      {
        "type": "note_on",
        "time": 60,
        "note": 48,
        "velocity": 100,
        "channel": 6
      },
      {
        "type": "note_on",
        "time": 60,
        "note": 48,
        "velocity": 0,
        "channel": 6
      },
      {
        "type": "note_on",
        "time": 0,
        "note": 47,
        "velocity": 100,
        "channel": 6
      },
      {
        "type": "note_on",
        "time": 30,
        "note": 47,
        "velocity": 0,
        "channel": 6
      },
      {
        "type": "note_on",
        "time": 0,
        "note": 48,
        "velocity": 100,
        "channel": 6
      },
      {
        "type": "note_on",
        "time": 30,
        "note": 48,
        "velocity": 0,
        "channel": 6
      },
      {
        "type": "note_on",
        "time": 0,
        "note": 47,
        "velocity": 100,
        "channel": 6
      },
      {
        "type": "note_on",
        "time": 60,
        "note": 47,
        "velocity": 0,
        "channel": 6
      },
      {
        "type": "note_on",
        "time": 0,
        "note": 43,
        "velocity": 100,
        "channel": 6
      },
      {
        "type": "note_on",
        "time": 75,
        "note": 43,
        "velocity": 0,
        "channel": 6
      },
      {
        "type": "note_on",
        "time": 15,
        "note": 43,
        "velocity": 100,
        "channel": 6
      },
      {
        "type": "note_on",
        "time": 30,
        "note": 43,
        "velocity": 0,
        "channel": 6
      },
      {
        "type": "note_on",
        "time": 0,
        "note": 52,
        "velocity": 100,
        "channel": 6
      },
      {
        "type": "note_on",
        "time": 60,
        "note": 52,
        "velocity": 0,
        "channel": 6
      },
      {
        "type": "note_on",
        "time": 0,
        "note": 50,
        "velocity": 100,
        "channel": 6
      },
      {
        "type": "note_on",
        "time": 120,
        "note": 50,
        "velocity": 0,
        "channel": 6
      },
      {
        "type": "note_on",
        "time": 60,
        "note": 50,
        "velocity": 100,
        "channel": 6
      },
      {
        "type": "note_on",
        "time": 60,
        "note": 50,
        "velocity": 0,
        "channel": 6
      },
      {
        "type": "note_on",
        "time": 0,
        "note": 50,
        "velocity": 100,
        "channel": 6
      },
      {
        "type": "note_on",
        "time": 60,
        "note": 50,
        "velocity": 0,
        "channel": 6
      },
      {
        "type": "note_on",
        "time": 0,
        "note": 42,
        "velocity": 100,
        "channel": 6
      },
      {
        "type": "note_on",
        "time": 120,
        "note": 42,
        "velocity": 0,
        "channel": 6
      },
      {
        "type": "note_on",
        "time": 0,
        "note": 43,
        "velocity": 100,
        "channel": 6
      },
      {
        "type": "note_on",
        "time": 360,
        "note": 43,
        "velocity": 0,
        "channel": 6
      },
      {
        "type": "note_on",
        "time": 0,
        "note": 52,
        "velocity": 100,
        "channel": 6
      },
      {
        "type": "note_on",
        "time": 90,
        "note": 52,
        "velocity": 0,
        "channel": 6
      },
      {
        "type": "note_on",
        "time": 30,
        "note": 52,
        "velocity": 100,
        "channel": 6
      },
      {
        "type": "note_on",
        "time": 90,
        "note": 52,
        "velocity": 0,
        "channel": 6
      },
      {
        "type": "note_on",
        "time": 270,
        "note": 50,
        "velocity": 100,
        "channel": 6
      },
      {
        "type": "note_on",
        "time": 60,
        "note": 50,
        "velocity": 0,
        "channel": 6
      },
      {
        "type": "note_on",
        "time": 0,
        "note": 45,
        "velocity": 100,
        "channel": 6
      },
      {
        "type": "note_on",
        "time": 60,
        "note": 45,
        "velocity": 0,
        "channel": 6
      },
      {
        "type": "note_on",
        "time": 0,
        "note": 50,
        "velocity": 100,
        "channel": 6
      },
      {
        "type": "note_on",
        "time": 90,
        "note": 50,
        "velocity": 0,
        "channel": 6
      },
      {
        "type": "note_on",
        "time": 270,
        "note": 47,
        "velocity": 100,
        "channel": 6
      },
      {
        "type": "note_on",
        "time": 60,
        "note": 47,
        "velocity": 0,
        "channel": 6
      },
      {
        "type": "note_on",
        "time": 0,
        "note": 42,
        "velocity": 100,
        "channel": 6
      },
      {
        "type": "note_on",
        "time": 60,
        "note": 42,
        "velocity": 0,
        "channel": 6
      },
      {
        "type": "note_on",
        "time": 0,
        "note": 47,
        "velocity": 100,
        "channel": 6
      },
      {
        "type": "note_on",
        "time": 90,
        "note": 47,
        "velocity": 0,
        "channel": 6
      },
      {
        "type": "note_on",
        "time": 270,
        "note": 50,
        "velocity": 100,
        "channel": 6
      },
      {
        "type": "note_on",
        "time": 60,
        "note": 50,
        "velocity": 0,
        "channel": 6
      },
      {
        "type": "note_on",
        "time": 0,
        "note": 48,
        "velocity": 100,
        "channel": 6
      },
      {
        "type": "note_on",
        "time": 45,
        "note": 48,
        "velocity": 0,
        "channel": 6
      },
      {
        "type": "note_on",
        "time": 15,
        "note": 48,
        "velocity": 100,
        "channel": 6
      },
      {
        "type": "note_on",
        "time": 90,
        "note": 48,
        "velocity": 0,
        "channel": 6
      },
      {
        "type": "note_on",
        "time": 270,
        "note": 47,
        "velocity": 100,
        "channel": 6
      },
      {
        "type": "note_on",
        "time": 60,
        "note": 47,
        "velocity": 0,
        "channel": 6
      },
      {
        "type": "note_on",
        "time": 0,
        "note": 47,
        "velocity": 100,
        "channel": 6
      },
      {
        "type": "note_on",
        "time": 60,
        "note": 47,
        "velocity": 0,
        "channel": 6
      },
      {
        "type": "note_on",
        "time": 0,
        "note": 47,
        "velocity": 100,
        "channel": 6
      },
      {
        "type": "note_on",
        "time": 105,
        "note": 47,
        "velocity": 0,
        "channel": 6
      },
      {
        "type": "note_on",
        "time": 255,
        "note": 45,
        "velocity": 100,
        "channel": 6
      },
      {
        "type": "note_on",
        "time": 60,
        "note": 45,
        "velocity": 0,
        "channel": 6
      },
      {
        "type": "note_on",
        "time": 0,
        "note": 45,
        "velocity": 100,
        "channel": 6
      },
      {
        "type": "note_on",
        "time": 60,
        "note": 45,
        "velocity": 0,
        "channel": 6
      },
      {
        "type": "note_on",
        "time": 0,
        "note": 45,
        "velocity": 100,
        "channel": 6
      },
      {
        "type": "note_on",
        "time": 90,
        "note": 45,
        "velocity": 0,
        "channel": 6
      },
      {
        "type": "note_on",
        "time": 210,
        "note": 42,
        "velocity": 100,
        "channel": 6
      },
      {
        "type": "note_on",
        "time": 60,
        "note": 42,
        "velocity": 0,
        "channel": 6
      },
      {
        "type": "note_on",
        "time": 0,
        "note": 47,
        "velocity": 100,
        "channel": 6
      },
      {
        "type": "note_on",
        "time": 60,
        "note": 47,
        "velocity": 0,
        "channel": 6
      },
      {
        "type": "note_on",
        "time": 0,
        "note": 47,
        "velocity": 100,
        "channel": 6
      },
      {
        "type": "note_on",
        "time": 60,
        "note": 47,
        "velocity": 0,
        "channel": 6
      },
      {
        "type": "note_on",
        "time": 0,
        "note": 47,
        "velocity": 100,
        "channel": 6
      },
      {
        "type": "note_on",
        "time": 90,
        "note": 47,
        "velocity": 0,
        "channel": 6
      },
      {
        "type": "note_on",
        "time": 210,
        "note": 47,
        "velocity": 100,
        "channel": 6
      },
      {
        "type": "note_on",
        "time": 60,
        "note": 47,
        "velocity": 0,
        "channel": 6
      },
      {
        "type": "note_on",
        "time": 0,
        "note": 48,
        "velocity": 100,
        "channel": 6
      },
      {
        "type": "note_on",
        "time": 60,
        "note": 48,
        "velocity": 0,
        "channel": 6
      },
      {
        "type": "note_on",
        "time": 0,
        "note": 50,
        "velocity": 100,
        "channel": 6
      },
      {
        "type": "note_on",
        "time": 60,
        "note": 50,
        "velocity": 0,
        "channel": 6
      },
      {
        "type": "note_on",
        "time": 0,
        "note": 48,
        "velocity": 100,
        "channel": 6
      },
      {
        "type": "note_on",
        "time": 90,
        "note": 48,
        "velocity": 0,
        "channel": 6
      },
      {
        "type": "note_on",
        "time": 270,
        "note": 52,
        "velocity": 100,
        "channel": 6
      },
      {
        "type": "note_on",
        "time": 90,
        "note": 52,
        "velocity": 0,
        "channel": 6
      },
      {
        "type": "note_on",
        "time": 30,
        "note": 52,
        "velocity": 100,
        "channel": 6
      },
      {
        "type": "note_on",
        "time": 90,
        "note": 52,
        "velocity": 0,
        "channel": 6
      },
      {
        "type": "note_on",
        "time": 270,
        "note": 50,
        "velocity": 100,
        "channel": 6
      },
      {
        "type": "note_on",
        "time": 60,
        "note": 50,
        "velocity": 0,
        "channel": 6
      },
      {
        "type": "note_on",
        "time": 0,
        "note": 45,
        "velocity": 100,
        "channel": 6
      },
      {
        "type": "note_on",
        "time": 60,
        "note": 45,
        "velocity": 0,
        "channel": 6
      },
      {
        "type": "note_on",
        "time": 0,
        "note": 50,
        "velocity": 100,
        "channel": 6
      },
      {
        "type": "note_on",
        "time": 90,
        "note": 50,
        "velocity": 0,
        "channel": 6
      },
      {
        "type": "note_on",
        "time": 270,
        "note": 47,
        "velocity": 100,
        "channel": 6
      },
      {
        "type": "note_on",
        "time": 60,
        "note": 47,
        "velocity": 0,
        "channel": 6
      },
      {
        "type": "note_on",
        "time": 0,
        "note": 42,
        "velocity": 100,
        "channel": 6
      },
      {
        "type": "note_on",
        "time": 60,
        "note": 42,
        "velocity": 0,
        "channel": 6
      },
      {
        "type": "note_on",
        "time": 0,
        "note": 47,
        "velocity": 100,
        "channel": 6
      },
      {
        "type": "note_on",
        "time": 90,
        "note": 47,
        "velocity": 0,
        "channel": 6
      },
      {
        "type": "note_on",
        "time": 270,
        "note": 50,
        "velocity": 100,
        "channel": 6
      },
      {
        "type": "note_on",
        "time": 60,
        "note": 50,
        "velocity": 0,
        "channel": 6
      },
      {
        "type": "note_on",
        "time": 0,
        "note": 48,
        "velocity": 100,
        "channel": 6
      },
      {
        "type": "note_on",
        "time": 45,
        "note": 48,
        "velocity": 0,
        "channel": 6
      },
      {
        "type": "note_on",
        "time": 15,
        "note": 48,
        "velocity": 100,
        "channel": 6
      },
      {
        "type": "note_on",
        "time": 90,
        "note": 48,
        "velocity": 0,
        "channel": 6
      },
      {
        "type": "note_on",
        "time": 270,
        "note": 47,
        "velocity": 100,
        "channel": 6
      },
      {
        "type": "note_on",
        "time": 60,
        "note": 47,
        "velocity": 0,
        "channel": 6
      },
      {
        "type": "note_on",
        "time": 0,
        "note": 47,
        "velocity": 100,
        "channel": 6
      },
      {
        "type": "note_on",
        "time": 60,
        "note": 47,
        "velocity": 0,
        "channel": 6
      },
      {
        "type": "note_on",
        "time": 0,
        "note": 47,
        "velocity": 100,
        "channel": 6
      },
      {
        "type": "note_on",
        "time": 105,
        "note": 47,
        "velocity": 0,
        "channel": 6
      },
      {
        "type": "note_on",
        "time": 255,
        "note": 45,
        "velocity": 100,
        "channel": 6
      },
      {
        "type": "note_on",
        "time": 60,
        "note": 45,
        "velocity": 0,
        "channel": 6
      },
      {
        "type": "note_on",
        "time": 0,
        "note": 45,
        "velocity": 100,
        "channel": 6
      },
      {
        "type": "note_on",
        "time": 60,
        "note": 45,
        "velocity": 0,
        "channel": 6
      },
      {
        "type": "note_on",
        "time": 0,
        "note": 45,
        "velocity": 100,
        "channel": 6
      },
      {
        "type": "note_on",
        "time": 90,
        "note": 45,
        "velocity": 0,
        "channel": 6
      },
      {
        "type": "note_on",
        "time": 210,
        "note": 42,
        "velocity": 100,
        "channel": 6
      },
      {
        "type": "note_on",
        "time": 60,
        "note": 42,
        "velocity": 0,
        "channel": 6
      },
      {
        "type": "note_on",
        "time": 0,
        "note": 47,
        "velocity": 100,
        "channel": 6
      },
      {
        "type": "note_on",
        "time": 60,
        "note": 47,
        "velocity": 0,
        "channel": 6
      },
      {
        "type": "note_on",
        "time": 0,
        "note": 47,
        "velocity": 100,
        "channel": 6
      },
      {
        "type": "note_on",
        "time": 60,
        "note": 47,
        "velocity": 0,
        "channel": 6
      },
      {
        "type": "note_on",
        "time": 0,
        "note": 47,
        "velocity": 100,
        "channel": 6
      },
      {
        "type": "note_on",
        "time": 90,
        "note": 47,
        "velocity": 0,
        "channel": 6
      },
      {
        "type": "note_on",
        "time": 210,
        "note": 47,
        "velocity": 100,
        "channel": 6
      },
      {
        "type": "note_on",
        "time": 60,
        "note": 47,
        "velocity": 0,
        "channel": 6
      },
      {
        "type": "note_on",
        "time": 0,
        "note": 48,
        "velocity": 100,
        "channel": 6
      },
      {
        "type": "note_on",
        "time": 60,
        "note": 48,
        "velocity": 0,
        "channel": 6
      },
      {
        "type": "note_on",
        "time": 0,
        "note": 50,
        "velocity": 100,
        "channel": 6
      },
      {
        "type": "note_on",
        "time": 60,
        "note": 50,
        "velocity": 0,
        "channel": 6
      },
      {
        "type": "note_on",
        "time": 0,
        "note": 48,
        "velocity": 100,
        "channel": 6
      },
      {
        "type": "note_on",
        "time": 60,
        "note": 48,
        "velocity": 0,
        "channel": 6
      },
      {
        "type": "note_on",
        "time": 0,
        "note": 48,
        "velocity": 100,
        "channel": 6
      },
      {
        "type": "note_on",
        "time": 60,
        "note": 48,
        "velocity": 0,
        "channel": 6
      },
      {
        "type": "note_on",
        "time": 0,
        "note": 48,
        "velocity": 100,
        "channel": 6
      },
      {
        "type": "note_on",
        "time": 60,
        "note": 48,
        "velocity": 0,
        "channel": 6
      },
      {
        "type": "note_on",
        "time": 0,
        "note": 48,
        "velocity": 100,
        "channel": 6
      },
      {
        "type": "note_on",
        "time": 60,
        "note": 48,
        "velocity": 0,
        "channel": 6
      },
      {
        "type": "note_on",
        "time": 0,
        "note": 48,
        "velocity": 100,
        "channel": 6
      },
      {
        "type": "note_on",
        "time": 60,
        "note": 48,
        "velocity": 0,
        "channel": 6
      },
      {
        "type": "note_on",
        "time": 0,
        "note": 50,
        "velocity": 100,
        "channel": 6
      },
      {
        "type": "note_on",
        "time": 60,
        "note": 50,
        "velocity": 0,
        "channel": 6
      },
      {
        "type": "note_on",
        "time": 0,
        "note": 52,
        "velocity": 100,
        "channel": 6
      },
      {
        "type": "note_on",
        "time": 30,
        "note": 52,
        "velocity": 0,
        "channel": 6
      },
      {
        "type": "note_on",
        "time": 0,
        "note": 47,
        "velocity": 100,
        "channel": 6
      },
      {
        "type": "note_on",
        "time": 30,
        "note": 47,
        "velocity": 0,
        "channel": 6
      },
      {
        "type": "note_on",
        "time": 0,
        "note": 50,
        "velocity": 100,
        "channel": 6
      },
      {
        "type": "note_on",
        "time": 45,
        "note": 50,
        "velocity": 0,
        "channel": 6
      },
      {
        "type": "note_on",
        "time": 15,
        "note": 52,
        "velocity": 100,
        "channel": 6
      },
      {
        "type": "note_on",
        "time": 45,
        "note": 52,
        "velocity": 0,
        "channel": 6
      },
      {
        "type": "note_on",
        "time": 15,
        "note": 47,
        "velocity": 100,
        "channel": 6
      },
      {
        "type": "note_on",
        "time": 30,
        "note": 47,
        "velocity": 0,
        "channel": 6
      },
      {
        "type": "note_on",
        "time": 0,
        "note": 47,
        "velocity": 100,
        "channel": 6
      },
      {
        "type": "note_on",
        "time": 30,
        "note": 47,
        "velocity": 0,
        "channel": 6
      },
      {
        "type": "note_on",
        "time": 0,
        "note": 47,
        "velocity": 100,
        "channel": 6
      },
      {
        "type": "note_on",
        "time": 30,
        "note": 47,
        "velocity": 0,
        "channel": 6
      },
      {
        "type": "note_on",
        "time": 0,
        "note": 50,
        "velocity": 100,
        "channel": 6
      },
      {
        "type": "note_on",
        "time": 45,
        "note": 50,
        "velocity": 0,
        "channel": 6
      },
      {
        "type": "note_on",
        "time": 15,
        "note": 52,
        "velocity": 100,
        "channel": 6
      },
      {
        "type": "note_on",
        "time": 60,
        "note": 52,
        "velocity": 0,
        "channel": 6
      },
      {
        "type": "note_on",
        "time": 0,
        "note": 47,
        "velocity": 100,
        "channel": 6
      },
      {
        "type": "note_on",
        "time": 30,
        "note": 47,
        "velocity": 0,
        "channel": 6
      },
      {
        "type": "note_on",
        "time": 0,
        "note": 52,
        "velocity": 100,
        "channel": 6
      },
      {
        "type": "note_on",
        "time": 30,
        "note": 52,
        "velocity": 0,
        "channel": 6
      },
      {
        "type": "note_on",
        "time": 0,
        "note": 47,
        "velocity": 100,
        "channel": 6
      },
      {
        "type": "note_on",
        "time": 30,
        "note": 47,
        "velocity": 0,
        "channel": 6
      },
      {
        "type": "note_on",
        "time": 0,
        "note": 50,
        "velocity": 100,
        "channel": 6
      },
      {
        "type": "note_on",
        "time": 30,
        "note": 50,
        "velocity": 0,
        "channel": 6
      },
      {
        "type": "note_on",
        "time": 0,
        "note": 45,
        "velocity": 100,
        "channel": 6
      },
      {
        "type": "note_on",
        "time": 30,
        "note": 45,
        "velocity": 0,
        "channel": 6
      },
      {
        "type": "note_on",
        "time": 0,
        "note": 50,
        "velocity": 100,
        "channel": 6
      },
      {
        "type": "note_on",
        "time": 45,
        "note": 50,
        "velocity": 0,
        "channel": 6
      },
      {
        "type": "note_on",
        "time": 15,
        "note": 52,
        "velocity": 100,
        "channel": 6
      },
      {
        "type": "note_on",
        "time": 45,
        "note": 52,
        "velocity": 0,
        "channel": 6
      },
      {
        "type": "note_on",
        "time": 15,
        "note": 45,
        "velocity": 100,
        "channel": 6
      },
      {
        "type": "note_on",
        "time": 30,
        "note": 45,
        "velocity": 0,
        "channel": 6
      },
      {
        "type": "note_on",
        "time": 0,
        "note": 45,
        "velocity": 100,
        "channel": 6
      },
      {
        "type": "note_on",
        "time": 30,
        "note": 45,
        "velocity": 0,
        "channel": 6
      },
      {
        "type": "note_on",
        "time": 0,
        "note": 45,
        "velocity": 100,
        "channel": 6
      },
      {
        "type": "note_on",
        "time": 30,
        "note": 45,
        "velocity": 0,
        "channel": 6
      },
      {
        "type": "note_on",
        "time": 0,
        "note": 50,
        "velocity": 100,
        "channel": 6
      },
      {
        "type": "note_on",
        "time": 45,
        "note": 50,
        "velocity": 0,
        "channel": 6
      },
      {
        "type": "note_on",
        "time": 15,
        "note": 52,
        "velocity": 100,
        "channel": 6
      },
      {
        "type": "note_on",
        "time": 30,
        "note": 47,
        "velocity": 100,
        "channel": 6
      },
      {
        "type": "note_on",
        "time": 15,
        "note": 52,
        "velocity": 0,
        "channel": 6
      },
      {
        "type": "note_on",
        "time": 15,
        "note": 47,
        "velocity": 0,
        "channel": 6
      },
      {
        "type": "note_on",
        "time": 0,
        "note": 50,
        "velocity": 100,
        "channel": 6
      },
      {
        "type": "note_on",
        "time": 30,
        "note": 50,
        "velocity": 0,
        "channel": 6
      },
      {
        "type": "note_on",
        "time": 0,
        "note": 47,
        "velocity": 100,
        "channel": 6
      },
      {
        "type": "note_on",
        "time": 45,
        "note": 47,
        "velocity": 0,
        "channel": 6
      },
      {
        "type": "note_on",
        "time": 15,
        "note": 42,
        "velocity": 100,
        "channel": 6
      },
      {
        "type": "note_on",
        "time": 30,
        "note": 42,
        "velocity": 0,
        "channel": 6
      },
      {
        "type": "note_on",
        "time": 0,
        "note": 42,
        "velocity": 100,
        "channel": 6
      },
      {
        "type": "note_on",
        "time": 30,
        "note": 42,
        "velocity": 0,
        "channel": 6
      },
      {
        "type": "note_on",
        "time": 0,
        "note": 47,
        "velocity": 100,
        "channel": 6
      },
      {
        "type": "note_on",
        "time": 45,
        "note": 47,
        "velocity": 0,
        "channel": 6
      },
      {
        "type": "note_on",
        "time": 15,
        "note": 47,
        "velocity": 100,
        "channel": 6
      },
      {
        "type": "note_on",
        "time": 45,
        "note": 47,
        "velocity": 0,
        "channel": 6
      },
      {
        "type": "note_on",
        "time": 15,
        "note": 42,
        "velocity": 100,
        "channel": 6
      },
      {
        "type": "note_on",
        "time": 30,
        "note": 42,
        "velocity": 0,
        "channel": 6
      },
      {
        "type": "note_on",
        "time": 0,
        "note": 45,
        "velocity": 100,
        "channel": 6
      },
      {
        "type": "note_on",
        "time": 30,
        "note": 45,
        "velocity": 0,
        "channel": 6
      },
      {
        "type": "note_on",
        "time": 0,
        "note": 42,
        "velocity": 100,
        "channel": 6
      },
      {
        "type": "note_on",
        "time": 30,
        "note": 42,
        "velocity": 0,
        "channel": 6
      },
      {
        "type": "note_on",
        "time": 0,
        "note": 47,
        "velocity": 100,
        "channel": 6
      },
      {
        "type": "note_on",
        "time": 45,
        "note": 47,
        "velocity": 0,
        "channel": 6
      },
      {
        "type": "note_on",
        "time": 15,
        "note": 47,
        "velocity": 100,
        "channel": 6
      },
      {
        "type": "note_on",
        "time": 45,
        "note": 47,
        "velocity": 0,
        "channel": 6
      },
      {
        "type": "note_on",
        "time": 15,
        "note": 42,
        "velocity": 100,
        "channel": 6
      },
      {
        "type": "note_on",
        "time": 30,
        "note": 42,
        "velocity": 0,
        "channel": 6
      },
      {
        "type": "note_on",
        "time": 0,
        "note": 47,
        "velocity": 100,
        "channel": 6
      },
      {
        "type": "note_on",
        "time": 30,
        "note": 47,
        "velocity": 0,
        "channel": 6
      },
      {
        "type": "note_on",
        "time": 0,
        "note": 42,
        "velocity": 100,
        "channel": 6
      },
      {
        "type": "note_on",
        "time": 30,
        "note": 42,
        "velocity": 0,
        "channel": 6
      },
      {
        "type": "note_on",
        "time": 0,
        "note": 43,
        "velocity": 100,
        "channel": 6
      },
      {
        "type": "note_on",
        "time": 30,
        "note": 43,
        "velocity": 0,
        "channel": 6
      },
      {
        "type": "note_on",
        "time": 0,
        "note": 43,
        "velocity": 100,
        "channel": 6
      },
      {
        "type": "note_on",
        "time": 30,
        "note": 43,
        "velocity": 0,
        "channel": 6
      },
      {
        "type": "note_on",
        "time": 0,
        "note": 48,
        "velocity": 100,
        "channel": 6
      },
      {
        "type": "note_on",
        "time": 45,
        "note": 48,
        "velocity": 0,
        "channel": 6
      },
      {
        "type": "note_on",
        "time": 15,
        "note": 48,
        "velocity": 100,
        "channel": 6
      },
      {
        "type": "note_on",
        "time": 45,
        "note": 48,
        "velocity": 0,
        "channel": 6
      },
      {
        "type": "note_on",
        "time": 15,
        "note": 43,
        "velocity": 100,
        "channel": 6
      },
      {
        "type": "note_on",
        "time": 30,
        "note": 43,
        "velocity": 0,
        "channel": 6
      },
      {
        "type": "note_on",
        "time": 0,
        "note": 43,
        "velocity": 100,
        "channel": 6
      },
      {
        "type": "note_on",
        "time": 30,
        "note": 43,
        "velocity": 0,
        "channel": 6
      },
      {
        "type": "note_on",
        "time": 0,
        "note": 47,
        "velocity": 100,
        "channel": 6
      },
      {
        "type": "note_on",
        "time": 30,
        "note": 47,
        "velocity": 0,
        "channel": 6
      },
      {
        "type": "note_on",
        "time": 0,
        "note": 50,
        "velocity": 100,
        "channel": 6
      },
      {
        "type": "note_on",
        "time": 30,
        "note": 50,
        "velocity": 0,
        "channel": 6
      },
      {
        "type": "note_on",
        "time": 0,
        "note": 50,
        "velocity": 100,
        "channel": 6
      },
      {
        "type": "note_on",
        "time": 30,
        "note": 50,
        "velocity": 0,
        "channel": 6
      },
      {
        "type": "note_on",
        "time": 0,
        "note": 47,
        "velocity": 100,
        "channel": 6
      },
      {
        "type": "note_on",
        "time": 30,
        "note": 47,
        "velocity": 0,
        "channel": 6
      },
      {
        "type": "note_on",
        "time": 0,
        "note": 50,
        "velocity": 100,
        "channel": 6
      },
      {
        "type": "note_on",
        "time": 30,
        "note": 50,
        "velocity": 0,
        "channel": 6
      },
      {
        "type": "note_on",
        "time": 0,
        "note": 47,
        "velocity": 100,
        "channel": 6
      },
      {
        "type": "note_on",
        "time": 30,
        "note": 47,
        "velocity": 0,
        "channel": 6
      },
      {
        "type": "note_on",
        "time": 0,
        "note": 50,
        "velocity": 100,
        "channel": 6
      },
      {
        "type": "note_on",
        "time": 30,
        "note": 50,
        "velocity": 0,
        "channel": 6
      },
      {
        "type": "note_on",
        "time": 0,
        "note": 47,
        "velocity": 100,
        "channel": 6
      },
      {
        "type": "note_on",
        "time": 30,
        "note": 47,
        "velocity": 0,
        "channel": 6
      },
      {
        "type": "note_on",
        "time": 0,
        "note": 52,
        "velocity": 100,
        "channel": 6
      },
      {
        "type": "note_on",
        "time": 30,
        "note": 52,
        "velocity": 0,
        "channel": 6
      },
      {
        "type": "note_on",
        "time": 0,
        "note": 47,
        "velocity": 100,
        "channel": 6
      },
      {
        "type": "note_on",
        "time": 30,
        "note": 47,
        "velocity": 0,
        "channel": 6
      },
      {
        "type": "note_on",
        "time": 0,
        "note": 50,
        "velocity": 100,
        "channel": 6
      },
      {
        "type": "note_on",
        "time": 45,
        "note": 50,
        "velocity": 0,
        "channel": 6
      },
      {
        "type": "note_on",
        "time": 15,
        "note": 52,
        "velocity": 100,
        "channel": 6
      },
      {
        "type": "note_on",
        "time": 45,
        "note": 52,
        "velocity": 0,
        "channel": 6
      },
      {
        "type": "note_on",
        "time": 15,
        "note": 47,
        "velocity": 100,
        "channel": 6
      },
      {
        "type": "note_on",
        "time": 30,
        "note": 47,
        "velocity": 0,
        "channel": 6
      },
      {
        "type": "note_on",
        "time": 0,
        "note": 47,
        "velocity": 100,
        "channel": 6
      },
      {
        "type": "note_on",
        "time": 30,
        "note": 47,
        "velocity": 0,
        "channel": 6
      },
      {
        "type": "note_on",
        "time": 0,
        "note": 47,
        "velocity": 100,
        "channel": 6
      },
      {
        "type": "note_on",
        "time": 30,
        "note": 47,
        "velocity": 0,
        "channel": 6
      },
      {
        "type": "note_on",
        "time": 0,
        "note": 50,
        "velocity": 100,
        "channel": 6
      },
      {
        "type": "note_on",
        "time": 45,
        "note": 50,
        "velocity": 0,
        "channel": 6
      },
      {
        "type": "note_on",
        "time": 15,
        "note": 52,
        "velocity": 100,
        "channel": 6
      },
      {
        "type": "note_on",
        "time": 60,
        "note": 52,
        "velocity": 0,
        "channel": 6
      },
      {
        "type": "note_on",
        "time": 0,
        "note": 47,
        "velocity": 100,
        "channel": 6
      },
      {
        "type": "note_on",
        "time": 30,
        "note": 47,
        "velocity": 0,
        "channel": 6
      },
      {
        "type": "note_on",
        "time": 0,
        "note": 52,
        "velocity": 100,
        "channel": 6
      },
      {
        "type": "note_on",
        "time": 30,
        "note": 52,
        "velocity": 0,
        "channel": 6
      },
      {
        "type": "note_on",
        "time": 0,
        "note": 47,
        "velocity": 100,
        "channel": 6
      },
      {
        "type": "note_on",
        "time": 30,
        "note": 47,
        "velocity": 0,
        "channel": 6
      },
      {
        "type": "note_on",
        "time": 0,
        "note": 50,
        "velocity": 100,
        "channel": 6
      },
      {
        "type": "note_on",
        "time": 30,
        "note": 50,
        "velocity": 0,
        "channel": 6
      },
      {
        "type": "note_on",
        "time": 0,
        "note": 45,
        "velocity": 100,
        "channel": 6
      },
      {
        "type": "note_on",
        "time": 30,
        "note": 45,
        "velocity": 0,
        "channel": 6
      },
      {
        "type": "note_on",
        "time": 0,
        "note": 50,
        "velocity": 100,
        "channel": 6
      },
      {
        "type": "note_on",
        "time": 45,
        "note": 50,
        "velocity": 0,
        "channel": 6
      },
      {
        "type": "note_on",
        "time": 15,
        "note": 52,
        "velocity": 100,
        "channel": 6
      },
      {
        "type": "note_on",
        "time": 45,
        "note": 52,
        "velocity": 0,
        "channel": 6
      },
      {
        "type": "note_on",
        "time": 15,
        "note": 45,
        "velocity": 100,
        "channel": 6
      },
      {
        "type": "note_on",
        "time": 30,
        "note": 45,
        "velocity": 0,
        "channel": 6
      },
      {
        "type": "note_on",
        "time": 0,
        "note": 45,
        "velocity": 100,
        "channel": 6
      },
      {
        "type": "note_on",
        "time": 30,
        "note": 45,
        "velocity": 0,
        "channel": 6
      },
      {
        "type": "note_on",
        "time": 0,
        "note": 45,
        "velocity": 100,
        "channel": 6
      },
      {
        "type": "note_on",
        "time": 30,
        "note": 45,
        "velocity": 0,
        "channel": 6
      },
      {
        "type": "note_on",
        "time": 0,
        "note": 50,
        "velocity": 100,
        "channel": 6
      },
      {
        "type": "note_on",
        "time": 45,
        "note": 50,
        "velocity": 0,
        "channel": 6
      },
      {
        "type": "note_on",
        "time": 15,
        "note": 52,
        "velocity": 100,
        "channel": 6
      },
      {
        "type": "note_on",
        "time": 30,
        "note": 47,
        "velocity": 100,
        "channel": 6
      },
      {
        "type": "note_on",
        "time": 15,
        "note": 52,
        "velocity": 0,
        "channel": 6
      },
      {
        "type": "note_on",
        "time": 15,
        "note": 47,
        "velocity": 0,
        "channel": 6
      },
      {
        "type": "note_on",
        "time": 0,
        "note": 50,
        "velocity": 100,
        "channel": 6
      },
      {
        "type": "note_on",
        "time": 30,
        "note": 50,
        "velocity": 0,
        "channel": 6
      },
      {
        "type": "note_on",
        "time": 0,
        "note": 47,
        "velocity": 100,
        "channel": 6
      },
      {
        "type": "note_on",
        "time": 45,
        "note": 47,
        "velocity": 0,
        "channel": 6
      },
      {
        "type": "note_on",
        "time": 15,
        "note": 42,
        "velocity": 100,
        "channel": 6
      },
      {
        "type": "note_on",
        "time": 30,
        "note": 42,
        "velocity": 0,
        "channel": 6
      },
      {
        "type": "note_on",
        "time": 0,
        "note": 42,
        "velocity": 100,
        "channel": 6
      },
      {
        "type": "note_on",
        "time": 30,
        "note": 42,
        "velocity": 0,
        "channel": 6
      },
      {
        "type": "note_on",
        "time": 0,
        "note": 47,
        "velocity": 100,
        "channel": 6
      },
      {
        "type": "note_on",
        "time": 45,
        "note": 47,
        "velocity": 0,
        "channel": 6
      },
      {
        "type": "note_on",
        "time": 15,
        "note": 47,
        "velocity": 100,
        "channel": 6
      },
      {
        "type": "note_on",
        "time": 45,
        "note": 47,
        "velocity": 0,
        "channel": 6
      },
      {
        "type": "note_on",
        "time": 15,
        "note": 42,
        "velocity": 100,
        "channel": 6
      },
      {
        "type": "note_on",
        "time": 30,
        "note": 42,
        "velocity": 0,
        "channel": 6
      },
      {
        "type": "note_on",
        "time": 0,
        "note": 45,
        "velocity": 100,
        "channel": 6
      },
      {
        "type": "note_on",
        "time": 30,
        "note": 45,
        "velocity": 0,
        "channel": 6
      },
      {
        "type": "note_on",
        "time": 0,
        "note": 42,
        "velocity": 100,
        "channel": 6
      },
      {
        "type": "note_on",
        "time": 30,
        "note": 42,
        "velocity": 0,
        "channel": 6
      },
      {
        "type": "note_on",
        "time": 0,
        "note": 47,
        "velocity": 100,
        "channel": 6
      },
      {
        "type": "note_on",
        "time": 45,
        "note": 47,
        "velocity": 0,
        "channel": 6
      },
      {
        "type": "note_on",
        "time": 15,
        "note": 47,
        "velocity": 100,
        "channel": 6
      },
      {
        "type": "note_on",
        "time": 45,
        "note": 47,
        "velocity": 0,
        "channel": 6
      },
      {
        "type": "note_on",
        "time": 15,
        "note": 42,
        "velocity": 100,
        "channel": 6
      },
      {
        "type": "note_on",
        "time": 30,
        "note": 42,
        "velocity": 0,
        "channel": 6
      },
      {
        "type": "note_on",
        "time": 0,
        "note": 47,
        "velocity": 100,
        "channel": 6
      },
      {
        "type": "note_on",
        "time": 30,
        "note": 47,
        "velocity": 0,
        "channel": 6
      },
      {
        "type": "note_on",
        "time": 0,
        "note": 42,
        "velocity": 100,
        "channel": 6
      },
      {
        "type": "note_on",
        "time": 30,
        "note": 42,
        "velocity": 0,
        "channel": 6
      },
      {
        "type": "note_on",
        "time": 0,
        "note": 43,
        "velocity": 100,
        "channel": 6
      },
      {
        "type": "note_on",
        "time": 30,
        "note": 43,
        "velocity": 0,
        "channel": 6
      },
      {
        "type": "note_on",
        "time": 0,
        "note": 43,
        "velocity": 100,
        "channel": 6
      },
      {
        "type": "note_on",
        "time": 30,
        "note": 43,
        "velocity": 0,
        "channel": 6
      },
      {
        "type": "note_on",
        "time": 0,
        "note": 48,
        "velocity": 100,
        "channel": 6
      },
      {
        "type": "note_on",
        "time": 45,
        "note": 48,
        "velocity": 0,
        "channel": 6
      },
      {
        "type": "note_on",
        "time": 15,
        "note": 48,
        "velocity": 100,
        "channel": 6
      },
      {
        "type": "note_on",
        "time": 45,
        "note": 48,
        "velocity": 0,
        "channel": 6
      },
      {
        "type": "note_on",
        "time": 15,
        "note": 43,
        "velocity": 100,
        "channel": 6
      },
      {
        "type": "note_on",
        "time": 30,
        "note": 43,
        "velocity": 0,
        "channel": 6
      },
      {
        "type": "note_on",
        "time": 0,
        "note": 43,
        "velocity": 100,
        "channel": 6
      },
      {
        "type": "note_on",
        "time": 30,
        "note": 43,
        "velocity": 0,
        "channel": 6
      },
      {
        "type": "note_on",
        "time": 0,
        "note": 41,
        "velocity": 100,
        "channel": 6
      },
      {
        "type": "note_on",
        "time": 30,
        "note": 41,
        "velocity": 0,
        "channel": 6
      },
      {
        "type": "note_on",
        "time": 0,
        "note": 48,
        "velocity": 100,
        "channel": 6
      },
      {
        "type": "note_on",
        "time": 45,
        "note": 48,
        "velocity": 0,
        "channel": 6
      },
      {
        "type": "note_on",
        "time": 15,
        "note": 48,
        "velocity": 100,
        "channel": 6
      },
      {
        "type": "note_on",
        "time": 45,
        "note": 48,
        "velocity": 0,
        "channel": 6
      },
      {
        "type": "note_on",
        "time": 15,
        "note": 43,
        "velocity": 100,
        "channel": 6
      },
      {
        "type": "note_on",
        "time": 30,
        "note": 43,
        "velocity": 0,
        "channel": 6
      },
      {
        "type": "note_on",
        "time": 0,
        "note": 45,
        "velocity": 100,
        "channel": 6
      },
      {
        "type": "note_on",
        "time": 30,
        "note": 45,
        "velocity": 0,
        "channel": 6
      },
      {
        "type": "note_on",
        "time": 0,
        "note": 43,
        "velocity": 100,
        "channel": 6
      },
      {
        "type": "note_on",
        "time": 30,
        "note": 43,
        "velocity": 0,
        "channel": 6
      },
      {
        "type": "note_on",
        "time": 0,
        "note": 52,
        "velocity": 100,
        "channel": 6
      },
      {
        "type": "note_on",
        "time": 30,
        "note": 52,
        "velocity": 0,
        "channel": 6
      },
      {
        "type": "note_on",
        "time": 0,
        "note": 47,
        "velocity": 100,
        "channel": 6
      },
      {
        "type": "note_on",
        "time": 30,
        "note": 47,
        "velocity": 0,
        "channel": 6
      },
      {
        "type": "note_on",
        "time": 0,
        "note": 50,
        "velocity": 100,
        "channel": 6
      },
      {
        "type": "note_on",
        "time": 45,
        "note": 50,
        "velocity": 0,
        "channel": 6
      },
      {
        "type": "note_on",
        "time": 15,
        "note": 52,
        "velocity": 100,
        "channel": 6
      },
      {
        "type": "note_on",
        "time": 45,
        "note": 52,
        "velocity": 0,
        "channel": 6
      },
      {
        "type": "note_on",
        "time": 15,
        "note": 47,
        "velocity": 100,
        "channel": 6
      },
      {
        "type": "note_on",
        "time": 30,
        "note": 47,
        "velocity": 0,
        "channel": 6
      },
      {
        "type": "note_on",
        "time": 0,
        "note": 47,
        "velocity": 100,
        "channel": 6
      },
      {
        "type": "note_on",
        "time": 30,
        "note": 47,
        "velocity": 0,
        "channel": 6
      },
      {
        "type": "note_on",
        "time": 0,
        "note": 47,
        "velocity": 100,
        "channel": 6
      },
      {
        "type": "note_on",
        "time": 30,
        "note": 47,
        "velocity": 0,
        "channel": 6
      },
      {
        "type": "note_on",
        "time": 0,
        "note": 50,
        "velocity": 100,
        "channel": 6
      },
      {
        "type": "note_on",
        "time": 45,
        "note": 50,
        "velocity": 0,
        "channel": 6
      },
      {
        "type": "note_on",
        "time": 15,
        "note": 52,
        "velocity": 100,
        "channel": 6
      },
      {
        "type": "note_on",
        "time": 60,
        "note": 52,
        "velocity": 0,
        "channel": 6
      },
      {
        "type": "note_on",
        "time": 0,
        "note": 47,
        "velocity": 100,
        "channel": 6
      },
      {
        "type": "note_on",
        "time": 30,
        "note": 47,
        "velocity": 0,
        "channel": 6
      },
      {
        "type": "note_on",
        "time": 0,
        "note": 52,
        "velocity": 100,
        "channel": 6
      },
      {
        "type": "note_on",
        "time": 30,
        "note": 52,
        "velocity": 0,
        "channel": 6
      },
      {
        "type": "note_on",
        "time": 0,
        "note": 47,
        "velocity": 100,
        "channel": 6
      },
      {
        "type": "note_on",
        "time": 30,
        "note": 47,
        "velocity": 0,
        "channel": 6
      },
      {
        "type": "note_on",
        "time": 0,
        "note": 50,
        "velocity": 100,
        "channel": 6
      },
      {
        "type": "note_on",
        "time": 30,
        "note": 50,
        "velocity": 0,
        "channel": 6
      },
      {
        "type": "note_on",
        "time": 0,
        "note": 45,
        "velocity": 100,
        "channel": 6
      },
      {
        "type": "note_on",
        "time": 30,
        "note": 45,
        "velocity": 0,
        "channel": 6
      },
      {
        "type": "note_on",
        "time": 0,
        "note": 50,
        "velocity": 100,
        "channel": 6
      },
      {
        "type": "note_on",
        "time": 45,
        "note": 50,
        "velocity": 0,
        "channel": 6
      },
      {
        "type": "note_on",
        "time": 15,
        "note": 52,
        "velocity": 100,
        "channel": 6
      },
      {
        "type": "note_on",
        "time": 45,
        "note": 52,
        "velocity": 0,
        "channel": 6
      },
      {
        "type": "note_on",
        "time": 15,
        "note": 45,
        "velocity": 100,
        "channel": 6
      },
      {
        "type": "note_on",
        "time": 30,
        "note": 45,
        "velocity": 0,
        "channel": 6
      },
      {
        "type": "note_on",
        "time": 0,
        "note": 45,
        "velocity": 100,
        "channel": 6
      },
      {
        "type": "note_on",
        "time": 30,
        "note": 45,
        "velocity": 0,
        "channel": 6
      },
      {
        "type": "note_on",
        "time": 0,
        "note": 45,
        "velocity": 100,
        "channel": 6
      },
      {
        "type": "note_on",
        "time": 30,
        "note": 45,
        "velocity": 0,
        "channel": 6
      },
      {
        "type": "note_on",
        "time": 0,
        "note": 50,
        "velocity": 100,
        "channel": 6
      },
      {
        "type": "note_on",
        "time": 45,
        "note": 50,
        "velocity": 0,
        "channel": 6
      },
      {
        "type": "note_on",
        "time": 15,
        "note": 52,
        "velocity": 100,
        "channel": 6
      },
      {
        "type": "note_on",
        "time": 30,
        "note": 47,
        "velocity": 100,
        "channel": 6
      },
      {
        "type": "note_on",
        "time": 15,
        "note": 52,
        "velocity": 0,
        "channel": 6
      },
      {
        "type": "note_on",
        "time": 15,
        "note": 47,
        "velocity": 0,
        "channel": 6
      },
      {
        "type": "note_on",
        "time": 0,
        "note": 50,
        "velocity": 100,
        "channel": 6
      },
      {
        "type": "note_on",
        "time": 30,
        "note": 50,
        "velocity": 0,
        "channel": 6
      },
      {
        "type": "note_on",
        "time": 0,
        "note": 47,
        "velocity": 100,
        "channel": 6
      },
      {
        "type": "note_on",
        "time": 45,
        "note": 47,
        "velocity": 0,
        "channel": 6
      },
      {
        "type": "note_on",
        "time": 15,
        "note": 42,
        "velocity": 100,
        "channel": 6
      },
      {
        "type": "note_on",
        "time": 30,
        "note": 42,
        "velocity": 0,
        "channel": 6
      },
      {
        "type": "note_on",
        "time": 0,
        "note": 42,
        "velocity": 100,
        "channel": 6
      },
      {
        "type": "note_on",
        "time": 30,
        "note": 42,
        "velocity": 0,
        "channel": 6
      },
      {
        "type": "note_on",
        "time": 0,
        "note": 47,
        "velocity": 100,
        "channel": 6
      },
      {
        "type": "note_on",
        "time": 45,
        "note": 47,
        "velocity": 0,
        "channel": 6
      },
      {
        "type": "note_on",
        "time": 15,
        "note": 47,
        "velocity": 100,
        "channel": 6
      },
      {
        "type": "note_on",
        "time": 45,
        "note": 47,
        "velocity": 0,
        "channel": 6
      },
      {
        "type": "note_on",
        "time": 15,
        "note": 42,
        "velocity": 100,
        "channel": 6
      },
      {
        "type": "note_on",
        "time": 30,
        "note": 42,
        "velocity": 0,
        "channel": 6
      },
      {
        "type": "note_on",
        "time": 0,
        "note": 45,
        "velocity": 100,
        "channel": 6
      },
      {
        "type": "note_on",
        "time": 30,
        "note": 45,
        "velocity": 0,
        "channel": 6
      },
      {
        "type": "note_on",
        "time": 0,
        "note": 42,
        "velocity": 100,
        "channel": 6
      },
      {
        "type": "note_on",
        "time": 30,
        "note": 42,
        "velocity": 0,
        "channel": 6
      },
      {
        "type": "note_on",
        "time": 0,
        "note": 47,
        "velocity": 100,
        "channel": 6
      },
      {
        "type": "note_on",
        "time": 45,
        "note": 47,
        "velocity": 0,
        "channel": 6
      },
      {
        "type": "note_on",
        "time": 15,
        "note": 47,
        "velocity": 100,
        "channel": 6
      },
      {
        "type": "note_on",
        "time": 45,
        "note": 47,
        "velocity": 0,
        "channel": 6
      },
      {
        "type": "note_on",
        "time": 15,
        "note": 42,
        "velocity": 100,
        "channel": 6
      },
      {
        "type": "note_on",
        "time": 30,
        "note": 42,
        "velocity": 0,
        "channel": 6
      },
      {
        "type": "note_on",
        "time": 0,
        "note": 47,
        "velocity": 100,
        "channel": 6
      },
      {
        "type": "note_on",
        "time": 30,
        "note": 47,
        "velocity": 0,
        "channel": 6
      },
      {
        "type": "note_on",
        "time": 0,
        "note": 42,
        "velocity": 100,
        "channel": 6
      },
      {
        "type": "note_on",
        "time": 30,
        "note": 42,
        "velocity": 0,
        "channel": 6
      },
      {
        "type": "note_on",
        "time": 0,
        "note": 43,
        "velocity": 100,
        "channel": 6
      },
      {
        "type": "note_on",
        "time": 30,
        "note": 43,
        "velocity": 0,
        "channel": 6
      },
      {
        "type": "note_on",
        "time": 0,
        "note": 43,
        "velocity": 100,
        "channel": 6
      },
      {
        "type": "note_on",
        "time": 30,
        "note": 43,
        "velocity": 0,
        "channel": 6
      },
      {
        "type": "note_on",
        "time": 0,
        "note": 48,
        "velocity": 100,
        "channel": 6
      },
      {
        "type": "note_on",
        "time": 45,
        "note": 48,
        "velocity": 0,
        "channel": 6
      },
      {
        "type": "note_on",
        "time": 15,
        "note": 48,
        "velocity": 100,
        "channel": 6
      },
      {
        "type": "note_on",
        "time": 45,
        "note": 48,
        "velocity": 0,
        "channel": 6
      },
      {
        "type": "note_on",
        "time": 15,
        "note": 43,
        "velocity": 100,
        "channel": 6
      },
      {
        "type": "note_on",
        "time": 30,
        "note": 43,
        "velocity": 0,
        "channel": 6
      },
      {
        "type": "note_on",
        "time": 0,
        "note": 43,
        "velocity": 100,
        "channel": 6
      },
      {
        "type": "note_on",
        "time": 30,
        "note": 43,
        "velocity": 0,
        "channel": 6
      },
      {
        "type": "note_on",
        "time": 0,
        "note": 41,
        "velocity": 100,
        "channel": 6
      },
      {
        "type": "note_on",
        "time": 30,
        "note": 41,
        "velocity": 0,
        "channel": 6
      },
      {
        "type": "note_on",
        "time": 0,
        "note": 48,
        "velocity": 100,
        "channel": 6
      },
      {
        "type": "note_on",
        "time": 45,
        "note": 48,
        "velocity": 0,
        "channel": 6
      },
      {
        "type": "note_on",
        "time": 15,
        "note": 48,
        "velocity": 100,
        "channel": 6
      },
      {
        "type": "note_on",
        "time": 45,
        "note": 48,
        "velocity": 0,
        "channel": 6
      },
      {
        "type": "note_on",
        "time": 15,
        "note": 43,
        "velocity": 100,
        "channel": 6
      },
      {
        "type": "note_on",
        "time": 30,
        "note": 43,
        "velocity": 0,
        "channel": 6
      },
      {
        "type": "note_on",
        "time": 0,
        "note": 45,
        "velocity": 100,
        "channel": 6
      },
      {
        "type": "note_on",
        "time": 30,
        "note": 45,
        "velocity": 0,
        "channel": 6
      },
      {
        "type": "note_on",
        "time": 0,
        "note": 43,
        "velocity": 100,
        "channel": 6
      },
      {
        "type": "note_on",
        "time": 30,
        "note": 43,
        "velocity": 0,
        "channel": 6
      },
      {
        "type": "note_on",
        "time": 0,
        "note": 52,
        "velocity": 100,
        "channel": 6
      },
      {
        "type": "note_on",
        "time": 30,
        "note": 52,
        "velocity": 0,
        "channel": 6
      },
      {
        "type": "note_on",
        "time": 0,
        "note": 47,
        "velocity": 100,
        "channel": 6
      },
      {
        "type": "note_on",
        "time": 30,
        "note": 47,
        "velocity": 0,
        "channel": 6
      },
      {
        "type": "note_on",
        "time": 0,
        "note": 50,
        "velocity": 100,
        "channel": 6
      },
      {
        "type": "note_on",
        "time": 45,
        "note": 50,
        "velocity": 0,
        "channel": 6
      },
      {
        "type": "note_on",
        "time": 15,
        "note": 52,
        "velocity": 100,
        "channel": 6
      },
      {
        "type": "note_on",
        "time": 45,
        "note": 52,
        "velocity": 0,
        "channel": 6
      },
      {
        "type": "note_on",
        "time": 15,
        "note": 47,
        "velocity": 100,
        "channel": 6
      },
      {
        "type": "note_on",
        "time": 30,
        "note": 47,
        "velocity": 0,
        "channel": 6
      },
      {
        "type": "note_on",
        "time": 0,
        "note": 47,
        "velocity": 100,
        "channel": 6
      },
      {
        "type": "note_on",
        "time": 30,
        "note": 47,
        "velocity": 0,
        "channel": 6
      },
      {
        "type": "note_on",
        "time": 0,
        "note": 47,
        "velocity": 100,
        "channel": 6
      },
      {
        "type": "note_on",
        "time": 30,
        "note": 47,
        "velocity": 0,
        "channel": 6
      },
      {
        "type": "note_on",
        "time": 0,
        "note": 50,
        "velocity": 100,
        "channel": 6
      },
      {
        "type": "note_on",
        "time": 45,
        "note": 50,
        "velocity": 0,
        "channel": 6
      },
      {
        "type": "note_on",
        "time": 15,
        "note": 52,
        "velocity": 100,
        "channel": 6
      },
      {
        "type": "note_on",
        "time": 60,
        "note": 52,
        "velocity": 0,
        "channel": 6
      },
      {
        "type": "note_on",
        "time": 0,
        "note": 47,
        "velocity": 100,
        "channel": 6
      },
      {
        "type": "note_on",
        "time": 30,
        "note": 47,
        "velocity": 0,
        "channel": 6
      },
      {
        "type": "note_on",
        "time": 0,
        "note": 52,
        "velocity": 100,
        "channel": 6
      },
      {
        "type": "note_on",
        "time": 30,
        "note": 52,
        "velocity": 0,
        "channel": 6
      },
      {
        "type": "note_on",
        "time": 0,
        "note": 47,
        "velocity": 100,
        "channel": 6
      },
      {
        "type": "note_on",
        "time": 30,
        "note": 47,
        "velocity": 0,
        "channel": 6
      },
      {
        "type": "note_on",
        "time": 0,
        "note": 50,
        "velocity": 100,
        "channel": 6
      },
      {
        "type": "note_on",
        "time": 30,
        "note": 50,
        "velocity": 0,
        "channel": 6
      },
      {
        "type": "note_on",
        "time": 0,
        "note": 45,
        "velocity": 100,
        "channel": 6
      },
      {
        "type": "note_on",
        "time": 30,
        "note": 45,
        "velocity": 0,
        "channel": 6
      },
      {
        "type": "note_on",
        "time": 0,
        "note": 50,
        "velocity": 100,
        "channel": 6
      },
      {
        "type": "note_on",
        "time": 45,
        "note": 50,
        "velocity": 0,
        "channel": 6
      },
      {
        "type": "note_on",
        "time": 15,
        "note": 52,
        "velocity": 100,
        "channel": 6
      },
      {
        "type": "note_on",
        "time": 45,
        "note": 52,
        "velocity": 0,
        "channel": 6
      },
      {
        "type": "note_on",
        "time": 15,
        "note": 45,
        "velocity": 100,
        "channel": 6
      },
      {
        "type": "note_on",
        "time": 30,
        "note": 45,
        "velocity": 0,
        "channel": 6
      },
      {
        "type": "note_on",
        "time": 0,
        "note": 45,
        "velocity": 100,
        "channel": 6
      },
      {
        "type": "note_on",
        "time": 30,
        "note": 45,
        "velocity": 0,
        "channel": 6
      },
      {
        "type": "note_on",
        "time": 0,
        "note": 45,
        "velocity": 100,
        "channel": 6
      },
      {
        "type": "note_on",
        "time": 30,
        "note": 45,
        "velocity": 0,
        "channel": 6
      },
      {
        "type": "note_on",
        "time": 0,
        "note": 50,
        "velocity": 100,
        "channel": 6
      },
      {
        "type": "note_on",
        "time": 45,
        "note": 50,
        "velocity": 0,
        "channel": 6
      },
      {
        "type": "note_on",
        "time": 15,
        "note": 52,
        "velocity": 100,
        "channel": 6
      },
      {
        "type": "note_on",
        "time": 30,
        "note": 47,
        "velocity": 100,
        "channel": 6
      },
      {
        "type": "note_on",
        "time": 15,
        "note": 52,
        "velocity": 0,
        "channel": 6
      },
      {
        "type": "note_on",
        "time": 15,
        "note": 47,
        "velocity": 0,
        "channel": 6
      },
      {
        "type": "note_on",
        "time": 0,
        "note": 50,
        "velocity": 100,
        "channel": 6
      },
      {
        "type": "note_on",
        "time": 30,
        "note": 50,
        "velocity": 0,
        "channel": 6
      },
      {
        "type": "note_on",
        "time": 0,
        "note": 47,
        "velocity": 100,
        "channel": 6
      },
      {
        "type": "note_on",
        "time": 45,
        "note": 47,
        "velocity": 0,
        "channel": 6
      },
      {
        "type": "note_on",
        "time": 15,
        "note": 42,
        "velocity": 100,
        "channel": 6
      },
      {
        "type": "note_on",
        "time": 30,
        "note": 42,
        "velocity": 0,
        "channel": 6
      },
      {
        "type": "note_on",
        "time": 0,
        "note": 42,
        "velocity": 100,
        "channel": 6
      },
      {
        "type": "note_on",
        "time": 30,
        "note": 42,
        "velocity": 0,
        "channel": 6
      },
      {
        "type": "note_on",
        "time": 0,
        "note": 47,
        "velocity": 100,
        "channel": 6
      },
      {
        "type": "note_on",
        "time": 45,
        "note": 47,
        "velocity": 0,
        "channel": 6
      },
      {
        "type": "note_on",
        "time": 15,
        "note": 47,
        "velocity": 100,
        "channel": 6
      },
      {
        "type": "note_on",
        "time": 45,
        "note": 47,
        "velocity": 0,
        "channel": 6
      },
      {
        "type": "note_on",
        "time": 15,
        "note": 42,
        "velocity": 100,
        "channel": 6
      },
      {
        "type": "note_on",
        "time": 30,
        "note": 42,
        "velocity": 0,
        "channel": 6
      },
      {
        "type": "note_on",
        "time": 0,
        "note": 45,
        "velocity": 100,
        "channel": 6
      },
      {
        "type": "note_on",
        "time": 30,
        "note": 45,
        "velocity": 0,
        "channel": 6
      },
      {
        "type": "note_on",
        "time": 0,
        "note": 42,
        "velocity": 100,
        "channel": 6
      },
      {
        "type": "note_on",
        "time": 30,
        "note": 42,
        "velocity": 0,
        "channel": 6
      },
      {
        "type": "note_on",
        "time": 0,
        "note": 47,
        "velocity": 100,
        "channel": 6
      },
      {
        "type": "note_on",
        "time": 45,
        "note": 47,
        "velocity": 0,
        "channel": 6
      },
      {
        "type": "note_on",
        "time": 15,
        "note": 47,
        "velocity": 100,
        "channel": 6
      },
      {
        "type": "note_on",
        "time": 45,
        "note": 47,
        "velocity": 0,
        "channel": 6
      },
      {
        "type": "note_on",
        "time": 15,
        "note": 42,
        "velocity": 100,
        "channel": 6
      },
      {
        "type": "note_on",
        "time": 30,
        "note": 42,
        "velocity": 0,
        "channel": 6
      },
      {
        "type": "note_on",
        "time": 0,
        "note": 47,
        "velocity": 100,
        "channel": 6
      },
      {
        "type": "note_on",
        "time": 30,
        "note": 47,
        "velocity": 0,
        "channel": 6
      },
      {
        "type": "note_on",
        "time": 0,
        "note": 42,
        "velocity": 100,
        "channel": 6
      },
      {
        "type": "note_on",
        "time": 30,
        "note": 42,
        "velocity": 0,
        "channel": 6
      },
      {
        "type": "note_on",
        "time": 0,
        "note": 43,
        "velocity": 100,
        "channel": 6
      },
      {
        "type": "note_on",
        "time": 30,
        "note": 43,
        "velocity": 0,
        "channel": 6
      },
      {
        "type": "note_on",
        "time": 0,
        "note": 43,
        "velocity": 100,
        "channel": 6
      },
      {
        "type": "note_on",
        "time": 30,
        "note": 43,
        "velocity": 0,
        "channel": 6
      },
      {
        "type": "note_on",
        "time": 0,
        "note": 48,
        "velocity": 100,
        "channel": 6
      },
      {
        "type": "note_on",
        "time": 45,
        "note": 48,
        "velocity": 0,
        "channel": 6
      },
      {
        "type": "note_on",
        "time": 15,
        "note": 48,
        "velocity": 100,
        "channel": 6
      },
      {
        "type": "note_on",
        "time": 45,
        "note": 48,
        "velocity": 0,
        "channel": 6
      },
      {
        "type": "note_on",
        "time": 15,
        "note": 43,
        "velocity": 100,
        "channel": 6
      },
      {
        "type": "note_on",
        "time": 30,
        "note": 43,
        "velocity": 0,
        "channel": 6
      },
      {
        "type": "note_on",
        "time": 0,
        "note": 43,
        "velocity": 100,
        "channel": 6
      },
      {
        "type": "note_on",
        "time": 30,
        "note": 43,
        "velocity": 0,
        "channel": 6
      },
      {
        "type": "note_on",
        "time": 0,
        "note": 41,
        "velocity": 100,
        "channel": 6
      },
      {
        "type": "note_on",
        "time": 30,
        "note": 41,
        "velocity": 0,
        "channel": 6
      },
      {
        "type": "note_on",
        "time": 0,
        "note": 48,
        "velocity": 100,
        "channel": 6
      },
      {
        "type": "note_on",
        "time": 45,
        "note": 48,
        "velocity": 0,
        "channel": 6
      },
      {
        "type": "note_on",
        "time": 15,
        "note": 48,
        "velocity": 100,
        "channel": 6
      },
      {
        "type": "note_on",
        "time": 45,
        "note": 48,
        "velocity": 0,
        "channel": 6
      },
      {
        "type": "note_on",
        "time": 15,
        "note": 43,
        "velocity": 100,
        "channel": 6
      },
      {
        "type": "note_on",
        "time": 30,
        "note": 43,
        "velocity": 0,
        "channel": 6
      },
      {
        "type": "note_on",
        "time": 0,
        "note": 45,
        "velocity": 100,
        "channel": 6
      },
      {
        "type": "note_on",
        "time": 30,
        "note": 45,
        "velocity": 0,
        "channel": 6
      },
      {
        "type": "note_on",
        "time": 0,
        "note": 43,
        "velocity": 100,
        "channel": 6
      },
      {
        "type": "note_on",
        "time": 30,
        "note": 43,
        "velocity": 0,
        "channel": 6
      },
      {
        "type": "note_on",
        "time": 0,
        "note": 40,
        "velocity": 100,
        "channel": 6
      },
      {
        "type": "note_on",
        "time": 30,
        "note": 40,
        "velocity": 0,
        "channel": 6
      },
      {
        "type": "note_on",
        "time": 0,
        "note": 40,
        "velocity": 100,
        "channel": 6
      },
      {
        "type": "note_on",
        "time": 30,
        "note": 40,
        "velocity": 0,
        "channel": 6
      },
      {
        "type": "note_on",
        "time": 0,
        "note": 50,
        "velocity": 100,
        "channel": 6
      },
      {
        "type": "note_on",
        "time": 45,
        "note": 50,
        "velocity": 0,
        "channel": 6
      },
      {
        "type": "note_on",
        "time": 15,
        "note": 52,
        "velocity": 100,
        "channel": 6
      },
      {
        "type": "note_on",
        "time": 45,
        "note": 52,
        "velocity": 0,
        "channel": 6
      },
      {
        "type": "note_on",
        "time": 15,
        "note": 40,
        "velocity": 100,
        "channel": 6
      },
      {
        "type": "note_on",
        "time": 30,
        "note": 40,
        "velocity": 0,
        "channel": 6
      },
      {
        "type": "note_on",
        "time": 0,
        "note": 40,
        "velocity": 100,
        "channel": 6
      },
      {
        "type": "note_on",
        "time": 30,
        "note": 40,
        "velocity": 0,
        "channel": 6
      },
      {
        "type": "note_on",
        "time": 0,
        "note": 40,
        "velocity": 100,
        "channel": 6
      },
      {
        "type": "note_on",
        "time": 30,
        "note": 40,
        "velocity": 0,
        "channel": 6
      },
      {
        "type": "note_on",
        "time": 0,
        "note": 50,
        "velocity": 100,
        "channel": 6
      },
      {
        "type": "note_on",
        "time": 45,
        "note": 50,
        "velocity": 0,
        "channel": 6
      },
      {
        "type": "note_on",
        "time": 15,
        "note": 52,
        "velocity": 100,
        "channel": 6
      },
      {
        "type": "note_on",
        "time": 45,
        "note": 52,
        "velocity": 0,
        "channel": 6
      },
      {
        "type": "note_on",
        "time": 105,
        "note": 38,
        "velocity": 100,
        "channel": 6
      },
      {
        "type": "note_on",
        "time": 30,
        "note": 38,
        "velocity": 0,
        "channel": 6
      },
      {
        "type": "note_on",
        "time": 0,
        "note": 38,
        "velocity": 100,
        "channel": 6
      },
      {
        "type": "note_on",
        "time": 30,
        "note": 38,
        "velocity": 0,
        "channel": 6
      },
      {
        "type": "note_on",
        "time": 0,
        "note": 50,
        "velocity": 100,
        "channel": 6
      },
      {
        "type": "note_on",
        "time": 45,
        "note": 50,
        "velocity": 0,
        "channel": 6
      },
      {
        "type": "note_on",
        "time": 15,
        "note": 52,
        "velocity": 100,
        "channel": 6
      },
      {
        "type": "note_on",
        "time": 45,
        "note": 52,
        "velocity": 0,
        "channel": 6
      },
      {
        "type": "note_on",
        "time": 15,
        "note": 38,
        "velocity": 100,
        "channel": 6
      },
      {
        "type": "note_on",
        "time": 60,
        "note": 38,
        "velocity": 0,
        "channel": 6
      },
      {
        "type": "note_on",
        "time": 30,
        "note": 50,
        "velocity": 100,
        "channel": 6
      },
      {
        "type": "note_on",
        "time": 45,
        "note": 50,
        "velocity": 0,
        "channel": 6
      },
      {
        "type": "note_on",
        "time": 15,
        "note": 52,
        "velocity": 100,
        "channel": 6
      },
      {
        "type": "note_on",
        "time": 45,
        "note": 52,
        "velocity": 0,
        "channel": 6
      },
      {
        "type": "note_on",
        "time": 105,
        "note": 42,
        "velocity": 100,
        "channel": 6
      },
      {
        "type": "note_on",
        "time": 60,
        "note": 42,
        "velocity": 0,
        "channel": 6
      },
      {
        "type": "note_on",
        "time": 0,
        "note": 47,
        "velocity": 100,
        "channel": 6
      },
      {
        "type": "note_on",
        "time": 45,
        "note": 47,
        "velocity": 0,
        "channel": 6
      },
      {
        "type": "note_on",
        "time": 15,
        "note": 47,
        "velocity": 100,
        "channel": 6
      },
      {
        "type": "note_on",
        "time": 45,
        "note": 47,
        "velocity": 0,
        "channel": 6
      },
      {
        "type": "note_on",
        "time": 15,
        "note": 42,
        "velocity": 100,
        "channel": 6
      },
      {
        "type": "note_on",
        "time": 60,
        "note": 42,
        "velocity": 0,
        "channel": 6
      },
      {
        "type": "note_on",
        "time": 30,
        "note": 47,
        "velocity": 100,
        "channel": 6
      },
      {
        "type": "note_on",
        "time": 45,
        "note": 47,
        "velocity": 0,
        "channel": 6
      },
      {
        "type": "note_on",
        "time": 15,
        "note": 47,
        "velocity": 100,
        "channel": 6
      },
      {
        "type": "note_on",
        "time": 45,
        "note": 47,
        "velocity": 0,
        "channel": 6
      },
      {
        "type": "note_on",
        "time": 15,
        "note": 42,
        "velocity": 100,
        "channel": 6
      },
      {
        "type": "note_on",
        "time": 30,
        "note": 42,
        "velocity": 0,
        "channel": 6
      },
      {
        "type": "note_on",
        "time": 0,
        "note": 42,
        "velocity": 100,
        "channel": 6
      },
      {
        "type": "note_on",
        "time": 30,
        "note": 42,
        "velocity": 0,
        "channel": 6
      },
      {
        "type": "note_on",
        "time": 0,
        "note": 42,
        "velocity": 100,
        "channel": 6
      },
      {
        "type": "note_on",
        "time": 30,
        "note": 42,
        "velocity": 0,
        "channel": 6
      },
      {
        "type": "note_on",
        "time": 0,
        "note": 43,
        "velocity": 100,
        "channel": 6
      },
      {
        "type": "note_on",
        "time": 60,
        "note": 43,
        "velocity": 0,
        "channel": 6
      },
      {
        "type": "note_on",
        "time": 0,
        "note": 48,
        "velocity": 100,
        "channel": 6
      },
      {
        "type": "note_on",
        "time": 45,
        "note": 48,
        "velocity": 0,
        "channel": 6
      },
      {
        "type": "note_on",
        "time": 15,
        "note": 48,
        "velocity": 100,
        "channel": 6
      },
      {
        "type": "note_on",
        "time": 45,
        "note": 48,
        "velocity": 0,
        "channel": 6
      },
      {
        "type": "note_on",
        "time": 15,
        "note": 43,
        "velocity": 100,
        "channel": 6
      },
      {
        "type": "note_on",
        "time": 60,
        "note": 43,
        "velocity": 0,
        "channel": 6
      },
      {
        "type": "note_on",
        "time": 30,
        "note": 48,
        "velocity": 100,
        "channel": 6
      },
      {
        "type": "note_on",
        "time": 45,
        "note": 48,
        "velocity": 0,
        "channel": 6
      },
      {
        "type": "note_on",
        "time": 15,
        "note": 48,
        "velocity": 100,
        "channel": 6
      },
      {
        "type": "note_on",
        "time": 45,
        "note": 48,
        "velocity": 0,
        "channel": 6
      },
      {
        "type": "note_on",
        "time": 15,
        "note": 43,
        "velocity": 100,
        "channel": 6
      },
      {
        "type": "note_on",
        "time": 30,
        "note": 43,
        "velocity": 0,
        "channel": 6
      },
      {
        "type": "note_on",
        "time": 0,
        "note": 43,
        "velocity": 100,
        "channel": 6
      },
      {
        "type": "note_on",
        "time": 30,
        "note": 43,
        "velocity": 0,
        "channel": 6
      },
      {
        "type": "note_on",
        "time": 0,
        "note": 43,
        "velocity": 100,
        "channel": 6
      },
      {
        "type": "note_on",
        "time": 30,
        "note": 43,
        "velocity": 0,
        "channel": 6
      },
      {
        "type": "note_on",
        "time": 0,
        "note": 40,
        "velocity": 100,
        "channel": 6
      },
      {
        "type": "note_on",
        "time": 30,
        "note": 40,
        "velocity": 0,
        "channel": 6
      },
      {
        "type": "note_on",
        "time": 0,
        "note": 40,
        "velocity": 100,
        "channel": 6
      },
      {
        "type": "note_on",
        "time": 30,
        "note": 40,
        "velocity": 0,
        "channel": 6
      },
      {
        "type": "note_on",
        "time": 0,
        "note": 50,
        "velocity": 100,
        "channel": 6
      },
      {
        "type": "note_on",
        "time": 45,
        "note": 50,
        "velocity": 0,
        "channel": 6
      },
      {
        "type": "note_on",
        "time": 15,
        "note": 52,
        "velocity": 100,
        "channel": 6
      },
      {
        "type": "note_on",
        "time": 45,
        "note": 52,
        "velocity": 0,
        "channel": 6
      },
      {
        "type": "note_on",
        "time": 15,
        "note": 40,
        "velocity": 100,
        "channel": 6
      },
      {
        "type": "note_on",
        "time": 30,
        "note": 40,
        "velocity": 0,
        "channel": 6
      },
      {
        "type": "note_on",
        "time": 0,
        "note": 40,
        "velocity": 100,
        "channel": 6
      },
      {
        "type": "note_on",
        "time": 30,
        "note": 40,
        "velocity": 0,
        "channel": 6
      },
      {
        "type": "note_on",
        "time": 0,
        "note": 40,
        "velocity": 100,
        "channel": 6
      },
      {
        "type": "note_on",
        "time": 30,
        "note": 40,
        "velocity": 0,
        "channel": 6
      },
      {
        "type": "note_on",
        "time": 0,
        "note": 50,
        "velocity": 100,
        "channel": 6
      },
      {
        "type": "note_on",
        "time": 45,
        "note": 50,
        "velocity": 0,
        "channel": 6
      },
      {
        "type": "note_on",
        "time": 15,
        "note": 52,
        "velocity": 100,
        "channel": 6
      },
      {
        "type": "note_on",
        "time": 45,
        "note": 52,
        "velocity": 0,
        "channel": 6
      },
      {
        "type": "note_on",
        "time": 105,
        "note": 38,
        "velocity": 100,
        "channel": 6
      },
      {
        "type": "note_on",
        "time": 30,
        "note": 38,
        "velocity": 0,
        "channel": 6
      },
      {
        "type": "note_on",
        "time": 0,
        "note": 38,
        "velocity": 100,
        "channel": 6
      },
      {
        "type": "note_on",
        "time": 30,
        "note": 38,
        "velocity": 0,
        "channel": 6
      },
      {
        "type": "note_on",
        "time": 0,
        "note": 50,
        "velocity": 100,
        "channel": 6
      },
      {
        "type": "note_on",
        "time": 45,
        "note": 50,
        "velocity": 0,
        "channel": 6
      },
      {
        "type": "note_on",
        "time": 15,
        "note": 52,
        "velocity": 100,
        "channel": 6
      },
      {
        "type": "note_on",
        "time": 45,
        "note": 52,
        "velocity": 0,
        "channel": 6
      },
      {
        "type": "note_on",
        "time": 15,
        "note": 38,
        "velocity": 100,
        "channel": 6
      },
      {
        "type": "note_on",
        "time": 60,
        "note": 38,
        "velocity": 0,
        "channel": 6
      },
      {
        "type": "note_on",
        "time": 30,
        "note": 50,
        "velocity": 100,
        "channel": 6
      },
      {
        "type": "note_on",
        "time": 45,
        "note": 50,
        "velocity": 0,
        "channel": 6
      },
      {
        "type": "note_on",
        "time": 15,
        "note": 52,
        "velocity": 100,
        "channel": 6
      },
      {
        "type": "note_on",
        "time": 45,
        "note": 52,
        "velocity": 0,
        "channel": 6
      },
      {
        "type": "note_on",
        "time": 105,
        "note": 42,
        "velocity": 100,
        "channel": 6
      },
      {
        "type": "note_on",
        "time": 60,
        "note": 42,
        "velocity": 0,
        "channel": 6
      },
      {
        "type": "note_on",
        "time": 0,
        "note": 47,
        "velocity": 100,
        "channel": 6
      },
      {
        "type": "note_on",
        "time": 45,
        "note": 47,
        "velocity": 0,
        "channel": 6
      },
      {
        "type": "note_on",
        "time": 15,
        "note": 47,
        "velocity": 100,
        "channel": 6
      },
      {
        "type": "note_on",
        "time": 45,
        "note": 47,
        "velocity": 0,
        "channel": 6
      },
      {
        "type": "note_on",
        "time": 15,
        "note": 42,
        "velocity": 100,
        "channel": 6
      },
      {
        "type": "note_on",
        "time": 60,
        "note": 42,
        "velocity": 0,
        "channel": 6
      },
      {
        "type": "note_on",
        "time": 30,
        "note": 47,
        "velocity": 100,
        "channel": 6
      },
      {
        "type": "note_on",
        "time": 45,
        "note": 47,
        "velocity": 0,
        "channel": 6
      },
      {
        "type": "note_on",
        "time": 15,
        "note": 47,
        "velocity": 100,
        "channel": 6
      },
      {
        "type": "note_on",
        "time": 45,
        "note": 47,
        "velocity": 0,
        "channel": 6
      },
      {
        "type": "note_on",
        "time": 15,
        "note": 42,
        "velocity": 100,
        "channel": 6
      },
      {
        "type": "note_on",
        "time": 30,
        "note": 42,
        "velocity": 0,
        "channel": 6
      },
      {
        "type": "note_on",
        "time": 0,
        "note": 42,
        "velocity": 100,
        "channel": 6
      },
      {
        "type": "note_on",
        "time": 30,
        "note": 42,
        "velocity": 0,
        "channel": 6
      },
      {
        "type": "note_on",
        "time": 0,
        "note": 42,
        "velocity": 100,
        "channel": 6
      },
      {
        "type": "note_on",
        "time": 30,
        "note": 42,
        "velocity": 0,
        "channel": 6
      },
      {
        "type": "note_on",
        "time": 0,
        "note": 43,
        "velocity": 100,
        "channel": 6
      },
      {
        "type": "note_on",
        "time": 60,
        "note": 43,
        "velocity": 0,
        "channel": 6
      },
      {
        "type": "note_on",
        "time": 0,
        "note": 48,
        "velocity": 100,
        "channel": 6
      },
      {
        "type": "note_on",
        "time": 45,
        "note": 48,
        "velocity": 0,
        "channel": 6
      },
      {
        "type": "note_on",
        "time": 15,
        "note": 48,
        "velocity": 100,
        "channel": 6
      },
      {
        "type": "note_on",
        "time": 45,
        "note": 48,
        "velocity": 0,
        "channel": 6
      },
      {
        "type": "note_on",
        "time": 15,
        "note": 43,
        "velocity": 100,
        "channel": 6
      },
      {
        "type": "note_on",
        "time": 60,
        "note": 43,
        "velocity": 0,
        "channel": 6
      },
      {
        "type": "note_on",
        "time": 30,
        "note": 48,
        "velocity": 100,
        "channel": 6
      },
      {
        "type": "note_on",
        "time": 45,
        "note": 48,
        "velocity": 0,
        "channel": 6
      },
      {
        "type": "note_on",
        "time": 15,
        "note": 48,
        "velocity": 100,
        "channel": 6
      },
      {
        "type": "note_on",
        "time": 45,
        "note": 48,
        "velocity": 0,
        "channel": 6
      },
      {
        "type": "end_of_track",
        "time": 0
      }
    ]
  ]
}