{
  "ticks_per_beat": 120,
  "tracks": [
    [
      {
        "type": "sequencer_specific",
        "data": [
          0,
          0,
          91,
          35,
          2,
          0,
          3,
          0,
          51,
          0
        ],
        "time": 0
      },
      {
        "type": "track_name",
        "name": "WinJammer Demo",
        "time": 0
      },
      {
        "type": "instrument_name",
        "name": "Hotel California",
        "time": 0
      },
      {
        "type": "midi_port",
        "port": 0,
        "time": 0
      },
      {
        "type": "set_tempo",
        "tempo": 810810,
        "time": 0
      },
      {
        "type": "key_signature",
        "key": "C",
        "time": 0
      },
      {
        "type": "time_signature",
        "numerator": 4,
        "denominator": 4,
        "clocks_per_click": 24,
        "notated_32nd_notes_per_beat": 8,
        "time": 0
      },
      {
        "type": "end_of_track",
        "time": 0
      }
    ],
    [
      {
        "type": "track_name",
        "name": "WinJammer Demo",
        "time": 0
      },
      {
        "type": "instrument_name",
        "name": "by the Eagles",
        "time": 0
      },
      {
        "type": "midi_port",
        "port": 0,
        "time": 0
      },
      {
        "type": "control_change",
        "time": 0,
        "control": 7,
        "value": 90,
        "channel": 0
      },
      {
        "type": "program_change",
        "time": 0,
        "program": 25,
        "channel": 0
      },
      {
        "type": "note_on",
        "time": 0,
        "note": 42,
        "velocity": 60,
        "channel": 0
      },
      {
        "type": "note_on",
        "time": 0,
        "note": 47,
        "velocity": 60,
        "channel": 0
      },
      {
        "type": "note_on",
        "time": 0,
        "note": 54,
        "velocity": 60,
        "channel": 0
      },
      {
        "type": "note_on",
        "time": 0,
        "note": 59,
        "velocity": 60,
        "channel": 0
      },
      {
        "type": "note_on",
        "time": 0,
        "note": 62,
        "velocity": 60,
        "channel": 0
      },
      {
        "type": "note_on",
        "time": 0,
        "note": 66,
        "velocity": 60,
        "channel": 0
      },
      {
        "type": "note_on",
        "time": 239,
        "note": 42,
        "velocity": 0,
        "channel": 0
      },
      {
        "type": "note_on",
        "time": 0,
        "note": 47,
        "velocity": 0,
        "channel": 0
      },
      {
        "type": "note_on",
        "time": 0,
        "note": 54,
        "velocity": 0,
        "channel": 0
      },
      {
        "type": "note_on",
        "time": 0,
        "note": 59,
        "velocity": 0,
        "channel": 0
      },
      {
        "type": "note_on",
        "time": 0,
        "note": 62,
        "velocity": 0,
        "channel": 0
      },
      {
        "type": "note_on",
        "time": 0,
        "note": 66,
        "velocity": 0,
        "channel": 0
      },
      {
        "type": "note_on",
        "time": 241,
        "note": 42,
        "velocity": 60,
        "channel": 0
      },
      {
        "type": "note_on",
        "time": 0,
        "note": 49,
        "velocity": 60,
        "channel": 0
      },
      {
        "type": "note_on",
        "time": 0,
        "note": 54,
        "velocity": 60,
        "channel": 0
      },
      {
        "type": "note_on",
        "time": 0,
        "note": 58,
        "velocity": 60,
        "channel": 0
      },
      {
        "type": "note_on",
        "time": 0,
        "note": 61,
        "velocity": 60,
        "channel": 0
      },
      {
        "type": "note_on",
        "time": 0,
        "note": 66,
        "velocity": 60,
        "channel": 0
      },
      {
        "type": "note_on",
        "time": 239,
        "note": 42,
        "velocity": 0,
        "channel": 0
      },
      {
        "type": "note_on",
        "time": 0,
        "note": 49,
        "velocity": 0,
        "channel": 0
      },
      {
        "type": "note_on",
        "time": 0,
        "note": 54,
        "velocity": 0,
        "channel": 0
      },
      {
        "type": "note_on",
        "time": 0,
        "note": 58,
        "velocity": 0,
        "channel": 0
      },
      {
        "type": "note_on",
        "time": 0,
        "note": 61,
        "velocity": 0,
        "channel": 0
      },
      {
        "type": "note_on",
        "time": 0,
        "note": 66,
        "velocity": 0,
        "channel": 0
      },
      {
        "type": "note_on",
        "time": 241,
        "note": 40,
        "velocity": 60,
        "channel": 0
      },
      {
        "type": "note_on",
        "time": 0,
        "note": 45,
        "velocity": 60,
        "channel": 0
      },
      {
        "type": "note_on",
        "time": 0,
        "note": 52,
        "velocity": 60,
        "channel": 0
      },
      {
        "type": "note_on",
        "time": 0,
        "note": 57,
        "velocity": 60,
        "channel": 0
      },
      {
        "type": "note_on",
        "time": 0,
        "note": 61,
        "velocity": 60,
        "channel": 0
      },
      {
        "type": "note_on",
        "time": 0,
        "note": 64,
        "velocity": 60,
        "channel": 0
      },
      {
        "type": "note_on",
        "time": 239,
        "note": 40,
        "velocity": 0,
        "channel": 0
      },
      {
        "type": "note_on",
        "time": 0,
        "note": 45,
        "velocity": 0,
        "channel": 0
      },
      {
        "type": "note_on",
        "time": 0,
        "note": 52,
        "velocity": 0,
        "channel": 0
      },
      {
        "type": "note_on",
        "time": 0,
        "note": 57,
        "velocity": 0,
        "channel": 0
      },
      {
        "type": "note_on",
        "time": 0,
        "note": 61,
        "velocity": 0,
        "channel": 0
      },
      {
        "type": "note_on",
        "time": 0,
        "note": 64,
        "velocity": 0,
        "channel": 0
      },
      {
        "type": "note_on",
        "time": 1,
        "note": 57,
        "velocity": 60,
        "channel": 0
      },
      {
        "type": "note_on",
        "time": 119,
        "note": 57,
        "velocity": 0,
        "channel": 0
      },
      {
        "type": "note_on",
        "time": 1,
        "note": 52,
        "velocity": 60,
        "channel": 0
      },
      {
        "type": "note_on",
        "time": 119,
        "note": 52,
        "velocity": 0,
        "channel": 0
      },
      {
        "type": "note_on",
        "time": 1,
        "note": 40,
        "velocity": 60,
        "channel": 0
      },
      {
        "type": "note_on",
        "time": 0,
        "note": 47,
        "velocity": 60,
        "channel": 0
      },
      {
        "type": "note_on",
        "time": 0,
        "note": 52,
        "velocity": 60,
        "channel": 0
      },
      {
        "type": "note_on",
        "time": 0,
        "note": 56,
        "velocity": 60,
        "channel": 0
      },
      {
        "type": "note_on",
        "time": 0,
        "note": 59,
        "velocity": 60,
        "channel": 0
      },
      {
        "type": "note_on",
        "time": 0,
        "note": 64,
        "velocity": 60,
        "channel": 0
      },
      {
        "type": "note_on",
        "time": 239,
        "note": 40,
        "velocity": 0,
        "channel": 0
      },
      {
        "type": "note_on",
        "time": 0,
        "note": 47,
        "velocity": 0,
        "channel": 0
      },
      {
        "type": "note_on",
        "time": 0,
        "note": 52,
        "velocity": 0,
        "channel": 0
      },
      {
        "type": "note_on",
        "time": 0,
        "note": 56,
        "velocity": 0,
        "channel": 0
      },
      {
        "type": "note_on",
        "time": 0,
        "note": 59,
        "velocity": 0,
        "channel": 0
      },
      {
        "type": "note_on",
        "time": 0,
        "note": 64,
        "velocity": 0,
        "channel": 0
      },
      {
        "type": "note_on",
        "time": 241,
        "note": 43,
        "velocity": 60,
        "channel": 0
      },
      {
        "type": "note_on",
        "time": 0,
        "note": 50,
        "velocity": 60,
        "channel": 0
      },
      {
        "type": "note_on",
        "time": 0,
        "note": 55,
        "velocity": 60,
        "channel": 0
      },
      {
        "type": "note_on",
        "time": 0,
        "note": 59,
        "velocity": 60,
        "channel": 0
      },
      {
        "type": "note_on",
        "time": 0,
        "note": 62,
        "velocity": 60,
        "channel": 0
      },
      {
        "type": "note_on",
        "time": 0,
        "note": 67,
        "velocity": 60,
        "channel": 0
      },
      {
        "type": "note_on",
        "time": 239,
        "note": 43,
        "velocity": 0,
        "channel": 0
      },
      {
        "type": "note_on",
        "time": 0,
        "note": 50,
        "velocity": 0,
        "channel": 0
      },
      {
        "type": "note_on",
        "time": 0,
        "note": 55,
        "velocity": 0,
        "channel": 0
      },
      {
        "type": "note_on",
        "time": 0,
        "note": 59,
        "velocity": 0,
        "channel": 0
      },
      {
        "type": "note_on",
        "time": 0,
        "note": 62,
        "velocity": 0,
        "channel": 0
      },
      {
        "type": "note_on",
        "time": 0,
        "note": 67,
        "velocity": 0,
        "channel": 0
      },
      {
        "type": "note_on",
        "time": 61,
        "note": 55,
        "velocity": 60,
        "channel": 0
      },
      {
        "type": "note_on",
        "time": 59,
        "note": 55,
        "velocity": 0,
        "channel": 0
      },
      {
        "type": "note_on",
        "time": 1,
        "note": 57,
        "velocity": 60,
        "channel": 0
      },
      {
        "type": "note_on",
        "time": 59,
        "note": 57,
        "velocity": 0,
        "channel": 0
      },
      {
        "type": "note_on",
        "time": 1,
        "note": 62,
        "velocity": 60,
        "channel": 0
      },
      {
        "type": "note_on",
        "time": 59,
        "note": 62,
        "velocity": 0,
        "channel": 0
      },
      {
        "type": "note_on",
        "time": 1,
        "note": 45,
        "velocity": 60,
        "channel": 0
      },
      {
        "type": "note_on",
        "time": 0,
        "note": 50,
        "velocity": 60,
        "channel": 0
      },
      {
        "type": "note_on",
        "time": 0,
        "note": 57,
        "velocity": 60,
        "channel": 0
      },
      {
        "type": "note_on",
        "time": 0,
        "note": 62,
        "velocity": 60,
        "channel": 0
      },
      {
        "type": "note_on",
        "time": 0,
        "note": 66,
        "velocity": 60,
        "channel": 0
      },
      {
        "type": "note_on",
        "time": 0,
        "note": 69,
        "velocity": 60,
        "channel": 0
      },
      {
        "type": "note_on",
        "time": 239,
        "note": 45,
        "velocity": 0,
        "channel": 0
      },
      {
        "type": "note_on",
        "time": 0,
        "note": 50,
        "velocity": 0,
        "channel": 0
      },
      {
        "type": "note_on",
        "time": 0,
        "note": 57,
        "velocity": 0,
        "channel": 0
      },
      {
        "type": "note_on",
        "time": 0,
        "note": 62,
        "velocity": 0,
        "channel": 0
      },
      {
        "type": "note_on",
        "time": 0,
        "note": 66,
        "velocity": 0,
        "channel": 0
      },
      {
        "type": "note_on",
        "time": 0,
        "note": 69,
        "velocity": 0,
        "channel": 0
      },
      {
        "type": "note_on",
        "time": 1,
        "note": 66,
        "velocity": 60,
        "channel": 0
      },
      {
        "type": "note_on",
        "time": 119,
        "note": 66,
        "velocity": 0,
        "channel": 0
      },
      {
        "type": "note_on",
        "time": 1,
        "note": 62,
        "velocity": 60,
        "channel": 0
      },
      {
        "type": "note_on",
        "time": 119,
        "note": 62,
        "velocity": 0,
        "channel": 0
      },
      {
        "type": "note_on",
        "time": 1,
        "note": 40,
        "velocity": 60,
        "channel": 0
      },
      {
        "type": "note_on",
        "time": 0,
        "note": 47,
        "velocity": 60,
        "channel": 0
      },
      {
        "type": "note_on",
        "time": 0,
        "note": 52,
        "velocity": 60,
        "channel": 0
      },
      {
        "type": "note_on",
        "time": 0,
        "note": 55,
        "velocity": 60,
        "channel": 0
      },
      {
        "type": "note_on",
        "time": 0,
        "note": 59,
        "velocity": 60,
        "channel": 0
      },
      {
        "type": "note_on",
        "time": 0,
        "note": 64,
        "velocity": 60,
        "channel": 0
      },
      {
        "type": "note_on",
        "time": 239,
        "note": 40,
        "velocity": 0,
        "channel": 0
      },
      {
        "type": "note_on",
        "time": 0,
        "note": 47,
        "velocity": 0,
        "channel": 0
      },
      {
        "type": "note_on",
        "time": 0,
        "note": 52,
        "velocity": 0,
        "channel": 0
      },
      {
        "type": "note_on",
        "time": 0,
        "note": 55,
        "velocity": 0,
        "channel": 0
      },
      {
        "type": "note_on",
        "time": 0,
        "note": 59,
        "velocity": 0,
        "channel": 0
      },
      {
        "type": "note_on",
        "time": 0,
        "note": 64,
        "velocity": 0,
        "channel": 0
      },
      {
        "type": "note_on",
        "time": 61,
        "note": 54,
        "velocity": 60,
        "channel": 0
      },
      {
        "type": "note_on",
        "time": 29,
        "note": 54,
        "velocity": 0,
        "channel": 0
      },
      {
        "type": "note_on",
        "time": 1,
        "note": 55,
        "velocity": 60,
        "channel": 0
      },
      {
        "type": "note_on",
        "time": 29,
        "note": 55,
        "velocity": 0,
        "channel": 0
      },
      {
        "type": "note_on",
        "time": 1,
        "note": 54,
        "velocity": 60,
        "channel": 0
      },
      {
        "type": "note_on",
        "time": 119,
        "note": 54,
        "velocity": 0,
        "channel": 0
      },
      {
        "type": "note_on",
        "time": 1,
        "note": 42,
        "velocity": 60,
        "channel": 0
      },
      {
        "type": "note_on",
        "time": 0,
        "note": 49,
        "velocity": 60,
        "channel": 0
      },
      {
        "type": "note_on",
        "time": 0,
        "note": 54,
        "velocity": 60,
        "channel": 0
      },
      {
        "type": "note_on",
        "time": 0,
        "note": 58,
        "velocity": 60,
        "channel": 0
      },
      {
        "type": "note_on",
        "time": 0,
        "note": 61,
        "velocity": 60,
        "channel": 0
      },
      {
        "type": "note_on",
        "time": 0,
        "note": 66,
        "velocity": 60,
        "channel": 0
      },
      {
        "type": "note_on",
        "time": 239,
        "note": 42,
        "velocity": 0,
        "channel": 0
      },
      {
        "type": "note_on",
        "time": 0,
        "note": 49,
        "velocity": 0,
        "channel": 0
      },
      {
        "type": "note_on",
        "time": 0,
        "note": 54,
        "velocity": 0,
        "channel": 0
      },
      {
        "type": "note_on",
        "time": 0,
        "note": 58,
        "velocity": 0,
        "channel": 0
      },
      {
        "type": "note_on",
        "time": 0,
        "note": 61,
        "velocity": 0,
        "channel": 0
      },
      {
        "type": "note_on",
        "time": 0,
        "note": 66,
        "velocity": 0,
        "channel": 0
      },
      {
        "type": "note_on",
        "time": 241,
        "note": 50,
        "velocity": 60,
        "channel": 0
      },
      {
        "type": "note_on",
        "time": 119,
        "note": 50,
        "velocity": 0,
        "channel": 0
      },
      {
        "type": "note_on",
        "time": 121,
        "note": 52,
        "velocity": 60,
        "channel": 0
      },
      {
        "type": "note_on",
        "time": 119,
        "note": 52,
        "velocity": 0,
        "channel": 0
      },
      {
        "type": "note_on",
        "time": 1,
        "note": 54,
        "velocity": 60,
        "channel": 0
      },
      {
        "type": "note_on",
        "time": 119,
        "note": 54,
        "velocity": 0,
        "channel": 0
      },
      {
        "type": "note_on",
        "time": 1,
        "note": 42,
        "velocity": 60,
        "channel": 0
      },
      {
        "type": "note_on",
        "time": 179,
        "note": 42,
        "velocity": 0,
        "channel": 0
      },
      {
        "type": "note_on",
        "time": 1,
        "note": 50,
        "velocity": 60,
        "channel": 0
      },
      {
        "type": "note_on",
        "time": 59,
        "note": 50,
        "velocity": 0,
        "channel": 0
      },
      {
        "type": "note_on",
        "time": 1,
        "note": 49,
        "velocity": 60,
        "channel": 0
      },
      {
        "type": "note_on",
        "time": 239,
        "note": 49,
        "velocity": 0,
        "channel": 0
      },
      {
        "type": "note_on",
        "time": 1,
        "note": 49,
        "velocity": 60,
        "channel": 0
      },
      {
        "type": "note_on",
        "time": 239,
        "note": 49,
        "velocity": 0,
        "channel": 0
      },
      {
        "type": "note_on",
        "time": 1,
        "note": 50,
        "velocity": 60,
        "channel": 0
      },
      {
        "type": "note_on",
        "time": 119,
        "note": 50,
        "velocity": 0,
        "channel": 0
      },
      {
        "type": "note_on",
        "time": 1,
        "note": 52,
        "velocity": 60,
        "channel": 0
      },
      {
        "type": "note_on",
        "time": 119,
        "note": 52,
        "velocity": 0,
        "channel": 0
      },
      {
        "type": "note_on",
        "time": 1,
        "note": 40,
        "velocity": 60,
        "channel": 0
      },
      {
        "type": "note_on",
        "time": 239,
        "note": 40,
        "velocity": 0,
        "channel": 0
      },
      {
        "type": "note_on",
        "time": 1,
        "note": 52,
        "velocity": 60,
        "channel": 0
      },
      {
        "type": "note_on",
        "time": 239,
        "note": 52,
        "velocity": 0,
        "channel": 0
      },
      {
        "type": "note_on",
        "time": 1,
        "note": 55,
        "velocity": 60,
        "channel": 0
      },
      {
        "type": "note_on",
        "time": 0,
        "note": 59,
        "velocity": 60,
        "channel": 0
      },
      {
        "type": "note_on",
        "time": 0,
        "note": 43,
        "velocity": 60,
        "channel": 0
      },
      {
        "type": "note_on",
        "time": 0,
        "note": 50,
        "velocity": 60,
        "channel": 0
      },
      {
        "type": "note_on",
        "time": 0,
        "note": 62,
        "velocity": 60,
        "channel": 0
      },
      {
        "type": "note_on",
        "time": 0,
        "note": 67,
        "velocity": 60,
        "channel": 0
      },
      {
        "type": "note_on",
        "time": 239,
        "note": 55,
        "velocity": 0,
        "channel": 0
      },
      {
        "type": "note_on",
        "time": 0,
        "note": 59,
        "velocity": 0,
        "channel": 0
      },
      {
        "type": "note_on",
        "time": 0,
        "note": 43,
        "velocity": 0,
        "channel": 0
      },
      {
        "type": "note_on",
        "time": 0,
        "note": 50,
        "velocity": 0,
        "channel": 0
      },
      {
        "type": "note_on",
        "time": 0,
        "note": 62,
        "velocity": 0,
        "channel": 0
      },
      {
        "type": "note_on",
        "time": 0,
        "note": 67,
        "velocity": 0,
        "channel": 0
      },
      {
        "type": "note_on",
        "time": 1,
        "note": 49,
        "velocity": 60,
        "channel": 0
      },
      {
        "type": "note_on",
        "time": 119,
        "note": 49,
        "velocity": 0,
        "channel": 0
      },
      {
        "type": "note_on",
        "time": 1,
        "note": 50,
        "velocity": 60,
        "channel": 0
      },
      {
        "type": "note_on",
        "time": 119,
        "note": 50,
        "velocity": 0,
        "channel": 0
      },
      {
        "type": "note_on",
        "time": 1,
        "note": 45,
        "velocity": 60,
        "channel": 0
      },
      {
        "type": "note_on",
        "time": 0,
        "note": 50,
        "velocity": 60,
        "channel": 0
      },
      {
        "type": "note_on",
        "time": 0,
        "note": 57,
        "velocity": 60,
        "channel": 0
      },
      {
        "type": "note_on",
        "time": 0,
        "note": 62,
        "velocity": 60,
        "channel": 0
      },
      {
        "type": "note_on",
        "time": 0,
        "note": 66,
        "velocity": 60,
        "channel": 0
      },
      {
        "type": "note_on",
        "time": 0,
        "note": 69,
        "velocity": 60,
        "channel": 0
      },
      {
        "type": "note_on",
        "time": 239,
        "note": 45,
        "velocity": 0,
        "channel": 0
      },
      {
        "type": "note_on",
        "time": 0,
        "note": 50,
        "velocity": 0,
        "channel": 0
      },
      {
        "type": "note_on",
        "time": 0,
        "note": 57,
        "velocity": 0,
        "channel": 0
      },
      {
        "type": "note_on",
        "time": 0,
        "note": 62,
        "velocity": 0,
        "channel": 0
      },
      {
        "type": "note_on",
        "time": 0,
        "note": 66,
        "velocity": 0,
        "channel": 0
      },
      {
        "type": "note_on",
        "time": 0,
        "note": 69,
        "velocity": 0,
        "channel": 0
      },
      {
        "type": "note_on",
        "time": 241,
        "note": 40,
        "velocity": 60,
        "channel": 0
      },
      {
        "type": "note_on",
        "time": 0,
        "note": 47,
        "velocity": 60,
        "channel": 0
      },
      {
        "type": "note_on",
        "time": 0,
        "note": 52,
        "velocity": 60,
        "channel": 0
      },
      {
        "type": "note_on",
        "time": 0,
        "note": 55,
        "velocity": 60,
        "channel": 0
      },
      {
        "type": "note_on",
        "time": 0,
        "note": 59,
        "velocity": 60,
        "channel": 0
      },
      {
        "type": "note_on",
        "time": 0,
        "note": 64,
        "velocity": 60,
        "channel": 0
      },
      {
        "type": "note_on",
        "time": 239,
        "note": 40,
        "velocity": 0,
        "channel": 0
      },
      {
        "type": "note_on",
        "time": 0,
        "note": 47,
        "velocity": 0,
        "channel": 0
      },
      {
        "type": "note_on",
        "time": 0,
        "note": 52,
        "velocity": 0,
        "channel": 0
      },
      {
        "type": "note_on",
        "time": 0,
        "note": 55,
        "velocity": 0,
        "channel": 0
      },
      {
        "type": "note_on",
        "time": 0,
        "note": 59,
        "velocity": 0,
        "channel": 0
      },
      {
        "type": "note_on",
        "time": 0,
        "note": 64,
        "velocity": 0,
        "channel": 0
      },
      {
        "type": "note_on",
        "time": 121,
        "note": 54,
        "velocity": 60,
        "channel": 0
      },
      {
        "type": "note_on",
        "time": 119,
        "note": 54,
        "velocity": 0,
        "channel": 0
      },
      {
        "type": "note_on",
        "time": 1,
        "note": 42,
        "velocity": 60,
        "channel": 0
      },
      {
        "type": "note_on",
        "time": 0,
        "note": 49,
        "velocity": 60,
        "channel": 0
      },
      {
        "type": "note_on",
        "time": 0,
        "note": 54,
        "velocity": 60,
        "channel": 0
      },
      {
        "type": "note_on",
        "time": 0,
        "note": 58,
        "velocity": 60,
        "channel": 0
      },
      {
        "type": "note_on",
        "time": 0,
        "note": 61,
        "velocity": 60,
        "channel": 0
      },
      {
        "type": "note_on",
        "time": 0,
        "note": 66,
        "velocity": 60,
        "channel": 0
      },
      {
        "type": "note_on",
        "time": 239,
        "note": 42,
        "velocity": 0,
        "channel": 0
      },
      {
        "type": "note_on",
        "time": 0,
        "note": 49,
        "velocity": 0,
        "channel": 0
      },
      {
        "type": "note_on",
        "time": 0,
        "note": 54,
        "velocity": 0,
        "channel": 0
      },
      {
        "type": "note_on",
        "time": 0,
        "note": 58,
        "velocity": 0,
        "channel": 0
      },
      {
        "type": "note_on",
        "time": 0,
        "note": 61,
        "velocity": 0,
        "channel": 0
      },
      {
        "type": "note_on",
        "time": 0,
        "note": 66,
        "velocity": 0,
        "channel": 0
      },
      {
        "type": "control_change",
        "time": 241,
        "control": 7,
        "value": 80,
        "channel": 0
      },
      {
        "type": "note_on",
        "time": 0,
        "note": 54,
        "velocity": 60,
        "channel": 0
      },
      {
        "type": "note_on",
        "time": 0,
        "note": 47,
        "velocity": 60,
        "channel": 0
      },
      {
        "type": "note_on",
        "time": 0,
        "note": 42,
        "velocity": 60,
        "channel": 0
      },
      {
        "type": "note_on",
        "time": 0,
        "note": 59,
        "velocity": 60,
        "channel": 0
      },
      {
        "type": "note_on",
        "time": 0,
        "note": 62,
        "velocity": 60,
        "channel": 0
      },
      {
        "type": "note_on",
        "time": 0,
        "note": 66,
        "velocity": 60,
        "channel": 0
      },
      {
        "type": "note_on",
        "time": 59,
        "note": 54,
        "velocity": 0,
        "channel": 0
      },
      {
        "type": "note_on",
        "time": 0,
        "note": 47,
        "velocity": 0,
        "channel": 0
      },
      {
        "type": "note_on",
        "time": 0,
        "note": 42,
        "velocity": 0,
        "channel": 0
      },
      {
        "type": "note_on",
        "time": 0,
        "note": 59,
        "velocity": 0,
        "channel": 0
      },
      {
        "type": "note_on",
        "time": 0,
        "note": 62,
        "velocity": 0,
        "channel": 0
      },
      {
        "type": "note_on",
        "time": 0,
        "note": 66,
        "velocity": 0,
        "channel": 0
      },
      {
        "type": "note_on",
        "time": 1,
        "note": 66,
        "velocity": 60,
        "channel": 0
      },
      {
        "type": "note_on",
        "time": 0,
        "note": 59,
        "velocity": 60,
        "channel": 0
      },
      {
        "type": "note_on",
        "time": 0,
        "note": 62,
        "velocity": 60,
        "channel": 0
      },
      {
        "type": "note_on",
        "time": 0,
        "note": 54,
        "velocity": 60,
        "channel": 0
      },
      {
        "type": "note_on",
        "time": 0,
        "note": 47,
        "velocity": 60,
        "channel": 0
      },
      {
        "type": "note_on",
        "time": 0,
        "note": 42,
        "velocity": 60,
        "channel": 0
      },
      {
        "type": "note_on",
        "time": 29,
        "note": 66,
        "velocity": 0,
        "channel": 0
      },
      {
        "type": "note_on",
        "time": 0,
        "note": 59,
        "velocity": 0,
        "channel": 0
      },
      {
        "type": "note_on",
        "time": 0,
        "note": 62,
        "velocity": 0,
        "channel": 0
      },
      {
        "type": "note_on",
        "time": 0,
        "note": 54,
        "velocity": 0,
        "channel": 0
      },
      {
        "type": "note_on",
        "time": 0,
        "note": 47,
        "velocity": 0,
        "channel": 0
      },
      {
        "type": "note_on",
        "time": 0,
        "note": 42,
        "velocity": 0,
        "channel": 0
      },
      {
        "type": "note_on",
        "time": 1,
        "note": 66,
        "velocity": 60,
        "channel": 0
      },
      {
        "type": "note_on",
        "time": 0,
        "note": 59,
        "velocity": 60,
        "channel": 0
      },
      {
        "type": "note_on",
        "time": 0,
        "note": 62,
        "velocity": 60,
        "channel": 0
      },
      {
        "type": "note_on",
        "time": 0,
        "note": 54,
        "velocity": 60,
        "channel": 0
      },
      {
        "type": "note_on",
        "time": 0,
        "note": 47,
        "velocity": 60,
        "channel": 0
      },
      {
        "type": "note_on",
        "time": 0,
        "note": 42,
        "velocity": 60,
        "channel": 0
      },
      {
        "type": "note_on",
        "time": 29,
        "note": 66,
        "velocity": 0,
        "channel": 0
      },
      {
        "type": "note_on",
        "time": 0,
        "note": 59,
        "velocity": 0,
        "channel": 0
      },
      {
        "type": "note_on",
        "time": 0,
        "note": 62,
        "velocity": 0,
        "channel": 0
      },
      {
        "type": "note_on",
        "time": 0,
        "note": 54,
        "velocity": 0,
        "channel": 0
      },
      {
        "type": "note_on",
        "time": 0,
        "note": 47,
        "velocity": 0,
        "channel": 0
      },
      {
        "type": "note_on",
        "time": 0,
        "note": 42,
        "velocity": 0,
        "channel": 0
      },
      {
        "type": "note_on",
        "time": 1,
        "note": 66,
        "velocity": 60,
        "channel": 0
      },
      {
        "type": "note_on",
        "time": 0,
        "note": 62,
        "velocity": 60,
        "channel": 0
      },
      {
        "type": "note_on",
        "time": 0,
        "note": 59,
        "velocity": 60,
        "channel": 0
      },
      {
        "type": "note_on",
        "time": 0,
        "note": 54,
        "velocity": 60,
        "channel": 0
      },
      {
        "type": "note_on",
        "time": 0,
        "note": 47,
        "velocity": 60,
        "channel": 0
      },
      {
        "type": "note_on",
        "time": 0,
        "note": 42,
        "velocity": 60,
        "channel": 0
      },
      {
        "type": "note_on",
        "time": 59,
        "note": 66,
        "velocity": 0,
        "channel": 0
      },
      {
        "type": "note_on",
        "time": 0,
        "note": 62,
        "velocity": 0,
        "channel": 0
      },
      {
        "type": "note_on",
        "time": 0,
        "note": 59,
        "velocity": 0,
        "channel": 0
      },
      {
        "type": "note_on",
        "time": 0,
        "note": 54,
        "velocity": 0,
        "channel": 0
      },
      {
        "type": "note_on",
        "time": 0,
        "note": 47,
        "velocity": 0,
        "channel": 0
      },
      {
        "type": "note_on",
        "time": 0,
        "note": 42,
        "velocity": 0,
        "channel": 0
      },
      {
        "type": "note_on",
        "time": 1,
        "note": 66,
        "velocity": 60,
        "channel": 0
      },
      {
        "type": "note_on",
        "time": 0,
        "note": 62,
        "velocity": 60,
        "channel": 0
      },
      {
        "type": "note_on",
        "time": 0,
        "note": 59,
        "velocity": 60,
        "channel": 0
      },
      {
        "type": "note_on",
        "time": 0,
        "note": 54,
        "velocity": 60,
        "channel": 0
      },
      {
        "type": "note_on",
        "time": 0,
        "note": 47,
        "velocity": 60,
        "channel": 0
      },
      {
        "type": "note_on",
        "time": 0,
        "note": 42,
        "velocity": 60,
        "channel": 0
      },
      {
        "type": "note_on",
        "time": 29,
        "note": 66,
        "velocity": 0,
        "channel": 0
      },
      {
        "type": "note_on",
        "time": 0,
        "note": 62,
        "velocity": 0,
        "channel": 0
      },
      {
        "type": "note_on",
        "time": 0,
        "note": 59,
        "velocity": 0,
        "channel": 0
      },
      {
        "type": "note_on",
        "time": 0,
        "note": 54,
        "velocity": 0,
        "channel": 0
      },
      {
        "type": "note_on",
        "time": 0,
        "note": 47,
        "velocity": 0,
        "channel": 0
      },
      {
        "type": "note_on",
        "time": 0,
        "note": 42,
        "velocity": 0,
        "channel": 0
      },
      {
        "type": "note_on",
        "time": 1,
        "note": 66,
        "velocity": 60,
        "channel": 0
      },
      {
        "type": "note_on",
        "time": 0,
        "note": 62,
        "velocity": 60,
        "channel": 0
      },
      {
        "type": "note_on",
        "time": 0,
        "note": 59,
        "velocity": 60,
        "channel": 0
      },
      {
        "type": "note_on",
        "time": 0,
        "note": 54,
        "velocity": 60,
        "channel": 0
      },
      {
        "type": "note_on",
        "time": 0,
        "note": 47,
        "velocity": 60,
        "channel": 0
      },
      {
        "type": "note_on",
        "time": 0,
        "note": 42,
        "velocity": 60,
        "channel": 0
      },
      {
        "type": "note_on",
        "time": 29,
        "note": 66,
        "velocity": 0,
        "channel": 0
      },
      {
        "type": "note_on",
        "time": 0,
        "note": 62,
        "velocity": 0,
        "channel": 0
      },
      {
        "type": "note_on",
        "time": 0,
        "note": 59,
        "velocity": 0,
        "channel": 0
      },
      {
        "type": "note_on",
        "time": 0,
        "note": 54,
        "velocity": 0,
        "channel": 0
      },
      {
        "type": "note_on",
        "time": 0,
        "note": 47,
        "velocity": 0,
        "channel": 0
      },
      {
        "type": "note_on",
        "time": 0,
        "note": 42,
        "velocity": 0,
        "channel": 0
      },
      {
        "type": "note_on",
        "time": 1,
        "note": 66,
        "velocity": 60,
        "channel": 0
      },
      {
        "type": "note_on",
        "time": 0,
        "note": 62,
        "velocity": 60,
        "channel": 0
      },
      {
        "type": "note_on",
        "time": 0,
        "note": 59,
        "velocity": 60,
        "channel": 0
      },
      {
        "type": "note_on",
        "time": 0,
        "note": 54,
        "velocity": 60,
        "channel": 0
      },
      {
        "type": "note_on",
        "time": 0,
        "note": 47,
        "velocity": 60,
        "channel": 0
      },
      {
        "type": "note_on",
        "time": 0,
        "note": 42,
        "velocity": 60,
        "channel": 0
      },
      {
        "type": "note_on",
        "time": 29,
        "note": 66,
        "velocity": 0,
        "channel": 0
      },
      {
        "type": "note_on",
        "time": 0,
        "note": 62,
        "velocity": 0,
        "channel": 0
      },
      {
        "type": "note_on",
        "time": 0,
        "note": 59,
        "velocity": 0,
        "channel": 0
      },
      {
        "type": "note_on",
        "time": 0,
        "note": 54,
        "velocity": 0,
        "channel": 0
      },
      {
        "type": "note_on",
        "time": 0,
        "note": 47,
        "velocity": 0,
        "channel": 0
      },
      {
        "type": "note_on",
        "time": 0,
        "note": 42,
        "velocity": 0,
        "channel": 0
      },
      {
        "type": "note_on",
        "time": 1,
        "note": 66,
        "velocity": 60,
        "channel": 0
      },
      {
        "type": "note_on",
        "time": 0,
        "note": 62,
        "velocity": 60,
        "channel": 0
      },
      {
        "type": "note_on",
        "time": 0,
        "note": 59,
        "velocity": 60,
        "channel": 0
      },
      {
        "type": "note_on",
        "time": 0,
        "note": 54,
        "velocity": 60,
        "channel": 0
      },
      {
        "type": "note_on",
        "time": 0,
        "note": 47,
        "velocity": 60,
        "channel": 0
      },
      {
        "type": "note_on",
        "time": 0,
        "note": 42,
        "velocity": 60,
        "channel": 0
      },
      {
        "type": "note_on",
        "time": 29,
        "note": 66,
        "velocity": 0,
        "channel": 0
      },
      {
        "type": "note_on",
        "time": 0,
        "note": 62,
        "velocity": 0,
        "channel": 0
      },
      {
        "type": "note_on",
        "time": 0,
        "note": 59,
        "velocity": 0,
        "channel": 0
      },
      {
        "type": "note_on",
        "time": 0,
        "note": 54,
        "velocity": 0,
        "channel": 0
      },
      {
        "type": "note_on",
        "time": 0,
        "note": 47,
        "velocity": 0,
        "channel": 0
      },
      {
        "type": "note_on",
        "time": 0,
        "note": 42,
        "velocity": 0,
        "channel": 0
      },
      {
        "type": "note_on",
        "time": 1,
        "note": 66,
        "velocity": 60,
        "channel": 0
      },
      {
        "type": "note_on",
        "time": 0,
        "note": 62,
        "velocity": 60,
        "channel": 0
      },
      {
        "type": "note_on",
        "time": 0,
        "note": 59,
        "velocity": 60,
        "channel": 0
      },
      {
        "type": "note_on",
        "time": 0,
        "note": 54,
        "velocity": 60,
        "channel": 0
      },
      {
        "type": "note_on",
        "time": 0,
        "note": 47,
        "velocity": 60,
        "channel": 0
      },
      {
        "type": "note_on",
        "time": 0,
        "note": 42,
        "velocity": 60,
        "channel": 0
      },
      {
        "type": "note_on",
        "time": 29,
        "note": 66,
        "velocity": 0,
        "channel": 0
      },
      {
        "type": "note_on",
        "time": 0,
        "note": 62,
        "velocity": 0,
        "channel": 0
      },
      {
        "type": "note_on",
        "time": 0,
        "note": 59,
        "velocity": 0,
        "channel": 0
      },
      {
        "type": "note_on",
        "time": 0,
        "note": 54,
        "velocity": 0,
        "channel": 0
      },
      {
        "type": "note_on",
        "time": 0,
        "note": 47,
        "velocity": 0,
        "channel": 0
      },
      {
        "type": "note_on",
        "time": 0,
        "note": 42,
        "velocity": 0,
        "channel": 0
      },
      {
        "type": "note_on",
        "time": 1,
        "note": 66,
        "velocity": 60,
        "channel": 0
      },
      {
        "type": "note_on",
        "time": 0,
        "note": 62,
        "velocity": 60,
        "channel": 0
      },
      {
        "type": "note_on",
        "time": 0,
        "note": 59,
        "velocity": 60,
        "channel": 0
      },
      {
        "type": "note_on",
        "time": 0,
        "note": 54,
        "velocity": 60,
        "channel": 0
      },
      {
        "type": "note_on",
        "time": 0,
        "note": 47,
        "velocity": 60,
        "channel": 0
      },
      {
        "type": "note_on",
        "time": 0,
        "note": 42,
        "velocity": 60,
        "channel": 0
      },
      {
        "type": "note_on",
        "time": 59,
        "note": 66,
        "velocity": 0,
        "channel": 0
      },
      {
        "type": "note_on",
        "time": 0,
        "note": 62,
        "velocity": 0,
        "channel": 0
      },
      {
        "type": "note_on",
        "time": 0,
        "note": 59,
        "velocity": 0,
        "channel": 0
      },
      {
        "type": "note_on",
        "time": 0,
        "note": 54,
        "velocity": 0,
        "channel": 0
      },
      {
        "type": "note_on",
        "time": 0,
        "note": 47,
        "velocity": 0,
        "channel": 0
      },
      {
        "type": "note_on",
        "time": 0,
        "note": 42,
        "velocity": 0,
        "channel": 0
      },
      {
        "type": "note_on",
        "time": 1,
        "note": 66,
        "velocity": 60,
        "channel": 0
      },
      {
        "type": "note_on",
        "time": 0,
        "note": 62,
        "velocity": 60,
        "channel": 0
      },
      {
        "type": "note_on",
        "time": 0,
        "note": 59,
        "velocity": 60,
        "channel": 0
      },
      {
        "type": "note_on",
        "time": 0,
        "note": 54,
        "velocity": 60,
        "channel": 0
      },
      {
        "type": "note_on",
        "time": 0,
        "note": 47,
        "velocity": 60,
        "channel": 0
      },
      {
        "type": "note_on",
        "time": 0,
        "note": 42,
        "velocity": 60,
        "channel": 0
      },
      {
        "type": "note_on",
        "time": 29,
        "note": 66,
        "velocity": 0,
        "channel": 0
      },
      {
        "type": "note_on",
        "time": 0,
        "note": 62,
        "velocity": 0,
        "channel": 0
      },
      {
        "type": "note_on",
        "time": 0,
        "note": 59,
        "velocity": 0,
        "channel": 0
      },
      {
        "type": "note_on",
        "time": 0,
        "note": 54,
        "velocity": 0,
        "channel": 0
      },
      {
        "type": "note_on",
        "time": 0,
        "note": 47,
        "velocity": 0,
        "channel": 0
      },
      {
        "type": "note_on",
        "time": 0,
        "note": 42,
        "velocity": 0,
        "channel": 0
      },
      {
        "type": "note_on",
        "time": 1,
        "note": 66,
        "velocity": 60,
        "channel": 0
      },
      {
        "type": "note_on",
        "time": 0,
        "note": 62,
        "velocity": 60,
        "channel": 0
      },
      {
        "type": "note_on",
        "time": 0,
        "note": 59,
        "velocity": 60,
        "channel": 0
      },
      {
        "type": "note_on",
        "time": 0,
        "note": 54,
        "velocity": 60,
        "channel": 0
      },
      {
        "type": "note_on",
        "time": 0,
        "note": 47,
        "velocity": 60,
        "channel": 0
      },
      {
        "type": "note_on",
        "time": 0,
        "note": 42,
        "velocity": 60,
        "channel": 0
      },
      {
        "type": "note_on",
        "time": 59,
        "note": 66,
        "velocity": 0,
        "channel": 0
      },
      {
        "type": "note_on",
        "time": 0,
        "note": 62,
        "velocity": 0,
        "channel": 0
      },
      {
        "type": "note_on",
        "time": 0,
        "note": 59,
        "velocity": 0,
        "channel": 0
      },
      {
        "type": "note_on",
        "time": 0,
        "note": 54,
        "velocity": 0,
        "channel": 0
      },
      {
        "type": "note_on",
        "time": 0,
        "note": 47,
        "velocity": 0,
        "channel": 0
      },
      {
        "type": "note_on",
        "time": 0,
        "note": 42,
        "velocity": 0,
        "channel": 0
      },
      {
        "type": "note_on",
        "time": 1,
        "note": 42,
        "velocity": 60,
        "channel": 0
      },
      {
        "type": "note_on",
        "time": 0,
        "note": 49,
        "velocity": 60,
        "channel": 0
      },
      {
        "type": "note_on",
        "time": 0,
        "note": 54,
        "velocity": 60,
        "channel": 0
      },
      {
        "type": "note_on",
        "time": 0,
        "note": 58,
        "velocity": 60,
        "channel": 0
      },
      {
        "type": "note_on",
        "time": 0,
        "note": 61,
        "velocity": 60,
        "channel": 0
      },
      {
        "type": "note_on",
        "time": 0,
        "note": 66,
        "velocity": 60,
        "channel": 0
      },
      {
        "type": "note_on",
        "time": 59,
        "note": 42,
        "velocity": 0,
        "channel": 0
      },
      {
        "type": "note_on",
        "time": 0,
        "note": 49,
        "velocity": 0,
        "channel": 0
      },
      {
        "type": "note_on",
        "time": 0,
        "note": 54,
        "velocity": 0,
        "channel": 0
      },
      {
        "type": "note_on",
        "time": 0,
        "note": 58,
        "velocity": 0,
        "channel": 0
      },
      {
        "type": "note_on",
        "time": 0,
        "note": 61,
        "velocity": 0,
        "channel": 0
      },
      {
        "type": "note_on",
        "time": 0,
        "note": 66,
        "velocity": 0,
        "channel": 0
      },
      {
        "type": "note_on",
        "time": 1,
        "note": 66,
        "velocity": 60,
        "channel": 0
      },
      {
        "type": "note_on",
        "time": 0,
        "note": 61,
        "velocity": 60,
        "channel": 0
      },
      {
        "type": "note_on",
        "time": 0,
        "note": 58,
        "velocity": 60,
        "channel": 0
      },
      {
        "type": "note_on",
        "time": 0,
        "note": 54,
        "velocity": 60,
        "channel": 0
      },
      {
        "type": "note_on",
        "time": 0,
        "note": 49,
        "velocity": 60,
        "channel": 0
      },
      {
        "type": "note_on",
        "time": 0,
        "note": 42,
        "velocity": 60,
        "channel": 0
      },
      {
        "type": "note_on",
        "time": 29,
        "note": 66,
        "velocity": 0,
        "channel": 0
      },
      {
        "type": "note_on",
        "time": 0,
        "note": 61,
        "velocity": 0,
        "channel": 0
      },
      {
        "type": "note_on",
        "time": 0,
        "note": 58,
        "velocity": 0,
        "channel": 0
      },
      {
        "type": "note_on",
        "time": 0,
        "note": 54,
        "velocity": 0,
        "channel": 0
      },
      {
        "type": "note_on",
        "time": 0,
        "note": 49,
        "velocity": 0,
        "channel": 0
      },
      {
        "type": "note_on",
        "time": 0,
        "note": 42,
        "velocity": 0,
        "channel": 0
      },
      {
        "type": "note_on",
        "time": 1,
        "note": 66,
        "velocity": 60,
        "channel": 0
      },
      {
        "type": "note_on",
        "time": 0,
        "note": 61,
        "velocity": 60,
        "channel": 0
      },
      {
        "type": "note_on",
        "time": 0,
        "note": 58,
        "velocity": 60,
        "channel": 0
      },
      {
        "type": "note_on",
        "time": 0,
        "note": 54,
        "velocity": 60,
        "channel": 0
      },
      {
        "type": "note_on",
        "time": 0,
        "note": 49,
        "velocity": 60,
        "channel": 0
      },
      {
        "type": "note_on",
        "time": 0,
        "note": 42,
        "velocity": 60,
        "channel": 0
      },
      {
        "type": "note_on",
        "time": 29,
        "note": 66,
        "velocity": 0,
        "channel": 0
      },
      {
        "type": "note_on",
        "time": 0,
        "note": 61,
        "velocity": 0,
        "channel": 0
      },
      {
        "type": "note_on",
        "time": 0,
        "note": 58,
        "velocity": 0,
        "channel": 0
      },
      {
        "type": "note_on",
        "time": 0,
        "note": 54,
        "velocity": 0,
        "channel": 0
      },
      {
        "type": "note_on",
        "time": 0,
        "note": 49,
        "velocity": 0,
        "channel": 0
      },
      {
        "type": "note_on",
        "time": 0,
        "note": 42,
        "velocity": 0,
        "channel": 0
      },
      {
        "type": "note_on",
        "time": 1,
        "note": 66,
        "velocity": 60,
        "channel": 0
      },
      {
        "type": "note_on",
        "time": 0,
        "note": 58,
        "velocity": 60,
        "channel": 0
      },
      {
        "type": "note_on",
        "time": 0,
        "note": 61,
        "velocity": 60,
        "channel": 0
      },
      {
        "type": "note_on",
        "time": 0,
        "note": 54,
        "velocity": 60,
        "channel": 0
      },
      {
        "type": "note_on",
        "time": 0,
        "note": 49,
        "velocity": 60,
        "channel": 0
      },
      {
        "type": "note_on",
        "time": 0,
        "note": 42,
        "velocity": 60,
        "channel": 0
      },
      {
        "type": "note_on",
        "time": 59,
        "note": 66,
        "velocity": 0,
        "channel": 0
      },
      {
        "type": "note_on",
        "time": 0,
        "note": 58,
        "velocity": 0,
        "channel": 0
      },
      {
        "type": "note_on",
        "time": 0,
        "note": 61,
        "velocity": 0,
        "channel": 0
      },
      {
        "type": "note_on",
        "time": 0,
        "note": 54,
        "velocity": 0,
        "channel": 0
      },
      {
        "type": "note_on",
        "time": 0,
        "note": 49,
        "velocity": 0,
        "channel": 0
      },
      {
        "type": "note_on",
        "time": 0,
        "note": 42,
        "velocity": 0,
        "channel": 0
      },
      {
        "type": "note_on",
        "time": 1,
        "note": 66,
        "velocity": 60,
        "channel": 0
      },
      {
        "type": "note_on",
        "time": 0,
        "note": 61,
        "velocity": 60,
        "channel": 0
      },
      {
        "type": "note_on",
        "time": 0,
        "note": 58,
        "velocity": 60,
        "channel": 0
      },
      {
        "type": "note_on",
        "time": 0,
        "note": 54,
        "velocity": 60,
        "channel": 0
      },
      {
        "type": "note_on",
        "time": 0,
        "note": 49,
        "velocity": 60,
        "channel": 0
      },
      {
        "type": "note_on",
        "time": 0,
        "note": 42,
        "velocity": 60,
        "channel": 0
      },
      {
        "type": "note_on",
        "time": 29,
        "note": 66,
        "velocity": 0,
        "channel": 0
      },
      {
        "type": "note_on",
        "time": 0,
        "note": 61,
        "velocity": 0,
        "channel": 0
      },
      {
        "type": "note_on",
        "time": 0,
        "note": 58,
        "velocity": 0,
        "channel": 0
      },
      {
        "type": "note_on",
        "time": 0,
        "note": 54,
        "velocity": 0,
        "channel": 0
      },
      {
        "type": "note_on",
        "time": 0,
        "note": 49,
        "velocity": 0,
        "channel": 0
      },
      {
        "type": "note_on",
        "time": 0,
        "note": 42,
        "velocity": 0,
        "channel": 0
      },
      {
        "type": "note_on",
        "time": 1,
        "note": 66,
        "velocity": 60,
        "channel": 0
      },
      {
        "type": "note_on",
        "time": 0,
        "note": 61,
        "velocity": 60,
        "channel": 0
      },
      {
        "type": "note_on",
        "time": 0,
        "note": 58,
        "velocity": 60,
        "channel": 0
      },
      {
        "type": "note_on",
        "time": 0,
        "note": 54,
        "velocity": 60,
        "channel": 0
      },
      {
        "type": "note_on",
        "time": 0,
        "note": 49,
        "velocity": 60,
        "channel": 0
      },
      {
        "type": "note_on",
        "time": 0,
        "note": 42,
        "velocity": 60,
        "channel": 0
      },
      {
        "type": "note_on",
        "time": 29,
        "note": 66,
        "velocity": 0,
        "channel": 0
      },
      {
        "type": "note_on",
        "time": 0,
        "note": 61,
        "velocity": 0,
        "channel": 0
      },
      {
        "type": "note_on",
        "time": 0,
        "note": 58,
        "velocity": 0,
        "channel": 0
      },
      {
        "type": "note_on",
        "time": 0,
        "note": 54,
        "velocity": 0,
        "channel": 0
      },
      {
        "type": "note_on",
        "time": 0,
        "note": 49,
        "velocity": 0,
        "channel": 0
      },
      {
        "type": "note_on",
        "time": 0,
        "note": 42,
        "velocity": 0,
        "channel": 0
      },
      {
        "type": "note_on",
        "time": 1,
        "note": 66,
        "velocity": 60,
        "channel": 0
      },
      {
        "type": "note_on",
        "time": 0,
        "note": 61,
        "velocity": 60,
        "channel": 0
      },
      {
        "type": "note_on",
        "time": 0,
        "note": 58,
        "velocity": 60,
        "channel": 0
      },
      {
        "type": "note_on",
        "time": 0,
        "note": 54,
        "velocity": 60,
        "channel": 0
      },
      {
        "type": "note_on",
        "time": 0,
        "note": 49,
        "velocity": 60,
        "channel": 0
      },
      {
        "type": "note_on",
        "time": 0,
        "note": 42,
        "velocity": 60,
        "channel": 0
      },
      {
        "type": "note_on",
        "time": 179,
        "note": 66,
        "velocity": 0,
        "channel": 0
      },
      {
        "type": "note_on",
        "time": 0,
        "note": 61,
        "velocity": 0,
        "channel": 0
      },
      {
        "type": "note_on",
        "time": 0,
        "note": 58,
        "velocity": 0,
        "channel": 0
      },
      {
        "type": "note_on",
        "time": 0,
        "note": 54,
        "velocity": 0,
        "channel": 0
      },
      {
        "type": "note_on",
        "time": 0,
        "note": 49,
        "velocity": 0,
        "channel": 0
      },
      {
        "type": "note_on",
        "time": 0,
        "note": 42,
        "velocity": 0,
        "channel": 0
      },
      {
        "type": "note_on",
        "time": 1,
        "note": 66,
        "velocity": 60,
        "channel": 0
      },
      {
        "type": "note_on",
        "time": 0,
        "note": 61,
        "velocity": 60,
        "channel": 0
      },
      {
        "type": "note_on",
        "time": 0,
        "note": 58,
        "velocity": 60,
        "channel": 0
      },
      {
        "type": "note_on",
        "time": 0,
        "note": 54,
        "velocity": 60,
        "channel": 0
      },
      {
        "type": "note_on",
        "time": 0,
        "note": 49,
        "velocity": 60,
        "channel": 0
      },
      {
        "type": "note_on",
        "time": 0,
        "note": 42,
        "velocity": 60,
        "channel": 0
      },
      {
        "type": "note_on",
        "time": 29,
        "note": 66,
        "velocity": 0,
        "channel": 0
      },
      {
        "type": "note_on",
        "time": 0,
        "note": 61,
        "velocity": 0,
        "channel": 0
      },
      {
        "type": "note_on",
        "time": 0,
        "note": 58,
        "velocity": 0,
        "channel": 0
      },
      {
        "type": "note_on",
        "time": 0,
        "note": 54,
        "velocity": 0,
        "channel": 0
      },
      {
        "type": "note_on",
        "time": 0,
        "note": 49,
        "velocity": 0,
        "channel": 0
      },
      {
        "type": "note_on",
        "time": 0,
        "note": 42,
        "velocity": 0,
        "channel": 0
      },
      {
        "type": "note_on",
        "time": 1,
        "note": 66,
        "velocity": 60,
        "channel": 0
      },
      {
        "type": "note_on",
        "time": 0,
        "note": 61,
        "velocity": 60,
        "channel": 0
      },
      {
        "type": "note_on",
        "time": 0,
        "note": 58,
        "velocity": 60,
        "channel": 0
      },
      {
        "type": "note_on",
        "time": 0,
        "note": 54,
        "velocity": 60,
        "channel": 0
      },
      {
        "type": "note_on",
        "time": 0,
        "note": 49,
        "velocity": 60,
        "channel": 0
      },
      {
        "type": "note_on",
        "time": 0,
        "note": 42,
        "velocity": 60,
        "channel": 0
      },
      {
        "type": "note_on",
        "time": 29,
        "note": 66,
        "velocity": 0,
        "channel": 0
      },
      {
        "type": "note_on",
        "time": 0,
        "note": 61,
        "velocity": 0,
        "channel": 0
      },
      {
        "type": "note_on",
        "time": 0,
        "note": 58,
        "velocity": 0,
        "channel": 0
      },
      {
        "type": "note_on",
        "time": 0,
        "note": 54,
        "velocity": 0,
        "channel": 0
      },
      {
        "type": "note_on",
        "time": 0,
        "note": 49,
        "velocity": 0,
        "channel": 0
      },
      {
        "type": "note_on",
        "time": 0,
        "note": 42,
        "velocity": 0,
        "channel": 0
      },
      {
        "type": "note_on",
        "time": 1,
        "note": 40,
        "velocity": 60,
        "channel": 0
      },
      {
        "type": "note_on",
        "time": 0,
        "note": 45,
        "velocity": 60,
        "channel": 0
      },
      {
        "type": "note_on",
        "time": 0,
        "note": 52,
        "velocity": 60,
        "channel": 0
      },
      {
        "type": "note_on",
        "time": 0,
        "note": 57,
        "velocity": 60,
        "channel": 0
      },
      {
        "type": "note_on",
        "time": 0,
        "note": 61,
        "velocity": 60,
        "channel": 0
      },
      {
        "type": "note_on",
        "time": 0,
        "note": 64,
        "velocity": 60,
        "channel": 0
      },
      {
        "type": "note_on",
        "time": 59,
        "note": 40,
        "velocity": 0,
        "channel": 0
      },
      {
        "type": "note_on",
        "time": 0,
        "note": 45,
        "velocity": 0,
        "channel": 0
      },
      {
        "type": "note_on",
        "time": 0,
        "note": 52,
        "velocity": 0,
        "channel": 0
      },
      {
        "type": "note_on",
        "time": 0,
        "note": 57,
        "velocity": 0,
        "channel": 0
      },
      {
        "type": "note_on",
        "time": 0,
        "note": 61,
        "velocity": 0,
        "channel": 0
      },
      {
        "type": "note_on",
        "time": 0,
        "note": 64,
        "velocity": 0,
        "channel": 0
      },
      {
        "type": "note_on",
        "time": 1,
        "note": 64,
        "velocity": 60,
        "channel": 0
      },
      {
        "type": "note_on",
        "time": 0,
        "note": 61,
        "velocity": 60,
        "channel": 0
      },
      {
        "type": "note_on",
        "time": 0,
        "note": 57,
        "velocity": 60,
        "channel": 0
      },
      {
        "type": "note_on",
        "time": 0,
        "note": 52,
        "velocity": 60,
        "channel": 0
      },
      {
        "type": "note_on",
        "time": 0,
        "note": 45,
        "velocity": 60,
        "channel": 0
      },
      {
        "type": "note_on",
        "time": 0,
        "note": 40,
        "velocity": 60,
        "channel": 0
      },
      {
        "type": "note_on",
        "time": 29,
        "note": 64,
        "velocity": 0,
        "channel": 0
      },
      {
        "type": "note_on",
        "time": 0,
        "note": 61,
        "velocity": 0,
        "channel": 0
      },
      {
        "type": "note_on",
        "time": 0,
        "note": 57,
        "velocity": 0,
        "channel": 0
      },
      {
        "type": "note_on",
        "time": 0,
        "note": 52,
        "velocity": 0,
        "channel": 0
      },
      {
        "type": "note_on",
        "time": 0,
        "note": 45,
        "velocity": 0,
        "channel": 0
      },
      {
        "type": "note_on",
        "time": 0,
        "note": 40,
        "velocity": 0,
        "channel": 0
      },
      {
        "type": "note_on",
        "time": 1,
        "note": 64,
        "velocity": 60,
        "channel": 0
      },
      {
        "type": "note_on",
        "time": 0,
        "note": 61,
        "velocity": 60,
        "channel": 0
      },
      {
        "type": "note_on",
        "time": 0,
        "note": 57,
        "velocity": 60,
        "channel": 0
      },
      {
        "type": "note_on",
        "time": 0,
        "note": 52,
        "velocity": 60,
        "channel": 0
      },
      {
        "type": "note_on",
        "time": 0,
        "note": 45,
        "velocity": 60,
        "channel": 0
      },
      {
        "type": "note_on",
        "time": 0,
        "note": 40,
        "velocity": 60,
        "channel": 0
      },
      {
        "type": "note_on",
        "time": 29,
        "note": 64,
        "velocity": 0,
        "channel": 0
      },
      {
        "type": "note_on",
        "time": 0,
        "note": 61,
        "velocity": 0,
        "channel": 0
      },
      {
        "type": "note_on",
        "time": 0,
        "note": 57,
        "velocity": 0,
        "channel": 0
      },
      {
        "type": "note_on",
        "time": 0,
        "note": 52,
        "velocity": 0,
        "channel": 0
      },
      {
        "type": "note_on",
        "time": 0,
        "note": 45,
        "velocity": 0,
        "channel": 0
      },
      {
        "type": "note_on",
        "time": 0,
        "note": 40,
        "velocity": 0,
        "channel": 0
      },
      {
        "type": "note_on",
        "time": 1,
        "note": 64,
        "velocity": 60,
        "channel": 0
      },
      {
        "type": "note_on",
        "time": 0,
        "note": 61,
        "velocity": 60,
        "channel": 0
      },
      {
        "type": "note_on",
        "time": 0,
        "note": 57,
        "velocity": 60,
        "channel": 0
      },
      {
        "type": "note_on",
        "time": 0,
        "note": 52,
        "velocity": 60,
        "channel": 0
      },
      {
        "type": "note_on",
        "time": 0,
        "note": 45,
        "velocity": 60,
        "channel": 0
      },
      {
        "type": "note_on",
        "time": 0,
        "note": 40,
        "velocity": 60,
        "channel": 0
      },
      {
        "type": "note_on",
        "time": 59,
        "note": 64,
        "velocity": 0,
        "channel": 0
      },
      {
        "type": "note_on",
        "time": 0,
        "note": 61,
        "velocity": 0,
        "channel": 0
      },
      {
        "type": "note_on",
        "time": 0,
        "note": 57,
        "velocity": 0,
        "channel": 0
      },
      {
        "type": "note_on",
        "time": 0,
        "note": 52,
        "velocity": 0,
        "channel": 0
      },
      {
        "type": "note_on",
        "time": 0,
        "note": 45,
        "velocity": 0,
        "channel": 0
      },
      {
        "type": "note_on",
        "time": 0,
        "note": 40,
        "velocity": 0,
        "channel": 0
      },
      {
        "type": "note_on",
        "time": 1,
        "note": 64,
        "velocity": 60,
        "channel": 0
      },
      {
        "type": "note_on",
        "time": 0,
        "note": 61,
        "velocity": 60,
        "channel": 0
      },
      {
        "type": "note_on",
        "time": 0,
        "note": 57,
        "velocity": 60,
        "channel": 0
      },
      {
        "type": "note_on",
        "time": 0,
        "note": 52,
        "velocity": 60,
        "channel": 0
      },
      {
        "type": "note_on",
        "time": 0,
        "note": 45,
        "velocity": 60,
        "channel": 0
      },
      {
        "type": "note_on",
        "time": 0,
        "note": 40,
        "velocity": 60,
        "channel": 0
      },
      {
        "type": "note_on",
        "time": 29,
        "note": 64,
        "velocity": 0,
        "channel": 0
      },
      {
        "type": "note_on",
        "time": 0,
        "note": 61,
        "velocity": 0,
        "channel": 0
      },
      {
        "type": "note_on",
        "time": 0,
        "note": 57,
        "velocity": 0,
        "channel": 0
      },
      {
        "type": "note_on",
        "time": 0,
        "note": 52,
        "velocity": 0,
        "channel": 0
      },
      {
        "type": "note_on",
        "time": 0,
        "note": 45,
        "velocity": 0,
        "channel": 0
      },
      {
        "type": "note_on",
        "time": 0,
        "note": 40,
        "velocity": 0,
        "channel": 0
      },
      {
        "type": "note_on",
        "time": 1,
        "note": 64,
        "velocity": 60,
        "channel": 0
      },
      {
        "type": "note_on",
        "time": 0,
        "note": 61,
        "velocity": 60,
        "channel": 0
      },
      {
        "type": "note_on",
        "time": 0,
        "note": 57,
        "velocity": 60,
        "channel": 0
      },
      {
        "type": "note_on",
        "time": 0,
        "note": 52,
        "velocity": 60,
        "channel": 0
      },
      {
        "type": "note_on",
        "time": 0,
        "note": 45,
        "velocity": 60,
        "channel": 0
      },
      {
        "type": "note_on",
        "time": 0,
        "note": 40,
        "velocity": 60,
        "channel": 0
      },
      {
        "type": "note_on",
        "time": 29,
        "note": 64,
        "velocity": 0,
        "channel": 0
      },
      {
        "type": "note_on",
        "time": 0,
        "note": 61,
        "velocity": 0,
        "channel": 0
      },
      {
        "type": "note_on",
        "time": 0,
        "note": 57,
        "velocity": 0,
        "channel": 0
      },
      {
        "type": "note_on",
        "time": 0,
        "note": 52,
        "velocity": 0,
        "channel": 0
      },
      {
        "type": "note_on",
        "time": 0,
        "note": 45,
        "velocity": 0,
        "channel": 0
      },
      {
        "type": "note_on",
        "time": 0,
        "note": 40,
        "velocity": 0,
        "channel": 0
      },
      {
        "type": "note_on",
        "time": 1,
        "note": 64,
        "velocity": 60,
        "channel": 0
      },
      {
        "type": "note_on",
        "time": 0,
        "note": 61,
        "velocity": 60,
        "channel": 0
      },
      {
        "type": "note_on",
        "time": 0,
        "note": 57,
        "velocity": 60,
        "channel": 0
      },
      {
        "type": "note_on",
        "time": 0,
        "note": 52,
        "velocity": 60,
        "channel": 0
      },
      {
        "type": "note_on",
        "time": 0,
        "note": 45,
        "velocity": 60,
        "channel": 0
      },
      {
        "type": "note_on",
        "time": 0,
        "note": 40,
        "velocity": 60,
        "channel": 0
      },
      {
        "type": "note_on",
        "time": 29,
        "note": 64,
        "velocity": 0,
        "channel": 0
      },
      {
        "type": "note_on",
        "time": 0,
        "note": 61,
        "velocity": 0,
        "channel": 0
      },
      {
        "type": "note_on",
        "time": 0,
        "note": 57,
        "velocity": 0,
        "channel": 0
      },
      {
        "type": "note_on",
        "time": 0,
        "note": 52,
        "velocity": 0,
        "channel": 0
      },
      {
        "type": "note_on",
        "time": 0,
        "note": 45,
        "velocity": 0,
        "channel": 0
      },
      {
        "type": "note_on",
        "time": 0,
        "note": 40,
        "velocity": 0,
        "channel": 0
      },
      {
        "type": "note_on",
        "time": 1,
        "note": 64,
        "velocity": 60,
        "channel": 0
      },
      {
        "type": "note_on",
        "time": 0,
        "note": 61,
        "velocity": 60,
        "channel": 0
      },
      {
        "type": "note_on",
        "time": 0,
        "note": 57,
        "velocity": 60,
        "channel": 0
      },
      {
        "type": "note_on",
        "time": 0,
        "note": 52,
        "velocity": 60,
        "channel": 0
      },
      {
        "type": "note_on",
        "time": 0,
        "note": 45,
        "velocity": 60,
        "channel": 0
      },
      {
        "type": "note_on",
        "time": 0,
        "note": 40,
        "velocity": 60,
        "channel": 0
      },
      {
        "type": "note_on",
        "time": 29,
        "note": 64,
        "velocity": 0,
        "channel": 0
      },
      {
        "type": "note_on",
        "time": 0,
        "note": 61,
        "velocity": 0,
        "channel": 0
      },
      {
        "type": "note_on",
        "time": 0,
        "note": 57,
        "velocity": 0,
        "channel": 0
      },
      {
        "type": "note_on",
        "time": 0,
        "note": 52,
        "velocity": 0,
        "channel": 0
      },
      {
        "type": "note_on",
        "time": 0,
        "note": 45,
        "velocity": 0,
        "channel": 0
      },
      {
        "type": "note_on",
        "time": 0,
        "note": 40,
        "velocity": 0,
        "channel": 0
      },
      {
        "type": "note_on",
        "time": 1,
        "note": 64,
        "velocity": 60,
        "channel": 0
      },
      {
        "type": "note_on",
        "time": 0,
        "note": 61,
        "velocity": 60,
        "channel": 0
      },
      {
        "type": "note_on",
        "time": 0,
        "note": 57,
        "velocity": 60,
        "channel": 0
      },
      {
        "type": "note_on",
        "time": 0,
        "note": 52,
        "velocity": 60,
        "channel": 0
      },
      {
        "type": "note_on",
        "time": 0,
        "note": 45,
        "velocity": 60,
        "channel": 0
      },
      {
        "type": "note_on",
        "time": 0,
        "note": 40,
        "velocity": 60,
        "channel": 0
      },
      {
        "type": "note_on",
        "time": 29,
        "note": 64,
        "velocity": 0,
        "channel": 0
      },
      {
        "type": "note_on",
        "time": 0,
        "note": 61,
        "velocity": 0,
        "channel": 0
      },
      {
        "type": "note_on",
        "time": 0,
        "note": 57,
        "velocity": 0,
        "channel": 0
      },
      {
        "type": "note_on",
        "time": 0,
        "note": 52,
        "velocity": 0,
        "channel": 0
      },
      {
        "type": "note_on",
        "time": 0,
        "note": 45,
        "velocity": 0,
        "channel": 0
      },
      {
        "type": "note_on",
        "time": 0,
        "note": 40,
        "velocity": 0,
        "channel": 0
      },
      {
        "type": "note_on",
        "time": 1,
        "note": 64,
        "velocity": 60,
        "channel": 0
      },
      {
        "type": "note_on",
        "time": 0,
        "note": 61,
        "velocity": 60,
        "channel": 0
      },
      {
        "type": "note_on",
        "time": 0,
        "note": 57,
        "velocity": 60,
        "channel": 0
      },
      {
        "type": "note_on",
        "time": 0,
        "note": 52,
        "velocity": 60,
        "channel": 0
      },
      {
        "type": "note_on",
        "time": 0,
        "note": 45,
        "velocity": 60,
        "channel": 0
      },
      {
        "type": "note_on",
        "time": 0,
        "note": 40,
        "velocity": 60,
        "channel": 0
      },
      {
        "type": "note_on",
        "time": 59,
        "note": 64,
        "velocity": 0,
        "channel": 0
      },
      {
        "type": "note_on",
        "time": 0,
        "note": 61,
        "velocity": 0,
        "channel": 0
      },
      {
        "type": "note_on",
        "time": 0,
        "note": 57,
        "velocity": 0,
        "channel": 0
      },
      {
        "type": "note_on",
        "time": 0,
        "note": 52,
        "velocity": 0,
        "channel": 0
      },
      {
        "type": "note_on",
        "time": 0,
        "note": 45,
        "velocity": 0,
        "channel": 0
      },
      {
        "type": "note_on",
        "time": 0,
        "note": 40,
        "velocity": 0,
        "channel": 0
      },
      {
        "type": "note_on",
        "time": 1,
        "note": 64,
        "velocity": 60,
        "channel": 0
      },
      {
        "type": "note_on",
        "time": 0,
        "note": 61,
        "velocity": 60,
        "channel": 0
      },
      {
        "type": "note_on",
        "time": 0,
        "note": 57,
        "velocity": 60,
        "channel": 0
      },
      {
        "type": "note_on",
        "time": 0,
        "note": 52,
        "velocity": 60,
        "channel": 0
      },
      {
        "type": "note_on",
        "time": 0,
        "note": 45,
        "velocity": 60,
        "channel": 0
      },
      {
        "type": "note_on",
        "time": 0,
        "note": 40,
        "velocity": 60,
        "channel": 0
      },
      {
        "type": "note_on",
        "time": 29,
        "note": 64,
        "velocity": 0,
        "channel": 0
      },
      {
        "type": "note_on",
        "time": 0,
        "note": 61,
        "velocity": 0,
        "channel": 0
      },
      {
        "type": "note_on",
        "time": 0,
        "note": 57,
        "velocity": 0,
        "channel": 0
      },
      {
        "type": "note_on",
        "time": 0,
        "note": 52,
        "velocity": 0,
        "channel": 0
      },
      {
        "type": "note_on",
        "time": 0,
        "note": 45,
        "velocity": 0,
        "channel": 0
      },
      {
        "type": "note_on",
        "time": 0,
        "note": 40,
        "velocity": 0,
        "channel": 0
      },
      {
        "type": "note_on",
        "time": 1,
        "note": 64,
        "velocity": 60,
        "channel": 0
      },
      {
        "type": "note_on",
        "time": 0,
        "note": 61,
        "velocity": 60,
        "channel": 0
      },
      {
        "type": "note_on",
        "time": 0,
        "note": 57,
        "velocity": 60,
        "channel": 0
      },
      {
        "type": "note_on",
        "time": 0,
        "note": 52,
        "velocity": 60,
        "channel": 0
      },
      {
        "type": "note_on",
        "time": 0,
        "note": 45,
        "velocity": 60,
        "channel": 0
      },
      {
        "type": "note_on",
        "time": 0,
        "note": 40,
        "velocity": 60,
        "channel": 0
      },
      {
        "type": "note_on",
        "time": 59,
        "note": 64,
        "velocity": 0,
        "channel": 0
      },
      {
        "type": "note_on",
        "time": 0,
        "note": 61,
        "velocity": 0,
        "channel": 0
      },
      {
        "type": "note_on",
        "time": 0,
        "note": 57,
        "velocity": 0,
        "channel": 0
      },
      {
        "type": "note_on",
        "time": 0,
        "note": 52,
        "velocity": 0,
        "channel": 0
      },
      {
        "type": "note_on",
        "time": 0,
        "note": 45,
        "velocity": 0,
        "channel": 0
      },
      {
        "type": "note_on",
        "time": 0,
        "note": 40,
        "velocity": 0,
        "channel": 0
      },
      {
        "type": "note_on",
        "time": 1,
        "note": 40,
        "velocity": 60,
        "channel": 0
      },
      {
        "type": "note_on",
        "time": 0,
        "note": 47,
        "velocity": 60,
        "channel": 0
      },
      {
        "type": "note_on",
        "time": 0,
        "note": 52,
        "velocity": 60,
        "channel": 0
      },
      {
        "type": "note_on",
        "time": 0,
        "note": 56,
        "velocity": 60,
        "channel": 0
      },
      {
        "type": "note_on",
        "time": 0,
        "note": 59,
        "velocity": 60,
        "channel": 0
      },
      {
        "type": "note_on",
        "time": 0,
        "note": 64,
        "velocity": 60,
        "channel": 0
      },
      {
        "type": "note_on",
        "time": 59,
        "note": 40,
        "velocity": 0,
        "channel": 0
      },
      {
        "type": "note_on",
        "time": 0,
        "note": 47,
        "velocity": 0,
        "channel": 0
      },
      {
        "type": "note_on",
        "time": 0,
        "note": 52,
        "velocity": 0,
        "channel": 0
      },
      {
        "type": "note_on",
        "time": 0,
        "note": 56,
        "velocity": 0,
        "channel": 0
      },
      {
        "type": "note_on",
        "time": 0,
        "note": 59,
        "velocity": 0,
        "channel": 0
      },
      {
        "type": "note_on",
        "time": 0,
        "note": 64,
        "velocity": 0,
        "channel": 0
      },
      {
        "type": "note_on",
        "time": 1,
        "note": 64,
        "velocity": 60,
        "channel": 0
      },
      {
        "type": "note_on",
        "time": 0,
        "note": 59,
        "velocity": 60,
        "channel": 0
      },
      {
        "type": "note_on",
        "time": 0,
        "note": 56,
        "velocity": 60,
        "channel": 0
      },
      {
        "type": "note_on",
        "time": 0,
        "note": 52,
        "velocity": 60,
        "channel": 0
      },
      {
        "type": "note_on",
        "time": 0,
        "note": 47,
        "velocity": 60,
        "channel": 0
      },
      {
        "type": "note_on",
        "time": 0,
        "note": 40,
        "velocity": 60,
        "channel": 0
      },
      {
        "type": "note_on",
        "time": 29,
        "note": 64,
        "velocity": 0,
        "channel": 0
      },
      {
        "type": "note_on",
        "time": 0,
        "note": 59,
        "velocity": 0,
        "channel": 0
      },
      {
        "type": "note_on",
        "time": 0,
        "note": 56,
        "velocity": 0,
        "channel": 0
      },
      {
        "type": "note_on",
        "time": 0,
        "note": 52,
        "velocity": 0,
        "channel": 0
      },
      {
        "type": "note_on",
        "time": 0,
        "note": 47,
        "velocity": 0,
        "channel": 0
      },
      {
        "type": "note_on",
        "time": 0,
        "note": 40,
        "velocity": 0,
        "channel": 0
      },
      {
        "type": "note_on",
        "time": 1,
        "note": 64,
        "velocity": 60,
        "channel": 0
      },
      {
        "type": "note_on",
        "time": 0,
        "note": 59,
        "velocity": 60,
        "channel": 0
      },
      {
        "type": "note_on",
        "time": 0,
        "note": 56,
        "velocity": 60,
        "channel": 0
      },
      {
        "type": "note_on",
        "time": 0,
        "note": 52,
        "velocity": 60,
        "channel": 0
      },
      {
        "type": "note_on",
        "time": 0,
        "note": 47,
        "velocity": 60,
        "channel": 0
      },
      {
        "type": "note_on",
        "time": 0,
        "note": 40,
        "velocity": 60,
        "channel": 0
      },
      {
        "type": "note_on",
        "time": 29,
        "note": 64,
        "velocity": 0,
        "channel": 0
      },
      {
        "type": "note_on",
        "time": 0,
        "note": 59,
        "velocity": 0,
        "channel": 0
      },
      {
        "type": "note_on",
        "time": 0,
        "note": 56,
        "velocity": 0,
        "channel": 0
      },
      {
        "type": "note_on",
        "time": 0,
        "note": 52,
        "velocity": 0,
        "channel": 0
      },
      {
        "type": "note_on",
        "time": 0,
        "note": 47,
        "velocity": 0,
        "channel": 0
      },
      {
        "type": "note_on",
        "time": 0,
        "note": 40,
        "velocity": 0,
        "channel": 0
      },
      {
        "type": "note_on",
        "time": 1,
        "note": 64,
        "velocity": 60,
        "channel": 0
      },
      {
        "type": "note_on",
        "time": 0,
        "note": 59,
        "velocity": 60,
        "channel": 0
      },
      {
        "type": "note_on",
        "time": 0,
        "note": 56,
        "velocity": 60,
        "channel": 0
      },
      {
        "type": "note_on",
        "time": 0,
        "note": 52,
        "velocity": 60,
        "channel": 0
      },
      {
        "type": "note_on",
        "time": 0,
        "note": 47,
        "velocity": 60,
        "channel": 0
      },
      {
        "type": "note_on",
        "time": 0,
        "note": 40,
        "velocity": 60,
        "channel": 0
      },
      {
        "type": "note_on",
        "time": 59,
        "note": 64,
        "velocity": 0,
        "channel": 0
      },
      {
        "type": "note_on",
        "time": 0,
        "note": 59,
        "velocity": 0,
        "channel": 0
      },
      {
        "type": "note_on",
        "time": 0,
        "note": 56,
        "velocity": 0,
        "channel": 0
      },
      {
        "type": "note_on",
        "time": 0,
        "note": 52,
        "velocity": 0,
        "channel": 0
      },
      {
        "type": "note_on",
        "time": 0,
        "note": 47,
        "velocity": 0,
        "channel": 0
      },
      {
        "type": "note_on",
        "time": 0,
        "note": 40,
        "velocity": 0,
        "channel": 0
      },
      {
        "type": "note_on",
        "time": 1,
        "note": 64,
        "velocity": 60,
        "channel": 0
      },
      {
        "type": "note_on",
        "time": 0,
        "note": 59,
        "velocity": 60,
        "channel": 0
      },
      {
        "type": "note_on",
        "time": 0,
        "note": 56,
        "velocity": 60,
        "channel": 0
      },
      {
        "type": "note_on",
        "time": 0,
        "note": 52,
        "velocity": 60,
        "channel": 0
      },
      {
        "type": "note_on",
        "time": 0,
        "note": 47,
        "velocity": 60,
        "channel": 0
      },
      {
        "type": "note_on",
        "time": 0,
        "note": 40,
        "velocity": 60,
        "channel": 0
      },
      {
        "type": "note_on",
        "time": 29,
        "note": 64,
        "velocity": 0,
        "channel": 0
      },
      {
        "type": "note_on",
        "time": 0,
        "note": 59,
        "velocity": 0,
        "channel": 0
      },
      {
        "type": "note_on",
        "time": 0,
        "note": 56,
        "velocity": 0,
        "channel": 0
      },
      {
        "type": "note_on",
        "time": 0,
        "note": 52,
        "velocity": 0,
        "channel": 0
      },
      {
        "type": "note_on",
        "time": 0,
        "note": 47,
        "velocity": 0,
        "channel": 0
      },
      {
        "type": "note_on",
        "time": 0,
        "note": 40,
        "velocity": 0,
        "channel": 0
      },
      {
        "type": "note_on",
        "time": 1,
        "note": 64,
        "velocity": 60,
        "channel": 0
      },
      {
        "type": "note_on",
        "time": 0,
        "note": 59,
        "velocity": 60,
        "channel": 0
      },
      {
        "type": "note_on",
        "time": 0,
        "note": 56,
        "velocity": 60,
        "channel": 0
      },
      {
        "type": "note_on",
        "time": 0,
        "note": 52,
        "velocity": 60,
        "channel": 0
      },
      {
        "type": "note_on",
        "time": 0,
        "note": 47,
        "velocity": 60,
        "channel": 0
      },
      {
        "type": "note_on",
        "time": 0,
        "note": 40,
        "velocity": 60,
        "channel": 0
      },
      {
        "type": "note_on",
        "time": 29,
        "note": 64,
        "velocity": 0,
        "channel": 0
      },
      {
        "type": "note_on",
        "time": 0,
        "note": 59,
        "velocity": 0,
        "channel": 0
      },
      {
        "type": "note_on",
        "time": 0,
        "note": 56,
        "velocity": 0,
        "channel": 0
      },
      {
        "type": "note_on",
        "time": 0,
        "note": 52,
        "velocity": 0,
        "channel": 0
      },
      {
        "type": "note_on",
        "time": 0,
        "note": 47,
        "velocity": 0,
        "channel": 0
      },
      {
        "type": "note_on",
        "time": 0,
        "note": 40,
        "velocity": 0,
        "channel": 0
      },
      {
        "type": "note_on",
        "time": 1,
        "note": 64,
        "velocity": 60,
        "channel": 0
      },
      {
        "type": "note_on",
        "time": 0,
        "note": 59,
        "velocity": 60,
        "channel": 0
      },
      {
        "type": "note_on",
        "time": 0,
        "note": 56,
        "velocity": 60,
        "channel": 0
      },
      {
        "type": "note_on",
        "time": 0,
        "note": 52,
        "velocity": 60,
        "channel": 0
      },
      {
        "type": "note_on",
        "time": 0,
        "note": 47,
        "velocity": 60,
        "channel": 0
      },
      {
        "type": "note_on",
        "time": 0,
        "note": 40,
        "velocity": 60,
        "channel": 0
      },
      {
        "type": "note_on",
        "time": 239,
        "note": 64,
        "velocity": 0,
        "channel": 0
      },
      {
        "type": "note_on",
        "time": 0,
        "note": 59,
        "velocity": 0,
        "channel": 0
      },
      {
        "type": "note_on",
        "time": 0,
        "note": 56,
        "velocity": 0,
        "channel": 0
      },
      {
        "type": "note_on",
        "time": 0,
        "note": 52,
        "velocity": 0,
        "channel": 0
      },
      {
        "type": "note_on",
        "time": 0,
        "note": 47,
        "velocity": 0,
        "channel": 0
      },
      {
        "type": "note_on",
        "time": 0,
        "note": 40,
        "velocity": 0,
        "channel": 0
      },
      {
        "type": "note_on",
        "time": 1,
        "note": 43,
        "velocity": 60,
        "channel": 0
      },
      {
        "type": "note_on",
        "time": 0,
        "note": 50,
        "velocity": 60,
        "channel": 0
      },
      {
        "type": "note_on",
        "time": 0,
        "note": 55,
        "velocity": 60,
        "channel": 0
      },
      {
        "type": "note_on",
        "time": 0,
        "note": 59,
        "velocity": 60,
        "channel": 0
      },
      {
        "type": "note_on",
        "time": 0,
        "note": 62,
        "velocity": 60,
        "channel": 0
      },
      {
        "type": "note_on",
        "time": 0,
        "note": 67,
        "velocity": 60,
        "channel": 0
      },
      {
        "type": "note_on",
        "time": 59,
        "note": 43,
        "velocity": 0,
        "channel": 0
      },
      {
        "type": "note_on",
        "time": 0,
        "note": 50,
        "velocity": 0,
        "channel": 0
      },
      {
        "type": "note_on",
        "time": 0,
        "note": 55,
        "velocity": 0,
        "channel": 0
      },
      {
        "type": "note_on",
        "time": 0,
        "note": 59,
        "velocity": 0,
        "channel": 0
      },
      {
        "type": "note_on",
        "time": 0,
        "note": 62,
        "velocity": 0,
        "channel": 0
      },
      {
        "type": "note_on",
        "time": 0,
        "note": 67,
        "velocity": 0,
        "channel": 0
      },
      {
        "type": "note_on",
        "time": 1,
        "note": 67,
        "velocity": 60,
        "channel": 0
      },
      {
        "type": "note_on",
        "time": 0,
        "note": 62,
        "velocity": 60,
        "channel": 0
      },
      {
        "type": "note_on",
        "time": 0,
        "note": 59,
        "velocity": 60,
        "channel": 0
      },
      {
        "type": "note_on",
        "time": 0,
        "note": 55,
        "velocity": 60,
        "channel": 0
      },
      {
        "type": "note_on",
        "time": 0,
        "note": 50,
        "velocity": 60,
        "channel": 0
      },
      {
        "type": "note_on",
        "time": 0,
        "note": 43,
        "velocity": 60,
        "channel": 0
      },
      {
        "type": "note_on",
        "time": 29,
        "note": 67,
        "velocity": 0,
        "channel": 0
      },
      {
        "type": "note_on",
        "time": 0,
        "note": 62,
        "velocity": 0,
        "channel": 0
      },
      {
        "type": "note_on",
        "time": 0,
        "note": 59,
        "velocity": 0,
        "channel": 0
      },
      {
        "type": "note_on",
        "time": 0,
        "note": 55,
        "velocity": 0,
        "channel": 0
      },
      {
        "type": "note_on",
        "time": 0,
        "note": 50,
        "velocity": 0,
        "channel": 0
      },
      {
        "type": "note_on",
        "time": 0,
        "note": 43,
        "velocity": 0,
        "channel": 0
      },
      {
        "type": "note_on",
        "time": 1,
        "note": 67,
        "velocity": 60,
        "channel": 0
      },
      {
        "type": "note_on",
        "time": 0,
        "note": 62,
        "velocity": 60,
        "channel": 0
      },
      {
        "type": "note_on",
        "time": 0,
        "note": 59,
        "velocity": 60,
        "channel": 0
      },
      {
        "type": "note_on",
        "time": 0,
        "note": 55,
        "velocity": 60,
        "channel": 0
      },
      {
        "type": "note_on",
        "time": 0,
        "note": 50,
        "velocity": 60,
        "channel": 0
      },
      {
        "type": "note_on",
        "time": 0,
        "note": 43,
        "velocity": 60,
        "channel": 0
      },
      {
        "type": "note_on",
        "time": 29,
        "note": 67,
        "velocity": 0,
        "channel": 0
      },
      {
        "type": "note_on",
        "time": 0,
        "note": 62,
        "velocity": 0,
        "channel": 0
      },
      {
        "type": "note_on",
        "time": 0,
        "note": 59,
        "velocity": 0,
        "channel": 0
      },
      {
        "type": "note_on",
        "time": 0,
        "note": 55,
        "velocity": 0,
        "channel": 0
      },
      {
        "type": "note_on",
        "time": 0,
        "note": 50,
        "velocity": 0,
        "channel": 0
      },
      {
        "type": "note_on",
        "time": 0,
        "note": 43,
        "velocity": 0,
        "channel": 0
      },
      {
        "type": "note_on",
        "time": 1,
        "note": 67,
        "velocity": 60,
        "channel": 0
      },
      {
        "type": "note_on",
        "time": 0,
        "note": 62,
        "velocity": 60,
        "channel": 0
      },
      {
        "type": "note_on",
        "time": 0,
        "note": 59,
        "velocity": 60,
        "channel": 0
      },
      {
        "type": "note_on",
        "time": 0,
        "note": 55,
        "velocity": 60,
        "channel": 0
      },
      {
        "type": "note_on",
        "time": 0,
        "note": 50,
        "velocity": 60,
        "channel": 0
      },
      {
        "type": "note_on",
        "time": 0,
        "note": 43,
        "velocity": 60,
        "channel": 0
      },
      {
        "type": "note_on",
        "time": 59,
        "note": 67,
        "velocity": 0,
        "channel": 0
      },
      {
        "type": "note_on",
        "time": 0,
        "note": 62,
        "velocity": 0,
        "channel": 0
      },
      {
        "type": "note_on",
        "time": 0,
        "note": 59,
        "velocity": 0,
        "channel": 0
      },
      {
        "type": "note_on",
        "time": 0,
        "note": 55,
        "velocity": 0,
        "channel": 0
      },
      {
        "type": "note_on",
        "time": 0,
        "note": 50,
        "velocity": 0,
        "channel": 0
      },
      {
        "type": "note_on",
        "time": 0,
        "note": 43,
        "velocity": 0,
        "channel": 0
      },
      {
        "type": "note_on",
        "time": 1,
        "note": 67,
        "velocity": 60,
        "channel": 0
      },
      {
        "type": "note_on",
        "time": 0,
        "note": 62,
        "velocity": 60,
        "channel": 0
      },
      {
        "type": "note_on",
        "time": 0,
        "note": 59,
        "velocity": 60,
        "channel": 0
      },
      {
        "type": "note_on",
        "time": 0,
        "note": 55,
        "velocity": 60,
        "channel": 0
      },
      {
        "type": "note_on",
        "time": 0,
        "note": 50,
        "velocity": 60,
        "channel": 0
      },
      {
        "type": "note_on",
        "time": 0,
        "note": 43,
        "velocity": 60,
        "channel": 0
      },
      {
        "type": "note_on",
        "time": 29,
        "note": 67,
        "velocity": 0,
        "channel": 0
      },
      {
        "type": "note_on",
        "time": 0,
        "note": 62,
        "velocity": 0,
        "channel": 0
      },
      {
        "type": "note_on",
        "time": 0,
        "note": 59,
        "velocity": 0,
        "channel": 0
      },
      {
        "type": "note_on",
        "time": 0,
        "note": 55,
        "velocity": 0,
        "channel": 0
      },
      {
        "type": "note_on",
        "time": 0,
        "note": 50,
        "velocity": 0,
        "channel": 0
      },
      {
        "type": "note_on",
        "time": 0,
        "note": 43,
        "velocity": 0,
        "channel": 0
      },
      {
        "type": "note_on",
        "time": 1,
        "note": 67,
        "velocity": 60,
        "channel": 0
      },
      {
        "type": "note_on",
        "time": 0,
        "note": 62,
        "velocity": 60,
        "channel": 0
      },
      {
        "type": "note_on",
        "time": 0,
        "note": 59,
        "velocity": 60,
        "channel": 0
      },
      {
        "type": "note_on",
        "time": 0,
        "note": 55,
        "velocity": 60,
        "channel": 0
      },
      {
        "type": "note_on",
        "time": 0,
        "note": 50,
        "velocity": 60,
        "channel": 0
      },
      {
        "type": "note_on",
        "time": 0,
        "note": 43,
        "velocity": 60,
        "channel": 0
      },
      {
        "type": "note_on",
        "time": 29,
        "note": 67,
        "velocity": 0,
        "channel": 0
      },
      {
        "type": "note_on",
        "time": 0,
        "note": 62,
        "velocity": 0,
        "channel": 0
      },
      {
        "type": "note_on",
        "time": 0,
        "note": 59,
        "velocity": 0,
        "channel": 0
      },
      {
        "type": "note_on",
        "time": 0,
        "note": 55,
        "velocity": 0,
        "channel": 0
      },
      {
        "type": "note_on",
        "time": 0,
        "note": 50,
        "velocity": 0,
        "channel": 0
      },
      {
        "type": "note_on",
        "time": 0,
        "note": 43,
        "velocity": 0,
        "channel": 0
      },
      {
        "type": "note_on",
        "time": 1,
        "note": 67,
        "velocity": 60,
        "channel": 0
      },
      {
        "type": "note_on",
        "time": 0,
        "note": 62,
        "velocity": 60,
        "channel": 0
      },
      {
        "type": "note_on",
        "time": 0,
        "note": 59,
        "velocity": 60,
        "channel": 0
      },
      {
        "type": "note_on",
        "time": 0,
        "note": 55,
        "velocity": 60,
        "channel": 0
      },
      {
        "type": "note_on",
        "time": 0,
        "note": 50,
        "velocity": 60,
        "channel": 0
      },
      {
        "type": "note_on",
        "time": 0,
        "note": 43,
        "velocity": 60,
        "channel": 0
      },
      {
        "type": "note_on",
        "time": 29,
        "note": 67,
        "velocity": 0,
        "channel": 0
      },
      {
        "type": "note_on",
        "time": 0,
        "note": 62,
        "velocity": 0,
        "channel": 0
      },
      {
        "type": "note_on",
        "time": 0,
        "note": 59,
        "velocity": 0,
        "channel": 0
      },
      {
        "type": "note_on",
        "time": 0,
        "note": 55,
        "velocity": 0,
        "channel": 0
      },
      {
        "type": "note_on",
        "time": 0,
        "note": 50,
        "velocity": 0,
        "channel": 0
      },
      {
        "type": "note_on",
        "time": 0,
        "note": 43,
        "velocity": 0,
        "channel": 0
      },
      {
        "type": "note_on",
        "time": 1,
        "note": 67,
        "velocity": 60,
        "channel": 0
      },
      {
        "type": "note_on",
        "time": 0,
        "note": 62,
        "velocity": 60,
        "channel": 0
      },
      {
        "type": "note_on",
        "time": 0,
        "note": 59,
        "velocity": 60,
        "channel": 0
      },
      {
        "type": "note_on",
        "time": 0,
        "note": 55,
        "velocity": 60,
        "channel": 0
      },
      {
        "type": "note_on",
        "time": 0,
        "note": 50,
        "velocity": 60,
        "channel": 0
      },
      {
        "type": "note_on",
        "time": 0,
        "note": 43,
        "velocity": 60,
        "channel": 0
      },
      {
        "type": "note_on",
        "time": 29,
        "note": 67,
        "velocity": 0,
        "channel": 0
      },
      {
        "type": "note_on",
        "time": 0,
        "note": 62,
        "velocity": 0,
        "channel": 0
      },
      {
        "type": "note_on",
        "time": 0,
        "note": 59,
        "velocity": 0,
        "channel": 0
      },
      {
        "type": "note_on",
        "time": 0,
        "note": 55,
        "velocity": 0,
        "channel": 0
      },
      {
        "type": "note_on",
        "time": 0,
        "note": 50,
        "velocity": 0,
        "channel": 0
      },
      {
        "type": "note_on",
        "time": 0,
        "note": 43,
        "velocity": 0,
        "channel": 0
      },
      {
        "type": "note_on",
        "time": 1,
        "note": 67,
        "velocity": 60,
        "channel": 0
      },
      {
        "type": "note_on",
        "time": 0,
        "note": 62,
        "velocity": 60,
        "channel": 0
      },
      {
        "type": "note_on",
        "time": 0,
        "note": 59,
        "velocity": 60,
        "channel": 0
      },
      {
        "type": "note_on",
        "time": 0,
        "note": 55,
        "velocity": 60,
        "channel": 0
      },
      {
        "type": "note_on",
        "time": 0,
        "note": 50,
        "velocity": 60,
        "channel": 0
      },
      {
        "type": "note_on",
        "time": 0,
        "note": 43,
        "velocity": 60,
        "channel": 0
      },
      {
        "type": "note_on",
        "time": 29,
        "note": 67,
        "velocity": 0,
        "channel": 0
      },
      {
        "type": "note_on",
        "time": 0,
        "note": 62,
        "velocity": 0,
        "channel": 0
      },
      {
        "type": "note_on",
        "time": 0,
        "note": 59,
        "velocity": 0,
        "channel": 0
      },
      {
        "type": "note_on",
        "time": 0,
        "note": 55,
        "velocity": 0,
        "channel": 0
      },
      {
        "type": "note_on",
        "time": 0,
        "note": 50,
        "velocity": 0,
        "channel": 0
      },
      {
        "type": "note_on",
        "time": 0,
        "note": 43,
        "velocity": 0,
        "channel": 0
      },
      {
        "type": "note_on",
        "time": 1,
        "note": 67,
        "velocity": 60,
        "channel": 0
      },
      {
        "type": "note_on",
        "time": 0,
        "note": 62,
        "velocity": 60,
        "channel": 0
      },
      {
        "type": "note_on",
        "time": 0,
        "note": 59,
        "velocity": 60,
        "channel": 0
      },
      {
        "type": "note_on",
        "time": 0,
        "note": 55,
        "velocity": 60,
        "channel": 0
      },
      {
        "type": "note_on",
        "time": 0,
        "note": 50,
        "velocity": 60,
        "channel": 0
      },
      {
        "type": "note_on",
        "time": 0,
        "note": 43,
        "velocity": 60,
        "channel": 0
      },
      {
        "type": "note_on",
        "time": 59,
        "note": 67,
        "velocity": 0,
        "channel": 0
      },
      {
        "type": "note_on",
        "time": 0,
        "note": 62,
        "velocity": 0,
        "channel": 0
      },
      {
        "type": "note_on",
        "time": 0,
        "note": 59,
        "velocity": 0,
        "channel": 0
      },
      {
        "type": "note_on",
        "time": 0,
        "note": 55,
        "velocity": 0,
        "channel": 0
      },
      {
        "type": "note_on",
        "time": 0,
        "note": 50,
        "velocity": 0,
        "channel": 0
      },
      {
        "type": "note_on",
        "time": 0,
        "note": 43,
        "velocity": 0,
        "channel": 0
      },
      {
        "type": "note_on",
        "time": 1,
        "note": 67,
        "velocity": 60,
        "channel": 0
      },
      {
        "type": "note_on",
        "time": 0,
        "note": 62,
        "velocity": 60,
        "channel": 0
      },
      {
        "type": "note_on",
        "time": 0,
        "note": 59,
        "velocity": 60,
        "channel": 0
      },
      {
        "type": "note_on",
        "time": 0,
        "note": 55,
        "velocity": 60,
        "channel": 0
      },
      {
        "type": "note_on",
        "time": 0,
        "note": 50,
        "velocity": 60,
        "channel": 0
      },
      {
        "type": "note_on",
        "time": 0,
        "note": 43,
        "velocity": 60,
        "channel": 0
      },
      {
        "type": "note_on",
        "time": 29,
        "note": 67,
        "velocity": 0,
        "channel": 0
      },
      {
        "type": "note_on",
        "time": 0,
        "note": 62,
        "velocity": 0,
        "channel": 0
      },
      {
        "type": "note_on",
        "time": 0,
        "note": 59,
        "velocity": 0,
        "channel": 0
      },
      {
        "type": "note_on",
        "time": 0,
        "note": 55,
        "velocity": 0,
        "channel": 0
      },
      {
        "type": "note_on",
        "time": 0,
        "note": 50,
        "velocity": 0,
        "channel": 0
      },
      {
        "type": "note_on",
        "time": 0,
        "note": 43,
        "velocity": 0,
        "channel": 0
      },
      {
        "type": "note_on",
        "time": 1,
        "note": 67,
        "velocity": 60,
        "channel": 0
      },
      {
        "type": "note_on",
        "time": 0,
        "note": 62,
        "velocity": 60,
        "channel": 0
      },
      {
        "type": "note_on",
        "time": 0,
        "note": 59,
        "velocity": 60,
        "channel": 0
      },
      {
        "type": "note_on",
        "time": 0,
        "note": 55,
        "velocity": 60,
        "channel": 0
      },
      {
        "type": "note_on",
        "time": 0,
        "note": 50,
        "velocity": 60,
        "channel": 0
      },
      {
        "type": "note_on",
        "time": 0,
        "note": 43,
        "velocity": 60,
        "channel": 0
      },
      {
        "type": "note_on",
        "time": 59,
        "note": 67,
        "velocity": 0,
        "channel": 0
      },
      {
        "type": "note_on",
        "time": 0,
        "note": 62,
        "velocity": 0,
        "channel": 0
      },
      {
        "type": "note_on",
        "time": 0,
        "note": 59,
        "velocity": 0,
        "channel": 0
      },
      {
        "type": "note_on",
        "time": 0,
        "note": 55,
        "velocity": 0,
        "channel": 0
      },
      {
        "type": "note_on",
        "time": 0,
        "note": 50,
        "velocity": 0,
        "channel": 0
      },
      {
        "type": "note_on",
        "time": 0,
        "note": 43,
        "velocity": 0,
        "channel": 0
      },
      {
        "type": "note_on",
        "time": 1,
        "note": 45,
        "velocity": 60,
        "channel": 0
      },
      {
        "type": "note_on",
        "time": 0,
        "note": 50,
        "velocity": 60,
        "channel": 0
      },
      {
        "type": "note_on",
        "time": 0,
        "note": 57,
        "velocity": 60,
        "channel": 0
      },
      {
        "type": "note_on",
        "time": 0,
        "note": 62,
        "velocity": 60,
        "channel": 0
      },
      {
        "type": "note_on",
        "time": 0,
        "note": 66,
        "velocity": 60,
        "channel": 0
      },
      {
        "type": "note_on",
        "time": 0,
        "note": 69,
        "velocity": 60,
        "channel": 0
      },
      {
        "type": "note_on",
        "time": 59,
        "note": 45,
        "velocity": 0,
        "channel": 0
      },
      {
        "type": "note_on",
        "time": 0,
        "note": 50,
        "velocity": 0,
        "channel": 0
      },
      {
        "type": "note_on",
        "time": 0,
        "note": 57,
        "velocity": 0,
        "channel": 0
      },
      {
        "type": "note_on",
        "time": 0,
        "note": 62,
        "velocity": 0,
        "channel": 0
      },
      {
        "type": "note_on",
        "time": 0,
        "note": 66,
        "velocity": 0,
        "channel": 0
      },
      {
        "type": "note_on",
        "time": 0,
        "note": 69,
        "velocity": 0,
        "channel": 0
      },
      {
        "type": "note_on",
        "time": 1,
        "note": 69,
        "velocity": 60,
        "channel": 0
      },
      {
        "type": "note_on",
        "time": 0,
        "note": 66,
        "velocity": 60,
        "channel": 0
      },
      {
        "type": "note_on",
        "time": 0,
        "note": 62,
        "velocity": 60,
        "channel": 0
      },
      {
        "type": "note_on",
        "time": 0,
        "note": 57,
        "velocity": 60,
        "channel": 0
      },
      {
        "type": "note_on",
        "time": 0,
        "note": 50,
        "velocity": 60,
        "channel": 0
      },
      {
        "type": "note_on",
        "time": 0,
        "note": 45,
        "velocity": 60,
        "channel": 0
      },
      {
        "type": "note_on",
        "time": 29,
        "note": 69,
        "velocity": 0,
        "channel": 0
      },
      {
        "type": "note_on",
        "time": 0,
        "note": 66,
        "velocity": 0,
        "channel": 0
      },
      {
        "type": "note_on",
        "time": 0,
        "note": 62,
        "velocity": 0,
        "channel": 0
      },
      {
        "type": "note_on",
        "time": 0,
        "note": 57,
        "velocity": 0,
        "channel": 0
      },
      {
        "type": "note_on",
        "time": 0,
        "note": 50,
        "velocity": 0,
        "channel": 0
      },
      {
        "type": "note_on",
        "time": 0,
        "note": 45,
        "velocity": 0,
        "channel": 0
      },
      {
        "type": "note_on",
        "time": 1,
        "note": 69,
        "velocity": 60,
        "channel": 0
      },
      {
        "type": "note_on",
        "time": 0,
        "note": 66,
        "velocity": 60,
        "channel": 0
      },
      {
        "type": "note_on",
        "time": 0,
        "note": 62,
        "velocity": 60,
        "channel": 0
      },
      {
        "type": "note_on",
        "time": 0,
        "note": 57,
        "velocity": 60,
        "channel": 0
      },
      {
        "type": "note_on",
        "time": 0,
        "note": 50,
        "velocity": 60,
        "channel": 0
      },
      {
        "type": "note_on",
        "time": 0,
        "note": 45,
        "velocity": 60,
        "channel": 0
      },
      {
        "type": "note_on",
        "time": 29,
        "note": 69,
        "velocity": 0,
        "channel": 0
      },
      {
        "type": "note_on",
        "time": 0,
        "note": 66,
        "velocity": 0,
        "channel": 0
      },
      {
        "type": "note_on",
        "time": 0,
        "note": 62,
        "velocity": 0,
        "channel": 0
      },
      {
        "type": "note_on",
        "time": 0,
        "note": 57,
        "velocity": 0,
        "channel": 0
      },
      {
        "type": "note_on",
        "time": 0,
        "note": 50,
        "velocity": 0,
        "channel": 0
      },
      {
        "type": "note_on",
        "time": 0,
        "note": 45,
        "velocity": 0,
        "channel": 0
      },
      {
        "type": "note_on",
        "time": 1,
        "note": 69,
        "velocity": 60,
        "channel": 0
      },
      {
        "type": "note_on",
        "time": 0,
        "note": 66,
        "velocity": 60,
        "channel": 0
      },
      {
        "type": "note_on",
        "time": 0,
        "note": 62,
        "velocity": 60,
        "channel": 0
      },
      {
        "type": "note_on",
        "time": 0,
        "note": 57,
        "velocity": 60,
        "channel": 0
      },
      {
        "type": "note_on",
        "time": 0,
        "note": 50,
        "velocity": 60,
        "channel": 0
      },
      {
        "type": "note_on",
        "time": 0,
        "note": 45,
        "velocity": 60,
        "channel": 0
      },
      {
        "type": "note_on",
        "time": 29,
        "note": 69,
        "velocity": 0,
        "channel": 0
      },
      {
        "type": "note_on",
        "time": 0,
        "note": 66,
        "velocity": 0,
        "channel": 0
      },
      {
        "type": "note_on",
        "time": 0,
        "note": 62,
        "velocity": 0,
        "channel": 0
      },
      {
        "type": "note_on",
        "time": 0,
        "note": 57,
        "velocity": 0,
        "channel": 0
      },
      {
        "type": "note_on",
        "time": 0,
        "note": 50,
        "velocity": 0,
        "channel": 0
      },
      {
        "type": "note_on",
        "time": 0,
        "note": 45,
        "velocity": 0,
        "channel": 0
      },
      {
        "type": "note_on",
        "time": 1,
        "note": 69,
        "velocity": 60,
        "channel": 0
      },
      {
        "type": "note_on",
        "time": 0,
        "note": 66,
        "velocity": 60,
        "channel": 0
      },
      {
        "type": "note_on",
        "time": 0,
        "note": 62,
        "velocity": 60,
        "channel": 0
      },
      {
        "type": "note_on",
        "time": 0,
        "note": 57,
        "velocity": 60,
        "channel": 0
      },
      {
        "type": "note_on",
        "time": 0,
        "note": 50,
        "velocity": 60,
        "channel": 0
      },
      {
        "type": "note_on",
        "time": 0,
        "note": 45,
        "velocity": 60,
        "channel": 0
      },
      {
        "type": "note_on",
        "time": 59,
        "note": 69,
        "velocity": 0,
        "channel": 0
      },
      {
        "type": "note_on",
        "time": 0,
        "note": 66,
        "velocity": 0,
        "channel": 0
      },
      {
        "type": "note_on",
        "time": 0,
        "note": 62,
        "velocity": 0,
        "channel": 0
      },
      {
        "type": "note_on",
        "time": 0,
        "note": 57,
        "velocity": 0,
        "channel": 0
      },
      {
        "type": "note_on",
        "time": 0,
        "note": 50,
        "velocity": 0,
        "channel": 0
      },
      {
        "type": "note_on",
        "time": 0,
        "note": 45,
        "velocity": 0,
        "channel": 0
      },
      {
        "type": "note_on",
        "time": 1,
        "note": 69,
        "velocity": 60,
        "channel": 0
      },
      {
        "type": "note_on",
        "time": 0,
        "note": 66,
        "velocity": 60,
        "channel": 0
      },
      {
        "type": "note_on",
        "time": 0,
        "note": 62,
        "velocity": 60,
        "channel": 0
      },
      {
        "type": "note_on",
        "time": 0,
        "note": 57,
        "velocity": 60,
        "channel": 0
      },
      {
        "type": "note_on",
        "time": 0,
        "note": 50,
        "velocity": 60,
        "channel": 0
      },
      {
        "type": "note_on",
        "time": 0,
        "note": 45,
        "velocity": 60,
        "channel": 0
      },
      {
        "type": "note_on",
        "time": 29,
        "note": 69,
        "velocity": 0,
        "channel": 0
      },
      {
        "type": "note_on",
        "time": 0,
        "note": 66,
        "velocity": 0,
        "channel": 0
      },
      {
        "type": "note_on",
        "time": 0,
        "note": 62,
        "velocity": 0,
        "channel": 0
      },
      {
        "type": "note_on",
        "time": 0,
        "note": 57,
        "velocity": 0,
        "channel": 0
      },
      {
        "type": "note_on",
        "time": 0,
        "note": 50,
        "velocity": 0,
        "channel": 0
      },
      {
        "type": "note_on",
        "time": 0,
        "note": 45,
        "velocity": 0,
        "channel": 0
      },
      {
        "type": "note_on",
        "time": 1,
        "note": 69,
        "velocity": 60,
        "channel": 0
      },
      {
        "type": "note_on",
        "time": 0,
        "note": 66,
        "velocity": 60,
        "channel": 0
      },
      {
        "type": "note_on",
        "time": 0,
        "note": 62,
        "velocity": 60,
        "channel": 0
      },
      {
        "type": "note_on",
        "time": 0,
        "note": 57,
        "velocity": 60,
        "channel": 0
      },
      {
        "type": "note_on",
        "time": 0,
        "note": 50,
        "velocity": 60,
        "channel": 0
      },
      {
        "type": "note_on",
        "time": 0,
        "note": 45,
        "velocity": 60,
        "channel": 0
      },
      {
        "type": "note_on",
        "time": 239,
        "note": 69,
        "velocity": 0,
        "channel": 0
      },
      {
        "type": "note_on",
        "time": 0,
        "note": 66,
        "velocity": 0,
        "channel": 0
      },
      {
        "type": "note_on",
        "time": 0,
        "note": 62,
        "velocity": 0,
        "channel": 0
      },
      {
        "type": "note_on",
        "time": 0,
        "note": 57,
        "velocity": 0,
        "channel": 0
      },
      {
        "type": "note_on",
        "time": 0,
        "note": 50,
        "velocity": 0,
        "channel": 0
      },
      {
        "type": "note_on",
        "time": 0,
        "note": 45,
        "velocity": 0,
        "channel": 0
      },
      {
        "type": "note_on",
        "time": 1,
        "note": 40,
        "velocity": 60,
        "channel": 0
      },
      {
        "type": "note_on",
        "time": 0,
        "note": 47,
        "velocity": 60,
        "channel": 0
      },
      {
        "type": "note_on",
        "time": 0,
        "note": 52,
        "velocity": 60,
        "channel": 0
      },
      {
        "type": "note_on",
        "time": 0,
        "note": 55,
        "velocity": 60,
        "channel": 0
      },
      {
        "type": "note_on",
        "time": 0,
        "note": 59,
        "velocity": 60,
        "channel": 0
      },
      {
        "type": "note_on",
        "time": 0,
        "note": 64,
        "velocity": 60,
        "channel": 0
      },
      {
        "type": "note_on",
        "time": 59,
        "note": 40,
        "velocity": 0,
        "channel": 0
      },
      {
        "type": "note_on",
        "time": 0,
        "note": 47,
        "velocity": 0,
        "channel": 0
      },
      {
        "type": "note_on",
        "time": 0,
        "note": 52,
        "velocity": 0,
        "channel": 0
      },
      {
        "type": "note_on",
        "time": 0,
        "note": 55,
        "velocity": 0,
        "channel": 0
      },
      {
        "type": "note_on",
        "time": 0,
        "note": 59,
        "velocity": 0,
        "channel": 0
      },
      {
        "type": "note_on",
        "time": 0,
        "note": 64,
        "velocity": 0,
        "channel": 0
      },
      {
        "type": "note_on",
        "time": 1,
        "note": 64,
        "velocity": 60,
        "channel": 0
      },
      {
        "type": "note_on",
        "time": 0,
        "note": 59,
        "velocity": 60,
        "channel": 0
      },
      {
        "type": "note_on",
        "time": 0,
        "note": 55,
        "velocity": 60,
        "channel": 0
      },
      {
        "type": "note_on",
        "time": 0,
        "note": 52,
        "velocity": 60,
        "channel": 0
      },
      {
        "type": "note_on",
        "time": 0,
        "note": 47,
        "velocity": 60,
        "channel": 0
      },
      {
        "type": "note_on",
        "time": 0,
        "note": 40,
        "velocity": 60,
        "channel": 0
      },
      {
        "type": "note_on",
        "time": 29,
        "note": 64,
        "velocity": 0,
        "channel": 0
      },
      {
        "type": "note_on",
        "time": 0,
        "note": 59,
        "velocity": 0,
        "channel": 0
      },
      {
        "type": "note_on",
        "time": 0,
        "note": 55,
        "velocity": 0,
        "channel": 0
      },
      {
        "type": "note_on",
        "time": 0,
        "note": 52,
        "velocity": 0,
        "channel": 0
      },
      {
        "type": "note_on",
        "time": 0,
        "note": 47,
        "velocity": 0,
        "channel": 0
      },
      {
        "type": "note_on",
        "time": 0,
        "note": 40,
        "velocity": 0,
        "channel": 0
      },
      {
        "type": "note_on",
        "time": 1,
        "note": 64,
        "velocity": 60,
        "channel": 0
      },
      {
        "type": "note_on",
        "time": 0,
        "note": 59,
        "velocity": 60,
        "channel": 0
      },
      {
        "type": "note_on",
        "time": 0,
        "note": 55,
        "velocity": 60,
        "channel": 0
      },
      {
        "type": "note_on",
        "time": 0,
        "note": 52,
        "velocity": 60,
        "channel": 0
      },
      {
        "type": "note_on",
        "time": 0,
        "note": 47,
        "velocity": 60,
        "channel": 0
      },
      {
        "type": "note_on",
        "time": 0,
        "note": 40,
        "velocity": 60,
        "channel": 0
      },
      {
        "type": "note_on",
        "time": 29,
        "note": 64,
        "velocity": 0,
        "channel": 0
      },
      {
        "type": "note_on",
        "time": 0,
        "note": 59,
        "velocity": 0,
        "channel": 0
      },
      {
        "type": "note_on",
        "time": 0,
        "note": 55,
        "velocity": 0,
        "channel": 0
      },
      {
        "type": "note_on",
        "time": 0,
        "note": 52,
        "velocity": 0,
        "channel": 0
      },
      {
        "type": "note_on",
        "time": 0,
        "note": 47,
        "velocity": 0,
        "channel": 0
      },
      {
        "type": "note_on",
        "time": 0,
        "note": 40,
        "velocity": 0,
        "channel": 0
      },
      {
        "type": "note_on",
        "time": 1,
        "note": 64,
        "velocity": 60,
        "channel": 0
      },
      {
        "type": "note_on",
        "time": 0,
        "note": 59,
        "velocity": 60,
        "channel": 0
      },
      {
        "type": "note_on",
        "time": 0,
        "note": 55,
        "velocity": 60,
        "channel": 0
      },
      {
        "type": "note_on",
        "time": 0,
        "note": 52,
        "velocity": 60,
        "channel": 0
      },
      {
        "type": "note_on",
        "time": 0,
        "note": 47,
        "velocity": 60,
        "channel": 0
      },
      {
        "type": "note_on",
        "time": 0,
        "note": 40,
        "velocity": 60,
        "channel": 0
      },
      {
        "type": "note_on",
        "time": 29,
        "note": 64,
        "velocity": 0,
        "channel": 0
      },
      {
        "type": "note_on",
        "time": 0,
        "note": 59,
        "velocity": 0,
        "channel": 0
      },
      {
        "type": "note_on",
        "time": 0,
        "note": 55,
        "velocity": 0,
        "channel": 0
      },
      {
        "type": "note_on",
        "time": 0,
        "note": 52,
        "velocity": 0,
        "channel": 0
      },
      {
        "type": "note_on",
        "time": 0,
        "note": 47,
        "velocity": 0,
        "channel": 0
      },
      {
        "type": "note_on",
        "time": 0,
        "note": 40,
        "velocity": 0,
        "channel": 0
      },
      {
        "type": "note_on",
        "time": 1,
        "note": 64,
        "velocity": 60,
        "channel": 0
      },
      {
        "type": "note_on",
        "time": 0,
        "note": 59,
        "velocity": 60,
        "channel": 0
      },
      {
        "type": "note_on",
        "time": 0,
        "note": 55,
        "velocity": 60,
        "channel": 0
      },
      {
        "type": "note_on",
        "time": 0,
        "note": 52,
        "velocity": 60,
        "channel": 0
      },
      {
        "type": "note_on",
        "time": 0,
        "note": 47,
        "velocity": 60,
        "channel": 0
      },
      {
        "type": "note_on",
        "time": 0,
        "note": 40,
        "velocity": 60,
        "channel": 0
      },
      {
        "type": "note_on",
        "time": 29,
        "note": 64,
        "velocity": 0,
        "channel": 0
      },
      {
        "type": "note_on",
        "time": 0,
        "note": 59,
        "velocity": 0,
        "channel": 0
      },
      {
        "type": "note_on",
        "time": 0,
        "note": 55,
        "velocity": 0,
        "channel": 0
      },
      {
        "type": "note_on",
        "time": 0,
        "note": 52,
        "velocity": 0,
        "channel": 0
      },
      {
        "type": "note_on",
        "time": 0,
        "note": 47,
        "velocity": 0,
        "channel": 0
      },
      {
        "type": "note_on",
        "time": 0,
        "note": 40,
        "velocity": 0,
        "channel": 0
      },
      {
        "type": "note_on",
        "time": 1,
        "note": 64,
        "velocity": 60,
        "channel": 0
      },
      {
        "type": "note_on",
        "time": 0,
        "note": 59,
        "velocity": 60,
        "channel": 0
      },
      {
        "type": "note_on",
        "time": 0,
        "note": 55,
        "velocity": 60,
        "channel": 0
      },
      {
        "type": "note_on",
        "time": 0,
        "note": 52,
        "velocity": 60,
        "channel": 0
      },
      {
        "type": "note_on",
        "time": 0,
        "note": 47,
        "velocity": 60,
        "channel": 0
      },
      {
        "type": "note_on",
        "time": 0,
        "note": 40,
        "velocity": 60,
        "channel": 0
      },
      {
        "type": "note_on",
        "time": 59,
        "note": 64,
        "velocity": 0,
        "channel": 0
      },
      {
        "type": "note_on",
        "time": 0,
        "note": 59,
        "velocity": 0,
        "channel": 0
      },
      {
        "type": "note_on",
        "time": 0,
        "note": 55,
        "velocity": 0,
        "channel": 0
      },
      {
        "type": "note_on",
        "time": 0,
        "note": 52,
        "velocity": 0,
        "channel": 0
      },
      {
        "type": "note_on",
        "time": 0,
        "note": 47,
        "velocity": 0,
        "channel": 0
      },
      {
        "type": "note_on",
        "time": 0,
        "note": 40,
        "velocity": 0,
        "channel": 0
      },
      {
        "type": "note_on",
        "time": 1,
        "note": 64,
        "velocity": 60,
        "channel": 0
      },
      {
        "type": "note_on",
        "time": 0,
        "note": 59,
        "velocity": 60,
        "channel": 0
      },
      {
        "type": "note_on",
        "time": 0,
        "note": 55,
        "velocity": 60,
        "channel": 0
      },
      {
        "type": "note_on",
        "time": 0,
        "note": 52,
        "velocity": 60,
        "channel": 0
      },
      {
        "type": "note_on",
        "time": 0,
        "note": 47,
        "velocity": 60,
        "channel": 0
      },
      {
        "type": "note_on",
        "time": 0,
        "note": 40,
        "velocity": 60,
        "channel": 0
      },
      {
        "type": "note_on",
        "time": 59,
        "note": 64,
        "velocity": 0,
        "channel": 0
      },
      {
        "type": "note_on",
        "time": 0,
        "note": 59,
        "velocity": 0,
        "channel": 0
      },
      {
        "type": "note_on",
        "time": 0,
        "note": 55,
        "velocity": 0,
        "channel": 0
      },
      {
        "type": "note_on",
        "time": 0,
        "note": 52,
        "velocity": 0,
        "channel": 0
      },
      {
        "type": "note_on",
        "time": 0,
        "note": 47,
        "velocity": 0,
        "channel": 0
      },
      {
        "type": "note_on",
        "time": 0,
        "note": 40,
        "velocity": 0,
        "channel": 0
      },
      {
        "type": "note_on",
        "time": 1,
        "note": 64,
        "velocity": 60,
        "channel": 0
      },
      {
        "type": "note_on",
        "time": 0,
        "note": 59,
        "velocity": 60,
        "channel": 0
      },
      {
        "type": "note_on",
        "time": 0,
        "note": 55,
        "velocity": 60,
        "channel": 0
      },
      {
        "type": "note_on",
        "time": 0,
        "note": 52,
        "velocity": 60,
        "channel": 0
      },
      {
        "type": "note_on",
        "time": 0,
        "note": 47,
        "velocity": 60,
        "channel": 0
      },
      {
        "type": "note_on",
        "time": 0,
        "note": 40,
        "velocity": 60,
        "channel": 0
      },
      {
        "type": "note_on",
        "time": 59,
        "note": 64,
        "velocity": 0,
        "channel": 0
      },
      {
        "type": "note_on",
        "time": 0,
        "note": 59,
        "velocity": 0,
        "channel": 0
      },
      {
        "type": "note_on",
        "time": 0,
        "note": 55,
        "velocity": 0,
        "channel": 0
      },
      {
        "type": "note_on",
        "time": 0,
        "note": 52,
        "velocity": 0,
        "channel": 0
      },
      {
        "type": "note_on",
        "time": 0,
        "note": 47,
        "velocity": 0,
        "channel": 0
      },
      {
        "type": "note_on",
        "time": 0,
        "note": 40,
        "velocity": 0,
        "channel": 0
      },
      {
        "type": "note_on",
        "time": 1,
        "note": 64,
        "velocity": 60,
        "channel": 0
      },
      {
        "type": "note_on",
        "time": 0,
        "note": 59,
        "velocity": 60,
        "channel": 0
      },
      {
        "type": "note_on",
        "time": 0,
        "note": 55,
        "velocity": 60,
        "channel": 0
      },
      {
        "type": "note_on",
        "time": 0,
        "note": 52,
        "velocity": 60,
        "channel": 0
      },
      {
        "type": "note_on",
        "time": 0,
        "note": 47,
        "velocity": 60,
        "channel": 0
      },
      {
        "type": "note_on",
        "time": 0,
        "note": 40,
        "velocity": 60,
        "channel": 0
      },
      {
        "type": "note_on",
        "time": 29,
        "note": 64,
        "velocity": 0,
        "channel": 0
      },
      {
        "type": "note_on",
        "time": 0,
        "note": 59,
        "velocity": 0,
        "channel": 0
      },
      {
        "type": "note_on",
        "time": 0,
        "note": 55,
        "velocity": 0,
        "channel": 0
      },
      {
        "type": "note_on",
        "time": 0,
        "note": 52,
        "velocity": 0,
        "channel": 0
      },
      {
        "type": "note_on",
        "time": 0,
        "note": 47,
        "velocity": 0,
        "channel": 0
      },
      {
        "type": "note_on",
        "time": 0,
        "note": 40,
        "velocity": 0,
        "channel": 0
      },
      {
        "type": "note_on",
        "time": 1,
        "note": 64,
        "velocity": 60,
        "channel": 0
      },
      {
        "type": "note_on",
        "time": 0,
        "note": 59,
        "velocity": 60,
        "channel": 0
      },
      {
        "type": "note_on",
        "time": 0,
        "note": 55,
        "velocity": 60,
        "channel": 0
      },
      {
        "type": "note_on",
        "time": 0,
        "note": 52,
        "velocity": 60,
        "channel": 0
      },
      {
        "type": "note_on",
        "time": 0,
        "note": 47,
        "velocity": 60,
        "channel": 0
      },
      {
        "type": "note_on",
        "time": 0,
        "note": 40,
        "velocity": 60,
        "channel": 0
      },
      {
        "type": "note_on",
        "time": 29,
        "note": 64,
        "velocity": 0,
        "channel": 0
      },
      {
        "type": "note_on",
        "time": 0,
        "note": 59,
        "velocity": 0,
        "channel": 0
      },
      {
        "type": "note_on",
        "time": 0,
        "note": 55,
        "velocity": 0,
        "channel": 0
      },
      {
        "type": "note_on",
        "time": 0,
        "note": 52,
        "velocity": 0,
        "channel": 0
      },
      {
        "type": "note_on",
        "time": 0,
        "note": 47,
        "velocity": 0,
        "channel": 0
      },
      {
        "type": "note_on",
        "time": 0,
        "note": 40,
        "velocity": 0,
        "channel": 0
      },
      {
        "type": "note_on",
        "time": 1,
        "note": 64,
        "velocity": 60,
        "channel": 0
      },
      {
        "type": "note_on",
        "time": 0,
        "note": 59,
        "velocity": 60,
        "channel": 0
      },
      {
        "type": "note_on",
        "time": 0,
        "note": 55,
        "velocity": 60,
        "channel": 0
      },
      {
        "type": "note_on",
        "time": 0,
        "note": 52,
        "velocity": 60,
        "channel": 0
      },
      {
        "type": "note_on",
        "time": 0,
        "note": 47,
        "velocity": 60,
        "channel": 0
      },
      {
        "type": "note_on",
        "time": 0,
        "note": 40,
        "velocity": 60,
        "channel": 0
      },
      {
        "type": "note_on",
        "time": 59,
        "note": 64,
        "velocity": 0,
        "channel": 0
      },
      {
        "type": "note_on",
        "time": 0,
        "note": 59,
        "velocity": 0,
        "channel": 0
      },
      {
        "type": "note_on",
        "time": 0,
        "note": 55,
        "velocity": 0,
        "channel": 0
      },
      {
        "type": "note_on",
        "time": 0,
        "note": 52,
        "velocity": 0,
        "channel": 0
      },
      {
        "type": "note_on",
        "time": 0,
        "note": 47,
        "velocity": 0,
        "channel": 0
      },
      {
        "type": "note_on",
        "time": 0,
        "note": 40,
        "velocity": 0,
        "channel": 0
      },
      {
        "type": "note_on",
        "time": 1,
        "note": 42,
        "velocity": 60,
        "channel": 0
      },
      {
        "type": "note_on",
        "time": 0,
        "note": 49,
        "velocity": 60,
        "channel": 0
      },
      {
        "type": "note_on",
        "time": 0,
        "note": 54,
        "velocity": 60,
        "channel": 0
      },
      {
        "type": "note_on",
        "time": 0,
        "note": 58,
        "velocity": 60,
        "channel": 0
      },
      {
        "type": "note_on",
        "time": 0,
        "note": 61,
        "velocity": 60,
        "channel": 0
      },
      {
        "type": "note_on",
        "time": 0,
        "note": 66,
        "velocity": 60,
        "channel": 0
      },
      {
        "type": "note_on",
        "time": 59,
        "note": 42,
        "velocity": 0,
        "channel": 0
      },
      {
        "type": "note_on",
        "time": 0,
        "note": 49,
        "velocity": 0,
        "channel": 0
      },
      {
        "type": "note_on",
        "time": 0,
        "note": 54,
        "velocity": 0,
        "channel": 0
      },
      {
        "type": "note_on",
        "time": 0,
        "note": 58,
        "velocity": 0,
        "channel": 0
      },
      {
        "type": "note_on",
        "time": 0,
        "note": 61,
        "velocity": 0,
        "channel": 0
      },
      {
        "type": "note_on",
        "time": 0,
        "note": 66,
        "velocity": 0,
        "channel": 0
      },
      {
        "type": "note_on",
        "time": 1,
        "note": 66,
        "velocity": 60,
        "channel": 0
      },
      {
        "type": "note_on",
        "time": 0,
        "note": 61,
        "velocity": 60,
        "channel": 0
      },
      {
        "type": "note_on",
        "time": 0,
        "note": 58,
        "velocity": 60,
        "channel": 0
      },
      {
        "type": "note_on",
        "time": 0,
        "note": 54,
        "velocity": 60,
        "channel": 0
      },
      {
        "type": "note_on",
        "time": 0,
        "note": 49,
        "velocity": 60,
        "channel": 0
      },
      {
        "type": "note_on",
        "time": 0,
        "note": 42,
        "velocity": 60,
        "channel": 0
      },
      {
        "type": "note_on",
        "time": 29,
        "note": 66,
        "velocity": 0,
        "channel": 0
      },
      {
        "type": "note_on",
        "time": 0,
        "note": 61,
        "velocity": 0,
        "channel": 0
      },
      {
        "type": "note_on",
        "time": 0,
        "note": 58,
        "velocity": 0,
        "channel": 0
      },
      {
        "type": "note_on",
        "time": 0,
        "note": 54,
        "velocity": 0,
        "channel": 0
      },
      {
        "type": "note_on",
        "time": 0,
        "note": 49,
        "velocity": 0,
        "channel": 0
      },
      {
        "type": "note_on",
        "time": 0,
        "note": 42,
        "velocity": 0,
        "channel": 0
      },
      {
        "type": "note_on",
        "time": 1,
        "note": 66,
        "velocity": 60,
        "channel": 0
      },
      {
        "type": "note_on",
        "time": 0,
        "note": 61,
        "velocity": 60,
        "channel": 0
      },
      {
        "type": "note_on",
        "time": 0,
        "note": 58,
        "velocity": 60,
        "channel": 0
      },
      {
        "type": "note_on",
        "time": 0,
        "note": 54,
        "velocity": 60,
        "channel": 0
      },
      {
        "type": "note_on",
        "time": 0,
        "note": 49,
        "velocity": 60,
        "channel": 0
      },
      {
        "type": "note_on",
        "time": 0,
        "note": 42,
        "velocity": 60,
        "channel": 0
      },
      {
        "type": "note_on",
        "time": 29,
        "note": 66,
        "velocity": 0,
        "channel": 0
      },
      {
        "type": "note_on",
        "time": 0,
        "note": 61,
        "velocity": 0,
        "channel": 0
      },
      {
        "type": "note_on",
        "time": 0,
        "note": 58,
        "velocity": 0,
        "channel": 0
      },
      {
        "type": "note_on",
        "time": 0,
        "note": 54,
        "velocity": 0,
        "channel": 0
      },
      {
        "type": "note_on",
        "time": 0,
        "note": 49,
        "velocity": 0,
        "channel": 0
      },
      {
        "type": "note_on",
        "time": 0,
        "note": 42,
        "velocity": 0,
        "channel": 0
      },
      {
        "type": "note_on",
        "time": 1,
        "note": 66,
        "velocity": 60,
        "channel": 0
      },
      {
        "type": "note_on",
        "time": 0,
        "note": 61,
        "velocity": 60,
        "channel": 0
      },
      {
        "type": "note_on",
        "time": 0,
        "note": 58,
        "velocity": 60,
        "channel": 0
      },
      {
        "type": "note_on",
        "time": 0,
        "note": 54,
        "velocity": 60,
        "channel": 0
      },
      {
        "type": "note_on",
        "time": 0,
        "note": 49,
        "velocity": 60,
        "channel": 0
      },
      {
        "type": "note_on",
        "time": 0,
        "note": 42,
        "velocity": 60,
        "channel": 0
      },
      {
        "type": "note_on",
        "time": 29,
        "note": 66,
        "velocity": 0,
        "channel": 0
      },
      {
        "type": "note_on",
        "time": 0,
        "note": 61,
        "velocity": 0,
        "channel": 0
      },
      {
        "type": "note_on",
        "time": 0,
        "note": 58,
        "velocity": 0,
        "channel": 0
      },
      {
        "type": "note_on",
        "time": 0,
        "note": 54,
        "velocity": 0,
        "channel": 0
      },
      {
        "type": "note_on",
        "time": 0,
        "note": 49,
        "velocity": 0,
        "channel": 0
      },
      {
        "type": "note_on",
        "time": 0,
        "note": 42,
        "velocity": 0,
        "channel": 0
      },
      {
        "type": "note_on",
        "time": 1,
        "note": 66,
        "velocity": 60,
        "channel": 0
      },
      {
        "type": "note_on",
        "time": 0,
        "note": 61,
        "velocity": 60,
        "channel": 0
      },
      {
        "type": "note_on",
        "time": 0,
        "note": 58,
        "velocity": 60,
        "channel": 0
      },
      {
        "type": "note_on",
        "time": 0,
        "note": 54,
        "velocity": 60,
        "channel": 0
      },
      {
        "type": "note_on",
        "time": 0,
        "note": 49,
        "velocity": 60,
        "channel": 0
      },
      {
        "type": "note_on",
        "time": 0,
        "note": 42,
        "velocity": 60,
        "channel": 0
      },
      {
        "type": "note_on",
        "time": 59,
        "note": 66,
        "velocity": 0,
        "channel": 0
      },
      {
        "type": "note_on",
        "time": 0,
        "note": 61,
        "velocity": 0,
        "channel": 0
      },
      {
        "type": "note_on",
        "time": 0,
        "note": 58,
        "velocity": 0,
        "channel": 0
      },
      {
        "type": "note_on",
        "time": 0,
        "note": 54,
        "velocity": 0,
        "channel": 0
      },
      {
        "type": "note_on",
        "time": 0,
        "note": 49,
        "velocity": 0,
        "channel": 0
      },
      {
        "type": "note_on",
        "time": 0,
        "note": 42,
        "velocity": 0,
        "channel": 0
      },
      {
        "type": "note_on",
        "time": 1,
        "note": 66,
        "velocity": 60,
        "channel": 0
      },
      {
        "type": "note_on",
        "time": 0,
        "note": 61,
        "velocity": 60,
        "channel": 0
      },
      {
        "type": "note_on",
        "time": 0,
        "note": 58,
        "velocity": 60,
        "channel": 0
      },
      {
        "type": "note_on",
        "time": 0,
        "note": 54,
        "velocity": 60,
        "channel": 0
      },
      {
        "type": "note_on",
        "time": 0,
        "note": 49,
        "velocity": 60,
        "channel": 0
      },
      {
        "type": "note_on",
        "time": 0,
        "note": 42,
        "velocity": 60,
        "channel": 0
      },
      {
        "type": "note_on",
        "time": 29,
        "note": 66,
        "velocity": 0,
        "channel": 0
      },
      {
        "type": "note_on",
        "time": 0,
        "note": 61,
        "velocity": 0,
        "channel": 0
      },
      {
        "type": "note_on",
        "time": 0,
        "note": 58,
        "velocity": 0,
        "channel": 0
      },
      {
        "type": "note_on",
        "time": 0,
        "note": 54,
        "velocity": 0,
        "channel": 0
      },
      {
        "type": "note_on",
        "time": 0,
        "note": 49,
        "velocity": 0,
        "channel": 0
      },
      {
        "type": "note_on",
        "time": 0,
        "note": 42,
        "velocity": 0,
        "channel": 0
      },
      {
        "type": "note_on",
        "time": 1,
        "note": 66,
        "velocity": 60,
        "channel": 0
      },
      {
        "type": "note_on",
        "time": 0,
        "note": 61,
        "velocity": 60,
        "channel": 0
      },
      {
        "type": "note_on",
        "time": 0,
        "note": 58,
        "velocity": 60,
        "channel": 0
      },
      {
        "type": "note_on",
        "time": 0,
        "note": 54,
        "velocity": 60,
        "channel": 0
      },
      {
        "type": "note_on",
        "time": 0,
        "note": 49,
        "velocity": 60,
        "channel": 0
      },
      {
        "type": "note_on",
        "time": 0,
        "note": 42,
        "velocity": 60,
        "channel": 0
      },
      {
        "type": "note_on",
        "time": 239,
        "note": 66,
        "velocity": 0,
        "channel": 0
      },
      {
        "type": "note_on",
        "time": 0,
        "note": 61,
        "velocity": 0,
        "channel": 0
      },
      {
        "type": "note_on",
        "time": 0,
        "note": 58,
        "velocity": 0,
        "channel": 0
      },
      {
        "type": "note_on",
        "time": 0,
        "note": 54,
        "velocity": 0,
        "channel": 0
      },
      {
        "type": "note_on",
        "time": 0,
        "note": 49,
        "velocity": 0,
        "channel": 0
      },
      {
        "type": "note_on",
        "time": 0,
        "note": 42,
        "velocity": 0,
        "channel": 0
      },
      {
        "type": "note_on",
        "time": 1,
        "note": 54,
        "velocity": 60,
        "channel": 0
      },
      {
        "type": "note_on",
        "time": 0,
        "note": 47,
        "velocity": 60,
        "channel": 0
      },
      {
        "type": "note_on",
        "time": 0,
        "note": 42,
        "velocity": 60,
        "channel": 0
      },
      {
        "type": "note_on",
        "time": 0,
        "note": 59,
        "velocity": 60,
        "channel": 0
      },
      {
        "type": "note_on",
        "time": 0,
        "note": 62,
        "velocity": 60,
        "channel": 0
      },
      {
        "type": "note_on",
        "time": 0,
        "note": 66,
        "velocity": 60,
        "channel": 0
      },
      {
        "type": "note_on",
        "time": 59,
        "note": 54,
        "velocity": 0,
        "channel": 0
      },
      {
        "type": "note_on",
        "time": 0,
        "note": 47,
        "velocity": 0,
        "channel": 0
      },
      {
        "type": "note_on",
        "time": 0,
        "note": 42,
        "velocity": 0,
        "channel": 0
      },
      {
        "type": "note_on",
        "time": 0,
        "note": 59,
        "velocity": 0,
        "channel": 0
      },
      {
        "type": "note_on",
        "time": 0,
        "note": 62,
        "velocity": 0,
        "channel": 0
      },
      {
        "type": "note_on",
        "time": 0,
        "note": 66,
        "velocity": 0,
        "channel": 0
      },
      {
        "type": "note_on",
        "time": 1,
        "note": 66,
        "velocity": 60,
        "channel": 0
      },
      {
        "type": "note_on",
        "time": 0,
        "note": 59,
        "velocity": 60,
        "channel": 0
      },
      {
        "type": "note_on",
        "time": 0,
        "note": 62,
        "velocity": 60,
        "channel": 0
      },
      {
        "type": "note_on",
        "time": 0,
        "note": 54,
        "velocity": 60,
        "channel": 0
      },
      {
        "type": "note_on",
        "time": 0,
        "note": 47,
        "velocity": 60,
        "channel": 0
      },
      {
        "type": "note_on",
        "time": 0,
        "note": 42,
        "velocity": 60,
        "channel": 0
      },
      {
        "type": "note_on",
        "time": 29,
        "note": 66,
        "velocity": 0,
        "channel": 0
      },
      {
        "type": "note_on",
        "time": 0,
        "note": 59,
        "velocity": 0,
        "channel": 0
      },
      {
        "type": "note_on",
        "time": 0,
        "note": 62,
        "velocity": 0,
        "channel": 0
      },
      {
        "type": "note_on",
        "time": 0,
        "note": 54,
        "velocity": 0,
        "channel": 0
      },
      {
        "type": "note_on",
        "time": 0,
        "note": 47,
        "velocity": 0,
        "channel": 0
      },
      {
        "type": "note_on",
        "time": 0,
        "note": 42,
        "velocity": 0,
        "channel": 0
      },
      {
        "type": "note_on",
        "time": 1,
        "note": 66,
        "velocity": 60,
        "channel": 0
      },
      {
        "type": "note_on",
        "time": 0,
        "note": 59,
        "velocity": 60,
        "channel": 0
      },
      {
        "type": "note_on",
        "time": 0,
        "note": 62,
        "velocity": 60,
        "channel": 0
      },
      {
        "type": "note_on",
        "time": 0,
        "note": 54,
        "velocity": 60,
        "channel": 0
      },
      {
        "type": "note_on",
        "time": 0,
        "note": 47,
        "velocity": 60,
        "channel": 0
      },
      {
        "type": "note_on",
        "time": 0,
        "note": 42,
        "velocity": 60,
        "channel": 0
      },
      {
        "type": "note_on",
        "time": 29,
        "note": 66,
        "velocity": 0,
        "channel": 0
      },
      {
        "type": "note_on",
        "time": 0,
        "note": 59,
        "velocity": 0,
        "channel": 0
      },
      {
        "type": "note_on",
        "time": 0,
        "note": 62,
        "velocity": 0,
        "channel": 0
      },
      {
        "type": "note_on",
        "time": 0,
        "note": 54,
        "velocity": 0,
        "channel": 0
      },
      {
        "type": "note_on",
        "time": 0,
        "note": 47,
        "velocity": 0,
        "channel": 0
      },
      {
        "type": "note_on",
        "time": 0,
        "note": 42,
        "velocity": 0,
        "channel": 0
      },
      {
        "type": "note_on",
        "time": 1,
        "note": 66,
        "velocity": 60,
        "channel": 0
      },
      {
        "type": "note_on",
        "time": 0,
        "note": 62,
        "velocity": 60,
        "channel": 0
      },
      {
        "type": "note_on",
        "time": 0,
        "note": 59,
        "velocity": 60,
        "channel": 0
      },
      {
        "type": "note_on",
        "time": 0,
        "note": 54,
        "velocity": 60,
        "channel": 0
      },
      {
        "type": "note_on",
        "time": 0,
        "note": 47,
        "velocity": 60,
        "channel": 0
      },
      {
        "type": "note_on",
        "time": 0,
        "note": 42,
        "velocity": 60,
        "channel": 0
      },
      {
        "type": "note_on",
        "time": 59,
        "note": 66,
        "velocity": 0,
        "channel": 0
      },
      {
        "type": "note_on",
        "time": 0,
        "note": 62,
        "velocity": 0,
        "channel": 0
      },
      {
        "type": "note_on",
        "time": 0,
        "note": 59,
        "velocity": 0,
        "channel": 0
      },
      {
        "type": "note_on",
        "time": 0,
        "note": 54,
        "velocity": 0,
        "channel": 0
      },
      {
        "type": "note_on",
        "time": 0,
        "note": 47,
        "velocity": 0,
        "channel": 0
      },
      {
        "type": "note_on",
        "time": 0,
        "note": 42,
        "velocity": 0,
        "channel": 0
      },
      {
        "type": "note_on",
        "time": 1,
        "note": 66,
        "velocity": 60,
        "channel": 0
      },
      {
        "type": "note_on",
        "time": 0,
        "note": 62,
        "velocity": 60,
        "channel": 0
      },
      {
        "type": "note_on",
        "time": 0,
        "note": 59,
        "velocity": 60,
        "channel": 0
      },
      {
        "type": "note_on",
        "time": 0,
        "note": 54,
        "velocity": 60,
        "channel": 0
      },
      {
        "type": "note_on",
        "time": 0,
        "note": 47,
        "velocity": 60,
        "channel": 0
      },
      {
        "type": "note_on",
        "time": 0,
        "note": 42,
        "velocity": 60,
        "channel": 0
      },
      {
        "type": "note_on",
        "time": 29,
        "note": 66,
        "velocity": 0,
        "channel": 0
      },
      {
        "type": "note_on",
        "time": 0,
        "note": 62,
        "velocity": 0,
        "channel": 0
      },
      {
        "type": "note_on",
        "time": 0,
        "note": 59,
        "velocity": 0,
        "channel": 0
      },
      {
        "type": "note_on",
        "time": 0,
        "note": 54,
        "velocity": 0,
        "channel": 0
      },
      {
        "type": "note_on",
        "time": 0,
        "note": 47,
        "velocity": 0,
        "channel": 0
      },
      {
        "type": "note_on",
        "time": 0,
        "note": 42,
        "velocity": 0,
        "channel": 0
      },
      {
        "type": "note_on",
        "time": 1,
        "note": 66,
        "velocity": 60,
        "channel": 0
      },
      {
        "type": "note_on",
        "time": 0,
        "note": 62,
        "velocity": 60,
        "channel": 0
      },
      {
        "type": "note_on",
        "time": 0,
        "note": 59,
        "velocity": 60,
        "channel": 0
      },
      {
        "type": "note_on",
        "time": 0,
        "note": 54,
        "velocity": 60,
        "channel": 0
      },
      {
        "type": "note_on",
        "time": 0,
        "note": 47,
        "velocity": 60,
        "channel": 0
      },
      {
        "type": "note_on",
        "time": 0,
        "note": 42,
        "velocity": 60,
        "channel": 0
      },
      {
        "type": "note_on",
        "time": 29,
        "note": 66,
        "velocity": 0,
        "channel": 0
      },
      {
        "type": "note_on",
        "time": 0,
        "note": 62,
        "velocity": 0,
        "channel": 0
      },
      {
        "type": "note_on",
        "time": 0,
        "note": 59,
        "velocity": 0,
        "channel": 0
      },
      {
        "type": "note_on",
        "time": 0,
        "note": 54,
        "velocity": 0,
        "channel": 0
      },
      {
        "type": "note_on",
        "time": 0,
        "note": 47,
        "velocity": 0,
        "channel": 0
      },
      {
        "type": "note_on",
        "time": 0,
        "note": 42,
        "velocity": 0,
        "channel": 0
      },
      {
        "type": "note_on",
        "time": 1,
        "note": 66,
        "velocity": 60,
        "channel": 0
      },
      {
        "type": "note_on",
        "time": 0,
        "note": 62,
        "velocity": 60,
        "channel": 0
      },
      {
        "type": "note_on",
        "time": 0,
        "note": 59,
        "velocity": 60,
        "channel": 0
      },
      {
        "type": "note_on",
        "time": 0,
        "note": 54,
        "velocity": 60,
        "channel": 0
      },
      {
        "type": "note_on",
        "time": 0,
        "note": 47,
        "velocity": 60,
        "channel": 0
      },
      {
        "type": "note_on",
        "time": 0,
        "note": 42,
        "velocity": 60,
        "channel": 0
      },
      {
        "type": "note_on",
        "time": 29,
        "note": 66,
        "velocity": 0,
        "channel": 0
      },
      {
        "type": "note_on",
        "time": 0,
        "note": 62,
        "velocity": 0,
        "channel": 0
      },
      {
        "type": "note_on",
        "time": 0,
        "note": 59,
        "velocity": 0,
        "channel": 0
      },
      {
        "type": "note_on",
        "time": 0,
        "note": 54,
        "velocity": 0,
        "channel": 0
      },
      {
        "type": "note_on",
        "time": 0,
        "note": 47,
        "velocity": 0,
        "channel": 0
      },
      {
        "type": "note_on",
        "time": 0,
        "note": 42,
        "velocity": 0,
        "channel": 0
      },
      {
        "type": "note_on",
        "time": 1,
        "note": 66,
        "velocity": 60,
        "channel": 0
      },
      {
        "type": "note_on",
        "time": 0,
        "note": 62,
        "velocity": 60,
        "channel": 0
      },
      {
        "type": "note_on",
        "time": 0,
        "note": 59,
        "velocity": 60,
        "channel": 0
      },
      {
        "type": "note_on",
        "time": 0,
        "note": 54,
        "velocity": 60,
        "channel": 0
      },
      {
        "type": "note_on",
        "time": 0,
        "note": 47,
        "velocity": 60,
        "channel": 0
      },
      {
        "type": "note_on",
        "time": 0,
        "note": 42,
        "velocity": 60,
        "channel": 0
      },
      {
        "type": "note_on",
        "time": 29,
        "note": 66,
        "velocity": 0,
        "channel": 0
      },
      {
        "type": "note_on",
        "time": 0,
        "note": 62,
        "velocity": 0,
        "channel": 0
      },
      {
        "type": "note_on",
        "time": 0,
        "note": 59,
        "velocity": 0,
        "channel": 0
      },
      {
        "type": "note_on",
        "time": 0,
        "note": 54,
        "velocity": 0,
        "channel": 0
      },
      {
        "type": "note_on",
        "time": 0,
        "note": 47,
        "velocity": 0,
        "channel": 0
      },
      {
        "type": "note_on",
        "time": 0,
        "note": 42,
        "velocity": 0,
        "channel": 0
      },
      {
        "type": "note_on",
        "time": 1,
        "note": 66,
        "velocity": 60,
        "channel": 0
      },
      {
        "type": "note_on",
        "time": 0,
        "note": 62,
        "velocity": 60,
        "channel": 0
      },
      {
        "type": "note_on",
        "time": 0,
        "note": 59,
        "velocity": 60,
        "channel": 0
      },
      {
        "type": "note_on",
        "time": 0,
        "note": 54,
        "velocity": 60,
        "channel": 0
      },
      {
        "type": "note_on",
        "time": 0,
        "note": 47,
        "velocity": 60,
        "channel": 0
      },
      {
        "type": "note_on",
        "time": 0,
        "note": 42,
        "velocity": 60,
        "channel": 0
      },
      {
        "type": "note_on",
        "time": 29,
        "note": 66,
        "velocity": 0,
        "channel": 0
      },
      {
        "type": "note_on",
        "time": 0,
        "note": 62,
        "velocity": 0,
        "channel": 0
      },
      {
        "type": "note_on",
        "time": 0,
        "note": 59,
        "velocity": 0,
        "channel": 0
      },
      {
        "type": "note_on",
        "time": 0,
        "note": 54,
        "velocity": 0,
        "channel": 0
      },
      {
        "type": "note_on",
        "time": 0,
        "note": 47,
        "velocity": 0,
        "channel": 0
      },
      {
        "type": "note_on",
        "time": 0,
        "note": 42,
        "velocity": 0,
        "channel": 0
      },
      {
        "type": "note_on",
        "time": 1,
        "note": 66,
        "velocity": 60,
        "channel": 0
      },
      {
        "type": "note_on",
        "time": 0,
        "note": 62,
        "velocity": 60,
        "channel": 0
      },
      {
        "type": "note_on",
        "time": 0,
        "note": 59,
        "velocity": 60,
        "channel": 0
      },
      {
        "type": "note_on",
        "time": 0,
        "note": 54,
        "velocity": 60,
        "channel": 0
      },
      {
        "type": "note_on",
        "time": 0,
        "note": 47,
        "velocity": 60,
        "channel": 0
      },
      {
        "type": "note_on",
        "time": 0,
        "note": 42,
        "velocity": 60,
        "channel": 0
      },
      {
        "type": "note_on",
        "time": 59,
        "note": 66,
        "velocity": 0,
        "channel": 0
      },
      {
        "type": "note_on",
        "time": 0,
        "note": 62,
        "velocity": 0,
        "channel": 0
      },
      {
        "type": "note_on",
        "time": 0,
        "note": 59,
        "velocity": 0,
        "channel": 0
      },
      {
        "type": "note_on",
        "time": 0,
        "note": 54,
        "velocity": 0,
        "channel": 0
      },
      {
        "type": "note_on",
        "time": 0,
        "note": 47,
        "velocity": 0,
        "channel": 0
      },
      {
        "type": "note_on",
        "time": 0,
        "note": 42,
        "velocity": 0,
        "channel": 0
      },
      {
        "type": "note_on",
        "time": 1,
        "note": 66,
        "velocity": 60,
        "channel": 0
      },
      {
        "type": "note_on",
        "time": 0,
        "note": 62,
        "velocity": 60,
        "channel": 0
      },
      {
        "type": "note_on",
        "time": 0,
        "note": 59,
        "velocity": 60,
        "channel": 0
      },
      {
        "type": "note_on",
        "time": 0,
        "note": 54,
        "velocity": 60,
        "channel": 0
      },
      {
        "type": "note_on",
        "time": 0,
        "note": 47,
        "velocity": 60,
        "channel": 0
      },
      {
        "type": "note_on",
        "time": 0,
        "note": 42,
        "velocity": 60,
        "channel": 0
      },
      {
        "type": "note_on",
        "time": 29,
        "note": 66,
        "velocity": 0,
        "channel": 0
      },
      {
        "type": "note_on",
        "time": 0,
        "note": 62,
        "velocity": 0,
        "channel": 0
      },
      {
        "type": "note_on",
        "time": 0,
        "note": 59,
        "velocity": 0,
        "channel": 0
      },
      {
        "type": "note_on",
        "time": 0,
        "note": 54,
        "velocity": 0,
        "channel": 0
      },
      {
        "type": "note_on",
        "time": 0,
        "note": 47,
        "velocity": 0,
        "channel": 0
      },
      {
        "type": "note_on",
        "time": 0,
        "note": 42,
        "velocity": 0,
        "channel": 0
      },
      {
        "type": "note_on",
        "time": 1,
        "note": 66,
        "velocity": 60,
        "channel": 0
      },
      {
        "type": "note_on",
        "time": 0,
        "note": 62,
        "velocity": 60,
        "channel": 0
      },
      {
        "type": "note_on",
        "time": 0,
        "note": 59,
        "velocity": 60,
        "channel": 0
      },
      {
        "type": "note_on",
        "time": 0,
        "note": 54,
        "velocity": 60,
        "channel": 0
      },
      {
        "type": "note_on",
        "time": 0,
        "note": 47,
        "velocity": 60,
        "channel": 0
      },
      {
        "type": "note_on",
        "time": 0,
        "note": 42,
        "velocity": 60,
        "channel": 0
      },
      {
        "type": "note_on",
        "time": 59,
        "note": 66,
        "velocity": 0,
        "channel": 0
      },
      {
        "type": "note_on",
        "time": 0,
        "note": 62,
        "velocity": 0,
        "channel": 0
      },
      {
        "type": "note_on",
        "time": 0,
        "note": 59,
        "velocity": 0,
        "channel": 0
      },
      {
        "type": "note_on",
        "time": 0,
        "note": 54,
        "velocity": 0,
        "channel": 0
      },
      {
        "type": "note_on",
        "time": 0,
        "note": 47,
        "velocity": 0,
        "channel": 0
      },
      {
        "type": "note_on",
        "time": 0,
        "note": 42,
        "velocity": 0,
        "channel": 0
      },
      {
        "type": "note_on",
        "time": 1,
        "note": 42,
        "velocity": 60,
        "channel": 0
      },
      {
        "type": "note_on",
        "time": 0,
        "note": 49,
        "velocity": 60,
        "channel": 0
      },
      {
        "type": "note_on",
        "time": 0,
        "note": 54,
        "velocity": 60,
        "channel": 0
      },
      {
        "type": "note_on",
        "time": 0,
        "note": 58,
        "velocity": 60,
        "channel": 0
      },
      {
        "type": "note_on",
        "time": 0,
        "note": 61,
        "velocity": 60,
        "channel": 0
      },
      {
        "type": "note_on",
        "time": 0,
        "note": 66,
        "velocity": 60,
        "channel": 0
      },
      {
        "type": "note_on",
        "time": 59,
        "note": 42,
        "velocity": 0,
        "channel": 0
      },
      {
        "type": "note_on",
        "time": 0,
        "note": 49,
        "velocity": 0,
        "channel": 0
      },
      {
        "type": "note_on",
        "time": 0,
        "note": 54,
        "velocity": 0,
        "channel": 0
      },
      {
        "type": "note_on",
        "time": 0,
        "note": 58,
        "velocity": 0,
        "channel": 0
      },
      {
        "type": "note_on",
        "time": 0,
        "note": 61,
        "velocity": 0,
        "channel": 0
      },
      {
        "type": "note_on",
        "time": 0,
        "note": 66,
        "velocity": 0,
        "channel": 0
      },
      {
        "type": "note_on",
        "time": 1,
        "note": 66,
        "velocity": 60,
        "channel": 0
      },
      {
        "type": "note_on",
        "time": 0,
        "note": 61,
        "velocity": 60,
        "channel": 0
      },
      {
        "type": "note_on",
        "time": 0,
        "note": 58,
        "velocity": 60,
        "channel": 0
      },
      {
        "type": "note_on",
        "time": 0,
        "note": 54,
        "velocity": 60,
        "channel": 0
      },
      {
        "type": "note_on",
        "time": 0,
        "note": 49,
        "velocity": 60,
        "channel": 0
      },
      {
        "type": "note_on",
        "time": 0,
        "note": 42,
        "velocity": 60,
        "channel": 0
      },
      {
        "type": "note_on",
        "time": 29,
        "note": 66,
        "velocity": 0,
        "channel": 0
      },
      {
        "type": "note_on",
        "time": 0,
        "note": 61,
        "velocity": 0,
        "channel": 0
      },
      {
        "type": "note_on",
        "time": 0,
        "note": 58,
        "velocity": 0,
        "channel": 0
      },
      {
        "type": "note_on",
        "time": 0,
        "note": 54,
        "velocity": 0,
        "channel": 0
      },
      {
        "type": "note_on",
        "time": 0,
        "note": 49,
        "velocity": 0,
        "channel": 0
      },
      {
        "type": "note_on",
        "time": 0,
        "note": 42,
        "velocity": 0,
        "channel": 0
      },
      {
        "type": "note_on",
        "time": 1,
        "note": 66,
        "velocity": 60,
        "channel": 0
      },
      {
        "type": "note_on",
        "time": 0,
        "note": 61,
        "velocity": 60,
        "channel": 0
      },
      {
        "type": "note_on",
        "time": 0,
        "note": 58,
        "velocity": 60,
        "channel": 0
      },
      {
        "type": "note_on",
        "time": 0,
        "note": 54,
        "velocity": 60,
        "channel": 0
      },
      {
        "type": "note_on",
        "time": 0,
        "note": 49,
        "velocity": 60,
        "channel": 0
      },
      {
        "type": "note_on",
        "time": 0,
        "note": 42,
        "velocity": 60,
        "channel": 0
      },
      {
        "type": "note_on",
        "time": 29,
        "note": 66,
        "velocity": 0,
        "channel": 0
      },
      {
        "type": "note_on",
        "time": 0,
        "note": 61,
        "velocity": 0,
        "channel": 0
      },
      {
        "type": "note_on",
        "time": 0,
        "note": 58,
        "velocity": 0,
        "channel": 0
      },
      {
        "type": "note_on",
        "time": 0,
        "note": 54,
        "velocity": 0,
        "channel": 0
      },
      {
        "type": "note_on",
        "time": 0,
        "note": 49,
        "velocity": 0,
        "channel": 0
      },
      {
        "type": "note_on",
        "time": 0,
        "note": 42,
        "velocity": 0,
        "channel": 0
      },
      {
        "type": "note_on",
        "time": 1,
        "note": 66,
        "velocity": 60,
        "channel": 0
      },
      {
        "type": "note_on",
        "time": 0,
        "note": 58,
        "velocity": 60,
        "channel": 0
      },
      {
        "type": "note_on",
        "time": 0,
        "note": 61,
        "velocity": 60,
        "channel": 0
      },
      {
        "type": "note_on",
        "time": 0,
        "note": 54,
        "velocity": 60,
        "channel": 0
      },
      {
        "type": "note_on",
        "time": 0,
        "note": 49,
        "velocity": 60,
        "channel": 0
      },
      {
        "type": "note_on",
        "time": 0,
        "note": 42,
        "velocity": 60,
        "channel": 0
      },
      {
        "type": "note_on",
        "time": 59,
        "note": 66,
        "velocity": 0,
        "channel": 0
      },
      {
        "type": "note_on",
        "time": 0,
        "note": 58,
        "velocity": 0,
        "channel": 0
      },
      {
        "type": "note_on",
        "time": 0,
        "note": 61,
        "velocity": 0,
        "channel": 0
      },
      {
        "type": "note_on",
        "time": 0,
        "note": 54,
        "velocity": 0,
        "channel": 0
      },
      {
        "type": "note_on",
        "time": 0,
        "note": 49,
        "velocity": 0,
        "channel": 0
      },
      {
        "type": "note_on",
        "time": 0,
        "note": 42,
        "velocity": 0,
        "channel": 0
      },
      {
        "type": "note_on",
        "time": 1,
        "note": 66,
        "velocity": 60,
        "channel": 0
      },
      {
        "type": "note_on",
        "time": 0,
        "note": 61,
        "velocity": 60,
        "channel": 0
      },
      {
        "type": "note_on",
        "time": 0,
        "note": 58,
        "velocity": 60,
        "channel": 0
      },
      {
        "type": "note_on",
        "time": 0,
        "note": 54,
        "velocity": 60,
        "channel": 0
      },
      {
        "type": "note_on",
        "time": 0,
        "note": 49,
        "velocity": 60,
        "channel": 0
      },
      {
        "type": "note_on",
        "time": 0,
        "note": 42,
        "velocity": 60,
        "channel": 0
      },
      {
        "type": "note_on",
        "time": 29,
        "note": 66,
        "velocity": 0,
        "channel": 0
      },
      {
        "type": "note_on",
        "time": 0,
        "note": 61,
        "velocity": 0,
        "channel": 0
      },
      {
        "type": "note_on",
        "time": 0,
        "note": 58,
        "velocity": 0,
        "channel": 0
      },
      {
        "type": "note_on",
        "time": 0,
        "note": 54,
        "velocity": 0,
        "channel": 0
      },
      {
        "type": "note_on",
        "time": 0,
        "note": 49,
        "velocity": 0,
        "channel": 0
      },
      {
        "type": "note_on",
        "time": 0,
        "note": 42,
        "velocity": 0,
        "channel": 0
      },
      {
        "type": "note_on",
        "time": 1,
        "note": 66,
        "velocity": 60,
        "channel": 0
      },
      {
        "type": "note_on",
        "time": 0,
        "note": 61,
        "velocity": 60,
        "channel": 0
      },
      {
        "type": "note_on",
        "time": 0,
        "note": 58,
        "velocity": 60,
        "channel": 0
      },
      {
        "type": "note_on",
        "time": 0,
        "note": 54,
        "velocity": 60,
        "channel": 0
      },
      {
        "type": "note_on",
        "time": 0,
        "note": 49,
        "velocity": 60,
        "channel": 0
      },
      {
        "type": "note_on",
        "time": 0,
        "note": 42,
        "velocity": 60,
        "channel": 0
      },
      {
        "type": "note_on",
        "time": 29,
        "note": 66,
        "velocity": 0,
        "channel": 0
      },
      {
        "type": "note_on",
        "time": 0,
        "note": 61,
        "velocity": 0,
        "channel": 0
      },
      {
        "type": "note_on",
        "time": 0,
        "note": 58,
        "velocity": 0,
        "channel": 0
      },
      {
        "type": "note_on",
        "time": 0,
        "note": 54,
        "velocity": 0,
        "channel": 0
      },
      {
        "type": "note_on",
        "time": 0,
        "note": 49,
        "velocity": 0,
        "channel": 0
      },
      {
        "type": "note_on",
        "time": 0,
        "note": 42,
        "velocity": 0,
        "channel": 0
      },
      {
        "type": "note_on",
        "time": 1,
        "note": 66,
        "velocity": 60,
        "channel": 0
      },
      {
        "type": "note_on",
        "time": 0,
        "note": 61,
        "velocity": 60,
        "channel": 0
      },
      {
        "type": "note_on",
        "time": 0,
        "note": 58,
        "velocity": 60,
        "channel": 0
      },
      {
        "type": "note_on",
        "time": 0,
        "note": 54,
        "velocity": 60,
        "channel": 0
      },
      {
        "type": "note_on",
        "time": 0,
        "note": 49,
        "velocity": 60,
        "channel": 0
      },
      {
        "type": "note_on",
        "time": 0,
        "note": 42,
        "velocity": 60,
        "channel": 0
      },
      {
        "type": "note_on",
        "time": 179,
        "note": 66,
        "velocity": 0,
        "channel": 0
      },
      {
        "type": "note_on",
        "time": 0,
        "note": 61,
        "velocity": 0,
        "channel": 0
      },
      {
        "type": "note_on",
        "time": 0,
        "note": 58,
        "velocity": 0,
        "channel": 0
      },
      {
        "type": "note_on",
        "time": 0,
        "note": 54,
        "velocity": 0,
        "channel": 0
      },
      {
        "type": "note_on",
        "time": 0,
        "note": 49,
        "velocity": 0,
        "channel": 0
      },
      {
        "type": "note_on",
        "time": 0,
        "note": 42,
        "velocity": 0,
        "channel": 0
      },
      {
        "type": "note_on",
        "time": 1,
        "note": 66,
        "velocity": 60,
        "channel": 0
      },
      {
        "type": "note_on",
        "time": 0,
        "note": 61,
        "velocity": 60,
        "channel": 0
      },
      {
        "type": "note_on",
        "time": 0,
        "note": 58,
        "velocity": 60,
        "channel": 0
      },
      {
        "type": "note_on",
        "time": 0,
        "note": 54,
        "velocity": 60,
        "channel": 0
      },
      {
        "type": "note_on",
        "time": 0,
        "note": 49,
        "velocity": 60,
        "channel": 0
      },
      {
        "type": "note_on",
        "time": 0,
        "note": 42,
        "velocity": 60,
        "channel": 0
      },
      {
        "type": "note_on",
        "time": 29,
        "note": 66,
        "velocity": 0,
        "channel": 0
      },
      {
        "type": "note_on",
        "time": 0,
        "note": 61,
        "velocity": 0,
        "channel": 0
      },
      {
        "type": "note_on",
        "time": 0,
        "note": 58,
        "velocity": 0,
        "channel": 0
      },
      {
        "type": "note_on",
        "time": 0,
        "note": 54,
        "velocity": 0,
        "channel": 0
      },
      {
        "type": "note_on",
        "time": 0,
        "note": 49,
        "velocity": 0,
        "channel": 0
      },
      {
        "type": "note_on",
        "time": 0,
        "note": 42,
        "velocity": 0,
        "channel": 0
      },
      {
        "type": "note_on",
        "time": 1,
        "note": 66,
        "velocity": 60,
        "channel": 0
      },
      {
        "type": "note_on",
        "time": 0,
        "note": 61,
        "velocity": 60,
        "channel": 0
      },
      {
        "type": "note_on",
        "time": 0,
        "note": 58,
        "velocity": 60,
        "channel": 0
      },
      {
        "type": "note_on",
        "time": 0,
        "note": 54,
        "velocity": 60,
        "channel": 0
      },
      {
        "type": "note_on",
        "time": 0,
        "note": 49,
        "velocity": 60,
        "channel": 0
      },
      {
        "type": "note_on",
        "time": 0,
        "note": 42,
        "velocity": 60,
        "channel": 0
      },
      {
        "type": "note_on",
        "time": 29,
        "note": 66,
        "velocity": 0,
        "channel": 0
      },
      {
        "type": "note_on",
        "time": 0,
        "note": 61,
        "velocity": 0,
        "channel": 0
      },
      {
        "type": "note_on",
        "time": 0,
        "note": 58,
        "velocity": 0,
        "channel": 0
      },
      {
        "type": "note_on",
        "time": 0,
        "note": 54,
        "velocity": 0,
        "channel": 0
      },
      {
        "type": "note_on",
        "time": 0,
        "note": 49,
        "velocity": 0,
        "channel": 0
      },
      {
        "type": "note_on",
        "time": 0,
        "note": 42,
        "velocity": 0,
        "channel": 0
      },
      {
        "type": "note_on",
        "time": 1,
        "note": 40,
        "velocity": 60,
        "channel": 0
      },
      {
        "type": "note_on",
        "time": 0,
        "note": 45,
        "velocity": 60,
        "channel": 0
      },
      {
        "type": "note_on",
        "time": 0,
        "note": 52,
        "velocity": 60,
        "channel": 0
      },
      {
        "type": "note_on",
        "time": 0,
        "note": 57,
        "velocity": 60,
        "channel": 0
      },
      {
        "type": "note_on",
        "time": 0,
        "note": 61,
        "velocity": 60,
        "channel": 0
      },
      {
        "type": "note_on",
        "time": 0,
        "note": 64,
        "velocity": 60,
        "channel": 0
      },
      {
        "type": "note_on",
        "time": 59,
        "note": 40,
        "velocity": 0,
        "channel": 0
      },
      {
        "type": "note_on",
        "time": 0,
        "note": 45,
        "velocity": 0,
        "channel": 0
      },
      {
        "type": "note_on",
        "time": 0,
        "note": 52,
        "velocity": 0,
        "channel": 0
      },
      {
        "type": "note_on",
        "time": 0,
        "note": 57,
        "velocity": 0,
        "channel": 0
      },
      {
        "type": "note_on",
        "time": 0,
        "note": 61,
        "velocity": 0,
        "channel": 0
      },
      {
        "type": "note_on",
        "time": 0,
        "note": 64,
        "velocity": 0,
        "channel": 0
      },
      {
        "type": "note_on",
        "time": 1,
        "note": 64,
        "velocity": 60,
        "channel": 0
      },
      {
        "type": "note_on",
        "time": 0,
        "note": 61,
        "velocity": 60,
        "channel": 0
      },
      {
        "type": "note_on",
        "time": 0,
        "note": 57,
        "velocity": 60,
        "channel": 0
      },
      {
        "type": "note_on",
        "time": 0,
        "note": 52,
        "velocity": 60,
        "channel": 0
      },
      {
        "type": "note_on",
        "time": 0,
        "note": 45,
        "velocity": 60,
        "channel": 0
      },
      {
        "type": "note_on",
        "time": 0,
        "note": 40,
        "velocity": 60,
        "channel": 0
      },
      {
        "type": "note_on",
        "time": 29,
        "note": 64,
        "velocity": 0,
        "channel": 0
      },
      {
        "type": "note_on",
        "time": 0,
        "note": 61,
        "velocity": 0,
        "channel": 0
      },
      {
        "type": "note_on",
        "time": 0,
        "note": 57,
        "velocity": 0,
        "channel": 0
      },
      {
        "type": "note_on",
        "time": 0,
        "note": 52,
        "velocity": 0,
        "channel": 0
      },
      {
        "type": "note_on",
        "time": 0,
        "note": 45,
        "velocity": 0,
        "channel": 0
      },
      {
        "type": "note_on",
        "time": 0,
        "note": 40,
        "velocity": 0,
        "channel": 0
      },
      {
        "type": "note_on",
        "time": 1,
        "note": 64,
        "velocity": 60,
        "channel": 0
      },
      {
        "type": "note_on",
        "time": 0,
        "note": 61,
        "velocity": 60,
        "channel": 0
      },
      {
        "type": "note_on",
        "time": 0,
        "note": 57,
        "velocity": 60,
        "channel": 0
      },
      {
        "type": "note_on",
        "time": 0,
        "note": 52,
        "velocity": 60,
        "channel": 0
      },
      {
        "type": "note_on",
        "time": 0,
        "note": 45,
        "velocity": 60,
        "channel": 0
      },
      {
        "type": "note_on",
        "time": 0,
        "note": 40,
        "velocity": 60,
        "channel": 0
      },
      {
        "type": "note_on",
        "time": 29,
        "note": 64,
        "velocity": 0,
        "channel": 0
      },
      {
        "type": "note_on",
        "time": 0,
        "note": 61,
        "velocity": 0,
        "channel": 0
      },
      {
        "type": "note_on",
        "time": 0,
        "note": 57,
        "velocity": 0,
        "channel": 0
      },
      {
        "type": "note_on",
        "time": 0,
        "note": 52,
        "velocity": 0,
        "channel": 0
      },
      {
        "type": "note_on",
        "time": 0,
        "note": 45,
        "velocity": 0,
        "channel": 0
      },
      {
        "type": "note_on",
        "time": 0,
        "note": 40,
        "velocity": 0,
        "channel": 0
      },
      {
        "type": "note_on",
        "time": 1,
        "note": 64,
        "velocity": 60,
        "channel": 0
      },
      {
        "type": "note_on",
        "time": 0,
        "note": 61,
        "velocity": 60,
        "channel": 0
      },
      {
        "type": "note_on",
        "time": 0,
        "note": 57,
        "velocity": 60,
        "channel": 0
      },
      {
        "type": "note_on",
        "time": 0,
        "note": 52,
        "velocity": 60,
        "channel": 0
      },
      {
        "type": "note_on",
        "time": 0,
        "note": 45,
        "velocity": 60,
        "channel": 0
      },
      {
        "type": "note_on",
        "time": 0,
        "note": 40,
        "velocity": 60,
        "channel": 0
      },
      {
        "type": "note_on",
        "time": 59,
        "note": 64,
        "velocity": 0,
        "channel": 0
      },
      {
        "type": "note_on",
        "time": 0,
        "note": 61,
        "velocity": 0,
        "channel": 0
      },
      {
        "type": "note_on",
        "time": 0,
        "note": 57,
        "velocity": 0,
        "channel": 0
      },
      {
        "type": "note_on",
        "time": 0,
        "note": 52,
        "velocity": 0,
        "channel": 0
      },
      {
        "type": "note_on",
        "time": 0,
        "note": 45,
        "velocity": 0,
        "channel": 0
      },
      {
        "type": "note_on",
        "time": 0,
        "note": 40,
        "velocity": 0,
        "channel": 0
      },
      {
        "type": "note_on",
        "time": 1,
        "note": 64,
        "velocity": 60,
        "channel": 0
      },
      {
        "type": "note_on",
        "time": 0,
        "note": 61,
        "velocity": 60,
        "channel": 0
      },
      {
        "type": "note_on",
        "time": 0,
        "note": 57,
        "velocity": 60,
        "channel": 0
      },
      {
        "type": "note_on",
        "time": 0,
        "note": 52,
        "velocity": 60,
        "channel": 0
      },
      {
        "type": "note_on",
        "time": 0,
        "note": 45,
        "velocity": 60,
        "channel": 0
      },
      {
        "type": "note_on",
        "time": 0,
        "note": 40,
        "velocity": 60,
        "channel": 0
      },
      {
        "type": "note_on",
        "time": 29,
        "note": 64,
        "velocity": 0,
        "channel": 0
      },
      {
        "type": "note_on",
        "time": 0,
        "note": 61,
        "velocity": 0,
        "channel": 0
      },
      {
        "type": "note_on",
        "time": 0,
        "note": 57,
        "velocity": 0,
        "channel": 0
      },
      {
        "type": "note_on",
        "time": 0,
        "note": 52,
        "velocity": 0,
        "channel": 0
      },
      {
        "type": "note_on",
        "time": 0,
        "note": 45,
        "velocity": 0,
        "channel": 0
      },
      {
        "type": "note_on",
        "time": 0,
        "note": 40,
        "velocity": 0,
        "channel": 0
      },
      {
        "type": "note_on",
        "time": 1,
        "note": 64,
        "velocity": 60,
        "channel": 0
      },
      {
        "type": "note_on",
        "time": 0,
        "note": 61,
        "velocity": 60,
        "channel": 0
      },
      {
        "type": "note_on",
        "time": 0,
        "note": 57,
        "velocity": 60,
        "channel": 0
      },
      {
        "type": "note_on",
        "time": 0,
        "note": 52,
        "velocity": 60,
        "channel": 0
      },
      {
        "type": "note_on",
        "time": 0,
        "note": 45,
        "velocity": 60,
        "channel": 0
      },
      {
        "type": "note_on",
        "time": 0,
        "note": 40,
        "velocity": 60,
        "channel": 0
      },
      {
        "type": "note_on",
        "time": 29,
        "note": 64,
        "velocity": 0,
        "channel": 0
      },
      {
        "type": "note_on",
        "time": 0,
        "note": 61,
        "velocity": 0,
        "channel": 0
      },
      {
        "type": "note_on",
        "time": 0,
        "note": 57,
        "velocity": 0,
        "channel": 0
      },
      {
        "type": "note_on",
        "time": 0,
        "note": 52,
        "velocity": 0,
        "channel": 0
      },
      {
        "type": "note_on",
        "time": 0,
        "note": 45,
        "velocity": 0,
        "channel": 0
      },
      {
        "type": "note_on",
        "time": 0,
        "note": 40,
        "velocity": 0,
        "channel": 0
      },
      {
        "type": "note_on",
        "time": 1,
        "note": 64,
        "velocity": 60,
        "channel": 0
      },
      {
        "type": "note_on",
        "time": 0,
        "note": 61,
        "velocity": 60,
        "channel": 0
      },
      {
        "type": "note_on",
        "time": 0,
        "note": 57,
        "velocity": 60,
        "channel": 0
      },
      {
        "type": "note_on",
        "time": 0,
        "note": 52,
        "velocity": 60,
        "channel": 0
      },
      {
        "type": "note_on",
        "time": 0,
        "note": 45,
        "velocity": 60,
        "channel": 0
      },
      {
        "type": "note_on",
        "time": 0,
        "note": 40,
        "velocity": 60,
        "channel": 0
      },
      {
        "type": "note_on",
        "time": 29,
        "note": 64,
        "velocity": 0,
        "channel": 0
      },
      {
        "type": "note_on",
        "time": 0,
        "note": 61,
        "velocity": 0,
        "channel": 0
      },
      {
        "type": "note_on",
        "time": 0,
        "note": 57,
        "velocity": 0,
        "channel": 0
      },
      {
        "type": "note_on",
        "time": 0,
        "note": 52,
        "velocity": 0,
        "channel": 0
      },
      {
        "type": "note_on",
        "time": 0,
        "note": 45,
        "velocity": 0,
        "channel": 0
      },
      {
        "type": "note_on",
        "time": 0,
        "note": 40,
        "velocity": 0,
        "channel": 0
      },
      {
        "type": "note_on",
        "time": 1,
        "note": 64,
        "velocity": 60,
        "channel": 0
      },
      {
        "type": "note_on",
        "time": 0,
        "note": 61,
        "velocity": 60,
        "channel": 0
      },
      {
        "type": "note_on",
        "time": 0,
        "note": 57,
        "velocity": 60,
        "channel": 0
      },
      {
        "type": "note_on",
        "time": 0,
        "note": 52,
        "velocity": 60,
        "channel": 0
      },
      {
        "type": "note_on",
        "time": 0,
        "note": 45,
        "velocity": 60,
        "channel": 0
      },
      {
        "type": "note_on",
        "time": 0,
        "note": 40,
        "velocity": 60,
        "channel": 0
      },
      {
        "type": "note_on",
        "time": 29,
        "note": 64,
        "velocity": 0,
        "channel": 0
      },
      {
        "type": "note_on",
        "time": 0,
        "note": 61,
        "velocity": 0,
        "channel": 0
      },
      {
        "type": "note_on",
        "time": 0,
        "note": 57,
        "velocity": 0,
        "channel": 0
      },
      {
        "type": "note_on",
        "time": 0,
        "note": 52,
        "velocity": 0,
        "channel": 0
      },
      {
        "type": "note_on",
        "time": 0,
        "note": 45,
        "velocity": 0,
        "channel": 0
      },
      {
        "type": "note_on",
        "time": 0,
        "note": 40,
        "velocity": 0,
        "channel": 0
      },
      {
        "type": "note_on",
        "time": 1,
        "note": 64,
        "velocity": 60,
        "channel": 0
      },
      {
        "type": "note_on",
        "time": 0,
        "note": 61,
        "velocity": 60,
        "channel": 0
      },
      {
        "type": "note_on",
        "time": 0,
        "note": 57,
        "velocity": 60,
        "channel": 0
      },
      {
        "type": "note_on",
        "time": 0,
        "note": 52,
        "velocity": 60,
        "channel": 0
      },
      {
        "type": "note_on",
        "time": 0,
        "note": 45,
        "velocity": 60,
        "channel": 0
      },
      {
        "type": "note_on",
        "time": 0,
        "note": 40,
        "velocity": 60,
        "channel": 0
      },
      {
        "type": "note_on",
        "time": 29,
        "note": 64,
        "velocity": 0,
        "channel": 0
      },
      {
        "type": "note_on",
        "time": 0,
        "note": 61,
        "velocity": 0,
        "channel": 0
      },
      {
        "type": "note_on",
        "time": 0,
        "note": 57,
        "velocity": 0,
        "channel": 0
      },
      {
        "type": "note_on",
        "time": 0,
        "note": 52,
        "velocity": 0,
        "channel": 0
      },
      {
        "type": "note_on",
        "time": 0,
        "note": 45,
        "velocity": 0,
        "channel": 0
      },
      {
        "type": "note_on",
        "time": 0,
        "note": 40,
        "velocity": 0,
        "channel": 0
      },
      {
        "type": "note_on",
        "time": 1,
        "note": 64,
        "velocity": 60,
        "channel": 0
      },
      {
        "type": "note_on",
        "time": 0,
        "note": 61,
        "velocity": 60,
        "channel": 0
      },
      {
        "type": "note_on",
        "time": 0,
        "note": 57,
        "velocity": 60,
        "channel": 0
      },
      {
        "type": "note_on",
        "time": 0,
        "note": 52,
        "velocity": 60,
        "channel": 0
      },
      {
        "type": "note_on",
        "time": 0,
        "note": 45,
        "velocity": 60,
        "channel": 0
      },
      {
        "type": "note_on",
        "time": 0,
        "note": 40,
        "velocity": 60,
        "channel": 0
      },
      {
        "type": "note_on",
        "time": 59,
        "note": 64,
        "velocity": 0,
        "channel": 0
      },
      {
        "type": "note_on",
        "time": 0,
        "note": 61,
        "velocity": 0,
        "channel": 0
      },
      {
        "type": "note_on",
        "time": 0,
        "note": 57,
        "velocity": 0,
        "channel": 0
      },
      {
        "type": "note_on",
        "time": 0,
        "note": 52,
        "velocity": 0,
        "channel": 0
      },
      {
        "type": "note_on",
        "time": 0,
        "note": 45,
        "velocity": 0,
        "channel": 0
      },
      {
        "type": "note_on",
        "time": 0,
        "note": 40,
        "velocity": 0,
        "channel": 0
      },
      {
        "type": "note_on",
        "time": 1,
        "note": 64,
        "velocity": 60,
        "channel": 0
      },
      {
        "type": "note_on",
        "time": 0,
        "note": 61,
        "velocity": 60,
        "channel": 0
      },
      {
        "type": "note_on",
        "time": 0,
        "note": 57,
        "velocity": 60,
        "channel": 0
      },
      {
        "type": "note_on",
        "time": 0,
        "note": 52,
        "velocity": 60,
        "channel": 0
      },
      {
        "type": "note_on",
        "time": 0,
        "note": 45,
        "velocity": 60,
        "channel": 0
      },
      {
        "type": "note_on",
        "time": 0,
        "note": 40,
        "velocity": 60,
        "channel": 0
      },
      {
        "type": "note_on",
        "time": 29,
        "note": 64,
        "velocity": 0,
        "channel": 0
      },
      {
        "type": "note_on",
        "time": 0,
        "note": 61,
        "velocity": 0,
        "channel": 0
      },
      {
        "type": "note_on",
        "time": 0,
        "note": 57,
        "velocity": 0,
        "channel": 0
      },
      {
        "type": "note_on",
        "time": 0,
        "note": 52,
        "velocity": 0,
        "channel": 0
      },
      {
        "type": "note_on",
        "time": 0,
        "note": 45,
        "velocity": 0,
        "channel": 0
      },
      {
        "type": "note_on",
        "time": 0,
        "note": 40,
        "velocity": 0,
        "channel": 0
      },
      {
        "type": "note_on",
        "time": 1,
        "note": 64,
        "velocity": 60,
        "channel": 0
      },
      {
        "type": "note_on",
        "time": 0,
        "note": 61,
        "velocity": 60,
        "channel": 0
      },
      {
        "type": "note_on",
        "time": 0,
        "note": 57,
        "velocity": 60,
        "channel": 0
      },
      {
        "type": "note_on",
        "time": 0,
        "note": 52,
        "velocity": 60,
        "channel": 0
      },
      {
        "type": "note_on",
        "time": 0,
        "note": 45,
        "velocity": 60,
        "channel": 0
      },
      {
        "type": "note_on",
        "time": 0,
        "note": 40,
        "velocity": 60,
        "channel": 0
      },
      {
        "type": "note_on",
        "time": 59,
        "note": 64,
        "velocity": 0,
        "channel": 0
      },
      {
        "type": "note_on",
        "time": 0,
        "note": 61,
        "velocity": 0,
        "channel": 0
      },
      {
        "type": "note_on",
        "time": 0,
        "note": 57,
        "velocity": 0,
        "channel": 0
      },
      {
        "type": "note_on",
        "time": 0,
        "note": 52,
        "velocity": 0,
        "channel": 0
      },
      {
        "type": "note_on",
        "time": 0,
        "note": 45,
        "velocity": 0,
        "channel": 0
      },
      {
        "type": "note_on",
        "time": 0,
        "note": 40,
        "velocity": 0,
        "channel": 0
      },
      {
        "type": "note_on",
        "time": 1,
        "note": 40,
        "velocity": 60,
        "channel": 0
      },
      {
        "type": "note_on",
        "time": 0,
        "note": 47,
        "velocity": 60,
        "channel": 0
      },
      {
        "type": "note_on",
        "time": 0,
        "note": 52,
        "velocity": 60,
        "channel": 0
      },
      {
        "type": "note_on",
        "time": 0,
        "note": 56,
        "velocity": 60,
        "channel": 0
      },
      {
        "type": "note_on",
        "time": 0,
        "note": 59,
        "velocity": 60,
        "channel": 0
      },
      {
        "type": "note_on",
        "time": 0,
        "note": 64,
        "velocity": 60,
        "channel": 0
      },
      {
        "type": "note_on",
        "time": 59,
        "note": 40,
        "velocity": 0,
        "channel": 0
      },
      {
        "type": "note_on",
        "time": 0,
        "note": 47,
        "velocity": 0,
        "channel": 0
      },
      {
        "type": "note_on",
        "time": 0,
        "note": 52,
        "velocity": 0,
        "channel": 0
      },
      {
        "type": "note_on",
        "time": 0,
        "note": 56,
        "velocity": 0,
        "channel": 0
      },
      {
        "type": "note_on",
        "time": 0,
        "note": 59,
        "velocity": 0,
        "channel": 0
      },
      {
        "type": "note_on",
        "time": 0,
        "note": 64,
        "velocity": 0,
        "channel": 0
      },
      {
        "type": "note_on",
        "time": 1,
        "note": 64,
        "velocity": 60,
        "channel": 0
      },
      {
        "type": "note_on",
        "time": 0,
        "note": 59,
        "velocity": 60,
        "channel": 0
      },
      {
        "type": "note_on",
        "time": 0,
        "note": 56,
        "velocity": 60,
        "channel": 0
      },
      {
        "type": "note_on",
        "time": 0,
        "note": 52,
        "velocity": 60,
        "channel": 0
      },
      {
        "type": "note_on",
        "time": 0,
        "note": 47,
        "velocity": 60,
        "channel": 0
      },
      {
        "type": "note_on",
        "time": 0,
        "note": 40,
        "velocity": 60,
        "channel": 0
      },
      {
        "type": "note_on",
        "time": 29,
        "note": 64,
        "velocity": 0,
        "channel": 0
      },
      {
        "type": "note_on",
        "time": 0,
        "note": 59,
        "velocity": 0,
        "channel": 0
      },
      {
        "type": "note_on",
        "time": 0,
        "note": 56,
        "velocity": 0,
        "channel": 0
      },
      {
        "type": "note_on",
        "time": 0,
        "note": 52,
        "velocity": 0,
        "channel": 0
      },
      {
        "type": "note_on",
        "time": 0,
        "note": 47,
        "velocity": 0,
        "channel": 0
      },
      {
        "type": "note_on",
        "time": 0,
        "note": 40,
        "velocity": 0,
        "channel": 0
      },
      {
        "type": "note_on",
        "time": 1,
        "note": 64,
        "velocity": 60,
        "channel": 0
      },
      {
        "type": "note_on",
        "time": 0,
        "note": 59,
        "velocity": 60,
        "channel": 0
      },
      {
        "type": "note_on",
        "time": 0,
        "note": 56,
        "velocity": 60,
        "channel": 0
      },
      {
        "type": "note_on",
        "time": 0,
        "note": 52,
        "velocity": 60,
        "channel": 0
      },
      {
        "type": "note_on",
        "time": 0,
        "note": 47,
        "velocity": 60,
        "channel": 0
      },
      {
        "type": "note_on",
        "time": 0,
        "note": 40,
        "velocity": 60,
        "channel": 0
      },
      {
        "type": "note_on",
        "time": 29,
        "note": 64,
        "velocity": 0,
        "channel": 0
      },
      {
        "type": "note_on",
        "time": 0,
        "note": 59,
        "velocity": 0,
        "channel": 0
      },
      {
        "type": "note_on",
        "time": 0,
        "note": 56,
        "velocity": 0,
        "channel": 0
      },
      {
        "type": "note_on",
        "time": 0,
        "note": 52,
        "velocity": 0,
        "channel": 0
      },
      {
        "type": "note_on",
        "time": 0,
        "note": 47,
        "velocity": 0,
        "channel": 0
      },
      {
        "type": "note_on",
        "time": 0,
        "note": 40,
        "velocity": 0,
        "channel": 0
      },
      {
        "type": "note_on",
        "time": 1,
        "note": 64,
        "velocity": 60,
        "channel": 0
      },
      {
        "type": "note_on",
        "time": 0,
        "note": 59,
        "velocity": 60,
        "channel": 0
      },
      {
        "type": "note_on",
        "time": 0,
        "note": 56,
        "velocity": 60,
        "channel": 0
      },
      {
        "type": "note_on",
        "time": 0,
        "note": 52,
        "velocity": 60,
        "channel": 0
      },
      {
        "type": "note_on",
        "time": 0,
        "note": 47,
        "velocity": 60,
        "channel": 0
      },
      {
        "type": "note_on",
        "time": 0,
        "note": 40,
        "velocity": 60,
        "channel": 0
      },
      {
        "type": "note_on",
        "time": 59,
        "note": 64,
        "velocity": 0,
        "channel": 0
      },
      {
        "type": "note_on",
        "time": 0,
        "note": 59,
        "velocity": 0,
        "channel": 0
      },
      {
        "type": "note_on",
        "time": 0,
        "note": 56,
        "velocity": 0,
        "channel": 0
      },
      {
        "type": "note_on",
        "time": 0,
        "note": 52,
        "velocity": 0,
        "channel": 0
      },
      {
        "type": "note_on",
        "time": 0,
        "note": 47,
        "velocity": 0,
        "channel": 0
      },
      {
        "type": "note_on",
        "time": 0,
        "note": 40,
        "velocity": 0,
        "channel": 0
      },
      {
        "type": "note_on",
        "time": 1,
        "note": 64,
        "velocity": 60,
        "channel": 0
      },
      {
        "type": "note_on",
        "time": 0,
        "note": 59,
        "velocity": 60,
        "channel": 0
      },
      {
        "type": "note_on",
        "time": 0,
        "note": 56,
        "velocity": 60,
        "channel": 0
      },
      {
        "type": "note_on",
        "time": 0,
        "note": 52,
        "velocity": 60,
        "channel": 0
      },
      {
        "type": "note_on",
        "time": 0,
        "note": 47,
        "velocity": 60,
        "channel": 0
      },
      {
        "type": "note_on",
        "time": 0,
        "note": 40,
        "velocity": 60,
        "channel": 0
      },
      {
        "type": "note_on",
        "time": 29,
        "note": 64,
        "velocity": 0,
        "channel": 0
      },
      {
        "type": "note_on",
        "time": 0,
        "note": 59,
        "velocity": 0,
        "channel": 0
      },
      {
        "type": "note_on",
        "time": 0,
        "note": 56,
        "velocity": 0,
        "channel": 0
      },
      {
        "type": "note_on",
        "time": 0,
        "note": 52,
        "velocity": 0,
        "channel": 0
      },
      {
        "type": "note_on",
        "time": 0,
        "note": 47,
        "velocity": 0,
        "channel": 0
      },
      {
        "type": "note_on",
        "time": 0,
        "note": 40,
        "velocity": 0,
        "channel": 0
      },
      {
        "type": "note_on",
        "time": 1,
        "note": 64,
        "velocity": 60,
        "channel": 0
      },
      {
        "type": "note_on",
        "time": 0,
        "note": 59,
        "velocity": 60,
        "channel": 0
      },
      {
        "type": "note_on",
        "time": 0,
        "note": 56,
        "velocity": 60,
        "channel": 0
      },
      {
        "type": "note_on",
        "time": 0,
        "note": 52,
        "velocity": 60,
        "channel": 0
      },
      {
        "type": "note_on",
        "time": 0,
        "note": 47,
        "velocity": 60,
        "channel": 0
      },
      {
        "type": "note_on",
        "time": 0,
        "note": 40,
        "velocity": 60,
        "channel": 0
      },
      {
        "type": "note_on",
        "time": 29,
        "note": 64,
        "velocity": 0,
        "channel": 0
      },
      {
        "type": "note_on",
        "time": 0,
        "note": 59,
        "velocity": 0,
        "channel": 0
      },
      {
        "type": "note_on",
        "time": 0,
        "note": 56,
        "velocity": 0,
        "channel": 0
      },
      {
        "type": "note_on",
        "time": 0,
        "note": 52,
        "velocity": 0,
        "channel": 0
      },
      {
        "type": "note_on",
        "time": 0,
        "note": 47,
        "velocity": 0,
        "channel": 0
      },
      {
        "type": "note_on",
        "time": 0,
        "note": 40,
        "velocity": 0,
        "channel": 0
      },
      {
        "type": "note_on",
        "time": 1,
        "note": 64,
        "velocity": 60,
        "channel": 0
      },
      {
        "type": "note_on",
        "time": 0,
        "note": 59,
        "velocity": 60,
        "channel": 0
      },
      {
        "type": "note_on",
        "time": 0,
        "note": 56,
        "velocity": 60,
        "channel": 0
      },
      {
        "type": "note_on",
        "time": 0,
        "note": 52,
        "velocity": 60,
        "channel": 0
      },
      {
        "type": "note_on",
        "time": 0,
        "note": 47,
        "velocity": 60,
        "channel": 0
      },
      {
        "type": "note_on",
        "time": 0,
        "note": 40,
        "velocity": 60,
        "channel": 0
      },
      {
        "type": "note_on",
        "time": 239,
        "note": 64,
        "velocity": 0,
        "channel": 0
      },
      {
        "type": "note_on",
        "time": 0,
        "note": 59,
        "velocity": 0,
        "channel": 0
      },
      {
        "type": "note_on",
        "time": 0,
        "note": 56,
        "velocity": 0,
        "channel": 0
      },
      {
        "type": "note_on",
        "time": 0,
        "note": 52,
        "velocity": 0,
        "channel": 0
      },
      {
        "type": "note_on",
        "time": 0,
        "note": 47,
        "velocity": 0,
        "channel": 0
      },
      {
        "type": "note_on",
        "time": 0,
        "note": 40,
        "velocity": 0,
        "channel": 0
      },
      {
        "type": "note_on",
        "time": 1,
        "note": 43,
        "velocity": 60,
        "channel": 0
      },
      {
        "type": "note_on",
        "time": 0,
        "note": 50,
        "velocity": 60,
        "channel": 0
      },
      {
        "type": "note_on",
        "time": 0,
        "note": 55,
        "velocity": 60,
        "channel": 0
      },
      {
        "type": "note_on",
        "time": 0,
        "note": 59,
        "velocity": 60,
        "channel": 0
      },
      {
        "type": "note_on",
        "time": 0,
        "note": 62,
        "velocity": 60,
        "channel": 0
      },
      {
        "type": "note_on",
        "time": 0,
        "note": 67,
        "velocity": 60,
        "channel": 0
      },
      {
        "type": "note_on",
        "time": 59,
        "note": 43,
        "velocity": 0,
        "channel": 0
      },
      {
        "type": "note_on",
        "time": 0,
        "note": 50,
        "velocity": 0,
        "channel": 0
      },
      {
        "type": "note_on",
        "time": 0,
        "note": 55,
        "velocity": 0,
        "channel": 0
      },
      {
        "type": "note_on",
        "time": 0,
        "note": 59,
        "velocity": 0,
        "channel": 0
      },
      {
        "type": "note_on",
        "time": 0,
        "note": 62,
        "velocity": 0,
        "channel": 0
      },
      {
        "type": "note_on",
        "time": 0,
        "note": 67,
        "velocity": 0,
        "channel": 0
      },
      {
        "type": "note_on",
        "time": 1,
        "note": 67,
        "velocity": 60,
        "channel": 0
      },
      {
        "type": "note_on",
        "time": 0,
        "note": 62,
        "velocity": 60,
        "channel": 0
      },
      {
        "type": "note_on",
        "time": 0,
        "note": 59,
        "velocity": 60,
        "channel": 0
      },
      {
        "type": "note_on",
        "time": 0,
        "note": 55,
        "velocity": 60,
        "channel": 0
      },
      {
        "type": "note_on",
        "time": 0,
        "note": 50,
        "velocity": 60,
        "channel": 0
      },
      {
        "type": "note_on",
        "time": 0,
        "note": 43,
        "velocity": 60,
        "channel": 0
      },
      {
        "type": "note_on",
        "time": 29,
        "note": 67,
        "velocity": 0,
        "channel": 0
      },
      {
        "type": "note_on",
        "time": 0,
        "note": 62,
        "velocity": 0,
        "channel": 0
      },
      {
        "type": "note_on",
        "time": 0,
        "note": 59,
        "velocity": 0,
        "channel": 0
      },
      {
        "type": "note_on",
        "time": 0,
        "note": 55,
        "velocity": 0,
        "channel": 0
      },
      {
        "type": "note_on",
        "time": 0,
        "note": 50,
        "velocity": 0,
        "channel": 0
      },
      {
        "type": "note_on",
        "time": 0,
        "note": 43,
        "velocity": 0,
        "channel": 0
      },
      {
        "type": "note_on",
        "time": 1,
        "note": 67,
        "velocity": 60,
        "channel": 0
      },
      {
        "type": "note_on",
        "time": 0,
        "note": 62,
        "velocity": 60,
        "channel": 0
      },
      {
        "type": "note_on",
        "time": 0,
        "note": 59,
        "velocity": 60,
        "channel": 0
      },
      {
        "type": "note_on",
        "time": 0,
        "note": 55,
        "velocity": 60,
        "channel": 0
      },
      {
        "type": "note_on",
        "time": 0,
        "note": 50,
        "velocity": 60,
        "channel": 0
      },
      {
        "type": "note_on",
        "time": 0,
        "note": 43,
        "velocity": 60,
        "channel": 0
      },
      {
        "type": "note_on",
        "time": 29,
        "note": 67,
        "velocity": 0,
        "channel": 0
      },
      {
        "type": "note_on",
        "time": 0,
        "note": 62,
        "velocity": 0,
        "channel": 0
      },
      {
        "type": "note_on",
        "time": 0,
        "note": 59,
        "velocity": 0,
        "channel": 0
      },
      {
        "type": "note_on",
        "time": 0,
        "note": 55,
        "velocity": 0,
        "channel": 0
      },
      {
        "type": "note_on",
        "time": 0,
        "note": 50,
        "velocity": 0,
        "channel": 0
      },
      {
        "type": "note_on",
        "time": 0,
        "note": 43,
        "velocity": 0,
        "channel": 0
      },
      {
        "type": "note_on",
        "time": 1,
        "note": 67,
        "velocity": 60,
        "channel": 0
      },
      {
        "type": "note_on",
        "time": 0,
        "note": 62,
        "velocity": 60,
        "channel": 0
      },
      {
        "type": "note_on",
        "time": 0,
        "note": 59,
        "velocity": 60,
        "channel": 0
      },
      {
        "type": "note_on",
        "time": 0,
        "note": 55,
        "velocity": 60,
        "channel": 0
      },
      {
        "type": "note_on",
        "time": 0,
        "note": 50,
        "velocity": 60,
        "channel": 0
      },
      {
        "type": "note_on",
        "time": 0,
        "note": 43,
        "velocity": 60,
        "channel": 0
      },
      {
        "type": "note_on",
        "time": 59,
        "note": 67,
        "velocity": 0,
        "channel": 0
      },
      {
        "type": "note_on",
        "time": 0,
        "note": 62,
        "velocity": 0,
        "channel": 0
      },
      {
        "type": "note_on",
        "time": 0,
        "note": 59,
        "velocity": 0,
        "channel": 0
      },
      {
        "type": "note_on",
        "time": 0,
        "note": 55,
        "velocity": 0,
        "channel": 0
      },
      {
        "type": "note_on",
        "time": 0,
        "note": 50,
        "velocity": 0,
        "channel": 0
      },
      {
        "type": "note_on",
        "time": 0,
        "note": 43,
        "velocity": 0,
        "channel": 0
      },
      {
        "type": "note_on",
        "time": 1,
        "note": 67,
        "velocity": 60,
        "channel": 0
      },
      {
        "type": "note_on",
        "time": 0,
        "note": 62,
        "velocity": 60,
        "channel": 0
      },
      {
        "type": "note_on",
        "time": 0,
        "note": 59,
        "velocity": 60,
        "channel": 0
      },
      {
        "type": "note_on",
        "time": 0,
        "note": 55,
        "velocity": 60,
        "channel": 0
      },
      {
        "type": "note_on",
        "time": 0,
        "note": 50,
        "velocity": 60,
        "channel": 0
      },
      {
        "type": "note_on",
        "time": 0,
        "note": 43,
        "velocity": 60,
        "channel": 0
      },
      {
        "type": "note_on",
        "time": 29,
        "note": 67,
        "velocity": 0,
        "channel": 0
      },
      {
        "type": "note_on",
        "time": 0,
        "note": 62,
        "velocity": 0,
        "channel": 0
      },
      {
        "type": "note_on",
        "time": 0,
        "note": 59,
        "velocity": 0,
        "channel": 0
      },
      {
        "type": "note_on",
        "time": 0,
        "note": 55,
        "velocity": 0,
        "channel": 0
      },
      {
        "type": "note_on",
        "time": 0,
        "note": 50,
        "velocity": 0,
        "channel": 0
      },
      {
        "type": "note_on",
        "time": 0,
        "note": 43,
        "velocity": 0,
        "channel": 0
      },
      {
        "type": "note_on",
        "time": 1,
        "note": 67,
        "velocity": 60,
        "channel": 0
      },
      {
        "type": "note_on",
        "time": 0,
        "note": 62,
        "velocity": 60,
        "channel": 0
      },
      {
        "type": "note_on",
        "time": 0,
        "note": 59,
        "velocity": 60,
        "channel": 0
      },
      {
        "type": "note_on",
        "time": 0,
        "note": 55,
        "velocity": 60,
        "channel": 0
      },
      {
        "type": "note_on",
        "time": 0,
        "note": 50,
        "velocity": 60,
        "channel": 0
      },
      {
        "type": "note_on",
        "time": 0,
        "note": 43,
        "velocity": 60,
        "channel": 0
      },
      {
        "type": "note_on",
        "time": 29,
        "note": 67,
        "velocity": 0,
        "channel": 0
      },
      {
        "type": "note_on",
        "time": 0,
        "note": 62,
        "velocity": 0,
        "channel": 0
      },
      {
        "type": "note_on",
        "time": 0,
        "note": 59,
        "velocity": 0,
        "channel": 0
      },
      {
        "type": "note_on",
        "time": 0,
        "note": 55,
        "velocity": 0,
        "channel": 0
      },
      {
        "type": "note_on",
        "time": 0,
        "note": 50,
        "velocity": 0,
        "channel": 0
      },
      {
        "type": "note_on",
        "time": 0,
        "note": 43,
        "velocity": 0,
        "channel": 0
      },
      {
        "type": "note_on",
        "time": 1,
        "note": 67,
        "velocity": 60,
        "channel": 0
      },
      {
        "type": "note_on",
        "time": 0,
        "note": 62,
        "velocity": 60,
        "channel": 0
      },
      {
        "type": "note_on",
        "time": 0,
        "note": 59,
        "velocity": 60,
        "channel": 0
      },
      {
        "type": "note_on",
        "time": 0,
        "note": 55,
        "velocity": 60,
        "channel": 0
      },
      {
        "type": "note_on",
        "time": 0,
        "note": 50,
        "velocity": 60,
        "channel": 0
      },
      {
        "type": "note_on",
        "time": 0,
        "note": 43,
        "velocity": 60,
        "channel": 0
      },
      {
        "type": "note_on",
        "time": 29,
        "note": 67,
        "velocity": 0,
        "channel": 0
      },
      {
        "type": "note_on",
        "time": 0,
        "note": 62,
        "velocity": 0,
        "channel": 0
      },
      {
        "type": "note_on",
        "time": 0,
        "note": 59,
        "velocity": 0,
        "channel": 0
      },
      {
        "type": "note_on",
        "time": 0,
        "note": 55,
        "velocity": 0,
        "channel": 0
      },
      {
        "type": "note_on",
        "time": 0,
        "note": 50,
        "velocity": 0,
        "channel": 0
      },
      {
        "type": "note_on",
        "time": 0,
        "note": 43,
        "velocity": 0,
        "channel": 0
      },
      {
        "type": "note_on",
        "time": 1,
        "note": 67,
        "velocity": 60,
        "channel": 0
      },
      {
        "type": "note_on",
        "time": 0,
        "note": 62,
        "velocity": 60,
        "channel": 0
      },
      {
        "type": "note_on",
        "time": 0,
        "note": 59,
        "velocity": 60,
        "channel": 0
      },
      {
        "type": "note_on",
        "time": 0,
        "note": 55,
        "velocity": 60,
        "channel": 0
      },
      {
        "type": "note_on",
        "time": 0,
        "note": 50,
        "velocity": 60,
        "channel": 0
      },
      {
        "type": "note_on",
        "time": 0,
        "note": 43,
        "velocity": 60,
        "channel": 0
      },
      {
        "type": "note_on",
        "time": 29,
        "note": 67,
        "velocity": 0,
        "channel": 0
      },
      {
        "type": "note_on",
        "time": 0,
        "note": 62,
        "velocity": 0,
        "channel": 0
      },
      {
        "type": "note_on",
        "time": 0,
        "note": 59,
        "velocity": 0,
        "channel": 0
      },
      {
        "type": "note_on",
        "time": 0,
        "note": 55,
        "velocity": 0,
        "channel": 0
      },
      {
        "type": "note_on",
        "time": 0,
        "note": 50,
        "velocity": 0,
        "channel": 0
      },
      {
        "type": "note_on",
        "time": 0,
        "note": 43,
        "velocity": 0,
        "channel": 0
      },
      {
        "type": "note_on",
        "time": 1,
        "note": 67,
        "velocity": 60,
        "channel": 0
      },
      {
        "type": "note_on",
        "time": 0,
        "note": 62,
        "velocity": 60,
        "channel": 0
      },
      {
        "type": "note_on",
        "time": 0,
        "note": 59,
        "velocity": 60,
        "channel": 0
      },
      {
        "type": "note_on",
        "time": 0,
        "note": 55,
        "velocity": 60,
        "channel": 0
      },
      {
        "type": "note_on",
        "time": 0,
        "note": 50,
        "velocity": 60,
        "channel": 0
      },
      {
        "type": "note_on",
        "time": 0,
        "note": 43,
        "velocity": 60,
        "channel": 0
      },
      {
        "type": "note_on",
        "time": 29,
        "note": 67,
        "velocity": 0,
        "channel": 0
      },
      {
        "type": "note_on",
        "time": 0,
        "note": 62,
        "velocity": 0,
        "channel": 0
      },
      {
        "type": "note_on",
        "time": 0,
        "note": 59,
        "velocity": 0,
        "channel": 0
      },
      {
        "type": "note_on",
        "time": 0,
        "note": 55,
        "velocity": 0,
        "channel": 0
      },
      {
        "type": "note_on",
        "time": 0,
        "note": 50,
        "velocity": 0,
        "channel": 0
      },
      {
        "type": "note_on",
        "time": 0,
        "note": 43,
        "velocity": 0,
        "channel": 0
      },
      {
        "type": "note_on",
        "time": 1,
        "note": 67,
        "velocity": 60,
        "channel": 0
      },
      {
        "type": "note_on",
        "time": 0,
        "note": 62,
        "velocity": 60,
        "channel": 0
      },
      {
        "type": "note_on",
        "time": 0,
        "note": 59,
        "velocity": 60,
        "channel": 0
      },
      {
        "type": "note_on",
        "time": 0,
        "note": 55,
        "velocity": 60,
        "channel": 0
      },
      {
        "type": "note_on",
        "time": 0,
        "note": 50,
        "velocity": 60,
        "channel": 0
      },
      {
        "type": "note_on",
        "time": 0,
        "note": 43,
        "velocity": 60,
        "channel": 0
      },
      {
        "type": "note_on",
        "time": 59,
        "note": 67,
        "velocity": 0,
        "channel": 0
      },
      {
        "type": "note_on",
        "time": 0,
        "note": 62,
        "velocity": 0,
        "channel": 0
      },
      {
        "type": "note_on",
        "time": 0,
        "note": 59,
        "velocity": 0,
        "channel": 0
      },
      {
        "type": "note_on",
        "time": 0,
        "note": 55,
        "velocity": 0,
        "channel": 0
      },
      {
        "type": "note_on",
        "time": 0,
        "note": 50,
        "velocity": 0,
        "channel": 0
      },
      {
        "type": "note_on",
        "time": 0,
        "note": 43,
        "velocity": 0,
        "channel": 0
      },
      {
        "type": "note_on",
        "time": 1,
        "note": 67,
        "velocity": 60,
        "channel": 0
      },
      {
        "type": "note_on",
        "time": 0,
        "note": 62,
        "velocity": 60,
        "channel": 0
      },
      {
        "type": "note_on",
        "time": 0,
        "note": 59,
        "velocity": 60,
        "channel": 0
      },
      {
        "type": "note_on",
        "time": 0,
        "note": 55,
        "velocity": 60,
        "channel": 0
      },
      {
        "type": "note_on",
        "time": 0,
        "note": 50,
        "velocity": 60,
        "channel": 0
      },
      {
        "type": "note_on",
        "time": 0,
        "note": 43,
        "velocity": 60,
        "channel": 0
      },
      {
        "type": "note_on",
        "time": 29,
        "note": 67,
        "velocity": 0,
        "channel": 0
      },
      {
        "type": "note_on",
        "time": 0,
        "note": 62,
        "velocity": 0,
        "channel": 0
      },
      {
        "type": "note_on",
        "time": 0,
        "note": 59,
        "velocity": 0,
        "channel": 0
      },
      {
        "type": "note_on",
        "time": 0,
        "note": 55,
        "velocity": 0,
        "channel": 0
      },
      {
        "type": "note_on",
        "time": 0,
        "note": 50,
        "velocity": 0,
        "channel": 0
      },
      {
        "type": "note_on",
        "time": 0,
        "note": 43,
        "velocity": 0,
        "channel": 0
      },
      {
        "type": "note_on",
        "time": 1,
        "note": 67,
        "velocity": 60,
        "channel": 0
      },
      {
        "type": "note_on",
        "time": 0,
        "note": 62,
        "velocity": 60,
        "channel": 0
      },
      {
        "type": "note_on",
        "time": 0,
        "note": 59,
        "velocity": 60,
        "channel": 0
      },
      {
        "type": "note_on",
        "time": 0,
        "note": 55,
        "velocity": 60,
        "channel": 0
      },
      {
        "type": "note_on",
        "time": 0,
        "note": 50,
        "velocity": 60,
        "channel": 0
      },
      {
        "type": "note_on",
        "time": 0,
        "note": 43,
        "velocity": 60,
        "channel": 0
      },
      {
        "type": "note_on",
        "time": 59,
        "note": 67,
        "velocity": 0,
        "channel": 0
      },
      {
        "type": "note_on",
        "time": 0,
        "note": 62,
        "velocity": 0,
        "channel": 0
      },
      {
        "type": "note_on",
        "time": 0,
        "note": 59,
        "velocity": 0,
        "channel": 0
      },
      {
        "type": "note_on",
        "time": 0,
        "note": 55,
        "velocity": 0,
        "channel": 0
      },
      {
        "type": "note_on",
        "time": 0,
        "note": 50,
        "velocity": 0,
        "channel": 0
      },
      {
        "type": "note_on",
        "time": 0,
        "note": 43,
        "velocity": 0,
        "channel": 0
      },
      {
        "type": "note_on",
        "time": 1,
        "note": 45,
        "velocity": 60,
        "channel": 0
      },
      {
        "type": "note_on",
        "time": 0,
        "note": 50,
        "velocity": 60,
        "channel": 0
      },
      {
        "type": "note_on",
        "time": 0,
        "note": 57,
        "velocity": 60,
        "channel": 0
      },
      {
        "type": "note_on",
        "time": 0,
        "note": 62,
        "velocity": 60,
        "channel": 0
      },
      {
        "type": "note_on",
        "time": 0,
        "note": 66,
        "velocity": 60,
        "channel": 0
      },
      {
        "type": "note_on",
        "time": 0,
        "note": 69,
        "velocity": 60,
        "channel": 0
      },
      {
        "type": "note_on",
        "time": 59,
        "note": 45,
        "velocity": 0,
        "channel": 0
      },
      {
        "type": "note_on",
        "time": 0,
        "note": 50,
        "velocity": 0,
        "channel": 0
      },
      {
        "type": "note_on",
        "time": 0,
        "note": 57,
        "velocity": 0,
        "channel": 0
      },
      {
        "type": "note_on",
        "time": 0,
        "note": 62,
        "velocity": 0,
        "channel": 0
      },
      {
        "type": "note_on",
        "time": 0,
        "note": 66,
        "velocity": 0,
        "channel": 0
      },
      {
        "type": "note_on",
        "time": 0,
        "note": 69,
        "velocity": 0,
        "channel": 0
      },
      {
        "type": "note_on",
        "time": 1,
        "note": 69,
        "velocity": 60,
        "channel": 0
      },
      {
        "type": "note_on",
        "time": 0,
        "note": 66,
        "velocity": 60,
        "channel": 0
      },
      {
        "type": "note_on",
        "time": 0,
        "note": 62,
        "velocity": 60,
        "channel": 0
      },
      {
        "type": "note_on",
        "time": 0,
        "note": 57,
        "velocity": 60,
        "channel": 0
      },
      {
        "type": "note_on",
        "time": 0,
        "note": 50,
        "velocity": 60,
        "channel": 0
      },
      {
        "type": "note_on",
        "time": 0,
        "note": 45,
        "velocity": 60,
        "channel": 0
      },
      {
        "type": "note_on",
        "time": 29,
        "note": 69,
        "velocity": 0,
        "channel": 0
      },
      {
        "type": "note_on",
        "time": 0,
        "note": 66,
        "velocity": 0,
        "channel": 0
      },
      {
        "type": "note_on",
        "time": 0,
        "note": 62,
        "velocity": 0,
        "channel": 0
      },
      {
        "type": "note_on",
        "time": 0,
        "note": 57,
        "velocity": 0,
        "channel": 0
      },
      {
        "type": "note_on",
        "time": 0,
        "note": 50,
        "velocity": 0,
        "channel": 0
      },
      {
        "type": "note_on",
        "time": 0,
        "note": 45,
        "velocity": 0,
        "channel": 0
      },
      {
        "type": "note_on",
        "time": 1,
        "note": 69,
        "velocity": 60,
        "channel": 0
      },
      {
        "type": "note_on",
        "time": 0,
        "note": 66,
        "velocity": 60,
        "channel": 0
      },
      {
        "type": "note_on",
        "time": 0,
        "note": 62,
        "velocity": 60,
        "channel": 0
      },
      {
        "type": "note_on",
        "time": 0,
        "note": 57,
        "velocity": 60,
        "channel": 0
      },
      {
        "type": "note_on",
        "time": 0,
        "note": 50,
        "velocity": 60,
        "channel": 0
      },
      {
        "type": "note_on",
        "time": 0,
        "note": 45,
        "velocity": 60,
        "channel": 0
      },
      {
        "type": "note_on",
        "time": 29,
        "note": 69,
        "velocity": 0,
        "channel": 0
      },
      {
        "type": "note_on",
        "time": 0,
        "note": 66,
        "velocity": 0,
        "channel": 0
      },
      {
        "type": "note_on",
        "time": 0,
        "note": 62,
        "velocity": 0,
        "channel": 0
      },
      {
        "type": "note_on",
        "time": 0,
        "note": 57,
        "velocity": 0,
        "channel": 0
      },
      {
        "type": "note_on",
        "time": 0,
        "note": 50,
        "velocity": 0,
        "channel": 0
      },
      {
        "type": "note_on",
        "time": 0,
        "note": 45,
        "velocity": 0,
        "channel": 0
      },
      {
        "type": "note_on",
        "time": 1,
        "note": 69,
        "velocity": 60,
        "channel": 0
      },
      {
        "type": "note_on",
        "time": 0,
        "note": 66,
        "velocity": 60,
        "channel": 0
      },
      {
        "type": "note_on",
        "time": 0,
        "note": 62,
        "velocity": 60,
        "channel": 0
      },
      {
        "type": "note_on",
        "time": 0,
        "note": 57,
        "velocity": 60,
        "channel": 0
      },
      {
        "type": "note_on",
        "time": 0,
        "note": 50,
        "velocity": 60,
        "channel": 0
      },
      {
        "type": "note_on",
        "time": 0,
        "note": 45,
        "velocity": 60,
        "channel": 0
      },
      {
        "type": "note_on",
        "time": 29,
        "note": 69,
        "velocity": 0,
        "channel": 0
      },
      {
        "type": "note_on",
        "time": 0,
        "note": 66,
        "velocity": 0,
        "channel": 0
      },
      {
        "type": "note_on",
        "time": 0,
        "note": 62,
        "velocity": 0,
        "channel": 0
      },
      {
        "type": "note_on",
        "time": 0,
        "note": 57,
        "velocity": 0,
        "channel": 0
      },
      {
        "type": "note_on",
        "time": 0,
        "note": 50,
        "velocity": 0,
        "channel": 0
      },
      {
        "type": "note_on",
        "time": 0,
        "note": 45,
        "velocity": 0,
        "channel": 0
      },
      {
        "type": "note_on",
        "time": 1,
        "note": 69,
        "velocity": 60,
        "channel": 0
      },
      {
        "type": "note_on",
        "time": 0,
        "note": 66,
        "velocity": 60,
        "channel": 0
      },
      {
        "type": "note_on",
        "time": 0,
        "note": 62,
        "velocity": 60,
        "channel": 0
      },
      {
        "type": "note_on",
        "time": 0,
        "note": 57,
        "velocity": 60,
        "channel": 0
      },
      {
        "type": "note_on",
        "time": 0,
        "note": 50,
        "velocity": 60,
        "channel": 0
      },
      {
        "type": "note_on",
        "time": 0,
        "note": 45,
        "velocity": 60,
        "channel": 0
      },
      {
        "type": "note_on",
        "time": 59,
        "note": 69,
        "velocity": 0,
        "channel": 0
      },
      {
        "type": "note_on",
        "time": 0,
        "note": 66,
        "velocity": 0,
        "channel": 0
      },
      {
        "type": "note_on",
        "time": 0,
        "note": 62,
        "velocity": 0,
        "channel": 0
      },
      {
        "type": "note_on",
        "time": 0,
        "note": 57,
        "velocity": 0,
        "channel": 0
      },
      {
        "type": "note_on",
        "time": 0,
        "note": 50,
        "velocity": 0,
        "channel": 0
      },
      {
        "type": "note_on",
        "time": 0,
        "note": 45,
        "velocity": 0,
        "channel": 0
      },
      {
        "type": "note_on",
        "time": 1,
        "note": 69,
        "velocity": 60,
        "channel": 0
      },
      {
        "type": "note_on",
        "time": 0,
        "note": 66,
        "velocity": 60,
        "channel": 0
      },
      {
        "type": "note_on",
        "time": 0,
        "note": 62,
        "velocity": 60,
        "channel": 0
      },
      {
        "type": "note_on",
        "time": 0,
        "note": 57,
        "velocity": 60,
        "channel": 0
      },
      {
        "type": "note_on",
        "time": 0,
        "note": 50,
        "velocity": 60,
        "channel": 0
      },
      {
        "type": "note_on",
        "time": 0,
        "note": 45,
        "velocity": 60,
        "channel": 0
      },
      {
        "type": "note_on",
        "time": 29,
        "note": 69,
        "velocity": 0,
        "channel": 0
      },
      {
        "type": "note_on",
        "time": 0,
        "note": 66,
        "velocity": 0,
        "channel": 0
      },
      {
        "type": "note_on",
        "time": 0,
        "note": 62,
        "velocity": 0,
        "channel": 0
      },
      {
        "type": "note_on",
        "time": 0,
        "note": 57,
        "velocity": 0,
        "channel": 0
      },
      {
        "type": "note_on",
        "time": 0,
        "note": 50,
        "velocity": 0,
        "channel": 0
      },
      {
        "type": "note_on",
        "time": 0,
        "note": 45,
        "velocity": 0,
        "channel": 0
      },
      {
        "type": "note_on",
        "time": 1,
        "note": 69,
        "velocity": 60,
        "channel": 0
      },
      {
        "type": "note_on",
        "time": 0,
        "note": 66,
        "velocity": 60,
        "channel": 0
      },
      {
        "type": "note_on",
        "time": 0,
        "note": 62,
        "velocity": 60,
        "channel": 0
      },
      {
        "type": "note_on",
        "time": 0,
        "note": 57,
        "velocity": 60,
        "channel": 0
      },
      {
        "type": "note_on",
        "time": 0,
        "note": 50,
        "velocity": 60,
        "channel": 0
      },
      {
        "type": "note_on",
        "time": 0,
        "note": 45,
        "velocity": 60,
        "channel": 0
      },
      {
        "type": "note_on",
        "time": 239,
        "note": 69,
        "velocity": 0,
        "channel": 0
      },
      {
        "type": "note_on",
        "time": 0,
        "note": 66,
        "velocity": 0,
        "channel": 0
      },
      {
        "type": "note_on",
        "time": 0,
        "note": 62,
        "velocity": 0,
        "channel": 0
      },
      {
        "type": "note_on",
        "time": 0,
        "note": 57,
        "velocity": 0,
        "channel": 0
      },
      {
        "type": "note_on",
        "time": 0,
        "note": 50,
        "velocity": 0,
        "channel": 0
      },
      {
        "type": "note_on",
        "time": 0,
        "note": 45,
        "velocity": 0,
        "channel": 0
      },
      {
        "type": "note_on",
        "time": 1,
        "note": 40,
        "velocity": 60,
        "channel": 0
      },
      {
        "type": "note_on",
        "time": 0,
        "note": 47,
        "velocity": 60,
        "channel": 0
      },
      {
        "type": "note_on",
        "time": 0,
        "note": 52,
        "velocity": 60,
        "channel": 0
      },
      {
        "type": "note_on",
        "time": 0,
        "note": 55,
        "velocity": 60,
        "channel": 0
      },
      {
        "type": "note_on",
        "time": 0,
        "note": 59,
        "velocity": 60,
        "channel": 0
      },
      {
        "type": "note_on",
        "time": 0,
        "note": 64,
        "velocity": 60,
        "channel": 0
      },
      {
        "type": "note_on",
        "time": 59,
        "note": 40,
        "velocity": 0,
        "channel": 0
      },
      {
        "type": "note_on",
        "time": 0,
        "note": 47,
        "velocity": 0,
        "channel": 0
      },
      {
        "type": "note_on",
        "time": 0,
        "note": 52,
        "velocity": 0,
        "channel": 0
      },
      {
        "type": "note_on",
        "time": 0,
        "note": 55,
        "velocity": 0,
        "channel": 0
      },
      {
        "type": "note_on",
        "time": 0,
        "note": 59,
        "velocity": 0,
        "channel": 0
      },
      {
        "type": "note_on",
        "time": 0,
        "note": 64,
        "velocity": 0,
        "channel": 0
      },
      {
        "type": "note_on",
        "time": 1,
        "note": 64,
        "velocity": 60,
        "channel": 0
      },
      {
        "type": "note_on",
        "time": 0,
        "note": 59,
        "velocity": 60,
        "channel": 0
      },
      {
        "type": "note_on",
        "time": 0,
        "note": 55,
        "velocity": 60,
        "channel": 0
      },
      {
        "type": "note_on",
        "time": 0,
        "note": 52,
        "velocity": 60,
        "channel": 0
      },
      {
        "type": "note_on",
        "time": 0,
        "note": 47,
        "velocity": 60,
        "channel": 0
      },
      {
        "type": "note_on",
        "time": 0,
        "note": 40,
        "velocity": 60,
        "channel": 0
      },
      {
        "type": "note_on",
        "time": 29,
        "note": 64,
        "velocity": 0,
        "channel": 0
      },
      {
        "type": "note_on",
        "time": 0,
        "note": 59,
        "velocity": 0,
        "channel": 0
      },
      {
        "type": "note_on",
        "time": 0,
        "note": 55,
        "velocity": 0,
        "channel": 0
      },
      {
        "type": "note_on",
        "time": 0,
        "note": 52,
        "velocity": 0,
        "channel": 0
      },
      {
        "type": "note_on",
        "time": 0,
        "note": 47,
        "velocity": 0,
        "channel": 0
      },
      {
        "type": "note_on",
        "time": 0,
        "note": 40,
        "velocity": 0,
        "channel": 0
      },
      {
        "type": "note_on",
        "time": 1,
        "note": 64,
        "velocity": 60,
        "channel": 0
      },
      {
        "type": "note_on",
        "time": 0,
        "note": 59,
        "velocity": 60,
        "channel": 0
      },
      {
        "type": "note_on",
        "time": 0,
        "note": 55,
        "velocity": 60,
        "channel": 0
      },
      {
        "type": "note_on",
        "time": 0,
        "note": 52,
        "velocity": 60,
        "channel": 0
      },
      {
        "type": "note_on",
        "time": 0,
        "note": 47,
        "velocity": 60,
        "channel": 0
      },
      {
        "type": "note_on",
        "time": 0,
        "note": 40,
        "velocity": 60,
        "channel": 0
      },
      {
        "type": "note_on",
        "time": 29,
        "note": 64,
        "velocity": 0,
        "channel": 0
      },
      {
        "type": "note_on",
        "time": 0,
        "note": 59,
        "velocity": 0,
        "channel": 0
      },
      {
        "type": "note_on",
        "time": 0,
        "note": 55,
        "velocity": 0,
        "channel": 0
      },
      {
        "type": "note_on",
        "time": 0,
        "note": 52,
        "velocity": 0,
        "channel": 0
      },
      {
        "type": "note_on",
        "time": 0,
        "note": 47,
        "velocity": 0,
        "channel": 0
      },
      {
        "type": "note_on",
        "time": 0,
        "note": 40,
        "velocity": 0,
        "channel": 0
      },
      {
        "type": "note_on",
        "time": 1,
        "note": 64,
        "velocity": 60,
        "channel": 0
      },
      {
        "type": "note_on",
        "time": 0,
        "note": 59,
        "velocity": 60,
        "channel": 0
      },
      {
        "type": "note_on",
        "time": 0,
        "note": 55,
        "velocity": 60,
        "channel": 0
      },
      {
        "type": "note_on",
        "time": 0,
        "note": 52,
        "velocity": 60,
        "channel": 0
      },
      {
        "type": "note_on",
        "time": 0,
        "note": 47,
        "velocity": 60,
        "channel": 0
      },
      {
        "type": "note_on",
        "time": 0,
        "note": 40,
        "velocity": 60,
        "channel": 0
      },
      {
        "type": "note_on",
        "time": 29,
        "note": 64,
        "velocity": 0,
        "channel": 0
      },
      {
        "type": "note_on",
        "time": 0,
        "note": 59,
        "velocity": 0,
        "channel": 0
      },
      {
        "type": "note_on",
        "time": 0,
        "note": 55,
        "velocity": 0,
        "channel": 0
      },
      {
        "type": "note_on",
        "time": 0,
        "note": 52,
        "velocity": 0,
        "channel": 0
      },
      {
        "type": "note_on",
        "time": 0,
        "note": 47,
        "velocity": 0,
        "channel": 0
      },
      {
        "type": "note_on",
        "time": 0,
        "note": 40,
        "velocity": 0,
        "channel": 0
      },
      {
        "type": "note_on",
        "time": 1,
        "note": 64,
        "velocity": 60,
        "channel": 0
      },
      {
        "type": "note_on",
        "time": 0,
        "note": 59,
        "velocity": 60,
        "channel": 0
      },
      {
        "type": "note_on",
        "time": 0,
        "note": 55,
        "velocity": 60,
        "channel": 0
      },
      {
        "type": "note_on",
        "time": 0,
        "note": 52,
        "velocity": 60,
        "channel": 0
      },
      {
        "type": "note_on",
        "time": 0,
        "note": 47,
        "velocity": 60,
        "channel": 0
      },
      {
        "type": "note_on",
        "time": 0,
        "note": 40,
        "velocity": 60,
        "channel": 0
      },
      {
        "type": "note_on",
        "time": 29,
        "note": 64,
        "velocity": 0,
        "channel": 0
      },
      {
        "type": "note_on",
        "time": 0,
        "note": 59,
        "velocity": 0,
        "channel": 0
      },
      {
        "type": "note_on",
        "time": 0,
        "note": 55,
        "velocity": 0,
        "channel": 0
      },
      {
        "type": "note_on",
        "time": 0,
        "note": 52,
        "velocity": 0,
        "channel": 0
      },
      {
        "type": "note_on",
        "time": 0,
        "note": 47,
        "velocity": 0,
        "channel": 0
      },
      {
        "type": "note_on",
        "time": 0,
        "note": 40,
        "velocity": 0,
        "channel": 0
      },
      {
        "type": "note_on",
        "time": 1,
        "note": 64,
        "velocity": 60,
        "channel": 0
      },
      {
        "type": "note_on",
        "time": 0,
        "note": 59,
        "velocity": 60,
        "channel": 0
      },
      {
        "type": "note_on",
        "time": 0,
        "note": 55,
        "velocity": 60,
        "channel": 0
      },
      {
        "type": "note_on",
        "time": 0,
        "note": 52,
        "velocity": 60,
        "channel": 0
      },
      {
        "type": "note_on",
        "time": 0,
        "note": 47,
        "velocity": 60,
        "channel": 0
      },
      {
        "type": "note_on",
        "time": 0,
        "note": 40,
        "velocity": 60,
        "channel": 0
      },
      {
        "type": "note_on",
        "time": 59,
        "note": 64,
        "velocity": 0,
        "channel": 0
      },
      {
        "type": "note_on",
        "time": 0,
        "note": 59,
        "velocity": 0,
        "channel": 0
      },
      {
        "type": "note_on",
        "time": 0,
        "note": 55,
        "velocity": 0,
        "channel": 0
      },
      {
        "type": "note_on",
        "time": 0,
        "note": 52,
        "velocity": 0,
        "channel": 0
      },
      {
        "type": "note_on",
        "time": 0,
        "note": 47,
        "velocity": 0,
        "channel": 0
      },
      {
        "type": "note_on",
        "time": 0,
        "note": 40,
        "velocity": 0,
        "channel": 0
      },
      {
        "type": "note_on",
        "time": 1,
        "note": 64,
        "velocity": 60,
        "channel": 0
      },
      {
        "type": "note_on",
        "time": 0,
        "note": 59,
        "velocity": 60,
        "channel": 0
      },
      {
        "type": "note_on",
        "time": 0,
        "note": 55,
        "velocity": 60,
        "channel": 0
      },
      {
        "type": "note_on",
        "time": 0,
        "note": 52,
        "velocity": 60,
        "channel": 0
      },
      {
        "type": "note_on",
        "time": 0,
        "note": 47,
        "velocity": 60,
        "channel": 0
      },
      {
        "type": "note_on",
        "time": 0,
        "note": 40,
        "velocity": 60,
        "channel": 0
      },
      {
        "type": "note_on",
        "time": 59,
        "note": 64,
        "velocity": 0,
        "channel": 0
      },
      {
        "type": "note_on",
        "time": 0,
        "note": 59,
        "velocity": 0,
        "channel": 0
      },
      {
        "type": "note_on",
        "time": 0,
        "note": 55,
        "velocity": 0,
        "channel": 0
      },
      {
        "type": "note_on",
        "time": 0,
        "note": 52,
        "velocity": 0,
        "channel": 0
      },
      {
        "type": "note_on",
        "time": 0,
        "note": 47,
        "velocity": 0,
        "channel": 0
      },
      {
        "type": "note_on",
        "time": 0,
        "note": 40,
        "velocity": 0,
        "channel": 0
      },
      {
        "type": "note_on",
        "time": 1,
        "note": 64,
        "velocity": 60,
        "channel": 0
      },
      {
        "type": "note_on",
        "time": 0,
        "note": 59,
        "velocity": 60,
        "channel": 0
      },
      {
        "type": "note_on",
        "time": 0,
        "note": 55,
        "velocity": 60,
        "channel": 0
      },
      {
        "type": "note_on",
        "time": 0,
        "note": 52,
        "velocity": 60,
        "channel": 0
      },
      {
        "type": "note_on",
        "time": 0,
        "note": 47,
        "velocity": 60,
        "channel": 0
      },
      {
        "type": "note_on",
        "time": 0,
        "note": 40,
        "velocity": 60,
        "channel": 0
      },
      {
        "type": "note_on",
        "time": 59,
        "note": 64,
        "velocity": 0,
        "channel": 0
      },
      {
        "type": "note_on",
        "time": 0,
        "note": 59,
        "velocity": 0,
        "channel": 0
      },
      {
        "type": "note_on",
        "time": 0,
        "note": 55,
        "velocity": 0,
        "channel": 0
      },
      {
        "type": "note_on",
        "time": 0,
        "note": 52,
        "velocity": 0,
        "channel": 0
      },
      {
        "type": "note_on",
        "time": 0,
        "note": 47,
        "velocity": 0,
        "channel": 0
      },
      {
        "type": "note_on",
        "time": 0,
        "note": 40,
        "velocity": 0,
        "channel": 0
      },
      {
        "type": "note_on",
        "time": 1,
        "note": 64,
        "velocity": 60,
        "channel": 0
      },
      {
        "type": "note_on",
        "time": 0,
        "note": 59,
        "velocity": 60,
        "channel": 0
      },
      {
        "type": "note_on",
        "time": 0,
        "note": 55,
        "velocity": 60,
        "channel": 0
      },
      {
        "type": "note_on",
        "time": 0,
        "note": 52,
        "velocity": 60,
        "channel": 0
      },
      {
        "type": "note_on",
        "time": 0,
        "note": 47,
        "velocity": 60,
        "channel": 0
      },
      {
        "type": "note_on",
        "time": 0,
        "note": 40,
        "velocity": 60,
        "channel": 0
      },
      {
        "type": "note_on",
        "time": 29,
        "note": 64,
        "velocity": 0,
        "channel": 0
      },
      {
        "type": "note_on",
        "time": 0,
        "note": 59,
        "velocity": 0,
        "channel": 0
      },
      {
        "type": "note_on",
        "time": 0,
        "note": 55,
        "velocity": 0,
        "channel": 0
      },
      {
        "type": "note_on",
        "time": 0,
        "note": 52,
        "velocity": 0,
        "channel": 0
      },
      {
        "type": "note_on",
        "time": 0,
        "note": 47,
        "velocity": 0,
        "channel": 0
      },
      {
        "type": "note_on",
        "time": 0,
        "note": 40,
        "velocity": 0,
        "channel": 0
      },
      {
        "type": "note_on",
        "time": 1,
        "note": 64,
        "velocity": 60,
        "channel": 0
      },
      {
        "type": "note_on",
        "time": 0,
        "note": 59,
        "velocity": 60,
        "channel": 0
      },
      {
        "type": "note_on",
        "time": 0,
        "note": 55,
        "velocity": 60,
        "channel": 0
      },
      {
        "type": "note_on",
        "time": 0,
        "note": 52,
        "velocity": 60,
        "channel": 0
      },
      {
        "type": "note_on",
        "time": 0,
        "note": 47,
        "velocity": 60,
        "channel": 0
      },
      {
        "type": "note_on",
        "time": 0,
        "note": 40,
        "velocity": 60,
        "channel": 0
      },
      {
        "type": "note_on",
        "time": 29,
        "note": 64,
        "velocity": 0,
        "channel": 0
      },
      {
        "type": "note_on",
        "time": 0,
        "note": 59,
        "velocity": 0,
        "channel": 0
      },
      {
        "type": "note_on",
        "time": 0,
        "note": 55,
        "velocity": 0,
        "channel": 0
      },
      {
        "type": "note_on",
        "time": 0,
        "note": 52,
        "velocity": 0,
        "channel": 0
      },
      {
        "type": "note_on",
        "time": 0,
        "note": 47,
        "velocity": 0,
        "channel": 0
      },
      {
        "type": "note_on",
        "time": 0,
        "note": 40,
        "velocity": 0,
        "channel": 0
      },
      {
        "type": "note_on",
        "time": 1,
        "note": 64,
        "velocity": 60,
        "channel": 0
      },
      {
        "type": "note_on",
        "time": 0,
        "note": 59,
        "velocity": 60,
        "channel": 0
      },
      {
        "type": "note_on",
        "time": 0,
        "note": 55,
        "velocity": 60,
        "channel": 0
      },
      {
        "type": "note_on",
        "time": 0,
        "note": 52,
        "velocity": 60,
        "channel": 0
      },
      {
        "type": "note_on",
        "time": 0,
        "note": 47,
        "velocity": 60,
        "channel": 0
      },
      {
        "type": "note_on",
        "time": 0,
        "note": 40,
        "velocity": 60,
        "channel": 0
      },
      {
        "type": "note_on",
        "time": 59,
        "note": 64,
        "velocity": 0,
        "channel": 0
      },
      {
        "type": "note_on",
        "time": 0,
        "note": 59,
        "velocity": 0,
        "channel": 0
      },
      {
        "type": "note_on",
        "time": 0,
        "note": 55,
        "velocity": 0,
        "channel": 0
      },
      {
        "type": "note_on",
        "time": 0,
        "note": 52,
        "velocity": 0,
        "channel": 0
      },
      {
        "type": "note_on",
        "time": 0,
        "note": 47,
        "velocity": 0,
        "channel": 0
      },
      {
        "type": "note_on",
        "time": 0,
        "note": 40,
        "velocity": 0,
        "channel": 0
      },
      {
        "type": "note_on",
        "time": 1,
        "note": 42,
        "velocity": 60,
        "channel": 0
      },
      {
        "type": "note_on",
        "time": 0,
        "note": 49,
        "velocity": 60,
        "channel": 0
      },
      {
        "type": "note_on",
        "time": 0,
        "note": 54,
        "velocity": 60,
        "channel": 0
      },
      {
        "type": "note_on",
        "time": 0,
        "note": 58,
        "velocity": 60,
        "channel": 0
      },
      {
        "type": "note_on",
        "time": 0,
        "note": 61,
        "velocity": 60,
        "channel": 0
      },
      {
        "type": "note_on",
        "time": 0,
        "note": 66,
        "velocity": 60,
        "channel": 0
      },
      {
        "type": "note_on",
        "time": 59,
        "note": 42,
        "velocity": 0,
        "channel": 0
      },
      {
        "type": "note_on",
        "time": 0,
        "note": 49,
        "velocity": 0,
        "channel": 0
      },
      {
        "type": "note_on",
        "time": 0,
        "note": 54,
        "velocity": 0,
        "channel": 0
      },
      {
        "type": "note_on",
        "time": 0,
        "note": 58,
        "velocity": 0,
        "channel": 0
      },
      {
        "type": "note_on",
        "time": 0,
        "note": 61,
        "velocity": 0,
        "channel": 0
      },
      {
        "type": "note_on",
        "time": 0,
        "note": 66,
        "velocity": 0,
        "channel": 0
      },
      {
        "type": "note_on",
        "time": 1,
        "note": 66,
        "velocity": 60,
        "channel": 0
      },
      {
        "type": "note_on",
        "time": 0,
        "note": 61,
        "velocity": 60,
        "channel": 0
      },
      {
        "type": "note_on",
        "time": 0,
        "note": 58,
        "velocity": 60,
        "channel": 0
      },
      {
        "type": "note_on",
        "time": 0,
        "note": 54,
        "velocity": 60,
        "channel": 0
      },
      {
        "type": "note_on",
        "time": 0,
        "note": 49,
        "velocity": 60,
        "channel": 0
      },
      {
        "type": "note_on",
        "time": 0,
        "note": 42,
        "velocity": 60,
        "channel": 0
      },
      {
        "type": "note_on",
        "time": 29,
        "note": 66,
        "velocity": 0,
        "channel": 0
      },
      {
        "type": "note_on",
        "time": 0,
        "note": 61,
        "velocity": 0,
        "channel": 0
      },
      {
        "type": "note_on",
        "time": 0,
        "note": 58,
        "velocity": 0,
        "channel": 0
      },
      {
        "type": "note_on",
        "time": 0,
        "note": 54,
        "velocity": 0,
        "channel": 0
      },
      {
        "type": "note_on",
        "time": 0,
        "note": 49,
        "velocity": 0,
        "channel": 0
      },
      {
        "type": "note_on",
        "time": 0,
        "note": 42,
        "velocity": 0,
        "channel": 0
      },
      {
        "type": "note_on",
        "time": 1,
        "note": 66,
        "velocity": 60,
        "channel": 0
      },
      {
        "type": "note_on",
        "time": 0,
        "note": 61,
        "velocity": 60,
        "channel": 0
      },
      {
        "type": "note_on",
        "time": 0,
        "note": 58,
        "velocity": 60,
        "channel": 0
      },
      {
        "type": "note_on",
        "time": 0,
        "note": 54,
        "velocity": 60,
        "channel": 0
      },
      {
        "type": "note_on",
        "time": 0,
        "note": 49,
        "velocity": 60,
        "channel": 0
      },
      {
        "type": "note_on",
        "time": 0,
        "note": 42,
        "velocity": 60,
        "channel": 0
      },
      {
        "type": "note_on",
        "time": 29,
        "note": 66,
        "velocity": 0,
        "channel": 0
      },
      {
        "type": "note_on",
        "time": 0,
        "note": 61,
        "velocity": 0,
        "channel": 0
      },
      {
        "type": "note_on",
        "time": 0,
        "note": 58,
        "velocity": 0,
        "channel": 0
      },
      {
        "type": "note_on",
        "time": 0,
        "note": 54,
        "velocity": 0,
        "channel": 0
      },
      {
        "type": "note_on",
        "time": 0,
        "note": 49,
        "velocity": 0,
        "channel": 0
      },
      {
        "type": "note_on",
        "time": 0,
        "note": 42,
        "velocity": 0,
        "channel": 0
      },
      {
        "type": "note_on",
        "time": 1,
        "note": 66,
        "velocity": 60,
        "channel": 0
      },
      {
        "type": "note_on",
        "time": 0,
        "note": 61,
        "velocity": 60,
        "channel": 0
      },
      {
        "type": "note_on",
        "time": 0,
        "note": 58,
        "velocity": 60,
        "channel": 0
      },
      {
        "type": "note_on",
        "time": 0,
        "note": 54,
        "velocity": 60,
        "channel": 0
      },
      {
        "type": "note_on",
        "time": 0,
        "note": 49,
        "velocity": 60,
        "channel": 0
      },
      {
        "type": "note_on",
        "time": 0,
        "note": 42,
        "velocity": 60,
        "channel": 0
      },
      {
        "type": "note_on",
        "time": 29,
        "note": 66,
        "velocity": 0,
        "channel": 0
      },
      {
        "type": "note_on",
        "time": 0,
        "note": 61,
        "velocity": 0,
        "channel": 0
      },
      {
        "type": "note_on",
        "time": 0,
        "note": 58,
        "velocity": 0,
        "channel": 0
      },
      {
        "type": "note_on",
        "time": 0,
        "note": 54,
        "velocity": 0,
        "channel": 0
      },
      {
        "type": "note_on",
        "time": 0,
        "note": 49,
        "velocity": 0,
        "channel": 0
      },
      {
        "type": "note_on",
        "time": 0,
        "note": 42,
        "velocity": 0,
        "channel": 0
      },
      {
        "type": "note_on",
        "time": 1,
        "note": 66,
        "velocity": 60,
        "channel": 0
      },
      {
        "type": "note_on",
        "time": 0,
        "note": 61,
        "velocity": 60,
        "channel": 0
      },
      {
        "type": "note_on",
        "time": 0,
        "note": 58,
        "velocity": 60,
        "channel": 0
      },
      {
        "type": "note_on",
        "time": 0,
        "note": 54,
        "velocity": 60,
        "channel": 0
      },
      {
        "type": "note_on",
        "time": 0,
        "note": 49,
        "velocity": 60,
        "channel": 0
      },
      {
        "type": "note_on",
        "time": 0,
        "note": 42,
        "velocity": 60,
        "channel": 0
      },
      {
        "type": "note_on",
        "time": 59,
        "note": 66,
        "velocity": 0,
        "channel": 0
      },
      {
        "type": "note_on",
        "time": 0,
        "note": 61,
        "velocity": 0,
        "channel": 0
      },
      {
        "type": "note_on",
        "time": 0,
        "note": 58,
        "velocity": 0,
        "channel": 0
      },
      {
        "type": "note_on",
        "time": 0,
        "note": 54,
        "velocity": 0,
        "channel": 0
      },
      {
        "type": "note_on",
        "time": 0,
        "note": 49,
        "velocity": 0,
        "channel": 0
      },
      {
        "type": "note_on",
        "time": 0,
        "note": 42,
        "velocity": 0,
        "channel": 0
      },
      {
        "type": "note_on",
        "time": 1,
        "note": 66,
        "velocity": 60,
        "channel": 0
      },
      {
        "type": "note_on",
        "time": 0,
        "note": 61,
        "velocity": 60,
        "channel": 0
      },
      {
        "type": "note_on",
        "time": 0,
        "note": 58,
        "velocity": 60,
        "channel": 0
      },
      {
        "type": "note_on",
        "time": 0,
        "note": 54,
        "velocity": 60,
        "channel": 0
      },
      {
        "type": "note_on",
        "time": 0,
        "note": 49,
        "velocity": 60,
        "channel": 0
      },
      {
        "type": "note_on",
        "time": 0,
        "note": 42,
        "velocity": 60,
        "channel": 0
      },
      {
        "type": "note_on",
        "time": 29,
        "note": 66,
        "velocity": 0,
        "channel": 0
      },
      {
        "type": "note_on",
        "time": 0,
        "note": 61,
        "velocity": 0,
        "channel": 0
      },
      {
        "type": "note_on",
        "time": 0,
        "note": 58,
        "velocity": 0,
        "channel": 0
      },
      {
        "type": "note_on",
        "time": 0,
        "note": 54,
        "velocity": 0,
        "channel": 0
      },
      {
        "type": "note_on",
        "time": 0,
        "note": 49,
        "velocity": 0,
        "channel": 0
      },
      {
        "type": "note_on",
        "time": 0,
        "note": 42,
        "velocity": 0,
        "channel": 0
      },
      {
        "type": "note_on",
        "time": 1,
        "note": 66,
        "velocity": 60,
        "channel": 0
      },
      {
        "type": "note_on",
        "time": 0,
        "note": 61,
        "velocity": 60,
        "channel": 0
      },
      {
        "type": "note_on",
        "time": 0,
        "note": 58,
        "velocity": 60,
        "channel": 0
      },
      {
        "type": "note_on",
        "time": 0,
        "note": 54,
        "velocity": 60,
        "channel": 0
      },
      {
        "type": "note_on",
        "time": 0,
        "note": 49,
        "velocity": 60,
        "channel": 0
      },
      {
        "type": "note_on",
        "time": 0,
        "note": 42,
        "velocity": 60,
        "channel": 0
      },
      {
        "type": "note_on",
        "time": 239,
        "note": 66,
        "velocity": 0,
        "channel": 0
      },
      {
        "type": "note_on",
        "time": 0,
        "note": 61,
        "velocity": 0,
        "channel": 0
      },
      {
        "type": "note_on",
        "time": 0,
        "note": 58,
        "velocity": 0,
        "channel": 0
      },
      {
        "type": "note_on",
        "time": 0,
        "note": 54,
        "velocity": 0,
        "channel": 0
      },
      {
        "type": "note_on",
        "time": 0,
        "note": 49,
        "velocity": 0,
        "channel": 0
      },
      {
        "type": "note_on",
        "time": 0,
        "note": 42,
        "velocity": 0,
        "channel": 0
      },
      {
        "type": "control_change",
        "time": 1,
        "control": 7,
        "value": 90,
        "channel": 0
      },
      {
        "type": "note_on",
        "time": 0,
        "note": 59,
        "velocity": 60,
        "channel": 0
      },
      {
        "type": "note_on",
        "time": 0,
        "note": 55,
        "velocity": 60,
        "channel": 0
      },
      {
        "type": "note_on",
        "time": 0,
        "note": 50,
        "velocity": 60,
        "channel": 0
      },
      {
        "type": "note_on",
        "time": 239,
        "note": 59,
        "velocity": 0,
        "channel": 0
      },
      {
        "type": "note_on",
        "time": 0,
        "note": 55,
        "velocity": 0,
        "channel": 0
      },
      {
        "type": "note_on",
        "time": 0,
        "note": 50,
        "velocity": 0,
        "channel": 0
      },
      {
        "type": "note_on",
        "time": 1,
        "note": 59,
        "velocity": 60,
        "channel": 0
      },
      {
        "type": "note_on",
        "time": 0,
        "note": 55,
        "velocity": 60,
        "channel": 0
      },
      {
        "type": "note_on",
        "time": 0,
        "note": 50,
        "velocity": 60,
        "channel": 0
      },
      {
        "type": "note_on",
        "time": 239,
        "note": 59,
        "velocity": 0,
        "channel": 0
      },
      {
        "type": "note_on",
        "time": 0,
        "note": 55,
        "velocity": 0,
        "channel": 0
      },
      {
        "type": "note_on",
        "time": 0,
        "note": 50,
        "velocity": 0,
        "channel": 0
      },
      {
        "type": "note_on",
        "time": 1,
        "note": 50,
        "velocity": 60,
        "channel": 0
      },
      {
        "type": "note_on",
        "time": 0,
        "note": 54,
        "velocity": 60,
        "channel": 0
      },
      {
        "type": "note_on",
        "time": 0,
        "note": 57,
        "velocity": 60,
        "channel": 0
      },
      {
        "type": "note_on",
        "time": 239,
        "note": 50,
        "velocity": 0,
        "channel": 0
      },
      {
        "type": "note_on",
        "time": 0,
        "note": 54,
        "velocity": 0,
        "channel": 0
      },
      {
        "type": "note_on",
        "time": 0,
        "note": 57,
        "velocity": 0,
        "channel": 0
      },
      {
        "type": "note_on",
        "time": 1,
        "note": 57,
        "velocity": 60,
        "channel": 0
      },
      {
        "type": "note_on",
        "time": 0,
        "note": 54,
        "velocity": 60,
        "channel": 0
      },
      {
        "type": "note_on",
        "time": 0,
        "note": 50,
        "velocity": 60,
        "channel": 0
      },
      {
        "type": "note_on",
        "time": 239,
        "note": 57,
        "velocity": 0,
        "channel": 0
      },
      {
        "type": "note_on",
        "time": 0,
        "note": 54,
        "velocity": 0,
        "channel": 0
      },
      {
        "type": "note_on",
        "time": 0,
        "note": 50,
        "velocity": 0,
        "channel": 0
      },
      {
        "type": "note_on",
        "time": 1,
        "note": 49,
        "velocity": 60,
        "channel": 0
      },
      {
        "type": "note_on",
        "time": 0,
        "note": 54,
        "velocity": 60,
        "channel": 0
      },
      {
        "type": "note_on",
        "time": 0,
        "note": 58,
        "velocity": 60,
        "channel": 0
      },
      {
        "type": "note_on",
        "time": 239,
        "note": 49,
        "velocity": 0,
        "channel": 0
      },
      {
        "type": "note_on",
        "time": 0,
        "note": 54,
        "velocity": 0,
        "channel": 0
      },
      {
        "type": "note_on",
        "time": 0,
        "note": 58,
        "velocity": 0,
        "channel": 0
      },
      {
        "type": "note_on",
        "time": 1,
        "note": 58,
        "velocity": 60,
        "channel": 0
      },
      {
        "type": "note_on",
        "time": 0,
        "note": 54,
        "velocity": 60,
        "channel": 0
      },
      {
        "type": "note_on",
        "time": 0,
        "note": 49,
        "velocity": 60,
        "channel": 0
      },
      {
        "type": "note_on",
        "time": 239,
        "note": 58,
        "velocity": 0,
        "channel": 0
      },
      {
        "type": "note_on",
        "time": 0,
        "note": 54,
        "velocity": 0,
        "channel": 0
      },
      {
        "type": "note_on",
        "time": 0,
        "note": 49,
        "velocity": 0,
        "channel": 0
      },
      {
        "type": "note_on",
        "time": 1,
        "note": 50,
        "velocity": 60,
        "channel": 0
      },
      {
        "type": "note_on",
        "time": 0,
        "note": 54,
        "velocity": 60,
        "channel": 0
      },
      {
        "type": "note_on",
        "time": 0,
        "note": 59,
        "velocity": 60,
        "channel": 0
      },
      {
        "type": "note_on",
        "time": 239,
        "note": 50,
        "velocity": 0,
        "channel": 0
      },
      {
        "type": "note_on",
        "time": 0,
        "note": 54,
        "velocity": 0,
        "channel": 0
      },
      {
        "type": "note_on",
        "time": 0,
        "note": 59,
        "velocity": 0,
        "channel": 0
      },
      {
        "type": "note_on",
        "time": 1,
        "note": 59,
        "velocity": 60,
        "channel": 0
      },
      {
        "type": "note_on",
        "time": 0,
        "note": 54,
        "velocity": 60,
        "channel": 0
      },
      {
        "type": "note_on",
        "time": 0,
        "note": 50,
        "velocity": 60,
        "channel": 0
      },
      {
        "type": "note_on",
        "time": 239,
        "note": 59,
        "velocity": 0,
        "channel": 0
      },
      {
        "type": "note_on",
        "time": 0,
        "note": 54,
        "velocity": 0,
        "channel": 0
      },
      {
        "type": "note_on",
        "time": 0,
        "note": 50,
        "velocity": 0,
        "channel": 0
      },
      {
        "type": "note_on",
        "time": 1,
        "note": 59,
        "velocity": 60,
        "channel": 0
      },
      {
        "type": "note_on",
        "time": 0,
        "note": 55,
        "velocity": 60,
        "channel": 0
      },
      {
        "type": "note_on",
        "time": 0,
        "note": 50,
        "velocity": 60,
        "channel": 0
      },
      {
        "type": "note_on",
        "time": 239,
        "note": 59,
        "velocity": 0,
        "channel": 0
      },
      {
        "type": "note_on",
        "time": 0,
        "note": 55,
        "velocity": 0,
        "channel": 0
      },
      {
        "type": "note_on",
        "time": 0,
        "note": 50,
        "velocity": 0,
        "channel": 0
      },
      {
        "type": "note_on",
        "time": 1,
        "note": 59,
        "velocity": 60,
        "channel": 0
      },
      {
        "type": "note_on",
        "time": 0,
        "note": 55,
        "velocity": 60,
        "channel": 0
      },
      {
        "type": "note_on",
        "time": 0,
        "note": 50,
        "velocity": 60,
        "channel": 0
      },
      {
        "type": "note_on",
        "time": 239,
        "note": 59,
        "velocity": 0,
        "channel": 0
      },
      {
        "type": "note_on",
        "time": 0,
        "note": 55,
        "velocity": 0,
        "channel": 0
      },
      {
        "type": "note_on",
        "time": 0,
        "note": 50,
        "velocity": 0,
        "channel": 0
      },
      {
        "type": "note_on",
        "time": 1,
        "note": 50,
        "velocity": 60,
        "channel": 0
      },
      {
        "type": "note_on",
        "time": 0,
        "note": 54,
        "velocity": 60,
        "channel": 0
      },
      {
        "type": "note_on",
        "time": 0,
        "note": 57,
        "velocity": 60,
        "channel": 0
      },
      {
        "type": "note_on",
        "time": 239,
        "note": 50,
        "velocity": 0,
        "channel": 0
      },
      {
        "type": "note_on",
        "time": 0,
        "note": 54,
        "velocity": 0,
        "channel": 0
      },
      {
        "type": "note_on",
        "time": 0,
        "note": 57,
        "velocity": 0,
        "channel": 0
      },
      {
        "type": "note_on",
        "time": 1,
        "note": 57,
        "velocity": 60,
        "channel": 0
      },
      {
        "type": "note_on",
        "time": 0,
        "note": 54,
        "velocity": 60,
        "channel": 0
      },
      {
        "type": "note_on",
        "time": 0,
        "note": 50,
        "velocity": 60,
        "channel": 0
      },
      {
        "type": "note_on",
        "time": 239,
        "note": 57,
        "velocity": 0,
        "channel": 0
      },
      {
        "type": "note_on",
        "time": 0,
        "note": 54,
        "velocity": 0,
        "channel": 0
      },
      {
        "type": "note_on",
        "time": 0,
        "note": 50,
        "velocity": 0,
        "channel": 0
      },
      {
        "type": "note_on",
        "time": 1,
        "note": 52,
        "velocity": 60,
        "channel": 0
      },
      {
        "type": "note_on",
        "time": 0,
        "note": 55,
        "velocity": 60,
        "channel": 0
      },
      {
        "type": "note_on",
        "time": 0,
        "note": 59,
        "velocity": 60,
        "channel": 0
      },
      {
        "type": "note_on",
        "time": 239,
        "note": 52,
        "velocity": 0,
        "channel": 0
      },
      {
        "type": "note_on",
        "time": 0,
        "note": 55,
        "velocity": 0,
        "channel": 0
      },
      {
        "type": "note_on",
        "time": 0,
        "note": 59,
        "velocity": 0,
        "channel": 0
      },
      {
        "type": "note_on",
        "time": 1,
        "note": 59,
        "velocity": 60,
        "channel": 0
      },
      {
        "type": "note_on",
        "time": 0,
        "note": 55,
        "velocity": 60,
        "channel": 0
      },
      {
        "type": "note_on",
        "time": 0,
        "note": 52,
        "velocity": 60,
        "channel": 0
      },
      {
        "type": "note_on",
        "time": 239,
        "note": 59,
        "velocity": 0,
        "channel": 0
      },
      {
        "type": "note_on",
        "time": 0,
        "note": 55,
        "velocity": 0,
        "channel": 0
      },
      {
        "type": "note_on",
        "time": 0,
        "note": 52,
        "velocity": 0,
        "channel": 0
      },
      {
        "type": "note_on",
        "time": 1,
        "note": 49,
        "velocity": 60,
        "channel": 0
      },
      {
        "type": "note_on",
        "time": 0,
        "note": 54,
        "velocity": 60,
        "channel": 0
      },
      {
        "type": "note_on",
        "time": 0,
        "note": 58,
        "velocity": 60,
        "channel": 0
      },
      {
        "type": "note_on",
        "time": 479,
        "note": 49,
        "velocity": 0,
        "channel": 0
      },
      {
        "type": "note_on",
        "time": 0,
        "note": 54,
        "velocity": 0,
        "channel": 0
      },
      {
        "type": "note_on",
        "time": 0,
        "note": 58,
        "velocity": 0,
        "channel": 0
      },
      {
        "type": "control_change",
        "time": 1,
        "control": 7,
        "value": 80,
        "channel": 0
      },
      {
        "type": "note_on",
        "time": 0,
        "note": 54,
        "velocity": 60,
        "channel": 0
      },
      {
        "type": "note_on",
        "time": 0,
        "note": 47,
        "velocity": 60,
        "channel": 0
      },
      {
        "type": "note_on",
        "time": 0,
        "note": 42,
        "velocity": 60,
        "channel": 0
      },
      {
        "type": "note_on",
        "time": 0,
        "note": 59,
        "velocity": 60,
        "channel": 0
      },
      {
        "type": "note_on",
        "time": 0,
        "note": 62,
        "velocity": 60,
        "channel": 0
      },
      {
        "type": "note_on",
        "time": 0,
        "note": 66,
        "velocity": 60,
        "channel": 0
      },
      {
        "type": "note_on",
        "time": 59,
        "note": 54,
        "velocity": 0,
        "channel": 0
      },
      {
        "type": "note_on",
        "time": 0,
        "note": 47,
        "velocity": 0,
        "channel": 0
      },
      {
        "type": "note_on",
        "time": 0,
        "note": 42,
        "velocity": 0,
        "channel": 0
      },
      {
        "type": "note_on",
        "time": 0,
        "note": 59,
        "velocity": 0,
        "channel": 0
      },
      {
        "type": "note_on",
        "time": 0,
        "note": 62,
        "velocity": 0,
        "channel": 0
      },
      {
        "type": "note_on",
        "time": 0,
        "note": 66,
        "velocity": 0,
        "channel": 0
      },
      {
        "type": "note_on",
        "time": 1,
        "note": 66,
        "velocity": 60,
        "channel": 0
      },
      {
        "type": "note_on",
        "time": 0,
        "note": 59,
        "velocity": 60,
        "channel": 0
      },
      {
        "type": "note_on",
        "time": 0,
        "note": 62,
        "velocity": 60,
        "channel": 0
      },
      {
        "type": "note_on",
        "time": 0,
        "note": 54,
        "velocity": 60,
        "channel": 0
      },
      {
        "type": "note_on",
        "time": 0,
        "note": 47,
        "velocity": 60,
        "channel": 0
      },
      {
        "type": "note_on",
        "time": 0,
        "note": 42,
        "velocity": 60,
        "channel": 0
      },
      {
        "type": "note_on",
        "time": 29,
        "note": 66,
        "velocity": 0,
        "channel": 0
      },
      {
        "type": "note_on",
        "time": 0,
        "note": 59,
        "velocity": 0,
        "channel": 0
      },
      {
        "type": "note_on",
        "time": 0,
        "note": 62,
        "velocity": 0,
        "channel": 0
      },
      {
        "type": "note_on",
        "time": 0,
        "note": 54,
        "velocity": 0,
        "channel": 0
      },
      {
        "type": "note_on",
        "time": 0,
        "note": 47,
        "velocity": 0,
        "channel": 0
      },
      {
        "type": "note_on",
        "time": 0,
        "note": 42,
        "velocity": 0,
        "channel": 0
      },
      {
        "type": "note_on",
        "time": 1,
        "note": 66,
        "velocity": 60,
        "channel": 0
      },
      {
        "type": "note_on",
        "time": 0,
        "note": 59,
        "velocity": 60,
        "channel": 0
      },
      {
        "type": "note_on",
        "time": 0,
        "note": 62,
        "velocity": 60,
        "channel": 0
      },
      {
        "type": "note_on",
        "time": 0,
        "note": 54,
        "velocity": 60,
        "channel": 0
      },
      {
        "type": "note_on",
        "time": 0,
        "note": 47,
        "velocity": 60,
        "channel": 0
      },
      {
        "type": "note_on",
        "time": 0,
        "note": 42,
        "velocity": 60,
        "channel": 0
      },
      {
        "type": "note_on",
        "time": 29,
        "note": 66,
        "velocity": 0,
        "channel": 0
      },
      {
        "type": "note_on",
        "time": 0,
        "note": 59,
        "velocity": 0,
        "channel": 0
      },
      {
        "type": "note_on",
        "time": 0,
        "note": 62,
        "velocity": 0,
        "channel": 0
      },
      {
        "type": "note_on",
        "time": 0,
        "note": 54,
        "velocity": 0,
        "channel": 0
      },
      {
        "type": "note_on",
        "time": 0,
        "note": 47,
        "velocity": 0,
        "channel": 0
      },
      {
        "type": "note_on",
        "time": 0,
        "note": 42,
        "velocity": 0,
        "channel": 0
      },
      {
        "type": "note_on",
        "time": 1,
        "note": 66,
        "velocity": 60,
        "channel": 0
      },
      {
        "type": "note_on",
        "time": 0,
        "note": 62,
        "velocity": 60,
        "channel": 0
      },
      {
        "type": "note_on",
        "time": 0,
        "note": 59,
        "velocity": 60,
        "channel": 0
      },
      {
        "type": "note_on",
        "time": 0,
        "note": 54,
        "velocity": 60,
        "channel": 0
      },
      {
        "type": "note_on",
        "time": 0,
        "note": 47,
        "velocity": 60,
        "channel": 0
      },
      {
        "type": "note_on",
        "time": 0,
        "note": 42,
        "velocity": 60,
        "channel": 0
      },
      {
        "type": "note_on",
        "time": 59,
        "note": 66,
        "velocity": 0,
        "channel": 0
      },
      {
        "type": "note_on",
        "time": 0,
        "note": 62,
        "velocity": 0,
        "channel": 0
      },
      {
        "type": "note_on",
        "time": 0,
        "note": 59,
        "velocity": 0,
        "channel": 0
      },
      {
        "type": "note_on",
        "time": 0,
        "note": 54,
        "velocity": 0,
        "channel": 0
      },
      {
        "type": "note_on",
        "time": 0,
        "note": 47,
        "velocity": 0,
        "channel": 0
      },
      {
        "type": "note_on",
        "time": 0,
        "note": 42,
        "velocity": 0,
        "channel": 0
      },
      {
        "type": "note_on",
        "time": 1,
        "note": 66,
        "velocity": 60,
        "channel": 0
      },
      {
        "type": "note_on",
        "time": 0,
        "note": 62,
        "velocity": 60,
        "channel": 0
      },
      {
        "type": "note_on",
        "time": 0,
        "note": 59,
        "velocity": 60,
        "channel": 0
      },
      {
        "type": "note_on",
        "time": 0,
        "note": 54,
        "velocity": 60,
        "channel": 0
      },
      {
        "type": "note_on",
        "time": 0,
        "note": 47,
        "velocity": 60,
        "channel": 0
      },
      {
        "type": "note_on",
        "time": 0,
        "note": 42,
        "velocity": 60,
        "channel": 0
      },
      {
        "type": "note_on",
        "time": 29,
        "note": 66,
        "velocity": 0,
        "channel": 0
      },
      {
        "type": "note_on",
        "time": 0,
        "note": 62,
        "velocity": 0,
        "channel": 0
      },
      {
        "type": "note_on",
        "time": 0,
        "note": 59,
        "velocity": 0,
        "channel": 0
      },
      {
        "type": "note_on",
        "time": 0,
        "note": 54,
        "velocity": 0,
        "channel": 0
      },
      {
        "type": "note_on",
        "time": 0,
        "note": 47,
        "velocity": 0,
        "channel": 0
      },
      {
        "type": "note_on",
        "time": 0,
        "note": 42,
        "velocity": 0,
        "channel": 0
      },
      {
        "type": "note_on",
        "time": 1,
        "note": 66,
        "velocity": 60,
        "channel": 0
      },
      {
        "type": "note_on",
        "time": 0,
        "note": 62,
        "velocity": 60,
        "channel": 0
      },
      {
        "type": "note_on",
        "time": 0,
        "note": 59,
        "velocity": 60,
        "channel": 0
      },
      {
        "type": "note_on",
        "time": 0,
        "note": 54,
        "velocity": 60,
        "channel": 0
      },
      {
        "type": "note_on",
        "time": 0,
        "note": 47,
        "velocity": 60,
        "channel": 0
      },
      {
        "type": "note_on",
        "time": 0,
        "note": 42,
        "velocity": 60,
        "channel": 0
      },
      {
        "type": "note_on",
        "time": 29,
        "note": 66,
        "velocity": 0,
        "channel": 0
      },
      {
        "type": "note_on",
        "time": 0,
        "note": 62,
        "velocity": 0,
        "channel": 0
      },
      {
        "type": "note_on",
        "time": 0,
        "note": 59,
        "velocity": 0,
        "channel": 0
      },
      {
        "type": "note_on",
        "time": 0,
        "note": 54,
        "velocity": 0,
        "channel": 0
      },
      {
        "type": "note_on",
        "time": 0,
        "note": 47,
        "velocity": 0,
        "channel": 0
      },
      {
        "type": "note_on",
        "time": 0,
        "note": 42,
        "velocity": 0,
        "channel": 0
      },
      {
        "type": "note_on",
        "time": 1,
        "note": 66,
        "velocity": 60,
        "channel": 0
      },
      {
        "type": "note_on",
        "time": 0,
        "note": 62,
        "velocity": 60,
        "channel": 0
      },
      {
        "type": "note_on",
        "time": 0,
        "note": 59,
        "velocity": 60,
        "channel": 0
      },
      {
        "type": "note_on",
        "time": 0,
        "note": 54,
        "velocity": 60,
        "channel": 0
      },
      {
        "type": "note_on",
        "time": 0,
        "note": 47,
        "velocity": 60,
        "channel": 0
      },
      {
        "type": "note_on",
        "time": 0,
        "note": 42,
        "velocity": 60,
        "channel": 0
      },
      {
        "type": "note_on",
        "time": 29,
        "note": 66,
        "velocity": 0,
        "channel": 0
      },
      {
        "type": "note_on",
        "time": 0,
        "note": 62,
        "velocity": 0,
        "channel": 0
      },
      {
        "type": "note_on",
        "time": 0,
        "note": 59,
        "velocity": 0,
        "channel": 0
      },
      {
        "type": "note_on",
        "time": 0,
        "note": 54,
        "velocity": 0,
        "channel": 0
      },
      {
        "type": "note_on",
        "time": 0,
        "note": 47,
        "velocity": 0,
        "channel": 0
      },
      {
        "type": "note_on",
        "time": 0,
        "note": 42,
        "velocity": 0,
        "channel": 0
      },
      {
        "type": "note_on",
        "time": 1,
        "note": 66,
        "velocity": 60,
        "channel": 0
      },
      {
        "type": "note_on",
        "time": 0,
        "note": 62,
        "velocity": 60,
        "channel": 0
      },
      {
        "type": "note_on",
        "time": 0,
        "note": 59,
        "velocity": 60,
        "channel": 0
      },
      {
        "type": "note_on",
        "time": 0,
        "note": 54,
        "velocity": 60,
        "channel": 0
      },
      {
        "type": "note_on",
        "time": 0,
        "note": 47,
        "velocity": 60,
        "channel": 0
      },
      {
        "type": "note_on",
        "time": 0,
        "note": 42,
        "velocity": 60,
        "channel": 0
      },
      {
        "type": "note_on",
        "time": 29,
        "note": 66,
        "velocity": 0,
        "channel": 0
      },
      {
        "type": "note_on",
        "time": 0,
        "note": 62,
        "velocity": 0,
        "channel": 0
      },
      {
        "type": "note_on",
        "time": 0,
        "note": 59,
        "velocity": 0,
        "channel": 0
      },
      {
        "type": "note_on",
        "time": 0,
        "note": 54,
        "velocity": 0,
        "channel": 0
      },
      {
        "type": "note_on",
        "time": 0,
        "note": 47,
        "velocity": 0,
        "channel": 0
      },
      {
        "type": "note_on",
        "time": 0,
        "note": 42,
        "velocity": 0,
        "channel": 0
      },
      {
        "type": "note_on",
        "time": 1,
        "note": 66,
        "velocity": 60,
        "channel": 0
      },
      {
        "type": "note_on",
        "time": 0,
        "note": 62,
        "velocity": 60,
        "channel": 0
      },
      {
        "type": "note_on",
        "time": 0,
        "note": 59,
        "velocity": 60,
        "channel": 0
      },
      {
        "type": "note_on",
        "time": 0,
        "note": 54,
        "velocity": 60,
        "channel": 0
      },
      {
        "type": "note_on",
        "time": 0,
        "note": 47,
        "velocity": 60,
        "channel": 0
      },
      {
        "type": "note_on",
        "time": 0,
        "note": 42,
        "velocity": 60,
        "channel": 0
      },
      {
        "type": "note_on",
        "time": 29,
        "note": 66,
        "velocity": 0,
        "channel": 0
      },
      {
        "type": "note_on",
        "time": 0,
        "note": 62,
        "velocity": 0,
        "channel": 0
      },
      {
        "type": "note_on",
        "time": 0,
        "note": 59,
        "velocity": 0,
        "channel": 0
      },
      {
        "type": "note_on",
        "time": 0,
        "note": 54,
        "velocity": 0,
        "channel": 0
      },
      {
        "type": "note_on",
        "time": 0,
        "note": 47,
        "velocity": 0,
        "channel": 0
      },
      {
        "type": "note_on",
        "time": 0,
        "note": 42,
        "velocity": 0,
        "channel": 0
      },
      {
        "type": "note_on",
        "time": 1,
        "note": 66,
        "velocity": 60,
        "channel": 0
      },
      {
        "type": "note_on",
        "time": 0,
        "note": 62,
        "velocity": 60,
        "channel": 0
      },
      {
        "type": "note_on",
        "time": 0,
        "note": 59,
        "velocity": 60,
        "channel": 0
      },
      {
        "type": "note_on",
        "time": 0,
        "note": 54,
        "velocity": 60,
        "channel": 0
      },
      {
        "type": "note_on",
        "time": 0,
        "note": 47,
        "velocity": 60,
        "channel": 0
      },
      {
        "type": "note_on",
        "time": 0,
        "note": 42,
        "velocity": 60,
        "channel": 0
      },
      {
        "type": "note_on",
        "time": 59,
        "note": 66,
        "velocity": 0,
        "channel": 0
      },
      {
        "type": "note_on",
        "time": 0,
        "note": 62,
        "velocity": 0,
        "channel": 0
      },
      {
        "type": "note_on",
        "time": 0,
        "note": 59,
        "velocity": 0,
        "channel": 0
      },
      {
        "type": "note_on",
        "time": 0,
        "note": 54,
        "velocity": 0,
        "channel": 0
      },
      {
        "type": "note_on",
        "time": 0,
        "note": 47,
        "velocity": 0,
        "channel": 0
      },
      {
        "type": "note_on",
        "time": 0,
        "note": 42,
        "velocity": 0,
        "channel": 0
      },
      {
        "type": "note_on",
        "time": 1,
        "note": 66,
        "velocity": 60,
        "channel": 0
      },
      {
        "type": "note_on",
        "time": 0,
        "note": 62,
        "velocity": 60,
        "channel": 0
      },
      {
        "type": "note_on",
        "time": 0,
        "note": 59,
        "velocity": 60,
        "channel": 0
      },
      {
        "type": "note_on",
        "time": 0,
        "note": 54,
        "velocity": 60,
        "channel": 0
      },
      {
        "type": "note_on",
        "time": 0,
        "note": 47,
        "velocity": 60,
        "channel": 0
      },
      {
        "type": "note_on",
        "time": 0,
        "note": 42,
        "velocity": 60,
        "channel": 0
      },
      {
        "type": "note_on",
        "time": 29,
        "note": 66,
        "velocity": 0,
        "channel": 0
      },
      {
        "type": "note_on",
        "time": 0,
        "note": 62,
        "velocity": 0,
        "channel": 0
      },
      {
        "type": "note_on",
        "time": 0,
        "note": 59,
        "velocity": 0,
        "channel": 0
      },
      {
        "type": "note_on",
        "time": 0,
        "note": 54,
        "velocity": 0,
        "channel": 0
      },
      {
        "type": "note_on",
        "time": 0,
        "note": 47,
        "velocity": 0,
        "channel": 0
      },
      {
        "type": "note_on",
        "time": 0,
        "note": 42,
        "velocity": 0,
        "channel": 0
      },
      {
        "type": "note_on",
        "time": 1,
        "note": 66,
        "velocity": 60,
        "channel": 0
      },
      {
        "type": "note_on",
        "time": 0,
        "note": 62,
        "velocity": 60,
        "channel": 0
      },
      {
        "type": "note_on",
        "time": 0,
        "note": 59,
        "velocity": 60,
        "channel": 0
      },
      {
        "type": "note_on",
        "time": 0,
        "note": 54,
        "velocity": 60,
        "channel": 0
      },
      {
        "type": "note_on",
        "time": 0,
        "note": 47,
        "velocity": 60,
        "channel": 0
      },
      {
        "type": "note_on",
        "time": 0,
        "note": 42,
        "velocity": 60,
        "channel": 0
      },
      {
        "type": "note_on",
        "time": 59,
        "note": 66,
        "velocity": 0,
        "channel": 0
      },
      {
        "type": "note_on",
        "time": 0,
        "note": 62,
        "velocity": 0,
        "channel": 0
      },
      {
        "type": "note_on",
        "time": 0,
        "note": 59,
        "velocity": 0,
        "channel": 0
      },
      {
        "type": "note_on",
        "time": 0,
        "note": 54,
        "velocity": 0,
        "channel": 0
      },
      {
        "type": "note_on",
        "time": 0,
        "note": 47,
        "velocity": 0,
        "channel": 0
      },
      {
        "type": "note_on",
        "time": 0,
        "note": 42,
        "velocity": 0,
        "channel": 0
      },
      {
        "type": "note_on",
        "time": 1,
        "note": 42,
        "velocity": 60,
        "channel": 0
      },
      {
        "type": "note_on",
        "time": 0,
        "note": 49,
        "velocity": 60,
        "channel": 0
      },
      {
        "type": "note_on",
        "time": 0,
        "note": 54,
        "velocity": 60,
        "channel": 0
      },
      {
        "type": "note_on",
        "time": 0,
        "note": 58,
        "velocity": 60,
        "channel": 0
      },
      {
        "type": "note_on",
        "time": 0,
        "note": 61,
        "velocity": 60,
        "channel": 0
      },
      {
        "type": "note_on",
        "time": 0,
        "note": 66,
        "velocity": 60,
        "channel": 0
      },
      {
        "type": "note_on",
        "time": 59,
        "note": 42,
        "velocity": 0,
        "channel": 0
      },
      {
        "type": "note_on",
        "time": 0,
        "note": 49,
        "velocity": 0,
        "channel": 0
      },
      {
        "type": "note_on",
        "time": 0,
        "note": 54,
        "velocity": 0,
        "channel": 0
      },
      {
        "type": "note_on",
        "time": 0,
        "note": 58,
        "velocity": 0,
        "channel": 0
      },
      {
        "type": "note_on",
        "time": 0,
        "note": 61,
        "velocity": 0,
        "channel": 0
      },
      {
        "type": "note_on",
        "time": 0,
        "note": 66,
        "velocity": 0,
        "channel": 0
      },
      {
        "type": "note_on",
        "time": 1,
        "note": 66,
        "velocity": 60,
        "channel": 0
      },
      {
        "type": "note_on",
        "time": 0,
        "note": 61,
        "velocity": 60,
        "channel": 0
      },
      {
        "type": "note_on",
        "time": 0,
        "note": 58,
        "velocity": 60,
        "channel": 0
      },
      {
        "type": "note_on",
        "time": 0,
        "note": 54,
        "velocity": 60,
        "channel": 0
      },
      {
        "type": "note_on",
        "time": 0,
        "note": 49,
        "velocity": 60,
        "channel": 0
      },
      {
        "type": "note_on",
        "time": 0,
        "note": 42,
        "velocity": 60,
        "channel": 0
      },
      {
        "type": "note_on",
        "time": 29,
        "note": 66,
        "velocity": 0,
        "channel": 0
      },
      {
        "type": "note_on",
        "time": 0,
        "note": 61,
        "velocity": 0,
        "channel": 0
      },
      {
        "type": "note_on",
        "time": 0,
        "note": 58,
        "velocity": 0,
        "channel": 0
      },
      {
        "type": "note_on",
        "time": 0,
        "note": 54,
        "velocity": 0,
        "channel": 0
      },
      {
        "type": "note_on",
        "time": 0,
        "note": 49,
        "velocity": 0,
        "channel": 0
      },
      {
        "type": "note_on",
        "time": 0,
        "note": 42,
        "velocity": 0,
        "channel": 0
      },
      {
        "type": "note_on",
        "time": 1,
        "note": 66,
        "velocity": 60,
        "channel": 0
      },
      {
        "type": "note_on",
        "time": 0,
        "note": 61,
        "velocity": 60,
        "channel": 0
      },
      {
        "type": "note_on",
        "time": 0,
        "note": 58,
        "velocity": 60,
        "channel": 0
      },
      {
        "type": "note_on",
        "time": 0,
        "note": 54,
        "velocity": 60,
        "channel": 0
      },
      {
        "type": "note_on",
        "time": 0,
        "note": 49,
        "velocity": 60,
        "channel": 0
      },
      {
        "type": "note_on",
        "time": 0,
        "note": 42,
        "velocity": 60,
        "channel": 0
      },
      {
        "type": "note_on",
        "time": 29,
        "note": 66,
        "velocity": 0,
        "channel": 0
      },
      {
        "type": "note_on",
        "time": 0,
        "note": 61,
        "velocity": 0,
        "channel": 0
      },
      {
        "type": "note_on",
        "time": 0,
        "note": 58,
        "velocity": 0,
        "channel": 0
      },
      {
        "type": "note_on",
        "time": 0,
        "note": 54,
        "velocity": 0,
        "channel": 0
      },
      {
        "type": "note_on",
        "time": 0,
        "note": 49,
        "velocity": 0,
        "channel": 0
      },
      {
        "type": "note_on",
        "time": 0,
        "note": 42,
        "velocity": 0,
        "channel": 0
      },
      {
        "type": "note_on",
        "time": 1,
        "note": 66,
        "velocity": 60,
        "channel": 0
      },
      {
        "type": "note_on",
        "time": 0,
        "note": 58,
        "velocity": 60,
        "channel": 0
      },
      {
        "type": "note_on",
        "time": 0,
        "note": 61,
        "velocity": 60,
        "channel": 0
      },
      {
        "type": "note_on",
        "time": 0,
        "note": 54,
        "velocity": 60,
        "channel": 0
      },
      {
        "type": "note_on",
        "time": 0,
        "note": 49,
        "velocity": 60,
        "channel": 0
      },
      {
        "type": "note_on",
        "time": 0,
        "note": 42,
        "velocity": 60,
        "channel": 0
      },
      {
        "type": "note_on",
        "time": 59,
        "note": 66,
        "velocity": 0,
        "channel": 0
      },
      {
        "type": "note_on",
        "time": 0,
        "note": 58,
        "velocity": 0,
        "channel": 0
      },
      {
        "type": "note_on",
        "time": 0,
        "note": 61,
        "velocity": 0,
        "channel": 0
      },
      {
        "type": "note_on",
        "time": 0,
        "note": 54,
        "velocity": 0,
        "channel": 0
      },
      {
        "type": "note_on",
        "time": 0,
        "note": 49,
        "velocity": 0,
        "channel": 0
      },
      {
        "type": "note_on",
        "time": 0,
        "note": 42,
        "velocity": 0,
        "channel": 0
      },
      {
        "type": "note_on",
        "time": 1,
        "note": 66,
        "velocity": 60,
        "channel": 0
      },
      {
        "type": "note_on",
        "time": 0,
        "note": 61,
        "velocity": 60,
        "channel": 0
      },
      {
        "type": "note_on",
        "time": 0,
        "note": 58,
        "velocity": 60,
        "channel": 0
      },
      {
        "type": "note_on",
        "time": 0,
        "note": 54,
        "velocity": 60,
        "channel": 0
      },
      {
        "type": "note_on",
        "time": 0,
        "note": 49,
        "velocity": 60,
        "channel": 0
      },
      {
        "type": "note_on",
        "time": 0,
        "note": 42,
        "velocity": 60,
        "channel": 0
      },
      {
        "type": "note_on",
        "time": 29,
        "note": 66,
        "velocity": 0,
        "channel": 0
      },
      {
        "type": "note_on",
        "time": 0,
        "note": 61,
        "velocity": 0,
        "channel": 0
      },
      {
        "type": "note_on",
        "time": 0,
        "note": 58,
        "velocity": 0,
        "channel": 0
      },
      {
        "type": "note_on",
        "time": 0,
        "note": 54,
        "velocity": 0,
        "channel": 0
      },
      {
        "type": "note_on",
        "time": 0,
        "note": 49,
        "velocity": 0,
        "channel": 0
      },
      {
        "type": "note_on",
        "time": 0,
        "note": 42,
        "velocity": 0,
        "channel": 0
      },
      {
        "type": "note_on",
        "time": 1,
        "note": 66,
        "velocity": 60,
        "channel": 0
      },
      {
        "type": "note_on",
        "time": 0,
        "note": 61,
        "velocity": 60,
        "channel": 0
      },
      {
        "type": "note_on",
        "time": 0,
        "note": 58,
        "velocity": 60,
        "channel": 0
      },
      {
        "type": "note_on",
        "time": 0,
        "note": 54,
        "velocity": 60,
        "channel": 0
      },
      {
        "type": "note_on",
        "time": 0,
        "note": 49,
        "velocity": 60,
        "channel": 0
      },
      {
        "type": "note_on",
        "time": 0,
        "note": 42,
        "velocity": 60,
        "channel": 0
      },
      {
        "type": "note_on",
        "time": 29,
        "note": 66,
        "velocity": 0,
        "channel": 0
      },
      {
        "type": "note_on",
        "time": 0,
        "note": 61,
        "velocity": 0,
        "channel": 0
      },
      {
        "type": "note_on",
        "time": 0,
        "note": 58,
        "velocity": 0,
        "channel": 0
      },
      {
        "type": "note_on",
        "time": 0,
        "note": 54,
        "velocity": 0,
        "channel": 0
      },
      {
        "type": "note_on",
        "time": 0,
        "note": 49,
        "velocity": 0,
        "channel": 0
      },
      {
        "type": "note_on",
        "time": 0,
        "note": 42,
        "velocity": 0,
        "channel": 0
      },
      {
        "type": "note_on",
        "time": 1,
        "note": 66,
        "velocity": 60,
        "channel": 0
      },
      {
        "type": "note_on",
        "time": 0,
        "note": 61,
        "velocity": 60,
        "channel": 0
      },
      {
        "type": "note_on",
        "time": 0,
        "note": 58,
        "velocity": 60,
        "channel": 0
      },
      {
        "type": "note_on",
        "time": 0,
        "note": 54,
        "velocity": 60,
        "channel": 0
      },
      {
        "type": "note_on",
        "time": 0,
        "note": 49,
        "velocity": 60,
        "channel": 0
      },
      {
        "type": "note_on",
        "time": 0,
        "note": 42,
        "velocity": 60,
        "channel": 0
      },
      {
        "type": "note_on",
        "time": 179,
        "note": 66,
        "velocity": 0,
        "channel": 0
      },
      {
        "type": "note_on",
        "time": 0,
        "note": 61,
        "velocity": 0,
        "channel": 0
      },
      {
        "type": "note_on",
        "time": 0,
        "note": 58,
        "velocity": 0,
        "channel": 0
      },
      {
        "type": "note_on",
        "time": 0,
        "note": 54,
        "velocity": 0,
        "channel": 0
      },
      {
        "type": "note_on",
        "time": 0,
        "note": 49,
        "velocity": 0,
        "channel": 0
      },
      {
        "type": "note_on",
        "time": 0,
        "note": 42,
        "velocity": 0,
        "channel": 0
      },
      {
        "type": "note_on",
        "time": 1,
        "note": 66,
        "velocity": 60,
        "channel": 0
      },
      {
        "type": "note_on",
        "time": 0,
        "note": 61,
        "velocity": 60,
        "channel": 0
      },
      {
        "type": "note_on",
        "time": 0,
        "note": 58,
        "velocity": 60,
        "channel": 0
      },
      {
        "type": "note_on",
        "time": 0,
        "note": 54,
        "velocity": 60,
        "channel": 0
      },
      {
        "type": "note_on",
        "time": 0,
        "note": 49,
        "velocity": 60,
        "channel": 0
      },
      {
        "type": "note_on",
        "time": 0,
        "note": 42,
        "velocity": 60,
        "channel": 0
      },
      {
        "type": "note_on",
        "time": 29,
        "note": 66,
        "velocity": 0,
        "channel": 0
      },
      {
        "type": "note_on",
        "time": 0,
        "note": 61,
        "velocity": 0,
        "channel": 0
      },
      {
        "type": "note_on",
        "time": 0,
        "note": 58,
        "velocity": 0,
        "channel": 0
      },
      {
        "type": "note_on",
        "time": 0,
        "note": 54,
        "velocity": 0,
        "channel": 0
      },
      {
        "type": "note_on",
        "time": 0,
        "note": 49,
        "velocity": 0,
        "channel": 0
      },
      {
        "type": "note_on",
        "time": 0,
        "note": 42,
        "velocity": 0,
        "channel": 0
      },
      {
        "type": "note_on",
        "time": 1,
        "note": 66,
        "velocity": 60,
        "channel": 0
      },
      {
        "type": "note_on",
        "time": 0,
        "note": 61,
        "velocity": 60,
        "channel": 0
      },
      {
        "type": "note_on",
        "time": 0,
        "note": 58,
        "velocity": 60,
        "channel": 0
      },
      {
        "type": "note_on",
        "time": 0,
        "note": 54,
        "velocity": 60,
        "channel": 0
      },
      {
        "type": "note_on",
        "time": 0,
        "note": 49,
        "velocity": 60,
        "channel": 0
      },
      {
        "type": "note_on",
        "time": 0,
        "note": 42,
        "velocity": 60,
        "channel": 0
      },
      {
        "type": "note_on",
        "time": 29,
        "note": 66,
        "velocity": 0,
        "channel": 0
      },
      {
        "type": "note_on",
        "time": 0,
        "note": 61,
        "velocity": 0,
        "channel": 0
      },
      {
        "type": "note_on",
        "time": 0,
        "note": 58,
        "velocity": 0,
        "channel": 0
      },
      {
        "type": "note_on",
        "time": 0,
        "note": 54,
        "velocity": 0,
        "channel": 0
      },
      {
        "type": "note_on",
        "time": 0,
        "note": 49,
        "velocity": 0,
        "channel": 0
      },
      {
        "type": "note_on",
        "time": 0,
        "note": 42,
        "velocity": 0,
        "channel": 0
      },
      {
        "type": "note_on",
        "time": 1,
        "note": 40,
        "velocity": 60,
        "channel": 0
      },
      {
        "type": "note_on",
        "time": 0,
        "note": 45,
        "velocity": 60,
        "channel": 0
      },
      {
        "type": "note_on",
        "time": 0,
        "note": 52,
        "velocity": 60,
        "channel": 0
      },
      {
        "type": "note_on",
        "time": 0,
        "note": 57,
        "velocity": 60,
        "channel": 0
      },
      {
        "type": "note_on",
        "time": 0,
        "note": 61,
        "velocity": 60,
        "channel": 0
      },
      {
        "type": "note_on",
        "time": 0,
        "note": 64,
        "velocity": 60,
        "channel": 0
      },
      {
        "type": "note_on",
        "time": 59,
        "note": 40,
        "velocity": 0,
        "channel": 0
      },
      {
        "type": "note_on",
        "time": 0,
        "note": 45,
        "velocity": 0,
        "channel": 0
      },
      {
        "type": "note_on",
        "time": 0,
        "note": 52,
        "velocity": 0,
        "channel": 0
      },
      {
        "type": "note_on",
        "time": 0,
        "note": 57,
        "velocity": 0,
        "channel": 0
      },
      {
        "type": "note_on",
        "time": 0,
        "note": 61,
        "velocity": 0,
        "channel": 0
      },
      {
        "type": "note_on",
        "time": 0,
        "note": 64,
        "velocity": 0,
        "channel": 0
      },
      {
        "type": "note_on",
        "time": 1,
        "note": 64,
        "velocity": 60,
        "channel": 0
      },
      {
        "type": "note_on",
        "time": 0,
        "note": 61,
        "velocity": 60,
        "channel": 0
      },
      {
        "type": "note_on",
        "time": 0,
        "note": 57,
        "velocity": 60,
        "channel": 0
      },
      {
        "type": "note_on",
        "time": 0,
        "note": 52,
        "velocity": 60,
        "channel": 0
      },
      {
        "type": "note_on",
        "time": 0,
        "note": 45,
        "velocity": 60,
        "channel": 0
      },
      {
        "type": "note_on",
        "time": 0,
        "note": 40,
        "velocity": 60,
        "channel": 0
      },
      {
        "type": "note_on",
        "time": 29,
        "note": 64,
        "velocity": 0,
        "channel": 0
      },
      {
        "type": "note_on",
        "time": 0,
        "note": 61,
        "velocity": 0,
        "channel": 0
      },
      {
        "type": "note_on",
        "time": 0,
        "note": 57,
        "velocity": 0,
        "channel": 0
      },
      {
        "type": "note_on",
        "time": 0,
        "note": 52,
        "velocity": 0,
        "channel": 0
      },
      {
        "type": "note_on",
        "time": 0,
        "note": 45,
        "velocity": 0,
        "channel": 0
      },
      {
        "type": "note_on",
        "time": 0,
        "note": 40,
        "velocity": 0,
        "channel": 0
      },
      {
        "type": "note_on",
        "time": 1,
        "note": 64,
        "velocity": 60,
        "channel": 0
      },
      {
        "type": "note_on",
        "time": 0,
        "note": 61,
        "velocity": 60,
        "channel": 0
      },
      {
        "type": "note_on",
        "time": 0,
        "note": 57,
        "velocity": 60,
        "channel": 0
      },
      {
        "type": "note_on",
        "time": 0,
        "note": 52,
        "velocity": 60,
        "channel": 0
      },
      {
        "type": "note_on",
        "time": 0,
        "note": 45,
        "velocity": 60,
        "channel": 0
      },
      {
        "type": "note_on",
        "time": 0,
        "note": 40,
        "velocity": 60,
        "channel": 0
      },
      {
        "type": "note_on",
        "time": 29,
        "note": 64,
        "velocity": 0,
        "channel": 0
      },
      {
        "type": "note_on",
        "time": 0,
        "note": 61,
        "velocity": 0,
        "channel": 0
      },
      {
        "type": "note_on",
        "time": 0,
        "note": 57,
        "velocity": 0,
        "channel": 0
      },
      {
        "type": "note_on",
        "time": 0,
        "note": 52,
        "velocity": 0,
        "channel": 0
      },
      {
        "type": "note_on",
        "time": 0,
        "note": 45,
        "velocity": 0,
        "channel": 0
      },
      {
        "type": "note_on",
        "time": 0,
        "note": 40,
        "velocity": 0,
        "channel": 0
      },
      {
        "type": "note_on",
        "time": 1,
        "note": 64,
        "velocity": 60,
        "channel": 0
      },
      {
        "type": "note_on",
        "time": 0,
        "note": 61,
        "velocity": 60,
        "channel": 0
      },
      {
        "type": "note_on",
        "time": 0,
        "note": 57,
        "velocity": 60,
        "channel": 0
      },
      {
        "type": "note_on",
        "time": 0,
        "note": 52,
        "velocity": 60,
        "channel": 0
      },
      {
        "type": "note_on",
        "time": 0,
        "note": 45,
        "velocity": 60,
        "channel": 0
      },
      {
        "type": "note_on",
        "time": 0,
        "note": 40,
        "velocity": 60,
        "channel": 0
      },
      {
        "type": "note_on",
        "time": 59,
        "note": 64,
        "velocity": 0,
        "channel": 0
      },
      {
        "type": "note_on",
        "time": 0,
        "note": 61,
        "velocity": 0,
        "channel": 0
      },
      {
        "type": "note_on",
        "time": 0,
        "note": 57,
        "velocity": 0,
        "channel": 0
      },
      {
        "type": "note_on",
        "time": 0,
        "note": 52,
        "velocity": 0,
        "channel": 0
      },
      {
        "type": "note_on",
        "time": 0,
        "note": 45,
        "velocity": 0,
        "channel": 0
      },
      {
        "type": "note_on",
        "time": 0,
        "note": 40,
        "velocity": 0,
        "channel": 0
      },
      {
        "type": "note_on",
        "time": 1,
        "note": 64,
        "velocity": 60,
        "channel": 0
      },
      {
        "type": "note_on",
        "time": 0,
        "note": 61,
        "velocity": 60,
        "channel": 0
      },
      {
        "type": "note_on",
        "time": 0,
        "note": 57,
        "velocity": 60,
        "channel": 0
      },
      {
        "type": "note_on",
        "time": 0,
        "note": 52,
        "velocity": 60,
        "channel": 0
      },
      {
        "type": "note_on",
        "time": 0,
        "note": 45,
        "velocity": 60,
        "channel": 0
      },
      {
        "type": "note_on",
        "time": 0,
        "note": 40,
        "velocity": 60,
        "channel": 0
      },
      {
        "type": "note_on",
        "time": 29,
        "note": 64,
        "velocity": 0,
        "channel": 0
      },
      {
        "type": "note_on",
        "time": 0,
        "note": 61,
        "velocity": 0,
        "channel": 0
      },
      {
        "type": "note_on",
        "time": 0,
        "note": 57,
        "velocity": 0,
        "channel": 0
      },
      {
        "type": "note_on",
        "time": 0,
        "note": 52,
        "velocity": 0,
        "channel": 0
      },
      {
        "type": "note_on",
        "time": 0,
        "note": 45,
        "velocity": 0,
        "channel": 0
      },
      {
        "type": "note_on",
        "time": 0,
        "note": 40,
        "velocity": 0,
        "channel": 0
      },
      {
        "type": "note_on",
        "time": 1,
        "note": 64,
        "velocity": 60,
        "channel": 0
      },
      {
        "type": "note_on",
        "time": 0,
        "note": 61,
        "velocity": 60,
        "channel": 0
      },
      {
        "type": "note_on",
        "time": 0,
        "note": 57,
        "velocity": 60,
        "channel": 0
      },
      {
        "type": "note_on",
        "time": 0,
        "note": 52,
        "velocity": 60,
        "channel": 0
      },
      {
        "type": "note_on",
        "time": 0,
        "note": 45,
        "velocity": 60,
        "channel": 0
      },
      {
        "type": "note_on",
        "time": 0,
        "note": 40,
        "velocity": 60,
        "channel": 0
      },
      {
        "type": "note_on",
        "time": 29,
        "note": 64,
        "velocity": 0,
        "channel": 0
      },
      {
        "type": "note_on",
        "time": 0,
        "note": 61,
        "velocity": 0,
        "channel": 0
      },
      {
        "type": "note_on",
        "time": 0,
        "note": 57,
        "velocity": 0,
        "channel": 0
      },
      {
        "type": "note_on",
        "time": 0,
        "note": 52,
        "velocity": 0,
        "channel": 0
      },
      {
        "type": "note_on",
        "time": 0,
        "note": 45,
        "velocity": 0,
        "channel": 0
      },
      {
        "type": "note_on",
        "time": 0,
        "note": 40,
        "velocity": 0,
        "channel": 0
      },
      {
        "type": "note_on",
        "time": 1,
        "note": 64,
        "velocity": 60,
        "channel": 0
      },
      {
        "type": "note_on",
        "time": 0,
        "note": 61,
        "velocity": 60,
        "channel": 0
      },
      {
        "type": "note_on",
        "time": 0,
        "note": 57,
        "velocity": 60,
        "channel": 0
      },
      {
        "type": "note_on",
        "time": 0,
        "note": 52,
        "velocity": 60,
        "channel": 0
      },
      {
        "type": "note_on",
        "time": 0,
        "note": 45,
        "velocity": 60,
        "channel": 0
      },
      {
        "type": "note_on",
        "time": 0,
        "note": 40,
        "velocity": 60,
        "channel": 0
      },
      {
        "type": "note_on",
        "time": 29,
        "note": 64,
        "velocity": 0,
        "channel": 0
      },
      {
        "type": "note_on",
        "time": 0,
        "note": 61,
        "velocity": 0,
        "channel": 0
      },
      {
        "type": "note_on",
        "time": 0,
        "note": 57,
        "velocity": 0,
        "channel": 0
      },
      {
        "type": "note_on",
        "time": 0,
        "note": 52,
        "velocity": 0,
        "channel": 0
      },
      {
        "type": "note_on",
        "time": 0,
        "note": 45,
        "velocity": 0,
        "channel": 0
      },
      {
        "type": "note_on",
        "time": 0,
        "note": 40,
        "velocity": 0,
        "channel": 0
      },
      {
        "type": "note_on",
        "time": 1,
        "note": 64,
        "velocity": 60,
        "channel": 0
      },
      {
        "type": "note_on",
        "time": 0,
        "note": 61,
        "velocity": 60,
        "channel": 0
      },
      {
        "type": "note_on",
        "time": 0,
        "note": 57,
        "velocity": 60,
        "channel": 0
      },
      {
        "type": "note_on",
        "time": 0,
        "note": 52,
        "velocity": 60,
        "channel": 0
      },
      {
        "type": "note_on",
        "time": 0,
        "note": 45,
        "velocity": 60,
        "channel": 0
      },
      {
        "type": "note_on",
        "time": 0,
        "note": 40,
        "velocity": 60,
        "channel": 0
      },
      {
        "type": "note_on",
        "time": 29,
        "note": 64,
        "velocity": 0,
        "channel": 0
      },
      {
        "type": "note_on",
        "time": 0,
        "note": 61,
        "velocity": 0,
        "channel": 0
      },
      {
        "type": "note_on",
        "time": 0,
        "note": 57,
        "velocity": 0,
        "channel": 0
      },
      {
        "type": "note_on",
        "time": 0,
        "note": 52,
        "velocity": 0,
        "channel": 0
      },
      {
        "type": "note_on",
        "time": 0,
        "note": 45,
        "velocity": 0,
        "channel": 0
      },
      {
        "type": "note_on",
        "time": 0,
        "note": 40,
        "velocity": 0,
        "channel": 0
      },
      {
        "type": "note_on",
        "time": 1,
        "note": 64,
        "velocity": 60,
        "channel": 0
      },
      {
        "type": "note_on",
        "time": 0,
        "note": 61,
        "velocity": 60,
        "channel": 0
      },
      {
        "type": "note_on",
        "time": 0,
        "note": 57,
        "velocity": 60,
        "channel": 0
      },
      {
        "type": "note_on",
        "time": 0,
        "note": 52,
        "velocity": 60,
        "channel": 0
      },
      {
        "type": "note_on",
        "time": 0,
        "note": 45,
        "velocity": 60,
        "channel": 0
      },
      {
        "type": "note_on",
        "time": 0,
        "note": 40,
        "velocity": 60,
        "channel": 0
      },
      {
        "type": "note_on",
        "time": 29,
        "note": 64,
        "velocity": 0,
        "channel": 0
      },
      {
        "type": "note_on",
        "time": 0,
        "note": 61,
        "velocity": 0,
        "channel": 0
      },
      {
        "type": "note_on",
        "time": 0,
        "note": 57,
        "velocity": 0,
        "channel": 0
      },
      {
        "type": "note_on",
        "time": 0,
        "note": 52,
        "velocity": 0,
        "channel": 0
      },
      {
        "type": "note_on",
        "time": 0,
        "note": 45,
        "velocity": 0,
        "channel": 0
      },
      {
        "type": "note_on",
        "time": 0,
        "note": 40,
        "velocity": 0,
        "channel": 0
      },
      {
        "type": "note_on",
        "time": 1,
        "note": 64,
        "velocity": 60,
        "channel": 0
      },
      {
        "type": "note_on",
        "time": 0,
        "note": 61,
        "velocity": 60,
        "channel": 0
      },
      {
        "type": "note_on",
        "time": 0,
        "note": 57,
        "velocity": 60,
        "channel": 0
      },
      {
        "type": "note_on",
        "time": 0,
        "note": 52,
        "velocity": 60,
        "channel": 0
      },
      {
        "type": "note_on",
        "time": 0,
        "note": 45,
        "velocity": 60,
        "channel": 0
      },
      {
        "type": "note_on",
        "time": 0,
        "note": 40,
        "velocity": 60,
        "channel": 0
      },
      {
        "type": "note_on",
        "time": 59,
        "note": 64,
        "velocity": 0,
        "channel": 0
      },
      {
        "type": "note_on",
        "time": 0,
        "note": 61,
        "velocity": 0,
        "channel": 0
      },
      {
        "type": "note_on",
        "time": 0,
        "note": 57,
        "velocity": 0,
        "channel": 0
      },
      {
        "type": "note_on",
        "time": 0,
        "note": 52,
        "velocity": 0,
        "channel": 0
      },
      {
        "type": "note_on",
        "time": 0,
        "note": 45,
        "velocity": 0,
        "channel": 0
      },
      {
        "type": "note_on",
        "time": 0,
        "note": 40,
        "velocity": 0,
        "channel": 0
      },
      {
        "type": "note_on",
        "time": 1,
        "note": 64,
        "velocity": 60,
        "channel": 0
      },
      {
        "type": "note_on",
        "time": 0,
        "note": 61,
        "velocity": 60,
        "channel": 0
      },
      {
        "type": "note_on",
        "time": 0,
        "note": 57,
        "velocity": 60,
        "channel": 0
      },
      {
        "type": "note_on",
        "time": 0,
        "note": 52,
        "velocity": 60,
        "channel": 0
      },
      {
        "type": "note_on",
        "time": 0,
        "note": 45,
        "velocity": 60,
        "channel": 0
      },
      {
        "type": "note_on",
        "time": 0,
        "note": 40,
        "velocity": 60,
        "channel": 0
      },
      {
        "type": "note_on",
        "time": 29,
        "note": 64,
        "velocity": 0,
        "channel": 0
      },
      {
        "type": "note_on",
        "time": 0,
        "note": 61,
        "velocity": 0,
        "channel": 0
      },
      {
        "type": "note_on",
        "time": 0,
        "note": 57,
        "velocity": 0,
        "channel": 0
      },
      {
        "type": "note_on",
        "time": 0,
        "note": 52,
        "velocity": 0,
        "channel": 0
      },
      {
        "type": "note_on",
        "time": 0,
        "note": 45,
        "velocity": 0,
        "channel": 0
      },
      {
        "type": "note_on",
        "time": 0,
        "note": 40,
        "velocity": 0,
        "channel": 0
      },
      {
        "type": "note_on",
        "time": 1,
        "note": 64,
        "velocity": 60,
        "channel": 0
      },
      {
        "type": "note_on",
        "time": 0,
        "note": 61,
        "velocity": 60,
        "channel": 0
      },
      {
        "type": "note_on",
        "time": 0,
        "note": 57,
        "velocity": 60,
        "channel": 0
      },
      {
        "type": "note_on",
        "time": 0,
        "note": 52,
        "velocity": 60,
        "channel": 0
      },
      {
        "type": "note_on",
        "time": 0,
        "note": 45,
        "velocity": 60,
        "channel": 0
      },
      {
        "type": "note_on",
        "time": 0,
        "note": 40,
        "velocity": 60,
        "channel": 0
      },
      {
        "type": "note_on",
        "time": 59,
        "note": 64,
        "velocity": 0,
        "channel": 0
      },
      {
        "type": "note_on",
        "time": 0,
        "note": 61,
        "velocity": 0,
        "channel": 0
      },
      {
        "type": "note_on",
        "time": 0,
        "note": 57,
        "velocity": 0,
        "channel": 0
      },
      {
        "type": "note_on",
        "time": 0,
        "note": 52,
        "velocity": 0,
        "channel": 0
      },
      {
        "type": "note_on",
        "time": 0,
        "note": 45,
        "velocity": 0,
        "channel": 0
      },
      {
        "type": "note_on",
        "time": 0,
        "note": 40,
        "velocity": 0,
        "channel": 0
      },
      {
        "type": "note_on",
        "time": 1,
        "note": 40,
        "velocity": 60,
        "channel": 0
      },
      {
        "type": "note_on",
        "time": 0,
        "note": 47,
        "velocity": 60,
        "channel": 0
      },
      {
        "type": "note_on",
        "time": 0,
        "note": 52,
        "velocity": 60,
        "channel": 0
      },
      {
        "type": "note_on",
        "time": 0,
        "note": 56,
        "velocity": 60,
        "channel": 0
      },
      {
        "type": "note_on",
        "time": 0,
        "note": 59,
        "velocity": 60,
        "channel": 0
      },
      {
        "type": "note_on",
        "time": 0,
        "note": 64,
        "velocity": 60,
        "channel": 0
      },
      {
        "type": "note_on",
        "time": 59,
        "note": 40,
        "velocity": 0,
        "channel": 0
      },
      {
        "type": "note_on",
        "time": 0,
        "note": 47,
        "velocity": 0,
        "channel": 0
      },
      {
        "type": "note_on",
        "time": 0,
        "note": 52,
        "velocity": 0,
        "channel": 0
      },
      {
        "type": "note_on",
        "time": 0,
        "note": 56,
        "velocity": 0,
        "channel": 0
      },
      {
        "type": "note_on",
        "time": 0,
        "note": 59,
        "velocity": 0,
        "channel": 0
      },
      {
        "type": "note_on",
        "time": 0,
        "note": 64,
        "velocity": 0,
        "channel": 0
      },
      {
        "type": "note_on",
        "time": 1,
        "note": 64,
        "velocity": 60,
        "channel": 0
      },
      {
        "type": "note_on",
        "time": 0,
        "note": 59,
        "velocity": 60,
        "channel": 0
      },
      {
        "type": "note_on",
        "time": 0,
        "note": 56,
        "velocity": 60,
        "channel": 0
      },
      {
        "type": "note_on",
        "time": 0,
        "note": 52,
        "velocity": 60,
        "channel": 0
      },
      {
        "type": "note_on",
        "time": 0,
        "note": 47,
        "velocity": 60,
        "channel": 0
      },
      {
        "type": "note_on",
        "time": 0,
        "note": 40,
        "velocity": 60,
        "channel": 0
      },
      {
        "type": "note_on",
        "time": 29,
        "note": 64,
        "velocity": 0,
        "channel": 0
      },
      {
        "type": "note_on",
        "time": 0,
        "note": 59,
        "velocity": 0,
        "channel": 0
      },
      {
        "type": "note_on",
        "time": 0,
        "note": 56,
        "velocity": 0,
        "channel": 0
      },
      {
        "type": "note_on",
        "time": 0,
        "note": 52,
        "velocity": 0,
        "channel": 0
      },
      {
        "type": "note_on",
        "time": 0,
        "note": 47,
        "velocity": 0,
        "channel": 0
      },
      {
        "type": "note_on",
        "time": 0,
        "note": 40,
        "velocity": 0,
        "channel": 0
      },
      {
        "type": "note_on",
        "time": 1,
        "note": 64,
        "velocity": 60,
        "channel": 0
      },
      {
        "type": "note_on",
        "time": 0,
        "note": 59,
        "velocity": 60,
        "channel": 0
      },
      {
        "type": "note_on",
        "time": 0,
        "note": 56,
        "velocity": 60,
        "channel": 0
      },
      {
        "type": "note_on",
        "time": 0,
        "note": 52,
        "velocity": 60,
        "channel": 0
      },
      {
        "type": "note_on",
        "time": 0,
        "note": 47,
        "velocity": 60,
        "channel": 0
      },
      {
        "type": "note_on",
        "time": 0,
        "note": 40,
        "velocity": 60,
        "channel": 0
      },
      {
        "type": "note_on",
        "time": 29,
        "note": 64,
        "velocity": 0,
        "channel": 0
      },
      {
        "type": "note_on",
        "time": 0,
        "note": 59,
        "velocity": 0,
        "channel": 0
      },
      {
        "type": "note_on",
        "time": 0,
        "note": 56,
        "velocity": 0,
        "channel": 0
      },
      {
        "type": "note_on",
        "time": 0,
        "note": 52,
        "velocity": 0,
        "channel": 0
      },
      {
        "type": "note_on",
        "time": 0,
        "note": 47,
        "velocity": 0,
        "channel": 0
      },
      {
        "type": "note_on",
        "time": 0,
        "note": 40,
        "velocity": 0,
        "channel": 0
      },
      {
        "type": "note_on",
        "time": 1,
        "note": 64,
        "velocity": 60,
        "channel": 0
      },
      {
        "type": "note_on",
        "time": 0,
        "note": 59,
        "velocity": 60,
        "channel": 0
      },
      {
        "type": "note_on",
        "time": 0,
        "note": 56,
        "velocity": 60,
        "channel": 0
      },
      {
        "type": "note_on",
        "time": 0,
        "note": 52,
        "velocity": 60,
        "channel": 0
      },
      {
        "type": "note_on",
        "time": 0,
        "note": 47,
        "velocity": 60,
        "channel": 0
      },
      {
        "type": "note_on",
        "time": 0,
        "note": 40,
        "velocity": 60,
        "channel": 0
      },
      {
        "type": "note_on",
        "time": 59,
        "note": 64,
        "velocity": 0,
        "channel": 0
      },
      {
        "type": "note_on",
        "time": 0,
        "note": 59,
        "velocity": 0,
        "channel": 0
      },
      {
        "type": "note_on",
        "time": 0,
        "note": 56,
        "velocity": 0,
        "channel": 0
      },
      {
        "type": "note_on",
        "time": 0,
        "note": 52,
        "velocity": 0,
        "channel": 0
      },
      {
        "type": "note_on",
        "time": 0,
        "note": 47,
        "velocity": 0,
        "channel": 0
      },
      {
        "type": "note_on",
        "time": 0,
        "note": 40,
        "velocity": 0,
        "channel": 0
      },
      {
        "type": "note_on",
        "time": 1,
        "note": 64,
        "velocity": 60,
        "channel": 0
      },
      {
        "type": "note_on",
        "time": 0,
        "note": 59,
        "velocity": 60,
        "channel": 0
      },
      {
        "type": "note_on",
        "time": 0,
        "note": 56,
        "velocity": 60,
        "channel": 0
      },
      {
        "type": "note_on",
        "time": 0,
        "note": 52,
        "velocity": 60,
        "channel": 0
      },
      {
        "type": "note_on",
        "time": 0,
        "note": 47,
        "velocity": 60,
        "channel": 0
      },
      {
        "type": "note_on",
        "time": 0,
        "note": 40,
        "velocity": 60,
        "channel": 0
      },
      {
        "type": "note_on",
        "time": 29,
        "note": 64,
        "velocity": 0,
        "channel": 0
      },
      {
        "type": "note_on",
        "time": 0,
        "note": 59,
        "velocity": 0,
        "channel": 0
      },
      {
        "type": "note_on",
        "time": 0,
        "note": 56,
        "velocity": 0,
        "channel": 0
      },
      {
        "type": "note_on",
        "time": 0,
        "note": 52,
        "velocity": 0,
        "channel": 0
      },
      {
        "type": "note_on",
        "time": 0,
        "note": 47,
        "velocity": 0,
        "channel": 0
      },
      {
        "type": "note_on",
        "time": 0,
        "note": 40,
        "velocity": 0,
        "channel": 0
      },
      {
        "type": "note_on",
        "time": 1,
        "note": 64,
        "velocity": 60,
        "channel": 0
      },
      {
        "type": "note_on",
        "time": 0,
        "note": 59,
        "velocity": 60,
        "channel": 0
      },
      {
        "type": "note_on",
        "time": 0,
        "note": 56,
        "velocity": 60,
        "channel": 0
      },
      {
        "type": "note_on",
        "time": 0,
        "note": 52,
        "velocity": 60,
        "channel": 0
      },
      {
        "type": "note_on",
        "time": 0,
        "note": 47,
        "velocity": 60,
        "channel": 0
      },
      {
        "type": "note_on",
        "time": 0,
        "note": 40,
        "velocity": 60,
        "channel": 0
      },
      {
        "type": "note_on",
        "time": 29,
        "note": 64,
        "velocity": 0,
        "channel": 0
      },
      {
        "type": "note_on",
        "time": 0,
        "note": 59,
        "velocity": 0,
        "channel": 0
      },
      {
        "type": "note_on",
        "time": 0,
        "note": 56,
        "velocity": 0,
        "channel": 0
      },
      {
        "type": "note_on",
        "time": 0,
        "note": 52,
        "velocity": 0,
        "channel": 0
      },
      {
        "type": "note_on",
        "time": 0,
        "note": 47,
        "velocity": 0,
        "channel": 0
      },
      {
        "type": "note_on",
        "time": 0,
        "note": 40,
        "velocity": 0,
        "channel": 0
      },
      {
        "type": "note_on",
        "time": 1,
        "note": 64,
        "velocity": 60,
        "channel": 0
      },
      {
        "type": "note_on",
        "time": 0,
        "note": 59,
        "velocity": 60,
        "channel": 0
      },
      {
        "type": "note_on",
        "time": 0,
        "note": 56,
        "velocity": 60,
        "channel": 0
      },
      {
        "type": "note_on",
        "time": 0,
        "note": 52,
        "velocity": 60,
        "channel": 0
      },
      {
        "type": "note_on",
        "time": 0,
        "note": 47,
        "velocity": 60,
        "channel": 0
      },
      {
        "type": "note_on",
        "time": 0,
        "note": 40,
        "velocity": 60,
        "channel": 0
      },
      {
        "type": "note_on",
        "time": 239,
        "note": 64,
        "velocity": 0,
        "channel": 0
      },
      {
        "type": "note_on",
        "time": 0,
        "note": 59,
        "velocity": 0,
        "channel": 0
      },
      {
        "type": "note_on",
        "time": 0,
        "note": 56,
        "velocity": 0,
        "channel": 0
      },
      {
        "type": "note_on",
        "time": 0,
        "note": 52,
        "velocity": 0,
        "channel": 0
      },
      {
        "type": "note_on",
        "time": 0,
        "note": 47,
        "velocity": 0,
        "channel": 0
      },
      {
        "type": "note_on",
        "time": 0,
        "note": 40,
        "velocity": 0,
        "channel": 0
      },
      {
        "type": "note_on",
        "time": 1,
        "note": 43,
        "velocity": 60,
        "channel": 0
      },
      {
        "type": "note_on",
        "time": 0,
        "note": 50,
        "velocity": 60,
        "channel": 0
      },
      {
        "type": "note_on",
        "time": 0,
        "note": 55,
        "velocity": 60,
        "channel": 0
      },
      {
        "type": "note_on",
        "time": 0,
        "note": 59,
        "velocity": 60,
        "channel": 0
      },
      {
        "type": "note_on",
        "time": 0,
        "note": 62,
        "velocity": 60,
        "channel": 0
      },
      {
        "type": "note_on",
        "time": 0,
        "note": 67,
        "velocity": 60,
        "channel": 0
      },
      {
        "type": "note_on",
        "time": 59,
        "note": 43,
        "velocity": 0,
        "channel": 0
      },
      {
        "type": "note_on",
        "time": 0,
        "note": 50,
        "velocity": 0,
        "channel": 0
      },
      {
        "type": "note_on",
        "time": 0,
        "note": 55,
        "velocity": 0,
        "channel": 0
      },
      {
        "type": "note_on",
        "time": 0,
        "note": 59,
        "velocity": 0,
        "channel": 0
      },
      {
        "type": "note_on",
        "time": 0,
        "note": 62,
        "velocity": 0,
        "channel": 0
      },
      {
        "type": "note_on",
        "time": 0,
        "note": 67,
        "velocity": 0,
        "channel": 0
      },
      {
        "type": "note_on",
        "time": 1,
        "note": 67,
        "velocity": 60,
        "channel": 0
      },
      {
        "type": "note_on",
        "time": 0,
        "note": 62,
        "velocity": 60,
        "channel": 0
      },
      {
        "type": "note_on",
        "time": 0,
        "note": 59,
        "velocity": 60,
        "channel": 0
      },
      {
        "type": "note_on",
        "time": 0,
        "note": 55,
        "velocity": 60,
        "channel": 0
      },
      {
        "type": "note_on",
        "time": 0,
        "note": 50,
        "velocity": 60,
        "channel": 0
      },
      {
        "type": "note_on",
        "time": 0,
        "note": 43,
        "velocity": 60,
        "channel": 0
      },
      {
        "type": "note_on",
        "time": 29,
        "note": 67,
        "velocity": 0,
        "channel": 0
      },
      {
        "type": "note_on",
        "time": 0,
        "note": 62,
        "velocity": 0,
        "channel": 0
      },
      {
        "type": "note_on",
        "time": 0,
        "note": 59,
        "velocity": 0,
        "channel": 0
      },
      {
        "type": "note_on",
        "time": 0,
        "note": 55,
        "velocity": 0,
        "channel": 0
      },
      {
        "type": "note_on",
        "time": 0,
        "note": 50,
        "velocity": 0,
        "channel": 0
      },
      {
        "type": "note_on",
        "time": 0,
        "note": 43,
        "velocity": 0,
        "channel": 0
      },
      {
        "type": "note_on",
        "time": 1,
        "note": 67,
        "velocity": 60,
        "channel": 0
      },
      {
        "type": "note_on",
        "time": 0,
        "note": 62,
        "velocity": 60,
        "channel": 0
      },
      {
        "type": "note_on",
        "time": 0,
        "note": 59,
        "velocity": 60,
        "channel": 0
      },
      {
        "type": "note_on",
        "time": 0,
        "note": 55,
        "velocity": 60,
        "channel": 0
      },
      {
        "type": "note_on",
        "time": 0,
        "note": 50,
        "velocity": 60,
        "channel": 0
      },
      {
        "type": "note_on",
        "time": 0,
        "note": 43,
        "velocity": 60,
        "channel": 0
      },
      {
        "type": "note_on",
        "time": 29,
        "note": 67,
        "velocity": 0,
        "channel": 0
      },
      {
        "type": "note_on",
        "time": 0,
        "note": 62,
        "velocity": 0,
        "channel": 0
      },
      {
        "type": "note_on",
        "time": 0,
        "note": 59,
        "velocity": 0,
        "channel": 0
      },
      {
        "type": "note_on",
        "time": 0,
        "note": 55,
        "velocity": 0,
        "channel": 0
      },
      {
        "type": "note_on",
        "time": 0,
        "note": 50,
        "velocity": 0,
        "channel": 0
      },
      {
        "type": "note_on",
        "time": 0,
        "note": 43,
        "velocity": 0,
        "channel": 0
      },
      {
        "type": "note_on",
        "time": 1,
        "note": 67,
        "velocity": 60,
        "channel": 0
      },
      {
        "type": "note_on",
        "time": 0,
        "note": 62,
        "velocity": 60,
        "channel": 0
      },
      {
        "type": "note_on",
        "time": 0,
        "note": 59,
        "velocity": 60,
        "channel": 0
      },
      {
        "type": "note_on",
        "time": 0,
        "note": 55,
        "velocity": 60,
        "channel": 0
      },
      {
        "type": "note_on",
        "time": 0,
        "note": 50,
        "velocity": 60,
        "channel": 0
      },
      {
        "type": "note_on",
        "time": 0,
        "note": 43,
        "velocity": 60,
        "channel": 0
      },
      {
        "type": "note_on",
        "time": 59,
        "note": 67,
        "velocity": 0,
        "channel": 0
      },
      {
        "type": "note_on",
        "time": 0,
        "note": 62,
        "velocity": 0,
        "channel": 0
      },
      {
        "type": "note_on",
        "time": 0,
        "note": 59,
        "velocity": 0,
        "channel": 0
      },
      {
        "type": "note_on",
        "time": 0,
        "note": 55,
        "velocity": 0,
        "channel": 0
      },
      {
        "type": "note_on",
        "time": 0,
        "note": 50,
        "velocity": 0,
        "channel": 0
      },
      {
        "type": "note_on",
        "time": 0,
        "note": 43,
        "velocity": 0,
        "channel": 0
      },
      {
        "type": "note_on",
        "time": 1,
        "note": 67,
        "velocity": 60,
        "channel": 0
      },
      {
        "type": "note_on",
        "time": 0,
        "note": 62,
        "velocity": 60,
        "channel": 0
      },
      {
        "type": "note_on",
        "time": 0,
        "note": 59,
        "velocity": 60,
        "channel": 0
      },
      {
        "type": "note_on",
        "time": 0,
        "note": 55,
        "velocity": 60,
        "channel": 0
      },
      {
        "type": "note_on",
        "time": 0,
        "note": 50,
        "velocity": 60,
        "channel": 0
      },
      {
        "type": "note_on",
        "time": 0,
        "note": 43,
        "velocity": 60,
        "channel": 0
      },
      {
        "type": "note_on",
        "time": 29,
        "note": 67,
        "velocity": 0,
        "channel": 0
      },
      {
        "type": "note_on",
        "time": 0,
        "note": 62,
        "velocity": 0,
        "channel": 0
      },
      {
        "type": "note_on",
        "time": 0,
        "note": 59,
        "velocity": 0,
        "channel": 0
      },
      {
        "type": "note_on",
        "time": 0,
        "note": 55,
        "velocity": 0,
        "channel": 0
      },
      {
        "type": "note_on",
        "time": 0,
        "note": 50,
        "velocity": 0,
        "channel": 0
      },
      {
        "type": "note_on",
        "time": 0,
        "note": 43,
        "velocity": 0,
        "channel": 0
      },
      {
        "type": "note_on",
        "time": 1,
        "note": 67,
        "velocity": 60,
        "channel": 0
      },
      {
        "type": "note_on",
        "time": 0,
        "note": 62,
        "velocity": 60,
        "channel": 0
      },
      {
        "type": "note_on",
        "time": 0,
        "note": 59,
        "velocity": 60,
        "channel": 0
      },
      {
        "type": "note_on",
        "time": 0,
        "note": 55,
        "velocity": 60,
        "channel": 0
      },
      {
        "type": "note_on",
        "time": 0,
        "note": 50,
        "velocity": 60,
        "channel": 0
      },
      {
        "type": "note_on",
        "time": 0,
        "note": 43,
        "velocity": 60,
        "channel": 0
      },
      {
        "type": "note_on",
        "time": 29,
        "note": 67,
        "velocity": 0,
        "channel": 0
      },
      {
        "type": "note_on",
        "time": 0,
        "note": 62,
        "velocity": 0,
        "channel": 0
      },
      {
        "type": "note_on",
        "time": 0,
        "note": 59,
        "velocity": 0,
        "channel": 0
      },
      {
        "type": "note_on",
        "time": 0,
        "note": 55,
        "velocity": 0,
        "channel": 0
      },
      {
        "type": "note_on",
        "time": 0,
        "note": 50,
        "velocity": 0,
        "channel": 0
      },
      {
        "type": "note_on",
        "time": 0,
        "note": 43,
        "velocity": 0,
        "channel": 0
      },
      {
        "type": "note_on",
        "time": 1,
        "note": 67,
        "velocity": 60,
        "channel": 0
      },
      {
        "type": "note_on",
        "time": 0,
        "note": 62,
        "velocity": 60,
        "channel": 0
      },
      {
        "type": "note_on",
        "time": 0,
        "note": 59,
        "velocity": 60,
        "channel": 0
      },
      {
        "type": "note_on",
        "time": 0,
        "note": 55,
        "velocity": 60,
        "channel": 0
      },
      {
        "type": "note_on",
        "time": 0,
        "note": 50,
        "velocity": 60,
        "channel": 0
      },
      {
        "type": "note_on",
        "time": 0,
        "note": 43,
        "velocity": 60,
        "channel": 0
      },
      {
        "type": "note_on",
        "time": 29,
        "note": 67,
        "velocity": 0,
        "channel": 0
      },
      {
        "type": "note_on",
        "time": 0,
        "note": 62,
        "velocity": 0,
        "channel": 0
      },
      {
        "type": "note_on",
        "time": 0,
        "note": 59,
        "velocity": 0,
        "channel": 0
      },
      {
        "type": "note_on",
        "time": 0,
        "note": 55,
        "velocity": 0,
        "channel": 0
      },
      {
        "type": "note_on",
        "time": 0,
        "note": 50,
        "velocity": 0,
        "channel": 0
      },
      {
        "type": "note_on",
        "time": 0,
        "note": 43,
        "velocity": 0,
        "channel": 0
      },
      {
        "type": "note_on",
        "time": 1,
        "note": 67,
        "velocity": 60,
        "channel": 0
      },
      {
        "type": "note_on",
        "time": 0,
        "note": 62,
        "velocity": 60,
        "channel": 0
      },
      {
        "type": "note_on",
        "time": 0,
        "note": 59,
        "velocity": 60,
        "channel": 0
      },
      {
        "type": "note_on",
        "time": 0,
        "note": 55,
        "velocity": 60,
        "channel": 0
      },
      {
        "type": "note_on",
        "time": 0,
        "note": 50,
        "velocity": 60,
        "channel": 0
      },
      {
        "type": "note_on",
        "time": 0,
        "note": 43,
        "velocity": 60,
        "channel": 0
      },
      {
        "type": "note_on",
        "time": 29,
        "note": 67,
        "velocity": 0,
        "channel": 0
      },
      {
        "type": "note_on",
        "time": 0,
        "note": 62,
        "velocity": 0,
        "channel": 0
      },
      {
        "type": "note_on",
        "time": 0,
        "note": 59,
        "velocity": 0,
        "channel": 0
      },
      {
        "type": "note_on",
        "time": 0,
        "note": 55,
        "velocity": 0,
        "channel": 0
      },
      {
        "type": "note_on",
        "time": 0,
        "note": 50,
        "velocity": 0,
        "channel": 0
      },
      {
        "type": "note_on",
        "time": 0,
        "note": 43,
        "velocity": 0,
        "channel": 0
      },
      {
        "type": "note_on",
        "time": 1,
        "note": 67,
        "velocity": 60,
        "channel": 0
      },
      {
        "type": "note_on",
        "time": 0,
        "note": 62,
        "velocity": 60,
        "channel": 0
      },
      {
        "type": "note_on",
        "time": 0,
        "note": 59,
        "velocity": 60,
        "channel": 0
      },
      {
        "type": "note_on",
        "time": 0,
        "note": 55,
        "velocity": 60,
        "channel": 0
      },
      {
        "type": "note_on",
        "time": 0,
        "note": 50,
        "velocity": 60,
        "channel": 0
      },
      {
        "type": "note_on",
        "time": 0,
        "note": 43,
        "velocity": 60,
        "channel": 0
      },
      {
        "type": "note_on",
        "time": 29,
        "note": 67,
        "velocity": 0,
        "channel": 0
      },
      {
        "type": "note_on",
        "time": 0,
        "note": 62,
        "velocity": 0,
        "channel": 0
      },
      {
        "type": "note_on",
        "time": 0,
        "note": 59,
        "velocity": 0,
        "channel": 0
      },
      {
        "type": "note_on",
        "time": 0,
        "note": 55,
        "velocity": 0,
        "channel": 0
      },
      {
        "type": "note_on",
        "time": 0,
        "note": 50,
        "velocity": 0,
        "channel": 0
      },
      {
        "type": "note_on",
        "time": 0,
        "note": 43,
        "velocity": 0,
        "channel": 0
      },
      {
        "type": "note_on",
        "time": 1,
        "note": 67,
        "velocity": 60,
        "channel": 0
      },
      {
        "type": "note_on",
        "time": 0,
        "note": 62,
        "velocity": 60,
        "channel": 0
      },
      {
        "type": "note_on",
        "time": 0,
        "note": 59,
        "velocity": 60,
        "channel": 0
      },
      {
        "type": "note_on",
        "time": 0,
        "note": 55,
        "velocity": 60,
        "channel": 0
      },
      {
        "type": "note_on",
        "time": 0,
        "note": 50,
        "velocity": 60,
        "channel": 0
      },
      {
        "type": "note_on",
        "time": 0,
        "note": 43,
        "velocity": 60,
        "channel": 0
      },
      {
        "type": "note_on",
        "time": 59,
        "note": 67,
        "velocity": 0,
        "channel": 0
      },
      {
        "type": "note_on",
        "time": 0,
        "note": 62,
        "velocity": 0,
        "channel": 0
      },
      {
        "type": "note_on",
        "time": 0,
        "note": 59,
        "velocity": 0,
        "channel": 0
      },
      {
        "type": "note_on",
        "time": 0,
        "note": 55,
        "velocity": 0,
        "channel": 0
      },
      {
        "type": "note_on",
        "time": 0,
        "note": 50,
        "velocity": 0,
        "channel": 0
      },
      {
        "type": "note_on",
        "time": 0,
        "note": 43,
        "velocity": 0,
        "channel": 0
      },
      {
        "type": "note_on",
        "time": 1,
        "note": 67,
        "velocity": 60,
        "channel": 0
      },
      {
        "type": "note_on",
        "time": 0,
        "note": 62,
        "velocity": 60,
        "channel": 0
      },
      {
        "type": "note_on",
        "time": 0,
        "note": 59,
        "velocity": 60,
        "channel": 0
      },
      {
        "type": "note_on",
        "time": 0,
        "note": 55,
        "velocity": 60,
        "channel": 0
      },
      {
        "type": "note_on",
        "time": 0,
        "note": 50,
        "velocity": 60,
        "channel": 0
      },
      {
        "type": "note_on",
        "time": 0,
        "note": 43,
        "velocity": 60,
        "channel": 0
      },
      {
        "type": "note_on",
        "time": 29,
        "note": 67,
        "velocity": 0,
        "channel": 0
      },
      {
        "type": "note_on",
        "time": 0,
        "note": 62,
        "velocity": 0,
        "channel": 0
      },
      {
        "type": "note_on",
        "time": 0,
        "note": 59,
        "velocity": 0,
        "channel": 0
      },
      {
        "type": "note_on",
        "time": 0,
        "note": 55,
        "velocity": 0,
        "channel": 0
      },
      {
        "type": "note_on",
        "time": 0,
        "note": 50,
        "velocity": 0,
        "channel": 0
      },
      {
        "type": "note_on",
        "time": 0,
        "note": 43,
        "velocity": 0,
        "channel": 0
      },
      {
        "type": "note_on",
        "time": 1,
        "note": 67,
        "velocity": 60,
        "channel": 0
      },
      {
        "type": "note_on",
        "time": 0,
        "note": 62,
        "velocity": 60,
        "channel": 0
      },
      {
        "type": "note_on",
        "time": 0,
        "note": 59,
        "velocity": 60,
        "channel": 0
      },
      {
        "type": "note_on",
        "time": 0,
        "note": 55,
        "velocity": 60,
        "channel": 0
      },
      {
        "type": "note_on",
        "time": 0,
        "note": 50,
        "velocity": 60,
        "channel": 0
      },
      {
        "type": "note_on",
        "time": 0,
        "note": 43,
        "velocity": 60,
        "channel": 0
      },
      {
        "type": "note_on",
        "time": 59,
        "note": 67,
        "velocity": 0,
        "channel": 0
      },
      {
        "type": "note_on",
        "time": 0,
        "note": 62,
        "velocity": 0,
        "channel": 0
      },
      {
        "type": "note_on",
        "time": 0,
        "note": 59,
        "velocity": 0,
        "channel": 0
      },
      {
        "type": "note_on",
        "time": 0,
        "note": 55,
        "velocity": 0,
        "channel": 0
      },
      {
        "type": "note_on",
        "time": 0,
        "note": 50,
        "velocity": 0,
        "channel": 0
      },
      {
        "type": "note_on",
        "time": 0,
        "note": 43,
        "velocity": 0,
        "channel": 0
      },
      {
        "type": "note_on",
        "time": 1,
        "note": 45,
        "velocity": 60,
        "channel": 0
      },
      {
        "type": "note_on",
        "time": 0,
        "note": 50,
        "velocity": 60,
        "channel": 0
      },
      {
        "type": "note_on",
        "time": 0,
        "note": 57,
        "velocity": 60,
        "channel": 0
      },
      {
        "type": "note_on",
        "time": 0,
        "note": 62,
        "velocity": 60,
        "channel": 0
      },
      {
        "type": "note_on",
        "time": 0,
        "note": 66,
        "velocity": 60,
        "channel": 0
      },
      {
        "type": "note_on",
        "time": 0,
        "note": 69,
        "velocity": 60,
        "channel": 0
      },
      {
        "type": "note_on",
        "time": 59,
        "note": 45,
        "velocity": 0,
        "channel": 0
      },
      {
        "type": "note_on",
        "time": 0,
        "note": 50,
        "velocity": 0,
        "channel": 0
      },
      {
        "type": "note_on",
        "time": 0,
        "note": 57,
        "velocity": 0,
        "channel": 0
      },
      {
        "type": "note_on",
        "time": 0,
        "note": 62,
        "velocity": 0,
        "channel": 0
      },
      {
        "type": "note_on",
        "time": 0,
        "note": 66,
        "velocity": 0,
        "channel": 0
      },
      {
        "type": "note_on",
        "time": 0,
        "note": 69,
        "velocity": 0,
        "channel": 0
      },
      {
        "type": "note_on",
        "time": 1,
        "note": 69,
        "velocity": 60,
        "channel": 0
      },
      {
        "type": "note_on",
        "time": 0,
        "note": 66,
        "velocity": 60,
        "channel": 0
      },
      {
        "type": "note_on",
        "time": 0,
        "note": 62,
        "velocity": 60,
        "channel": 0
      },
      {
        "type": "note_on",
        "time": 0,
        "note": 57,
        "velocity": 60,
        "channel": 0
      },
      {
        "type": "note_on",
        "time": 0,
        "note": 50,
        "velocity": 60,
        "channel": 0
      },
      {
        "type": "note_on",
        "time": 0,
        "note": 45,
        "velocity": 60,
        "channel": 0
      },
      {
        "type": "note_on",
        "time": 29,
        "note": 69,
        "velocity": 0,
        "channel": 0
      },
      {
        "type": "note_on",
        "time": 0,
        "note": 66,
        "velocity": 0,
        "channel": 0
      },
      {
        "type": "note_on",
        "time": 0,
        "note": 62,
        "velocity": 0,
        "channel": 0
      },
      {
        "type": "note_on",
        "time": 0,
        "note": 57,
        "velocity": 0,
        "channel": 0
      },
      {
        "type": "note_on",
        "time": 0,
        "note": 50,
        "velocity": 0,
        "channel": 0
      },
      {
        "type": "note_on",
        "time": 0,
        "note": 45,
        "velocity": 0,
        "channel": 0
      },
      {
        "type": "note_on",
        "time": 1,
        "note": 69,
        "velocity": 60,
        "channel": 0
      },
      {
        "type": "note_on",
        "time": 0,
        "note": 66,
        "velocity": 60,
        "channel": 0
      },
      {
        "type": "note_on",
        "time": 0,
        "note": 62,
        "velocity": 60,
        "channel": 0
      },
      {
        "type": "note_on",
        "time": 0,
        "note": 57,
        "velocity": 60,
        "channel": 0
      },
      {
        "type": "note_on",
        "time": 0,
        "note": 50,
        "velocity": 60,
        "channel": 0
      },
      {
        "type": "note_on",
        "time": 0,
        "note": 45,
        "velocity": 60,
        "channel": 0
      },
      {
        "type": "note_on",
        "time": 29,
        "note": 69,
        "velocity": 0,
        "channel": 0
      },
      {
        "type": "note_on",
        "time": 0,
        "note": 66,
        "velocity": 0,
        "channel": 0
      },
      {
        "type": "note_on",
        "time": 0,
        "note": 62,
        "velocity": 0,
        "channel": 0
      },
      {
        "type": "note_on",
        "time": 0,
        "note": 57,
        "velocity": 0,
        "channel": 0
      },
      {
        "type": "note_on",
        "time": 0,
        "note": 50,
        "velocity": 0,
        "channel": 0
      },
      {
        "type": "note_on",
        "time": 0,
        "note": 45,
        "velocity": 0,
        "channel": 0
      },
      {
        "type": "note_on",
        "time": 1,
        "note": 69,
        "velocity": 60,
        "channel": 0
      },
      {
        "type": "note_on",
        "time": 0,
        "note": 66,
        "velocity": 60,
        "channel": 0
      },
      {
        "type": "note_on",
        "time": 0,
        "note": 62,
        "velocity": 60,
        "channel": 0
      },
      {
        "type": "note_on",
        "time": 0,
        "note": 57,
        "velocity": 60,
        "channel": 0
      },
      {
        "type": "note_on",
        "time": 0,
        "note": 50,
        "velocity": 60,
        "channel": 0
      },
      {
        "type": "note_on",
        "time": 0,
        "note": 45,
        "velocity": 60,
        "channel": 0
      },
      {
        "type": "note_on",
        "time": 29,
        "note": 69,
        "velocity": 0,
        "channel": 0
      },
      {
        "type": "note_on",
        "time": 0,
        "note": 66,
        "velocity": 0,
        "channel": 0
      },
      {
        "type": "note_on",
        "time": 0,
        "note": 62,
        "velocity": 0,
        "channel": 0
      },
      {
        "type": "note_on",
        "time": 0,
        "note": 57,
        "velocity": 0,
        "channel": 0
      },
      {
        "type": "note_on",
        "time": 0,
        "note": 50,
        "velocity": 0,
        "channel": 0
      },
      {
        "type": "note_on",
        "time": 0,
        "note": 45,
        "velocity": 0,
        "channel": 0
      },
      {
        "type": "note_on",
        "time": 1,
        "note": 69,
        "velocity": 60,
        "channel": 0
      },
      {
        "type": "note_on",
        "time": 0,
        "note": 66,
        "velocity": 60,
        "channel": 0
      },
      {
        "type": "note_on",
        "time": 0,
        "note": 62,
        "velocity": 60,
        "channel": 0
      },
      {
        "type": "note_on",
        "time": 0,
        "note": 57,
        "velocity": 60,
        "channel": 0
      },
      {
        "type": "note_on",
        "time": 0,
        "note": 50,
        "velocity": 60,
        "channel": 0
      },
      {
        "type": "note_on",
        "time": 0,
        "note": 45,
        "velocity": 60,
        "channel": 0
      },
      {
        "type": "note_on",
        "time": 59,
        "note": 69,
        "velocity": 0,
        "channel": 0
      },
      {
        "type": "note_on",
        "time": 0,
        "note": 66,
        "velocity": 0,
        "channel": 0
      },
      {
        "type": "note_on",
        "time": 0,
        "note": 62,
        "velocity": 0,
        "channel": 0
      },
      {
        "type": "note_on",
        "time": 0,
        "note": 57,
        "velocity": 0,
        "channel": 0
      },
      {
        "type": "note_on",
        "time": 0,
        "note": 50,
        "velocity": 0,
        "channel": 0
      },
      {
        "type": "note_on",
        "time": 0,
        "note": 45,
        "velocity": 0,
        "channel": 0
      },
      {
        "type": "note_on",
        "time": 1,
        "note": 69,
        "velocity": 60,
        "channel": 0
      },
      {
        "type": "note_on",
        "time": 0,
        "note": 66,
        "velocity": 60,
        "channel": 0
      },
      {
        "type": "note_on",
        "time": 0,
        "note": 62,
        "velocity": 60,
        "channel": 0
      },
      {
        "type": "note_on",
        "time": 0,
        "note": 57,
        "velocity": 60,
        "channel": 0
      },
      {
        "type": "note_on",
        "time": 0,
        "note": 50,
        "velocity": 60,
        "channel": 0
      },
      {
        "type": "note_on",
        "time": 0,
        "note": 45,
        "velocity": 60,
        "channel": 0
      },
      {
        "type": "note_on",
        "time": 29,
        "note": 69,
        "velocity": 0,
        "channel": 0
      },
      {
        "type": "note_on",
        "time": 0,
        "note": 66,
        "velocity": 0,
        "channel": 0
      },
      {
        "type": "note_on",
        "time": 0,
        "note": 62,
        "velocity": 0,
        "channel": 0
      },
      {
        "type": "note_on",
        "time": 0,
        "note": 57,
        "velocity": 0,
        "channel": 0
      },
      {
        "type": "note_on",
        "time": 0,
        "note": 50,
        "velocity": 0,
        "channel": 0
      },
      {
        "type": "note_on",
        "time": 0,
        "note": 45,
        "velocity": 0,
        "channel": 0
      },
      {
        "type": "note_on",
        "time": 1,
        "note": 69,
        "velocity": 60,
        "channel": 0
      },
      {
        "type": "note_on",
        "time": 0,
        "note": 66,
        "velocity": 60,
        "channel": 0
      },
      {
        "type": "note_on",
        "time": 0,
        "note": 62,
        "velocity": 60,
        "channel": 0
      },
      {
        "type": "note_on",
        "time": 0,
        "note": 57,
        "velocity": 60,
        "channel": 0
      },
      {
        "type": "note_on",
        "time": 0,
        "note": 50,
        "velocity": 60,
        "channel": 0
      },
      {
        "type": "note_on",
        "time": 0,
        "note": 45,
        "velocity": 60,
        "channel": 0
      },
      {
        "type": "note_on",
        "time": 239,
        "note": 69,
        "velocity": 0,
        "channel": 0
      },
      {
        "type": "note_on",
        "time": 0,
        "note": 66,
        "velocity": 0,
        "channel": 0
      },
      {
        "type": "note_on",
        "time": 0,
        "note": 62,
        "velocity": 0,
        "channel": 0
      },
      {
        "type": "note_on",
        "time": 0,
        "note": 57,
        "velocity": 0,
        "channel": 0
      },
      {
        "type": "note_on",
        "time": 0,
        "note": 50,
        "velocity": 0,
        "channel": 0
      },
      {
        "type": "note_on",
        "time": 0,
        "note": 45,
        "velocity": 0,
        "channel": 0
      },
      {
        "type": "note_on",
        "time": 1,
        "note": 40,
        "velocity": 60,
        "channel": 0
      },
      {
        "type": "note_on",
        "time": 0,
        "note": 47,
        "velocity": 60,
        "channel": 0
      },
      {
        "type": "note_on",
        "time": 0,
        "note": 52,
        "velocity": 60,
        "channel": 0
      },
      {
        "type": "note_on",
        "time": 0,
        "note": 55,
        "velocity": 60,
        "channel": 0
      },
      {
        "type": "note_on",
        "time": 0,
        "note": 59,
        "velocity": 60,
        "channel": 0
      },
      {
        "type": "note_on",
        "time": 0,
        "note": 64,
        "velocity": 60,
        "channel": 0
      },
      {
        "type": "note_on",
        "time": 59,
        "note": 40,
        "velocity": 0,
        "channel": 0
      },
      {
        "type": "note_on",
        "time": 0,
        "note": 47,
        "velocity": 0,
        "channel": 0
      },
      {
        "type": "note_on",
        "time": 0,
        "note": 52,
        "velocity": 0,
        "channel": 0
      },
      {
        "type": "note_on",
        "time": 0,
        "note": 55,
        "velocity": 0,
        "channel": 0
      },
      {
        "type": "note_on",
        "time": 0,
        "note": 59,
        "velocity": 0,
        "channel": 0
      },
      {
        "type": "note_on",
        "time": 0,
        "note": 64,
        "velocity": 0,
        "channel": 0
      },
      {
        "type": "note_on",
        "time": 1,
        "note": 64,
        "velocity": 60,
        "channel": 0
      },
      {
        "type": "note_on",
        "time": 0,
        "note": 59,
        "velocity": 60,
        "channel": 0
      },
      {
        "type": "note_on",
        "time": 0,
        "note": 55,
        "velocity": 60,
        "channel": 0
      },
      {
        "type": "note_on",
        "time": 0,
        "note": 52,
        "velocity": 60,
        "channel": 0
      },
      {
        "type": "note_on",
        "time": 0,
        "note": 47,
        "velocity": 60,
        "channel": 0
      },
      {
        "type": "note_on",
        "time": 0,
        "note": 40,
        "velocity": 60,
        "channel": 0
      },
      {
        "type": "note_on",
        "time": 29,
        "note": 64,
        "velocity": 0,
        "channel": 0
      },
      {
        "type": "note_on",
        "time": 0,
        "note": 59,
        "velocity": 0,
        "channel": 0
      },
      {
        "type": "note_on",
        "time": 0,
        "note": 55,
        "velocity": 0,
        "channel": 0
      },
      {
        "type": "note_on",
        "time": 0,
        "note": 52,
        "velocity": 0,
        "channel": 0
      },
      {
        "type": "note_on",
        "time": 0,
        "note": 47,
        "velocity": 0,
        "channel": 0
      },
      {
        "type": "note_on",
        "time": 0,
        "note": 40,
        "velocity": 0,
        "channel": 0
      },
      {
        "type": "note_on",
        "time": 1,
        "note": 64,
        "velocity": 60,
        "channel": 0
      },
      {
        "type": "note_on",
        "time": 0,
        "note": 59,
        "velocity": 60,
        "channel": 0
      },
      {
        "type": "note_on",
        "time": 0,
        "note": 55,
        "velocity": 60,
        "channel": 0
      },
      {
        "type": "note_on",
        "time": 0,
        "note": 52,
        "velocity": 60,
        "channel": 0
      },
      {
        "type": "note_on",
        "time": 0,
        "note": 47,
        "velocity": 60,
        "channel": 0
      },
      {
        "type": "note_on",
        "time": 0,
        "note": 40,
        "velocity": 60,
        "channel": 0
      },
      {
        "type": "note_on",
        "time": 29,
        "note": 64,
        "velocity": 0,
        "channel": 0
      },
      {
        "type": "note_on",
        "time": 0,
        "note": 59,
        "velocity": 0,
        "channel": 0
      },
      {
        "type": "note_on",
        "time": 0,
        "note": 55,
        "velocity": 0,
        "channel": 0
      },
      {
        "type": "note_on",
        "time": 0,
        "note": 52,
        "velocity": 0,
        "channel": 0
      },
      {
        "type": "note_on",
        "time": 0,
        "note": 47,
        "velocity": 0,
        "channel": 0
      },
      {
        "type": "note_on",
        "time": 0,
        "note": 40,
        "velocity": 0,
        "channel": 0
      },
      {
        "type": "note_on",
        "time": 1,
        "note": 64,
        "velocity": 60,
        "channel": 0
      },
      {
        "type": "note_on",
        "time": 0,
        "note": 59,
        "velocity": 60,
        "channel": 0
      },
      {
        "type": "note_on",
        "time": 0,
        "note": 55,
        "velocity": 60,
        "channel": 0
      },
      {
        "type": "note_on",
        "time": 0,
        "note": 52,
        "velocity": 60,
        "channel": 0
      },
      {
        "type": "note_on",
        "time": 0,
        "note": 47,
        "velocity": 60,
        "channel": 0
      },
      {
        "type": "note_on",
        "time": 0,
        "note": 40,
        "velocity": 60,
        "channel": 0
      },
      {
        "type": "note_on",
        "time": 29,
        "note": 64,
        "velocity": 0,
        "channel": 0
      },
      {
        "type": "note_on",
        "time": 0,
        "note": 59,
        "velocity": 0,
        "channel": 0
      },
      {
        "type": "note_on",
        "time": 0,
        "note": 55,
        "velocity": 0,
        "channel": 0
      },
      {
        "type": "note_on",
        "time": 0,
        "note": 52,
        "velocity": 0,
        "channel": 0
      },
      {
        "type": "note_on",
        "time": 0,
        "note": 47,
        "velocity": 0,
        "channel": 0
      },
      {
        "type": "note_on",
        "time": 0,
        "note": 40,
        "velocity": 0,
        "channel": 0
      },
      {
        "type": "note_on",
        "time": 1,
        "note": 64,
        "velocity": 60,
        "channel": 0
      },
      {
        "type": "note_on",
        "time": 0,
        "note": 59,
        "velocity": 60,
        "channel": 0
      },
      {
        "type": "note_on",
        "time": 0,
        "note": 55,
        "velocity": 60,
        "channel": 0
      },
      {
        "type": "note_on",
        "time": 0,
        "note": 52,
        "velocity": 60,
        "channel": 0
      },
      {
        "type": "note_on",
        "time": 0,
        "note": 47,
        "velocity": 60,
        "channel": 0
      },
      {
        "type": "note_on",
        "time": 0,
        "note": 40,
        "velocity": 60,
        "channel": 0
      },
      {
        "type": "note_on",
        "time": 29,
        "note": 64,
        "velocity": 0,
        "channel": 0
      },
      {
        "type": "note_on",
        "time": 0,
        "note": 59,
        "velocity": 0,
        "channel": 0
      },
      {
        "type": "note_on",
        "time": 0,
        "note": 55,
        "velocity": 0,
        "channel": 0
      },
      {
        "type": "note_on",
        "time": 0,
        "note": 52,
        "velocity": 0,
        "channel": 0
      },
      {
        "type": "note_on",
        "time": 0,
        "note": 47,
        "velocity": 0,
        "channel": 0
      },
      {
        "type": "note_on",
        "time": 0,
        "note": 40,
        "velocity": 0,
        "channel": 0
      },
      {
        "type": "note_on",
        "time": 1,
        "note": 64,
        "velocity": 60,
        "channel": 0
      },
      {
        "type": "note_on",
        "time": 0,
        "note": 59,
        "velocity": 60,
        "channel": 0
      },
      {
        "type": "note_on",
        "time": 0,
        "note": 55,
        "velocity": 60,
        "channel": 0
      },
      {
        "type": "note_on",
        "time": 0,
        "note": 52,
        "velocity": 60,
        "channel": 0
      },
      {
        "type": "note_on",
        "time": 0,
        "note": 47,
        "velocity": 60,
        "channel": 0
      },
      {
        "type": "note_on",
        "time": 0,
        "note": 40,
        "velocity": 60,
        "channel": 0
      },
      {
        "type": "note_on",
        "time": 59,
        "note": 64,
        "velocity": 0,
        "channel": 0
      },
      {
        "type": "note_on",
        "time": 0,
        "note": 59,
        "velocity": 0,
        "channel": 0
      },
      {
        "type": "note_on",
        "time": 0,
        "note": 55,
        "velocity": 0,
        "channel": 0
      },
      {
        "type": "note_on",
        "time": 0,
        "note": 52,
        "velocity": 0,
        "channel": 0
      },
      {
        "type": "note_on",
        "time": 0,
        "note": 47,
        "velocity": 0,
        "channel": 0
      },
      {
        "type": "note_on",
        "time": 0,
        "note": 40,
        "velocity": 0,
        "channel": 0
      },
      {
        "type": "note_on",
        "time": 1,
        "note": 64,
        "velocity": 60,
        "channel": 0
      },
      {
        "type": "note_on",
        "time": 0,
        "note": 59,
        "velocity": 60,
        "channel": 0
      },
      {
        "type": "note_on",
        "time": 0,
        "note": 55,
        "velocity": 60,
        "channel": 0
      },
      {
        "type": "note_on",
        "time": 0,
        "note": 52,
        "velocity": 60,
        "channel": 0
      },
      {
        "type": "note_on",
        "time": 0,
        "note": 47,
        "velocity": 60,
        "channel": 0
      },
      {
        "type": "note_on",
        "time": 0,
        "note": 40,
        "velocity": 60,
        "channel": 0
      },
      {
        "type": "note_on",
        "time": 59,
        "note": 64,
        "velocity": 0,
        "channel": 0
      },
      {
        "type": "note_on",
        "time": 0,
        "note": 59,
        "velocity": 0,
        "channel": 0
      },
      {
        "type": "note_on",
        "time": 0,
        "note": 55,
        "velocity": 0,
        "channel": 0
      },
      {
        "type": "note_on",
        "time": 0,
        "note": 52,
        "velocity": 0,
        "channel": 0
      },
      {
        "type": "note_on",
        "time": 0,
        "note": 47,
        "velocity": 0,
        "channel": 0
      },
      {
        "type": "note_on",
        "time": 0,
        "note": 40,
        "velocity": 0,
        "channel": 0
      },
      {
        "type": "note_on",
        "time": 1,
        "note": 64,
        "velocity": 60,
        "channel": 0
      },
      {
        "type": "note_on",
        "time": 0,
        "note": 59,
        "velocity": 60,
        "channel": 0
      },
      {
        "type": "note_on",
        "time": 0,
        "note": 55,
        "velocity": 60,
        "channel": 0
      },
      {
        "type": "note_on",
        "time": 0,
        "note": 52,
        "velocity": 60,
        "channel": 0
      },
      {
        "type": "note_on",
        "time": 0,
        "note": 47,
        "velocity": 60,
        "channel": 0
      },
      {
        "type": "note_on",
        "time": 0,
        "note": 40,
        "velocity": 60,
        "channel": 0
      },
      {
        "type": "note_on",
        "time": 59,
        "note": 64,
        "velocity": 0,
        "channel": 0
      },
      {
        "type": "note_on",
        "time": 0,
        "note": 59,
        "velocity": 0,
        "channel": 0
      },
      {
        "type": "note_on",
        "time": 0,
        "note": 55,
        "velocity": 0,
        "channel": 0
      },
      {
        "type": "note_on",
        "time": 0,
        "note": 52,
        "velocity": 0,
        "channel": 0
      },
      {
        "type": "note_on",
        "time": 0,
        "note": 47,
        "velocity": 0,
        "channel": 0
      },
      {
        "type": "note_on",
        "time": 0,
        "note": 40,
        "velocity": 0,
        "channel": 0
      },
      {
        "type": "note_on",
        "time": 1,
        "note": 64,
        "velocity": 60,
        "channel": 0
      },
      {
        "type": "note_on",
        "time": 0,
        "note": 59,
        "velocity": 60,
        "channel": 0
      },
      {
        "type": "note_on",
        "time": 0,
        "note": 55,
        "velocity": 60,
        "channel": 0
      },
      {
        "type": "note_on",
        "time": 0,
        "note": 52,
        "velocity": 60,
        "channel": 0
      },
      {
        "type": "note_on",
        "time": 0,
        "note": 47,
        "velocity": 60,
        "channel": 0
      },
      {
        "type": "note_on",
        "time": 0,
        "note": 40,
        "velocity": 60,
        "channel": 0
      },
      {
        "type": "note_on",
        "time": 29,
        "note": 64,
        "velocity": 0,
        "channel": 0
      },
      {
        "type": "note_on",
        "time": 0,
        "note": 59,
        "velocity": 0,
        "channel": 0
      },
      {
        "type": "note_on",
        "time": 0,
        "note": 55,
        "velocity": 0,
        "channel": 0
      },
      {
        "type": "note_on",
        "time": 0,
        "note": 52,
        "velocity": 0,
        "channel": 0
      },
      {
        "type": "note_on",
        "time": 0,
        "note": 47,
        "velocity": 0,
        "channel": 0
      },
      {
        "type": "note_on",
        "time": 0,
        "note": 40,
        "velocity": 0,
        "channel": 0
      },
      {
        "type": "note_on",
        "time": 1,
        "note": 64,
        "velocity": 60,
        "channel": 0
      },
      {
        "type": "note_on",
        "time": 0,
        "note": 59,
        "velocity": 60,
        "channel": 0
      },
      {
        "type": "note_on",
        "time": 0,
        "note": 55,
        "velocity": 60,
        "channel": 0
      },
      {
        "type": "note_on",
        "time": 0,
        "note": 52,
        "velocity": 60,
        "channel": 0
      },
      {
        "type": "note_on",
        "time": 0,
        "note": 47,
        "velocity": 60,
        "channel": 0
      },
      {
        "type": "note_on",
        "time": 0,
        "note": 40,
        "velocity": 60,
        "channel": 0
      },
      {
        "type": "note_on",
        "time": 29,
        "note": 64,
        "velocity": 0,
        "channel": 0
      },
      {
        "type": "note_on",
        "time": 0,
        "note": 59,
        "velocity": 0,
        "channel": 0
      },
      {
        "type": "note_on",
        "time": 0,
        "note": 55,
        "velocity": 0,
        "channel": 0
      },
      {
        "type": "note_on",
        "time": 0,
        "note": 52,
        "velocity": 0,
        "channel": 0
      },
      {
        "type": "note_on",
        "time": 0,
        "note": 47,
        "velocity": 0,
        "channel": 0
      },
      {
        "type": "note_on",
        "time": 0,
        "note": 40,
        "velocity": 0,
        "channel": 0
      },
      {
        "type": "note_on",
        "time": 1,
        "note": 64,
        "velocity": 60,
        "channel": 0
      },
      {
        "type": "note_on",
        "time": 0,
        "note": 59,
        "velocity": 60,
        "channel": 0
      },
      {
        "type": "note_on",
        "time": 0,
        "note": 55,
        "velocity": 60,
        "channel": 0
      },
      {
        "type": "note_on",
        "time": 0,
        "note": 52,
        "velocity": 60,
        "channel": 0
      },
      {
        "type": "note_on",
        "time": 0,
        "note": 47,
        "velocity": 60,
        "channel": 0
      },
      {
        "type": "note_on",
        "time": 0,
        "note": 40,
        "velocity": 60,
        "channel": 0
      },
      {
        "type": "note_on",
        "time": 59,
        "note": 64,
        "velocity": 0,
        "channel": 0
      },
      {
        "type": "note_on",
        "time": 0,
        "note": 59,
        "velocity": 0,
        "channel": 0
      },
      {
        "type": "note_on",
        "time": 0,
        "note": 55,
        "velocity": 0,
        "channel": 0
      },
      {
        "type": "note_on",
        "time": 0,
        "note": 52,
        "velocity": 0,
        "channel": 0
      },
      {
        "type": "note_on",
        "time": 0,
        "note": 47,
        "velocity": 0,
        "channel": 0
      },
      {
        "type": "note_on",
        "time": 0,
        "note": 40,
        "velocity": 0,
        "channel": 0
      },
      {
        "type": "note_on",
        "time": 1,
        "note": 42,
        "velocity": 60,
        "channel": 0
      },
      {
        "type": "note_on",
        "time": 0,
        "note": 49,
        "velocity": 60,
        "channel": 0
      },
      {
        "type": "note_on",
        "time": 0,
        "note": 54,
        "velocity": 60,
        "channel": 0
      },
      {
        "type": "note_on",
        "time": 0,
        "note": 58,
        "velocity": 60,
        "channel": 0
      },
      {
        "type": "note_on",
        "time": 0,
        "note": 61,
        "velocity": 60,
        "channel": 0
      },
      {
        "type": "note_on",
        "time": 0,
        "note": 66,
        "velocity": 60,
        "channel": 0
      },
      {
        "type": "note_on",
        "time": 59,
        "note": 42,
        "velocity": 0,
        "channel": 0
      },
      {
        "type": "note_on",
        "time": 0,
        "note": 49,
        "velocity": 0,
        "channel": 0
      },
      {
        "type": "note_on",
        "time": 0,
        "note": 54,
        "velocity": 0,
        "channel": 0
      },
      {
        "type": "note_on",
        "time": 0,
        "note": 58,
        "velocity": 0,
        "channel": 0
      },
      {
        "type": "note_on",
        "time": 0,
        "note": 61,
        "velocity": 0,
        "channel": 0
      },
      {
        "type": "note_on",
        "time": 0,
        "note": 66,
        "velocity": 0,
        "channel": 0
      },
      {
        "type": "note_on",
        "time": 1,
        "note": 66,
        "velocity": 60,
        "channel": 0
      },
      {
        "type": "note_on",
        "time": 0,
        "note": 61,
        "velocity": 60,
        "channel": 0
      },
      {
        "type": "note_on",
        "time": 0,
        "note": 58,
        "velocity": 60,
        "channel": 0
      },
      {
        "type": "note_on",
        "time": 0,
        "note": 54,
        "velocity": 60,
        "channel": 0
      },
      {
        "type": "note_on",
        "time": 0,
        "note": 49,
        "velocity": 60,
        "channel": 0
      },
      {
        "type": "note_on",
        "time": 0,
        "note": 42,
        "velocity": 60,
        "channel": 0
      },
      {
        "type": "note_on",
        "time": 29,
        "note": 66,
        "velocity": 0,
        "channel": 0
      },
      {
        "type": "note_on",
        "time": 0,
        "note": 61,
        "velocity": 0,
        "channel": 0
      },
      {
        "type": "note_on",
        "time": 0,
        "note": 58,
        "velocity": 0,
        "channel": 0
      },
      {
        "type": "note_on",
        "time": 0,
        "note": 54,
        "velocity": 0,
        "channel": 0
      },
      {
        "type": "note_on",
        "time": 0,
        "note": 49,
        "velocity": 0,
        "channel": 0
      },
      {
        "type": "note_on",
        "time": 0,
        "note": 42,
        "velocity": 0,
        "channel": 0
      },
      {
        "type": "note_on",
        "time": 1,
        "note": 66,
        "velocity": 60,
        "channel": 0
      },
      {
        "type": "note_on",
        "time": 0,
        "note": 61,
        "velocity": 60,
        "channel": 0
      },
      {
        "type": "note_on",
        "time": 0,
        "note": 58,
        "velocity": 60,
        "channel": 0
      },
      {
        "type": "note_on",
        "time": 0,
        "note": 54,
        "velocity": 60,
        "channel": 0
      },
      {
        "type": "note_on",
        "time": 0,
        "note": 49,
        "velocity": 60,
        "channel": 0
      },
      {
        "type": "note_on",
        "time": 0,
        "note": 42,
        "velocity": 60,
        "channel": 0
      },
      {
        "type": "note_on",
        "time": 29,
        "note": 66,
        "velocity": 0,
        "channel": 0
      },
      {
        "type": "note_on",
        "time": 0,
        "note": 61,
        "velocity": 0,
        "channel": 0
      },
      {
        "type": "note_on",
        "time": 0,
        "note": 58,
        "velocity": 0,
        "channel": 0
      },
      {
        "type": "note_on",
        "time": 0,
        "note": 54,
        "velocity": 0,
        "channel": 0
      },
      {
        "type": "note_on",
        "time": 0,
        "note": 49,
        "velocity": 0,
        "channel": 0
      },
      {
        "type": "note_on",
        "time": 0,
        "note": 42,
        "velocity": 0,
        "channel": 0
      },
      {
        "type": "note_on",
        "time": 1,
        "note": 66,
        "velocity": 60,
        "channel": 0
      },
      {
        "type": "note_on",
        "time": 0,
        "note": 61,
        "velocity": 60,
        "channel": 0
      },
      {
        "type": "note_on",
        "time": 0,
        "note": 58,
        "velocity": 60,
        "channel": 0
      },
      {
        "type": "note_on",
        "time": 0,
        "note": 54,
        "velocity": 60,
        "channel": 0
      },
      {
        "type": "note_on",
        "time": 0,
        "note": 49,
        "velocity": 60,
        "channel": 0
      },
      {
        "type": "note_on",
        "time": 0,
        "note": 42,
        "velocity": 60,
        "channel": 0
      },
      {
        "type": "note_on",
        "time": 29,
        "note": 66,
        "velocity": 0,
        "channel": 0
      },
      {
        "type": "note_on",
        "time": 0,
        "note": 61,
        "velocity": 0,
        "channel": 0
      },
      {
        "type": "note_on",
        "time": 0,
        "note": 58,
        "velocity": 0,
        "channel": 0
      },
      {
        "type": "note_on",
        "time": 0,
        "note": 54,
        "velocity": 0,
        "channel": 0
      },
      {
        "type": "note_on",
        "time": 0,
        "note": 49,
        "velocity": 0,
        "channel": 0
      },
      {
        "type": "note_on",
        "time": 0,
        "note": 42,
        "velocity": 0,
        "channel": 0
      },
      {
        "type": "note_on",
        "time": 1,
        "note": 66,
        "velocity": 60,
        "channel": 0
      },
      {
        "type": "note_on",
        "time": 0,
        "note": 61,
        "velocity": 60,
        "channel": 0
      },
      {
        "type": "note_on",
        "time": 0,
        "note": 58,
        "velocity": 60,
        "channel": 0
      },
      {
        "type": "note_on",
        "time": 0,
        "note": 54,
        "velocity": 60,
        "channel": 0
      },
      {
        "type": "note_on",
        "time": 0,
        "note": 49,
        "velocity": 60,
        "channel": 0
      },
      {
        "type": "note_on",
        "time": 0,
        "note": 42,
        "velocity": 60,
        "channel": 0
      },
      {
        "type": "note_on",
        "time": 59,
        "note": 66,
        "velocity": 0,
        "channel": 0
      },
      {
        "type": "note_on",
        "time": 0,
        "note": 61,
        "velocity": 0,
        "channel": 0
      },
      {
        "type": "note_on",
        "time": 0,
        "note": 58,
        "velocity": 0,
        "channel": 0
      },
      {
        "type": "note_on",
        "time": 0,
        "note": 54,
        "velocity": 0,
        "channel": 0
      },
      {
        "type": "note_on",
        "time": 0,
        "note": 49,
        "velocity": 0,
        "channel": 0
      },
      {
        "type": "note_on",
        "time": 0,
        "note": 42,
        "velocity": 0,
        "channel": 0
      },
      {
        "type": "note_on",
        "time": 1,
        "note": 66,
        "velocity": 60,
        "channel": 0
      },
      {
        "type": "note_on",
        "time": 0,
        "note": 61,
        "velocity": 60,
        "channel": 0
      },
      {
        "type": "note_on",
        "time": 0,
        "note": 58,
        "velocity": 60,
        "channel": 0
      },
      {
        "type": "note_on",
        "time": 0,
        "note": 54,
        "velocity": 60,
        "channel": 0
      },
      {
        "type": "note_on",
        "time": 0,
        "note": 49,
        "velocity": 60,
        "channel": 0
      },
      {
        "type": "note_on",
        "time": 0,
        "note": 42,
        "velocity": 60,
        "channel": 0
      },
      {
        "type": "note_on",
        "time": 29,
        "note": 66,
        "velocity": 0,
        "channel": 0
      },
      {
        "type": "note_on",
        "time": 0,
        "note": 61,
        "velocity": 0,
        "channel": 0
      },
      {
        "type": "note_on",
        "time": 0,
        "note": 58,
        "velocity": 0,
        "channel": 0
      },
      {
        "type": "note_on",
        "time": 0,
        "note": 54,
        "velocity": 0,
        "channel": 0
      },
      {
        "type": "note_on",
        "time": 0,
        "note": 49,
        "velocity": 0,
        "channel": 0
      },
      {
        "type": "note_on",
        "time": 0,
        "note": 42,
        "velocity": 0,
        "channel": 0
      },
      {
        "type": "note_on",
        "time": 1,
        "note": 66,
        "velocity": 60,
        "channel": 0
      },
      {
        "type": "note_on",
        "time": 0,
        "note": 61,
        "velocity": 60,
        "channel": 0
      },
      {
        "type": "note_on",
        "time": 0,
        "note": 58,
        "velocity": 60,
        "channel": 0
      },
      {
        "type": "note_on",
        "time": 0,
        "note": 54,
        "velocity": 60,
        "channel": 0
      },
      {
        "type": "note_on",
        "time": 0,
        "note": 49,
        "velocity": 60,
        "channel": 0
      },
      {
        "type": "note_on",
        "time": 0,
        "note": 42,
        "velocity": 60,
        "channel": 0
      },
      {
        "type": "note_on",
        "time": 239,
        "note": 66,
        "velocity": 0,
        "channel": 0
      },
      {
        "type": "note_on",
        "time": 0,
        "note": 61,
        "velocity": 0,
        "channel": 0
      },
      {
        "type": "note_on",
        "time": 0,
        "note": 58,
        "velocity": 0,
        "channel": 0
      },
      {
        "type": "note_on",
        "time": 0,
        "note": 54,
        "velocity": 0,
        "channel": 0
      },
      {
        "type": "note_on",
        "time": 0,
        "note": 49,
        "velocity": 0,
        "channel": 0
      },
      {
        "type": "note_on",
        "time": 0,
        "note": 42,
        "velocity": 0,
        "channel": 0
      },
      {
        "type": "note_on",
        "time": 1,
        "note": 54,
        "velocity": 60,
        "channel": 0
      },
      {
        "type": "note_on",
        "time": 0,
        "note": 47,
        "velocity": 60,
        "channel": 0
      },
      {
        "type": "note_on",
        "time": 0,
        "note": 42,
        "velocity": 60,
        "channel": 0
      },
      {
        "type": "note_on",
        "time": 0,
        "note": 59,
        "velocity": 60,
        "channel": 0
      },
      {
        "type": "note_on",
        "time": 0,
        "note": 62,
        "velocity": 60,
        "channel": 0
      },
      {
        "type": "note_on",
        "time": 0,
        "note": 66,
        "velocity": 60,
        "channel": 0
      },
      {
        "type": "note_on",
        "time": 59,
        "note": 54,
        "velocity": 0,
        "channel": 0
      },
      {
        "type": "note_on",
        "time": 0,
        "note": 47,
        "velocity": 0,
        "channel": 0
      },
      {
        "type": "note_on",
        "time": 0,
        "note": 42,
        "velocity": 0,
        "channel": 0
      },
      {
        "type": "note_on",
        "time": 0,
        "note": 59,
        "velocity": 0,
        "channel": 0
      },
      {
        "type": "note_on",
        "time": 0,
        "note": 62,
        "velocity": 0,
        "channel": 0
      },
      {
        "type": "note_on",
        "time": 0,
        "note": 66,
        "velocity": 0,
        "channel": 0
      },
      {
        "type": "note_on",
        "time": 1,
        "note": 66,
        "velocity": 60,
        "channel": 0
      },
      {
        "type": "note_on",
        "time": 0,
        "note": 59,
        "velocity": 60,
        "channel": 0
      },
      {
        "type": "note_on",
        "time": 0,
        "note": 62,
        "velocity": 60,
        "channel": 0
      },
      {
        "type": "note_on",
        "time": 0,
        "note": 54,
        "velocity": 60,
        "channel": 0
      },
      {
        "type": "note_on",
        "time": 0,
        "note": 47,
        "velocity": 60,
        "channel": 0
      },
      {
        "type": "note_on",
        "time": 0,
        "note": 42,
        "velocity": 60,
        "channel": 0
      },
      {
        "type": "note_on",
        "time": 29,
        "note": 66,
        "velocity": 0,
        "channel": 0
      },
      {
        "type": "note_on",
        "time": 0,
        "note": 59,
        "velocity": 0,
        "channel": 0
      },
      {
        "type": "note_on",
        "time": 0,
        "note": 62,
        "velocity": 0,
        "channel": 0
      },
      {
        "type": "note_on",
        "time": 0,
        "note": 54,
        "velocity": 0,
        "channel": 0
      },
      {
        "type": "note_on",
        "time": 0,
        "note": 47,
        "velocity": 0,
        "channel": 0
      },
      {
        "type": "note_on",
        "time": 0,
        "note": 42,
        "velocity": 0,
        "channel": 0
      },
      {
        "type": "note_on",
        "time": 1,
        "note": 66,
        "velocity": 60,
        "channel": 0
      },
      {
        "type": "note_on",
        "time": 0,
        "note": 59,
        "velocity": 60,
        "channel": 0
      },
      {
        "type": "note_on",
        "time": 0,
        "note": 62,
        "velocity": 60,
        "channel": 0
      },
      {
        "type": "note_on",
        "time": 0,
        "note": 54,
        "velocity": 60,
        "channel": 0
      },
      {
        "type": "note_on",
        "time": 0,
        "note": 47,
        "velocity": 60,
        "channel": 0
      },
      {
        "type": "note_on",
        "time": 0,
        "note": 42,
        "velocity": 60,
        "channel": 0
      },
      {
        "type": "note_on",
        "time": 29,
        "note": 66,
        "velocity": 0,
        "channel": 0
      },
      {
        "type": "note_on",
        "time": 0,
        "note": 59,
        "velocity": 0,
        "channel": 0
      },
      {
        "type": "note_on",
        "time": 0,
        "note": 62,
        "velocity": 0,
        "channel": 0
      },
      {
        "type": "note_on",
        "time": 0,
        "note": 54,
        "velocity": 0,
        "channel": 0
      },
      {
        "type": "note_on",
        "time": 0,
        "note": 47,
        "velocity": 0,
        "channel": 0
      },
      {
        "type": "note_on",
        "time": 0,
        "note": 42,
        "velocity": 0,
        "channel": 0
      },
      {
        "type": "note_on",
        "time": 1,
        "note": 66,
        "velocity": 60,
        "channel": 0
      },
      {
        "type": "note_on",
        "time": 0,
        "note": 62,
        "velocity": 60,
        "channel": 0
      },
      {
        "type": "note_on",
        "time": 0,
        "note": 59,
        "velocity": 60,
        "channel": 0
      },
      {
        "type": "note_on",
        "time": 0,
        "note": 54,
        "velocity": 60,
        "channel": 0
      },
      {
        "type": "note_on",
        "time": 0,
        "note": 47,
        "velocity": 60,
        "channel": 0
      },
      {
        "type": "note_on",
        "time": 0,
        "note": 42,
        "velocity": 60,
        "channel": 0
      },
      {
        "type": "note_on",
        "time": 59,
        "note": 66,
        "velocity": 0,
        "channel": 0
      },
      {
        "type": "note_on",
        "time": 0,
        "note": 62,
        "velocity": 0,
        "channel": 0
      },
      {
        "type": "note_on",
        "time": 0,
        "note": 59,
        "velocity": 0,
        "channel": 0
      },
      {
        "type": "note_on",
        "time": 0,
        "note": 54,
        "velocity": 0,
        "channel": 0
      },
      {
        "type": "note_on",
        "time": 0,
        "note": 47,
        "velocity": 0,
        "channel": 0
      },
      {
        "type": "note_on",
        "time": 0,
        "note": 42,
        "velocity": 0,
        "channel": 0
      },
      {
        "type": "note_on",
        "time": 1,
        "note": 66,
        "velocity": 60,
        "channel": 0
      },
      {
        "type": "note_on",
        "time": 0,
        "note": 62,
        "velocity": 60,
        "channel": 0
      },
      {
        "type": "note_on",
        "time": 0,
        "note": 59,
        "velocity": 60,
        "channel": 0
      },
      {
        "type": "note_on",
        "time": 0,
        "note": 54,
        "velocity": 60,
        "channel": 0
      },
      {
        "type": "note_on",
        "time": 0,
        "note": 47,
        "velocity": 60,
        "channel": 0
      },
      {
        "type": "note_on",
        "time": 0,
        "note": 42,
        "velocity": 60,
        "channel": 0
      },
      {
        "type": "note_on",
        "time": 29,
        "note": 66,
        "velocity": 0,
        "channel": 0
      },
      {
        "type": "note_on",
        "time": 0,
        "note": 62,
        "velocity": 0,
        "channel": 0
      },
      {
        "type": "note_on",
        "time": 0,
        "note": 59,
        "velocity": 0,
        "channel": 0
      },
      {
        "type": "note_on",
        "time": 0,
        "note": 54,
        "velocity": 0,
        "channel": 0
      },
      {
        "type": "note_on",
        "time": 0,
        "note": 47,
        "velocity": 0,
        "channel": 0
      },
      {
        "type": "note_on",
        "time": 0,
        "note": 42,
        "velocity": 0,
        "channel": 0
      },
      {
        "type": "note_on",
        "time": 1,
        "note": 66,
        "velocity": 60,
        "channel": 0
      },
      {
        "type": "note_on",
        "time": 0,
        "note": 62,
        "velocity": 60,
        "channel": 0
      },
      {
        "type": "note_on",
        "time": 0,
        "note": 59,
        "velocity": 60,
        "channel": 0
      },
      {
        "type": "note_on",
        "time": 0,
        "note": 54,
        "velocity": 60,
        "channel": 0
      },
      {
        "type": "note_on",
        "time": 0,
        "note": 47,
        "velocity": 60,
        "channel": 0
      },
      {
        "type": "note_on",
        "time": 0,
        "note": 42,
        "velocity": 60,
        "channel": 0
      },
      {
        "type": "note_on",
        "time": 29,
        "note": 66,
        "velocity": 0,
        "channel": 0
      },
      {
        "type": "note_on",
        "time": 0,
        "note": 62,
        "velocity": 0,
        "channel": 0
      },
      {
        "type": "note_on",
        "time": 0,
        "note": 59,
        "velocity": 0,
        "channel": 0
      },
      {
        "type": "note_on",
        "time": 0,
        "note": 54,
        "velocity": 0,
        "channel": 0
      },
      {
        "type": "note_on",
        "time": 0,
        "note": 47,
        "velocity": 0,
        "channel": 0
      },
      {
        "type": "note_on",
        "time": 0,
        "note": 42,
        "velocity": 0,
        "channel": 0
      },
      {
        "type": "note_on",
        "time": 1,
        "note": 66,
        "velocity": 60,
        "channel": 0
      },
      {
        "type": "note_on",
        "time": 0,
        "note": 62,
        "velocity": 60,
        "channel": 0
      },
      {
        "type": "note_on",
        "time": 0,
        "note": 59,
        "velocity": 60,
        "channel": 0
      },
      {
        "type": "note_on",
        "time": 0,
        "note": 54,
        "velocity": 60,
        "channel": 0
      },
      {
        "type": "note_on",
        "time": 0,
        "note": 47,
        "velocity": 60,
        "channel": 0
      },
      {
        "type": "note_on",
        "time": 0,
        "note": 42,
        "velocity": 60,
        "channel": 0
      },
      {
        "type": "note_on",
        "time": 29,
        "note": 66,
        "velocity": 0,
        "channel": 0
      },
      {
        "type": "note_on",
        "time": 0,
        "note": 62,
        "velocity": 0,
        "channel": 0
      },
      {
        "type": "note_on",
        "time": 0,
        "note": 59,
        "velocity": 0,
        "channel": 0
      },
      {
        "type": "note_on",
        "time": 0,
        "note": 54,
        "velocity": 0,
        "channel": 0
      },
      {
        "type": "note_on",
        "time": 0,
        "note": 47,
        "velocity": 0,
        "channel": 0
      },
      {
        "type": "note_on",
        "time": 0,
        "note": 42,
        "velocity": 0,
        "channel": 0
      },
      {
        "type": "note_on",
        "time": 1,
        "note": 66,
        "velocity": 60,
        "channel": 0
      },
      {
        "type": "note_on",
        "time": 0,
        "note": 62,
        "velocity": 60,
        "channel": 0
      },
      {
        "type": "note_on",
        "time": 0,
        "note": 59,
        "velocity": 60,
        "channel": 0
      },
      {
        "type": "note_on",
        "time": 0,
        "note": 54,
        "velocity": 60,
        "channel": 0
      },
      {
        "type": "note_on",
        "time": 0,
        "note": 47,
        "velocity": 60,
        "channel": 0
      },
      {
        "type": "note_on",
        "time": 0,
        "note": 42,
        "velocity": 60,
        "channel": 0
      },
      {
        "type": "note_on",
        "time": 29,
        "note": 66,
        "velocity": 0,
        "channel": 0
      },
      {
        "type": "note_on",
        "time": 0,
        "note": 62,
        "velocity": 0,
        "channel": 0
      },
      {
        "type": "note_on",
        "time": 0,
        "note": 59,
        "velocity": 0,
        "channel": 0
      },
      {
        "type": "note_on",
        "time": 0,
        "note": 54,
        "velocity": 0,
        "channel": 0
      },
      {
        "type": "note_on",
        "time": 0,
        "note": 47,
        "velocity": 0,
        "channel": 0
      },
      {
        "type": "note_on",
        "time": 0,
        "note": 42,
        "velocity": 0,
        "channel": 0
      },
      {
        "type": "note_on",
        "time": 1,
        "note": 66,
        "velocity": 60,
        "channel": 0
      },
      {
        "type": "note_on",
        "time": 0,
        "note": 62,
        "velocity": 60,
        "channel": 0
      },
      {
        "type": "note_on",
        "time": 0,
        "note": 59,
        "velocity": 60,
        "channel": 0
      },
      {
        "type": "note_on",
        "time": 0,
        "note": 54,
        "velocity": 60,
        "channel": 0
      },
      {
        "type": "note_on",
        "time": 0,
        "note": 47,
        "velocity": 60,
        "channel": 0
      },
      {
        "type": "note_on",
        "time": 0,
        "note": 42,
        "velocity": 60,
        "channel": 0
      },
      {
        "type": "note_on",
        "time": 29,
        "note": 66,
        "velocity": 0,
        "channel": 0
      },
      {
        "type": "note_on",
        "time": 0,
        "note": 62,
        "velocity": 0,
        "channel": 0
      },
      {
        "type": "note_on",
        "time": 0,
        "note": 59,
        "velocity": 0,
        "channel": 0
      },
      {
        "type": "note_on",
        "time": 0,
        "note": 54,
        "velocity": 0,
        "channel": 0
      },
      {
        "type": "note_on",
        "time": 0,
        "note": 47,
        "velocity": 0,
        "channel": 0
      },
      {
        "type": "note_on",
        "time": 0,
        "note": 42,
        "velocity": 0,
        "channel": 0
      },
      {
        "type": "note_on",
        "time": 1,
        "note": 66,
        "velocity": 60,
        "channel": 0
      },
      {
        "type": "note_on",
        "time": 0,
        "note": 62,
        "velocity": 60,
        "channel": 0
      },
      {
        "type": "note_on",
        "time": 0,
        "note": 59,
        "velocity": 60,
        "channel": 0
      },
      {
        "type": "note_on",
        "time": 0,
        "note": 54,
        "velocity": 60,
        "channel": 0
      },
      {
        "type": "note_on",
        "time": 0,
        "note": 47,
        "velocity": 60,
        "channel": 0
      },
      {
        "type": "note_on",
        "time": 0,
        "note": 42,
        "velocity": 60,
        "channel": 0
      },
      {
        "type": "note_on",
        "time": 59,
        "note": 66,
        "velocity": 0,
        "channel": 0
      },
      {
        "type": "note_on",
        "time": 0,
        "note": 62,
        "velocity": 0,
        "channel": 0
      },
      {
        "type": "note_on",
        "time": 0,
        "note": 59,
        "velocity": 0,
        "channel": 0
      },
      {
        "type": "note_on",
        "time": 0,
        "note": 54,
        "velocity": 0,
        "channel": 0
      },
      {
        "type": "note_on",
        "time": 0,
        "note": 47,
        "velocity": 0,
        "channel": 0
      },
      {
        "type": "note_on",
        "time": 0,
        "note": 42,
        "velocity": 0,
        "channel": 0
      },
      {
        "type": "note_on",
        "time": 1,
        "note": 66,
        "velocity": 60,
        "channel": 0
      },
      {
        "type": "note_on",
        "time": 0,
        "note": 62,
        "velocity": 60,
        "channel": 0
      },
      {
        "type": "note_on",
        "time": 0,
        "note": 59,
        "velocity": 60,
        "channel": 0
      },
      {
        "type": "note_on",
        "time": 0,
        "note": 54,
        "velocity": 60,
        "channel": 0
      },
      {
        "type": "note_on",
        "time": 0,
        "note": 47,
        "velocity": 60,
        "channel": 0
      },
      {
        "type": "note_on",
        "time": 0,
        "note": 42,
        "velocity": 60,
        "channel": 0
      },
      {
        "type": "note_on",
        "time": 29,
        "note": 66,
        "velocity": 0,
        "channel": 0
      },
      {
        "type": "note_on",
        "time": 0,
        "note": 62,
        "velocity": 0,
        "channel": 0
      },
      {
        "type": "note_on",
        "time": 0,
        "note": 59,
        "velocity": 0,
        "channel": 0
      },
      {
        "type": "note_on",
        "time": 0,
        "note": 54,
        "velocity": 0,
        "channel": 0
      },
      {
        "type": "note_on",
        "time": 0,
        "note": 47,
        "velocity": 0,
        "channel": 0
      },
      {
        "type": "note_on",
        "time": 0,
        "note": 42,
        "velocity": 0,
        "channel": 0
      },
      {
        "type": "note_on",
        "time": 1,
        "note": 66,
        "velocity": 60,
        "channel": 0
      },
      {
        "type": "note_on",
        "time": 0,
        "note": 62,
        "velocity": 60,
        "channel": 0
      },
      {
        "type": "note_on",
        "time": 0,
        "note": 59,
        "velocity": 60,
        "channel": 0
      },
      {
        "type": "note_on",
        "time": 0,
        "note": 54,
        "velocity": 60,
        "channel": 0
      },
      {
        "type": "note_on",
        "time": 0,
        "note": 47,
        "velocity": 60,
        "channel": 0
      },
      {
        "type": "note_on",
        "time": 0,
        "note": 42,
        "velocity": 60,
        "channel": 0
      },
      {
        "type": "note_on",
        "time": 59,
        "note": 66,
        "velocity": 0,
        "channel": 0
      },
      {
        "type": "note_on",
        "time": 0,
        "note": 62,
        "velocity": 0,
        "channel": 0
      },
      {
        "type": "note_on",
        "time": 0,
        "note": 59,
        "velocity": 0,
        "channel": 0
      },
      {
        "type": "note_on",
        "time": 0,
        "note": 54,
        "velocity": 0,
        "channel": 0
      },
      {
        "type": "note_on",
        "time": 0,
        "note": 47,
        "velocity": 0,
        "channel": 0
      },
      {
        "type": "note_on",
        "time": 0,
        "note": 42,
        "velocity": 0,
        "channel": 0
      },
      {
        "type": "note_on",
        "time": 1,
        "note": 42,
        "velocity": 60,
        "channel": 0
      },
      {
        "type": "note_on",
        "time": 0,
        "note": 49,
        "velocity": 60,
        "channel": 0
      },
      {
        "type": "note_on",
        "time": 0,
        "note": 54,
        "velocity": 60,
        "channel": 0
      },
      {
        "type": "note_on",
        "time": 0,
        "note": 58,
        "velocity": 60,
        "channel": 0
      },
      {
        "type": "note_on",
        "time": 0,
        "note": 61,
        "velocity": 60,
        "channel": 0
      },
      {
        "type": "note_on",
        "time": 0,
        "note": 66,
        "velocity": 60,
        "channel": 0
      },
      {
        "type": "note_on",
        "time": 59,
        "note": 42,
        "velocity": 0,
        "channel": 0
      },
      {
        "type": "note_on",
        "time": 0,
        "note": 49,
        "velocity": 0,
        "channel": 0
      },
      {
        "type": "note_on",
        "time": 0,
        "note": 54,
        "velocity": 0,
        "channel": 0
      },
      {
        "type": "note_on",
        "time": 0,
        "note": 58,
        "velocity": 0,
        "channel": 0
      },
      {
        "type": "note_on",
        "time": 0,
        "note": 61,
        "velocity": 0,
        "channel": 0
      },
      {
        "type": "note_on",
        "time": 0,
        "note": 66,
        "velocity": 0,
        "channel": 0
      },
      {
        "type": "note_on",
        "time": 1,
        "note": 66,
        "velocity": 60,
        "channel": 0
      },
      {
        "type": "note_on",
        "time": 0,
        "note": 61,
        "velocity": 60,
        "channel": 0
      },
      {
        "type": "note_on",
        "time": 0,
        "note": 58,
        "velocity": 60,
        "channel": 0
      },
      {
        "type": "note_on",
        "time": 0,
        "note": 54,
        "velocity": 60,
        "channel": 0
      },
      {
        "type": "note_on",
        "time": 0,
        "note": 49,
        "velocity": 60,
        "channel": 0
      },
      {
        "type": "note_on",
        "time": 0,
        "note": 42,
        "velocity": 60,
        "channel": 0
      },
      {
        "type": "note_on",
        "time": 29,
        "note": 66,
        "velocity": 0,
        "channel": 0
      },
      {
        "type": "note_on",
        "time": 0,
        "note": 61,
        "velocity": 0,
        "channel": 0
      },
      {
        "type": "note_on",
        "time": 0,
        "note": 58,
        "velocity": 0,
        "channel": 0
      },
      {
        "type": "note_on",
        "time": 0,
        "note": 54,
        "velocity": 0,
        "channel": 0
      },
      {
        "type": "note_on",
        "time": 0,
        "note": 49,
        "velocity": 0,
        "channel": 0
      },
      {
        "type": "note_on",
        "time": 0,
        "note": 42,
        "velocity": 0,
        "channel": 0
      },
      {
        "type": "note_on",
        "time": 1,
        "note": 66,
        "velocity": 60,
        "channel": 0
      },
      {
        "type": "note_on",
        "time": 0,
        "note": 61,
        "velocity": 60,
        "channel": 0
      },
      {
        "type": "note_on",
        "time": 0,
        "note": 58,
        "velocity": 60,
        "channel": 0
      },
      {
        "type": "note_on",
        "time": 0,
        "note": 54,
        "velocity": 60,
        "channel": 0
      },
      {
        "type": "note_on",
        "time": 0,
        "note": 49,
        "velocity": 60,
        "channel": 0
      },
      {
        "type": "note_on",
        "time": 0,
        "note": 42,
        "velocity": 60,
        "channel": 0
      },
      {
        "type": "note_on",
        "time": 29,
        "note": 66,
        "velocity": 0,
        "channel": 0
      },
      {
        "type": "note_on",
        "time": 0,
        "note": 61,
        "velocity": 0,
        "channel": 0
      },
      {
        "type": "note_on",
        "time": 0,
        "note": 58,
        "velocity": 0,
        "channel": 0
      },
      {
        "type": "note_on",
        "time": 0,
        "note": 54,
        "velocity": 0,
        "channel": 0
      },
      {
        "type": "note_on",
        "time": 0,
        "note": 49,
        "velocity": 0,
        "channel": 0
      },
      {
        "type": "note_on",
        "time": 0,
        "note": 42,
        "velocity": 0,
        "channel": 0
      },
      {
        "type": "note_on",
        "time": 1,
        "note": 66,
        "velocity": 60,
        "channel": 0
      },
      {
        "type": "note_on",
        "time": 0,
        "note": 58,
        "velocity": 60,
        "channel": 0
      },
      {
        "type": "note_on",
        "time": 0,
        "note": 61,
        "velocity": 60,
        "channel": 0
      },
      {
        "type": "note_on",
        "time": 0,
        "note": 54,
        "velocity": 60,
        "channel": 0
      },
      {
        "type": "note_on",
        "time": 0,
        "note": 49,
        "velocity": 60,
        "channel": 0
      },
      {
        "type": "note_on",
        "time": 0,
        "note": 42,
        "velocity": 60,
        "channel": 0
      },
      {
        "type": "note_on",
        "time": 59,
        "note": 66,
        "velocity": 0,
        "channel": 0
      },
      {
        "type": "note_on",
        "time": 0,
        "note": 58,
        "velocity": 0,
        "channel": 0
      },
      {
        "type": "note_on",
        "time": 0,
        "note": 61,
        "velocity": 0,
        "channel": 0
      },
      {
        "type": "note_on",
        "time": 0,
        "note": 54,
        "velocity": 0,
        "channel": 0
      },
      {
        "type": "note_on",
        "time": 0,
        "note": 49,
        "velocity": 0,
        "channel": 0
      },
      {
        "type": "note_on",
        "time": 0,
        "note": 42,
        "velocity": 0,
        "channel": 0
      },
      {
        "type": "note_on",
        "time": 1,
        "note": 66,
        "velocity": 60,
        "channel": 0
      },
      {
        "type": "note_on",
        "time": 0,
        "note": 61,
        "velocity": 60,
        "channel": 0
      },
      {
        "type": "note_on",
        "time": 0,
        "note": 58,
        "velocity": 60,
        "channel": 0
      },
      {
        "type": "note_on",
        "time": 0,
        "note": 54,
        "velocity": 60,
        "channel": 0
      },
      {
        "type": "note_on",
        "time": 0,
        "note": 49,
        "velocity": 60,
        "channel": 0
      },
      {
        "type": "note_on",
        "time": 0,
        "note": 42,
        "velocity": 60,
        "channel": 0
      },
      {
        "type": "note_on",
        "time": 29,
        "note": 66,
        "velocity": 0,
        "channel": 0
      },
      {
        "type": "note_on",
        "time": 0,
        "note": 61,
        "velocity": 0,
        "channel": 0
      },
      {
        "type": "note_on",
        "time": 0,
        "note": 58,
        "velocity": 0,
        "channel": 0
      },
      {
        "type": "note_on",
        "time": 0,
        "note": 54,
        "velocity": 0,
        "channel": 0
      },
      {
        "type": "note_on",
        "time": 0,
        "note": 49,
        "velocity": 0,
        "channel": 0
      },
      {
        "type": "note_on",
        "time": 0,
        "note": 42,
        "velocity": 0,
        "channel": 0
      },
      {
        "type": "note_on",
        "time": 1,
        "note": 66,
        "velocity": 60,
        "channel": 0
      },
      {
        "type": "note_on",
        "time": 0,
        "note": 61,
        "velocity": 60,
        "channel": 0
      },
      {
        "type": "note_on",
        "time": 0,
        "note": 58,
        "velocity": 60,
        "channel": 0
      },
      {
        "type": "note_on",
        "time": 0,
        "note": 54,
        "velocity": 60,
        "channel": 0
      },
      {
        "type": "note_on",
        "time": 0,
        "note": 49,
        "velocity": 60,
        "channel": 0
      },
      {
        "type": "note_on",
        "time": 0,
        "note": 42,
        "velocity": 60,
        "channel": 0
      },
      {
        "type": "note_on",
        "time": 29,
        "note": 66,
        "velocity": 0,
        "channel": 0
      },
      {
        "type": "note_on",
        "time": 0,
        "note": 61,
        "velocity": 0,
        "channel": 0
      },
      {
        "type": "note_on",
        "time": 0,
        "note": 58,
        "velocity": 0,
        "channel": 0
      },
      {
        "type": "note_on",
        "time": 0,
        "note": 54,
        "velocity": 0,
        "channel": 0
      },
      {
        "type": "note_on",
        "time": 0,
        "note": 49,
        "velocity": 0,
        "channel": 0
      },
      {
        "type": "note_on",
        "time": 0,
        "note": 42,
        "velocity": 0,
        "channel": 0
      },
      {
        "type": "note_on",
        "time": 1,
        "note": 66,
        "velocity": 60,
        "channel": 0
      },
      {
        "type": "note_on",
        "time": 0,
        "note": 61,
        "velocity": 60,
        "channel": 0
      },
      {
        "type": "note_on",
        "time": 0,
        "note": 58,
        "velocity": 60,
        "channel": 0
      },
      {
        "type": "note_on",
        "time": 0,
        "note": 54,
        "velocity": 60,
        "channel": 0
      },
      {
        "type": "note_on",
        "time": 0,
        "note": 49,
        "velocity": 60,
        "channel": 0
      },
      {
        "type": "note_on",
        "time": 0,
        "note": 42,
        "velocity": 60,
        "channel": 0
      },
      {
        "type": "note_on",
        "time": 179,
        "note": 66,
        "velocity": 0,
        "channel": 0
      },
      {
        "type": "note_on",
        "time": 0,
        "note": 61,
        "velocity": 0,
        "channel": 0
      },
      {
        "type": "note_on",
        "time": 0,
        "note": 58,
        "velocity": 0,
        "channel": 0
      },
      {
        "type": "note_on",
        "time": 0,
        "note": 54,
        "velocity": 0,
        "channel": 0
      },
      {
        "type": "note_on",
        "time": 0,
        "note": 49,
        "velocity": 0,
        "channel": 0
      },
      {
        "type": "note_on",
        "time": 0,
        "note": 42,
        "velocity": 0,
        "channel": 0
      },
      {
        "type": "note_on",
        "time": 1,
        "note": 66,
        "velocity": 60,
        "channel": 0
      },
      {
        "type": "note_on",
        "time": 0,
        "note": 61,
        "velocity": 60,
        "channel": 0
      },
      {
        "type": "note_on",
        "time": 0,
        "note": 58,
        "velocity": 60,
        "channel": 0
      },
      {
        "type": "note_on",
        "time": 0,
        "note": 54,
        "velocity": 60,
        "channel": 0
      },
      {
        "type": "note_on",
        "time": 0,
        "note": 49,
        "velocity": 60,
        "channel": 0
      },
      {
        "type": "note_on",
        "time": 0,
        "note": 42,
        "velocity": 60,
        "channel": 0
      },
      {
        "type": "note_on",
        "time": 29,
        "note": 66,
        "velocity": 0,
        "channel": 0
      },
      {
        "type": "note_on",
        "time": 0,
        "note": 61,
        "velocity": 0,
        "channel": 0
      },
      {
        "type": "note_on",
        "time": 0,
        "note": 58,
        "velocity": 0,
        "channel": 0
      },
      {
        "type": "note_on",
        "time": 0,
        "note": 54,
        "velocity": 0,
        "channel": 0
      },
      {
        "type": "note_on",
        "time": 0,
        "note": 49,
        "velocity": 0,
        "channel": 0
      },
      {
        "type": "note_on",
        "time": 0,
        "note": 42,
        "velocity": 0,
        "channel": 0
      },
      {
        "type": "note_on",
        "time": 1,
        "note": 66,
        "velocity": 60,
        "channel": 0
      },
      {
        "type": "note_on",
        "time": 0,
        "note": 61,
        "velocity": 60,
        "channel": 0
      },
      {
        "type": "note_on",
        "time": 0,
        "note": 58,
        "velocity": 60,
        "channel": 0
      },
      {
        "type": "note_on",
        "time": 0,
        "note": 54,
        "velocity": 60,
        "channel": 0
      },
      {
        "type": "note_on",
        "time": 0,
        "note": 49,
        "velocity": 60,
        "channel": 0
      },
      {
        "type": "note_on",
        "time": 0,
        "note": 42,
        "velocity": 60,
        "channel": 0
      },
      {
        "type": "note_on",
        "time": 29,
        "note": 66,
        "velocity": 0,
        "channel": 0
      },
      {
        "type": "note_on",
        "time": 0,
        "note": 61,
        "velocity": 0,
        "channel": 0
      },
      {
        "type": "note_on",
        "time": 0,
        "note": 58,
        "velocity": 0,
        "channel": 0
      },
      {
        "type": "note_on",
        "time": 0,
        "note": 54,
        "velocity": 0,
        "channel": 0
      },
      {
        "type": "note_on",
        "time": 0,
        "note": 49,
        "velocity": 0,
        "channel": 0
      },
      {
        "type": "note_on",
        "time": 0,
        "note": 42,
        "velocity": 0,
        "channel": 0
      },
      {
        "type": "note_on",
        "time": 1,
        "note": 40,
        "velocity": 60,
        "channel": 0
      },
      {
        "type": "note_on",
        "time": 0,
        "note": 45,
        "velocity": 60,
        "channel": 0
      },
      {
        "type": "note_on",
        "time": 0,
        "note": 52,
        "velocity": 60,
        "channel": 0
      },
      {
        "type": "note_on",
        "time": 0,
        "note": 57,
        "velocity": 60,
        "channel": 0
      },
      {
        "type": "note_on",
        "time": 0,
        "note": 61,
        "velocity": 60,
        "channel": 0
      },
      {
        "type": "note_on",
        "time": 0,
        "note": 64,
        "velocity": 60,
        "channel": 0
      },
      {
        "type": "note_on",
        "time": 59,
        "note": 40,
        "velocity": 0,
        "channel": 0
      },
      {
        "type": "note_on",
        "time": 0,
        "note": 45,
        "velocity": 0,
        "channel": 0
      },
      {
        "type": "note_on",
        "time": 0,
        "note": 52,
        "velocity": 0,
        "channel": 0
      },
      {
        "type": "note_on",
        "time": 0,
        "note": 57,
        "velocity": 0,
        "channel": 0
      },
      {
        "type": "note_on",
        "time": 0,
        "note": 61,
        "velocity": 0,
        "channel": 0
      },
      {
        "type": "note_on",
        "time": 0,
        "note": 64,
        "velocity": 0,
        "channel": 0
      },
      {
        "type": "note_on",
        "time": 1,
        "note": 64,
        "velocity": 60,
        "channel": 0
      },
      {
        "type": "note_on",
        "time": 0,
        "note": 61,
        "velocity": 60,
        "channel": 0
      },
      {
        "type": "note_on",
        "time": 0,
        "note": 57,
        "velocity": 60,
        "channel": 0
      },
      {
        "type": "note_on",
        "time": 0,
        "note": 52,
        "velocity": 60,
        "channel": 0
      },
      {
        "type": "note_on",
        "time": 0,
        "note": 45,
        "velocity": 60,
        "channel": 0
      },
      {
        "type": "note_on",
        "time": 0,
        "note": 40,
        "velocity": 60,
        "channel": 0
      },
      {
        "type": "note_on",
        "time": 29,
        "note": 64,
        "velocity": 0,
        "channel": 0
      },
      {
        "type": "note_on",
        "time": 0,
        "note": 61,
        "velocity": 0,
        "channel": 0
      },
      {
        "type": "note_on",
        "time": 0,
        "note": 57,
        "velocity": 0,
        "channel": 0
      },
      {
        "type": "note_on",
        "time": 0,
        "note": 52,
        "velocity": 0,
        "channel": 0
      },
      {
        "type": "note_on",
        "time": 0,
        "note": 45,
        "velocity": 0,
        "channel": 0
      },
      {
        "type": "note_on",
        "time": 0,
        "note": 40,
        "velocity": 0,
        "channel": 0
      },
      {
        "type": "note_on",
        "time": 1,
        "note": 64,
        "velocity": 60,
        "channel": 0
      },
      {
        "type": "note_on",
        "time": 0,
        "note": 61,
        "velocity": 60,
        "channel": 0
      },
      {
        "type": "note_on",
        "time": 0,
        "note": 57,
        "velocity": 60,
        "channel": 0
      },
      {
        "type": "note_on",
        "time": 0,
        "note": 52,
        "velocity": 60,
        "channel": 0
      },
      {
        "type": "note_on",
        "time": 0,
        "note": 45,
        "velocity": 60,
        "channel": 0
      },
      {
        "type": "note_on",
        "time": 0,
        "note": 40,
        "velocity": 60,
        "channel": 0
      },
      {
        "type": "note_on",
        "time": 29,
        "note": 64,
        "velocity": 0,
        "channel": 0
      },
      {
        "type": "note_on",
        "time": 0,
        "note": 61,
        "velocity": 0,
        "channel": 0
      },
      {
        "type": "note_on",
        "time": 0,
        "note": 57,
        "velocity": 0,
        "channel": 0
      },
      {
        "type": "note_on",
        "time": 0,
        "note": 52,
        "velocity": 0,
        "channel": 0
      },
      {
        "type": "note_on",
        "time": 0,
        "note": 45,
        "velocity": 0,
        "channel": 0
      },
      {
        "type": "note_on",
        "time": 0,
        "note": 40,
        "velocity": 0,
        "channel": 0
      },
      {
        "type": "note_on",
        "time": 1,
        "note": 64,
        "velocity": 60,
        "channel": 0
      },
      {
        "type": "note_on",
        "time": 0,
        "note": 61,
        "velocity": 60,
        "channel": 0
      },
      {
        "type": "note_on",
        "time": 0,
        "note": 57,
        "velocity": 60,
        "channel": 0
      },
      {
        "type": "note_on",
        "time": 0,
        "note": 52,
        "velocity": 60,
        "channel": 0
      },
      {
        "type": "note_on",
        "time": 0,
        "note": 45,
        "velocity": 60,
        "channel": 0
      },
      {
        "type": "note_on",
        "time": 0,
        "note": 40,
        "velocity": 60,
        "channel": 0
      },
      {
        "type": "note_on",
        "time": 59,
        "note": 64,
        "velocity": 0,
        "channel": 0
      },
      {
        "type": "note_on",
        "time": 0,
        "note": 61,
        "velocity": 0,
        "channel": 0
      },
      {
        "type": "note_on",
        "time": 0,
        "note": 57,
        "velocity": 0,
        "channel": 0
      },
      {
        "type": "note_on",
        "time": 0,
        "note": 52,
        "velocity": 0,
        "channel": 0
      },
      {
        "type": "note_on",
        "time": 0,
        "note": 45,
        "velocity": 0,
        "channel": 0
      },
      {
        "type": "note_on",
        "time": 0,
        "note": 40,
        "velocity": 0,
        "channel": 0
      },
      {
        "type": "note_on",
        "time": 1,
        "note": 64,
        "velocity": 60,
        "channel": 0
      },
      {
        "type": "note_on",
        "time": 0,
        "note": 61,
        "velocity": 60,
        "channel": 0
      },
      {
        "type": "note_on",
        "time": 0,
        "note": 57,
        "velocity": 60,
        "channel": 0
      },
      {
        "type": "note_on",
        "time": 0,
        "note": 52,
        "velocity": 60,
        "channel": 0
      },
      {
        "type": "note_on",
        "time": 0,
        "note": 45,
        "velocity": 60,
        "channel": 0
      },
      {
        "type": "note_on",
        "time": 0,
        "note": 40,
        "velocity": 60,
        "channel": 0
      },
      {
        "type": "note_on",
        "time": 29,
        "note": 64,
        "velocity": 0,
        "channel": 0
      },
      {
        "type": "note_on",
        "time": 0,
        "note": 61,
        "velocity": 0,
        "channel": 0
      },
      {
        "type": "note_on",
        "time": 0,
        "note": 57,
        "velocity": 0,
        "channel": 0
      },
      {
        "type": "note_on",
        "time": 0,
        "note": 52,
        "velocity": 0,
        "channel": 0
      },
      {
        "type": "note_on",
        "time": 0,
        "note": 45,
        "velocity": 0,
        "channel": 0
      },
      {
        "type": "note_on",
        "time": 0,
        "note": 40,
        "velocity": 0,
        "channel": 0
      },
      {
        "type": "note_on",
        "time": 1,
        "note": 64,
        "velocity": 60,
        "channel": 0
      },
      {
        "type": "note_on",
        "time": 0,
        "note": 61,
        "velocity": 60,
        "channel": 0
      },
      {
        "type": "note_on",
        "time": 0,
        "note": 57,
        "velocity": 60,
        "channel": 0
      },
      {
        "type": "note_on",
        "time": 0,
        "note": 52,
        "velocity": 60,
        "channel": 0
      },
      {
        "type": "note_on",
        "time": 0,
        "note": 45,
        "velocity": 60,
        "channel": 0
      },
      {
        "type": "note_on",
        "time": 0,
        "note": 40,
        "velocity": 60,
        "channel": 0
      },
      {
        "type": "note_on",
        "time": 29,
        "note": 64,
        "velocity": 0,
        "channel": 0
      },
      {
        "type": "note_on",
        "time": 0,
        "note": 61,
        "velocity": 0,
        "channel": 0
      },
      {
        "type": "note_on",
        "time": 0,
        "note": 57,
        "velocity": 0,
        "channel": 0
      },
      {
        "type": "note_on",
        "time": 0,
        "note": 52,
        "velocity": 0,
        "channel": 0
      },
      {
        "type": "note_on",
        "time": 0,
        "note": 45,
        "velocity": 0,
        "channel": 0
      },
      {
        "type": "note_on",
        "time": 0,
        "note": 40,
        "velocity": 0,
        "channel": 0
      },
      {
        "type": "note_on",
        "time": 1,
        "note": 64,
        "velocity": 60,
        "channel": 0
      },
      {
        "type": "note_on",
        "time": 0,
        "note": 61,
        "velocity": 60,
        "channel": 0
      },
      {
        "type": "note_on",
        "time": 0,
        "note": 57,
        "velocity": 60,
        "channel": 0
      },
      {
        "type": "note_on",
        "time": 0,
        "note": 52,
        "velocity": 60,
        "channel": 0
      },
      {
        "type": "note_on",
        "time": 0,
        "note": 45,
        "velocity": 60,
        "channel": 0
      },
      {
        "type": "note_on",
        "time": 0,
        "note": 40,
        "velocity": 60,
        "channel": 0
      },
      {
        "type": "note_on",
        "time": 29,
        "note": 64,
        "velocity": 0,
        "channel": 0
      },
      {
        "type": "note_on",
        "time": 0,
        "note": 61,
        "velocity": 0,
        "channel": 0
      },
      {
        "type": "note_on",
        "time": 0,
        "note": 57,
        "velocity": 0,
        "channel": 0
      },
      {
        "type": "note_on",
        "time": 0,
        "note": 52,
        "velocity": 0,
        "channel": 0
      },
      {
        "type": "note_on",
        "time": 0,
        "note": 45,
        "velocity": 0,
        "channel": 0
      },
      {
        "type": "note_on",
        "time": 0,
        "note": 40,
        "velocity": 0,
        "channel": 0
      },
      {
        "type": "note_on",
        "time": 1,
        "note": 64,
        "velocity": 60,
        "channel": 0
      },
      {
        "type": "note_on",
        "time": 0,
        "note": 61,
        "velocity": 60,
        "channel": 0
      },
      {
        "type": "note_on",
        "time": 0,
        "note": 57,
        "velocity": 60,
        "channel": 0
      },
      {
        "type": "note_on",
        "time": 0,
        "note": 52,
        "velocity": 60,
        "channel": 0
      },
      {
        "type": "note_on",
        "time": 0,
        "note": 45,
        "velocity": 60,
        "channel": 0
      },
      {
        "type": "note_on",
        "time": 0,
        "note": 40,
        "velocity": 60,
        "channel": 0
      },
      {
        "type": "note_on",
        "time": 29,
        "note": 64,
        "velocity": 0,
        "channel": 0
      },
      {
        "type": "note_on",
        "time": 0,
        "note": 61,
        "velocity": 0,
        "channel": 0
      },
      {
        "type": "note_on",
        "time": 0,
        "note": 57,
        "velocity": 0,
        "channel": 0
      },
      {
        "type": "note_on",
        "time": 0,
        "note": 52,
        "velocity": 0,
        "channel": 0
      },
      {
        "type": "note_on",
        "time": 0,
        "note": 45,
        "velocity": 0,
        "channel": 0
      },
      {
        "type": "note_on",
        "time": 0,
        "note": 40,
        "velocity": 0,
        "channel": 0
      },
      {
        "type": "note_on",
        "time": 1,
        "note": 64,
        "velocity": 60,
        "channel": 0
      },
      {
        "type": "note_on",
        "time": 0,
        "note": 61,
        "velocity": 60,
        "channel": 0
      },
      {
        "type": "note_on",
        "time": 0,
        "note": 57,
        "velocity": 60,
        "channel": 0
      },
      {
        "type": "note_on",
        "time": 0,
        "note": 52,
        "velocity": 60,
        "channel": 0
      },
      {
        "type": "note_on",
        "time": 0,
        "note": 45,
        "velocity": 60,
        "channel": 0
      },
      {
        "type": "note_on",
        "time": 0,
        "note": 40,
        "velocity": 60,
        "channel": 0
      },
      {
        "type": "note_on",
        "time": 29,
        "note": 64,
        "velocity": 0,
        "channel": 0
      },
      {
        "type": "note_on",
        "time": 0,
        "note": 61,
        "velocity": 0,
        "channel": 0
      },
      {
        "type": "note_on",
        "time": 0,
        "note": 57,
        "velocity": 0,
        "channel": 0
      },
      {
        "type": "note_on",
        "time": 0,
        "note": 52,
        "velocity": 0,
        "channel": 0
      },
      {
        "type": "note_on",
        "time": 0,
        "note": 45,
        "velocity": 0,
        "channel": 0
      },
      {
        "type": "note_on",
        "time": 0,
        "note": 40,
        "velocity": 0,
        "channel": 0
      },
      {
        "type": "note_on",
        "time": 1,
        "note": 64,
        "velocity": 60,
        "channel": 0
      },
      {
        "type": "note_on",
        "time": 0,
        "note": 61,
        "velocity": 60,
        "channel": 0
      },
      {
        "type": "note_on",
        "time": 0,
        "note": 57,
        "velocity": 60,
        "channel": 0
      },
      {
        "type": "note_on",
        "time": 0,
        "note": 52,
        "velocity": 60,
        "channel": 0
      },
      {
        "type": "note_on",
        "time": 0,
        "note": 45,
        "velocity": 60,
        "channel": 0
      },
      {
        "type": "note_on",
        "time": 0,
        "note": 40,
        "velocity": 60,
        "channel": 0
      },
      {
        "type": "note_on",
        "time": 59,
        "note": 64,
        "velocity": 0,
        "channel": 0
      },
      {
        "type": "note_on",
        "time": 0,
        "note": 61,
        "velocity": 0,
        "channel": 0
      },
      {
        "type": "note_on",
        "time": 0,
        "note": 57,
        "velocity": 0,
        "channel": 0
      },
      {
        "type": "note_on",
        "time": 0,
        "note": 52,
        "velocity": 0,
        "channel": 0
      },
      {
        "type": "note_on",
        "time": 0,
        "note": 45,
        "velocity": 0,
        "channel": 0
      },
      {
        "type": "note_on",
        "time": 0,
        "note": 40,
        "velocity": 0,
        "channel": 0
      },
      {
        "type": "note_on",
        "time": 1,
        "note": 64,
        "velocity": 60,
        "channel": 0
      },
      {
        "type": "note_on",
        "time": 0,
        "note": 61,
        "velocity": 60,
        "channel": 0
      },
      {
        "type": "note_on",
        "time": 0,
        "note": 57,
        "velocity": 60,
        "channel": 0
      },
      {
        "type": "note_on",
        "time": 0,
        "note": 52,
        "velocity": 60,
        "channel": 0
      },
      {
        "type": "note_on",
        "time": 0,
        "note": 45,
        "velocity": 60,
        "channel": 0
      },
      {
        "type": "note_on",
        "time": 0,
        "note": 40,
        "velocity": 60,
        "channel": 0
      },
      {
        "type": "note_on",
        "time": 29,
        "note": 64,
        "velocity": 0,
        "channel": 0
      },
      {
        "type": "note_on",
        "time": 0,
        "note": 61,
        "velocity": 0,
        "channel": 0
      },
      {
        "type": "note_on",
        "time": 0,
        "note": 57,
        "velocity": 0,
        "channel": 0
      },
      {
        "type": "note_on",
        "time": 0,
        "note": 52,
        "velocity": 0,
        "channel": 0
      },
      {
        "type": "note_on",
        "time": 0,
        "note": 45,
        "velocity": 0,
        "channel": 0
      },
      {
        "type": "note_on",
        "time": 0,
        "note": 40,
        "velocity": 0,
        "channel": 0
      },
      {
        "type": "note_on",
        "time": 1,
        "note": 64,
        "velocity": 60,
        "channel": 0
      },
      {
        "type": "note_on",
        "time": 0,
        "note": 61,
        "velocity": 60,
        "channel": 0
      },
      {
        "type": "note_on",
        "time": 0,
        "note": 57,
        "velocity": 60,
        "channel": 0
      },
      {
        "type": "note_on",
        "time": 0,
        "note": 52,
        "velocity": 60,
        "channel": 0
      },
      {
        "type": "note_on",
        "time": 0,
        "note": 45,
        "velocity": 60,
        "channel": 0
      },
      {
        "type": "note_on",
        "time": 0,
        "note": 40,
        "velocity": 60,
        "channel": 0
      },
      {
        "type": "note_on",
        "time": 59,
        "note": 64,
        "velocity": 0,
        "channel": 0
      },
      {
        "type": "note_on",
        "time": 0,
        "note": 61,
        "velocity": 0,
        "channel": 0
      },
      {
        "type": "note_on",
        "time": 0,
        "note": 57,
        "velocity": 0,
        "channel": 0
      },
      {
        "type": "note_on",
        "time": 0,
        "note": 52,
        "velocity": 0,
        "channel": 0
      },
      {
        "type": "note_on",
        "time": 0,
        "note": 45,
        "velocity": 0,
        "channel": 0
      },
      {
        "type": "note_on",
        "time": 0,
        "note": 40,
        "velocity": 0,
        "channel": 0
      },
      {
        "type": "note_on",
        "time": 1,
        "note": 40,
        "velocity": 60,
        "channel": 0
      },
      {
        "type": "note_on",
        "time": 0,
        "note": 47,
        "velocity": 60,
        "channel": 0
      },
      {
        "type": "note_on",
        "time": 0,
        "note": 52,
        "velocity": 60,
        "channel": 0
      },
      {
        "type": "note_on",
        "time": 0,
        "note": 56,
        "velocity": 60,
        "channel": 0
      },
      {
        "type": "note_on",
        "time": 0,
        "note": 59,
        "velocity": 60,
        "channel": 0
      },
      {
        "type": "note_on",
        "time": 0,
        "note": 64,
        "velocity": 60,
        "channel": 0
      },
      {
        "type": "note_on",
        "time": 59,
        "note": 40,
        "velocity": 0,
        "channel": 0
      },
      {
        "type": "note_on",
        "time": 0,
        "note": 47,
        "velocity": 0,
        "channel": 0
      },
      {
        "type": "note_on",
        "time": 0,
        "note": 52,
        "velocity": 0,
        "channel": 0
      },
      {
        "type": "note_on",
        "time": 0,
        "note": 56,
        "velocity": 0,
        "channel": 0
      },
      {
        "type": "note_on",
        "time": 0,
        "note": 59,
        "velocity": 0,
        "channel": 0
      },
      {
        "type": "note_on",
        "time": 0,
        "note": 64,
        "velocity": 0,
        "channel": 0
      },
      {
        "type": "note_on",
        "time": 1,
        "note": 64,
        "velocity": 60,
        "channel": 0
      },
      {
        "type": "note_on",
        "time": 0,
        "note": 59,
        "velocity": 60,
        "channel": 0
      },
      {
        "type": "note_on",
        "time": 0,
        "note": 56,
        "velocity": 60,
        "channel": 0
      },
      {
        "type": "note_on",
        "time": 0,
        "note": 52,
        "velocity": 60,
        "channel": 0
      },
      {
        "type": "note_on",
        "time": 0,
        "note": 47,
        "velocity": 60,
        "channel": 0
      },
      {
        "type": "note_on",
        "time": 0,
        "note": 40,
        "velocity": 60,
        "channel": 0
      },
      {
        "type": "note_on",
        "time": 29,
        "note": 64,
        "velocity": 0,
        "channel": 0
      },
      {
        "type": "note_on",
        "time": 0,
        "note": 59,
        "velocity": 0,
        "channel": 0
      },
      {
        "type": "note_on",
        "time": 0,
        "note": 56,
        "velocity": 0,
        "channel": 0
      },
      {
        "type": "note_on",
        "time": 0,
        "note": 52,
        "velocity": 0,
        "channel": 0
      },
      {
        "type": "note_on",
        "time": 0,
        "note": 47,
        "velocity": 0,
        "channel": 0
      },
      {
        "type": "note_on",
        "time": 0,
        "note": 40,
        "velocity": 0,
        "channel": 0
      },
      {
        "type": "note_on",
        "time": 1,
        "note": 64,
        "velocity": 60,
        "channel": 0
      },
      {
        "type": "note_on",
        "time": 0,
        "note": 59,
        "velocity": 60,
        "channel": 0
      },
      {
        "type": "note_on",
        "time": 0,
        "note": 56,
        "velocity": 60,
        "channel": 0
      },
      {
        "type": "note_on",
        "time": 0,
        "note": 52,
        "velocity": 60,
        "channel": 0
      },
      {
        "type": "note_on",
        "time": 0,
        "note": 47,
        "velocity": 60,
        "channel": 0
      },
      {
        "type": "note_on",
        "time": 0,
        "note": 40,
        "velocity": 60,
        "channel": 0
      },
      {
        "type": "note_on",
        "time": 29,
        "note": 64,
        "velocity": 0,
        "channel": 0
      },
      {
        "type": "note_on",
        "time": 0,
        "note": 59,
        "velocity": 0,
        "channel": 0
      },
      {
        "type": "note_on",
        "time": 0,
        "note": 56,
        "velocity": 0,
        "channel": 0
      },
      {
        "type": "note_on",
        "time": 0,
        "note": 52,
        "velocity": 0,
        "channel": 0
      },
      {
        "type": "note_on",
        "time": 0,
        "note": 47,
        "velocity": 0,
        "channel": 0
      },
      {
        "type": "note_on",
        "time": 0,
        "note": 40,
        "velocity": 0,
        "channel": 0
      },
      {
        "type": "note_on",
        "time": 1,
        "note": 64,
        "velocity": 60,
        "channel": 0
      },
      {
        "type": "note_on",
        "time": 0,
        "note": 59,
        "velocity": 60,
        "channel": 0
      },
      {
        "type": "note_on",
        "time": 0,
        "note": 56,
        "velocity": 60,
        "channel": 0
      },
      {
        "type": "note_on",
        "time": 0,
        "note": 52,
        "velocity": 60,
        "channel": 0
      },
      {
        "type": "note_on",
        "time": 0,
        "note": 47,
        "velocity": 60,
        "channel": 0
      },
      {
        "type": "note_on",
        "time": 0,
        "note": 40,
        "velocity": 60,
        "channel": 0
      },
      {
        "type": "note_on",
        "time": 59,
        "note": 64,
        "velocity": 0,
        "channel": 0
      },
      {
        "type": "note_on",
        "time": 0,
        "note": 59,
        "velocity": 0,
        "channel": 0
      },
      {
        "type": "note_on",
        "time": 0,
        "note": 56,
        "velocity": 0,
        "channel": 0
      },
      {
        "type": "note_on",
        "time": 0,
        "note": 52,
        "velocity": 0,
        "channel": 0
      },
      {
        "type": "note_on",
        "time": 0,
        "note": 47,
        "velocity": 0,
        "channel": 0
      },
      {
        "type": "note_on",
        "time": 0,
        "note": 40,
        "velocity": 0,
        "channel": 0
      },
      {
        "type": "note_on",
        "time": 1,
        "note": 64,
        "velocity": 60,
        "channel": 0
      },
      {
        "type": "note_on",
        "time": 0,
        "note": 59,
        "velocity": 60,
        "channel": 0
      },
      {
        "type": "note_on",
        "time": 0,
        "note": 56,
        "velocity": 60,
        "channel": 0
      },
      {
        "type": "note_on",
        "time": 0,
        "note": 52,
        "velocity": 60,
        "channel": 0
      },
      {
        "type": "note_on",
        "time": 0,
        "note": 47,
        "velocity": 60,
        "channel": 0
      },
      {
        "type": "note_on",
        "time": 0,
        "note": 40,
        "velocity": 60,
        "channel": 0
      },
      {
        "type": "note_on",
        "time": 29,
        "note": 64,
        "velocity": 0,
        "channel": 0
      },
      {
        "type": "note_on",
        "time": 0,
        "note": 59,
        "velocity": 0,
        "channel": 0
      },
      {
        "type": "note_on",
        "time": 0,
        "note": 56,
        "velocity": 0,
        "channel": 0
      },
      {
        "type": "note_on",
        "time": 0,
        "note": 52,
        "velocity": 0,
        "channel": 0
      },
      {
        "type": "note_on",
        "time": 0,
        "note": 47,
        "velocity": 0,
        "channel": 0
      },
      {
        "type": "note_on",
        "time": 0,
        "note": 40,
        "velocity": 0,
        "channel": 0
      },
      {
        "type": "note_on",
        "time": 1,
        "note": 64,
        "velocity": 60,
        "channel": 0
      },
      {
        "type": "note_on",
        "time": 0,
        "note": 59,
        "velocity": 60,
        "channel": 0
      },
      {
        "type": "note_on",
        "time": 0,
        "note": 56,
        "velocity": 60,
        "channel": 0
      },
      {
        "type": "note_on",
        "time": 0,
        "note": 52,
        "velocity": 60,
        "channel": 0
      },
      {
        "type": "note_on",
        "time": 0,
        "note": 47,
        "velocity": 60,
        "channel": 0
      },
      {
        "type": "note_on",
        "time": 0,
        "note": 40,
        "velocity": 60,
        "channel": 0
      },
      {
        "type": "note_on",
        "time": 29,
        "note": 64,
        "velocity": 0,
        "channel": 0
      },
      {
        "type": "note_on",
        "time": 0,
        "note": 59,
        "velocity": 0,
        "channel": 0
      },
      {
        "type": "note_on",
        "time": 0,
        "note": 56,
        "velocity": 0,
        "channel": 0
      },
      {
        "type": "note_on",
        "time": 0,
        "note": 52,
        "velocity": 0,
        "channel": 0
      },
      {
        "type": "note_on",
        "time": 0,
        "note": 47,
        "velocity": 0,
        "channel": 0
      },
      {
        "type": "note_on",
        "time": 0,
        "note": 40,
        "velocity": 0,
        "channel": 0
      },
      {
        "type": "note_on",
        "time": 1,
        "note": 64,
        "velocity": 60,
        "channel": 0
      },
      {
        "type": "note_on",
        "time": 0,
        "note": 59,
        "velocity": 60,
        "channel": 0
      },
      {
        "type": "note_on",
        "time": 0,
        "note": 56,
        "velocity": 60,
        "channel": 0
      },
      {
        "type": "note_on",
        "time": 0,
        "note": 52,
        "velocity": 60,
        "channel": 0
      },
      {
        "type": "note_on",
        "time": 0,
        "note": 47,
        "velocity": 60,
        "channel": 0
      },
      {
        "type": "note_on",
        "time": 0,
        "note": 40,
        "velocity": 60,
        "channel": 0
      },
      {
        "type": "note_on",
        "time": 239,
        "note": 64,
        "velocity": 0,
        "channel": 0
      },
      {
        "type": "note_on",
        "time": 0,
        "note": 59,
        "velocity": 0,
        "channel": 0
      },
      {
        "type": "note_on",
        "time": 0,
        "note": 56,
        "velocity": 0,
        "channel": 0
      },
      {
        "type": "note_on",
        "time": 0,
        "note": 52,
        "velocity": 0,
        "channel": 0
      },
      {
        "type": "note_on",
        "time": 0,
        "note": 47,
        "velocity": 0,
        "channel": 0
      },
      {
        "type": "note_on",
        "time": 0,
        "note": 40,
        "velocity": 0,
        "channel": 0
      },
      {
        "type": "note_on",
        "time": 1,
        "note": 43,
        "velocity": 60,
        "channel": 0
      },
      {
        "type": "note_on",
        "time": 0,
        "note": 50,
        "velocity": 60,
        "channel": 0
      },
      {
        "type": "note_on",
        "time": 0,
        "note": 55,
        "velocity": 60,
        "channel": 0
      },
      {
        "type": "note_on",
        "time": 0,
        "note": 59,
        "velocity": 60,
        "channel": 0
      },
      {
        "type": "note_on",
        "time": 0,
        "note": 62,
        "velocity": 60,
        "channel": 0
      },
      {
        "type": "note_on",
        "time": 0,
        "note": 67,
        "velocity": 60,
        "channel": 0
      },
      {
        "type": "note_on",
        "time": 59,
        "note": 43,
        "velocity": 0,
        "channel": 0
      },
      {
        "type": "note_on",
        "time": 0,
        "note": 50,
        "velocity": 0,
        "channel": 0
      },
      {
        "type": "note_on",
        "time": 0,
        "note": 55,
        "velocity": 0,
        "channel": 0
      },
      {
        "type": "note_on",
        "time": 0,
        "note": 59,
        "velocity": 0,
        "channel": 0
      },
      {
        "type": "note_on",
        "time": 0,
        "note": 62,
        "velocity": 0,
        "channel": 0
      },
      {
        "type": "note_on",
        "time": 0,
        "note": 67,
        "velocity": 0,
        "channel": 0
      },
      {
        "type": "note_on",
        "time": 1,
        "note": 67,
        "velocity": 60,
        "channel": 0
      },
      {
        "type": "note_on",
        "time": 0,
        "note": 62,
        "velocity": 60,
        "channel": 0
      },
      {
        "type": "note_on",
        "time": 0,
        "note": 59,
        "velocity": 60,
        "channel": 0
      },
      {
        "type": "note_on",
        "time": 0,
        "note": 55,
        "velocity": 60,
        "channel": 0
      },
      {
        "type": "note_on",
        "time": 0,
        "note": 50,
        "velocity": 60,
        "channel": 0
      },
      {
        "type": "note_on",
        "time": 0,
        "note": 43,
        "velocity": 60,
        "channel": 0
      },
      {
        "type": "note_on",
        "time": 29,
        "note": 67,
        "velocity": 0,
        "channel": 0
      },
      {
        "type": "note_on",
        "time": 0,
        "note": 62,
        "velocity": 0,
        "channel": 0
      },
      {
        "type": "note_on",
        "time": 0,
        "note": 59,
        "velocity": 0,
        "channel": 0
      },
      {
        "type": "note_on",
        "time": 0,
        "note": 55,
        "velocity": 0,
        "channel": 0
      },
      {
        "type": "note_on",
        "time": 0,
        "note": 50,
        "velocity": 0,
        "channel": 0
      },
      {
        "type": "note_on",
        "time": 0,
        "note": 43,
        "velocity": 0,
        "channel": 0
      },
      {
        "type": "note_on",
        "time": 1,
        "note": 67,
        "velocity": 60,
        "channel": 0
      },
      {
        "type": "note_on",
        "time": 0,
        "note": 62,
        "velocity": 60,
        "channel": 0
      },
      {
        "type": "note_on",
        "time": 0,
        "note": 59,
        "velocity": 60,
        "channel": 0
      },
      {
        "type": "note_on",
        "time": 0,
        "note": 55,
        "velocity": 60,
        "channel": 0
      },
      {
        "type": "note_on",
        "time": 0,
        "note": 50,
        "velocity": 60,
        "channel": 0
      },
      {
        "type": "note_on",
        "time": 0,
        "note": 43,
        "velocity": 60,
        "channel": 0
      },
      {
        "type": "note_on",
        "time": 29,
        "note": 67,
        "velocity": 0,
        "channel": 0
      },
      {
        "type": "note_on",
        "time": 0,
        "note": 62,
        "velocity": 0,
        "channel": 0
      },
      {
        "type": "note_on",
        "time": 0,
        "note": 59,
        "velocity": 0,
        "channel": 0
      },
      {
        "type": "note_on",
        "time": 0,
        "note": 55,
        "velocity": 0,
        "channel": 0
      },
      {
        "type": "note_on",
        "time": 0,
        "note": 50,
        "velocity": 0,
        "channel": 0
      },
      {
        "type": "note_on",
        "time": 0,
        "note": 43,
        "velocity": 0,
        "channel": 0
      },
      {
        "type": "note_on",
        "time": 1,
        "note": 67,
        "velocity": 60,
        "channel": 0
      },
      {
        "type": "note_on",
        "time": 0,
        "note": 62,
        "velocity": 60,
        "channel": 0
      },
      {
        "type": "note_on",
        "time": 0,
        "note": 59,
        "velocity": 60,
        "channel": 0
      },
      {
        "type": "note_on",
        "time": 0,
        "note": 55,
        "velocity": 60,
        "channel": 0
      },
      {
        "type": "note_on",
        "time": 0,
        "note": 50,
        "velocity": 60,
        "channel": 0
      },
      {
        "type": "note_on",
        "time": 0,
        "note": 43,
        "velocity": 60,
        "channel": 0
      },
      {
        "type": "note_on",
        "time": 59,
        "note": 67,
        "velocity": 0,
        "channel": 0
      },
      {
        "type": "note_on",
        "time": 0,
        "note": 62,
        "velocity": 0,
        "channel": 0
      },
      {
        "type": "note_on",
        "time": 0,
        "note": 59,
        "velocity": 0,
        "channel": 0
      },
      {
        "type": "note_on",
        "time": 0,
        "note": 55,
        "velocity": 0,
        "channel": 0
      },
      {
        "type": "note_on",
        "time": 0,
        "note": 50,
        "velocity": 0,
        "channel": 0
      },
      {
        "type": "note_on",
        "time": 0,
        "note": 43,
        "velocity": 0,
        "channel": 0
      },
      {
        "type": "note_on",
        "time": 1,
        "note": 67,
        "velocity": 60,
        "channel": 0
      },
      {
        "type": "note_on",
        "time": 0,
        "note": 62,
        "velocity": 60,
        "channel": 0
      },
      {
        "type": "note_on",
        "time": 0,
        "note": 59,
        "velocity": 60,
        "channel": 0
      },
      {
        "type": "note_on",
        "time": 0,
        "note": 55,
        "velocity": 60,
        "channel": 0
      },
      {
        "type": "note_on",
        "time": 0,
        "note": 50,
        "velocity": 60,
        "channel": 0
      },
      {
        "type": "note_on",
        "time": 0,
        "note": 43,
        "velocity": 60,
        "channel": 0
      },
      {
        "type": "note_on",
        "time": 29,
        "note": 67,
        "velocity": 0,
        "channel": 0
      },
      {
        "type": "note_on",
        "time": 0,
        "note": 62,
        "velocity": 0,
        "channel": 0
      },
      {
        "type": "note_on",
        "time": 0,
        "note": 59,
        "velocity": 0,
        "channel": 0
      },
      {
        "type": "note_on",
        "time": 0,
        "note": 55,
        "velocity": 0,
        "channel": 0
      },
      {
        "type": "note_on",
        "time": 0,
        "note": 50,
        "velocity": 0,
        "channel": 0
      },
      {
        "type": "note_on",
        "time": 0,
        "note": 43,
        "velocity": 0,
        "channel": 0
      },
      {
        "type": "note_on",
        "time": 1,
        "note": 67,
        "velocity": 60,
        "channel": 0
      },
      {
        "type": "note_on",
        "time": 0,
        "note": 62,
        "velocity": 60,
        "channel": 0
      },
      {
        "type": "note_on",
        "time": 0,
        "note": 59,
        "velocity": 60,
        "channel": 0
      },
      {
        "type": "note_on",
        "time": 0,
        "note": 55,
        "velocity": 60,
        "channel": 0
      },
      {
        "type": "note_on",
        "time": 0,
        "note": 50,
        "velocity": 60,
        "channel": 0
      },
      {
        "type": "note_on",
        "time": 0,
        "note": 43,
        "velocity": 60,
        "channel": 0
      },
      {
        "type": "note_on",
        "time": 29,
        "note": 67,
        "velocity": 0,
        "channel": 0
      },
      {
        "type": "note_on",
        "time": 0,
        "note": 62,
        "velocity": 0,
        "channel": 0
      },
      {
        "type": "note_on",
        "time": 0,
        "note": 59,
        "velocity": 0,
        "channel": 0
      },
      {
        "type": "note_on",
        "time": 0,
        "note": 55,
        "velocity": 0,
        "channel": 0
      },
      {
        "type": "note_on",
        "time": 0,
        "note": 50,
        "velocity": 0,
        "channel": 0
      },
      {
        "type": "note_on",
        "time": 0,
        "note": 43,
        "velocity": 0,
        "channel": 0
      },
      {
        "type": "note_on",
        "time": 1,
        "note": 67,
        "velocity": 60,
        "channel": 0
      },
      {
        "type": "note_on",
        "time": 0,
        "note": 62,
        "velocity": 60,
        "channel": 0
      },
      {
        "type": "note_on",
        "time": 0,
        "note": 59,
        "velocity": 60,
        "channel": 0
      },
      {
        "type": "note_on",
        "time": 0,
        "note": 55,
        "velocity": 60,
        "channel": 0
      },
      {
        "type": "note_on",
        "time": 0,
        "note": 50,
        "velocity": 60,
        "channel": 0
      },
      {
        "type": "note_on",
        "time": 0,
        "note": 43,
        "velocity": 60,
        "channel": 0
      },
      {
        "type": "note_on",
        "time": 29,
        "note": 67,
        "velocity": 0,
        "channel": 0
      },
      {
        "type": "note_on",
        "time": 0,
        "note": 62,
        "velocity": 0,
        "channel": 0
      },
      {
        "type": "note_on",
        "time": 0,
        "note": 59,
        "velocity": 0,
        "channel": 0
      },
      {
        "type": "note_on",
        "time": 0,
        "note": 55,
        "velocity": 0,
        "channel": 0
      },
      {
        "type": "note_on",
        "time": 0,
        "note": 50,
        "velocity": 0,
        "channel": 0
      },
      {
        "type": "note_on",
        "time": 0,
        "note": 43,
        "velocity": 0,
        "channel": 0
      },
      {
        "type": "note_on",
        "time": 1,
        "note": 67,
        "velocity": 60,
        "channel": 0
      },
      {
        "type": "note_on",
        "time": 0,
        "note": 62,
        "velocity": 60,
        "channel": 0
      },
      {
        "type": "note_on",
        "time": 0,
        "note": 59,
        "velocity": 60,
        "channel": 0
      },
      {
        "type": "note_on",
        "time": 0,
        "note": 55,
        "velocity": 60,
        "channel": 0
      },
      {
        "type": "note_on",
        "time": 0,
        "note": 50,
        "velocity": 60,
        "channel": 0
      },
      {
        "type": "note_on",
        "time": 0,
        "note": 43,
        "velocity": 60,
        "channel": 0
      },
      {
        "type": "note_on",
        "time": 29,
        "note": 67,
        "velocity": 0,
        "channel": 0
      },
      {
        "type": "note_on",
        "time": 0,
        "note": 62,
        "velocity": 0,
        "channel": 0
      },
      {
        "type": "note_on",
        "time": 0,
        "note": 59,
        "velocity": 0,
        "channel": 0
      },
      {
        "type": "note_on",
        "time": 0,
        "note": 55,
        "velocity": 0,
        "channel": 0
      },
      {
        "type": "note_on",
        "time": 0,
        "note": 50,
        "velocity": 0,
        "channel": 0
      },
      {
        "type": "note_on",
        "time": 0,
        "note": 43,
        "velocity": 0,
        "channel": 0
      },
      {
        "type": "note_on",
        "time": 1,
        "note": 67,
        "velocity": 60,
        "channel": 0
      },
      {
        "type": "note_on",
        "time": 0,
        "note": 62,
        "velocity": 60,
        "channel": 0
      },
      {
        "type": "note_on",
        "time": 0,
        "note": 59,
        "velocity": 60,
        "channel": 0
      },
      {
        "type": "note_on",
        "time": 0,
        "note": 55,
        "velocity": 60,
        "channel": 0
      },
      {
        "type": "note_on",
        "time": 0,
        "note": 50,
        "velocity": 60,
        "channel": 0
      },
      {
        "type": "note_on",
        "time": 0,
        "note": 43,
        "velocity": 60,
        "channel": 0
      },
      {
        "type": "note_on",
        "time": 29,
        "note": 67,
        "velocity": 0,
        "channel": 0
      },
      {
        "type": "note_on",
        "time": 0,
        "note": 62,
        "velocity": 0,
        "channel": 0
      },
      {
        "type": "note_on",
        "time": 0,
        "note": 59,
        "velocity": 0,
        "channel": 0
      },
      {
        "type": "note_on",
        "time": 0,
        "note": 55,
        "velocity": 0,
        "channel": 0
      },
      {
        "type": "note_on",
        "time": 0,
        "note": 50,
        "velocity": 0,
        "channel": 0
      },
      {
        "type": "note_on",
        "time": 0,
        "note": 43,
        "velocity": 0,
        "channel": 0
      },
      {
        "type": "note_on",
        "time": 1,
        "note": 67,
        "velocity": 60,
        "channel": 0
      },
      {
        "type": "note_on",
        "time": 0,
        "note": 62,
        "velocity": 60,
        "channel": 0
      },
      {
        "type": "note_on",
        "time": 0,
        "note": 59,
        "velocity": 60,
        "channel": 0
      },
      {
        "type": "note_on",
        "time": 0,
        "note": 55,
        "velocity": 60,
        "channel": 0
      },
      {
        "type": "note_on",
        "time": 0,
        "note": 50,
        "velocity": 60,
        "channel": 0
      },
      {
        "type": "note_on",
        "time": 0,
        "note": 43,
        "velocity": 60,
        "channel": 0
      },
      {
        "type": "note_on",
        "time": 59,
        "note": 67,
        "velocity": 0,
        "channel": 0
      },
      {
        "type": "note_on",
        "time": 0,
        "note": 62,
        "velocity": 0,
        "channel": 0
      },
      {
        "type": "note_on",
        "time": 0,
        "note": 59,
        "velocity": 0,
        "channel": 0
      },
      {
        "type": "note_on",
        "time": 0,
        "note": 55,
        "velocity": 0,
        "channel": 0
      },
      {
        "type": "note_on",
        "time": 0,
        "note": 50,
        "velocity": 0,
        "channel": 0
      },
      {
        "type": "note_on",
        "time": 0,
        "note": 43,
        "velocity": 0,
        "channel": 0
      },
      {
        "type": "note_on",
        "time": 1,
        "note": 67,
        "velocity": 60,
        "channel": 0
      },
      {
        "type": "note_on",
        "time": 0,
        "note": 62,
        "velocity": 60,
        "channel": 0
      },
      {
        "type": "note_on",
        "time": 0,
        "note": 59,
        "velocity": 60,
        "channel": 0
      },
      {
        "type": "note_on",
        "time": 0,
        "note": 55,
        "velocity": 60,
        "channel": 0
      },
      {
        "type": "note_on",
        "time": 0,
        "note": 50,
        "velocity": 60,
        "channel": 0
      },
      {
        "type": "note_on",
        "time": 0,
        "note": 43,
        "velocity": 60,
        "channel": 0
      },
      {
        "type": "note_on",
        "time": 29,
        "note": 67,
        "velocity": 0,
        "channel": 0
      },
      {
        "type": "note_on",
        "time": 0,
        "note": 62,
        "velocity": 0,
        "channel": 0
      },
      {
        "type": "note_on",
        "time": 0,
        "note": 59,
        "velocity": 0,
        "channel": 0
      },
      {
        "type": "note_on",
        "time": 0,
        "note": 55,
        "velocity": 0,
        "channel": 0
      },
      {
        "type": "note_on",
        "time": 0,
        "note": 50,
        "velocity": 0,
        "channel": 0
      },
      {
        "type": "note_on",
        "time": 0,
        "note": 43,
        "velocity": 0,
        "channel": 0
      },
      {
        "type": "note_on",
        "time": 1,
        "note": 67,
        "velocity": 60,
        "channel": 0
      },
      {
        "type": "note_on",
        "time": 0,
        "note": 62,
        "velocity": 60,
        "channel": 0
      },
      {
        "type": "note_on",
        "time": 0,
        "note": 59,
        "velocity": 60,
        "channel": 0
      },
      {
        "type": "note_on",
        "time": 0,
        "note": 55,
        "velocity": 60,
        "channel": 0
      },
      {
        "type": "note_on",
        "time": 0,
        "note": 50,
        "velocity": 60,
        "channel": 0
      },
      {
        "type": "note_on",
        "time": 0,
        "note": 43,
        "velocity": 60,
        "channel": 0
      },
      {
        "type": "note_on",
        "time": 59,
        "note": 67,
        "velocity": 0,
        "channel": 0
      },
      {
        "type": "note_on",
        "time": 0,
        "note": 62,
        "velocity": 0,
        "channel": 0
      },
      {
        "type": "note_on",
        "time": 0,
        "note": 59,
        "velocity": 0,
        "channel": 0
      },
      {
        "type": "note_on",
        "time": 0,
        "note": 55,
        "velocity": 0,
        "channel": 0
      },
      {
        "type": "note_on",
        "time": 0,
        "note": 50,
        "velocity": 0,
        "channel": 0
      },
      {
        "type": "note_on",
        "time": 0,
        "note": 43,
        "velocity": 0,
        "channel": 0
      },
      {
        "type": "note_on",
        "time": 1,
        "note": 45,
        "velocity": 60,
        "channel": 0
      },
      {
        "type": "note_on",
        "time": 0,
        "note": 50,
        "velocity": 60,
        "channel": 0
      },
      {
        "type": "note_on",
        "time": 0,
        "note": 57,
        "velocity": 60,
        "channel": 0
      },
      {
        "type": "note_on",
        "time": 0,
        "note": 62,
        "velocity": 60,
        "channel": 0
      },
      {
        "type": "note_on",
        "time": 0,
        "note": 66,
        "velocity": 60,
        "channel": 0
      },
      {
        "type": "note_on",
        "time": 0,
        "note": 69,
        "velocity": 60,
        "channel": 0
      },
      {
        "type": "note_on",
        "time": 59,
        "note": 45,
        "velocity": 0,
        "channel": 0
      },
      {
        "type": "note_on",
        "time": 0,
        "note": 50,
        "velocity": 0,
        "channel": 0
      },
      {
        "type": "note_on",
        "time": 0,
        "note": 57,
        "velocity": 0,
        "channel": 0
      },
      {
        "type": "note_on",
        "time": 0,
        "note": 62,
        "velocity": 0,
        "channel": 0
      },
      {
        "type": "note_on",
        "time": 0,
        "note": 66,
        "velocity": 0,
        "channel": 0
      },
      {
        "type": "note_on",
        "time": 0,
        "note": 69,
        "velocity": 0,
        "channel": 0
      },
      {
        "type": "note_on",
        "time": 1,
        "note": 69,
        "velocity": 60,
        "channel": 0
      },
      {
        "type": "note_on",
        "time": 0,
        "note": 66,
        "velocity": 60,
        "channel": 0
      },
      {
        "type": "note_on",
        "time": 0,
        "note": 62,
        "velocity": 60,
        "channel": 0
      },
      {
        "type": "note_on",
        "time": 0,
        "note": 57,
        "velocity": 60,
        "channel": 0
      },
      {
        "type": "note_on",
        "time": 0,
        "note": 50,
        "velocity": 60,
        "channel": 0
      },
      {
        "type": "note_on",
        "time": 0,
        "note": 45,
        "velocity": 60,
        "channel": 0
      },
      {
        "type": "note_on",
        "time": 29,
        "note": 69,
        "velocity": 0,
        "channel": 0
      },
      {
        "type": "note_on",
        "time": 0,
        "note": 66,
        "velocity": 0,
        "channel": 0
      },
      {
        "type": "note_on",
        "time": 0,
        "note": 62,
        "velocity": 0,
        "channel": 0
      },
      {
        "type": "note_on",
        "time": 0,
        "note": 57,
        "velocity": 0,
        "channel": 0
      },
      {
        "type": "note_on",
        "time": 0,
        "note": 50,
        "velocity": 0,
        "channel": 0
      },
      {
        "type": "note_on",
        "time": 0,
        "note": 45,
        "velocity": 0,
        "channel": 0
      },
      {
        "type": "note_on",
        "time": 1,
        "note": 69,
        "velocity": 60,
        "channel": 0
      },
      {
        "type": "note_on",
        "time": 0,
        "note": 66,
        "velocity": 60,
        "channel": 0
      },
      {
        "type": "note_on",
        "time": 0,
        "note": 62,
        "velocity": 60,
        "channel": 0
      },
      {
        "type": "note_on",
        "time": 0,
        "note": 57,
        "velocity": 60,
        "channel": 0
      },
      {
        "type": "note_on",
        "time": 0,
        "note": 50,
        "velocity": 60,
        "channel": 0
      },
      {
        "type": "note_on",
        "time": 0,
        "note": 45,
        "velocity": 60,
        "channel": 0
      },
      {
        "type": "note_on",
        "time": 29,
        "note": 69,
        "velocity": 0,
        "channel": 0
      },
      {
        "type": "note_on",
        "time": 0,
        "note": 66,
        "velocity": 0,
        "channel": 0
      },
      {
        "type": "note_on",
        "time": 0,
        "note": 62,
        "velocity": 0,
        "channel": 0
      },
      {
        "type": "note_on",
        "time": 0,
        "note": 57,
        "velocity": 0,
        "channel": 0
      },
      {
        "type": "note_on",
        "time": 0,
        "note": 50,
        "velocity": 0,
        "channel": 0
      },
      {
        "type": "note_on",
        "time": 0,
        "note": 45,
        "velocity": 0,
        "channel": 0
      },
      {
        "type": "note_on",
        "time": 1,
        "note": 69,
        "velocity": 60,
        "channel": 0
      },
      {
        "type": "note_on",
        "time": 0,
        "note": 66,
        "velocity": 60,
        "channel": 0
      },
      {
        "type": "note_on",
        "time": 0,
        "note": 62,
        "velocity": 60,
        "channel": 0
      },
      {
        "type": "note_on",
        "time": 0,
        "note": 57,
        "velocity": 60,
        "channel": 0
      },
      {
        "type": "note_on",
        "time": 0,
        "note": 50,
        "velocity": 60,
        "channel": 0
      },
      {
        "type": "note_on",
        "time": 0,
        "note": 45,
        "velocity": 60,
        "channel": 0
      },
      {
        "type": "note_on",
        "time": 29,
        "note": 69,
        "velocity": 0,
        "channel": 0
      },
      {
        "type": "note_on",
        "time": 0,
        "note": 66,
        "velocity": 0,
        "channel": 0
      },
      {
        "type": "note_on",
        "time": 0,
        "note": 62,
        "velocity": 0,
        "channel": 0
      },
      {
        "type": "note_on",
        "time": 0,
        "note": 57,
        "velocity": 0,
        "channel": 0
      },
      {
        "type": "note_on",
        "time": 0,
        "note": 50,
        "velocity": 0,
        "channel": 0
      },
      {
        "type": "note_on",
        "time": 0,
        "note": 45,
        "velocity": 0,
        "channel": 0
      },
      {
        "type": "note_on",
        "time": 1,
        "note": 69,
        "velocity": 60,
        "channel": 0
      },
      {
        "type": "note_on",
        "time": 0,
        "note": 66,
        "velocity": 60,
        "channel": 0
      },
      {
        "type": "note_on",
        "time": 0,
        "note": 62,
        "velocity": 60,
        "channel": 0
      },
      {
        "type": "note_on",
        "time": 0,
        "note": 57,
        "velocity": 60,
        "channel": 0
      },
      {
        "type": "note_on",
        "time": 0,
        "note": 50,
        "velocity": 60,
        "channel": 0
      },
      {
        "type": "note_on",
        "time": 0,
        "note": 45,
        "velocity": 60,
        "channel": 0
      },
      {
        "type": "note_on",
        "time": 59,
        "note": 69,
        "velocity": 0,
        "channel": 0
      },
      {
        "type": "note_on",
        "time": 0,
        "note": 66,
        "velocity": 0,
        "channel": 0
      },
      {
        "type": "note_on",
        "time": 0,
        "note": 62,
        "velocity": 0,
        "channel": 0
      },
      {
        "type": "note_on",
        "time": 0,
        "note": 57,
        "velocity": 0,
        "channel": 0
      },
      {
        "type": "note_on",
        "time": 0,
        "note": 50,
        "velocity": 0,
        "channel": 0
      },
      {
        "type": "note_on",
        "time": 0,
        "note": 45,
        "velocity": 0,
        "channel": 0
      },
      {
        "type": "note_on",
        "time": 1,
        "note": 69,
        "velocity": 60,
        "channel": 0
      },
      {
        "type": "note_on",
        "time": 0,
        "note": 66,
        "velocity": 60,
        "channel": 0
      },
      {
        "type": "note_on",
        "time": 0,
        "note": 62,
        "velocity": 60,
        "channel": 0
      },
      {
        "type": "note_on",
        "time": 0,
        "note": 57,
        "velocity": 60,
        "channel": 0
      },
      {
        "type": "note_on",
        "time": 0,
        "note": 50,
        "velocity": 60,
        "channel": 0
      },
      {
        "type": "note_on",
        "time": 0,
        "note": 45,
        "velocity": 60,
        "channel": 0
      },
      {
        "type": "note_on",
        "time": 29,
        "note": 69,
        "velocity": 0,
        "channel": 0
      },
      {
        "type": "note_on",
        "time": 0,
        "note": 66,
        "velocity": 0,
        "channel": 0
      },
      {
        "type": "note_on",
        "time": 0,
        "note": 62,
        "velocity": 0,
        "channel": 0
      },
      {
        "type": "note_on",
        "time": 0,
        "note": 57,
        "velocity": 0,
        "channel": 0
      },
      {
        "type": "note_on",
        "time": 0,
        "note": 50,
        "velocity": 0,
        "channel": 0
      },
      {
        "type": "note_on",
        "time": 0,
        "note": 45,
        "velocity": 0,
        "channel": 0
      },
      {
        "type": "note_on",
        "time": 1,
        "note": 69,
        "velocity": 60,
        "channel": 0
      },
      {
        "type": "note_on",
        "time": 0,
        "note": 66,
        "velocity": 60,
        "channel": 0
      },
      {
        "type": "note_on",
        "time": 0,
        "note": 62,
        "velocity": 60,
        "channel": 0
      },
      {
        "type": "note_on",
        "time": 0,
        "note": 57,
        "velocity": 60,
        "channel": 0
      },
      {
        "type": "note_on",
        "time": 0,
        "note": 50,
        "velocity": 60,
        "channel": 0
      },
      {
        "type": "note_on",
        "time": 0,
        "note": 45,
        "velocity": 60,
        "channel": 0
      },
      {
        "type": "note_on",
        "time": 239,
        "note": 69,
        "velocity": 0,
        "channel": 0
      },
      {
        "type": "note_on",
        "time": 0,
        "note": 66,
        "velocity": 0,
        "channel": 0
      },
      {
        "type": "note_on",
        "time": 0,
        "note": 62,
        "velocity": 0,
        "channel": 0
      },
      {
        "type": "note_on",
        "time": 0,
        "note": 57,
        "velocity": 0,
        "channel": 0
      },
      {
        "type": "note_on",
        "time": 0,
        "note": 50,
        "velocity": 0,
        "channel": 0
      },
      {
        "type": "note_on",
        "time": 0,
        "note": 45,
        "velocity": 0,
        "channel": 0
      },
      {
        "type": "note_on",
        "time": 1,
        "note": 40,
        "velocity": 60,
        "channel": 0
      },
      {
        "type": "note_on",
        "time": 0,
        "note": 47,
        "velocity": 60,
        "channel": 0
      },
      {
        "type": "note_on",
        "time": 0,
        "note": 52,
        "velocity": 60,
        "channel": 0
      },
      {
        "type": "note_on",
        "time": 0,
        "note": 55,
        "velocity": 60,
        "channel": 0
      },
      {
        "type": "note_on",
        "time": 0,
        "note": 59,
        "velocity": 60,
        "channel": 0
      },
      {
        "type": "note_on",
        "time": 0,
        "note": 64,
        "velocity": 60,
        "channel": 0
      },
      {
        "type": "note_on",
        "time": 59,
        "note": 40,
        "velocity": 0,
        "channel": 0
      },
      {
        "type": "note_on",
        "time": 0,
        "note": 47,
        "velocity": 0,
        "channel": 0
      },
      {
        "type": "note_on",
        "time": 0,
        "note": 52,
        "velocity": 0,
        "channel": 0
      },
      {
        "type": "note_on",
        "time": 0,
        "note": 55,
        "velocity": 0,
        "channel": 0
      },
      {
        "type": "note_on",
        "time": 0,
        "note": 59,
        "velocity": 0,
        "channel": 0
      },
      {
        "type": "note_on",
        "time": 0,
        "note": 64,
        "velocity": 0,
        "channel": 0
      },
      {
        "type": "note_on",
        "time": 1,
        "note": 64,
        "velocity": 60,
        "channel": 0
      },
      {
        "type": "note_on",
        "time": 0,
        "note": 59,
        "velocity": 60,
        "channel": 0
      },
      {
        "type": "note_on",
        "time": 0,
        "note": 55,
        "velocity": 60,
        "channel": 0
      },
      {
        "type": "note_on",
        "time": 0,
        "note": 52,
        "velocity": 60,
        "channel": 0
      },
      {
        "type": "note_on",
        "time": 0,
        "note": 47,
        "velocity": 60,
        "channel": 0
      },
      {
        "type": "note_on",
        "time": 0,
        "note": 40,
        "velocity": 60,
        "channel": 0
      },
      {
        "type": "note_on",
        "time": 29,
        "note": 64,
        "velocity": 0,
        "channel": 0
      },
      {
        "type": "note_on",
        "time": 0,
        "note": 59,
        "velocity": 0,
        "channel": 0
      },
      {
        "type": "note_on",
        "time": 0,
        "note": 55,
        "velocity": 0,
        "channel": 0
      },
      {
        "type": "note_on",
        "time": 0,
        "note": 52,
        "velocity": 0,
        "channel": 0
      },
      {
        "type": "note_on",
        "time": 0,
        "note": 47,
        "velocity": 0,
        "channel": 0
      },
      {
        "type": "note_on",
        "time": 0,
        "note": 40,
        "velocity": 0,
        "channel": 0
      },
      {
        "type": "note_on",
        "time": 1,
        "note": 64,
        "velocity": 60,
        "channel": 0
      },
      {
        "type": "note_on",
        "time": 0,
        "note": 59,
        "velocity": 60,
        "channel": 0
      },
      {
        "type": "note_on",
        "time": 0,
        "note": 55,
        "velocity": 60,
        "channel": 0
      },
      {
        "type": "note_on",
        "time": 0,
        "note": 52,
        "velocity": 60,
        "channel": 0
      },
      {
        "type": "note_on",
        "time": 0,
        "note": 47,
        "velocity": 60,
        "channel": 0
      },
      {
        "type": "note_on",
        "time": 0,
        "note": 40,
        "velocity": 60,
        "channel": 0
      },
      {
        "type": "note_on",
        "time": 29,
        "note": 64,
        "velocity": 0,
        "channel": 0
      },
      {
        "type": "note_on",
        "time": 0,
        "note": 59,
        "velocity": 0,
        "channel": 0
      },
      {
        "type": "note_on",
        "time": 0,
        "note": 55,
        "velocity": 0,
        "channel": 0
      },
      {
        "type": "note_on",
        "time": 0,
        "note": 52,
        "velocity": 0,
        "channel": 0
      },
      {
        "type": "note_on",
        "time": 0,
        "note": 47,
        "velocity": 0,
        "channel": 0
      },
      {
        "type": "note_on",
        "time": 0,
        "note": 40,
        "velocity": 0,
        "channel": 0
      },
      {
        "type": "note_on",
        "time": 1,
        "note": 64,
        "velocity": 60,
        "channel": 0
      },
      {
        "type": "note_on",
        "time": 0,
        "note": 59,
        "velocity": 60,
        "channel": 0
      },
      {
        "type": "note_on",
        "time": 0,
        "note": 55,
        "velocity": 60,
        "channel": 0
      },
      {
        "type": "note_on",
        "time": 0,
        "note": 52,
        "velocity": 60,
        "channel": 0
      },
      {
        "type": "note_on",
        "time": 0,
        "note": 47,
        "velocity": 60,
        "channel": 0
      },
      {
        "type": "note_on",
        "time": 0,
        "note": 40,
        "velocity": 60,
        "channel": 0
      },
      {
        "type": "note_on",
        "time": 29,
        "note": 64,
        "velocity": 0,
        "channel": 0
      },
      {
        "type": "note_on",
        "time": 0,
        "note": 59,
        "velocity": 0,
        "channel": 0
      },
      {
        "type": "note_on",
        "time": 0,
        "note": 55,
        "velocity": 0,
        "channel": 0
      },
      {
        "type": "note_on",
        "time": 0,
        "note": 52,
        "velocity": 0,
        "channel": 0
      },
      {
        "type": "note_on",
        "time": 0,
        "note": 47,
        "velocity": 0,
        "channel": 0
      },
      {
        "type": "note_on",
        "time": 0,
        "note": 40,
        "velocity": 0,
        "channel": 0
      },
      {
        "type": "note_on",
        "time": 1,
        "note": 64,
        "velocity": 60,
        "channel": 0
      },
      {
        "type": "note_on",
        "time": 0,
        "note": 59,
        "velocity": 60,
        "channel": 0
      },
      {
        "type": "note_on",
        "time": 0,
        "note": 55,
        "velocity": 60,
        "channel": 0
      },
      {
        "type": "note_on",
        "time": 0,
        "note": 52,
        "velocity": 60,
        "channel": 0
      },
      {
        "type": "note_on",
        "time": 0,
        "note": 47,
        "velocity": 60,
        "channel": 0
      },
      {
        "type": "note_on",
        "time": 0,
        "note": 40,
        "velocity": 60,
        "channel": 0
      },
      {
        "type": "note_on",
        "time": 29,
        "note": 64,
        "velocity": 0,
        "channel": 0
      },
      {
        "type": "note_on",
        "time": 0,
        "note": 59,
        "velocity": 0,
        "channel": 0
      },
      {
        "type": "note_on",
        "time": 0,
        "note": 55,
        "velocity": 0,
        "channel": 0
      },
      {
        "type": "note_on",
        "time": 0,
        "note": 52,
        "velocity": 0,
        "channel": 0
      },
      {
        "type": "note_on",
        "time": 0,
        "note": 47,
        "velocity": 0,
        "channel": 0
      },
      {
        "type": "note_on",
        "time": 0,
        "note": 40,
        "velocity": 0,
        "channel": 0
      },
      {
        "type": "note_on",
        "time": 1,
        "note": 64,
        "velocity": 60,
        "channel": 0
      },
      {
        "type": "note_on",
        "time": 0,
        "note": 59,
        "velocity": 60,
        "channel": 0
      },
      {
        "type": "note_on",
        "time": 0,
        "note": 55,
        "velocity": 60,
        "channel": 0
      },
      {
        "type": "note_on",
        "time": 0,
        "note": 52,
        "velocity": 60,
        "channel": 0
      },
      {
        "type": "note_on",
        "time": 0,
        "note": 47,
        "velocity": 60,
        "channel": 0
      },
      {
        "type": "note_on",
        "time": 0,
        "note": 40,
        "velocity": 60,
        "channel": 0
      },
      {
        "type": "note_on",
        "time": 59,
        "note": 64,
        "velocity": 0,
        "channel": 0
      },
      {
        "type": "note_on",
        "time": 0,
        "note": 59,
        "velocity": 0,
        "channel": 0
      },
      {
        "type": "note_on",
        "time": 0,
        "note": 55,
        "velocity": 0,
        "channel": 0
      },
      {
        "type": "note_on",
        "time": 0,
        "note": 52,
        "velocity": 0,
        "channel": 0
      },
      {
        "type": "note_on",
        "time": 0,
        "note": 47,
        "velocity": 0,
        "channel": 0
      },
      {
        "type": "note_on",
        "time": 0,
        "note": 40,
        "velocity": 0,
        "channel": 0
      },
      {
        "type": "note_on",
        "time": 1,
        "note": 64,
        "velocity": 60,
        "channel": 0
      },
      {
        "type": "note_on",
        "time": 0,
        "note": 59,
        "velocity": 60,
        "channel": 0
      },
      {
        "type": "note_on",
        "time": 0,
        "note": 55,
        "velocity": 60,
        "channel": 0
      },
      {
        "type": "note_on",
        "time": 0,
        "note": 52,
        "velocity": 60,
        "channel": 0
      },
      {
        "type": "note_on",
        "time": 0,
        "note": 47,
        "velocity": 60,
        "channel": 0
      },
      {
        "type": "note_on",
        "time": 0,
        "note": 40,
        "velocity": 60,
        "channel": 0
      },
      {
        "type": "note_on",
        "time": 59,
        "note": 64,
        "velocity": 0,
        "channel": 0
      },
      {
        "type": "note_on",
        "time": 0,
        "note": 59,
        "velocity": 0,
        "channel": 0
      },
      {
        "type": "note_on",
        "time": 0,
        "note": 55,
        "velocity": 0,
        "channel": 0
      },
      {
        "type": "note_on",
        "time": 0,
        "note": 52,
        "velocity": 0,
        "channel": 0
      },
      {
        "type": "note_on",
        "time": 0,
        "note": 47,
        "velocity": 0,
        "channel": 0
      },
      {
        "type": "note_on",
        "time": 0,
        "note": 40,
        "velocity": 0,
        "channel": 0
      },
      {
        "type": "note_on",
        "time": 1,
        "note": 64,
        "velocity": 60,
        "channel": 0
      },
      {
        "type": "note_on",
        "time": 0,
        "note": 59,
        "velocity": 60,
        "channel": 0
      },
      {
        "type": "note_on",
        "time": 0,
        "note": 55,
        "velocity": 60,
        "channel": 0
      },
      {
        "type": "note_on",
        "time": 0,
        "note": 52,
        "velocity": 60,
        "channel": 0
      },
      {
        "type": "note_on",
        "time": 0,
        "note": 47,
        "velocity": 60,
        "channel": 0
      },
      {
        "type": "note_on",
        "time": 0,
        "note": 40,
        "velocity": 60,
        "channel": 0
      },
      {
        "type": "note_on",
        "time": 59,
        "note": 64,
        "velocity": 0,
        "channel": 0
      },
      {
        "type": "note_on",
        "time": 0,
        "note": 59,
        "velocity": 0,
        "channel": 0
      },
      {
        "type": "note_on",
        "time": 0,
        "note": 55,
        "velocity": 0,
        "channel": 0
      },
      {
        "type": "note_on",
        "time": 0,
        "note": 52,
        "velocity": 0,
        "channel": 0
      },
      {
        "type": "note_on",
        "time": 0,
        "note": 47,
        "velocity": 0,
        "channel": 0
      },
      {
        "type": "note_on",
        "time": 0,
        "note": 40,
        "velocity": 0,
        "channel": 0
      },
      {
        "type": "note_on",
        "time": 1,
        "note": 64,
        "velocity": 60,
        "channel": 0
      },
      {
        "type": "note_on",
        "time": 0,
        "note": 59,
        "velocity": 60,
        "channel": 0
      },
      {
        "type": "note_on",
        "time": 0,
        "note": 55,
        "velocity": 60,
        "channel": 0
      },
      {
        "type": "note_on",
        "time": 0,
        "note": 52,
        "velocity": 60,
        "channel": 0
      },
      {
        "type": "note_on",
        "time": 0,
        "note": 47,
        "velocity": 60,
        "channel": 0
      },
      {
        "type": "note_on",
        "time": 0,
        "note": 40,
        "velocity": 60,
        "channel": 0
      },
      {
        "type": "note_on",
        "time": 29,
        "note": 64,
        "velocity": 0,
        "channel": 0
      },
      {
        "type": "note_on",
        "time": 0,
        "note": 59,
        "velocity": 0,
        "channel": 0
      },
      {
        "type": "note_on",
        "time": 0,
        "note": 55,
        "velocity": 0,
        "channel": 0
      },
      {
        "type": "note_on",
        "time": 0,
        "note": 52,
        "velocity": 0,
        "channel": 0
      },
      {
        "type": "note_on",
        "time": 0,
        "note": 47,
        "velocity": 0,
        "channel": 0
      },
      {
        "type": "note_on",
        "time": 0,
        "note": 40,
        "velocity": 0,
        "channel": 0
      },
      {
        "type": "note_on",
        "time": 1,
        "note": 64,
        "velocity": 60,
        "channel": 0
      },
      {
        "type": "note_on",
        "time": 0,
        "note": 59,
        "velocity": 60,
        "channel": 0
      },
      {
        "type": "note_on",
        "time": 0,
        "note": 55,
        "velocity": 60,
        "channel": 0
      },
      {
        "type": "note_on",
        "time": 0,
        "note": 52,
        "velocity": 60,
        "channel": 0
      },
      {
        "type": "note_on",
        "time": 0,
        "note": 47,
        "velocity": 60,
        "channel": 0
      },
      {
        "type": "note_on",
        "time": 0,
        "note": 40,
        "velocity": 60,
        "channel": 0
      },
      {
        "type": "note_on",
        "time": 29,
        "note": 64,
        "velocity": 0,
        "channel": 0
      },
      {
        "type": "note_on",
        "time": 0,
        "note": 59,
        "velocity": 0,
        "channel": 0
      },
      {
        "type": "note_on",
        "time": 0,
        "note": 55,
        "velocity": 0,
        "channel": 0
      },
      {
        "type": "note_on",
        "time": 0,
        "note": 52,
        "velocity": 0,
        "channel": 0
      },
      {
        "type": "note_on",
        "time": 0,
        "note": 47,
        "velocity": 0,
        "channel": 0
      },
      {
        "type": "note_on",
        "time": 0,
        "note": 40,
        "velocity": 0,
        "channel": 0
      },
      {
        "type": "note_on",
        "time": 1,
        "note": 64,
        "velocity": 60,
        "channel": 0
      },
      {
        "type": "note_on",
        "time": 0,
        "note": 59,
        "velocity": 60,
        "channel": 0
      },
      {
        "type": "note_on",
        "time": 0,
        "note": 55,
        "velocity": 60,
        "channel": 0
      },
      {
        "type": "note_on",
        "time": 0,
        "note": 52,
        "velocity": 60,
        "channel": 0
      },
      {
        "type": "note_on",
        "time": 0,
        "note": 47,
        "velocity": 60,
        "channel": 0
      },
      {
        "type": "note_on",
        "time": 0,
        "note": 40,
        "velocity": 60,
        "channel": 0
      },
      {
        "type": "note_on",
        "time": 59,
        "note": 64,
        "velocity": 0,
        "channel": 0
      },
      {
        "type": "note_on",
        "time": 0,
        "note": 59,
        "velocity": 0,
        "channel": 0
      },
      {
        "type": "note_on",
        "time": 0,
        "note": 55,
        "velocity": 0,
        "channel": 0
      },
      {
        "type": "note_on",
        "time": 0,
        "note": 52,
        "velocity": 0,
        "channel": 0
      },
      {
        "type": "note_on",
        "time": 0,
        "note": 47,
        "velocity": 0,
        "channel": 0
      },
      {
        "type": "note_on",
        "time": 0,
        "note": 40,
        "velocity": 0,
        "channel": 0
      },
      {
        "type": "note_on",
        "time": 1,
        "note": 42,
        "velocity": 60,
        "channel": 0
      },
      {
        "type": "note_on",
        "time": 0,
        "note": 49,
        "velocity": 60,
        "channel": 0
      },
      {
        "type": "note_on",
        "time": 0,
        "note": 54,
        "velocity": 60,
        "channel": 0
      },
      {
        "type": "note_on",
        "time": 0,
        "note": 58,
        "velocity": 60,
        "channel": 0
      },
      {
        "type": "note_on",
        "time": 0,
        "note": 61,
        "velocity": 60,
        "channel": 0
      },
      {
        "type": "note_on",
        "time": 0,
        "note": 66,
        "velocity": 60,
        "channel": 0
      },
      {
        "type": "note_on",
        "time": 59,
        "note": 42,
        "velocity": 0,
        "channel": 0
      },
      {
        "type": "note_on",
        "time": 0,
        "note": 49,
        "velocity": 0,
        "channel": 0
      },
      {
        "type": "note_on",
        "time": 0,
        "note": 54,
        "velocity": 0,
        "channel": 0
      },
      {
        "type": "note_on",
        "time": 0,
        "note": 58,
        "velocity": 0,
        "channel": 0
      },
      {
        "type": "note_on",
        "time": 0,
        "note": 61,
        "velocity": 0,
        "channel": 0
      },
      {
        "type": "note_on",
        "time": 0,
        "note": 66,
        "velocity": 0,
        "channel": 0
      },
      {
        "type": "note_on",
        "time": 1,
        "note": 66,
        "velocity": 60,
        "channel": 0
      },
      {
        "type": "note_on",
        "time": 0,
        "note": 61,
        "velocity": 60,
        "channel": 0
      },
      {
        "type": "note_on",
        "time": 0,
        "note": 58,
        "velocity": 60,
        "channel": 0
      },
      {
        "type": "note_on",
        "time": 0,
        "note": 54,
        "velocity": 60,
        "channel": 0
      },
      {
        "type": "note_on",
        "time": 0,
        "note": 49,
        "velocity": 60,
        "channel": 0
      },
      {
        "type": "note_on",
        "time": 0,
        "note": 42,
        "velocity": 60,
        "channel": 0
      },
      {
        "type": "note_on",
        "time": 29,
        "note": 66,
        "velocity": 0,
        "channel": 0
      },
      {
        "type": "note_on",
        "time": 0,
        "note": 61,
        "velocity": 0,
        "channel": 0
      },
      {
        "type": "note_on",
        "time": 0,
        "note": 58,
        "velocity": 0,
        "channel": 0
      },
      {
        "type": "note_on",
        "time": 0,
        "note": 54,
        "velocity": 0,
        "channel": 0
      },
      {
        "type": "note_on",
        "time": 0,
        "note": 49,
        "velocity": 0,
        "channel": 0
      },
      {
        "type": "note_on",
        "time": 0,
        "note": 42,
        "velocity": 0,
        "channel": 0
      },
      {
        "type": "note_on",
        "time": 1,
        "note": 66,
        "velocity": 60,
        "channel": 0
      },
      {
        "type": "note_on",
        "time": 0,
        "note": 61,
        "velocity": 60,
        "channel": 0
      },
      {
        "type": "note_on",
        "time": 0,
        "note": 58,
        "velocity": 60,
        "channel": 0
      },
      {
        "type": "note_on",
        "time": 0,
        "note": 54,
        "velocity": 60,
        "channel": 0
      },
      {
        "type": "note_on",
        "time": 0,
        "note": 49,
        "velocity": 60,
        "channel": 0
      },
      {
        "type": "note_on",
        "time": 0,
        "note": 42,
        "velocity": 60,
        "channel": 0
      },
      {
        "type": "note_on",
        "time": 29,
        "note": 66,
        "velocity": 0,
        "channel": 0
      },
      {
        "type": "note_on",
        "time": 0,
        "note": 61,
        "velocity": 0,
        "channel": 0
      },
      {
        "type": "note_on",
        "time": 0,
        "note": 58,
        "velocity": 0,
        "channel": 0
      },
      {
        "type": "note_on",
        "time": 0,
        "note": 54,
        "velocity": 0,
        "channel": 0
      },
      {
        "type": "note_on",
        "time": 0,
        "note": 49,
        "velocity": 0,
        "channel": 0
      },
      {
        "type": "note_on",
        "time": 0,
        "note": 42,
        "velocity": 0,
        "channel": 0
      },
      {
        "type": "note_on",
        "time": 1,
        "note": 66,
        "velocity": 60,
        "channel": 0
      },
      {
        "type": "note_on",
        "time": 0,
        "note": 61,
        "velocity": 60,
        "channel": 0
      },
      {
        "type": "note_on",
        "time": 0,
        "note": 58,
        "velocity": 60,
        "channel": 0
      },
      {
        "type": "note_on",
        "time": 0,
        "note": 54,
        "velocity": 60,
        "channel": 0
      },
      {
        "type": "note_on",
        "time": 0,
        "note": 49,
        "velocity": 60,
        "channel": 0
      },
      {
        "type": "note_on",
        "time": 0,
        "note": 42,
        "velocity": 60,
        "channel": 0
      },
      {
        "type": "note_on",
        "time": 29,
        "note": 66,
        "velocity": 0,
        "channel": 0
      },
      {
        "type": "note_on",
        "time": 0,
        "note": 61,
        "velocity": 0,
        "channel": 0
      },
      {
        "type": "note_on",
        "time": 0,
        "note": 58,
        "velocity": 0,
        "channel": 0
      },
      {
        "type": "note_on",
        "time": 0,
        "note": 54,
        "velocity": 0,
        "channel": 0
      },
      {
        "type": "note_on",
        "time": 0,
        "note": 49,
        "velocity": 0,
        "channel": 0
      },
      {
        "type": "note_on",
        "time": 0,
        "note": 42,
        "velocity": 0,
        "channel": 0
      },
      {
        "type": "note_on",
        "time": 1,
        "note": 66,
        "velocity": 60,
        "channel": 0
      },
      {
        "type": "note_on",
        "time": 0,
        "note": 61,
        "velocity": 60,
        "channel": 0
      },
      {
        "type": "note_on",
        "time": 0,
        "note": 58,
        "velocity": 60,
        "channel": 0
      },
      {
        "type": "note_on",
        "time": 0,
        "note": 54,
        "velocity": 60,
        "channel": 0
      },
      {
        "type": "note_on",
        "time": 0,
        "note": 49,
        "velocity": 60,
        "channel": 0
      },
      {
        "type": "note_on",
        "time": 0,
        "note": 42,
        "velocity": 60,
        "channel": 0
      },
      {
        "type": "note_on",
        "time": 59,
        "note": 66,
        "velocity": 0,
        "channel": 0
      },
      {
        "type": "note_on",
        "time": 0,
        "note": 61,
        "velocity": 0,
        "channel": 0
      },
      {
        "type": "note_on",
        "time": 0,
        "note": 58,
        "velocity": 0,
        "channel": 0
      },
      {
        "type": "note_on",
        "time": 0,
        "note": 54,
        "velocity": 0,
        "channel": 0
      },
      {
        "type": "note_on",
        "time": 0,
        "note": 49,
        "velocity": 0,
        "channel": 0
      },
      {
        "type": "note_on",
        "time": 0,
        "note": 42,
        "velocity": 0,
        "channel": 0
      },
      {
        "type": "note_on",
        "time": 1,
        "note": 66,
        "velocity": 60,
        "channel": 0
      },
      {
        "type": "note_on",
        "time": 0,
        "note": 61,
        "velocity": 60,
        "channel": 0
      },
      {
        "type": "note_on",
        "time": 0,
        "note": 58,
        "velocity": 60,
        "channel": 0
      },
      {
        "type": "note_on",
        "time": 0,
        "note": 54,
        "velocity": 60,
        "channel": 0
      },
      {
        "type": "note_on",
        "time": 0,
        "note": 49,
        "velocity": 60,
        "channel": 0
      },
      {
        "type": "note_on",
        "time": 0,
        "note": 42,
        "velocity": 60,
        "channel": 0
      },
      {
        "type": "note_on",
        "time": 29,
        "note": 66,
        "velocity": 0,
        "channel": 0
      },
      {
        "type": "note_on",
        "time": 0,
        "note": 61,
        "velocity": 0,
        "channel": 0
      },
      {
        "type": "note_on",
        "time": 0,
        "note": 58,
        "velocity": 0,
        "channel": 0
      },
      {
        "type": "note_on",
        "time": 0,
        "note": 54,
        "velocity": 0,
        "channel": 0
      },
      {
        "type": "note_on",
        "time": 0,
        "note": 49,
        "velocity": 0,
        "channel": 0
      },
      {
        "type": "note_on",
        "time": 0,
        "note": 42,
        "velocity": 0,
        "channel": 0
      },
      {
        "type": "note_on",
        "time": 1,
        "note": 66,
        "velocity": 60,
        "channel": 0
      },
      {
        "type": "note_on",
        "time": 0,
        "note": 61,
        "velocity": 60,
        "channel": 0
      },
      {
        "type": "note_on",
        "time": 0,
        "note": 58,
        "velocity": 60,
        "channel": 0
      },
      {
        "type": "note_on",
        "time": 0,
        "note": 54,
        "velocity": 60,
        "channel": 0
      },
      {
        "type": "note_on",
        "time": 0,
        "note": 49,
        "velocity": 60,
        "channel": 0
      },
      {
        "type": "note_on",
        "time": 0,
        "note": 42,
        "velocity": 60,
        "channel": 0
      },
      {
        "type": "note_on",
        "time": 239,
        "note": 66,
        "velocity": 0,
        "channel": 0
      },
      {
        "type": "note_on",
        "time": 0,
        "note": 61,
        "velocity": 0,
        "channel": 0
      },
      {
        "type": "note_on",
        "time": 0,
        "note": 58,
        "velocity": 0,
        "channel": 0
      },
      {
        "type": "note_on",
        "time": 0,
        "note": 54,
        "velocity": 0,
        "channel": 0
      },
      {
        "type": "note_on",
        "time": 0,
        "note": 49,
        "velocity": 0,
        "channel": 0
      },
      {
        "type": "note_on",
        "time": 0,
        "note": 42,
        "velocity": 0,
        "channel": 0
      },
      {
        "type": "control_change",
        "time": 1,
        "control": 7,
        "value": 90,
        "channel": 0
      },
      {
        "type": "note_on",
        "time": 0,
        "note": 59,
        "velocity": 60,
        "channel": 0
      },
      {
        "type": "note_on",
        "time": 0,
        "note": 55,
        "velocity": 60,
        "channel": 0
      },
      {
        "type": "note_on",
        "time": 0,
        "note": 50,
        "velocity": 60,
        "channel": 0
      },
      {
        "type": "note_on",
        "time": 239,
        "note": 59,
        "velocity": 0,
        "channel": 0
      },
      {
        "type": "note_on",
        "time": 0,
        "note": 55,
        "velocity": 0,
        "channel": 0
      },
      {
        "type": "note_on",
        "time": 0,
        "note": 50,
        "velocity": 0,
        "channel": 0
      },
      {
        "type": "note_on",
        "time": 1,
        "note": 59,
        "velocity": 60,
        "channel": 0
      },
      {
        "type": "note_on",
        "time": 0,
        "note": 55,
        "velocity": 60,
        "channel": 0
      },
      {
        "type": "note_on",
        "time": 0,
        "note": 50,
        "velocity": 60,
        "channel": 0
      },
      {
        "type": "note_on",
        "time": 239,
        "note": 59,
        "velocity": 0,
        "channel": 0
      },
      {
        "type": "note_on",
        "time": 0,
        "note": 55,
        "velocity": 0,
        "channel": 0
      },
      {
        "type": "note_on",
        "time": 0,
        "note": 50,
        "velocity": 0,
        "channel": 0
      },
      {
        "type": "note_on",
        "time": 1,
        "note": 50,
        "velocity": 60,
        "channel": 0
      },
      {
        "type": "note_on",
        "time": 0,
        "note": 54,
        "velocity": 60,
        "channel": 0
      },
      {
        "type": "note_on",
        "time": 0,
        "note": 57,
        "velocity": 60,
        "channel": 0
      },
      {
        "type": "note_on",
        "time": 239,
        "note": 50,
        "velocity": 0,
        "channel": 0
      },
      {
        "type": "note_on",
        "time": 0,
        "note": 54,
        "velocity": 0,
        "channel": 0
      },
      {
        "type": "note_on",
        "time": 0,
        "note": 57,
        "velocity": 0,
        "channel": 0
      },
      {
        "type": "note_on",
        "time": 1,
        "note": 57,
        "velocity": 60,
        "channel": 0
      },
      {
        "type": "note_on",
        "time": 0,
        "note": 54,
        "velocity": 60,
        "channel": 0
      },
      {
        "type": "note_on",
        "time": 0,
        "note": 50,
        "velocity": 60,
        "channel": 0
      },
      {
        "type": "note_on",
        "time": 239,
        "note": 57,
        "velocity": 0,
        "channel": 0
      },
      {
        "type": "note_on",
        "time": 0,
        "note": 54,
        "velocity": 0,
        "channel": 0
      },
      {
        "type": "note_on",
        "time": 0,
        "note": 50,
        "velocity": 0,
        "channel": 0
      },
      {
        "type": "note_on",
        "time": 1,
        "note": 49,
        "velocity": 60,
        "channel": 0
      },
      {
        "type": "note_on",
        "time": 0,
        "note": 54,
        "velocity": 60,
        "channel": 0
      },
      {
        "type": "note_on",
        "time": 0,
        "note": 58,
        "velocity": 60,
        "channel": 0
      },
      {
        "type": "note_on",
        "time": 239,
        "note": 49,
        "velocity": 0,
        "channel": 0
      },
      {
        "type": "note_on",
        "time": 0,
        "note": 54,
        "velocity": 0,
        "channel": 0
      },
      {
        "type": "note_on",
        "time": 0,
        "note": 58,
        "velocity": 0,
        "channel": 0
      },
      {
        "type": "note_on",
        "time": 1,
        "note": 58,
        "velocity": 60,
        "channel": 0
      },
      {
        "type": "note_on",
        "time": 0,
        "note": 54,
        "velocity": 60,
        "channel": 0
      },
      {
        "type": "note_on",
        "time": 0,
        "note": 49,
        "velocity": 60,
        "channel": 0
      },
      {
        "type": "note_on",
        "time": 239,
        "note": 58,
        "velocity": 0,
        "channel": 0
      },
      {
        "type": "note_on",
        "time": 0,
        "note": 54,
        "velocity": 0,
        "channel": 0
      },
      {
        "type": "note_on",
        "time": 0,
        "note": 49,
        "velocity": 0,
        "channel": 0
      },
      {
        "type": "note_on",
        "time": 1,
        "note": 50,
        "velocity": 60,
        "channel": 0
      },
      {
        "type": "note_on",
        "time": 0,
        "note": 54,
        "velocity": 60,
        "channel": 0
      },
      {
        "type": "note_on",
        "time": 0,
        "note": 59,
        "velocity": 60,
        "channel": 0
      },
      {
        "type": "note_on",
        "time": 239,
        "note": 50,
        "velocity": 0,
        "channel": 0
      },
      {
        "type": "note_on",
        "time": 0,
        "note": 54,
        "velocity": 0,
        "channel": 0
      },
      {
        "type": "note_on",
        "time": 0,
        "note": 59,
        "velocity": 0,
        "channel": 0
      },
      {
        "type": "note_on",
        "time": 1,
        "note": 59,
        "velocity": 60,
        "channel": 0
      },
      {
        "type": "note_on",
        "time": 0,
        "note": 54,
        "velocity": 60,
        "channel": 0
      },
      {
        "type": "note_on",
        "time": 0,
        "note": 50,
        "velocity": 60,
        "channel": 0
      },
      {
        "type": "note_on",
        "time": 239,
        "note": 59,
        "velocity": 0,
        "channel": 0
      },
      {
        "type": "note_on",
        "time": 0,
        "note": 54,
        "velocity": 0,
        "channel": 0
      },
      {
        "type": "note_on",
        "time": 0,
        "note": 50,
        "velocity": 0,
        "channel": 0
      },
      {
        "type": "note_on",
        "time": 1,
        "note": 59,
        "velocity": 60,
        "channel": 0
      },
      {
        "type": "note_on",
        "time": 0,
        "note": 55,
        "velocity": 60,
        "channel": 0
      },
      {
        "type": "note_on",
        "time": 0,
        "note": 50,
        "velocity": 60,
        "channel": 0
      },
      {
        "type": "note_on",
        "time": 239,
        "note": 59,
        "velocity": 0,
        "channel": 0
      },
      {
        "type": "note_on",
        "time": 0,
        "note": 55,
        "velocity": 0,
        "channel": 0
      },
      {
        "type": "note_on",
        "time": 0,
        "note": 50,
        "velocity": 0,
        "channel": 0
      },
      {
        "type": "note_on",
        "time": 1,
        "note": 59,
        "velocity": 60,
        "channel": 0
      },
      {
        "type": "note_on",
        "time": 0,
        "note": 55,
        "velocity": 60,
        "channel": 0
      },
      {
        "type": "note_on",
        "time": 0,
        "note": 50,
        "velocity": 60,
        "channel": 0
      },
      {
        "type": "note_on",
        "time": 239,
        "note": 59,
        "velocity": 0,
        "channel": 0
      },
      {
        "type": "note_on",
        "time": 0,
        "note": 55,
        "velocity": 0,
        "channel": 0
      },
      {
        "type": "note_on",
        "time": 0,
        "note": 50,
        "velocity": 0,
        "channel": 0
      },
      {
        "type": "note_on",
        "time": 1,
        "note": 50,
        "velocity": 60,
        "channel": 0
      },
      {
        "type": "note_on",
        "time": 0,
        "note": 54,
        "velocity": 60,
        "channel": 0
      },
      {
        "type": "note_on",
        "time": 0,
        "note": 57,
        "velocity": 60,
        "channel": 0
      },
      {
        "type": "note_on",
        "time": 239,
        "note": 50,
        "velocity": 0,
        "channel": 0
      },
      {
        "type": "note_on",
        "time": 0,
        "note": 54,
        "velocity": 0,
        "channel": 0
      },
      {
        "type": "note_on",
        "time": 0,
        "note": 57,
        "velocity": 0,
        "channel": 0
      },
      {
        "type": "note_on",
        "time": 1,
        "note": 57,
        "velocity": 60,
        "channel": 0
      },
      {
        "type": "note_on",
        "time": 0,
        "note": 54,
        "velocity": 60,
        "channel": 0
      },
      {
        "type": "note_on",
        "time": 0,
        "note": 50,
        "velocity": 60,
        "channel": 0
      },
      {
        "type": "note_on",
        "time": 239,
        "note": 57,
        "velocity": 0,
        "channel": 0
      },
      {
        "type": "note_on",
        "time": 0,
        "note": 54,
        "velocity": 0,
        "channel": 0
      },
      {
        "type": "note_on",
        "time": 0,
        "note": 50,
        "velocity": 0,
        "channel": 0
      },
      {
        "type": "note_on",
        "time": 1,
        "note": 52,
        "velocity": 60,
        "channel": 0
      },
      {
        "type": "note_on",
        "time": 0,
        "note": 55,
        "velocity": 60,
        "channel": 0
      },
      {
        "type": "note_on",
        "time": 0,
        "note": 59,
        "velocity": 60,
        "channel": 0
      },
      {
        "type": "note_on",
        "time": 239,
        "note": 52,
        "velocity": 0,
        "channel": 0
      },
      {
        "type": "note_on",
        "time": 0,
        "note": 55,
        "velocity": 0,
        "channel": 0
      },
      {
        "type": "note_on",
        "time": 0,
        "note": 59,
        "velocity": 0,
        "channel": 0
      },
      {
        "type": "note_on",
        "time": 1,
        "note": 59,
        "velocity": 60,
        "channel": 0
      },
      {
        "type": "note_on",
        "time": 0,
        "note": 55,
        "velocity": 60,
        "channel": 0
      },
      {
        "type": "note_on",
        "time": 0,
        "note": 52,
        "velocity": 60,
        "channel": 0
      },
      {
        "type": "note_on",
        "time": 239,
        "note": 59,
        "velocity": 0,
        "channel": 0
      },
      {
        "type": "note_on",
        "time": 0,
        "note": 55,
        "velocity": 0,
        "channel": 0
      },
      {
        "type": "note_on",
        "time": 0,
        "note": 52,
        "velocity": 0,
        "channel": 0
      },
      {
        "type": "note_on",
        "time": 1,
        "note": 49,
        "velocity": 60,
        "channel": 0
      },
      {
        "type": "note_on",
        "time": 0,
        "note": 54,
        "velocity": 60,
        "channel": 0
      },
      {
        "type": "note_on",
        "time": 0,
        "note": 58,
        "velocity": 60,
        "channel": 0
      },
      {
        "type": "note_on",
        "time": 479,
        "note": 49,
        "velocity": 0,
        "channel": 0
      },
      {
        "type": "note_on",
        "time": 0,
        "note": 54,
        "velocity": 0,
        "channel": 0
      },
      {
        "type": "note_on",
        "time": 0,
        "note": 58,
        "velocity": 0,
        "channel": 0
      },
      {
        "type": "note_on",
        "time": 1,
        "note": 42,
        "velocity": 60,
        "channel": 0
      },
      {
        "type": "note_on",
        "time": 0,
        "note": 47,
        "velocity": 60,
        "channel": 0
      },
      {
        "type": "note_on",
        "time": 0,
        "note": 54,
        "velocity": 60,
        "channel": 0
      },
      {
        "type": "note_on",
        "time": 0,
        "note": 59,
        "velocity": 60,
        "channel": 0
      },
      {
        "type": "note_on",
        "time": 0,
        "note": 62,
        "velocity": 60,
        "channel": 0
      },
      {
        "type": "note_on",
        "time": 0,
        "note": 66,
        "velocity": 60,
        "channel": 0
      },
      {
        "type": "note_on",
        "time": 239,
        "note": 42,
        "velocity": 0,
        "channel": 0
      },
      {
        "type": "note_on",
        "time": 0,
        "note": 47,
        "velocity": 0,
        "channel": 0
      },
      {
        "type": "note_on",
        "time": 0,
        "note": 54,
        "velocity": 0,
        "channel": 0
      },
      {
        "type": "note_on",
        "time": 0,
        "note": 59,
        "velocity": 0,
        "channel": 0
      },
      {
        "type": "note_on",
        "time": 0,
        "note": 62,
        "velocity": 0,
        "channel": 0
      },
      {
        "type": "note_on",
        "time": 0,
        "note": 66,
        "velocity": 0,
        "channel": 0
      },
      {
        "type": "note_on",
        "time": 241,
        "note": 42,
        "velocity": 60,
        "channel": 0
      },
      {
        "type": "note_on",
        "time": 0,
        "note": 49,
        "velocity": 60,
        "channel": 0
      },
      {
        "type": "note_on",
        "time": 0,
        "note": 54,
        "velocity": 60,
        "channel": 0
      },
      {
        "type": "note_on",
        "time": 0,
        "note": 58,
        "velocity": 60,
        "channel": 0
      },
      {
        "type": "note_on",
        "time": 0,
        "note": 61,
        "velocity": 60,
        "channel": 0
      },
      {
        "type": "note_on",
        "time": 0,
        "note": 66,
        "velocity": 60,
        "channel": 0
      },
      {
        "type": "note_on",
        "time": 239,
        "note": 42,
        "velocity": 0,
        "channel": 0
      },
      {
        "type": "note_on",
        "time": 0,
        "note": 49,
        "velocity": 0,
        "channel": 0
      },
      {
        "type": "note_on",
        "time": 0,
        "note": 54,
        "velocity": 0,
        "channel": 0
      },
      {
        "type": "note_on",
        "time": 0,
        "note": 58,
        "velocity": 0,
        "channel": 0
      },
      {
        "type": "note_on",
        "time": 0,
        "note": 61,
        "velocity": 0,
        "channel": 0
      },
      {
        "type": "note_on",
        "time": 0,
        "note": 66,
        "velocity": 0,
        "channel": 0
      },
      {
        "type": "note_on",
        "time": 241,
        "note": 40,
        "velocity": 60,
        "channel": 0
      },
      {
        "type": "note_on",
        "time": 0,
        "note": 45,
        "velocity": 60,
        "channel": 0
      },
      {
        "type": "note_on",
        "time": 0,
        "note": 52,
        "velocity": 60,
        "channel": 0
      },
      {
        "type": "note_on",
        "time": 0,
        "note": 57,
        "velocity": 60,
        "channel": 0
      },
      {
        "type": "note_on",
        "time": 0,
        "note": 61,
        "velocity": 60,
        "channel": 0
      },
      {
        "type": "note_on",
        "time": 0,
        "note": 64,
        "velocity": 60,
        "channel": 0
      },
      {
        "type": "note_on",
        "time": 239,
        "note": 40,
        "velocity": 0,
        "channel": 0
      },
      {
        "type": "note_on",
        "time": 0,
        "note": 45,
        "velocity": 0,
        "channel": 0
      },
      {
        "type": "note_on",
        "time": 0,
        "note": 52,
        "velocity": 0,
        "channel": 0
      },
      {
        "type": "note_on",
        "time": 0,
        "note": 57,
        "velocity": 0,
        "channel": 0
      },
      {
        "type": "note_on",
        "time": 0,
        "note": 61,
        "velocity": 0,
        "channel": 0
      },
      {
        "type": "note_on",
        "time": 0,
        "note": 64,
        "velocity": 0,
        "channel": 0
      },
      {
        "type": "note_on",
        "time": 1,
        "note": 57,
        "velocity": 60,
        "channel": 0
      },
      {
        "type": "note_on",
        "time": 119,
        "note": 57,
        "velocity": 0,
        "channel": 0
      },
      {
        "type": "note_on",
        "time": 1,
        "note": 52,
        "velocity": 60,
        "channel": 0
      },
      {
        "type": "note_on",
        "time": 119,
        "note": 52,
        "velocity": 0,
        "channel": 0
      },
      {
        "type": "note_on",
        "time": 1,
        "note": 40,
        "velocity": 60,
        "channel": 0
      },
      {
        "type": "note_on",
        "time": 0,
        "note": 47,
        "velocity": 60,
        "channel": 0
      },
      {
        "type": "note_on",
        "time": 0,
        "note": 52,
        "velocity": 60,
        "channel": 0
      },
      {
        "type": "note_on",
        "time": 0,
        "note": 56,
        "velocity": 60,
        "channel": 0
      },
      {
        "type": "note_on",
        "time": 0,
        "note": 59,
        "velocity": 60,
        "channel": 0
      },
      {
        "type": "note_on",
        "time": 0,
        "note": 64,
        "velocity": 60,
        "channel": 0
      },
      {
        "type": "note_on",
        "time": 239,
        "note": 40,
        "velocity": 0,
        "channel": 0
      },
      {
        "type": "note_on",
        "time": 0,
        "note": 47,
        "velocity": 0,
        "channel": 0
      },
      {
        "type": "note_on",
        "time": 0,
        "note": 52,
        "velocity": 0,
        "channel": 0
      },
      {
        "type": "note_on",
        "time": 0,
        "note": 56,
        "velocity": 0,
        "channel": 0
      },
      {
        "type": "note_on",
        "time": 0,
        "note": 59,
        "velocity": 0,
        "channel": 0
      },
      {
        "type": "note_on",
        "time": 0,
        "note": 64,
        "velocity": 0,
        "channel": 0
      },
      {
        "type": "note_on",
        "time": 241,
        "note": 43,
        "velocity": 60,
        "channel": 0
      },
      {
        "type": "note_on",
        "time": 0,
        "note": 50,
        "velocity": 60,
        "channel": 0
      },
      {
        "type": "note_on",
        "time": 0,
        "note": 55,
        "velocity": 60,
        "channel": 0
      },
      {
        "type": "note_on",
        "time": 0,
        "note": 59,
        "velocity": 60,
        "channel": 0
      },
      {
        "type": "note_on",
        "time": 0,
        "note": 62,
        "velocity": 60,
        "channel": 0
      },
      {
        "type": "note_on",
        "time": 0,
        "note": 67,
        "velocity": 60,
        "channel": 0
      },
      {
        "type": "note_on",
        "time": 239,
        "note": 43,
        "velocity": 0,
        "channel": 0
      },
      {
        "type": "note_on",
        "time": 0,
        "note": 50,
        "velocity": 0,
        "channel": 0
      },
      {
        "type": "note_on",
        "time": 0,
        "note": 55,
        "velocity": 0,
        "channel": 0
      },
      {
        "type": "note_on",
        "time": 0,
        "note": 59,
        "velocity": 0,
        "channel": 0
      },
      {
        "type": "note_on",
        "time": 0,
        "note": 62,
        "velocity": 0,
        "channel": 0
      },
      {
        "type": "note_on",
        "time": 0,
        "note": 67,
        "velocity": 0,
        "channel": 0
      },
      {
        "type": "note_on",
        "time": 61,
        "note": 55,
        "velocity": 60,
        "channel": 0
      },
      {
        "type": "note_on",
        "time": 59,
        "note": 55,
        "velocity": 0,
        "channel": 0
      },
      {
        "type": "note_on",
        "time": 1,
        "note": 57,
        "velocity": 60,
        "channel": 0
      },
      {
        "type": "note_on",
        "time": 59,
        "note": 57,
        "velocity": 0,
        "channel": 0
      },
      {
        "type": "note_on",
        "time": 1,
        "note": 62,
        "velocity": 60,
        "channel": 0
      },
      {
        "type": "note_on",
        "time": 59,
        "note": 62,
        "velocity": 0,
        "channel": 0
      },
      {
        "type": "note_on",
        "time": 1,
        "note": 45,
        "velocity": 60,
        "channel": 0
      },
      {
        "type": "note_on",
        "time": 0,
        "note": 50,
        "velocity": 60,
        "channel": 0
      },
      {
        "type": "note_on",
        "time": 0,
        "note": 57,
        "velocity": 60,
        "channel": 0
      },
      {
        "type": "note_on",
        "time": 0,
        "note": 62,
        "velocity": 60,
        "channel": 0
      },
      {
        "type": "note_on",
        "time": 0,
        "note": 66,
        "velocity": 60,
        "channel": 0
      },
      {
        "type": "note_on",
        "time": 0,
        "note": 69,
        "velocity": 60,
        "channel": 0
      },
      {
        "type": "note_on",
        "time": 239,
        "note": 45,
        "velocity": 0,
        "channel": 0
      },
      {
        "type": "note_on",
        "time": 0,
        "note": 50,
        "velocity": 0,
        "channel": 0
      },
      {
        "type": "note_on",
        "time": 0,
        "note": 57,
        "velocity": 0,
        "channel": 0
      },
      {
        "type": "note_on",
        "time": 0,
        "note": 62,
        "velocity": 0,
        "channel": 0
      },
      {
        "type": "note_on",
        "time": 0,
        "note": 66,
        "velocity": 0,
        "channel": 0
      },
      {
        "type": "note_on",
        "time": 0,
        "note": 69,
        "velocity": 0,
        "channel": 0
      },
      {
        "type": "note_on",
        "time": 1,
        "note": 66,
        "velocity": 60,
        "channel": 0
      },
      {
        "type": "note_on",
        "time": 119,
        "note": 66,
        "velocity": 0,
        "channel": 0
      },
      {
        "type": "note_on",
        "time": 1,
        "note": 62,
        "velocity": 60,
        "channel": 0
      },
      {
        "type": "note_on",
        "time": 119,
        "note": 62,
        "velocity": 0,
        "channel": 0
      },
      {
        "type": "note_on",
        "time": 1,
        "note": 40,
        "velocity": 60,
        "channel": 0
      },
      {
        "type": "note_on",
        "time": 0,
        "note": 47,
        "velocity": 60,
        "channel": 0
      },
      {
        "type": "note_on",
        "time": 0,
        "note": 52,
        "velocity": 60,
        "channel": 0
      },
      {
        "type": "note_on",
        "time": 0,
        "note": 55,
        "velocity": 60,
        "channel": 0
      },
      {
        "type": "note_on",
        "time": 0,
        "note": 59,
        "velocity": 60,
        "channel": 0
      },
      {
        "type": "note_on",
        "time": 0,
        "note": 64,
        "velocity": 60,
        "channel": 0
      },
      {
        "type": "note_on",
        "time": 239,
        "note": 40,
        "velocity": 0,
        "channel": 0
      },
      {
        "type": "note_on",
        "time": 0,
        "note": 47,
        "velocity": 0,
        "channel": 0
      },
      {
        "type": "note_on",
        "time": 0,
        "note": 52,
        "velocity": 0,
        "channel": 0
      },
      {
        "type": "note_on",
        "time": 0,
        "note": 55,
        "velocity": 0,
        "channel": 0
      },
      {
        "type": "note_on",
        "time": 0,
        "note": 59,
        "velocity": 0,
        "channel": 0
      },
      {
        "type": "note_on",
        "time": 0,
        "note": 64,
        "velocity": 0,
        "channel": 0
      },
      {
        "type": "note_on",
        "time": 61,
        "note": 54,
        "velocity": 60,
        "channel": 0
      },
      {
        "type": "note_on",
        "time": 29,
        "note": 54,
        "velocity": 0,
        "channel": 0
      },
      {
        "type": "note_on",
        "time": 1,
        "note": 55,
        "velocity": 60,
        "channel": 0
      },
      {
        "type": "note_on",
        "time": 29,
        "note": 55,
        "velocity": 0,
        "channel": 0
      },
      {
        "type": "note_on",
        "time": 1,
        "note": 54,
        "velocity": 60,
        "channel": 0
      },
      {
        "type": "note_on",
        "time": 119,
        "note": 54,
        "velocity": 0,
        "channel": 0
      },
      {
        "type": "note_on",
        "time": 1,
        "note": 42,
        "velocity": 60,
        "channel": 0
      },
      {
        "type": "note_on",
        "time": 0,
        "note": 49,
        "velocity": 60,
        "channel": 0
      },
      {
        "type": "note_on",
        "time": 0,
        "note": 54,
        "velocity": 60,
        "channel": 0
      },
      {
        "type": "note_on",
        "time": 0,
        "note": 58,
        "velocity": 60,
        "channel": 0
      },
      {
        "type": "note_on",
        "time": 0,
        "note": 61,
        "velocity": 60,
        "channel": 0
      },
      {
        "type": "note_on",
        "time": 0,
        "note": 66,
        "velocity": 60,
        "channel": 0
      },
      {
        "type": "note_on",
        "time": 239,
        "note": 42,
        "velocity": 0,
        "channel": 0
      },
      {
        "type": "note_on",
        "time": 0,
        "note": 49,
        "velocity": 0,
        "channel": 0
      },
      {
        "type": "note_on",
        "time": 0,
        "note": 54,
        "velocity": 0,
        "channel": 0
      },
      {
        "type": "note_on",
        "time": 0,
        "note": 58,
        "velocity": 0,
        "channel": 0
      },
      {
        "type": "note_on",
        "time": 0,
        "note": 61,
        "velocity": 0,
        "channel": 0
      },
      {
        "type": "note_on",
        "time": 0,
        "note": 66,
        "velocity": 0,
        "channel": 0
      },
      {
        "type": "note_on",
        "time": 241,
        "note": 54,
        "velocity": 60,
        "channel": 0
      },
      {
        "type": "note_on",
        "time": 0,
        "note": 47,
        "velocity": 60,
        "channel": 0
      },
      {
        "type": "note_on",
        "time": 0,
        "note": 42,
        "velocity": 60,
        "channel": 0
      },
      {
        "type": "note_on",
        "time": 0,
        "note": 59,
        "velocity": 60,
        "channel": 0
      },
      {
        "type": "note_on",
        "time": 0,
        "note": 62,
        "velocity": 60,
        "channel": 0
      },
      {
        "type": "note_on",
        "time": 0,
        "note": 66,
        "velocity": 60,
        "channel": 0
      },
      {
        "type": "note_on",
        "time": 59,
        "note": 54,
        "velocity": 0,
        "channel": 0
      },
      {
        "type": "note_on",
        "time": 0,
        "note": 47,
        "velocity": 0,
        "channel": 0
      },
      {
        "type": "note_on",
        "time": 0,
        "note": 42,
        "velocity": 0,
        "channel": 0
      },
      {
        "type": "note_on",
        "time": 0,
        "note": 59,
        "velocity": 0,
        "channel": 0
      },
      {
        "type": "note_on",
        "time": 0,
        "note": 62,
        "velocity": 0,
        "channel": 0
      },
      {
        "type": "note_on",
        "time": 0,
        "note": 66,
        "velocity": 0,
        "channel": 0
      },
      {
        "type": "note_on",
        "time": 1,
        "note": 66,
        "velocity": 60,
        "channel": 0
      },
      {
        "type": "note_on",
        "time": 0,
        "note": 59,
        "velocity": 60,
        "channel": 0
      },
      {
        "type": "note_on",
        "time": 0,
        "note": 62,
        "velocity": 60,
        "channel": 0
      },
      {
        "type": "note_on",
        "time": 0,
        "note": 54,
        "velocity": 60,
        "channel": 0
      },
      {
        "type": "note_on",
        "time": 0,
        "note": 47,
        "velocity": 60,
        "channel": 0
      },
      {
        "type": "note_on",
        "time": 0,
        "note": 42,
        "velocity": 60,
        "channel": 0
      },
      {
        "type": "note_on",
        "time": 29,
        "note": 66,
        "velocity": 0,
        "channel": 0
      },
      {
        "type": "note_on",
        "time": 0,
        "note": 59,
        "velocity": 0,
        "channel": 0
      },
      {
        "type": "note_on",
        "time": 0,
        "note": 62,
        "velocity": 0,
        "channel": 0
      },
      {
        "type": "note_on",
        "time": 0,
        "note": 54,
        "velocity": 0,
        "channel": 0
      },
      {
        "type": "note_on",
        "time": 0,
        "note": 47,
        "velocity": 0,
        "channel": 0
      },
      {
        "type": "note_on",
        "time": 0,
        "note": 42,
        "velocity": 0,
        "channel": 0
      },
      {
        "type": "note_on",
        "time": 1,
        "note": 66,
        "velocity": 60,
        "channel": 0
      },
      {
        "type": "note_on",
        "time": 0,
        "note": 59,
        "velocity": 60,
        "channel": 0
      },
      {
        "type": "note_on",
        "time": 0,
        "note": 62,
        "velocity": 60,
        "channel": 0
      },
      {
        "type": "note_on",
        "time": 0,
        "note": 54,
        "velocity": 60,
        "channel": 0
      },
      {
        "type": "note_on",
        "time": 0,
        "note": 47,
        "velocity": 60,
        "channel": 0
      },
      {
        "type": "note_on",
        "time": 0,
        "note": 42,
        "velocity": 60,
        "channel": 0
      },
      {
        "type": "note_on",
        "time": 29,
        "note": 66,
        "velocity": 0,
        "channel": 0
      },
      {
        "type": "note_on",
        "time": 0,
        "note": 59,
        "velocity": 0,
        "channel": 0
      },
      {
        "type": "note_on",
        "time": 0,
        "note": 62,
        "velocity": 0,
        "channel": 0
      },
      {
        "type": "note_on",
        "time": 0,
        "note": 54,
        "velocity": 0,
        "channel": 0
      },
      {
        "type": "note_on",
        "time": 0,
        "note": 47,
        "velocity": 0,
        "channel": 0
      },
      {
        "type": "note_on",
        "time": 0,
        "note": 42,
        "velocity": 0,
        "channel": 0
      },
      {
        "type": "note_on",
        "time": 1,
        "note": 66,
        "velocity": 60,
        "channel": 0
      },
      {
        "type": "note_on",
        "time": 0,
        "note": 62,
        "velocity": 60,
        "channel": 0
      },
      {
        "type": "note_on",
        "time": 0,
        "note": 59,
        "velocity": 60,
        "channel": 0
      },
      {
        "type": "note_on",
        "time": 0,
        "note": 54,
        "velocity": 60,
        "channel": 0
      },
      {
        "type": "note_on",
        "time": 0,
        "note": 47,
        "velocity": 60,
        "channel": 0
      },
      {
        "type": "note_on",
        "time": 0,
        "note": 42,
        "velocity": 60,
        "channel": 0
      },
      {
        "type": "note_on",
        "time": 59,
        "note": 66,
        "velocity": 0,
        "channel": 0
      },
      {
        "type": "note_on",
        "time": 0,
        "note": 62,
        "velocity": 0,
        "channel": 0
      },
      {
        "type": "note_on",
        "time": 0,
        "note": 59,
        "velocity": 0,
        "channel": 0
      },
      {
        "type": "note_on",
        "time": 0,
        "note": 54,
        "velocity": 0,
        "channel": 0
      },
      {
        "type": "note_on",
        "time": 0,
        "note": 47,
        "velocity": 0,
        "channel": 0
      },
      {
        "type": "note_on",
        "time": 0,
        "note": 42,
        "velocity": 0,
        "channel": 0
      },
      {
        "type": "note_on",
        "time": 1,
        "note": 66,
        "velocity": 60,
        "channel": 0
      },
      {
        "type": "note_on",
        "time": 0,
        "note": 62,
        "velocity": 60,
        "channel": 0
      },
      {
        "type": "note_on",
        "time": 0,
        "note": 59,
        "velocity": 60,
        "channel": 0
      },
      {
        "type": "note_on",
        "time": 0,
        "note": 54,
        "velocity": 60,
        "channel": 0
      },
      {
        "type": "note_on",
        "time": 0,
        "note": 47,
        "velocity": 60,
        "channel": 0
      },
      {
        "type": "note_on",
        "time": 0,
        "note": 42,
        "velocity": 60,
        "channel": 0
      },
      {
        "type": "note_on",
        "time": 29,
        "note": 66,
        "velocity": 0,
        "channel": 0
      },
      {
        "type": "note_on",
        "time": 0,
        "note": 62,
        "velocity": 0,
        "channel": 0
      },
      {
        "type": "note_on",
        "time": 0,
        "note": 59,
        "velocity": 0,
        "channel": 0
      },
      {
        "type": "note_on",
        "time": 0,
        "note": 54,
        "velocity": 0,
        "channel": 0
      },
      {
        "type": "note_on",
        "time": 0,
        "note": 47,
        "velocity": 0,
        "channel": 0
      },
      {
        "type": "note_on",
        "time": 0,
        "note": 42,
        "velocity": 0,
        "channel": 0
      },
      {
        "type": "note_on",
        "time": 1,
        "note": 66,
        "velocity": 60,
        "channel": 0
      },
      {
        "type": "note_on",
        "time": 0,
        "note": 62,
        "velocity": 60,
        "channel": 0
      },
      {
        "type": "note_on",
        "time": 0,
        "note": 59,
        "velocity": 60,
        "channel": 0
      },
      {
        "type": "note_on",
        "time": 0,
        "note": 54,
        "velocity": 60,
        "channel": 0
      },
      {
        "type": "note_on",
        "time": 0,
        "note": 47,
        "velocity": 60,
        "channel": 0
      },
      {
        "type": "note_on",
        "time": 0,
        "note": 42,
        "velocity": 60,
        "channel": 0
      },
      {
        "type": "note_on",
        "time": 29,
        "note": 66,
        "velocity": 0,
        "channel": 0
      },
      {
        "type": "note_on",
        "time": 0,
        "note": 62,
        "velocity": 0,
        "channel": 0
      },
      {
        "type": "note_on",
        "time": 0,
        "note": 59,
        "velocity": 0,
        "channel": 0
      },
      {
        "type": "note_on",
        "time": 0,
        "note": 54,
        "velocity": 0,
        "channel": 0
      },
      {
        "type": "note_on",
        "time": 0,
        "note": 47,
        "velocity": 0,
        "channel": 0
      },
      {
        "type": "note_on",
        "time": 0,
        "note": 42,
        "velocity": 0,
        "channel": 0
      },
      {
        "type": "note_on",
        "time": 1,
        "note": 66,
        "velocity": 60,
        "channel": 0
      },
      {
        "type": "note_on",
        "time": 0,
        "note": 62,
        "velocity": 60,
        "channel": 0
      },
      {
        "type": "note_on",
        "time": 0,
        "note": 59,
        "velocity": 60,
        "channel": 0
      },
      {
        "type": "note_on",
        "time": 0,
        "note": 54,
        "velocity": 60,
        "channel": 0
      },
      {
        "type": "note_on",
        "time": 0,
        "note": 47,
        "velocity": 60,
        "channel": 0
      },
      {
        "type": "note_on",
        "time": 0,
        "note": 42,
        "velocity": 60,
        "channel": 0
      },
      {
        "type": "note_on",
        "time": 29,
        "note": 66,
        "velocity": 0,
        "channel": 0
      },
      {
        "type": "note_on",
        "time": 0,
        "note": 62,
        "velocity": 0,
        "channel": 0
      },
      {
        "type": "note_on",
        "time": 0,
        "note": 59,
        "velocity": 0,
        "channel": 0
      },
      {
        "type": "note_on",
        "time": 0,
        "note": 54,
        "velocity": 0,
        "channel": 0
      },
      {
        "type": "note_on",
        "time": 0,
        "note": 47,
        "velocity": 0,
        "channel": 0
      },
      {
        "type": "note_on",
        "time": 0,
        "note": 42,
        "velocity": 0,
        "channel": 0
      },
      {
        "type": "note_on",
        "time": 1,
        "note": 66,
        "velocity": 60,
        "channel": 0
      },
      {
        "type": "note_on",
        "time": 0,
        "note": 62,
        "velocity": 60,
        "channel": 0
      },
      {
        "type": "note_on",
        "time": 0,
        "note": 59,
        "velocity": 60,
        "channel": 0
      },
      {
        "type": "note_on",
        "time": 0,
        "note": 54,
        "velocity": 60,
        "channel": 0
      },
      {
        "type": "note_on",
        "time": 0,
        "note": 47,
        "velocity": 60,
        "channel": 0
      },
      {
        "type": "note_on",
        "time": 0,
        "note": 42,
        "velocity": 60,
        "channel": 0
      },
      {
        "type": "note_on",
        "time": 29,
        "note": 66,
        "velocity": 0,
        "channel": 0
      },
      {
        "type": "note_on",
        "time": 0,
        "note": 62,
        "velocity": 0,
        "channel": 0
      },
      {
        "type": "note_on",
        "time": 0,
        "note": 59,
        "velocity": 0,
        "channel": 0
      },
      {
        "type": "note_on",
        "time": 0,
        "note": 54,
        "velocity": 0,
        "channel": 0
      },
      {
        "type": "note_on",
        "time": 0,
        "note": 47,
        "velocity": 0,
        "channel": 0
      },
      {
        "type": "note_on",
        "time": 0,
        "note": 42,
        "velocity": 0,
        "channel": 0
      },
      {
        "type": "note_on",
        "time": 1,
        "note": 66,
        "velocity": 60,
        "channel": 0
      },
      {
        "type": "note_on",
        "time": 0,
        "note": 62,
        "velocity": 60,
        "channel": 0
      },
      {
        "type": "note_on",
        "time": 0,
        "note": 59,
        "velocity": 60,
        "channel": 0
      },
      {
        "type": "note_on",
        "time": 0,
        "note": 54,
        "velocity": 60,
        "channel": 0
      },
      {
        "type": "note_on",
        "time": 0,
        "note": 47,
        "velocity": 60,
        "channel": 0
      },
      {
        "type": "note_on",
        "time": 0,
        "note": 42,
        "velocity": 60,
        "channel": 0
      },
      {
        "type": "note_on",
        "time": 29,
        "note": 66,
        "velocity": 0,
        "channel": 0
      },
      {
        "type": "note_on",
        "time": 0,
        "note": 62,
        "velocity": 0,
        "channel": 0
      },
      {
        "type": "note_on",
        "time": 0,
        "note": 59,
        "velocity": 0,
        "channel": 0
      },
      {
        "type": "note_on",
        "time": 0,
        "note": 54,
        "velocity": 0,
        "channel": 0
      },
      {
        "type": "note_on",
        "time": 0,
        "note": 47,
        "velocity": 0,
        "channel": 0
      },
      {
        "type": "note_on",
        "time": 0,
        "note": 42,
        "velocity": 0,
        "channel": 0
      },
      {
        "type": "note_on",
        "time": 1,
        "note": 66,
        "velocity": 60,
        "channel": 0
      },
      {
        "type": "note_on",
        "time": 0,
        "note": 62,
        "velocity": 60,
        "channel": 0
      },
      {
        "type": "note_on",
        "time": 0,
        "note": 59,
        "velocity": 60,
        "channel": 0
      },
      {
        "type": "note_on",
        "time": 0,
        "note": 54,
        "velocity": 60,
        "channel": 0
      },
      {
        "type": "note_on",
        "time": 0,
        "note": 47,
        "velocity": 60,
        "channel": 0
      },
      {
        "type": "note_on",
        "time": 0,
        "note": 42,
        "velocity": 60,
        "channel": 0
      },
      {
        "type": "note_on",
        "time": 59,
        "note": 66,
        "velocity": 0,
        "channel": 0
      },
      {
        "type": "note_on",
        "time": 0,
        "note": 62,
        "velocity": 0,
        "channel": 0
      },
      {
        "type": "note_on",
        "time": 0,
        "note": 59,
        "velocity": 0,
        "channel": 0
      },
      {
        "type": "note_on",
        "time": 0,
        "note": 54,
        "velocity": 0,
        "channel": 0
      },
      {
        "type": "note_on",
        "time": 0,
        "note": 47,
        "velocity": 0,
        "channel": 0
      },
      {
        "type": "note_on",
        "time": 0,
        "note": 42,
        "velocity": 0,
        "channel": 0
      },
      {
        "type": "note_on",
        "time": 1,
        "note": 66,
        "velocity": 60,
        "channel": 0
      },
      {
        "type": "note_on",
        "time": 0,
        "note": 62,
        "velocity": 60,
        "channel": 0
      },
      {
        "type": "note_on",
        "time": 0,
        "note": 59,
        "velocity": 60,
        "channel": 0
      },
      {
        "type": "note_on",
        "time": 0,
        "note": 54,
        "velocity": 60,
        "channel": 0
      },
      {
        "type": "note_on",
        "time": 0,
        "note": 47,
        "velocity": 60,
        "channel": 0
      },
      {
        "type": "note_on",
        "time": 0,
        "note": 42,
        "velocity": 60,
        "channel": 0
      },
      {
        "type": "note_on",
        "time": 29,
        "note": 66,
        "velocity": 0,
        "channel": 0
      },
      {
        "type": "note_on",
        "time": 0,
        "note": 62,
        "velocity": 0,
        "channel": 0
      },
      {
        "type": "note_on",
        "time": 0,
        "note": 59,
        "velocity": 0,
        "channel": 0
      },
      {
        "type": "note_on",
        "time": 0,
        "note": 54,
        "velocity": 0,
        "channel": 0
      },
      {
        "type": "note_on",
        "time": 0,
        "note": 47,
        "velocity": 0,
        "channel": 0
      },
      {
        "type": "note_on",
        "time": 0,
        "note": 42,
        "velocity": 0,
        "channel": 0
      },
      {
        "type": "note_on",
        "time": 1,
        "note": 66,
        "velocity": 60,
        "channel": 0
      },
      {
        "type": "note_on",
        "time": 0,
        "note": 62,
        "velocity": 60,
        "channel": 0
      },
      {
        "type": "note_on",
        "time": 0,
        "note": 59,
        "velocity": 60,
        "channel": 0
      },
      {
        "type": "note_on",
        "time": 0,
        "note": 54,
        "velocity": 60,
        "channel": 0
      },
      {
        "type": "note_on",
        "time": 0,
        "note": 47,
        "velocity": 60,
        "channel": 0
      },
      {
        "type": "note_on",
        "time": 0,
        "note": 42,
        "velocity": 60,
        "channel": 0
      },
      {
        "type": "note_on",
        "time": 59,
        "note": 66,
        "velocity": 0,
        "channel": 0
      },
      {
        "type": "note_on",
        "time": 0,
        "note": 62,
        "velocity": 0,
        "channel": 0
      },
      {
        "type": "note_on",
        "time": 0,
        "note": 59,
        "velocity": 0,
        "channel": 0
      },
      {
        "type": "note_on",
        "time": 0,
        "note": 54,
        "velocity": 0,
        "channel": 0
      },
      {
        "type": "note_on",
        "time": 0,
        "note": 47,
        "velocity": 0,
        "channel": 0
      },
      {
        "type": "note_on",
        "time": 0,
        "note": 42,
        "velocity": 0,
        "channel": 0
      },
      {
        "type": "note_on",
        "time": 1,
        "note": 42,
        "velocity": 60,
        "channel": 0
      },
      {
        "type": "note_on",
        "time": 0,
        "note": 49,
        "velocity": 60,
        "channel": 0
      },
      {
        "type": "note_on",
        "time": 0,
        "note": 54,
        "velocity": 60,
        "channel": 0
      },
      {
        "type": "note_on",
        "time": 0,
        "note": 58,
        "velocity": 60,
        "channel": 0
      },
      {
        "type": "note_on",
        "time": 0,
        "note": 61,
        "velocity": 60,
        "channel": 0
      },
      {
        "type": "note_on",
        "time": 0,
        "note": 66,
        "velocity": 60,
        "channel": 0
      },
      {
        "type": "note_on",
        "time": 59,
        "note": 42,
        "velocity": 0,
        "channel": 0
      },
      {
        "type": "note_on",
        "time": 0,
        "note": 49,
        "velocity": 0,
        "channel": 0
      },
      {
        "type": "note_on",
        "time": 0,
        "note": 54,
        "velocity": 0,
        "channel": 0
      },
      {
        "type": "note_on",
        "time": 0,
        "note": 58,
        "velocity": 0,
        "channel": 0
      },
      {
        "type": "note_on",
        "time": 0,
        "note": 61,
        "velocity": 0,
        "channel": 0
      },
      {
        "type": "note_on",
        "time": 0,
        "note": 66,
        "velocity": 0,
        "channel": 0
      },
      {
        "type": "note_on",
        "time": 1,
        "note": 66,
        "velocity": 60,
        "channel": 0
      },
      {
        "type": "note_on",
        "time": 0,
        "note": 61,
        "velocity": 60,
        "channel": 0
      },
      {
        "type": "note_on",
        "time": 0,
        "note": 58,
        "velocity": 60,
        "channel": 0
      },
      {
        "type": "note_on",
        "time": 0,
        "note": 54,
        "velocity": 60,
        "channel": 0
      },
      {
        "type": "note_on",
        "time": 0,
        "note": 49,
        "velocity": 60,
        "channel": 0
      },
      {
        "type": "note_on",
        "time": 0,
        "note": 42,
        "velocity": 60,
        "channel": 0
      },
      {
        "type": "note_on",
        "time": 29,
        "note": 66,
        "velocity": 0,
        "channel": 0
      },
      {
        "type": "note_on",
        "time": 0,
        "note": 61,
        "velocity": 0,
        "channel": 0
      },
      {
        "type": "note_on",
        "time": 0,
        "note": 58,
        "velocity": 0,
        "channel": 0
      },
      {
        "type": "note_on",
        "time": 0,
        "note": 54,
        "velocity": 0,
        "channel": 0
      },
      {
        "type": "note_on",
        "time": 0,
        "note": 49,
        "velocity": 0,
        "channel": 0
      },
      {
        "type": "note_on",
        "time": 0,
        "note": 42,
        "velocity": 0,
        "channel": 0
      },
      {
        "type": "note_on",
        "time": 1,
        "note": 66,
        "velocity": 60,
        "channel": 0
      },
      {
        "type": "note_on",
        "time": 0,
        "note": 61,
        "velocity": 60,
        "channel": 0
      },
      {
        "type": "note_on",
        "time": 0,
        "note": 58,
        "velocity": 60,
        "channel": 0
      },
      {
        "type": "note_on",
        "time": 0,
        "note": 54,
        "velocity": 60,
        "channel": 0
      },
      {
        "type": "note_on",
        "time": 0,
        "note": 49,
        "velocity": 60,
        "channel": 0
      },
      {
        "type": "note_on",
        "time": 0,
        "note": 42,
        "velocity": 60,
        "channel": 0
      },
      {
        "type": "note_on",
        "time": 29,
        "note": 66,
        "velocity": 0,
        "channel": 0
      },
      {
        "type": "note_on",
        "time": 0,
        "note": 61,
        "velocity": 0,
        "channel": 0
      },
      {
        "type": "note_on",
        "time": 0,
        "note": 58,
        "velocity": 0,
        "channel": 0
      },
      {
        "type": "note_on",
        "time": 0,
        "note": 54,
        "velocity": 0,
        "channel": 0
      },
      {
        "type": "note_on",
        "time": 0,
        "note": 49,
        "velocity": 0,
        "channel": 0
      },
      {
        "type": "note_on",
        "time": 0,
        "note": 42,
        "velocity": 0,
        "channel": 0
      },
      {
        "type": "note_on",
        "time": 1,
        "note": 66,
        "velocity": 60,
        "channel": 0
      },
      {
        "type": "note_on",
        "time": 0,
        "note": 58,
        "velocity": 60,
        "channel": 0
      },
      {
        "type": "note_on",
        "time": 0,
        "note": 61,
        "velocity": 60,
        "channel": 0
      },
      {
        "type": "note_on",
        "time": 0,
        "note": 54,
        "velocity": 60,
        "channel": 0
      },
      {
        "type": "note_on",
        "time": 0,
        "note": 49,
        "velocity": 60,
        "channel": 0
      },
      {
        "type": "note_on",
        "time": 0,
        "note": 42,
        "velocity": 60,
        "channel": 0
      },
      {
        "type": "note_on",
        "time": 59,
        "note": 66,
        "velocity": 0,
        "channel": 0
      },
      {
        "type": "note_on",
        "time": 0,
        "note": 58,
        "velocity": 0,
        "channel": 0
      },
      {
        "type": "note_on",
        "time": 0,
        "note": 61,
        "velocity": 0,
        "channel": 0
      },
      {
        "type": "note_on",
        "time": 0,
        "note": 54,
        "velocity": 0,
        "channel": 0
      },
      {
        "type": "note_on",
        "time": 0,
        "note": 49,
        "velocity": 0,
        "channel": 0
      },
      {
        "type": "note_on",
        "time": 0,
        "note": 42,
        "velocity": 0,
        "channel": 0
      },
      {
        "type": "note_on",
        "time": 1,
        "note": 66,
        "velocity": 60,
        "channel": 0
      },
      {
        "type": "note_on",
        "time": 0,
        "note": 61,
        "velocity": 60,
        "channel": 0
      },
      {
        "type": "note_on",
        "time": 0,
        "note": 58,
        "velocity": 60,
        "channel": 0
      },
      {
        "type": "note_on",
        "time": 0,
        "note": 54,
        "velocity": 60,
        "channel": 0
      },
      {
        "type": "note_on",
        "time": 0,
        "note": 49,
        "velocity": 60,
        "channel": 0
      },
      {
        "type": "note_on",
        "time": 0,
        "note": 42,
        "velocity": 60,
        "channel": 0
      },
      {
        "type": "note_on",
        "time": 29,
        "note": 66,
        "velocity": 0,
        "channel": 0
      },
      {
        "type": "note_on",
        "time": 0,
        "note": 61,
        "velocity": 0,
        "channel": 0
      },
      {
        "type": "note_on",
        "time": 0,
        "note": 58,
        "velocity": 0,
        "channel": 0
      },
      {
        "type": "note_on",
        "time": 0,
        "note": 54,
        "velocity": 0,
        "channel": 0
      },
      {
        "type": "note_on",
        "time": 0,
        "note": 49,
        "velocity": 0,
        "channel": 0
      },
      {
        "type": "note_on",
        "time": 0,
        "note": 42,
        "velocity": 0,
        "channel": 0
      },
      {
        "type": "note_on",
        "time": 1,
        "note": 66,
        "velocity": 60,
        "channel": 0
      },
      {
        "type": "note_on",
        "time": 0,
        "note": 61,
        "velocity": 60,
        "channel": 0
      },
      {
        "type": "note_on",
        "time": 0,
        "note": 58,
        "velocity": 60,
        "channel": 0
      },
      {
        "type": "note_on",
        "time": 0,
        "note": 54,
        "velocity": 60,
        "channel": 0
      },
      {
        "type": "note_on",
        "time": 0,
        "note": 49,
        "velocity": 60,
        "channel": 0
      },
      {
        "type": "note_on",
        "time": 0,
        "note": 42,
        "velocity": 60,
        "channel": 0
      },
      {
        "type": "note_on",
        "time": 29,
        "note": 66,
        "velocity": 0,
        "channel": 0
      },
      {
        "type": "note_on",
        "time": 0,
        "note": 61,
        "velocity": 0,
        "channel": 0
      },
      {
        "type": "note_on",
        "time": 0,
        "note": 58,
        "velocity": 0,
        "channel": 0
      },
      {
        "type": "note_on",
        "time": 0,
        "note": 54,
        "velocity": 0,
        "channel": 0
      },
      {
        "type": "note_on",
        "time": 0,
        "note": 49,
        "velocity": 0,
        "channel": 0
      },
      {
        "type": "note_on",
        "time": 0,
        "note": 42,
        "velocity": 0,
        "channel": 0
      },
      {
        "type": "note_on",
        "time": 1,
        "note": 66,
        "velocity": 60,
        "channel": 0
      },
      {
        "type": "note_on",
        "time": 0,
        "note": 61,
        "velocity": 60,
        "channel": 0
      },
      {
        "type": "note_on",
        "time": 0,
        "note": 58,
        "velocity": 60,
        "channel": 0
      },
      {
        "type": "note_on",
        "time": 0,
        "note": 54,
        "velocity": 60,
        "channel": 0
      },
      {
        "type": "note_on",
        "time": 0,
        "note": 49,
        "velocity": 60,
        "channel": 0
      },
      {
        "type": "note_on",
        "time": 0,
        "note": 42,
        "velocity": 60,
        "channel": 0
      },
      {
        "type": "note_on",
        "time": 179,
        "note": 66,
        "velocity": 0,
        "channel": 0
      },
      {
        "type": "note_on",
        "time": 0,
        "note": 61,
        "velocity": 0,
        "channel": 0
      },
      {
        "type": "note_on",
        "time": 0,
        "note": 58,
        "velocity": 0,
        "channel": 0
      },
      {
        "type": "note_on",
        "time": 0,
        "note": 54,
        "velocity": 0,
        "channel": 0
      },
      {
        "type": "note_on",
        "time": 0,
        "note": 49,
        "velocity": 0,
        "channel": 0
      },
      {
        "type": "note_on",
        "time": 0,
        "note": 42,
        "velocity": 0,
        "channel": 0
      },
      {
        "type": "note_on",
        "time": 1,
        "note": 66,
        "velocity": 60,
        "channel": 0
      },
      {
        "type": "note_on",
        "time": 0,
        "note": 61,
        "velocity": 60,
        "channel": 0
      },
      {
        "type": "note_on",
        "time": 0,
        "note": 58,
        "velocity": 60,
        "channel": 0
      },
      {
        "type": "note_on",
        "time": 0,
        "note": 54,
        "velocity": 60,
        "channel": 0
      },
      {
        "type": "note_on",
        "time": 0,
        "note": 49,
        "velocity": 60,
        "channel": 0
      },
      {
        "type": "note_on",
        "time": 0,
        "note": 42,
        "velocity": 60,
        "channel": 0
      },
      {
        "type": "note_on",
        "time": 29,
        "note": 66,
        "velocity": 0,
        "channel": 0
      },
      {
        "type": "note_on",
        "time": 0,
        "note": 61,
        "velocity": 0,
        "channel": 0
      },
      {
        "type": "note_on",
        "time": 0,
        "note": 58,
        "velocity": 0,
        "channel": 0
      },
      {
        "type": "note_on",
        "time": 0,
        "note": 54,
        "velocity": 0,
        "channel": 0
      },
      {
        "type": "note_on",
        "time": 0,
        "note": 49,
        "velocity": 0,
        "channel": 0
      },
      {
        "type": "note_on",
        "time": 0,
        "note": 42,
        "velocity": 0,
        "channel": 0
      },
      {
        "type": "note_on",
        "time": 1,
        "note": 66,
        "velocity": 60,
        "channel": 0
      },
      {
        "type": "note_on",
        "time": 0,
        "note": 61,
        "velocity": 60,
        "channel": 0
      },
      {
        "type": "note_on",
        "time": 0,
        "note": 58,
        "velocity": 60,
        "channel": 0
      },
      {
        "type": "note_on",
        "time": 0,
        "note": 54,
        "velocity": 60,
        "channel": 0
      },
      {
        "type": "note_on",
        "time": 0,
        "note": 49,
        "velocity": 60,
        "channel": 0
      },
      {
        "type": "note_on",
        "time": 0,
        "note": 42,
        "velocity": 60,
        "channel": 0
      },
      {
        "type": "note_on",
        "time": 29,
        "note": 66,
        "velocity": 0,
        "channel": 0
      },
      {
        "type": "note_on",
        "time": 0,
        "note": 61,
        "velocity": 0,
        "channel": 0
      },
      {
        "type": "note_on",
        "time": 0,
        "note": 58,
        "velocity": 0,
        "channel": 0
      },
      {
        "type": "note_on",
        "time": 0,
        "note": 54,
        "velocity": 0,
        "channel": 0
      },
      {
        "type": "note_on",
        "time": 0,
        "note": 49,
        "velocity": 0,
        "channel": 0
      },
      {
        "type": "note_on",
        "time": 0,
        "note": 42,
        "velocity": 0,
        "channel": 0
      },
      {
        "type": "note_on",
        "time": 1,
        "note": 40,
        "velocity": 60,
        "channel": 0
      },
      {
        "type": "note_on",
        "time": 0,
        "note": 45,
        "velocity": 60,
        "channel": 0
      },
      {
        "type": "note_on",
        "time": 0,
        "note": 52,
        "velocity": 60,
        "channel": 0
      },
      {
        "type": "note_on",
        "time": 0,
        "note": 57,
        "velocity": 60,
        "channel": 0
      },
      {
        "type": "note_on",
        "time": 0,
        "note": 61,
        "velocity": 60,
        "channel": 0
      },
      {
        "type": "note_on",
        "time": 0,
        "note": 64,
        "velocity": 60,
        "channel": 0
      },
      {
        "type": "note_on",
        "time": 59,
        "note": 40,
        "velocity": 0,
        "channel": 0
      },
      {
        "type": "note_on",
        "time": 0,
        "note": 45,
        "velocity": 0,
        "channel": 0
      },
      {
        "type": "note_on",
        "time": 0,
        "note": 52,
        "velocity": 0,
        "channel": 0
      },
      {
        "type": "note_on",
        "time": 0,
        "note": 57,
        "velocity": 0,
        "channel": 0
      },
      {
        "type": "note_on",
        "time": 0,
        "note": 61,
        "velocity": 0,
        "channel": 0
      },
      {
        "type": "note_on",
        "time": 0,
        "note": 64,
        "velocity": 0,
        "channel": 0
      },
      {
        "type": "note_on",
        "time": 1,
        "note": 64,
        "velocity": 60,
        "channel": 0
      },
      {
        "type": "note_on",
        "time": 0,
        "note": 61,
        "velocity": 60,
        "channel": 0
      },
      {
        "type": "note_on",
        "time": 0,
        "note": 57,
        "velocity": 60,
        "channel": 0
      },
      {
        "type": "note_on",
        "time": 0,
        "note": 52,
        "velocity": 60,
        "channel": 0
      },
      {
        "type": "note_on",
        "time": 0,
        "note": 45,
        "velocity": 60,
        "channel": 0
      },
      {
        "type": "note_on",
        "time": 0,
        "note": 40,
        "velocity": 60,
        "channel": 0
      },
      {
        "type": "note_on",
        "time": 29,
        "note": 64,
        "velocity": 0,
        "channel": 0
      },
      {
        "type": "note_on",
        "time": 0,
        "note": 61,
        "velocity": 0,
        "channel": 0
      },
      {
        "type": "note_on",
        "time": 0,
        "note": 57,
        "velocity": 0,
        "channel": 0
      },
      {
        "type": "note_on",
        "time": 0,
        "note": 52,
        "velocity": 0,
        "channel": 0
      },
      {
        "type": "note_on",
        "time": 0,
        "note": 45,
        "velocity": 0,
        "channel": 0
      },
      {
        "type": "note_on",
        "time": 0,
        "note": 40,
        "velocity": 0,
        "channel": 0
      },
      {
        "type": "note_on",
        "time": 1,
        "note": 64,
        "velocity": 60,
        "channel": 0
      },
      {
        "type": "note_on",
        "time": 0,
        "note": 61,
        "velocity": 60,
        "channel": 0
      },
      {
        "type": "note_on",
        "time": 0,
        "note": 57,
        "velocity": 60,
        "channel": 0
      },
      {
        "type": "note_on",
        "time": 0,
        "note": 52,
        "velocity": 60,
        "channel": 0
      },
      {
        "type": "note_on",
        "time": 0,
        "note": 45,
        "velocity": 60,
        "channel": 0
      },
      {
        "type": "note_on",
        "time": 0,
        "note": 40,
        "velocity": 60,
        "channel": 0
      },
      {
        "type": "note_on",
        "time": 29,
        "note": 64,
        "velocity": 0,
        "channel": 0
      },
      {
        "type": "note_on",
        "time": 0,
        "note": 61,
        "velocity": 0,
        "channel": 0
      },
      {
        "type": "note_on",
        "time": 0,
        "note": 57,
        "velocity": 0,
        "channel": 0
      },
      {
        "type": "note_on",
        "time": 0,
        "note": 52,
        "velocity": 0,
        "channel": 0
      },
      {
        "type": "note_on",
        "time": 0,
        "note": 45,
        "velocity": 0,
        "channel": 0
      },
      {
        "type": "note_on",
        "time": 0,
        "note": 40,
        "velocity": 0,
        "channel": 0
      },
      {
        "type": "note_on",
        "time": 1,
        "note": 64,
        "velocity": 60,
        "channel": 0
      },
      {
        "type": "note_on",
        "time": 0,
        "note": 61,
        "velocity": 60,
        "channel": 0
      },
      {
        "type": "note_on",
        "time": 0,
        "note": 57,
        "velocity": 60,
        "channel": 0
      },
      {
        "type": "note_on",
        "time": 0,
        "note": 52,
        "velocity": 60,
        "channel": 0
      },
      {
        "type": "note_on",
        "time": 0,
        "note": 45,
        "velocity": 60,
        "channel": 0
      },
      {
        "type": "note_on",
        "time": 0,
        "note": 40,
        "velocity": 60,
        "channel": 0
      },
      {
        "type": "note_on",
        "time": 59,
        "note": 64,
        "velocity": 0,
        "channel": 0
      },
      {
        "type": "note_on",
        "time": 0,
        "note": 61,
        "velocity": 0,
        "channel": 0
      },
      {
        "type": "note_on",
        "time": 0,
        "note": 57,
        "velocity": 0,
        "channel": 0
      },
      {
        "type": "note_on",
        "time": 0,
        "note": 52,
        "velocity": 0,
        "channel": 0
      },
      {
        "type": "note_on",
        "time": 0,
        "note": 45,
        "velocity": 0,
        "channel": 0
      },
      {
        "type": "note_on",
        "time": 0,
        "note": 40,
        "velocity": 0,
        "channel": 0
      },
      {
        "type": "note_on",
        "time": 1,
        "note": 64,
        "velocity": 60,
        "channel": 0
      },
      {
        "type": "note_on",
        "time": 0,
        "note": 61,
        "velocity": 60,
        "channel": 0
      },
      {
        "type": "note_on",
        "time": 0,
        "note": 57,
        "velocity": 60,
        "channel": 0
      },
      {
        "type": "note_on",
        "time": 0,
        "note": 52,
        "velocity": 60,
        "channel": 0
      },
      {
        "type": "note_on",
        "time": 0,
        "note": 45,
        "velocity": 60,
        "channel": 0
      },
      {
        "type": "note_on",
        "time": 0,
        "note": 40,
        "velocity": 60,
        "channel": 0
      },
      {
        "type": "note_on",
        "time": 29,
        "note": 64,
        "velocity": 0,
        "channel": 0
      },
      {
        "type": "note_on",
        "time": 0,
        "note": 61,
        "velocity": 0,
        "channel": 0
      },
      {
        "type": "note_on",
        "time": 0,
        "note": 57,
        "velocity": 0,
        "channel": 0
      },
      {
        "type": "note_on",
        "time": 0,
        "note": 52,
        "velocity": 0,
        "channel": 0
      },
      {
        "type": "note_on",
        "time": 0,
        "note": 45,
        "velocity": 0,
        "channel": 0
      },
      {
        "type": "note_on",
        "time": 0,
        "note": 40,
        "velocity": 0,
        "channel": 0
      },
      {
        "type": "note_on",
        "time": 1,
        "note": 64,
        "velocity": 60,
        "channel": 0
      },
      {
        "type": "note_on",
        "time": 0,
        "note": 61,
        "velocity": 60,
        "channel": 0
      },
      {
        "type": "note_on",
        "time": 0,
        "note": 57,
        "velocity": 60,
        "channel": 0
      },
      {
        "type": "note_on",
        "time": 0,
        "note": 52,
        "velocity": 60,
        "channel": 0
      },
      {
        "type": "note_on",
        "time": 0,
        "note": 45,
        "velocity": 60,
        "channel": 0
      },
      {
        "type": "note_on",
        "time": 0,
        "note": 40,
        "velocity": 60,
        "channel": 0
      },
      {
        "type": "note_on",
        "time": 29,
        "note": 64,
        "velocity": 0,
        "channel": 0
      },
      {
        "type": "note_on",
        "time": 0,
        "note": 61,
        "velocity": 0,
        "channel": 0
      },
      {
        "type": "note_on",
        "time": 0,
        "note": 57,
        "velocity": 0,
        "channel": 0
      },
      {
        "type": "note_on",
        "time": 0,
        "note": 52,
        "velocity": 0,
        "channel": 0
      },
      {
        "type": "note_on",
        "time": 0,
        "note": 45,
        "velocity": 0,
        "channel": 0
      },
      {
        "type": "note_on",
        "time": 0,
        "note": 40,
        "velocity": 0,
        "channel": 0
      },
      {
        "type": "note_on",
        "time": 1,
        "note": 64,
        "velocity": 60,
        "channel": 0
      },
      {
        "type": "note_on",
        "time": 0,
        "note": 61,
        "velocity": 60,
        "channel": 0
      },
      {
        "type": "note_on",
        "time": 0,
        "note": 57,
        "velocity": 60,
        "channel": 0
      },
      {
        "type": "note_on",
        "time": 0,
        "note": 52,
        "velocity": 60,
        "channel": 0
      },
      {
        "type": "note_on",
        "time": 0,
        "note": 45,
        "velocity": 60,
        "channel": 0
      },
      {
        "type": "note_on",
        "time": 0,
        "note": 40,
        "velocity": 60,
        "channel": 0
      },
      {
        "type": "note_on",
        "time": 29,
        "note": 64,
        "velocity": 0,
        "channel": 0
      },
      {
        "type": "note_on",
        "time": 0,
        "note": 61,
        "velocity": 0,
        "channel": 0
      },
      {
        "type": "note_on",
        "time": 0,
        "note": 57,
        "velocity": 0,
        "channel": 0
      },
      {
        "type": "note_on",
        "time": 0,
        "note": 52,
        "velocity": 0,
        "channel": 0
      },
      {
        "type": "note_on",
        "time": 0,
        "note": 45,
        "velocity": 0,
        "channel": 0
      },
      {
        "type": "note_on",
        "time": 0,
        "note": 40,
        "velocity": 0,
        "channel": 0
      },
      {
        "type": "note_on",
        "time": 1,
        "note": 64,
        "velocity": 60,
        "channel": 0
      },
      {
        "type": "note_on",
        "time": 0,
        "note": 61,
        "velocity": 60,
        "channel": 0
      },
      {
        "type": "note_on",
        "time": 0,
        "note": 57,
        "velocity": 60,
        "channel": 0
      },
      {
        "type": "note_on",
        "time": 0,
        "note": 52,
        "velocity": 60,
        "channel": 0
      },
      {
        "type": "note_on",
        "time": 0,
        "note": 45,
        "velocity": 60,
        "channel": 0
      },
      {
        "type": "note_on",
        "time": 0,
        "note": 40,
        "velocity": 60,
        "channel": 0
      },
      {
        "type": "note_on",
        "time": 29,
        "note": 64,
        "velocity": 0,
        "channel": 0
      },
      {
        "type": "note_on",
        "time": 0,
        "note": 61,
        "velocity": 0,
        "channel": 0
      },
      {
        "type": "note_on",
        "time": 0,
        "note": 57,
        "velocity": 0,
        "channel": 0
      },
      {
        "type": "note_on",
        "time": 0,
        "note": 52,
        "velocity": 0,
        "channel": 0
      },
      {
        "type": "note_on",
        "time": 0,
        "note": 45,
        "velocity": 0,
        "channel": 0
      },
      {
        "type": "note_on",
        "time": 0,
        "note": 40,
        "velocity": 0,
        "channel": 0
      },
      {
        "type": "note_on",
        "time": 1,
        "note": 64,
        "velocity": 60,
        "channel": 0
      },
      {
        "type": "note_on",
        "time": 0,
        "note": 61,
        "velocity": 60,
        "channel": 0
      },
      {
        "type": "note_on",
        "time": 0,
        "note": 57,
        "velocity": 60,
        "channel": 0
      },
      {
        "type": "note_on",
        "time": 0,
        "note": 52,
        "velocity": 60,
        "channel": 0
      },
      {
        "type": "note_on",
        "time": 0,
        "note": 45,
        "velocity": 60,
        "channel": 0
      },
      {
        "type": "note_on",
        "time": 0,
        "note": 40,
        "velocity": 60,
        "channel": 0
      },
      {
        "type": "note_on",
        "time": 29,
        "note": 64,
        "velocity": 0,
        "channel": 0
      },
      {
        "type": "note_on",
        "time": 0,
        "note": 61,
        "velocity": 0,
        "channel": 0
      },
      {
        "type": "note_on",
        "time": 0,
        "note": 57,
        "velocity": 0,
        "channel": 0
      },
      {
        "type": "note_on",
        "time": 0,
        "note": 52,
        "velocity": 0,
        "channel": 0
      },
      {
        "type": "note_on",
        "time": 0,
        "note": 45,
        "velocity": 0,
        "channel": 0
      },
      {
        "type": "note_on",
        "time": 0,
        "note": 40,
        "velocity": 0,
        "channel": 0
      },
      {
        "type": "note_on",
        "time": 1,
        "note": 64,
        "velocity": 60,
        "channel": 0
      },
      {
        "type": "note_on",
        "time": 0,
        "note": 61,
        "velocity": 60,
        "channel": 0
      },
      {
        "type": "note_on",
        "time": 0,
        "note": 57,
        "velocity": 60,
        "channel": 0
      },
      {
        "type": "note_on",
        "time": 0,
        "note": 52,
        "velocity": 60,
        "channel": 0
      },
      {
        "type": "note_on",
        "time": 0,
        "note": 45,
        "velocity": 60,
        "channel": 0
      },
      {
        "type": "note_on",
        "time": 0,
        "note": 40,
        "velocity": 60,
        "channel": 0
      },
      {
        "type": "note_on",
        "time": 59,
        "note": 64,
        "velocity": 0,
        "channel": 0
      },
      {
        "type": "note_on",
        "time": 0,
        "note": 61,
        "velocity": 0,
        "channel": 0
      },
      {
        "type": "note_on",
        "time": 0,
        "note": 57,
        "velocity": 0,
        "channel": 0
      },
      {
        "type": "note_on",
        "time": 0,
        "note": 52,
        "velocity": 0,
        "channel": 0
      },
      {
        "type": "note_on",
        "time": 0,
        "note": 45,
        "velocity": 0,
        "channel": 0
      },
      {
        "type": "note_on",
        "time": 0,
        "note": 40,
        "velocity": 0,
        "channel": 0
      },
      {
        "type": "note_on",
        "time": 1,
        "note": 64,
        "velocity": 60,
        "channel": 0
      },
      {
        "type": "note_on",
        "time": 0,
        "note": 61,
        "velocity": 60,
        "channel": 0
      },
      {
        "type": "note_on",
        "time": 0,
        "note": 57,
        "velocity": 60,
        "channel": 0
      },
      {
        "type": "note_on",
        "time": 0,
        "note": 52,
        "velocity": 60,
        "channel": 0
      },
      {
        "type": "note_on",
        "time": 0,
        "note": 45,
        "velocity": 60,
        "channel": 0
      },
      {
        "type": "note_on",
        "time": 0,
        "note": 40,
        "velocity": 60,
        "channel": 0
      },
      {
        "type": "note_on",
        "time": 29,
        "note": 64,
        "velocity": 0,
        "channel": 0
      },
      {
        "type": "note_on",
        "time": 0,
        "note": 61,
        "velocity": 0,
        "channel": 0
      },
      {
        "type": "note_on",
        "time": 0,
        "note": 57,
        "velocity": 0,
        "channel": 0
      },
      {
        "type": "note_on",
        "time": 0,
        "note": 52,
        "velocity": 0,
        "channel": 0
      },
      {
        "type": "note_on",
        "time": 0,
        "note": 45,
        "velocity": 0,
        "channel": 0
      },
      {
        "type": "note_on",
        "time": 0,
        "note": 40,
        "velocity": 0,
        "channel": 0
      },
      {
        "type": "note_on",
        "time": 1,
        "note": 64,
        "velocity": 60,
        "channel": 0
      },
      {
        "type": "note_on",
        "time": 0,
        "note": 61,
        "velocity": 60,
        "channel": 0
      },
      {
        "type": "note_on",
        "time": 0,
        "note": 57,
        "velocity": 60,
        "channel": 0
      },
      {
        "type": "note_on",
        "time": 0,
        "note": 52,
        "velocity": 60,
        "channel": 0
      },
      {
        "type": "note_on",
        "time": 0,
        "note": 45,
        "velocity": 60,
        "channel": 0
      },
      {
        "type": "note_on",
        "time": 0,
        "note": 40,
        "velocity": 60,
        "channel": 0
      },
      {
        "type": "note_on",
        "time": 59,
        "note": 64,
        "velocity": 0,
        "channel": 0
      },
      {
        "type": "note_on",
        "time": 0,
        "note": 61,
        "velocity": 0,
        "channel": 0
      },
      {
        "type": "note_on",
        "time": 0,
        "note": 57,
        "velocity": 0,
        "channel": 0
      },
      {
        "type": "note_on",
        "time": 0,
        "note": 52,
        "velocity": 0,
        "channel": 0
      },
      {
        "type": "note_on",
        "time": 0,
        "note": 45,
        "velocity": 0,
        "channel": 0
      },
      {
        "type": "note_on",
        "time": 0,
        "note": 40,
        "velocity": 0,
        "channel": 0
      },
      {
        "type": "note_on",
        "time": 1,
        "note": 40,
        "velocity": 60,
        "channel": 0
      },
      {
        "type": "note_on",
        "time": 0,
        "note": 47,
        "velocity": 60,
        "channel": 0
      },
      {
        "type": "note_on",
        "time": 0,
        "note": 52,
        "velocity": 60,
        "channel": 0
      },
      {
        "type": "note_on",
        "time": 0,
        "note": 56,
        "velocity": 60,
        "channel": 0
      },
      {
        "type": "note_on",
        "time": 0,
        "note": 59,
        "velocity": 60,
        "channel": 0
      },
      {
        "type": "note_on",
        "time": 0,
        "note": 64,
        "velocity": 60,
        "channel": 0
      },
      {
        "type": "note_on",
        "time": 59,
        "note": 40,
        "velocity": 0,
        "channel": 0
      },
      {
        "type": "note_on",
        "time": 0,
        "note": 47,
        "velocity": 0,
        "channel": 0
      },
      {
        "type": "note_on",
        "time": 0,
        "note": 52,
        "velocity": 0,
        "channel": 0
      },
      {
        "type": "note_on",
        "time": 0,
        "note": 56,
        "velocity": 0,
        "channel": 0
      },
      {
        "type": "note_on",
        "time": 0,
        "note": 59,
        "velocity": 0,
        "channel": 0
      },
      {
        "type": "note_on",
        "time": 0,
        "note": 64,
        "velocity": 0,
        "channel": 0
      },
      {
        "type": "note_on",
        "time": 1,
        "note": 64,
        "velocity": 60,
        "channel": 0
      },
      {
        "type": "note_on",
        "time": 0,
        "note": 59,
        "velocity": 60,
        "channel": 0
      },
      {
        "type": "note_on",
        "time": 0,
        "note": 56,
        "velocity": 60,
        "channel": 0
      },
      {
        "type": "note_on",
        "time": 0,
        "note": 52,
        "velocity": 60,
        "channel": 0
      },
      {
        "type": "note_on",
        "time": 0,
        "note": 47,
        "velocity": 60,
        "channel": 0
      },
      {
        "type": "note_on",
        "time": 0,
        "note": 40,
        "velocity": 60,
        "channel": 0
      },
      {
        "type": "note_on",
        "time": 29,
        "note": 64,
        "velocity": 0,
        "channel": 0
      },
      {
        "type": "note_on",
        "time": 0,
        "note": 59,
        "velocity": 0,
        "channel": 0
      },
      {
        "type": "note_on",
        "time": 0,
        "note": 56,
        "velocity": 0,
        "channel": 0
      },
      {
        "type": "note_on",
        "time": 0,
        "note": 52,
        "velocity": 0,
        "channel": 0
      },
      {
        "type": "note_on",
        "time": 0,
        "note": 47,
        "velocity": 0,
        "channel": 0
      },
      {
        "type": "note_on",
        "time": 0,
        "note": 40,
        "velocity": 0,
        "channel": 0
      },
      {
        "type": "note_on",
        "time": 1,
        "note": 64,
        "velocity": 60,
        "channel": 0
      },
      {
        "type": "note_on",
        "time": 0,
        "note": 59,
        "velocity": 60,
        "channel": 0
      },
      {
        "type": "note_on",
        "time": 0,
        "note": 56,
        "velocity": 60,
        "channel": 0
      },
      {
        "type": "note_on",
        "time": 0,
        "note": 52,
        "velocity": 60,
        "channel": 0
      },
      {
        "type": "note_on",
        "time": 0,
        "note": 47,
        "velocity": 60,
        "channel": 0
      },
      {
        "type": "note_on",
        "time": 0,
        "note": 40,
        "velocity": 60,
        "channel": 0
      },
      {
        "type": "note_on",
        "time": 29,
        "note": 64,
        "velocity": 0,
        "channel": 0
      },
      {
        "type": "note_on",
        "time": 0,
        "note": 59,
        "velocity": 0,
        "channel": 0
      },
      {
        "type": "note_on",
        "time": 0,
        "note": 56,
        "velocity": 0,
        "channel": 0
      },
      {
        "type": "note_on",
        "time": 0,
        "note": 52,
        "velocity": 0,
        "channel": 0
      },
      {
        "type": "note_on",
        "time": 0,
        "note": 47,
        "velocity": 0,
        "channel": 0
      },
      {
        "type": "note_on",
        "time": 0,
        "note": 40,
        "velocity": 0,
        "channel": 0
      },
      {
        "type": "note_on",
        "time": 1,
        "note": 64,
        "velocity": 60,
        "channel": 0
      },
      {
        "type": "note_on",
        "time": 0,
        "note": 59,
        "velocity": 60,
        "channel": 0
      },
      {
        "type": "note_on",
        "time": 0,
        "note": 56,
        "velocity": 60,
        "channel": 0
      },
      {
        "type": "note_on",
        "time": 0,
        "note": 52,
        "velocity": 60,
        "channel": 0
      },
      {
        "type": "note_on",
        "time": 0,
        "note": 47,
        "velocity": 60,
        "channel": 0
      },
      {
        "type": "note_on",
        "time": 0,
        "note": 40,
        "velocity": 60,
        "channel": 0
      },
      {
        "type": "note_on",
        "time": 59,
        "note": 64,
        "velocity": 0,
        "channel": 0
      },
      {
        "type": "note_on",
        "time": 0,
        "note": 59,
        "velocity": 0,
        "channel": 0
      },
      {
        "type": "note_on",
        "time": 0,
        "note": 56,
        "velocity": 0,
        "channel": 0
      },
      {
        "type": "note_on",
        "time": 0,
        "note": 52,
        "velocity": 0,
        "channel": 0
      },
      {
        "type": "note_on",
        "time": 0,
        "note": 47,
        "velocity": 0,
        "channel": 0
      },
      {
        "type": "note_on",
        "time": 0,
        "note": 40,
        "velocity": 0,
        "channel": 0
      },
      {
        "type": "note_on",
        "time": 1,
        "note": 64,
        "velocity": 60,
        "channel": 0
      },
      {
        "type": "note_on",
        "time": 0,
        "note": 59,
        "velocity": 60,
        "channel": 0
      },
      {
        "type": "note_on",
        "time": 0,
        "note": 56,
        "velocity": 60,
        "channel": 0
      },
      {
        "type": "note_on",
        "time": 0,
        "note": 52,
        "velocity": 60,
        "channel": 0
      },
      {
        "type": "note_on",
        "time": 0,
        "note": 47,
        "velocity": 60,
        "channel": 0
      },
      {
        "type": "note_on",
        "time": 0,
        "note": 40,
        "velocity": 60,
        "channel": 0
      },
      {
        "type": "note_on",
        "time": 29,
        "note": 64,
        "velocity": 0,
        "channel": 0
      },
      {
        "type": "note_on",
        "time": 0,
        "note": 59,
        "velocity": 0,
        "channel": 0
      },
      {
        "type": "note_on",
        "time": 0,
        "note": 56,
        "velocity": 0,
        "channel": 0
      },
      {
        "type": "note_on",
        "time": 0,
        "note": 52,
        "velocity": 0,
        "channel": 0
      },
      {
        "type": "note_on",
        "time": 0,
        "note": 47,
        "velocity": 0,
        "channel": 0
      },
      {
        "type": "note_on",
        "time": 0,
        "note": 40,
        "velocity": 0,
        "channel": 0
      },
      {
        "type": "note_on",
        "time": 1,
        "note": 64,
        "velocity": 60,
        "channel": 0
      },
      {
        "type": "note_on",
        "time": 0,
        "note": 59,
        "velocity": 60,
        "channel": 0
      },
      {
        "type": "note_on",
        "time": 0,
        "note": 56,
        "velocity": 60,
        "channel": 0
      },
      {
        "type": "note_on",
        "time": 0,
        "note": 52,
        "velocity": 60,
        "channel": 0
      },
      {
        "type": "note_on",
        "time": 0,
        "note": 47,
        "velocity": 60,
        "channel": 0
      },
      {
        "type": "note_on",
        "time": 0,
        "note": 40,
        "velocity": 60,
        "channel": 0
      },
      {
        "type": "note_on",
        "time": 29,
        "note": 64,
        "velocity": 0,
        "channel": 0
      },
      {
        "type": "note_on",
        "time": 0,
        "note": 59,
        "velocity": 0,
        "channel": 0
      },
      {
        "type": "note_on",
        "time": 0,
        "note": 56,
        "velocity": 0,
        "channel": 0
      },
      {
        "type": "note_on",
        "time": 0,
        "note": 52,
        "velocity": 0,
        "channel": 0
      },
      {
        "type": "note_on",
        "time": 0,
        "note": 47,
        "velocity": 0,
        "channel": 0
      },
      {
        "type": "note_on",
        "time": 0,
        "note": 40,
        "velocity": 0,
        "channel": 0
      },
      {
        "type": "note_on",
        "time": 1,
        "note": 64,
        "velocity": 60,
        "channel": 0
      },
      {
        "type": "note_on",
        "time": 0,
        "note": 59,
        "velocity": 60,
        "channel": 0
      },
      {
        "type": "note_on",
        "time": 0,
        "note": 56,
        "velocity": 60,
        "channel": 0
      },
      {
        "type": "note_on",
        "time": 0,
        "note": 52,
        "velocity": 60,
        "channel": 0
      },
      {
        "type": "note_on",
        "time": 0,
        "note": 47,
        "velocity": 60,
        "channel": 0
      },
      {
        "type": "note_on",
        "time": 0,
        "note": 40,
        "velocity": 60,
        "channel": 0
      },
      {
        "type": "note_on",
        "time": 239,
        "note": 64,
        "velocity": 0,
        "channel": 0
      },
      {
        "type": "note_on",
        "time": 0,
        "note": 59,
        "velocity": 0,
        "channel": 0
      },
      {
        "type": "note_on",
        "time": 0,
        "note": 56,
        "velocity": 0,
        "channel": 0
      },
      {
        "type": "note_on",
        "time": 0,
        "note": 52,
        "velocity": 0,
        "channel": 0
      },
      {
        "type": "note_on",
        "time": 0,
        "note": 47,
        "velocity": 0,
        "channel": 0
      },
      {
        "type": "note_on",
        "time": 0,
        "note": 40,
        "velocity": 0,
        "channel": 0
      },
      {
        "type": "note_on",
        "time": 1,
        "note": 43,
        "velocity": 60,
        "channel": 0
      },
      {
        "type": "note_on",
        "time": 0,
        "note": 50,
        "velocity": 60,
        "channel": 0
      },
      {
        "type": "note_on",
        "time": 0,
        "note": 55,
        "velocity": 60,
        "channel": 0
      },
      {
        "type": "note_on",
        "time": 0,
        "note": 59,
        "velocity": 60,
        "channel": 0
      },
      {
        "type": "note_on",
        "time": 0,
        "note": 62,
        "velocity": 60,
        "channel": 0
      },
      {
        "type": "note_on",
        "time": 0,
        "note": 67,
        "velocity": 60,
        "channel": 0
      },
      {
        "type": "note_on",
        "time": 59,
        "note": 43,
        "velocity": 0,
        "channel": 0
      },
      {
        "type": "note_on",
        "time": 0,
        "note": 50,
        "velocity": 0,
        "channel": 0
      },
      {
        "type": "note_on",
        "time": 0,
        "note": 55,
        "velocity": 0,
        "channel": 0
      },
      {
        "type": "note_on",
        "time": 0,
        "note": 59,
        "velocity": 0,
        "channel": 0
      },
      {
        "type": "note_on",
        "time": 0,
        "note": 62,
        "velocity": 0,
        "channel": 0
      },
      {
        "type": "note_on",
        "time": 0,
        "note": 67,
        "velocity": 0,
        "channel": 0
      },
      {
        "type": "note_on",
        "time": 1,
        "note": 67,
        "velocity": 60,
        "channel": 0
      },
      {
        "type": "note_on",
        "time": 0,
        "note": 62,
        "velocity": 60,
        "channel": 0
      },
      {
        "type": "note_on",
        "time": 0,
        "note": 59,
        "velocity": 60,
        "channel": 0
      },
      {
        "type": "note_on",
        "time": 0,
        "note": 55,
        "velocity": 60,
        "channel": 0
      },
      {
        "type": "note_on",
        "time": 0,
        "note": 50,
        "velocity": 60,
        "channel": 0
      },
      {
        "type": "note_on",
        "time": 0,
        "note": 43,
        "velocity": 60,
        "channel": 0
      },
      {
        "type": "note_on",
        "time": 29,
        "note": 67,
        "velocity": 0,
        "channel": 0
      },
      {
        "type": "note_on",
        "time": 0,
        "note": 62,
        "velocity": 0,
        "channel": 0
      },
      {
        "type": "note_on",
        "time": 0,
        "note": 59,
        "velocity": 0,
        "channel": 0
      },
      {
        "type": "note_on",
        "time": 0,
        "note": 55,
        "velocity": 0,
        "channel": 0
      },
      {
        "type": "note_on",
        "time": 0,
        "note": 50,
        "velocity": 0,
        "channel": 0
      },
      {
        "type": "note_on",
        "time": 0,
        "note": 43,
        "velocity": 0,
        "channel": 0
      },
      {
        "type": "note_on",
        "time": 1,
        "note": 67,
        "velocity": 60,
        "channel": 0
      },
      {
        "type": "note_on",
        "time": 0,
        "note": 62,
        "velocity": 60,
        "channel": 0
      },
      {
        "type": "note_on",
        "time": 0,
        "note": 59,
        "velocity": 60,
        "channel": 0
      },
      {
        "type": "note_on",
        "time": 0,
        "note": 55,
        "velocity": 60,
        "channel": 0
      },
      {
        "type": "note_on",
        "time": 0,
        "note": 50,
        "velocity": 60,
        "channel": 0
      },
      {
        "type": "note_on",
        "time": 0,
        "note": 43,
        "velocity": 60,
        "channel": 0
      },
      {
        "type": "note_on",
        "time": 29,
        "note": 67,
        "velocity": 0,
        "channel": 0
      },
      {
        "type": "note_on",
        "time": 0,
        "note": 62,
        "velocity": 0,
        "channel": 0
      },
      {
        "type": "note_on",
        "time": 0,
        "note": 59,
        "velocity": 0,
        "channel": 0
      },
      {
        "type": "note_on",
        "time": 0,
        "note": 55,
        "velocity": 0,
        "channel": 0
      },
      {
        "type": "note_on",
        "time": 0,
        "note": 50,
        "velocity": 0,
        "channel": 0
      },
      {
        "type": "note_on",
        "time": 0,
        "note": 43,
        "velocity": 0,
        "channel": 0
      },
      {
        "type": "note_on",
        "time": 1,
        "note": 67,
        "velocity": 60,
        "channel": 0
      },
      {
        "type": "note_on",
        "time": 0,
        "note": 62,
        "velocity": 60,
        "channel": 0
      },
      {
        "type": "note_on",
        "time": 0,
        "note": 59,
        "velocity": 60,
        "channel": 0
      },
      {
        "type": "note_on",
        "time": 0,
        "note": 55,
        "velocity": 60,
        "channel": 0
      },
      {
        "type": "note_on",
        "time": 0,
        "note": 50,
        "velocity": 60,
        "channel": 0
      },
      {
        "type": "note_on",
        "time": 0,
        "note": 43,
        "velocity": 60,
        "channel": 0
      },
      {
        "type": "note_on",
        "time": 59,
        "note": 67,
        "velocity": 0,
        "channel": 0
      },
      {
        "type": "note_on",
        "time": 0,
        "note": 62,
        "velocity": 0,
        "channel": 0
      },
      {
        "type": "note_on",
        "time": 0,
        "note": 59,
        "velocity": 0,
        "channel": 0
      },
      {
        "type": "note_on",
        "time": 0,
        "note": 55,
        "velocity": 0,
        "channel": 0
      },
      {
        "type": "note_on",
        "time": 0,
        "note": 50,
        "velocity": 0,
        "channel": 0
      },
      {
        "type": "note_on",
        "time": 0,
        "note": 43,
        "velocity": 0,
        "channel": 0
      },
      {
        "type": "note_on",
        "time": 1,
        "note": 67,
        "velocity": 60,
        "channel": 0
      },
      {
        "type": "note_on",
        "time": 0,
        "note": 62,
        "velocity": 60,
        "channel": 0
      },
      {
        "type": "note_on",
        "time": 0,
        "note": 59,
        "velocity": 60,
        "channel": 0
      },
      {
        "type": "note_on",
        "time": 0,
        "note": 55,
        "velocity": 60,
        "channel": 0
      },
      {
        "type": "note_on",
        "time": 0,
        "note": 50,
        "velocity": 60,
        "channel": 0
      },
      {
        "type": "note_on",
        "time": 0,
        "note": 43,
        "velocity": 60,
        "channel": 0
      },
      {
        "type": "note_on",
        "time": 29,
        "note": 67,
        "velocity": 0,
        "channel": 0
      },
      {
        "type": "note_on",
        "time": 0,
        "note": 62,
        "velocity": 0,
        "channel": 0
      },
      {
        "type": "note_on",
        "time": 0,
        "note": 59,
        "velocity": 0,
        "channel": 0
      },
      {
        "type": "note_on",
        "time": 0,
        "note": 55,
        "velocity": 0,
        "channel": 0
      },
      {
        "type": "note_on",
        "time": 0,
        "note": 50,
        "velocity": 0,
        "channel": 0
      },
      {
        "type": "note_on",
        "time": 0,
        "note": 43,
        "velocity": 0,
        "channel": 0
      },
      {
        "type": "note_on",
        "time": 1,
        "note": 67,
        "velocity": 60,
        "channel": 0
      },
      {
        "type": "note_on",
        "time": 0,
        "note": 62,
        "velocity": 60,
        "channel": 0
      },
      {
        "type": "note_on",
        "time": 0,
        "note": 59,
        "velocity": 60,
        "channel": 0
      },
      {
        "type": "note_on",
        "time": 0,
        "note": 55,
        "velocity": 60,
        "channel": 0
      },
      {
        "type": "note_on",
        "time": 0,
        "note": 50,
        "velocity": 60,
        "channel": 0
      },
      {
        "type": "note_on",
        "time": 0,
        "note": 43,
        "velocity": 60,
        "channel": 0
      },
      {
        "type": "note_on",
        "time": 29,
        "note": 67,
        "velocity": 0,
        "channel": 0
      },
      {
        "type": "note_on",
        "time": 0,
        "note": 62,
        "velocity": 0,
        "channel": 0
      },
      {
        "type": "note_on",
        "time": 0,
        "note": 59,
        "velocity": 0,
        "channel": 0
      },
      {
        "type": "note_on",
        "time": 0,
        "note": 55,
        "velocity": 0,
        "channel": 0
      },
      {
        "type": "note_on",
        "time": 0,
        "note": 50,
        "velocity": 0,
        "channel": 0
      },
      {
        "type": "note_on",
        "time": 0,
        "note": 43,
        "velocity": 0,
        "channel": 0
      },
      {
        "type": "note_on",
        "time": 1,
        "note": 67,
        "velocity": 60,
        "channel": 0
      },
      {
        "type": "note_on",
        "time": 0,
        "note": 62,
        "velocity": 60,
        "channel": 0
      },
      {
        "type": "note_on",
        "time": 0,
        "note": 59,
        "velocity": 60,
        "channel": 0
      },
      {
        "type": "note_on",
        "time": 0,
        "note": 55,
        "velocity": 60,
        "channel": 0
      },
      {
        "type": "note_on",
        "time": 0,
        "note": 50,
        "velocity": 60,
        "channel": 0
      },
      {
        "type": "note_on",
        "time": 0,
        "note": 43,
        "velocity": 60,
        "channel": 0
      },
      {
        "type": "note_on",
        "time": 29,
        "note": 67,
        "velocity": 0,
        "channel": 0
      },
      {
        "type": "note_on",
        "time": 0,
        "note": 62,
        "velocity": 0,
        "channel": 0
      },
      {
        "type": "note_on",
        "time": 0,
        "note": 59,
        "velocity": 0,
        "channel": 0
      },
      {
        "type": "note_on",
        "time": 0,
        "note": 55,
        "velocity": 0,
        "channel": 0
      },
      {
        "type": "note_on",
        "time": 0,
        "note": 50,
        "velocity": 0,
        "channel": 0
      },
      {
        "type": "note_on",
        "time": 0,
        "note": 43,
        "velocity": 0,
        "channel": 0
      },
      {
        "type": "note_on",
        "time": 1,
        "note": 67,
        "velocity": 60,
        "channel": 0
      },
      {
        "type": "note_on",
        "time": 0,
        "note": 62,
        "velocity": 60,
        "channel": 0
      },
      {
        "type": "note_on",
        "time": 0,
        "note": 59,
        "velocity": 60,
        "channel": 0
      },
      {
        "type": "note_on",
        "time": 0,
        "note": 55,
        "velocity": 60,
        "channel": 0
      },
      {
        "type": "note_on",
        "time": 0,
        "note": 50,
        "velocity": 60,
        "channel": 0
      },
      {
        "type": "note_on",
        "time": 0,
        "note": 43,
        "velocity": 60,
        "channel": 0
      },
      {
        "type": "note_on",
        "time": 29,
        "note": 67,
        "velocity": 0,
        "channel": 0
      },
      {
        "type": "note_on",
        "time": 0,
        "note": 62,
        "velocity": 0,
        "channel": 0
      },
      {
        "type": "note_on",
        "time": 0,
        "note": 59,
        "velocity": 0,
        "channel": 0
      },
      {
        "type": "note_on",
        "time": 0,
        "note": 55,
        "velocity": 0,
        "channel": 0
      },
      {
        "type": "note_on",
        "time": 0,
        "note": 50,
        "velocity": 0,
        "channel": 0
      },
      {
        "type": "note_on",
        "time": 0,
        "note": 43,
        "velocity": 0,
        "channel": 0
      },
      {
        "type": "note_on",
        "time": 1,
        "note": 67,
        "velocity": 60,
        "channel": 0
      },
      {
        "type": "note_on",
        "time": 0,
        "note": 62,
        "velocity": 60,
        "channel": 0
      },
      {
        "type": "note_on",
        "time": 0,
        "note": 59,
        "velocity": 60,
        "channel": 0
      },
      {
        "type": "note_on",
        "time": 0,
        "note": 55,
        "velocity": 60,
        "channel": 0
      },
      {
        "type": "note_on",
        "time": 0,
        "note": 50,
        "velocity": 60,
        "channel": 0
      },
      {
        "type": "note_on",
        "time": 0,
        "note": 43,
        "velocity": 60,
        "channel": 0
      },
      {
        "type": "note_on",
        "time": 29,
        "note": 67,
        "velocity": 0,
        "channel": 0
      },
      {
        "type": "note_on",
        "time": 0,
        "note": 62,
        "velocity": 0,
        "channel": 0
      },
      {
        "type": "note_on",
        "time": 0,
        "note": 59,
        "velocity": 0,
        "channel": 0
      },
      {
        "type": "note_on",
        "time": 0,
        "note": 55,
        "velocity": 0,
        "channel": 0
      },
      {
        "type": "note_on",
        "time": 0,
        "note": 50,
        "velocity": 0,
        "channel": 0
      },
      {
        "type": "note_on",
        "time": 0,
        "note": 43,
        "velocity": 0,
        "channel": 0
      },
      {
        "type": "note_on",
        "time": 1,
        "note": 67,
        "velocity": 60,
        "channel": 0
      },
      {
        "type": "note_on",
        "time": 0,
        "note": 62,
        "velocity": 60,
        "channel": 0
      },
      {
        "type": "note_on",
        "time": 0,
        "note": 59,
        "velocity": 60,
        "channel": 0
      },
      {
        "type": "note_on",
        "time": 0,
        "note": 55,
        "velocity": 60,
        "channel": 0
      },
      {
        "type": "note_on",
        "time": 0,
        "note": 50,
        "velocity": 60,
        "channel": 0
      },
      {
        "type": "note_on",
        "time": 0,
        "note": 43,
        "velocity": 60,
        "channel": 0
      },
      {
        "type": "note_on",
        "time": 59,
        "note": 67,
        "velocity": 0,
        "channel": 0
      },
      {
        "type": "note_on",
        "time": 0,
        "note": 62,
        "velocity": 0,
        "channel": 0
      },
      {
        "type": "note_on",
        "time": 0,
        "note": 59,
        "velocity": 0,
        "channel": 0
      },
      {
        "type": "note_on",
        "time": 0,
        "note": 55,
        "velocity": 0,
        "channel": 0
      },
      {
        "type": "note_on",
        "time": 0,
        "note": 50,
        "velocity": 0,
        "channel": 0
      },
      {
        "type": "note_on",
        "time": 0,
        "note": 43,
        "velocity": 0,
        "channel": 0
      },
      {
        "type": "note_on",
        "time": 1,
        "note": 67,
        "velocity": 60,
        "channel": 0
      },
      {
        "type": "note_on",
        "time": 0,
        "note": 62,
        "velocity": 60,
        "channel": 0
      },
      {
        "type": "note_on",
        "time": 0,
        "note": 59,
        "velocity": 60,
        "channel": 0
      },
      {
        "type": "note_on",
        "time": 0,
        "note": 55,
        "velocity": 60,
        "channel": 0
      },
      {
        "type": "note_on",
        "time": 0,
        "note": 50,
        "velocity": 60,
        "channel": 0
      },
      {
        "type": "note_on",
        "time": 0,
        "note": 43,
        "velocity": 60,
        "channel": 0
      },
      {
        "type": "note_on",
        "time": 29,
        "note": 67,
        "velocity": 0,
        "channel": 0
      },
      {
        "type": "note_on",
        "time": 0,
        "note": 62,
        "velocity": 0,
        "channel": 0
      },
      {
        "type": "note_on",
        "time": 0,
        "note": 59,
        "velocity": 0,
        "channel": 0
      },
      {
        "type": "note_on",
        "time": 0,
        "note": 55,
        "velocity": 0,
        "channel": 0
      },
      {
        "type": "note_on",
        "time": 0,
        "note": 50,
        "velocity": 0,
        "channel": 0
      },
      {
        "type": "note_on",
        "time": 0,
        "note": 43,
        "velocity": 0,
        "channel": 0
      },
      {
        "type": "note_on",
        "time": 1,
        "note": 67,
        "velocity": 60,
        "channel": 0
      },
      {
        "type": "note_on",
        "time": 0,
        "note": 62,
        "velocity": 60,
        "channel": 0
      },
      {
        "type": "note_on",
        "time": 0,
        "note": 59,
        "velocity": 60,
        "channel": 0
      },
      {
        "type": "note_on",
        "time": 0,
        "note": 55,
        "velocity": 60,
        "channel": 0
      },
      {
        "type": "note_on",
        "time": 0,
        "note": 50,
        "velocity": 60,
        "channel": 0
      },
      {
        "type": "note_on",
        "time": 0,
        "note": 43,
        "velocity": 60,
        "channel": 0
      },
      {
        "type": "note_on",
        "time": 59,
        "note": 67,
        "velocity": 0,
        "channel": 0
      },
      {
        "type": "note_on",
        "time": 0,
        "note": 62,
        "velocity": 0,
        "channel": 0
      },
      {
        "type": "note_on",
        "time": 0,
        "note": 59,
        "velocity": 0,
        "channel": 0
      },
      {
        "type": "note_on",
        "time": 0,
        "note": 55,
        "velocity": 0,
        "channel": 0
      },
      {
        "type": "note_on",
        "time": 0,
        "note": 50,
        "velocity": 0,
        "channel": 0
      },
      {
        "type": "note_on",
        "time": 0,
        "note": 43,
        "velocity": 0,
        "channel": 0
      },
      {
        "type": "note_on",
        "time": 1,
        "note": 45,
        "velocity": 60,
        "channel": 0
      },
      {
        "type": "note_on",
        "time": 0,
        "note": 50,
        "velocity": 60,
        "channel": 0
      },
      {
        "type": "note_on",
        "time": 0,
        "note": 57,
        "velocity": 60,
        "channel": 0
      },
      {
        "type": "note_on",
        "time": 0,
        "note": 62,
        "velocity": 60,
        "channel": 0
      },
      {
        "type": "note_on",
        "time": 0,
        "note": 66,
        "velocity": 60,
        "channel": 0
      },
      {
        "type": "note_on",
        "time": 0,
        "note": 69,
        "velocity": 60,
        "channel": 0
      },
      {
        "type": "note_on",
        "time": 59,
        "note": 45,
        "velocity": 0,
        "channel": 0
      },
      {
        "type": "note_on",
        "time": 0,
        "note": 50,
        "velocity": 0,
        "channel": 0
      },
      {
        "type": "note_on",
        "time": 0,
        "note": 57,
        "velocity": 0,
        "channel": 0
      },
      {
        "type": "note_on",
        "time": 0,
        "note": 62,
        "velocity": 0,
        "channel": 0
      },
      {
        "type": "note_on",
        "time": 0,
        "note": 66,
        "velocity": 0,
        "channel": 0
      },
      {
        "type": "note_on",
        "time": 0,
        "note": 69,
        "velocity": 0,
        "channel": 0
      },
      {
        "type": "note_on",
        "time": 1,
        "note": 69,
        "velocity": 60,
        "channel": 0
      },
      {
        "type": "note_on",
        "time": 0,
        "note": 66,
        "velocity": 60,
        "channel": 0
      },
      {
        "type": "note_on",
        "time": 0,
        "note": 62,
        "velocity": 60,
        "channel": 0
      },
      {
        "type": "note_on",
        "time": 0,
        "note": 57,
        "velocity": 60,
        "channel": 0
      },
      {
        "type": "note_on",
        "time": 0,
        "note": 50,
        "velocity": 60,
        "channel": 0
      },
      {
        "type": "note_on",
        "time": 0,
        "note": 45,
        "velocity": 60,
        "channel": 0
      },
      {
        "type": "note_on",
        "time": 29,
        "note": 69,
        "velocity": 0,
        "channel": 0
      },
      {
        "type": "note_on",
        "time": 0,
        "note": 66,
        "velocity": 0,
        "channel": 0
      },
      {
        "type": "note_on",
        "time": 0,
        "note": 62,
        "velocity": 0,
        "channel": 0
      },
      {
        "type": "note_on",
        "time": 0,
        "note": 57,
        "velocity": 0,
        "channel": 0
      },
      {
        "type": "note_on",
        "time": 0,
        "note": 50,
        "velocity": 0,
        "channel": 0
      },
      {
        "type": "note_on",
        "time": 0,
        "note": 45,
        "velocity": 0,
        "channel": 0
      },
      {
        "type": "note_on",
        "time": 1,
        "note": 69,
        "velocity": 60,
        "channel": 0
      },
      {
        "type": "note_on",
        "time": 0,
        "note": 66,
        "velocity": 60,
        "channel": 0
      },
      {
        "type": "note_on",
        "time": 0,
        "note": 62,
        "velocity": 60,
        "channel": 0
      },
      {
        "type": "note_on",
        "time": 0,
        "note": 57,
        "velocity": 60,
        "channel": 0
      },
      {
        "type": "note_on",
        "time": 0,
        "note": 50,
        "velocity": 60,
        "channel": 0
      },
      {
        "type": "note_on",
        "time": 0,
        "note": 45,
        "velocity": 60,
        "channel": 0
      },
      {
        "type": "note_on",
        "time": 29,
        "note": 69,
        "velocity": 0,
        "channel": 0
      },
      {
        "type": "note_on",
        "time": 0,
        "note": 66,
        "velocity": 0,
        "channel": 0
      },
      {
        "type": "note_on",
        "time": 0,
        "note": 62,
        "velocity": 0,
        "channel": 0
      },
      {
        "type": "note_on",
        "time": 0,
        "note": 57,
        "velocity": 0,
        "channel": 0
      },
      {
        "type": "note_on",
        "time": 0,
        "note": 50,
        "velocity": 0,
        "channel": 0
      },
      {
        "type": "note_on",
        "time": 0,
        "note": 45,
        "velocity": 0,
        "channel": 0
      },
      {
        "type": "note_on",
        "time": 1,
        "note": 69,
        "velocity": 60,
        "channel": 0
      },
      {
        "type": "note_on",
        "time": 0,
        "note": 66,
        "velocity": 60,
        "channel": 0
      },
      {
        "type": "note_on",
        "time": 0,
        "note": 62,
        "velocity": 60,
        "channel": 0
      },
      {
        "type": "note_on",
        "time": 0,
        "note": 57,
        "velocity": 60,
        "channel": 0
      },
      {
        "type": "note_on",
        "time": 0,
        "note": 50,
        "velocity": 60,
        "channel": 0
      },
      {
        "type": "note_on",
        "time": 0,
        "note": 45,
        "velocity": 60,
        "channel": 0
      },
      {
        "type": "note_on",
        "time": 29,
        "note": 69,
        "velocity": 0,
        "channel": 0
      },
      {
        "type": "note_on",
        "time": 0,
        "note": 66,
        "velocity": 0,
        "channel": 0
      },
      {
        "type": "note_on",
        "time": 0,
        "note": 62,
        "velocity": 0,
        "channel": 0
      },
      {
        "type": "note_on",
        "time": 0,
        "note": 57,
        "velocity": 0,
        "channel": 0
      },
      {
        "type": "note_on",
        "time": 0,
        "note": 50,
        "velocity": 0,
        "channel": 0
      },
      {
        "type": "note_on",
        "time": 0,
        "note": 45,
        "velocity": 0,
        "channel": 0
      },
      {
        "type": "note_on",
        "time": 1,
        "note": 69,
        "velocity": 60,
        "channel": 0
      },
      {
        "type": "note_on",
        "time": 0,
        "note": 66,
        "velocity": 60,
        "channel": 0
      },
      {
        "type": "note_on",
        "time": 0,
        "note": 62,
        "velocity": 60,
        "channel": 0
      },
      {
        "type": "note_on",
        "time": 0,
        "note": 57,
        "velocity": 60,
        "channel": 0
      },
      {
        "type": "note_on",
        "time": 0,
        "note": 50,
        "velocity": 60,
        "channel": 0
      },
      {
        "type": "note_on",
        "time": 0,
        "note": 45,
        "velocity": 60,
        "channel": 0
      },
      {
        "type": "note_on",
        "time": 59,
        "note": 69,
        "velocity": 0,
        "channel": 0
      },
      {
        "type": "note_on",
        "time": 0,
        "note": 66,
        "velocity": 0,
        "channel": 0
      },
      {
        "type": "note_on",
        "time": 0,
        "note": 62,
        "velocity": 0,
        "channel": 0
      },
      {
        "type": "note_on",
        "time": 0,
        "note": 57,
        "velocity": 0,
        "channel": 0
      },
      {
        "type": "note_on",
        "time": 0,
        "note": 50,
        "velocity": 0,
        "channel": 0
      },
      {
        "type": "note_on",
        "time": 0,
        "note": 45,
        "velocity": 0,
        "channel": 0
      },
      {
        "type": "note_on",
        "time": 1,
        "note": 69,
        "velocity": 60,
        "channel": 0
      },
      {
        "type": "note_on",
        "time": 0,
        "note": 66,
        "velocity": 60,
        "channel": 0
      },
      {
        "type": "note_on",
        "time": 0,
        "note": 62,
        "velocity": 60,
        "channel": 0
      },
      {
        "type": "note_on",
        "time": 0,
        "note": 57,
        "velocity": 60,
        "channel": 0
      },
      {
        "type": "note_on",
        "time": 0,
        "note": 50,
        "velocity": 60,
        "channel": 0
      },
      {
        "type": "note_on",
        "time": 0,
        "note": 45,
        "velocity": 60,
        "channel": 0
      },
      {
        "type": "note_on",
        "time": 29,
        "note": 69,
        "velocity": 0,
        "channel": 0
      },
      {
        "type": "note_on",
        "time": 0,
        "note": 66,
        "velocity": 0,
        "channel": 0
      },
      {
        "type": "note_on",
        "time": 0,
        "note": 62,
        "velocity": 0,
        "channel": 0
      },
      {
        "type": "note_on",
        "time": 0,
        "note": 57,
        "velocity": 0,
        "channel": 0
      },
      {
        "type": "note_on",
        "time": 0,
        "note": 50,
        "velocity": 0,
        "channel": 0
      },
      {
        "type": "note_on",
        "time": 0,
        "note": 45,
        "velocity": 0,
        "channel": 0
      },
      {
        "type": "note_on",
        "time": 1,
        "note": 69,
        "velocity": 60,
        "channel": 0
      },
      {
        "type": "note_on",
        "time": 0,
        "note": 66,
        "velocity": 60,
        "channel": 0
      },
      {
        "type": "note_on",
        "time": 0,
        "note": 62,
        "velocity": 60,
        "channel": 0
      },
      {
        "type": "note_on",
        "time": 0,
        "note": 57,
        "velocity": 60,
        "channel": 0
      },
      {
        "type": "note_on",
        "time": 0,
        "note": 50,
        "velocity": 60,
        "channel": 0
      },
      {
        "type": "note_on",
        "time": 0,
        "note": 45,
        "velocity": 60,
        "channel": 0
      },
      {
        "type": "note_on",
        "time": 239,
        "note": 69,
        "velocity": 0,
        "channel": 0
      },
      {
        "type": "note_on",
        "time": 0,
        "note": 66,
        "velocity": 0,
        "channel": 0
      },
      {
        "type": "note_on",
        "time": 0,
        "note": 62,
        "velocity": 0,
        "channel": 0
      },
      {
        "type": "note_on",
        "time": 0,
        "note": 57,
        "velocity": 0,
        "channel": 0
      },
      {
        "type": "note_on",
        "time": 0,
        "note": 50,
        "velocity": 0,
        "channel": 0
      },
      {
        "type": "note_on",
        "time": 0,
        "note": 45,
        "velocity": 0,
        "channel": 0
      },
      {
        "type": "note_on",
        "time": 1,
        "note": 40,
        "velocity": 60,
        "channel": 0
      },
      {
        "type": "note_on",
        "time": 0,
        "note": 47,
        "velocity": 60,
        "channel": 0
      },
      {
        "type": "note_on",
        "time": 0,
        "note": 52,
        "velocity": 60,
        "channel": 0
      },
      {
        "type": "note_on",
        "time": 0,
        "note": 55,
        "velocity": 60,
        "channel": 0
      },
      {
        "type": "note_on",
        "time": 0,
        "note": 59,
        "velocity": 60,
        "channel": 0
      },
      {
        "type": "note_on",
        "time": 0,
        "note": 64,
        "velocity": 60,
        "channel": 0
      },
      {
        "type": "note_on",
        "time": 59,
        "note": 40,
        "velocity": 0,
        "channel": 0
      },
      {
        "type": "note_on",
        "time": 0,
        "note": 47,
        "velocity": 0,
        "channel": 0
      },
      {
        "type": "note_on",
        "time": 0,
        "note": 52,
        "velocity": 0,
        "channel": 0
      },
      {
        "type": "note_on",
        "time": 0,
        "note": 55,
        "velocity": 0,
        "channel": 0
      },
      {
        "type": "note_on",
        "time": 0,
        "note": 59,
        "velocity": 0,
        "channel": 0
      },
      {
        "type": "note_on",
        "time": 0,
        "note": 64,
        "velocity": 0,
        "channel": 0
      },
      {
        "type": "note_on",
        "time": 1,
        "note": 64,
        "velocity": 60,
        "channel": 0
      },
      {
        "type": "note_on",
        "time": 0,
        "note": 59,
        "velocity": 60,
        "channel": 0
      },
      {
        "type": "note_on",
        "time": 0,
        "note": 55,
        "velocity": 60,
        "channel": 0
      },
      {
        "type": "note_on",
        "time": 0,
        "note": 52,
        "velocity": 60,
        "channel": 0
      },
      {
        "type": "note_on",
        "time": 0,
        "note": 47,
        "velocity": 60,
        "channel": 0
      },
      {
        "type": "note_on",
        "time": 0,
        "note": 40,
        "velocity": 60,
        "channel": 0
      },
      {
        "type": "note_on",
        "time": 29,
        "note": 64,
        "velocity": 0,
        "channel": 0
      },
      {
        "type": "note_on",
        "time": 0,
        "note": 59,
        "velocity": 0,
        "channel": 0
      },
      {
        "type": "note_on",
        "time": 0,
        "note": 55,
        "velocity": 0,
        "channel": 0
      },
      {
        "type": "note_on",
        "time": 0,
        "note": 52,
        "velocity": 0,
        "channel": 0
      },
      {
        "type": "note_on",
        "time": 0,
        "note": 47,
        "velocity": 0,
        "channel": 0
      },
      {
        "type": "note_on",
        "time": 0,
        "note": 40,
        "velocity": 0,
        "channel": 0
      },
      {
        "type": "note_on",
        "time": 1,
        "note": 64,
        "velocity": 60,
        "channel": 0
      },
      {
        "type": "note_on",
        "time": 0,
        "note": 59,
        "velocity": 60,
        "channel": 0
      },
      {
        "type": "note_on",
        "time": 0,
        "note": 55,
        "velocity": 60,
        "channel": 0
      },
      {
        "type": "note_on",
        "time": 0,
        "note": 52,
        "velocity": 60,
        "channel": 0
      },
      {
        "type": "note_on",
        "time": 0,
        "note": 47,
        "velocity": 60,
        "channel": 0
      },
      {
        "type": "note_on",
        "time": 0,
        "note": 40,
        "velocity": 60,
        "channel": 0
      },
      {
        "type": "note_on",
        "time": 29,
        "note": 64,
        "velocity": 0,
        "channel": 0
      },
      {
        "type": "note_on",
        "time": 0,
        "note": 59,
        "velocity": 0,
        "channel": 0
      },
      {
        "type": "note_on",
        "time": 0,
        "note": 55,
        "velocity": 0,
        "channel": 0
      },
      {
        "type": "note_on",
        "time": 0,
        "note": 52,
        "velocity": 0,
        "channel": 0
      },
      {
        "type": "note_on",
        "time": 0,
        "note": 47,
        "velocity": 0,
        "channel": 0
      },
      {
        "type": "note_on",
        "time": 0,
        "note": 40,
        "velocity": 0,
        "channel": 0
      },
      {
        "type": "note_on",
        "time": 1,
        "note": 64,
        "velocity": 60,
        "channel": 0
      },
      {
        "type": "note_on",
        "time": 0,
        "note": 59,
        "velocity": 60,
        "channel": 0
      },
      {
        "type": "note_on",
        "time": 0,
        "note": 55,
        "velocity": 60,
        "channel": 0
      },
      {
        "type": "note_on",
        "time": 0,
        "note": 52,
        "velocity": 60,
        "channel": 0
      },
      {
        "type": "note_on",
        "time": 0,
        "note": 47,
        "velocity": 60,
        "channel": 0
      },
      {
        "type": "note_on",
        "time": 0,
        "note": 40,
        "velocity": 60,
        "channel": 0
      },
      {
        "type": "note_on",
        "time": 29,
        "note": 64,
        "velocity": 0,
        "channel": 0
      },
      {
        "type": "note_on",
        "time": 0,
        "note": 59,
        "velocity": 0,
        "channel": 0
      },
      {
        "type": "note_on",
        "time": 0,
        "note": 55,
        "velocity": 0,
        "channel": 0
      },
      {
        "type": "note_on",
        "time": 0,
        "note": 52,
        "velocity": 0,
        "channel": 0
      },
      {
        "type": "note_on",
        "time": 0,
        "note": 47,
        "velocity": 0,
        "channel": 0
      },
      {
        "type": "note_on",
        "time": 0,
        "note": 40,
        "velocity": 0,
        "channel": 0
      },
      {
        "type": "note_on",
        "time": 1,
        "note": 64,
        "velocity": 60,
        "channel": 0
      },
      {
        "type": "note_on",
        "time": 0,
        "note": 59,
        "velocity": 60,
        "channel": 0
      },
      {
        "type": "note_on",
        "time": 0,
        "note": 55,
        "velocity": 60,
        "channel": 0
      },
      {
        "type": "note_on",
        "time": 0,
        "note": 52,
        "velocity": 60,
        "channel": 0
      },
      {
        "type": "note_on",
        "time": 0,
        "note": 47,
        "velocity": 60,
        "channel": 0
      },
      {
        "type": "note_on",
        "time": 0,
        "note": 40,
        "velocity": 60,
        "channel": 0
      },
      {
        "type": "note_on",
        "time": 29,
        "note": 64,
        "velocity": 0,
        "channel": 0
      },
      {
        "type": "note_on",
        "time": 0,
        "note": 59,
        "velocity": 0,
        "channel": 0
      },
      {
        "type": "note_on",
        "time": 0,
        "note": 55,
        "velocity": 0,
        "channel": 0
      },
      {
        "type": "note_on",
        "time": 0,
        "note": 52,
        "velocity": 0,
        "channel": 0
      },
      {
        "type": "note_on",
        "time": 0,
        "note": 47,
        "velocity": 0,
        "channel": 0
      },
      {
        "type": "note_on",
        "time": 0,
        "note": 40,
        "velocity": 0,
        "channel": 0
      },
      {
        "type": "note_on",
        "time": 1,
        "note": 64,
        "velocity": 60,
        "channel": 0
      },
      {
        "type": "note_on",
        "time": 0,
        "note": 59,
        "velocity": 60,
        "channel": 0
      },
      {
        "type": "note_on",
        "time": 0,
        "note": 55,
        "velocity": 60,
        "channel": 0
      },
      {
        "type": "note_on",
        "time": 0,
        "note": 52,
        "velocity": 60,
        "channel": 0
      },
      {
        "type": "note_on",
        "time": 0,
        "note": 47,
        "velocity": 60,
        "channel": 0
      },
      {
        "type": "note_on",
        "time": 0,
        "note": 40,
        "velocity": 60,
        "channel": 0
      },
      {
        "type": "note_on",
        "time": 59,
        "note": 64,
        "velocity": 0,
        "channel": 0
      },
      {
        "type": "note_on",
        "time": 0,
        "note": 59,
        "velocity": 0,
        "channel": 0
      },
      {
        "type": "note_on",
        "time": 0,
        "note": 55,
        "velocity": 0,
        "channel": 0
      },
      {
        "type": "note_on",
        "time": 0,
        "note": 52,
        "velocity": 0,
        "channel": 0
      },
      {
        "type": "note_on",
        "time": 0,
        "note": 47,
        "velocity": 0,
        "channel": 0
      },
      {
        "type": "note_on",
        "time": 0,
        "note": 40,
        "velocity": 0,
        "channel": 0
      },
      {
        "type": "note_on",
        "time": 1,
        "note": 64,
        "velocity": 60,
        "channel": 0
      },
      {
        "type": "note_on",
        "time": 0,
        "note": 59,
        "velocity": 60,
        "channel": 0
      },
      {
        "type": "note_on",
        "time": 0,
        "note": 55,
        "velocity": 60,
        "channel": 0
      },
      {
        "type": "note_on",
        "time": 0,
        "note": 52,
        "velocity": 60,
        "channel": 0
      },
      {
        "type": "note_on",
        "time": 0,
        "note": 47,
        "velocity": 60,
        "channel": 0
      },
      {
        "type": "note_on",
        "time": 0,
        "note": 40,
        "velocity": 60,
        "channel": 0
      },
      {
        "type": "note_on",
        "time": 59,
        "note": 64,
        "velocity": 0,
        "channel": 0
      },
      {
        "type": "note_on",
        "time": 0,
        "note": 59,
        "velocity": 0,
        "channel": 0
      },
      {
        "type": "note_on",
        "time": 0,
        "note": 55,
        "velocity": 0,
        "channel": 0
      },
      {
        "type": "note_on",
        "time": 0,
        "note": 52,
        "velocity": 0,
        "channel": 0
      },
      {
        "type": "note_on",
        "time": 0,
        "note": 47,
        "velocity": 0,
        "channel": 0
      },
      {
        "type": "note_on",
        "time": 0,
        "note": 40,
        "velocity": 0,
        "channel": 0
      },
      {
        "type": "note_on",
        "time": 1,
        "note": 64,
        "velocity": 60,
        "channel": 0
      },
      {
        "type": "note_on",
        "time": 0,
        "note": 59,
        "velocity": 60,
        "channel": 0
      },
      {
        "type": "note_on",
        "time": 0,
        "note": 55,
        "velocity": 60,
        "channel": 0
      },
      {
        "type": "note_on",
        "time": 0,
        "note": 52,
        "velocity": 60,
        "channel": 0
      },
      {
        "type": "note_on",
        "time": 0,
        "note": 47,
        "velocity": 60,
        "channel": 0
      },
      {
        "type": "note_on",
        "time": 0,
        "note": 40,
        "velocity": 60,
        "channel": 0
      },
      {
        "type": "note_on",
        "time": 59,
        "note": 64,
        "velocity": 0,
        "channel": 0
      },
      {
        "type": "note_on",
        "time": 0,
        "note": 59,
        "velocity": 0,
        "channel": 0
      },
      {
        "type": "note_on",
        "time": 0,
        "note": 55,
        "velocity": 0,
        "channel": 0
      },
      {
        "type": "note_on",
        "time": 0,
        "note": 52,
        "velocity": 0,
        "channel": 0
      },
      {
        "type": "note_on",
        "time": 0,
        "note": 47,
        "velocity": 0,
        "channel": 0
      },
      {
        "type": "note_on",
        "time": 0,
        "note": 40,
        "velocity": 0,
        "channel": 0
      },
      {
        "type": "note_on",
        "time": 1,
        "note": 64,
        "velocity": 60,
        "channel": 0
      },
      {
        "type": "note_on",
        "time": 0,
        "note": 59,
        "velocity": 60,
        "channel": 0
      },
      {
        "type": "note_on",
        "time": 0,
        "note": 55,
        "velocity": 60,
        "channel": 0
      },
      {
        "type": "note_on",
        "time": 0,
        "note": 52,
        "velocity": 60,
        "channel": 0
      },
      {
        "type": "note_on",
        "time": 0,
        "note": 47,
        "velocity": 60,
        "channel": 0
      },
      {
        "type": "note_on",
        "time": 0,
        "note": 40,
        "velocity": 60,
        "channel": 0
      },
      {
        "type": "note_on",
        "time": 29,
        "note": 64,
        "velocity": 0,
        "channel": 0
      },
      {
        "type": "note_on",
        "time": 0,
        "note": 59,
        "velocity": 0,
        "channel": 0
      },
      {
        "type": "note_on",
        "time": 0,
        "note": 55,
        "velocity": 0,
        "channel": 0
      },
      {
        "type": "note_on",
        "time": 0,
        "note": 52,
        "velocity": 0,
        "channel": 0
      },
      {
        "type": "note_on",
        "time": 0,
        "note": 47,
        "velocity": 0,
        "channel": 0
      },
      {
        "type": "note_on",
        "time": 0,
        "note": 40,
        "velocity": 0,
        "channel": 0
      },
      {
        "type": "note_on",
        "time": 1,
        "note": 64,
        "velocity": 60,
        "channel": 0
      },
      {
        "type": "note_on",
        "time": 0,
        "note": 59,
        "velocity": 60,
        "channel": 0
      },
      {
        "type": "note_on",
        "time": 0,
        "note": 55,
        "velocity": 60,
        "channel": 0
      },
      {
        "type": "note_on",
        "time": 0,
        "note": 52,
        "velocity": 60,
        "channel": 0
      },
      {
        "type": "note_on",
        "time": 0,
        "note": 47,
        "velocity": 60,
        "channel": 0
      },
      {
        "type": "note_on",
        "time": 0,
        "note": 40,
        "velocity": 60,
        "channel": 0
      },
      {
        "type": "note_on",
        "time": 29,
        "note": 64,
        "velocity": 0,
        "channel": 0
      },
      {
        "type": "note_on",
        "time": 0,
        "note": 59,
        "velocity": 0,
        "channel": 0
      },
      {
        "type": "note_on",
        "time": 0,
        "note": 55,
        "velocity": 0,
        "channel": 0
      },
      {
        "type": "note_on",
        "time": 0,
        "note": 52,
        "velocity": 0,
        "channel": 0
      },
      {
        "type": "note_on",
        "time": 0,
        "note": 47,
        "velocity": 0,
        "channel": 0
      },
      {
        "type": "note_on",
        "time": 0,
        "note": 40,
        "velocity": 0,
        "channel": 0
      },
      {
        "type": "note_on",
        "time": 1,
        "note": 64,
        "velocity": 60,
        "channel": 0
      },
      {
        "type": "note_on",
        "time": 0,
        "note": 59,
        "velocity": 60,
        "channel": 0
      },
      {
        "type": "note_on",
        "time": 0,
        "note": 55,
        "velocity": 60,
        "channel": 0
      },
      {
        "type": "note_on",
        "time": 0,
        "note": 52,
        "velocity": 60,
        "channel": 0
      },
      {
        "type": "note_on",
        "time": 0,
        "note": 47,
        "velocity": 60,
        "channel": 0
      },
      {
        "type": "note_on",
        "time": 0,
        "note": 40,
        "velocity": 60,
        "channel": 0
      },
      {
        "type": "note_on",
        "time": 59,
        "note": 64,
        "velocity": 0,
        "channel": 0
      },
      {
        "type": "note_on",
        "time": 0,
        "note": 59,
        "velocity": 0,
        "channel": 0
      },
      {
        "type": "note_on",
        "time": 0,
        "note": 55,
        "velocity": 0,
        "channel": 0
      },
      {
        "type": "note_on",
        "time": 0,
        "note": 52,
        "velocity": 0,
        "channel": 0
      },
      {
        "type": "note_on",
        "time": 0,
        "note": 47,
        "velocity": 0,
        "channel": 0
      },
      {
        "type": "note_on",
        "time": 0,
        "note": 40,
        "velocity": 0,
        "channel": 0
      },
      {
        "type": "note_on",
        "time": 1,
        "note": 42,
        "velocity": 60,
        "channel": 0
      },
      {
        "type": "note_on",
        "time": 0,
        "note": 49,
        "velocity": 60,
        "channel": 0
      },
      {
        "type": "note_on",
        "time": 0,
        "note": 54,
        "velocity": 60,
        "channel": 0
      },
      {
        "type": "note_on",
        "time": 0,
        "note": 58,
        "velocity": 60,
        "channel": 0
      },
      {
        "type": "note_on",
        "time": 0,
        "note": 61,
        "velocity": 60,
        "channel": 0
      },
      {
        "type": "note_on",
        "time": 0,
        "note": 66,
        "velocity": 60,
        "channel": 0
      },
      {
        "type": "note_on",
        "time": 59,
        "note": 42,
        "velocity": 0,
        "channel": 0
      },
      {
        "type": "note_on",
        "time": 0,
        "note": 49,
        "velocity": 0,
        "channel": 0
      },
      {
        "type": "note_on",
        "time": 0,
        "note": 54,
        "velocity": 0,
        "channel": 0
      },
      {
        "type": "note_on",
        "time": 0,
        "note": 58,
        "velocity": 0,
        "channel": 0
      },
      {
        "type": "note_on",
        "time": 0,
        "note": 61,
        "velocity": 0,
        "channel": 0
      },
      {
        "type": "note_on",
        "time": 0,
        "note": 66,
        "velocity": 0,
        "channel": 0
      },
      {
        "type": "note_on",
        "time": 1,
        "note": 66,
        "velocity": 60,
        "channel": 0
      },
      {
        "type": "note_on",
        "time": 0,
        "note": 61,
        "velocity": 60,
        "channel": 0
      },
      {
        "type": "note_on",
        "time": 0,
        "note": 58,
        "velocity": 60,
        "channel": 0
      },
      {
        "type": "note_on",
        "time": 0,
        "note": 54,
        "velocity": 60,
        "channel": 0
      },
      {
        "type": "note_on",
        "time": 0,
        "note": 49,
        "velocity": 60,
        "channel": 0
      },
      {
        "type": "note_on",
        "time": 0,
        "note": 42,
        "velocity": 60,
        "channel": 0
      },
      {
        "type": "note_on",
        "time": 29,
        "note": 66,
        "velocity": 0,
        "channel": 0
      },
      {
        "type": "note_on",
        "time": 0,
        "note": 61,
        "velocity": 0,
        "channel": 0
      },
      {
        "type": "note_on",
        "time": 0,
        "note": 58,
        "velocity": 0,
        "channel": 0
      },
      {
        "type": "note_on",
        "time": 0,
        "note": 54,
        "velocity": 0,
        "channel": 0
      },
      {
        "type": "note_on",
        "time": 0,
        "note": 49,
        "velocity": 0,
        "channel": 0
      },
      {
        "type": "note_on",
        "time": 0,
        "note": 42,
        "velocity": 0,
        "channel": 0
      },
      {
        "type": "note_on",
        "time": 1,
        "note": 66,
        "velocity": 60,
        "channel": 0
      },
      {
        "type": "note_on",
        "time": 0,
        "note": 61,
        "velocity": 60,
        "channel": 0
      },
      {
        "type": "note_on",
        "time": 0,
        "note": 58,
        "velocity": 60,
        "channel": 0
      },
      {
        "type": "note_on",
        "time": 0,
        "note": 54,
        "velocity": 60,
        "channel": 0
      },
      {
        "type": "note_on",
        "time": 0,
        "note": 49,
        "velocity": 60,
        "channel": 0
      },
      {
        "type": "note_on",
        "time": 0,
        "note": 42,
        "velocity": 60,
        "channel": 0
      },
      {
        "type": "note_on",
        "time": 29,
        "note": 66,
        "velocity": 0,
        "channel": 0
      },
      {
        "type": "note_on",
        "time": 0,
        "note": 61,
        "velocity": 0,
        "channel": 0
      },
      {
        "type": "note_on",
        "time": 0,
        "note": 58,
        "velocity": 0,
        "channel": 0
      },
      {
        "type": "note_on",
        "time": 0,
        "note": 54,
        "velocity": 0,
        "channel": 0
      },
      {
        "type": "note_on",
        "time": 0,
        "note": 49,
        "velocity": 0,
        "channel": 0
      },
      {
        "type": "note_on",
        "time": 0,
        "note": 42,
        "velocity": 0,
        "channel": 0
      },
      {
        "type": "note_on",
        "time": 1,
        "note": 66,
        "velocity": 60,
        "channel": 0
      },
      {
        "type": "note_on",
        "time": 0,
        "note": 61,
        "velocity": 60,
        "channel": 0
      },
      {
        "type": "note_on",
        "time": 0,
        "note": 58,
        "velocity": 60,
        "channel": 0
      },
      {
        "type": "note_on",
        "time": 0,
        "note": 54,
        "velocity": 60,
        "channel": 0
      },
      {
        "type": "note_on",
        "time": 0,
        "note": 49,
        "velocity": 60,
        "channel": 0
      },
      {
        "type": "note_on",
        "time": 0,
        "note": 42,
        "velocity": 60,
        "channel": 0
      },
      {
        "type": "note_on",
        "time": 29,
        "note": 66,
        "velocity": 0,
        "channel": 0
      },
      {
        "type": "note_on",
        "time": 0,
        "note": 61,
        "velocity": 0,
        "channel": 0
      },
      {
        "type": "note_on",
        "time": 0,
        "note": 58,
        "velocity": 0,
        "channel": 0
      },
      {
        "type": "note_on",
        "time": 0,
        "note": 54,
        "velocity": 0,
        "channel": 0
      },
      {
        "type": "note_on",
        "time": 0,
        "note": 49,
        "velocity": 0,
        "channel": 0
      },
      {
        "type": "note_on",
        "time": 0,
        "note": 42,
        "velocity": 0,
        "channel": 0
      },
      {
        "type": "note_on",
        "time": 1,
        "note": 66,
        "velocity": 60,
        "channel": 0
      },
      {
        "type": "note_on",
        "time": 0,
        "note": 61,
        "velocity": 60,
        "channel": 0
      },
      {
        "type": "note_on",
        "time": 0,
        "note": 58,
        "velocity": 60,
        "channel": 0
      },
      {
        "type": "note_on",
        "time": 0,
        "note": 54,
        "velocity": 60,
        "channel": 0
      },
      {
        "type": "note_on",
        "time": 0,
        "note": 49,
        "velocity": 60,
        "channel": 0
      },
      {
        "type": "note_on",
        "time": 0,
        "note": 42,
        "velocity": 60,
        "channel": 0
      },
      {
        "type": "note_on",
        "time": 59,
        "note": 66,
        "velocity": 0,
        "channel": 0
      },
      {
        "type": "note_on",
        "time": 0,
        "note": 61,
        "velocity": 0,
        "channel": 0
      },
      {
        "type": "note_on",
        "time": 0,
        "note": 58,
        "velocity": 0,
        "channel": 0
      },
      {
        "type": "note_on",
        "time": 0,
        "note": 54,
        "velocity": 0,
        "channel": 0
      },
      {
        "type": "note_on",
        "time": 0,
        "note": 49,
        "velocity": 0,
        "channel": 0
      },
      {
        "type": "note_on",
        "time": 0,
        "note": 42,
        "velocity": 0,
        "channel": 0
      },
      {
        "type": "note_on",
        "time": 1,
        "note": 66,
        "velocity": 60,
        "channel": 0
      },
      {
        "type": "note_on",
        "time": 0,
        "note": 61,
        "velocity": 60,
        "channel": 0
      },
      {
        "type": "note_on",
        "time": 0,
        "note": 58,
        "velocity": 60,
        "channel": 0
      },
      {
        "type": "note_on",
        "time": 0,
        "note": 54,
        "velocity": 60,
        "channel": 0
      },
      {
        "type": "note_on",
        "time": 0,
        "note": 49,
        "velocity": 60,
        "channel": 0
      },
      {
        "type": "note_on",
        "time": 0,
        "note": 42,
        "velocity": 60,
        "channel": 0
      },
      {
        "type": "note_on",
        "time": 29,
        "note": 66,
        "velocity": 0,
        "channel": 0
      },
      {
        "type": "note_on",
        "time": 0,
        "note": 61,
        "velocity": 0,
        "channel": 0
      },
      {
        "type": "note_on",
        "time": 0,
        "note": 58,
        "velocity": 0,
        "channel": 0
      },
      {
        "type": "note_on",
        "time": 0,
        "note": 54,
        "velocity": 0,
        "channel": 0
      },
      {
        "type": "note_on",
        "time": 0,
        "note": 49,
        "velocity": 0,
        "channel": 0
      },
      {
        "type": "note_on",
        "time": 0,
        "note": 42,
        "velocity": 0,
        "channel": 0
      },
      {
        "type": "note_on",
        "time": 1,
        "note": 66,
        "velocity": 60,
        "channel": 0
      },
      {
        "type": "note_on",
        "time": 0,
        "note": 61,
        "velocity": 60,
        "channel": 0
      },
      {
        "type": "note_on",
        "time": 0,
        "note": 58,
        "velocity": 60,
        "channel": 0
      },
      {
        "type": "note_on",
        "time": 0,
        "note": 54,
        "velocity": 60,
        "channel": 0
      },
      {
        "type": "note_on",
        "time": 0,
        "note": 49,
        "velocity": 60,
        "channel": 0
      },
      {
        "type": "note_on",
        "time": 0,
        "note": 42,
        "velocity": 60,
        "channel": 0
      },
      {
        "type": "note_on",
        "time": 239,
        "note": 66,
        "velocity": 0,
        "channel": 0
      },
      {
        "type": "note_on",
        "time": 0,
        "note": 61,
        "velocity": 0,
        "channel": 0
      },
      {
        "type": "note_on",
        "time": 0,
        "note": 58,
        "velocity": 0,
        "channel": 0
      },
      {
        "type": "note_on",
        "time": 0,
        "note": 54,
        "velocity": 0,
        "channel": 0
      },
      {
        "type": "note_on",
        "time": 0,
        "note": 49,
        "velocity": 0,
        "channel": 0
      },
      {
        "type": "note_on",
        "time": 0,
        "note": 42,
        "velocity": 0,
        "channel": 0
      },
      {
        "type": "note_on",
        "time": 1,
        "note": 62,
        "velocity": 60,
        "channel": 0
      },
      {
        "type": "note_on",
        "time": 0,
        "note": 59,
        "velocity": 60,
        "channel": 0
      },
      {
        "type": "note_on",
        "time": 0,
        "note": 42,
        "velocity": 60,
        "channel": 0
      },
      {
        "type": "note_on",
        "time": 0,
        "note": 47,
        "velocity": 60,
        "channel": 0
      },
      {
        "type": "note_on",
        "time": 0,
        "note": 66,
        "velocity": 60,
        "channel": 0
      },
      {
        "type": "note_on",
        "time": 0,
        "note": 54,
        "velocity": 60,
        "channel": 0
      },
      {
        "type": "note_on",
        "time": 29,
        "note": 62,
        "velocity": 0,
        "channel": 0
      },
      {
        "type": "note_on",
        "time": 0,
        "note": 59,
        "velocity": 0,
        "channel": 0
      },
      {
        "type": "note_on",
        "time": 0,
        "note": 42,
        "velocity": 0,
        "channel": 0
      },
      {
        "type": "note_on",
        "time": 0,
        "note": 47,
        "velocity": 0,
        "channel": 0
      },
      {
        "type": "note_on",
        "time": 0,
        "note": 66,
        "velocity": 0,
        "channel": 0
      },
      {
        "type": "note_on",
        "time": 0,
        "note": 54,
        "velocity": 0,
        "channel": 0
      },
      {
        "type": "note_on",
        "time": 1,
        "note": 59,
        "velocity": 60,
        "channel": 0
      },
      {
        "type": "note_on",
        "time": 0,
        "note": 42,
        "velocity": 60,
        "channel": 0
      },
      {
        "type": "note_on",
        "time": 0,
        "note": 62,
        "velocity": 60,
        "channel": 0
      },
      {
        "type": "note_on",
        "time": 0,
        "note": 54,
        "velocity": 60,
        "channel": 0
      },
      {
        "type": "note_on",
        "time": 0,
        "note": 47,
        "velocity": 60,
        "channel": 0
      },
      {
        "type": "note_on",
        "time": 0,
        "note": 66,
        "velocity": 60,
        "channel": 0
      },
      {
        "type": "note_on",
        "time": 59,
        "note": 59,
        "velocity": 0,
        "channel": 0
      },
      {
        "type": "note_on",
        "time": 0,
        "note": 42,
        "velocity": 0,
        "channel": 0
      },
      {
        "type": "note_on",
        "time": 0,
        "note": 62,
        "velocity": 0,
        "channel": 0
      },
      {
        "type": "note_on",
        "time": 0,
        "note": 54,
        "velocity": 0,
        "channel": 0
      },
      {
        "type": "note_on",
        "time": 0,
        "note": 47,
        "velocity": 0,
        "channel": 0
      },
      {
        "type": "note_on",
        "time": 0,
        "note": 66,
        "velocity": 0,
        "channel": 0
      },
      {
        "type": "note_on",
        "time": 1,
        "note": 47,
        "velocity": 60,
        "channel": 0
      },
      {
        "type": "note_on",
        "time": 0,
        "note": 42,
        "velocity": 60,
        "channel": 0
      },
      {
        "type": "note_on",
        "time": 0,
        "note": 54,
        "velocity": 60,
        "channel": 0
      },
      {
        "type": "note_on",
        "time": 0,
        "note": 59,
        "velocity": 60,
        "channel": 0
      },
      {
        "type": "note_on",
        "time": 0,
        "note": 66,
        "velocity": 60,
        "channel": 0
      },
      {
        "type": "note_on",
        "time": 0,
        "note": 62,
        "velocity": 60,
        "channel": 0
      },
      {
        "type": "note_on",
        "time": 29,
        "note": 47,
        "velocity": 0,
        "channel": 0
      },
      {
        "type": "note_on",
        "time": 0,
        "note": 42,
        "velocity": 0,
        "channel": 0
      },
      {
        "type": "note_on",
        "time": 0,
        "note": 54,
        "velocity": 0,
        "channel": 0
      },
      {
        "type": "note_on",
        "time": 0,
        "note": 59,
        "velocity": 0,
        "channel": 0
      },
      {
        "type": "note_on",
        "time": 0,
        "note": 66,
        "velocity": 0,
        "channel": 0
      },
      {
        "type": "note_on",
        "time": 0,
        "note": 62,
        "velocity": 0,
        "channel": 0
      },
      {
        "type": "note_on",
        "time": 1,
        "note": 59,
        "velocity": 60,
        "channel": 0
      },
      {
        "type": "note_on",
        "time": 0,
        "note": 47,
        "velocity": 60,
        "channel": 0
      },
      {
        "type": "note_on",
        "time": 0,
        "note": 66,
        "velocity": 60,
        "channel": 0
      },
      {
        "type": "note_on",
        "time": 0,
        "note": 54,
        "velocity": 60,
        "channel": 0
      },
      {
        "type": "note_on",
        "time": 0,
        "note": 42,
        "velocity": 60,
        "channel": 0
      },
      {
        "type": "note_on",
        "time": 0,
        "note": 62,
        "velocity": 60,
        "channel": 0
      },
      {
        "type": "note_on",
        "time": 59,
        "note": 59,
        "velocity": 0,
        "channel": 0
      },
      {
        "type": "note_on",
        "time": 0,
        "note": 47,
        "velocity": 0,
        "channel": 0
      },
      {
        "type": "note_on",
        "time": 0,
        "note": 66,
        "velocity": 0,
        "channel": 0
      },
      {
        "type": "note_on",
        "time": 0,
        "note": 54,
        "velocity": 0,
        "channel": 0
      },
      {
        "type": "note_on",
        "time": 0,
        "note": 42,
        "velocity": 0,
        "channel": 0
      },
      {
        "type": "note_on",
        "time": 0,
        "note": 62,
        "velocity": 0,
        "channel": 0
      },
      {
        "type": "note_on",
        "time": 1,
        "note": 42,
        "velocity": 60,
        "channel": 0
      },
      {
        "type": "note_on",
        "time": 0,
        "note": 59,
        "velocity": 60,
        "channel": 0
      },
      {
        "type": "note_on",
        "time": 0,
        "note": 66,
        "velocity": 60,
        "channel": 0
      },
      {
        "type": "note_on",
        "time": 0,
        "note": 54,
        "velocity": 60,
        "channel": 0
      },
      {
        "type": "note_on",
        "time": 0,
        "note": 62,
        "velocity": 60,
        "channel": 0
      },
      {
        "type": "note_on",
        "time": 0,
        "note": 47,
        "velocity": 60,
        "channel": 0
      },
      {
        "type": "note_on",
        "time": 29,
        "note": 42,
        "velocity": 0,
        "channel": 0
      },
      {
        "type": "note_on",
        "time": 0,
        "note": 59,
        "velocity": 0,
        "channel": 0
      },
      {
        "type": "note_on",
        "time": 0,
        "note": 66,
        "velocity": 0,
        "channel": 0
      },
      {
        "type": "note_on",
        "time": 0,
        "note": 54,
        "velocity": 0,
        "channel": 0
      },
      {
        "type": "note_on",
        "time": 0,
        "note": 62,
        "velocity": 0,
        "channel": 0
      },
      {
        "type": "note_on",
        "time": 0,
        "note": 47,
        "velocity": 0,
        "channel": 0
      },
      {
        "type": "note_on",
        "time": 1,
        "note": 62,
        "velocity": 60,
        "channel": 0
      },
      {
        "type": "note_on",
        "time": 0,
        "note": 47,
        "velocity": 60,
        "channel": 0
      },
      {
        "type": "note_on",
        "time": 0,
        "note": 66,
        "velocity": 60,
        "channel": 0
      },
      {
        "type": "note_on",
        "time": 0,
        "note": 42,
        "velocity": 60,
        "channel": 0
      },
      {
        "type": "note_on",
        "time": 0,
        "note": 59,
        "velocity": 60,
        "channel": 0
      },
      {
        "type": "note_on",
        "time": 0,
        "note": 54,
        "velocity": 60,
        "channel": 0
      },
      {
        "type": "note_on",
        "time": 59,
        "note": 62,
        "velocity": 0,
        "channel": 0
      },
      {
        "type": "note_on",
        "time": 0,
        "note": 47,
        "velocity": 0,
        "channel": 0
      },
      {
        "type": "note_on",
        "time": 0,
        "note": 66,
        "velocity": 0,
        "channel": 0
      },
      {
        "type": "note_on",
        "time": 0,
        "note": 42,
        "velocity": 0,
        "channel": 0
      },
      {
        "type": "note_on",
        "time": 0,
        "note": 59,
        "velocity": 0,
        "channel": 0
      },
      {
        "type": "note_on",
        "time": 0,
        "note": 54,
        "velocity": 0,
        "channel": 0
      },
      {
        "type": "note_on",
        "time": 1,
        "note": 66,
        "velocity": 60,
        "channel": 0
      },
      {
        "type": "note_on",
        "time": 0,
        "note": 59,
        "velocity": 60,
        "channel": 0
      },
      {
        "type": "note_on",
        "time": 0,
        "note": 42,
        "velocity": 60,
        "channel": 0
      },
      {
        "type": "note_on",
        "time": 0,
        "note": 62,
        "velocity": 60,
        "channel": 0
      },
      {
        "type": "note_on",
        "time": 0,
        "note": 54,
        "velocity": 60,
        "channel": 0
      },
      {
        "type": "note_on",
        "time": 0,
        "note": 47,
        "velocity": 60,
        "channel": 0
      },
      {
        "type": "note_on",
        "time": 29,
        "note": 66,
        "velocity": 0,
        "channel": 0
      },
      {
        "type": "note_on",
        "time": 0,
        "note": 59,
        "velocity": 0,
        "channel": 0
      },
      {
        "type": "note_on",
        "time": 0,
        "note": 42,
        "velocity": 0,
        "channel": 0
      },
      {
        "type": "note_on",
        "time": 0,
        "note": 62,
        "velocity": 0,
        "channel": 0
      },
      {
        "type": "note_on",
        "time": 0,
        "note": 54,
        "velocity": 0,
        "channel": 0
      },
      {
        "type": "note_on",
        "time": 0,
        "note": 47,
        "velocity": 0,
        "channel": 0
      },
      {
        "type": "note_on",
        "time": 1,
        "note": 59,
        "velocity": 60,
        "channel": 0
      },
      {
        "type": "note_on",
        "time": 0,
        "note": 42,
        "velocity": 60,
        "channel": 0
      },
      {
        "type": "note_on",
        "time": 0,
        "note": 54,
        "velocity": 60,
        "channel": 0
      },
      {
        "type": "note_on",
        "time": 0,
        "note": 66,
        "velocity": 60,
        "channel": 0
      },
      {
        "type": "note_on",
        "time": 0,
        "note": 62,
        "velocity": 60,
        "channel": 0
      },
      {
        "type": "note_on",
        "time": 0,
        "note": 47,
        "velocity": 60,
        "channel": 0
      },
      {
        "type": "note_on",
        "time": 59,
        "note": 59,
        "velocity": 0,
        "channel": 0
      },
      {
        "type": "note_on",
        "time": 0,
        "note": 42,
        "velocity": 0,
        "channel": 0
      },
      {
        "type": "note_on",
        "time": 0,
        "note": 54,
        "velocity": 0,
        "channel": 0
      },
      {
        "type": "note_on",
        "time": 0,
        "note": 66,
        "velocity": 0,
        "channel": 0
      },
      {
        "type": "note_on",
        "time": 0,
        "note": 62,
        "velocity": 0,
        "channel": 0
      },
      {
        "type": "note_on",
        "time": 0,
        "note": 47,
        "velocity": 0,
        "channel": 0
      },
      {
        "type": "note_on",
        "time": 1,
        "note": 59,
        "velocity": 60,
        "channel": 0
      },
      {
        "type": "note_on",
        "time": 0,
        "note": 62,
        "velocity": 60,
        "channel": 0
      },
      {
        "type": "note_on",
        "time": 0,
        "note": 47,
        "velocity": 60,
        "channel": 0
      },
      {
        "type": "note_on",
        "time": 0,
        "note": 66,
        "velocity": 60,
        "channel": 0
      },
      {
        "type": "note_on",
        "time": 0,
        "note": 42,
        "velocity": 60,
        "channel": 0
      },
      {
        "type": "note_on",
        "time": 0,
        "note": 54,
        "velocity": 60,
        "channel": 0
      },
      {
        "type": "note_on",
        "time": 59,
        "note": 59,
        "velocity": 0,
        "channel": 0
      },
      {
        "type": "note_on",
        "time": 0,
        "note": 62,
        "velocity": 0,
        "channel": 0
      },
      {
        "type": "note_on",
        "time": 0,
        "note": 47,
        "velocity": 0,
        "channel": 0
      },
      {
        "type": "note_on",
        "time": 0,
        "note": 66,
        "velocity": 0,
        "channel": 0
      },
      {
        "type": "note_on",
        "time": 0,
        "note": 42,
        "velocity": 0,
        "channel": 0
      },
      {
        "type": "note_on",
        "time": 0,
        "note": 54,
        "velocity": 0,
        "channel": 0
      },
      {
        "type": "note_on",
        "time": 1,
        "note": 47,
        "velocity": 60,
        "channel": 0
      },
      {
        "type": "note_on",
        "time": 0,
        "note": 42,
        "velocity": 60,
        "channel": 0
      },
      {
        "type": "note_on",
        "time": 0,
        "note": 59,
        "velocity": 60,
        "channel": 0
      },
      {
        "type": "note_on",
        "time": 0,
        "note": 66,
        "velocity": 60,
        "channel": 0
      },
      {
        "type": "note_on",
        "time": 0,
        "note": 54,
        "velocity": 60,
        "channel": 0
      },
      {
        "type": "note_on",
        "time": 0,
        "note": 62,
        "velocity": 60,
        "channel": 0
      },
      {
        "type": "note_on",
        "time": 59,
        "note": 47,
        "velocity": 0,
        "channel": 0
      },
      {
        "type": "note_on",
        "time": 0,
        "note": 42,
        "velocity": 0,
        "channel": 0
      },
      {
        "type": "note_on",
        "time": 0,
        "note": 59,
        "velocity": 0,
        "channel": 0
      },
      {
        "type": "note_on",
        "time": 0,
        "note": 66,
        "velocity": 0,
        "channel": 0
      },
      {
        "type": "note_on",
        "time": 0,
        "note": 54,
        "velocity": 0,
        "channel": 0
      },
      {
        "type": "note_on",
        "time": 0,
        "note": 62,
        "velocity": 0,
        "channel": 0
      },
      {
        "type": "note_on",
        "time": 1,
        "note": 61,
        "velocity": 60,
        "channel": 0
      },
      {
        "type": "note_on",
        "time": 0,
        "note": 58,
        "velocity": 60,
        "channel": 0
      },
      {
        "type": "note_on",
        "time": 0,
        "note": 54,
        "velocity": 60,
        "channel": 0
      },
      {
        "type": "note_on",
        "time": 0,
        "note": 42,
        "velocity": 60,
        "channel": 0
      },
      {
        "type": "note_on",
        "time": 0,
        "note": 49,
        "velocity": 60,
        "channel": 0
      },
      {
        "type": "note_on",
        "time": 0,
        "note": 66,
        "velocity": 60,
        "channel": 0
      },
      {
        "type": "note_on",
        "time": 29,
        "note": 61,
        "velocity": 0,
        "channel": 0
      },
      {
        "type": "note_on",
        "time": 0,
        "note": 58,
        "velocity": 0,
        "channel": 0
      },
      {
        "type": "note_on",
        "time": 0,
        "note": 54,
        "velocity": 0,
        "channel": 0
      },
      {
        "type": "note_on",
        "time": 0,
        "note": 42,
        "velocity": 0,
        "channel": 0
      },
      {
        "type": "note_on",
        "time": 0,
        "note": 49,
        "velocity": 0,
        "channel": 0
      },
      {
        "type": "note_on",
        "time": 0,
        "note": 66,
        "velocity": 0,
        "channel": 0
      },
      {
        "type": "note_on",
        "time": 1,
        "note": 58,
        "velocity": 60,
        "channel": 0
      },
      {
        "type": "note_on",
        "time": 0,
        "note": 42,
        "velocity": 60,
        "channel": 0
      },
      {
        "type": "note_on",
        "time": 0,
        "note": 49,
        "velocity": 60,
        "channel": 0
      },
      {
        "type": "note_on",
        "time": 0,
        "note": 61,
        "velocity": 60,
        "channel": 0
      },
      {
        "type": "note_on",
        "time": 0,
        "note": 54,
        "velocity": 60,
        "channel": 0
      },
      {
        "type": "note_on",
        "time": 0,
        "note": 66,
        "velocity": 60,
        "channel": 0
      },
      {
        "type": "note_on",
        "time": 59,
        "note": 58,
        "velocity": 0,
        "channel": 0
      },
      {
        "type": "note_on",
        "time": 0,
        "note": 42,
        "velocity": 0,
        "channel": 0
      },
      {
        "type": "note_on",
        "time": 0,
        "note": 49,
        "velocity": 0,
        "channel": 0
      },
      {
        "type": "note_on",
        "time": 0,
        "note": 61,
        "velocity": 0,
        "channel": 0
      },
      {
        "type": "note_on",
        "time": 0,
        "note": 54,
        "velocity": 0,
        "channel": 0
      },
      {
        "type": "note_on",
        "time": 0,
        "note": 66,
        "velocity": 0,
        "channel": 0
      },
      {
        "type": "note_on",
        "time": 1,
        "note": 66,
        "velocity": 60,
        "channel": 0
      },
      {
        "type": "note_on",
        "time": 0,
        "note": 58,
        "velocity": 60,
        "channel": 0
      },
      {
        "type": "note_on",
        "time": 0,
        "note": 49,
        "velocity": 60,
        "channel": 0
      },
      {
        "type": "note_on",
        "time": 0,
        "note": 54,
        "velocity": 60,
        "channel": 0
      },
      {
        "type": "note_on",
        "time": 0,
        "note": 42,
        "velocity": 60,
        "channel": 0
      },
      {
        "type": "note_on",
        "time": 0,
        "note": 61,
        "velocity": 60,
        "channel": 0
      },
      {
        "type": "note_on",
        "time": 29,
        "note": 66,
        "velocity": 0,
        "channel": 0
      },
      {
        "type": "note_on",
        "time": 0,
        "note": 58,
        "velocity": 0,
        "channel": 0
      },
      {
        "type": "note_on",
        "time": 0,
        "note": 49,
        "velocity": 0,
        "channel": 0
      },
      {
        "type": "note_on",
        "time": 0,
        "note": 54,
        "velocity": 0,
        "channel": 0
      },
      {
        "type": "note_on",
        "time": 0,
        "note": 42,
        "velocity": 0,
        "channel": 0
      },
      {
        "type": "note_on",
        "time": 0,
        "note": 61,
        "velocity": 0,
        "channel": 0
      },
      {
        "type": "note_on",
        "time": 1,
        "note": 42,
        "velocity": 60,
        "channel": 0
      },
      {
        "type": "note_on",
        "time": 0,
        "note": 61,
        "velocity": 60,
        "channel": 0
      },
      {
        "type": "note_on",
        "time": 0,
        "note": 54,
        "velocity": 60,
        "channel": 0
      },
      {
        "type": "note_on",
        "time": 0,
        "note": 49,
        "velocity": 60,
        "channel": 0
      },
      {
        "type": "note_on",
        "time": 0,
        "note": 58,
        "velocity": 60,
        "channel": 0
      },
      {
        "type": "note_on",
        "time": 0,
        "note": 66,
        "velocity": 60,
        "channel": 0
      },
      {
        "type": "note_on",
        "time": 59,
        "note": 42,
        "velocity": 0,
        "channel": 0
      },
      {
        "type": "note_on",
        "time": 0,
        "note": 61,
        "velocity": 0,
        "channel": 0
      },
      {
        "type": "note_on",
        "time": 0,
        "note": 54,
        "velocity": 0,
        "channel": 0
      },
      {
        "type": "note_on",
        "time": 0,
        "note": 49,
        "velocity": 0,
        "channel": 0
      },
      {
        "type": "note_on",
        "time": 0,
        "note": 58,
        "velocity": 0,
        "channel": 0
      },
      {
        "type": "note_on",
        "time": 0,
        "note": 66,
        "velocity": 0,
        "channel": 0
      },
      {
        "type": "note_on",
        "time": 1,
        "note": 42,
        "velocity": 60,
        "channel": 0
      },
      {
        "type": "note_on",
        "time": 0,
        "note": 54,
        "velocity": 60,
        "channel": 0
      },
      {
        "type": "note_on",
        "time": 0,
        "note": 58,
        "velocity": 60,
        "channel": 0
      },
      {
        "type": "note_on",
        "time": 0,
        "note": 49,
        "velocity": 60,
        "channel": 0
      },
      {
        "type": "note_on",
        "time": 0,
        "note": 66,
        "velocity": 60,
        "channel": 0
      },
      {
        "type": "note_on",
        "time": 0,
        "note": 61,
        "velocity": 60,
        "channel": 0
      },
      {
        "type": "note_on",
        "time": 29,
        "note": 42,
        "velocity": 0,
        "channel": 0
      },
      {
        "type": "note_on",
        "time": 0,
        "note": 54,
        "velocity": 0,
        "channel": 0
      },
      {
        "type": "note_on",
        "time": 0,
        "note": 58,
        "velocity": 0,
        "channel": 0
      },
      {
        "type": "note_on",
        "time": 0,
        "note": 49,
        "velocity": 0,
        "channel": 0
      },
      {
        "type": "note_on",
        "time": 0,
        "note": 66,
        "velocity": 0,
        "channel": 0
      },
      {
        "type": "note_on",
        "time": 0,
        "note": 61,
        "velocity": 0,
        "channel": 0
      },
      {
        "type": "note_on",
        "time": 1,
        "note": 66,
        "velocity": 60,
        "channel": 0
      },
      {
        "type": "note_on",
        "time": 0,
        "note": 61,
        "velocity": 60,
        "channel": 0
      },
      {
        "type": "note_on",
        "time": 0,
        "note": 58,
        "velocity": 60,
        "channel": 0
      },
      {
        "type": "note_on",
        "time": 0,
        "note": 49,
        "velocity": 60,
        "channel": 0
      },
      {
        "type": "note_on",
        "time": 0,
        "note": 42,
        "velocity": 60,
        "channel": 0
      },
      {
        "type": "note_on",
        "time": 0,
        "note": 54,
        "velocity": 60,
        "channel": 0
      },
      {
        "type": "note_on",
        "time": 59,
        "note": 66,
        "velocity": 0,
        "channel": 0
      },
      {
        "type": "note_on",
        "time": 0,
        "note": 61,
        "velocity": 0,
        "channel": 0
      },
      {
        "type": "note_on",
        "time": 0,
        "note": 58,
        "velocity": 0,
        "channel": 0
      },
      {
        "type": "note_on",
        "time": 0,
        "note": 49,
        "velocity": 0,
        "channel": 0
      },
      {
        "type": "note_on",
        "time": 0,
        "note": 42,
        "velocity": 0,
        "channel": 0
      },
      {
        "type": "note_on",
        "time": 0,
        "note": 54,
        "velocity": 0,
        "channel": 0
      },
      {
        "type": "note_on",
        "time": 1,
        "note": 54,
        "velocity": 60,
        "channel": 0
      },
      {
        "type": "note_on",
        "time": 0,
        "note": 49,
        "velocity": 60,
        "channel": 0
      },
      {
        "type": "note_on",
        "time": 0,
        "note": 61,
        "velocity": 60,
        "channel": 0
      },
      {
        "type": "note_on",
        "time": 0,
        "note": 66,
        "velocity": 60,
        "channel": 0
      },
      {
        "type": "note_on",
        "time": 0,
        "note": 42,
        "velocity": 60,
        "channel": 0
      },
      {
        "type": "note_on",
        "time": 0,
        "note": 58,
        "velocity": 60,
        "channel": 0
      },
      {
        "type": "note_on",
        "time": 29,
        "note": 54,
        "velocity": 0,
        "channel": 0
      },
      {
        "type": "note_on",
        "time": 0,
        "note": 49,
        "velocity": 0,
        "channel": 0
      },
      {
        "type": "note_on",
        "time": 0,
        "note": 61,
        "velocity": 0,
        "channel": 0
      },
      {
        "type": "note_on",
        "time": 0,
        "note": 66,
        "velocity": 0,
        "channel": 0
      },
      {
        "type": "note_on",
        "time": 0,
        "note": 42,
        "velocity": 0,
        "channel": 0
      },
      {
        "type": "note_on",
        "time": 0,
        "note": 58,
        "velocity": 0,
        "channel": 0
      },
      {
        "type": "note_on",
        "time": 1,
        "note": 58,
        "velocity": 60,
        "channel": 0
      },
      {
        "type": "note_on",
        "time": 0,
        "note": 49,
        "velocity": 60,
        "channel": 0
      },
      {
        "type": "note_on",
        "time": 0,
        "note": 61,
        "velocity": 60,
        "channel": 0
      },
      {
        "type": "note_on",
        "time": 0,
        "note": 54,
        "velocity": 60,
        "channel": 0
      },
      {
        "type": "note_on",
        "time": 0,
        "note": 42,
        "velocity": 60,
        "channel": 0
      },
      {
        "type": "note_on",
        "time": 0,
        "note": 66,
        "velocity": 60,
        "channel": 0
      },
      {
        "type": "note_on",
        "time": 59,
        "note": 58,
        "velocity": 0,
        "channel": 0
      },
      {
        "type": "note_on",
        "time": 0,
        "note": 49,
        "velocity": 0,
        "channel": 0
      },
      {
        "type": "note_on",
        "time": 0,
        "note": 61,
        "velocity": 0,
        "channel": 0
      },
      {
        "type": "note_on",
        "time": 0,
        "note": 54,
        "velocity": 0,
        "channel": 0
      },
      {
        "type": "note_on",
        "time": 0,
        "note": 42,
        "velocity": 0,
        "channel": 0
      },
      {
        "type": "note_on",
        "time": 0,
        "note": 66,
        "velocity": 0,
        "channel": 0
      },
      {
        "type": "note_on",
        "time": 1,
        "note": 58,
        "velocity": 60,
        "channel": 0
      },
      {
        "type": "note_on",
        "time": 0,
        "note": 66,
        "velocity": 60,
        "channel": 0
      },
      {
        "type": "note_on",
        "time": 0,
        "note": 61,
        "velocity": 60,
        "channel": 0
      },
      {
        "type": "note_on",
        "time": 0,
        "note": 49,
        "velocity": 60,
        "channel": 0
      },
      {
        "type": "note_on",
        "time": 0,
        "note": 42,
        "velocity": 60,
        "channel": 0
      },
      {
        "type": "note_on",
        "time": 0,
        "note": 54,
        "velocity": 60,
        "channel": 0
      },
      {
        "type": "note_on",
        "time": 59,
        "note": 58,
        "velocity": 0,
        "channel": 0
      },
      {
        "type": "note_on",
        "time": 0,
        "note": 66,
        "velocity": 0,
        "channel": 0
      },
      {
        "type": "note_on",
        "time": 0,
        "note": 61,
        "velocity": 0,
        "channel": 0
      },
      {
        "type": "note_on",
        "time": 0,
        "note": 49,
        "velocity": 0,
        "channel": 0
      },
      {
        "type": "note_on",
        "time": 0,
        "note": 42,
        "velocity": 0,
        "channel": 0
      },
      {
        "type": "note_on",
        "time": 0,
        "note": 54,
        "velocity": 0,
        "channel": 0
      },
      {
        "type": "note_on",
        "time": 1,
        "note": 66,
        "velocity": 60,
        "channel": 0
      },
      {
        "type": "note_on",
        "time": 0,
        "note": 49,
        "velocity": 60,
        "channel": 0
      },
      {
        "type": "note_on",
        "time": 0,
        "note": 42,
        "velocity": 60,
        "channel": 0
      },
      {
        "type": "note_on",
        "time": 0,
        "note": 58,
        "velocity": 60,
        "channel": 0
      },
      {
        "type": "note_on",
        "time": 0,
        "note": 54,
        "velocity": 60,
        "channel": 0
      },
      {
        "type": "note_on",
        "time": 0,
        "note": 61,
        "velocity": 60,
        "channel": 0
      },
      {
        "type": "note_on",
        "time": 59,
        "note": 66,
        "velocity": 0,
        "channel": 0
      },
      {
        "type": "note_on",
        "time": 0,
        "note": 49,
        "velocity": 0,
        "channel": 0
      },
      {
        "type": "note_on",
        "time": 0,
        "note": 42,
        "velocity": 0,
        "channel": 0
      },
      {
        "type": "note_on",
        "time": 0,
        "note": 58,
        "velocity": 0,
        "channel": 0
      },
      {
        "type": "note_on",
        "time": 0,
        "note": 54,
        "velocity": 0,
        "channel": 0
      },
      {
        "type": "note_on",
        "time": 0,
        "note": 61,
        "velocity": 0,
        "channel": 0
      },
      {
        "type": "note_on",
        "time": 1,
        "note": 61,
        "velocity": 60,
        "channel": 0
      },
      {
        "type": "note_on",
        "time": 0,
        "note": 57,
        "velocity": 60,
        "channel": 0
      },
      {
        "type": "note_on",
        "time": 0,
        "note": 40,
        "velocity": 60,
        "channel": 0
      },
      {
        "type": "note_on",
        "time": 0,
        "note": 45,
        "velocity": 60,
        "channel": 0
      },
      {
        "type": "note_on",
        "time": 0,
        "note": 64,
        "velocity": 60,
        "channel": 0
      },
      {
        "type": "note_on",
        "time": 0,
        "note": 52,
        "velocity": 60,
        "channel": 0
      },
      {
        "type": "note_on",
        "time": 29,
        "note": 61,
        "velocity": 0,
        "channel": 0
      },
      {
        "type": "note_on",
        "time": 0,
        "note": 57,
        "velocity": 0,
        "channel": 0
      },
      {
        "type": "note_on",
        "time": 0,
        "note": 40,
        "velocity": 0,
        "channel": 0
      },
      {
        "type": "note_on",
        "time": 0,
        "note": 45,
        "velocity": 0,
        "channel": 0
      },
      {
        "type": "note_on",
        "time": 0,
        "note": 64,
        "velocity": 0,
        "channel": 0
      },
      {
        "type": "note_on",
        "time": 0,
        "note": 52,
        "velocity": 0,
        "channel": 0
      },
      {
        "type": "note_on",
        "time": 1,
        "note": 57,
        "velocity": 60,
        "channel": 0
      },
      {
        "type": "note_on",
        "time": 0,
        "note": 40,
        "velocity": 60,
        "channel": 0
      },
      {
        "type": "note_on",
        "time": 0,
        "note": 61,
        "velocity": 60,
        "channel": 0
      },
      {
        "type": "note_on",
        "time": 0,
        "note": 52,
        "velocity": 60,
        "channel": 0
      },
      {
        "type": "note_on",
        "time": 0,
        "note": 45,
        "velocity": 60,
        "channel": 0
      },
      {
        "type": "note_on",
        "time": 0,
        "note": 64,
        "velocity": 60,
        "channel": 0
      },
      {
        "type": "note_on",
        "time": 59,
        "note": 57,
        "velocity": 0,
        "channel": 0
      },
      {
        "type": "note_on",
        "time": 0,
        "note": 40,
        "velocity": 0,
        "channel": 0
      },
      {
        "type": "note_on",
        "time": 0,
        "note": 61,
        "velocity": 0,
        "channel": 0
      },
      {
        "type": "note_on",
        "time": 0,
        "note": 52,
        "velocity": 0,
        "channel": 0
      },
      {
        "type": "note_on",
        "time": 0,
        "note": 45,
        "velocity": 0,
        "channel": 0
      },
      {
        "type": "note_on",
        "time": 0,
        "note": 64,
        "velocity": 0,
        "channel": 0
      },
      {
        "type": "note_on",
        "time": 1,
        "note": 45,
        "velocity": 60,
        "channel": 0
      },
      {
        "type": "note_on",
        "time": 0,
        "note": 40,
        "velocity": 60,
        "channel": 0
      },
      {
        "type": "note_on",
        "time": 0,
        "note": 52,
        "velocity": 60,
        "channel": 0
      },
      {
        "type": "note_on",
        "time": 0,
        "note": 57,
        "velocity": 60,
        "channel": 0
      },
      {
        "type": "note_on",
        "time": 0,
        "note": 64,
        "velocity": 60,
        "channel": 0
      },
      {
        "type": "note_on",
        "time": 0,
        "note": 61,
        "velocity": 60,
        "channel": 0
      },
      {
        "type": "note_on",
        "time": 29,
        "note": 45,
        "velocity": 0,
        "channel": 0
      },
      {
        "type": "note_on",
        "time": 0,
        "note": 40,
        "velocity": 0,
        "channel": 0
      },
      {
        "type": "note_on",
        "time": 0,
        "note": 52,
        "velocity": 0,
        "channel": 0
      },
      {
        "type": "note_on",
        "time": 0,
        "note": 57,
        "velocity": 0,
        "channel": 0
      },
      {
        "type": "note_on",
        "time": 0,
        "note": 64,
        "velocity": 0,
        "channel": 0
      },
      {
        "type": "note_on",
        "time": 0,
        "note": 61,
        "velocity": 0,
        "channel": 0
      },
      {
        "type": "note_on",
        "time": 1,
        "note": 57,
        "velocity": 60,
        "channel": 0
      },
      {
        "type": "note_on",
        "time": 0,
        "note": 45,
        "velocity": 60,
        "channel": 0
      },
      {
        "type": "note_on",
        "time": 0,
        "note": 64,
        "velocity": 60,
        "channel": 0
      },
      {
        "type": "note_on",
        "time": 0,
        "note": 52,
        "velocity": 60,
        "channel": 0
      },
      {
        "type": "note_on",
        "time": 0,
        "note": 40,
        "velocity": 60,
        "channel": 0
      },
      {
        "type": "note_on",
        "time": 0,
        "note": 61,
        "velocity": 60,
        "channel": 0
      },
      {
        "type": "note_on",
        "time": 59,
        "note": 57,
        "velocity": 0,
        "channel": 0
      },
      {
        "type": "note_on",
        "time": 0,
        "note": 45,
        "velocity": 0,
        "channel": 0
      },
      {
        "type": "note_on",
        "time": 0,
        "note": 64,
        "velocity": 0,
        "channel": 0
      },
      {
        "type": "note_on",
        "time": 0,
        "note": 52,
        "velocity": 0,
        "channel": 0
      },
      {
        "type": "note_on",
        "time": 0,
        "note": 40,
        "velocity": 0,
        "channel": 0
      },
      {
        "type": "note_on",
        "time": 0,
        "note": 61,
        "velocity": 0,
        "channel": 0
      },
      {
        "type": "note_on",
        "time": 1,
        "note": 40,
        "velocity": 60,
        "channel": 0
      },
      {
        "type": "note_on",
        "time": 0,
        "note": 57,
        "velocity": 60,
        "channel": 0
      },
      {
        "type": "note_on",
        "time": 0,
        "note": 64,
        "velocity": 60,
        "channel": 0
      },
      {
        "type": "note_on",
        "time": 0,
        "note": 52,
        "velocity": 60,
        "channel": 0
      },
      {
        "type": "note_on",
        "time": 0,
        "note": 61,
        "velocity": 60,
        "channel": 0
      },
      {
        "type": "note_on",
        "time": 0,
        "note": 45,
        "velocity": 60,
        "channel": 0
      },
      {
        "type": "note_on",
        "time": 29,
        "note": 40,
        "velocity": 0,
        "channel": 0
      },
      {
        "type": "note_on",
        "time": 0,
        "note": 57,
        "velocity": 0,
        "channel": 0
      },
      {
        "type": "note_on",
        "time": 0,
        "note": 64,
        "velocity": 0,
        "channel": 0
      },
      {
        "type": "note_on",
        "time": 0,
        "note": 52,
        "velocity": 0,
        "channel": 0
      },
      {
        "type": "note_on",
        "time": 0,
        "note": 61,
        "velocity": 0,
        "channel": 0
      },
      {
        "type": "note_on",
        "time": 0,
        "note": 45,
        "velocity": 0,
        "channel": 0
      },
      {
        "type": "note_on",
        "time": 1,
        "note": 61,
        "velocity": 60,
        "channel": 0
      },
      {
        "type": "note_on",
        "time": 0,
        "note": 45,
        "velocity": 60,
        "channel": 0
      },
      {
        "type": "note_on",
        "time": 0,
        "note": 64,
        "velocity": 60,
        "channel": 0
      },
      {
        "type": "note_on",
        "time": 0,
        "note": 40,
        "velocity": 60,
        "channel": 0
      },
      {
        "type": "note_on",
        "time": 0,
        "note": 57,
        "velocity": 60,
        "channel": 0
      },
      {
        "type": "note_on",
        "time": 0,
        "note": 52,
        "velocity": 60,
        "channel": 0
      },
      {
        "type": "note_on",
        "time": 59,
        "note": 61,
        "velocity": 0,
        "channel": 0
      },
      {
        "type": "note_on",
        "time": 0,
        "note": 45,
        "velocity": 0,
        "channel": 0
      },
      {
        "type": "note_on",
        "time": 0,
        "note": 64,
        "velocity": 0,
        "channel": 0
      },
      {
        "type": "note_on",
        "time": 0,
        "note": 40,
        "velocity": 0,
        "channel": 0
      },
      {
        "type": "note_on",
        "time": 0,
        "note": 57,
        "velocity": 0,
        "channel": 0
      },
      {
        "type": "note_on",
        "time": 0,
        "note": 52,
        "velocity": 0,
        "channel": 0
      },
      {
        "type": "note_on",
        "time": 1,
        "note": 64,
        "velocity": 60,
        "channel": 0
      },
      {
        "type": "note_on",
        "time": 0,
        "note": 57,
        "velocity": 60,
        "channel": 0
      },
      {
        "type": "note_on",
        "time": 0,
        "note": 40,
        "velocity": 60,
        "channel": 0
      },
      {
        "type": "note_on",
        "time": 0,
        "note": 61,
        "velocity": 60,
        "channel": 0
      },
      {
        "type": "note_on",
        "time": 0,
        "note": 52,
        "velocity": 60,
        "channel": 0
      },
      {
        "type": "note_on",
        "time": 0,
        "note": 45,
        "velocity": 60,
        "channel": 0
      },
      {
        "type": "note_on",
        "time": 29,
        "note": 64,
        "velocity": 0,
        "channel": 0
      },
      {
        "type": "note_on",
        "time": 0,
        "note": 57,
        "velocity": 0,
        "channel": 0
      },
      {
        "type": "note_on",
        "time": 0,
        "note": 40,
        "velocity": 0,
        "channel": 0
      },
      {
        "type": "note_on",
        "time": 0,
        "note": 61,
        "velocity": 0,
        "channel": 0
      },
      {
        "type": "note_on",
        "time": 0,
        "note": 52,
        "velocity": 0,
        "channel": 0
      },
      {
        "type": "note_on",
        "time": 0,
        "note": 45,
        "velocity": 0,
        "channel": 0
      },
      {
        "type": "note_on",
        "time": 1,
        "note": 57,
        "velocity": 60,
        "channel": 0
      },
      {
        "type": "note_on",
        "time": 0,
        "note": 40,
        "velocity": 60,
        "channel": 0
      },
      {
        "type": "note_on",
        "time": 0,
        "note": 52,
        "velocity": 60,
        "channel": 0
      },
      {
        "type": "note_on",
        "time": 0,
        "note": 64,
        "velocity": 60,
        "channel": 0
      },
      {
        "type": "note_on",
        "time": 0,
        "note": 61,
        "velocity": 60,
        "channel": 0
      },
      {
        "type": "note_on",
        "time": 0,
        "note": 45,
        "velocity": 60,
        "channel": 0
      },
      {
        "type": "note_on",
        "time": 59,
        "note": 57,
        "velocity": 0,
        "channel": 0
      },
      {
        "type": "note_on",
        "time": 0,
        "note": 40,
        "velocity": 0,
        "channel": 0
      },
      {
        "type": "note_on",
        "time": 0,
        "note": 52,
        "velocity": 0,
        "channel": 0
      },
      {
        "type": "note_on",
        "time": 0,
        "note": 64,
        "velocity": 0,
        "channel": 0
      },
      {
        "type": "note_on",
        "time": 0,
        "note": 61,
        "velocity": 0,
        "channel": 0
      },
      {
        "type": "note_on",
        "time": 0,
        "note": 45,
        "velocity": 0,
        "channel": 0
      },
      {
        "type": "note_on",
        "time": 1,
        "note": 57,
        "velocity": 60,
        "channel": 0
      },
      {
        "type": "note_on",
        "time": 0,
        "note": 61,
        "velocity": 60,
        "channel": 0
      },
      {
        "type": "note_on",
        "time": 0,
        "note": 45,
        "velocity": 60,
        "channel": 0
      },
      {
        "type": "note_on",
        "time": 0,
        "note": 64,
        "velocity": 60,
        "channel": 0
      },
      {
        "type": "note_on",
        "time": 0,
        "note": 40,
        "velocity": 60,
        "channel": 0
      },
      {
        "type": "note_on",
        "time": 0,
        "note": 52,
        "velocity": 60,
        "channel": 0
      },
      {
        "type": "note_on",
        "time": 59,
        "note": 57,
        "velocity": 0,
        "channel": 0
      },
      {
        "type": "note_on",
        "time": 0,
        "note": 61,
        "velocity": 0,
        "channel": 0
      },
      {
        "type": "note_on",
        "time": 0,
        "note": 45,
        "velocity": 0,
        "channel": 0
      },
      {
        "type": "note_on",
        "time": 0,
        "note": 64,
        "velocity": 0,
        "channel": 0
      },
      {
        "type": "note_on",
        "time": 0,
        "note": 40,
        "velocity": 0,
        "channel": 0
      },
      {
        "type": "note_on",
        "time": 0,
        "note": 52,
        "velocity": 0,
        "channel": 0
      },
      {
        "type": "note_on",
        "time": 1,
        "note": 45,
        "velocity": 60,
        "channel": 0
      },
      {
        "type": "note_on",
        "time": 0,
        "note": 40,
        "velocity": 60,
        "channel": 0
      },
      {
        "type": "note_on",
        "time": 0,
        "note": 57,
        "velocity": 60,
        "channel": 0
      },
      {
        "type": "note_on",
        "time": 0,
        "note": 64,
        "velocity": 60,
        "channel": 0
      },
      {
        "type": "note_on",
        "time": 0,
        "note": 52,
        "velocity": 60,
        "channel": 0
      },
      {
        "type": "note_on",
        "time": 0,
        "note": 61,
        "velocity": 60,
        "channel": 0
      },
      {
        "type": "note_on",
        "time": 59,
        "note": 45,
        "velocity": 0,
        "channel": 0
      },
      {
        "type": "note_on",
        "time": 0,
        "note": 40,
        "velocity": 0,
        "channel": 0
      },
      {
        "type": "note_on",
        "time": 0,
        "note": 57,
        "velocity": 0,
        "channel": 0
      },
      {
        "type": "note_on",
        "time": 0,
        "note": 64,
        "velocity": 0,
        "channel": 0
      },
      {
        "type": "note_on",
        "time": 0,
        "note": 52,
        "velocity": 0,
        "channel": 0
      },
      {
        "type": "note_on",
        "time": 0,
        "note": 61,
        "velocity": 0,
        "channel": 0
      },
      {
        "type": "note_on",
        "time": 1,
        "note": 59,
        "velocity": 60,
        "channel": 0
      },
      {
        "type": "note_on",
        "time": 0,
        "note": 56,
        "velocity": 60,
        "channel": 0
      },
      {
        "type": "note_on",
        "time": 0,
        "note": 52,
        "velocity": 60,
        "channel": 0
      },
      {
        "type": "note_on",
        "time": 0,
        "note": 40,
        "velocity": 60,
        "channel": 0
      },
      {
        "type": "note_on",
        "time": 0,
        "note": 47,
        "velocity": 60,
        "channel": 0
      },
      {
        "type": "note_on",
        "time": 0,
        "note": 64,
        "velocity": 60,
        "channel": 0
      },
      {
        "type": "note_on",
        "time": 29,
        "note": 59,
        "velocity": 0,
        "channel": 0
      },
      {
        "type": "note_on",
        "time": 0,
        "note": 56,
        "velocity": 0,
        "channel": 0
      },
      {
        "type": "note_on",
        "time": 0,
        "note": 52,
        "velocity": 0,
        "channel": 0
      },
      {
        "type": "note_on",
        "time": 0,
        "note": 40,
        "velocity": 0,
        "channel": 0
      },
      {
        "type": "note_on",
        "time": 0,
        "note": 47,
        "velocity": 0,
        "channel": 0
      },
      {
        "type": "note_on",
        "time": 0,
        "note": 64,
        "velocity": 0,
        "channel": 0
      },
      {
        "type": "note_on",
        "time": 1,
        "note": 56,
        "velocity": 60,
        "channel": 0
      },
      {
        "type": "note_on",
        "time": 0,
        "note": 40,
        "velocity": 60,
        "channel": 0
      },
      {
        "type": "note_on",
        "time": 0,
        "note": 47,
        "velocity": 60,
        "channel": 0
      },
      {
        "type": "note_on",
        "time": 0,
        "note": 59,
        "velocity": 60,
        "channel": 0
      },
      {
        "type": "note_on",
        "time": 0,
        "note": 52,
        "velocity": 60,
        "channel": 0
      },
      {
        "type": "note_on",
        "time": 0,
        "note": 64,
        "velocity": 60,
        "channel": 0
      },
      {
        "type": "note_on",
        "time": 59,
        "note": 56,
        "velocity": 0,
        "channel": 0
      },
      {
        "type": "note_on",
        "time": 0,
        "note": 40,
        "velocity": 0,
        "channel": 0
      },
      {
        "type": "note_on",
        "time": 0,
        "note": 47,
        "velocity": 0,
        "channel": 0
      },
      {
        "type": "note_on",
        "time": 0,
        "note": 59,
        "velocity": 0,
        "channel": 0
      },
      {
        "type": "note_on",
        "time": 0,
        "note": 52,
        "velocity": 0,
        "channel": 0
      },
      {
        "type": "note_on",
        "time": 0,
        "note": 64,
        "velocity": 0,
        "channel": 0
      },
      {
        "type": "note_on",
        "time": 1,
        "note": 64,
        "velocity": 60,
        "channel": 0
      },
      {
        "type": "note_on",
        "time": 0,
        "note": 56,
        "velocity": 60,
        "channel": 0
      },
      {
        "type": "note_on",
        "time": 0,
        "note": 47,
        "velocity": 60,
        "channel": 0
      },
      {
        "type": "note_on",
        "time": 0,
        "note": 52,
        "velocity": 60,
        "channel": 0
      },
      {
        "type": "note_on",
        "time": 0,
        "note": 40,
        "velocity": 60,
        "channel": 0
      },
      {
        "type": "note_on",
        "time": 0,
        "note": 59,
        "velocity": 60,
        "channel": 0
      },
      {
        "type": "note_on",
        "time": 29,
        "note": 64,
        "velocity": 0,
        "channel": 0
      },
      {
        "type": "note_on",
        "time": 0,
        "note": 56,
        "velocity": 0,
        "channel": 0
      },
      {
        "type": "note_on",
        "time": 0,
        "note": 47,
        "velocity": 0,
        "channel": 0
      },
      {
        "type": "note_on",
        "time": 0,
        "note": 52,
        "velocity": 0,
        "channel": 0
      },
      {
        "type": "note_on",
        "time": 0,
        "note": 40,
        "velocity": 0,
        "channel": 0
      },
      {
        "type": "note_on",
        "time": 0,
        "note": 59,
        "velocity": 0,
        "channel": 0
      },
      {
        "type": "note_on",
        "time": 1,
        "note": 40,
        "velocity": 60,
        "channel": 0
      },
      {
        "type": "note_on",
        "time": 0,
        "note": 59,
        "velocity": 60,
        "channel": 0
      },
      {
        "type": "note_on",
        "time": 0,
        "note": 52,
        "velocity": 60,
        "channel": 0
      },
      {
        "type": "note_on",
        "time": 0,
        "note": 47,
        "velocity": 60,
        "channel": 0
      },
      {
        "type": "note_on",
        "time": 0,
        "note": 56,
        "velocity": 60,
        "channel": 0
      },
      {
        "type": "note_on",
        "time": 0,
        "note": 64,
        "velocity": 60,
        "channel": 0
      },
      {
        "type": "note_on",
        "time": 59,
        "note": 40,
        "velocity": 0,
        "channel": 0
      },
      {
        "type": "note_on",
        "time": 0,
        "note": 59,
        "velocity": 0,
        "channel": 0
      },
      {
        "type": "note_on",
        "time": 0,
        "note": 52,
        "velocity": 0,
        "channel": 0
      },
      {
        "type": "note_on",
        "time": 0,
        "note": 47,
        "velocity": 0,
        "channel": 0
      },
      {
        "type": "note_on",
        "time": 0,
        "note": 56,
        "velocity": 0,
        "channel": 0
      },
      {
        "type": "note_on",
        "time": 0,
        "note": 64,
        "velocity": 0,
        "channel": 0
      },
      {
        "type": "note_on",
        "time": 1,
        "note": 40,
        "velocity": 60,
        "channel": 0
      },
      {
        "type": "note_on",
        "time": 0,
        "note": 52,
        "velocity": 60,
        "channel": 0
      },
      {
        "type": "note_on",
        "time": 0,
        "note": 56,
        "velocity": 60,
        "channel": 0
      },
      {
        "type": "note_on",
        "time": 0,
        "note": 47,
        "velocity": 60,
        "channel": 0
      },
      {
        "type": "note_on",
        "time": 0,
        "note": 64,
        "velocity": 60,
        "channel": 0
      },
      {
        "type": "note_on",
        "time": 0,
        "note": 59,
        "velocity": 60,
        "channel": 0
      },
      {
        "type": "note_on",
        "time": 29,
        "note": 40,
        "velocity": 0,
        "channel": 0
      },
      {
        "type": "note_on",
        "time": 0,
        "note": 52,
        "velocity": 0,
        "channel": 0
      },
      {
        "type": "note_on",
        "time": 0,
        "note": 56,
        "velocity": 0,
        "channel": 0
      },
      {
        "type": "note_on",
        "time": 0,
        "note": 47,
        "velocity": 0,
        "channel": 0
      },
      {
        "type": "note_on",
        "time": 0,
        "note": 64,
        "velocity": 0,
        "channel": 0
      },
      {
        "type": "note_on",
        "time": 0,
        "note": 59,
        "velocity": 0,
        "channel": 0
      },
      {
        "type": "note_on",
        "time": 1,
        "note": 64,
        "velocity": 60,
        "channel": 0
      },
      {
        "type": "note_on",
        "time": 0,
        "note": 59,
        "velocity": 60,
        "channel": 0
      },
      {
        "type": "note_on",
        "time": 0,
        "note": 56,
        "velocity": 60,
        "channel": 0
      },
      {
        "type": "note_on",
        "time": 0,
        "note": 47,
        "velocity": 60,
        "channel": 0
      },
      {
        "type": "note_on",
        "time": 0,
        "note": 40,
        "velocity": 60,
        "channel": 0
      },
      {
        "type": "note_on",
        "time": 0,
        "note": 52,
        "velocity": 60,
        "channel": 0
      },
      {
        "type": "note_on",
        "time": 59,
        "note": 64,
        "velocity": 0,
        "channel": 0
      },
      {
        "type": "note_on",
        "time": 0,
        "note": 59,
        "velocity": 0,
        "channel": 0
      },
      {
        "type": "note_on",
        "time": 0,
        "note": 56,
        "velocity": 0,
        "channel": 0
      },
      {
        "type": "note_on",
        "time": 0,
        "note": 47,
        "velocity": 0,
        "channel": 0
      },
      {
        "type": "note_on",
        "time": 0,
        "note": 40,
        "velocity": 0,
        "channel": 0
      },
      {
        "type": "note_on",
        "time": 0,
        "note": 52,
        "velocity": 0,
        "channel": 0
      },
      {
        "type": "note_on",
        "time": 1,
        "note": 52,
        "velocity": 60,
        "channel": 0
      },
      {
        "type": "note_on",
        "time": 0,
        "note": 47,
        "velocity": 60,
        "channel": 0
      },
      {
        "type": "note_on",
        "time": 0,
        "note": 59,
        "velocity": 60,
        "channel": 0
      },
      {
        "type": "note_on",
        "time": 0,
        "note": 64,
        "velocity": 60,
        "channel": 0
      },
      {
        "type": "note_on",
        "time": 0,
        "note": 40,
        "velocity": 60,
        "channel": 0
      },
      {
        "type": "note_on",
        "time": 0,
        "note": 56,
        "velocity": 60,
        "channel": 0
      },
      {
        "type": "note_on",
        "time": 29,
        "note": 52,
        "velocity": 0,
        "channel": 0
      },
      {
        "type": "note_on",
        "time": 0,
        "note": 47,
        "velocity": 0,
        "channel": 0
      },
      {
        "type": "note_on",
        "time": 0,
        "note": 59,
        "velocity": 0,
        "channel": 0
      },
      {
        "type": "note_on",
        "time": 0,
        "note": 64,
        "velocity": 0,
        "channel": 0
      },
      {
        "type": "note_on",
        "time": 0,
        "note": 40,
        "velocity": 0,
        "channel": 0
      },
      {
        "type": "note_on",
        "time": 0,
        "note": 56,
        "velocity": 0,
        "channel": 0
      },
      {
        "type": "note_on",
        "time": 1,
        "note": 56,
        "velocity": 60,
        "channel": 0
      },
      {
        "type": "note_on",
        "time": 0,
        "note": 47,
        "velocity": 60,
        "channel": 0
      },
      {
        "type": "note_on",
        "time": 0,
        "note": 59,
        "velocity": 60,
        "channel": 0
      },
      {
        "type": "note_on",
        "time": 0,
        "note": 52,
        "velocity": 60,
        "channel": 0
      },
      {
        "type": "note_on",
        "time": 0,
        "note": 40,
        "velocity": 60,
        "channel": 0
      },
      {
        "type": "note_on",
        "time": 0,
        "note": 64,
        "velocity": 60,
        "channel": 0
      },
      {
        "type": "note_on",
        "time": 59,
        "note": 56,
        "velocity": 0,
        "channel": 0
      },
      {
        "type": "note_on",
        "time": 0,
        "note": 47,
        "velocity": 0,
        "channel": 0
      },
      {
        "type": "note_on",
        "time": 0,
        "note": 59,
        "velocity": 0,
        "channel": 0
      },
      {
        "type": "note_on",
        "time": 0,
        "note": 52,
        "velocity": 0,
        "channel": 0
      },
      {
        "type": "note_on",
        "time": 0,
        "note": 40,
        "velocity": 0,
        "channel": 0
      },
      {
        "type": "note_on",
        "time": 0,
        "note": 64,
        "velocity": 0,
        "channel": 0
      },
      {
        "type": "note_on",
        "time": 1,
        "note": 56,
        "velocity": 60,
        "channel": 0
      },
      {
        "type": "note_on",
        "time": 0,
        "note": 64,
        "velocity": 60,
        "channel": 0
      },
      {
        "type": "note_on",
        "time": 0,
        "note": 59,
        "velocity": 60,
        "channel": 0
      },
      {
        "type": "note_on",
        "time": 0,
        "note": 47,
        "velocity": 60,
        "channel": 0
      },
      {
        "type": "note_on",
        "time": 0,
        "note": 40,
        "velocity": 60,
        "channel": 0
      },
      {
        "type": "note_on",
        "time": 0,
        "note": 52,
        "velocity": 60,
        "channel": 0
      },
      {
        "type": "note_on",
        "time": 59,
        "note": 56,
        "velocity": 0,
        "channel": 0
      },
      {
        "type": "note_on",
        "time": 0,
        "note": 64,
        "velocity": 0,
        "channel": 0
      },
      {
        "type": "note_on",
        "time": 0,
        "note": 59,
        "velocity": 0,
        "channel": 0
      },
      {
        "type": "note_on",
        "time": 0,
        "note": 47,
        "velocity": 0,
        "channel": 0
      },
      {
        "type": "note_on",
        "time": 0,
        "note": 40,
        "velocity": 0,
        "channel": 0
      },
      {
        "type": "note_on",
        "time": 0,
        "note": 52,
        "velocity": 0,
        "channel": 0
      },
      {
        "type": "note_on",
        "time": 1,
        "note": 64,
        "velocity": 60,
        "channel": 0
      },
      {
        "type": "note_on",
        "time": 0,
        "note": 47,
        "velocity": 60,
        "channel": 0
      },
      {
        "type": "note_on",
        "time": 0,
        "note": 40,
        "velocity": 60,
        "channel": 0
      },
      {
        "type": "note_on",
        "time": 0,
        "note": 56,
        "velocity": 60,
        "channel": 0
      },
      {
        "type": "note_on",
        "time": 0,
        "note": 52,
        "velocity": 60,
        "channel": 0
      },
      {
        "type": "note_on",
        "time": 0,
        "note": 59,
        "velocity": 60,
        "channel": 0
      },
      {
        "type": "note_on",
        "time": 59,
        "note": 64,
        "velocity": 0,
        "channel": 0
      },
      {
        "type": "note_on",
        "time": 0,
        "note": 47,
        "velocity": 0,
        "channel": 0
      },
      {
        "type": "note_on",
        "time": 0,
        "note": 40,
        "velocity": 0,
        "channel": 0
      },
      {
        "type": "note_on",
        "time": 0,
        "note": 56,
        "velocity": 0,
        "channel": 0
      },
      {
        "type": "note_on",
        "time": 0,
        "note": 52,
        "velocity": 0,
        "channel": 0
      },
      {
        "type": "note_on",
        "time": 0,
        "note": 59,
        "velocity": 0,
        "channel": 0
      },
      {
        "type": "note_on",
        "time": 1,
        "note": 62,
        "velocity": 60,
        "channel": 0
      },
      {
        "type": "note_on",
        "time": 0,
        "note": 59,
        "velocity": 60,
        "channel": 0
      },
      {
        "type": "note_on",
        "time": 0,
        "note": 43,
        "velocity": 60,
        "channel": 0
      },
      {
        "type": "note_on",
        "time": 0,
        "note": 47,
        "velocity": 60,
        "channel": 0
      },
      {
        "type": "note_on",
        "time": 0,
        "note": 67,
        "velocity": 60,
        "channel": 0
      },
      {
        "type": "note_on",
        "time": 0,
        "note": 55,
        "velocity": 60,
        "channel": 0
      },
      {
        "type": "note_on",
        "time": 29,
        "note": 62,
        "velocity": 0,
        "channel": 0
      },
      {
        "type": "note_on",
        "time": 0,
        "note": 59,
        "velocity": 0,
        "channel": 0
      },
      {
        "type": "note_on",
        "time": 0,
        "note": 43,
        "velocity": 0,
        "channel": 0
      },
      {
        "type": "note_on",
        "time": 0,
        "note": 47,
        "velocity": 0,
        "channel": 0
      },
      {
        "type": "note_on",
        "time": 0,
        "note": 67,
        "velocity": 0,
        "channel": 0
      },
      {
        "type": "note_on",
        "time": 0,
        "note": 55,
        "velocity": 0,
        "channel": 0
      },
      {
        "type": "note_on",
        "time": 1,
        "note": 59,
        "velocity": 60,
        "channel": 0
      },
      {
        "type": "note_on",
        "time": 0,
        "note": 43,
        "velocity": 60,
        "channel": 0
      },
      {
        "type": "note_on",
        "time": 0,
        "note": 62,
        "velocity": 60,
        "channel": 0
      },
      {
        "type": "note_on",
        "time": 0,
        "note": 55,
        "velocity": 60,
        "channel": 0
      },
      {
        "type": "note_on",
        "time": 0,
        "note": 47,
        "velocity": 60,
        "channel": 0
      },
      {
        "type": "note_on",
        "time": 0,
        "note": 67,
        "velocity": 60,
        "channel": 0
      },
      {
        "type": "note_on",
        "time": 59,
        "note": 59,
        "velocity": 0,
        "channel": 0
      },
      {
        "type": "note_on",
        "time": 0,
        "note": 43,
        "velocity": 0,
        "channel": 0
      },
      {
        "type": "note_on",
        "time": 0,
        "note": 62,
        "velocity": 0,
        "channel": 0
      },
      {
        "type": "note_on",
        "time": 0,
        "note": 55,
        "velocity": 0,
        "channel": 0
      },
      {
        "type": "note_on",
        "time": 0,
        "note": 47,
        "velocity": 0,
        "channel": 0
      },
      {
        "type": "note_on",
        "time": 0,
        "note": 67,
        "velocity": 0,
        "channel": 0
      },
      {
        "type": "note_on",
        "time": 1,
        "note": 47,
        "velocity": 60,
        "channel": 0
      },
      {
        "type": "note_on",
        "time": 0,
        "note": 43,
        "velocity": 60,
        "channel": 0
      },
      {
        "type": "note_on",
        "time": 0,
        "note": 55,
        "velocity": 60,
        "channel": 0
      },
      {
        "type": "note_on",
        "time": 0,
        "note": 59,
        "velocity": 60,
        "channel": 0
      },
      {
        "type": "note_on",
        "time": 0,
        "note": 67,
        "velocity": 60,
        "channel": 0
      },
      {
        "type": "note_on",
        "time": 0,
        "note": 62,
        "velocity": 60,
        "channel": 0
      },
      {
        "type": "note_on",
        "time": 29,
        "note": 47,
        "velocity": 0,
        "channel": 0
      },
      {
        "type": "note_on",
        "time": 0,
        "note": 43,
        "velocity": 0,
        "channel": 0
      },
      {
        "type": "note_on",
        "time": 0,
        "note": 55,
        "velocity": 0,
        "channel": 0
      },
      {
        "type": "note_on",
        "time": 0,
        "note": 59,
        "velocity": 0,
        "channel": 0
      },
      {
        "type": "note_on",
        "time": 0,
        "note": 67,
        "velocity": 0,
        "channel": 0
      },
      {
        "type": "note_on",
        "time": 0,
        "note": 62,
        "velocity": 0,
        "channel": 0
      },
      {
        "type": "note_on",
        "time": 1,
        "note": 59,
        "velocity": 60,
        "channel": 0
      },
      {
        "type": "note_on",
        "time": 0,
        "note": 47,
        "velocity": 60,
        "channel": 0
      },
      {
        "type": "note_on",
        "time": 0,
        "note": 67,
        "velocity": 60,
        "channel": 0
      },
      {
        "type": "note_on",
        "time": 0,
        "note": 55,
        "velocity": 60,
        "channel": 0
      },
      {
        "type": "note_on",
        "time": 0,
        "note": 43,
        "velocity": 60,
        "channel": 0
      },
      {
        "type": "note_on",
        "time": 0,
        "note": 62,
        "velocity": 60,
        "channel": 0
      },
      {
        "type": "note_on",
        "time": 59,
        "note": 59,
        "velocity": 0,
        "channel": 0
      },
      {
        "type": "note_on",
        "time": 0,
        "note": 47,
        "velocity": 0,
        "channel": 0
      },
      {
        "type": "note_on",
        "time": 0,
        "note": 67,
        "velocity": 0,
        "channel": 0
      },
      {
        "type": "note_on",
        "time": 0,
        "note": 55,
        "velocity": 0,
        "channel": 0
      },
      {
        "type": "note_on",
        "time": 0,
        "note": 43,
        "velocity": 0,
        "channel": 0
      },
      {
        "type": "note_on",
        "time": 0,
        "note": 62,
        "velocity": 0,
        "channel": 0
      },
      {
        "type": "note_on",
        "time": 1,
        "note": 43,
        "velocity": 60,
        "channel": 0
      },
      {
        "type": "note_on",
        "time": 0,
        "note": 59,
        "velocity": 60,
        "channel": 0
      },
      {
        "type": "note_on",
        "time": 0,
        "note": 67,
        "velocity": 60,
        "channel": 0
      },
      {
        "type": "note_on",
        "time": 0,
        "note": 55,
        "velocity": 60,
        "channel": 0
      },
      {
        "type": "note_on",
        "time": 0,
        "note": 62,
        "velocity": 60,
        "channel": 0
      },
      {
        "type": "note_on",
        "time": 0,
        "note": 47,
        "velocity": 60,
        "channel": 0
      },
      {
        "type": "note_on",
        "time": 29,
        "note": 43,
        "velocity": 0,
        "channel": 0
      },
      {
        "type": "note_on",
        "time": 0,
        "note": 59,
        "velocity": 0,
        "channel": 0
      },
      {
        "type": "note_on",
        "time": 0,
        "note": 67,
        "velocity": 0,
        "channel": 0
      },
      {
        "type": "note_on",
        "time": 0,
        "note": 55,
        "velocity": 0,
        "channel": 0
      },
      {
        "type": "note_on",
        "time": 0,
        "note": 62,
        "velocity": 0,
        "channel": 0
      },
      {
        "type": "note_on",
        "time": 0,
        "note": 47,
        "velocity": 0,
        "channel": 0
      },
      {
        "type": "note_on",
        "time": 1,
        "note": 62,
        "velocity": 60,
        "channel": 0
      },
      {
        "type": "note_on",
        "time": 0,
        "note": 47,
        "velocity": 60,
        "channel": 0
      },
      {
        "type": "note_on",
        "time": 0,
        "note": 67,
        "velocity": 60,
        "channel": 0
      },
      {
        "type": "note_on",
        "time": 0,
        "note": 43,
        "velocity": 60,
        "channel": 0
      },
      {
        "type": "note_on",
        "time": 0,
        "note": 59,
        "velocity": 60,
        "channel": 0
      },
      {
        "type": "note_on",
        "time": 0,
        "note": 55,
        "velocity": 60,
        "channel": 0
      },
      {
        "type": "note_on",
        "time": 59,
        "note": 62,
        "velocity": 0,
        "channel": 0
      },
      {
        "type": "note_on",
        "time": 0,
        "note": 47,
        "velocity": 0,
        "channel": 0
      },
      {
        "type": "note_on",
        "time": 0,
        "note": 67,
        "velocity": 0,
        "channel": 0
      },
      {
        "type": "note_on",
        "time": 0,
        "note": 43,
        "velocity": 0,
        "channel": 0
      },
      {
        "type": "note_on",
        "time": 0,
        "note": 59,
        "velocity": 0,
        "channel": 0
      },
      {
        "type": "note_on",
        "time": 0,
        "note": 55,
        "velocity": 0,
        "channel": 0
      },
      {
        "type": "note_on",
        "time": 1,
        "note": 67,
        "velocity": 60,
        "channel": 0
      },
      {
        "type": "note_on",
        "time": 0,
        "note": 59,
        "velocity": 60,
        "channel": 0
      },
      {
        "type": "note_on",
        "time": 0,
        "note": 43,
        "velocity": 60,
        "channel": 0
      },
      {
        "type": "note_on",
        "time": 0,
        "note": 62,
        "velocity": 60,
        "channel": 0
      },
      {
        "type": "note_on",
        "time": 0,
        "note": 55,
        "velocity": 60,
        "channel": 0
      },
      {
        "type": "note_on",
        "time": 0,
        "note": 47,
        "velocity": 60,
        "channel": 0
      },
      {
        "type": "note_on",
        "time": 29,
        "note": 67,
        "velocity": 0,
        "channel": 0
      },
      {
        "type": "note_on",
        "time": 0,
        "note": 59,
        "velocity": 0,
        "channel": 0
      },
      {
        "type": "note_on",
        "time": 0,
        "note": 43,
        "velocity": 0,
        "channel": 0
      },
      {
        "type": "note_on",
        "time": 0,
        "note": 62,
        "velocity": 0,
        "channel": 0
      },
      {
        "type": "note_on",
        "time": 0,
        "note": 55,
        "velocity": 0,
        "channel": 0
      },
      {
        "type": "note_on",
        "time": 0,
        "note": 47,
        "velocity": 0,
        "channel": 0
      },
      {
        "type": "note_on",
        "time": 1,
        "note": 59,
        "velocity": 60,
        "channel": 0
      },
      {
        "type": "note_on",
        "time": 0,
        "note": 43,
        "velocity": 60,
        "channel": 0
      },
      {
        "type": "note_on",
        "time": 0,
        "note": 55,
        "velocity": 60,
        "channel": 0
      },
      {
        "type": "note_on",
        "time": 0,
        "note": 67,
        "velocity": 60,
        "channel": 0
      },
      {
        "type": "note_on",
        "time": 0,
        "note": 62,
        "velocity": 60,
        "channel": 0
      },
      {
        "type": "note_on",
        "time": 0,
        "note": 47,
        "velocity": 60,
        "channel": 0
      },
      {
        "type": "note_on",
        "time": 59,
        "note": 59,
        "velocity": 0,
        "channel": 0
      },
      {
        "type": "note_on",
        "time": 0,
        "note": 43,
        "velocity": 0,
        "channel": 0
      },
      {
        "type": "note_on",
        "time": 0,
        "note": 55,
        "velocity": 0,
        "channel": 0
      },
      {
        "type": "note_on",
        "time": 0,
        "note": 67,
        "velocity": 0,
        "channel": 0
      },
      {
        "type": "note_on",
        "time": 0,
        "note": 62,
        "velocity": 0,
        "channel": 0
      },
      {
        "type": "note_on",
        "time": 0,
        "note": 47,
        "velocity": 0,
        "channel": 0
      },
      {
        "type": "note_on",
        "time": 1,
        "note": 59,
        "velocity": 60,
        "channel": 0
      },
      {
        "type": "note_on",
        "time": 0,
        "note": 62,
        "velocity": 60,
        "channel": 0
      },
      {
        "type": "note_on",
        "time": 0,
        "note": 47,
        "velocity": 60,
        "channel": 0
      },
      {
        "type": "note_on",
        "time": 0,
        "note": 67,
        "velocity": 60,
        "channel": 0
      },
      {
        "type": "note_on",
        "time": 0,
        "note": 43,
        "velocity": 60,
        "channel": 0
      },
      {
        "type": "note_on",
        "time": 0,
        "note": 55,
        "velocity": 60,
        "channel": 0
      },
      {
        "type": "note_on",
        "time": 59,
        "note": 59,
        "velocity": 0,
        "channel": 0
      },
      {
        "type": "note_on",
        "time": 0,
        "note": 62,
        "velocity": 0,
        "channel": 0
      },
      {
        "type": "note_on",
        "time": 0,
        "note": 47,
        "velocity": 0,
        "channel": 0
      },
      {
        "type": "note_on",
        "time": 0,
        "note": 67,
        "velocity": 0,
        "channel": 0
      },
      {
        "type": "note_on",
        "time": 0,
        "note": 43,
        "velocity": 0,
        "channel": 0
      },
      {
        "type": "note_on",
        "time": 0,
        "note": 55,
        "velocity": 0,
        "channel": 0
      },
      {
        "type": "note_on",
        "time": 1,
        "note": 47,
        "velocity": 60,
        "channel": 0
      },
      {
        "type": "note_on",
        "time": 0,
        "note": 43,
        "velocity": 60,
        "channel": 0
      },
      {
        "type": "note_on",
        "time": 0,
        "note": 59,
        "velocity": 60,
        "channel": 0
      },
      {
        "type": "note_on",
        "time": 0,
        "note": 67,
        "velocity": 60,
        "channel": 0
      },
      {
        "type": "note_on",
        "time": 0,
        "note": 55,
        "velocity": 60,
        "channel": 0
      },
      {
        "type": "note_on",
        "time": 0,
        "note": 62,
        "velocity": 60,
        "channel": 0
      },
      {
        "type": "note_on",
        "time": 59,
        "note": 47,
        "velocity": 0,
        "channel": 0
      },
      {
        "type": "note_on",
        "time": 0,
        "note": 43,
        "velocity": 0,
        "channel": 0
      },
      {
        "type": "note_on",
        "time": 0,
        "note": 59,
        "velocity": 0,
        "channel": 0
      },
      {
        "type": "note_on",
        "time": 0,
        "note": 67,
        "velocity": 0,
        "channel": 0
      },
      {
        "type": "note_on",
        "time": 0,
        "note": 55,
        "velocity": 0,
        "channel": 0
      },
      {
        "type": "note_on",
        "time": 0,
        "note": 62,
        "velocity": 0,
        "channel": 0
      },
      {
        "type": "note_on",
        "time": 1,
        "note": 66,
        "velocity": 60,
        "channel": 0
      },
      {
        "type": "note_on",
        "time": 0,
        "note": 62,
        "velocity": 60,
        "channel": 0
      },
      {
        "type": "note_on",
        "time": 0,
        "note": 57,
        "velocity": 60,
        "channel": 0
      },
      {
        "type": "note_on",
        "time": 0,
        "note": 45,
        "velocity": 60,
        "channel": 0
      },
      {
        "type": "note_on",
        "time": 0,
        "note": 50,
        "velocity": 60,
        "channel": 0
      },
      {
        "type": "note_on",
        "time": 0,
        "note": 69,
        "velocity": 60,
        "channel": 0
      },
      {
        "type": "note_on",
        "time": 29,
        "note": 66,
        "velocity": 0,
        "channel": 0
      },
      {
        "type": "note_on",
        "time": 0,
        "note": 62,
        "velocity": 0,
        "channel": 0
      },
      {
        "type": "note_on",
        "time": 0,
        "note": 57,
        "velocity": 0,
        "channel": 0
      },
      {
        "type": "note_on",
        "time": 0,
        "note": 45,
        "velocity": 0,
        "channel": 0
      },
      {
        "type": "note_on",
        "time": 0,
        "note": 50,
        "velocity": 0,
        "channel": 0
      },
      {
        "type": "note_on",
        "time": 0,
        "note": 69,
        "velocity": 0,
        "channel": 0
      },
      {
        "type": "note_on",
        "time": 1,
        "note": 62,
        "velocity": 60,
        "channel": 0
      },
      {
        "type": "note_on",
        "time": 0,
        "note": 45,
        "velocity": 60,
        "channel": 0
      },
      {
        "type": "note_on",
        "time": 0,
        "note": 50,
        "velocity": 60,
        "channel": 0
      },
      {
        "type": "note_on",
        "time": 0,
        "note": 66,
        "velocity": 60,
        "channel": 0
      },
      {
        "type": "note_on",
        "time": 0,
        "note": 57,
        "velocity": 60,
        "channel": 0
      },
      {
        "type": "note_on",
        "time": 0,
        "note": 69,
        "velocity": 60,
        "channel": 0
      },
      {
        "type": "note_on",
        "time": 59,
        "note": 62,
        "velocity": 0,
        "channel": 0
      },
      {
        "type": "note_on",
        "time": 0,
        "note": 45,
        "velocity": 0,
        "channel": 0
      },
      {
        "type": "note_on",
        "time": 0,
        "note": 50,
        "velocity": 0,
        "channel": 0
      },
      {
        "type": "note_on",
        "time": 0,
        "note": 66,
        "velocity": 0,
        "channel": 0
      },
      {
        "type": "note_on",
        "time": 0,
        "note": 57,
        "velocity": 0,
        "channel": 0
      },
      {
        "type": "note_on",
        "time": 0,
        "note": 69,
        "velocity": 0,
        "channel": 0
      },
      {
        "type": "note_on",
        "time": 1,
        "note": 69,
        "velocity": 60,
        "channel": 0
      },
      {
        "type": "note_on",
        "time": 0,
        "note": 62,
        "velocity": 60,
        "channel": 0
      },
      {
        "type": "note_on",
        "time": 0,
        "note": 50,
        "velocity": 60,
        "channel": 0
      },
      {
        "type": "note_on",
        "time": 0,
        "note": 57,
        "velocity": 60,
        "channel": 0
      },
      {
        "type": "note_on",
        "time": 0,
        "note": 45,
        "velocity": 60,
        "channel": 0
      },
      {
        "type": "note_on",
        "time": 0,
        "note": 66,
        "velocity": 60,
        "channel": 0
      },
      {
        "type": "note_on",
        "time": 29,
        "note": 69,
        "velocity": 0,
        "channel": 0
      },
      {
        "type": "note_on",
        "time": 0,
        "note": 62,
        "velocity": 0,
        "channel": 0
      },
      {
        "type": "note_on",
        "time": 0,
        "note": 50,
        "velocity": 0,
        "channel": 0
      },
      {
        "type": "note_on",
        "time": 0,
        "note": 57,
        "velocity": 0,
        "channel": 0
      },
      {
        "type": "note_on",
        "time": 0,
        "note": 45,
        "velocity": 0,
        "channel": 0
      },
      {
        "type": "note_on",
        "time": 0,
        "note": 66,
        "velocity": 0,
        "channel": 0
      },
      {
        "type": "note_on",
        "time": 1,
        "note": 45,
        "velocity": 60,
        "channel": 0
      },
      {
        "type": "note_on",
        "time": 0,
        "note": 66,
        "velocity": 60,
        "channel": 0
      },
      {
        "type": "note_on",
        "time": 0,
        "note": 57,
        "velocity": 60,
        "channel": 0
      },
      {
        "type": "note_on",
        "time": 0,
        "note": 50,
        "velocity": 60,
        "channel": 0
      },
      {
        "type": "note_on",
        "time": 0,
        "note": 62,
        "velocity": 60,
        "channel": 0
      },
      {
        "type": "note_on",
        "time": 0,
        "note": 69,
        "velocity": 60,
        "channel": 0
      },
      {
        "type": "note_on",
        "time": 59,
        "note": 45,
        "velocity": 0,
        "channel": 0
      },
      {
        "type": "note_on",
        "time": 0,
        "note": 66,
        "velocity": 0,
        "channel": 0
      },
      {
        "type": "note_on",
        "time": 0,
        "note": 57,
        "velocity": 0,
        "channel": 0
      },
      {
        "type": "note_on",
        "time": 0,
        "note": 50,
        "velocity": 0,
        "channel": 0
      },
      {
        "type": "note_on",
        "time": 0,
        "note": 62,
        "velocity": 0,
        "channel": 0
      },
      {
        "type": "note_on",
        "time": 0,
        "note": 69,
        "velocity": 0,
        "channel": 0
      },
      {
        "type": "note_on",
        "time": 1,
        "note": 45,
        "velocity": 60,
        "channel": 0
      },
      {
        "type": "note_on",
        "time": 0,
        "note": 57,
        "velocity": 60,
        "channel": 0
      },
      {
        "type": "note_on",
        "time": 0,
        "note": 62,
        "velocity": 60,
        "channel": 0
      },
      {
        "type": "note_on",
        "time": 0,
        "note": 50,
        "velocity": 60,
        "channel": 0
      },
      {
        "type": "note_on",
        "time": 0,
        "note": 69,
        "velocity": 60,
        "channel": 0
      },
      {
        "type": "note_on",
        "time": 0,
        "note": 66,
        "velocity": 60,
        "channel": 0
      },
      {
        "type": "note_on",
        "time": 29,
        "note": 45,
        "velocity": 0,
        "channel": 0
      },
      {
        "type": "note_on",
        "time": 0,
        "note": 57,
        "velocity": 0,
        "channel": 0
      },
      {
        "type": "note_on",
        "time": 0,
        "note": 62,
        "velocity": 0,
        "channel": 0
      },
      {
        "type": "note_on",
        "time": 0,
        "note": 50,
        "velocity": 0,
        "channel": 0
      },
      {
        "type": "note_on",
        "time": 0,
        "note": 69,
        "velocity": 0,
        "channel": 0
      },
      {
        "type": "note_on",
        "time": 0,
        "note": 66,
        "velocity": 0,
        "channel": 0
      },
      {
        "type": "note_on",
        "time": 1,
        "note": 69,
        "velocity": 60,
        "channel": 0
      },
      {
        "type": "note_on",
        "time": 0,
        "note": 66,
        "velocity": 60,
        "channel": 0
      },
      {
        "type": "note_on",
        "time": 0,
        "note": 62,
        "velocity": 60,
        "channel": 0
      },
      {
        "type": "note_on",
        "time": 0,
        "note": 50,
        "velocity": 60,
        "channel": 0
      },
      {
        "type": "note_on",
        "time": 0,
        "note": 45,
        "velocity": 60,
        "channel": 0
      },
      {
        "type": "note_on",
        "time": 0,
        "note": 57,
        "velocity": 60,
        "channel": 0
      },
      {
        "type": "note_on",
        "time": 59,
        "note": 69,
        "velocity": 0,
        "channel": 0
      },
      {
        "type": "note_on",
        "time": 0,
        "note": 66,
        "velocity": 0,
        "channel": 0
      },
      {
        "type": "note_on",
        "time": 0,
        "note": 62,
        "velocity": 0,
        "channel": 0
      },
      {
        "type": "note_on",
        "time": 0,
        "note": 50,
        "velocity": 0,
        "channel": 0
      },
      {
        "type": "note_on",
        "time": 0,
        "note": 45,
        "velocity": 0,
        "channel": 0
      },
      {
        "type": "note_on",
        "time": 0,
        "note": 57,
        "velocity": 0,
        "channel": 0
      },
      {
        "type": "note_on",
        "time": 1,
        "note": 57,
        "velocity": 60,
        "channel": 0
      },
      {
        "type": "note_on",
        "time": 0,
        "note": 50,
        "velocity": 60,
        "channel": 0
      },
      {
        "type": "note_on",
        "time": 0,
        "note": 66,
        "velocity": 60,
        "channel": 0
      },
      {
        "type": "note_on",
        "time": 0,
        "note": 69,
        "velocity": 60,
        "channel": 0
      },
      {
        "type": "note_on",
        "time": 0,
        "note": 45,
        "velocity": 60,
        "channel": 0
      },
      {
        "type": "note_on",
        "time": 0,
        "note": 62,
        "velocity": 60,
        "channel": 0
      },
      {
        "type": "note_on",
        "time": 29,
        "note": 57,
        "velocity": 0,
        "channel": 0
      },
      {
        "type": "note_on",
        "time": 0,
        "note": 50,
        "velocity": 0,
        "channel": 0
      },
      {
        "type": "note_on",
        "time": 0,
        "note": 66,
        "velocity": 0,
        "channel": 0
      },
      {
        "type": "note_on",
        "time": 0,
        "note": 69,
        "velocity": 0,
        "channel": 0
      },
      {
        "type": "note_on",
        "time": 0,
        "note": 45,
        "velocity": 0,
        "channel": 0
      },
      {
        "type": "note_on",
        "time": 0,
        "note": 62,
        "velocity": 0,
        "channel": 0
      },
      {
        "type": "note_on",
        "time": 1,
        "note": 62,
        "velocity": 60,
        "channel": 0
      },
      {
        "type": "note_on",
        "time": 0,
        "note": 50,
        "velocity": 60,
        "channel": 0
      },
      {
        "type": "note_on",
        "time": 0,
        "note": 66,
        "velocity": 60,
        "channel": 0
      },
      {
        "type": "note_on",
        "time": 0,
        "note": 57,
        "velocity": 60,
        "channel": 0
      },
      {
        "type": "note_on",
        "time": 0,
        "note": 45,
        "velocity": 60,
        "channel": 0
      },
      {
        "type": "note_on",
        "time": 0,
        "note": 69,
        "velocity": 60,
        "channel": 0
      },
      {
        "type": "note_on",
        "time": 59,
        "note": 62,
        "velocity": 0,
        "channel": 0
      },
      {
        "type": "note_on",
        "time": 0,
        "note": 50,
        "velocity": 0,
        "channel": 0
      },
      {
        "type": "note_on",
        "time": 0,
        "note": 66,
        "velocity": 0,
        "channel": 0
      },
      {
        "type": "note_on",
        "time": 0,
        "note": 57,
        "velocity": 0,
        "channel": 0
      },
      {
        "type": "note_on",
        "time": 0,
        "note": 45,
        "velocity": 0,
        "channel": 0
      },
      {
        "type": "note_on",
        "time": 0,
        "note": 69,
        "velocity": 0,
        "channel": 0
      },
      {
        "type": "note_on",
        "time": 1,
        "note": 62,
        "velocity": 60,
        "channel": 0
      },
      {
        "type": "note_on",
        "time": 0,
        "note": 69,
        "velocity": 60,
        "channel": 0
      },
      {
        "type": "note_on",
        "time": 0,
        "note": 66,
        "velocity": 60,
        "channel": 0
      },
      {
        "type": "note_on",
        "time": 0,
        "note": 50,
        "velocity": 60,
        "channel": 0
      },
      {
        "type": "note_on",
        "time": 0,
        "note": 45,
        "velocity": 60,
        "channel": 0
      },
      {
        "type": "note_on",
        "time": 0,
        "note": 57,
        "velocity": 60,
        "channel": 0
      },
      {
        "type": "note_on",
        "time": 59,
        "note": 62,
        "velocity": 0,
        "channel": 0
      },
      {
        "type": "note_on",
        "time": 0,
        "note": 69,
        "velocity": 0,
        "channel": 0
      },
      {
        "type": "note_on",
        "time": 0,
        "note": 66,
        "velocity": 0,
        "channel": 0
      },
      {
        "type": "note_on",
        "time": 0,
        "note": 50,
        "velocity": 0,
        "channel": 0
      },
      {
        "type": "note_on",
        "time": 0,
        "note": 45,
        "velocity": 0,
        "channel": 0
      },
      {
        "type": "note_on",
        "time": 0,
        "note": 57,
        "velocity": 0,
        "channel": 0
      },
      {
        "type": "note_on",
        "time": 1,
        "note": 69,
        "velocity": 60,
        "channel": 0
      },
      {
        "type": "note_on",
        "time": 0,
        "note": 50,
        "velocity": 60,
        "channel": 0
      },
      {
        "type": "note_on",
        "time": 0,
        "note": 45,
        "velocity": 60,
        "channel": 0
      },
      {
        "type": "note_on",
        "time": 0,
        "note": 62,
        "velocity": 60,
        "channel": 0
      },
      {
        "type": "note_on",
        "time": 0,
        "note": 57,
        "velocity": 60,
        "channel": 0
      },
      {
        "type": "note_on",
        "time": 0,
        "note": 66,
        "velocity": 60,
        "channel": 0
      },
      {
        "type": "note_on",
        "time": 59,
        "note": 69,
        "velocity": 0,
        "channel": 0
      },
      {
        "type": "note_on",
        "time": 0,
        "note": 50,
        "velocity": 0,
        "channel": 0
      },
      {
        "type": "note_on",
        "time": 0,
        "note": 45,
        "velocity": 0,
        "channel": 0
      },
      {
        "type": "note_on",
        "time": 0,
        "note": 62,
        "velocity": 0,
        "channel": 0
      },
      {
        "type": "note_on",
        "time": 0,
        "note": 57,
        "velocity": 0,
        "channel": 0
      },
      {
        "type": "note_on",
        "time": 0,
        "note": 66,
        "velocity": 0,
        "channel": 0
      },
      {
        "type": "note_on",
        "time": 1,
        "note": 59,
        "velocity": 60,
        "channel": 0
      },
      {
        "type": "note_on",
        "time": 0,
        "note": 55,
        "velocity": 60,
        "channel": 0
      },
      {
        "type": "note_on",
        "time": 0,
        "note": 40,
        "velocity": 60,
        "channel": 0
      },
      {
        "type": "note_on",
        "time": 0,
        "note": 45,
        "velocity": 60,
        "channel": 0
      },
      {
        "type": "note_on",
        "time": 0,
        "note": 64,
        "velocity": 60,
        "channel": 0
      },
      {
        "type": "note_on",
        "time": 0,
        "note": 52,
        "velocity": 60,
        "channel": 0
      },
      {
        "type": "note_on",
        "time": 29,
        "note": 59,
        "velocity": 0,
        "channel": 0
      },
      {
        "type": "note_on",
        "time": 0,
        "note": 55,
        "velocity": 0,
        "channel": 0
      },
      {
        "type": "note_on",
        "time": 0,
        "note": 40,
        "velocity": 0,
        "channel": 0
      },
      {
        "type": "note_on",
        "time": 0,
        "note": 45,
        "velocity": 0,
        "channel": 0
      },
      {
        "type": "note_on",
        "time": 0,
        "note": 64,
        "velocity": 0,
        "channel": 0
      },
      {
        "type": "note_on",
        "time": 0,
        "note": 52,
        "velocity": 0,
        "channel": 0
      },
      {
        "type": "note_on",
        "time": 1,
        "note": 55,
        "velocity": 60,
        "channel": 0
      },
      {
        "type": "note_on",
        "time": 0,
        "note": 40,
        "velocity": 60,
        "channel": 0
      },
      {
        "type": "note_on",
        "time": 0,
        "note": 59,
        "velocity": 60,
        "channel": 0
      },
      {
        "type": "note_on",
        "time": 0,
        "note": 52,
        "velocity": 60,
        "channel": 0
      },
      {
        "type": "note_on",
        "time": 0,
        "note": 45,
        "velocity": 60,
        "channel": 0
      },
      {
        "type": "note_on",
        "time": 0,
        "note": 64,
        "velocity": 60,
        "channel": 0
      },
      {
        "type": "note_on",
        "time": 59,
        "note": 55,
        "velocity": 0,
        "channel": 0
      },
      {
        "type": "note_on",
        "time": 0,
        "note": 40,
        "velocity": 0,
        "channel": 0
      },
      {
        "type": "note_on",
        "time": 0,
        "note": 59,
        "velocity": 0,
        "channel": 0
      },
      {
        "type": "note_on",
        "time": 0,
        "note": 52,
        "velocity": 0,
        "channel": 0
      },
      {
        "type": "note_on",
        "time": 0,
        "note": 45,
        "velocity": 0,
        "channel": 0
      },
      {
        "type": "note_on",
        "time": 0,
        "note": 64,
        "velocity": 0,
        "channel": 0
      },
      {
        "type": "note_on",
        "time": 1,
        "note": 45,
        "velocity": 60,
        "channel": 0
      },
      {
        "type": "note_on",
        "time": 0,
        "note": 40,
        "velocity": 60,
        "channel": 0
      },
      {
        "type": "note_on",
        "time": 0,
        "note": 52,
        "velocity": 60,
        "channel": 0
      },
      {
        "type": "note_on",
        "time": 0,
        "note": 55,
        "velocity": 60,
        "channel": 0
      },
      {
        "type": "note_on",
        "time": 0,
        "note": 64,
        "velocity": 60,
        "channel": 0
      },
      {
        "type": "note_on",
        "time": 0,
        "note": 59,
        "velocity": 60,
        "channel": 0
      },
      {
        "type": "note_on",
        "time": 29,
        "note": 45,
        "velocity": 0,
        "channel": 0
      },
      {
        "type": "note_on",
        "time": 0,
        "note": 40,
        "velocity": 0,
        "channel": 0
      },
      {
        "type": "note_on",
        "time": 0,
        "note": 52,
        "velocity": 0,
        "channel": 0
      },
      {
        "type": "note_on",
        "time": 0,
        "note": 55,
        "velocity": 0,
        "channel": 0
      },
      {
        "type": "note_on",
        "time": 0,
        "note": 64,
        "velocity": 0,
        "channel": 0
      },
      {
        "type": "note_on",
        "time": 0,
        "note": 59,
        "velocity": 0,
        "channel": 0
      },
      {
        "type": "note_on",
        "time": 1,
        "note": 55,
        "velocity": 60,
        "channel": 0
      },
      {
        "type": "note_on",
        "time": 0,
        "note": 45,
        "velocity": 60,
        "channel": 0
      },
      {
        "type": "note_on",
        "time": 0,
        "note": 64,
        "velocity": 60,
        "channel": 0
      },
      {
        "type": "note_on",
        "time": 0,
        "note": 52,
        "velocity": 60,
        "channel": 0
      },
      {
        "type": "note_on",
        "time": 0,
        "note": 40,
        "velocity": 60,
        "channel": 0
      },
      {
        "type": "note_on",
        "time": 0,
        "note": 59,
        "velocity": 60,
        "channel": 0
      },
      {
        "type": "note_on",
        "time": 59,
        "note": 55,
        "velocity": 0,
        "channel": 0
      },
      {
        "type": "note_on",
        "time": 0,
        "note": 45,
        "velocity": 0,
        "channel": 0
      },
      {
        "type": "note_on",
        "time": 0,
        "note": 64,
        "velocity": 0,
        "channel": 0
      },
      {
        "type": "note_on",
        "time": 0,
        "note": 52,
        "velocity": 0,
        "channel": 0
      },
      {
        "type": "note_on",
        "time": 0,
        "note": 40,
        "velocity": 0,
        "channel": 0
      },
      {
        "type": "note_on",
        "time": 0,
        "note": 59,
        "velocity": 0,
        "channel": 0
      },
      {
        "type": "note_on",
        "time": 1,
        "note": 40,
        "velocity": 60,
        "channel": 0
      },
      {
        "type": "note_on",
        "time": 0,
        "note": 55,
        "velocity": 60,
        "channel": 0
      },
      {
        "type": "note_on",
        "time": 0,
        "note": 64,
        "velocity": 60,
        "channel": 0
      },
      {
        "type": "note_on",
        "time": 0,
        "note": 52,
        "velocity": 60,
        "channel": 0
      },
      {
        "type": "note_on",
        "time": 0,
        "note": 59,
        "velocity": 60,
        "channel": 0
      },
      {
        "type": "note_on",
        "time": 0,
        "note": 45,
        "velocity": 60,
        "channel": 0
      },
      {
        "type": "note_on",
        "time": 29,
        "note": 40,
        "velocity": 0,
        "channel": 0
      },
      {
        "type": "note_on",
        "time": 0,
        "note": 55,
        "velocity": 0,
        "channel": 0
      },
      {
        "type": "note_on",
        "time": 0,
        "note": 64,
        "velocity": 0,
        "channel": 0
      },
      {
        "type": "note_on",
        "time": 0,
        "note": 52,
        "velocity": 0,
        "channel": 0
      },
      {
        "type": "note_on",
        "time": 0,
        "note": 59,
        "velocity": 0,
        "channel": 0
      },
      {
        "type": "note_on",
        "time": 0,
        "note": 45,
        "velocity": 0,
        "channel": 0
      },
      {
        "type": "note_on",
        "time": 1,
        "note": 59,
        "velocity": 60,
        "channel": 0
      },
      {
        "type": "note_on",
        "time": 0,
        "note": 45,
        "velocity": 60,
        "channel": 0
      },
      {
        "type": "note_on",
        "time": 0,
        "note": 64,
        "velocity": 60,
        "channel": 0
      },
      {
        "type": "note_on",
        "time": 0,
        "note": 40,
        "velocity": 60,
        "channel": 0
      },
      {
        "type": "note_on",
        "time": 0,
        "note": 55,
        "velocity": 60,
        "channel": 0
      },
      {
        "type": "note_on",
        "time": 0,
        "note": 52,
        "velocity": 60,
        "channel": 0
      },
      {
        "type": "note_on",
        "time": 59,
        "note": 59,
        "velocity": 0,
        "channel": 0
      },
      {
        "type": "note_on",
        "time": 0,
        "note": 45,
        "velocity": 0,
        "channel": 0
      },
      {
        "type": "note_on",
        "time": 0,
        "note": 64,
        "velocity": 0,
        "channel": 0
      },
      {
        "type": "note_on",
        "time": 0,
        "note": 40,
        "velocity": 0,
        "channel": 0
      },
      {
        "type": "note_on",
        "time": 0,
        "note": 55,
        "velocity": 0,
        "channel": 0
      },
      {
        "type": "note_on",
        "time": 0,
        "note": 52,
        "velocity": 0,
        "channel": 0
      },
      {
        "type": "note_on",
        "time": 1,
        "note": 64,
        "velocity": 60,
        "channel": 0
      },
      {
        "type": "note_on",
        "time": 0,
        "note": 55,
        "velocity": 60,
        "channel": 0
      },
      {
        "type": "note_on",
        "time": 0,
        "note": 40,
        "velocity": 60,
        "channel": 0
      },
      {
        "type": "note_on",
        "time": 0,
        "note": 59,
        "velocity": 60,
        "channel": 0
      },
      {
        "type": "note_on",
        "time": 0,
        "note": 52,
        "velocity": 60,
        "channel": 0
      },
      {
        "type": "note_on",
        "time": 0,
        "note": 45,
        "velocity": 60,
        "channel": 0
      },
      {
        "type": "note_on",
        "time": 29,
        "note": 64,
        "velocity": 0,
        "channel": 0
      },
      {
        "type": "note_on",
        "time": 0,
        "note": 55,
        "velocity": 0,
        "channel": 0
      },
      {
        "type": "note_on",
        "time": 0,
        "note": 40,
        "velocity": 0,
        "channel": 0
      },
      {
        "type": "note_on",
        "time": 0,
        "note": 59,
        "velocity": 0,
        "channel": 0
      },
      {
        "type": "note_on",
        "time": 0,
        "note": 52,
        "velocity": 0,
        "channel": 0
      },
      {
        "type": "note_on",
        "time": 0,
        "note": 45,
        "velocity": 0,
        "channel": 0
      },
      {
        "type": "note_on",
        "time": 1,
        "note": 55,
        "velocity": 60,
        "channel": 0
      },
      {
        "type": "note_on",
        "time": 0,
        "note": 40,
        "velocity": 60,
        "channel": 0
      },
      {
        "type": "note_on",
        "time": 0,
        "note": 52,
        "velocity": 60,
        "channel": 0
      },
      {
        "type": "note_on",
        "time": 0,
        "note": 64,
        "velocity": 60,
        "channel": 0
      },
      {
        "type": "note_on",
        "time": 0,
        "note": 59,
        "velocity": 60,
        "channel": 0
      },
      {
        "type": "note_on",
        "time": 0,
        "note": 45,
        "velocity": 60,
        "channel": 0
      },
      {
        "type": "note_on",
        "time": 59,
        "note": 55,
        "velocity": 0,
        "channel": 0
      },
      {
        "type": "note_on",
        "time": 0,
        "note": 40,
        "velocity": 0,
        "channel": 0
      },
      {
        "type": "note_on",
        "time": 0,
        "note": 52,
        "velocity": 0,
        "channel": 0
      },
      {
        "type": "note_on",
        "time": 0,
        "note": 64,
        "velocity": 0,
        "channel": 0
      },
      {
        "type": "note_on",
        "time": 0,
        "note": 59,
        "velocity": 0,
        "channel": 0
      },
      {
        "type": "note_on",
        "time": 0,
        "note": 45,
        "velocity": 0,
        "channel": 0
      },
      {
        "type": "note_on",
        "time": 1,
        "note": 55,
        "velocity": 60,
        "channel": 0
      },
      {
        "type": "note_on",
        "time": 0,
        "note": 59,
        "velocity": 60,
        "channel": 0
      },
      {
        "type": "note_on",
        "time": 0,
        "note": 45,
        "velocity": 60,
        "channel": 0
      },
      {
        "type": "note_on",
        "time": 0,
        "note": 64,
        "velocity": 60,
        "channel": 0
      },
      {
        "type": "note_on",
        "time": 0,
        "note": 40,
        "velocity": 60,
        "channel": 0
      },
      {
        "type": "note_on",
        "time": 0,
        "note": 52,
        "velocity": 60,
        "channel": 0
      },
      {
        "type": "note_on",
        "time": 59,
        "note": 55,
        "velocity": 0,
        "channel": 0
      },
      {
        "type": "note_on",
        "time": 0,
        "note": 59,
        "velocity": 0,
        "channel": 0
      },
      {
        "type": "note_on",
        "time": 0,
        "note": 45,
        "velocity": 0,
        "channel": 0
      },
      {
        "type": "note_on",
        "time": 0,
        "note": 64,
        "velocity": 0,
        "channel": 0
      },
      {
        "type": "note_on",
        "time": 0,
        "note": 40,
        "velocity": 0,
        "channel": 0
      },
      {
        "type": "note_on",
        "time": 0,
        "note": 52,
        "velocity": 0,
        "channel": 0
      },
      {
        "type": "note_on",
        "time": 1,
        "note": 45,
        "velocity": 60,
        "channel": 0
      },
      {
        "type": "note_on",
        "time": 0,
        "note": 40,
        "velocity": 60,
        "channel": 0
      },
      {
        "type": "note_on",
        "time": 0,
        "note": 55,
        "velocity": 60,
        "channel": 0
      },
      {
        "type": "note_on",
        "time": 0,
        "note": 64,
        "velocity": 60,
        "channel": 0
      },
      {
        "type": "note_on",
        "time": 0,
        "note": 52,
        "velocity": 60,
        "channel": 0
      },
      {
        "type": "note_on",
        "time": 0,
        "note": 59,
        "velocity": 60,
        "channel": 0
      },
      {
        "type": "note_on",
        "time": 59,
        "note": 45,
        "velocity": 0,
        "channel": 0
      },
      {
        "type": "note_on",
        "time": 0,
        "note": 40,
        "velocity": 0,
        "channel": 0
      },
      {
        "type": "note_on",
        "time": 0,
        "note": 55,
        "velocity": 0,
        "channel": 0
      },
      {
        "type": "note_on",
        "time": 0,
        "note": 64,
        "velocity": 0,
        "channel": 0
      },
      {
        "type": "note_on",
        "time": 0,
        "note": 52,
        "velocity": 0,
        "channel": 0
      },
      {
        "type": "note_on",
        "time": 0,
        "note": 59,
        "velocity": 0,
        "channel": 0
      },
      {
        "type": "note_on",
        "time": 1,
        "note": 61,
        "velocity": 60,
        "channel": 0
      },
      {
        "type": "note_on",
        "time": 0,
        "note": 58,
        "velocity": 60,
        "channel": 0
      },
      {
        "type": "note_on",
        "time": 0,
        "note": 54,
        "velocity": 60,
        "channel": 0
      },
      {
        "type": "note_on",
        "time": 0,
        "note": 42,
        "velocity": 60,
        "channel": 0
      },
      {
        "type": "note_on",
        "time": 0,
        "note": 49,
        "velocity": 60,
        "channel": 0
      },
      {
        "type": "note_on",
        "time": 0,
        "note": 66,
        "velocity": 60,
        "channel": 0
      },
      {
        "type": "note_on",
        "time": 29,
        "note": 61,
        "velocity": 0,
        "channel": 0
      },
      {
        "type": "note_on",
        "time": 0,
        "note": 58,
        "velocity": 0,
        "channel": 0
      },
      {
        "type": "note_on",
        "time": 0,
        "note": 54,
        "velocity": 0,
        "channel": 0
      },
      {
        "type": "note_on",
        "time": 0,
        "note": 42,
        "velocity": 0,
        "channel": 0
      },
      {
        "type": "note_on",
        "time": 0,
        "note": 49,
        "velocity": 0,
        "channel": 0
      },
      {
        "type": "note_on",
        "time": 0,
        "note": 66,
        "velocity": 0,
        "channel": 0
      },
      {
        "type": "note_on",
        "time": 1,
        "note": 58,
        "velocity": 60,
        "channel": 0
      },
      {
        "type": "note_on",
        "time": 0,
        "note": 42,
        "velocity": 60,
        "channel": 0
      },
      {
        "type": "note_on",
        "time": 0,
        "note": 49,
        "velocity": 60,
        "channel": 0
      },
      {
        "type": "note_on",
        "time": 0,
        "note": 61,
        "velocity": 60,
        "channel": 0
      },
      {
        "type": "note_on",
        "time": 0,
        "note": 54,
        "velocity": 60,
        "channel": 0
      },
      {
        "type": "note_on",
        "time": 0,
        "note": 66,
        "velocity": 60,
        "channel": 0
      },
      {
        "type": "note_on",
        "time": 59,
        "note": 58,
        "velocity": 0,
        "channel": 0
      },
      {
        "type": "note_on",
        "time": 0,
        "note": 42,
        "velocity": 0,
        "channel": 0
      },
      {
        "type": "note_on",
        "time": 0,
        "note": 49,
        "velocity": 0,
        "channel": 0
      },
      {
        "type": "note_on",
        "time": 0,
        "note": 61,
        "velocity": 0,
        "channel": 0
      },
      {
        "type": "note_on",
        "time": 0,
        "note": 54,
        "velocity": 0,
        "channel": 0
      },
      {
        "type": "note_on",
        "time": 0,
        "note": 66,
        "velocity": 0,
        "channel": 0
      },
      {
        "type": "note_on",
        "time": 1,
        "note": 66,
        "velocity": 60,
        "channel": 0
      },
      {
        "type": "note_on",
        "time": 0,
        "note": 58,
        "velocity": 60,
        "channel": 0
      },
      {
        "type": "note_on",
        "time": 0,
        "note": 49,
        "velocity": 60,
        "channel": 0
      },
      {
        "type": "note_on",
        "time": 0,
        "note": 54,
        "velocity": 60,
        "channel": 0
      },
      {
        "type": "note_on",
        "time": 0,
        "note": 42,
        "velocity": 60,
        "channel": 0
      },
      {
        "type": "note_on",
        "time": 0,
        "note": 61,
        "velocity": 60,
        "channel": 0
      },
      {
        "type": "note_on",
        "time": 29,
        "note": 66,
        "velocity": 0,
        "channel": 0
      },
      {
        "type": "note_on",
        "time": 0,
        "note": 58,
        "velocity": 0,
        "channel": 0
      },
      {
        "type": "note_on",
        "time": 0,
        "note": 49,
        "velocity": 0,
        "channel": 0
      },
      {
        "type": "note_on",
        "time": 0,
        "note": 54,
        "velocity": 0,
        "channel": 0
      },
      {
        "type": "note_on",
        "time": 0,
        "note": 42,
        "velocity": 0,
        "channel": 0
      },
      {
        "type": "note_on",
        "time": 0,
        "note": 61,
        "velocity": 0,
        "channel": 0
      },
      {
        "type": "note_on",
        "time": 1,
        "note": 42,
        "velocity": 60,
        "channel": 0
      },
      {
        "type": "note_on",
        "time": 0,
        "note": 61,
        "velocity": 60,
        "channel": 0
      },
      {
        "type": "note_on",
        "time": 0,
        "note": 54,
        "velocity": 60,
        "channel": 0
      },
      {
        "type": "note_on",
        "time": 0,
        "note": 49,
        "velocity": 60,
        "channel": 0
      },
      {
        "type": "note_on",
        "time": 0,
        "note": 58,
        "velocity": 60,
        "channel": 0
      },
      {
        "type": "note_on",
        "time": 0,
        "note": 66,
        "velocity": 60,
        "channel": 0
      },
      {
        "type": "note_on",
        "time": 59,
        "note": 42,
        "velocity": 0,
        "channel": 0
      },
      {
        "type": "note_on",
        "time": 0,
        "note": 61,
        "velocity": 0,
        "channel": 0
      },
      {
        "type": "note_on",
        "time": 0,
        "note": 54,
        "velocity": 0,
        "channel": 0
      },
      {
        "type": "note_on",
        "time": 0,
        "note": 49,
        "velocity": 0,
        "channel": 0
      },
      {
        "type": "note_on",
        "time": 0,
        "note": 58,
        "velocity": 0,
        "channel": 0
      },
      {
        "type": "note_on",
        "time": 0,
        "note": 66,
        "velocity": 0,
        "channel": 0
      },
      {
        "type": "note_on",
        "time": 1,
        "note": 42,
        "velocity": 60,
        "channel": 0
      },
      {
        "type": "note_on",
        "time": 0,
        "note": 54,
        "velocity": 60,
        "channel": 0
      },
      {
        "type": "note_on",
        "time": 0,
        "note": 58,
        "velocity": 60,
        "channel": 0
      },
      {
        "type": "note_on",
        "time": 0,
        "note": 49,
        "velocity": 60,
        "channel": 0
      },
      {
        "type": "note_on",
        "time": 0,
        "note": 66,
        "velocity": 60,
        "channel": 0
      },
      {
        "type": "note_on",
        "time": 0,
        "note": 61,
        "velocity": 60,
        "channel": 0
      },
      {
        "type": "note_on",
        "time": 29,
        "note": 42,
        "velocity": 0,
        "channel": 0
      },
      {
        "type": "note_on",
        "time": 0,
        "note": 54,
        "velocity": 0,
        "channel": 0
      },
      {
        "type": "note_on",
        "time": 0,
        "note": 58,
        "velocity": 0,
        "channel": 0
      },
      {
        "type": "note_on",
        "time": 0,
        "note": 49,
        "velocity": 0,
        "channel": 0
      },
      {
        "type": "note_on",
        "time": 0,
        "note": 66,
        "velocity": 0,
        "channel": 0
      },
      {
        "type": "note_on",
        "time": 0,
        "note": 61,
        "velocity": 0,
        "channel": 0
      },
      {
        "type": "note_on",
        "time": 1,
        "note": 66,
        "velocity": 60,
        "channel": 0
      },
      {
        "type": "note_on",
        "time": 0,
        "note": 61,
        "velocity": 60,
        "channel": 0
      },
      {
        "type": "note_on",
        "time": 0,
        "note": 58,
        "velocity": 60,
        "channel": 0
      },
      {
        "type": "note_on",
        "time": 0,
        "note": 49,
        "velocity": 60,
        "channel": 0
      },
      {
        "type": "note_on",
        "time": 0,
        "note": 42,
        "velocity": 60,
        "channel": 0
      },
      {
        "type": "note_on",
        "time": 0,
        "note": 54,
        "velocity": 60,
        "channel": 0
      },
      {
        "type": "note_on",
        "time": 59,
        "note": 66,
        "velocity": 0,
        "channel": 0
      },
      {
        "type": "note_on",
        "time": 0,
        "note": 61,
        "velocity": 0,
        "channel": 0
      },
      {
        "type": "note_on",
        "time": 0,
        "note": 58,
        "velocity": 0,
        "channel": 0
      },
      {
        "type": "note_on",
        "time": 0,
        "note": 49,
        "velocity": 0,
        "channel": 0
      },
      {
        "type": "note_on",
        "time": 0,
        "note": 42,
        "velocity": 0,
        "channel": 0
      },
      {
        "type": "note_on",
        "time": 0,
        "note": 54,
        "velocity": 0,
        "channel": 0
      },
      {
        "type": "note_on",
        "time": 1,
        "note": 54,
        "velocity": 60,
        "channel": 0
      },
      {
        "type": "note_on",
        "time": 0,
        "note": 49,
        "velocity": 60,
        "channel": 0
      },
      {
        "type": "note_on",
        "time": 0,
        "note": 61,
        "velocity": 60,
        "channel": 0
      },
      {
        "type": "note_on",
        "time": 0,
        "note": 66,
        "velocity": 60,
        "channel": 0
      },
      {
        "type": "note_on",
        "time": 0,
        "note": 42,
        "velocity": 60,
        "channel": 0
      },
      {
        "type": "note_on",
        "time": 0,
        "note": 58,
        "velocity": 60,
        "channel": 0
      },
      {
        "type": "note_on",
        "time": 29,
        "note": 54,
        "velocity": 0,
        "channel": 0
      },
      {
        "type": "note_on",
        "time": 0,
        "note": 49,
        "velocity": 0,
        "channel": 0
      },
      {
        "type": "note_on",
        "time": 0,
        "note": 61,
        "velocity": 0,
        "channel": 0
      },
      {
        "type": "note_on",
        "time": 0,
        "note": 66,
        "velocity": 0,
        "channel": 0
      },
      {
        "type": "note_on",
        "time": 0,
        "note": 42,
        "velocity": 0,
        "channel": 0
      },
      {
        "type": "note_on",
        "time": 0,
        "note": 58,
        "velocity": 0,
        "channel": 0
      },
      {
        "type": "note_on",
        "time": 1,
        "note": 58,
        "velocity": 60,
        "channel": 0
      },
      {
        "type": "note_on",
        "time": 0,
        "note": 49,
        "velocity": 60,
        "channel": 0
      },
      {
        "type": "note_on",
        "time": 0,
        "note": 61,
        "velocity": 60,
        "channel": 0
      },
      {
        "type": "note_on",
        "time": 0,
        "note": 54,
        "velocity": 60,
        "channel": 0
      },
      {
        "type": "note_on",
        "time": 0,
        "note": 42,
        "velocity": 60,
        "channel": 0
      },
      {
        "type": "note_on",
        "time": 0,
        "note": 66,
        "velocity": 60,
        "channel": 0
      },
      {
        "type": "note_on",
        "time": 59,
        "note": 58,
        "velocity": 0,
        "channel": 0
      },
      {
        "type": "note_on",
        "time": 0,
        "note": 49,
        "velocity": 0,
        "channel": 0
      },
      {
        "type": "note_on",
        "time": 0,
        "note": 61,
        "velocity": 0,
        "channel": 0
      },
      {
        "type": "note_on",
        "time": 0,
        "note": 54,
        "velocity": 0,
        "channel": 0
      },
      {
        "type": "note_on",
        "time": 0,
        "note": 42,
        "velocity": 0,
        "channel": 0
      },
      {
        "type": "note_on",
        "time": 0,
        "note": 66,
        "velocity": 0,
        "channel": 0
      },
      {
        "type": "note_on",
        "time": 1,
        "note": 58,
        "velocity": 60,
        "channel": 0
      },
      {
        "type": "note_on",
        "time": 0,
        "note": 66,
        "velocity": 60,
        "channel": 0
      },
      {
        "type": "note_on",
        "time": 0,
        "note": 61,
        "velocity": 60,
        "channel": 0
      },
      {
        "type": "note_on",
        "time": 0,
        "note": 49,
        "velocity": 60,
        "channel": 0
      },
      {
        "type": "note_on",
        "time": 0,
        "note": 42,
        "velocity": 60,
        "channel": 0
      },
      {
        "type": "note_on",
        "time": 0,
        "note": 54,
        "velocity": 60,
        "channel": 0
      },
      {
        "type": "note_on",
        "time": 59,
        "note": 58,
        "velocity": 0,
        "channel": 0
      },
      {
        "type": "note_on",
        "time": 0,
        "note": 66,
        "velocity": 0,
        "channel": 0
      },
      {
        "type": "note_on",
        "time": 0,
        "note": 61,
        "velocity": 0,
        "channel": 0
      },
      {
        "type": "note_on",
        "time": 0,
        "note": 49,
        "velocity": 0,
        "channel": 0
      },
      {
        "type": "note_on",
        "time": 0,
        "note": 42,
        "velocity": 0,
        "channel": 0
      },
      {
        "type": "note_on",
        "time": 0,
        "note": 54,
        "velocity": 0,
        "channel": 0
      },
      {
        "type": "note_on",
        "time": 1,
        "note": 66,
        "velocity": 60,
        "channel": 0
      },
      {
        "type": "note_on",
        "time": 0,
        "note": 49,
        "velocity": 60,
        "channel": 0
      },
      {
        "type": "note_on",
        "time": 0,
        "note": 42,
        "velocity": 60,
        "channel": 0
      },
      {
        "type": "note_on",
        "time": 0,
        "note": 58,
        "velocity": 60,
        "channel": 0
      },
      {
        "type": "note_on",
        "time": 0,
        "note": 54,
        "velocity": 60,
        "channel": 0
      },
      {
        "type": "note_on",
        "time": 0,
        "note": 61,
        "velocity": 60,
        "channel": 0
      },
      {
        "type": "note_on",
        "time": 59,
        "note": 66,
        "velocity": 0,
        "channel": 0
      },
      {
        "type": "note_on",
        "time": 0,
        "note": 49,
        "velocity": 0,
        "channel": 0
      },
      {
        "type": "note_on",
        "time": 0,
        "note": 42,
        "velocity": 0,
        "channel": 0
      },
      {
        "type": "note_on",
        "time": 0,
        "note": 58,
        "velocity": 0,
        "channel": 0
      },
      {
        "type": "note_on",
        "time": 0,
        "note": 54,
        "velocity": 0,
        "channel": 0
      },
      {
        "type": "note_on",
        "time": 0,
        "note": 61,
        "velocity": 0,
        "channel": 0
      },
      {
        "type": "note_on",
        "time": 1,
        "note": 62,
        "velocity": 60,
        "channel": 0
      },
      {
        "type": "note_on",
        "time": 0,
        "note": 59,
        "velocity": 60,
        "channel": 0
      },
      {
        "type": "note_on",
        "time": 0,
        "note": 42,
        "velocity": 60,
        "channel": 0
      },
      {
        "type": "note_on",
        "time": 0,
        "note": 47,
        "velocity": 60,
        "channel": 0
      },
      {
        "type": "note_on",
        "time": 0,
        "note": 66,
        "velocity": 60,
        "channel": 0
      },
      {
        "type": "note_on",
        "time": 0,
        "note": 54,
        "velocity": 60,
        "channel": 0
      },
      {
        "type": "note_on",
        "time": 29,
        "note": 62,
        "velocity": 0,
        "channel": 0
      },
      {
        "type": "note_on",
        "time": 0,
        "note": 59,
        "velocity": 0,
        "channel": 0
      },
      {
        "type": "note_on",
        "time": 0,
        "note": 42,
        "velocity": 0,
        "channel": 0
      },
      {
        "type": "note_on",
        "time": 0,
        "note": 47,
        "velocity": 0,
        "channel": 0
      },
      {
        "type": "note_on",
        "time": 0,
        "note": 66,
        "velocity": 0,
        "channel": 0
      },
      {
        "type": "note_on",
        "time": 0,
        "note": 54,
        "velocity": 0,
        "channel": 0
      },
      {
        "type": "note_on",
        "time": 1,
        "note": 59,
        "velocity": 60,
        "channel": 0
      },
      {
        "type": "note_on",
        "time": 0,
        "note": 42,
        "velocity": 60,
        "channel": 0
      },
      {
        "type": "note_on",
        "time": 0,
        "note": 62,
        "velocity": 60,
        "channel": 0
      },
      {
        "type": "note_on",
        "time": 0,
        "note": 54,
        "velocity": 60,
        "channel": 0
      },
      {
        "type": "note_on",
        "time": 0,
        "note": 47,
        "velocity": 60,
        "channel": 0
      },
      {
        "type": "note_on",
        "time": 0,
        "note": 66,
        "velocity": 60,
        "channel": 0
      },
      {
        "type": "note_on",
        "time": 59,
        "note": 59,
        "velocity": 0,
        "channel": 0
      },
      {
        "type": "note_on",
        "time": 0,
        "note": 42,
        "velocity": 0,
        "channel": 0
      },
      {
        "type": "note_on",
        "time": 0,
        "note": 62,
        "velocity": 0,
        "channel": 0
      },
      {
        "type": "note_on",
        "time": 0,
        "note": 54,
        "velocity": 0,
        "channel": 0
      },
      {
        "type": "note_on",
        "time": 0,
        "note": 47,
        "velocity": 0,
        "channel": 0
      },
      {
        "type": "note_on",
        "time": 0,
        "note": 66,
        "velocity": 0,
        "channel": 0
      },
      {
        "type": "note_on",
        "time": 1,
        "note": 47,
        "velocity": 60,
        "channel": 0
      },
      {
        "type": "note_on",
        "time": 0,
        "note": 42,
        "velocity": 60,
        "channel": 0
      },
      {
        "type": "note_on",
        "time": 0,
        "note": 54,
        "velocity": 60,
        "channel": 0
      },
      {
        "type": "note_on",
        "time": 0,
        "note": 59,
        "velocity": 60,
        "channel": 0
      },
      {
        "type": "note_on",
        "time": 0,
        "note": 66,
        "velocity": 60,
        "channel": 0
      },
      {
        "type": "note_on",
        "time": 0,
        "note": 62,
        "velocity": 60,
        "channel": 0
      },
      {
        "type": "note_on",
        "time": 29,
        "note": 47,
        "velocity": 0,
        "channel": 0
      },
      {
        "type": "note_on",
        "time": 0,
        "note": 42,
        "velocity": 0,
        "channel": 0
      },
      {
        "type": "note_on",
        "time": 0,
        "note": 54,
        "velocity": 0,
        "channel": 0
      },
      {
        "type": "note_on",
        "time": 0,
        "note": 59,
        "velocity": 0,
        "channel": 0
      },
      {
        "type": "note_on",
        "time": 0,
        "note": 66,
        "velocity": 0,
        "channel": 0
      },
      {
        "type": "note_on",
        "time": 0,
        "note": 62,
        "velocity": 0,
        "channel": 0
      },
      {
        "type": "note_on",
        "time": 1,
        "note": 59,
        "velocity": 60,
        "channel": 0
      },
      {
        "type": "note_on",
        "time": 0,
        "note": 47,
        "velocity": 60,
        "channel": 0
      },
      {
        "type": "note_on",
        "time": 0,
        "note": 66,
        "velocity": 60,
        "channel": 0
      },
      {
        "type": "note_on",
        "time": 0,
        "note": 54,
        "velocity": 60,
        "channel": 0
      },
      {
        "type": "note_on",
        "time": 0,
        "note": 42,
        "velocity": 60,
        "channel": 0
      },
      {
        "type": "note_on",
        "time": 0,
        "note": 62,
        "velocity": 60,
        "channel": 0
      },
      {
        "type": "note_on",
        "time": 59,
        "note": 59,
        "velocity": 0,
        "channel": 0
      },
      {
        "type": "note_on",
        "time": 0,
        "note": 47,
        "velocity": 0,
        "channel": 0
      },
      {
        "type": "note_on",
        "time": 0,
        "note": 66,
        "velocity": 0,
        "channel": 0
      },
      {
        "type": "note_on",
        "time": 0,
        "note": 54,
        "velocity": 0,
        "channel": 0
      },
      {
        "type": "note_on",
        "time": 0,
        "note": 42,
        "velocity": 0,
        "channel": 0
      },
      {
        "type": "note_on",
        "time": 0,
        "note": 62,
        "velocity": 0,
        "channel": 0
      },
      {
        "type": "note_on",
        "time": 1,
        "note": 42,
        "velocity": 60,
        "channel": 0
      },
      {
        "type": "note_on",
        "time": 0,
        "note": 59,
        "velocity": 60,
        "channel": 0
      },
      {
        "type": "note_on",
        "time": 0,
        "note": 66,
        "velocity": 60,
        "channel": 0
      },
      {
        "type": "note_on",
        "time": 0,
        "note": 54,
        "velocity": 60,
        "channel": 0
      },
      {
        "type": "note_on",
        "time": 0,
        "note": 62,
        "velocity": 60,
        "channel": 0
      },
      {
        "type": "note_on",
        "time": 0,
        "note": 47,
        "velocity": 60,
        "channel": 0
      },
      {
        "type": "note_on",
        "time": 29,
        "note": 42,
        "velocity": 0,
        "channel": 0
      },
      {
        "type": "note_on",
        "time": 0,
        "note": 59,
        "velocity": 0,
        "channel": 0
      },
      {
        "type": "note_on",
        "time": 0,
        "note": 66,
        "velocity": 0,
        "channel": 0
      },
      {
        "type": "note_on",
        "time": 0,
        "note": 54,
        "velocity": 0,
        "channel": 0
      },
      {
        "type": "note_on",
        "time": 0,
        "note": 62,
        "velocity": 0,
        "channel": 0
      },
      {
        "type": "note_on",
        "time": 0,
        "note": 47,
        "velocity": 0,
        "channel": 0
      },
      {
        "type": "note_on",
        "time": 1,
        "note": 62,
        "velocity": 60,
        "channel": 0
      },
      {
        "type": "note_on",
        "time": 0,
        "note": 47,
        "velocity": 60,
        "channel": 0
      },
      {
        "type": "note_on",
        "time": 0,
        "note": 66,
        "velocity": 60,
        "channel": 0
      },
      {
        "type": "note_on",
        "time": 0,
        "note": 42,
        "velocity": 60,
        "channel": 0
      },
      {
        "type": "note_on",
        "time": 0,
        "note": 59,
        "velocity": 60,
        "channel": 0
      },
      {
        "type": "note_on",
        "time": 0,
        "note": 54,
        "velocity": 60,
        "channel": 0
      },
      {
        "type": "note_on",
        "time": 59,
        "note": 62,
        "velocity": 0,
        "channel": 0
      },
      {
        "type": "note_on",
        "time": 0,
        "note": 47,
        "velocity": 0,
        "channel": 0
      },
      {
        "type": "note_on",
        "time": 0,
        "note": 66,
        "velocity": 0,
        "channel": 0
      },
      {
        "type": "note_on",
        "time": 0,
        "note": 42,
        "velocity": 0,
        "channel": 0
      },
      {
        "type": "note_on",
        "time": 0,
        "note": 59,
        "velocity": 0,
        "channel": 0
      },
      {
        "type": "note_on",
        "time": 0,
        "note": 54,
        "velocity": 0,
        "channel": 0
      },
      {
        "type": "note_on",
        "time": 1,
        "note": 66,
        "velocity": 60,
        "channel": 0
      },
      {
        "type": "note_on",
        "time": 0,
        "note": 59,
        "velocity": 60,
        "channel": 0
      },
      {
        "type": "note_on",
        "time": 0,
        "note": 42,
        "velocity": 60,
        "channel": 0
      },
      {
        "type": "note_on",
        "time": 0,
        "note": 62,
        "velocity": 60,
        "channel": 0
      },
      {
        "type": "note_on",
        "time": 0,
        "note": 54,
        "velocity": 60,
        "channel": 0
      },
      {
        "type": "note_on",
        "time": 0,
        "note": 47,
        "velocity": 60,
        "channel": 0
      },
      {
        "type": "note_on",
        "time": 29,
        "note": 66,
        "velocity": 0,
        "channel": 0
      },
      {
        "type": "note_on",
        "time": 0,
        "note": 59,
        "velocity": 0,
        "channel": 0
      },
      {
        "type": "note_on",
        "time": 0,
        "note": 42,
        "velocity": 0,
        "channel": 0
      },
      {
        "type": "note_on",
        "time": 0,
        "note": 62,
        "velocity": 0,
        "channel": 0
      },
      {
        "type": "note_on",
        "time": 0,
        "note": 54,
        "velocity": 0,
        "channel": 0
      },
      {
        "type": "note_on",
        "time": 0,
        "note": 47,
        "velocity": 0,
        "channel": 0
      },
      {
        "type": "note_on",
        "time": 1,
        "note": 59,
        "velocity": 60,
        "channel": 0
      },
      {
        "type": "note_on",
        "time": 0,
        "note": 42,
        "velocity": 60,
        "channel": 0
      },
      {
        "type": "note_on",
        "time": 0,
        "note": 54,
        "velocity": 60,
        "channel": 0
      },
      {
        "type": "note_on",
        "time": 0,
        "note": 66,
        "velocity": 60,
        "channel": 0
      },
      {
        "type": "note_on",
        "time": 0,
        "note": 62,
        "velocity": 60,
        "channel": 0
      },
      {
        "type": "note_on",
        "time": 0,
        "note": 47,
        "velocity": 60,
        "channel": 0
      },
      {
        "type": "note_on",
        "time": 59,
        "note": 59,
        "velocity": 0,
        "channel": 0
      },
      {
        "type": "note_on",
        "time": 0,
        "note": 42,
        "velocity": 0,
        "channel": 0
      },
      {
        "type": "note_on",
        "time": 0,
        "note": 54,
        "velocity": 0,
        "channel": 0
      },
      {
        "type": "note_on",
        "time": 0,
        "note": 66,
        "velocity": 0,
        "channel": 0
      },
      {
        "type": "note_on",
        "time": 0,
        "note": 62,
        "velocity": 0,
        "channel": 0
      },
      {
        "type": "note_on",
        "time": 0,
        "note": 47,
        "velocity": 0,
        "channel": 0
      },
      {
        "type": "note_on",
        "time": 1,
        "note": 59,
        "velocity": 60,
        "channel": 0
      },
      {
        "type": "note_on",
        "time": 0,
        "note": 62,
        "velocity": 60,
        "channel": 0
      },
      {
        "type": "note_on",
        "time": 0,
        "note": 47,
        "velocity": 60,
        "channel": 0
      },
      {
        "type": "note_on",
        "time": 0,
        "note": 66,
        "velocity": 60,
        "channel": 0
      },
      {
        "type": "note_on",
        "time": 0,
        "note": 42,
        "velocity": 60,
        "channel": 0
      },
      {
        "type": "note_on",
        "time": 0,
        "note": 54,
        "velocity": 60,
        "channel": 0
      },
      {
        "type": "note_on",
        "time": 59,
        "note": 59,
        "velocity": 0,
        "channel": 0
      },
      {
        "type": "note_on",
        "time": 0,
        "note": 62,
        "velocity": 0,
        "channel": 0
      },
      {
        "type": "note_on",
        "time": 0,
        "note": 47,
        "velocity": 0,
        "channel": 0
      },
      {
        "type": "note_on",
        "time": 0,
        "note": 66,
        "velocity": 0,
        "channel": 0
      },
      {
        "type": "note_on",
        "time": 0,
        "note": 42,
        "velocity": 0,
        "channel": 0
      },
      {
        "type": "note_on",
        "time": 0,
        "note": 54,
        "velocity": 0,
        "channel": 0
      },
      {
        "type": "note_on",
        "time": 1,
        "note": 47,
        "velocity": 60,
        "channel": 0
      },
      {
        "type": "note_on",
        "time": 0,
        "note": 42,
        "velocity": 60,
        "channel": 0
      },
      {
        "type": "note_on",
        "time": 0,
        "note": 59,
        "velocity": 60,
        "channel": 0
      },
      {
        "type": "note_on",
        "time": 0,
        "note": 66,
        "velocity": 60,
        "channel": 0
      },
      {
        "type": "note_on",
        "time": 0,
        "note": 54,
        "velocity": 60,
        "channel": 0
      },
      {
        "type": "note_on",
        "time": 0,
        "note": 62,
        "velocity": 60,
        "channel": 0
      },
      {
        "type": "note_on",
        "time": 59,
        "note": 47,
        "velocity": 0,
        "channel": 0
      },
      {
        "type": "note_on",
        "time": 0,
        "note": 42,
        "velocity": 0,
        "channel": 0
      },
      {
        "type": "note_on",
        "time": 0,
        "note": 59,
        "velocity": 0,
        "channel": 0
      },
      {
        "type": "note_on",
        "time": 0,
        "note": 66,
        "velocity": 0,
        "channel": 0
      },
      {
        "type": "note_on",
        "time": 0,
        "note": 54,
        "velocity": 0,
        "channel": 0
      },
      {
        "type": "note_on",
        "time": 0,
        "note": 62,
        "velocity": 0,
        "channel": 0
      },
      {
        "type": "note_on",
        "time": 1,
        "note": 61,
        "velocity": 60,
        "channel": 0
      },
      {
        "type": "note_on",
        "time": 0,
        "note": 58,
        "velocity": 60,
        "channel": 0
      },
      {
        "type": "note_on",
        "time": 0,
        "note": 54,
        "velocity": 60,
        "channel": 0
      },
      {
        "type": "note_on",
        "time": 0,
        "note": 42,
        "velocity": 60,
        "channel": 0
      },
      {
        "type": "note_on",
        "time": 0,
        "note": 49,
        "velocity": 60,
        "channel": 0
      },
      {
        "type": "note_on",
        "time": 0,
        "note": 66,
        "velocity": 60,
        "channel": 0
      },
      {
        "type": "note_on",
        "time": 29,
        "note": 61,
        "velocity": 0,
        "channel": 0
      },
      {
        "type": "note_on",
        "time": 0,
        "note": 58,
        "velocity": 0,
        "channel": 0
      },
      {
        "type": "note_on",
        "time": 0,
        "note": 54,
        "velocity": 0,
        "channel": 0
      },
      {
        "type": "note_on",
        "time": 0,
        "note": 42,
        "velocity": 0,
        "channel": 0
      },
      {
        "type": "note_on",
        "time": 0,
        "note": 49,
        "velocity": 0,
        "channel": 0
      },
      {
        "type": "note_on",
        "time": 0,
        "note": 66,
        "velocity": 0,
        "channel": 0
      },
      {
        "type": "note_on",
        "time": 1,
        "note": 58,
        "velocity": 60,
        "channel": 0
      },
      {
        "type": "note_on",
        "time": 0,
        "note": 42,
        "velocity": 60,
        "channel": 0
      },
      {
        "type": "note_on",
        "time": 0,
        "note": 49,
        "velocity": 60,
        "channel": 0
      },
      {
        "type": "note_on",
        "time": 0,
        "note": 61,
        "velocity": 60,
        "channel": 0
      },
      {
        "type": "note_on",
        "time": 0,
        "note": 54,
        "velocity": 60,
        "channel": 0
      },
      {
        "type": "note_on",
        "time": 0,
        "note": 66,
        "velocity": 60,
        "channel": 0
      },
      {
        "type": "note_on",
        "time": 59,
        "note": 58,
        "velocity": 0,
        "channel": 0
      },
      {
        "type": "note_on",
        "time": 0,
        "note": 42,
        "velocity": 0,
        "channel": 0
      },
      {
        "type": "note_on",
        "time": 0,
        "note": 49,
        "velocity": 0,
        "channel": 0
      },
      {
        "type": "note_on",
        "time": 0,
        "note": 61,
        "velocity": 0,
        "channel": 0
      },
      {
        "type": "note_on",
        "time": 0,
        "note": 54,
        "velocity": 0,
        "channel": 0
      },
      {
        "type": "note_on",
        "time": 0,
        "note": 66,
        "velocity": 0,
        "channel": 0
      },
      {
        "type": "note_on",
        "time": 1,
        "note": 66,
        "velocity": 60,
        "channel": 0
      },
      {
        "type": "note_on",
        "time": 0,
        "note": 58,
        "velocity": 60,
        "channel": 0
      },
      {
        "type": "note_on",
        "time": 0,
        "note": 49,
        "velocity": 60,
        "channel": 0
      },
      {
        "type": "note_on",
        "time": 0,
        "note": 54,
        "velocity": 60,
        "channel": 0
      },
      {
        "type": "note_on",
        "time": 0,
        "note": 42,
        "velocity": 60,
        "channel": 0
      },
      {
        "type": "note_on",
        "time": 0,
        "note": 61,
        "velocity": 60,
        "channel": 0
      },
      {
        "type": "note_on",
        "time": 29,
        "note": 66,
        "velocity": 0,
        "channel": 0
      },
      {
        "type": "note_on",
        "time": 0,
        "note": 58,
        "velocity": 0,
        "channel": 0
      },
      {
        "type": "note_on",
        "time": 0,
        "note": 49,
        "velocity": 0,
        "channel": 0
      },
      {
        "type": "note_on",
        "time": 0,
        "note": 54,
        "velocity": 0,
        "channel": 0
      },
      {
        "type": "note_on",
        "time": 0,
        "note": 42,
        "velocity": 0,
        "channel": 0
      },
      {
        "type": "note_on",
        "time": 0,
        "note": 61,
        "velocity": 0,
        "channel": 0
      },
      {
        "type": "note_on",
        "time": 1,
        "note": 42,
        "velocity": 60,
        "channel": 0
      },
      {
        "type": "note_on",
        "time": 0,
        "note": 61,
        "velocity": 60,
        "channel": 0
      },
      {
        "type": "note_on",
        "time": 0,
        "note": 54,
        "velocity": 60,
        "channel": 0
      },
      {
        "type": "note_on",
        "time": 0,
        "note": 49,
        "velocity": 60,
        "channel": 0
      },
      {
        "type": "note_on",
        "time": 0,
        "note": 58,
        "velocity": 60,
        "channel": 0
      },
      {
        "type": "note_on",
        "time": 0,
        "note": 66,
        "velocity": 60,
        "channel": 0
      },
      {
        "type": "note_on",
        "time": 59,
        "note": 42,
        "velocity": 0,
        "channel": 0
      },
      {
        "type": "note_on",
        "time": 0,
        "note": 61,
        "velocity": 0,
        "channel": 0
      },
      {
        "type": "note_on",
        "time": 0,
        "note": 54,
        "velocity": 0,
        "channel": 0
      },
      {
        "type": "note_on",
        "time": 0,
        "note": 49,
        "velocity": 0,
        "channel": 0
      },
      {
        "type": "note_on",
        "time": 0,
        "note": 58,
        "velocity": 0,
        "channel": 0
      },
      {
        "type": "note_on",
        "time": 0,
        "note": 66,
        "velocity": 0,
        "channel": 0
      },
      {
        "type": "note_on",
        "time": 1,
        "note": 42,
        "velocity": 60,
        "channel": 0
      },
      {
        "type": "note_on",
        "time": 0,
        "note": 54,
        "velocity": 60,
        "channel": 0
      },
      {
        "type": "note_on",
        "time": 0,
        "note": 58,
        "velocity": 60,
        "channel": 0
      },
      {
        "type": "note_on",
        "time": 0,
        "note": 49,
        "velocity": 60,
        "channel": 0
      },
      {
        "type": "note_on",
        "time": 0,
        "note": 66,
        "velocity": 60,
        "channel": 0
      },
      {
        "type": "note_on",
        "time": 0,
        "note": 61,
        "velocity": 60,
        "channel": 0
      },
      {
        "type": "note_on",
        "time": 29,
        "note": 42,
        "velocity": 0,
        "channel": 0
      },
      {
        "type": "note_on",
        "time": 0,
        "note": 54,
        "velocity": 0,
        "channel": 0
      },
      {
        "type": "note_on",
        "time": 0,
        "note": 58,
        "velocity": 0,
        "channel": 0
      },
      {
        "type": "note_on",
        "time": 0,
        "note": 49,
        "velocity": 0,
        "channel": 0
      },
      {
        "type": "note_on",
        "time": 0,
        "note": 66,
        "velocity": 0,
        "channel": 0
      },
      {
        "type": "note_on",
        "time": 0,
        "note": 61,
        "velocity": 0,
        "channel": 0
      },
      {
        "type": "note_on",
        "time": 1,
        "note": 66,
        "velocity": 60,
        "channel": 0
      },
      {
        "type": "note_on",
        "time": 0,
        "note": 61,
        "velocity": 60,
        "channel": 0
      },
      {
        "type": "note_on",
        "time": 0,
        "note": 58,
        "velocity": 60,
        "channel": 0
      },
      {
        "type": "note_on",
        "time": 0,
        "note": 49,
        "velocity": 60,
        "channel": 0
      },
      {
        "type": "note_on",
        "time": 0,
        "note": 42,
        "velocity": 60,
        "channel": 0
      },
      {
        "type": "note_on",
        "time": 0,
        "note": 54,
        "velocity": 60,
        "channel": 0
      },
      {
        "type": "note_on",
        "time": 59,
        "note": 66,
        "velocity": 0,
        "channel": 0
      },
      {
        "type": "note_on",
        "time": 0,
        "note": 61,
        "velocity": 0,
        "channel": 0
      },
      {
        "type": "note_on",
        "time": 0,
        "note": 58,
        "velocity": 0,
        "channel": 0
      },
      {
        "type": "note_on",
        "time": 0,
        "note": 49,
        "velocity": 0,
        "channel": 0
      },
      {
        "type": "note_on",
        "time": 0,
        "note": 42,
        "velocity": 0,
        "channel": 0
      },
      {
        "type": "note_on",
        "time": 0,
        "note": 54,
        "velocity": 0,
        "channel": 0
      },
      {
        "type": "note_on",
        "time": 1,
        "note": 54,
        "velocity": 60,
        "channel": 0
      },
      {
        "type": "note_on",
        "time": 0,
        "note": 49,
        "velocity": 60,
        "channel": 0
      },
      {
        "type": "note_on",
        "time": 0,
        "note": 61,
        "velocity": 60,
        "channel": 0
      },
      {
        "type": "note_on",
        "time": 0,
        "note": 66,
        "velocity": 60,
        "channel": 0
      },
      {
        "type": "note_on",
        "time": 0,
        "note": 42,
        "velocity": 60,
        "channel": 0
      },
      {
        "type": "note_on",
        "time": 0,
        "note": 58,
        "velocity": 60,
        "channel": 0
      },
      {
        "type": "note_on",
        "time": 29,
        "note": 54,
        "velocity": 0,
        "channel": 0
      },
      {
        "type": "note_on",
        "time": 0,
        "note": 49,
        "velocity": 0,
        "channel": 0
      },
      {
        "type": "note_on",
        "time": 0,
        "note": 61,
        "velocity": 0,
        "channel": 0
      },
      {
        "type": "note_on",
        "time": 0,
        "note": 66,
        "velocity": 0,
        "channel": 0
      },
      {
        "type": "note_on",
        "time": 0,
        "note": 42,
        "velocity": 0,
        "channel": 0
      },
      {
        "type": "note_on",
        "time": 0,
        "note": 58,
        "velocity": 0,
        "channel": 0
      },
      {
        "type": "note_on",
        "time": 1,
        "note": 58,
        "velocity": 60,
        "channel": 0
      },
      {
        "type": "note_on",
        "time": 0,
        "note": 49,
        "velocity": 60,
        "channel": 0
      },
      {
        "type": "note_on",
        "time": 0,
        "note": 61,
        "velocity": 60,
        "channel": 0
      },
      {
        "type": "note_on",
        "time": 0,
        "note": 54,
        "velocity": 60,
        "channel": 0
      },
      {
        "type": "note_on",
        "time": 0,
        "note": 42,
        "velocity": 60,
        "channel": 0
      },
      {
        "type": "note_on",
        "time": 0,
        "note": 66,
        "velocity": 60,
        "channel": 0
      },
      {
        "type": "note_on",
        "time": 59,
        "note": 58,
        "velocity": 0,
        "channel": 0
      },
      {
        "type": "note_on",
        "time": 0,
        "note": 49,
        "velocity": 0,
        "channel": 0
      },
      {
        "type": "note_on",
        "time": 0,
        "note": 61,
        "velocity": 0,
        "channel": 0
      },
      {
        "type": "note_on",
        "time": 0,
        "note": 54,
        "velocity": 0,
        "channel": 0
      },
      {
        "type": "note_on",
        "time": 0,
        "note": 42,
        "velocity": 0,
        "channel": 0
      },
      {
        "type": "note_on",
        "time": 0,
        "note": 66,
        "velocity": 0,
        "channel": 0
      },
      {
        "type": "note_on",
        "time": 1,
        "note": 58,
        "velocity": 60,
        "channel": 0
      },
      {
        "type": "note_on",
        "time": 0,
        "note": 66,
        "velocity": 60,
        "channel": 0
      },
      {
        "type": "note_on",
        "time": 0,
        "note": 61,
        "velocity": 60,
        "channel": 0
      },
      {
        "type": "note_on",
        "time": 0,
        "note": 49,
        "velocity": 60,
        "channel": 0
      },
      {
        "type": "note_on",
        "time": 0,
        "note": 42,
        "velocity": 60,
        "channel": 0
      },
      {
        "type": "note_on",
        "time": 0,
        "note": 54,
        "velocity": 60,
        "channel": 0
      },
      {
        "type": "note_on",
        "time": 59,
        "note": 58,
        "velocity": 0,
        "channel": 0
      },
      {
        "type": "note_on",
        "time": 0,
        "note": 66,
        "velocity": 0,
        "channel": 0
      },
      {
        "type": "note_on",
        "time": 0,
        "note": 61,
        "velocity": 0,
        "channel": 0
      },
      {
        "type": "note_on",
        "time": 0,
        "note": 49,
        "velocity": 0,
        "channel": 0
      },
      {
        "type": "note_on",
        "time": 0,
        "note": 42,
        "velocity": 0,
        "channel": 0
      },
      {
        "type": "note_on",
        "time": 0,
        "note": 54,
        "velocity": 0,
        "channel": 0
      },
      {
        "type": "note_on",
        "time": 1,
        "note": 66,
        "velocity": 60,
        "channel": 0
      },
      {
        "type": "note_on",
        "time": 0,
        "note": 49,
        "velocity": 60,
        "channel": 0
      },
      {
        "type": "note_on",
        "time": 0,
        "note": 42,
        "velocity": 60,
        "channel": 0
      },
      {
        "type": "note_on",
        "time": 0,
        "note": 58,
        "velocity": 60,
        "channel": 0
      },
      {
        "type": "note_on",
        "time": 0,
        "note": 54,
        "velocity": 60,
        "channel": 0
      },
      {
        "type": "note_on",
        "time": 0,
        "note": 61,
        "velocity": 60,
        "channel": 0
      },
      {
        "type": "note_on",
        "time": 59,
        "note": 66,
        "velocity": 0,
        "channel": 0
      },
      {
        "type": "note_on",
        "time": 0,
        "note": 49,
        "velocity": 0,
        "channel": 0
      },
      {
        "type": "note_on",
        "time": 0,
        "note": 42,
        "velocity": 0,
        "channel": 0
      },
      {
        "type": "note_on",
        "time": 0,
        "note": 58,
        "velocity": 0,
        "channel": 0
      },
      {
        "type": "note_on",
        "time": 0,
        "note": 54,
        "velocity": 0,
        "channel": 0
      },
      {
        "type": "note_on",
        "time": 0,
        "note": 61,
        "velocity": 0,
        "channel": 0
      },
      {
        "type": "note_on",
        "time": 1,
        "note": 61,
        "velocity": 60,
        "channel": 0
      },
      {
        "type": "note_on",
        "time": 0,
        "note": 57,
        "velocity": 60,
        "channel": 0
      },
      {
        "type": "note_on",
        "time": 0,
        "note": 40,
        "velocity": 60,
        "channel": 0
      },
      {
        "type": "note_on",
        "time": 0,
        "note": 45,
        "velocity": 60,
        "channel": 0
      },
      {
        "type": "note_on",
        "time": 0,
        "note": 64,
        "velocity": 60,
        "channel": 0
      },
      {
        "type": "note_on",
        "time": 0,
        "note": 52,
        "velocity": 60,
        "channel": 0
      },
      {
        "type": "note_on",
        "time": 29,
        "note": 61,
        "velocity": 0,
        "channel": 0
      },
      {
        "type": "note_on",
        "time": 0,
        "note": 57,
        "velocity": 0,
        "channel": 0
      },
      {
        "type": "note_on",
        "time": 0,
        "note": 40,
        "velocity": 0,
        "channel": 0
      },
      {
        "type": "note_on",
        "time": 0,
        "note": 45,
        "velocity": 0,
        "channel": 0
      },
      {
        "type": "note_on",
        "time": 0,
        "note": 64,
        "velocity": 0,
        "channel": 0
      },
      {
        "type": "note_on",
        "time": 0,
        "note": 52,
        "velocity": 0,
        "channel": 0
      },
      {
        "type": "note_on",
        "time": 1,
        "note": 57,
        "velocity": 60,
        "channel": 0
      },
      {
        "type": "note_on",
        "time": 0,
        "note": 40,
        "velocity": 60,
        "channel": 0
      },
      {
        "type": "note_on",
        "time": 0,
        "note": 61,
        "velocity": 60,
        "channel": 0
      },
      {
        "type": "note_on",
        "time": 0,
        "note": 52,
        "velocity": 60,
        "channel": 0
      },
      {
        "type": "note_on",
        "time": 0,
        "note": 45,
        "velocity": 60,
        "channel": 0
      },
      {
        "type": "note_on",
        "time": 0,
        "note": 64,
        "velocity": 60,
        "channel": 0
      },
      {
        "type": "note_on",
        "time": 59,
        "note": 57,
        "velocity": 0,
        "channel": 0
      },
      {
        "type": "note_on",
        "time": 0,
        "note": 40,
        "velocity": 0,
        "channel": 0
      },
      {
        "type": "note_on",
        "time": 0,
        "note": 61,
        "velocity": 0,
        "channel": 0
      },
      {
        "type": "note_on",
        "time": 0,
        "note": 52,
        "velocity": 0,
        "channel": 0
      },
      {
        "type": "note_on",
        "time": 0,
        "note": 45,
        "velocity": 0,
        "channel": 0
      },
      {
        "type": "note_on",
        "time": 0,
        "note": 64,
        "velocity": 0,
        "channel": 0
      },
      {
        "type": "note_on",
        "time": 1,
        "note": 45,
        "velocity": 60,
        "channel": 0
      },
      {
        "type": "note_on",
        "time": 0,
        "note": 40,
        "velocity": 60,
        "channel": 0
      },
      {
        "type": "note_on",
        "time": 0,
        "note": 52,
        "velocity": 60,
        "channel": 0
      },
      {
        "type": "note_on",
        "time": 0,
        "note": 57,
        "velocity": 60,
        "channel": 0
      },
      {
        "type": "note_on",
        "time": 0,
        "note": 64,
        "velocity": 60,
        "channel": 0
      },
      {
        "type": "note_on",
        "time": 0,
        "note": 61,
        "velocity": 60,
        "channel": 0
      },
      {
        "type": "note_on",
        "time": 29,
        "note": 45,
        "velocity": 0,
        "channel": 0
      },
      {
        "type": "note_on",
        "time": 0,
        "note": 40,
        "velocity": 0,
        "channel": 0
      },
      {
        "type": "note_on",
        "time": 0,
        "note": 52,
        "velocity": 0,
        "channel": 0
      },
      {
        "type": "note_on",
        "time": 0,
        "note": 57,
        "velocity": 0,
        "channel": 0
      },
      {
        "type": "note_on",
        "time": 0,
        "note": 64,
        "velocity": 0,
        "channel": 0
      },
      {
        "type": "note_on",
        "time": 0,
        "note": 61,
        "velocity": 0,
        "channel": 0
      },
      {
        "type": "note_on",
        "time": 1,
        "note": 57,
        "velocity": 60,
        "channel": 0
      },
      {
        "type": "note_on",
        "time": 0,
        "note": 45,
        "velocity": 60,
        "channel": 0
      },
      {
        "type": "note_on",
        "time": 0,
        "note": 64,
        "velocity": 60,
        "channel": 0
      },
      {
        "type": "note_on",
        "time": 0,
        "note": 52,
        "velocity": 60,
        "channel": 0
      },
      {
        "type": "note_on",
        "time": 0,
        "note": 40,
        "velocity": 60,
        "channel": 0
      },
      {
        "type": "note_on",
        "time": 0,
        "note": 61,
        "velocity": 60,
        "channel": 0
      },
      {
        "type": "note_on",
        "time": 59,
        "note": 57,
        "velocity": 0,
        "channel": 0
      },
      {
        "type": "note_on",
        "time": 0,
        "note": 45,
        "velocity": 0,
        "channel": 0
      },
      {
        "type": "note_on",
        "time": 0,
        "note": 64,
        "velocity": 0,
        "channel": 0
      },
      {
        "type": "note_on",
        "time": 0,
        "note": 52,
        "velocity": 0,
        "channel": 0
      },
      {
        "type": "note_on",
        "time": 0,
        "note": 40,
        "velocity": 0,
        "channel": 0
      },
      {
        "type": "note_on",
        "time": 0,
        "note": 61,
        "velocity": 0,
        "channel": 0
      },
      {
        "type": "note_on",
        "time": 1,
        "note": 40,
        "velocity": 60,
        "channel": 0
      },
      {
        "type": "note_on",
        "time": 0,
        "note": 57,
        "velocity": 60,
        "channel": 0
      },
      {
        "type": "note_on",
        "time": 0,
        "note": 64,
        "velocity": 60,
        "channel": 0
      },
      {
        "type": "note_on",
        "time": 0,
        "note": 52,
        "velocity": 60,
        "channel": 0
      },
      {
        "type": "note_on",
        "time": 0,
        "note": 61,
        "velocity": 60,
        "channel": 0
      },
      {
        "type": "note_on",
        "time": 0,
        "note": 45,
        "velocity": 60,
        "channel": 0
      },
      {
        "type": "note_on",
        "time": 29,
        "note": 40,
        "velocity": 0,
        "channel": 0
      },
      {
        "type": "note_on",
        "time": 0,
        "note": 57,
        "velocity": 0,
        "channel": 0
      },
      {
        "type": "note_on",
        "time": 0,
        "note": 64,
        "velocity": 0,
        "channel": 0
      },
      {
        "type": "note_on",
        "time": 0,
        "note": 52,
        "velocity": 0,
        "channel": 0
      },
      {
        "type": "note_on",
        "time": 0,
        "note": 61,
        "velocity": 0,
        "channel": 0
      },
      {
        "type": "note_on",
        "time": 0,
        "note": 45,
        "velocity": 0,
        "channel": 0
      },
      {
        "type": "note_on",
        "time": 1,
        "note": 61,
        "velocity": 60,
        "channel": 0
      },
      {
        "type": "note_on",
        "time": 0,
        "note": 45,
        "velocity": 60,
        "channel": 0
      },
      {
        "type": "note_on",
        "time": 0,
        "note": 64,
        "velocity": 60,
        "channel": 0
      },
      {
        "type": "note_on",
        "time": 0,
        "note": 40,
        "velocity": 60,
        "channel": 0
      },
      {
        "type": "note_on",
        "time": 0,
        "note": 57,
        "velocity": 60,
        "channel": 0
      },
      {
        "type": "note_on",
        "time": 0,
        "note": 52,
        "velocity": 60,
        "channel": 0
      },
      {
        "type": "note_on",
        "time": 59,
        "note": 61,
        "velocity": 0,
        "channel": 0
      },
      {
        "type": "note_on",
        "time": 0,
        "note": 45,
        "velocity": 0,
        "channel": 0
      },
      {
        "type": "note_on",
        "time": 0,
        "note": 64,
        "velocity": 0,
        "channel": 0
      },
      {
        "type": "note_on",
        "time": 0,
        "note": 40,
        "velocity": 0,
        "channel": 0
      },
      {
        "type": "note_on",
        "time": 0,
        "note": 57,
        "velocity": 0,
        "channel": 0
      },
      {
        "type": "note_on",
        "time": 0,
        "note": 52,
        "velocity": 0,
        "channel": 0
      },
      {
        "type": "note_on",
        "time": 1,
        "note": 64,
        "velocity": 60,
        "channel": 0
      },
      {
        "type": "note_on",
        "time": 0,
        "note": 57,
        "velocity": 60,
        "channel": 0
      },
      {
        "type": "note_on",
        "time": 0,
        "note": 40,
        "velocity": 60,
        "channel": 0
      },
      {
        "type": "note_on",
        "time": 0,
        "note": 61,
        "velocity": 60,
        "channel": 0
      },
      {
        "type": "note_on",
        "time": 0,
        "note": 52,
        "velocity": 60,
        "channel": 0
      },
      {
        "type": "note_on",
        "time": 0,
        "note": 45,
        "velocity": 60,
        "channel": 0
      },
      {
        "type": "note_on",
        "time": 29,
        "note": 64,
        "velocity": 0,
        "channel": 0
      },
      {
        "type": "note_on",
        "time": 0,
        "note": 57,
        "velocity": 0,
        "channel": 0
      },
      {
        "type": "note_on",
        "time": 0,
        "note": 40,
        "velocity": 0,
        "channel": 0
      },
      {
        "type": "note_on",
        "time": 0,
        "note": 61,
        "velocity": 0,
        "channel": 0
      },
      {
        "type": "note_on",
        "time": 0,
        "note": 52,
        "velocity": 0,
        "channel": 0
      },
      {
        "type": "note_on",
        "time": 0,
        "note": 45,
        "velocity": 0,
        "channel": 0
      },
      {
        "type": "note_on",
        "time": 1,
        "note": 57,
        "velocity": 60,
        "channel": 0
      },
      {
        "type": "note_on",
        "time": 0,
        "note": 40,
        "velocity": 60,
        "channel": 0
      },
      {
        "type": "note_on",
        "time": 0,
        "note": 52,
        "velocity": 60,
        "channel": 0
      },
      {
        "type": "note_on",
        "time": 0,
        "note": 64,
        "velocity": 60,
        "channel": 0
      },
      {
        "type": "note_on",
        "time": 0,
        "note": 61,
        "velocity": 60,
        "channel": 0
      },
      {
        "type": "note_on",
        "time": 0,
        "note": 45,
        "velocity": 60,
        "channel": 0
      },
      {
        "type": "note_on",
        "time": 59,
        "note": 57,
        "velocity": 0,
        "channel": 0
      },
      {
        "type": "note_on",
        "time": 0,
        "note": 40,
        "velocity": 0,
        "channel": 0
      },
      {
        "type": "note_on",
        "time": 0,
        "note": 52,
        "velocity": 0,
        "channel": 0
      },
      {
        "type": "note_on",
        "time": 0,
        "note": 64,
        "velocity": 0,
        "channel": 0
      },
      {
        "type": "note_on",
        "time": 0,
        "note": 61,
        "velocity": 0,
        "channel": 0
      },
      {
        "type": "note_on",
        "time": 0,
        "note": 45,
        "velocity": 0,
        "channel": 0
      },
      {
        "type": "note_on",
        "time": 1,
        "note": 57,
        "velocity": 60,
        "channel": 0
      },
      {
        "type": "note_on",
        "time": 0,
        "note": 61,
        "velocity": 60,
        "channel": 0
      },
      {
        "type": "note_on",
        "time": 0,
        "note": 45,
        "velocity": 60,
        "channel": 0
      },
      {
        "type": "note_on",
        "time": 0,
        "note": 64,
        "velocity": 60,
        "channel": 0
      },
      {
        "type": "note_on",
        "time": 0,
        "note": 40,
        "velocity": 60,
        "channel": 0
      },
      {
        "type": "note_on",
        "time": 0,
        "note": 52,
        "velocity": 60,
        "channel": 0
      },
      {
        "type": "note_on",
        "time": 59,
        "note": 57,
        "velocity": 0,
        "channel": 0
      },
      {
        "type": "note_on",
        "time": 0,
        "note": 61,
        "velocity": 0,
        "channel": 0
      },
      {
        "type": "note_on",
        "time": 0,
        "note": 45,
        "velocity": 0,
        "channel": 0
      },
      {
        "type": "note_on",
        "time": 0,
        "note": 64,
        "velocity": 0,
        "channel": 0
      },
      {
        "type": "note_on",
        "time": 0,
        "note": 40,
        "velocity": 0,
        "channel": 0
      },
      {
        "type": "note_on",
        "time": 0,
        "note": 52,
        "velocity": 0,
        "channel": 0
      },
      {
        "type": "note_on",
        "time": 1,
        "note": 45,
        "velocity": 60,
        "channel": 0
      },
      {
        "type": "note_on",
        "time": 0,
        "note": 40,
        "velocity": 60,
        "channel": 0
      },
      {
        "type": "note_on",
        "time": 0,
        "note": 57,
        "velocity": 60,
        "channel": 0
      },
      {
        "type": "note_on",
        "time": 0,
        "note": 64,
        "velocity": 60,
        "channel": 0
      },
      {
        "type": "note_on",
        "time": 0,
        "note": 52,
        "velocity": 60,
        "channel": 0
      },
      {
        "type": "note_on",
        "time": 0,
        "note": 61,
        "velocity": 60,
        "channel": 0
      },
      {
        "type": "note_on",
        "time": 59,
        "note": 45,
        "velocity": 0,
        "channel": 0
      },
      {
        "type": "note_on",
        "time": 0,
        "note": 40,
        "velocity": 0,
        "channel": 0
      },
      {
        "type": "note_on",
        "time": 0,
        "note": 57,
        "velocity": 0,
        "channel": 0
      },
      {
        "type": "note_on",
        "time": 0,
        "note": 64,
        "velocity": 0,
        "channel": 0
      },
      {
        "type": "note_on",
        "time": 0,
        "note": 52,
        "velocity": 0,
        "channel": 0
      },
      {
        "type": "note_on",
        "time": 0,
        "note": 61,
        "velocity": 0,
        "channel": 0
      },
      {
        "type": "note_on",
        "time": 1,
        "note": 59,
        "velocity": 60,
        "channel": 0
      },
      {
        "type": "note_on",
        "time": 0,
        "note": 56,
        "velocity": 60,
        "channel": 0
      },
      {
        "type": "note_on",
        "time": 0,
        "note": 52,
        "velocity": 60,
        "channel": 0
      },
      {
        "type": "note_on",
        "time": 0,
        "note": 40,
        "velocity": 60,
        "channel": 0
      },
      {
        "type": "note_on",
        "time": 0,
        "note": 47,
        "velocity": 60,
        "channel": 0
      },
      {
        "type": "note_on",
        "time": 0,
        "note": 64,
        "velocity": 60,
        "channel": 0
      },
      {
        "type": "note_on",
        "time": 29,
        "note": 59,
        "velocity": 0,
        "channel": 0
      },
      {
        "type": "note_on",
        "time": 0,
        "note": 56,
        "velocity": 0,
        "channel": 0
      },
      {
        "type": "note_on",
        "time": 0,
        "note": 52,
        "velocity": 0,
        "channel": 0
      },
      {
        "type": "note_on",
        "time": 0,
        "note": 40,
        "velocity": 0,
        "channel": 0
      },
      {
        "type": "note_on",
        "time": 0,
        "note": 47,
        "velocity": 0,
        "channel": 0
      },
      {
        "type": "note_on",
        "time": 0,
        "note": 64,
        "velocity": 0,
        "channel": 0
      },
      {
        "type": "note_on",
        "time": 1,
        "note": 56,
        "velocity": 60,
        "channel": 0
      },
      {
        "type": "note_on",
        "time": 0,
        "note": 40,
        "velocity": 60,
        "channel": 0
      },
      {
        "type": "note_on",
        "time": 0,
        "note": 47,
        "velocity": 60,
        "channel": 0
      },
      {
        "type": "note_on",
        "time": 0,
        "note": 59,
        "velocity": 60,
        "channel": 0
      },
      {
        "type": "note_on",
        "time": 0,
        "note": 52,
        "velocity": 60,
        "channel": 0
      },
      {
        "type": "note_on",
        "time": 0,
        "note": 64,
        "velocity": 60,
        "channel": 0
      },
      {
        "type": "note_on",
        "time": 59,
        "note": 56,
        "velocity": 0,
        "channel": 0
      },
      {
        "type": "note_on",
        "time": 0,
        "note": 40,
        "velocity": 0,
        "channel": 0
      },
      {
        "type": "note_on",
        "time": 0,
        "note": 47,
        "velocity": 0,
        "channel": 0
      },
      {
        "type": "note_on",
        "time": 0,
        "note": 59,
        "velocity": 0,
        "channel": 0
      },
      {
        "type": "note_on",
        "time": 0,
        "note": 52,
        "velocity": 0,
        "channel": 0
      },
      {
        "type": "note_on",
        "time": 0,
        "note": 64,
        "velocity": 0,
        "channel": 0
      },
      {
        "type": "note_on",
        "time": 1,
        "note": 64,
        "velocity": 60,
        "channel": 0
      },
      {
        "type": "note_on",
        "time": 0,
        "note": 56,
        "velocity": 60,
        "channel": 0
      },
      {
        "type": "note_on",
        "time": 0,
        "note": 47,
        "velocity": 60,
        "channel": 0
      },
      {
        "type": "note_on",
        "time": 0,
        "note": 52,
        "velocity": 60,
        "channel": 0
      },
      {
        "type": "note_on",
        "time": 0,
        "note": 40,
        "velocity": 60,
        "channel": 0
      },
      {
        "type": "note_on",
        "time": 0,
        "note": 59,
        "velocity": 60,
        "channel": 0
      },
      {
        "type": "note_on",
        "time": 29,
        "note": 64,
        "velocity": 0,
        "channel": 0
      },
      {
        "type": "note_on",
        "time": 0,
        "note": 56,
        "velocity": 0,
        "channel": 0
      },
      {
        "type": "note_on",
        "time": 0,
        "note": 47,
        "velocity": 0,
        "channel": 0
      },
      {
        "type": "note_on",
        "time": 0,
        "note": 52,
        "velocity": 0,
        "channel": 0
      },
      {
        "type": "note_on",
        "time": 0,
        "note": 40,
        "velocity": 0,
        "channel": 0
      },
      {
        "type": "note_on",
        "time": 0,
        "note": 59,
        "velocity": 0,
        "channel": 0
      },
      {
        "type": "note_on",
        "time": 1,
        "note": 40,
        "velocity": 60,
        "channel": 0
      },
      {
        "type": "note_on",
        "time": 0,
        "note": 59,
        "velocity": 60,
        "channel": 0
      },
      {
        "type": "note_on",
        "time": 0,
        "note": 52,
        "velocity": 60,
        "channel": 0
      },
      {
        "type": "note_on",
        "time": 0,
        "note": 47,
        "velocity": 60,
        "channel": 0
      },
      {
        "type": "note_on",
        "time": 0,
        "note": 56,
        "velocity": 60,
        "channel": 0
      },
      {
        "type": "note_on",
        "time": 0,
        "note": 64,
        "velocity": 60,
        "channel": 0
      },
      {
        "type": "note_on",
        "time": 59,
        "note": 40,
        "velocity": 0,
        "channel": 0
      },
      {
        "type": "note_on",
        "time": 0,
        "note": 59,
        "velocity": 0,
        "channel": 0
      },
      {
        "type": "note_on",
        "time": 0,
        "note": 52,
        "velocity": 0,
        "channel": 0
      },
      {
        "type": "note_on",
        "time": 0,
        "note": 47,
        "velocity": 0,
        "channel": 0
      },
      {
        "type": "note_on",
        "time": 0,
        "note": 56,
        "velocity": 0,
        "channel": 0
      },
      {
        "type": "note_on",
        "time": 0,
        "note": 64,
        "velocity": 0,
        "channel": 0
      },
      {
        "type": "note_on",
        "time": 1,
        "note": 40,
        "velocity": 60,
        "channel": 0
      },
      {
        "type": "note_on",
        "time": 0,
        "note": 52,
        "velocity": 60,
        "channel": 0
      },
      {
        "type": "note_on",
        "time": 0,
        "note": 56,
        "velocity": 60,
        "channel": 0
      },
      {
        "type": "note_on",
        "time": 0,
        "note": 47,
        "velocity": 60,
        "channel": 0
      },
      {
        "type": "note_on",
        "time": 0,
        "note": 64,
        "velocity": 60,
        "channel": 0
      },
      {
        "type": "note_on",
        "time": 0,
        "note": 59,
        "velocity": 60,
        "channel": 0
      },
      {
        "type": "note_on",
        "time": 29,
        "note": 40,
        "velocity": 0,
        "channel": 0
      },
      {
        "type": "note_on",
        "time": 0,
        "note": 52,
        "velocity": 0,
        "channel": 0
      },
      {
        "type": "note_on",
        "time": 0,
        "note": 56,
        "velocity": 0,
        "channel": 0
      },
      {
        "type": "note_on",
        "time": 0,
        "note": 47,
        "velocity": 0,
        "channel": 0
      },
      {
        "type": "note_on",
        "time": 0,
        "note": 64,
        "velocity": 0,
        "channel": 0
      },
      {
        "type": "note_on",
        "time": 0,
        "note": 59,
        "velocity": 0,
        "channel": 0
      },
      {
        "type": "note_on",
        "time": 1,
        "note": 64,
        "velocity": 60,
        "channel": 0
      },
      {
        "type": "note_on",
        "time": 0,
        "note": 59,
        "velocity": 60,
        "channel": 0
      },
      {
        "type": "note_on",
        "time": 0,
        "note": 56,
        "velocity": 60,
        "channel": 0
      },
      {
        "type": "note_on",
        "time": 0,
        "note": 47,
        "velocity": 60,
        "channel": 0
      },
      {
        "type": "note_on",
        "time": 0,
        "note": 40,
        "velocity": 60,
        "channel": 0
      },
      {
        "type": "note_on",
        "time": 0,
        "note": 52,
        "velocity": 60,
        "channel": 0
      },
      {
        "type": "note_on",
        "time": 59,
        "note": 64,
        "velocity": 0,
        "channel": 0
      },
      {
        "type": "note_on",
        "time": 0,
        "note": 59,
        "velocity": 0,
        "channel": 0
      },
      {
        "type": "note_on",
        "time": 0,
        "note": 56,
        "velocity": 0,
        "channel": 0
      },
      {
        "type": "note_on",
        "time": 0,
        "note": 47,
        "velocity": 0,
        "channel": 0
      },
      {
        "type": "note_on",
        "time": 0,
        "note": 40,
        "velocity": 0,
        "channel": 0
      },
      {
        "type": "note_on",
        "time": 0,
        "note": 52,
        "velocity": 0,
        "channel": 0
      },
      {
        "type": "note_on",
        "time": 1,
        "note": 52,
        "velocity": 60,
        "channel": 0
      },
      {
        "type": "note_on",
        "time": 0,
        "note": 47,
        "velocity": 60,
        "channel": 0
      },
      {
        "type": "note_on",
        "time": 0,
        "note": 59,
        "velocity": 60,
        "channel": 0
      },
      {
        "type": "note_on",
        "time": 0,
        "note": 64,
        "velocity": 60,
        "channel": 0
      },
      {
        "type": "note_on",
        "time": 0,
        "note": 40,
        "velocity": 60,
        "channel": 0
      },
      {
        "type": "note_on",
        "time": 0,
        "note": 56,
        "velocity": 60,
        "channel": 0
      },
      {
        "type": "note_on",
        "time": 29,
        "note": 52,
        "velocity": 0,
        "channel": 0
      },
      {
        "type": "note_on",
        "time": 0,
        "note": 47,
        "velocity": 0,
        "channel": 0
      },
      {
        "type": "note_on",
        "time": 0,
        "note": 59,
        "velocity": 0,
        "channel": 0
      },
      {
        "type": "note_on",
        "time": 0,
        "note": 64,
        "velocity": 0,
        "channel": 0
      },
      {
        "type": "note_on",
        "time": 0,
        "note": 40,
        "velocity": 0,
        "channel": 0
      },
      {
        "type": "note_on",
        "time": 0,
        "note": 56,
        "velocity": 0,
        "channel": 0
      },
      {
        "type": "note_on",
        "time": 1,
        "note": 56,
        "velocity": 60,
        "channel": 0
      },
      {
        "type": "note_on",
        "time": 0,
        "note": 47,
        "velocity": 60,
        "channel": 0
      },
      {
        "type": "note_on",
        "time": 0,
        "note": 59,
        "velocity": 60,
        "channel": 0
      },
      {
        "type": "note_on",
        "time": 0,
        "note": 52,
        "velocity": 60,
        "channel": 0
      },
      {
        "type": "note_on",
        "time": 0,
        "note": 40,
        "velocity": 60,
        "channel": 0
      },
      {
        "type": "note_on",
        "time": 0,
        "note": 64,
        "velocity": 60,
        "channel": 0
      },
      {
        "type": "note_on",
        "time": 59,
        "note": 56,
        "velocity": 0,
        "channel": 0
      },
      {
        "type": "note_on",
        "time": 0,
        "note": 47,
        "velocity": 0,
        "channel": 0
      },
      {
        "type": "note_on",
        "time": 0,
        "note": 59,
        "velocity": 0,
        "channel": 0
      },
      {
        "type": "note_on",
        "time": 0,
        "note": 52,
        "velocity": 0,
        "channel": 0
      },
      {
        "type": "note_on",
        "time": 0,
        "note": 40,
        "velocity": 0,
        "channel": 0
      },
      {
        "type": "note_on",
        "time": 0,
        "note": 64,
        "velocity": 0,
        "channel": 0
      },
      {
        "type": "note_on",
        "time": 1,
        "note": 56,
        "velocity": 60,
        "channel": 0
      },
      {
        "type": "note_on",
        "time": 0,
        "note": 64,
        "velocity": 60,
        "channel": 0
      },
      {
        "type": "note_on",
        "time": 0,
        "note": 59,
        "velocity": 60,
        "channel": 0
      },
      {
        "type": "note_on",
        "time": 0,
        "note": 47,
        "velocity": 60,
        "channel": 0
      },
      {
        "type": "note_on",
        "time": 0,
        "note": 40,
        "velocity": 60,
        "channel": 0
      },
      {
        "type": "note_on",
        "time": 0,
        "note": 52,
        "velocity": 60,
        "channel": 0
      },
      {
        "type": "note_on",
        "time": 59,
        "note": 56,
        "velocity": 0,
        "channel": 0
      },
      {
        "type": "note_on",
        "time": 0,
        "note": 64,
        "velocity": 0,
        "channel": 0
      },
      {
        "type": "note_on",
        "time": 0,
        "note": 59,
        "velocity": 0,
        "channel": 0
      },
      {
        "type": "note_on",
        "time": 0,
        "note": 47,
        "velocity": 0,
        "channel": 0
      },
      {
        "type": "note_on",
        "time": 0,
        "note": 40,
        "velocity": 0,
        "channel": 0
      },
      {
        "type": "note_on",
        "time": 0,
        "note": 52,
        "velocity": 0,
        "channel": 0
      },
      {
        "type": "note_on",
        "time": 1,
        "note": 64,
        "velocity": 60,
        "channel": 0
      },
      {
        "type": "note_on",
        "time": 0,
        "note": 47,
        "velocity": 60,
        "channel": 0
      },
      {
        "type": "note_on",
        "time": 0,
        "note": 40,
        "velocity": 60,
        "channel": 0
      },
      {
        "type": "note_on",
        "time": 0,
        "note": 56,
        "velocity": 60,
        "channel": 0
      },
      {
        "type": "note_on",
        "time": 0,
        "note": 52,
        "velocity": 60,
        "channel": 0
      },
      {
        "type": "note_on",
        "time": 0,
        "note": 59,
        "velocity": 60,
        "channel": 0
      },
      {
        "type": "note_on",
        "time": 59,
        "note": 64,
        "velocity": 0,
        "channel": 0
      },
      {
        "type": "note_on",
        "time": 0,
        "note": 47,
        "velocity": 0,
        "channel": 0
      },
      {
        "type": "note_on",
        "time": 0,
        "note": 40,
        "velocity": 0,
        "channel": 0
      },
      {
        "type": "note_on",
        "time": 0,
        "note": 56,
        "velocity": 0,
        "channel": 0
      },
      {
        "type": "note_on",
        "time": 0,
        "note": 52,
        "velocity": 0,
        "channel": 0
      },
      {
        "type": "note_on",
        "time": 0,
        "note": 59,
        "velocity": 0,
        "channel": 0
      },
      {
        "type": "note_on",
        "time": 1,
        "note": 62,
        "velocity": 60,
        "channel": 0
      },
      {
        "type": "note_on",
        "time": 0,
        "note": 59,
        "velocity": 60,
        "channel": 0
      },
      {
        "type": "note_on",
        "time": 0,
        "note": 43,
        "velocity": 60,
        "channel": 0
      },
      {
        "type": "note_on",
        "time": 0,
        "note": 47,
        "velocity": 60,
        "channel": 0
      },
      {
        "type": "note_on",
        "time": 0,
        "note": 67,
        "velocity": 60,
        "channel": 0
      },
      {
        "type": "note_on",
        "time": 0,
        "note": 55,
        "velocity": 60,
        "channel": 0
      },
      {
        "type": "note_on",
        "time": 29,
        "note": 62,
        "velocity": 0,
        "channel": 0
      },
      {
        "type": "note_on",
        "time": 0,
        "note": 59,
        "velocity": 0,
        "channel": 0
      },
      {
        "type": "note_on",
        "time": 0,
        "note": 43,
        "velocity": 0,
        "channel": 0
      },
      {
        "type": "note_on",
        "time": 0,
        "note": 47,
        "velocity": 0,
        "channel": 0
      },
      {
        "type": "note_on",
        "time": 0,
        "note": 67,
        "velocity": 0,
        "channel": 0
      },
      {
        "type": "note_on",
        "time": 0,
        "note": 55,
        "velocity": 0,
        "channel": 0
      },
      {
        "type": "note_on",
        "time": 1,
        "note": 59,
        "velocity": 60,
        "channel": 0
      },
      {
        "type": "note_on",
        "time": 0,
        "note": 43,
        "velocity": 60,
        "channel": 0
      },
      {
        "type": "note_on",
        "time": 0,
        "note": 62,
        "velocity": 60,
        "channel": 0
      },
      {
        "type": "note_on",
        "time": 0,
        "note": 55,
        "velocity": 60,
        "channel": 0
      },
      {
        "type": "note_on",
        "time": 0,
        "note": 47,
        "velocity": 60,
        "channel": 0
      },
      {
        "type": "note_on",
        "time": 0,
        "note": 67,
        "velocity": 60,
        "channel": 0
      },
      {
        "type": "note_on",
        "time": 59,
        "note": 59,
        "velocity": 0,
        "channel": 0
      },
      {
        "type": "note_on",
        "time": 0,
        "note": 43,
        "velocity": 0,
        "channel": 0
      },
      {
        "type": "note_on",
        "time": 0,
        "note": 62,
        "velocity": 0,
        "channel": 0
      },
      {
        "type": "note_on",
        "time": 0,
        "note": 55,
        "velocity": 0,
        "channel": 0
      },
      {
        "type": "note_on",
        "time": 0,
        "note": 47,
        "velocity": 0,
        "channel": 0
      },
      {
        "type": "note_on",
        "time": 0,
        "note": 67,
        "velocity": 0,
        "channel": 0
      },
      {
        "type": "note_on",
        "time": 1,
        "note": 47,
        "velocity": 60,
        "channel": 0
      },
      {
        "type": "note_on",
        "time": 0,
        "note": 43,
        "velocity": 60,
        "channel": 0
      },
      {
        "type": "note_on",
        "time": 0,
        "note": 55,
        "velocity": 60,
        "channel": 0
      },
      {
        "type": "note_on",
        "time": 0,
        "note": 59,
        "velocity": 60,
        "channel": 0
      },
      {
        "type": "note_on",
        "time": 0,
        "note": 67,
        "velocity": 60,
        "channel": 0
      },
      {
        "type": "note_on",
        "time": 0,
        "note": 62,
        "velocity": 60,
        "channel": 0
      },
      {
        "type": "note_on",
        "time": 29,
        "note": 47,
        "velocity": 0,
        "channel": 0
      },
      {
        "type": "note_on",
        "time": 0,
        "note": 43,
        "velocity": 0,
        "channel": 0
      },
      {
        "type": "note_on",
        "time": 0,
        "note": 55,
        "velocity": 0,
        "channel": 0
      },
      {
        "type": "note_on",
        "time": 0,
        "note": 59,
        "velocity": 0,
        "channel": 0
      },
      {
        "type": "note_on",
        "time": 0,
        "note": 67,
        "velocity": 0,
        "channel": 0
      },
      {
        "type": "note_on",
        "time": 0,
        "note": 62,
        "velocity": 0,
        "channel": 0
      },
      {
        "type": "note_on",
        "time": 1,
        "note": 59,
        "velocity": 60,
        "channel": 0
      },
      {
        "type": "note_on",
        "time": 0,
        "note": 47,
        "velocity": 60,
        "channel": 0
      },
      {
        "type": "note_on",
        "time": 0,
        "note": 67,
        "velocity": 60,
        "channel": 0
      },
      {
        "type": "note_on",
        "time": 0,
        "note": 55,
        "velocity": 60,
        "channel": 0
      },
      {
        "type": "note_on",
        "time": 0,
        "note": 43,
        "velocity": 60,
        "channel": 0
      },
      {
        "type": "note_on",
        "time": 0,
        "note": 62,
        "velocity": 60,
        "channel": 0
      },
      {
        "type": "note_on",
        "time": 59,
        "note": 59,
        "velocity": 0,
        "channel": 0
      },
      {
        "type": "note_on",
        "time": 0,
        "note": 47,
        "velocity": 0,
        "channel": 0
      },
      {
        "type": "note_on",
        "time": 0,
        "note": 67,
        "velocity": 0,
        "channel": 0
      },
      {
        "type": "note_on",
        "time": 0,
        "note": 55,
        "velocity": 0,
        "channel": 0
      },
      {
        "type": "note_on",
        "time": 0,
        "note": 43,
        "velocity": 0,
        "channel": 0
      },
      {
        "type": "note_on",
        "time": 0,
        "note": 62,
        "velocity": 0,
        "channel": 0
      },
      {
        "type": "note_on",
        "time": 1,
        "note": 43,
        "velocity": 60,
        "channel": 0
      },
      {
        "type": "note_on",
        "time": 0,
        "note": 59,
        "velocity": 60,
        "channel": 0
      },
      {
        "type": "note_on",
        "time": 0,
        "note": 67,
        "velocity": 60,
        "channel": 0
      },
      {
        "type": "note_on",
        "time": 0,
        "note": 55,
        "velocity": 60,
        "channel": 0
      },
      {
        "type": "note_on",
        "time": 0,
        "note": 62,
        "velocity": 60,
        "channel": 0
      },
      {
        "type": "note_on",
        "time": 0,
        "note": 47,
        "velocity": 60,
        "channel": 0
      },
      {
        "type": "note_on",
        "time": 29,
        "note": 43,
        "velocity": 0,
        "channel": 0
      },
      {
        "type": "note_on",
        "time": 0,
        "note": 59,
        "velocity": 0,
        "channel": 0
      },
      {
        "type": "note_on",
        "time": 0,
        "note": 67,
        "velocity": 0,
        "channel": 0
      },
      {
        "type": "note_on",
        "time": 0,
        "note": 55,
        "velocity": 0,
        "channel": 0
      },
      {
        "type": "note_on",
        "time": 0,
        "note": 62,
        "velocity": 0,
        "channel": 0
      },
      {
        "type": "note_on",
        "time": 0,
        "note": 47,
        "velocity": 0,
        "channel": 0
      },
      {
        "type": "note_on",
        "time": 1,
        "note": 62,
        "velocity": 60,
        "channel": 0
      },
      {
        "type": "note_on",
        "time": 0,
        "note": 47,
        "velocity": 60,
        "channel": 0
      },
      {
        "type": "note_on",
        "time": 0,
        "note": 67,
        "velocity": 60,
        "channel": 0
      },
      {
        "type": "note_on",
        "time": 0,
        "note": 43,
        "velocity": 60,
        "channel": 0
      },
      {
        "type": "note_on",
        "time": 0,
        "note": 59,
        "velocity": 60,
        "channel": 0
      },
      {
        "type": "note_on",
        "time": 0,
        "note": 55,
        "velocity": 60,
        "channel": 0
      },
      {
        "type": "note_on",
        "time": 59,
        "note": 62,
        "velocity": 0,
        "channel": 0
      },
      {
        "type": "note_on",
        "time": 0,
        "note": 47,
        "velocity": 0,
        "channel": 0
      },
      {
        "type": "note_on",
        "time": 0,
        "note": 67,
        "velocity": 0,
        "channel": 0
      },
      {
        "type": "note_on",
        "time": 0,
        "note": 43,
        "velocity": 0,
        "channel": 0
      },
      {
        "type": "note_on",
        "time": 0,
        "note": 59,
        "velocity": 0,
        "channel": 0
      },
      {
        "type": "note_on",
        "time": 0,
        "note": 55,
        "velocity": 0,
        "channel": 0
      },
      {
        "type": "note_on",
        "time": 1,
        "note": 67,
        "velocity": 60,
        "channel": 0
      },
      {
        "type": "note_on",
        "time": 0,
        "note": 59,
        "velocity": 60,
        "channel": 0
      },
      {
        "type": "note_on",
        "time": 0,
        "note": 43,
        "velocity": 60,
        "channel": 0
      },
      {
        "type": "note_on",
        "time": 0,
        "note": 62,
        "velocity": 60,
        "channel": 0
      },
      {
        "type": "note_on",
        "time": 0,
        "note": 55,
        "velocity": 60,
        "channel": 0
      },
      {
        "type": "note_on",
        "time": 0,
        "note": 47,
        "velocity": 60,
        "channel": 0
      },
      {
        "type": "note_on",
        "time": 29,
        "note": 67,
        "velocity": 0,
        "channel": 0
      },
      {
        "type": "note_on",
        "time": 0,
        "note": 59,
        "velocity": 0,
        "channel": 0
      },
      {
        "type": "note_on",
        "time": 0,
        "note": 43,
        "velocity": 0,
        "channel": 0
      },
      {
        "type": "note_on",
        "time": 0,
        "note": 62,
        "velocity": 0,
        "channel": 0
      },
      {
        "type": "note_on",
        "time": 0,
        "note": 55,
        "velocity": 0,
        "channel": 0
      },
      {
        "type": "note_on",
        "time": 0,
        "note": 47,
        "velocity": 0,
        "channel": 0
      },
      {
        "type": "note_on",
        "time": 1,
        "note": 59,
        "velocity": 60,
        "channel": 0
      },
      {
        "type": "note_on",
        "time": 0,
        "note": 43,
        "velocity": 60,
        "channel": 0
      },
      {
        "type": "note_on",
        "time": 0,
        "note": 55,
        "velocity": 60,
        "channel": 0
      },
      {
        "type": "note_on",
        "time": 0,
        "note": 67,
        "velocity": 60,
        "channel": 0
      },
      {
        "type": "note_on",
        "time": 0,
        "note": 62,
        "velocity": 60,
        "channel": 0
      },
      {
        "type": "note_on",
        "time": 0,
        "note": 47,
        "velocity": 60,
        "channel": 0
      },
      {
        "type": "note_on",
        "time": 59,
        "note": 59,
        "velocity": 0,
        "channel": 0
      },
      {
        "type": "note_on",
        "time": 0,
        "note": 43,
        "velocity": 0,
        "channel": 0
      },
      {
        "type": "note_on",
        "time": 0,
        "note": 55,
        "velocity": 0,
        "channel": 0
      },
      {
        "type": "note_on",
        "time": 0,
        "note": 67,
        "velocity": 0,
        "channel": 0
      },
      {
        "type": "note_on",
        "time": 0,
        "note": 62,
        "velocity": 0,
        "channel": 0
      },
      {
        "type": "note_on",
        "time": 0,
        "note": 47,
        "velocity": 0,
        "channel": 0
      },
      {
        "type": "note_on",
        "time": 1,
        "note": 59,
        "velocity": 60,
        "channel": 0
      },
      {
        "type": "note_on",
        "time": 0,
        "note": 62,
        "velocity": 60,
        "channel": 0
      },
      {
        "type": "note_on",
        "time": 0,
        "note": 47,
        "velocity": 60,
        "channel": 0
      },
      {
        "type": "note_on",
        "time": 0,
        "note": 67,
        "velocity": 60,
        "channel": 0
      },
      {
        "type": "note_on",
        "time": 0,
        "note": 43,
        "velocity": 60,
        "channel": 0
      },
      {
        "type": "note_on",
        "time": 0,
        "note": 55,
        "velocity": 60,
        "channel": 0
      },
      {
        "type": "note_on",
        "time": 59,
        "note": 59,
        "velocity": 0,
        "channel": 0
      },
      {
        "type": "note_on",
        "time": 0,
        "note": 62,
        "velocity": 0,
        "channel": 0
      },
      {
        "type": "note_on",
        "time": 0,
        "note": 47,
        "velocity": 0,
        "channel": 0
      },
      {
        "type": "note_on",
        "time": 0,
        "note": 67,
        "velocity": 0,
        "channel": 0
      },
      {
        "type": "note_on",
        "time": 0,
        "note": 43,
        "velocity": 0,
        "channel": 0
      },
      {
        "type": "note_on",
        "time": 0,
        "note": 55,
        "velocity": 0,
        "channel": 0
      },
      {
        "type": "note_on",
        "time": 1,
        "note": 47,
        "velocity": 60,
        "channel": 0
      },
      {
        "type": "note_on",
        "time": 0,
        "note": 43,
        "velocity": 60,
        "channel": 0
      },
      {
        "type": "note_on",
        "time": 0,
        "note": 59,
        "velocity": 60,
        "channel": 0
      },
      {
        "type": "note_on",
        "time": 0,
        "note": 67,
        "velocity": 60,
        "channel": 0
      },
      {
        "type": "note_on",
        "time": 0,
        "note": 55,
        "velocity": 60,
        "channel": 0
      },
      {
        "type": "note_on",
        "time": 0,
        "note": 62,
        "velocity": 60,
        "channel": 0
      },
      {
        "type": "note_on",
        "time": 59,
        "note": 47,
        "velocity": 0,
        "channel": 0
      },
      {
        "type": "note_on",
        "time": 0,
        "note": 43,
        "velocity": 0,
        "channel": 0
      },
      {
        "type": "note_on",
        "time": 0,
        "note": 59,
        "velocity": 0,
        "channel": 0
      },
      {
        "type": "note_on",
        "time": 0,
        "note": 67,
        "velocity": 0,
        "channel": 0
      },
      {
        "type": "note_on",
        "time": 0,
        "note": 55,
        "velocity": 0,
        "channel": 0
      },
      {
        "type": "note_on",
        "time": 0,
        "note": 62,
        "velocity": 0,
        "channel": 0
      },
      {
        "type": "note_on",
        "time": 1,
        "note": 66,
        "velocity": 60,
        "channel": 0
      },
      {
        "type": "note_on",
        "time": 0,
        "note": 62,
        "velocity": 60,
        "channel": 0
      },
      {
        "type": "note_on",
        "time": 0,
        "note": 57,
        "velocity": 60,
        "channel": 0
      },
      {
        "type": "note_on",
        "time": 0,
        "note": 45,
        "velocity": 60,
        "channel": 0
      },
      {
        "type": "note_on",
        "time": 0,
        "note": 50,
        "velocity": 60,
        "channel": 0
      },
      {
        "type": "note_on",
        "time": 0,
        "note": 69,
        "velocity": 60,
        "channel": 0
      },
      {
        "type": "note_on",
        "time": 29,
        "note": 66,
        "velocity": 0,
        "channel": 0
      },
      {
        "type": "note_on",
        "time": 0,
        "note": 62,
        "velocity": 0,
        "channel": 0
      },
      {
        "type": "note_on",
        "time": 0,
        "note": 57,
        "velocity": 0,
        "channel": 0
      },
      {
        "type": "note_on",
        "time": 0,
        "note": 45,
        "velocity": 0,
        "channel": 0
      },
      {
        "type": "note_on",
        "time": 0,
        "note": 50,
        "velocity": 0,
        "channel": 0
      },
      {
        "type": "note_on",
        "time": 0,
        "note": 69,
        "velocity": 0,
        "channel": 0
      },
      {
        "type": "note_on",
        "time": 1,
        "note": 62,
        "velocity": 60,
        "channel": 0
      },
      {
        "type": "note_on",
        "time": 0,
        "note": 45,
        "velocity": 60,
        "channel": 0
      },
      {
        "type": "note_on",
        "time": 0,
        "note": 50,
        "velocity": 60,
        "channel": 0
      },
      {
        "type": "note_on",
        "time": 0,
        "note": 66,
        "velocity": 60,
        "channel": 0
      },
      {
        "type": "note_on",
        "time": 0,
        "note": 57,
        "velocity": 60,
        "channel": 0
      },
      {
        "type": "note_on",
        "time": 0,
        "note": 69,
        "velocity": 60,
        "channel": 0
      },
      {
        "type": "note_on",
        "time": 59,
        "note": 62,
        "velocity": 0,
        "channel": 0
      },
      {
        "type": "note_on",
        "time": 0,
        "note": 45,
        "velocity": 0,
        "channel": 0
      },
      {
        "type": "note_on",
        "time": 0,
        "note": 50,
        "velocity": 0,
        "channel": 0
      },
      {
        "type": "note_on",
        "time": 0,
        "note": 66,
        "velocity": 0,
        "channel": 0
      },
      {
        "type": "note_on",
        "time": 0,
        "note": 57,
        "velocity": 0,
        "channel": 0
      },
      {
        "type": "note_on",
        "time": 0,
        "note": 69,
        "velocity": 0,
        "channel": 0
      },
      {
        "type": "note_on",
        "time": 1,
        "note": 69,
        "velocity": 60,
        "channel": 0
      },
      {
        "type": "note_on",
        "time": 0,
        "note": 62,
        "velocity": 60,
        "channel": 0
      },
      {
        "type": "note_on",
        "time": 0,
        "note": 50,
        "velocity": 60,
        "channel": 0
      },
      {
        "type": "note_on",
        "time": 0,
        "note": 57,
        "velocity": 60,
        "channel": 0
      },
      {
        "type": "note_on",
        "time": 0,
        "note": 45,
        "velocity": 60,
        "channel": 0
      },
      {
        "type": "note_on",
        "time": 0,
        "note": 66,
        "velocity": 60,
        "channel": 0
      },
      {
        "type": "note_on",
        "time": 29,
        "note": 69,
        "velocity": 0,
        "channel": 0
      },
      {
        "type": "note_on",
        "time": 0,
        "note": 62,
        "velocity": 0,
        "channel": 0
      },
      {
        "type": "note_on",
        "time": 0,
        "note": 50,
        "velocity": 0,
        "channel": 0
      },
      {
        "type": "note_on",
        "time": 0,
        "note": 57,
        "velocity": 0,
        "channel": 0
      },
      {
        "type": "note_on",
        "time": 0,
        "note": 45,
        "velocity": 0,
        "channel": 0
      },
      {
        "type": "note_on",
        "time": 0,
        "note": 66,
        "velocity": 0,
        "channel": 0
      },
      {
        "type": "note_on",
        "time": 1,
        "note": 45,
        "velocity": 60,
        "channel": 0
      },
      {
        "type": "note_on",
        "time": 0,
        "note": 66,
        "velocity": 60,
        "channel": 0
      },
      {
        "type": "note_on",
        "time": 0,
        "note": 57,
        "velocity": 60,
        "channel": 0
      },
      {
        "type": "note_on",
        "time": 0,
        "note": 50,
        "velocity": 60,
        "channel": 0
      },
      {
        "type": "note_on",
        "time": 0,
        "note": 62,
        "velocity": 60,
        "channel": 0
      },
      {
        "type": "note_on",
        "time": 0,
        "note": 69,
        "velocity": 60,
        "channel": 0
      },
      {
        "type": "note_on",
        "time": 59,
        "note": 45,
        "velocity": 0,
        "channel": 0
      },
      {
        "type": "note_on",
        "time": 0,
        "note": 66,
        "velocity": 0,
        "channel": 0
      },
      {
        "type": "note_on",
        "time": 0,
        "note": 57,
        "velocity": 0,
        "channel": 0
      },
      {
        "type": "note_on",
        "time": 0,
        "note": 50,
        "velocity": 0,
        "channel": 0
      },
      {
        "type": "note_on",
        "time": 0,
        "note": 62,
        "velocity": 0,
        "channel": 0
      },
      {
        "type": "note_on",
        "time": 0,
        "note": 69,
        "velocity": 0,
        "channel": 0
      },
      {
        "type": "note_on",
        "time": 1,
        "note": 45,
        "velocity": 60,
        "channel": 0
      },
      {
        "type": "note_on",
        "time": 0,
        "note": 57,
        "velocity": 60,
        "channel": 0
      },
      {
        "type": "note_on",
        "time": 0,
        "note": 62,
        "velocity": 60,
        "channel": 0
      },
      {
        "type": "note_on",
        "time": 0,
        "note": 50,
        "velocity": 60,
        "channel": 0
      },
      {
        "type": "note_on",
        "time": 0,
        "note": 69,
        "velocity": 60,
        "channel": 0
      },
      {
        "type": "note_on",
        "time": 0,
        "note": 66,
        "velocity": 60,
        "channel": 0
      },
      {
        "type": "note_on",
        "time": 29,
        "note": 45,
        "velocity": 0,
        "channel": 0
      },
      {
        "type": "note_on",
        "time": 0,
        "note": 57,
        "velocity": 0,
        "channel": 0
      },
      {
        "type": "note_on",
        "time": 0,
        "note": 62,
        "velocity": 0,
        "channel": 0
      },
      {
        "type": "note_on",
        "time": 0,
        "note": 50,
        "velocity": 0,
        "channel": 0
      },
      {
        "type": "note_on",
        "time": 0,
        "note": 69,
        "velocity": 0,
        "channel": 0
      },
      {
        "type": "note_on",
        "time": 0,
        "note": 66,
        "velocity": 0,
        "channel": 0
      },
      {
        "type": "note_on",
        "time": 1,
        "note": 69,
        "velocity": 60,
        "channel": 0
      },
      {
        "type": "note_on",
        "time": 0,
        "note": 66,
        "velocity": 60,
        "channel": 0
      },
      {
        "type": "note_on",
        "time": 0,
        "note": 62,
        "velocity": 60,
        "channel": 0
      },
      {
        "type": "note_on",
        "time": 0,
        "note": 50,
        "velocity": 60,
        "channel": 0
      },
      {
        "type": "note_on",
        "time": 0,
        "note": 45,
        "velocity": 60,
        "channel": 0
      },
      {
        "type": "note_on",
        "time": 0,
        "note": 57,
        "velocity": 60,
        "channel": 0
      },
      {
        "type": "note_on",
        "time": 59,
        "note": 69,
        "velocity": 0,
        "channel": 0
      },
      {
        "type": "note_on",
        "time": 0,
        "note": 66,
        "velocity": 0,
        "channel": 0
      },
      {
        "type": "note_on",
        "time": 0,
        "note": 62,
        "velocity": 0,
        "channel": 0
      },
      {
        "type": "note_on",
        "time": 0,
        "note": 50,
        "velocity": 0,
        "channel": 0
      },
      {
        "type": "note_on",
        "time": 0,
        "note": 45,
        "velocity": 0,
        "channel": 0
      },
      {
        "type": "note_on",
        "time": 0,
        "note": 57,
        "velocity": 0,
        "channel": 0
      },
      {
        "type": "note_on",
        "time": 1,
        "note": 57,
        "velocity": 60,
        "channel": 0
      },
      {
        "type": "note_on",
        "time": 0,
        "note": 50,
        "velocity": 60,
        "channel": 0
      },
      {
        "type": "note_on",
        "time": 0,
        "note": 66,
        "velocity": 60,
        "channel": 0
      },
      {
        "type": "note_on",
        "time": 0,
        "note": 69,
        "velocity": 60,
        "channel": 0
      },
      {
        "type": "note_on",
        "time": 0,
        "note": 45,
        "velocity": 60,
        "channel": 0
      },
      {
        "type": "note_on",
        "time": 0,
        "note": 62,
        "velocity": 60,
        "channel": 0
      },
      {
        "type": "note_on",
        "time": 29,
        "note": 57,
        "velocity": 0,
        "channel": 0
      },
      {
        "type": "note_on",
        "time": 0,
        "note": 50,
        "velocity": 0,
        "channel": 0
      },
      {
        "type": "note_on",
        "time": 0,
        "note": 66,
        "velocity": 0,
        "channel": 0
      },
      {
        "type": "note_on",
        "time": 0,
        "note": 69,
        "velocity": 0,
        "channel": 0
      },
      {
        "type": "note_on",
        "time": 0,
        "note": 45,
        "velocity": 0,
        "channel": 0
      },
      {
        "type": "note_on",
        "time": 0,
        "note": 62,
        "velocity": 0,
        "channel": 0
      },
      {
        "type": "note_on",
        "time": 1,
        "note": 62,
        "velocity": 60,
        "channel": 0
      },
      {
        "type": "note_on",
        "time": 0,
        "note": 50,
        "velocity": 60,
        "channel": 0
      },
      {
        "type": "note_on",
        "time": 0,
        "note": 66,
        "velocity": 60,
        "channel": 0
      },
      {
        "type": "note_on",
        "time": 0,
        "note": 57,
        "velocity": 60,
        "channel": 0
      },
      {
        "type": "note_on",
        "time": 0,
        "note": 45,
        "velocity": 60,
        "channel": 0
      },
      {
        "type": "note_on",
        "time": 0,
        "note": 69,
        "velocity": 60,
        "channel": 0
      },
      {
        "type": "note_on",
        "time": 59,
        "note": 62,
        "velocity": 0,
        "channel": 0
      },
      {
        "type": "note_on",
        "time": 0,
        "note": 50,
        "velocity": 0,
        "channel": 0
      },
      {
        "type": "note_on",
        "time": 0,
        "note": 66,
        "velocity": 0,
        "channel": 0
      },
      {
        "type": "note_on",
        "time": 0,
        "note": 57,
        "velocity": 0,
        "channel": 0
      },
      {
        "type": "note_on",
        "time": 0,
        "note": 45,
        "velocity": 0,
        "channel": 0
      },
      {
        "type": "note_on",
        "time": 0,
        "note": 69,
        "velocity": 0,
        "channel": 0
      },
      {
        "type": "note_on",
        "time": 1,
        "note": 62,
        "velocity": 60,
        "channel": 0
      },
      {
        "type": "note_on",
        "time": 0,
        "note": 69,
        "velocity": 60,
        "channel": 0
      },
      {
        "type": "note_on",
        "time": 0,
        "note": 66,
        "velocity": 60,
        "channel": 0
      },
      {
        "type": "note_on",
        "time": 0,
        "note": 50,
        "velocity": 60,
        "channel": 0
      },
      {
        "type": "note_on",
        "time": 0,
        "note": 45,
        "velocity": 60,
        "channel": 0
      },
      {
        "type": "note_on",
        "time": 0,
        "note": 57,
        "velocity": 60,
        "channel": 0
      },
      {
        "type": "note_on",
        "time": 59,
        "note": 62,
        "velocity": 0,
        "channel": 0
      },
      {
        "type": "note_on",
        "time": 0,
        "note": 69,
        "velocity": 0,
        "channel": 0
      },
      {
        "type": "note_on",
        "time": 0,
        "note": 66,
        "velocity": 0,
        "channel": 0
      },
      {
        "type": "note_on",
        "time": 0,
        "note": 50,
        "velocity": 0,
        "channel": 0
      },
      {
        "type": "note_on",
        "time": 0,
        "note": 45,
        "velocity": 0,
        "channel": 0
      },
      {
        "type": "note_on",
        "time": 0,
        "note": 57,
        "velocity": 0,
        "channel": 0
      },
      {
        "type": "note_on",
        "time": 1,
        "note": 69,
        "velocity": 60,
        "channel": 0
      },
      {
        "type": "note_on",
        "time": 0,
        "note": 50,
        "velocity": 60,
        "channel": 0
      },
      {
        "type": "note_on",
        "time": 0,
        "note": 45,
        "velocity": 60,
        "channel": 0
      },
      {
        "type": "note_on",
        "time": 0,
        "note": 62,
        "velocity": 60,
        "channel": 0
      },
      {
        "type": "note_on",
        "time": 0,
        "note": 57,
        "velocity": 60,
        "channel": 0
      },
      {
        "type": "note_on",
        "time": 0,
        "note": 66,
        "velocity": 60,
        "channel": 0
      },
      {
        "type": "note_on",
        "time": 59,
        "note": 69,
        "velocity": 0,
        "channel": 0
      },
      {
        "type": "note_on",
        "time": 0,
        "note": 50,
        "velocity": 0,
        "channel": 0
      },
      {
        "type": "note_on",
        "time": 0,
        "note": 45,
        "velocity": 0,
        "channel": 0
      },
      {
        "type": "note_on",
        "time": 0,
        "note": 62,
        "velocity": 0,
        "channel": 0
      },
      {
        "type": "note_on",
        "time": 0,
        "note": 57,
        "velocity": 0,
        "channel": 0
      },
      {
        "type": "note_on",
        "time": 0,
        "note": 66,
        "velocity": 0,
        "channel": 0
      },
      {
        "type": "note_on",
        "time": 1,
        "note": 59,
        "velocity": 60,
        "channel": 0
      },
      {
        "type": "note_on",
        "time": 0,
        "note": 55,
        "velocity": 60,
        "channel": 0
      },
      {
        "type": "note_on",
        "time": 0,
        "note": 40,
        "velocity": 60,
        "channel": 0
      },
      {
        "type": "note_on",
        "time": 0,
        "note": 45,
        "velocity": 60,
        "channel": 0
      },
      {
        "type": "note_on",
        "time": 0,
        "note": 64,
        "velocity": 60,
        "channel": 0
      },
      {
        "type": "note_on",
        "time": 0,
        "note": 52,
        "velocity": 60,
        "channel": 0
      },
      {
        "type": "note_on",
        "time": 29,
        "note": 59,
        "velocity": 0,
        "channel": 0
      },
      {
        "type": "note_on",
        "time": 0,
        "note": 55,
        "velocity": 0,
        "channel": 0
      },
      {
        "type": "note_on",
        "time": 0,
        "note": 40,
        "velocity": 0,
        "channel": 0
      },
      {
        "type": "note_on",
        "time": 0,
        "note": 45,
        "velocity": 0,
        "channel": 0
      },
      {
        "type": "note_on",
        "time": 0,
        "note": 64,
        "velocity": 0,
        "channel": 0
      },
      {
        "type": "note_on",
        "time": 0,
        "note": 52,
        "velocity": 0,
        "channel": 0
      },
      {
        "type": "note_on",
        "time": 1,
        "note": 55,
        "velocity": 60,
        "channel": 0
      },
      {
        "type": "note_on",
        "time": 0,
        "note": 40,
        "velocity": 60,
        "channel": 0
      },
      {
        "type": "note_on",
        "time": 0,
        "note": 59,
        "velocity": 60,
        "channel": 0
      },
      {
        "type": "note_on",
        "time": 0,
        "note": 52,
        "velocity": 60,
        "channel": 0
      },
      {
        "type": "note_on",
        "time": 0,
        "note": 45,
        "velocity": 60,
        "channel": 0
      },
      {
        "type": "note_on",
        "time": 0,
        "note": 64,
        "velocity": 60,
        "channel": 0
      },
      {
        "type": "note_on",
        "time": 59,
        "note": 55,
        "velocity": 0,
        "channel": 0
      },
      {
        "type": "note_on",
        "time": 0,
        "note": 40,
        "velocity": 0,
        "channel": 0
      },
      {
        "type": "note_on",
        "time": 0,
        "note": 59,
        "velocity": 0,
        "channel": 0
      },
      {
        "type": "note_on",
        "time": 0,
        "note": 52,
        "velocity": 0,
        "channel": 0
      },
      {
        "type": "note_on",
        "time": 0,
        "note": 45,
        "velocity": 0,
        "channel": 0
      },
      {
        "type": "note_on",
        "time": 0,
        "note": 64,
        "velocity": 0,
        "channel": 0
      },
      {
        "type": "note_on",
        "time": 1,
        "note": 45,
        "velocity": 60,
        "channel": 0
      },
      {
        "type": "note_on",
        "time": 0,
        "note": 40,
        "velocity": 60,
        "channel": 0
      },
      {
        "type": "note_on",
        "time": 0,
        "note": 52,
        "velocity": 60,
        "channel": 0
      },
      {
        "type": "note_on",
        "time": 0,
        "note": 55,
        "velocity": 60,
        "channel": 0
      },
      {
        "type": "note_on",
        "time": 0,
        "note": 64,
        "velocity": 60,
        "channel": 0
      },
      {
        "type": "note_on",
        "time": 0,
        "note": 59,
        "velocity": 60,
        "channel": 0
      },
      {
        "type": "note_on",
        "time": 29,
        "note": 45,
        "velocity": 0,
        "channel": 0
      },
      {
        "type": "note_on",
        "time": 0,
        "note": 40,
        "velocity": 0,
        "channel": 0
      },
      {
        "type": "note_on",
        "time": 0,
        "note": 52,
        "velocity": 0,
        "channel": 0
      },
      {
        "type": "note_on",
        "time": 0,
        "note": 55,
        "velocity": 0,
        "channel": 0
      },
      {
        "type": "note_on",
        "time": 0,
        "note": 64,
        "velocity": 0,
        "channel": 0
      },
      {
        "type": "note_on",
        "time": 0,
        "note": 59,
        "velocity": 0,
        "channel": 0
      },
      {
        "type": "note_on",
        "time": 1,
        "note": 55,
        "velocity": 60,
        "channel": 0
      },
      {
        "type": "note_on",
        "time": 0,
        "note": 45,
        "velocity": 60,
        "channel": 0
      },
      {
        "type": "note_on",
        "time": 0,
        "note": 64,
        "velocity": 60,
        "channel": 0
      },
      {
        "type": "note_on",
        "time": 0,
        "note": 52,
        "velocity": 60,
        "channel": 0
      },
      {
        "type": "note_on",
        "time": 0,
        "note": 40,
        "velocity": 60,
        "channel": 0
      },
      {
        "type": "note_on",
        "time": 0,
        "note": 59,
        "velocity": 60,
        "channel": 0
      },
      {
        "type": "note_on",
        "time": 59,
        "note": 55,
        "velocity": 0,
        "channel": 0
      },
      {
        "type": "note_on",
        "time": 0,
        "note": 45,
        "velocity": 0,
        "channel": 0
      },
      {
        "type": "note_on",
        "time": 0,
        "note": 64,
        "velocity": 0,
        "channel": 0
      },
      {
        "type": "note_on",
        "time": 0,
        "note": 52,
        "velocity": 0,
        "channel": 0
      },
      {
        "type": "note_on",
        "time": 0,
        "note": 40,
        "velocity": 0,
        "channel": 0
      },
      {
        "type": "note_on",
        "time": 0,
        "note": 59,
        "velocity": 0,
        "channel": 0
      },
      {
        "type": "note_on",
        "time": 1,
        "note": 40,
        "velocity": 60,
        "channel": 0
      },
      {
        "type": "note_on",
        "time": 0,
        "note": 55,
        "velocity": 60,
        "channel": 0
      },
      {
        "type": "note_on",
        "time": 0,
        "note": 64,
        "velocity": 60,
        "channel": 0
      },
      {
        "type": "note_on",
        "time": 0,
        "note": 52,
        "velocity": 60,
        "channel": 0
      },
      {
        "type": "note_on",
        "time": 0,
        "note": 59,
        "velocity": 60,
        "channel": 0
      },
      {
        "type": "note_on",
        "time": 0,
        "note": 45,
        "velocity": 60,
        "channel": 0
      },
      {
        "type": "note_on",
        "time": 29,
        "note": 40,
        "velocity": 0,
        "channel": 0
      },
      {
        "type": "note_on",
        "time": 0,
        "note": 55,
        "velocity": 0,
        "channel": 0
      },
      {
        "type": "note_on",
        "time": 0,
        "note": 64,
        "velocity": 0,
        "channel": 0
      },
      {
        "type": "note_on",
        "time": 0,
        "note": 52,
        "velocity": 0,
        "channel": 0
      },
      {
        "type": "note_on",
        "time": 0,
        "note": 59,
        "velocity": 0,
        "channel": 0
      },
      {
        "type": "note_on",
        "time": 0,
        "note": 45,
        "velocity": 0,
        "channel": 0
      },
      {
        "type": "note_on",
        "time": 1,
        "note": 59,
        "velocity": 60,
        "channel": 0
      },
      {
        "type": "note_on",
        "time": 0,
        "note": 45,
        "velocity": 60,
        "channel": 0
      },
      {
        "type": "note_on",
        "time": 0,
        "note": 64,
        "velocity": 60,
        "channel": 0
      },
      {
        "type": "note_on",
        "time": 0,
        "note": 40,
        "velocity": 60,
        "channel": 0
      },
      {
        "type": "note_on",
        "time": 0,
        "note": 55,
        "velocity": 60,
        "channel": 0
      },
      {
        "type": "note_on",
        "time": 0,
        "note": 52,
        "velocity": 60,
        "channel": 0
      },
      {
        "type": "note_on",
        "time": 59,
        "note": 59,
        "velocity": 0,
        "channel": 0
      },
      {
        "type": "note_on",
        "time": 0,
        "note": 45,
        "velocity": 0,
        "channel": 0
      },
      {
        "type": "note_on",
        "time": 0,
        "note": 64,
        "velocity": 0,
        "channel": 0
      },
      {
        "type": "note_on",
        "time": 0,
        "note": 40,
        "velocity": 0,
        "channel": 0
      },
      {
        "type": "note_on",
        "time": 0,
        "note": 55,
        "velocity": 0,
        "channel": 0
      },
      {
        "type": "note_on",
        "time": 0,
        "note": 52,
        "velocity": 0,
        "channel": 0
      },
      {
        "type": "note_on",
        "time": 1,
        "note": 64,
        "velocity": 60,
        "channel": 0
      },
      {
        "type": "note_on",
        "time": 0,
        "note": 55,
        "velocity": 60,
        "channel": 0
      },
      {
        "type": "note_on",
        "time": 0,
        "note": 40,
        "velocity": 60,
        "channel": 0
      },
      {
        "type": "note_on",
        "time": 0,
        "note": 59,
        "velocity": 60,
        "channel": 0
      },
      {
        "type": "note_on",
        "time": 0,
        "note": 52,
        "velocity": 60,
        "channel": 0
      },
      {
        "type": "note_on",
        "time": 0,
        "note": 45,
        "velocity": 60,
        "channel": 0
      },
      {
        "type": "note_on",
        "time": 29,
        "note": 64,
        "velocity": 0,
        "channel": 0
      },
      {
        "type": "note_on",
        "time": 0,
        "note": 55,
        "velocity": 0,
        "channel": 0
      },
      {
        "type": "note_on",
        "time": 0,
        "note": 40,
        "velocity": 0,
        "channel": 0
      },
      {
        "type": "note_on",
        "time": 0,
        "note": 59,
        "velocity": 0,
        "channel": 0
      },
      {
        "type": "note_on",
        "time": 0,
        "note": 52,
        "velocity": 0,
        "channel": 0
      },
      {
        "type": "note_on",
        "time": 0,
        "note": 45,
        "velocity": 0,
        "channel": 0
      },
      {
        "type": "note_on",
        "time": 1,
        "note": 55,
        "velocity": 60,
        "channel": 0
      },
      {
        "type": "note_on",
        "time": 0,
        "note": 40,
        "velocity": 60,
        "channel": 0
      },
      {
        "type": "note_on",
        "time": 0,
        "note": 52,
        "velocity": 60,
        "channel": 0
      },
      {
        "type": "note_on",
        "time": 0,
        "note": 64,
        "velocity": 60,
        "channel": 0
      },
      {
        "type": "note_on",
        "time": 0,
        "note": 59,
        "velocity": 60,
        "channel": 0
      },
      {
        "type": "note_on",
        "time": 0,
        "note": 45,
        "velocity": 60,
        "channel": 0
      },
      {
        "type": "note_on",
        "time": 59,
        "note": 55,
        "velocity": 0,
        "channel": 0
      },
      {
        "type": "note_on",
        "time": 0,
        "note": 40,
        "velocity": 0,
        "channel": 0
      },
      {
        "type": "note_on",
        "time": 0,
        "note": 52,
        "velocity": 0,
        "channel": 0
      },
      {
        "type": "note_on",
        "time": 0,
        "note": 64,
        "velocity": 0,
        "channel": 0
      },
      {
        "type": "note_on",
        "time": 0,
        "note": 59,
        "velocity": 0,
        "channel": 0
      },
      {
        "type": "note_on",
        "time": 0,
        "note": 45,
        "velocity": 0,
        "channel": 0
      },
      {
        "type": "note_on",
        "time": 1,
        "note": 55,
        "velocity": 60,
        "channel": 0
      },
      {
        "type": "note_on",
        "time": 0,
        "note": 59,
        "velocity": 60,
        "channel": 0
      },
      {
        "type": "note_on",
        "time": 0,
        "note": 45,
        "velocity": 60,
        "channel": 0
      },
      {
        "type": "note_on",
        "time": 0,
        "note": 64,
        "velocity": 60,
        "channel": 0
      },
      {
        "type": "note_on",
        "time": 0,
        "note": 40,
        "velocity": 60,
        "channel": 0
      },
      {
        "type": "note_on",
        "time": 0,
        "note": 52,
        "velocity": 60,
        "channel": 0
      },
      {
        "type": "note_on",
        "time": 59,
        "note": 55,
        "velocity": 0,
        "channel": 0
      },
      {
        "type": "note_on",
        "time": 0,
        "note": 59,
        "velocity": 0,
        "channel": 0
      },
      {
        "type": "note_on",
        "time": 0,
        "note": 45,
        "velocity": 0,
        "channel": 0
      },
      {
        "type": "note_on",
        "time": 0,
        "note": 64,
        "velocity": 0,
        "channel": 0
      },
      {
        "type": "note_on",
        "time": 0,
        "note": 40,
        "velocity": 0,
        "channel": 0
      },
      {
        "type": "note_on",
        "time": 0,
        "note": 52,
        "velocity": 0,
        "channel": 0
      },
      {
        "type": "note_on",
        "time": 1,
        "note": 45,
        "velocity": 60,
        "channel": 0
      },
      {
        "type": "note_on",
        "time": 0,
        "note": 40,
        "velocity": 60,
        "channel": 0
      },
      {
        "type": "note_on",
        "time": 0,
        "note": 55,
        "velocity": 60,
        "channel": 0
      },
      {
        "type": "note_on",
        "time": 0,
        "note": 64,
        "velocity": 60,
        "channel": 0
      },
      {
        "type": "note_on",
        "time": 0,
        "note": 52,
        "velocity": 60,
        "channel": 0
      },
      {
        "type": "note_on",
        "time": 0,
        "note": 59,
        "velocity": 60,
        "channel": 0
      },
      {
        "type": "note_on",
        "time": 59,
        "note": 45,
        "velocity": 0,
        "channel": 0
      },
      {
        "type": "note_on",
        "time": 0,
        "note": 40,
        "velocity": 0,
        "channel": 0
      },
      {
        "type": "note_on",
        "time": 0,
        "note": 55,
        "velocity": 0,
        "channel": 0
      },
      {
        "type": "note_on",
        "time": 0,
        "note": 64,
        "velocity": 0,
        "channel": 0
      },
      {
        "type": "note_on",
        "time": 0,
        "note": 52,
        "velocity": 0,
        "channel": 0
      },
      {
        "type": "note_on",
        "time": 0,
        "note": 59,
        "velocity": 0,
        "channel": 0
      },
      {
        "type": "note_on",
        "time": 1,
        "note": 61,
        "velocity": 60,
        "channel": 0
      },
      {
        "type": "note_on",
        "time": 0,
        "note": 58,
        "velocity": 60,
        "channel": 0
      },
      {
        "type": "note_on",
        "time": 0,
        "note": 54,
        "velocity": 60,
        "channel": 0
      },
      {
        "type": "note_on",
        "time": 0,
        "note": 42,
        "velocity": 60,
        "channel": 0
      },
      {
        "type": "note_on",
        "time": 0,
        "note": 49,
        "velocity": 60,
        "channel": 0
      },
      {
        "type": "note_on",
        "time": 0,
        "note": 66,
        "velocity": 60,
        "channel": 0
      },
      {
        "type": "note_on",
        "time": 29,
        "note": 61,
        "velocity": 0,
        "channel": 0
      },
      {
        "type": "note_on",
        "time": 0,
        "note": 58,
        "velocity": 0,
        "channel": 0
      },
      {
        "type": "note_on",
        "time": 0,
        "note": 54,
        "velocity": 0,
        "channel": 0
      },
      {
        "type": "note_on",
        "time": 0,
        "note": 42,
        "velocity": 0,
        "channel": 0
      },
      {
        "type": "note_on",
        "time": 0,
        "note": 49,
        "velocity": 0,
        "channel": 0
      },
      {
        "type": "note_on",
        "time": 0,
        "note": 66,
        "velocity": 0,
        "channel": 0
      },
      {
        "type": "note_on",
        "time": 1,
        "note": 58,
        "velocity": 60,
        "channel": 0
      },
      {
        "type": "note_on",
        "time": 0,
        "note": 42,
        "velocity": 60,
        "channel": 0
      },
      {
        "type": "note_on",
        "time": 0,
        "note": 49,
        "velocity": 60,
        "channel": 0
      },
      {
        "type": "note_on",
        "time": 0,
        "note": 61,
        "velocity": 60,
        "channel": 0
      },
      {
        "type": "note_on",
        "time": 0,
        "note": 54,
        "velocity": 60,
        "channel": 0
      },
      {
        "type": "note_on",
        "time": 0,
        "note": 66,
        "velocity": 60,
        "channel": 0
      },
      {
        "type": "note_on",
        "time": 59,
        "note": 58,
        "velocity": 0,
        "channel": 0
      },
      {
        "type": "note_on",
        "time": 0,
        "note": 42,
        "velocity": 0,
        "channel": 0
      },
      {
        "type": "note_on",
        "time": 0,
        "note": 49,
        "velocity": 0,
        "channel": 0
      },
      {
        "type": "note_on",
        "time": 0,
        "note": 61,
        "velocity": 0,
        "channel": 0
      },
      {
        "type": "note_on",
        "time": 0,
        "note": 54,
        "velocity": 0,
        "channel": 0
      },
      {
        "type": "note_on",
        "time": 0,
        "note": 66,
        "velocity": 0,
        "channel": 0
      },
      {
        "type": "note_on",
        "time": 1,
        "note": 66,
        "velocity": 60,
        "channel": 0
      },
      {
        "type": "note_on",
        "time": 0,
        "note": 58,
        "velocity": 60,
        "channel": 0
      },
      {
        "type": "note_on",
        "time": 0,
        "note": 49,
        "velocity": 60,
        "channel": 0
      },
      {
        "type": "note_on",
        "time": 0,
        "note": 54,
        "velocity": 60,
        "channel": 0
      },
      {
        "type": "note_on",
        "time": 0,
        "note": 42,
        "velocity": 60,
        "channel": 0
      },
      {
        "type": "note_on",
        "time": 0,
        "note": 61,
        "velocity": 60,
        "channel": 0
      },
      {
        "type": "note_on",
        "time": 29,
        "note": 66,
        "velocity": 0,
        "channel": 0
      },
      {
        "type": "note_on",
        "time": 0,
        "note": 58,
        "velocity": 0,
        "channel": 0
      },
      {
        "type": "note_on",
        "time": 0,
        "note": 49,
        "velocity": 0,
        "channel": 0
      },
      {
        "type": "note_on",
        "time": 0,
        "note": 54,
        "velocity": 0,
        "channel": 0
      },
      {
        "type": "note_on",
        "time": 0,
        "note": 42,
        "velocity": 0,
        "channel": 0
      },
      {
        "type": "note_on",
        "time": 0,
        "note": 61,
        "velocity": 0,
        "channel": 0
      },
      {
        "type": "note_on",
        "time": 1,
        "note": 42,
        "velocity": 60,
        "channel": 0
      },
      {
        "type": "note_on",
        "time": 0,
        "note": 61,
        "velocity": 60,
        "channel": 0
      },
      {
        "type": "note_on",
        "time": 0,
        "note": 54,
        "velocity": 60,
        "channel": 0
      },
      {
        "type": "note_on",
        "time": 0,
        "note": 49,
        "velocity": 60,
        "channel": 0
      },
      {
        "type": "note_on",
        "time": 0,
        "note": 58,
        "velocity": 60,
        "channel": 0
      },
      {
        "type": "note_on",
        "time": 0,
        "note": 66,
        "velocity": 60,
        "channel": 0
      },
      {
        "type": "note_on",
        "time": 59,
        "note": 42,
        "velocity": 0,
        "channel": 0
      },
      {
        "type": "note_on",
        "time": 0,
        "note": 61,
        "velocity": 0,
        "channel": 0
      },
      {
        "type": "note_on",
        "time": 0,
        "note": 54,
        "velocity": 0,
        "channel": 0
      },
      {
        "type": "note_on",
        "time": 0,
        "note": 49,
        "velocity": 0,
        "channel": 0
      },
      {
        "type": "note_on",
        "time": 0,
        "note": 58,
        "velocity": 0,
        "channel": 0
      },
      {
        "type": "note_on",
        "time": 0,
        "note": 66,
        "velocity": 0,
        "channel": 0
      },
      {
        "type": "note_on",
        "time": 1,
        "note": 42,
        "velocity": 60,
        "channel": 0
      },
      {
        "type": "note_on",
        "time": 0,
        "note": 54,
        "velocity": 60,
        "channel": 0
      },
      {
        "type": "note_on",
        "time": 0,
        "note": 58,
        "velocity": 60,
        "channel": 0
      },
      {
        "type": "note_on",
        "time": 0,
        "note": 49,
        "velocity": 60,
        "channel": 0
      },
      {
        "type": "note_on",
        "time": 0,
        "note": 66,
        "velocity": 60,
        "channel": 0
      },
      {
        "type": "note_on",
        "time": 0,
        "note": 61,
        "velocity": 60,
        "channel": 0
      },
      {
        "type": "note_on",
        "time": 29,
        "note": 42,
        "velocity": 0,
        "channel": 0
      },
      {
        "type": "note_on",
        "time": 0,
        "note": 54,
        "velocity": 0,
        "channel": 0
      },
      {
        "type": "note_on",
        "time": 0,
        "note": 58,
        "velocity": 0,
        "channel": 0
      },
      {
        "type": "note_on",
        "time": 0,
        "note": 49,
        "velocity": 0,
        "channel": 0
      },
      {
        "type": "note_on",
        "time": 0,
        "note": 66,
        "velocity": 0,
        "channel": 0
      },
      {
        "type": "note_on",
        "time": 0,
        "note": 61,
        "velocity": 0,
        "channel": 0
      },
      {
        "type": "note_on",
        "time": 1,
        "note": 66,
        "velocity": 60,
        "channel": 0
      },
      {
        "type": "note_on",
        "time": 0,
        "note": 61,
        "velocity": 60,
        "channel": 0
      },
      {
        "type": "note_on",
        "time": 0,
        "note": 58,
        "velocity": 60,
        "channel": 0
      },
      {
        "type": "note_on",
        "time": 0,
        "note": 49,
        "velocity": 60,
        "channel": 0
      },
      {
        "type": "note_on",
        "time": 0,
        "note": 42,
        "velocity": 60,
        "channel": 0
      },
      {
        "type": "note_on",
        "time": 0,
        "note": 54,
        "velocity": 60,
        "channel": 0
      },
      {
        "type": "note_on",
        "time": 59,
        "note": 66,
        "velocity": 0,
        "channel": 0
      },
      {
        "type": "note_on",
        "time": 0,
        "note": 61,
        "velocity": 0,
        "channel": 0
      },
      {
        "type": "note_on",
        "time": 0,
        "note": 58,
        "velocity": 0,
        "channel": 0
      },
      {
        "type": "note_on",
        "time": 0,
        "note": 49,
        "velocity": 0,
        "channel": 0
      },
      {
        "type": "note_on",
        "time": 0,
        "note": 42,
        "velocity": 0,
        "channel": 0
      },
      {
        "type": "note_on",
        "time": 0,
        "note": 54,
        "velocity": 0,
        "channel": 0
      },
      {
        "type": "note_on",
        "time": 1,
        "note": 54,
        "velocity": 60,
        "channel": 0
      },
      {
        "type": "note_on",
        "time": 0,
        "note": 49,
        "velocity": 60,
        "channel": 0
      },
      {
        "type": "note_on",
        "time": 0,
        "note": 61,
        "velocity": 60,
        "channel": 0
      },
      {
        "type": "note_on",
        "time": 0,
        "note": 66,
        "velocity": 60,
        "channel": 0
      },
      {
        "type": "note_on",
        "time": 0,
        "note": 42,
        "velocity": 60,
        "channel": 0
      },
      {
        "type": "note_on",
        "time": 0,
        "note": 58,
        "velocity": 60,
        "channel": 0
      },
      {
        "type": "note_on",
        "time": 29,
        "note": 54,
        "velocity": 0,
        "channel": 0
      },
      {
        "type": "note_on",
        "time": 0,
        "note": 49,
        "velocity": 0,
        "channel": 0
      },
      {
        "type": "note_on",
        "time": 0,
        "note": 61,
        "velocity": 0,
        "channel": 0
      },
      {
        "type": "note_on",
        "time": 0,
        "note": 66,
        "velocity": 0,
        "channel": 0
      },
      {
        "type": "note_on",
        "time": 0,
        "note": 42,
        "velocity": 0,
        "channel": 0
      },
      {
        "type": "note_on",
        "time": 0,
        "note": 58,
        "velocity": 0,
        "channel": 0
      },
      {
        "type": "note_on",
        "time": 1,
        "note": 58,
        "velocity": 60,
        "channel": 0
      },
      {
        "type": "note_on",
        "time": 0,
        "note": 49,
        "velocity": 60,
        "channel": 0
      },
      {
        "type": "note_on",
        "time": 0,
        "note": 61,
        "velocity": 60,
        "channel": 0
      },
      {
        "type": "note_on",
        "time": 0,
        "note": 54,
        "velocity": 60,
        "channel": 0
      },
      {
        "type": "note_on",
        "time": 0,
        "note": 42,
        "velocity": 60,
        "channel": 0
      },
      {
        "type": "note_on",
        "time": 0,
        "note": 66,
        "velocity": 60,
        "channel": 0
      },
      {
        "type": "note_on",
        "time": 59,
        "note": 58,
        "velocity": 0,
        "channel": 0
      },
      {
        "type": "note_on",
        "time": 0,
        "note": 49,
        "velocity": 0,
        "channel": 0
      },
      {
        "type": "note_on",
        "time": 0,
        "note": 61,
        "velocity": 0,
        "channel": 0
      },
      {
        "type": "note_on",
        "time": 0,
        "note": 54,
        "velocity": 0,
        "channel": 0
      },
      {
        "type": "note_on",
        "time": 0,
        "note": 42,
        "velocity": 0,
        "channel": 0
      },
      {
        "type": "note_on",
        "time": 0,
        "note": 66,
        "velocity": 0,
        "channel": 0
      },
      {
        "type": "note_on",
        "time": 1,
        "note": 58,
        "velocity": 60,
        "channel": 0
      },
      {
        "type": "note_on",
        "time": 0,
        "note": 66,
        "velocity": 60,
        "channel": 0
      },
      {
        "type": "note_on",
        "time": 0,
        "note": 61,
        "velocity": 60,
        "channel": 0
      },
      {
        "type": "note_on",
        "time": 0,
        "note": 49,
        "velocity": 60,
        "channel": 0
      },
      {
        "type": "note_on",
        "time": 0,
        "note": 42,
        "velocity": 60,
        "channel": 0
      },
      {
        "type": "note_on",
        "time": 0,
        "note": 54,
        "velocity": 60,
        "channel": 0
      },
      {
        "type": "note_on",
        "time": 59,
        "note": 58,
        "velocity": 0,
        "channel": 0
      },
      {
        "type": "note_on",
        "time": 0,
        "note": 66,
        "velocity": 0,
        "channel": 0
      },
      {
        "type": "note_on",
        "time": 0,
        "note": 61,
        "velocity": 0,
        "channel": 0
      },
      {
        "type": "note_on",
        "time": 0,
        "note": 49,
        "velocity": 0,
        "channel": 0
      },
      {
        "type": "note_on",
        "time": 0,
        "note": 42,
        "velocity": 0,
        "channel": 0
      },
      {
        "type": "note_on",
        "time": 0,
        "note": 54,
        "velocity": 0,
        "channel": 0
      },
      {
        "type": "note_on",
        "time": 1,
        "note": 66,
        "velocity": 60,
        "channel": 0
      },
      {
        "type": "note_on",
        "time": 0,
        "note": 49,
        "velocity": 60,
        "channel": 0
      },
      {
        "type": "note_on",
        "time": 0,
        "note": 42,
        "velocity": 60,
        "channel": 0
      },
      {
        "type": "note_on",
        "time": 0,
        "note": 58,
        "velocity": 60,
        "channel": 0
      },
      {
        "type": "note_on",
        "time": 0,
        "note": 54,
        "velocity": 60,
        "channel": 0
      },
      {
        "type": "note_on",
        "time": 0,
        "note": 61,
        "velocity": 60,
        "channel": 0
      },
      {
        "type": "note_on",
        "time": 59,
        "note": 66,
        "velocity": 0,
        "channel": 0
      },
      {
        "type": "note_on",
        "time": 0,
        "note": 49,
        "velocity": 0,
        "channel": 0
      },
      {
        "type": "note_on",
        "time": 0,
        "note": 42,
        "velocity": 0,
        "channel": 0
      },
      {
        "type": "note_on",
        "time": 0,
        "note": 58,
        "velocity": 0,
        "channel": 0
      },
      {
        "type": "note_on",
        "time": 0,
        "note": 54,
        "velocity": 0,
        "channel": 0
      },
      {
        "type": "note_on",
        "time": 0,
        "note": 61,
        "velocity": 0,
        "channel": 0
      },
      {
        "type": "note_on",
        "time": 1,
        "note": 62,
        "velocity": 60,
        "channel": 0
      },
      {
        "type": "note_on",
        "time": 0,
        "note": 59,
        "velocity": 60,
        "channel": 0
      },
      {
        "type": "note_on",
        "time": 0,
        "note": 42,
        "velocity": 60,
        "channel": 0
      },
      {
        "type": "note_on",
        "time": 0,
        "note": 47,
        "velocity": 60,
        "channel": 0
      },
      {
        "type": "note_on",
        "time": 0,
        "note": 66,
        "velocity": 60,
        "channel": 0
      },
      {
        "type": "note_on",
        "time": 0,
        "note": 54,
        "velocity": 60,
        "channel": 0
      },
      {
        "type": "note_on",
        "time": 29,
        "note": 62,
        "velocity": 0,
        "channel": 0
      },
      {
        "type": "note_on",
        "time": 0,
        "note": 59,
        "velocity": 0,
        "channel": 0
      },
      {
        "type": "note_on",
        "time": 0,
        "note": 42,
        "velocity": 0,
        "channel": 0
      },
      {
        "type": "note_on",
        "time": 0,
        "note": 47,
        "velocity": 0,
        "channel": 0
      },
      {
        "type": "note_on",
        "time": 0,
        "note": 66,
        "velocity": 0,
        "channel": 0
      },
      {
        "type": "note_on",
        "time": 0,
        "note": 54,
        "velocity": 0,
        "channel": 0
      },
      {
        "type": "note_on",
        "time": 1,
        "note": 59,
        "velocity": 60,
        "channel": 0
      },
      {
        "type": "note_on",
        "time": 0,
        "note": 42,
        "velocity": 60,
        "channel": 0
      },
      {
        "type": "note_on",
        "time": 0,
        "note": 62,
        "velocity": 60,
        "channel": 0
      },
      {
        "type": "note_on",
        "time": 0,
        "note": 54,
        "velocity": 60,
        "channel": 0
      },
      {
        "type": "note_on",
        "time": 0,
        "note": 47,
        "velocity": 60,
        "channel": 0
      },
      {
        "type": "note_on",
        "time": 0,
        "note": 66,
        "velocity": 60,
        "channel": 0
      },
      {
        "type": "note_on",
        "time": 59,
        "note": 59,
        "velocity": 0,
        "channel": 0
      },
      {
        "type": "note_on",
        "time": 0,
        "note": 42,
        "velocity": 0,
        "channel": 0
      },
      {
        "type": "note_on",
        "time": 0,
        "note": 62,
        "velocity": 0,
        "channel": 0
      },
      {
        "type": "note_on",
        "time": 0,
        "note": 54,
        "velocity": 0,
        "channel": 0
      },
      {
        "type": "note_on",
        "time": 0,
        "note": 47,
        "velocity": 0,
        "channel": 0
      },
      {
        "type": "note_on",
        "time": 0,
        "note": 66,
        "velocity": 0,
        "channel": 0
      },
      {
        "type": "note_on",
        "time": 1,
        "note": 47,
        "velocity": 60,
        "channel": 0
      },
      {
        "type": "note_on",
        "time": 0,
        "note": 42,
        "velocity": 60,
        "channel": 0
      },
      {
        "type": "note_on",
        "time": 0,
        "note": 54,
        "velocity": 60,
        "channel": 0
      },
      {
        "type": "note_on",
        "time": 0,
        "note": 59,
        "velocity": 60,
        "channel": 0
      },
      {
        "type": "note_on",
        "time": 0,
        "note": 66,
        "velocity": 60,
        "channel": 0
      },
      {
        "type": "note_on",
        "time": 0,
        "note": 62,
        "velocity": 60,
        "channel": 0
      },
      {
        "type": "note_on",
        "time": 29,
        "note": 47,
        "velocity": 0,
        "channel": 0
      },
      {
        "type": "note_on",
        "time": 0,
        "note": 42,
        "velocity": 0,
        "channel": 0
      },
      {
        "type": "note_on",
        "time": 0,
        "note": 54,
        "velocity": 0,
        "channel": 0
      },
      {
        "type": "note_on",
        "time": 0,
        "note": 59,
        "velocity": 0,
        "channel": 0
      },
      {
        "type": "note_on",
        "time": 0,
        "note": 66,
        "velocity": 0,
        "channel": 0
      },
      {
        "type": "note_on",
        "time": 0,
        "note": 62,
        "velocity": 0,
        "channel": 0
      },
      {
        "type": "note_on",
        "time": 1,
        "note": 59,
        "velocity": 60,
        "channel": 0
      },
      {
        "type": "note_on",
        "time": 0,
        "note": 47,
        "velocity": 60,
        "channel": 0
      },
      {
        "type": "note_on",
        "time": 0,
        "note": 66,
        "velocity": 60,
        "channel": 0
      },
      {
        "type": "note_on",
        "time": 0,
        "note": 54,
        "velocity": 60,
        "channel": 0
      },
      {
        "type": "note_on",
        "time": 0,
        "note": 42,
        "velocity": 60,
        "channel": 0
      },
      {
        "type": "note_on",
        "time": 0,
        "note": 62,
        "velocity": 60,
        "channel": 0
      },
      {
        "type": "note_on",
        "time": 59,
        "note": 59,
        "velocity": 0,
        "channel": 0
      },
      {
        "type": "note_on",
        "time": 0,
        "note": 47,
        "velocity": 0,
        "channel": 0
      },
      {
        "type": "note_on",
        "time": 0,
        "note": 66,
        "velocity": 0,
        "channel": 0
      },
      {
        "type": "note_on",
        "time": 0,
        "note": 54,
        "velocity": 0,
        "channel": 0
      },
      {
        "type": "note_on",
        "time": 0,
        "note": 42,
        "velocity": 0,
        "channel": 0
      },
      {
        "type": "note_on",
        "time": 0,
        "note": 62,
        "velocity": 0,
        "channel": 0
      },
      {
        "type": "note_on",
        "time": 1,
        "note": 42,
        "velocity": 60,
        "channel": 0
      },
      {
        "type": "note_on",
        "time": 0,
        "note": 59,
        "velocity": 60,
        "channel": 0
      },
      {
        "type": "note_on",
        "time": 0,
        "note": 66,
        "velocity": 60,
        "channel": 0
      },
      {
        "type": "note_on",
        "time": 0,
        "note": 54,
        "velocity": 60,
        "channel": 0
      },
      {
        "type": "note_on",
        "time": 0,
        "note": 62,
        "velocity": 60,
        "channel": 0
      },
      {
        "type": "note_on",
        "time": 0,
        "note": 47,
        "velocity": 60,
        "channel": 0
      },
      {
        "type": "note_on",
        "time": 29,
        "note": 42,
        "velocity": 0,
        "channel": 0
      },
      {
        "type": "note_on",
        "time": 0,
        "note": 59,
        "velocity": 0,
        "channel": 0
      },
      {
        "type": "note_on",
        "time": 0,
        "note": 66,
        "velocity": 0,
        "channel": 0
      },
      {
        "type": "note_on",
        "time": 0,
        "note": 54,
        "velocity": 0,
        "channel": 0
      },
      {
        "type": "note_on",
        "time": 0,
        "note": 62,
        "velocity": 0,
        "channel": 0
      },
      {
        "type": "note_on",
        "time": 0,
        "note": 47,
        "velocity": 0,
        "channel": 0
      },
      {
        "type": "note_on",
        "time": 1,
        "note": 62,
        "velocity": 60,
        "channel": 0
      },
      {
        "type": "note_on",
        "time": 0,
        "note": 47,
        "velocity": 60,
        "channel": 0
      },
      {
        "type": "note_on",
        "time": 0,
        "note": 66,
        "velocity": 60,
        "channel": 0
      },
      {
        "type": "note_on",
        "time": 0,
        "note": 42,
        "velocity": 60,
        "channel": 0
      },
      {
        "type": "note_on",
        "time": 0,
        "note": 59,
        "velocity": 60,
        "channel": 0
      },
      {
        "type": "note_on",
        "time": 0,
        "note": 54,
        "velocity": 60,
        "channel": 0
      },
      {
        "type": "note_on",
        "time": 59,
        "note": 62,
        "velocity": 0,
        "channel": 0
      },
      {
        "type": "note_on",
        "time": 0,
        "note": 47,
        "velocity": 0,
        "channel": 0
      },
      {
        "type": "note_on",
        "time": 0,
        "note": 66,
        "velocity": 0,
        "channel": 0
      },
      {
        "type": "note_on",
        "time": 0,
        "note": 42,
        "velocity": 0,
        "channel": 0
      },
      {
        "type": "note_on",
        "time": 0,
        "note": 59,
        "velocity": 0,
        "channel": 0
      },
      {
        "type": "note_on",
        "time": 0,
        "note": 54,
        "velocity": 0,
        "channel": 0
      },
      {
        "type": "note_on",
        "time": 1,
        "note": 66,
        "velocity": 60,
        "channel": 0
      },
      {
        "type": "note_on",
        "time": 0,
        "note": 59,
        "velocity": 60,
        "channel": 0
      },
      {
        "type": "note_on",
        "time": 0,
        "note": 42,
        "velocity": 60,
        "channel": 0
      },
      {
        "type": "note_on",
        "time": 0,
        "note": 62,
        "velocity": 60,
        "channel": 0
      },
      {
        "type": "note_on",
        "time": 0,
        "note": 54,
        "velocity": 60,
        "channel": 0
      },
      {
        "type": "note_on",
        "time": 0,
        "note": 47,
        "velocity": 60,
        "channel": 0
      },
      {
        "type": "note_on",
        "time": 29,
        "note": 66,
        "velocity": 0,
        "channel": 0
      },
      {
        "type": "note_on",
        "time": 0,
        "note": 59,
        "velocity": 0,
        "channel": 0
      },
      {
        "type": "note_on",
        "time": 0,
        "note": 42,
        "velocity": 0,
        "channel": 0
      },
      {
        "type": "note_on",
        "time": 0,
        "note": 62,
        "velocity": 0,
        "channel": 0
      },
      {
        "type": "note_on",
        "time": 0,
        "note": 54,
        "velocity": 0,
        "channel": 0
      },
      {
        "type": "note_on",
        "time": 0,
        "note": 47,
        "velocity": 0,
        "channel": 0
      },
      {
        "type": "note_on",
        "time": 1,
        "note": 59,
        "velocity": 60,
        "channel": 0
      },
      {
        "type": "note_on",
        "time": 0,
        "note": 42,
        "velocity": 60,
        "channel": 0
      },
      {
        "type": "note_on",
        "time": 0,
        "note": 54,
        "velocity": 60,
        "channel": 0
      },
      {
        "type": "note_on",
        "time": 0,
        "note": 66,
        "velocity": 60,
        "channel": 0
      },
      {
        "type": "note_on",
        "time": 0,
        "note": 62,
        "velocity": 60,
        "channel": 0
      },
      {
        "type": "note_on",
        "time": 0,
        "note": 47,
        "velocity": 60,
        "channel": 0
      },
      {
        "type": "note_on",
        "time": 59,
        "note": 59,
        "velocity": 0,
        "channel": 0
      },
      {
        "type": "note_on",
        "time": 0,
        "note": 42,
        "velocity": 0,
        "channel": 0
      },
      {
        "type": "note_on",
        "time": 0,
        "note": 54,
        "velocity": 0,
        "channel": 0
      },
      {
        "type": "note_on",
        "time": 0,
        "note": 66,
        "velocity": 0,
        "channel": 0
      },
      {
        "type": "note_on",
        "time": 0,
        "note": 62,
        "velocity": 0,
        "channel": 0
      },
      {
        "type": "note_on",
        "time": 0,
        "note": 47,
        "velocity": 0,
        "channel": 0
      },
      {
        "type": "note_on",
        "time": 1,
        "note": 59,
        "velocity": 60,
        "channel": 0
      },
      {
        "type": "note_on",
        "time": 0,
        "note": 62,
        "velocity": 60,
        "channel": 0
      },
      {
        "type": "note_on",
        "time": 0,
        "note": 47,
        "velocity": 60,
        "channel": 0
      },
      {
        "type": "note_on",
        "time": 0,
        "note": 66,
        "velocity": 60,
        "channel": 0
      },
      {
        "type": "note_on",
        "time": 0,
        "note": 42,
        "velocity": 60,
        "channel": 0
      },
      {
        "type": "note_on",
        "time": 0,
        "note": 54,
        "velocity": 60,
        "channel": 0
      },
      {
        "type": "note_on",
        "time": 59,
        "note": 59,
        "velocity": 0,
        "channel": 0
      },
      {
        "type": "note_on",
        "time": 0,
        "note": 62,
        "velocity": 0,
        "channel": 0
      },
      {
        "type": "note_on",
        "time": 0,
        "note": 47,
        "velocity": 0,
        "channel": 0
      },
      {
        "type": "note_on",
        "time": 0,
        "note": 66,
        "velocity": 0,
        "channel": 0
      },
      {
        "type": "note_on",
        "time": 0,
        "note": 42,
        "velocity": 0,
        "channel": 0
      },
      {
        "type": "note_on",
        "time": 0,
        "note": 54,
        "velocity": 0,
        "channel": 0
      },
      {
        "type": "note_on",
        "time": 1,
        "note": 47,
        "velocity": 60,
        "channel": 0
      },
      {
        "type": "note_on",
        "time": 0,
        "note": 42,
        "velocity": 60,
        "channel": 0
      },
      {
        "type": "note_on",
        "time": 0,
        "note": 59,
        "velocity": 60,
        "channel": 0
      },
      {
        "type": "note_on",
        "time": 0,
        "note": 66,
        "velocity": 60,
        "channel": 0
      },
      {
        "type": "note_on",
        "time": 0,
        "note": 54,
        "velocity": 60,
        "channel": 0
      },
      {
        "type": "note_on",
        "time": 0,
        "note": 62,
        "velocity": 60,
        "channel": 0
      },
      {
        "type": "note_on",
        "time": 59,
        "note": 47,
        "velocity": 0,
        "channel": 0
      },
      {
        "type": "note_on",
        "time": 0,
        "note": 42,
        "velocity": 0,
        "channel": 0
      },
      {
        "type": "note_on",
        "time": 0,
        "note": 59,
        "velocity": 0,
        "channel": 0
      },
      {
        "type": "note_on",
        "time": 0,
        "note": 66,
        "velocity": 0,
        "channel": 0
      },
      {
        "type": "note_on",
        "time": 0,
        "note": 54,
        "velocity": 0,
        "channel": 0
      },
      {
        "type": "note_on",
        "time": 0,
        "note": 62,
        "velocity": 0,
        "channel": 0
      },
      {
        "type": "note_on",
        "time": 1,
        "note": 61,
        "velocity": 60,
        "channel": 0
      },
      {
        "type": "note_on",
        "time": 0,
        "note": 58,
        "velocity": 60,
        "channel": 0
      },
      {
        "type": "note_on",
        "time": 0,
        "note": 54,
        "velocity": 60,
        "channel": 0
      },
      {
        "type": "note_on",
        "time": 0,
        "note": 42,
        "velocity": 60,
        "channel": 0
      },
      {
        "type": "note_on",
        "time": 0,
        "note": 49,
        "velocity": 60,
        "channel": 0
      },
      {
        "type": "note_on",
        "time": 0,
        "note": 66,
        "velocity": 60,
        "channel": 0
      },
      {
        "type": "note_on",
        "time": 29,
        "note": 61,
        "velocity": 0,
        "channel": 0
      },
      {
        "type": "note_on",
        "time": 0,
        "note": 58,
        "velocity": 0,
        "channel": 0
      },
      {
        "type": "note_on",
        "time": 0,
        "note": 54,
        "velocity": 0,
        "channel": 0
      },
      {
        "type": "note_on",
        "time": 0,
        "note": 42,
        "velocity": 0,
        "channel": 0
      },
      {
        "type": "note_on",
        "time": 0,
        "note": 49,
        "velocity": 0,
        "channel": 0
      },
      {
        "type": "note_on",
        "time": 0,
        "note": 66,
        "velocity": 0,
        "channel": 0
      },
      {
        "type": "note_on",
        "time": 1,
        "note": 58,
        "velocity": 60,
        "channel": 0
      },
      {
        "type": "note_on",
        "time": 0,
        "note": 42,
        "velocity": 60,
        "channel": 0
      },
      {
        "type": "note_on",
        "time": 0,
        "note": 49,
        "velocity": 60,
        "channel": 0
      },
      {
        "type": "note_on",
        "time": 0,
        "note": 61,
        "velocity": 60,
        "channel": 0
      },
      {
        "type": "note_on",
        "time": 0,
        "note": 54,
        "velocity": 60,
        "channel": 0
      },
      {
        "type": "note_on",
        "time": 0,
        "note": 66,
        "velocity": 60,
        "channel": 0
      },
      {
        "type": "note_on",
        "time": 59,
        "note": 58,
        "velocity": 0,
        "channel": 0
      },
      {
        "type": "note_on",
        "time": 0,
        "note": 42,
        "velocity": 0,
        "channel": 0
      },
      {
        "type": "note_on",
        "time": 0,
        "note": 49,
        "velocity": 0,
        "channel": 0
      },
      {
        "type": "note_on",
        "time": 0,
        "note": 61,
        "velocity": 0,
        "channel": 0
      },
      {
        "type": "note_on",
        "time": 0,
        "note": 54,
        "velocity": 0,
        "channel": 0
      },
      {
        "type": "note_on",
        "time": 0,
        "note": 66,
        "velocity": 0,
        "channel": 0
      },
      {
        "type": "note_on",
        "time": 1,
        "note": 66,
        "velocity": 60,
        "channel": 0
      },
      {
        "type": "note_on",
        "time": 0,
        "note": 58,
        "velocity": 60,
        "channel": 0
      },
      {
        "type": "note_on",
        "time": 0,
        "note": 49,
        "velocity": 60,
        "channel": 0
      },
      {
        "type": "note_on",
        "time": 0,
        "note": 54,
        "velocity": 60,
        "channel": 0
      },
      {
        "type": "note_on",
        "time": 0,
        "note": 42,
        "velocity": 60,
        "channel": 0
      },
      {
        "type": "note_on",
        "time": 0,
        "note": 61,
        "velocity": 60,
        "channel": 0
      },
      {
        "type": "note_on",
        "time": 29,
        "note": 66,
        "velocity": 0,
        "channel": 0
      },
      {
        "type": "note_on",
        "time": 0,
        "note": 58,
        "velocity": 0,
        "channel": 0
      },
      {
        "type": "note_on",
        "time": 0,
        "note": 49,
        "velocity": 0,
        "channel": 0
      },
      {
        "type": "note_on",
        "time": 0,
        "note": 54,
        "velocity": 0,
        "channel": 0
      },
      {
        "type": "note_on",
        "time": 0,
        "note": 42,
        "velocity": 0,
        "channel": 0
      },
      {
        "type": "note_on",
        "time": 0,
        "note": 61,
        "velocity": 0,
        "channel": 0
      },
      {
        "type": "note_on",
        "time": 1,
        "note": 42,
        "velocity": 60,
        "channel": 0
      },
      {
        "type": "note_on",
        "time": 0,
        "note": 61,
        "velocity": 60,
        "channel": 0
      },
      {
        "type": "note_on",
        "time": 0,
        "note": 54,
        "velocity": 60,
        "channel": 0
      },
      {
        "type": "note_on",
        "time": 0,
        "note": 49,
        "velocity": 60,
        "channel": 0
      },
      {
        "type": "note_on",
        "time": 0,
        "note": 58,
        "velocity": 60,
        "channel": 0
      },
      {
        "type": "note_on",
        "time": 0,
        "note": 66,
        "velocity": 60,
        "channel": 0
      },
      {
        "type": "note_on",
        "time": 59,
        "note": 42,
        "velocity": 0,
        "channel": 0
      },
      {
        "type": "note_on",
        "time": 0,
        "note": 61,
        "velocity": 0,
        "channel": 0
      },
      {
        "type": "note_on",
        "time": 0,
        "note": 54,
        "velocity": 0,
        "channel": 0
      },
      {
        "type": "note_on",
        "time": 0,
        "note": 49,
        "velocity": 0,
        "channel": 0
      },
      {
        "type": "note_on",
        "time": 0,
        "note": 58,
        "velocity": 0,
        "channel": 0
      },
      {
        "type": "note_on",
        "time": 0,
        "note": 66,
        "velocity": 0,
        "channel": 0
      },
      {
        "type": "note_on",
        "time": 1,
        "note": 42,
        "velocity": 60,
        "channel": 0
      },
      {
        "type": "note_on",
        "time": 0,
        "note": 54,
        "velocity": 60,
        "channel": 0
      },
      {
        "type": "note_on",
        "time": 0,
        "note": 58,
        "velocity": 60,
        "channel": 0
      },
      {
        "type": "note_on",
        "time": 0,
        "note": 49,
        "velocity": 60,
        "channel": 0
      },
      {
        "type": "note_on",
        "time": 0,
        "note": 66,
        "velocity": 60,
        "channel": 0
      },
      {
        "type": "note_on",
        "time": 0,
        "note": 61,
        "velocity": 60,
        "channel": 0
      },
      {
        "type": "note_on",
        "time": 29,
        "note": 42,
        "velocity": 0,
        "channel": 0
      },
      {
        "type": "note_on",
        "time": 0,
        "note": 54,
        "velocity": 0,
        "channel": 0
      },
      {
        "type": "note_on",
        "time": 0,
        "note": 58,
        "velocity": 0,
        "channel": 0
      },
      {
        "type": "note_on",
        "time": 0,
        "note": 49,
        "velocity": 0,
        "channel": 0
      },
      {
        "type": "note_on",
        "time": 0,
        "note": 66,
        "velocity": 0,
        "channel": 0
      },
      {
        "type": "note_on",
        "time": 0,
        "note": 61,
        "velocity": 0,
        "channel": 0
      },
      {
        "type": "note_on",
        "time": 1,
        "note": 66,
        "velocity": 60,
        "channel": 0
      },
      {
        "type": "note_on",
        "time": 0,
        "note": 61,
        "velocity": 60,
        "channel": 0
      },
      {
        "type": "note_on",
        "time": 0,
        "note": 58,
        "velocity": 60,
        "channel": 0
      },
      {
        "type": "note_on",
        "time": 0,
        "note": 49,
        "velocity": 60,
        "channel": 0
      },
      {
        "type": "note_on",
        "time": 0,
        "note": 42,
        "velocity": 60,
        "channel": 0
      },
      {
        "type": "note_on",
        "time": 0,
        "note": 54,
        "velocity": 60,
        "channel": 0
      },
      {
        "type": "note_on",
        "time": 59,
        "note": 66,
        "velocity": 0,
        "channel": 0
      },
      {
        "type": "note_on",
        "time": 0,
        "note": 61,
        "velocity": 0,
        "channel": 0
      },
      {
        "type": "note_on",
        "time": 0,
        "note": 58,
        "velocity": 0,
        "channel": 0
      },
      {
        "type": "note_on",
        "time": 0,
        "note": 49,
        "velocity": 0,
        "channel": 0
      },
      {
        "type": "note_on",
        "time": 0,
        "note": 42,
        "velocity": 0,
        "channel": 0
      },
      {
        "type": "note_on",
        "time": 0,
        "note": 54,
        "velocity": 0,
        "channel": 0
      },
      {
        "type": "note_on",
        "time": 1,
        "note": 54,
        "velocity": 60,
        "channel": 0
      },
      {
        "type": "note_on",
        "time": 0,
        "note": 49,
        "velocity": 60,
        "channel": 0
      },
      {
        "type": "note_on",
        "time": 0,
        "note": 61,
        "velocity": 60,
        "channel": 0
      },
      {
        "type": "note_on",
        "time": 0,
        "note": 66,
        "velocity": 60,
        "channel": 0
      },
      {
        "type": "note_on",
        "time": 0,
        "note": 42,
        "velocity": 60,
        "channel": 0
      },
      {
        "type": "note_on",
        "time": 0,
        "note": 58,
        "velocity": 60,
        "channel": 0
      },
      {
        "type": "note_on",
        "time": 29,
        "note": 54,
        "velocity": 0,
        "channel": 0
      },
      {
        "type": "note_on",
        "time": 0,
        "note": 49,
        "velocity": 0,
        "channel": 0
      },
      {
        "type": "note_on",
        "time": 0,
        "note": 61,
        "velocity": 0,
        "channel": 0
      },
      {
        "type": "note_on",
        "time": 0,
        "note": 66,
        "velocity": 0,
        "channel": 0
      },
      {
        "type": "note_on",
        "time": 0,
        "note": 42,
        "velocity": 0,
        "channel": 0
      },
      {
        "type": "note_on",
        "time": 0,
        "note": 58,
        "velocity": 0,
        "channel": 0
      },
      {
        "type": "note_on",
        "time": 1,
        "note": 58,
        "velocity": 60,
        "channel": 0
      },
      {
        "type": "note_on",
        "time": 0,
        "note": 49,
        "velocity": 60,
        "channel": 0
      },
      {
        "type": "note_on",
        "time": 0,
        "note": 61,
        "velocity": 60,
        "channel": 0
      },
      {
        "type": "note_on",
        "time": 0,
        "note": 54,
        "velocity": 60,
        "channel": 0
      },
      {
        "type": "note_on",
        "time": 0,
        "note": 42,
        "velocity": 60,
        "channel": 0
      },
      {
        "type": "note_on",
        "time": 0,
        "note": 66,
        "velocity": 60,
        "channel": 0
      },
      {
        "type": "note_on",
        "time": 59,
        "note": 58,
        "velocity": 0,
        "channel": 0
      },
      {
        "type": "note_on",
        "time": 0,
        "note": 49,
        "velocity": 0,
        "channel": 0
      },
      {
        "type": "note_on",
        "time": 0,
        "note": 61,
        "velocity": 0,
        "channel": 0
      },
      {
        "type": "note_on",
        "time": 0,
        "note": 54,
        "velocity": 0,
        "channel": 0
      },
      {
        "type": "note_on",
        "time": 0,
        "note": 42,
        "velocity": 0,
        "channel": 0
      },
      {
        "type": "note_on",
        "time": 0,
        "note": 66,
        "velocity": 0,
        "channel": 0
      },
      {
        "type": "note_on",
        "time": 1,
        "note": 58,
        "velocity": 60,
        "channel": 0
      },
      {
        "type": "note_on",
        "time": 0,
        "note": 66,
        "velocity": 60,
        "channel": 0
      },
      {
        "type": "note_on",
        "time": 0,
        "note": 61,
        "velocity": 60,
        "channel": 0
      },
      {
        "type": "note_on",
        "time": 0,
        "note": 49,
        "velocity": 60,
        "channel": 0
      },
      {
        "type": "note_on",
        "time": 0,
        "note": 42,
        "velocity": 60,
        "channel": 0
      },
      {
        "type": "note_on",
        "time": 0,
        "note": 54,
        "velocity": 60,
        "channel": 0
      },
      {
        "type": "note_on",
        "time": 59,
        "note": 58,
        "velocity": 0,
        "channel": 0
      },
      {
        "type": "note_on",
        "time": 0,
        "note": 66,
        "velocity": 0,
        "channel": 0
      },
      {
        "type": "note_on",
        "time": 0,
        "note": 61,
        "velocity": 0,
        "channel": 0
      },
      {
        "type": "note_on",
        "time": 0,
        "note": 49,
        "velocity": 0,
        "channel": 0
      },
      {
        "type": "note_on",
        "time": 0,
        "note": 42,
        "velocity": 0,
        "channel": 0
      },
      {
        "type": "note_on",
        "time": 0,
        "note": 54,
        "velocity": 0,
        "channel": 0
      },
      {
        "type": "note_on",
        "time": 1,
        "note": 66,
        "velocity": 60,
        "channel": 0
      },
      {
        "type": "note_on",
        "time": 0,
        "note": 49,
        "velocity": 60,
        "channel": 0
      },
      {
        "type": "note_on",
        "time": 0,
        "note": 42,
        "velocity": 60,
        "channel": 0
      },
      {
        "type": "note_on",
        "time": 0,
        "note": 58,
        "velocity": 60,
        "channel": 0
      },
      {
        "type": "note_on",
        "time": 0,
        "note": 54,
        "velocity": 60,
        "channel": 0
      },
      {
        "type": "note_on",
        "time": 0,
        "note": 61,
        "velocity": 60,
        "channel": 0
      },
      {
        "type": "note_on",
        "time": 59,
        "note": 66,
        "velocity": 0,
        "channel": 0
      },
      {
        "type": "note_on",
        "time": 0,
        "note": 49,
        "velocity": 0,
        "channel": 0
      },
      {
        "type": "note_on",
        "time": 0,
        "note": 42,
        "velocity": 0,
        "channel": 0
      },
      {
        "type": "note_on",
        "time": 0,
        "note": 58,
        "velocity": 0,
        "channel": 0
      },
      {
        "type": "note_on",
        "time": 0,
        "note": 54,
        "velocity": 0,
        "channel": 0
      },
      {
        "type": "note_on",
        "time": 0,
        "note": 61,
        "velocity": 0,
        "channel": 0
      },
      {
        "type": "note_on",
        "time": 1,
        "note": 61,
        "velocity": 60,
        "channel": 0
      },
      {
        "type": "note_on",
        "time": 0,
        "note": 57,
        "velocity": 60,
        "channel": 0
      },
      {
        "type": "note_on",
        "time": 0,
        "note": 40,
        "velocity": 60,
        "channel": 0
      },
      {
        "type": "note_on",
        "time": 0,
        "note": 45,
        "velocity": 60,
        "channel": 0
      },
      {
        "type": "note_on",
        "time": 0,
        "note": 64,
        "velocity": 60,
        "channel": 0
      },
      {
        "type": "note_on",
        "time": 0,
        "note": 52,
        "velocity": 60,
        "channel": 0
      },
      {
        "type": "note_on",
        "time": 29,
        "note": 61,
        "velocity": 0,
        "channel": 0
      },
      {
        "type": "note_on",
        "time": 0,
        "note": 57,
        "velocity": 0,
        "channel": 0
      },
      {
        "type": "note_on",
        "time": 0,
        "note": 40,
        "velocity": 0,
        "channel": 0
      },
      {
        "type": "note_on",
        "time": 0,
        "note": 45,
        "velocity": 0,
        "channel": 0
      },
      {
        "type": "note_on",
        "time": 0,
        "note": 64,
        "velocity": 0,
        "channel": 0
      },
      {
        "type": "note_on",
        "time": 0,
        "note": 52,
        "velocity": 0,
        "channel": 0
      },
      {
        "type": "note_on",
        "time": 1,
        "note": 57,
        "velocity": 60,
        "channel": 0
      },
      {
        "type": "note_on",
        "time": 0,
        "note": 40,
        "velocity": 60,
        "channel": 0
      },
      {
        "type": "note_on",
        "time": 0,
        "note": 61,
        "velocity": 60,
        "channel": 0
      },
      {
        "type": "note_on",
        "time": 0,
        "note": 52,
        "velocity": 60,
        "channel": 0
      },
      {
        "type": "note_on",
        "time": 0,
        "note": 45,
        "velocity": 60,
        "channel": 0
      },
      {
        "type": "note_on",
        "time": 0,
        "note": 64,
        "velocity": 60,
        "channel": 0
      },
      {
        "type": "note_on",
        "time": 59,
        "note": 57,
        "velocity": 0,
        "channel": 0
      },
      {
        "type": "note_on",
        "time": 0,
        "note": 40,
        "velocity": 0,
        "channel": 0
      },
      {
        "type": "note_on",
        "time": 0,
        "note": 61,
        "velocity": 0,
        "channel": 0
      },
      {
        "type": "note_on",
        "time": 0,
        "note": 52,
        "velocity": 0,
        "channel": 0
      },
      {
        "type": "note_on",
        "time": 0,
        "note": 45,
        "velocity": 0,
        "channel": 0
      },
      {
        "type": "note_on",
        "time": 0,
        "note": 64,
        "velocity": 0,
        "channel": 0
      },
      {
        "type": "note_on",
        "time": 1,
        "note": 45,
        "velocity": 60,
        "channel": 0
      },
      {
        "type": "note_on",
        "time": 0,
        "note": 40,
        "velocity": 60,
        "channel": 0
      },
      {
        "type": "note_on",
        "time": 0,
        "note": 52,
        "velocity": 60,
        "channel": 0
      },
      {
        "type": "note_on",
        "time": 0,
        "note": 57,
        "velocity": 60,
        "channel": 0
      },
      {
        "type": "note_on",
        "time": 0,
        "note": 64,
        "velocity": 60,
        "channel": 0
      },
      {
        "type": "note_on",
        "time": 0,
        "note": 61,
        "velocity": 60,
        "channel": 0
      },
      {
        "type": "note_on",
        "time": 29,
        "note": 45,
        "velocity": 0,
        "channel": 0
      },
      {
        "type": "note_on",
        "time": 0,
        "note": 40,
        "velocity": 0,
        "channel": 0
      },
      {
        "type": "note_on",
        "time": 0,
        "note": 52,
        "velocity": 0,
        "channel": 0
      },
      {
        "type": "note_on",
        "time": 0,
        "note": 57,
        "velocity": 0,
        "channel": 0
      },
      {
        "type": "note_on",
        "time": 0,
        "note": 64,
        "velocity": 0,
        "channel": 0
      },
      {
        "type": "note_on",
        "time": 0,
        "note": 61,
        "velocity": 0,
        "channel": 0
      },
      {
        "type": "note_on",
        "time": 1,
        "note": 57,
        "velocity": 60,
        "channel": 0
      },
      {
        "type": "note_on",
        "time": 0,
        "note": 45,
        "velocity": 60,
        "channel": 0
      },
      {
        "type": "note_on",
        "time": 0,
        "note": 64,
        "velocity": 60,
        "channel": 0
      },
      {
        "type": "note_on",
        "time": 0,
        "note": 52,
        "velocity": 60,
        "channel": 0
      },
      {
        "type": "note_on",
        "time": 0,
        "note": 40,
        "velocity": 60,
        "channel": 0
      },
      {
        "type": "note_on",
        "time": 0,
        "note": 61,
        "velocity": 60,
        "channel": 0
      },
      {
        "type": "note_on",
        "time": 59,
        "note": 57,
        "velocity": 0,
        "channel": 0
      },
      {
        "type": "note_on",
        "time": 0,
        "note": 45,
        "velocity": 0,
        "channel": 0
      },
      {
        "type": "note_on",
        "time": 0,
        "note": 64,
        "velocity": 0,
        "channel": 0
      },
      {
        "type": "note_on",
        "time": 0,
        "note": 52,
        "velocity": 0,
        "channel": 0
      },
      {
        "type": "note_on",
        "time": 0,
        "note": 40,
        "velocity": 0,
        "channel": 0
      },
      {
        "type": "note_on",
        "time": 0,
        "note": 61,
        "velocity": 0,
        "channel": 0
      },
      {
        "type": "note_on",
        "time": 1,
        "note": 40,
        "velocity": 60,
        "channel": 0
      },
      {
        "type": "note_on",
        "time": 0,
        "note": 57,
        "velocity": 60,
        "channel": 0
      },
      {
        "type": "note_on",
        "time": 0,
        "note": 64,
        "velocity": 60,
        "channel": 0
      },
      {
        "type": "note_on",
        "time": 0,
        "note": 52,
        "velocity": 60,
        "channel": 0
      },
      {
        "type": "note_on",
        "time": 0,
        "note": 61,
        "velocity": 60,
        "channel": 0
      },
      {
        "type": "note_on",
        "time": 0,
        "note": 45,
        "velocity": 60,
        "channel": 0
      },
      {
        "type": "note_on",
        "time": 29,
        "note": 40,
        "velocity": 0,
        "channel": 0
      },
      {
        "type": "note_on",
        "time": 0,
        "note": 57,
        "velocity": 0,
        "channel": 0
      },
      {
        "type": "note_on",
        "time": 0,
        "note": 64,
        "velocity": 0,
        "channel": 0
      },
      {
        "type": "note_on",
        "time": 0,
        "note": 52,
        "velocity": 0,
        "channel": 0
      },
      {
        "type": "note_on",
        "time": 0,
        "note": 61,
        "velocity": 0,
        "channel": 0
      },
      {
        "type": "note_on",
        "time": 0,
        "note": 45,
        "velocity": 0,
        "channel": 0
      },
      {
        "type": "note_on",
        "time": 1,
        "note": 61,
        "velocity": 60,
        "channel": 0
      },
      {
        "type": "note_on",
        "time": 0,
        "note": 45,
        "velocity": 60,
        "channel": 0
      },
      {
        "type": "note_on",
        "time": 0,
        "note": 64,
        "velocity": 60,
        "channel": 0
      },
      {
        "type": "note_on",
        "time": 0,
        "note": 40,
        "velocity": 60,
        "channel": 0
      },
      {
        "type": "note_on",
        "time": 0,
        "note": 57,
        "velocity": 60,
        "channel": 0
      },
      {
        "type": "note_on",
        "time": 0,
        "note": 52,
        "velocity": 60,
        "channel": 0
      },
      {
        "type": "note_on",
        "time": 59,
        "note": 61,
        "velocity": 0,
        "channel": 0
      },
      {
        "type": "note_on",
        "time": 0,
        "note": 45,
        "velocity": 0,
        "channel": 0
      },
      {
        "type": "note_on",
        "time": 0,
        "note": 64,
        "velocity": 0,
        "channel": 0
      },
      {
        "type": "note_on",
        "time": 0,
        "note": 40,
        "velocity": 0,
        "channel": 0
      },
      {
        "type": "note_on",
        "time": 0,
        "note": 57,
        "velocity": 0,
        "channel": 0
      },
      {
        "type": "note_on",
        "time": 0,
        "note": 52,
        "velocity": 0,
        "channel": 0
      },
      {
        "type": "note_on",
        "time": 1,
        "note": 64,
        "velocity": 60,
        "channel": 0
      },
      {
        "type": "note_on",
        "time": 0,
        "note": 57,
        "velocity": 60,
        "channel": 0
      },
      {
        "type": "note_on",
        "time": 0,
        "note": 40,
        "velocity": 60,
        "channel": 0
      },
      {
        "type": "note_on",
        "time": 0,
        "note": 61,
        "velocity": 60,
        "channel": 0
      },
      {
        "type": "note_on",
        "time": 0,
        "note": 52,
        "velocity": 60,
        "channel": 0
      },
      {
        "type": "note_on",
        "time": 0,
        "note": 45,
        "velocity": 60,
        "channel": 0
      },
      {
        "type": "note_on",
        "time": 29,
        "note": 64,
        "velocity": 0,
        "channel": 0
      },
      {
        "type": "note_on",
        "time": 0,
        "note": 57,
        "velocity": 0,
        "channel": 0
      },
      {
        "type": "note_on",
        "time": 0,
        "note": 40,
        "velocity": 0,
        "channel": 0
      },
      {
        "type": "note_on",
        "time": 0,
        "note": 61,
        "velocity": 0,
        "channel": 0
      },
      {
        "type": "note_on",
        "time": 0,
        "note": 52,
        "velocity": 0,
        "channel": 0
      },
      {
        "type": "note_on",
        "time": 0,
        "note": 45,
        "velocity": 0,
        "channel": 0
      },
      {
        "type": "note_on",
        "time": 1,
        "note": 57,
        "velocity": 60,
        "channel": 0
      },
      {
        "type": "note_on",
        "time": 0,
        "note": 40,
        "velocity": 60,
        "channel": 0
      },
      {
        "type": "note_on",
        "time": 0,
        "note": 52,
        "velocity": 60,
        "channel": 0
      },
      {
        "type": "note_on",
        "time": 0,
        "note": 64,
        "velocity": 60,
        "channel": 0
      },
      {
        "type": "note_on",
        "time": 0,
        "note": 61,
        "velocity": 60,
        "channel": 0
      },
      {
        "type": "note_on",
        "time": 0,
        "note": 45,
        "velocity": 60,
        "channel": 0
      },
      {
        "type": "note_on",
        "time": 59,
        "note": 57,
        "velocity": 0,
        "channel": 0
      },
      {
        "type": "note_on",
        "time": 0,
        "note": 40,
        "velocity": 0,
        "channel": 0
      },
      {
        "type": "note_on",
        "time": 0,
        "note": 52,
        "velocity": 0,
        "channel": 0
      },
      {
        "type": "note_on",
        "time": 0,
        "note": 64,
        "velocity": 0,
        "channel": 0
      },
      {
        "type": "note_on",
        "time": 0,
        "note": 61,
        "velocity": 0,
        "channel": 0
      },
      {
        "type": "note_on",
        "time": 0,
        "note": 45,
        "velocity": 0,
        "channel": 0
      },
      {
        "type": "note_on",
        "time": 1,
        "note": 57,
        "velocity": 60,
        "channel": 0
      },
      {
        "type": "note_on",
        "time": 0,
        "note": 61,
        "velocity": 60,
        "channel": 0
      },
      {
        "type": "note_on",
        "time": 0,
        "note": 45,
        "velocity": 60,
        "channel": 0
      },
      {
        "type": "note_on",
        "time": 0,
        "note": 64,
        "velocity": 60,
        "channel": 0
      },
      {
        "type": "note_on",
        "time": 0,
        "note": 40,
        "velocity": 60,
        "channel": 0
      },
      {
        "type": "note_on",
        "time": 0,
        "note": 52,
        "velocity": 60,
        "channel": 0
      },
      {
        "type": "note_on",
        "time": 59,
        "note": 57,
        "velocity": 0,
        "channel": 0
      },
      {
        "type": "note_on",
        "time": 0,
        "note": 61,
        "velocity": 0,
        "channel": 0
      },
      {
        "type": "note_on",
        "time": 0,
        "note": 45,
        "velocity": 0,
        "channel": 0
      },
      {
        "type": "note_on",
        "time": 0,
        "note": 64,
        "velocity": 0,
        "channel": 0
      },
      {
        "type": "note_on",
        "time": 0,
        "note": 40,
        "velocity": 0,
        "channel": 0
      },
      {
        "type": "note_on",
        "time": 0,
        "note": 52,
        "velocity": 0,
        "channel": 0
      },
      {
        "type": "note_on",
        "time": 1,
        "note": 45,
        "velocity": 60,
        "channel": 0
      },
      {
        "type": "note_on",
        "time": 0,
        "note": 40,
        "velocity": 60,
        "channel": 0
      },
      {
        "type": "note_on",
        "time": 0,
        "note": 57,
        "velocity": 60,
        "channel": 0
      },
      {
        "type": "note_on",
        "time": 0,
        "note": 64,
        "velocity": 60,
        "channel": 0
      },
      {
        "type": "note_on",
        "time": 0,
        "note": 52,
        "velocity": 60,
        "channel": 0
      },
      {
        "type": "note_on",
        "time": 0,
        "note": 61,
        "velocity": 60,
        "channel": 0
      },
      {
        "type": "note_on",
        "time": 59,
        "note": 45,
        "velocity": 0,
        "channel": 0
      },
      {
        "type": "note_on",
        "time": 0,
        "note": 40,
        "velocity": 0,
        "channel": 0
      },
      {
        "type": "note_on",
        "time": 0,
        "note": 57,
        "velocity": 0,
        "channel": 0
      },
      {
        "type": "note_on",
        "time": 0,
        "note": 64,
        "velocity": 0,
        "channel": 0
      },
      {
        "type": "note_on",
        "time": 0,
        "note": 52,
        "velocity": 0,
        "channel": 0
      },
      {
        "type": "note_on",
        "time": 0,
        "note": 61,
        "velocity": 0,
        "channel": 0
      },
      {
        "type": "note_on",
        "time": 1,
        "note": 59,
        "velocity": 60,
        "channel": 0
      },
      {
        "type": "note_on",
        "time": 0,
        "note": 56,
        "velocity": 60,
        "channel": 0
      },
      {
        "type": "note_on",
        "time": 0,
        "note": 52,
        "velocity": 60,
        "channel": 0
      },
      {
        "type": "note_on",
        "time": 0,
        "note": 40,
        "velocity": 60,
        "channel": 0
      },
      {
        "type": "note_on",
        "time": 0,
        "note": 47,
        "velocity": 60,
        "channel": 0
      },
      {
        "type": "note_on",
        "time": 0,
        "note": 64,
        "velocity": 60,
        "channel": 0
      },
      {
        "type": "note_on",
        "time": 29,
        "note": 59,
        "velocity": 0,
        "channel": 0
      },
      {
        "type": "note_on",
        "time": 0,
        "note": 56,
        "velocity": 0,
        "channel": 0
      },
      {
        "type": "note_on",
        "time": 0,
        "note": 52,
        "velocity": 0,
        "channel": 0
      },
      {
        "type": "note_on",
        "time": 0,
        "note": 40,
        "velocity": 0,
        "channel": 0
      },
      {
        "type": "note_on",
        "time": 0,
        "note": 47,
        "velocity": 0,
        "channel": 0
      },
      {
        "type": "note_on",
        "time": 0,
        "note": 64,
        "velocity": 0,
        "channel": 0
      },
      {
        "type": "note_on",
        "time": 1,
        "note": 56,
        "velocity": 60,
        "channel": 0
      },
      {
        "type": "note_on",
        "time": 0,
        "note": 40,
        "velocity": 60,
        "channel": 0
      },
      {
        "type": "note_on",
        "time": 0,
        "note": 47,
        "velocity": 60,
        "channel": 0
      },
      {
        "type": "note_on",
        "time": 0,
        "note": 59,
        "velocity": 60,
        "channel": 0
      },
      {
        "type": "note_on",
        "time": 0,
        "note": 52,
        "velocity": 60,
        "channel": 0
      },
      {
        "type": "note_on",
        "time": 0,
        "note": 64,
        "velocity": 60,
        "channel": 0
      },
      {
        "type": "note_on",
        "time": 59,
        "note": 56,
        "velocity": 0,
        "channel": 0
      },
      {
        "type": "note_on",
        "time": 0,
        "note": 40,
        "velocity": 0,
        "channel": 0
      },
      {
        "type": "note_on",
        "time": 0,
        "note": 47,
        "velocity": 0,
        "channel": 0
      },
      {
        "type": "note_on",
        "time": 0,
        "note": 59,
        "velocity": 0,
        "channel": 0
      },
      {
        "type": "note_on",
        "time": 0,
        "note": 52,
        "velocity": 0,
        "channel": 0
      },
      {
        "type": "note_on",
        "time": 0,
        "note": 64,
        "velocity": 0,
        "channel": 0
      },
      {
        "type": "note_on",
        "time": 1,
        "note": 64,
        "velocity": 60,
        "channel": 0
      },
      {
        "type": "note_on",
        "time": 0,
        "note": 56,
        "velocity": 60,
        "channel": 0
      },
      {
        "type": "note_on",
        "time": 0,
        "note": 47,
        "velocity": 60,
        "channel": 0
      },
      {
        "type": "note_on",
        "time": 0,
        "note": 52,
        "velocity": 60,
        "channel": 0
      },
      {
        "type": "note_on",
        "time": 0,
        "note": 40,
        "velocity": 60,
        "channel": 0
      },
      {
        "type": "note_on",
        "time": 0,
        "note": 59,
        "velocity": 60,
        "channel": 0
      },
      {
        "type": "note_on",
        "time": 29,
        "note": 64,
        "velocity": 0,
        "channel": 0
      },
      {
        "type": "note_on",
        "time": 0,
        "note": 56,
        "velocity": 0,
        "channel": 0
      },
      {
        "type": "note_on",
        "time": 0,
        "note": 47,
        "velocity": 0,
        "channel": 0
      },
      {
        "type": "note_on",
        "time": 0,
        "note": 52,
        "velocity": 0,
        "channel": 0
      },
      {
        "type": "note_on",
        "time": 0,
        "note": 40,
        "velocity": 0,
        "channel": 0
      },
      {
        "type": "note_on",
        "time": 0,
        "note": 59,
        "velocity": 0,
        "channel": 0
      },
      {
        "type": "note_on",
        "time": 1,
        "note": 40,
        "velocity": 60,
        "channel": 0
      },
      {
        "type": "note_on",
        "time": 0,
        "note": 59,
        "velocity": 60,
        "channel": 0
      },
      {
        "type": "note_on",
        "time": 0,
        "note": 52,
        "velocity": 60,
        "channel": 0
      },
      {
        "type": "note_on",
        "time": 0,
        "note": 47,
        "velocity": 60,
        "channel": 0
      },
      {
        "type": "note_on",
        "time": 0,
        "note": 56,
        "velocity": 60,
        "channel": 0
      },
      {
        "type": "note_on",
        "time": 0,
        "note": 64,
        "velocity": 60,
        "channel": 0
      },
      {
        "type": "note_on",
        "time": 59,
        "note": 40,
        "velocity": 0,
        "channel": 0
      },
      {
        "type": "note_on",
        "time": 0,
        "note": 59,
        "velocity": 0,
        "channel": 0
      },
      {
        "type": "note_on",
        "time": 0,
        "note": 52,
        "velocity": 0,
        "channel": 0
      },
      {
        "type": "note_on",
        "time": 0,
        "note": 47,
        "velocity": 0,
        "channel": 0
      },
      {
        "type": "note_on",
        "time": 0,
        "note": 56,
        "velocity": 0,
        "channel": 0
      },
      {
        "type": "note_on",
        "time": 0,
        "note": 64,
        "velocity": 0,
        "channel": 0
      },
      {
        "type": "note_on",
        "time": 1,
        "note": 40,
        "velocity": 60,
        "channel": 0
      },
      {
        "type": "note_on",
        "time": 0,
        "note": 52,
        "velocity": 60,
        "channel": 0
      },
      {
        "type": "note_on",
        "time": 0,
        "note": 56,
        "velocity": 60,
        "channel": 0
      },
      {
        "type": "note_on",
        "time": 0,
        "note": 47,
        "velocity": 60,
        "channel": 0
      },
      {
        "type": "note_on",
        "time": 0,
        "note": 64,
        "velocity": 60,
        "channel": 0
      },
      {
        "type": "note_on",
        "time": 0,
        "note": 59,
        "velocity": 60,
        "channel": 0
      },
      {
        "type": "note_on",
        "time": 29,
        "note": 40,
        "velocity": 0,
        "channel": 0
      },
      {
        "type": "note_on",
        "time": 0,
        "note": 52,
        "velocity": 0,
        "channel": 0
      },
      {
        "type": "note_on",
        "time": 0,
        "note": 56,
        "velocity": 0,
        "channel": 0
      },
      {
        "type": "note_on",
        "time": 0,
        "note": 47,
        "velocity": 0,
        "channel": 0
      },
      {
        "type": "note_on",
        "time": 0,
        "note": 64,
        "velocity": 0,
        "channel": 0
      },
      {
        "type": "note_on",
        "time": 0,
        "note": 59,
        "velocity": 0,
        "channel": 0
      },
      {
        "type": "note_on",
        "time": 1,
        "note": 64,
        "velocity": 60,
        "channel": 0
      },
      {
        "type": "note_on",
        "time": 0,
        "note": 59,
        "velocity": 60,
        "channel": 0
      },
      {
        "type": "note_on",
        "time": 0,
        "note": 56,
        "velocity": 60,
        "channel": 0
      },
      {
        "type": "note_on",
        "time": 0,
        "note": 47,
        "velocity": 60,
        "channel": 0
      },
      {
        "type": "note_on",
        "time": 0,
        "note": 40,
        "velocity": 60,
        "channel": 0
      },
      {
        "type": "note_on",
        "time": 0,
        "note": 52,
        "velocity": 60,
        "channel": 0
      },
      {
        "type": "note_on",
        "time": 59,
        "note": 64,
        "velocity": 0,
        "channel": 0
      },
      {
        "type": "note_on",
        "time": 0,
        "note": 59,
        "velocity": 0,
        "channel": 0
      },
      {
        "type": "note_on",
        "time": 0,
        "note": 56,
        "velocity": 0,
        "channel": 0
      },
      {
        "type": "note_on",
        "time": 0,
        "note": 47,
        "velocity": 0,
        "channel": 0
      },
      {
        "type": "note_on",
        "time": 0,
        "note": 40,
        "velocity": 0,
        "channel": 0
      },
      {
        "type": "note_on",
        "time": 0,
        "note": 52,
        "velocity": 0,
        "channel": 0
      },
      {
        "type": "note_on",
        "time": 1,
        "note": 52,
        "velocity": 60,
        "channel": 0
      },
      {
        "type": "note_on",
        "time": 0,
        "note": 47,
        "velocity": 60,
        "channel": 0
      },
      {
        "type": "note_on",
        "time": 0,
        "note": 59,
        "velocity": 60,
        "channel": 0
      },
      {
        "type": "note_on",
        "time": 0,
        "note": 64,
        "velocity": 60,
        "channel": 0
      },
      {
        "type": "note_on",
        "time": 0,
        "note": 40,
        "velocity": 60,
        "channel": 0
      },
      {
        "type": "note_on",
        "time": 0,
        "note": 56,
        "velocity": 60,
        "channel": 0
      },
      {
        "type": "note_on",
        "time": 29,
        "note": 52,
        "velocity": 0,
        "channel": 0
      },
      {
        "type": "note_on",
        "time": 0,
        "note": 47,
        "velocity": 0,
        "channel": 0
      },
      {
        "type": "note_on",
        "time": 0,
        "note": 59,
        "velocity": 0,
        "channel": 0
      },
      {
        "type": "note_on",
        "time": 0,
        "note": 64,
        "velocity": 0,
        "channel": 0
      },
      {
        "type": "note_on",
        "time": 0,
        "note": 40,
        "velocity": 0,
        "channel": 0
      },
      {
        "type": "note_on",
        "time": 0,
        "note": 56,
        "velocity": 0,
        "channel": 0
      },
      {
        "type": "note_on",
        "time": 1,
        "note": 56,
        "velocity": 60,
        "channel": 0
      },
      {
        "type": "note_on",
        "time": 0,
        "note": 47,
        "velocity": 60,
        "channel": 0
      },
      {
        "type": "note_on",
        "time": 0,
        "note": 59,
        "velocity": 60,
        "channel": 0
      },
      {
        "type": "note_on",
        "time": 0,
        "note": 52,
        "velocity": 60,
        "channel": 0
      },
      {
        "type": "note_on",
        "time": 0,
        "note": 40,
        "velocity": 60,
        "channel": 0
      },
      {
        "type": "note_on",
        "time": 0,
        "note": 64,
        "velocity": 60,
        "channel": 0
      },
      {
        "type": "note_on",
        "time": 59,
        "note": 56,
        "velocity": 0,
        "channel": 0
      },
      {
        "type": "note_on",
        "time": 0,
        "note": 47,
        "velocity": 0,
        "channel": 0
      },
      {
        "type": "note_on",
        "time": 0,
        "note": 59,
        "velocity": 0,
        "channel": 0
      },
      {
        "type": "note_on",
        "time": 0,
        "note": 52,
        "velocity": 0,
        "channel": 0
      },
      {
        "type": "note_on",
        "time": 0,
        "note": 40,
        "velocity": 0,
        "channel": 0
      },
      {
        "type": "note_on",
        "time": 0,
        "note": 64,
        "velocity": 0,
        "channel": 0
      },
      {
        "type": "note_on",
        "time": 1,
        "note": 56,
        "velocity": 60,
        "channel": 0
      },
      {
        "type": "note_on",
        "time": 0,
        "note": 64,
        "velocity": 60,
        "channel": 0
      },
      {
        "type": "note_on",
        "time": 0,
        "note": 59,
        "velocity": 60,
        "channel": 0
      },
      {
        "type": "note_on",
        "time": 0,
        "note": 47,
        "velocity": 60,
        "channel": 0
      },
      {
        "type": "note_on",
        "time": 0,
        "note": 40,
        "velocity": 60,
        "channel": 0
      },
      {
        "type": "note_on",
        "time": 0,
        "note": 52,
        "velocity": 60,
        "channel": 0
      },
      {
        "type": "note_on",
        "time": 59,
        "note": 56,
        "velocity": 0,
        "channel": 0
      },
      {
        "type": "note_on",
        "time": 0,
        "note": 64,
        "velocity": 0,
        "channel": 0
      },
      {
        "type": "note_on",
        "time": 0,
        "note": 59,
        "velocity": 0,
        "channel": 0
      },
      {
        "type": "note_on",
        "time": 0,
        "note": 47,
        "velocity": 0,
        "channel": 0
      },
      {
        "type": "note_on",
        "time": 0,
        "note": 40,
        "velocity": 0,
        "channel": 0
      },
      {
        "type": "note_on",
        "time": 0,
        "note": 52,
        "velocity": 0,
        "channel": 0
      },
      {
        "type": "note_on",
        "time": 1,
        "note": 64,
        "velocity": 60,
        "channel": 0
      },
      {
        "type": "note_on",
        "time": 0,
        "note": 47,
        "velocity": 60,
        "channel": 0
      },
      {
        "type": "note_on",
        "time": 0,
        "note": 40,
        "velocity": 60,
        "channel": 0
      },
      {
        "type": "note_on",
        "time": 0,
        "note": 56,
        "velocity": 60,
        "channel": 0
      },
      {
        "type": "note_on",
        "time": 0,
        "note": 52,
        "velocity": 60,
        "channel": 0
      },
      {
        "type": "note_on",
        "time": 0,
        "note": 59,
        "velocity": 60,
        "channel": 0
      },
      {
        "type": "note_on",
        "time": 59,
        "note": 64,
        "velocity": 0,
        "channel": 0
      },
      {
        "type": "note_on",
        "time": 0,
        "note": 47,
        "velocity": 0,
        "channel": 0
      },
      {
        "type": "note_on",
        "time": 0,
        "note": 40,
        "velocity": 0,
        "channel": 0
      },
      {
        "type": "note_on",
        "time": 0,
        "note": 56,
        "velocity": 0,
        "channel": 0
      },
      {
        "type": "note_on",
        "time": 0,
        "note": 52,
        "velocity": 0,
        "channel": 0
      },
      {
        "type": "note_on",
        "time": 0,
        "note": 59,
        "velocity": 0,
        "channel": 0
      },
      {
        "type": "note_on",
        "time": 1,
        "note": 62,
        "velocity": 60,
        "channel": 0
      },
      {
        "type": "note_on",
        "time": 0,
        "note": 59,
        "velocity": 60,
        "channel": 0
      },
      {
        "type": "note_on",
        "time": 0,
        "note": 43,
        "velocity": 60,
        "channel": 0
      },
      {
        "type": "note_on",
        "time": 0,
        "note": 47,
        "velocity": 60,
        "channel": 0
      },
      {
        "type": "note_on",
        "time": 0,
        "note": 67,
        "velocity": 60,
        "channel": 0
      },
      {
        "type": "note_on",
        "time": 0,
        "note": 55,
        "velocity": 60,
        "channel": 0
      },
      {
        "type": "note_on",
        "time": 29,
        "note": 62,
        "velocity": 0,
        "channel": 0
      },
      {
        "type": "note_on",
        "time": 0,
        "note": 59,
        "velocity": 0,
        "channel": 0
      },
      {
        "type": "note_on",
        "time": 0,
        "note": 43,
        "velocity": 0,
        "channel": 0
      },
      {
        "type": "note_on",
        "time": 0,
        "note": 47,
        "velocity": 0,
        "channel": 0
      },
      {
        "type": "note_on",
        "time": 0,
        "note": 67,
        "velocity": 0,
        "channel": 0
      },
      {
        "type": "note_on",
        "time": 0,
        "note": 55,
        "velocity": 0,
        "channel": 0
      },
      {
        "type": "note_on",
        "time": 1,
        "note": 59,
        "velocity": 60,
        "channel": 0
      },
      {
        "type": "note_on",
        "time": 0,
        "note": 43,
        "velocity": 60,
        "channel": 0
      },
      {
        "type": "note_on",
        "time": 0,
        "note": 62,
        "velocity": 60,
        "channel": 0
      },
      {
        "type": "note_on",
        "time": 0,
        "note": 55,
        "velocity": 60,
        "channel": 0
      },
      {
        "type": "note_on",
        "time": 0,
        "note": 47,
        "velocity": 60,
        "channel": 0
      },
      {
        "type": "note_on",
        "time": 0,
        "note": 67,
        "velocity": 60,
        "channel": 0
      },
      {
        "type": "note_on",
        "time": 59,
        "note": 59,
        "velocity": 0,
        "channel": 0
      },
      {
        "type": "note_on",
        "time": 0,
        "note": 43,
        "velocity": 0,
        "channel": 0
      },
      {
        "type": "note_on",
        "time": 0,
        "note": 62,
        "velocity": 0,
        "channel": 0
      },
      {
        "type": "note_on",
        "time": 0,
        "note": 55,
        "velocity": 0,
        "channel": 0
      },
      {
        "type": "note_on",
        "time": 0,
        "note": 47,
        "velocity": 0,
        "channel": 0
      },
      {
        "type": "note_on",
        "time": 0,
        "note": 67,
        "velocity": 0,
        "channel": 0
      },
      {
        "type": "note_on",
        "time": 1,
        "note": 47,
        "velocity": 60,
        "channel": 0
      },
      {
        "type": "note_on",
        "time": 0,
        "note": 43,
        "velocity": 60,
        "channel": 0
      },
      {
        "type": "note_on",
        "time": 0,
        "note": 55,
        "velocity": 60,
        "channel": 0
      },
      {
        "type": "note_on",
        "time": 0,
        "note": 59,
        "velocity": 60,
        "channel": 0
      },
      {
        "type": "note_on",
        "time": 0,
        "note": 67,
        "velocity": 60,
        "channel": 0
      },
      {
        "type": "note_on",
        "time": 0,
        "note": 62,
        "velocity": 60,
        "channel": 0
      },
      {
        "type": "note_on",
        "time": 29,
        "note": 47,
        "velocity": 0,
        "channel": 0
      },
      {
        "type": "note_on",
        "time": 0,
        "note": 43,
        "velocity": 0,
        "channel": 0
      },
      {
        "type": "note_on",
        "time": 0,
        "note": 55,
        "velocity": 0,
        "channel": 0
      },
      {
        "type": "note_on",
        "time": 0,
        "note": 59,
        "velocity": 0,
        "channel": 0
      },
      {
        "type": "note_on",
        "time": 0,
        "note": 67,
        "velocity": 0,
        "channel": 0
      },
      {
        "type": "note_on",
        "time": 0,
        "note": 62,
        "velocity": 0,
        "channel": 0
      },
      {
        "type": "note_on",
        "time": 1,
        "note": 59,
        "velocity": 60,
        "channel": 0
      },
      {
        "type": "note_on",
        "time": 0,
        "note": 47,
        "velocity": 60,
        "channel": 0
      },
      {
        "type": "note_on",
        "time": 0,
        "note": 67,
        "velocity": 60,
        "channel": 0
      },
      {
        "type": "note_on",
        "time": 0,
        "note": 55,
        "velocity": 60,
        "channel": 0
      },
      {
        "type": "note_on",
        "time": 0,
        "note": 43,
        "velocity": 60,
        "channel": 0
      },
      {
        "type": "note_on",
        "time": 0,
        "note": 62,
        "velocity": 60,
        "channel": 0
      },
      {
        "type": "note_on",
        "time": 59,
        "note": 59,
        "velocity": 0,
        "channel": 0
      },
      {
        "type": "note_on",
        "time": 0,
        "note": 47,
        "velocity": 0,
        "channel": 0
      },
      {
        "type": "note_on",
        "time": 0,
        "note": 67,
        "velocity": 0,
        "channel": 0
      },
      {
        "type": "note_on",
        "time": 0,
        "note": 55,
        "velocity": 0,
        "channel": 0
      },
      {
        "type": "note_on",
        "time": 0,
        "note": 43,
        "velocity": 0,
        "channel": 0
      },
      {
        "type": "note_on",
        "time": 0,
        "note": 62,
        "velocity": 0,
        "channel": 0
      },
      {
        "type": "note_on",
        "time": 1,
        "note": 43,
        "velocity": 60,
        "channel": 0
      },
      {
        "type": "note_on",
        "time": 0,
        "note": 59,
        "velocity": 60,
        "channel": 0
      },
      {
        "type": "note_on",
        "time": 0,
        "note": 67,
        "velocity": 60,
        "channel": 0
      },
      {
        "type": "note_on",
        "time": 0,
        "note": 55,
        "velocity": 60,
        "channel": 0
      },
      {
        "type": "note_on",
        "time": 0,
        "note": 62,
        "velocity": 60,
        "channel": 0
      },
      {
        "type": "note_on",
        "time": 0,
        "note": 47,
        "velocity": 60,
        "channel": 0
      },
      {
        "type": "note_on",
        "time": 29,
        "note": 43,
        "velocity": 0,
        "channel": 0
      },
      {
        "type": "note_on",
        "time": 0,
        "note": 59,
        "velocity": 0,
        "channel": 0
      },
      {
        "type": "note_on",
        "time": 0,
        "note": 67,
        "velocity": 0,
        "channel": 0
      },
      {
        "type": "note_on",
        "time": 0,
        "note": 55,
        "velocity": 0,
        "channel": 0
      },
      {
        "type": "note_on",
        "time": 0,
        "note": 62,
        "velocity": 0,
        "channel": 0
      },
      {
        "type": "note_on",
        "time": 0,
        "note": 47,
        "velocity": 0,
        "channel": 0
      },
      {
        "type": "note_on",
        "time": 1,
        "note": 62,
        "velocity": 60,
        "channel": 0
      },
      {
        "type": "note_on",
        "time": 0,
        "note": 47,
        "velocity": 60,
        "channel": 0
      },
      {
        "type": "note_on",
        "time": 0,
        "note": 67,
        "velocity": 60,
        "channel": 0
      },
      {
        "type": "note_on",
        "time": 0,
        "note": 43,
        "velocity": 60,
        "channel": 0
      },
      {
        "type": "note_on",
        "time": 0,
        "note": 59,
        "velocity": 60,
        "channel": 0
      },
      {
        "type": "note_on",
        "time": 0,
        "note": 55,
        "velocity": 60,
        "channel": 0
      },
      {
        "type": "note_on",
        "time": 59,
        "note": 62,
        "velocity": 0,
        "channel": 0
      },
      {
        "type": "note_on",
        "time": 0,
        "note": 47,
        "velocity": 0,
        "channel": 0
      },
      {
        "type": "note_on",
        "time": 0,
        "note": 67,
        "velocity": 0,
        "channel": 0
      },
      {
        "type": "note_on",
        "time": 0,
        "note": 43,
        "velocity": 0,
        "channel": 0
      },
      {
        "type": "note_on",
        "time": 0,
        "note": 59,
        "velocity": 0,
        "channel": 0
      },
      {
        "type": "note_on",
        "time": 0,
        "note": 55,
        "velocity": 0,
        "channel": 0
      },
      {
        "type": "note_on",
        "time": 1,
        "note": 67,
        "velocity": 60,
        "channel": 0
      },
      {
        "type": "note_on",
        "time": 0,
        "note": 59,
        "velocity": 60,
        "channel": 0
      },
      {
        "type": "note_on",
        "time": 0,
        "note": 43,
        "velocity": 60,
        "channel": 0
      },
      {
        "type": "note_on",
        "time": 0,
        "note": 62,
        "velocity": 60,
        "channel": 0
      },
      {
        "type": "note_on",
        "time": 0,
        "note": 55,
        "velocity": 60,
        "channel": 0
      },
      {
        "type": "note_on",
        "time": 0,
        "note": 47,
        "velocity": 60,
        "channel": 0
      },
      {
        "type": "note_on",
        "time": 29,
        "note": 67,
        "velocity": 0,
        "channel": 0
      },
      {
        "type": "note_on",
        "time": 0,
        "note": 59,
        "velocity": 0,
        "channel": 0
      },
      {
        "type": "note_on",
        "time": 0,
        "note": 43,
        "velocity": 0,
        "channel": 0
      },
      {
        "type": "note_on",
        "time": 0,
        "note": 62,
        "velocity": 0,
        "channel": 0
      },
      {
        "type": "note_on",
        "time": 0,
        "note": 55,
        "velocity": 0,
        "channel": 0
      },
      {
        "type": "note_on",
        "time": 0,
        "note": 47,
        "velocity": 0,
        "channel": 0
      },
      {
        "type": "note_on",
        "time": 1,
        "note": 59,
        "velocity": 60,
        "channel": 0
      },
      {
        "type": "note_on",
        "time": 0,
        "note": 43,
        "velocity": 60,
        "channel": 0
      },
      {
        "type": "note_on",
        "time": 0,
        "note": 55,
        "velocity": 60,
        "channel": 0
      },
      {
        "type": "note_on",
        "time": 0,
        "note": 67,
        "velocity": 60,
        "channel": 0
      },
      {
        "type": "note_on",
        "time": 0,
        "note": 62,
        "velocity": 60,
        "channel": 0
      },
      {
        "type": "note_on",
        "time": 0,
        "note": 47,
        "velocity": 60,
        "channel": 0
      },
      {
        "type": "note_on",
        "time": 59,
        "note": 59,
        "velocity": 0,
        "channel": 0
      },
      {
        "type": "note_on",
        "time": 0,
        "note": 43,
        "velocity": 0,
        "channel": 0
      },
      {
        "type": "note_on",
        "time": 0,
        "note": 55,
        "velocity": 0,
        "channel": 0
      },
      {
        "type": "note_on",
        "time": 0,
        "note": 67,
        "velocity": 0,
        "channel": 0
      },
      {
        "type": "note_on",
        "time": 0,
        "note": 62,
        "velocity": 0,
        "channel": 0
      },
      {
        "type": "note_on",
        "time": 0,
        "note": 47,
        "velocity": 0,
        "channel": 0
      },
      {
        "type": "note_on",
        "time": 1,
        "note": 59,
        "velocity": 60,
        "channel": 0
      },
      {
        "type": "note_on",
        "time": 0,
        "note": 62,
        "velocity": 60,
        "channel": 0
      },
      {
        "type": "note_on",
        "time": 0,
        "note": 47,
        "velocity": 60,
        "channel": 0
      },
      {
        "type": "note_on",
        "time": 0,
        "note": 67,
        "velocity": 60,
        "channel": 0
      },
      {
        "type": "note_on",
        "time": 0,
        "note": 43,
        "velocity": 60,
        "channel": 0
      },
      {
        "type": "note_on",
        "time": 0,
        "note": 55,
        "velocity": 60,
        "channel": 0
      },
      {
        "type": "note_on",
        "time": 59,
        "note": 59,
        "velocity": 0,
        "channel": 0
      },
      {
        "type": "note_on",
        "time": 0,
        "note": 62,
        "velocity": 0,
        "channel": 0
      },
      {
        "type": "note_on",
        "time": 0,
        "note": 47,
        "velocity": 0,
        "channel": 0
      },
      {
        "type": "note_on",
        "time": 0,
        "note": 67,
        "velocity": 0,
        "channel": 0
      },
      {
        "type": "note_on",
        "time": 0,
        "note": 43,
        "velocity": 0,
        "channel": 0
      },
      {
        "type": "note_on",
        "time": 0,
        "note": 55,
        "velocity": 0,
        "channel": 0
      },
      {
        "type": "note_on",
        "time": 1,
        "note": 47,
        "velocity": 60,
        "channel": 0
      },
      {
        "type": "note_on",
        "time": 0,
        "note": 43,
        "velocity": 60,
        "channel": 0
      },
      {
        "type": "note_on",
        "time": 0,
        "note": 59,
        "velocity": 60,
        "channel": 0
      },
      {
        "type": "note_on",
        "time": 0,
        "note": 67,
        "velocity": 60,
        "channel": 0
      },
      {
        "type": "note_on",
        "time": 0,
        "note": 55,
        "velocity": 60,
        "channel": 0
      },
      {
        "type": "note_on",
        "time": 0,
        "note": 62,
        "velocity": 60,
        "channel": 0
      },
      {
        "type": "note_on",
        "time": 59,
        "note": 47,
        "velocity": 0,
        "channel": 0
      },
      {
        "type": "note_on",
        "time": 0,
        "note": 43,
        "velocity": 0,
        "channel": 0
      },
      {
        "type": "note_on",
        "time": 0,
        "note": 59,
        "velocity": 0,
        "channel": 0
      },
      {
        "type": "note_on",
        "time": 0,
        "note": 67,
        "velocity": 0,
        "channel": 0
      },
      {
        "type": "note_on",
        "time": 0,
        "note": 55,
        "velocity": 0,
        "channel": 0
      },
      {
        "type": "note_on",
        "time": 0,
        "note": 62,
        "velocity": 0,
        "channel": 0
      },
      {
        "type": "note_on",
        "time": 1,
        "note": 66,
        "velocity": 60,
        "channel": 0
      },
      {
        "type": "note_on",
        "time": 0,
        "note": 62,
        "velocity": 60,
        "channel": 0
      },
      {
        "type": "note_on",
        "time": 0,
        "note": 57,
        "velocity": 60,
        "channel": 0
      },
      {
        "type": "note_on",
        "time": 0,
        "note": 45,
        "velocity": 60,
        "channel": 0
      },
      {
        "type": "note_on",
        "time": 0,
        "note": 50,
        "velocity": 60,
        "channel": 0
      },
      {
        "type": "note_on",
        "time": 0,
        "note": 69,
        "velocity": 60,
        "channel": 0
      },
      {
        "type": "note_on",
        "time": 29,
        "note": 66,
        "velocity": 0,
        "channel": 0
      },
      {
        "type": "note_on",
        "time": 0,
        "note": 62,
        "velocity": 0,
        "channel": 0
      },
      {
        "type": "note_on",
        "time": 0,
        "note": 57,
        "velocity": 0,
        "channel": 0
      },
      {
        "type": "note_on",
        "time": 0,
        "note": 45,
        "velocity": 0,
        "channel": 0
      },
      {
        "type": "note_on",
        "time": 0,
        "note": 50,
        "velocity": 0,
        "channel": 0
      },
      {
        "type": "note_on",
        "time": 0,
        "note": 69,
        "velocity": 0,
        "channel": 0
      },
      {
        "type": "note_on",
        "time": 1,
        "note": 62,
        "velocity": 60,
        "channel": 0
      },
      {
        "type": "note_on",
        "time": 0,
        "note": 45,
        "velocity": 60,
        "channel": 0
      },
      {
        "type": "note_on",
        "time": 0,
        "note": 50,
        "velocity": 60,
        "channel": 0
      },
      {
        "type": "note_on",
        "time": 0,
        "note": 66,
        "velocity": 60,
        "channel": 0
      },
      {
        "type": "note_on",
        "time": 0,
        "note": 57,
        "velocity": 60,
        "channel": 0
      },
      {
        "type": "note_on",
        "time": 0,
        "note": 69,
        "velocity": 60,
        "channel": 0
      },
      {
        "type": "note_on",
        "time": 59,
        "note": 62,
        "velocity": 0,
        "channel": 0
      },
      {
        "type": "note_on",
        "time": 0,
        "note": 45,
        "velocity": 0,
        "channel": 0
      },
      {
        "type": "note_on",
        "time": 0,
        "note": 50,
        "velocity": 0,
        "channel": 0
      },
      {
        "type": "note_on",
        "time": 0,
        "note": 66,
        "velocity": 0,
        "channel": 0
      },
      {
        "type": "note_on",
        "time": 0,
        "note": 57,
        "velocity": 0,
        "channel": 0
      },
      {
        "type": "note_on",
        "time": 0,
        "note": 69,
        "velocity": 0,
        "channel": 0
      },
      {
        "type": "note_on",
        "time": 1,
        "note": 69,
        "velocity": 60,
        "channel": 0
      },
      {
        "type": "note_on",
        "time": 0,
        "note": 62,
        "velocity": 60,
        "channel": 0
      },
      {
        "type": "note_on",
        "time": 0,
        "note": 50,
        "velocity": 60,
        "channel": 0
      },
      {
        "type": "note_on",
        "time": 0,
        "note": 57,
        "velocity": 60,
        "channel": 0
      },
      {
        "type": "note_on",
        "time": 0,
        "note": 45,
        "velocity": 60,
        "channel": 0
      },
      {
        "type": "note_on",
        "time": 0,
        "note": 66,
        "velocity": 60,
        "channel": 0
      },
      {
        "type": "note_on",
        "time": 29,
        "note": 69,
        "velocity": 0,
        "channel": 0
      },
      {
        "type": "note_on",
        "time": 0,
        "note": 62,
        "velocity": 0,
        "channel": 0
      },
      {
        "type": "note_on",
        "time": 0,
        "note": 50,
        "velocity": 0,
        "channel": 0
      },
      {
        "type": "note_on",
        "time": 0,
        "note": 57,
        "velocity": 0,
        "channel": 0
      },
      {
        "type": "note_on",
        "time": 0,
        "note": 45,
        "velocity": 0,
        "channel": 0
      },
      {
        "type": "note_on",
        "time": 0,
        "note": 66,
        "velocity": 0,
        "channel": 0
      },
      {
        "type": "note_on",
        "time": 1,
        "note": 45,
        "velocity": 60,
        "channel": 0
      },
      {
        "type": "note_on",
        "time": 0,
        "note": 66,
        "velocity": 60,
        "channel": 0
      },
      {
        "type": "note_on",
        "time": 0,
        "note": 57,
        "velocity": 60,
        "channel": 0
      },
      {
        "type": "note_on",
        "time": 0,
        "note": 50,
        "velocity": 60,
        "channel": 0
      },
      {
        "type": "note_on",
        "time": 0,
        "note": 62,
        "velocity": 60,
        "channel": 0
      },
      {
        "type": "note_on",
        "time": 0,
        "note": 69,
        "velocity": 60,
        "channel": 0
      },
      {
        "type": "note_on",
        "time": 59,
        "note": 45,
        "velocity": 0,
        "channel": 0
      },
      {
        "type": "note_on",
        "time": 0,
        "note": 66,
        "velocity": 0,
        "channel": 0
      },
      {
        "type": "note_on",
        "time": 0,
        "note": 57,
        "velocity": 0,
        "channel": 0
      },
      {
        "type": "note_on",
        "time": 0,
        "note": 50,
        "velocity": 0,
        "channel": 0
      },
      {
        "type": "note_on",
        "time": 0,
        "note": 62,
        "velocity": 0,
        "channel": 0
      },
      {
        "type": "note_on",
        "time": 0,
        "note": 69,
        "velocity": 0,
        "channel": 0
      },
      {
        "type": "note_on",
        "time": 1,
        "note": 45,
        "velocity": 60,
        "channel": 0
      },
      {
        "type": "note_on",
        "time": 0,
        "note": 57,
        "velocity": 60,
        "channel": 0
      },
      {
        "type": "note_on",
        "time": 0,
        "note": 62,
        "velocity": 60,
        "channel": 0
      },
      {
        "type": "note_on",
        "time": 0,
        "note": 50,
        "velocity": 60,
        "channel": 0
      },
      {
        "type": "note_on",
        "time": 0,
        "note": 69,
        "velocity": 60,
        "channel": 0
      },
      {
        "type": "note_on",
        "time": 0,
        "note": 66,
        "velocity": 60,
        "channel": 0
      },
      {
        "type": "note_on",
        "time": 29,
        "note": 45,
        "velocity": 0,
        "channel": 0
      },
      {
        "type": "note_on",
        "time": 0,
        "note": 57,
        "velocity": 0,
        "channel": 0
      },
      {
        "type": "note_on",
        "time": 0,
        "note": 62,
        "velocity": 0,
        "channel": 0
      },
      {
        "type": "note_on",
        "time": 0,
        "note": 50,
        "velocity": 0,
        "channel": 0
      },
      {
        "type": "note_on",
        "time": 0,
        "note": 69,
        "velocity": 0,
        "channel": 0
      },
      {
        "type": "note_on",
        "time": 0,
        "note": 66,
        "velocity": 0,
        "channel": 0
      },
      {
        "type": "note_on",
        "time": 1,
        "note": 69,
        "velocity": 60,
        "channel": 0
      },
      {
        "type": "note_on",
        "time": 0,
        "note": 66,
        "velocity": 60,
        "channel": 0
      },
      {
        "type": "note_on",
        "time": 0,
        "note": 62,
        "velocity": 60,
        "channel": 0
      },
      {
        "type": "note_on",
        "time": 0,
        "note": 50,
        "velocity": 60,
        "channel": 0
      },
      {
        "type": "note_on",
        "time": 0,
        "note": 45,
        "velocity": 60,
        "channel": 0
      },
      {
        "type": "note_on",
        "time": 0,
        "note": 57,
        "velocity": 60,
        "channel": 0
      },
      {
        "type": "note_on",
        "time": 59,
        "note": 69,
        "velocity": 0,
        "channel": 0
      },
      {
        "type": "note_on",
        "time": 0,
        "note": 66,
        "velocity": 0,
        "channel": 0
      },
      {
        "type": "note_on",
        "time": 0,
        "note": 62,
        "velocity": 0,
        "channel": 0
      },
      {
        "type": "note_on",
        "time": 0,
        "note": 50,
        "velocity": 0,
        "channel": 0
      },
      {
        "type": "note_on",
        "time": 0,
        "note": 45,
        "velocity": 0,
        "channel": 0
      },
      {
        "type": "note_on",
        "time": 0,
        "note": 57,
        "velocity": 0,
        "channel": 0
      },
      {
        "type": "note_on",
        "time": 1,
        "note": 57,
        "velocity": 60,
        "channel": 0
      },
      {
        "type": "note_on",
        "time": 0,
        "note": 50,
        "velocity": 60,
        "channel": 0
      },
      {
        "type": "note_on",
        "time": 0,
        "note": 66,
        "velocity": 60,
        "channel": 0
      },
      {
        "type": "note_on",
        "time": 0,
        "note": 69,
        "velocity": 60,
        "channel": 0
      },
      {
        "type": "note_on",
        "time": 0,
        "note": 45,
        "velocity": 60,
        "channel": 0
      },
      {
        "type": "note_on",
        "time": 0,
        "note": 62,
        "velocity": 60,
        "channel": 0
      },
      {
        "type": "note_on",
        "time": 29,
        "note": 57,
        "velocity": 0,
        "channel": 0
      },
      {
        "type": "note_on",
        "time": 0,
        "note": 50,
        "velocity": 0,
        "channel": 0
      },
      {
        "type": "note_on",
        "time": 0,
        "note": 66,
        "velocity": 0,
        "channel": 0
      },
      {
        "type": "note_on",
        "time": 0,
        "note": 69,
        "velocity": 0,
        "channel": 0
      },
      {
        "type": "note_on",
        "time": 0,
        "note": 45,
        "velocity": 0,
        "channel": 0
      },
      {
        "type": "note_on",
        "time": 0,
        "note": 62,
        "velocity": 0,
        "channel": 0
      },
      {
        "type": "note_on",
        "time": 1,
        "note": 62,
        "velocity": 60,
        "channel": 0
      },
      {
        "type": "note_on",
        "time": 0,
        "note": 50,
        "velocity": 60,
        "channel": 0
      },
      {
        "type": "note_on",
        "time": 0,
        "note": 66,
        "velocity": 60,
        "channel": 0
      },
      {
        "type": "note_on",
        "time": 0,
        "note": 57,
        "velocity": 60,
        "channel": 0
      },
      {
        "type": "note_on",
        "time": 0,
        "note": 45,
        "velocity": 60,
        "channel": 0
      },
      {
        "type": "note_on",
        "time": 0,
        "note": 69,
        "velocity": 60,
        "channel": 0
      },
      {
        "type": "note_on",
        "time": 59,
        "note": 62,
        "velocity": 0,
        "channel": 0
      },
      {
        "type": "note_on",
        "time": 0,
        "note": 50,
        "velocity": 0,
        "channel": 0
      },
      {
        "type": "note_on",
        "time": 0,
        "note": 66,
        "velocity": 0,
        "channel": 0
      },
      {
        "type": "note_on",
        "time": 0,
        "note": 57,
        "velocity": 0,
        "channel": 0
      },
      {
        "type": "note_on",
        "time": 0,
        "note": 45,
        "velocity": 0,
        "channel": 0
      },
      {
        "type": "note_on",
        "time": 0,
        "note": 69,
        "velocity": 0,
        "channel": 0
      },
      {
        "type": "note_on",
        "time": 1,
        "note": 62,
        "velocity": 60,
        "channel": 0
      },
      {
        "type": "note_on",
        "time": 0,
        "note": 69,
        "velocity": 60,
        "channel": 0
      },
      {
        "type": "note_on",
        "time": 0,
        "note": 66,
        "velocity": 60,
        "channel": 0
      },
      {
        "type": "note_on",
        "time": 0,
        "note": 50,
        "velocity": 60,
        "channel": 0
      },
      {
        "type": "note_on",
        "time": 0,
        "note": 45,
        "velocity": 60,
        "channel": 0
      },
      {
        "type": "note_on",
        "time": 0,
        "note": 57,
        "velocity": 60,
        "channel": 0
      },
      {
        "type": "note_on",
        "time": 59,
        "note": 62,
        "velocity": 0,
        "channel": 0
      },
      {
        "type": "note_on",
        "time": 0,
        "note": 69,
        "velocity": 0,
        "channel": 0
      },
      {
        "type": "note_on",
        "time": 0,
        "note": 66,
        "velocity": 0,
        "channel": 0
      },
      {
        "type": "note_on",
        "time": 0,
        "note": 50,
        "velocity": 0,
        "channel": 0
      },
      {
        "type": "note_on",
        "time": 0,
        "note": 45,
        "velocity": 0,
        "channel": 0
      },
      {
        "type": "note_on",
        "time": 0,
        "note": 57,
        "velocity": 0,
        "channel": 0
      },
      {
        "type": "note_on",
        "time": 1,
        "note": 69,
        "velocity": 60,
        "channel": 0
      },
      {
        "type": "note_on",
        "time": 0,
        "note": 50,
        "velocity": 60,
        "channel": 0
      },
      {
        "type": "note_on",
        "time": 0,
        "note": 45,
        "velocity": 60,
        "channel": 0
      },
      {
        "type": "note_on",
        "time": 0,
        "note": 62,
        "velocity": 60,
        "channel": 0
      },
      {
        "type": "note_on",
        "time": 0,
        "note": 57,
        "velocity": 60,
        "channel": 0
      },
      {
        "type": "note_on",
        "time": 0,
        "note": 66,
        "velocity": 60,
        "channel": 0
      },
      {
        "type": "note_on",
        "time": 59,
        "note": 69,
        "velocity": 0,
        "channel": 0
      },
      {
        "type": "note_on",
        "time": 0,
        "note": 50,
        "velocity": 0,
        "channel": 0
      },
      {
        "type": "note_on",
        "time": 0,
        "note": 45,
        "velocity": 0,
        "channel": 0
      },
      {
        "type": "note_on",
        "time": 0,
        "note": 62,
        "velocity": 0,
        "channel": 0
      },
      {
        "type": "note_on",
        "time": 0,
        "note": 57,
        "velocity": 0,
        "channel": 0
      },
      {
        "type": "note_on",
        "time": 0,
        "note": 66,
        "velocity": 0,
        "channel": 0
      },
      {
        "type": "note_on",
        "time": 1,
        "note": 59,
        "velocity": 60,
        "channel": 0
      },
      {
        "type": "note_on",
        "time": 0,
        "note": 55,
        "velocity": 60,
        "channel": 0
      },
      {
        "type": "note_on",
        "time": 0,
        "note": 40,
        "velocity": 60,
        "channel": 0
      },
      {
        "type": "note_on",
        "time": 0,
        "note": 45,
        "velocity": 60,
        "channel": 0
      },
      {
        "type": "note_on",
        "time": 0,
        "note": 64,
        "velocity": 60,
        "channel": 0
      },
      {
        "type": "note_on",
        "time": 0,
        "note": 52,
        "velocity": 60,
        "channel": 0
      },
      {
        "type": "note_on",
        "time": 29,
        "note": 59,
        "velocity": 0,
        "channel": 0
      },
      {
        "type": "note_on",
        "time": 0,
        "note": 55,
        "velocity": 0,
        "channel": 0
      },
      {
        "type": "note_on",
        "time": 0,
        "note": 40,
        "velocity": 0,
        "channel": 0
      },
      {
        "type": "note_on",
        "time": 0,
        "note": 45,
        "velocity": 0,
        "channel": 0
      },
      {
        "type": "note_on",
        "time": 0,
        "note": 64,
        "velocity": 0,
        "channel": 0
      },
      {
        "type": "note_on",
        "time": 0,
        "note": 52,
        "velocity": 0,
        "channel": 0
      },
      {
        "type": "note_on",
        "time": 1,
        "note": 55,
        "velocity": 60,
        "channel": 0
      },
      {
        "type": "note_on",
        "time": 0,
        "note": 40,
        "velocity": 60,
        "channel": 0
      },
      {
        "type": "note_on",
        "time": 0,
        "note": 59,
        "velocity": 60,
        "channel": 0
      },
      {
        "type": "note_on",
        "time": 0,
        "note": 52,
        "velocity": 60,
        "channel": 0
      },
      {
        "type": "note_on",
        "time": 0,
        "note": 45,
        "velocity": 60,
        "channel": 0
      },
      {
        "type": "note_on",
        "time": 0,
        "note": 64,
        "velocity": 60,
        "channel": 0
      },
      {
        "type": "note_on",
        "time": 59,
        "note": 55,
        "velocity": 0,
        "channel": 0
      },
      {
        "type": "note_on",
        "time": 0,
        "note": 40,
        "velocity": 0,
        "channel": 0
      },
      {
        "type": "note_on",
        "time": 0,
        "note": 59,
        "velocity": 0,
        "channel": 0
      },
      {
        "type": "note_on",
        "time": 0,
        "note": 52,
        "velocity": 0,
        "channel": 0
      },
      {
        "type": "note_on",
        "time": 0,
        "note": 45,
        "velocity": 0,
        "channel": 0
      },
      {
        "type": "note_on",
        "time": 0,
        "note": 64,
        "velocity": 0,
        "channel": 0
      },
      {
        "type": "note_on",
        "time": 1,
        "note": 45,
        "velocity": 60,
        "channel": 0
      },
      {
        "type": "note_on",
        "time": 0,
        "note": 40,
        "velocity": 60,
        "channel": 0
      },
      {
        "type": "note_on",
        "time": 0,
        "note": 52,
        "velocity": 60,
        "channel": 0
      },
      {
        "type": "note_on",
        "time": 0,
        "note": 55,
        "velocity": 60,
        "channel": 0
      },
      {
        "type": "note_on",
        "time": 0,
        "note": 64,
        "velocity": 60,
        "channel": 0
      },
      {
        "type": "note_on",
        "time": 0,
        "note": 59,
        "velocity": 60,
        "channel": 0
      },
      {
        "type": "note_on",
        "time": 29,
        "note": 45,
        "velocity": 0,
        "channel": 0
      },
      {
        "type": "note_on",
        "time": 0,
        "note": 40,
        "velocity": 0,
        "channel": 0
      },
      {
        "type": "note_on",
        "time": 0,
        "note": 52,
        "velocity": 0,
        "channel": 0
      },
      {
        "type": "note_on",
        "time": 0,
        "note": 55,
        "velocity": 0,
        "channel": 0
      },
      {
        "type": "note_on",
        "time": 0,
        "note": 64,
        "velocity": 0,
        "channel": 0
      },
      {
        "type": "note_on",
        "time": 0,
        "note": 59,
        "velocity": 0,
        "channel": 0
      },
      {
        "type": "note_on",
        "time": 1,
        "note": 55,
        "velocity": 60,
        "channel": 0
      },
      {
        "type": "note_on",
        "time": 0,
        "note": 45,
        "velocity": 60,
        "channel": 0
      },
      {
        "type": "note_on",
        "time": 0,
        "note": 64,
        "velocity": 60,
        "channel": 0
      },
      {
        "type": "note_on",
        "time": 0,
        "note": 52,
        "velocity": 60,
        "channel": 0
      },
      {
        "type": "note_on",
        "time": 0,
        "note": 40,
        "velocity": 60,
        "channel": 0
      },
      {
        "type": "note_on",
        "time": 0,
        "note": 59,
        "velocity": 60,
        "channel": 0
      },
      {
        "type": "note_on",
        "time": 59,
        "note": 55,
        "velocity": 0,
        "channel": 0
      },
      {
        "type": "note_on",
        "time": 0,
        "note": 45,
        "velocity": 0,
        "channel": 0
      },
      {
        "type": "note_on",
        "time": 0,
        "note": 64,
        "velocity": 0,
        "channel": 0
      },
      {
        "type": "note_on",
        "time": 0,
        "note": 52,
        "velocity": 0,
        "channel": 0
      },
      {
        "type": "note_on",
        "time": 0,
        "note": 40,
        "velocity": 0,
        "channel": 0
      },
      {
        "type": "note_on",
        "time": 0,
        "note": 59,
        "velocity": 0,
        "channel": 0
      },
      {
        "type": "note_on",
        "time": 1,
        "note": 40,
        "velocity": 60,
        "channel": 0
      },
      {
        "type": "note_on",
        "time": 0,
        "note": 55,
        "velocity": 60,
        "channel": 0
      },
      {
        "type": "note_on",
        "time": 0,
        "note": 64,
        "velocity": 60,
        "channel": 0
      },
      {
        "type": "note_on",
        "time": 0,
        "note": 52,
        "velocity": 60,
        "channel": 0
      },
      {
        "type": "note_on",
        "time": 0,
        "note": 59,
        "velocity": 60,
        "channel": 0
      },
      {
        "type": "note_on",
        "time": 0,
        "note": 45,
        "velocity": 60,
        "channel": 0
      },
      {
        "type": "note_on",
        "time": 29,
        "note": 40,
        "velocity": 0,
        "channel": 0
      },
      {
        "type": "note_on",
        "time": 0,
        "note": 55,
        "velocity": 0,
        "channel": 0
      },
      {
        "type": "note_on",
        "time": 0,
        "note": 64,
        "velocity": 0,
        "channel": 0
      },
      {
        "type": "note_on",
        "time": 0,
        "note": 52,
        "velocity": 0,
        "channel": 0
      },
      {
        "type": "note_on",
        "time": 0,
        "note": 59,
        "velocity": 0,
        "channel": 0
      },
      {
        "type": "note_on",
        "time": 0,
        "note": 45,
        "velocity": 0,
        "channel": 0
      },
      {
        "type": "note_on",
        "time": 1,
        "note": 59,
        "velocity": 60,
        "channel": 0
      },
      {
        "type": "note_on",
        "time": 0,
        "note": 45,
        "velocity": 60,
        "channel": 0
      },
      {
        "type": "note_on",
        "time": 0,
        "note": 64,
        "velocity": 60,
        "channel": 0
      },
      {
        "type": "note_on",
        "time": 0,
        "note": 40,
        "velocity": 60,
        "channel": 0
      },
      {
        "type": "note_on",
        "time": 0,
        "note": 55,
        "velocity": 60,
        "channel": 0
      },
      {
        "type": "note_on",
        "time": 0,
        "note": 52,
        "velocity": 60,
        "channel": 0
      },
      {
        "type": "note_on",
        "time": 59,
        "note": 59,
        "velocity": 0,
        "channel": 0
      },
      {
        "type": "note_on",
        "time": 0,
        "note": 45,
        "velocity": 0,
        "channel": 0
      },
      {
        "type": "note_on",
        "time": 0,
        "note": 64,
        "velocity": 0,
        "channel": 0
      },
      {
        "type": "note_on",
        "time": 0,
        "note": 40,
        "velocity": 0,
        "channel": 0
      },
      {
        "type": "note_on",
        "time": 0,
        "note": 55,
        "velocity": 0,
        "channel": 0
      },
      {
        "type": "note_on",
        "time": 0,
        "note": 52,
        "velocity": 0,
        "channel": 0
      },
      {
        "type": "note_on",
        "time": 1,
        "note": 64,
        "velocity": 60,
        "channel": 0
      },
      {
        "type": "note_on",
        "time": 0,
        "note": 55,
        "velocity": 60,
        "channel": 0
      },
      {
        "type": "note_on",
        "time": 0,
        "note": 40,
        "velocity": 60,
        "channel": 0
      },
      {
        "type": "note_on",
        "time": 0,
        "note": 59,
        "velocity": 60,
        "channel": 0
      },
      {
        "type": "note_on",
        "time": 0,
        "note": 52,
        "velocity": 60,
        "channel": 0
      },
      {
        "type": "note_on",
        "time": 0,
        "note": 45,
        "velocity": 60,
        "channel": 0
      },
      {
        "type": "note_on",
        "time": 29,
        "note": 64,
        "velocity": 0,
        "channel": 0
      },
      {
        "type": "note_on",
        "time": 0,
        "note": 55,
        "velocity": 0,
        "channel": 0
      },
      {
        "type": "note_on",
        "time": 0,
        "note": 40,
        "velocity": 0,
        "channel": 0
      },
      {
        "type": "note_on",
        "time": 0,
        "note": 59,
        "velocity": 0,
        "channel": 0
      },
      {
        "type": "note_on",
        "time": 0,
        "note": 52,
        "velocity": 0,
        "channel": 0
      },
      {
        "type": "note_on",
        "time": 0,
        "note": 45,
        "velocity": 0,
        "channel": 0
      },
      {
        "type": "note_on",
        "time": 1,
        "note": 55,
        "velocity": 60,
        "channel": 0
      },
      {
        "type": "note_on",
        "time": 0,
        "note": 40,
        "velocity": 60,
        "channel": 0
      },
      {
        "type": "note_on",
        "time": 0,
        "note": 52,
        "velocity": 60,
        "channel": 0
      },
      {
        "type": "note_on",
        "time": 0,
        "note": 64,
        "velocity": 60,
        "channel": 0
      },
      {
        "type": "note_on",
        "time": 0,
        "note": 59,
        "velocity": 60,
        "channel": 0
      },
      {
        "type": "note_on",
        "time": 0,
        "note": 45,
        "velocity": 60,
        "channel": 0
      },
      {
        "type": "note_on",
        "time": 59,
        "note": 55,
        "velocity": 0,
        "channel": 0
      },
      {
        "type": "note_on",
        "time": 0,
        "note": 40,
        "velocity": 0,
        "channel": 0
      },
      {
        "type": "note_on",
        "time": 0,
        "note": 52,
        "velocity": 0,
        "channel": 0
      },
      {
        "type": "note_on",
        "time": 0,
        "note": 64,
        "velocity": 0,
        "channel": 0
      },
      {
        "type": "note_on",
        "time": 0,
        "note": 59,
        "velocity": 0,
        "channel": 0
      },
      {
        "type": "note_on",
        "time": 0,
        "note": 45,
        "velocity": 0,
        "channel": 0
      },
      {
        "type": "note_on",
        "time": 1,
        "note": 55,
        "velocity": 60,
        "channel": 0
      },
      {
        "type": "note_on",
        "time": 0,
        "note": 59,
        "velocity": 60,
        "channel": 0
      },
      {
        "type": "note_on",
        "time": 0,
        "note": 45,
        "velocity": 60,
        "channel": 0
      },
      {
        "type": "note_on",
        "time": 0,
        "note": 64,
        "velocity": 60,
        "channel": 0
      },
      {
        "type": "note_on",
        "time": 0,
        "note": 40,
        "velocity": 60,
        "channel": 0
      },
      {
        "type": "note_on",
        "time": 0,
        "note": 52,
        "velocity": 60,
        "channel": 0
      },
      {
        "type": "note_on",
        "time": 59,
        "note": 55,
        "velocity": 0,
        "channel": 0
      },
      {
        "type": "note_on",
        "time": 0,
        "note": 59,
        "velocity": 0,
        "channel": 0
      },
      {
        "type": "note_on",
        "time": 0,
        "note": 45,
        "velocity": 0,
        "channel": 0
      },
      {
        "type": "note_on",
        "time": 0,
        "note": 64,
        "velocity": 0,
        "channel": 0
      },
      {
        "type": "note_on",
        "time": 0,
        "note": 40,
        "velocity": 0,
        "channel": 0
      },
      {
        "type": "note_on",
        "time": 0,
        "note": 52,
        "velocity": 0,
        "channel": 0
      },
      {
        "type": "note_on",
        "time": 1,
        "note": 45,
        "velocity": 60,
        "channel": 0
      },
      {
        "type": "note_on",
        "time": 0,
        "note": 40,
        "velocity": 60,
        "channel": 0
      },
      {
        "type": "note_on",
        "time": 0,
        "note": 55,
        "velocity": 60,
        "channel": 0
      },
      {
        "type": "note_on",
        "time": 0,
        "note": 64,
        "velocity": 60,
        "channel": 0
      },
      {
        "type": "note_on",
        "time": 0,
        "note": 52,
        "velocity": 60,
        "channel": 0
      },
      {
        "type": "note_on",
        "time": 0,
        "note": 59,
        "velocity": 60,
        "channel": 0
      },
      {
        "type": "note_on",
        "time": 59,
        "note": 45,
        "velocity": 0,
        "channel": 0
      },
      {
        "type": "note_on",
        "time": 0,
        "note": 40,
        "velocity": 0,
        "channel": 0
      },
      {
        "type": "note_on",
        "time": 0,
        "note": 55,
        "velocity": 0,
        "channel": 0
      },
      {
        "type": "note_on",
        "time": 0,
        "note": 64,
        "velocity": 0,
        "channel": 0
      },
      {
        "type": "note_on",
        "time": 0,
        "note": 52,
        "velocity": 0,
        "channel": 0
      },
      {
        "type": "note_on",
        "time": 0,
        "note": 59,
        "velocity": 0,
        "channel": 0
      },
      {
        "type": "note_on",
        "time": 1,
        "note": 61,
        "velocity": 60,
        "channel": 0
      },
      {
        "type": "note_on",
        "time": 0,
        "note": 58,
        "velocity": 60,
        "channel": 0
      },
      {
        "type": "note_on",
        "time": 0,
        "note": 54,
        "velocity": 60,
        "channel": 0
      },
      {
        "type": "note_on",
        "time": 0,
        "note": 42,
        "velocity": 60,
        "channel": 0
      },
      {
        "type": "note_on",
        "time": 0,
        "note": 49,
        "velocity": 60,
        "channel": 0
      },
      {
        "type": "note_on",
        "time": 0,
        "note": 66,
        "velocity": 60,
        "channel": 0
      },
      {
        "type": "note_on",
        "time": 29,
        "note": 61,
        "velocity": 0,
        "channel": 0
      },
      {
        "type": "note_on",
        "time": 0,
        "note": 58,
        "velocity": 0,
        "channel": 0
      },
      {
        "type": "note_on",
        "time": 0,
        "note": 54,
        "velocity": 0,
        "channel": 0
      },
      {
        "type": "note_on",
        "time": 0,
        "note": 42,
        "velocity": 0,
        "channel": 0
      },
      {
        "type": "note_on",
        "time": 0,
        "note": 49,
        "velocity": 0,
        "channel": 0
      },
      {
        "type": "note_on",
        "time": 0,
        "note": 66,
        "velocity": 0,
        "channel": 0
      },
      {
        "type": "note_on",
        "time": 1,
        "note": 58,
        "velocity": 60,
        "channel": 0
      },
      {
        "type": "note_on",
        "time": 0,
        "note": 42,
        "velocity": 60,
        "channel": 0
      },
      {
        "type": "note_on",
        "time": 0,
        "note": 49,
        "velocity": 60,
        "channel": 0
      },
      {
        "type": "note_on",
        "time": 0,
        "note": 61,
        "velocity": 60,
        "channel": 0
      },
      {
        "type": "note_on",
        "time": 0,
        "note": 54,
        "velocity": 60,
        "channel": 0
      },
      {
        "type": "note_on",
        "time": 0,
        "note": 66,
        "velocity": 60,
        "channel": 0
      },
      {
        "type": "note_on",
        "time": 59,
        "note": 58,
        "velocity": 0,
        "channel": 0
      },
      {
        "type": "note_on",
        "time": 0,
        "note": 42,
        "velocity": 0,
        "channel": 0
      },
      {
        "type": "note_on",
        "time": 0,
        "note": 49,
        "velocity": 0,
        "channel": 0
      },
      {
        "type": "note_on",
        "time": 0,
        "note": 61,
        "velocity": 0,
        "channel": 0
      },
      {
        "type": "note_on",
        "time": 0,
        "note": 54,
        "velocity": 0,
        "channel": 0
      },
      {
        "type": "note_on",
        "time": 0,
        "note": 66,
        "velocity": 0,
        "channel": 0
      },
      {
        "type": "note_on",
        "time": 1,
        "note": 66,
        "velocity": 60,
        "channel": 0
      },
      {
        "type": "note_on",
        "time": 0,
        "note": 58,
        "velocity": 60,
        "channel": 0
      },
      {
        "type": "note_on",
        "time": 0,
        "note": 49,
        "velocity": 60,
        "channel": 0
      },
      {
        "type": "note_on",
        "time": 0,
        "note": 54,
        "velocity": 60,
        "channel": 0
      },
      {
        "type": "note_on",
        "time": 0,
        "note": 42,
        "velocity": 60,
        "channel": 0
      },
      {
        "type": "note_on",
        "time": 0,
        "note": 61,
        "velocity": 60,
        "channel": 0
      },
      {
        "type": "note_on",
        "time": 29,
        "note": 66,
        "velocity": 0,
        "channel": 0
      },
      {
        "type": "note_on",
        "time": 0,
        "note": 58,
        "velocity": 0,
        "channel": 0
      },
      {
        "type": "note_on",
        "time": 0,
        "note": 49,
        "velocity": 0,
        "channel": 0
      },
      {
        "type": "note_on",
        "time": 0,
        "note": 54,
        "velocity": 0,
        "channel": 0
      },
      {
        "type": "note_on",
        "time": 0,
        "note": 42,
        "velocity": 0,
        "channel": 0
      },
      {
        "type": "note_on",
        "time": 0,
        "note": 61,
        "velocity": 0,
        "channel": 0
      },
      {
        "type": "note_on",
        "time": 1,
        "note": 42,
        "velocity": 60,
        "channel": 0
      },
      {
        "type": "note_on",
        "time": 0,
        "note": 61,
        "velocity": 60,
        "channel": 0
      },
      {
        "type": "note_on",
        "time": 0,
        "note": 54,
        "velocity": 60,
        "channel": 0
      },
      {
        "type": "note_on",
        "time": 0,
        "note": 49,
        "velocity": 60,
        "channel": 0
      },
      {
        "type": "note_on",
        "time": 0,
        "note": 58,
        "velocity": 60,
        "channel": 0
      },
      {
        "type": "note_on",
        "time": 0,
        "note": 66,
        "velocity": 60,
        "channel": 0
      },
      {
        "type": "note_on",
        "time": 59,
        "note": 42,
        "velocity": 0,
        "channel": 0
      },
      {
        "type": "note_on",
        "time": 0,
        "note": 61,
        "velocity": 0,
        "channel": 0
      },
      {
        "type": "note_on",
        "time": 0,
        "note": 54,
        "velocity": 0,
        "channel": 0
      },
      {
        "type": "note_on",
        "time": 0,
        "note": 49,
        "velocity": 0,
        "channel": 0
      },
      {
        "type": "note_on",
        "time": 0,
        "note": 58,
        "velocity": 0,
        "channel": 0
      },
      {
        "type": "note_on",
        "time": 0,
        "note": 66,
        "velocity": 0,
        "channel": 0
      },
      {
        "type": "note_on",
        "time": 1,
        "note": 42,
        "velocity": 60,
        "channel": 0
      },
      {
        "type": "note_on",
        "time": 0,
        "note": 54,
        "velocity": 60,
        "channel": 0
      },
      {
        "type": "note_on",
        "time": 0,
        "note": 58,
        "velocity": 60,
        "channel": 0
      },
      {
        "type": "note_on",
        "time": 0,
        "note": 49,
        "velocity": 60,
        "channel": 0
      },
      {
        "type": "note_on",
        "time": 0,
        "note": 66,
        "velocity": 60,
        "channel": 0
      },
      {
        "type": "note_on",
        "time": 0,
        "note": 61,
        "velocity": 60,
        "channel": 0
      },
      {
        "type": "note_on",
        "time": 29,
        "note": 42,
        "velocity": 0,
        "channel": 0
      },
      {
        "type": "note_on",
        "time": 0,
        "note": 54,
        "velocity": 0,
        "channel": 0
      },
      {
        "type": "note_on",
        "time": 0,
        "note": 58,
        "velocity": 0,
        "channel": 0
      },
      {
        "type": "note_on",
        "time": 0,
        "note": 49,
        "velocity": 0,
        "channel": 0
      },
      {
        "type": "note_on",
        "time": 0,
        "note": 66,
        "velocity": 0,
        "channel": 0
      },
      {
        "type": "note_on",
        "time": 0,
        "note": 61,
        "velocity": 0,
        "channel": 0
      },
      {
        "type": "note_on",
        "time": 1,
        "note": 66,
        "velocity": 60,
        "channel": 0
      },
      {
        "type": "note_on",
        "time": 0,
        "note": 61,
        "velocity": 60,
        "channel": 0
      },
      {
        "type": "note_on",
        "time": 0,
        "note": 58,
        "velocity": 60,
        "channel": 0
      },
      {
        "type": "note_on",
        "time": 0,
        "note": 49,
        "velocity": 60,
        "channel": 0
      },
      {
        "type": "note_on",
        "time": 0,
        "note": 42,
        "velocity": 60,
        "channel": 0
      },
      {
        "type": "note_on",
        "time": 0,
        "note": 54,
        "velocity": 60,
        "channel": 0
      },
      {
        "type": "note_on",
        "time": 59,
        "note": 66,
        "velocity": 0,
        "channel": 0
      },
      {
        "type": "note_on",
        "time": 0,
        "note": 61,
        "velocity": 0,
        "channel": 0
      },
      {
        "type": "note_on",
        "time": 0,
        "note": 58,
        "velocity": 0,
        "channel": 0
      },
      {
        "type": "note_on",
        "time": 0,
        "note": 49,
        "velocity": 0,
        "channel": 0
      },
      {
        "type": "note_on",
        "time": 0,
        "note": 42,
        "velocity": 0,
        "channel": 0
      },
      {
        "type": "note_on",
        "time": 0,
        "note": 54,
        "velocity": 0,
        "channel": 0
      },
      {
        "type": "note_on",
        "time": 1,
        "note": 54,
        "velocity": 60,
        "channel": 0
      },
      {
        "type": "note_on",
        "time": 0,
        "note": 49,
        "velocity": 60,
        "channel": 0
      },
      {
        "type": "note_on",
        "time": 0,
        "note": 61,
        "velocity": 60,
        "channel": 0
      },
      {
        "type": "note_on",
        "time": 0,
        "note": 66,
        "velocity": 60,
        "channel": 0
      },
      {
        "type": "note_on",
        "time": 0,
        "note": 42,
        "velocity": 60,
        "channel": 0
      },
      {
        "type": "note_on",
        "time": 0,
        "note": 58,
        "velocity": 60,
        "channel": 0
      },
      {
        "type": "note_on",
        "time": 29,
        "note": 54,
        "velocity": 0,
        "channel": 0
      },
      {
        "type": "note_on",
        "time": 0,
        "note": 49,
        "velocity": 0,
        "channel": 0
      },
      {
        "type": "note_on",
        "time": 0,
        "note": 61,
        "velocity": 0,
        "channel": 0
      },
      {
        "type": "note_on",
        "time": 0,
        "note": 66,
        "velocity": 0,
        "channel": 0
      },
      {
        "type": "note_on",
        "time": 0,
        "note": 42,
        "velocity": 0,
        "channel": 0
      },
      {
        "type": "note_on",
        "time": 0,
        "note": 58,
        "velocity": 0,
        "channel": 0
      },
      {
        "type": "note_on",
        "time": 1,
        "note": 58,
        "velocity": 60,
        "channel": 0
      },
      {
        "type": "note_on",
        "time": 0,
        "note": 49,
        "velocity": 60,
        "channel": 0
      },
      {
        "type": "note_on",
        "time": 0,
        "note": 61,
        "velocity": 60,
        "channel": 0
      },
      {
        "type": "note_on",
        "time": 0,
        "note": 54,
        "velocity": 60,
        "channel": 0
      },
      {
        "type": "note_on",
        "time": 0,
        "note": 42,
        "velocity": 60,
        "channel": 0
      },
      {
        "type": "note_on",
        "time": 0,
        "note": 66,
        "velocity": 60,
        "channel": 0
      },
      {
        "type": "note_on",
        "time": 59,
        "note": 58,
        "velocity": 0,
        "channel": 0
      },
      {
        "type": "note_on",
        "time": 0,
        "note": 49,
        "velocity": 0,
        "channel": 0
      },
      {
        "type": "note_on",
        "time": 0,
        "note": 61,
        "velocity": 0,
        "channel": 0
      },
      {
        "type": "note_on",
        "time": 0,
        "note": 54,
        "velocity": 0,
        "channel": 0
      },
      {
        "type": "note_on",
        "time": 0,
        "note": 42,
        "velocity": 0,
        "channel": 0
      },
      {
        "type": "note_on",
        "time": 0,
        "note": 66,
        "velocity": 0,
        "channel": 0
      },
      {
        "type": "note_on",
        "time": 1,
        "note": 58,
        "velocity": 60,
        "channel": 0
      },
      {
        "type": "note_on",
        "time": 0,
        "note": 66,
        "velocity": 60,
        "channel": 0
      },
      {
        "type": "note_on",
        "time": 0,
        "note": 61,
        "velocity": 60,
        "channel": 0
      },
      {
        "type": "note_on",
        "time": 0,
        "note": 49,
        "velocity": 60,
        "channel": 0
      },
      {
        "type": "note_on",
        "time": 0,
        "note": 42,
        "velocity": 60,
        "channel": 0
      },
      {
        "type": "note_on",
        "time": 0,
        "note": 54,
        "velocity": 60,
        "channel": 0
      },
      {
        "type": "note_on",
        "time": 59,
        "note": 58,
        "velocity": 0,
        "channel": 0
      },
      {
        "type": "note_on",
        "time": 0,
        "note": 66,
        "velocity": 0,
        "channel": 0
      },
      {
        "type": "note_on",
        "time": 0,
        "note": 61,
        "velocity": 0,
        "channel": 0
      },
      {
        "type": "note_on",
        "time": 0,
        "note": 49,
        "velocity": 0,
        "channel": 0
      },
      {
        "type": "note_on",
        "time": 0,
        "note": 42,
        "velocity": 0,
        "channel": 0
      },
      {
        "type": "note_on",
        "time": 0,
        "note": 54,
        "velocity": 0,
        "channel": 0
      },
      {
        "type": "note_on",
        "time": 1,
        "note": 66,
        "velocity": 60,
        "channel": 0
      },
      {
        "type": "note_on",
        "time": 0,
        "note": 49,
        "velocity": 60,
        "channel": 0
      },
      {
        "type": "note_on",
        "time": 0,
        "note": 42,
        "velocity": 60,
        "channel": 0
      },
      {
        "type": "note_on",
        "time": 0,
        "note": 58,
        "velocity": 60,
        "channel": 0
      },
      {
        "type": "note_on",
        "time": 0,
        "note": 54,
        "velocity": 60,
        "channel": 0
      },
      {
        "type": "note_on",
        "time": 0,
        "note": 61,
        "velocity": 60,
        "channel": 0
      },
      {
        "type": "note_on",
        "time": 59,
        "note": 66,
        "velocity": 0,
        "channel": 0
      },
      {
        "type": "note_on",
        "time": 0,
        "note": 49,
        "velocity": 0,
        "channel": 0
      },
      {
        "type": "note_on",
        "time": 0,
        "note": 42,
        "velocity": 0,
        "channel": 0
      },
      {
        "type": "note_on",
        "time": 0,
        "note": 58,
        "velocity": 0,
        "channel": 0
      },
      {
        "type": "note_on",
        "time": 0,
        "note": 54,
        "velocity": 0,
        "channel": 0
      },
      {
        "type": "note_on",
        "time": 0,
        "note": 61,
        "velocity": 0,
        "channel": 0
      },
      {
        "type": "note_on",
        "time": 1,
        "note": 62,
        "velocity": 60,
        "channel": 0
      },
      {
        "type": "note_on",
        "time": 0,
        "note": 59,
        "velocity": 60,
        "channel": 0
      },
      {
        "type": "note_on",
        "time": 0,
        "note": 42,
        "velocity": 60,
        "channel": 0
      },
      {
        "type": "note_on",
        "time": 0,
        "note": 47,
        "velocity": 60,
        "channel": 0
      },
      {
        "type": "note_on",
        "time": 0,
        "note": 66,
        "velocity": 60,
        "channel": 0
      },
      {
        "type": "note_on",
        "time": 0,
        "note": 54,
        "velocity": 60,
        "channel": 0
      },
      {
        "type": "note_on",
        "time": 29,
        "note": 62,
        "velocity": 0,
        "channel": 0
      },
      {
        "type": "note_on",
        "time": 0,
        "note": 59,
        "velocity": 0,
        "channel": 0
      },
      {
        "type": "note_on",
        "time": 0,
        "note": 42,
        "velocity": 0,
        "channel": 0
      },
      {
        "type": "note_on",
        "time": 0,
        "note": 47,
        "velocity": 0,
        "channel": 0
      },
      {
        "type": "note_on",
        "time": 0,
        "note": 66,
        "velocity": 0,
        "channel": 0
      },
      {
        "type": "note_on",
        "time": 0,
        "note": 54,
        "velocity": 0,
        "channel": 0
      },
      {
        "type": "note_on",
        "time": 1,
        "note": 59,
        "velocity": 60,
        "channel": 0
      },
      {
        "type": "note_on",
        "time": 0,
        "note": 42,
        "velocity": 60,
        "channel": 0
      },
      {
        "type": "note_on",
        "time": 0,
        "note": 62,
        "velocity": 60,
        "channel": 0
      },
      {
        "type": "note_on",
        "time": 0,
        "note": 54,
        "velocity": 60,
        "channel": 0
      },
      {
        "type": "note_on",
        "time": 0,
        "note": 47,
        "velocity": 60,
        "channel": 0
      },
      {
        "type": "note_on",
        "time": 0,
        "note": 66,
        "velocity": 60,
        "channel": 0
      },
      {
        "type": "note_on",
        "time": 59,
        "note": 59,
        "velocity": 0,
        "channel": 0
      },
      {
        "type": "note_on",
        "time": 0,
        "note": 42,
        "velocity": 0,
        "channel": 0
      },
      {
        "type": "note_on",
        "time": 0,
        "note": 62,
        "velocity": 0,
        "channel": 0
      },
      {
        "type": "note_on",
        "time": 0,
        "note": 54,
        "velocity": 0,
        "channel": 0
      },
      {
        "type": "note_on",
        "time": 0,
        "note": 47,
        "velocity": 0,
        "channel": 0
      },
      {
        "type": "note_on",
        "time": 0,
        "note": 66,
        "velocity": 0,
        "channel": 0
      },
      {
        "type": "note_on",
        "time": 1,
        "note": 47,
        "velocity": 60,
        "channel": 0
      },
      {
        "type": "note_on",
        "time": 0,
        "note": 42,
        "velocity": 60,
        "channel": 0
      },
      {
        "type": "note_on",
        "time": 0,
        "note": 54,
        "velocity": 60,
        "channel": 0
      },
      {
        "type": "note_on",
        "time": 0,
        "note": 59,
        "velocity": 60,
        "channel": 0
      },
      {
        "type": "note_on",
        "time": 0,
        "note": 66,
        "velocity": 60,
        "channel": 0
      },
      {
        "type": "note_on",
        "time": 0,
        "note": 62,
        "velocity": 60,
        "channel": 0
      },
      {
        "type": "note_on",
        "time": 29,
        "note": 47,
        "velocity": 0,
        "channel": 0
      },
      {
        "type": "note_on",
        "time": 0,
        "note": 42,
        "velocity": 0,
        "channel": 0
      },
      {
        "type": "note_on",
        "time": 0,
        "note": 54,
        "velocity": 0,
        "channel": 0
      },
      {
        "type": "note_on",
        "time": 0,
        "note": 59,
        "velocity": 0,
        "channel": 0
      },
      {
        "type": "note_on",
        "time": 0,
        "note": 66,
        "velocity": 0,
        "channel": 0
      },
      {
        "type": "note_on",
        "time": 0,
        "note": 62,
        "velocity": 0,
        "channel": 0
      },
      {
        "type": "note_on",
        "time": 1,
        "note": 59,
        "velocity": 60,
        "channel": 0
      },
      {
        "type": "note_on",
        "time": 0,
        "note": 47,
        "velocity": 60,
        "channel": 0
      },
      {
        "type": "note_on",
        "time": 0,
        "note": 66,
        "velocity": 60,
        "channel": 0
      },
      {
        "type": "note_on",
        "time": 0,
        "note": 54,
        "velocity": 60,
        "channel": 0
      },
      {
        "type": "note_on",
        "time": 0,
        "note": 42,
        "velocity": 60,
        "channel": 0
      },
      {
        "type": "note_on",
        "time": 0,
        "note": 62,
        "velocity": 60,
        "channel": 0
      },
      {
        "type": "note_on",
        "time": 59,
        "note": 59,
        "velocity": 0,
        "channel": 0
      },
      {
        "type": "note_on",
        "time": 0,
        "note": 47,
        "velocity": 0,
        "channel": 0
      },
      {
        "type": "note_on",
        "time": 0,
        "note": 66,
        "velocity": 0,
        "channel": 0
      },
      {
        "type": "note_on",
        "time": 0,
        "note": 54,
        "velocity": 0,
        "channel": 0
      },
      {
        "type": "note_on",
        "time": 0,
        "note": 42,
        "velocity": 0,
        "channel": 0
      },
      {
        "type": "note_on",
        "time": 0,
        "note": 62,
        "velocity": 0,
        "channel": 0
      },
      {
        "type": "note_on",
        "time": 1,
        "note": 42,
        "velocity": 60,
        "channel": 0
      },
      {
        "type": "note_on",
        "time": 0,
        "note": 59,
        "velocity": 60,
        "channel": 0
      },
      {
        "type": "note_on",
        "time": 0,
        "note": 66,
        "velocity": 60,
        "channel": 0
      },
      {
        "type": "note_on",
        "time": 0,
        "note": 54,
        "velocity": 60,
        "channel": 0
      },
      {
        "type": "note_on",
        "time": 0,
        "note": 62,
        "velocity": 60,
        "channel": 0
      },
      {
        "type": "note_on",
        "time": 0,
        "note": 47,
        "velocity": 60,
        "channel": 0
      },
      {
        "type": "note_on",
        "time": 29,
        "note": 42,
        "velocity": 0,
        "channel": 0
      },
      {
        "type": "note_on",
        "time": 0,
        "note": 59,
        "velocity": 0,
        "channel": 0
      },
      {
        "type": "note_on",
        "time": 0,
        "note": 66,
        "velocity": 0,
        "channel": 0
      },
      {
        "type": "note_on",
        "time": 0,
        "note": 54,
        "velocity": 0,
        "channel": 0
      },
      {
        "type": "note_on",
        "time": 0,
        "note": 62,
        "velocity": 0,
        "channel": 0
      },
      {
        "type": "note_on",
        "time": 0,
        "note": 47,
        "velocity": 0,
        "channel": 0
      },
      {
        "type": "note_on",
        "time": 1,
        "note": 62,
        "velocity": 60,
        "channel": 0
      },
      {
        "type": "note_on",
        "time": 0,
        "note": 47,
        "velocity": 60,
        "channel": 0
      },
      {
        "type": "note_on",
        "time": 0,
        "note": 66,
        "velocity": 60,
        "channel": 0
      },
      {
        "type": "note_on",
        "time": 0,
        "note": 42,
        "velocity": 60,
        "channel": 0
      },
      {
        "type": "note_on",
        "time": 0,
        "note": 59,
        "velocity": 60,
        "channel": 0
      },
      {
        "type": "note_on",
        "time": 0,
        "note": 54,
        "velocity": 60,
        "channel": 0
      },
      {
        "type": "note_on",
        "time": 59,
        "note": 62,
        "velocity": 0,
        "channel": 0
      },
      {
        "type": "note_on",
        "time": 0,
        "note": 47,
        "velocity": 0,
        "channel": 0
      },
      {
        "type": "note_on",
        "time": 0,
        "note": 66,
        "velocity": 0,
        "channel": 0
      },
      {
        "type": "note_on",
        "time": 0,
        "note": 42,
        "velocity": 0,
        "channel": 0
      },
      {
        "type": "note_on",
        "time": 0,
        "note": 59,
        "velocity": 0,
        "channel": 0
      },
      {
        "type": "note_on",
        "time": 0,
        "note": 54,
        "velocity": 0,
        "channel": 0
      },
      {
        "type": "note_on",
        "time": 1,
        "note": 66,
        "velocity": 60,
        "channel": 0
      },
      {
        "type": "note_on",
        "time": 0,
        "note": 59,
        "velocity": 60,
        "channel": 0
      },
      {
        "type": "note_on",
        "time": 0,
        "note": 42,
        "velocity": 60,
        "channel": 0
      },
      {
        "type": "note_on",
        "time": 0,
        "note": 62,
        "velocity": 60,
        "channel": 0
      },
      {
        "type": "note_on",
        "time": 0,
        "note": 54,
        "velocity": 60,
        "channel": 0
      },
      {
        "type": "note_on",
        "time": 0,
        "note": 47,
        "velocity": 60,
        "channel": 0
      },
      {
        "type": "note_on",
        "time": 29,
        "note": 66,
        "velocity": 0,
        "channel": 0
      },
      {
        "type": "note_on",
        "time": 0,
        "note": 59,
        "velocity": 0,
        "channel": 0
      },
      {
        "type": "note_on",
        "time": 0,
        "note": 42,
        "velocity": 0,
        "channel": 0
      },
      {
        "type": "note_on",
        "time": 0,
        "note": 62,
        "velocity": 0,
        "channel": 0
      },
      {
        "type": "note_on",
        "time": 0,
        "note": 54,
        "velocity": 0,
        "channel": 0
      },
      {
        "type": "note_on",
        "time": 0,
        "note": 47,
        "velocity": 0,
        "channel": 0
      },
      {
        "type": "note_on",
        "time": 1,
        "note": 59,
        "velocity": 60,
        "channel": 0
      },
      {
        "type": "note_on",
        "time": 0,
        "note": 42,
        "velocity": 60,
        "channel": 0
      },
      {
        "type": "note_on",
        "time": 0,
        "note": 54,
        "velocity": 60,
        "channel": 0
      },
      {
        "type": "note_on",
        "time": 0,
        "note": 66,
        "velocity": 60,
        "channel": 0
      },
      {
        "type": "note_on",
        "time": 0,
        "note": 62,
        "velocity": 60,
        "channel": 0
      },
      {
        "type": "note_on",
        "time": 0,
        "note": 47,
        "velocity": 60,
        "channel": 0
      },
      {
        "type": "note_on",
        "time": 59,
        "note": 59,
        "velocity": 0,
        "channel": 0
      },
      {
        "type": "note_on",
        "time": 0,
        "note": 42,
        "velocity": 0,
        "channel": 0
      },
      {
        "type": "note_on",
        "time": 0,
        "note": 54,
        "velocity": 0,
        "channel": 0
      },
      {
        "type": "note_on",
        "time": 0,
        "note": 66,
        "velocity": 0,
        "channel": 0
      },
      {
        "type": "note_on",
        "time": 0,
        "note": 62,
        "velocity": 0,
        "channel": 0
      },
      {
        "type": "note_on",
        "time": 0,
        "note": 47,
        "velocity": 0,
        "channel": 0
      },
      {
        "type": "note_on",
        "time": 1,
        "note": 59,
        "velocity": 60,
        "channel": 0
      },
      {
        "type": "note_on",
        "time": 0,
        "note": 62,
        "velocity": 60,
        "channel": 0
      },
      {
        "type": "note_on",
        "time": 0,
        "note": 47,
        "velocity": 60,
        "channel": 0
      },
      {
        "type": "note_on",
        "time": 0,
        "note": 66,
        "velocity": 60,
        "channel": 0
      },
      {
        "type": "note_on",
        "time": 0,
        "note": 42,
        "velocity": 60,
        "channel": 0
      },
      {
        "type": "note_on",
        "time": 0,
        "note": 54,
        "velocity": 60,
        "channel": 0
      },
      {
        "type": "note_on",
        "time": 59,
        "note": 59,
        "velocity": 0,
        "channel": 0
      },
      {
        "type": "note_on",
        "time": 0,
        "note": 62,
        "velocity": 0,
        "channel": 0
      },
      {
        "type": "note_on",
        "time": 0,
        "note": 47,
        "velocity": 0,
        "channel": 0
      },
      {
        "type": "note_on",
        "time": 0,
        "note": 66,
        "velocity": 0,
        "channel": 0
      },
      {
        "type": "note_on",
        "time": 0,
        "note": 42,
        "velocity": 0,
        "channel": 0
      },
      {
        "type": "note_on",
        "time": 0,
        "note": 54,
        "velocity": 0,
        "channel": 0
      },
      {
        "type": "note_on",
        "time": 1,
        "note": 47,
        "velocity": 60,
        "channel": 0
      },
      {
        "type": "note_on",
        "time": 0,
        "note": 42,
        "velocity": 60,
        "channel": 0
      },
      {
        "type": "note_on",
        "time": 0,
        "note": 59,
        "velocity": 60,
        "channel": 0
      },
      {
        "type": "note_on",
        "time": 0,
        "note": 66,
        "velocity": 60,
        "channel": 0
      },
      {
        "type": "note_on",
        "time": 0,
        "note": 54,
        "velocity": 60,
        "channel": 0
      },
      {
        "type": "note_on",
        "time": 0,
        "note": 62,
        "velocity": 60,
        "channel": 0
      },
      {
        "type": "note_on",
        "time": 59,
        "note": 47,
        "velocity": 0,
        "channel": 0
      },
      {
        "type": "note_on",
        "time": 0,
        "note": 42,
        "velocity": 0,
        "channel": 0
      },
      {
        "type": "note_on",
        "time": 0,
        "note": 59,
        "velocity": 0,
        "channel": 0
      },
      {
        "type": "note_on",
        "time": 0,
        "note": 66,
        "velocity": 0,
        "channel": 0
      },
      {
        "type": "note_on",
        "time": 0,
        "note": 54,
        "velocity": 0,
        "channel": 0
      },
      {
        "type": "note_on",
        "time": 0,
        "note": 62,
        "velocity": 0,
        "channel": 0
      },
      {
        "type": "note_on",
        "time": 1,
        "note": 61,
        "velocity": 60,
        "channel": 0
      },
      {
        "type": "note_on",
        "time": 0,
        "note": 58,
        "velocity": 60,
        "channel": 0
      },
      {
        "type": "note_on",
        "time": 0,
        "note": 54,
        "velocity": 60,
        "channel": 0
      },
      {
        "type": "note_on",
        "time": 0,
        "note": 42,
        "velocity": 60,
        "channel": 0
      },
      {
        "type": "note_on",
        "time": 0,
        "note": 49,
        "velocity": 60,
        "channel": 0
      },
      {
        "type": "note_on",
        "time": 0,
        "note": 66,
        "velocity": 60,
        "channel": 0
      },
      {
        "type": "note_on",
        "time": 29,
        "note": 61,
        "velocity": 0,
        "channel": 0
      },
      {
        "type": "note_on",
        "time": 0,
        "note": 58,
        "velocity": 0,
        "channel": 0
      },
      {
        "type": "note_on",
        "time": 0,
        "note": 54,
        "velocity": 0,
        "channel": 0
      },
      {
        "type": "note_on",
        "time": 0,
        "note": 42,
        "velocity": 0,
        "channel": 0
      },
      {
        "type": "note_on",
        "time": 0,
        "note": 49,
        "velocity": 0,
        "channel": 0
      },
      {
        "type": "note_on",
        "time": 0,
        "note": 66,
        "velocity": 0,
        "channel": 0
      },
      {
        "type": "note_on",
        "time": 1,
        "note": 58,
        "velocity": 60,
        "channel": 0
      },
      {
        "type": "note_on",
        "time": 0,
        "note": 42,
        "velocity": 60,
        "channel": 0
      },
      {
        "type": "note_on",
        "time": 0,
        "note": 49,
        "velocity": 60,
        "channel": 0
      },
      {
        "type": "note_on",
        "time": 0,
        "note": 61,
        "velocity": 60,
        "channel": 0
      },
      {
        "type": "note_on",
        "time": 0,
        "note": 54,
        "velocity": 60,
        "channel": 0
      },
      {
        "type": "note_on",
        "time": 0,
        "note": 66,
        "velocity": 60,
        "channel": 0
      },
      {
        "type": "note_on",
        "time": 59,
        "note": 58,
        "velocity": 0,
        "channel": 0
      },
      {
        "type": "note_on",
        "time": 0,
        "note": 42,
        "velocity": 0,
        "channel": 0
      },
      {
        "type": "note_on",
        "time": 0,
        "note": 49,
        "velocity": 0,
        "channel": 0
      },
      {
        "type": "note_on",
        "time": 0,
        "note": 61,
        "velocity": 0,
        "channel": 0
      },
      {
        "type": "note_on",
        "time": 0,
        "note": 54,
        "velocity": 0,
        "channel": 0
      },
      {
        "type": "note_on",
        "time": 0,
        "note": 66,
        "velocity": 0,
        "channel": 0
      },
      {
        "type": "note_on",
        "time": 1,
        "note": 66,
        "velocity": 60,
        "channel": 0
      },
      {
        "type": "note_on",
        "time": 0,
        "note": 58,
        "velocity": 60,
        "channel": 0
      },
      {
        "type": "note_on",
        "time": 0,
        "note": 49,
        "velocity": 60,
        "channel": 0
      },
      {
        "type": "note_on",
        "time": 0,
        "note": 54,
        "velocity": 60,
        "channel": 0
      },
      {
        "type": "note_on",
        "time": 0,
        "note": 42,
        "velocity": 60,
        "channel": 0
      },
      {
        "type": "note_on",
        "time": 0,
        "note": 61,
        "velocity": 60,
        "channel": 0
      },
      {
        "type": "note_on",
        "time": 29,
        "note": 66,
        "velocity": 0,
        "channel": 0
      },
      {
        "type": "note_on",
        "time": 0,
        "note": 58,
        "velocity": 0,
        "channel": 0
      },
      {
        "type": "note_on",
        "time": 0,
        "note": 49,
        "velocity": 0,
        "channel": 0
      },
      {
        "type": "note_on",
        "time": 0,
        "note": 54,
        "velocity": 0,
        "channel": 0
      },
      {
        "type": "note_on",
        "time": 0,
        "note": 42,
        "velocity": 0,
        "channel": 0
      },
      {
        "type": "note_on",
        "time": 0,
        "note": 61,
        "velocity": 0,
        "channel": 0
      },
      {
        "type": "note_on",
        "time": 1,
        "note": 42,
        "velocity": 60,
        "channel": 0
      },
      {
        "type": "note_on",
        "time": 0,
        "note": 61,
        "velocity": 60,
        "channel": 0
      },
      {
        "type": "note_on",
        "time": 0,
        "note": 54,
        "velocity": 60,
        "channel": 0
      },
      {
        "type": "note_on",
        "time": 0,
        "note": 49,
        "velocity": 60,
        "channel": 0
      },
      {
        "type": "note_on",
        "time": 0,
        "note": 58,
        "velocity": 60,
        "channel": 0
      },
      {
        "type": "note_on",
        "time": 0,
        "note": 66,
        "velocity": 60,
        "channel": 0
      },
      {
        "type": "note_on",
        "time": 59,
        "note": 42,
        "velocity": 0,
        "channel": 0
      },
      {
        "type": "note_on",
        "time": 0,
        "note": 61,
        "velocity": 0,
        "channel": 0
      },
      {
        "type": "note_on",
        "time": 0,
        "note": 54,
        "velocity": 0,
        "channel": 0
      },
      {
        "type": "note_on",
        "time": 0,
        "note": 49,
        "velocity": 0,
        "channel": 0
      },
      {
        "type": "note_on",
        "time": 0,
        "note": 58,
        "velocity": 0,
        "channel": 0
      },
      {
        "type": "note_on",
        "time": 0,
        "note": 66,
        "velocity": 0,
        "channel": 0
      },
      {
        "type": "note_on",
        "time": 1,
        "note": 42,
        "velocity": 60,
        "channel": 0
      },
      {
        "type": "note_on",
        "time": 0,
        "note": 54,
        "velocity": 60,
        "channel": 0
      },
      {
        "type": "note_on",
        "time": 0,
        "note": 58,
        "velocity": 60,
        "channel": 0
      },
      {
        "type": "note_on",
        "time": 0,
        "note": 49,
        "velocity": 60,
        "channel": 0
      },
      {
        "type": "note_on",
        "time": 0,
        "note": 66,
        "velocity": 60,
        "channel": 0
      },
      {
        "type": "note_on",
        "time": 0,
        "note": 61,
        "velocity": 60,
        "channel": 0
      },
      {
        "type": "note_on",
        "time": 29,
        "note": 42,
        "velocity": 0,
        "channel": 0
      },
      {
        "type": "note_on",
        "time": 0,
        "note": 54,
        "velocity": 0,
        "channel": 0
      },
      {
        "type": "note_on",
        "time": 0,
        "note": 58,
        "velocity": 0,
        "channel": 0
      },
      {
        "type": "note_on",
        "time": 0,
        "note": 49,
        "velocity": 0,
        "channel": 0
      },
      {
        "type": "note_on",
        "time": 0,
        "note": 66,
        "velocity": 0,
        "channel": 0
      },
      {
        "type": "note_on",
        "time": 0,
        "note": 61,
        "velocity": 0,
        "channel": 0
      },
      {
        "type": "note_on",
        "time": 1,
        "note": 66,
        "velocity": 60,
        "channel": 0
      },
      {
        "type": "note_on",
        "time": 0,
        "note": 61,
        "velocity": 60,
        "channel": 0
      },
      {
        "type": "note_on",
        "time": 0,
        "note": 58,
        "velocity": 60,
        "channel": 0
      },
      {
        "type": "note_on",
        "time": 0,
        "note": 49,
        "velocity": 60,
        "channel": 0
      },
      {
        "type": "note_on",
        "time": 0,
        "note": 42,
        "velocity": 60,
        "channel": 0
      },
      {
        "type": "note_on",
        "time": 0,
        "note": 54,
        "velocity": 60,
        "channel": 0
      },
      {
        "type": "note_on",
        "time": 59,
        "note": 66,
        "velocity": 0,
        "channel": 0
      },
      {
        "type": "note_on",
        "time": 0,
        "note": 61,
        "velocity": 0,
        "channel": 0
      },
      {
        "type": "note_on",
        "time": 0,
        "note": 58,
        "velocity": 0,
        "channel": 0
      },
      {
        "type": "note_on",
        "time": 0,
        "note": 49,
        "velocity": 0,
        "channel": 0
      },
      {
        "type": "note_on",
        "time": 0,
        "note": 42,
        "velocity": 0,
        "channel": 0
      },
      {
        "type": "note_on",
        "time": 0,
        "note": 54,
        "velocity": 0,
        "channel": 0
      },
      {
        "type": "note_on",
        "time": 1,
        "note": 54,
        "velocity": 60,
        "channel": 0
      },
      {
        "type": "note_on",
        "time": 0,
        "note": 49,
        "velocity": 60,
        "channel": 0
      },
      {
        "type": "note_on",
        "time": 0,
        "note": 61,
        "velocity": 60,
        "channel": 0
      },
      {
        "type": "note_on",
        "time": 0,
        "note": 66,
        "velocity": 60,
        "channel": 0
      },
      {
        "type": "note_on",
        "time": 0,
        "note": 42,
        "velocity": 60,
        "channel": 0
      },
      {
        "type": "note_on",
        "time": 0,
        "note": 58,
        "velocity": 60,
        "channel": 0
      },
      {
        "type": "note_on",
        "time": 29,
        "note": 54,
        "velocity": 0,
        "channel": 0
      },
      {
        "type": "note_on",
        "time": 0,
        "note": 49,
        "velocity": 0,
        "channel": 0
      },
      {
        "type": "note_on",
        "time": 0,
        "note": 61,
        "velocity": 0,
        "channel": 0
      },
      {
        "type": "note_on",
        "time": 0,
        "note": 66,
        "velocity": 0,
        "channel": 0
      },
      {
        "type": "note_on",
        "time": 0,
        "note": 42,
        "velocity": 0,
        "channel": 0
      },
      {
        "type": "note_on",
        "time": 0,
        "note": 58,
        "velocity": 0,
        "channel": 0
      },
      {
        "type": "note_on",
        "time": 1,
        "note": 58,
        "velocity": 60,
        "channel": 0
      },
      {
        "type": "note_on",
        "time": 0,
        "note": 49,
        "velocity": 60,
        "channel": 0
      },
      {
        "type": "note_on",
        "time": 0,
        "note": 61,
        "velocity": 60,
        "channel": 0
      },
      {
        "type": "note_on",
        "time": 0,
        "note": 54,
        "velocity": 60,
        "channel": 0
      },
      {
        "type": "note_on",
        "time": 0,
        "note": 42,
        "velocity": 60,
        "channel": 0
      },
      {
        "type": "note_on",
        "time": 0,
        "note": 66,
        "velocity": 60,
        "channel": 0
      },
      {
        "type": "note_on",
        "time": 59,
        "note": 58,
        "velocity": 0,
        "channel": 0
      },
      {
        "type": "note_on",
        "time": 0,
        "note": 49,
        "velocity": 0,
        "channel": 0
      },
      {
        "type": "note_on",
        "time": 0,
        "note": 61,
        "velocity": 0,
        "channel": 0
      },
      {
        "type": "note_on",
        "time": 0,
        "note": 54,
        "velocity": 0,
        "channel": 0
      },
      {
        "type": "note_on",
        "time": 0,
        "note": 42,
        "velocity": 0,
        "channel": 0
      },
      {
        "type": "note_on",
        "time": 0,
        "note": 66,
        "velocity": 0,
        "channel": 0
      },
      {
        "type": "note_on",
        "time": 1,
        "note": 58,
        "velocity": 60,
        "channel": 0
      },
      {
        "type": "note_on",
        "time": 0,
        "note": 66,
        "velocity": 60,
        "channel": 0
      },
      {
        "type": "note_on",
        "time": 0,
        "note": 61,
        "velocity": 60,
        "channel": 0
      },
      {
        "type": "note_on",
        "time": 0,
        "note": 49,
        "velocity": 60,
        "channel": 0
      },
      {
        "type": "note_on",
        "time": 0,
        "note": 42,
        "velocity": 60,
        "channel": 0
      },
      {
        "type": "note_on",
        "time": 0,
        "note": 54,
        "velocity": 60,
        "channel": 0
      },
      {
        "type": "note_on",
        "time": 59,
        "note": 58,
        "velocity": 0,
        "channel": 0
      },
      {
        "type": "note_on",
        "time": 0,
        "note": 66,
        "velocity": 0,
        "channel": 0
      },
      {
        "type": "note_on",
        "time": 0,
        "note": 61,
        "velocity": 0,
        "channel": 0
      },
      {
        "type": "note_on",
        "time": 0,
        "note": 49,
        "velocity": 0,
        "channel": 0
      },
      {
        "type": "note_on",
        "time": 0,
        "note": 42,
        "velocity": 0,
        "channel": 0
      },
      {
        "type": "note_on",
        "time": 0,
        "note": 54,
        "velocity": 0,
        "channel": 0
      },
      {
        "type": "note_on",
        "time": 1,
        "note": 66,
        "velocity": 60,
        "channel": 0
      },
      {
        "type": "note_on",
        "time": 0,
        "note": 49,
        "velocity": 60,
        "channel": 0
      },
      {
        "type": "note_on",
        "time": 0,
        "note": 42,
        "velocity": 60,
        "channel": 0
      },
      {
        "type": "note_on",
        "time": 0,
        "note": 58,
        "velocity": 60,
        "channel": 0
      },
      {
        "type": "note_on",
        "time": 0,
        "note": 54,
        "velocity": 60,
        "channel": 0
      },
      {
        "type": "note_on",
        "time": 0,
        "note": 61,
        "velocity": 60,
        "channel": 0
      },
      {
        "type": "note_on",
        "time": 59,
        "note": 66,
        "velocity": 0,
        "channel": 0
      },
      {
        "type": "note_on",
        "time": 0,
        "note": 49,
        "velocity": 0,
        "channel": 0
      },
      {
        "type": "note_on",
        "time": 0,
        "note": 42,
        "velocity": 0,
        "channel": 0
      },
      {
        "type": "note_on",
        "time": 0,
        "note": 58,
        "velocity": 0,
        "channel": 0
      },
      {
        "type": "note_on",
        "time": 0,
        "note": 54,
        "velocity": 0,
        "channel": 0
      },
      {
        "type": "note_on",
        "time": 0,
        "note": 61,
        "velocity": 0,
        "channel": 0
      },
      {
        "type": "note_on",
        "time": 1,
        "note": 61,
        "velocity": 60,
        "channel": 0
      },
      {
        "type": "note_on",
        "time": 0,
        "note": 57,
        "velocity": 60,
        "channel": 0
      },
      {
        "type": "note_on",
        "time": 0,
        "note": 40,
        "velocity": 60,
        "channel": 0
      },
      {
        "type": "note_on",
        "time": 0,
        "note": 45,
        "velocity": 60,
        "channel": 0
      },
      {
        "type": "note_on",
        "time": 0,
        "note": 64,
        "velocity": 60,
        "channel": 0
      },
      {
        "type": "note_on",
        "time": 0,
        "note": 52,
        "velocity": 60,
        "channel": 0
      },
      {
        "type": "note_on",
        "time": 29,
        "note": 61,
        "velocity": 0,
        "channel": 0
      },
      {
        "type": "note_on",
        "time": 0,
        "note": 57,
        "velocity": 0,
        "channel": 0
      },
      {
        "type": "note_on",
        "time": 0,
        "note": 40,
        "velocity": 0,
        "channel": 0
      },
      {
        "type": "note_on",
        "time": 0,
        "note": 45,
        "velocity": 0,
        "channel": 0
      },
      {
        "type": "note_on",
        "time": 0,
        "note": 64,
        "velocity": 0,
        "channel": 0
      },
      {
        "type": "note_on",
        "time": 0,
        "note": 52,
        "velocity": 0,
        "channel": 0
      },
      {
        "type": "note_on",
        "time": 1,
        "note": 57,
        "velocity": 60,
        "channel": 0
      },
      {
        "type": "note_on",
        "time": 0,
        "note": 40,
        "velocity": 60,
        "channel": 0
      },
      {
        "type": "note_on",
        "time": 0,
        "note": 61,
        "velocity": 60,
        "channel": 0
      },
      {
        "type": "note_on",
        "time": 0,
        "note": 52,
        "velocity": 60,
        "channel": 0
      },
      {
        "type": "note_on",
        "time": 0,
        "note": 45,
        "velocity": 60,
        "channel": 0
      },
      {
        "type": "note_on",
        "time": 0,
        "note": 64,
        "velocity": 60,
        "channel": 0
      },
      {
        "type": "note_on",
        "time": 59,
        "note": 57,
        "velocity": 0,
        "channel": 0
      },
      {
        "type": "note_on",
        "time": 0,
        "note": 40,
        "velocity": 0,
        "channel": 0
      },
      {
        "type": "note_on",
        "time": 0,
        "note": 61,
        "velocity": 0,
        "channel": 0
      },
      {
        "type": "note_on",
        "time": 0,
        "note": 52,
        "velocity": 0,
        "channel": 0
      },
      {
        "type": "note_on",
        "time": 0,
        "note": 45,
        "velocity": 0,
        "channel": 0
      },
      {
        "type": "note_on",
        "time": 0,
        "note": 64,
        "velocity": 0,
        "channel": 0
      },
      {
        "type": "note_on",
        "time": 1,
        "note": 45,
        "velocity": 60,
        "channel": 0
      },
      {
        "type": "note_on",
        "time": 0,
        "note": 40,
        "velocity": 60,
        "channel": 0
      },
      {
        "type": "note_on",
        "time": 0,
        "note": 52,
        "velocity": 60,
        "channel": 0
      },
      {
        "type": "note_on",
        "time": 0,
        "note": 57,
        "velocity": 60,
        "channel": 0
      },
      {
        "type": "note_on",
        "time": 0,
        "note": 64,
        "velocity": 60,
        "channel": 0
      },
      {
        "type": "note_on",
        "time": 0,
        "note": 61,
        "velocity": 60,
        "channel": 0
      },
      {
        "type": "note_on",
        "time": 29,
        "note": 45,
        "velocity": 0,
        "channel": 0
      },
      {
        "type": "note_on",
        "time": 0,
        "note": 40,
        "velocity": 0,
        "channel": 0
      },
      {
        "type": "note_on",
        "time": 0,
        "note": 52,
        "velocity": 0,
        "channel": 0
      },
      {
        "type": "note_on",
        "time": 0,
        "note": 57,
        "velocity": 0,
        "channel": 0
      },
      {
        "type": "note_on",
        "time": 0,
        "note": 64,
        "velocity": 0,
        "channel": 0
      },
      {
        "type": "note_on",
        "time": 0,
        "note": 61,
        "velocity": 0,
        "channel": 0
      },
      {
        "type": "note_on",
        "time": 1,
        "note": 57,
        "velocity": 60,
        "channel": 0
      },
      {
        "type": "note_on",
        "time": 0,
        "note": 45,
        "velocity": 60,
        "channel": 0
      },
      {
        "type": "note_on",
        "time": 0,
        "note": 64,
        "velocity": 60,
        "channel": 0
      },
      {
        "type": "note_on",
        "time": 0,
        "note": 52,
        "velocity": 60,
        "channel": 0
      },
      {
        "type": "note_on",
        "time": 0,
        "note": 40,
        "velocity": 60,
        "channel": 0
      },
      {
        "type": "note_on",
        "time": 0,
        "note": 61,
        "velocity": 60,
        "channel": 0
      },
      {
        "type": "note_on",
        "time": 59,
        "note": 57,
        "velocity": 0,
        "channel": 0
      },
      {
        "type": "note_on",
        "time": 0,
        "note": 45,
        "velocity": 0,
        "channel": 0
      },
      {
        "type": "note_on",
        "time": 0,
        "note": 64,
        "velocity": 0,
        "channel": 0
      },
      {
        "type": "note_on",
        "time": 0,
        "note": 52,
        "velocity": 0,
        "channel": 0
      },
      {
        "type": "note_on",
        "time": 0,
        "note": 40,
        "velocity": 0,
        "channel": 0
      },
      {
        "type": "note_on",
        "time": 0,
        "note": 61,
        "velocity": 0,
        "channel": 0
      },
      {
        "type": "note_on",
        "time": 1,
        "note": 40,
        "velocity": 60,
        "channel": 0
      },
      {
        "type": "note_on",
        "time": 0,
        "note": 57,
        "velocity": 60,
        "channel": 0
      },
      {
        "type": "note_on",
        "time": 0,
        "note": 64,
        "velocity": 60,
        "channel": 0
      },
      {
        "type": "note_on",
        "time": 0,
        "note": 52,
        "velocity": 60,
        "channel": 0
      },
      {
        "type": "note_on",
        "time": 0,
        "note": 61,
        "velocity": 60,
        "channel": 0
      },
      {
        "type": "note_on",
        "time": 0,
        "note": 45,
        "velocity": 60,
        "channel": 0
      },
      {
        "type": "note_on",
        "time": 29,
        "note": 40,
        "velocity": 0,
        "channel": 0
      },
      {
        "type": "note_on",
        "time": 0,
        "note": 57,
        "velocity": 0,
        "channel": 0
      },
      {
        "type": "note_on",
        "time": 0,
        "note": 64,
        "velocity": 0,
        "channel": 0
      },
      {
        "type": "note_on",
        "time": 0,
        "note": 52,
        "velocity": 0,
        "channel": 0
      },
      {
        "type": "note_on",
        "time": 0,
        "note": 61,
        "velocity": 0,
        "channel": 0
      },
      {
        "type": "note_on",
        "time": 0,
        "note": 45,
        "velocity": 0,
        "channel": 0
      },
      {
        "type": "note_on",
        "time": 1,
        "note": 61,
        "velocity": 60,
        "channel": 0
      },
      {
        "type": "note_on",
        "time": 0,
        "note": 45,
        "velocity": 60,
        "channel": 0
      },
      {
        "type": "note_on",
        "time": 0,
        "note": 64,
        "velocity": 60,
        "channel": 0
      },
      {
        "type": "note_on",
        "time": 0,
        "note": 40,
        "velocity": 60,
        "channel": 0
      },
      {
        "type": "note_on",
        "time": 0,
        "note": 57,
        "velocity": 60,
        "channel": 0
      },
      {
        "type": "note_on",
        "time": 0,
        "note": 52,
        "velocity": 60,
        "channel": 0
      },
      {
        "type": "note_on",
        "time": 59,
        "note": 61,
        "velocity": 0,
        "channel": 0
      },
      {
        "type": "note_on",
        "time": 0,
        "note": 45,
        "velocity": 0,
        "channel": 0
      },
      {
        "type": "note_on",
        "time": 0,
        "note": 64,
        "velocity": 0,
        "channel": 0
      },
      {
        "type": "note_on",
        "time": 0,
        "note": 40,
        "velocity": 0,
        "channel": 0
      },
      {
        "type": "note_on",
        "time": 0,
        "note": 57,
        "velocity": 0,
        "channel": 0
      },
      {
        "type": "note_on",
        "time": 0,
        "note": 52,
        "velocity": 0,
        "channel": 0
      },
      {
        "type": "note_on",
        "time": 1,
        "note": 64,
        "velocity": 60,
        "channel": 0
      },
      {
        "type": "note_on",
        "time": 0,
        "note": 57,
        "velocity": 60,
        "channel": 0
      },
      {
        "type": "note_on",
        "time": 0,
        "note": 40,
        "velocity": 60,
        "channel": 0
      },
      {
        "type": "note_on",
        "time": 0,
        "note": 61,
        "velocity": 60,
        "channel": 0
      },
      {
        "type": "note_on",
        "time": 0,
        "note": 52,
        "velocity": 60,
        "channel": 0
      },
      {
        "type": "note_on",
        "time": 0,
        "note": 45,
        "velocity": 60,
        "channel": 0
      },
      {
        "type": "note_on",
        "time": 29,
        "note": 64,
        "velocity": 0,
        "channel": 0
      },
      {
        "type": "note_on",
        "time": 0,
        "note": 57,
        "velocity": 0,
        "channel": 0
      },
      {
        "type": "note_on",
        "time": 0,
        "note": 40,
        "velocity": 0,
        "channel": 0
      },
      {
        "type": "note_on",
        "time": 0,
        "note": 61,
        "velocity": 0,
        "channel": 0
      },
      {
        "type": "note_on",
        "time": 0,
        "note": 52,
        "velocity": 0,
        "channel": 0
      },
      {
        "type": "note_on",
        "time": 0,
        "note": 45,
        "velocity": 0,
        "channel": 0
      },
      {
        "type": "note_on",
        "time": 1,
        "note": 57,
        "velocity": 60,
        "channel": 0
      },
      {
        "type": "note_on",
        "time": 0,
        "note": 40,
        "velocity": 60,
        "channel": 0
      },
      {
        "type": "note_on",
        "time": 0,
        "note": 52,
        "velocity": 60,
        "channel": 0
      },
      {
        "type": "note_on",
        "time": 0,
        "note": 64,
        "velocity": 60,
        "channel": 0
      },
      {
        "type": "note_on",
        "time": 0,
        "note": 61,
        "velocity": 60,
        "channel": 0
      },
      {
        "type": "note_on",
        "time": 0,
        "note": 45,
        "velocity": 60,
        "channel": 0
      },
      {
        "type": "note_on",
        "time": 59,
        "note": 57,
        "velocity": 0,
        "channel": 0
      },
      {
        "type": "note_on",
        "time": 0,
        "note": 40,
        "velocity": 0,
        "channel": 0
      },
      {
        "type": "note_on",
        "time": 0,
        "note": 52,
        "velocity": 0,
        "channel": 0
      },
      {
        "type": "note_on",
        "time": 0,
        "note": 64,
        "velocity": 0,
        "channel": 0
      },
      {
        "type": "note_on",
        "time": 0,
        "note": 61,
        "velocity": 0,
        "channel": 0
      },
      {
        "type": "note_on",
        "time": 0,
        "note": 45,
        "velocity": 0,
        "channel": 0
      },
      {
        "type": "note_on",
        "time": 1,
        "note": 57,
        "velocity": 60,
        "channel": 0
      },
      {
        "type": "note_on",
        "time": 0,
        "note": 61,
        "velocity": 60,
        "channel": 0
      },
      {
        "type": "note_on",
        "time": 0,
        "note": 45,
        "velocity": 60,
        "channel": 0
      },
      {
        "type": "note_on",
        "time": 0,
        "note": 64,
        "velocity": 60,
        "channel": 0
      },
      {
        "type": "note_on",
        "time": 0,
        "note": 40,
        "velocity": 60,
        "channel": 0
      },
      {
        "type": "note_on",
        "time": 0,
        "note": 52,
        "velocity": 60,
        "channel": 0
      },
      {
        "type": "note_on",
        "time": 59,
        "note": 57,
        "velocity": 0,
        "channel": 0
      },
      {
        "type": "note_on",
        "time": 0,
        "note": 61,
        "velocity": 0,
        "channel": 0
      },
      {
        "type": "note_on",
        "time": 0,
        "note": 45,
        "velocity": 0,
        "channel": 0
      },
      {
        "type": "note_on",
        "time": 0,
        "note": 64,
        "velocity": 0,
        "channel": 0
      },
      {
        "type": "note_on",
        "time": 0,
        "note": 40,
        "velocity": 0,
        "channel": 0
      },
      {
        "type": "note_on",
        "time": 0,
        "note": 52,
        "velocity": 0,
        "channel": 0
      },
      {
        "type": "note_on",
        "time": 1,
        "note": 45,
        "velocity": 60,
        "channel": 0
      },
      {
        "type": "note_on",
        "time": 0,
        "note": 40,
        "velocity": 60,
        "channel": 0
      },
      {
        "type": "note_on",
        "time": 0,
        "note": 57,
        "velocity": 60,
        "channel": 0
      },
      {
        "type": "note_on",
        "time": 0,
        "note": 64,
        "velocity": 60,
        "channel": 0
      },
      {
        "type": "note_on",
        "time": 0,
        "note": 52,
        "velocity": 60,
        "channel": 0
      },
      {
        "type": "note_on",
        "time": 0,
        "note": 61,
        "velocity": 60,
        "channel": 0
      },
      {
        "type": "note_on",
        "time": 59,
        "note": 45,
        "velocity": 0,
        "channel": 0
      },
      {
        "type": "note_on",
        "time": 0,
        "note": 40,
        "velocity": 0,
        "channel": 0
      },
      {
        "type": "note_on",
        "time": 0,
        "note": 57,
        "velocity": 0,
        "channel": 0
      },
      {
        "type": "note_on",
        "time": 0,
        "note": 64,
        "velocity": 0,
        "channel": 0
      },
      {
        "type": "note_on",
        "time": 0,
        "note": 52,
        "velocity": 0,
        "channel": 0
      },
      {
        "type": "note_on",
        "time": 0,
        "note": 61,
        "velocity": 0,
        "channel": 0
      },
      {
        "type": "note_on",
        "time": 1,
        "note": 59,
        "velocity": 60,
        "channel": 0
      },
      {
        "type": "note_on",
        "time": 0,
        "note": 56,
        "velocity": 60,
        "channel": 0
      },
      {
        "type": "note_on",
        "time": 0,
        "note": 52,
        "velocity": 60,
        "channel": 0
      },
      {
        "type": "note_on",
        "time": 0,
        "note": 40,
        "velocity": 60,
        "channel": 0
      },
      {
        "type": "note_on",
        "time": 0,
        "note": 47,
        "velocity": 60,
        "channel": 0
      },
      {
        "type": "note_on",
        "time": 0,
        "note": 64,
        "velocity": 60,
        "channel": 0
      },
      {
        "type": "note_on",
        "time": 29,
        "note": 59,
        "velocity": 0,
        "channel": 0
      },
      {
        "type": "note_on",
        "time": 0,
        "note": 56,
        "velocity": 0,
        "channel": 0
      },
      {
        "type": "note_on",
        "time": 0,
        "note": 52,
        "velocity": 0,
        "channel": 0
      },
      {
        "type": "note_on",
        "time": 0,
        "note": 40,
        "velocity": 0,
        "channel": 0
      },
      {
        "type": "note_on",
        "time": 0,
        "note": 47,
        "velocity": 0,
        "channel": 0
      },
      {
        "type": "note_on",
        "time": 0,
        "note": 64,
        "velocity": 0,
        "channel": 0
      },
      {
        "type": "note_on",
        "time": 1,
        "note": 56,
        "velocity": 60,
        "channel": 0
      },
      {
        "type": "note_on",
        "time": 0,
        "note": 40,
        "velocity": 60,
        "channel": 0
      },
      {
        "type": "note_on",
        "time": 0,
        "note": 47,
        "velocity": 60,
        "channel": 0
      },
      {
        "type": "note_on",
        "time": 0,
        "note": 59,
        "velocity": 60,
        "channel": 0
      },
      {
        "type": "note_on",
        "time": 0,
        "note": 52,
        "velocity": 60,
        "channel": 0
      },
      {
        "type": "note_on",
        "time": 0,
        "note": 64,
        "velocity": 60,
        "channel": 0
      },
      {
        "type": "note_on",
        "time": 59,
        "note": 56,
        "velocity": 0,
        "channel": 0
      },
      {
        "type": "note_on",
        "time": 0,
        "note": 40,
        "velocity": 0,
        "channel": 0
      },
      {
        "type": "note_on",
        "time": 0,
        "note": 47,
        "velocity": 0,
        "channel": 0
      },
      {
        "type": "note_on",
        "time": 0,
        "note": 59,
        "velocity": 0,
        "channel": 0
      },
      {
        "type": "note_on",
        "time": 0,
        "note": 52,
        "velocity": 0,
        "channel": 0
      },
      {
        "type": "note_on",
        "time": 0,
        "note": 64,
        "velocity": 0,
        "channel": 0
      },
      {
        "type": "note_on",
        "time": 1,
        "note": 64,
        "velocity": 60,
        "channel": 0
      },
      {
        "type": "note_on",
        "time": 0,
        "note": 56,
        "velocity": 60,
        "channel": 0
      },
      {
        "type": "note_on",
        "time": 0,
        "note": 47,
        "velocity": 60,
        "channel": 0
      },
      {
        "type": "note_on",
        "time": 0,
        "note": 52,
        "velocity": 60,
        "channel": 0
      },
      {
        "type": "note_on",
        "time": 0,
        "note": 40,
        "velocity": 60,
        "channel": 0
      },
      {
        "type": "note_on",
        "time": 0,
        "note": 59,
        "velocity": 60,
        "channel": 0
      },
      {
        "type": "note_on",
        "time": 29,
        "note": 64,
        "velocity": 0,
        "channel": 0
      },
      {
        "type": "note_on",
        "time": 0,
        "note": 56,
        "velocity": 0,
        "channel": 0
      },
      {
        "type": "note_on",
        "time": 0,
        "note": 47,
        "velocity": 0,
        "channel": 0
      },
      {
        "type": "note_on",
        "time": 0,
        "note": 52,
        "velocity": 0,
        "channel": 0
      },
      {
        "type": "note_on",
        "time": 0,
        "note": 40,
        "velocity": 0,
        "channel": 0
      },
      {
        "type": "note_on",
        "time": 0,
        "note": 59,
        "velocity": 0,
        "channel": 0
      },
      {
        "type": "note_on",
        "time": 1,
        "note": 40,
        "velocity": 60,
        "channel": 0
      },
      {
        "type": "note_on",
        "time": 0,
        "note": 59,
        "velocity": 60,
        "channel": 0
      },
      {
        "type": "note_on",
        "time": 0,
        "note": 52,
        "velocity": 60,
        "channel": 0
      },
      {
        "type": "note_on",
        "time": 0,
        "note": 47,
        "velocity": 60,
        "channel": 0
      },
      {
        "type": "note_on",
        "time": 0,
        "note": 56,
        "velocity": 60,
        "channel": 0
      },
      {
        "type": "note_on",
        "time": 0,
        "note": 64,
        "velocity": 60,
        "channel": 0
      },
      {
        "type": "note_on",
        "time": 59,
        "note": 40,
        "velocity": 0,
        "channel": 0
      },
      {
        "type": "note_on",
        "time": 0,
        "note": 59,
        "velocity": 0,
        "channel": 0
      },
      {
        "type": "note_on",
        "time": 0,
        "note": 52,
        "velocity": 0,
        "channel": 0
      },
      {
        "type": "note_on",
        "time": 0,
        "note": 47,
        "velocity": 0,
        "channel": 0
      },
      {
        "type": "note_on",
        "time": 0,
        "note": 56,
        "velocity": 0,
        "channel": 0
      },
      {
        "type": "note_on",
        "time": 0,
        "note": 64,
        "velocity": 0,
        "channel": 0
      },
      {
        "type": "note_on",
        "time": 1,
        "note": 40,
        "velocity": 60,
        "channel": 0
      },
      {
        "type": "note_on",
        "time": 0,
        "note": 52,
        "velocity": 60,
        "channel": 0
      },
      {
        "type": "note_on",
        "time": 0,
        "note": 56,
        "velocity": 60,
        "channel": 0
      },
      {
        "type": "note_on",
        "time": 0,
        "note": 47,
        "velocity": 60,
        "channel": 0
      },
      {
        "type": "note_on",
        "time": 0,
        "note": 64,
        "velocity": 60,
        "channel": 0
      },
      {
        "type": "note_on",
        "time": 0,
        "note": 59,
        "velocity": 60,
        "channel": 0
      },
      {
        "type": "note_on",
        "time": 29,
        "note": 40,
        "velocity": 0,
        "channel": 0
      },
      {
        "type": "note_on",
        "time": 0,
        "note": 52,
        "velocity": 0,
        "channel": 0
      },
      {
        "type": "note_on",
        "time": 0,
        "note": 56,
        "velocity": 0,
        "channel": 0
      },
      {
        "type": "note_on",
        "time": 0,
        "note": 47,
        "velocity": 0,
        "channel": 0
      },
      {
        "type": "note_on",
        "time": 0,
        "note": 64,
        "velocity": 0,
        "channel": 0
      },
      {
        "type": "note_on",
        "time": 0,
        "note": 59,
        "velocity": 0,
        "channel": 0
      },
      {
        "type": "note_on",
        "time": 1,
        "note": 64,
        "velocity": 60,
        "channel": 0
      },
      {
        "type": "note_on",
        "time": 0,
        "note": 59,
        "velocity": 60,
        "channel": 0
      },
      {
        "type": "note_on",
        "time": 0,
        "note": 56,
        "velocity": 60,
        "channel": 0
      },
      {
        "type": "note_on",
        "time": 0,
        "note": 47,
        "velocity": 60,
        "channel": 0
      },
      {
        "type": "note_on",
        "time": 0,
        "note": 40,
        "velocity": 60,
        "channel": 0
      },
      {
        "type": "note_on",
        "time": 0,
        "note": 52,
        "velocity": 60,
        "channel": 0
      },
      {
        "type": "note_on",
        "time": 59,
        "note": 64,
        "velocity": 0,
        "channel": 0
      },
      {
        "type": "note_on",
        "time": 0,
        "note": 59,
        "velocity": 0,
        "channel": 0
      },
      {
        "type": "note_on",
        "time": 0,
        "note": 56,
        "velocity": 0,
        "channel": 0
      },
      {
        "type": "note_on",
        "time": 0,
        "note": 47,
        "velocity": 0,
        "channel": 0
      },
      {
        "type": "note_on",
        "time": 0,
        "note": 40,
        "velocity": 0,
        "channel": 0
      },
      {
        "type": "note_on",
        "time": 0,
        "note": 52,
        "velocity": 0,
        "channel": 0
      },
      {
        "type": "note_on",
        "time": 1,
        "note": 52,
        "velocity": 60,
        "channel": 0
      },
      {
        "type": "note_on",
        "time": 0,
        "note": 47,
        "velocity": 60,
        "channel": 0
      },
      {
        "type": "note_on",
        "time": 0,
        "note": 59,
        "velocity": 60,
        "channel": 0
      },
      {
        "type": "note_on",
        "time": 0,
        "note": 64,
        "velocity": 60,
        "channel": 0
      },
      {
        "type": "note_on",
        "time": 0,
        "note": 40,
        "velocity": 60,
        "channel": 0
      },
      {
        "type": "note_on",
        "time": 0,
        "note": 56,
        "velocity": 60,
        "channel": 0
      },
      {
        "type": "note_on",
        "time": 29,
        "note": 52,
        "velocity": 0,
        "channel": 0
      },
      {
        "type": "note_on",
        "time": 0,
        "note": 47,
        "velocity": 0,
        "channel": 0
      },
      {
        "type": "note_on",
        "time": 0,
        "note": 59,
        "velocity": 0,
        "channel": 0
      },
      {
        "type": "note_on",
        "time": 0,
        "note": 64,
        "velocity": 0,
        "channel": 0
      },
      {
        "type": "note_on",
        "time": 0,
        "note": 40,
        "velocity": 0,
        "channel": 0
      },
      {
        "type": "note_on",
        "time": 0,
        "note": 56,
        "velocity": 0,
        "channel": 0
      },
      {
        "type": "note_on",
        "time": 1,
        "note": 56,
        "velocity": 60,
        "channel": 0
      },
      {
        "type": "note_on",
        "time": 0,
        "note": 47,
        "velocity": 60,
        "channel": 0
      },
      {
        "type": "note_on",
        "time": 0,
        "note": 59,
        "velocity": 60,
        "channel": 0
      },
      {
        "type": "note_on",
        "time": 0,
        "note": 52,
        "velocity": 60,
        "channel": 0
      },
      {
        "type": "note_on",
        "time": 0,
        "note": 40,
        "velocity": 60,
        "channel": 0
      },
      {
        "type": "note_on",
        "time": 0,
        "note": 64,
        "velocity": 60,
        "channel": 0
      },
      {
        "type": "note_on",
        "time": 59,
        "note": 56,
        "velocity": 0,
        "channel": 0
      },
      {
        "type": "note_on",
        "time": 0,
        "note": 47,
        "velocity": 0,
        "channel": 0
      },
      {
        "type": "note_on",
        "time": 0,
        "note": 59,
        "velocity": 0,
        "channel": 0
      },
      {
        "type": "note_on",
        "time": 0,
        "note": 52,
        "velocity": 0,
        "channel": 0
      },
      {
        "type": "note_on",
        "time": 0,
        "note": 40,
        "velocity": 0,
        "channel": 0
      },
      {
        "type": "note_on",
        "time": 0,
        "note": 64,
        "velocity": 0,
        "channel": 0
      },
      {
        "type": "note_on",
        "time": 1,
        "note": 56,
        "velocity": 60,
        "channel": 0
      },
      {
        "type": "note_on",
        "time": 0,
        "note": 64,
        "velocity": 60,
        "channel": 0
      },
      {
        "type": "note_on",
        "time": 0,
        "note": 59,
        "velocity": 60,
        "channel": 0
      },
      {
        "type": "note_on",
        "time": 0,
        "note": 47,
        "velocity": 60,
        "channel": 0
      },
      {
        "type": "note_on",
        "time": 0,
        "note": 40,
        "velocity": 60,
        "channel": 0
      },
      {
        "type": "note_on",
        "time": 0,
        "note": 52,
        "velocity": 60,
        "channel": 0
      },
      {
        "type": "note_on",
        "time": 59,
        "note": 56,
        "velocity": 0,
        "channel": 0
      },
      {
        "type": "note_on",
        "time": 0,
        "note": 64,
        "velocity": 0,
        "channel": 0
      },
      {
        "type": "note_on",
        "time": 0,
        "note": 59,
        "velocity": 0,
        "channel": 0
      },
      {
        "type": "note_on",
        "time": 0,
        "note": 47,
        "velocity": 0,
        "channel": 0
      },
      {
        "type": "note_on",
        "time": 0,
        "note": 40,
        "velocity": 0,
        "channel": 0
      },
      {
        "type": "note_on",
        "time": 0,
        "note": 52,
        "velocity": 0,
        "channel": 0
      },
      {
        "type": "note_on",
        "time": 1,
        "note": 64,
        "velocity": 60,
        "channel": 0
      },
      {
        "type": "note_on",
        "time": 0,
        "note": 47,
        "velocity": 60,
        "channel": 0
      },
      {
        "type": "note_on",
        "time": 0,
        "note": 40,
        "velocity": 60,
        "channel": 0
      },
      {
        "type": "note_on",
        "time": 0,
        "note": 56,
        "velocity": 60,
        "channel": 0
      },
      {
        "type": "note_on",
        "time": 0,
        "note": 52,
        "velocity": 60,
        "channel": 0
      },
      {
        "type": "note_on",
        "time": 0,
        "note": 59,
        "velocity": 60,
        "channel": 0
      },
      {
        "type": "note_on",
        "time": 59,
        "note": 64,
        "velocity": 0,
        "channel": 0
      },
      {
        "type": "note_on",
        "time": 0,
        "note": 47,
        "velocity": 0,
        "channel": 0
      },
      {
        "type": "note_on",
        "time": 0,
        "note": 40,
        "velocity": 0,
        "channel": 0
      },
      {
        "type": "note_on",
        "time": 0,
        "note": 56,
        "velocity": 0,
        "channel": 0
      },
      {
        "type": "note_on",
        "time": 0,
        "note": 52,
        "velocity": 0,
        "channel": 0
      },
      {
        "type": "note_on",
        "time": 0,
        "note": 59,
        "velocity": 0,
        "channel": 0
      },
      {
        "type": "note_on",
        "time": 1,
        "note": 62,
        "velocity": 60,
        "channel": 0
      },
      {
        "type": "note_on",
        "time": 0,
        "note": 59,
        "velocity": 60,
        "channel": 0
      },
      {
        "type": "note_on",
        "time": 0,
        "note": 43,
        "velocity": 60,
        "channel": 0
      },
      {
        "type": "note_on",
        "time": 0,
        "note": 47,
        "velocity": 60,
        "channel": 0
      },
      {
        "type": "note_on",
        "time": 0,
        "note": 67,
        "velocity": 60,
        "channel": 0
      },
      {
        "type": "note_on",
        "time": 0,
        "note": 55,
        "velocity": 60,
        "channel": 0
      },
      {
        "type": "note_on",
        "time": 29,
        "note": 62,
        "velocity": 0,
        "channel": 0
      },
      {
        "type": "note_on",
        "time": 0,
        "note": 59,
        "velocity": 0,
        "channel": 0
      },
      {
        "type": "note_on",
        "time": 0,
        "note": 43,
        "velocity": 0,
        "channel": 0
      },
      {
        "type": "note_on",
        "time": 0,
        "note": 47,
        "velocity": 0,
        "channel": 0
      },
      {
        "type": "note_on",
        "time": 0,
        "note": 67,
        "velocity": 0,
        "channel": 0
      },
      {
        "type": "note_on",
        "time": 0,
        "note": 55,
        "velocity": 0,
        "channel": 0
      },
      {
        "type": "note_on",
        "time": 1,
        "note": 59,
        "velocity": 60,
        "channel": 0
      },
      {
        "type": "note_on",
        "time": 0,
        "note": 43,
        "velocity": 60,
        "channel": 0
      },
      {
        "type": "note_on",
        "time": 0,
        "note": 62,
        "velocity": 60,
        "channel": 0
      },
      {
        "type": "note_on",
        "time": 0,
        "note": 55,
        "velocity": 60,
        "channel": 0
      },
      {
        "type": "note_on",
        "time": 0,
        "note": 47,
        "velocity": 60,
        "channel": 0
      },
      {
        "type": "note_on",
        "time": 0,
        "note": 67,
        "velocity": 60,
        "channel": 0
      },
      {
        "type": "note_on",
        "time": 59,
        "note": 59,
        "velocity": 0,
        "channel": 0
      },
      {
        "type": "note_on",
        "time": 0,
        "note": 43,
        "velocity": 0,
        "channel": 0
      },
      {
        "type": "note_on",
        "time": 0,
        "note": 62,
        "velocity": 0,
        "channel": 0
      },
      {
        "type": "note_on",
        "time": 0,
        "note": 55,
        "velocity": 0,
        "channel": 0
      },
      {
        "type": "note_on",
        "time": 0,
        "note": 47,
        "velocity": 0,
        "channel": 0
      },
      {
        "type": "note_on",
        "time": 0,
        "note": 67,
        "velocity": 0,
        "channel": 0
      },
      {
        "type": "note_on",
        "time": 1,
        "note": 47,
        "velocity": 60,
        "channel": 0
      },
      {
        "type": "note_on",
        "time": 0,
        "note": 43,
        "velocity": 60,
        "channel": 0
      },
      {
        "type": "note_on",
        "time": 0,
        "note": 55,
        "velocity": 60,
        "channel": 0
      },
      {
        "type": "note_on",
        "time": 0,
        "note": 59,
        "velocity": 60,
        "channel": 0
      },
      {
        "type": "note_on",
        "time": 0,
        "note": 67,
        "velocity": 60,
        "channel": 0
      },
      {
        "type": "note_on",
        "time": 0,
        "note": 62,
        "velocity": 60,
        "channel": 0
      },
      {
        "type": "note_on",
        "time": 29,
        "note": 47,
        "velocity": 0,
        "channel": 0
      },
      {
        "type": "note_on",
        "time": 0,
        "note": 43,
        "velocity": 0,
        "channel": 0
      },
      {
        "type": "note_on",
        "time": 0,
        "note": 55,
        "velocity": 0,
        "channel": 0
      },
      {
        "type": "note_on",
        "time": 0,
        "note": 59,
        "velocity": 0,
        "channel": 0
      },
      {
        "type": "note_on",
        "time": 0,
        "note": 67,
        "velocity": 0,
        "channel": 0
      },
      {
        "type": "note_on",
        "time": 0,
        "note": 62,
        "velocity": 0,
        "channel": 0
      },
      {
        "type": "note_on",
        "time": 1,
        "note": 59,
        "velocity": 60,
        "channel": 0
      },
      {
        "type": "note_on",
        "time": 0,
        "note": 47,
        "velocity": 60,
        "channel": 0
      },
      {
        "type": "note_on",
        "time": 0,
        "note": 67,
        "velocity": 60,
        "channel": 0
      },
      {
        "type": "note_on",
        "time": 0,
        "note": 55,
        "velocity": 60,
        "channel": 0
      },
      {
        "type": "note_on",
        "time": 0,
        "note": 43,
        "velocity": 60,
        "channel": 0
      },
      {
        "type": "note_on",
        "time": 0,
        "note": 62,
        "velocity": 60,
        "channel": 0
      },
      {
        "type": "note_on",
        "time": 59,
        "note": 59,
        "velocity": 0,
        "channel": 0
      },
      {
        "type": "note_on",
        "time": 0,
        "note": 47,
        "velocity": 0,
        "channel": 0
      },
      {
        "type": "note_on",
        "time": 0,
        "note": 67,
        "velocity": 0,
        "channel": 0
      },
      {
        "type": "note_on",
        "time": 0,
        "note": 55,
        "velocity": 0,
        "channel": 0
      },
      {
        "type": "note_on",
        "time": 0,
        "note": 43,
        "velocity": 0,
        "channel": 0
      },
      {
        "type": "note_on",
        "time": 0,
        "note": 62,
        "velocity": 0,
        "channel": 0
      },
      {
        "type": "note_on",
        "time": 1,
        "note": 43,
        "velocity": 60,
        "channel": 0
      },
      {
        "type": "note_on",
        "time": 0,
        "note": 59,
        "velocity": 60,
        "channel": 0
      },
      {
        "type": "note_on",
        "time": 0,
        "note": 67,
        "velocity": 60,
        "channel": 0
      },
      {
        "type": "note_on",
        "time": 0,
        "note": 55,
        "velocity": 60,
        "channel": 0
      },
      {
        "type": "note_on",
        "time": 0,
        "note": 62,
        "velocity": 60,
        "channel": 0
      },
      {
        "type": "note_on",
        "time": 0,
        "note": 47,
        "velocity": 60,
        "channel": 0
      },
      {
        "type": "note_on",
        "time": 29,
        "note": 43,
        "velocity": 0,
        "channel": 0
      },
      {
        "type": "note_on",
        "time": 0,
        "note": 59,
        "velocity": 0,
        "channel": 0
      },
      {
        "type": "note_on",
        "time": 0,
        "note": 67,
        "velocity": 0,
        "channel": 0
      },
      {
        "type": "note_on",
        "time": 0,
        "note": 55,
        "velocity": 0,
        "channel": 0
      },
      {
        "type": "note_on",
        "time": 0,
        "note": 62,
        "velocity": 0,
        "channel": 0
      },
      {
        "type": "note_on",
        "time": 0,
        "note": 47,
        "velocity": 0,
        "channel": 0
      },
      {
        "type": "note_on",
        "time": 1,
        "note": 62,
        "velocity": 60,
        "channel": 0
      },
      {
        "type": "note_on",
        "time": 0,
        "note": 47,
        "velocity": 60,
        "channel": 0
      },
      {
        "type": "note_on",
        "time": 0,
        "note": 67,
        "velocity": 60,
        "channel": 0
      },
      {
        "type": "note_on",
        "time": 0,
        "note": 43,
        "velocity": 60,
        "channel": 0
      },
      {
        "type": "note_on",
        "time": 0,
        "note": 59,
        "velocity": 60,
        "channel": 0
      },
      {
        "type": "note_on",
        "time": 0,
        "note": 55,
        "velocity": 60,
        "channel": 0
      },
      {
        "type": "note_on",
        "time": 59,
        "note": 62,
        "velocity": 0,
        "channel": 0
      },
      {
        "type": "note_on",
        "time": 0,
        "note": 47,
        "velocity": 0,
        "channel": 0
      },
      {
        "type": "note_on",
        "time": 0,
        "note": 67,
        "velocity": 0,
        "channel": 0
      },
      {
        "type": "note_on",
        "time": 0,
        "note": 43,
        "velocity": 0,
        "channel": 0
      },
      {
        "type": "note_on",
        "time": 0,
        "note": 59,
        "velocity": 0,
        "channel": 0
      },
      {
        "type": "note_on",
        "time": 0,
        "note": 55,
        "velocity": 0,
        "channel": 0
      },
      {
        "type": "note_on",
        "time": 1,
        "note": 67,
        "velocity": 60,
        "channel": 0
      },
      {
        "type": "note_on",
        "time": 0,
        "note": 59,
        "velocity": 60,
        "channel": 0
      },
      {
        "type": "note_on",
        "time": 0,
        "note": 43,
        "velocity": 60,
        "channel": 0
      },
      {
        "type": "note_on",
        "time": 0,
        "note": 62,
        "velocity": 60,
        "channel": 0
      },
      {
        "type": "note_on",
        "time": 0,
        "note": 55,
        "velocity": 60,
        "channel": 0
      },
      {
        "type": "note_on",
        "time": 0,
        "note": 47,
        "velocity": 60,
        "channel": 0
      },
      {
        "type": "note_on",
        "time": 29,
        "note": 67,
        "velocity": 0,
        "channel": 0
      },
      {
        "type": "note_on",
        "time": 0,
        "note": 59,
        "velocity": 0,
        "channel": 0
      },
      {
        "type": "note_on",
        "time": 0,
        "note": 43,
        "velocity": 0,
        "channel": 0
      },
      {
        "type": "note_on",
        "time": 0,
        "note": 62,
        "velocity": 0,
        "channel": 0
      },
      {
        "type": "note_on",
        "time": 0,
        "note": 55,
        "velocity": 0,
        "channel": 0
      },
      {
        "type": "note_on",
        "time": 0,
        "note": 47,
        "velocity": 0,
        "channel": 0
      },
      {
        "type": "note_on",
        "time": 1,
        "note": 59,
        "velocity": 60,
        "channel": 0
      },
      {
        "type": "note_on",
        "time": 0,
        "note": 43,
        "velocity": 60,
        "channel": 0
      },
      {
        "type": "note_on",
        "time": 0,
        "note": 55,
        "velocity": 60,
        "channel": 0
      },
      {
        "type": "note_on",
        "time": 0,
        "note": 67,
        "velocity": 60,
        "channel": 0
      },
      {
        "type": "note_on",
        "time": 0,
        "note": 62,
        "velocity": 60,
        "channel": 0
      },
      {
        "type": "note_on",
        "time": 0,
        "note": 47,
        "velocity": 60,
        "channel": 0
      },
      {
        "type": "note_on",
        "time": 59,
        "note": 59,
        "velocity": 0,
        "channel": 0
      },
      {
        "type": "note_on",
        "time": 0,
        "note": 43,
        "velocity": 0,
        "channel": 0
      },
      {
        "type": "note_on",
        "time": 0,
        "note": 55,
        "velocity": 0,
        "channel": 0
      },
      {
        "type": "note_on",
        "time": 0,
        "note": 67,
        "velocity": 0,
        "channel": 0
      },
      {
        "type": "note_on",
        "time": 0,
        "note": 62,
        "velocity": 0,
        "channel": 0
      },
      {
        "type": "note_on",
        "time": 0,
        "note": 47,
        "velocity": 0,
        "channel": 0
      },
      {
        "type": "note_on",
        "time": 1,
        "note": 59,
        "velocity": 60,
        "channel": 0
      },
      {
        "type": "note_on",
        "time": 0,
        "note": 62,
        "velocity": 60,
        "channel": 0
      },
      {
        "type": "note_on",
        "time": 0,
        "note": 47,
        "velocity": 60,
        "channel": 0
      },
      {
        "type": "note_on",
        "time": 0,
        "note": 67,
        "velocity": 60,
        "channel": 0
      },
      {
        "type": "note_on",
        "time": 0,
        "note": 43,
        "velocity": 60,
        "channel": 0
      },
      {
        "type": "note_on",
        "time": 0,
        "note": 55,
        "velocity": 60,
        "channel": 0
      },
      {
        "type": "note_on",
        "time": 59,
        "note": 59,
        "velocity": 0,
        "channel": 0
      },
      {
        "type": "note_on",
        "time": 0,
        "note": 62,
        "velocity": 0,
        "channel": 0
      },
      {
        "type": "note_on",
        "time": 0,
        "note": 47,
        "velocity": 0,
        "channel": 0
      },
      {
        "type": "note_on",
        "time": 0,
        "note": 67,
        "velocity": 0,
        "channel": 0
      },
      {
        "type": "note_on",
        "time": 0,
        "note": 43,
        "velocity": 0,
        "channel": 0
      },
      {
        "type": "note_on",
        "time": 0,
        "note": 55,
        "velocity": 0,
        "channel": 0
      },
      {
        "type": "note_on",
        "time": 1,
        "note": 47,
        "velocity": 60,
        "channel": 0
      },
      {
        "type": "note_on",
        "time": 0,
        "note": 43,
        "velocity": 60,
        "channel": 0
      },
      {
        "type": "note_on",
        "time": 0,
        "note": 59,
        "velocity": 60,
        "channel": 0
      },
      {
        "type": "note_on",
        "time": 0,
        "note": 67,
        "velocity": 60,
        "channel": 0
      },
      {
        "type": "note_on",
        "time": 0,
        "note": 55,
        "velocity": 60,
        "channel": 0
      },
      {
        "type": "note_on",
        "time": 0,
        "note": 62,
        "velocity": 60,
        "channel": 0
      },
      {
        "type": "note_on",
        "time": 59,
        "note": 47,
        "velocity": 0,
        "channel": 0
      },
      {
        "type": "note_on",
        "time": 0,
        "note": 43,
        "velocity": 0,
        "channel": 0
      },
      {
        "type": "note_on",
        "time": 0,
        "note": 59,
        "velocity": 0,
        "channel": 0
      },
      {
        "type": "note_on",
        "time": 0,
        "note": 67,
        "velocity": 0,
        "channel": 0
      },
      {
        "type": "note_on",
        "time": 0,
        "note": 55,
        "velocity": 0,
        "channel": 0
      },
      {
        "type": "note_on",
        "time": 0,
        "note": 62,
        "velocity": 0,
        "channel": 0
      },
      {
        "type": "note_on",
        "time": 1,
        "note": 66,
        "velocity": 60,
        "channel": 0
      },
      {
        "type": "note_on",
        "time": 0,
        "note": 62,
        "velocity": 60,
        "channel": 0
      },
      {
        "type": "note_on",
        "time": 0,
        "note": 57,
        "velocity": 60,
        "channel": 0
      },
      {
        "type": "note_on",
        "time": 0,
        "note": 45,
        "velocity": 60,
        "channel": 0
      },
      {
        "type": "note_on",
        "time": 0,
        "note": 50,
        "velocity": 60,
        "channel": 0
      },
      {
        "type": "note_on",
        "time": 0,
        "note": 69,
        "velocity": 60,
        "channel": 0
      },
      {
        "type": "note_on",
        "time": 29,
        "note": 66,
        "velocity": 0,
        "channel": 0
      },
      {
        "type": "note_on",
        "time": 0,
        "note": 62,
        "velocity": 0,
        "channel": 0
      },
      {
        "type": "note_on",
        "time": 0,
        "note": 57,
        "velocity": 0,
        "channel": 0
      },
      {
        "type": "note_on",
        "time": 0,
        "note": 45,
        "velocity": 0,
        "channel": 0
      },
      {
        "type": "note_on",
        "time": 0,
        "note": 50,
        "velocity": 0,
        "channel": 0
      },
      {
        "type": "note_on",
        "time": 0,
        "note": 69,
        "velocity": 0,
        "channel": 0
      },
      {
        "type": "note_on",
        "time": 1,
        "note": 62,
        "velocity": 60,
        "channel": 0
      },
      {
        "type": "note_on",
        "time": 0,
        "note": 45,
        "velocity": 60,
        "channel": 0
      },
      {
        "type": "note_on",
        "time": 0,
        "note": 50,
        "velocity": 60,
        "channel": 0
      },
      {
        "type": "note_on",
        "time": 0,
        "note": 66,
        "velocity": 60,
        "channel": 0
      },
      {
        "type": "note_on",
        "time": 0,
        "note": 57,
        "velocity": 60,
        "channel": 0
      },
      {
        "type": "note_on",
        "time": 0,
        "note": 69,
        "velocity": 60,
        "channel": 0
      },
      {
        "type": "note_on",
        "time": 59,
        "note": 62,
        "velocity": 0,
        "channel": 0
      },
      {
        "type": "note_on",
        "time": 0,
        "note": 45,
        "velocity": 0,
        "channel": 0
      },
      {
        "type": "note_on",
        "time": 0,
        "note": 50,
        "velocity": 0,
        "channel": 0
      },
      {
        "type": "note_on",
        "time": 0,
        "note": 66,
        "velocity": 0,
        "channel": 0
      },
      {
        "type": "note_on",
        "time": 0,
        "note": 57,
        "velocity": 0,
        "channel": 0
      },
      {
        "type": "note_on",
        "time": 0,
        "note": 69,
        "velocity": 0,
        "channel": 0
      },
      {
        "type": "note_on",
        "time": 1,
        "note": 69,
        "velocity": 60,
        "channel": 0
      },
      {
        "type": "note_on",
        "time": 0,
        "note": 62,
        "velocity": 60,
        "channel": 0
      },
      {
        "type": "note_on",
        "time": 0,
        "note": 50,
        "velocity": 60,
        "channel": 0
      },
      {
        "type": "note_on",
        "time": 0,
        "note": 57,
        "velocity": 60,
        "channel": 0
      },
      {
        "type": "note_on",
        "time": 0,
        "note": 45,
        "velocity": 60,
        "channel": 0
      },
      {
        "type": "note_on",
        "time": 0,
        "note": 66,
        "velocity": 60,
        "channel": 0
      },
      {
        "type": "note_on",
        "time": 29,
        "note": 69,
        "velocity": 0,
        "channel": 0
      },
      {
        "type": "note_on",
        "time": 0,
        "note": 62,
        "velocity": 0,
        "channel": 0
      },
      {
        "type": "note_on",
        "time": 0,
        "note": 50,
        "velocity": 0,
        "channel": 0
      },
      {
        "type": "note_on",
        "time": 0,
        "note": 57,
        "velocity": 0,
        "channel": 0
      },
      {
        "type": "note_on",
        "time": 0,
        "note": 45,
        "velocity": 0,
        "channel": 0
      },
      {
        "type": "note_on",
        "time": 0,
        "note": 66,
        "velocity": 0,
        "channel": 0
      },
      {
        "type": "note_on",
        "time": 1,
        "note": 45,
        "velocity": 60,
        "channel": 0
      },
      {
        "type": "note_on",
        "time": 0,
        "note": 66,
        "velocity": 60,
        "channel": 0
      },
      {
        "type": "note_on",
        "time": 0,
        "note": 57,
        "velocity": 60,
        "channel": 0
      },
      {
        "type": "note_on",
        "time": 0,
        "note": 50,
        "velocity": 60,
        "channel": 0
      },
      {
        "type": "note_on",
        "time": 0,
        "note": 62,
        "velocity": 60,
        "channel": 0
      },
      {
        "type": "note_on",
        "time": 0,
        "note": 69,
        "velocity": 60,
        "channel": 0
      },
      {
        "type": "note_on",
        "time": 59,
        "note": 45,
        "velocity": 0,
        "channel": 0
      },
      {
        "type": "note_on",
        "time": 0,
        "note": 66,
        "velocity": 0,
        "channel": 0
      },
      {
        "type": "note_on",
        "time": 0,
        "note": 57,
        "velocity": 0,
        "channel": 0
      },
      {
        "type": "note_on",
        "time": 0,
        "note": 50,
        "velocity": 0,
        "channel": 0
      },
      {
        "type": "note_on",
        "time": 0,
        "note": 62,
        "velocity": 0,
        "channel": 0
      },
      {
        "type": "note_on",
        "time": 0,
        "note": 69,
        "velocity": 0,
        "channel": 0
      },
      {
        "type": "note_on",
        "time": 1,
        "note": 45,
        "velocity": 60,
        "channel": 0
      },
      {
        "type": "note_on",
        "time": 0,
        "note": 57,
        "velocity": 60,
        "channel": 0
      },
      {
        "type": "note_on",
        "time": 0,
        "note": 62,
        "velocity": 60,
        "channel": 0
      },
      {
        "type": "note_on",
        "time": 0,
        "note": 50,
        "velocity": 60,
        "channel": 0
      },
      {
        "type": "note_on",
        "time": 0,
        "note": 69,
        "velocity": 60,
        "channel": 0
      },
      {
        "type": "note_on",
        "time": 0,
        "note": 66,
        "velocity": 60,
        "channel": 0
      },
      {
        "type": "note_on",
        "time": 29,
        "note": 45,
        "velocity": 0,
        "channel": 0
      },
      {
        "type": "note_on",
        "time": 0,
        "note": 57,
        "velocity": 0,
        "channel": 0
      },
      {
        "type": "note_on",
        "time": 0,
        "note": 62,
        "velocity": 0,
        "channel": 0
      },
      {
        "type": "note_on",
        "time": 0,
        "note": 50,
        "velocity": 0,
        "channel": 0
      },
      {
        "type": "note_on",
        "time": 0,
        "note": 69,
        "velocity": 0,
        "channel": 0
      },
      {
        "type": "note_on",
        "time": 0,
        "note": 66,
        "velocity": 0,
        "channel": 0
      },
      {
        "type": "note_on",
        "time": 1,
        "note": 69,
        "velocity": 60,
        "channel": 0
      },
      {
        "type": "note_on",
        "time": 0,
        "note": 66,
        "velocity": 60,
        "channel": 0
      },
      {
        "type": "note_on",
        "time": 0,
        "note": 62,
        "velocity": 60,
        "channel": 0
      },
      {
        "type": "note_on",
        "time": 0,
        "note": 50,
        "velocity": 60,
        "channel": 0
      },
      {
        "type": "note_on",
        "time": 0,
        "note": 45,
        "velocity": 60,
        "channel": 0
      },
      {
        "type": "note_on",
        "time": 0,
        "note": 57,
        "velocity": 60,
        "channel": 0
      },
      {
        "type": "note_on",
        "time": 59,
        "note": 69,
        "velocity": 0,
        "channel": 0
      },
      {
        "type": "note_on",
        "time": 0,
        "note": 66,
        "velocity": 0,
        "channel": 0
      },
      {
        "type": "note_on",
        "time": 0,
        "note": 62,
        "velocity": 0,
        "channel": 0
      },
      {
        "type": "note_on",
        "time": 0,
        "note": 50,
        "velocity": 0,
        "channel": 0
      },
      {
        "type": "note_on",
        "time": 0,
        "note": 45,
        "velocity": 0,
        "channel": 0
      },
      {
        "type": "note_on",
        "time": 0,
        "note": 57,
        "velocity": 0,
        "channel": 0
      },
      {
        "type": "note_on",
        "time": 1,
        "note": 57,
        "velocity": 60,
        "channel": 0
      },
      {
        "type": "note_on",
        "time": 0,
        "note": 50,
        "velocity": 60,
        "channel": 0
      },
      {
        "type": "note_on",
        "time": 0,
        "note": 66,
        "velocity": 60,
        "channel": 0
      },
      {
        "type": "note_on",
        "time": 0,
        "note": 69,
        "velocity": 60,
        "channel": 0
      },
      {
        "type": "note_on",
        "time": 0,
        "note": 45,
        "velocity": 60,
        "channel": 0
      },
      {
        "type": "note_on",
        "time": 0,
        "note": 62,
        "velocity": 60,
        "channel": 0
      },
      {
        "type": "note_on",
        "time": 29,
        "note": 57,
        "velocity": 0,
        "channel": 0
      },
      {
        "type": "note_on",
        "time": 0,
        "note": 50,
        "velocity": 0,
        "channel": 0
      },
      {
        "type": "note_on",
        "time": 0,
        "note": 66,
        "velocity": 0,
        "channel": 0
      },
      {
        "type": "note_on",
        "time": 0,
        "note": 69,
        "velocity": 0,
        "channel": 0
      },
      {
        "type": "note_on",
        "time": 0,
        "note": 45,
        "velocity": 0,
        "channel": 0
      },
      {
        "type": "note_on",
        "time": 0,
        "note": 62,
        "velocity": 0,
        "channel": 0
      },
      {
        "type": "note_on",
        "time": 1,
        "note": 62,
        "velocity": 60,
        "channel": 0
      },
      {
        "type": "note_on",
        "time": 0,
        "note": 50,
        "velocity": 60,
        "channel": 0
      },
      {
        "type": "note_on",
        "time": 0,
        "note": 66,
        "velocity": 60,
        "channel": 0
      },
      {
        "type": "note_on",
        "time": 0,
        "note": 57,
        "velocity": 60,
        "channel": 0
      },
      {
        "type": "note_on",
        "time": 0,
        "note": 45,
        "velocity": 60,
        "channel": 0
      },
      {
        "type": "note_on",
        "time": 0,
        "note": 69,
        "velocity": 60,
        "channel": 0
      },
      {
        "type": "note_on",
        "time": 59,
        "note": 62,
        "velocity": 0,
        "channel": 0
      },
      {
        "type": "note_on",
        "time": 0,
        "note": 50,
        "velocity": 0,
        "channel": 0
      },
      {
        "type": "note_on",
        "time": 0,
        "note": 66,
        "velocity": 0,
        "channel": 0
      },
      {
        "type": "note_on",
        "time": 0,
        "note": 57,
        "velocity": 0,
        "channel": 0
      },
      {
        "type": "note_on",
        "time": 0,
        "note": 45,
        "velocity": 0,
        "channel": 0
      },
      {
        "type": "note_on",
        "time": 0,
        "note": 69,
        "velocity": 0,
        "channel": 0
      },
      {
        "type": "note_on",
        "time": 1,
        "note": 62,
        "velocity": 60,
        "channel": 0
      },
      {
        "type": "note_on",
        "time": 0,
        "note": 69,
        "velocity": 60,
        "channel": 0
      },
      {
        "type": "note_on",
        "time": 0,
        "note": 66,
        "velocity": 60,
        "channel": 0
      },
      {
        "type": "note_on",
        "time": 0,
        "note": 50,
        "velocity": 60,
        "channel": 0
      },
      {
        "type": "note_on",
        "time": 0,
        "note": 45,
        "velocity": 60,
        "channel": 0
      },
      {
        "type": "note_on",
        "time": 0,
        "note": 57,
        "velocity": 60,
        "channel": 0
      },
      {
        "type": "note_on",
        "time": 59,
        "note": 62,
        "velocity": 0,
        "channel": 0
      },
      {
        "type": "note_on",
        "time": 0,
        "note": 69,
        "velocity": 0,
        "channel": 0
      },
      {
        "type": "note_on",
        "time": 0,
        "note": 66,
        "velocity": 0,
        "channel": 0
      },
      {
        "type": "note_on",
        "time": 0,
        "note": 50,
        "velocity": 0,
        "channel": 0
      },
      {
        "type": "note_on",
        "time": 0,
        "note": 45,
        "velocity": 0,
        "channel": 0
      },
      {
        "type": "note_on",
        "time": 0,
        "note": 57,
        "velocity": 0,
        "channel": 0
      },
      {
        "type": "note_on",
        "time": 1,
        "note": 69,
        "velocity": 60,
        "channel": 0
      },
      {
        "type": "note_on",
        "time": 0,
        "note": 50,
        "velocity": 60,
        "channel": 0
      },
      {
        "type": "note_on",
        "time": 0,
        "note": 45,
        "velocity": 60,
        "channel": 0
      },
      {
        "type": "note_on",
        "time": 0,
        "note": 62,
        "velocity": 60,
        "channel": 0
      },
      {
        "type": "note_on",
        "time": 0,
        "note": 57,
        "velocity": 60,
        "channel": 0
      },
      {
        "type": "note_on",
        "time": 0,
        "note": 66,
        "velocity": 60,
        "channel": 0
      },
      {
        "type": "note_on",
        "time": 59,
        "note": 69,
        "velocity": 0,
        "channel": 0
      },
      {
        "type": "note_on",
        "time": 0,
        "note": 50,
        "velocity": 0,
        "channel": 0
      },
      {
        "type": "note_on",
        "time": 0,
        "note": 45,
        "velocity": 0,
        "channel": 0
      },
      {
        "type": "note_on",
        "time": 0,
        "note": 62,
        "velocity": 0,
        "channel": 0
      },
      {
        "type": "note_on",
        "time": 0,
        "note": 57,
        "velocity": 0,
        "channel": 0
      },
      {
        "type": "note_on",
        "time": 0,
        "note": 66,
        "velocity": 0,
        "channel": 0
      },
      {
        "type": "note_on",
        "time": 1,
        "note": 59,
        "velocity": 60,
        "channel": 0
      },
      {
        "type": "note_on",
        "time": 0,
        "note": 55,
        "velocity": 60,
        "channel": 0
      },
      {
        "type": "note_on",
        "time": 0,
        "note": 40,
        "velocity": 60,
        "channel": 0
      },
      {
        "type": "note_on",
        "time": 0,
        "note": 45,
        "velocity": 60,
        "channel": 0
      },
      {
        "type": "note_on",
        "time": 0,
        "note": 64,
        "velocity": 60,
        "channel": 0
      },
      {
        "type": "note_on",
        "time": 0,
        "note": 52,
        "velocity": 60,
        "channel": 0
      },
      {
        "type": "note_on",
        "time": 29,
        "note": 59,
        "velocity": 0,
        "channel": 0
      },
      {
        "type": "note_on",
        "time": 0,
        "note": 55,
        "velocity": 0,
        "channel": 0
      },
      {
        "type": "note_on",
        "time": 0,
        "note": 40,
        "velocity": 0,
        "channel": 0
      },
      {
        "type": "note_on",
        "time": 0,
        "note": 45,
        "velocity": 0,
        "channel": 0
      },
      {
        "type": "note_on",
        "time": 0,
        "note": 64,
        "velocity": 0,
        "channel": 0
      },
      {
        "type": "note_on",
        "time": 0,
        "note": 52,
        "velocity": 0,
        "channel": 0
      },
      {
        "type": "note_on",
        "time": 1,
        "note": 55,
        "velocity": 60,
        "channel": 0
      },
      {
        "type": "note_on",
        "time": 0,
        "note": 40,
        "velocity": 60,
        "channel": 0
      },
      {
        "type": "note_on",
        "time": 0,
        "note": 59,
        "velocity": 60,
        "channel": 0
      },
      {
        "type": "note_on",
        "time": 0,
        "note": 52,
        "velocity": 60,
        "channel": 0
      },
      {
        "type": "note_on",
        "time": 0,
        "note": 45,
        "velocity": 60,
        "channel": 0
      },
      {
        "type": "note_on",
        "time": 0,
        "note": 64,
        "velocity": 60,
        "channel": 0
      },
      {
        "type": "note_on",
        "time": 59,
        "note": 55,
        "velocity": 0,
        "channel": 0
      },
      {
        "type": "note_on",
        "time": 0,
        "note": 40,
        "velocity": 0,
        "channel": 0
      },
      {
        "type": "note_on",
        "time": 0,
        "note": 59,
        "velocity": 0,
        "channel": 0
      },
      {
        "type": "note_on",
        "time": 0,
        "note": 52,
        "velocity": 0,
        "channel": 0
      },
      {
        "type": "note_on",
        "time": 0,
        "note": 45,
        "velocity": 0,
        "channel": 0
      },
      {
        "type": "note_on",
        "time": 0,
        "note": 64,
        "velocity": 0,
        "channel": 0
      },
      {
        "type": "note_on",
        "time": 1,
        "note": 45,
        "velocity": 60,
        "channel": 0
      },
      {
        "type": "note_on",
        "time": 0,
        "note": 40,
        "velocity": 60,
        "channel": 0
      },
      {
        "type": "note_on",
        "time": 0,
        "note": 52,
        "velocity": 60,
        "channel": 0
      },
      {
        "type": "note_on",
        "time": 0,
        "note": 55,
        "velocity": 60,
        "channel": 0
      },
      {
        "type": "note_on",
        "time": 0,
        "note": 64,
        "velocity": 60,
        "channel": 0
      },
      {
        "type": "note_on",
        "time": 0,
        "note": 59,
        "velocity": 60,
        "channel": 0
      },
      {
        "type": "note_on",
        "time": 29,
        "note": 45,
        "velocity": 0,
        "channel": 0
      },
      {
        "type": "note_on",
        "time": 0,
        "note": 40,
        "velocity": 0,
        "channel": 0
      },
      {
        "type": "note_on",
        "time": 0,
        "note": 52,
        "velocity": 0,
        "channel": 0
      },
      {
        "type": "note_on",
        "time": 0,
        "note": 55,
        "velocity": 0,
        "channel": 0
      },
      {
        "type": "note_on",
        "time": 0,
        "note": 64,
        "velocity": 0,
        "channel": 0
      },
      {
        "type": "note_on",
        "time": 0,
        "note": 59,
        "velocity": 0,
        "channel": 0
      },
      {
        "type": "note_on",
        "time": 1,
        "note": 55,
        "velocity": 60,
        "channel": 0
      },
      {
        "type": "note_on",
        "time": 0,
        "note": 45,
        "velocity": 60,
        "channel": 0
      },
      {
        "type": "note_on",
        "time": 0,
        "note": 64,
        "velocity": 60,
        "channel": 0
      },
      {
        "type": "note_on",
        "time": 0,
        "note": 52,
        "velocity": 60,
        "channel": 0
      },
      {
        "type": "note_on",
        "time": 0,
        "note": 40,
        "velocity": 60,
        "channel": 0
      },
      {
        "type": "note_on",
        "time": 0,
        "note": 59,
        "velocity": 60,
        "channel": 0
      },
      {
        "type": "note_on",
        "time": 59,
        "note": 55,
        "velocity": 0,
        "channel": 0
      },
      {
        "type": "note_on",
        "time": 0,
        "note": 45,
        "velocity": 0,
        "channel": 0
      },
      {
        "type": "note_on",
        "time": 0,
        "note": 64,
        "velocity": 0,
        "channel": 0
      },
      {
        "type": "note_on",
        "time": 0,
        "note": 52,
        "velocity": 0,
        "channel": 0
      },
      {
        "type": "note_on",
        "time": 0,
        "note": 40,
        "velocity": 0,
        "channel": 0
      },
      {
        "type": "note_on",
        "time": 0,
        "note": 59,
        "velocity": 0,
        "channel": 0
      },
      {
        "type": "note_on",
        "time": 1,
        "note": 40,
        "velocity": 60,
        "channel": 0
      },
      {
        "type": "note_on",
        "time": 0,
        "note": 55,
        "velocity": 60,
        "channel": 0
      },
      {
        "type": "note_on",
        "time": 0,
        "note": 64,
        "velocity": 60,
        "channel": 0
      },
      {
        "type": "note_on",
        "time": 0,
        "note": 52,
        "velocity": 60,
        "channel": 0
      },
      {
        "type": "note_on",
        "time": 0,
        "note": 59,
        "velocity": 60,
        "channel": 0
      },
      {
        "type": "note_on",
        "time": 0,
        "note": 45,
        "velocity": 60,
        "channel": 0
      },
      {
        "type": "note_on",
        "time": 29,
        "note": 40,
        "velocity": 0,
        "channel": 0
      },
      {
        "type": "note_on",
        "time": 0,
        "note": 55,
        "velocity": 0,
        "channel": 0
      },
      {
        "type": "note_on",
        "time": 0,
        "note": 64,
        "velocity": 0,
        "channel": 0
      },
      {
        "type": "note_on",
        "time": 0,
        "note": 52,
        "velocity": 0,
        "channel": 0
      },
      {
        "type": "note_on",
        "time": 0,
        "note": 59,
        "velocity": 0,
        "channel": 0
      },
      {
        "type": "note_on",
        "time": 0,
        "note": 45,
        "velocity": 0,
        "channel": 0
      },
      {
        "type": "note_on",
        "time": 1,
        "note": 59,
        "velocity": 60,
        "channel": 0
      },
      {
        "type": "note_on",
        "time": 0,
        "note": 45,
        "velocity": 60,
        "channel": 0
      },
      {
        "type": "note_on",
        "time": 0,
        "note": 64,
        "velocity": 60,
        "channel": 0
      },
      {
        "type": "note_on",
        "time": 0,
        "note": 40,
        "velocity": 60,
        "channel": 0
      },
      {
        "type": "note_on",
        "time": 0,
        "note": 55,
        "velocity": 60,
        "channel": 0
      },
      {
        "type": "note_on",
        "time": 0,
        "note": 52,
        "velocity": 60,
        "channel": 0
      },
      {
        "type": "note_on",
        "time": 59,
        "note": 59,
        "velocity": 0,
        "channel": 0
      },
      {
        "type": "note_on",
        "time": 0,
        "note": 45,
        "velocity": 0,
        "channel": 0
      },
      {
        "type": "note_on",
        "time": 0,
        "note": 64,
        "velocity": 0,
        "channel": 0
      },
      {
        "type": "note_on",
        "time": 0,
        "note": 40,
        "velocity": 0,
        "channel": 0
      },
      {
        "type": "note_on",
        "time": 0,
        "note": 55,
        "velocity": 0,
        "channel": 0
      },
      {
        "type": "note_on",
        "time": 0,
        "note": 52,
        "velocity": 0,
        "channel": 0
      },
      {
        "type": "note_on",
        "time": 1,
        "note": 64,
        "velocity": 60,
        "channel": 0
      },
      {
        "type": "note_on",
        "time": 0,
        "note": 55,
        "velocity": 60,
        "channel": 0
      },
      {
        "type": "note_on",
        "time": 0,
        "note": 40,
        "velocity": 60,
        "channel": 0
      },
      {
        "type": "note_on",
        "time": 0,
        "note": 59,
        "velocity": 60,
        "channel": 0
      },
      {
        "type": "note_on",
        "time": 0,
        "note": 52,
        "velocity": 60,
        "channel": 0
      },
      {
        "type": "note_on",
        "time": 0,
        "note": 45,
        "velocity": 60,
        "channel": 0
      },
      {
        "type": "note_on",
        "time": 29,
        "note": 64,
        "velocity": 0,
        "channel": 0
      },
      {
        "type": "note_on",
        "time": 0,
        "note": 55,
        "velocity": 0,
        "channel": 0
      },
      {
        "type": "note_on",
        "time": 0,
        "note": 40,
        "velocity": 0,
        "channel": 0
      },
      {
        "type": "note_on",
        "time": 0,
        "note": 59,
        "velocity": 0,
        "channel": 0
      },
      {
        "type": "note_on",
        "time": 0,
        "note": 52,
        "velocity": 0,
        "channel": 0
      },
      {
        "type": "note_on",
        "time": 0,
        "note": 45,
        "velocity": 0,
        "channel": 0
      },
      {
        "type": "note_on",
        "time": 1,
        "note": 55,
        "velocity": 60,
        "channel": 0
      },
      {
        "type": "note_on",
        "time": 0,
        "note": 40,
        "velocity": 60,
        "channel": 0
      },
      {
        "type": "note_on",
        "time": 0,
        "note": 52,
        "velocity": 60,
        "channel": 0
      },
      {
        "type": "note_on",
        "time": 0,
        "note": 64,
        "velocity": 60,
        "channel": 0
      },
      {
        "type": "note_on",
        "time": 0,
        "note": 59,
        "velocity": 60,
        "channel": 0
      },
      {
        "type": "note_on",
        "time": 0,
        "note": 45,
        "velocity": 60,
        "channel": 0
      },
      {
        "type": "note_on",
        "time": 59,
        "note": 55,
        "velocity": 0,
        "channel": 0
      },
      {
        "type": "note_on",
        "time": 0,
        "note": 40,
        "velocity": 0,
        "channel": 0
      },
      {
        "type": "note_on",
        "time": 0,
        "note": 52,
        "velocity": 0,
        "channel": 0
      },
      {
        "type": "note_on",
        "time": 0,
        "note": 64,
        "velocity": 0,
        "channel": 0
      },
      {
        "type": "note_on",
        "time": 0,
        "note": 59,
        "velocity": 0,
        "channel": 0
      },
      {
        "type": "note_on",
        "time": 0,
        "note": 45,
        "velocity": 0,
        "channel": 0
      },
      {
        "type": "note_on",
        "time": 1,
        "note": 55,
        "velocity": 60,
        "channel": 0
      },
      {
        "type": "note_on",
        "time": 0,
        "note": 59,
        "velocity": 60,
        "channel": 0
      },
      {
        "type": "note_on",
        "time": 0,
        "note": 45,
        "velocity": 60,
        "channel": 0
      },
      {
        "type": "note_on",
        "time": 0,
        "note": 64,
        "velocity": 60,
        "channel": 0
      },
      {
        "type": "note_on",
        "time": 0,
        "note": 40,
        "velocity": 60,
        "channel": 0
      },
      {
        "type": "note_on",
        "time": 0,
        "note": 52,
        "velocity": 60,
        "channel": 0
      },
      {
        "type": "note_on",
        "time": 59,
        "note": 55,
        "velocity": 0,
        "channel": 0
      },
      {
        "type": "note_on",
        "time": 0,
        "note": 59,
        "velocity": 0,
        "channel": 0
      },
      {
        "type": "note_on",
        "time": 0,
        "note": 45,
        "velocity": 0,
        "channel": 0
      },
      {
        "type": "note_on",
        "time": 0,
        "note": 64,
        "velocity": 0,
        "channel": 0
      },
      {
        "type": "note_on",
        "time": 0,
        "note": 40,
        "velocity": 0,
        "channel": 0
      },
      {
        "type": "note_on",
        "time": 0,
        "note": 52,
        "velocity": 0,
        "channel": 0
      },
      {
        "type": "note_on",
        "time": 1,
        "note": 45,
        "velocity": 60,
        "channel": 0
      },
      {
        "type": "note_on",
        "time": 0,
        "note": 40,
        "velocity": 60,
        "channel": 0
      },
      {
        "type": "note_on",
        "time": 0,
        "note": 55,
        "velocity": 60,
        "channel": 0
      },
      {
        "type": "note_on",
        "time": 0,
        "note": 64,
        "velocity": 60,
        "channel": 0
      },
      {
        "type": "note_on",
        "time": 0,
        "note": 52,
        "velocity": 60,
        "channel": 0
      },
      {
        "type": "note_on",
        "time": 0,
        "note": 59,
        "velocity": 60,
        "channel": 0
      },
      {
        "type": "note_on",
        "time": 59,
        "note": 45,
        "velocity": 0,
        "channel": 0
      },
      {
        "type": "note_on",
        "time": 0,
        "note": 40,
        "velocity": 0,
        "channel": 0
      },
      {
        "type": "note_on",
        "time": 0,
        "note": 55,
        "velocity": 0,
        "channel": 0
      },
      {
        "type": "note_on",
        "time": 0,
        "note": 64,
        "velocity": 0,
        "channel": 0
      },
      {
        "type": "note_on",
        "time": 0,
        "note": 52,
        "velocity": 0,
        "channel": 0
      },
      {
        "type": "note_on",
        "time": 0,
        "note": 59,
        "velocity": 0,
        "channel": 0
      },
      {
        "type": "note_on",
        "time": 1,
        "note": 61,
        "velocity": 60,
        "channel": 0
      },
      {
        "type": "note_on",
        "time": 0,
        "note": 58,
        "velocity": 60,
        "channel": 0
      },
      {
        "type": "note_on",
        "time": 0,
        "note": 54,
        "velocity": 60,
        "channel": 0
      },
      {
        "type": "note_on",
        "time": 0,
        "note": 42,
        "velocity": 60,
        "channel": 0
      },
      {
        "type": "note_on",
        "time": 0,
        "note": 49,
        "velocity": 60,
        "channel": 0
      },
      {
        "type": "note_on",
        "time": 0,
        "note": 66,
        "velocity": 60,
        "channel": 0
      },
      {
        "type": "note_on",
        "time": 29,
        "note": 61,
        "velocity": 0,
        "channel": 0
      },
      {
        "type": "note_on",
        "time": 0,
        "note": 58,
        "velocity": 0,
        "channel": 0
      },
      {
        "type": "note_on",
        "time": 0,
        "note": 54,
        "velocity": 0,
        "channel": 0
      },
      {
        "type": "note_on",
        "time": 0,
        "note": 42,
        "velocity": 0,
        "channel": 0
      },
      {
        "type": "note_on",
        "time": 0,
        "note": 49,
        "velocity": 0,
        "channel": 0
      },
      {
        "type": "note_on",
        "time": 0,
        "note": 66,
        "velocity": 0,
        "channel": 0
      },
      {
        "type": "note_on",
        "time": 1,
        "note": 58,
        "velocity": 60,
        "channel": 0
      },
      {
        "type": "note_on",
        "time": 0,
        "note": 42,
        "velocity": 60,
        "channel": 0
      },
      {
        "type": "note_on",
        "time": 0,
        "note": 49,
        "velocity": 60,
        "channel": 0
      },
      {
        "type": "note_on",
        "time": 0,
        "note": 61,
        "velocity": 60,
        "channel": 0
      },
      {
        "type": "note_on",
        "time": 0,
        "note": 54,
        "velocity": 60,
        "channel": 0
      },
      {
        "type": "note_on",
        "time": 0,
        "note": 66,
        "velocity": 60,
        "channel": 0
      },
      {
        "type": "note_on",
        "time": 59,
        "note": 58,
        "velocity": 0,
        "channel": 0
      },
      {
        "type": "note_on",
        "time": 0,
        "note": 42,
        "velocity": 0,
        "channel": 0
      },
      {
        "type": "note_on",
        "time": 0,
        "note": 49,
        "velocity": 0,
        "channel": 0
      },
      {
        "type": "note_on",
        "time": 0,
        "note": 61,
        "velocity": 0,
        "channel": 0
      },
      {
        "type": "note_on",
        "time": 0,
        "note": 54,
        "velocity": 0,
        "channel": 0
      },
      {
        "type": "note_on",
        "time": 0,
        "note": 66,
        "velocity": 0,
        "channel": 0
      },
      {
        "type": "note_on",
        "time": 1,
        "note": 66,
        "velocity": 60,
        "channel": 0
      },
      {
        "type": "note_on",
        "time": 0,
        "note": 58,
        "velocity": 60,
        "channel": 0
      },
      {
        "type": "note_on",
        "time": 0,
        "note": 49,
        "velocity": 60,
        "channel": 0
      },
      {
        "type": "note_on",
        "time": 0,
        "note": 54,
        "velocity": 60,
        "channel": 0
      },
      {
        "type": "note_on",
        "time": 0,
        "note": 42,
        "velocity": 60,
        "channel": 0
      },
      {
        "type": "note_on",
        "time": 0,
        "note": 61,
        "velocity": 60,
        "channel": 0
      },
      {
        "type": "note_on",
        "time": 29,
        "note": 66,
        "velocity": 0,
        "channel": 0
      },
      {
        "type": "note_on",
        "time": 0,
        "note": 58,
        "velocity": 0,
        "channel": 0
      },
      {
        "type": "note_on",
        "time": 0,
        "note": 49,
        "velocity": 0,
        "channel": 0
      },
      {
        "type": "note_on",
        "time": 0,
        "note": 54,
        "velocity": 0,
        "channel": 0
      },
      {
        "type": "note_on",
        "time": 0,
        "note": 42,
        "velocity": 0,
        "channel": 0
      },
      {
        "type": "note_on",
        "time": 0,
        "note": 61,
        "velocity": 0,
        "channel": 0
      },
      {
        "type": "note_on",
        "time": 1,
        "note": 42,
        "velocity": 60,
        "channel": 0
      },
      {
        "type": "note_on",
        "time": 0,
        "note": 61,
        "velocity": 60,
        "channel": 0
      },
      {
        "type": "note_on",
        "time": 0,
        "note": 54,
        "velocity": 60,
        "channel": 0
      },
      {
        "type": "note_on",
        "time": 0,
        "note": 49,
        "velocity": 60,
        "channel": 0
      },
      {
        "type": "note_on",
        "time": 0,
        "note": 58,
        "velocity": 60,
        "channel": 0
      },
      {
        "type": "note_on",
        "time": 0,
        "note": 66,
        "velocity": 60,
        "channel": 0
      },
      {
        "type": "note_on",
        "time": 59,
        "note": 42,
        "velocity": 0,
        "channel": 0
      },
      {
        "type": "note_on",
        "time": 0,
        "note": 61,
        "velocity": 0,
        "channel": 0
      },
      {
        "type": "note_on",
        "time": 0,
        "note": 54,
        "velocity": 0,
        "channel": 0
      },
      {
        "type": "note_on",
        "time": 0,
        "note": 49,
        "velocity": 0,
        "channel": 0
      },
      {
        "type": "note_on",
        "time": 0,
        "note": 58,
        "velocity": 0,
        "channel": 0
      },
      {
        "type": "note_on",
        "time": 0,
        "note": 66,
        "velocity": 0,
        "channel": 0
      },
      {
        "type": "note_on",
        "time": 1,
        "note": 42,
        "velocity": 60,
        "channel": 0
      },
      {
        "type": "note_on",
        "time": 0,
        "note": 54,
        "velocity": 60,
        "channel": 0
      },
      {
        "type": "note_on",
        "time": 0,
        "note": 58,
        "velocity": 60,
        "channel": 0
      },
      {
        "type": "note_on",
        "time": 0,
        "note": 49,
        "velocity": 60,
        "channel": 0
      },
      {
        "type": "note_on",
        "time": 0,
        "note": 66,
        "velocity": 60,
        "channel": 0
      },
      {
        "type": "note_on",
        "time": 0,
        "note": 61,
        "velocity": 60,
        "channel": 0
      },
      {
        "type": "note_on",
        "time": 29,
        "note": 42,
        "velocity": 0,
        "channel": 0
      },
      {
        "type": "note_on",
        "time": 0,
        "note": 54,
        "velocity": 0,
        "channel": 0
      },
      {
        "type": "note_on",
        "time": 0,
        "note": 58,
        "velocity": 0,
        "channel": 0
      },
      {
        "type": "note_on",
        "time": 0,
        "note": 49,
        "velocity": 0,
        "channel": 0
      },
      {
        "type": "note_on",
        "time": 0,
        "note": 66,
        "velocity": 0,
        "channel": 0
      },
      {
        "type": "note_on",
        "time": 0,
        "note": 61,
        "velocity": 0,
        "channel": 0
      },
      {
        "type": "note_on",
        "time": 1,
        "note": 66,
        "velocity": 60,
        "channel": 0
      },
      {
        "type": "note_on",
        "time": 0,
        "note": 61,
        "velocity": 60,
        "channel": 0
      },
      {
        "type": "note_on",
        "time": 0,
        "note": 58,
        "velocity": 60,
        "channel": 0
      },
      {
        "type": "note_on",
        "time": 0,
        "note": 49,
        "velocity": 60,
        "channel": 0
      },
      {
        "type": "note_on",
        "time": 0,
        "note": 42,
        "velocity": 60,
        "channel": 0
      },
      {
        "type": "note_on",
        "time": 0,
        "note": 54,
        "velocity": 60,
        "channel": 0
      },
      {
        "type": "note_on",
        "time": 59,
        "note": 66,
        "velocity": 0,
        "channel": 0
      },
      {
        "type": "note_on",
        "time": 0,
        "note": 61,
        "velocity": 0,
        "channel": 0
      },
      {
        "type": "note_on",
        "time": 0,
        "note": 58,
        "velocity": 0,
        "channel": 0
      },
      {
        "type": "note_on",
        "time": 0,
        "note": 49,
        "velocity": 0,
        "channel": 0
      },
      {
        "type": "note_on",
        "time": 0,
        "note": 42,
        "velocity": 0,
        "channel": 0
      },
      {
        "type": "note_on",
        "time": 0,
        "note": 54,
        "velocity": 0,
        "channel": 0
      },
      {
        "type": "note_on",
        "time": 1,
        "note": 54,
        "velocity": 60,
        "channel": 0
      },
      {
        "type": "note_on",
        "time": 0,
        "note": 49,
        "velocity": 60,
        "channel": 0
      },
      {
        "type": "note_on",
        "time": 0,
        "note": 61,
        "velocity": 60,
        "channel": 0
      },
      {
        "type": "note_on",
        "time": 0,
        "note": 66,
        "velocity": 60,
        "channel": 0
      },
      {
        "type": "note_on",
        "time": 0,
        "note": 42,
        "velocity": 60,
        "channel": 0
      },
      {
        "type": "note_on",
        "time": 0,
        "note": 58,
        "velocity": 60,
        "channel": 0
      },
      {
        "type": "note_on",
        "time": 29,
        "note": 54,
        "velocity": 0,
        "channel": 0
      },
      {
        "type": "note_on",
        "time": 0,
        "note": 49,
        "velocity": 0,
        "channel": 0
      },
      {
        "type": "note_on",
        "time": 0,
        "note": 61,
        "velocity": 0,
        "channel": 0
      },
      {
        "type": "note_on",
        "time": 0,
        "note": 66,
        "velocity": 0,
        "channel": 0
      },
      {
        "type": "note_on",
        "time": 0,
        "note": 42,
        "velocity": 0,
        "channel": 0
      },
      {
        "type": "note_on",
        "time": 0,
        "note": 58,
        "velocity": 0,
        "channel": 0
      },
      {
        "type": "note_on",
        "time": 1,
        "note": 58,
        "velocity": 60,
        "channel": 0
      },
      {
        "type": "note_on",
        "time": 0,
        "note": 49,
        "velocity": 60,
        "channel": 0
      },
      {
        "type": "note_on",
        "time": 0,
        "note": 61,
        "velocity": 60,
        "channel": 0
      },
      {
        "type": "note_on",
        "time": 0,
        "note": 54,
        "velocity": 60,
        "channel": 0
      },
      {
        "type": "note_on",
        "time": 0,
        "note": 42,
        "velocity": 60,
        "channel": 0
      },
      {
        "type": "note_on",
        "time": 0,
        "note": 66,
        "velocity": 60,
        "channel": 0
      },
      {
        "type": "note_on",
        "time": 59,
        "note": 58,
        "velocity": 0,
        "channel": 0
      },
      {
        "type": "note_on",
        "time": 0,
        "note": 49,
        "velocity": 0,
        "channel": 0
      },
      {
        "type": "note_on",
        "time": 0,
        "note": 61,
        "velocity": 0,
        "channel": 0
      },
      {
        "type": "note_on",
        "time": 0,
        "note": 54,
        "velocity": 0,
        "channel": 0
      },
      {
        "type": "note_on",
        "time": 0,
        "note": 42,
        "velocity": 0,
        "channel": 0
      },
      {
        "type": "note_on",
        "time": 0,
        "note": 66,
        "velocity": 0,
        "channel": 0
      },
      {
        "type": "note_on",
        "time": 1,
        "note": 58,
        "velocity": 60,
        "channel": 0
      },
      {
        "type": "note_on",
        "time": 0,
        "note": 66,
        "velocity": 60,
        "channel": 0
      },
      {
        "type": "note_on",
        "time": 0,
        "note": 61,
        "velocity": 60,
        "channel": 0
      },
      {
        "type": "note_on",
        "time": 0,
        "note": 49,
        "velocity": 60,
        "channel": 0
      },
      {
        "type": "note_on",
        "time": 0,
        "note": 42,
        "velocity": 60,
        "channel": 0
      },
      {
        "type": "note_on",
        "time": 0,
        "note": 54,
        "velocity": 60,
        "channel": 0
      },
      {
        "type": "note_on",
        "time": 59,
        "note": 58,
        "velocity": 0,
        "channel": 0
      },
      {
        "type": "note_on",
        "time": 0,
        "note": 66,
        "velocity": 0,
        "channel": 0
      },
      {
        "type": "note_on",
        "time": 0,
        "note": 61,
        "velocity": 0,
        "channel": 0
      },
      {
        "type": "note_on",
        "time": 0,
        "note": 49,
        "velocity": 0,
        "channel": 0
      },
      {
        "type": "note_on",
        "time": 0,
        "note": 42,
        "velocity": 0,
        "channel": 0
      },
      {
        "type": "note_on",
        "time": 0,
        "note": 54,
        "velocity": 0,
        "channel": 0
      },
      {
        "type": "note_on",
        "time": 1,
        "note": 66,
        "velocity": 60,
        "channel": 0
      },
      {
        "type": "note_on",
        "time": 0,
        "note": 49,
        "velocity": 60,
        "channel": 0
      },
      {
        "type": "note_on",
        "time": 0,
        "note": 42,
        "velocity": 60,
        "channel": 0
      },
      {
        "type": "note_on",
        "time": 0,
        "note": 58,
        "velocity": 60,
        "channel": 0
      },
      {
        "type": "note_on",
        "time": 0,
        "note": 54,
        "velocity": 60,
        "channel": 0
      },
      {
        "type": "note_on",
        "time": 0,
        "note": 61,
        "velocity": 60,
        "channel": 0
      },
      {
        "type": "note_on",
        "time": 59,
        "note": 66,
        "velocity": 0,
        "channel": 0
      },
      {
        "type": "note_on",
        "time": 0,
        "note": 49,
        "velocity": 0,
        "channel": 0
      },
      {
        "type": "note_on",
        "time": 0,
        "note": 42,
        "velocity": 0,
        "channel": 0
      },
      {
        "type": "note_on",
        "time": 0,
        "note": 58,
        "velocity": 0,
        "channel": 0
      },
      {
        "type": "note_on",
        "time": 0,
        "note": 54,
        "velocity": 0,
        "channel": 0
      },
      {
        "type": "note_on",
        "time": 0,
        "note": 61,
        "velocity": 0,
        "channel": 0
      },
      {
        "type": "note_on",
        "time": 1,
        "note": 62,
        "velocity": 60,
        "channel": 0
      },
      {
        "type": "note_on",
        "time": 0,
        "note": 59,
        "velocity": 60,
        "channel": 0
      },
      {
        "type": "note_on",
        "time": 0,
        "note": 42,
        "velocity": 60,
        "channel": 0
      },
      {
        "type": "note_on",
        "time": 0,
        "note": 47,
        "velocity": 60,
        "channel": 0
      },
      {
        "type": "note_on",
        "time": 0,
        "note": 66,
        "velocity": 60,
        "channel": 0
      },
      {
        "type": "note_on",
        "time": 0,
        "note": 54,
        "velocity": 60,
        "channel": 0
      },
      {
        "type": "note_on",
        "time": 29,
        "note": 62,
        "velocity": 0,
        "channel": 0
      },
      {
        "type": "note_on",
        "time": 0,
        "note": 59,
        "velocity": 0,
        "channel": 0
      },
      {
        "type": "note_on",
        "time": 0,
        "note": 42,
        "velocity": 0,
        "channel": 0
      },
      {
        "type": "note_on",
        "time": 0,
        "note": 47,
        "velocity": 0,
        "channel": 0
      },
      {
        "type": "note_on",
        "time": 0,
        "note": 66,
        "velocity": 0,
        "channel": 0
      },
      {
        "type": "note_on",
        "time": 0,
        "note": 54,
        "velocity": 0,
        "channel": 0
      },
      {
        "type": "note_on",
        "time": 1,
        "note": 59,
        "velocity": 60,
        "channel": 0
      },
      {
        "type": "note_on",
        "time": 0,
        "note": 42,
        "velocity": 60,
        "channel": 0
      },
      {
        "type": "note_on",
        "time": 0,
        "note": 62,
        "velocity": 60,
        "channel": 0
      },
      {
        "type": "note_on",
        "time": 0,
        "note": 54,
        "velocity": 60,
        "channel": 0
      },
      {
        "type": "note_on",
        "time": 0,
        "note": 47,
        "velocity": 60,
        "channel": 0
      },
      {
        "type": "note_on",
        "time": 0,
        "note": 66,
        "velocity": 60,
        "channel": 0
      },
      {
        "type": "note_on",
        "time": 59,
        "note": 59,
        "velocity": 0,
        "channel": 0
      },
      {
        "type": "note_on",
        "time": 0,
        "note": 42,
        "velocity": 0,
        "channel": 0
      },
      {
        "type": "note_on",
        "time": 0,
        "note": 62,
        "velocity": 0,
        "channel": 0
      },
      {
        "type": "note_on",
        "time": 0,
        "note": 54,
        "velocity": 0,
        "channel": 0
      },
      {
        "type": "note_on",
        "time": 0,
        "note": 47,
        "velocity": 0,
        "channel": 0
      },
      {
        "type": "note_on",
        "time": 0,
        "note": 66,
        "velocity": 0,
        "channel": 0
      },
      {
        "type": "note_on",
        "time": 1,
        "note": 47,
        "velocity": 60,
        "channel": 0
      },
      {
        "type": "note_on",
        "time": 0,
        "note": 42,
        "velocity": 60,
        "channel": 0
      },
      {
        "type": "note_on",
        "time": 0,
        "note": 54,
        "velocity": 60,
        "channel": 0
      },
      {
        "type": "note_on",
        "time": 0,
        "note": 59,
        "velocity": 60,
        "channel": 0
      },
      {
        "type": "note_on",
        "time": 0,
        "note": 66,
        "velocity": 60,
        "channel": 0
      },
      {
        "type": "note_on",
        "time": 0,
        "note": 62,
        "velocity": 60,
        "channel": 0
      },
      {
        "type": "note_on",
        "time": 29,
        "note": 47,
        "velocity": 0,
        "channel": 0
      },
      {
        "type": "note_on",
        "time": 0,
        "note": 42,
        "velocity": 0,
        "channel": 0
      },
      {
        "type": "note_on",
        "time": 0,
        "note": 54,
        "velocity": 0,
        "channel": 0
      },
      {
        "type": "note_on",
        "time": 0,
        "note": 59,
        "velocity": 0,
        "channel": 0
      },
      {
        "type": "note_on",
        "time": 0,
        "note": 66,
        "velocity": 0,
        "channel": 0
      },
      {
        "type": "note_on",
        "time": 0,
        "note": 62,
        "velocity": 0,
        "channel": 0
      },
      {
        "type": "note_on",
        "time": 1,
        "note": 59,
        "velocity": 60,
        "channel": 0
      },
      {
        "type": "note_on",
        "time": 0,
        "note": 47,
        "velocity": 60,
        "channel": 0
      },
      {
        "type": "note_on",
        "time": 0,
        "note": 66,
        "velocity": 60,
        "channel": 0
      },
      {
        "type": "note_on",
        "time": 0,
        "note": 54,
        "velocity": 60,
        "channel": 0
      },
      {
        "type": "note_on",
        "time": 0,
        "note": 42,
        "velocity": 60,
        "channel": 0
      },
      {
        "type": "note_on",
        "time": 0,
        "note": 62,
        "velocity": 60,
        "channel": 0
      },
      {
        "type": "control_change",
        "time": 0,
        "control": 7,
        "value": 90,
        "channel": 0
      },
      {
        "type": "note_on",
        "time": 59,
        "note": 59,
        "velocity": 0,
        "channel": 0
      },
      {
        "type": "note_on",
        "time": 0,
        "note": 47,
        "velocity": 0,
        "channel": 0
      },
      {
        "type": "note_on",
        "time": 0,
        "note": 66,
        "velocity": 0,
        "channel": 0
      },
      {
        "type": "note_on",
        "time": 0,
        "note": 54,
        "velocity": 0,
        "channel": 0
      },
      {
        "type": "note_on",
        "time": 0,
        "note": 42,
        "velocity": 0,
        "channel": 0
      },
      {
        "type": "note_on",
        "time": 0,
        "note": 62,
        "velocity": 0,
        "channel": 0
      },
      {
        "type": "note_on",
        "time": 1,
        "note": 59,
        "velocity": 60,
        "channel": 0
      },
      {
        "type": "note_on",
        "time": 0,
        "note": 42,
        "velocity": 60,
        "channel": 0
      },
      {
        "type": "note_on",
        "time": 0,
        "note": 54,
        "velocity": 60,
        "channel": 0
      },
      {
        "type": "note_on",
        "time": 0,
        "note": 62,
        "velocity": 60,
        "channel": 0
      },
      {
        "type": "note_on",
        "time": 0,
        "note": 47,
        "velocity": 60,
        "channel": 0
      },
      {
        "type": "note_on",
        "time": 0,
        "note": 66,
        "velocity": 60,
        "channel": 0
      },
      {
        "type": "note_on",
        "time": 29,
        "note": 59,
        "velocity": 0,
        "channel": 0
      },
      {
        "type": "note_on",
        "time": 0,
        "note": 42,
        "velocity": 0,
        "channel": 0
      },
      {
        "type": "note_on",
        "time": 0,
        "note": 54,
        "velocity": 0,
        "channel": 0
      },
      {
        "type": "note_on",
        "time": 0,
        "note": 62,
        "velocity": 0,
        "channel": 0
      },
      {
        "type": "note_on",
        "time": 0,
        "note": 47,
        "velocity": 0,
        "channel": 0
      },
      {
        "type": "note_on",
        "time": 0,
        "note": 66,
        "velocity": 0,
        "channel": 0
      },
      {
        "type": "note_on",
        "time": 1,
        "note": 62,
        "velocity": 60,
        "channel": 0
      },
      {
        "type": "note_on",
        "time": 0,
        "note": 66,
        "velocity": 60,
        "channel": 0
      },
      {
        "type": "note_on",
        "time": 0,
        "note": 42,
        "velocity": 60,
        "channel": 0
      },
      {
        "type": "note_on",
        "time": 0,
        "note": 59,
        "velocity": 60,
        "channel": 0
      },
      {
        "type": "note_on",
        "time": 0,
        "note": 47,
        "velocity": 60,
        "channel": 0
      },
      {
        "type": "note_on",
        "time": 0,
        "note": 54,
        "velocity": 60,
        "channel": 0
      },
      {
        "type": "control_change",
        "time": 30,
        "control": 7,
        "value": 87,
        "channel": 0
      },
      {
        "type": "note_on",
        "time": 29,
        "note": 62,
        "velocity": 0,
        "channel": 0
      },
      {
        "type": "note_on",
        "time": 0,
        "note": 66,
        "velocity": 0,
        "channel": 0
      },
      {
        "type": "note_on",
        "time": 0,
        "note": 42,
        "velocity": 0,
        "channel": 0
      },
      {
        "type": "note_on",
        "time": 0,
        "note": 59,
        "velocity": 0,
        "channel": 0
      },
      {
        "type": "note_on",
        "time": 0,
        "note": 47,
        "velocity": 0,
        "channel": 0
      },
      {
        "type": "note_on",
        "time": 0,
        "note": 54,
        "velocity": 0,
        "channel": 0
      },
      {
        "type": "note_on",
        "time": 1,
        "note": 42,
        "velocity": 60,
        "channel": 0
      },
      {
        "type": "note_on",
        "time": 0,
        "note": 62,
        "velocity": 60,
        "channel": 0
      },
      {
        "type": "note_on",
        "time": 0,
        "note": 54,
        "velocity": 60,
        "channel": 0
      },
      {
        "type": "note_on",
        "time": 0,
        "note": 59,
        "velocity": 60,
        "channel": 0
      },
      {
        "type": "note_on",
        "time": 0,
        "note": 66,
        "velocity": 60,
        "channel": 0
      },
      {
        "type": "note_on",
        "time": 0,
        "note": 47,
        "velocity": 60,
        "channel": 0
      },
      {
        "type": "note_on",
        "time": 29,
        "note": 42,
        "velocity": 0,
        "channel": 0
      },
      {
        "type": "note_on",
        "time": 0,
        "note": 62,
        "velocity": 0,
        "channel": 0
      },
      {
        "type": "note_on",
        "time": 0,
        "note": 54,
        "velocity": 0,
        "channel": 0
      },
      {
        "type": "note_on",
        "time": 0,
        "note": 59,
        "velocity": 0,
        "channel": 0
      },
      {
        "type": "note_on",
        "time": 0,
        "note": 66,
        "velocity": 0,
        "channel": 0
      },
      {
        "type": "note_on",
        "time": 0,
        "note": 47,
        "velocity": 0,
        "channel": 0
      },
      {
        "type": "note_on",
        "time": 1,
        "note": 54,
        "velocity": 60,
        "channel": 0
      },
      {
        "type": "note_on",
        "time": 0,
        "note": 42,
        "velocity": 60,
        "channel": 0
      },
      {
        "type": "note_on",
        "time": 0,
        "note": 59,
        "velocity": 60,
        "channel": 0
      },
      {
        "type": "note_on",
        "time": 0,
        "note": 47,
        "velocity": 60,
        "channel": 0
      },
      {
        "type": "note_on",
        "time": 0,
        "note": 66,
        "velocity": 60,
        "channel": 0
      },
      {
        "type": "note_on",
        "time": 0,
        "note": 62,
        "velocity": 60,
        "channel": 0
      },
      {
        "type": "note_on",
        "time": 59,
        "note": 54,
        "velocity": 0,
        "channel": 0
      },
      {
        "type": "note_on",
        "time": 0,
        "note": 42,
        "velocity": 0,
        "channel": 0
      },
      {
        "type": "note_on",
        "time": 0,
        "note": 59,
        "velocity": 0,
        "channel": 0
      },
      {
        "type": "note_on",
        "time": 0,
        "note": 47,
        "velocity": 0,
        "channel": 0
      },
      {
        "type": "note_on",
        "time": 0,
        "note": 66,
        "velocity": 0,
        "channel": 0
      },
      {
        "type": "note_on",
        "time": 0,
        "note": 62,
        "velocity": 0,
        "channel": 0
      },
      {
        "type": "note_on",
        "time": 1,
        "note": 59,
        "velocity": 60,
        "channel": 0
      },
      {
        "type": "note_on",
        "time": 0,
        "note": 62,
        "velocity": 60,
        "channel": 0
      },
      {
        "type": "note_on",
        "time": 0,
        "note": 42,
        "velocity": 60,
        "channel": 0
      },
      {
        "type": "note_on",
        "time": 0,
        "note": 54,
        "velocity": 60,
        "channel": 0
      },
      {
        "type": "note_on",
        "time": 0,
        "note": 47,
        "velocity": 60,
        "channel": 0
      },
      {
        "type": "note_on",
        "time": 0,
        "note": 66,
        "velocity": 60,
        "channel": 0
      },
      {
        "type": "control_change",
        "time": 0,
        "control": 7,
        "value": 84,
        "channel": 0
      },
      {
        "type": "note_on",
        "time": 59,
        "note": 59,
        "velocity": 0,
        "channel": 0
      },
      {
        "type": "note_on",
        "time": 0,
        "note": 62,
        "velocity": 0,
        "channel": 0
      },
      {
        "type": "note_on",
        "time": 0,
        "note": 42,
        "velocity": 0,
        "channel": 0
      },
      {
        "type": "note_on",
        "time": 0,
        "note": 54,
        "velocity": 0,
        "channel": 0
      },
      {
        "type": "note_on",
        "time": 0,
        "note": 47,
        "velocity": 0,
        "channel": 0
      },
      {
        "type": "note_on",
        "time": 0,
        "note": 66,
        "velocity": 0,
        "channel": 0
      },
      {
        "type": "note_on",
        "time": 1,
        "note": 66,
        "velocity": 60,
        "channel": 0
      },
      {
        "type": "note_on",
        "time": 0,
        "note": 54,
        "velocity": 60,
        "channel": 0
      },
      {
        "type": "note_on",
        "time": 0,
        "note": 62,
        "velocity": 60,
        "channel": 0
      },
      {
        "type": "note_on",
        "time": 0,
        "note": 47,
        "velocity": 60,
        "channel": 0
      },
      {
        "type": "note_on",
        "time": 0,
        "note": 42,
        "velocity": 60,
        "channel": 0
      },
      {
        "type": "note_on",
        "time": 0,
        "note": 59,
        "velocity": 60,
        "channel": 0
      },
      {
        "type": "note_on",
        "time": 59,
        "note": 66,
        "velocity": 0,
        "channel": 0
      },
      {
        "type": "note_on",
        "time": 0,
        "note": 54,
        "velocity": 0,
        "channel": 0
      },
      {
        "type": "note_on",
        "time": 0,
        "note": 62,
        "velocity": 0,
        "channel": 0
      },
      {
        "type": "note_on",
        "time": 0,
        "note": 47,
        "velocity": 0,
        "channel": 0
      },
      {
        "type": "note_on",
        "time": 0,
        "note": 42,
        "velocity": 0,
        "channel": 0
      },
      {
        "type": "note_on",
        "time": 0,
        "note": 59,
        "velocity": 0,
        "channel": 0
      },
      {
        "type": "note_on",
        "time": 1,
        "note": 42,
        "velocity": 60,
        "channel": 0
      },
      {
        "type": "note_on",
        "time": 0,
        "note": 61,
        "velocity": 60,
        "channel": 0
      },
      {
        "type": "note_on",
        "time": 0,
        "note": 58,
        "velocity": 60,
        "channel": 0
      },
      {
        "type": "note_on",
        "time": 0,
        "note": 54,
        "velocity": 60,
        "channel": 0
      },
      {
        "type": "control_change",
        "time": 0,
        "control": 7,
        "value": 81,
        "channel": 0
      },
      {
        "type": "note_on",
        "time": 0,
        "note": 66,
        "velocity": 60,
        "channel": 0
      },
      {
        "type": "note_on",
        "time": 0,
        "note": 49,
        "velocity": 60,
        "channel": 0
      },
      {
        "type": "note_on",
        "time": 29,
        "note": 42,
        "velocity": 0,
        "channel": 0
      },
      {
        "type": "note_on",
        "time": 0,
        "note": 61,
        "velocity": 0,
        "channel": 0
      },
      {
        "type": "note_on",
        "time": 0,
        "note": 58,
        "velocity": 0,
        "channel": 0
      },
      {
        "type": "note_on",
        "time": 0,
        "note": 54,
        "velocity": 0,
        "channel": 0
      },
      {
        "type": "note_on",
        "time": 0,
        "note": 66,
        "velocity": 0,
        "channel": 0
      },
      {
        "type": "note_on",
        "time": 0,
        "note": 49,
        "velocity": 0,
        "channel": 0
      },
      {
        "type": "note_on",
        "time": 1,
        "note": 49,
        "velocity": 60,
        "channel": 0
      },
      {
        "type": "note_on",
        "time": 0,
        "note": 66,
        "velocity": 60,
        "channel": 0
      },
      {
        "type": "note_on",
        "time": 0,
        "note": 42,
        "velocity": 60,
        "channel": 0
      },
      {
        "type": "note_on",
        "time": 0,
        "note": 61,
        "velocity": 60,
        "channel": 0
      },
      {
        "type": "note_on",
        "time": 0,
        "note": 54,
        "velocity": 60,
        "channel": 0
      },
      {
        "type": "note_on",
        "time": 0,
        "note": 58,
        "velocity": 60,
        "channel": 0
      },
      {
        "type": "note_on",
        "time": 59,
        "note": 49,
        "velocity": 0,
        "channel": 0
      },
      {
        "type": "note_on",
        "time": 0,
        "note": 66,
        "velocity": 0,
        "channel": 0
      },
      {
        "type": "note_on",
        "time": 0,
        "note": 42,
        "velocity": 0,
        "channel": 0
      },
      {
        "type": "note_on",
        "time": 0,
        "note": 61,
        "velocity": 0,
        "channel": 0
      },
      {
        "type": "note_on",
        "time": 0,
        "note": 54,
        "velocity": 0,
        "channel": 0
      },
      {
        "type": "note_on",
        "time": 0,
        "note": 58,
        "velocity": 0,
        "channel": 0
      },
      {
        "type": "note_on",
        "time": 1,
        "note": 66,
        "velocity": 60,
        "channel": 0
      },
      {
        "type": "note_on",
        "time": 0,
        "note": 61,
        "velocity": 60,
        "channel": 0
      },
      {
        "type": "note_on",
        "time": 0,
        "note": 42,
        "velocity": 60,
        "channel": 0
      },
      {
        "type": "note_on",
        "time": 0,
        "note": 58,
        "velocity": 60,
        "channel": 0
      },
      {
        "type": "note_on",
        "time": 0,
        "note": 49,
        "velocity": 60,
        "channel": 0
      },
      {
        "type": "note_on",
        "time": 0,
        "note": 54,
        "velocity": 60,
        "channel": 0
      },
      {
        "type": "note_on",
        "time": 29,
        "note": 66,
        "velocity": 0,
        "channel": 0
      },
      {
        "type": "note_on",
        "time": 0,
        "note": 61,
        "velocity": 0,
        "channel": 0
      },
      {
        "type": "note_on",
        "time": 0,
        "note": 42,
        "velocity": 0,
        "channel": 0
      },
      {
        "type": "note_on",
        "time": 0,
        "note": 58,
        "velocity": 0,
        "channel": 0
      },
      {
        "type": "note_on",
        "time": 0,
        "note": 49,
        "velocity": 0,
        "channel": 0
      },
      {
        "type": "note_on",
        "time": 0,
        "note": 54,
        "velocity": 0,
        "channel": 0
      },
      {
        "type": "note_on",
        "time": 1,
        "note": 42,
        "velocity": 60,
        "channel": 0
      },
      {
        "type": "note_on",
        "time": 0,
        "note": 61,
        "velocity": 60,
        "channel": 0
      },
      {
        "type": "note_on",
        "time": 0,
        "note": 54,
        "velocity": 60,
        "channel": 0
      },
      {
        "type": "note_on",
        "time": 0,
        "note": 49,
        "velocity": 60,
        "channel": 0
      },
      {
        "type": "note_on",
        "time": 0,
        "note": 58,
        "velocity": 60,
        "channel": 0
      },
      {
        "type": "control_change",
        "time": 0,
        "control": 7,
        "value": 78,
        "channel": 0
      },
      {
        "type": "note_on",
        "time": 0,
        "note": 66,
        "velocity": 60,
        "channel": 0
      },
      {
        "type": "note_on",
        "time": 59,
        "note": 42,
        "velocity": 0,
        "channel": 0
      },
      {
        "type": "note_on",
        "time": 0,
        "note": 61,
        "velocity": 0,
        "channel": 0
      },
      {
        "type": "note_on",
        "time": 0,
        "note": 54,
        "velocity": 0,
        "channel": 0
      },
      {
        "type": "note_on",
        "time": 0,
        "note": 49,
        "velocity": 0,
        "channel": 0
      },
      {
        "type": "note_on",
        "time": 0,
        "note": 58,
        "velocity": 0,
        "channel": 0
      },
      {
        "type": "note_on",
        "time": 0,
        "note": 66,
        "velocity": 0,
        "channel": 0
      },
      {
        "type": "note_on",
        "time": 1,
        "note": 61,
        "velocity": 60,
        "channel": 0
      },
      {
        "type": "note_on",
        "time": 0,
        "note": 54,
        "velocity": 60,
        "channel": 0
      },
      {
        "type": "note_on",
        "time": 0,
        "note": 58,
        "velocity": 60,
        "channel": 0
      },
      {
        "type": "note_on",
        "time": 0,
        "note": 66,
        "velocity": 60,
        "channel": 0
      },
      {
        "type": "note_on",
        "time": 0,
        "note": 42,
        "velocity": 60,
        "channel": 0
      },
      {
        "type": "note_on",
        "time": 0,
        "note": 49,
        "velocity": 60,
        "channel": 0
      },
      {
        "type": "note_on",
        "time": 29,
        "note": 61,
        "velocity": 0,
        "channel": 0
      },
      {
        "type": "note_on",
        "time": 0,
        "note": 54,
        "velocity": 0,
        "channel": 0
      },
      {
        "type": "note_on",
        "time": 0,
        "note": 58,
        "velocity": 0,
        "channel": 0
      },
      {
        "type": "note_on",
        "time": 0,
        "note": 66,
        "velocity": 0,
        "channel": 0
      },
      {
        "type": "note_on",
        "time": 0,
        "note": 42,
        "velocity": 0,
        "channel": 0
      },
      {
        "type": "note_on",
        "time": 0,
        "note": 49,
        "velocity": 0,
        "channel": 0
      },
      {
        "type": "note_on",
        "time": 1,
        "note": 61,
        "velocity": 60,
        "channel": 0
      },
      {
        "type": "note_on",
        "time": 0,
        "note": 66,
        "velocity": 60,
        "channel": 0
      },
      {
        "type": "note_on",
        "time": 0,
        "note": 54,
        "velocity": 60,
        "channel": 0
      },
      {
        "type": "note_on",
        "time": 0,
        "note": 49,
        "velocity": 60,
        "channel": 0
      },
      {
        "type": "note_on",
        "time": 0,
        "note": 58,
        "velocity": 60,
        "channel": 0
      },
      {
        "type": "note_on",
        "time": 0,
        "note": 42,
        "velocity": 60,
        "channel": 0
      },
      {
        "type": "control_change",
        "time": 30,
        "control": 7,
        "value": 75,
        "channel": 0
      },
      {
        "type": "note_on",
        "time": 29,
        "note": 61,
        "velocity": 0,
        "channel": 0
      },
      {
        "type": "note_on",
        "time": 0,
        "note": 66,
        "velocity": 0,
        "channel": 0
      },
      {
        "type": "note_on",
        "time": 0,
        "note": 54,
        "velocity": 0,
        "channel": 0
      },
      {
        "type": "note_on",
        "time": 0,
        "note": 49,
        "velocity": 0,
        "channel": 0
      },
      {
        "type": "note_on",
        "time": 0,
        "note": 58,
        "velocity": 0,
        "channel": 0
      },
      {
        "type": "note_on",
        "time": 0,
        "note": 42,
        "velocity": 0,
        "channel": 0
      },
      {
        "type": "note_on",
        "time": 1,
        "note": 61,
        "velocity": 60,
        "channel": 0
      },
      {
        "type": "note_on",
        "time": 0,
        "note": 66,
        "velocity": 60,
        "channel": 0
      },
      {
        "type": "note_on",
        "time": 0,
        "note": 42,
        "velocity": 60,
        "channel": 0
      },
      {
        "type": "note_on",
        "time": 0,
        "note": 58,
        "velocity": 60,
        "channel": 0
      },
      {
        "type": "note_on",
        "time": 0,
        "note": 49,
        "velocity": 60,
        "channel": 0
      },
      {
        "type": "note_on",
        "time": 0,
        "note": 54,
        "velocity": 60,
        "channel": 0
      },
      {
        "type": "note_on",
        "time": 29,
        "note": 61,
        "velocity": 0,
        "channel": 0
      },
      {
        "type": "note_on",
        "time": 0,
        "note": 66,
        "velocity": 0,
        "channel": 0
      },
      {
        "type": "note_on",
        "time": 0,
        "note": 42,
        "velocity": 0,
        "channel": 0
      },
      {
        "type": "note_on",
        "time": 0,
        "note": 58,
        "velocity": 0,
        "channel": 0
      },
      {
        "type": "note_on",
        "time": 0,
        "note": 49,
        "velocity": 0,
        "channel": 0
      },
      {
        "type": "note_on",
        "time": 0,
        "note": 54,
        "velocity": 0,
        "channel": 0
      },
      {
        "type": "note_on",
        "time": 1,
        "note": 58,
        "velocity": 60,
        "channel": 0
      },
      {
        "type": "note_on",
        "time": 0,
        "note": 61,
        "velocity": 60,
        "channel": 0
      },
      {
        "type": "note_on",
        "time": 0,
        "note": 54,
        "velocity": 60,
        "channel": 0
      },
      {
        "type": "note_on",
        "time": 0,
        "note": 42,
        "velocity": 60,
        "channel": 0
      },
      {
        "type": "note_on",
        "time": 0,
        "note": 49,
        "velocity": 60,
        "channel": 0
      },
      {
        "type": "note_on",
        "time": 0,
        "note": 66,
        "velocity": 60,
        "channel": 0
      },
      {
        "type": "note_on",
        "time": 59,
        "note": 58,
        "velocity": 0,
        "channel": 0
      },
      {
        "type": "note_on",
        "time": 0,
        "note": 61,
        "velocity": 0,
        "channel": 0
      },
      {
        "type": "note_on",
        "time": 0,
        "note": 54,
        "velocity": 0,
        "channel": 0
      },
      {
        "type": "note_on",
        "time": 0,
        "note": 42,
        "velocity": 0,
        "channel": 0
      },
      {
        "type": "note_on",
        "time": 0,
        "note": 49,
        "velocity": 0,
        "channel": 0
      },
      {
        "type": "note_on",
        "time": 0,
        "note": 66,
        "velocity": 0,
        "channel": 0
      },
      {
        "type": "note_on",
        "time": 1,
        "note": 66,
        "velocity": 60,
        "channel": 0
      },
      {
        "type": "note_on",
        "time": 0,
        "note": 49,
        "velocity": 60,
        "channel": 0
      },
      {
        "type": "note_on",
        "time": 0,
        "note": 61,
        "velocity": 60,
        "channel": 0
      },
      {
        "type": "note_on",
        "time": 0,
        "note": 58,
        "velocity": 60,
        "channel": 0
      },
      {
        "type": "control_change",
        "time": 0,
        "control": 7,
        "value": 72,
        "channel": 0
      },
      {
        "type": "note_on",
        "time": 0,
        "note": 54,
        "velocity": 60,
        "channel": 0
      },
      {
        "type": "note_on",
        "time": 0,
        "note": 42,
        "velocity": 60,
        "channel": 0
      },
      {
        "type": "note_on",
        "time": 59,
        "note": 66,
        "velocity": 0,
        "channel": 0
      },
      {
        "type": "note_on",
        "time": 0,
        "note": 49,
        "velocity": 0,
        "channel": 0
      },
      {
        "type": "note_on",
        "time": 0,
        "note": 61,
        "velocity": 0,
        "channel": 0
      },
      {
        "type": "note_on",
        "time": 0,
        "note": 58,
        "velocity": 0,
        "channel": 0
      },
      {
        "type": "note_on",
        "time": 0,
        "note": 54,
        "velocity": 0,
        "channel": 0
      },
      {
        "type": "note_on",
        "time": 0,
        "note": 42,
        "velocity": 0,
        "channel": 0
      },
      {
        "type": "note_on",
        "time": 1,
        "note": 49,
        "velocity": 60,
        "channel": 0
      },
      {
        "type": "note_on",
        "time": 0,
        "note": 66,
        "velocity": 60,
        "channel": 0
      },
      {
        "type": "note_on",
        "time": 0,
        "note": 61,
        "velocity": 60,
        "channel": 0
      },
      {
        "type": "note_on",
        "time": 0,
        "note": 54,
        "velocity": 60,
        "channel": 0
      },
      {
        "type": "note_on",
        "time": 0,
        "note": 58,
        "velocity": 60,
        "channel": 0
      },
      {
        "type": "note_on",
        "time": 0,
        "note": 42,
        "velocity": 60,
        "channel": 0
      },
      {
        "type": "note_on",
        "time": 59,
        "note": 49,
        "velocity": 0,
        "channel": 0
      },
      {
        "type": "note_on",
        "time": 0,
        "note": 66,
        "velocity": 0,
        "channel": 0
      },
      {
        "type": "note_on",
        "time": 0,
        "note": 61,
        "velocity": 0,
        "channel": 0
      },
      {
        "type": "note_on",
        "time": 0,
        "note": 54,
        "velocity": 0,
        "channel": 0
      },
      {
        "type": "note_on",
        "time": 0,
        "note": 58,
        "velocity": 0,
        "channel": 0
      },
      {
        "type": "note_on",
        "time": 0,
        "note": 42,
        "velocity": 0,
        "channel": 0
      },
      {
        "type": "note_on",
        "time": 1,
        "note": 57,
        "velocity": 60,
        "channel": 0
      },
      {
        "type": "note_on",
        "time": 0,
        "note": 61,
        "velocity": 60,
        "channel": 0
      },
      {
        "type": "control_change",
        "time": 0,
        "control": 7,
        "value": 69,
        "channel": 0
      },
      {
        "type": "note_on",
        "time": 0,
        "note": 52,
        "velocity": 60,
        "channel": 0
      },
      {
        "type": "note_on",
        "time": 0,
        "note": 40,
        "velocity": 60,
        "channel": 0
      },
      {
        "type": "note_on",
        "time": 0,
        "note": 45,
        "velocity": 60,
        "channel": 0
      },
      {
        "type": "note_on",
        "time": 0,
        "note": 64,
        "velocity": 60,
        "channel": 0
      },
      {
        "type": "note_on",
        "time": 29,
        "note": 57,
        "velocity": 0,
        "channel": 0
      },
      {
        "type": "note_on",
        "time": 0,
        "note": 61,
        "velocity": 0,
        "channel": 0
      },
      {
        "type": "note_on",
        "time": 0,
        "note": 52,
        "velocity": 0,
        "channel": 0
      },
      {
        "type": "note_on",
        "time": 0,
        "note": 40,
        "velocity": 0,
        "channel": 0
      },
      {
        "type": "note_on",
        "time": 0,
        "note": 45,
        "velocity": 0,
        "channel": 0
      },
      {
        "type": "note_on",
        "time": 0,
        "note": 64,
        "velocity": 0,
        "channel": 0
      },
      {
        "type": "note_on",
        "time": 1,
        "note": 45,
        "velocity": 60,
        "channel": 0
      },
      {
        "type": "note_on",
        "time": 0,
        "note": 57,
        "velocity": 60,
        "channel": 0
      },
      {
        "type": "note_on",
        "time": 0,
        "note": 40,
        "velocity": 60,
        "channel": 0
      },
      {
        "type": "note_on",
        "time": 0,
        "note": 61,
        "velocity": 60,
        "channel": 0
      },
      {
        "type": "note_on",
        "time": 0,
        "note": 52,
        "velocity": 60,
        "channel": 0
      },
      {
        "type": "note_on",
        "time": 0,
        "note": 64,
        "velocity": 60,
        "channel": 0
      },
      {
        "type": "note_on",
        "time": 59,
        "note": 45,
        "velocity": 0,
        "channel": 0
      },
      {
        "type": "note_on",
        "time": 0,
        "note": 57,
        "velocity": 0,
        "channel": 0
      },
      {
        "type": "note_on",
        "time": 0,
        "note": 40,
        "velocity": 0,
        "channel": 0
      },
      {
        "type": "note_on",
        "time": 0,
        "note": 61,
        "velocity": 0,
        "channel": 0
      },
      {
        "type": "note_on",
        "time": 0,
        "note": 52,
        "velocity": 0,
        "channel": 0
      },
      {
        "type": "note_on",
        "time": 0,
        "note": 64,
        "velocity": 0,
        "channel": 0
      },
      {
        "type": "note_on",
        "time": 1,
        "note": 52,
        "velocity": 60,
        "channel": 0
      },
      {
        "type": "note_on",
        "time": 0,
        "note": 40,
        "velocity": 60,
        "channel": 0
      },
      {
        "type": "note_on",
        "time": 0,
        "note": 45,
        "velocity": 60,
        "channel": 0
      },
      {
        "type": "note_on",
        "time": 0,
        "note": 61,
        "velocity": 60,
        "channel": 0
      },
      {
        "type": "note_on",
        "time": 0,
        "note": 64,
        "velocity": 60,
        "channel": 0
      },
      {
        "type": "note_on",
        "time": 0,
        "note": 57,
        "velocity": 60,
        "channel": 0
      },
      {
        "type": "note_on",
        "time": 29,
        "note": 52,
        "velocity": 0,
        "channel": 0
      },
      {
        "type": "note_on",
        "time": 0,
        "note": 40,
        "velocity": 0,
        "channel": 0
      },
      {
        "type": "note_on",
        "time": 0,
        "note": 45,
        "velocity": 0,
        "channel": 0
      },
      {
        "type": "note_on",
        "time": 0,
        "note": 61,
        "velocity": 0,
        "channel": 0
      },
      {
        "type": "note_on",
        "time": 0,
        "note": 64,
        "velocity": 0,
        "channel": 0
      },
      {
        "type": "note_on",
        "time": 0,
        "note": 57,
        "velocity": 0,
        "channel": 0
      },
      {
        "type": "note_on",
        "time": 1,
        "note": 64,
        "velocity": 60,
        "channel": 0
      },
      {
        "type": "note_on",
        "time": 0,
        "note": 45,
        "velocity": 60,
        "channel": 0
      },
      {
        "type": "note_on",
        "time": 0,
        "note": 57,
        "velocity": 60,
        "channel": 0
      },
      {
        "type": "control_change",
        "time": 0,
        "control": 7,
        "value": 66,
        "channel": 0
      },
      {
        "type": "note_on",
        "time": 0,
        "note": 52,
        "velocity": 60,
        "channel": 0
      },
      {
        "type": "note_on",
        "time": 0,
        "note": 40,
        "velocity": 60,
        "channel": 0
      },
      {
        "type": "note_on",
        "time": 0,
        "note": 61,
        "velocity": 60,
        "channel": 0
      },
      {
        "type": "note_on",
        "time": 59,
        "note": 64,
        "velocity": 0,
        "channel": 0
      },
      {
        "type": "note_on",
        "time": 0,
        "note": 45,
        "velocity": 0,
        "channel": 0
      },
      {
        "type": "note_on",
        "time": 0,
        "note": 57,
        "velocity": 0,
        "channel": 0
      },
      {
        "type": "note_on",
        "time": 0,
        "note": 52,
        "velocity": 0,
        "channel": 0
      },
      {
        "type": "note_on",
        "time": 0,
        "note": 40,
        "velocity": 0,
        "channel": 0
      },
      {
        "type": "note_on",
        "time": 0,
        "note": 61,
        "velocity": 0,
        "channel": 0
      },
      {
        "type": "note_on",
        "time": 1,
        "note": 40,
        "velocity": 60,
        "channel": 0
      },
      {
        "type": "note_on",
        "time": 0,
        "note": 57,
        "velocity": 60,
        "channel": 0
      },
      {
        "type": "note_on",
        "time": 0,
        "note": 64,
        "velocity": 60,
        "channel": 0
      },
      {
        "type": "note_on",
        "time": 0,
        "note": 52,
        "velocity": 60,
        "channel": 0
      },
      {
        "type": "note_on",
        "time": 0,
        "note": 61,
        "velocity": 60,
        "channel": 0
      },
      {
        "type": "note_on",
        "time": 0,
        "note": 45,
        "velocity": 60,
        "channel": 0
      },
      {
        "type": "note_on",
        "time": 29,
        "note": 40,
        "velocity": 0,
        "channel": 0
      },
      {
        "type": "note_on",
        "time": 0,
        "note": 57,
        "velocity": 0,
        "channel": 0
      },
      {
        "type": "note_on",
        "time": 0,
        "note": 64,
        "velocity": 0,
        "channel": 0
      },
      {
        "type": "note_on",
        "time": 0,
        "note": 52,
        "velocity": 0,
        "channel": 0
      },
      {
        "type": "note_on",
        "time": 0,
        "note": 61,
        "velocity": 0,
        "channel": 0
      },
      {
        "type": "note_on",
        "time": 0,
        "note": 45,
        "velocity": 0,
        "channel": 0
      },
      {
        "type": "note_on",
        "time": 1,
        "note": 40,
        "velocity": 60,
        "channel": 0
      },
      {
        "type": "note_on",
        "time": 0,
        "note": 61,
        "velocity": 60,
        "channel": 0
      },
      {
        "type": "note_on",
        "time": 0,
        "note": 45,
        "velocity": 60,
        "channel": 0
      },
      {
        "type": "note_on",
        "time": 0,
        "note": 64,
        "velocity": 60,
        "channel": 0
      },
      {
        "type": "note_on",
        "time": 0,
        "note": 52,
        "velocity": 60,
        "channel": 0
      },
      {
        "type": "note_on",
        "time": 0,
        "note": 57,
        "velocity": 60,
        "channel": 0
      },
      {
        "type": "control_change",
        "time": 30,
        "control": 7,
        "value": 63,
        "channel": 0
      },
      {
        "type": "note_on",
        "time": 29,
        "note": 40,
        "velocity": 0,
        "channel": 0
      },
      {
        "type": "note_on",
        "time": 0,
        "note": 61,
        "velocity": 0,
        "channel": 0
      },
      {
        "type": "note_on",
        "time": 0,
        "note": 45,
        "velocity": 0,
        "channel": 0
      },
      {
        "type": "note_on",
        "time": 0,
        "note": 64,
        "velocity": 0,
        "channel": 0
      },
      {
        "type": "note_on",
        "time": 0,
        "note": 52,
        "velocity": 0,
        "channel": 0
      },
      {
        "type": "note_on",
        "time": 0,
        "note": 57,
        "velocity": 0,
        "channel": 0
      },
      {
        "type": "note_on",
        "time": 1,
        "note": 64,
        "velocity": 60,
        "channel": 0
      },
      {
        "type": "note_on",
        "time": 0,
        "note": 57,
        "velocity": 60,
        "channel": 0
      },
      {
        "type": "note_on",
        "time": 0,
        "note": 40,
        "velocity": 60,
        "channel": 0
      },
      {
        "type": "note_on",
        "time": 0,
        "note": 52,
        "velocity": 60,
        "channel": 0
      },
      {
        "type": "note_on",
        "time": 0,
        "note": 45,
        "velocity": 60,
        "channel": 0
      },
      {
        "type": "note_on",
        "time": 0,
        "note": 61,
        "velocity": 60,
        "channel": 0
      },
      {
        "type": "note_on",
        "time": 29,
        "note": 64,
        "velocity": 0,
        "channel": 0
      },
      {
        "type": "note_on",
        "time": 0,
        "note": 57,
        "velocity": 0,
        "channel": 0
      },
      {
        "type": "note_on",
        "time": 0,
        "note": 40,
        "velocity": 0,
        "channel": 0
      },
      {
        "type": "note_on",
        "time": 0,
        "note": 52,
        "velocity": 0,
        "channel": 0
      },
      {
        "type": "note_on",
        "time": 0,
        "note": 45,
        "velocity": 0,
        "channel": 0
      },
      {
        "type": "note_on",
        "time": 0,
        "note": 61,
        "velocity": 0,
        "channel": 0
      },
      {
        "type": "note_on",
        "time": 1,
        "note": 57,
        "velocity": 60,
        "channel": 0
      },
      {
        "type": "note_on",
        "time": 0,
        "note": 52,
        "velocity": 60,
        "channel": 0
      },
      {
        "type": "note_on",
        "time": 0,
        "note": 40,
        "velocity": 60,
        "channel": 0
      },
      {
        "type": "note_on",
        "time": 0,
        "note": 61,
        "velocity": 60,
        "channel": 0
      },
      {
        "type": "note_on",
        "time": 0,
        "note": 45,
        "velocity": 60,
        "channel": 0
      },
      {
        "type": "note_on",
        "time": 0,
        "note": 64,
        "velocity": 60,
        "channel": 0
      },
      {
        "type": "note_on",
        "time": 59,
        "note": 57,
        "velocity": 0,
        "channel": 0
      },
      {
        "type": "note_on",
        "time": 0,
        "note": 52,
        "velocity": 0,
        "channel": 0
      },
      {
        "type": "note_on",
        "time": 0,
        "note": 40,
        "velocity": 0,
        "channel": 0
      },
      {
        "type": "note_on",
        "time": 0,
        "note": 61,
        "velocity": 0,
        "channel": 0
      },
      {
        "type": "note_on",
        "time": 0,
        "note": 45,
        "velocity": 0,
        "channel": 0
      },
      {
        "type": "note_on",
        "time": 0,
        "note": 64,
        "velocity": 0,
        "channel": 0
      },
      {
        "type": "note_on",
        "time": 1,
        "note": 57,
        "velocity": 60,
        "channel": 0
      },
      {
        "type": "control_change",
        "time": 0,
        "control": 7,
        "value": 60,
        "channel": 0
      },
      {
        "type": "note_on",
        "time": 0,
        "note": 64,
        "velocity": 60,
        "channel": 0
      },
      {
        "type": "note_on",
        "time": 0,
        "note": 40,
        "velocity": 60,
        "channel": 0
      },
      {
        "type": "note_on",
        "time": 0,
        "note": 61,
        "velocity": 60,
        "channel": 0
      },
      {
        "type": "note_on",
        "time": 0,
        "note": 45,
        "velocity": 60,
        "channel": 0
      },
      {
        "type": "note_on",
        "time": 0,
        "note": 52,
        "velocity": 60,
        "channel": 0
      },
      {
        "type": "note_on",
        "time": 59,
        "note": 57,
        "velocity": 0,
        "channel": 0
      },
      {
        "type": "note_on",
        "time": 0,
        "note": 64,
        "velocity": 0,
        "channel": 0
      },
      {
        "type": "note_on",
        "time": 0,
        "note": 40,
        "velocity": 0,
        "channel": 0
      },
      {
        "type": "note_on",
        "time": 0,
        "note": 61,
        "velocity": 0,
        "channel": 0
      },
      {
        "type": "note_on",
        "time": 0,
        "note": 45,
        "velocity": 0,
        "channel": 0
      },
      {
        "type": "note_on",
        "time": 0,
        "note": 52,
        "velocity": 0,
        "channel": 0
      },
      {
        "type": "note_on",
        "time": 1,
        "note": 52,
        "velocity": 60,
        "channel": 0
      },
      {
        "type": "note_on",
        "time": 0,
        "note": 61,
        "velocity": 60,
        "channel": 0
      },
      {
        "type": "note_on",
        "time": 0,
        "note": 45,
        "velocity": 60,
        "channel": 0
      },
      {
        "type": "note_on",
        "time": 0,
        "note": 40,
        "velocity": 60,
        "channel": 0
      },
      {
        "type": "note_on",
        "time": 0,
        "note": 57,
        "velocity": 60,
        "channel": 0
      },
      {
        "type": "note_on",
        "time": 0,
        "note": 64,
        "velocity": 60,
        "channel": 0
      },
      {
        "type": "note_on",
        "time": 59,
        "note": 52,
        "velocity": 0,
        "channel": 0
      },
      {
        "type": "note_on",
        "time": 0,
        "note": 61,
        "velocity": 0,
        "channel": 0
      },
      {
        "type": "note_on",
        "time": 0,
        "note": 45,
        "velocity": 0,
        "channel": 0
      },
      {
        "type": "note_on",
        "time": 0,
        "note": 40,
        "velocity": 0,
        "channel": 0
      },
      {
        "type": "note_on",
        "time": 0,
        "note": 57,
        "velocity": 0,
        "channel": 0
      },
      {
        "type": "note_on",
        "time": 0,
        "note": 64,
        "velocity": 0,
        "channel": 0
      },
      {
        "type": "note_on",
        "time": 1,
        "note": 52,
        "velocity": 60,
        "channel": 0
      },
      {
        "type": "note_on",
        "time": 0,
        "note": 40,
        "velocity": 60,
        "channel": 0
      },
      {
        "type": "note_on",
        "time": 0,
        "note": 47,
        "velocity": 60,
        "channel": 0
      },
      {
        "type": "note_on",
        "time": 0,
        "note": 64,
        "velocity": 60,
        "channel": 0
      },
      {
        "type": "note_on",
        "time": 0,
        "note": 59,
        "velocity": 60,
        "channel": 0
      },
      {
        "type": "note_on",
        "time": 0,
        "note": 56,
        "velocity": 60,
        "channel": 0
      },
      {
        "type": "control_change",
        "time": 0,
        "control": 7,
        "value": 57,
        "channel": 0
      },
      {
        "type": "note_on",
        "time": 29,
        "note": 52,
        "velocity": 0,
        "channel": 0
      },
      {
        "type": "note_on",
        "time": 0,
        "note": 40,
        "velocity": 0,
        "channel": 0
      },
      {
        "type": "note_on",
        "time": 0,
        "note": 47,
        "velocity": 0,
        "channel": 0
      },
      {
        "type": "note_on",
        "time": 0,
        "note": 64,
        "velocity": 0,
        "channel": 0
      },
      {
        "type": "note_on",
        "time": 0,
        "note": 59,
        "velocity": 0,
        "channel": 0
      },
      {
        "type": "note_on",
        "time": 0,
        "note": 56,
        "velocity": 0,
        "channel": 0
      },
      {
        "type": "note_on",
        "time": 1,
        "note": 56,
        "velocity": 60,
        "channel": 0
      },
      {
        "type": "note_on",
        "time": 0,
        "note": 52,
        "velocity": 60,
        "channel": 0
      },
      {
        "type": "note_on",
        "time": 0,
        "note": 40,
        "velocity": 60,
        "channel": 0
      },
      {
        "type": "note_on",
        "time": 0,
        "note": 47,
        "velocity": 60,
        "channel": 0
      },
      {
        "type": "note_on",
        "time": 0,
        "note": 59,
        "velocity": 60,
        "channel": 0
      },
      {
        "type": "note_on",
        "time": 0,
        "note": 64,
        "velocity": 60,
        "channel": 0
      },
      {
        "type": "note_on",
        "time": 59,
        "note": 56,
        "velocity": 0,
        "channel": 0
      },
      {
        "type": "note_on",
        "time": 0,
        "note": 52,
        "velocity": 0,
        "channel": 0
      },
      {
        "type": "note_on",
        "time": 0,
        "note": 40,
        "velocity": 0,
        "channel": 0
      },
      {
        "type": "note_on",
        "time": 0,
        "note": 47,
        "velocity": 0,
        "channel": 0
      },
      {
        "type": "note_on",
        "time": 0,
        "note": 59,
        "velocity": 0,
        "channel": 0
      },
      {
        "type": "note_on",
        "time": 0,
        "note": 64,
        "velocity": 0,
        "channel": 0
      },
      {
        "type": "note_on",
        "time": 1,
        "note": 56,
        "velocity": 60,
        "channel": 0
      },
      {
        "type": "note_on",
        "time": 0,
        "note": 52,
        "velocity": 60,
        "channel": 0
      },
      {
        "type": "note_on",
        "time": 0,
        "note": 47,
        "velocity": 60,
        "channel": 0
      },
      {
        "type": "note_on",
        "time": 0,
        "note": 59,
        "velocity": 60,
        "channel": 0
      },
      {
        "type": "note_on",
        "time": 0,
        "note": 40,
        "velocity": 60,
        "channel": 0
      },
      {
        "type": "note_on",
        "time": 0,
        "note": 64,
        "velocity": 60,
        "channel": 0
      },
      {
        "type": "note_on",
        "time": 29,
        "note": 56,
        "velocity": 0,
        "channel": 0
      },
      {
        "type": "note_on",
        "time": 0,
        "note": 52,
        "velocity": 0,
        "channel": 0
      },
      {
        "type": "note_on",
        "time": 0,
        "note": 47,
        "velocity": 0,
        "channel": 0
      },
      {
        "type": "note_on",
        "time": 0,
        "note": 59,
        "velocity": 0,
        "channel": 0
      },
      {
        "type": "note_on",
        "time": 0,
        "note": 40,
        "velocity": 0,
        "channel": 0
      },
      {
        "type": "note_on",
        "time": 0,
        "note": 64,
        "velocity": 0,
        "channel": 0
      },
      {
        "type": "note_on",
        "time": 1,
        "note": 40,
        "velocity": 60,
        "channel": 0
      },
      {
        "type": "note_on",
        "time": 0,
        "note": 59,
        "velocity": 60,
        "channel": 0
      },
      {
        "type": "note_on",
        "time": 0,
        "note": 64,
        "velocity": 60,
        "channel": 0
      },
      {
        "type": "control_change",
        "time": 0,
        "control": 7,
        "value": 54,
        "channel": 0
      },
      {
        "type": "note_on",
        "time": 0,
        "note": 47,
        "velocity": 60,
        "channel": 0
      },
      {
        "type": "note_on",
        "time": 0,
        "note": 52,
        "velocity": 60,
        "channel": 0
      },
      {
        "type": "note_on",
        "time": 0,
        "note": 56,
        "velocity": 60,
        "channel": 0
      },
      {
        "type": "note_on",
        "time": 59,
        "note": 40,
        "velocity": 0,
        "channel": 0
      },
      {
        "type": "note_on",
        "time": 0,
        "note": 59,
        "velocity": 0,
        "channel": 0
      },
      {
        "type": "note_on",
        "time": 0,
        "note": 64,
        "velocity": 0,
        "channel": 0
      },
      {
        "type": "note_on",
        "time": 0,
        "note": 47,
        "velocity": 0,
        "channel": 0
      },
      {
        "type": "note_on",
        "time": 0,
        "note": 52,
        "velocity": 0,
        "channel": 0
      },
      {
        "type": "note_on",
        "time": 0,
        "note": 56,
        "velocity": 0,
        "channel": 0
      },
      {
        "type": "note_on",
        "time": 1,
        "note": 52,
        "velocity": 60,
        "channel": 0
      },
      {
        "type": "note_on",
        "time": 0,
        "note": 59,
        "velocity": 60,
        "channel": 0
      },
      {
        "type": "note_on",
        "time": 0,
        "note": 56,
        "velocity": 60,
        "channel": 0
      },
      {
        "type": "note_on",
        "time": 0,
        "note": 47,
        "velocity": 60,
        "channel": 0
      },
      {
        "type": "note_on",
        "time": 0,
        "note": 64,
        "velocity": 60,
        "channel": 0
      },
      {
        "type": "note_on",
        "time": 0,
        "note": 40,
        "velocity": 60,
        "channel": 0
      },
      {
        "type": "note_on",
        "time": 29,
        "note": 52,
        "velocity": 0,
        "channel": 0
      },
      {
        "type": "note_on",
        "time": 0,
        "note": 59,
        "velocity": 0,
        "channel": 0
      },
      {
        "type": "note_on",
        "time": 0,
        "note": 56,
        "velocity": 0,
        "channel": 0
      },
      {
        "type": "note_on",
        "time": 0,
        "note": 47,
        "velocity": 0,
        "channel": 0
      },
      {
        "type": "note_on",
        "time": 0,
        "note": 64,
        "velocity": 0,
        "channel": 0
      },
      {
        "type": "note_on",
        "time": 0,
        "note": 40,
        "velocity": 0,
        "channel": 0
      },
      {
        "type": "note_on",
        "time": 1,
        "note": 47,
        "velocity": 60,
        "channel": 0
      },
      {
        "type": "note_on",
        "time": 0,
        "note": 40,
        "velocity": 60,
        "channel": 0
      },
      {
        "type": "note_on",
        "time": 0,
        "note": 52,
        "velocity": 60,
        "channel": 0
      },
      {
        "type": "note_on",
        "time": 0,
        "note": 59,
        "velocity": 60,
        "channel": 0
      },
      {
        "type": "note_on",
        "time": 0,
        "note": 56,
        "velocity": 60,
        "channel": 0
      },
      {
        "type": "note_on",
        "time": 0,
        "note": 64,
        "velocity": 60,
        "channel": 0
      },
      {
        "type": "control_change",
        "time": 30,
        "control": 7,
        "value": 51,
        "channel": 0
      },
      {
        "type": "note_on",
        "time": 29,
        "note": 47,
        "velocity": 0,
        "channel": 0
      },
      {
        "type": "note_on",
        "time": 0,
        "note": 40,
        "velocity": 0,
        "channel": 0
      },
      {
        "type": "note_on",
        "time": 0,
        "note": 52,
        "velocity": 0,
        "channel": 0
      },
      {
        "type": "note_on",
        "time": 0,
        "note": 59,
        "velocity": 0,
        "channel": 0
      },
      {
        "type": "note_on",
        "time": 0,
        "note": 56,
        "velocity": 0,
        "channel": 0
      },
      {
        "type": "note_on",
        "time": 0,
        "note": 64,
        "velocity": 0,
        "channel": 0
      },
      {
        "type": "note_on",
        "time": 1,
        "note": 52,
        "velocity": 60,
        "channel": 0
      },
      {
        "type": "note_on",
        "time": 0,
        "note": 47,
        "velocity": 60,
        "channel": 0
      },
      {
        "type": "note_on",
        "time": 0,
        "note": 59,
        "velocity": 60,
        "channel": 0
      },
      {
        "type": "note_on",
        "time": 0,
        "note": 40,
        "velocity": 60,
        "channel": 0
      },
      {
        "type": "note_on",
        "time": 0,
        "note": 64,
        "velocity": 60,
        "channel": 0
      },
      {
        "type": "note_on",
        "time": 0,
        "note": 56,
        "velocity": 60,
        "channel": 0
      },
      {
        "type": "note_on",
        "time": 29,
        "note": 52,
        "velocity": 0,
        "channel": 0
      },
      {
        "type": "note_on",
        "time": 0,
        "note": 47,
        "velocity": 0,
        "channel": 0
      },
      {
        "type": "note_on",
        "time": 0,
        "note": 59,
        "velocity": 0,
        "channel": 0
      },
      {
        "type": "note_on",
        "time": 0,
        "note": 40,
        "velocity": 0,
        "channel": 0
      },
      {
        "type": "note_on",
        "time": 0,
        "note": 64,
        "velocity": 0,
        "channel": 0
      },
      {
        "type": "note_on",
        "time": 0,
        "note": 56,
        "velocity": 0,
        "channel": 0
      },
      {
        "type": "note_on",
        "time": 1,
        "note": 59,
        "velocity": 60,
        "channel": 0
      },
      {
        "type": "note_on",
        "time": 0,
        "note": 56,
        "velocity": 60,
        "channel": 0
      },
      {
        "type": "note_on",
        "time": 0,
        "note": 52,
        "velocity": 60,
        "channel": 0
      },
      {
        "type": "note_on",
        "time": 0,
        "note": 40,
        "velocity": 60,
        "channel": 0
      },
      {
        "type": "note_on",
        "time": 0,
        "note": 64,
        "velocity": 60,
        "channel": 0
      },
      {
        "type": "note_on",
        "time": 0,
        "note": 47,
        "velocity": 60,
        "channel": 0
      },
      {
        "type": "note_on",
        "time": 59,
        "note": 59,
        "velocity": 0,
        "channel": 0
      },
      {
        "type": "note_on",
        "time": 0,
        "note": 56,
        "velocity": 0,
        "channel": 0
      },
      {
        "type": "note_on",
        "time": 0,
        "note": 52,
        "velocity": 0,
        "channel": 0
      },
      {
        "type": "note_on",
        "time": 0,
        "note": 40,
        "velocity": 0,
        "channel": 0
      },
      {
        "type": "note_on",
        "time": 0,
        "note": 64,
        "velocity": 0,
        "channel": 0
      },
      {
        "type": "note_on",
        "time": 0,
        "note": 47,
        "velocity": 0,
        "channel": 0
      },
      {
        "type": "note_on",
        "time": 1,
        "note": 56,
        "velocity": 60,
        "channel": 0
      },
      {
        "type": "control_change",
        "time": 0,
        "control": 7,
        "value": 48,
        "channel": 0
      },
      {
        "type": "note_on",
        "time": 0,
        "note": 64,
        "velocity": 60,
        "channel": 0
      },
      {
        "type": "note_on",
        "time": 0,
        "note": 59,
        "velocity": 60,
        "channel": 0
      },
      {
        "type": "note_on",
        "time": 0,
        "note": 47,
        "velocity": 60,
        "channel": 0
      },
      {
        "type": "note_on",
        "time": 0,
        "note": 40,
        "velocity": 60,
        "channel": 0
      },
      {
        "type": "note_on",
        "time": 0,
        "note": 52,
        "velocity": 60,
        "channel": 0
      },
      {
        "type": "note_on",
        "time": 59,
        "note": 56,
        "velocity": 0,
        "channel": 0
      },
      {
        "type": "note_on",
        "time": 0,
        "note": 64,
        "velocity": 0,
        "channel": 0
      },
      {
        "type": "note_on",
        "time": 0,
        "note": 59,
        "velocity": 0,
        "channel": 0
      },
      {
        "type": "note_on",
        "time": 0,
        "note": 47,
        "velocity": 0,
        "channel": 0
      },
      {
        "type": "note_on",
        "time": 0,
        "note": 40,
        "velocity": 0,
        "channel": 0
      },
      {
        "type": "note_on",
        "time": 0,
        "note": 52,
        "velocity": 0,
        "channel": 0
      },
      {
        "type": "note_on",
        "time": 1,
        "note": 47,
        "velocity": 60,
        "channel": 0
      },
      {
        "type": "note_on",
        "time": 0,
        "note": 40,
        "velocity": 60,
        "channel": 0
      },
      {
        "type": "note_on",
        "time": 0,
        "note": 56,
        "velocity": 60,
        "channel": 0
      },
      {
        "type": "note_on",
        "time": 0,
        "note": 64,
        "velocity": 60,
        "channel": 0
      },
      {
        "type": "note_on",
        "time": 0,
        "note": 52,
        "velocity": 60,
        "channel": 0
      },
      {
        "type": "note_on",
        "time": 0,
        "note": 59,
        "velocity": 60,
        "channel": 0
      },
      {
        "type": "note_on",
        "time": 59,
        "note": 47,
        "velocity": 0,
        "channel": 0
      },
      {
        "type": "note_on",
        "time": 0,
        "note": 40,
        "velocity": 0,
        "channel": 0
      },
      {
        "type": "note_on",
        "time": 0,
        "note": 56,
        "velocity": 0,
        "channel": 0
      },
      {
        "type": "note_on",
        "time": 0,
        "note": 64,
        "velocity": 0,
        "channel": 0
      },
      {
        "type": "note_on",
        "time": 0,
        "note": 52,
        "velocity": 0,
        "channel": 0
      },
      {
        "type": "note_on",
        "time": 0,
        "note": 59,
        "velocity": 0,
        "channel": 0
      },
      {
        "type": "note_on",
        "time": 1,
        "note": 62,
        "velocity": 60,
        "channel": 0
      },
      {
        "type": "note_on",
        "time": 0,
        "note": 59,
        "velocity": 60,
        "channel": 0
      },
      {
        "type": "note_on",
        "time": 0,
        "note": 67,
        "velocity": 60,
        "channel": 0
      },
      {
        "type": "note_on",
        "time": 0,
        "note": 55,
        "velocity": 60,
        "channel": 0
      },
      {
        "type": "control_change",
        "time": 0,
        "control": 7,
        "value": 45,
        "channel": 0
      },
      {
        "type": "note_on",
        "time": 0,
        "note": 47,
        "velocity": 60,
        "channel": 0
      },
      {
        "type": "note_on",
        "time": 0,
        "note": 43,
        "velocity": 60,
        "channel": 0
      },
      {
        "type": "note_on",
        "time": 29,
        "note": 62,
        "velocity": 0,
        "channel": 0
      },
      {
        "type": "note_on",
        "time": 0,
        "note": 59,
        "velocity": 0,
        "channel": 0
      },
      {
        "type": "note_on",
        "time": 0,
        "note": 67,
        "velocity": 0,
        "channel": 0
      },
      {
        "type": "note_on",
        "time": 0,
        "note": 55,
        "velocity": 0,
        "channel": 0
      },
      {
        "type": "note_on",
        "time": 0,
        "note": 47,
        "velocity": 0,
        "channel": 0
      },
      {
        "type": "note_on",
        "time": 0,
        "note": 43,
        "velocity": 0,
        "channel": 0
      },
      {
        "type": "note_on",
        "time": 1,
        "note": 43,
        "velocity": 60,
        "channel": 0
      },
      {
        "type": "note_on",
        "time": 0,
        "note": 59,
        "velocity": 60,
        "channel": 0
      },
      {
        "type": "note_on",
        "time": 0,
        "note": 62,
        "velocity": 60,
        "channel": 0
      },
      {
        "type": "note_on",
        "time": 0,
        "note": 55,
        "velocity": 60,
        "channel": 0
      },
      {
        "type": "note_on",
        "time": 0,
        "note": 47,
        "velocity": 60,
        "channel": 0
      },
      {
        "type": "note_on",
        "time": 0,
        "note": 67,
        "velocity": 60,
        "channel": 0
      },
      {
        "type": "note_on",
        "time": 59,
        "note": 43,
        "velocity": 0,
        "channel": 0
      },
      {
        "type": "note_on",
        "time": 0,
        "note": 59,
        "velocity": 0,
        "channel": 0
      },
      {
        "type": "note_on",
        "time": 0,
        "note": 62,
        "velocity": 0,
        "channel": 0
      },
      {
        "type": "note_on",
        "time": 0,
        "note": 55,
        "velocity": 0,
        "channel": 0
      },
      {
        "type": "note_on",
        "time": 0,
        "note": 47,
        "velocity": 0,
        "channel": 0
      },
      {
        "type": "note_on",
        "time": 0,
        "note": 67,
        "velocity": 0,
        "channel": 0
      },
      {
        "type": "note_on",
        "time": 1,
        "note": 43,
        "velocity": 60,
        "channel": 0
      },
      {
        "type": "note_on",
        "time": 0,
        "note": 55,
        "velocity": 60,
        "channel": 0
      },
      {
        "type": "note_on",
        "time": 0,
        "note": 59,
        "velocity": 60,
        "channel": 0
      },
      {
        "type": "note_on",
        "time": 0,
        "note": 67,
        "velocity": 60,
        "channel": 0
      },
      {
        "type": "note_on",
        "time": 0,
        "note": 47,
        "velocity": 60,
        "channel": 0
      },
      {
        "type": "note_on",
        "time": 0,
        "note": 62,
        "velocity": 60,
        "channel": 0
      },
      {
        "type": "note_on",
        "time": 29,
        "note": 43,
        "velocity": 0,
        "channel": 0
      },
      {
        "type": "note_on",
        "time": 0,
        "note": 55,
        "velocity": 0,
        "channel": 0
      },
      {
        "type": "note_on",
        "time": 0,
        "note": 59,
        "velocity": 0,
        "channel": 0
      },
      {
        "type": "note_on",
        "time": 0,
        "note": 67,
        "velocity": 0,
        "channel": 0
      },
      {
        "type": "note_on",
        "time": 0,
        "note": 47,
        "velocity": 0,
        "channel": 0
      },
      {
        "type": "note_on",
        "time": 0,
        "note": 62,
        "velocity": 0,
        "channel": 0
      },
      {
        "type": "note_on",
        "time": 1,
        "note": 62,
        "velocity": 60,
        "channel": 0
      },
      {
        "type": "note_on",
        "time": 0,
        "note": 47,
        "velocity": 60,
        "channel": 0
      },
      {
        "type": "note_on",
        "time": 0,
        "note": 67,
        "velocity": 60,
        "channel": 0
      },
      {
        "type": "control_change",
        "time": 0,
        "control": 7,
        "value": 42,
        "channel": 0
      },
      {
        "type": "note_on",
        "time": 0,
        "note": 59,
        "velocity": 60,
        "channel": 0
      },
      {
        "type": "note_on",
        "time": 0,
        "note": 55,
        "velocity": 60,
        "channel": 0
      },
      {
        "type": "note_on",
        "time": 0,
        "note": 43,
        "velocity": 60,
        "channel": 0
      },
      {
        "type": "note_on",
        "time": 59,
        "note": 62,
        "velocity": 0,
        "channel": 0
      },
      {
        "type": "note_on",
        "time": 0,
        "note": 47,
        "velocity": 0,
        "channel": 0
      },
      {
        "type": "note_on",
        "time": 0,
        "note": 67,
        "velocity": 0,
        "channel": 0
      },
      {
        "type": "note_on",
        "time": 0,
        "note": 59,
        "velocity": 0,
        "channel": 0
      },
      {
        "type": "note_on",
        "time": 0,
        "note": 55,
        "velocity": 0,
        "channel": 0
      },
      {
        "type": "note_on",
        "time": 0,
        "note": 43,
        "velocity": 0,
        "channel": 0
      },
      {
        "type": "note_on",
        "time": 1,
        "note": 67,
        "velocity": 60,
        "channel": 0
      },
      {
        "type": "note_on",
        "time": 0,
        "note": 55,
        "velocity": 60,
        "channel": 0
      },
      {
        "type": "note_on",
        "time": 0,
        "note": 59,
        "velocity": 60,
        "channel": 0
      },
      {
        "type": "note_on",
        "time": 0,
        "note": 43,
        "velocity": 60,
        "channel": 0
      },
      {
        "type": "note_on",
        "time": 0,
        "note": 62,
        "velocity": 60,
        "channel": 0
      },
      {
        "type": "note_on",
        "time": 0,
        "note": 47,
        "velocity": 60,
        "channel": 0
      },
      {
        "type": "note_on",
        "time": 29,
        "note": 67,
        "velocity": 0,
        "channel": 0
      },
      {
        "type": "note_on",
        "time": 0,
        "note": 55,
        "velocity": 0,
        "channel": 0
      },
      {
        "type": "note_on",
        "time": 0,
        "note": 59,
        "velocity": 0,
        "channel": 0
      },
      {
        "type": "note_on",
        "time": 0,
        "note": 43,
        "velocity": 0,
        "channel": 0
      },
      {
        "type": "note_on",
        "time": 0,
        "note": 62,
        "velocity": 0,
        "channel": 0
      },
      {
        "type": "note_on",
        "time": 0,
        "note": 47,
        "velocity": 0,
        "channel": 0
      },
      {
        "type": "note_on",
        "time": 1,
        "note": 55,
        "velocity": 60,
        "channel": 0
      },
      {
        "type": "note_on",
        "time": 0,
        "note": 47,
        "velocity": 60,
        "channel": 0
      },
      {
        "type": "note_on",
        "time": 0,
        "note": 62,
        "velocity": 60,
        "channel": 0
      },
      {
        "type": "note_on",
        "time": 0,
        "note": 43,
        "velocity": 60,
        "channel": 0
      },
      {
        "type": "note_on",
        "time": 0,
        "note": 67,
        "velocity": 60,
        "channel": 0
      },
      {
        "type": "note_on",
        "time": 0,
        "note": 59,
        "velocity": 60,
        "channel": 0
      },
      {
        "type": "control_change",
        "time": 30,
        "control": 7,
        "value": 39,
        "channel": 0
      },
      {
        "type": "note_on",
        "time": 29,
        "note": 55,
        "velocity": 0,
        "channel": 0
      },
      {
        "type": "note_on",
        "time": 0,
        "note": 47,
        "velocity": 0,
        "channel": 0
      },
      {
        "type": "note_on",
        "time": 0,
        "note": 62,
        "velocity": 0,
        "channel": 0
      },
      {
        "type": "note_on",
        "time": 0,
        "note": 43,
        "velocity": 0,
        "channel": 0
      },
      {
        "type": "note_on",
        "time": 0,
        "note": 67,
        "velocity": 0,
        "channel": 0
      },
      {
        "type": "note_on",
        "time": 0,
        "note": 59,
        "velocity": 0,
        "channel": 0
      },
      {
        "type": "note_on",
        "time": 1,
        "note": 67,
        "velocity": 60,
        "channel": 0
      },
      {
        "type": "note_on",
        "time": 0,
        "note": 55,
        "velocity": 60,
        "channel": 0
      },
      {
        "type": "note_on",
        "time": 0,
        "note": 59,
        "velocity": 60,
        "channel": 0
      },
      {
        "type": "note_on",
        "time": 0,
        "note": 43,
        "velocity": 60,
        "channel": 0
      },
      {
        "type": "note_on",
        "time": 0,
        "note": 62,
        "velocity": 60,
        "channel": 0
      },
      {
        "type": "note_on",
        "time": 0,
        "note": 47,
        "velocity": 60,
        "channel": 0
      },
      {
        "type": "note_on",
        "time": 29,
        "note": 67,
        "velocity": 0,
        "channel": 0
      },
      {
        "type": "note_on",
        "time": 0,
        "note": 55,
        "velocity": 0,
        "channel": 0
      },
      {
        "type": "note_on",
        "time": 0,
        "note": 59,
        "velocity": 0,
        "channel": 0
      },
      {
        "type": "note_on",
        "time": 0,
        "note": 43,
        "velocity": 0,
        "channel": 0
      },
      {
        "type": "note_on",
        "time": 0,
        "note": 62,
        "velocity": 0,
        "channel": 0
      },
      {
        "type": "note_on",
        "time": 0,
        "note": 47,
        "velocity": 0,
        "channel": 0
      },
      {
        "type": "note_on",
        "time": 1,
        "note": 62,
        "velocity": 60,
        "channel": 0
      },
      {
        "type": "note_on",
        "time": 0,
        "note": 59,
        "velocity": 60,
        "channel": 0
      },
      {
        "type": "note_on",
        "time": 0,
        "note": 43,
        "velocity": 60,
        "channel": 0
      },
      {
        "type": "note_on",
        "time": 0,
        "note": 55,
        "velocity": 60,
        "channel": 0
      },
      {
        "type": "note_on",
        "time": 0,
        "note": 67,
        "velocity": 60,
        "channel": 0
      },
      {
        "type": "note_on",
        "time": 0,
        "note": 47,
        "velocity": 60,
        "channel": 0
      },
      {
        "type": "note_on",
        "time": 59,
        "note": 62,
        "velocity": 0,
        "channel": 0
      },
      {
        "type": "note_on",
        "time": 0,
        "note": 59,
        "velocity": 0,
        "channel": 0
      },
      {
        "type": "note_on",
        "time": 0,
        "note": 43,
        "velocity": 0,
        "channel": 0
      },
      {
        "type": "note_on",
        "time": 0,
        "note": 55,
        "velocity": 0,
        "channel": 0
      },
      {
        "type": "note_on",
        "time": 0,
        "note": 67,
        "velocity": 0,
        "channel": 0
      },
      {
        "type": "note_on",
        "time": 0,
        "note": 47,
        "velocity": 0,
        "channel": 0
      },
      {
        "type": "control_change",
        "time": 1,
        "control": 7,
        "value": 36,
        "channel": 0
      },
      {
        "type": "note_on",
        "time": 0,
        "note": 59,
        "velocity": 60,
        "channel": 0
      },
      {
        "type": "note_on",
        "time": 0,
        "note": 62,
        "velocity": 60,
        "channel": 0
      },
      {
        "type": "note_on",
        "time": 0,
        "note": 47,
        "velocity": 60,
        "channel": 0
      },
      {
        "type": "note_on",
        "time": 0,
        "note": 67,
        "velocity": 60,
        "channel": 0
      },
      {
        "type": "note_on",
        "time": 0,
        "note": 43,
        "velocity": 60,
        "channel": 0
      },
      {
        "type": "note_on",
        "time": 0,
        "note": 55,
        "velocity": 60,
        "channel": 0
      },
      {
        "type": "note_on",
        "time": 59,
        "note": 59,
        "velocity": 0,
        "channel": 0
      },
      {
        "type": "note_on",
        "time": 0,
        "note": 62,
        "velocity": 0,
        "channel": 0
      },
      {
        "type": "note_on",
        "time": 0,
        "note": 47,
        "velocity": 0,
        "channel": 0
      },
      {
        "type": "note_on",
        "time": 0,
        "note": 67,
        "velocity": 0,
        "channel": 0
      },
      {
        "type": "note_on",
        "time": 0,
        "note": 43,
        "velocity": 0,
        "channel": 0
      },
      {
        "type": "note_on",
        "time": 0,
        "note": 55,
        "velocity": 0,
        "channel": 0
      },
      {
        "type": "note_on",
        "time": 1,
        "note": 47,
        "velocity": 60,
        "channel": 0
      },
      {
        "type": "note_on",
        "time": 0,
        "note": 43,
        "velocity": 60,
        "channel": 0
      },
      {
        "type": "note_on",
        "time": 0,
        "note": 59,
        "velocity": 60,
        "channel": 0
      },
      {
        "type": "note_on",
        "time": 0,
        "note": 67,
        "velocity": 60,
        "channel": 0
      },
      {
        "type": "note_on",
        "time": 0,
        "note": 55,
        "velocity": 60,
        "channel": 0
      },
      {
        "type": "note_on",
        "time": 0,
        "note": 62,
        "velocity": 60,
        "channel": 0
      },
      {
        "type": "note_on",
        "time": 59,
        "note": 47,
        "velocity": 0,
        "channel": 0
      },
      {
        "type": "note_on",
        "time": 0,
        "note": 43,
        "velocity": 0,
        "channel": 0
      },
      {
        "type": "note_on",
        "time": 0,
        "note": 59,
        "velocity": 0,
        "channel": 0
      },
      {
        "type": "note_on",
        "time": 0,
        "note": 67,
        "velocity": 0,
        "channel": 0
      },
      {
        "type": "note_on",
        "time": 0,
        "note": 55,
        "velocity": 0,
        "channel": 0
      },
      {
        "type": "note_on",
        "time": 0,
        "note": 62,
        "velocity": 0,
        "channel": 0
      },
      {
        "type": "note_on",
        "time": 1,
        "note": 66,
        "velocity": 60,
        "channel": 0
      },
      {
        "type": "note_on",
        "time": 0,
        "note": 62,
        "velocity": 60,
        "channel": 0
      },
      {
        "type": "note_on",
        "time": 0,
        "note": 57,
        "velocity": 60,
        "channel": 0
      },
      {
        "type": "note_on",
        "time": 0,
        "note": 45,
        "velocity": 60,
        "channel": 0
      },
      {
        "type": "note_on",
        "time": 0,
        "note": 50,
        "velocity": 60,
        "channel": 0
      },
      {
        "type": "note_on",
        "time": 0,
        "note": 69,
        "velocity": 60,
        "channel": 0
      },
      {
        "type": "control_change",
        "time": 0,
        "control": 7,
        "value": 33,
        "channel": 0
      },
      {
        "type": "note_on",
        "time": 29,
        "note": 66,
        "velocity": 0,
        "channel": 0
      },
      {
        "type": "note_on",
        "time": 0,
        "note": 62,
        "velocity": 0,
        "channel": 0
      },
      {
        "type": "note_on",
        "time": 0,
        "note": 57,
        "velocity": 0,
        "channel": 0
      },
      {
        "type": "note_on",
        "time": 0,
        "note": 45,
        "velocity": 0,
        "channel": 0
      },
      {
        "type": "note_on",
        "time": 0,
        "note": 50,
        "velocity": 0,
        "channel": 0
      },
      {
        "type": "note_on",
        "time": 0,
        "note": 69,
        "velocity": 0,
        "channel": 0
      },
      {
        "type": "note_on",
        "time": 1,
        "note": 45,
        "velocity": 60,
        "channel": 0
      },
      {
        "type": "note_on",
        "time": 0,
        "note": 50,
        "velocity": 60,
        "channel": 0
      },
      {
        "type": "note_on",
        "time": 0,
        "note": 66,
        "velocity": 60,
        "channel": 0
      },
      {
        "type": "note_on",
        "time": 0,
        "note": 57,
        "velocity": 60,
        "channel": 0
      },
      {
        "type": "note_on",
        "time": 0,
        "note": 69,
        "velocity": 60,
        "channel": 0
      },
      {
        "type": "note_on",
        "time": 0,
        "note": 62,
        "velocity": 60,
        "channel": 0
      },
      {
        "type": "note_on",
        "time": 59,
        "note": 45,
        "velocity": 0,
        "channel": 0
      },
      {
        "type": "note_on",
        "time": 0,
        "note": 50,
        "velocity": 0,
        "channel": 0
      },
      {
        "type": "note_on",
        "time": 0,
        "note": 66,
        "velocity": 0,
        "channel": 0
      },
      {
        "type": "note_on",
        "time": 0,
        "note": 57,
        "velocity": 0,
        "channel": 0
      },
      {
        "type": "note_on",
        "time": 0,
        "note": 69,
        "velocity": 0,
        "channel": 0
      },
      {
        "type": "note_on",
        "time": 0,
        "note": 62,
        "velocity": 0,
        "channel": 0
      },
      {
        "type": "note_on",
        "time": 1,
        "note": 62,
        "velocity": 60,
        "channel": 0
      },
      {
        "type": "note_on",
        "time": 0,
        "note": 50,
        "velocity": 60,
        "channel": 0
      },
      {
        "type": "note_on",
        "time": 0,
        "note": 57,
        "velocity": 60,
        "channel": 0
      },
      {
        "type": "note_on",
        "time": 0,
        "note": 69,
        "velocity": 60,
        "channel": 0
      },
      {
        "type": "note_on",
        "time": 0,
        "note": 66,
        "velocity": 60,
        "channel": 0
      },
      {
        "type": "note_on",
        "time": 0,
        "note": 45,
        "velocity": 60,
        "channel": 0
      },
      {
        "type": "note_on",
        "time": 29,
        "note": 62,
        "velocity": 0,
        "channel": 0
      },
      {
        "type": "note_on",
        "time": 0,
        "note": 50,
        "velocity": 0,
        "channel": 0
      },
      {
        "type": "note_on",
        "time": 0,
        "note": 57,
        "velocity": 0,
        "channel": 0
      },
      {
        "type": "note_on",
        "time": 0,
        "note": 69,
        "velocity": 0,
        "channel": 0
      },
      {
        "type": "note_on",
        "time": 0,
        "note": 66,
        "velocity": 0,
        "channel": 0
      },
      {
        "type": "note_on",
        "time": 0,
        "note": 45,
        "velocity": 0,
        "channel": 0
      },
      {
        "type": "note_on",
        "time": 1,
        "note": 45,
        "velocity": 60,
        "channel": 0
      },
      {
        "type": "note_on",
        "time": 0,
        "note": 57,
        "velocity": 60,
        "channel": 0
      },
      {
        "type": "note_on",
        "time": 0,
        "note": 66,
        "velocity": 60,
        "channel": 0
      },
      {
        "type": "note_on",
        "time": 0,
        "note": 62,
        "velocity": 60,
        "channel": 0
      },
      {
        "type": "note_on",
        "time": 0,
        "note": 69,
        "velocity": 60,
        "channel": 0
      },
      {
        "type": "control_change",
        "time": 0,
        "control": 7,
        "value": 30,
        "channel": 0
      },
      {
        "type": "note_on",
        "time": 0,
        "note": 50,
        "velocity": 60,
        "channel": 0
      },
      {
        "type": "note_on",
        "time": 59,
        "note": 45,
        "velocity": 0,
        "channel": 0
      },
      {
        "type": "note_on",
        "time": 0,
        "note": 57,
        "velocity": 0,
        "channel": 0
      },
      {
        "type": "note_on",
        "time": 0,
        "note": 66,
        "velocity": 0,
        "channel": 0
      },
      {
        "type": "note_on",
        "time": 0,
        "note": 62,
        "velocity": 0,
        "channel": 0
      },
      {
        "type": "note_on",
        "time": 0,
        "note": 69,
        "velocity": 0,
        "channel": 0
      },
      {
        "type": "note_on",
        "time": 0,
        "note": 50,
        "velocity": 0,
        "channel": 0
      },
      {
        "type": "note_on",
        "time": 1,
        "note": 45,
        "velocity": 60,
        "channel": 0
      },
      {
        "type": "note_on",
        "time": 0,
        "note": 57,
        "velocity": 60,
        "channel": 0
      },
      {
        "type": "note_on",
        "time": 0,
        "note": 62,
        "velocity": 60,
        "channel": 0
      },
      {
        "type": "note_on",
        "time": 0,
        "note": 50,
        "velocity": 60,
        "channel": 0
      },
      {
        "type": "note_on",
        "time": 0,
        "note": 69,
        "velocity": 60,
        "channel": 0
      },
      {
        "type": "note_on",
        "time": 0,
        "note": 66,
        "velocity": 60,
        "channel": 0
      },
      {
        "type": "note_on",
        "time": 29,
        "note": 45,
        "velocity": 0,
        "channel": 0
      },
      {
        "type": "note_on",
        "time": 0,
        "note": 57,
        "velocity": 0,
        "channel": 0
      },
      {
        "type": "note_on",
        "time": 0,
        "note": 62,
        "velocity": 0,
        "channel": 0
      },
      {
        "type": "note_on",
        "time": 0,
        "note": 50,
        "velocity": 0,
        "channel": 0
      },
      {
        "type": "note_on",
        "time": 0,
        "note": 69,
        "velocity": 0,
        "channel": 0
      },
      {
        "type": "note_on",
        "time": 0,
        "note": 66,
        "velocity": 0,
        "channel": 0
      },
      {
        "type": "note_on",
        "time": 1,
        "note": 69,
        "velocity": 60,
        "channel": 0
      },
      {
        "type": "note_on",
        "time": 0,
        "note": 66,
        "velocity": 60,
        "channel": 0
      },
      {
        "type": "note_on",
        "time": 0,
        "note": 62,
        "velocity": 60,
        "channel": 0
      },
      {
        "type": "note_on",
        "time": 0,
        "note": 50,
        "velocity": 60,
        "channel": 0
      },
      {
        "type": "note_on",
        "time": 0,
        "note": 45,
        "velocity": 60,
        "channel": 0
      },
      {
        "type": "note_on",
        "time": 0,
        "note": 57,
        "velocity": 60,
        "channel": 0
      },
      {
        "type": "control_change",
        "time": 30,
        "control": 7,
        "value": 27,
        "channel": 0
      },
      {
        "type": "note_on",
        "time": 29,
        "note": 69,
        "velocity": 0,
        "channel": 0
      },
      {
        "type": "note_on",
        "time": 0,
        "note": 66,
        "velocity": 0,
        "channel": 0
      },
      {
        "type": "note_on",
        "time": 0,
        "note": 62,
        "velocity": 0,
        "channel": 0
      },
      {
        "type": "note_on",
        "time": 0,
        "note": 50,
        "velocity": 0,
        "channel": 0
      },
      {
        "type": "note_on",
        "time": 0,
        "note": 45,
        "velocity": 0,
        "channel": 0
      },
      {
        "type": "note_on",
        "time": 0,
        "note": 57,
        "velocity": 0,
        "channel": 0
      },
      {
        "type": "note_on",
        "time": 1,
        "note": 50,
        "velocity": 60,
        "channel": 0
      },
      {
        "type": "note_on",
        "time": 0,
        "note": 66,
        "velocity": 60,
        "channel": 0
      },
      {
        "type": "note_on",
        "time": 0,
        "note": 69,
        "velocity": 60,
        "channel": 0
      },
      {
        "type": "note_on",
        "time": 0,
        "note": 57,
        "velocity": 60,
        "channel": 0
      },
      {
        "type": "note_on",
        "time": 0,
        "note": 62,
        "velocity": 60,
        "channel": 0
      },
      {
        "type": "note_on",
        "time": 0,
        "note": 45,
        "velocity": 60,
        "channel": 0
      },
      {
        "type": "note_on",
        "time": 29,
        "note": 50,
        "velocity": 0,
        "channel": 0
      },
      {
        "type": "note_on",
        "time": 0,
        "note": 66,
        "velocity": 0,
        "channel": 0
      },
      {
        "type": "note_on",
        "time": 0,
        "note": 69,
        "velocity": 0,
        "channel": 0
      },
      {
        "type": "note_on",
        "time": 0,
        "note": 57,
        "velocity": 0,
        "channel": 0
      },
      {
        "type": "note_on",
        "time": 0,
        "note": 62,
        "velocity": 0,
        "channel": 0
      },
      {
        "type": "note_on",
        "time": 0,
        "note": 45,
        "velocity": 0,
        "channel": 0
      },
      {
        "type": "note_on",
        "time": 1,
        "note": 50,
        "velocity": 60,
        "channel": 0
      },
      {
        "type": "note_on",
        "time": 0,
        "note": 62,
        "velocity": 60,
        "channel": 0
      },
      {
        "type": "note_on",
        "time": 0,
        "note": 69,
        "velocity": 60,
        "channel": 0
      },
      {
        "type": "note_on",
        "time": 0,
        "note": 45,
        "velocity": 60,
        "channel": 0
      },
      {
        "type": "note_on",
        "time": 0,
        "note": 57,
        "velocity": 60,
        "channel": 0
      },
      {
        "type": "note_on",
        "time": 0,
        "note": 66,
        "velocity": 60,
        "channel": 0
      },
      {
        "type": "note_on",
        "time": 59,
        "note": 50,
        "velocity": 0,
        "channel": 0
      },
      {
        "type": "note_on",
        "time": 0,
        "note": 62,
        "velocity": 0,
        "channel": 0
      },
      {
        "type": "note_on",
        "time": 0,
        "note": 69,
        "velocity": 0,
        "channel": 0
      },
      {
        "type": "note_on",
        "time": 0,
        "note": 45,
        "velocity": 0,
        "channel": 0
      },
      {
        "type": "note_on",
        "time": 0,
        "note": 57,
        "velocity": 0,
        "channel": 0
      },
      {
        "type": "note_on",
        "time": 0,
        "note": 66,
        "velocity": 0,
        "channel": 0
      },
      {
        "type": "note_on",
        "time": 1,
        "note": 50,
        "velocity": 60,
        "channel": 0
      },
      {
        "type": "note_on",
        "time": 0,
        "note": 66,
        "velocity": 60,
        "channel": 0
      },
      {
        "type": "note_on",
        "time": 0,
        "note": 69,
        "velocity": 60,
        "channel": 0
      },
      {
        "type": "note_on",
        "time": 0,
        "note": 62,
        "velocity": 60,
        "channel": 0
      },
      {
        "type": "control_change",
        "time": 0,
        "control": 7,
        "value": 24,
        "channel": 0
      },
      {
        "type": "note_on",
        "time": 0,
        "note": 45,
        "velocity": 60,
        "channel": 0
      },
      {
        "type": "note_on",
        "time": 0,
        "note": 57,
        "velocity": 60,
        "channel": 0
      },
      {
        "type": "note_on",
        "time": 59,
        "note": 50,
        "velocity": 0,
        "channel": 0
      },
      {
        "type": "note_on",
        "time": 0,
        "note": 66,
        "velocity": 0,
        "channel": 0
      },
      {
        "type": "note_on",
        "time": 0,
        "note": 69,
        "velocity": 0,
        "channel": 0
      },
      {
        "type": "note_on",
        "time": 0,
        "note": 62,
        "velocity": 0,
        "channel": 0
      },
      {
        "type": "note_on",
        "time": 0,
        "note": 45,
        "velocity": 0,
        "channel": 0
      },
      {
        "type": "note_on",
        "time": 0,
        "note": 57,
        "velocity": 0,
        "channel": 0
      },
      {
        "type": "note_on",
        "time": 1,
        "note": 69,
        "velocity": 60,
        "channel": 0
      },
      {
        "type": "note_on",
        "time": 0,
        "note": 50,
        "velocity": 60,
        "channel": 0
      },
      {
        "type": "note_on",
        "time": 0,
        "note": 66,
        "velocity": 60,
        "channel": 0
      },
      {
        "type": "note_on",
        "time": 0,
        "note": 45,
        "velocity": 60,
        "channel": 0
      },
      {
        "type": "note_on",
        "time": 0,
        "note": 62,
        "velocity": 60,
        "channel": 0
      },
      {
        "type": "note_on",
        "time": 0,
        "note": 57,
        "velocity": 60,
        "channel": 0
      },
      {
        "type": "note_on",
        "time": 59,
        "note": 69,
        "velocity": 0,
        "channel": 0
      },
      {
        "type": "note_on",
        "time": 0,
        "note": 50,
        "velocity": 0,
        "channel": 0
      },
      {
        "type": "note_on",
        "time": 0,
        "note": 66,
        "velocity": 0,
        "channel": 0
      },
      {
        "type": "note_on",
        "time": 0,
        "note": 45,
        "velocity": 0,
        "channel": 0
      },
      {
        "type": "note_on",
        "time": 0,
        "note": 62,
        "velocity": 0,
        "channel": 0
      },
      {
        "type": "note_on",
        "time": 0,
        "note": 57,
        "velocity": 0,
        "channel": 0
      },
      {
        "type": "note_on",
        "time": 1,
        "note": 59,
        "velocity": 60,
        "channel": 0
      },
      {
        "type": "note_on",
        "time": 0,
        "note": 55,
        "velocity": 60,
        "channel": 0
      },
      {
        "type": "note_on",
        "time": 0,
        "note": 40,
        "velocity": 60,
        "channel": 0
      },
      {
        "type": "note_on",
        "time": 0,
        "note": 45,
        "velocity": 60,
        "channel": 0
      },
      {
        "type": "note_on",
        "time": 0,
        "note": 64,
        "velocity": 60,
        "channel": 0
      },
      {
        "type": "control_change",
        "time": 0,
        "control": 7,
        "value": 21,
        "channel": 0
      },
      {
        "type": "note_on",
        "time": 0,
        "note": 52,
        "velocity": 60,
        "channel": 0
      },
      {
        "type": "note_on",
        "time": 29,
        "note": 59,
        "velocity": 0,
        "channel": 0
      },
      {
        "type": "note_on",
        "time": 0,
        "note": 55,
        "velocity": 0,
        "channel": 0
      },
      {
        "type": "note_on",
        "time": 0,
        "note": 40,
        "velocity": 0,
        "channel": 0
      },
      {
        "type": "note_on",
        "time": 0,
        "note": 45,
        "velocity": 0,
        "channel": 0
      },
      {
        "type": "note_on",
        "time": 0,
        "note": 64,
        "velocity": 0,
        "channel": 0
      },
      {
        "type": "note_on",
        "time": 0,
        "note": 52,
        "velocity": 0,
        "channel": 0
      },
      {
        "type": "note_on",
        "time": 1,
        "note": 45,
        "velocity": 60,
        "channel": 0
      },
      {
        "type": "note_on",
        "time": 0,
        "note": 55,
        "velocity": 60,
        "channel": 0
      },
      {
        "type": "note_on",
        "time": 0,
        "note": 40,
        "velocity": 60,
        "channel": 0
      },
      {
        "type": "note_on",
        "time": 0,
        "note": 59,
        "velocity": 60,
        "channel": 0
      },
      {
        "type": "note_on",
        "time": 0,
        "note": 64,
        "velocity": 60,
        "channel": 0
      },
      {
        "type": "note_on",
        "time": 0,
        "note": 52,
        "velocity": 60,
        "channel": 0
      },
      {
        "type": "note_on",
        "time": 59,
        "note": 45,
        "velocity": 0,
        "channel": 0
      },
      {
        "type": "note_on",
        "time": 0,
        "note": 55,
        "velocity": 0,
        "channel": 0
      },
      {
        "type": "note_on",
        "time": 0,
        "note": 40,
        "velocity": 0,
        "channel": 0
      },
      {
        "type": "note_on",
        "time": 0,
        "note": 59,
        "velocity": 0,
        "channel": 0
      },
      {
        "type": "note_on",
        "time": 0,
        "note": 64,
        "velocity": 0,
        "channel": 0
      },
      {
        "type": "note_on",
        "time": 0,
        "note": 52,
        "velocity": 0,
        "channel": 0
      },
      {
        "type": "note_on",
        "time": 1,
        "note": 45,
        "velocity": 60,
        "channel": 0
      },
      {
        "type": "note_on",
        "time": 0,
        "note": 52,
        "velocity": 60,
        "channel": 0
      },
      {
        "type": "note_on",
        "time": 0,
        "note": 40,
        "velocity": 60,
        "channel": 0
      },
      {
        "type": "note_on",
        "time": 0,
        "note": 55,
        "velocity": 60,
        "channel": 0
      },
      {
        "type": "note_on",
        "time": 0,
        "note": 64,
        "velocity": 60,
        "channel": 0
      },
      {
        "type": "note_on",
        "time": 0,
        "note": 59,
        "velocity": 60,
        "channel": 0
      },
      {
        "type": "note_on",
        "time": 29,
        "note": 45,
        "velocity": 0,
        "channel": 0
      },
      {
        "type": "note_on",
        "time": 0,
        "note": 52,
        "velocity": 0,
        "channel": 0
      },
      {
        "type": "note_on",
        "time": 0,
        "note": 40,
        "velocity": 0,
        "channel": 0
      },
      {
        "type": "note_on",
        "time": 0,
        "note": 55,
        "velocity": 0,
        "channel": 0
      },
      {
        "type": "note_on",
        "time": 0,
        "note": 64,
        "velocity": 0,
        "channel": 0
      },
      {
        "type": "note_on",
        "time": 0,
        "note": 59,
        "velocity": 0,
        "channel": 0
      },
      {
        "type": "note_on",
        "time": 1,
        "note": 59,
        "velocity": 60,
        "channel": 0
      },
      {
        "type": "note_on",
        "time": 0,
        "note": 64,
        "velocity": 60,
        "channel": 0
      },
      {
        "type": "note_on",
        "time": 0,
        "note": 52,
        "velocity": 60,
        "channel": 0
      },
      {
        "type": "note_on",
        "time": 0,
        "note": 40,
        "velocity": 60,
        "channel": 0
      },
      {
        "type": "note_on",
        "time": 0,
        "note": 55,
        "velocity": 60,
        "channel": 0
      },
      {
        "type": "note_on",
        "time": 0,
        "note": 45,
        "velocity": 60,
        "channel": 0
      },
      {
        "type": "control_change",
        "time": 0,
        "control": 7,
        "value": 18,
        "channel": 0
      },
      {
        "type": "note_on",
        "time": 59,
        "note": 59,
        "velocity": 0,
        "channel": 0
      },
      {
        "type": "note_on",
        "time": 0,
        "note": 64,
        "velocity": 0,
        "channel": 0
      },
      {
        "type": "note_on",
        "time": 0,
        "note": 52,
        "velocity": 0,
        "channel": 0
      },
      {
        "type": "note_on",
        "time": 0,
        "note": 40,
        "velocity": 0,
        "channel": 0
      },
      {
        "type": "note_on",
        "time": 0,
        "note": 55,
        "velocity": 0,
        "channel": 0
      },
      {
        "type": "note_on",
        "time": 0,
        "note": 45,
        "velocity": 0,
        "channel": 0
      },
      {
        "type": "note_on",
        "time": 1,
        "note": 45,
        "velocity": 60,
        "channel": 0
      },
      {
        "type": "note_on",
        "time": 0,
        "note": 55,
        "velocity": 60,
        "channel": 0
      },
      {
        "type": "note_on",
        "time": 0,
        "note": 64,
        "velocity": 60,
        "channel": 0
      },
      {
        "type": "note_on",
        "time": 0,
        "note": 52,
        "velocity": 60,
        "channel": 0
      },
      {
        "type": "note_on",
        "time": 0,
        "note": 40,
        "velocity": 60,
        "channel": 0
      },
      {
        "type": "note_on",
        "time": 0,
        "note": 59,
        "velocity": 60,
        "channel": 0
      },
      {
        "type": "note_on",
        "time": 29,
        "note": 45,
        "velocity": 0,
        "channel": 0
      },
      {
        "type": "note_on",
        "time": 0,
        "note": 55,
        "velocity": 0,
        "channel": 0
      },
      {
        "type": "note_on",
        "time": 0,
        "note": 64,
        "velocity": 0,
        "channel": 0
      },
      {
        "type": "note_on",
        "time": 0,
        "note": 52,
        "velocity": 0,
        "channel": 0
      },
      {
        "type": "note_on",
        "time": 0,
        "note": 40,
        "velocity": 0,
        "channel": 0
      },
      {
        "type": "note_on",
        "time": 0,
        "note": 59,
        "velocity": 0,
        "channel": 0
      },
      {
        "type": "note_on",
        "time": 1,
        "note": 45,
        "velocity": 60,
        "channel": 0
      },
      {
        "type": "note_on",
        "time": 0,
        "note": 40,
        "velocity": 60,
        "channel": 0
      },
      {
        "type": "note_on",
        "time": 0,
        "note": 64,
        "velocity": 60,
        "channel": 0
      },
      {
        "type": "note_on",
        "time": 0,
        "note": 59,
        "velocity": 60,
        "channel": 0
      },
      {
        "type": "note_on",
        "time": 0,
        "note": 52,
        "velocity": 60,
        "channel": 0
      },
      {
        "type": "note_on",
        "time": 0,
        "note": 55,
        "velocity": 60,
        "channel": 0
      },
      {
        "type": "control_change",
        "time": 30,
        "control": 7,
        "value": 15,
        "channel": 0
      },
      {
        "type": "note_on",
        "time": 29,
        "note": 45,
        "velocity": 0,
        "channel": 0
      },
      {
        "type": "note_on",
        "time": 0,
        "note": 40,
        "velocity": 0,
        "channel": 0
      },
      {
        "type": "note_on",
        "time": 0,
        "note": 64,
        "velocity": 0,
        "channel": 0
      },
      {
        "type": "note_on",
        "time": 0,
        "note": 59,
        "velocity": 0,
        "channel": 0
      },
      {
        "type": "note_on",
        "time": 0,
        "note": 52,
        "velocity": 0,
        "channel": 0
      },
      {
        "type": "note_on",
        "time": 0,
        "note": 55,
        "velocity": 0,
        "channel": 0
      },
      {
        "type": "note_on",
        "time": 1,
        "note": 45,
        "velocity": 60,
        "channel": 0
      },
      {
        "type": "note_on",
        "time": 0,
        "note": 55,
        "velocity": 60,
        "channel": 0
      },
      {
        "type": "note_on",
        "time": 0,
        "note": 64,
        "velocity": 60,
        "channel": 0
      },
      {
        "type": "note_on",
        "time": 0,
        "note": 59,
        "velocity": 60,
        "channel": 0
      },
      {
        "type": "note_on",
        "time": 0,
        "note": 40,
        "velocity": 60,
        "channel": 0
      },
      {
        "type": "note_on",
        "time": 0,
        "note": 52,
        "velocity": 60,
        "channel": 0
      },
      {
        "type": "note_on",
        "time": 29,
        "note": 45,
        "velocity": 0,
        "channel": 0
      },
      {
        "type": "note_on",
        "time": 0,
        "note": 55,
        "velocity": 0,
        "channel": 0
      },
      {
        "type": "note_on",
        "time": 0,
        "note": 64,
        "velocity": 0,
        "channel": 0
      },
      {
        "type": "note_on",
        "time": 0,
        "note": 59,
        "velocity": 0,
        "channel": 0
      },
      {
        "type": "note_on",
        "time": 0,
        "note": 40,
        "velocity": 0,
        "channel": 0
      },
      {
        "type": "note_on",
        "time": 0,
        "note": 52,
        "velocity": 0,
        "channel": 0
      },
      {
        "type": "note_on",
        "time": 1,
        "note": 55,
        "velocity": 60,
        "channel": 0
      },
      {
        "type": "note_on",
        "time": 0,
        "note": 40,
        "velocity": 60,
        "channel": 0
      },
      {
        "type": "note_on",
        "time": 0,
        "note": 52,
        "velocity": 60,
        "channel": 0
      },
      {
        "type": "note_on",
        "time": 0,
        "note": 64,
        "velocity": 60,
        "channel": 0
      },
      {
        "type": "note_on",
        "time": 0,
        "note": 59,
        "velocity": 60,
        "channel": 0
      },
      {
        "type": "note_on",
        "time": 0,
        "note": 45,
        "velocity": 60,
        "channel": 0
      },
      {
        "type": "note_on",
        "time": 59,
        "note": 55,
        "velocity": 0,
        "channel": 0
      },
      {
        "type": "note_on",
        "time": 0,
        "note": 40,
        "velocity": 0,
        "channel": 0
      },
      {
        "type": "note_on",
        "time": 0,
        "note": 52,
        "velocity": 0,
        "channel": 0
      },
      {
        "type": "note_on",
        "time": 0,
        "note": 64,
        "velocity": 0,
        "channel": 0
      },
      {
        "type": "note_on",
        "time": 0,
        "note": 59,
        "velocity": 0,
        "channel": 0
      },
      {
        "type": "note_on",
        "time": 0,
        "note": 45,
        "velocity": 0,
        "channel": 0
      },
      {
        "type": "note_on",
        "time": 1,
        "note": 45,
        "velocity": 60,
        "channel": 0
      },
      {
        "type": "note_on",
        "time": 0,
        "note": 64,
        "velocity": 60,
        "channel": 0
      },
      {
        "type": "note_on",
        "time": 0,
        "note": 40,
        "velocity": 60,
        "channel": 0
      },
      {
        "type": "control_change",
        "time": 0,
        "control": 7,
        "value": 12,
        "channel": 0
      },
      {
        "type": "note_on",
        "time": 0,
        "note": 55,
        "velocity": 60,
        "channel": 0
      },
      {
        "type": "note_on",
        "time": 0,
        "note": 59,
        "velocity": 60,
        "channel": 0
      },
      {
        "type": "note_on",
        "time": 0,
        "note": 52,
        "velocity": 60,
        "channel": 0
      },
      {
        "type": "note_on",
        "time": 59,
        "note": 45,
        "velocity": 0,
        "channel": 0
      },
      {
        "type": "note_on",
        "time": 0,
        "note": 64,
        "velocity": 0,
        "channel": 0
      },
      {
        "type": "note_on",
        "time": 0,
        "note": 40,
        "velocity": 0,
        "channel": 0
      },
      {
        "type": "note_on",
        "time": 0,
        "note": 55,
        "velocity": 0,
        "channel": 0
      },
      {
        "type": "note_on",
        "time": 0,
        "note": 59,
        "velocity": 0,
        "channel": 0
      },
      {
        "type": "note_on",
        "time": 0,
        "note": 52,
        "velocity": 0,
        "channel": 0
      },
      {
        "type": "note_on",
        "time": 1,
        "note": 55,
        "velocity": 60,
        "channel": 0
      },
      {
        "type": "note_on",
        "time": 0,
        "note": 40,
        "velocity": 60,
        "channel": 0
      },
      {
        "type": "note_on",
        "time": 0,
        "note": 45,
        "velocity": 60,
        "channel": 0
      },
      {
        "type": "note_on",
        "time": 0,
        "note": 59,
        "velocity": 60,
        "channel": 0
      },
      {
        "type": "note_on",
        "time": 0,
        "note": 52,
        "velocity": 60,
        "channel": 0
      },
      {
        "type": "note_on",
        "time": 0,
        "note": 64,
        "velocity": 60,
        "channel": 0
      },
      {
        "type": "note_on",
        "time": 59,
        "note": 55,
        "velocity": 0,
        "channel": 0
      },
      {
        "type": "note_on",
        "time": 0,
        "note": 40,
        "velocity": 0,
        "channel": 0
      },
      {
        "type": "note_on",
        "time": 0,
        "note": 45,
        "velocity": 0,
        "channel": 0
      },
      {
        "type": "note_on",
        "time": 0,
        "note": 59,
        "velocity": 0,
        "channel": 0
      },
      {
        "type": "note_on",
        "time": 0,
        "note": 52,
        "velocity": 0,
        "channel": 0
      },
      {
        "type": "note_on",
        "time": 0,
        "note": 64,
        "velocity": 0,
        "channel": 0
      },
      {
        "type": "note_on",
        "time": 1,
        "note": 58,
        "velocity": 60,
        "channel": 0
      },
      {
        "type": "note_on",
        "time": 0,
        "note": 61,
        "velocity": 60,
        "channel": 0
      },
      {
        "type": "control_change",
        "time": 0,
        "control": 7,
        "value": 9,
        "channel": 0
      },
      {
        "type": "note_on",
        "time": 0,
        "note": 49,
        "velocity": 60,
        "channel": 0
      },
      {
        "type": "note_on",
        "time": 0,
        "note": 66,
        "velocity": 60,
        "channel": 0
      },
      {
        "type": "note_on",
        "time": 0,
        "note": 54,
        "velocity": 60,
        "channel": 0
      },
      {
        "type": "note_on",
        "time": 0,
        "note": 42,
        "velocity": 60,
        "channel": 0
      },
      {
        "type": "note_on",
        "time": 29,
        "note": 58,
        "velocity": 0,
        "channel": 0
      },
      {
        "type": "note_on",
        "time": 0,
        "note": 61,
        "velocity": 0,
        "channel": 0
      },
      {
        "type": "note_on",
        "time": 0,
        "note": 49,
        "velocity": 0,
        "channel": 0
      },
      {
        "type": "note_on",
        "time": 0,
        "note": 66,
        "velocity": 0,
        "channel": 0
      },
      {
        "type": "note_on",
        "time": 0,
        "note": 54,
        "velocity": 0,
        "channel": 0
      },
      {
        "type": "note_on",
        "time": 0,
        "note": 42,
        "velocity": 0,
        "channel": 0
      },
      {
        "type": "note_on",
        "time": 1,
        "note": 66,
        "velocity": 60,
        "channel": 0
      },
      {
        "type": "note_on",
        "time": 0,
        "note": 54,
        "velocity": 60,
        "channel": 0
      },
      {
        "type": "note_on",
        "time": 0,
        "note": 58,
        "velocity": 60,
        "channel": 0
      },
      {
        "type": "note_on",
        "time": 0,
        "note": 42,
        "velocity": 60,
        "channel": 0
      },
      {
        "type": "note_on",
        "time": 0,
        "note": 49,
        "velocity": 60,
        "channel": 0
      },
      {
        "type": "note_on",
        "time": 0,
        "note": 61,
        "velocity": 60,
        "channel": 0
      },
      {
        "type": "note_on",
        "time": 59,
        "note": 66,
        "velocity": 0,
        "channel": 0
      },
      {
        "type": "note_on",
        "time": 0,
        "note": 54,
        "velocity": 0,
        "channel": 0
      },
      {
        "type": "note_on",
        "time": 0,
        "note": 58,
        "velocity": 0,
        "channel": 0
      },
      {
        "type": "note_on",
        "time": 0,
        "note": 42,
        "velocity": 0,
        "channel": 0
      },
      {
        "type": "note_on",
        "time": 0,
        "note": 49,
        "velocity": 0,
        "channel": 0
      },
      {
        "type": "note_on",
        "time": 0,
        "note": 61,
        "velocity": 0,
        "channel": 0
      },
      {
        "type": "note_on",
        "time": 1,
        "note": 66,
        "velocity": 60,
        "channel": 0
      },
      {
        "type": "note_on",
        "time": 0,
        "note": 58,
        "velocity": 60,
        "channel": 0
      },
      {
        "type": "note_on",
        "time": 0,
        "note": 49,
        "velocity": 60,
        "channel": 0
      },
      {
        "type": "note_on",
        "time": 0,
        "note": 54,
        "velocity": 60,
        "channel": 0
      },
      {
        "type": "note_on",
        "time": 0,
        "note": 42,
        "velocity": 60,
        "channel": 0
      },
      {
        "type": "note_on",
        "time": 0,
        "note": 61,
        "velocity": 60,
        "channel": 0
      },
      {
        "type": "note_on",
        "time": 29,
        "note": 66,
        "velocity": 0,
        "channel": 0
      },
      {
        "type": "note_on",
        "time": 0,
        "note": 58,
        "velocity": 0,
        "channel": 0
      },
      {
        "type": "note_on",
        "time": 0,
        "note": 49,
        "velocity": 0,
        "channel": 0
      },
      {
        "type": "note_on",
        "time": 0,
        "note": 54,
        "velocity": 0,
        "channel": 0
      },
      {
        "type": "note_on",
        "time": 0,
        "note": 42,
        "velocity": 0,
        "channel": 0
      },
      {
        "type": "note_on",
        "time": 0,
        "note": 61,
        "velocity": 0,
        "channel": 0
      },
      {
        "type": "note_on",
        "time": 1,
        "note": 42,
        "velocity": 60,
        "channel": 0
      },
      {
        "type": "note_on",
        "time": 0,
        "note": 61,
        "velocity": 60,
        "channel": 0
      },
      {
        "type": "note_on",
        "time": 0,
        "note": 54,
        "velocity": 60,
        "channel": 0
      },
      {
        "type": "note_on",
        "time": 0,
        "note": 49,
        "velocity": 60,
        "channel": 0
      },
      {
        "type": "control_change",
        "time": 0,
        "control": 7,
        "value": 6,
        "channel": 0
      },
      {
        "type": "note_on",
        "time": 0,
        "note": 58,
        "velocity": 60,
        "channel": 0
      },
      {
        "type": "note_on",
        "time": 0,
        "note": 66,
        "velocity": 60,
        "channel": 0
      },
      {
        "type": "note_on",
        "time": 59,
        "note": 42,
        "velocity": 0,
        "channel": 0
      },
      {
        "type": "note_on",
        "time": 0,
        "note": 61,
        "velocity": 0,
        "channel": 0
      },
      {
        "type": "note_on",
        "time": 0,
        "note": 54,
        "velocity": 0,
        "channel": 0
      },
      {
        "type": "note_on",
        "time": 0,
        "note": 49,
        "velocity": 0,
        "channel": 0
      },
      {
        "type": "note_on",
        "time": 0,
        "note": 58,
        "velocity": 0,
        "channel": 0
      },
      {
        "type": "note_on",
        "time": 0,
        "note": 66,
        "velocity": 0,
        "channel": 0
      },
      {
        "type": "note_on",
        "time": 1,
        "note": 42,
        "velocity": 60,
        "channel": 0
      },
      {
        "type": "note_on",
        "time": 0,
        "note": 54,
        "velocity": 60,
        "channel": 0
      },
      {
        "type": "note_on",
        "time": 0,
        "note": 58,
        "velocity": 60,
        "channel": 0
      },
      {
        "type": "note_on",
        "time": 0,
        "note": 49,
        "velocity": 60,
        "channel": 0
      },
      {
        "type": "note_on",
        "time": 0,
        "note": 66,
        "velocity": 60,
        "channel": 0
      },
      {
        "type": "note_on",
        "time": 0,
        "note": 61,
        "velocity": 60,
        "channel": 0
      },
      {
        "type": "note_on",
        "time": 29,
        "note": 42,
        "velocity": 0,
        "channel": 0
      },
      {
        "type": "note_on",
        "time": 0,
        "note": 54,
        "velocity": 0,
        "channel": 0
      },
      {
        "type": "note_on",
        "time": 0,
        "note": 58,
        "velocity": 0,
        "channel": 0
      },
      {
        "type": "note_on",
        "time": 0,
        "note": 49,
        "velocity": 0,
        "channel": 0
      },
      {
        "type": "note_on",
        "time": 0,
        "note": 66,
        "velocity": 0,
        "channel": 0
      },
      {
        "type": "note_on",
        "time": 0,
        "note": 61,
        "velocity": 0,
        "channel": 0
      },
      {
        "type": "note_on",
        "time": 1,
        "note": 66,
        "velocity": 60,
        "channel": 0
      },
      {
        "type": "note_on",
        "time": 0,
        "note": 58,
        "velocity": 60,
        "channel": 0
      },
      {
        "type": "note_on",
        "time": 0,
        "note": 49,
        "velocity": 60,
        "channel": 0
      },
      {
        "type": "note_on",
        "time": 0,
        "note": 42,
        "velocity": 60,
        "channel": 0
      },
      {
        "type": "note_on",
        "time": 0,
        "note": 54,
        "velocity": 60,
        "channel": 0
      },
      {
        "type": "note_on",
        "time": 0,
        "note": 61,
        "velocity": 60,
        "channel": 0
      },
      {
        "type": "control_change",
        "time": 30,
        "control": 7,
        "value": 3,
        "channel": 0
      },
      {
        "type": "note_on",
        "time": 29,
        "note": 66,
        "velocity": 0,
        "channel": 0
      },
      {
        "type": "note_on",
        "time": 0,
        "note": 58,
        "velocity": 0,
        "channel": 0
      },
      {
        "type": "note_on",
        "time": 0,
        "note": 49,
        "velocity": 0,
        "channel": 0
      },
      {
        "type": "note_on",
        "time": 0,
        "note": 42,
        "velocity": 0,
        "channel": 0
      },
      {
        "type": "note_on",
        "time": 0,
        "note": 54,
        "velocity": 0,
        "channel": 0
      },
      {
        "type": "note_on",
        "time": 0,
        "note": 61,
        "velocity": 0,
        "channel": 0
      },
      {
        "type": "note_on",
        "time": 1,
        "note": 54,
        "velocity": 60,
        "channel": 0
      },
      {
        "type": "note_on",
        "time": 0,
        "note": 66,
        "velocity": 60,
        "channel": 0
      },
      {
        "type": "note_on",
        "time": 0,
        "note": 42,
        "velocity": 60,
        "channel": 0
      },
      {
        "type": "note_on",
        "time": 0,
        "note": 49,
        "velocity": 60,
        "channel": 0
      },
      {
        "type": "note_on",
        "time": 0,
        "note": 61,
        "velocity": 60,
        "channel": 0
      },
      {
        "type": "note_on",
        "time": 0,
        "note": 58,
        "velocity": 60,
        "channel": 0
      },
      {
        "type": "note_on",
        "time": 29,
        "note": 54,
        "velocity": 0,
        "channel": 0
      },
      {
        "type": "note_on",
        "time": 0,
        "note": 66,
        "velocity": 0,
        "channel": 0
      },
      {
        "type": "note_on",
        "time": 0,
        "note": 42,
        "velocity": 0,
        "channel": 0
      },
      {
        "type": "note_on",
        "time": 0,
        "note": 49,
        "velocity": 0,
        "channel": 0
      },
      {
        "type": "note_on",
        "time": 0,
        "note": 61,
        "velocity": 0,
        "channel": 0
      },
      {
        "type": "note_on",
        "time": 0,
        "note": 58,
        "velocity": 0,
        "channel": 0
      },
      {
        "type": "note_on",
        "time": 1,
        "note": 49,
        "velocity": 60,
        "channel": 0
      },
      {
        "type": "note_on",
        "time": 0,
        "note": 61,
        "velocity": 60,
        "channel": 0
      },
      {
        "type": "note_on",
        "time": 0,
        "note": 54,
        "velocity": 60,
        "channel": 0
      },
      {
        "type": "note_on",
        "time": 0,
        "note": 58,
        "velocity": 60,
        "channel": 0
      },
      {
        "type": "note_on",
        "time": 0,
        "note": 66,
        "velocity": 60,
        "channel": 0
      },
      {
        "type": "note_on",
        "time": 0,
        "note": 42,
        "velocity": 60,
        "channel": 0
      },
      {
        "type": "note_on",
        "time": 59,
        "note": 49,
        "velocity": 0,
        "channel": 0
      },
      {
        "type": "note_on",
        "time": 0,
        "note": 61,
        "velocity": 0,
        "channel": 0
      },
      {
        "type": "note_on",
        "time": 0,
        "note": 54,
        "velocity": 0,
        "channel": 0
      },
      {
        "type": "note_on",
        "time": 0,
        "note": 58,
        "velocity": 0,
        "channel": 0
      },
      {
        "type": "note_on",
        "time": 0,
        "note": 66,
        "velocity": 0,
        "channel": 0
      },
      {
        "type": "note_on",
        "time": 0,
        "note": 42,
        "velocity": 0,
        "channel": 0
      },
      {
        "type": "note_on",
        "time": 1,
        "note": 66,
        "velocity": 60,
        "channel": 0
      },
      {
        "type": "note_on",
        "time": 0,
        "note": 58,
        "velocity": 60,
        "channel": 0
      },
      {
        "type": "note_on",
        "time": 0,
        "note": 42,
        "velocity": 60,
        "channel": 0
      },
      {
        "type": "note_on",
        "time": 0,
        "note": 54,
        "velocity": 60,
        "channel": 0
      },
      {
        "type": "control_change",
        "time": 0,
        "control": 7,
        "value": 0,
        "channel": 0
      },
      {
        "type": "note_on",
        "time": 0,
        "note": 49,
        "velocity": 60,
        "channel": 0
      },
      {
        "type": "note_on",
        "time": 0,
        "note": 61,
        "velocity": 60,
        "channel": 0
      },
      {
        "type": "note_on",
        "time": 59,
        "note": 66,
        "velocity": 0,
        "channel": 0
      },
      {
        "type": "note_on",
        "time": 0,
        "note": 58,
        "velocity": 0,
        "channel": 0
      },
      {
        "type": "note_on",
        "time": 0,
        "note": 42,
        "velocity": 0,
        "channel": 0
      },
      {
        "type": "note_on",
        "time": 0,
        "note": 54,
        "velocity": 0,
        "channel": 0
      },
      {
        "type": "note_on",
        "time": 0,
        "note": 49,
        "velocity": 0,
        "channel": 0
      },
      {
        "type": "note_on",
        "time": 0,
        "note": 61,
        "velocity": 0,
        "channel": 0
      },
      {
        "type": "note_on",
        "time": 1,
        "note": 49,
        "velocity": 60,
        "channel": 0
      },
      {
        "type": "note_on",
        "time": 0,
        "note": 66,
        "velocity": 60,
        "channel": 0
      },
      {
        "type": "note_on",
        "time": 0,
        "note": 61,
        "velocity": 60,
        "channel": 0
      },
      {
        "type": "note_on",
        "time": 0,
        "note": 42,
        "velocity": 60,
        "channel": 0
      },
      {
        "type": "note_on",
        "time": 0,
        "note": 58,
        "velocity": 60,
        "channel": 0
      },
      {
        "type": "note_on",
        "time": 0,
        "note": 54,
        "velocity": 60,
        "channel": 0
      },
      {
        "type": "note_on",
        "time": 59,
        "note": 49,
        "velocity": 0,
        "channel": 0
      },
      {
        "type": "note_on",
        "time": 0,
        "note": 66,
        "velocity": 0,
        "channel": 0
      },
      {
        "type": "note_on",
        "time": 0,
        "note": 61,
        "velocity": 0,
        "channel": 0
      },
      {
        "type": "note_on",
        "time": 0,
        "note": 42,
        "velocity": 0,
        "channel": 0
      },
      {
        "type": "note_on",
        "time": 0,
        "note": 58,
        "velocity": 0,
        "channel": 0
      },
      {
        "type": "note_on",
        "time": 0,
        "note": 54,
        "velocity": 0,
        "channel": 0
      },
      {
        "type": "end_of_track",
        "time": 0
      }
    ],
    [
      {
        "type": "track_name",
        "name": "WinJammer Demo",
        "time": 0
      },
      {
        "type": "instrument_name",
        "name": "Sequenced by",
        "time": 0
      },
      {
        "type": "midi_port",
        "port": 0,
        "time": 0
      },
      {
        "type": "control_change",
        "time": 0,
        "control": 7,
        "value": 90,
        "channel": 1
      },
      {
        "type": "program_change",
        "time": 0,
        "program": 2,
        "channel": 1
      },
      {
        "type": "note_on",
        "time": 0,
        "note": 59,
        "velocity": 60,
        "channel": 1
      },
      {
        "type": "note_on",
        "time": 59,
        "note": 59,
        "velocity": 0,
        "channel": 1
      },
      {
        "type": "note_on",
        "time": 1,
        "note": 59,
        "velocity": 60,
        "channel": 1
      },
      {
        "type": "note_on",
        "time": 29,
        "note": 59,
        "velocity": 0,
        "channel": 1
      },
      {
        "type": "note_on",
        "time": 1,
        "note": 62,
        "velocity": 60,
        "channel": 1
      },
      {
        "type": "note_on",
        "time": 29,
        "note": 62,
        "velocity": 0,
        "channel": 1
      },
      {
        "type": "note_on",
        "time": 1,
        "note": 59,
        "velocity": 60,
        "channel": 1
      },
      {
        "type": "note_on",
        "time": 29,
        "note": 59,
        "velocity": 0,
        "channel": 1
      },
      {
        "type": "note_on",
        "time": 1,
        "note": 54,
        "velocity": 60,
        "channel": 1
      },
      {
        "type": "note_on",
        "time": 59,
        "note": 54,
        "velocity": 0,
        "channel": 1
      },
      {
        "type": "note_on",
        "time": 1,
        "note": 54,
        "velocity": 60,
        "channel": 1
      },
      {
        "type": "note_on",
        "time": 29,
        "note": 54,
        "velocity": 0,
        "channel": 1
      },
      {
        "type": "note_on",
        "time": 1,
        "note": 59,
        "velocity": 60,
        "channel": 1
      },
      {
        "type": "note_on",
        "time": 119,
        "note": 59,
        "velocity": 0,
        "channel": 1
      },
      {
        "type": "note_on",
        "time": 1,
        "note": 62,
        "velocity": 60,
        "channel": 1
      },
      {
        "type": "note_on",
        "time": 59,
        "note": 62,
        "velocity": 0,
        "channel": 1
      },
      {
        "type": "note_on",
        "time": 1,
        "note": 64,
        "velocity": 60,
        "channel": 1
      },
      {
        "type": "note_on",
        "time": 59,
        "note": 64,
        "velocity": 0,
        "channel": 1
      },
      {
        "type": "note_on",
        "time": 1,
        "note": 54,
        "velocity": 60,
        "channel": 1
      },
      {
        "type": "note_on",
        "time": 59,
        "note": 54,
        "velocity": 0,
        "channel": 1
      },
      {
        "type": "note_on",
        "time": 1,
        "note": 61,
        "velocity": 60,
        "channel": 1
      },
      {
        "type": "note_on",
        "time": 29,
        "note": 61,
        "velocity": 0,
        "channel": 1
      },
      {
        "type": "note_on",
        "time": 1,
        "note": 54,
        "velocity": 60,
        "channel": 1
      },
      {
        "type": "note_on",
        "time": 29,
        "note": 54,
        "velocity": 0,
        "channel": 1
      },
      {
        "type": "note_on",
        "time": 1,
        "note": 58,
        "velocity": 60,
        "channel": 1
      },
      {
        "type": "note_on",
        "time": 29,
        "note": 58,
        "velocity": 0,
        "channel": 1
      },
      {
        "type": "note_on",
        "time": 1,
        "note": 61,
        "velocity": 60,
        "channel": 1
      },
      {
        "type": "note_on",
        "time": 59,
        "note": 61,
        "velocity": 0,
        "channel": 1
      },
      {
        "type": "note_on",
        "time": 1,
        "note": 54,
        "velocity": 60,
        "channel": 1
      },
      {
        "type": "note_on",
        "time": 29,
        "note": 54,
        "velocity": 0,
        "channel": 1
      },
      {
        "type": "note_on",
        "time": 1,
        "note": 58,
        "velocity": 60,
        "channel": 1
      },
      {
        "type": "note_on",
        "time": 239,
        "note": 58,
        "velocity": 0,
        "channel": 1
      },
      {
        "type": "note_on",
        "time": 1,
        "note": 57,
        "velocity": 60,
        "channel": 1
      },
      {
        "type": "note_on",
        "time": 59,
        "note": 57,
        "velocity": 0,
        "channel": 1
      },
      {
        "type": "note_on",
        "time": 1,
        "note": 57,
        "velocity": 60,
        "channel": 1
      },
      {
        "type": "note_on",
        "time": 29,
        "note": 57,
        "velocity": 0,
        "channel": 1
      },
      {
        "type": "note_on",
        "time": 1,
        "note": 57,
        "velocity": 60,
        "channel": 1
      },
      {
        "type": "note_on",
        "time": 29,
        "note": 57,
        "velocity": 0,
        "channel": 1
      },
      {
        "type": "note_on",
        "time": 1,
        "note": 57,
        "velocity": 60,
        "channel": 1
      },
      {
        "type": "note_on",
        "time": 30,
        "note": 59,
        "velocity": 60,
        "channel": 1
      },
      {
        "type": "note_on",
        "time": 29,
        "note": 57,
        "velocity": 0,
        "channel": 1
      },
      {
        "type": "note_on",
        "time": 30,
        "note": 59,
        "velocity": 0,
        "channel": 1
      },
      {
        "type": "note_on",
        "time": 1,
        "note": 57,
        "velocity": 60,
        "channel": 1
      },
      {
        "type": "note_on",
        "time": 29,
        "note": 57,
        "velocity": 0,
        "channel": 1
      },
      {
        "type": "note_on",
        "time": 1,
        "note": 61,
        "velocity": 60,
        "channel": 1
      },
      {
        "type": "note_on",
        "time": 59,
        "note": 61,
        "velocity": 0,
        "channel": 1
      },
      {
        "type": "note_on",
        "time": 1,
        "note": 57,
        "velocity": 60,
        "channel": 1
      },
      {
        "type": "note_on",
        "time": 29,
        "note": 57,
        "velocity": 0,
        "channel": 1
      },
      {
        "type": "note_on",
        "time": 1,
        "note": 59,
        "velocity": 60,
        "channel": 1
      },
      {
        "type": "note_on",
        "time": 29,
        "note": 59,
        "velocity": 0,
        "channel": 1
      },
      {
        "type": "note_on",
        "time": 1,
        "note": 52,
        "velocity": 60,
        "channel": 1
      },
      {
        "type": "note_on",
        "time": 59,
        "note": 52,
        "velocity": 0,
        "channel": 1
      },
      {
        "type": "note_on",
        "time": 1,
        "note": 52,
        "velocity": 60,
        "channel": 1
      },
      {
        "type": "note_on",
        "time": 29,
        "note": 52,
        "velocity": 0,
        "channel": 1
      },
      {
        "type": "note_on",
        "time": 1,
        "note": 54,
        "velocity": 60,
        "channel": 1
      },
      {
        "type": "note_on",
        "time": 29,
        "note": 54,
        "velocity": 0,
        "channel": 1
      },
      {
        "type": "note_on",
        "time": 1,
        "note": 56,
        "velocity": 60,
        "channel": 1
      },
      {
        "type": "note_on",
        "time": 59,
        "note": 56,
        "velocity": 0,
        "channel": 1
      },
      {
        "type": "note_on",
        "time": 1,
        "note": 56,
        "velocity": 60,
        "channel": 1
      },
      {
        "type": "note_on",
        "time": 29,
        "note": 56,
        "velocity": 0,
        "channel": 1
      },
      {
        "type": "note_on",
        "time": 1,
        "note": 59,
        "velocity": 60,
        "channel": 1
      },
      {
        "type": "note_on",
        "time": 29,
        "note": 59,
        "velocity": 0,
        "channel": 1
      },
      {
        "type": "note_on",
        "time": 1,
        "note": 56,
        "velocity": 60,
        "channel": 1
      },
      {
        "type": "note_on",
        "time": 29,
        "note": 56,
        "velocity": 0,
        "channel": 1
      },
      {
        "type": "note_on",
        "time": 1,
        "note": 59,
        "velocity": 60,
        "channel": 1
      },
      {
        "type": "note_on",
        "time": 59,
        "note": 59,
        "velocity": 0,
        "channel": 1
      },
      {
        "type": "note_on",
        "time": 1,
        "note": 56,
        "velocity": 60,
        "channel": 1
      },
      {
        "type": "note_on",
        "time": 29,
        "note": 56,
        "velocity": 0,
        "channel": 1
      },
      {
        "type": "note_on",
        "time": 1,
        "note": 64,
        "velocity": 60,
        "channel": 1
      },
      {
        "type": "note_on",
        "time": 119,
        "note": 64,
        "velocity": 0,
        "channel": 1
      },
      {
        "type": "note_on",
        "time": 121,
        "note": 55,
        "velocity": 60,
        "channel": 1
      },
      {
        "type": "note_on",
        "time": 59,
        "note": 55,
        "velocity": 0,
        "channel": 1
      },
      {
        "type": "note_on",
        "time": 1,
        "note": 55,
        "velocity": 60,
        "channel": 1
      },
      {
        "type": "note_on",
        "time": 29,
        "note": 55,
        "velocity": 0,
        "channel": 1
      },
      {
        "type": "note_on",
        "time": 1,
        "note": 50,
        "velocity": 60,
        "channel": 1
      },
      {
        "type": "note_on",
        "time": 29,
        "note": 50,
        "velocity": 0,
        "channel": 1
      },
      {
        "type": "note_on",
        "time": 1,
        "note": 55,
        "velocity": 60,
        "channel": 1
      },
      {
        "type": "note_on",
        "time": 29,
        "note": 55,
        "velocity": 0,
        "channel": 1
      },
      {
        "type": "note_on",
        "time": 1,
        "note": 57,
        "velocity": 60,
        "channel": 1
      },
      {
        "type": "note_on",
        "time": 59,
        "note": 57,
        "velocity": 0,
        "channel": 1
      },
      {
        "type": "note_on",
        "time": 1,
        "note": 55,
        "velocity": 60,
        "channel": 1
      },
      {
        "type": "note_on",
        "time": 29,
        "note": 55,
        "velocity": 0,
        "channel": 1
      },
      {
        "type": "note_on",
        "time": 1,
        "note": 59,
        "velocity": 60,
        "channel": 1
      },
      {
        "type": "note_on",
        "time": 119,
        "note": 59,
        "velocity": 0,
        "channel": 1
      },
      {
        "type": "note_on",
        "time": 1,
        "note": 57,
        "velocity": 60,
        "channel": 1
      },
      {
        "type": "note_on",
        "time": 59,
        "note": 57,
        "velocity": 0,
        "channel": 1
      },
      {
        "type": "note_on",
        "time": 1,
        "note": 55,
        "velocity": 60,
        "channel": 1
      },
      {
        "type": "note_on",
        "time": 59,
        "note": 55,
        "velocity": 0,
        "channel": 1
      },
      {
        "type": "note_on",
        "time": 1,
        "note": 50,
        "velocity": 60,
        "channel": 1
      },
      {
        "type": "note_on",
        "time": 59,
        "note": 50,
        "velocity": 0,
        "channel": 1
      },
      {
        "type": "note_on",
        "time": 1,
        "note": 50,
        "velocity": 60,
        "channel": 1
      },
      {
        "type": "note_on",
        "time": 29,
        "note": 50,
        "velocity": 0,
        "channel": 1
      },
      {
        "type": "note_on",
        "time": 1,
        "note": 45,
        "velocity": 60,
        "channel": 1
      },
      {
        "type": "note_on",
        "time": 29,
        "note": 45,
        "velocity": 0,
        "channel": 1
      },
      {
        "type": "note_on",
        "time": 1,
        "note": 50,
        "velocity": 60,
        "channel": 1
      },
      {
        "type": "note_on",
        "time": 29,
        "note": 50,
        "velocity": 0,
        "channel": 1
      },
      {
        "type": "note_on",
        "time": 1,
        "note": 52,
        "velocity": 60,
        "channel": 1
      },
      {
        "type": "note_on",
        "time": 59,
        "note": 52,
        "velocity": 0,
        "channel": 1
      },
      {
        "type": "note_on",
        "time": 1,
        "note": 50,
        "velocity": 60,
        "channel": 1
      },
      {
        "type": "note_on",
        "time": 29,
        "note": 50,
        "velocity": 0,
        "channel": 1
      },
      {
        "type": "note_on",
        "time": 1,
        "note": 54,
        "velocity": 60,
        "channel": 1
      },
      {
        "type": "note_on",
        "time": 239,
        "note": 54,
        "velocity": 0,
        "channel": 1
      },
      {
        "type": "note_on",
        "time": 1,
        "note": 52,
        "velocity": 60,
        "channel": 1
      },
      {
        "type": "note_on",
        "time": 29,
        "note": 52,
        "velocity": 0,
        "channel": 1
      },
      {
        "type": "note_on",
        "time": 31,
        "note": 52,
        "velocity": 60,
        "channel": 1
      },
      {
        "type": "note_on",
        "time": 29,
        "note": 52,
        "velocity": 0,
        "channel": 1
      },
      {
        "type": "note_on",
        "time": 1,
        "note": 54,
        "velocity": 60,
        "channel": 1
      },
      {
        "type": "note_on",
        "time": 29,
        "note": 54,
        "velocity": 0,
        "channel": 1
      },
      {
        "type": "note_on",
        "time": 1,
        "note": 52,
        "velocity": 60,
        "channel": 1
      },
      {
        "type": "note_on",
        "time": 29,
        "note": 52,
        "velocity": 0,
        "channel": 1
      },
      {
        "type": "note_on",
        "time": 1,
        "note": 55,
        "velocity": 60,
        "channel": 1
      },
      {
        "type": "note_on",
        "time": 59,
        "note": 55,
        "velocity": 0,
        "channel": 1
      },
      {
        "type": "note_on",
        "time": 1,
        "note": 52,
        "velocity": 60,
        "channel": 1
      },
      {
        "type": "note_on",
        "time": 29,
        "note": 52,
        "velocity": 0,
        "channel": 1
      },
      {
        "type": "note_on",
        "time": 1,
        "note": 59,
        "velocity": 60,
        "channel": 1
      },
      {
        "type": "note_on",
        "time": 239,
        "note": 59,
        "velocity": 0,
        "channel": 1
      },
      {
        "type": "note_on",
        "time": 1,
        "note": 54,
        "velocity": 60,
        "channel": 1
      },
      {
        "type": "note_on",
        "time": 59,
        "note": 54,
        "velocity": 0,
        "channel": 1
      },
      {
        "type": "note_on",
        "time": 1,
        "note": 54,
        "velocity": 60,
        "channel": 1
      },
      {
        "type": "note_on",
        "time": 29,
        "note": 54,
        "velocity": 0,
        "channel": 1
      },
      {
        "type": "note_on",
        "time": 1,
        "note": 55,
        "velocity": 60,
        "channel": 1
      },
      {
        "type": "note_on",
        "time": 29,
        "note": 55,
        "velocity": 0,
        "channel": 1
      },
      {
        "type": "note_on",
        "time": 1,
        "note": 54,
        "velocity": 60,
        "channel": 1
      },
      {
        "type": "note_on",
        "time": 29,
        "note": 54,
        "velocity": 0,
        "channel": 1
      },
      {
        "type": "note_on",
        "time": 1,
        "note": 55,
        "velocity": 60,
        "channel": 1
      },
      {
        "type": "note_on",
        "time": 59,
        "note": 55,
        "velocity": 0,
        "channel": 1
      },
      {
        "type": "note_on",
        "time": 1,
        "note": 54,
        "velocity": 60,
        "channel": 1
      },
      {
        "type": "note_on",
        "time": 29,
        "note": 54,
        "velocity": 0,
        "channel": 1
      },
      {
        "type": "note_on",
        "time": 1,
        "note": 61,
        "velocity": 60,
        "channel": 1
      },
      {
        "type": "note_on",
        "time": 239,
        "note": 61,
        "velocity": 0,
        "channel": 1
      },
      {
        "type": "note_on",
        "time": 1,
        "note": 59,
        "velocity": 60,
        "channel": 1
      },
      {
        "type": "note_on",
        "time": 59,
        "note": 59,
        "velocity": 0,
        "channel": 1
      },
      {
        "type": "note_on",
        "time": 1,
        "note": 59,
        "velocity": 60,
        "channel": 1
      },
      {
        "type": "note_on",
        "time": 29,
        "note": 59,
        "velocity": 0,
        "channel": 1
      },
      {
        "type": "note_on",
        "time": 1,
        "note": 62,
        "velocity": 60,
        "channel": 1
      },
      {
        "type": "note_on",
        "time": 29,
        "note": 62,
        "velocity": 0,
        "channel": 1
      },
      {
        "type": "note_on",
        "time": 1,
        "note": 59,
        "velocity": 60,
        "channel": 1
      },
      {
        "type": "note_on",
        "time": 29,
        "note": 59,
        "velocity": 0,
        "channel": 1
      },
      {
        "type": "note_on",
        "time": 1,
        "note": 54,
        "velocity": 60,
        "channel": 1
      },
      {
        "type": "note_on",
        "time": 59,
        "note": 54,
        "velocity": 0,
        "channel": 1
      },
      {
        "type": "note_on",
        "time": 1,
        "note": 54,
        "velocity": 60,
        "channel": 1
      },
      {
        "type": "note_on",
        "time": 29,
        "note": 54,
        "velocity": 0,
        "channel": 1
      },
      {
        "type": "note_on",
        "time": 1,
        "note": 59,
        "velocity": 60,
        "channel": 1
      },
      {
        "type": "note_on",
        "time": 119,
        "note": 59,
        "velocity": 0,
        "channel": 1
      },
      {
        "type": "note_on",
        "time": 1,
        "note": 62,
        "velocity": 60,
        "channel": 1
      },
      {
        "type": "note_on",
        "time": 59,
        "note": 62,
        "velocity": 0,
        "channel": 1
      },
      {
        "type": "note_on",
        "time": 1,
        "note": 64,
        "velocity": 60,
        "channel": 1
      },
      {
        "type": "note_on",
        "time": 59,
        "note": 64,
        "velocity": 0,
        "channel": 1
      },
      {
        "type": "note_on",
        "time": 1,
        "note": 54,
        "velocity": 60,
        "channel": 1
      },
      {
        "type": "note_on",
        "time": 59,
        "note": 54,
        "velocity": 0,
        "channel": 1
      },
      {
        "type": "note_on",
        "time": 1,
        "note": 61,
        "velocity": 60,
        "channel": 1
      },
      {
        "type": "note_on",
        "time": 29,
        "note": 61,
        "velocity": 0,
        "channel": 1
      },
      {
        "type": "note_on",
        "time": 1,
        "note": 54,
        "velocity": 60,
        "channel": 1
      },
      {
        "type": "note_on",
        "time": 29,
        "note": 54,
        "velocity": 0,
        "channel": 1
      },
      {
        "type": "note_on",
        "time": 1,
        "note": 58,
        "velocity": 60,
        "channel": 1
      },
      {
        "type": "note_on",
        "time": 29,
        "note": 58,
        "velocity": 0,
        "channel": 1
      },
      {
        "type": "note_on",
        "time": 1,
        "note": 61,
        "velocity": 60,
        "channel": 1
      },
      {
        "type": "note_on",
        "time": 59,
        "note": 61,
        "velocity": 0,
        "channel": 1
      },
      {
        "type": "note_on",
        "time": 1,
        "note": 54,
        "velocity": 60,
        "channel": 1
      },
      {
        "type": "note_on",
        "time": 29,
        "note": 54,
        "velocity": 0,
        "channel": 1
      },
      {
        "type": "note_on",
        "time": 1,
        "note": 58,
        "velocity": 60,
        "channel": 1
      },
      {
        "type": "note_on",
        "time": 239,
        "note": 58,
        "velocity": 0,
        "channel": 1
      },
      {
        "type": "note_on",
        "time": 1,
        "note": 57,
        "velocity": 60,
        "channel": 1
      },
      {
        "type": "note_on",
        "time": 59,
        "note": 57,
        "velocity": 0,
        "channel": 1
      },
      {
        "type": "note_on",
        "time": 1,
        "note": 57,
        "velocity": 60,
        "channel": 1
      },
      {
        "type": "note_on",
        "time": 29,
        "note": 57,
        "velocity": 0,
        "channel": 1
      },
      {
        "type": "note_on",
        "time": 1,
        "note": 57,
        "velocity": 60,
        "channel": 1
      },
      {
        "type": "note_on",
        "time": 29,
        "note": 57,
        "velocity": 0,
        "channel": 1
      },
      {
        "type": "note_on",
        "time": 1,
        "note": 57,
        "velocity": 60,
        "channel": 1
      },
      {
        "type": "note_on",
        "time": 30,
        "note": 59,
        "velocity": 60,
        "channel": 1
      },
      {
        "type": "note_on",
        "time": 29,
        "note": 57,
        "velocity": 0,
        "channel": 1
      },
      {
        "type": "note_on",
        "time": 30,
        "note": 59,
        "velocity": 0,
        "channel": 1
      },
      {
        "type": "note_on",
        "time": 1,
        "note": 57,
        "velocity": 60,
        "channel": 1
      },
      {
        "type": "note_on",
        "time": 29,
        "note": 57,
        "velocity": 0,
        "channel": 1
      },
      {
        "type": "note_on",
        "time": 1,
        "note": 57,
        "velocity": 60,
        "channel": 1
      },
      {
        "type": "note_on",
        "time": 59,
        "note": 57,
        "velocity": 0,
        "channel": 1
      },
      {
        "type": "note_on",
        "time": 1,
        "note": 57,
        "velocity": 60,
        "channel": 1
      },
      {
        "type": "note_on",
        "time": 29,
        "note": 57,
        "velocity": 0,
        "channel": 1
      },
      {
        "type": "note_on",
        "time": 1,
        "note": 59,
        "velocity": 60,
        "channel": 1
      },
      {
        "type": "note_on",
        "time": 29,
        "note": 59,
        "velocity": 0,
        "channel": 1
      },
      {
        "type": "note_on",
        "time": 1,
        "note": 52,
        "velocity": 60,
        "channel": 1
      },
      {
        "type": "note_on",
        "time": 59,
        "note": 52,
        "velocity": 0,
        "channel": 1
      },
      {
        "type": "note_on",
        "time": 1,
        "note": 52,
        "velocity": 60,
        "channel": 1
      },
      {
        "type": "note_on",
        "time": 29,
        "note": 52,
        "velocity": 0,
        "channel": 1
      },
      {
        "type": "note_on",
        "time": 1,
        "note": 54,
        "velocity": 60,
        "channel": 1
      },
      {
        "type": "note_on",
        "time": 29,
        "note": 54,
        "velocity": 0,
        "channel": 1
      },
      {
        "type": "note_on",
        "time": 1,
        "note": 56,
        "velocity": 60,
        "channel": 1
      },
      {
        "type": "note_on",
        "time": 59,
        "note": 56,
        "velocity": 0,
        "channel": 1
      },
      {
        "type": "note_on",
        "time": 1,
        "note": 56,
        "velocity": 60,
        "channel": 1
      },
      {
        "type": "note_on",
        "time": 29,
        "note": 56,
        "velocity": 0,
        "channel": 1
      },
      {
        "type": "note_on",
        "time": 1,
        "note": 59,
        "velocity": 60,
        "channel": 1
      },
      {
        "type": "note_on",
        "time": 29,
        "note": 59,
        "velocity": 0,
        "channel": 1
      },
      {
        "type": "note_on",
        "time": 1,
        "note": 56,
        "velocity": 60,
        "channel": 1
      },
      {
        "type": "note_on",
        "time": 29,
        "note": 56,
        "velocity": 0,
        "channel": 1
      },
      {
        "type": "note_on",
        "time": 1,
        "note": 59,
        "velocity": 60,
        "channel": 1
      },
      {
        "type": "note_on",
        "time": 59,
        "note": 59,
        "velocity": 0,
        "channel": 1
      },
      {
        "type": "note_on",
        "time": 1,
        "note": 56,
        "velocity": 60,
        "channel": 1
      },
      {
        "type": "note_on",
        "time": 29,
        "note": 56,
        "velocity": 0,
        "channel": 1
      },
      {
        "type": "note_on",
        "time": 1,
        "note": 64,
        "velocity": 60,
        "channel": 1
      },
      {
        "type": "note_on",
        "time": 119,
        "note": 64,
        "velocity": 0,
        "channel": 1
      },
      {
        "type": "note_on",
        "time": 121,
        "note": 55,
        "velocity": 60,
        "channel": 1
      },
      {
        "type": "note_on",
        "time": 59,
        "note": 55,
        "velocity": 0,
        "channel": 1
      },
      {
        "type": "note_on",
        "time": 1,
        "note": 55,
        "velocity": 60,
        "channel": 1
      },
      {
        "type": "note_on",
        "time": 29,
        "note": 55,
        "velocity": 0,
        "channel": 1
      },
      {
        "type": "note_on",
        "time": 1,
        "note": 50,
        "velocity": 60,
        "channel": 1
      },
      {
        "type": "note_on",
        "time": 29,
        "note": 50,
        "velocity": 0,
        "channel": 1
      },
      {
        "type": "note_on",
        "time": 1,
        "note": 55,
        "velocity": 60,
        "channel": 1
      },
      {
        "type": "note_on",
        "time": 29,
        "note": 55,
        "velocity": 0,
        "channel": 1
      },
      {
        "type": "note_on",
        "time": 1,
        "note": 57,
        "velocity": 60,
        "channel": 1
      },
      {
        "type": "note_on",
        "time": 59,
        "note": 57,
        "velocity": 0,
        "channel": 1
      },
      {
        "type": "note_on",
        "time": 1,
        "note": 55,
        "velocity": 60,
        "channel": 1
      },
      {
        "type": "note_on",
        "time": 29,
        "note": 55,
        "velocity": 0,
        "channel": 1
      },
      {
        "type": "note_on",
        "time": 1,
        "note": 59,
        "velocity": 60,
        "channel": 1
      },
      {
        "type": "note_on",
        "time": 119,
        "note": 59,
        "velocity": 0,
        "channel": 1
      },
      {
        "type": "note_on",
        "time": 1,
        "note": 57,
        "velocity": 60,
        "channel": 1
      },
      {
        "type": "note_on",
        "time": 59,
        "note": 57,
        "velocity": 0,
        "channel": 1
      },
      {
        "type": "note_on",
        "time": 1,
        "note": 55,
        "velocity": 60,
        "channel": 1
      },
      {
        "type": "note_on",
        "time": 59,
        "note": 55,
        "velocity": 0,
        "channel": 1
      },
      {
        "type": "note_on",
        "time": 1,
        "note": 50,
        "velocity": 60,
        "channel": 1
      },
      {
        "type": "note_on",
        "time": 59,
        "note": 50,
        "velocity": 0,
        "channel": 1
      },
      {
        "type": "note_on",
        "time": 1,
        "note": 50,
        "velocity": 60,
        "channel": 1
      },
      {
        "type": "note_on",
        "time": 29,
        "note": 50,
        "velocity": 0,
        "channel": 1
      },
      {
        "type": "note_on",
        "time": 1,
        "note": 45,
        "velocity": 60,
        "channel": 1
      },
      {
        "type": "note_on",
        "time": 29,
        "note": 45,
        "velocity": 0,
        "channel": 1
      },
      {
        "type": "note_on",
        "time": 1,
        "note": 50,
        "velocity": 60,
        "channel": 1
      },
      {
        "type": "note_on",
        "time": 29,
        "note": 50,
        "velocity": 0,
        "channel": 1
      },
      {
        "type": "note_on",
        "time": 1,
        "note": 52,
        "velocity": 60,
        "channel": 1
      },
      {
        "type": "note_on",
        "time": 59,
        "note": 52,
        "velocity": 0,
        "channel": 1
      },
      {
        "type": "note_on",
        "time": 1,
        "note": 50,
        "velocity": 60,
        "channel": 1
      },
      {
        "type": "note_on",
        "time": 29,
        "note": 50,
        "velocity": 0,
        "channel": 1
      },
      {
        "type": "note_on",
        "time": 1,
        "note": 54,
        "velocity": 60,
        "channel": 1
      },
      {
        "type": "note_on",
        "time": 239,
        "note": 54,
        "velocity": 0,
        "channel": 1
      },
      {
        "type": "note_on",
        "time": 1,
        "note": 52,
        "velocity": 60,
        "channel": 1
      },
      {
        "type": "note_on",
        "time": 59,
        "note": 52,
        "velocity": 0,
        "channel": 1
      },
      {
        "type": "note_on",
        "time": 1,
        "note": 52,
        "velocity": 60,
        "channel": 1
      },
      {
        "type": "note_on",
        "time": 29,
        "note": 52,
        "velocity": 0,
        "channel": 1
      },
      {
        "type": "note_on",
        "time": 1,
        "note": 54,
        "velocity": 60,
        "channel": 1
      },
      {
        "type": "note_on",
        "time": 29,
        "note": 54,
        "velocity": 0,
        "channel": 1
      },
      {
        "type": "note_on",
        "time": 1,
        "note": 52,
        "velocity": 60,
        "channel": 1
      },
      {
        "type": "note_on",
        "time": 29,
        "note": 52,
        "velocity": 0,
        "channel": 1
      },
      {
        "type": "note_on",
        "time": 1,
        "note": 55,
        "velocity": 60,
        "channel": 1
      },
      {
        "type": "note_on",
        "time": 59,
        "note": 55,
        "velocity": 0,
        "channel": 1
      },
      {
        "type": "note_on",
        "time": 1,
        "note": 52,
        "velocity": 60,
        "channel": 1
      },
      {
        "type": "note_on",
        "time": 29,
        "note": 52,
        "velocity": 0,
        "channel": 1
      },
      {
        "type": "note_on",
        "time": 1,
        "note": 59,
        "velocity": 60,
        "channel": 1
      },
      {
        "type": "note_on",
        "time": 239,
        "note": 59,
        "velocity": 0,
        "channel": 1
      },
      {
        "type": "note_on",
        "time": 1,
        "note": 54,
        "velocity": 60,
        "channel": 1
      },
      {
        "type": "note_on",
        "time": 59,
        "note": 54,
        "velocity": 0,
        "channel": 1
      },
      {
        "type": "note_on",
        "time": 1,
        "note": 54,
        "velocity": 60,
        "channel": 1
      },
      {
        "type": "note_on",
        "time": 29,
        "note": 54,
        "velocity": 0,
        "channel": 1
      },
      {
        "type": "note_on",
        "time": 1,
        "note": 55,
        "velocity": 60,
        "channel": 1
      },
      {
        "type": "note_on",
        "time": 29,
        "note": 55,
        "velocity": 0,
        "channel": 1
      },
      {
        "type": "note_on",
        "time": 1,
        "note": 54,
        "velocity": 60,
        "channel": 1
      },
      {
        "type": "note_on",
        "time": 29,
        "note": 54,
        "velocity": 0,
        "channel": 1
      },
      {
        "type": "note_on",
        "time": 1,
        "note": 55,
        "velocity": 60,
        "channel": 1
      },
      {
        "type": "note_on",
        "time": 59,
        "note": 55,
        "velocity": 0,
        "channel": 1
      },
      {
        "type": "note_on",
        "time": 1,
        "note": 54,
        "velocity": 60,
        "channel": 1
      },
      {
        "type": "note_on",
        "time": 29,
        "note": 54,
        "velocity": 0,
        "channel": 1
      },
      {
        "type": "note_on",
        "time": 1,
        "note": 61,
        "velocity": 60,
        "channel": 1
      },
      {
        "type": "note_on",
        "time": 239,
        "note": 61,
        "velocity": 0,
        "channel": 1
      },
      {
        "type": "control_change",
        "time": 1,
        "control": 7,
        "value": 90,
        "channel": 1
      },
      {
        "type": "note_on",
        "time": 0,
        "note": 59,
        "velocity": 60,
        "channel": 1
      },
      {
        "type": "note_on",
        "time": 59,
        "note": 59,
        "velocity": 0,
        "channel": 1
      },
      {
        "type": "note_on",
        "time": 1,
        "note": 59,
        "velocity": 60,
        "channel": 1
      },
      {
        "type": "note_on",
        "time": 29,
        "note": 59,
        "velocity": 0,
        "channel": 1
      },
      {
        "type": "note_on",
        "time": 1,
        "note": 62,
        "velocity": 60,
        "channel": 1
      },
      {
        "type": "note_on",
        "time": 29,
        "note": 62,
        "velocity": 0,
        "channel": 1
      },
      {
        "type": "note_on",
        "time": 1,
        "note": 59,
        "velocity": 60,
        "channel": 1
      },
      {
        "type": "note_on",
        "time": 29,
        "note": 59,
        "velocity": 0,
        "channel": 1
      },
      {
        "type": "note_on",
        "time": 1,
        "note": 54,
        "velocity": 60,
        "channel": 1
      },
      {
        "type": "note_on",
        "time": 59,
        "note": 54,
        "velocity": 0,
        "channel": 1
      },
      {
        "type": "note_on",
        "time": 1,
        "note": 54,
        "velocity": 60,
        "channel": 1
      },
      {
        "type": "note_on",
        "time": 29,
        "note": 54,
        "velocity": 0,
        "channel": 1
      },
      {
        "type": "note_on",
        "time": 1,
        "note": 59,
        "velocity": 60,
        "channel": 1
      },
      {
        "type": "note_on",
        "time": 119,
        "note": 59,
        "velocity": 0,
        "channel": 1
      },
      {
        "type": "note_on",
        "time": 1,
        "note": 62,
        "velocity": 60,
        "channel": 1
      },
      {
        "type": "note_on",
        "time": 59,
        "note": 62,
        "velocity": 0,
        "channel": 1
      },
      {
        "type": "note_on",
        "time": 1,
        "note": 64,
        "velocity": 60,
        "channel": 1
      },
      {
        "type": "note_on",
        "time": 59,
        "note": 64,
        "velocity": 0,
        "channel": 1
      },
      {
        "type": "note_on",
        "time": 1,
        "note": 54,
        "velocity": 60,
        "channel": 1
      },
      {
        "type": "note_on",
        "time": 59,
        "note": 54,
        "velocity": 0,
        "channel": 1
      },
      {
        "type": "note_on",
        "time": 1,
        "note": 61,
        "velocity": 60,
        "channel": 1
      },
      {
        "type": "note_on",
        "time": 29,
        "note": 61,
        "velocity": 0,
        "channel": 1
      },
      {
        "type": "note_on",
        "time": 1,
        "note": 54,
        "velocity": 60,
        "channel": 1
      },
      {
        "type": "note_on",
        "time": 29,
        "note": 54,
        "velocity": 0,
        "channel": 1
      },
      {
        "type": "note_on",
        "time": 1,
        "note": 58,
        "velocity": 60,
        "channel": 1
      },
      {
        "type": "note_on",
        "time": 29,
        "note": 58,
        "velocity": 0,
        "channel": 1
      },
      {
        "type": "note_on",
        "time": 1,
        "note": 61,
        "velocity": 60,
        "channel": 1
      },
      {
        "type": "note_on",
        "time": 59,
        "note": 61,
        "velocity": 0,
        "channel": 1
      },
      {
        "type": "note_on",
        "time": 1,
        "note": 54,
        "velocity": 60,
        "channel": 1
      },
      {
        "type": "note_on",
        "time": 29,
        "note": 54,
        "velocity": 0,
        "channel": 1
      },
      {
        "type": "note_on",
        "time": 1,
        "note": 58,
        "velocity": 60,
        "channel": 1
      },
      {
        "type": "note_on",
        "time": 239,
        "note": 58,
        "velocity": 0,
        "channel": 1
      },
      {
        "type": "note_on",
        "time": 1,
        "note": 57,
        "velocity": 60,
        "channel": 1
      },
      {
        "type": "note_on",
        "time": 59,
        "note": 57,
        "velocity": 0,
        "channel": 1
      },
      {
        "type": "note_on",
        "time": 1,
        "note": 57,
        "velocity": 60,
        "channel": 1
      },
      {
        "type": "note_on",
        "time": 29,
        "note": 57,
        "velocity": 0,
        "channel": 1
      },
      {
        "type": "note_on",
        "time": 1,
        "note": 57,
        "velocity": 60,
        "channel": 1
      },
      {
        "type": "note_on",
        "time": 29,
        "note": 57,
        "velocity": 0,
        "channel": 1
      },
      {
        "type": "note_on",
        "time": 1,
        "note": 57,
        "velocity": 60,
        "channel": 1
      },
      {
        "type": "note_on",
        "time": 30,
        "note": 59,
        "velocity": 60,
        "channel": 1
      },
      {
        "type": "note_on",
        "time": 29,
        "note": 57,
        "velocity": 0,
        "channel": 1
      },
      {
        "type": "note_on",
        "time": 30,
        "note": 59,
        "velocity": 0,
        "channel": 1
      },
      {
        "type": "note_on",
        "time": 1,
        "note": 57,
        "velocity": 60,
        "channel": 1
      },
      {
        "type": "note_on",
        "time": 29,
        "note": 57,
        "velocity": 0,
        "channel": 1
      },
      {
        "type": "note_on",
        "time": 1,
        "note": 57,
        "velocity": 60,
        "channel": 1
      },
      {
        "type": "note_on",
        "time": 59,
        "note": 57,
        "velocity": 0,
        "channel": 1
      },
      {
        "type": "note_on",
        "time": 1,
        "note": 57,
        "velocity": 60,
        "channel": 1
      },
      {
        "type": "note_on",
        "time": 29,
        "note": 57,
        "velocity": 0,
        "channel": 1
      },
      {
        "type": "note_on",
        "time": 1,
        "note": 59,
        "velocity": 60,
        "channel": 1
      },
      {
        "type": "note_on",
        "time": 29,
        "note": 59,
        "velocity": 0,
        "channel": 1
      },
      {
        "type": "note_on",
        "time": 1,
        "note": 52,
        "velocity": 60,
        "channel": 1
      },
      {
        "type": "note_on",
        "time": 59,
        "note": 52,
        "velocity": 0,
        "channel": 1
      },
      {
        "type": "note_on",
        "time": 1,
        "note": 52,
        "velocity": 60,
        "channel": 1
      },
      {
        "type": "note_on",
        "time": 29,
        "note": 52,
        "velocity": 0,
        "channel": 1
      },
      {
        "type": "note_on",
        "time": 1,
        "note": 54,
        "velocity": 60,
        "channel": 1
      },
      {
        "type": "note_on",
        "time": 29,
        "note": 54,
        "velocity": 0,
        "channel": 1
      },
      {
        "type": "note_on",
        "time": 1,
        "note": 56,
        "velocity": 60,
        "channel": 1
      },
      {
        "type": "note_on",
        "time": 59,
        "note": 56,
        "velocity": 0,
        "channel": 1
      },
      {
        "type": "note_on",
        "time": 1,
        "note": 56,
        "velocity": 60,
        "channel": 1
      },
      {
        "type": "note_on",
        "time": 29,
        "note": 56,
        "velocity": 0,
        "channel": 1
      },
      {
        "type": "note_on",
        "time": 1,
        "note": 59,
        "velocity": 60,
        "channel": 1
      },
      {
        "type": "note_on",
        "time": 29,
        "note": 59,
        "velocity": 0,
        "channel": 1
      },
      {
        "type": "note_on",
        "time": 1,
        "note": 56,
        "velocity": 60,
        "channel": 1
      },
      {
        "type": "note_on",
        "time": 29,
        "note": 56,
        "velocity": 0,
        "channel": 1
      },
      {
        "type": "note_on",
        "time": 1,
        "note": 59,
        "velocity": 60,
        "channel": 1
      },
      {
        "type": "note_on",
        "time": 59,
        "note": 59,
        "velocity": 0,
        "channel": 1
      },
      {
        "type": "note_on",
        "time": 1,
        "note": 56,
        "velocity": 60,
        "channel": 1
      },
      {
        "type": "note_on",
        "time": 29,
        "note": 56,
        "velocity": 0,
        "channel": 1
      },
      {
        "type": "note_on",
        "time": 1,
        "note": 64,
        "velocity": 60,
        "channel": 1
      },
      {
        "type": "note_on",
        "time": 119,
        "note": 64,
        "velocity": 0,
        "channel": 1
      },
      {
        "type": "note_on",
        "time": 121,
        "note": 55,
        "velocity": 60,
        "channel": 1
      },
      {
        "type": "note_on",
        "time": 59,
        "note": 55,
        "velocity": 0,
        "channel": 1
      },
      {
        "type": "note_on",
        "time": 1,
        "note": 55,
        "velocity": 60,
        "channel": 1
      },
      {
        "type": "note_on",
        "time": 29,
        "note": 55,
        "velocity": 0,
        "channel": 1
      },
      {
        "type": "note_on",
        "time": 1,
        "note": 50,
        "velocity": 60,
        "channel": 1
      },
      {
        "type": "note_on",
        "time": 29,
        "note": 50,
        "velocity": 0,
        "channel": 1
      },
      {
        "type": "note_on",
        "time": 1,
        "note": 55,
        "velocity": 60,
        "channel": 1
      },
      {
        "type": "note_on",
        "time": 29,
        "note": 55,
        "velocity": 0,
        "channel": 1
      },
      {
        "type": "note_on",
        "time": 1,
        "note": 57,
        "velocity": 60,
        "channel": 1
      },
      {
        "type": "note_on",
        "time": 59,
        "note": 57,
        "velocity": 0,
        "channel": 1
      },
      {
        "type": "note_on",
        "time": 1,
        "note": 55,
        "velocity": 60,
        "channel": 1
      },
      {
        "type": "note_on",
        "time": 29,
        "note": 55,
        "velocity": 0,
        "channel": 1
      },
      {
        "type": "note_on",
        "time": 1,
        "note": 59,
        "velocity": 60,
        "channel": 1
      },
      {
        "type": "note_on",
        "time": 119,
        "note": 59,
        "velocity": 0,
        "channel": 1
      },
      {
        "type": "note_on",
        "time": 1,
        "note": 57,
        "velocity": 60,
        "channel": 1
      },
      {
        "type": "note_on",
        "time": 59,
        "note": 57,
        "velocity": 0,
        "channel": 1
      },
      {
        "type": "note_on",
        "time": 1,
        "note": 55,
        "velocity": 60,
        "channel": 1
      },
      {
        "type": "note_on",
        "time": 59,
        "note": 55,
        "velocity": 0,
        "channel": 1
      },
      {
        "type": "note_on",
        "time": 1,
        "note": 50,
        "velocity": 60,
        "channel": 1
      },
      {
        "type": "note_on",
        "time": 59,
        "note": 50,
        "velocity": 0,
        "channel": 1
      },
      {
        "type": "note_on",
        "time": 1,
        "note": 50,
        "velocity": 60,
        "channel": 1
      },
      {
        "type": "note_on",
        "time": 29,
        "note": 50,
        "velocity": 0,
        "channel": 1
      },
      {
        "type": "note_on",
        "time": 1,
        "note": 45,
        "velocity": 60,
        "channel": 1
      },
      {
        "type": "note_on",
        "time": 29,
        "note": 45,
        "velocity": 0,
        "channel": 1
      },
      {
        "type": "note_on",
        "time": 1,
        "note": 50,
        "velocity": 60,
        "channel": 1
      },
      {
        "type": "note_on",
        "time": 29,
        "note": 50,
        "velocity": 0,
        "channel": 1
      },
      {
        "type": "note_on",
        "time": 1,
        "note": 52,
        "velocity": 60,
        "channel": 1
      },
      {
        "type": "note_on",
        "time": 59,
        "note": 52,
        "velocity": 0,
        "channel": 1
      },
      {
        "type": "note_on",
        "time": 1,
        "note": 50,
        "velocity": 60,
        "channel": 1
      },
      {
        "type": "note_on",
        "time": 29,
        "note": 50,
        "velocity": 0,
        "channel": 1
      },
      {
        "type": "note_on",
        "time": 1,
        "note": 54,
        "velocity": 60,
        "channel": 1
      },
      {
        "type": "note_on",
        "time": 239,
        "note": 54,
        "velocity": 0,
        "channel": 1
      },
      {
        "type": "note_on",
        "time": 1,
        "note": 52,
        "velocity": 60,
        "channel": 1
      },
      {
        "type": "note_on",
        "time": 29,
        "note": 52,
        "velocity": 0,
        "channel": 1
      },
      {
        "type": "note_on",
        "time": 31,
        "note": 52,
        "velocity": 60,
        "channel": 1
      },
      {
        "type": "note_on",
        "time": 29,
        "note": 52,
        "velocity": 0,
        "channel": 1
      },
      {
        "type": "note_on",
        "time": 1,
        "note": 54,
        "velocity": 60,
        "channel": 1
      },
      {
        "type": "note_on",
        "time": 29,
        "note": 54,
        "velocity": 0,
        "channel": 1
      },
      {
        "type": "note_on",
        "time": 1,
        "note": 52,
        "velocity": 60,
        "channel": 1
      },
      {
        "type": "note_on",
        "time": 29,
        "note": 52,
        "velocity": 0,
        "channel": 1
      },
      {
        "type": "note_on",
        "time": 1,
        "note": 55,
        "velocity": 60,
        "channel": 1
      },
      {
        "type": "note_on",
        "time": 59,
        "note": 55,
        "velocity": 0,
        "channel": 1
      },
      {
        "type": "note_on",
        "time": 1,
        "note": 52,
        "velocity": 60,
        "channel": 1
      },
      {
        "type": "note_on",
        "time": 29,
        "note": 52,
        "velocity": 0,
        "channel": 1
      },
      {
        "type": "note_on",
        "time": 1,
        "note": 59,
        "velocity": 60,
        "channel": 1
      },
      {
        "type": "note_on",
        "time": 239,
        "note": 59,
        "velocity": 0,
        "channel": 1
      },
      {
        "type": "note_on",
        "time": 1,
        "note": 54,
        "velocity": 60,
        "channel": 1
      },
      {
        "type": "note_on",
        "time": 59,
        "note": 54,
        "velocity": 0,
        "channel": 1
      },
      {
        "type": "note_on",
        "time": 1,
        "note": 54,
        "velocity": 60,
        "channel": 1
      },
      {
        "type": "note_on",
        "time": 29,
        "note": 54,
        "velocity": 0,
        "channel": 1
      },
      {
        "type": "note_on",
        "time": 1,
        "note": 55,
        "velocity": 60,
        "channel": 1
      },
      {
        "type": "note_on",
        "time": 29,
        "note": 55,
        "velocity": 0,
        "channel": 1
      },
      {
        "type": "note_on",
        "time": 1,
        "note": 54,
        "velocity": 60,
        "channel": 1
      },
      {
        "type": "note_on",
        "time": 29,
        "note": 54,
        "velocity": 0,
        "channel": 1
      },
      {
        "type": "note_on",
        "time": 1,
        "note": 55,
        "velocity": 60,
        "channel": 1
      },
      {
        "type": "note_on",
        "time": 59,
        "note": 55,
        "velocity": 0,
        "channel": 1
      },
      {
        "type": "note_on",
        "time": 1,
        "note": 54,
        "velocity": 60,
        "channel": 1
      },
      {
        "type": "note_on",
        "time": 29,
        "note": 54,
        "velocity": 0,
        "channel": 1
      },
      {
        "type": "note_on",
        "time": 1,
        "note": 61,
        "velocity": 60,
        "channel": 1
      },
      {
        "type": "note_on",
        "time": 239,
        "note": 61,
        "velocity": 0,
        "channel": 1
      },
      {
        "type": "note_on",
        "time": 1,
        "note": 59,
        "velocity": 60,
        "channel": 1
      },
      {
        "type": "note_on",
        "time": 59,
        "note": 59,
        "velocity": 0,
        "channel": 1
      },
      {
        "type": "note_on",
        "time": 1,
        "note": 59,
        "velocity": 60,
        "channel": 1
      },
      {
        "type": "note_on",
        "time": 29,
        "note": 59,
        "velocity": 0,
        "channel": 1
      },
      {
        "type": "note_on",
        "time": 1,
        "note": 62,
        "velocity": 60,
        "channel": 1
      },
      {
        "type": "note_on",
        "time": 29,
        "note": 62,
        "velocity": 0,
        "channel": 1
      },
      {
        "type": "note_on",
        "time": 1,
        "note": 59,
        "velocity": 60,
        "channel": 1
      },
      {
        "type": "note_on",
        "time": 29,
        "note": 59,
        "velocity": 0,
        "channel": 1
      },
      {
        "type": "note_on",
        "time": 1,
        "note": 54,
        "velocity": 60,
        "channel": 1
      },
      {
        "type": "note_on",
        "time": 59,
        "note": 54,
        "velocity": 0,
        "channel": 1
      },
      {
        "type": "note_on",
        "time": 1,
        "note": 54,
        "velocity": 60,
        "channel": 1
      },
      {
        "type": "note_on",
        "time": 29,
        "note": 54,
        "velocity": 0,
        "channel": 1
      },
      {
        "type": "note_on",
        "time": 1,
        "note": 59,
        "velocity": 60,
        "channel": 1
      },
      {
        "type": "note_on",
        "time": 119,
        "note": 59,
        "velocity": 0,
        "channel": 1
      },
      {
        "type": "note_on",
        "time": 1,
        "note": 62,
        "velocity": 60,
        "channel": 1
      },
      {
        "type": "note_on",
        "time": 59,
        "note": 62,
        "velocity": 0,
        "channel": 1
      },
      {
        "type": "note_on",
        "time": 1,
        "note": 64,
        "velocity": 60,
        "channel": 1
      },
      {
        "type": "note_on",
        "time": 59,
        "note": 64,
        "velocity": 0,
        "channel": 1
      },
      {
        "type": "note_on",
        "time": 1,
        "note": 54,
        "velocity": 60,
        "channel": 1
      },
      {
        "type": "note_on",
        "time": 59,
        "note": 54,
        "velocity": 0,
        "channel": 1
      },
      {
        "type": "note_on",
        "time": 1,
        "note": 61,
        "velocity": 60,
        "channel": 1
      },
      {
        "type": "note_on",
        "time": 29,
        "note": 61,
        "velocity": 0,
        "channel": 1
      },
      {
        "type": "note_on",
        "time": 1,
        "note": 54,
        "velocity": 60,
        "channel": 1
      },
      {
        "type": "note_on",
        "time": 29,
        "note": 54,
        "velocity": 0,
        "channel": 1
      },
      {
        "type": "note_on",
        "time": 1,
        "note": 58,
        "velocity": 60,
        "channel": 1
      },
      {
        "type": "note_on",
        "time": 29,
        "note": 58,
        "velocity": 0,
        "channel": 1
      },
      {
        "type": "note_on",
        "time": 1,
        "note": 61,
        "velocity": 60,
        "channel": 1
      },
      {
        "type": "note_on",
        "time": 59,
        "note": 61,
        "velocity": 0,
        "channel": 1
      },
      {
        "type": "note_on",
        "time": 1,
        "note": 54,
        "velocity": 60,
        "channel": 1
      },
      {
        "type": "note_on",
        "time": 29,
        "note": 54,
        "velocity": 0,
        "channel": 1
      },
      {
        "type": "note_on",
        "time": 1,
        "note": 58,
        "velocity": 60,
        "channel": 1
      },
      {
        "type": "note_on",
        "time": 239,
        "note": 58,
        "velocity": 0,
        "channel": 1
      },
      {
        "type": "note_on",
        "time": 1,
        "note": 57,
        "velocity": 60,
        "channel": 1
      },
      {
        "type": "note_on",
        "time": 59,
        "note": 57,
        "velocity": 0,
        "channel": 1
      },
      {
        "type": "note_on",
        "time": 1,
        "note": 57,
        "velocity": 60,
        "channel": 1
      },
      {
        "type": "note_on",
        "time": 29,
        "note": 57,
        "velocity": 0,
        "channel": 1
      },
      {
        "type": "note_on",
        "time": 1,
        "note": 57,
        "velocity": 60,
        "channel": 1
      },
      {
        "type": "note_on",
        "time": 29,
        "note": 57,
        "velocity": 0,
        "channel": 1
      },
      {
        "type": "note_on",
        "time": 1,
        "note": 57,
        "velocity": 60,
        "channel": 1
      },
      {
        "type": "note_on",
        "time": 30,
        "note": 59,
        "velocity": 60,
        "channel": 1
      },
      {
        "type": "note_on",
        "time": 29,
        "note": 57,
        "velocity": 0,
        "channel": 1
      },
      {
        "type": "note_on",
        "time": 30,
        "note": 59,
        "velocity": 0,
        "channel": 1
      },
      {
        "type": "note_on",
        "time": 1,
        "note": 57,
        "velocity": 60,
        "channel": 1
      },
      {
        "type": "note_on",
        "time": 29,
        "note": 57,
        "velocity": 0,
        "channel": 1
      },
      {
        "type": "note_on",
        "time": 1,
        "note": 57,
        "velocity": 60,
        "channel": 1
      },
      {
        "type": "note_on",
        "time": 59,
        "note": 57,
        "velocity": 0,
        "channel": 1
      },
      {
        "type": "note_on",
        "time": 1,
        "note": 57,
        "velocity": 60,
        "channel": 1
      },
      {
        "type": "note_on",
        "time": 29,
        "note": 57,
        "velocity": 0,
        "channel": 1
      },
      {
        "type": "note_on",
        "time": 1,
        "note": 59,
        "velocity": 60,
        "channel": 1
      },
      {
        "type": "note_on",
        "time": 29,
        "note": 59,
        "velocity": 0,
        "channel": 1
      },
      {
        "type": "note_on",
        "time": 1,
        "note": 52,
        "velocity": 60,
        "channel": 1
      },
      {
        "type": "note_on",
        "time": 59,
        "note": 52,
        "velocity": 0,
        "channel": 1
      },
      {
        "type": "note_on",
        "time": 1,
        "note": 52,
        "velocity": 60,
        "channel": 1
      },
      {
        "type": "note_on",
        "time": 29,
        "note": 52,
        "velocity": 0,
        "channel": 1
      },
      {
        "type": "note_on",
        "time": 1,
        "note": 54,
        "velocity": 60,
        "channel": 1
      },
      {
        "type": "note_on",
        "time": 29,
        "note": 54,
        "velocity": 0,
        "channel": 1
      },
      {
        "type": "note_on",
        "time": 1,
        "note": 56,
        "velocity": 60,
        "channel": 1
      },
      {
        "type": "note_on",
        "time": 59,
        "note": 56,
        "velocity": 0,
        "channel": 1
      },
      {
        "type": "note_on",
        "time": 1,
        "note": 56,
        "velocity": 60,
        "channel": 1
      },
      {
        "type": "note_on",
        "time": 29,
        "note": 56,
        "velocity": 0,
        "channel": 1
      },
      {
        "type": "note_on",
        "time": 1,
        "note": 59,
        "velocity": 60,
        "channel": 1
      },
      {
        "type": "note_on",
        "time": 29,
        "note": 59,
        "velocity": 0,
        "channel": 1
      },
      {
        "type": "note_on",
        "time": 1,
        "note": 56,
        "velocity": 60,
        "channel": 1
      },
      {
        "type": "note_on",
        "time": 29,
        "note": 56,
        "velocity": 0,
        "channel": 1
      },
      {
        "type": "note_on",
        "time": 1,
        "note": 59,
        "velocity": 60,
        "channel": 1
      },
      {
        "type": "note_on",
        "time": 59,
        "note": 59,
        "velocity": 0,
        "channel": 1
      },
      {
        "type": "note_on",
        "time": 1,
        "note": 56,
        "velocity": 60,
        "channel": 1
      },
      {
        "type": "note_on",
        "time": 29,
        "note": 56,
        "velocity": 0,
        "channel": 1
      },
      {
        "type": "note_on",
        "time": 1,
        "note": 64,
        "velocity": 60,
        "channel": 1
      },
      {
        "type": "note_on",
        "time": 119,
        "note": 64,
        "velocity": 0,
        "channel": 1
      },
      {
        "type": "note_on",
        "time": 121,
        "note": 55,
        "velocity": 60,
        "channel": 1
      },
      {
        "type": "note_on",
        "time": 59,
        "note": 55,
        "velocity": 0,
        "channel": 1
      },
      {
        "type": "note_on",
        "time": 1,
        "note": 55,
        "velocity": 60,
        "channel": 1
      },
      {
        "type": "note_on",
        "time": 29,
        "note": 55,
        "velocity": 0,
        "channel": 1
      },
      {
        "type": "note_on",
        "time": 1,
        "note": 50,
        "velocity": 60,
        "channel": 1
      },
      {
        "type": "note_on",
        "time": 29,
        "note": 50,
        "velocity": 0,
        "channel": 1
      },
      {
        "type": "note_on",
        "time": 1,
        "note": 55,
        "velocity": 60,
        "channel": 1
      },
      {
        "type": "note_on",
        "time": 29,
        "note": 55,
        "velocity": 0,
        "channel": 1
      },
      {
        "type": "note_on",
        "time": 1,
        "note": 57,
        "velocity": 60,
        "channel": 1
      },
      {
        "type": "note_on",
        "time": 59,
        "note": 57,
        "velocity": 0,
        "channel": 1
      },
      {
        "type": "note_on",
        "time": 1,
        "note": 55,
        "velocity": 60,
        "channel": 1
      },
      {
        "type": "note_on",
        "time": 29,
        "note": 55,
        "velocity": 0,
        "channel": 1
      },
      {
        "type": "note_on",
        "time": 1,
        "note": 59,
        "velocity": 60,
        "channel": 1
      },
      {
        "type": "note_on",
        "time": 119,
        "note": 59,
        "velocity": 0,
        "channel": 1
      },
      {
        "type": "note_on",
        "time": 1,
        "note": 57,
        "velocity": 60,
        "channel": 1
      },
      {
        "type": "note_on",
        "time": 59,
        "note": 57,
        "velocity": 0,
        "channel": 1
      },
      {
        "type": "note_on",
        "time": 1,
        "note": 55,
        "velocity": 60,
        "channel": 1
      },
      {
        "type": "note_on",
        "time": 59,
        "note": 55,
        "velocity": 0,
        "channel": 1
      },
      {
        "type": "note_on",
        "time": 1,
        "note": 50,
        "velocity": 60,
        "channel": 1
      },
      {
        "type": "note_on",
        "time": 59,
        "note": 50,
        "velocity": 0,
        "channel": 1
      },
      {
        "type": "note_on",
        "time": 1,
        "note": 50,
        "velocity": 60,
        "channel": 1
      },
      {
        "type": "note_on",
        "time": 29,
        "note": 50,
        "velocity": 0,
        "channel": 1
      },
      {
        "type": "note_on",
        "time": 1,
        "note": 45,
        "velocity": 60,
        "channel": 1
      },
      {
        "type": "note_on",
        "time": 29,
        "note": 45,
        "velocity": 0,
        "channel": 1
      },
      {
        "type": "note_on",
        "time": 1,
        "note": 50,
        "velocity": 60,
        "channel": 1
      },
      {
        "type": "note_on",
        "time": 29,
        "note": 50,
        "velocity": 0,
        "channel": 1
      },
      {
        "type": "note_on",
        "time": 1,
        "note": 52,
        "velocity": 60,
        "channel": 1
      },
      {
        "type": "note_on",
        "time": 59,
        "note": 52,
        "velocity": 0,
        "channel": 1
      },
      {
        "type": "note_on",
        "time": 1,
        "note": 50,
        "velocity": 60,
        "channel": 1
      },
      {
        "type": "note_on",
        "time": 29,
        "note": 50,
        "velocity": 0,
        "channel": 1
      },
      {
        "type": "note_on",
        "time": 1,
        "note": 54,
        "velocity": 60,
        "channel": 1
      },
      {
        "type": "note_on",
        "time": 239,
        "note": 54,
        "velocity": 0,
        "channel": 1
      },
      {
        "type": "note_on",
        "time": 1,
        "note": 52,
        "velocity": 60,
        "channel": 1
      },
      {
        "type": "note_on",
        "time": 29,
        "note": 52,
        "velocity": 0,
        "channel": 1
      },
      {
        "type": "note_on",
        "time": 31,
        "note": 52,
        "velocity": 60,
        "channel": 1
      },
      {
        "type": "note_on",
        "time": 29,
        "note": 52,
        "velocity": 0,
        "channel": 1
      },
      {
        "type": "note_on",
        "time": 1,
        "note": 54,
        "velocity": 60,
        "channel": 1
      },
      {
        "type": "note_on",
        "time": 29,
        "note": 54,
        "velocity": 0,
        "channel": 1
      },
      {
        "type": "note_on",
        "time": 1,
        "note": 52,
        "velocity": 60,
        "channel": 1
      },
      {
        "type": "note_on",
        "time": 29,
        "note": 52,
        "velocity": 0,
        "channel": 1
      },
      {
        "type": "note_on",
        "time": 1,
        "note": 55,
        "velocity": 60,
        "channel": 1
      },
      {
        "type": "note_on",
        "time": 59,
        "note": 55,
        "velocity": 0,
        "channel": 1
      },
      {
        "type": "note_on",
        "time": 1,
        "note": 52,
        "velocity": 60,
        "channel": 1
      },
      {
        "type": "note_on",
        "time": 29,
        "note": 52,
        "velocity": 0,
        "channel": 1
      },
      {
        "type": "note_on",
        "time": 1,
        "note": 59,
        "velocity": 60,
        "channel": 1
      },
      {
        "type": "note_on",
        "time": 239,
        "note": 59,
        "velocity": 0,
        "channel": 1
      },
      {
        "type": "note_on",
        "time": 1,
        "note": 54,
        "velocity": 60,
        "channel": 1
      },
      {
        "type": "note_on",
        "time": 59,
        "note": 54,
        "velocity": 0,
        "channel": 1
      },
      {
        "type": "note_on",
        "time": 1,
        "note": 54,
        "velocity": 60,
        "channel": 1
      },
      {
        "type": "note_on",
        "time": 29,
        "note": 54,
        "velocity": 0,
        "channel": 1
      },
      {
        "type": "note_on",
        "time": 1,
        "note": 55,
        "velocity": 60,
        "channel": 1
      },
      {
        "type": "note_on",
        "time": 29,
        "note": 55,
        "velocity": 0,
        "channel": 1
      },
      {
        "type": "note_on",
        "time": 1,
        "note": 54,
        "velocity": 60,
        "channel": 1
      },
      {
        "type": "note_on",
        "time": 29,
        "note": 54,
        "velocity": 0,
        "channel": 1
      },
      {
        "type": "note_on",
        "time": 1,
        "note": 55,
        "velocity": 60,
        "channel": 1
      },
      {
        "type": "note_on",
        "time": 59,
        "note": 55,
        "velocity": 0,
        "channel": 1
      },
      {
        "type": "note_on",
        "time": 1,
        "note": 54,
        "velocity": 60,
        "channel": 1
      },
      {
        "type": "note_on",
        "time": 29,
        "note": 54,
        "velocity": 0,
        "channel": 1
      },
      {
        "type": "note_on",
        "time": 1,
        "note": 61,
        "velocity": 60,
        "channel": 1
      },
      {
        "type": "note_on",
        "time": 119,
        "note": 61,
        "velocity": 0,
        "channel": 1
      },
      {
        "type": "note_on",
        "time": 3841,
        "note": 66,
        "velocity": 60,
        "channel": 1
      },
      {
        "type": "note_on",
        "time": 59,
        "note": 66,
        "velocity": 0,
        "channel": 1
      },
      {
        "type": "note_on",
        "time": 1,
        "note": 62,
        "velocity": 60,
        "channel": 1
      },
      {
        "type": "note_on",
        "time": 59,
        "note": 62,
        "velocity": 0,
        "channel": 1
      },
      {
        "type": "note_on",
        "time": 1,
        "note": 59,
        "velocity": 60,
        "channel": 1
      },
      {
        "type": "note_on",
        "time": 59,
        "note": 59,
        "velocity": 0,
        "channel": 1
      },
      {
        "type": "note_on",
        "time": 1,
        "note": 59,
        "velocity": 60,
        "channel": 1
      },
      {
        "type": "note_on",
        "time": 29,
        "note": 59,
        "velocity": 0,
        "channel": 1
      },
      {
        "type": "note_on",
        "time": 1,
        "note": 62,
        "velocity": 60,
        "channel": 1
      },
      {
        "type": "note_on",
        "time": 29,
        "note": 62,
        "velocity": 0,
        "channel": 1
      },
      {
        "type": "note_on",
        "time": 1,
        "note": 59,
        "velocity": 60,
        "channel": 1
      },
      {
        "type": "note_on",
        "time": 29,
        "note": 59,
        "velocity": 0,
        "channel": 1
      },
      {
        "type": "note_on",
        "time": 1,
        "note": 54,
        "velocity": 60,
        "channel": 1
      },
      {
        "type": "note_on",
        "time": 59,
        "note": 54,
        "velocity": 0,
        "channel": 1
      },
      {
        "type": "note_on",
        "time": 1,
        "note": 54,
        "velocity": 60,
        "channel": 1
      },
      {
        "type": "note_on",
        "time": 29,
        "note": 54,
        "velocity": 0,
        "channel": 1
      },
      {
        "type": "note_on",
        "time": 1,
        "note": 59,
        "velocity": 60,
        "channel": 1
      },
      {
        "type": "note_on",
        "time": 119,
        "note": 59,
        "velocity": 0,
        "channel": 1
      },
      {
        "type": "note_on",
        "time": 1,
        "note": 66,
        "velocity": 60,
        "channel": 1
      },
      {
        "type": "note_on",
        "time": 59,
        "note": 66,
        "velocity": 0,
        "channel": 1
      },
      {
        "type": "note_on",
        "time": 1,
        "note": 62,
        "velocity": 60,
        "channel": 1
      },
      {
        "type": "note_on",
        "time": 59,
        "note": 62,
        "velocity": 0,
        "channel": 1
      },
      {
        "type": "note_on",
        "time": 1,
        "note": 54,
        "velocity": 60,
        "channel": 1
      },
      {
        "type": "note_on",
        "time": 59,
        "note": 54,
        "velocity": 0,
        "channel": 1
      },
      {
        "type": "note_on",
        "time": 1,
        "note": 61,
        "velocity": 60,
        "channel": 1
      },
      {
        "type": "note_on",
        "time": 29,
        "note": 61,
        "velocity": 0,
        "channel": 1
      },
      {
        "type": "note_on",
        "time": 1,
        "note": 54,
        "velocity": 60,
        "channel": 1
      },
      {
        "type": "note_on",
        "time": 29,
        "note": 54,
        "velocity": 0,
        "channel": 1
      },
      {
        "type": "note_on",
        "time": 1,
        "note": 58,
        "velocity": 60,
        "channel": 1
      },
      {
        "type": "note_on",
        "time": 29,
        "note": 58,
        "velocity": 0,
        "channel": 1
      },
      {
        "type": "note_on",
        "time": 1,
        "note": 61,
        "velocity": 60,
        "channel": 1
      },
      {
        "type": "note_on",
        "time": 59,
        "note": 61,
        "velocity": 0,
        "channel": 1
      },
      {
        "type": "note_on",
        "time": 1,
        "note": 54,
        "velocity": 60,
        "channel": 1
      },
      {
        "type": "note_on",
        "time": 29,
        "note": 54,
        "velocity": 0,
        "channel": 1
      },
      {
        "type": "note_on",
        "time": 1,
        "note": 58,
        "velocity": 60,
        "channel": 1
      },
      {
        "type": "note_on",
        "time": 239,
        "note": 58,
        "velocity": 0,
        "channel": 1
      },
      {
        "type": "note_on",
        "time": 1,
        "note": 57,
        "velocity": 60,
        "channel": 1
      },
      {
        "type": "note_on",
        "time": 59,
        "note": 57,
        "velocity": 0,
        "channel": 1
      },
      {
        "type": "note_on",
        "time": 1,
        "note": 57,
        "velocity": 60,
        "channel": 1
      },
      {
        "type": "note_on",
        "time": 29,
        "note": 57,
        "velocity": 0,
        "channel": 1
      },
      {
        "type": "note_on",
        "time": 1,
        "note": 57,
        "velocity": 60,
        "channel": 1
      },
      {
        "type": "note_on",
        "time": 29,
        "note": 57,
        "velocity": 0,
        "channel": 1
      },
      {
        "type": "note_on",
        "time": 1,
        "note": 57,
        "velocity": 60,
        "channel": 1
      },
      {
        "type": "note_on",
        "time": 30,
        "note": 59,
        "velocity": 60,
        "channel": 1
      },
      {
        "type": "note_on",
        "time": 29,
        "note": 57,
        "velocity": 0,
        "channel": 1
      },
      {
        "type": "note_on",
        "time": 30,
        "note": 59,
        "velocity": 0,
        "channel": 1
      },
      {
        "type": "note_on",
        "time": 1,
        "note": 57,
        "velocity": 60,
        "channel": 1
      },
      {
        "type": "note_on",
        "time": 29,
        "note": 57,
        "velocity": 0,
        "channel": 1
      },
      {
        "type": "note_on",
        "time": 1,
        "note": 57,
        "velocity": 60,
        "channel": 1
      },
      {
        "type": "note_on",
        "time": 59,
        "note": 57,
        "velocity": 0,
        "channel": 1
      },
      {
        "type": "note_on",
        "time": 1,
        "note": 57,
        "velocity": 60,
        "channel": 1
      },
      {
        "type": "note_on",
        "time": 29,
        "note": 57,
        "velocity": 0,
        "channel": 1
      },
      {
        "type": "note_on",
        "time": 1,
        "note": 59,
        "velocity": 60,
        "channel": 1
      },
      {
        "type": "note_on",
        "time": 29,
        "note": 59,
        "velocity": 0,
        "channel": 1
      },
      {
        "type": "note_on",
        "time": 1,
        "note": 52,
        "velocity": 60,
        "channel": 1
      },
      {
        "type": "note_on",
        "time": 59,
        "note": 52,
        "velocity": 0,
        "channel": 1
      },
      {
        "type": "note_on",
        "time": 1,
        "note": 52,
        "velocity": 60,
        "channel": 1
      },
      {
        "type": "note_on",
        "time": 29,
        "note": 52,
        "velocity": 0,
        "channel": 1
      },
      {
        "type": "note_on",
        "time": 1,
        "note": 54,
        "velocity": 60,
        "channel": 1
      },
      {
        "type": "note_on",
        "time": 29,
        "note": 54,
        "velocity": 0,
        "channel": 1
      },
      {
        "type": "note_on",
        "time": 1,
        "note": 56,
        "velocity": 60,
        "channel": 1
      },
      {
        "type": "note_on",
        "time": 59,
        "note": 56,
        "velocity": 0,
        "channel": 1
      },
      {
        "type": "note_on",
        "time": 1,
        "note": 56,
        "velocity": 60,
        "channel": 1
      },
      {
        "type": "note_on",
        "time": 29,
        "note": 56,
        "velocity": 0,
        "channel": 1
      },
      {
        "type": "note_on",
        "time": 1,
        "note": 59,
        "velocity": 60,
        "channel": 1
      },
      {
        "type": "note_on",
        "time": 29,
        "note": 59,
        "velocity": 0,
        "channel": 1
      },
      {
        "type": "note_on",
        "time": 1,
        "note": 56,
        "velocity": 60,
        "channel": 1
      },
      {
        "type": "note_on",
        "time": 29,
        "note": 56,
        "velocity": 0,
        "channel": 1
      },
      {
        "type": "note_on",
        "time": 1,
        "note": 59,
        "velocity": 60,
        "channel": 1
      },
      {
        "type": "note_on",
        "time": 59,
        "note": 59,
        "velocity": 0,
        "channel": 1
      },
      {
        "type": "note_on",
        "time": 1,
        "note": 56,
        "velocity": 60,
        "channel": 1
      },
      {
        "type": "note_on",
        "time": 29,
        "note": 56,
        "velocity": 0,
        "channel": 1
      },
      {
        "type": "note_on",
        "time": 1,
        "note": 64,
        "velocity": 60,
        "channel": 1
      },
      {
        "type": "note_on",
        "time": 119,
        "note": 64,
        "velocity": 0,
        "channel": 1
      },
      {
        "type": "note_on",
        "time": 121,
        "note": 55,
        "velocity": 60,
        "channel": 1
      },
      {
        "type": "note_on",
        "time": 59,
        "note": 55,
        "velocity": 0,
        "channel": 1
      },
      {
        "type": "note_on",
        "time": 1,
        "note": 55,
        "velocity": 60,
        "channel": 1
      },
      {
        "type": "note_on",
        "time": 29,
        "note": 55,
        "velocity": 0,
        "channel": 1
      },
      {
        "type": "note_on",
        "time": 1,
        "note": 50,
        "velocity": 60,
        "channel": 1
      },
      {
        "type": "note_on",
        "time": 29,
        "note": 50,
        "velocity": 0,
        "channel": 1
      },
      {
        "type": "note_on",
        "time": 1,
        "note": 55,
        "velocity": 60,
        "channel": 1
      },
      {
        "type": "note_on",
        "time": 29,
        "note": 55,
        "velocity": 0,
        "channel": 1
      },
      {
        "type": "note_on",
        "time": 1,
        "note": 57,
        "velocity": 60,
        "channel": 1
      },
      {
        "type": "note_on",
        "time": 59,
        "note": 57,
        "velocity": 0,
        "channel": 1
      },
      {
        "type": "note_on",
        "time": 1,
        "note": 55,
        "velocity": 60,
        "channel": 1
      },
      {
        "type": "note_on",
        "time": 29,
        "note": 55,
        "velocity": 0,
        "channel": 1
      },
      {
        "type": "note_on",
        "time": 1,
        "note": 59,
        "velocity": 60,
        "channel": 1
      },
      {
        "type": "note_on",
        "time": 119,
        "note": 59,
        "velocity": 0,
        "channel": 1
      },
      {
        "type": "note_on",
        "time": 1,
        "note": 57,
        "velocity": 60,
        "channel": 1
      },
      {
        "type": "note_on",
        "time": 59,
        "note": 57,
        "velocity": 0,
        "channel": 1
      },
      {
        "type": "note_on",
        "time": 1,
        "note": 55,
        "velocity": 60,
        "channel": 1
      },
      {
        "type": "note_on",
        "time": 59,
        "note": 55,
        "velocity": 0,
        "channel": 1
      },
      {
        "type": "note_on",
        "time": 1,
        "note": 50,
        "velocity": 60,
        "channel": 1
      },
      {
        "type": "note_on",
        "time": 59,
        "note": 50,
        "velocity": 0,
        "channel": 1
      },
      {
        "type": "note_on",
        "time": 1,
        "note": 50,
        "velocity": 60,
        "channel": 1
      },
      {
        "type": "note_on",
        "time": 29,
        "note": 50,
        "velocity": 0,
        "channel": 1
      },
      {
        "type": "note_on",
        "time": 1,
        "note": 45,
        "velocity": 60,
        "channel": 1
      },
      {
        "type": "note_on",
        "time": 29,
        "note": 45,
        "velocity": 0,
        "channel": 1
      },
      {
        "type": "note_on",
        "time": 1,
        "note": 50,
        "velocity": 60,
        "channel": 1
      },
      {
        "type": "note_on",
        "time": 29,
        "note": 50,
        "velocity": 0,
        "channel": 1
      },
      {
        "type": "note_on",
        "time": 1,
        "note": 52,
        "velocity": 60,
        "channel": 1
      },
      {
        "type": "note_on",
        "time": 59,
        "note": 52,
        "velocity": 0,
        "channel": 1
      },
      {
        "type": "note_on",
        "time": 1,
        "note": 50,
        "velocity": 60,
        "channel": 1
      },
      {
        "type": "note_on",
        "time": 29,
        "note": 50,
        "velocity": 0,
        "channel": 1
      },
      {
        "type": "note_on",
        "time": 1,
        "note": 54,
        "velocity": 60,
        "channel": 1
      },
      {
        "type": "note_on",
        "time": 239,
        "note": 54,
        "velocity": 0,
        "channel": 1
      },
      {
        "type": "note_on",
        "time": 1,
        "note": 52,
        "velocity": 60,
        "channel": 1
      },
      {
        "type": "note_on",
        "time": 29,
        "note": 52,
        "velocity": 0,
        "channel": 1
      },
      {
        "type": "note_on",
        "time": 31,
        "note": 52,
        "velocity": 60,
        "channel": 1
      },
      {
        "type": "note_on",
        "time": 29,
        "note": 52,
        "velocity": 0,
        "channel": 1
      },
      {
        "type": "note_on",
        "time": 1,
        "note": 54,
        "velocity": 60,
        "channel": 1
      },
      {
        "type": "note_on",
        "time": 29,
        "note": 54,
        "velocity": 0,
        "channel": 1
      },
      {
        "type": "note_on",
        "time": 1,
        "note": 52,
        "velocity": 60,
        "channel": 1
      },
      {
        "type": "note_on",
        "time": 29,
        "note": 52,
        "velocity": 0,
        "channel": 1
      },
      {
        "type": "note_on",
        "time": 1,
        "note": 55,
        "velocity": 60,
        "channel": 1
      },
      {
        "type": "note_on",
        "time": 59,
        "note": 55,
        "velocity": 0,
        "channel": 1
      },
      {
        "type": "note_on",
        "time": 1,
        "note": 52,
        "velocity": 60,
        "channel": 1
      },
      {
        "type": "note_on",
        "time": 29,
        "note": 52,
        "velocity": 0,
        "channel": 1
      },
      {
        "type": "note_on",
        "time": 1,
        "note": 59,
        "velocity": 60,
        "channel": 1
      },
      {
        "type": "note_on",
        "time": 239,
        "note": 59,
        "velocity": 0,
        "channel": 1
      },
      {
        "type": "note_on",
        "time": 1,
        "note": 54,
        "velocity": 60,
        "channel": 1
      },
      {
        "type": "note_on",
        "time": 59,
        "note": 54,
        "velocity": 0,
        "channel": 1
      },
      {
        "type": "note_on",
        "time": 1,
        "note": 54,
        "velocity": 60,
        "channel": 1
      },
      {
        "type": "note_on",
        "time": 29,
        "note": 54,
        "velocity": 0,
        "channel": 1
      },
      {
        "type": "note_on",
        "time": 1,
        "note": 55,
        "velocity": 60,
        "channel": 1
      },
      {
        "type": "note_on",
        "time": 29,
        "note": 55,
        "velocity": 0,
        "channel": 1
      },
      {
        "type": "note_on",
        "time": 1,
        "note": 54,
        "velocity": 60,
        "channel": 1
      },
      {
        "type": "note_on",
        "time": 29,
        "note": 54,
        "velocity": 0,
        "channel": 1
      },
      {
        "type": "note_on",
        "time": 1,
        "note": 55,
        "velocity": 60,
        "channel": 1
      },
      {
        "type": "note_on",
        "time": 59,
        "note": 55,
        "velocity": 0,
        "channel": 1
      },
      {
        "type": "note_on",
        "time": 1,
        "note": 54,
        "velocity": 60,
        "channel": 1
      },
      {
        "type": "note_on",
        "time": 29,
        "note": 54,
        "velocity": 0,
        "channel": 1
      },
      {
        "type": "note_on",
        "time": 1,
        "note": 61,
        "velocity": 60,
        "channel": 1
      },
      {
        "type": "note_on",
        "time": 239,
        "note": 61,
        "velocity": 0,
        "channel": 1
      },
      {
        "type": "note_on",
        "time": 1,
        "note": 59,
        "velocity": 60,
        "channel": 1
      },
      {
        "type": "note_on",
        "time": 59,
        "note": 59,
        "velocity": 0,
        "channel": 1
      },
      {
        "type": "note_on",
        "time": 1,
        "note": 59,
        "velocity": 60,
        "channel": 1
      },
      {
        "type": "note_on",
        "time": 29,
        "note": 59,
        "velocity": 0,
        "channel": 1
      },
      {
        "type": "note_on",
        "time": 1,
        "note": 62,
        "velocity": 60,
        "channel": 1
      },
      {
        "type": "note_on",
        "time": 29,
        "note": 62,
        "velocity": 0,
        "channel": 1
      },
      {
        "type": "note_on",
        "time": 1,
        "note": 59,
        "velocity": 60,
        "channel": 1
      },
      {
        "type": "note_on",
        "time": 29,
        "note": 59,
        "velocity": 0,
        "channel": 1
      },
      {
        "type": "note_on",
        "time": 1,
        "note": 54,
        "velocity": 60,
        "channel": 1
      },
      {
        "type": "note_on",
        "time": 59,
        "note": 54,
        "velocity": 0,
        "channel": 1
      },
      {
        "type": "note_on",
        "time": 1,
        "note": 54,
        "velocity": 60,
        "channel": 1
      },
      {
        "type": "note_on",
        "time": 29,
        "note": 54,
        "velocity": 0,
        "channel": 1
      },
      {
        "type": "note_on",
        "time": 1,
        "note": 59,
        "velocity": 60,
        "channel": 1
      },
      {
        "type": "note_on",
        "time": 119,
        "note": 59,
        "velocity": 0,
        "channel": 1
      },
      {
        "type": "note_on",
        "time": 1,
        "note": 62,
        "velocity": 60,
        "channel": 1
      },
      {
        "type": "note_on",
        "time": 59,
        "note": 62,
        "velocity": 0,
        "channel": 1
      },
      {
        "type": "note_on",
        "time": 1,
        "note": 64,
        "velocity": 60,
        "channel": 1
      },
      {
        "type": "note_on",
        "time": 59,
        "note": 64,
        "velocity": 0,
        "channel": 1
      },
      {
        "type": "note_on",
        "time": 1,
        "note": 54,
        "velocity": 60,
        "channel": 1
      },
      {
        "type": "note_on",
        "time": 59,
        "note": 54,
        "velocity": 0,
        "channel": 1
      },
      {
        "type": "note_on",
        "time": 1,
        "note": 61,
        "velocity": 60,
        "channel": 1
      },
      {
        "type": "note_on",
        "time": 29,
        "note": 61,
        "velocity": 0,
        "channel": 1
      },
      {
        "type": "note_on",
        "time": 1,
        "note": 54,
        "velocity": 60,
        "channel": 1
      },
      {
        "type": "note_on",
        "time": 29,
        "note": 54,
        "velocity": 0,
        "channel": 1
      },
      {
        "type": "note_on",
        "time": 1,
        "note": 58,
        "velocity": 60,
        "channel": 1
      },
      {
        "type": "note_on",
        "time": 29,
        "note": 58,
        "velocity": 0,
        "channel": 1
      },
      {
        "type": "note_on",
        "time": 1,
        "note": 61,
        "velocity": 60,
        "channel": 1
      },
      {
        "type": "note_on",
        "time": 59,
        "note": 61,
        "velocity": 0,
        "channel": 1
      },
      {
        "type": "note_on",
        "time": 1,
        "note": 54,
        "velocity": 60,
        "channel": 1
      },
      {
        "type": "note_on",
        "time": 29,
        "note": 54,
        "velocity": 0,
        "channel": 1
      },
      {
        "type": "note_on",
        "time": 1,
        "note": 58,
        "velocity": 60,
        "channel": 1
      },
      {
        "type": "note_on",
        "time": 239,
        "note": 58,
        "velocity": 0,
        "channel": 1
      },
      {
        "type": "note_on",
        "time": 1,
        "note": 57,
        "velocity": 60,
        "channel": 1
      },
      {
        "type": "note_on",
        "time": 59,
        "note": 57,
        "velocity": 0,
        "channel": 1
      },
      {
        "type": "note_on",
        "time": 1,
        "note": 57,
        "velocity": 60,
        "channel": 1
      },
      {
        "type": "note_on",
        "time": 29,
        "note": 57,
        "velocity": 0,
        "channel": 1
      },
      {
        "type": "note_on",
        "time": 1,
        "note": 57,
        "velocity": 60,
        "channel": 1
      },
      {
        "type": "note_on",
        "time": 29,
        "note": 57,
        "velocity": 0,
        "channel": 1
      },
      {
        "type": "note_on",
        "time": 1,
        "note": 57,
        "velocity": 60,
        "channel": 1
      },
      {
        "type": "note_on",
        "time": 30,
        "note": 59,
        "velocity": 60,
        "channel": 1
      },
      {
        "type": "note_on",
        "time": 29,
        "note": 57,
        "velocity": 0,
        "channel": 1
      },
      {
        "type": "note_on",
        "time": 30,
        "note": 59,
        "velocity": 0,
        "channel": 1
      },
      {
        "type": "note_on",
        "time": 1,
        "note": 57,
        "velocity": 60,
        "channel": 1
      },
      {
        "type": "note_on",
        "time": 29,
        "note": 57,
        "velocity": 0,
        "channel": 1
      },
      {
        "type": "note_on",
        "time": 1,
        "note": 57,
        "velocity": 60,
        "channel": 1
      },
      {
        "type": "note_on",
        "time": 59,
        "note": 57,
        "velocity": 0,
        "channel": 1
      },
      {
        "type": "note_on",
        "time": 1,
        "note": 57,
        "velocity": 60,
        "channel": 1
      },
      {
        "type": "note_on",
        "time": 29,
        "note": 57,
        "velocity": 0,
        "channel": 1
      },
      {
        "type": "note_on",
        "time": 1,
        "note": 59,
        "velocity": 60,
        "channel": 1
      },
      {
        "type": "note_on",
        "time": 29,
        "note": 59,
        "velocity": 0,
        "channel": 1
      },
      {
        "type": "note_on",
        "time": 1,
        "note": 52,
        "velocity": 60,
        "channel": 1
      },
      {
        "type": "note_on",
        "time": 59,
        "note": 52,
        "velocity": 0,
        "channel": 1
      },
      {
        "type": "note_on",
        "time": 1,
        "note": 52,
        "velocity": 60,
        "channel": 1
      },
      {
        "type": "note_on",
        "time": 29,
        "note": 52,
        "velocity": 0,
        "channel": 1
      },
      {
        "type": "note_on",
        "time": 1,
        "note": 54,
        "velocity": 60,
        "channel": 1
      },
      {
        "type": "note_on",
        "time": 29,
        "note": 54,
        "velocity": 0,
        "channel": 1
      },
      {
        "type": "note_on",
        "time": 1,
        "note": 56,
        "velocity": 60,
        "channel": 1
      },
      {
        "type": "note_on",
        "time": 59,
        "note": 56,
        "velocity": 0,
        "channel": 1
      },
      {
        "type": "note_on",
        "time": 1,
        "note": 56,
        "velocity": 60,
        "channel": 1
      },
      {
        "type": "note_on",
        "time": 29,
        "note": 56,
        "velocity": 0,
        "channel": 1
      },
      {
        "type": "note_on",
        "time": 1,
        "note": 59,
        "velocity": 60,
        "channel": 1
      },
      {
        "type": "note_on",
        "time": 29,
        "note": 59,
        "velocity": 0,
        "channel": 1
      },
      {
        "type": "note_on",
        "time": 1,
        "note": 56,
        "velocity": 60,
        "channel": 1
      },
      {
        "type": "note_on",
        "time": 29,
        "note": 56,
        "velocity": 0,
        "channel": 1
      },
      {
        "type": "note_on",
        "time": 1,
        "note": 59,
        "velocity": 60,
        "channel": 1
      },
      {
        "type": "note_on",
        "time": 59,
        "note": 59,
        "velocity": 0,
        "channel": 1
      },
      {
        "type": "note_on",
        "time": 1,
        "note": 56,
        "velocity": 60,
        "channel": 1
      },
      {
        "type": "note_on",
        "time": 29,
        "note": 56,
        "velocity": 0,
        "channel": 1
      },
      {
        "type": "note_on",
        "time": 1,
        "note": 64,
        "velocity": 60,
        "channel": 1
      },
      {
        "type": "note_on",
        "time": 119,
        "note": 64,
        "velocity": 0,
        "channel": 1
      },
      {
        "type": "note_on",
        "time": 121,
        "note": 55,
        "velocity": 60,
        "channel": 1
      },
      {
        "type": "note_on",
        "time": 59,
        "note": 55,
        "velocity": 0,
        "channel": 1
      },
      {
        "type": "note_on",
        "time": 1,
        "note": 55,
        "velocity": 60,
        "channel": 1
      },
      {
        "type": "note_on",
        "time": 29,
        "note": 55,
        "velocity": 0,
        "channel": 1
      },
      {
        "type": "note_on",
        "time": 1,
        "note": 50,
        "velocity": 60,
        "channel": 1
      },
      {
        "type": "note_on",
        "time": 29,
        "note": 50,
        "velocity": 0,
        "channel": 1
      },
      {
        "type": "note_on",
        "time": 1,
        "note": 55,
        "velocity": 60,
        "channel": 1
      },
      {
        "type": "note_on",
        "time": 29,
        "note": 55,
        "velocity": 0,
        "channel": 1
      },
      {
        "type": "note_on",
        "time": 1,
        "note": 57,
        "velocity": 60,
        "channel": 1
      },
      {
        "type": "note_on",
        "time": 59,
        "note": 57,
        "velocity": 0,
        "channel": 1
      },
      {
        "type": "note_on",
        "time": 1,
        "note": 55,
        "velocity": 60,
        "channel": 1
      },
      {
        "type": "note_on",
        "time": 29,
        "note": 55,
        "velocity": 0,
        "channel": 1
      },
      {
        "type": "note_on",
        "time": 1,
        "note": 59,
        "velocity": 60,
        "channel": 1
      },
      {
        "type": "note_on",
        "time": 119,
        "note": 59,
        "velocity": 0,
        "channel": 1
      },
      {
        "type": "note_on",
        "time": 1,
        "note": 57,
        "velocity": 60,
        "channel": 1
      },
      {
        "type": "note_on",
        "time": 59,
        "note": 57,
        "velocity": 0,
        "channel": 1
      },
      {
        "type": "note_on",
        "time": 1,
        "note": 55,
        "velocity": 60,
        "channel": 1
      },
      {
        "type": "note_on",
        "time": 59,
        "note": 55,
        "velocity": 0,
        "channel": 1
      },
      {
        "type": "note_on",
        "time": 1,
        "note": 50,
        "velocity": 60,
        "channel": 1
      },
      {
        "type": "note_on",
        "time": 59,
        "note": 50,
        "velocity": 0,
        "channel": 1
      },
      {
        "type": "note_on",
        "time": 1,
        "note": 50,
        "velocity": 60,
        "channel": 1
      },
      {
        "type": "note_on",
        "time": 29,
        "note": 50,
        "velocity": 0,
        "channel": 1
      },
      {
        "type": "note_on",
        "time": 1,
        "note": 45,
        "velocity": 60,
        "channel": 1
      },
      {
        "type": "note_on",
        "time": 29,
        "note": 45,
        "velocity": 0,
        "channel": 1
      },
      {
        "type": "note_on",
        "time": 1,
        "note": 50,
        "velocity": 60,
        "channel": 1
      },
      {
        "type": "note_on",
        "time": 29,
        "note": 50,
        "velocity": 0,
        "channel": 1
      },
      {
        "type": "note_on",
        "time": 1,
        "note": 52,
        "velocity": 60,
        "channel": 1
      },
      {
        "type": "note_on",
        "time": 59,
        "note": 52,
        "velocity": 0,
        "channel": 1
      },
      {
        "type": "note_on",
        "time": 1,
        "note": 50,
        "velocity": 60,
        "channel": 1
      },
      {
        "type": "note_on",
        "time": 29,
        "note": 50,
        "velocity": 0,
        "channel": 1
      },
      {
        "type": "note_on",
        "time": 1,
        "note": 54,
        "velocity": 60,
        "channel": 1
      },
      {
        "type": "note_on",
        "time": 239,
        "note": 54,
        "velocity": 0,
        "channel": 1
      },
      {
        "type": "note_on",
        "time": 1,
        "note": 52,
        "velocity": 60,
        "channel": 1
      },
      {
        "type": "note_on",
        "time": 29,
        "note": 52,
        "velocity": 0,
        "channel": 1
      },
      {
        "type": "note_on",
        "time": 31,
        "note": 52,
        "velocity": 60,
        "channel": 1
      },
      {
        "type": "note_on",
        "time": 29,
        "note": 52,
        "velocity": 0,
        "channel": 1
      },
      {
        "type": "note_on",
        "time": 1,
        "note": 54,
        "velocity": 60,
        "channel": 1
      },
      {
        "type": "note_on",
        "time": 29,
        "note": 54,
        "velocity": 0,
        "channel": 1
      },
      {
        "type": "note_on",
        "time": 1,
        "note": 52,
        "velocity": 60,
        "channel": 1
      },
      {
        "type": "note_on",
        "time": 29,
        "note": 52,
        "velocity": 0,
        "channel": 1
      },
      {
        "type": "note_on",
        "time": 1,
        "note": 55,
        "velocity": 60,
        "channel": 1
      },
      {
        "type": "note_on",
        "time": 59,
        "note": 55,
        "velocity": 0,
        "channel": 1
      },
      {
        "type": "note_on",
        "time": 1,
        "note": 52,
        "velocity": 60,
        "channel": 1
      },
      {
        "type": "note_on",
        "time": 29,
        "note": 52,
        "velocity": 0,
        "channel": 1
      },
      {
        "type": "note_on",
        "time": 1,
        "note": 59,
        "velocity": 60,
        "channel": 1
      },
      {
        "type": "note_on",
        "time": 239,
        "note": 59,
        "velocity": 0,
        "channel": 1
      },
      {
        "type": "note_on",
        "time": 1,
        "note": 54,
        "velocity": 60,
        "channel": 1
      },
      {
        "type": "note_on",
        "time": 59,
        "note": 54,
        "velocity": 0,
        "channel": 1
      },
      {
        "type": "note_on",
        "time": 1,
        "note": 54,
        "velocity": 60,
        "channel": 1
      },
      {
        "type": "note_on",
        "time": 29,
        "note": 54,
        "velocity": 0,
        "channel": 1
      },
      {
        "type": "note_on",
        "time": 1,
        "note": 55,
        "velocity": 60,
        "channel": 1
      },
      {
        "type": "note_on",
        "time": 29,
        "note": 55,
        "velocity": 0,
        "channel": 1
      },
      {
        "type": "note_on",
        "time": 1,
        "note": 54,
        "velocity": 60,
        "channel": 1
      },
      {
        "type": "note_on",
        "time": 29,
        "note": 54,
        "velocity": 0,
        "channel": 1
      },
      {
        "type": "note_on",
        "time": 1,
        "note": 55,
        "velocity": 60,
        "channel": 1
      },
      {
        "type": "note_on",
        "time": 59,
        "note": 55,
        "velocity": 0,
        "channel": 1
      },
      {
        "type": "note_on",
        "time": 1,
        "note": 54,
        "velocity": 60,
        "channel": 1
      },
      {
        "type": "note_on",
        "time": 29,
        "note": 54,
        "velocity": 0,
        "channel": 1
      },
      {
        "type": "note_on",
        "time": 1,
        "note": 61,
        "velocity": 60,
        "channel": 1
      },
      {
        "type": "note_on",
        "time": 119,
        "note": 61,
        "velocity": 0,
        "channel": 1
      },
      {
        "type": "note_on",
        "time": 3961,
        "note": 59,
        "velocity": 60,
        "channel": 1
      },
      {
        "type": "note_on",
        "time": 59,
        "note": 59,
        "velocity": 0,
        "channel": 1
      },
      {
        "type": "note_on",
        "time": 1,
        "note": 59,
        "velocity": 60,
        "channel": 1
      },
      {
        "type": "note_on",
        "time": 29,
        "note": 59,
        "velocity": 0,
        "channel": 1
      },
      {
        "type": "note_on",
        "time": 1,
        "note": 62,
        "velocity": 60,
        "channel": 1
      },
      {
        "type": "note_on",
        "time": 29,
        "note": 62,
        "velocity": 0,
        "channel": 1
      },
      {
        "type": "note_on",
        "time": 1,
        "note": 59,
        "velocity": 60,
        "channel": 1
      },
      {
        "type": "note_on",
        "time": 29,
        "note": 59,
        "velocity": 0,
        "channel": 1
      },
      {
        "type": "note_on",
        "time": 1,
        "note": 54,
        "velocity": 60,
        "channel": 1
      },
      {
        "type": "note_on",
        "time": 59,
        "note": 54,
        "velocity": 0,
        "channel": 1
      },
      {
        "type": "note_on",
        "time": 1,
        "note": 54,
        "velocity": 60,
        "channel": 1
      },
      {
        "type": "note_on",
        "time": 29,
        "note": 54,
        "velocity": 0,
        "channel": 1
      },
      {
        "type": "note_on",
        "time": 1,
        "note": 59,
        "velocity": 60,
        "channel": 1
      },
      {
        "type": "note_on",
        "time": 119,
        "note": 59,
        "velocity": 0,
        "channel": 1
      },
      {
        "type": "note_on",
        "time": 1,
        "note": 62,
        "velocity": 60,
        "channel": 1
      },
      {
        "type": "note_on",
        "time": 59,
        "note": 62,
        "velocity": 0,
        "channel": 1
      },
      {
        "type": "note_on",
        "time": 1,
        "note": 64,
        "velocity": 60,
        "channel": 1
      },
      {
        "type": "note_on",
        "time": 59,
        "note": 64,
        "velocity": 0,
        "channel": 1
      },
      {
        "type": "note_on",
        "time": 1,
        "note": 54,
        "velocity": 60,
        "channel": 1
      },
      {
        "type": "note_on",
        "time": 59,
        "note": 54,
        "velocity": 0,
        "channel": 1
      },
      {
        "type": "note_on",
        "time": 1,
        "note": 61,
        "velocity": 60,
        "channel": 1
      },
      {
        "type": "note_on",
        "time": 29,
        "note": 61,
        "velocity": 0,
        "channel": 1
      },
      {
        "type": "note_on",
        "time": 1,
        "note": 54,
        "velocity": 60,
        "channel": 1
      },
      {
        "type": "note_on",
        "time": 29,
        "note": 54,
        "velocity": 0,
        "channel": 1
      },
      {
        "type": "note_on",
        "time": 1,
        "note": 58,
        "velocity": 60,
        "channel": 1
      },
      {
        "type": "note_on",
        "time": 29,
        "note": 58,
        "velocity": 0,
        "channel": 1
      },
      {
        "type": "note_on",
        "time": 1,
        "note": 61,
        "velocity": 60,
        "channel": 1
      },
      {
        "type": "note_on",
        "time": 59,
        "note": 61,
        "velocity": 0,
        "channel": 1
      },
      {
        "type": "note_on",
        "time": 1,
        "note": 54,
        "velocity": 60,
        "channel": 1
      },
      {
        "type": "note_on",
        "time": 29,
        "note": 54,
        "velocity": 0,
        "channel": 1
      },
      {
        "type": "note_on",
        "time": 1,
        "note": 58,
        "velocity": 60,
        "channel": 1
      },
      {
        "type": "note_on",
        "time": 239,
        "note": 58,
        "velocity": 0,
        "channel": 1
      },
      {
        "type": "note_on",
        "time": 1,
        "note": 57,
        "velocity": 60,
        "channel": 1
      },
      {
        "type": "note_on",
        "time": 59,
        "note": 57,
        "velocity": 0,
        "channel": 1
      },
      {
        "type": "note_on",
        "time": 1,
        "note": 57,
        "velocity": 60,
        "channel": 1
      },
      {
        "type": "note_on",
        "time": 29,
        "note": 57,
        "velocity": 0,
        "channel": 1
      },
      {
        "type": "note_on",
        "time": 1,
        "note": 57,
        "velocity": 60,
        "channel": 1
      },
      {
        "type": "note_on",
        "time": 29,
        "note": 57,
        "velocity": 0,
        "channel": 1
      },
      {
        "type": "note_on",
        "time": 1,
        "note": 57,
        "velocity": 60,
        "channel": 1
      },
      {
        "type": "note_on",
        "time": 30,
        "note": 59,
        "velocity": 60,
        "channel": 1
      },
      {
        "type": "note_on",
        "time": 29,
        "note": 57,
        "velocity": 0,
        "channel": 1
      },
      {
        "type": "note_on",
        "time": 30,
        "note": 59,
        "velocity": 0,
        "channel": 1
      },
      {
        "type": "note_on",
        "time": 1,
        "note": 57,
        "velocity": 60,
        "channel": 1
      },
      {
        "type": "note_on",
        "time": 29,
        "note": 57,
        "velocity": 0,
        "channel": 1
      },
      {
        "type": "note_on",
        "time": 1,
        "note": 61,
        "velocity": 60,
        "channel": 1
      },
      {
        "type": "note_on",
        "time": 59,
        "note": 61,
        "velocity": 0,
        "channel": 1
      },
      {
        "type": "note_on",
        "time": 1,
        "note": 57,
        "velocity": 60,
        "channel": 1
      },
      {
        "type": "note_on",
        "time": 29,
        "note": 57,
        "velocity": 0,
        "channel": 1
      },
      {
        "type": "note_on",
        "time": 1,
        "note": 59,
        "velocity": 60,
        "channel": 1
      },
      {
        "type": "note_on",
        "time": 29,
        "note": 59,
        "velocity": 0,
        "channel": 1
      },
      {
        "type": "note_on",
        "time": 1,
        "note": 52,
        "velocity": 60,
        "channel": 1
      },
      {
        "type": "note_on",
        "time": 59,
        "note": 52,
        "velocity": 0,
        "channel": 1
      },
      {
        "type": "note_on",
        "time": 1,
        "note": 52,
        "velocity": 60,
        "channel": 1
      },
      {
        "type": "note_on",
        "time": 29,
        "note": 52,
        "velocity": 0,
        "channel": 1
      },
      {
        "type": "note_on",
        "time": 1,
        "note": 54,
        "velocity": 60,
        "channel": 1
      },
      {
        "type": "note_on",
        "time": 29,
        "note": 54,
        "velocity": 0,
        "channel": 1
      },
      {
        "type": "note_on",
        "time": 1,
        "note": 56,
        "velocity": 60,
        "channel": 1
      },
      {
        "type": "note_on",
        "time": 59,
        "note": 56,
        "velocity": 0,
        "channel": 1
      },
      {
        "type": "note_on",
        "time": 1,
        "note": 56,
        "velocity": 60,
        "channel": 1
      },
      {
        "type": "note_on",
        "time": 29,
        "note": 56,
        "velocity": 0,
        "channel": 1
      },
      {
        "type": "note_on",
        "time": 1,
        "note": 59,
        "velocity": 60,
        "channel": 1
      },
      {
        "type": "note_on",
        "time": 29,
        "note": 59,
        "velocity": 0,
        "channel": 1
      },
      {
        "type": "note_on",
        "time": 1,
        "note": 56,
        "velocity": 60,
        "channel": 1
      },
      {
        "type": "note_on",
        "time": 29,
        "note": 56,
        "velocity": 0,
        "channel": 1
      },
      {
        "type": "note_on",
        "time": 1,
        "note": 59,
        "velocity": 60,
        "channel": 1
      },
      {
        "type": "note_on",
        "time": 59,
        "note": 59,
        "velocity": 0,
        "channel": 1
      },
      {
        "type": "note_on",
        "time": 1,
        "note": 56,
        "velocity": 60,
        "channel": 1
      },
      {
        "type": "note_on",
        "time": 29,
        "note": 56,
        "velocity": 0,
        "channel": 1
      },
      {
        "type": "note_on",
        "time": 1,
        "note": 64,
        "velocity": 60,
        "channel": 1
      },
      {
        "type": "note_on",
        "time": 119,
        "note": 64,
        "velocity": 0,
        "channel": 1
      },
      {
        "type": "note_on",
        "time": 121,
        "note": 55,
        "velocity": 60,
        "channel": 1
      },
      {
        "type": "note_on",
        "time": 59,
        "note": 55,
        "velocity": 0,
        "channel": 1
      },
      {
        "type": "note_on",
        "time": 1,
        "note": 55,
        "velocity": 60,
        "channel": 1
      },
      {
        "type": "note_on",
        "time": 29,
        "note": 55,
        "velocity": 0,
        "channel": 1
      },
      {
        "type": "note_on",
        "time": 1,
        "note": 50,
        "velocity": 60,
        "channel": 1
      },
      {
        "type": "note_on",
        "time": 29,
        "note": 50,
        "velocity": 0,
        "channel": 1
      },
      {
        "type": "note_on",
        "time": 1,
        "note": 55,
        "velocity": 60,
        "channel": 1
      },
      {
        "type": "note_on",
        "time": 29,
        "note": 55,
        "velocity": 0,
        "channel": 1
      },
      {
        "type": "note_on",
        "time": 1,
        "note": 57,
        "velocity": 60,
        "channel": 1
      },
      {
        "type": "note_on",
        "time": 59,
        "note": 57,
        "velocity": 0,
        "channel": 1
      },
      {
        "type": "note_on",
        "time": 1,
        "note": 55,
        "velocity": 60,
        "channel": 1
      },
      {
        "type": "note_on",
        "time": 29,
        "note": 55,
        "velocity": 0,
        "channel": 1
      },
      {
        "type": "note_on",
        "time": 1,
        "note": 59,
        "velocity": 60,
        "channel": 1
      },
      {
        "type": "note_on",
        "time": 119,
        "note": 59,
        "velocity": 0,
        "channel": 1
      },
      {
        "type": "note_on",
        "time": 1,
        "note": 57,
        "velocity": 60,
        "channel": 1
      },
      {
        "type": "note_on",
        "time": 59,
        "note": 57,
        "velocity": 0,
        "channel": 1
      },
      {
        "type": "note_on",
        "time": 1,
        "note": 55,
        "velocity": 60,
        "channel": 1
      },
      {
        "type": "note_on",
        "time": 59,
        "note": 55,
        "velocity": 0,
        "channel": 1
      },
      {
        "type": "note_on",
        "time": 1,
        "note": 50,
        "velocity": 60,
        "channel": 1
      },
      {
        "type": "note_on",
        "time": 59,
        "note": 50,
        "velocity": 0,
        "channel": 1
      },
      {
        "type": "note_on",
        "time": 1,
        "note": 50,
        "velocity": 60,
        "channel": 1
      },
      {
        "type": "note_on",
        "time": 29,
        "note": 50,
        "velocity": 0,
        "channel": 1
      },
      {
        "type": "note_on",
        "time": 1,
        "note": 45,
        "velocity": 60,
        "channel": 1
      },
      {
        "type": "note_on",
        "time": 29,
        "note": 45,
        "velocity": 0,
        "channel": 1
      },
      {
        "type": "note_on",
        "time": 1,
        "note": 50,
        "velocity": 60,
        "channel": 1
      },
      {
        "type": "note_on",
        "time": 29,
        "note": 50,
        "velocity": 0,
        "channel": 1
      },
      {
        "type": "note_on",
        "time": 1,
        "note": 52,
        "velocity": 60,
        "channel": 1
      },
      {
        "type": "note_on",
        "time": 59,
        "note": 52,
        "velocity": 0,
        "channel": 1
      },
      {
        "type": "note_on",
        "time": 1,
        "note": 50,
        "velocity": 60,
        "channel": 1
      },
      {
        "type": "note_on",
        "time": 29,
        "note": 50,
        "velocity": 0,
        "channel": 1
      },
      {
        "type": "note_on",
        "time": 1,
        "note": 54,
        "velocity": 60,
        "channel": 1
      },
      {
        "type": "note_on",
        "time": 239,
        "note": 54,
        "velocity": 0,
        "channel": 1
      },
      {
        "type": "note_on",
        "time": 1,
        "note": 52,
        "velocity": 60,
        "channel": 1
      },
      {
        "type": "note_on",
        "time": 29,
        "note": 52,
        "velocity": 0,
        "channel": 1
      },
      {
        "type": "note_on",
        "time": 31,
        "note": 52,
        "velocity": 60,
        "channel": 1
      },
      {
        "type": "note_on",
        "time": 29,
        "note": 52,
        "velocity": 0,
        "channel": 1
      },
      {
        "type": "note_on",
        "time": 1,
        "note": 54,
        "velocity": 60,
        "channel": 1
      },
      {
        "type": "note_on",
        "time": 29,
        "note": 54,
        "velocity": 0,
        "channel": 1
      },
      {
        "type": "note_on",
        "time": 1,
        "note": 52,
        "velocity": 60,
        "channel": 1
      },
      {
        "type": "note_on",
        "time": 29,
        "note": 52,
        "velocity": 0,
        "channel": 1
      },
      {
        "type": "note_on",
        "time": 1,
        "note": 55,
        "velocity": 60,
        "channel": 1
      },
      {
        "type": "note_on",
        "time": 59,
        "note": 55,
        "velocity": 0,
        "channel": 1
      },
      {
        "type": "note_on",
        "time": 1,
        "note": 52,
        "velocity": 60,
        "channel": 1
      },
      {
        "type": "note_on",
        "time": 29,
        "note": 52,
        "velocity": 0,
        "channel": 1
      },
      {
        "type": "note_on",
        "time": 1,
        "note": 59,
        "velocity": 60,
        "channel": 1
      },
      {
        "type": "note_on",
        "time": 239,
        "note": 59,
        "velocity": 0,
        "channel": 1
      },
      {
        "type": "note_on",
        "time": 1,
        "note": 54,
        "velocity": 60,
        "channel": 1
      },
      {
        "type": "note_on",
        "time": 59,
        "note": 54,
        "velocity": 0,
        "channel": 1
      },
      {
        "type": "note_on",
        "time": 1,
        "note": 54,
        "velocity": 60,
        "channel": 1
      },
      {
        "type": "note_on",
        "time": 29,
        "note": 54,
        "velocity": 0,
        "channel": 1
      },
      {
        "type": "note_on",
        "time": 1,
        "note": 55,
        "velocity": 60,
        "channel": 1
      },
      {
        "type": "note_on",
        "time": 29,
        "note": 55,
        "velocity": 0,
        "channel": 1
      },
      {
        "type": "note_on",
        "time": 1,
        "note": 54,
        "velocity": 60,
        "channel": 1
      },
      {
        "type": "note_on",
        "time": 29,
        "note": 54,
        "velocity": 0,
        "channel": 1
      },
      {
        "type": "note_on",
        "time": 1,
        "note": 55,
        "velocity": 60,
        "channel": 1
      },
      {
        "type": "note_on",
        "time": 59,
        "note": 55,
        "velocity": 0,
        "channel": 1
      },
      {
        "type": "note_on",
        "time": 1,
        "note": 54,
        "velocity": 60,
        "channel": 1
      },
      {
        "type": "note_on",
        "time": 29,
        "note": 54,
        "velocity": 0,
        "channel": 1
      },
      {
        "type": "note_on",
        "time": 1,
        "note": 61,
        "velocity": 60,
        "channel": 1
      },
      {
        "type": "note_on",
        "time": 239,
        "note": 61,
        "velocity": 0,
        "channel": 1
      },
      {
        "type": "note_on",
        "time": 1,
        "note": 59,
        "velocity": 60,
        "channel": 1
      },
      {
        "type": "note_on",
        "time": 59,
        "note": 59,
        "velocity": 0,
        "channel": 1
      },
      {
        "type": "note_on",
        "time": 1,
        "note": 59,
        "velocity": 60,
        "channel": 1
      },
      {
        "type": "note_on",
        "time": 29,
        "note": 59,
        "velocity": 0,
        "channel": 1
      },
      {
        "type": "note_on",
        "time": 1,
        "note": 62,
        "velocity": 60,
        "channel": 1
      },
      {
        "type": "note_on",
        "time": 29,
        "note": 62,
        "velocity": 0,
        "channel": 1
      },
      {
        "type": "note_on",
        "time": 1,
        "note": 59,
        "velocity": 60,
        "channel": 1
      },
      {
        "type": "note_on",
        "time": 29,
        "note": 59,
        "velocity": 0,
        "channel": 1
      },
      {
        "type": "note_on",
        "time": 1,
        "note": 54,
        "velocity": 60,
        "channel": 1
      },
      {
        "type": "note_on",
        "time": 59,
        "note": 54,
        "velocity": 0,
        "channel": 1
      },
      {
        "type": "note_on",
        "time": 1,
        "note": 54,
        "velocity": 60,
        "channel": 1
      },
      {
        "type": "note_on",
        "time": 29,
        "note": 54,
        "velocity": 0,
        "channel": 1
      },
      {
        "type": "note_on",
        "time": 1,
        "note": 59,
        "velocity": 60,
        "channel": 1
      },
      {
        "type": "note_on",
        "time": 119,
        "note": 59,
        "velocity": 0,
        "channel": 1
      },
      {
        "type": "note_on",
        "time": 1,
        "note": 62,
        "velocity": 60,
        "channel": 1
      },
      {
        "type": "note_on",
        "time": 59,
        "note": 62,
        "velocity": 0,
        "channel": 1
      },
      {
        "type": "note_on",
        "time": 1,
        "note": 64,
        "velocity": 60,
        "channel": 1
      },
      {
        "type": "note_on",
        "time": 59,
        "note": 64,
        "velocity": 0,
        "channel": 1
      },
      {
        "type": "note_on",
        "time": 1,
        "note": 54,
        "velocity": 60,
        "channel": 1
      },
      {
        "type": "note_on",
        "time": 59,
        "note": 54,
        "velocity": 0,
        "channel": 1
      },
      {
        "type": "note_on",
        "time": 1,
        "note": 61,
        "velocity": 60,
        "channel": 1
      },
      {
        "type": "note_on",
        "time": 29,
        "note": 61,
        "velocity": 0,
        "channel": 1
      },
      {
        "type": "note_on",
        "time": 1,
        "note": 54,
        "velocity": 60,
        "channel": 1
      },
      {
        "type": "note_on",
        "time": 29,
        "note": 54,
        "velocity": 0,
        "channel": 1
      },
      {
        "type": "note_on",
        "time": 1,
        "note": 58,
        "velocity": 60,
        "channel": 1
      },
      {
        "type": "note_on",
        "time": 29,
        "note": 58,
        "velocity": 0,
        "channel": 1
      },
      {
        "type": "note_on",
        "time": 1,
        "note": 61,
        "velocity": 60,
        "channel": 1
      },
      {
        "type": "note_on",
        "time": 59,
        "note": 61,
        "velocity": 0,
        "channel": 1
      },
      {
        "type": "note_on",
        "time": 1,
        "note": 54,
        "velocity": 60,
        "channel": 1
      },
      {
        "type": "note_on",
        "time": 29,
        "note": 54,
        "velocity": 0,
        "channel": 1
      },
      {
        "type": "note_on",
        "time": 1,
        "note": 58,
        "velocity": 60,
        "channel": 1
      },
      {
        "type": "note_on",
        "time": 239,
        "note": 58,
        "velocity": 0,
        "channel": 1
      },
      {
        "type": "note_on",
        "time": 1,
        "note": 57,
        "velocity": 60,
        "channel": 1
      },
      {
        "type": "note_on",
        "time": 59,
        "note": 57,
        "velocity": 0,
        "channel": 1
      },
      {
        "type": "note_on",
        "time": 1,
        "note": 57,
        "velocity": 60,
        "channel": 1
      },
      {
        "type": "note_on",
        "time": 29,
        "note": 57,
        "velocity": 0,
        "channel": 1
      },
      {
        "type": "note_on",
        "time": 1,
        "note": 57,
        "velocity": 60,
        "channel": 1
      },
      {
        "type": "note_on",
        "time": 29,
        "note": 57,
        "velocity": 0,
        "channel": 1
      },
      {
        "type": "note_on",
        "time": 1,
        "note": 57,
        "velocity": 60,
        "channel": 1
      },
      {
        "type": "note_on",
        "time": 30,
        "note": 59,
        "velocity": 60,
        "channel": 1
      },
      {
        "type": "note_on",
        "time": 29,
        "note": 57,
        "velocity": 0,
        "channel": 1
      },
      {
        "type": "note_on",
        "time": 30,
        "note": 59,
        "velocity": 0,
        "channel": 1
      },
      {
        "type": "note_on",
        "time": 1,
        "note": 57,
        "velocity": 60,
        "channel": 1
      },
      {
        "type": "note_on",
        "time": 29,
        "note": 57,
        "velocity": 0,
        "channel": 1
      },
      {
        "type": "note_on",
        "time": 1,
        "note": 57,
        "velocity": 60,
        "channel": 1
      },
      {
        "type": "note_on",
        "time": 59,
        "note": 57,
        "velocity": 0,
        "channel": 1
      },
      {
        "type": "note_on",
        "time": 1,
        "note": 57,
        "velocity": 60,
        "channel": 1
      },
      {
        "type": "note_on",
        "time": 29,
        "note": 57,
        "velocity": 0,
        "channel": 1
      },
      {
        "type": "note_on",
        "time": 1,
        "note": 59,
        "velocity": 60,
        "channel": 1
      },
      {
        "type": "note_on",
        "time": 29,
        "note": 59,
        "velocity": 0,
        "channel": 1
      },
      {
        "type": "note_on",
        "time": 1,
        "note": 52,
        "velocity": 60,
        "channel": 1
      },
      {
        "type": "note_on",
        "time": 59,
        "note": 52,
        "velocity": 0,
        "channel": 1
      },
      {
        "type": "note_on",
        "time": 1,
        "note": 52,
        "velocity": 60,
        "channel": 1
      },
      {
        "type": "note_on",
        "time": 29,
        "note": 52,
        "velocity": 0,
        "channel": 1
      },
      {
        "type": "note_on",
        "time": 1,
        "note": 54,
        "velocity": 60,
        "channel": 1
      },
      {
        "type": "note_on",
        "time": 29,
        "note": 54,
        "velocity": 0,
        "channel": 1
      },
      {
        "type": "note_on",
        "time": 1,
        "note": 56,
        "velocity": 60,
        "channel": 1
      },
      {
        "type": "note_on",
        "time": 59,
        "note": 56,
        "velocity": 0,
        "channel": 1
      },
      {
        "type": "note_on",
        "time": 1,
        "note": 56,
        "velocity": 60,
        "channel": 1
      },
      {
        "type": "note_on",
        "time": 29,
        "note": 56,
        "velocity": 0,
        "channel": 1
      },
      {
        "type": "note_on",
        "time": 1,
        "note": 59,
        "velocity": 60,
        "channel": 1
      },
      {
        "type": "note_on",
        "time": 29,
        "note": 59,
        "velocity": 0,
        "channel": 1
      },
      {
        "type": "note_on",
        "time": 1,
        "note": 56,
        "velocity": 60,
        "channel": 1
      },
      {
        "type": "note_on",
        "time": 29,
        "note": 56,
        "velocity": 0,
        "channel": 1
      },
      {
        "type": "note_on",
        "time": 1,
        "note": 59,
        "velocity": 60,
        "channel": 1
      },
      {
        "type": "note_on",
        "time": 59,
        "note": 59,
        "velocity": 0,
        "channel": 1
      },
      {
        "type": "note_on",
        "time": 1,
        "note": 56,
        "velocity": 60,
        "channel": 1
      },
      {
        "type": "note_on",
        "time": 29,
        "note": 56,
        "velocity": 0,
        "channel": 1
      },
      {
        "type": "note_on",
        "time": 1,
        "note": 64,
        "velocity": 60,
        "channel": 1
      },
      {
        "type": "note_on",
        "time": 119,
        "note": 64,
        "velocity": 0,
        "channel": 1
      },
      {
        "type": "note_on",
        "time": 121,
        "note": 55,
        "velocity": 60,
        "channel": 1
      },
      {
        "type": "note_on",
        "time": 59,
        "note": 55,
        "velocity": 0,
        "channel": 1
      },
      {
        "type": "note_on",
        "time": 1,
        "note": 55,
        "velocity": 60,
        "channel": 1
      },
      {
        "type": "note_on",
        "time": 29,
        "note": 55,
        "velocity": 0,
        "channel": 1
      },
      {
        "type": "note_on",
        "time": 1,
        "note": 50,
        "velocity": 60,
        "channel": 1
      },
      {
        "type": "note_on",
        "time": 29,
        "note": 50,
        "velocity": 0,
        "channel": 1
      },
      {
        "type": "note_on",
        "time": 1,
        "note": 55,
        "velocity": 60,
        "channel": 1
      },
      {
        "type": "note_on",
        "time": 29,
        "note": 55,
        "velocity": 0,
        "channel": 1
      },
      {
        "type": "note_on",
        "time": 1,
        "note": 57,
        "velocity": 60,
        "channel": 1
      },
      {
        "type": "note_on",
        "time": 59,
        "note": 57,
        "velocity": 0,
        "channel": 1
      },
      {
        "type": "note_on",
        "time": 1,
        "note": 55,
        "velocity": 60,
        "channel": 1
      },
      {
        "type": "note_on",
        "time": 29,
        "note": 55,
        "velocity": 0,
        "channel": 1
      },
      {
        "type": "note_on",
        "time": 1,
        "note": 59,
        "velocity": 60,
        "channel": 1
      },
      {
        "type": "note_on",
        "time": 119,
        "note": 59,
        "velocity": 0,
        "channel": 1
      },
      {
        "type": "note_on",
        "time": 1,
        "note": 57,
        "velocity": 60,
        "channel": 1
      },
      {
        "type": "note_on",
        "time": 59,
        "note": 57,
        "velocity": 0,
        "channel": 1
      },
      {
        "type": "note_on",
        "time": 1,
        "note": 55,
        "velocity": 60,
        "channel": 1
      },
      {
        "type": "note_on",
        "time": 59,
        "note": 55,
        "velocity": 0,
        "channel": 1
      },
      {
        "type": "note_on",
        "time": 1,
        "note": 50,
        "velocity": 60,
        "channel": 1
      },
      {
        "type": "note_on",
        "time": 59,
        "note": 50,
        "velocity": 0,
        "channel": 1
      },
      {
        "type": "note_on",
        "time": 1,
        "note": 50,
        "velocity": 60,
        "channel": 1
      },
      {
        "type": "note_on",
        "time": 29,
        "note": 50,
        "velocity": 0,
        "channel": 1
      },
      {
        "type": "note_on",
        "time": 1,
        "note": 45,
        "velocity": 60,
        "channel": 1
      },
      {
        "type": "note_on",
        "time": 29,
        "note": 45,
        "velocity": 0,
        "channel": 1
      },
      {
        "type": "note_on",
        "time": 1,
        "note": 50,
        "velocity": 60,
        "channel": 1
      },
      {
        "type": "note_on",
        "time": 29,
        "note": 50,
        "velocity": 0,
        "channel": 1
      },
      {
        "type": "note_on",
        "time": 1,
        "note": 52,
        "velocity": 60,
        "channel": 1
      },
      {
        "type": "note_on",
        "time": 59,
        "note": 52,
        "velocity": 0,
        "channel": 1
      },
      {
        "type": "note_on",
        "time": 1,
        "note": 50,
        "velocity": 60,
        "channel": 1
      },
      {
        "type": "note_on",
        "time": 29,
        "note": 50,
        "velocity": 0,
        "channel": 1
      },
      {
        "type": "note_on",
        "time": 1,
        "note": 54,
        "velocity": 60,
        "channel": 1
      },
      {
        "type": "note_on",
        "time": 239,
        "note": 54,
        "velocity": 0,
        "channel": 1
      },
      {
        "type": "note_on",
        "time": 1,
        "note": 52,
        "velocity": 60,
        "channel": 1
      },
      {
        "type": "note_on",
        "time": 29,
        "note": 52,
        "velocity": 0,
        "channel": 1
      },
      {
        "type": "note_on",
        "time": 31,
        "note": 52,
        "velocity": 60,
        "channel": 1
      },
      {
        "type": "note_on",
        "time": 29,
        "note": 52,
        "velocity": 0,
        "channel": 1
      },
      {
        "type": "note_on",
        "time": 1,
        "note": 54,
        "velocity": 60,
        "channel": 1
      },
      {
        "type": "note_on",
        "time": 29,
        "note": 54,
        "velocity": 0,
        "channel": 1
      },
      {
        "type": "note_on",
        "time": 1,
        "note": 52,
        "velocity": 60,
        "channel": 1
      },
      {
        "type": "note_on",
        "time": 29,
        "note": 52,
        "velocity": 0,
        "channel": 1
      },
      {
        "type": "note_on",
        "time": 1,
        "note": 55,
        "velocity": 60,
        "channel": 1
      },
      {
        "type": "note_on",
        "time": 59,
        "note": 55,
        "velocity": 0,
        "channel": 1
      },
      {
        "type": "note_on",
        "time": 1,
        "note": 52,
        "velocity": 60,
        "channel": 1
      },
      {
        "type": "note_on",
        "time": 29,
        "note": 52,
        "velocity": 0,
        "channel": 1
      },
      {
        "type": "note_on",
        "time": 1,
        "note": 59,
        "velocity": 60,
        "channel": 1
      },
      {
        "type": "note_on",
        "time": 239,
        "note": 59,
        "velocity": 0,
        "channel": 1
      },
      {
        "type": "note_on",
        "time": 1,
        "note": 54,
        "velocity": 60,
        "channel": 1
      },
      {
        "type": "note_on",
        "time": 59,
        "note": 54,
        "velocity": 0,
        "channel": 1
      },
      {
        "type": "note_on",
        "time": 1,
        "note": 54,
        "velocity": 60,
        "channel": 1
      },
      {
        "type": "note_on",
        "time": 29,
        "note": 54,
        "velocity": 0,
        "channel": 1
      },
      {
        "type": "note_on",
        "time": 1,
        "note": 55,
        "velocity": 60,
        "channel": 1
      },
      {
        "type": "note_on",
        "time": 29,
        "note": 55,
        "velocity": 0,
        "channel": 1
      },
      {
        "type": "note_on",
        "time": 1,
        "note": 54,
        "velocity": 60,
        "channel": 1
      },
      {
        "type": "note_on",
        "time": 29,
        "note": 54,
        "velocity": 0,
        "channel": 1
      },
      {
        "type": "note_on",
        "time": 1,
        "note": 55,
        "velocity": 60,
        "channel": 1
      },
      {
        "type": "note_on",
        "time": 59,
        "note": 55,
        "velocity": 0,
        "channel": 1
      },
      {
        "type": "note_on",
        "time": 1,
        "note": 54,
        "velocity": 60,
        "channel": 1
      },
      {
        "type": "note_on",
        "time": 29,
        "note": 54,
        "velocity": 0,
        "channel": 1
      },
      {
        "type": "note_on",
        "time": 1,
        "note": 61,
        "velocity": 60,
        "channel": 1
      },
      {
        "type": "note_on",
        "time": 119,
        "note": 61,
        "velocity": 0,
        "channel": 1
      },
      {
        "type": "end_of_track",
        "time": 0
      }
    ],
    [
      {
        "type": "track_name",
        "name": "WinJammer Demo",
        "time": 0
      },
      {
        "type": "instrument_name",
        "name": "James Morales",
        "time": 0
      },
      {
        "type": "midi_port",
        "port": 0,
        "time": 0
      },
      {
        "type": "control_change",
        "time": 0,
        "control": 7,
        "value": 120,
        "channel": 2
      },
      {
        "type": "program_change",
        "time": 0,
        "program": 33,
        "channel": 2
      },
      {
        "type": "note_on",
        "time": 0,
        "note": 35,
        "velocity": 90,
        "channel": 2
      },
      {
        "type": "note_on",
        "time": 239,
        "note": 35,
        "velocity": 0,
        "channel": 2
      },
      {
        "type": "note_on",
        "time": 241,
        "note": 30,
        "velocity": 90,
        "channel": 2
      },
      {
        "type": "note_on",
        "time": 239,
        "note": 30,
        "velocity": 0,
        "channel": 2
      },
      {
        "type": "note_on",
        "time": 241,
        "note": 33,
        "velocity": 90,
        "channel": 2
      },
      {
        "type": "note_on",
        "time": 239,
        "note": 33,
        "velocity": 0,
        "channel": 2
      },
      {
        "type": "note_on",
        "time": 241,
        "note": 28,
        "velocity": 90,
        "channel": 2
      },
      {
        "type": "note_on",
        "time": 239,
        "note": 28,
        "velocity": 0,
        "channel": 2
      },
      {
        "type": "note_on",
        "time": 241,
        "note": 31,
        "velocity": 90,
        "channel": 2
      },
      {
        "type": "note_on",
        "time": 239,
        "note": 31,
        "velocity": 0,
        "channel": 2
      },
      {
        "type": "note_on",
        "time": 241,
        "note": 38,
        "velocity": 90,
        "channel": 2
      },
      {
        "type": "note_on",
        "time": 239,
        "note": 38,
        "velocity": 0,
        "channel": 2
      },
      {
        "type": "note_on",
        "time": 241,
        "note": 28,
        "velocity": 90,
        "channel": 2
      },
      {
        "type": "note_on",
        "time": 239,
        "note": 28,
        "velocity": 0,
        "channel": 2
      },
      {
        "type": "note_on",
        "time": 241,
        "note": 30,
        "velocity": 90,
        "channel": 2
      },
      {
        "type": "note_on",
        "time": 239,
        "note": 30,
        "velocity": 0,
        "channel": 2
      },
      {
        "type": "note_on",
        "time": 241,
        "note": 38,
        "velocity": 90,
        "channel": 2
      },
      {
        "type": "note_on",
        "time": 239,
        "note": 38,
        "velocity": 0,
        "channel": 2
      },
      {
        "type": "note_on",
        "time": 1,
        "note": 40,
        "velocity": 90,
        "channel": 2
      },
      {
        "type": "note_on",
        "time": 119,
        "note": 40,
        "velocity": 0,
        "channel": 2
      },
      {
        "type": "note_on",
        "time": 1,
        "note": 42,
        "velocity": 90,
        "channel": 2
      },
      {
        "type": "note_on",
        "time": 119,
        "note": 42,
        "velocity": 0,
        "channel": 2
      },
      {
        "type": "note_on",
        "time": 1,
        "note": 30,
        "velocity": 90,
        "channel": 2
      },
      {
        "type": "note_on",
        "time": 179,
        "note": 30,
        "velocity": 0,
        "channel": 2
      },
      {
        "type": "note_on",
        "time": 1,
        "note": 38,
        "velocity": 90,
        "channel": 2
      },
      {
        "type": "note_on",
        "time": 59,
        "note": 38,
        "velocity": 0,
        "channel": 2
      },
      {
        "type": "note_on",
        "time": 1,
        "note": 37,
        "velocity": 90,
        "channel": 2
      },
      {
        "type": "note_on",
        "time": 239,
        "note": 37,
        "velocity": 0,
        "channel": 2
      },
      {
        "type": "note_on",
        "time": 1,
        "note": 37,
        "velocity": 90,
        "channel": 2
      },
      {
        "type": "note_on",
        "time": 239,
        "note": 37,
        "velocity": 0,
        "channel": 2
      },
      {
        "type": "note_on",
        "time": 1,
        "note": 38,
        "velocity": 90,
        "channel": 2
      },
      {
        "type": "note_on",
        "time": 119,
        "note": 38,
        "velocity": 0,
        "channel": 2
      },
      {
        "type": "note_on",
        "time": 1,
        "note": 40,
        "velocity": 90,
        "channel": 2
      },
      {
        "type": "note_on",
        "time": 119,
        "note": 40,
        "velocity": 0,
        "channel": 2
      },
      {
        "type": "note_on",
        "time": 1,
        "note": 40,
        "velocity": 90,
        "channel": 2
      },
      {
        "type": "note_on",
        "time": 239,
        "note": 40,
        "velocity": 0,
        "channel": 2
      },
      {
        "type": "note_on",
        "time": 1,
        "note": 40,
        "velocity": 90,
        "channel": 2
      },
      {
        "type": "note_on",
        "time": 239,
        "note": 40,
        "velocity": 0,
        "channel": 2
      },
      {
        "type": "note_on",
        "time": 1,
        "note": 31,
        "velocity": 90,
        "channel": 2
      },
      {
        "type": "note_on",
        "time": 239,
        "note": 31,
        "velocity": 0,
        "channel": 2
      },
      {
        "type": "note_on",
        "time": 1,
        "note": 37,
        "velocity": 90,
        "channel": 2
      },
      {
        "type": "note_on",
        "time": 119,
        "note": 37,
        "velocity": 0,
        "channel": 2
      },
      {
        "type": "note_on",
        "time": 1,
        "note": 38,
        "velocity": 90,
        "channel": 2
      },
      {
        "type": "note_on",
        "time": 119,
        "note": 38,
        "velocity": 0,
        "channel": 2
      },
      {
        "type": "note_on",
        "time": 1,
        "note": 30,
        "velocity": 90,
        "channel": 2
      },
      {
        "type": "note_on",
        "time": 239,
        "note": 30,
        "velocity": 0,
        "channel": 2
      },
      {
        "type": "note_on",
        "time": 241,
        "note": 28,
        "velocity": 90,
        "channel": 2
      },
      {
        "type": "note_on",
        "time": 239,
        "note": 28,
        "velocity": 0,
        "channel": 2
      },
      {
        "type": "note_on",
        "time": 241,
        "note": 30,
        "velocity": 90,
        "channel": 2
      },
      {
        "type": "note_on",
        "time": 239,
        "note": 30,
        "velocity": 0,
        "channel": 2
      },
      {
        "type": "note_on",
        "time": 241,
        "note": 35,
        "velocity": 90,
        "channel": 2
      },
      {
        "type": "note_on",
        "time": 29,
        "note": 35,
        "velocity": 0,
        "channel": 2
      },
      {
        "type": "note_on",
        "time": 1,
        "note": 35,
        "velocity": 90,
        "channel": 2
      },
      {
        "type": "note_on",
        "time": 29,
        "note": 35,
        "velocity": 0,
        "channel": 2
      },
      {
        "type": "note_on",
        "time": 1,
        "note": 30,
        "velocity": 90,
        "channel": 2
      },
      {
        "type": "note_on",
        "time": 59,
        "note": 30,
        "velocity": 0,
        "channel": 2
      },
      {
        "type": "note_on",
        "time": 1,
        "note": 35,
        "velocity": 90,
        "channel": 2
      },
      {
        "type": "note_on",
        "time": 59,
        "note": 35,
        "velocity": 0,
        "channel": 2
      },
      {
        "type": "note_on",
        "time": 31,
        "note": 30,
        "velocity": 90,
        "channel": 2
      },
      {
        "type": "note_on",
        "time": 29,
        "note": 30,
        "velocity": 0,
        "channel": 2
      },
      {
        "type": "note_on",
        "time": 1,
        "note": 35,
        "velocity": 90,
        "channel": 2
      },
      {
        "type": "note_on",
        "time": 29,
        "note": 35,
        "velocity": 0,
        "channel": 2
      },
      {
        "type": "note_on",
        "time": 1,
        "note": 35,
        "velocity": 90,
        "channel": 2
      },
      {
        "type": "note_on",
        "time": 29,
        "note": 35,
        "velocity": 0,
        "channel": 2
      },
      {
        "type": "note_on",
        "time": 1,
        "note": 30,
        "velocity": 90,
        "channel": 2
      },
      {
        "type": "note_on",
        "time": 59,
        "note": 30,
        "velocity": 0,
        "channel": 2
      },
      {
        "type": "note_on",
        "time": 121,
        "note": 30,
        "velocity": 90,
        "channel": 2
      },
      {
        "type": "note_on",
        "time": 29,
        "note": 30,
        "velocity": 0,
        "channel": 2
      },
      {
        "type": "note_on",
        "time": 1,
        "note": 30,
        "velocity": 90,
        "channel": 2
      },
      {
        "type": "note_on",
        "time": 29,
        "note": 30,
        "velocity": 0,
        "channel": 2
      },
      {
        "type": "note_on",
        "time": 1,
        "note": 34,
        "velocity": 90,
        "channel": 2
      },
      {
        "type": "note_on",
        "time": 59,
        "note": 34,
        "velocity": 0,
        "channel": 2
      },
      {
        "type": "note_on",
        "time": 1,
        "note": 42,
        "velocity": 90,
        "channel": 2
      },
      {
        "type": "note_on",
        "time": 59,
        "note": 42,
        "velocity": 0,
        "channel": 2
      },
      {
        "type": "note_on",
        "time": 31,
        "note": 37,
        "velocity": 90,
        "channel": 2
      },
      {
        "type": "note_on",
        "time": 29,
        "note": 37,
        "velocity": 0,
        "channel": 2
      },
      {
        "type": "note_on",
        "time": 1,
        "note": 42,
        "velocity": 90,
        "channel": 2
      },
      {
        "type": "note_on",
        "time": 30,
        "note": 42,
        "velocity": 90,
        "channel": 2
      },
      {
        "type": "note_on",
        "time": 29,
        "note": 42,
        "velocity": 0,
        "channel": 2
      },
      {
        "type": "note_on",
        "time": 0,
        "note": 42,
        "velocity": 0,
        "channel": 2
      },
      {
        "type": "note_on",
        "time": 1,
        "note": 37,
        "velocity": 90,
        "channel": 2
      },
      {
        "type": "note_on",
        "time": 59,
        "note": 37,
        "velocity": 0,
        "channel": 2
      },
      {
        "type": "note_on",
        "time": 121,
        "note": 33,
        "velocity": 90,
        "channel": 2
      },
      {
        "type": "note_on",
        "time": 29,
        "note": 33,
        "velocity": 0,
        "channel": 2
      },
      {
        "type": "note_on",
        "time": 1,
        "note": 33,
        "velocity": 90,
        "channel": 2
      },
      {
        "type": "note_on",
        "time": 29,
        "note": 33,
        "velocity": 0,
        "channel": 2
      },
      {
        "type": "note_on",
        "time": 1,
        "note": 40,
        "velocity": 90,
        "channel": 2
      },
      {
        "type": "note_on",
        "time": 59,
        "note": 40,
        "velocity": 0,
        "channel": 2
      },
      {
        "type": "note_on",
        "time": 1,
        "note": 45,
        "velocity": 90,
        "channel": 2
      },
      {
        "type": "note_on",
        "time": 59,
        "note": 45,
        "velocity": 0,
        "channel": 2
      },
      {
        "type": "note_on",
        "time": 31,
        "note": 40,
        "velocity": 90,
        "channel": 2
      },
      {
        "type": "note_on",
        "time": 29,
        "note": 40,
        "velocity": 0,
        "channel": 2
      },
      {
        "type": "note_on",
        "time": 1,
        "note": 45,
        "velocity": 90,
        "channel": 2
      },
      {
        "type": "note_on",
        "time": 30,
        "note": 45,
        "velocity": 90,
        "channel": 2
      },
      {
        "type": "note_on",
        "time": 29,
        "note": 45,
        "velocity": 0,
        "channel": 2
      },
      {
        "type": "note_on",
        "time": 0,
        "note": 45,
        "velocity": 0,
        "channel": 2
      },
      {
        "type": "note_on",
        "time": 1,
        "note": 40,
        "velocity": 90,
        "channel": 2
      },
      {
        "type": "note_on",
        "time": 59,
        "note": 40,
        "velocity": 0,
        "channel": 2
      },
      {
        "type": "note_on",
        "time": 121,
        "note": 28,
        "velocity": 90,
        "channel": 2
      },
      {
        "type": "note_on",
        "time": 29,
        "note": 28,
        "velocity": 0,
        "channel": 2
      },
      {
        "type": "note_on",
        "time": 1,
        "note": 28,
        "velocity": 90,
        "channel": 2
      },
      {
        "type": "note_on",
        "time": 29,
        "note": 28,
        "velocity": 0,
        "channel": 2
      },
      {
        "type": "note_on",
        "time": 1,
        "note": 35,
        "velocity": 90,
        "channel": 2
      },
      {
        "type": "note_on",
        "time": 59,
        "note": 35,
        "velocity": 0,
        "channel": 2
      },
      {
        "type": "note_on",
        "time": 1,
        "note": 40,
        "velocity": 90,
        "channel": 2
      },
      {
        "type": "note_on",
        "time": 59,
        "note": 40,
        "velocity": 0,
        "channel": 2
      },
      {
        "type": "note_on",
        "time": 31,
        "note": 35,
        "velocity": 90,
        "channel": 2
      },
      {
        "type": "note_on",
        "time": 29,
        "note": 35,
        "velocity": 0,
        "channel": 2
      },
      {
        "type": "note_on",
        "time": 1,
        "note": 40,
        "velocity": 90,
        "channel": 2
      },
      {
        "type": "note_on",
        "time": 30,
        "note": 40,
        "velocity": 90,
        "channel": 2
      },
      {
        "type": "note_on",
        "time": 29,
        "note": 40,
        "velocity": 0,
        "channel": 2
      },
      {
        "type": "note_on",
        "time": 1,
        "note": 35,
        "velocity": 90,
        "channel": 2
      },
      {
        "type": "note_on",
        "time": 59,
        "note": 35,
        "velocity": 0,
        "channel": 2
      },
      {
        "type": "note_on",
        "time": 120,
        "note": 40,
        "velocity": 0,
        "channel": 2
      },
      {
        "type": "note_on",
        "time": 1,
        "note": 31,
        "velocity": 90,
        "channel": 2
      },
      {
        "type": "note_on",
        "time": 29,
        "note": 31,
        "velocity": 0,
        "channel": 2
      },
      {
        "type": "note_on",
        "time": 1,
        "note": 31,
        "velocity": 90,
        "channel": 2
      },
      {
        "type": "note_on",
        "time": 29,
        "note": 31,
        "velocity": 0,
        "channel": 2
      },
      {
        "type": "note_on",
        "time": 1,
        "note": 38,
        "velocity": 90,
        "channel": 2
      },
      {
        "type": "note_on",
        "time": 59,
        "note": 38,
        "velocity": 0,
        "channel": 2
      },
      {
        "type": "note_on",
        "time": 1,
        "note": 43,
        "velocity": 90,
        "channel": 2
      },
      {
        "type": "note_on",
        "time": 59,
        "note": 43,
        "velocity": 0,
        "channel": 2
      },
      {
        "type": "note_on",
        "time": 31,
        "note": 38,
        "velocity": 90,
        "channel": 2
      },
      {
        "type": "note_on",
        "time": 29,
        "note": 38,
        "velocity": 0,
        "channel": 2
      },
      {
        "type": "note_on",
        "time": 1,
        "note": 43,
        "velocity": 90,
        "channel": 2
      },
      {
        "type": "note_on",
        "time": 29,
        "note": 43,
        "velocity": 0,
        "channel": 2
      },
      {
        "type": "note_on",
        "time": 1,
        "note": 43,
        "velocity": 90,
        "channel": 2
      },
      {
        "type": "note_on",
        "time": 29,
        "note": 43,
        "velocity": 0,
        "channel": 2
      },
      {
        "type": "note_on",
        "time": 1,
        "note": 38,
        "velocity": 90,
        "channel": 2
      },
      {
        "type": "note_on",
        "time": 59,
        "note": 38,
        "velocity": 0,
        "channel": 2
      },
      {
        "type": "note_on",
        "time": 121,
        "note": 30,
        "velocity": 90,
        "channel": 2
      },
      {
        "type": "note_on",
        "time": 29,
        "note": 30,
        "velocity": 0,
        "channel": 2
      },
      {
        "type": "note_on",
        "time": 1,
        "note": 33,
        "velocity": 90,
        "channel": 2
      },
      {
        "type": "note_on",
        "time": 29,
        "note": 33,
        "velocity": 0,
        "channel": 2
      },
      {
        "type": "note_on",
        "time": 1,
        "note": 38,
        "velocity": 90,
        "channel": 2
      },
      {
        "type": "note_on",
        "time": 59,
        "note": 38,
        "velocity": 0,
        "channel": 2
      },
      {
        "type": "note_on",
        "time": 1,
        "note": 42,
        "velocity": 90,
        "channel": 2
      },
      {
        "type": "note_on",
        "time": 59,
        "note": 42,
        "velocity": 0,
        "channel": 2
      },
      {
        "type": "note_on",
        "time": 31,
        "note": 38,
        "velocity": 90,
        "channel": 2
      },
      {
        "type": "note_on",
        "time": 29,
        "note": 38,
        "velocity": 0,
        "channel": 2
      },
      {
        "type": "note_on",
        "time": 1,
        "note": 42,
        "velocity": 90,
        "channel": 2
      },
      {
        "type": "note_on",
        "time": 29,
        "note": 42,
        "velocity": 0,
        "channel": 2
      },
      {
        "type": "note_on",
        "time": 1,
        "note": 42,
        "velocity": 90,
        "channel": 2
      },
      {
        "type": "note_on",
        "time": 29,
        "note": 42,
        "velocity": 0,
        "channel": 2
      },
      {
        "type": "note_on",
        "time": 1,
        "note": 38,
        "velocity": 90,
        "channel": 2
      },
      {
        "type": "note_on",
        "time": 59,
        "note": 38,
        "velocity": 0,
        "channel": 2
      },
      {
        "type": "note_on",
        "time": 121,
        "note": 28,
        "velocity": 90,
        "channel": 2
      },
      {
        "type": "note_on",
        "time": 29,
        "note": 28,
        "velocity": 0,
        "channel": 2
      },
      {
        "type": "note_on",
        "time": 1,
        "note": 31,
        "velocity": 90,
        "channel": 2
      },
      {
        "type": "note_on",
        "time": 29,
        "note": 31,
        "velocity": 0,
        "channel": 2
      },
      {
        "type": "note_on",
        "time": 1,
        "note": 35,
        "velocity": 90,
        "channel": 2
      },
      {
        "type": "note_on",
        "time": 59,
        "note": 35,
        "velocity": 0,
        "channel": 2
      },
      {
        "type": "note_on",
        "time": 1,
        "note": 40,
        "velocity": 90,
        "channel": 2
      },
      {
        "type": "note_on",
        "time": 59,
        "note": 40,
        "velocity": 0,
        "channel": 2
      },
      {
        "type": "note_on",
        "time": 31,
        "note": 35,
        "velocity": 90,
        "channel": 2
      },
      {
        "type": "note_on",
        "time": 29,
        "note": 35,
        "velocity": 0,
        "channel": 2
      },
      {
        "type": "note_on",
        "time": 1,
        "note": 40,
        "velocity": 90,
        "channel": 2
      },
      {
        "type": "note_on",
        "time": 29,
        "note": 40,
        "velocity": 0,
        "channel": 2
      },
      {
        "type": "note_on",
        "time": 1,
        "note": 40,
        "velocity": 90,
        "channel": 2
      },
      {
        "type": "note_on",
        "time": 29,
        "note": 40,
        "velocity": 0,
        "channel": 2
      },
      {
        "type": "note_on",
        "time": 1,
        "note": 35,
        "velocity": 90,
        "channel": 2
      },
      {
        "type": "note_on",
        "time": 59,
        "note": 35,
        "velocity": 0,
        "channel": 2
      },
      {
        "type": "note_on",
        "time": 121,
        "note": 30,
        "velocity": 90,
        "channel": 2
      },
      {
        "type": "note_on",
        "time": 29,
        "note": 30,
        "velocity": 0,
        "channel": 2
      },
      {
        "type": "note_on",
        "time": 1,
        "note": 33,
        "velocity": 90,
        "channel": 2
      },
      {
        "type": "note_on",
        "time": 29,
        "note": 33,
        "velocity": 0,
        "channel": 2
      },
      {
        "type": "note_on",
        "time": 1,
        "note": 37,
        "velocity": 90,
        "channel": 2
      },
      {
        "type": "note_on",
        "time": 59,
        "note": 37,
        "velocity": 0,
        "channel": 2
      },
      {
        "type": "note_on",
        "time": 1,
        "note": 42,
        "velocity": 90,
        "channel": 2
      },
      {
        "type": "note_on",
        "time": 59,
        "note": 42,
        "velocity": 0,
        "channel": 2
      },
      {
        "type": "note_on",
        "time": 31,
        "note": 37,
        "velocity": 90,
        "channel": 2
      },
      {
        "type": "note_on",
        "time": 29,
        "note": 37,
        "velocity": 0,
        "channel": 2
      },
      {
        "type": "note_on",
        "time": 1,
        "note": 42,
        "velocity": 90,
        "channel": 2
      },
      {
        "type": "note_on",
        "time": 59,
        "note": 42,
        "velocity": 0,
        "channel": 2
      },
      {
        "type": "note_on",
        "time": 31,
        "note": 37,
        "velocity": 90,
        "channel": 2
      },
      {
        "type": "note_on",
        "time": 29,
        "note": 37,
        "velocity": 0,
        "channel": 2
      },
      {
        "type": "note_on",
        "time": 1,
        "note": 42,
        "velocity": 90,
        "channel": 2
      },
      {
        "type": "note_on",
        "time": 59,
        "note": 42,
        "velocity": 0,
        "channel": 2
      },
      {
        "type": "note_on",
        "time": 61,
        "note": 35,
        "velocity": 90,
        "channel": 2
      },
      {
        "type": "note_on",
        "time": 29,
        "note": 35,
        "velocity": 0,
        "channel": 2
      },
      {
        "type": "note_on",
        "time": 1,
        "note": 35,
        "velocity": 90,
        "channel": 2
      },
      {
        "type": "note_on",
        "time": 29,
        "note": 35,
        "velocity": 0,
        "channel": 2
      },
      {
        "type": "note_on",
        "time": 1,
        "note": 30,
        "velocity": 90,
        "channel": 2
      },
      {
        "type": "note_on",
        "time": 59,
        "note": 30,
        "velocity": 0,
        "channel": 2
      },
      {
        "type": "note_on",
        "time": 1,
        "note": 35,
        "velocity": 90,
        "channel": 2
      },
      {
        "type": "note_on",
        "time": 59,
        "note": 35,
        "velocity": 0,
        "channel": 2
      },
      {
        "type": "note_on",
        "time": 31,
        "note": 30,
        "velocity": 90,
        "channel": 2
      },
      {
        "type": "note_on",
        "time": 29,
        "note": 30,
        "velocity": 0,
        "channel": 2
      },
      {
        "type": "note_on",
        "time": 1,
        "note": 35,
        "velocity": 90,
        "channel": 2
      },
      {
        "type": "note_on",
        "time": 29,
        "note": 35,
        "velocity": 0,
        "channel": 2
      },
      {
        "type": "note_on",
        "time": 1,
        "note": 35,
        "velocity": 90,
        "channel": 2
      },
      {
        "type": "note_on",
        "time": 29,
        "note": 35,
        "velocity": 0,
        "channel": 2
      },
      {
        "type": "note_on",
        "time": 1,
        "note": 30,
        "velocity": 90,
        "channel": 2
      },
      {
        "type": "note_on",
        "time": 59,
        "note": 30,
        "velocity": 0,
        "channel": 2
      },
      {
        "type": "note_on",
        "time": 121,
        "note": 30,
        "velocity": 90,
        "channel": 2
      },
      {
        "type": "note_on",
        "time": 29,
        "note": 30,
        "velocity": 0,
        "channel": 2
      },
      {
        "type": "note_on",
        "time": 1,
        "note": 30,
        "velocity": 90,
        "channel": 2
      },
      {
        "type": "note_on",
        "time": 29,
        "note": 30,
        "velocity": 0,
        "channel": 2
      },
      {
        "type": "note_on",
        "time": 1,
        "note": 34,
        "velocity": 90,
        "channel": 2
      },
      {
        "type": "note_on",
        "time": 59,
        "note": 34,
        "velocity": 0,
        "channel": 2
      },
      {
        "type": "note_on",
        "time": 1,
        "note": 37,
        "velocity": 90,
        "channel": 2
      },
      {
        "type": "note_on",
        "time": 59,
        "note": 37,
        "velocity": 0,
        "channel": 2
      },
      {
        "type": "note_on",
        "time": 31,
        "note": 34,
        "velocity": 90,
        "channel": 2
      },
      {
        "type": "note_on",
        "time": 29,
        "note": 34,
        "velocity": 0,
        "channel": 2
      },
      {
        "type": "note_on",
        "time": 1,
        "note": 42,
        "velocity": 90,
        "channel": 2
      },
      {
        "type": "note_on",
        "time": 30,
        "note": 42,
        "velocity": 90,
        "channel": 2
      },
      {
        "type": "note_on",
        "time": 29,
        "note": 42,
        "velocity": 0,
        "channel": 2
      },
      {
        "type": "note_on",
        "time": 0,
        "note": 42,
        "velocity": 0,
        "channel": 2
      },
      {
        "type": "note_on",
        "time": 1,
        "note": 34,
        "velocity": 90,
        "channel": 2
      },
      {
        "type": "note_on",
        "time": 59,
        "note": 34,
        "velocity": 0,
        "channel": 2
      },
      {
        "type": "note_on",
        "time": 121,
        "note": 33,
        "velocity": 90,
        "channel": 2
      },
      {
        "type": "note_on",
        "time": 29,
        "note": 33,
        "velocity": 0,
        "channel": 2
      },
      {
        "type": "note_on",
        "time": 1,
        "note": 33,
        "velocity": 90,
        "channel": 2
      },
      {
        "type": "note_on",
        "time": 29,
        "note": 33,
        "velocity": 0,
        "channel": 2
      },
      {
        "type": "note_on",
        "time": 1,
        "note": 40,
        "velocity": 90,
        "channel": 2
      },
      {
        "type": "note_on",
        "time": 59,
        "note": 40,
        "velocity": 0,
        "channel": 2
      },
      {
        "type": "note_on",
        "time": 1,
        "note": 45,
        "velocity": 90,
        "channel": 2
      },
      {
        "type": "note_on",
        "time": 59,
        "note": 45,
        "velocity": 0,
        "channel": 2
      },
      {
        "type": "note_on",
        "time": 31,
        "note": 40,
        "velocity": 90,
        "channel": 2
      },
      {
        "type": "note_on",
        "time": 29,
        "note": 40,
        "velocity": 0,
        "channel": 2
      },
      {
        "type": "note_on",
        "time": 1,
        "note": 45,
        "velocity": 90,
        "channel": 2
      },
      {
        "type": "note_on",
        "time": 30,
        "note": 45,
        "velocity": 90,
        "channel": 2
      },
      {
        "type": "note_on",
        "time": 29,
        "note": 45,
        "velocity": 0,
        "channel": 2
      },
      {
        "type": "note_on",
        "time": 0,
        "note": 45,
        "velocity": 0,
        "channel": 2
      },
      {
        "type": "note_on",
        "time": 1,
        "note": 40,
        "velocity": 90,
        "channel": 2
      },
      {
        "type": "note_on",
        "time": 59,
        "note": 40,
        "velocity": 0,
        "channel": 2
      },
      {
        "type": "note_on",
        "time": 121,
        "note": 28,
        "velocity": 90,
        "channel": 2
      },
      {
        "type": "note_on",
        "time": 29,
        "note": 28,
        "velocity": 0,
        "channel": 2
      },
      {
        "type": "note_on",
        "time": 1,
        "note": 28,
        "velocity": 90,
        "channel": 2
      },
      {
        "type": "note_on",
        "time": 29,
        "note": 28,
        "velocity": 0,
        "channel": 2
      },
      {
        "type": "note_on",
        "time": 1,
        "note": 35,
        "velocity": 90,
        "channel": 2
      },
      {
        "type": "note_on",
        "time": 59,
        "note": 35,
        "velocity": 0,
        "channel": 2
      },
      {
        "type": "note_on",
        "time": 1,
        "note": 40,
        "velocity": 90,
        "channel": 2
      },
      {
        "type": "note_on",
        "time": 89,
        "note": 40,
        "velocity": 0,
        "channel": 2
      },
      {
        "type": "note_on",
        "time": 1,
        "note": 35,
        "velocity": 90,
        "channel": 2
      },
      {
        "type": "note_on",
        "time": 29,
        "note": 35,
        "velocity": 0,
        "channel": 2
      },
      {
        "type": "note_on",
        "time": 1,
        "note": 40,
        "velocity": 90,
        "channel": 2
      },
      {
        "type": "note_on",
        "time": 239,
        "note": 40,
        "velocity": 0,
        "channel": 2
      },
      {
        "type": "note_on",
        "time": 1,
        "note": 31,
        "velocity": 90,
        "channel": 2
      },
      {
        "type": "note_on",
        "time": 29,
        "note": 31,
        "velocity": 0,
        "channel": 2
      },
      {
        "type": "note_on",
        "time": 1,
        "note": 31,
        "velocity": 90,
        "channel": 2
      },
      {
        "type": "note_on",
        "time": 29,
        "note": 31,
        "velocity": 0,
        "channel": 2
      },
      {
        "type": "note_on",
        "time": 1,
        "note": 38,
        "velocity": 90,
        "channel": 2
      },
      {
        "type": "note_on",
        "time": 59,
        "note": 38,
        "velocity": 0,
        "channel": 2
      },
      {
        "type": "note_on",
        "time": 1,
        "note": 43,
        "velocity": 90,
        "channel": 2
      },
      {
        "type": "note_on",
        "time": 89,
        "note": 43,
        "velocity": 0,
        "channel": 2
      },
      {
        "type": "note_on",
        "time": 1,
        "note": 38,
        "velocity": 90,
        "channel": 2
      },
      {
        "type": "note_on",
        "time": 29,
        "note": 38,
        "velocity": 0,
        "channel": 2
      },
      {
        "type": "note_on",
        "time": 1,
        "note": 43,
        "velocity": 90,
        "channel": 2
      },
      {
        "type": "note_on",
        "time": 29,
        "note": 43,
        "velocity": 0,
        "channel": 2
      },
      {
        "type": "note_on",
        "time": 1,
        "note": 43,
        "velocity": 90,
        "channel": 2
      },
      {
        "type": "note_on",
        "time": 29,
        "note": 43,
        "velocity": 0,
        "channel": 2
      },
      {
        "type": "note_on",
        "time": 1,
        "note": 38,
        "velocity": 90,
        "channel": 2
      },
      {
        "type": "note_on",
        "time": 179,
        "note": 38,
        "velocity": 0,
        "channel": 2
      },
      {
        "type": "note_on",
        "time": 1,
        "note": 30,
        "velocity": 90,
        "channel": 2
      },
      {
        "type": "note_on",
        "time": 29,
        "note": 30,
        "velocity": 0,
        "channel": 2
      },
      {
        "type": "note_on",
        "time": 1,
        "note": 33,
        "velocity": 90,
        "channel": 2
      },
      {
        "type": "note_on",
        "time": 29,
        "note": 33,
        "velocity": 0,
        "channel": 2
      },
      {
        "type": "note_on",
        "time": 1,
        "note": 38,
        "velocity": 90,
        "channel": 2
      },
      {
        "type": "note_on",
        "time": 59,
        "note": 38,
        "velocity": 0,
        "channel": 2
      },
      {
        "type": "note_on",
        "time": 1,
        "note": 42,
        "velocity": 90,
        "channel": 2
      },
      {
        "type": "note_on",
        "time": 59,
        "note": 42,
        "velocity": 0,
        "channel": 2
      },
      {
        "type": "note_on",
        "time": 31,
        "note": 38,
        "velocity": 90,
        "channel": 2
      },
      {
        "type": "note_on",
        "time": 29,
        "note": 38,
        "velocity": 0,
        "channel": 2
      },
      {
        "type": "note_on",
        "time": 1,
        "note": 42,
        "velocity": 90,
        "channel": 2
      },
      {
        "type": "note_on",
        "time": 29,
        "note": 42,
        "velocity": 0,
        "channel": 2
      },
      {
        "type": "note_on",
        "time": 1,
        "note": 42,
        "velocity": 90,
        "channel": 2
      },
      {
        "type": "note_on",
        "time": 29,
        "note": 42,
        "velocity": 0,
        "channel": 2
      },
      {
        "type": "note_on",
        "time": 1,
        "note": 38,
        "velocity": 90,
        "channel": 2
      },
      {
        "type": "note_on",
        "time": 59,
        "note": 38,
        "velocity": 0,
        "channel": 2
      },
      {
        "type": "note_on",
        "time": 121,
        "note": 28,
        "velocity": 90,
        "channel": 2
      },
      {
        "type": "note_on",
        "time": 29,
        "note": 28,
        "velocity": 0,
        "channel": 2
      },
      {
        "type": "note_on",
        "time": 1,
        "note": 31,
        "velocity": 90,
        "channel": 2
      },
      {
        "type": "note_on",
        "time": 29,
        "note": 31,
        "velocity": 0,
        "channel": 2
      },
      {
        "type": "note_on",
        "time": 1,
        "note": 35,
        "velocity": 90,
        "channel": 2
      },
      {
        "type": "note_on",
        "time": 59,
        "note": 35,
        "velocity": 0,
        "channel": 2
      },
      {
        "type": "note_on",
        "time": 1,
        "note": 40,
        "velocity": 90,
        "channel": 2
      },
      {
        "type": "note_on",
        "time": 59,
        "note": 40,
        "velocity": 0,
        "channel": 2
      },
      {
        "type": "note_on",
        "time": 31,
        "note": 35,
        "velocity": 90,
        "channel": 2
      },
      {
        "type": "note_on",
        "time": 29,
        "note": 35,
        "velocity": 0,
        "channel": 2
      },
      {
        "type": "note_on",
        "time": 1,
        "note": 40,
        "velocity": 90,
        "channel": 2
      },
      {
        "type": "note_on",
        "time": 29,
        "note": 40,
        "velocity": 0,
        "channel": 2
      },
      {
        "type": "note_on",
        "time": 1,
        "note": 40,
        "velocity": 90,
        "channel": 2
      },
      {
        "type": "note_on",
        "time": 29,
        "note": 40,
        "velocity": 0,
        "channel": 2
      },
      {
        "type": "note_on",
        "time": 1,
        "note": 35,
        "velocity": 90,
        "channel": 2
      },
      {
        "type": "note_on",
        "time": 59,
        "note": 35,
        "velocity": 0,
        "channel": 2
      },
      {
        "type": "note_on",
        "time": 121,
        "note": 30,
        "velocity": 90,
        "channel": 2
      },
      {
        "type": "note_on",
        "time": 29,
        "note": 30,
        "velocity": 0,
        "channel": 2
      },
      {
        "type": "note_on",
        "time": 1,
        "note": 33,
        "velocity": 90,
        "channel": 2
      },
      {
        "type": "note_on",
        "time": 29,
        "note": 33,
        "velocity": 0,
        "channel": 2
      },
      {
        "type": "note_on",
        "time": 1,
        "note": 37,
        "velocity": 90,
        "channel": 2
      },
      {
        "type": "note_on",
        "time": 29,
        "note": 37,
        "velocity": 0,
        "channel": 2
      },
      {
        "type": "note_on",
        "time": 1,
        "note": 42,
        "velocity": 90,
        "channel": 2
      },
      {
        "type": "note_on",
        "time": 119,
        "note": 42,
        "velocity": 0,
        "channel": 2
      },
      {
        "type": "note_on",
        "time": 1,
        "note": 37,
        "velocity": 90,
        "channel": 2
      },
      {
        "type": "note_on",
        "time": 29,
        "note": 37,
        "velocity": 0,
        "channel": 2
      },
      {
        "type": "note_on",
        "time": 1,
        "note": 42,
        "velocity": 90,
        "channel": 2
      },
      {
        "type": "note_on",
        "time": 59,
        "note": 42,
        "velocity": 0,
        "channel": 2
      },
      {
        "type": "note_on",
        "time": 61,
        "note": 35,
        "velocity": 90,
        "channel": 2
      },
      {
        "type": "note_on",
        "time": 30,
        "note": 37,
        "velocity": 90,
        "channel": 2
      },
      {
        "type": "note_on",
        "time": 29,
        "note": 35,
        "velocity": 0,
        "channel": 2
      },
      {
        "type": "note_on",
        "time": 0,
        "note": 37,
        "velocity": 0,
        "channel": 2
      },
      {
        "type": "note_on",
        "time": 1,
        "note": 38,
        "velocity": 90,
        "channel": 2
      },
      {
        "type": "note_on",
        "time": 29,
        "note": 38,
        "velocity": 0,
        "channel": 2
      },
      {
        "type": "note_on",
        "time": 1,
        "note": 42,
        "velocity": 90,
        "channel": 2
      },
      {
        "type": "note_on",
        "time": 29,
        "note": 42,
        "velocity": 0,
        "channel": 2
      },
      {
        "type": "note_on",
        "time": 1,
        "note": 43,
        "velocity": 90,
        "channel": 2
      },
      {
        "type": "note_on",
        "time": 29,
        "note": 43,
        "velocity": 0,
        "channel": 2
      },
      {
        "type": "note_on",
        "time": 1,
        "note": 38,
        "velocity": 90,
        "channel": 2
      },
      {
        "type": "note_on",
        "time": 29,
        "note": 38,
        "velocity": 0,
        "channel": 2
      },
      {
        "type": "note_on",
        "time": 1,
        "note": 31,
        "velocity": 90,
        "channel": 2
      },
      {
        "type": "note_on",
        "time": 0,
        "note": 43,
        "velocity": 90,
        "channel": 2
      },
      {
        "type": "note_on",
        "time": 59,
        "note": 31,
        "velocity": 0,
        "channel": 2
      },
      {
        "type": "note_on",
        "time": 0,
        "note": 43,
        "velocity": 0,
        "channel": 2
      },
      {
        "type": "note_on",
        "time": 91,
        "note": 38,
        "velocity": 90,
        "channel": 2
      },
      {
        "type": "note_on",
        "time": 29,
        "note": 38,
        "velocity": 0,
        "channel": 2
      },
      {
        "type": "note_on",
        "time": 1,
        "note": 43,
        "velocity": 90,
        "channel": 2
      },
      {
        "type": "note_on",
        "time": 59,
        "note": 43,
        "velocity": 0,
        "channel": 2
      },
      {
        "type": "note_on",
        "time": 31,
        "note": 38,
        "velocity": 90,
        "channel": 2
      },
      {
        "type": "note_on",
        "time": 29,
        "note": 38,
        "velocity": 0,
        "channel": 2
      },
      {
        "type": "note_on",
        "time": 1,
        "note": 43,
        "velocity": 90,
        "channel": 2
      },
      {
        "type": "note_on",
        "time": 59,
        "note": 43,
        "velocity": 0,
        "channel": 2
      },
      {
        "type": "note_on",
        "time": 31,
        "note": 37,
        "velocity": 90,
        "channel": 2
      },
      {
        "type": "note_on",
        "time": 29,
        "note": 37,
        "velocity": 0,
        "channel": 2
      },
      {
        "type": "note_on",
        "time": 1,
        "note": 38,
        "velocity": 90,
        "channel": 2
      },
      {
        "type": "note_on",
        "time": 29,
        "note": 38,
        "velocity": 0,
        "channel": 2
      },
      {
        "type": "note_on",
        "time": 1,
        "note": 33,
        "velocity": 90,
        "channel": 2
      },
      {
        "type": "note_on",
        "time": 29,
        "note": 33,
        "velocity": 0,
        "channel": 2
      },
      {
        "type": "note_on",
        "time": 1,
        "note": 26,
        "velocity": 90,
        "channel": 2
      },
      {
        "type": "note_on",
        "time": 0,
        "note": 38,
        "velocity": 90,
        "channel": 2
      },
      {
        "type": "note_on",
        "time": 59,
        "note": 26,
        "velocity": 0,
        "channel": 2
      },
      {
        "type": "note_on",
        "time": 0,
        "note": 38,
        "velocity": 0,
        "channel": 2
      },
      {
        "type": "note_on",
        "time": 91,
        "note": 33,
        "velocity": 90,
        "channel": 2
      },
      {
        "type": "note_on",
        "time": 29,
        "note": 33,
        "velocity": 0,
        "channel": 2
      },
      {
        "type": "note_on",
        "time": 1,
        "note": 38,
        "velocity": 90,
        "channel": 2
      },
      {
        "type": "note_on",
        "time": 59,
        "note": 38,
        "velocity": 0,
        "channel": 2
      },
      {
        "type": "note_on",
        "time": 31,
        "note": 33,
        "velocity": 90,
        "channel": 2
      },
      {
        "type": "note_on",
        "time": 29,
        "note": 33,
        "velocity": 0,
        "channel": 2
      },
      {
        "type": "note_on",
        "time": 1,
        "note": 38,
        "velocity": 90,
        "channel": 2
      },
      {
        "type": "note_on",
        "time": 59,
        "note": 38,
        "velocity": 0,
        "channel": 2
      },
      {
        "type": "note_on",
        "time": 31,
        "note": 42,
        "velocity": 90,
        "channel": 2
      },
      {
        "type": "note_on",
        "time": 29,
        "note": 42,
        "velocity": 0,
        "channel": 2
      },
      {
        "type": "note_on",
        "time": 1,
        "note": 42,
        "velocity": 90,
        "channel": 2
      },
      {
        "type": "note_on",
        "time": 29,
        "note": 42,
        "velocity": 0,
        "channel": 2
      },
      {
        "type": "note_on",
        "time": 1,
        "note": 37,
        "velocity": 90,
        "channel": 2
      },
      {
        "type": "note_on",
        "time": 29,
        "note": 37,
        "velocity": 0,
        "channel": 2
      },
      {
        "type": "note_on",
        "time": 1,
        "note": 42,
        "velocity": 90,
        "channel": 2
      },
      {
        "type": "note_on",
        "time": 0,
        "note": 30,
        "velocity": 90,
        "channel": 2
      },
      {
        "type": "note_on",
        "time": 59,
        "note": 42,
        "velocity": 0,
        "channel": 2
      },
      {
        "type": "note_on",
        "time": 0,
        "note": 30,
        "velocity": 0,
        "channel": 2
      },
      {
        "type": "note_on",
        "time": 91,
        "note": 37,
        "velocity": 90,
        "channel": 2
      },
      {
        "type": "note_on",
        "time": 29,
        "note": 37,
        "velocity": 0,
        "channel": 2
      },
      {
        "type": "note_on",
        "time": 1,
        "note": 42,
        "velocity": 90,
        "channel": 2
      },
      {
        "type": "note_on",
        "time": 59,
        "note": 42,
        "velocity": 0,
        "channel": 2
      },
      {
        "type": "note_on",
        "time": 31,
        "note": 37,
        "velocity": 90,
        "channel": 2
      },
      {
        "type": "note_on",
        "time": 29,
        "note": 37,
        "velocity": 0,
        "channel": 2
      },
      {
        "type": "note_on",
        "time": 1,
        "note": 42,
        "velocity": 90,
        "channel": 2
      },
      {
        "type": "note_on",
        "time": 59,
        "note": 42,
        "velocity": 0,
        "channel": 2
      },
      {
        "type": "note_on",
        "time": 61,
        "note": 35,
        "velocity": 90,
        "channel": 2
      },
      {
        "type": "note_on",
        "time": 119,
        "note": 35,
        "velocity": 0,
        "channel": 2
      },
      {
        "type": "note_on",
        "time": 1,
        "note": 37,
        "velocity": 90,
        "channel": 2
      },
      {
        "type": "note_on",
        "time": 119,
        "note": 37,
        "velocity": 0,
        "channel": 2
      },
      {
        "type": "note_on",
        "time": 1,
        "note": 38,
        "velocity": 90,
        "channel": 2
      },
      {
        "type": "note_on",
        "time": 119,
        "note": 38,
        "velocity": 0,
        "channel": 2
      },
      {
        "type": "note_on",
        "time": 1,
        "note": 40,
        "velocity": 90,
        "channel": 2
      },
      {
        "type": "note_on",
        "time": 59,
        "note": 40,
        "velocity": 0,
        "channel": 2
      },
      {
        "type": "note_on",
        "time": 1,
        "note": 42,
        "velocity": 90,
        "channel": 2
      },
      {
        "type": "note_on",
        "time": 59,
        "note": 42,
        "velocity": 0,
        "channel": 2
      },
      {
        "type": "note_on",
        "time": 1,
        "note": 43,
        "velocity": 90,
        "channel": 2
      },
      {
        "type": "note_on",
        "time": 29,
        "note": 43,
        "velocity": 0,
        "channel": 2
      },
      {
        "type": "note_on",
        "time": 1,
        "note": 38,
        "velocity": 90,
        "channel": 2
      },
      {
        "type": "note_on",
        "time": 29,
        "note": 38,
        "velocity": 0,
        "channel": 2
      },
      {
        "type": "note_on",
        "time": 1,
        "note": 31,
        "velocity": 90,
        "channel": 2
      },
      {
        "type": "note_on",
        "time": 0,
        "note": 43,
        "velocity": 90,
        "channel": 2
      },
      {
        "type": "note_on",
        "time": 29,
        "note": 31,
        "velocity": 0,
        "channel": 2
      },
      {
        "type": "note_on",
        "time": 0,
        "note": 43,
        "velocity": 0,
        "channel": 2
      },
      {
        "type": "note_on",
        "time": 121,
        "note": 38,
        "velocity": 90,
        "channel": 2
      },
      {
        "type": "note_on",
        "time": 29,
        "note": 38,
        "velocity": 0,
        "channel": 2
      },
      {
        "type": "note_on",
        "time": 1,
        "note": 43,
        "velocity": 90,
        "channel": 2
      },
      {
        "type": "note_on",
        "time": 59,
        "note": 43,
        "velocity": 0,
        "channel": 2
      },
      {
        "type": "note_on",
        "time": 31,
        "note": 38,
        "velocity": 90,
        "channel": 2
      },
      {
        "type": "note_on",
        "time": 29,
        "note": 38,
        "velocity": 0,
        "channel": 2
      },
      {
        "type": "note_on",
        "time": 1,
        "note": 43,
        "velocity": 90,
        "channel": 2
      },
      {
        "type": "note_on",
        "time": 59,
        "note": 43,
        "velocity": 0,
        "channel": 2
      },
      {
        "type": "note_on",
        "time": 31,
        "note": 37,
        "velocity": 90,
        "channel": 2
      },
      {
        "type": "note_on",
        "time": 29,
        "note": 37,
        "velocity": 0,
        "channel": 2
      },
      {
        "type": "note_on",
        "time": 1,
        "note": 38,
        "velocity": 90,
        "channel": 2
      },
      {
        "type": "note_on",
        "time": 29,
        "note": 38,
        "velocity": 0,
        "channel": 2
      },
      {
        "type": "note_on",
        "time": 1,
        "note": 33,
        "velocity": 90,
        "channel": 2
      },
      {
        "type": "note_on",
        "time": 29,
        "note": 33,
        "velocity": 0,
        "channel": 2
      },
      {
        "type": "note_on",
        "time": 1,
        "note": 38,
        "velocity": 90,
        "channel": 2
      },
      {
        "type": "note_on",
        "time": 0,
        "note": 26,
        "velocity": 90,
        "channel": 2
      },
      {
        "type": "note_on",
        "time": 59,
        "note": 38,
        "velocity": 0,
        "channel": 2
      },
      {
        "type": "note_on",
        "time": 0,
        "note": 26,
        "velocity": 0,
        "channel": 2
      },
      {
        "type": "note_on",
        "time": 91,
        "note": 33,
        "velocity": 90,
        "channel": 2
      },
      {
        "type": "note_on",
        "time": 29,
        "note": 33,
        "velocity": 0,
        "channel": 2
      },
      {
        "type": "note_on",
        "time": 1,
        "note": 38,
        "velocity": 90,
        "channel": 2
      },
      {
        "type": "note_on",
        "time": 59,
        "note": 38,
        "velocity": 0,
        "channel": 2
      },
      {
        "type": "note_on",
        "time": 31,
        "note": 33,
        "velocity": 90,
        "channel": 2
      },
      {
        "type": "note_on",
        "time": 29,
        "note": 33,
        "velocity": 0,
        "channel": 2
      },
      {
        "type": "note_on",
        "time": 1,
        "note": 38,
        "velocity": 90,
        "channel": 2
      },
      {
        "type": "note_on",
        "time": 59,
        "note": 38,
        "velocity": 0,
        "channel": 2
      },
      {
        "type": "note_on",
        "time": 31,
        "note": 42,
        "velocity": 90,
        "channel": 2
      },
      {
        "type": "note_on",
        "time": 29,
        "note": 42,
        "velocity": 0,
        "channel": 2
      },
      {
        "type": "note_on",
        "time": 1,
        "note": 43,
        "velocity": 90,
        "channel": 2
      },
      {
        "type": "note_on",
        "time": 29,
        "note": 43,
        "velocity": 0,
        "channel": 2
      },
      {
        "type": "note_on",
        "time": 1,
        "note": 35,
        "velocity": 90,
        "channel": 2
      },
      {
        "type": "note_on",
        "time": 29,
        "note": 35,
        "velocity": 0,
        "channel": 2
      },
      {
        "type": "note_on",
        "time": 1,
        "note": 28,
        "velocity": 90,
        "channel": 2
      },
      {
        "type": "note_on",
        "time": 0,
        "note": 40,
        "velocity": 90,
        "channel": 2
      },
      {
        "type": "note_on",
        "time": 59,
        "note": 28,
        "velocity": 0,
        "channel": 2
      },
      {
        "type": "note_on",
        "time": 0,
        "note": 40,
        "velocity": 0,
        "channel": 2
      },
      {
        "type": "note_on",
        "time": 91,
        "note": 35,
        "velocity": 90,
        "channel": 2
      },
      {
        "type": "note_on",
        "time": 29,
        "note": 35,
        "velocity": 0,
        "channel": 2
      },
      {
        "type": "note_on",
        "time": 1,
        "note": 40,
        "velocity": 90,
        "channel": 2
      },
      {
        "type": "note_on",
        "time": 59,
        "note": 40,
        "velocity": 0,
        "channel": 2
      },
      {
        "type": "note_on",
        "time": 31,
        "note": 35,
        "velocity": 90,
        "channel": 2
      },
      {
        "type": "note_on",
        "time": 29,
        "note": 35,
        "velocity": 0,
        "channel": 2
      },
      {
        "type": "note_on",
        "time": 1,
        "note": 40,
        "velocity": 90,
        "channel": 2
      },
      {
        "type": "note_on",
        "time": 59,
        "note": 40,
        "velocity": 0,
        "channel": 2
      },
      {
        "type": "note_on",
        "time": 31,
        "note": 43,
        "velocity": 90,
        "channel": 2
      },
      {
        "type": "note_on",
        "time": 29,
        "note": 43,
        "velocity": 0,
        "channel": 2
      },
      {
        "type": "note_on",
        "time": 1,
        "note": 42,
        "velocity": 90,
        "channel": 2
      },
      {
        "type": "note_on",
        "time": 29,
        "note": 42,
        "velocity": 0,
        "channel": 2
      },
      {
        "type": "note_on",
        "time": 1,
        "note": 37,
        "velocity": 90,
        "channel": 2
      },
      {
        "type": "note_on",
        "time": 29,
        "note": 37,
        "velocity": 0,
        "channel": 2
      },
      {
        "type": "note_on",
        "time": 1,
        "note": 42,
        "velocity": 90,
        "channel": 2
      },
      {
        "type": "note_on",
        "time": 0,
        "note": 30,
        "velocity": 90,
        "channel": 2
      },
      {
        "type": "note_on",
        "time": 59,
        "note": 42,
        "velocity": 0,
        "channel": 2
      },
      {
        "type": "note_on",
        "time": 0,
        "note": 30,
        "velocity": 0,
        "channel": 2
      },
      {
        "type": "note_on",
        "time": 91,
        "note": 37,
        "velocity": 90,
        "channel": 2
      },
      {
        "type": "note_on",
        "time": 29,
        "note": 37,
        "velocity": 0,
        "channel": 2
      },
      {
        "type": "note_on",
        "time": 1,
        "note": 42,
        "velocity": 90,
        "channel": 2
      },
      {
        "type": "note_on",
        "time": 59,
        "note": 42,
        "velocity": 0,
        "channel": 2
      },
      {
        "type": "note_on",
        "time": 181,
        "note": 35,
        "velocity": 90,
        "channel": 2
      },
      {
        "type": "note_on",
        "time": 29,
        "note": 35,
        "velocity": 0,
        "channel": 2
      },
      {
        "type": "note_on",
        "time": 1,
        "note": 35,
        "velocity": 90,
        "channel": 2
      },
      {
        "type": "note_on",
        "time": 29,
        "note": 35,
        "velocity": 0,
        "channel": 2
      },
      {
        "type": "note_on",
        "time": 1,
        "note": 30,
        "velocity": 90,
        "channel": 2
      },
      {
        "type": "note_on",
        "time": 59,
        "note": 30,
        "velocity": 0,
        "channel": 2
      },
      {
        "type": "note_on",
        "time": 1,
        "note": 35,
        "velocity": 90,
        "channel": 2
      },
      {
        "type": "note_on",
        "time": 59,
        "note": 35,
        "velocity": 0,
        "channel": 2
      },
      {
        "type": "note_on",
        "time": 31,
        "note": 30,
        "velocity": 90,
        "channel": 2
      },
      {
        "type": "note_on",
        "time": 29,
        "note": 30,
        "velocity": 0,
        "channel": 2
      },
      {
        "type": "note_on",
        "time": 1,
        "note": 35,
        "velocity": 90,
        "channel": 2
      },
      {
        "type": "note_on",
        "time": 29,
        "note": 35,
        "velocity": 0,
        "channel": 2
      },
      {
        "type": "note_on",
        "time": 1,
        "note": 35,
        "velocity": 90,
        "channel": 2
      },
      {
        "type": "note_on",
        "time": 29,
        "note": 35,
        "velocity": 0,
        "channel": 2
      },
      {
        "type": "note_on",
        "time": 1,
        "note": 30,
        "velocity": 90,
        "channel": 2
      },
      {
        "type": "note_on",
        "time": 59,
        "note": 30,
        "velocity": 0,
        "channel": 2
      },
      {
        "type": "note_on",
        "time": 121,
        "note": 30,
        "velocity": 90,
        "channel": 2
      },
      {
        "type": "note_on",
        "time": 29,
        "note": 30,
        "velocity": 0,
        "channel": 2
      },
      {
        "type": "note_on",
        "time": 1,
        "note": 30,
        "velocity": 90,
        "channel": 2
      },
      {
        "type": "note_on",
        "time": 29,
        "note": 30,
        "velocity": 0,
        "channel": 2
      },
      {
        "type": "note_on",
        "time": 1,
        "note": 34,
        "velocity": 90,
        "channel": 2
      },
      {
        "type": "note_on",
        "time": 59,
        "note": 34,
        "velocity": 0,
        "channel": 2
      },
      {
        "type": "note_on",
        "time": 1,
        "note": 37,
        "velocity": 90,
        "channel": 2
      },
      {
        "type": "note_on",
        "time": 59,
        "note": 37,
        "velocity": 0,
        "channel": 2
      },
      {
        "type": "note_on",
        "time": 31,
        "note": 34,
        "velocity": 90,
        "channel": 2
      },
      {
        "type": "note_on",
        "time": 29,
        "note": 34,
        "velocity": 0,
        "channel": 2
      },
      {
        "type": "note_on",
        "time": 1,
        "note": 42,
        "velocity": 90,
        "channel": 2
      },
      {
        "type": "note_on",
        "time": 30,
        "note": 42,
        "velocity": 90,
        "channel": 2
      },
      {
        "type": "note_on",
        "time": 29,
        "note": 42,
        "velocity": 0,
        "channel": 2
      },
      {
        "type": "note_on",
        "time": 0,
        "note": 42,
        "velocity": 0,
        "channel": 2
      },
      {
        "type": "note_on",
        "time": 1,
        "note": 34,
        "velocity": 90,
        "channel": 2
      },
      {
        "type": "note_on",
        "time": 59,
        "note": 34,
        "velocity": 0,
        "channel": 2
      },
      {
        "type": "note_on",
        "time": 121,
        "note": 33,
        "velocity": 90,
        "channel": 2
      },
      {
        "type": "note_on",
        "time": 29,
        "note": 33,
        "velocity": 0,
        "channel": 2
      },
      {
        "type": "note_on",
        "time": 1,
        "note": 33,
        "velocity": 90,
        "channel": 2
      },
      {
        "type": "note_on",
        "time": 29,
        "note": 33,
        "velocity": 0,
        "channel": 2
      },
      {
        "type": "note_on",
        "time": 1,
        "note": 40,
        "velocity": 90,
        "channel": 2
      },
      {
        "type": "note_on",
        "time": 59,
        "note": 40,
        "velocity": 0,
        "channel": 2
      },
      {
        "type": "note_on",
        "time": 1,
        "note": 45,
        "velocity": 90,
        "channel": 2
      },
      {
        "type": "note_on",
        "time": 59,
        "note": 45,
        "velocity": 0,
        "channel": 2
      },
      {
        "type": "note_on",
        "time": 31,
        "note": 40,
        "velocity": 90,
        "channel": 2
      },
      {
        "type": "note_on",
        "time": 29,
        "note": 40,
        "velocity": 0,
        "channel": 2
      },
      {
        "type": "note_on",
        "time": 1,
        "note": 45,
        "velocity": 90,
        "channel": 2
      },
      {
        "type": "note_on",
        "time": 30,
        "note": 45,
        "velocity": 90,
        "channel": 2
      },
      {
        "type": "note_on",
        "time": 29,
        "note": 45,
        "velocity": 0,
        "channel": 2
      },
      {
        "type": "note_on",
        "time": 0,
        "note": 45,
        "velocity": 0,
        "channel": 2
      },
      {
        "type": "note_on",
        "time": 1,
        "note": 40,
        "velocity": 90,
        "channel": 2
      },
      {
        "type": "note_on",
        "time": 59,
        "note": 40,
        "velocity": 0,
        "channel": 2
      },
      {
        "type": "note_on",
        "time": 121,
        "note": 28,
        "velocity": 90,
        "channel": 2
      },
      {
        "type": "note_on",
        "time": 29,
        "note": 28,
        "velocity": 0,
        "channel": 2
      },
      {
        "type": "note_on",
        "time": 1,
        "note": 28,
        "velocity": 90,
        "channel": 2
      },
      {
        "type": "note_on",
        "time": 29,
        "note": 28,
        "velocity": 0,
        "channel": 2
      },
      {
        "type": "note_on",
        "time": 1,
        "note": 35,
        "velocity": 90,
        "channel": 2
      },
      {
        "type": "note_on",
        "time": 59,
        "note": 35,
        "velocity": 0,
        "channel": 2
      },
      {
        "type": "note_on",
        "time": 1,
        "note": 40,
        "velocity": 90,
        "channel": 2
      },
      {
        "type": "note_on",
        "time": 59,
        "note": 40,
        "velocity": 0,
        "channel": 2
      },
      {
        "type": "note_on",
        "time": 31,
        "note": 35,
        "velocity": 90,
        "channel": 2
      },
      {
        "type": "note_on",
        "time": 29,
        "note": 35,
        "velocity": 0,
        "channel": 2
      },
      {
        "type": "note_on",
        "time": 1,
        "note": 40,
        "velocity": 90,
        "channel": 2
      },
      {
        "type": "note_on",
        "time": 30,
        "note": 40,
        "velocity": 90,
        "channel": 2
      },
      {
        "type": "note_on",
        "time": 29,
        "note": 40,
        "velocity": 0,
        "channel": 2
      },
      {
        "type": "note_on",
        "time": 1,
        "note": 35,
        "velocity": 90,
        "channel": 2
      },
      {
        "type": "note_on",
        "time": 59,
        "note": 35,
        "velocity": 0,
        "channel": 2
      },
      {
        "type": "note_on",
        "time": 120,
        "note": 40,
        "velocity": 0,
        "channel": 2
      },
      {
        "type": "note_on",
        "time": 1,
        "note": 31,
        "velocity": 90,
        "channel": 2
      },
      {
        "type": "note_on",
        "time": 29,
        "note": 31,
        "velocity": 0,
        "channel": 2
      },
      {
        "type": "note_on",
        "time": 1,
        "note": 31,
        "velocity": 90,
        "channel": 2
      },
      {
        "type": "note_on",
        "time": 29,
        "note": 31,
        "velocity": 0,
        "channel": 2
      },
      {
        "type": "note_on",
        "time": 1,
        "note": 38,
        "velocity": 90,
        "channel": 2
      },
      {
        "type": "note_on",
        "time": 59,
        "note": 38,
        "velocity": 0,
        "channel": 2
      },
      {
        "type": "note_on",
        "time": 1,
        "note": 43,
        "velocity": 90,
        "channel": 2
      },
      {
        "type": "note_on",
        "time": 59,
        "note": 43,
        "velocity": 0,
        "channel": 2
      },
      {
        "type": "note_on",
        "time": 31,
        "note": 38,
        "velocity": 90,
        "channel": 2
      },
      {
        "type": "note_on",
        "time": 29,
        "note": 38,
        "velocity": 0,
        "channel": 2
      },
      {
        "type": "note_on",
        "time": 1,
        "note": 43,
        "velocity": 90,
        "channel": 2
      },
      {
        "type": "note_on",
        "time": 29,
        "note": 43,
        "velocity": 0,
        "channel": 2
      },
      {
        "type": "note_on",
        "time": 1,
        "note": 43,
        "velocity": 90,
        "channel": 2
      },
      {
        "type": "note_on",
        "time": 29,
        "note": 43,
        "velocity": 0,
        "channel": 2
      },
      {
        "type": "note_on",
        "time": 1,
        "note": 38,
        "velocity": 90,
        "channel": 2
      },
      {
        "type": "note_on",
        "time": 59,
        "note": 38,
        "velocity": 0,
        "channel": 2
      },
      {
        "type": "note_on",
        "time": 121,
        "note": 30,
        "velocity": 90,
        "channel": 2
      },
      {
        "type": "note_on",
        "time": 29,
        "note": 30,
        "velocity": 0,
        "channel": 2
      },
      {
        "type": "note_on",
        "time": 1,
        "note": 33,
        "velocity": 90,
        "channel": 2
      },
      {
        "type": "note_on",
        "time": 29,
        "note": 33,
        "velocity": 0,
        "channel": 2
      },
      {
        "type": "note_on",
        "time": 1,
        "note": 38,
        "velocity": 90,
        "channel": 2
      },
      {
        "type": "note_on",
        "time": 59,
        "note": 38,
        "velocity": 0,
        "channel": 2
      },
      {
        "type": "note_on",
        "time": 1,
        "note": 42,
        "velocity": 90,
        "channel": 2
      },
      {
        "type": "note_on",
        "time": 59,
        "note": 42,
        "velocity": 0,
        "channel": 2
      },
      {
        "type": "note_on",
        "time": 31,
        "note": 38,
        "velocity": 90,
        "channel": 2
      },
      {
        "type": "note_on",
        "time": 29,
        "note": 38,
        "velocity": 0,
        "channel": 2
      },
      {
        "type": "note_on",
        "time": 1,
        "note": 42,
        "velocity": 90,
        "channel": 2
      },
      {
        "type": "note_on",
        "time": 29,
        "note": 42,
        "velocity": 0,
        "channel": 2
      },
      {
        "type": "note_on",
        "time": 1,
        "note": 42,
        "velocity": 90,
        "channel": 2
      },
      {
        "type": "note_on",
        "time": 29,
        "note": 42,
        "velocity": 0,
        "channel": 2
      },
      {
        "type": "note_on",
        "time": 1,
        "note": 38,
        "velocity": 90,
        "channel": 2
      },
      {
        "type": "note_on",
        "time": 59,
        "note": 38,
        "velocity": 0,
        "channel": 2
      },
      {
        "type": "note_on",
        "time": 121,
        "note": 28,
        "velocity": 90,
        "channel": 2
      },
      {
        "type": "note_on",
        "time": 29,
        "note": 28,
        "velocity": 0,
        "channel": 2
      },
      {
        "type": "note_on",
        "time": 1,
        "note": 31,
        "velocity": 90,
        "channel": 2
      },
      {
        "type": "note_on",
        "time": 29,
        "note": 31,
        "velocity": 0,
        "channel": 2
      },
      {
        "type": "note_on",
        "time": 1,
        "note": 35,
        "velocity": 90,
        "channel": 2
      },
      {
        "type": "note_on",
        "time": 59,
        "note": 35,
        "velocity": 0,
        "channel": 2
      },
      {
        "type": "note_on",
        "time": 1,
        "note": 40,
        "velocity": 90,
        "channel": 2
      },
      {
        "type": "note_on",
        "time": 59,
        "note": 40,
        "velocity": 0,
        "channel": 2
      },
      {
        "type": "note_on",
        "time": 31,
        "note": 35,
        "velocity": 90,
        "channel": 2
      },
      {
        "type": "note_on",
        "time": 29,
        "note": 35,
        "velocity": 0,
        "channel": 2
      },
      {
        "type": "note_on",
        "time": 1,
        "note": 40,
        "velocity": 90,
        "channel": 2
      },
      {
        "type": "note_on",
        "time": 29,
        "note": 40,
        "velocity": 0,
        "channel": 2
      },
      {
        "type": "note_on",
        "time": 1,
        "note": 40,
        "velocity": 90,
        "channel": 2
      },
      {
        "type": "note_on",
        "time": 29,
        "note": 40,
        "velocity": 0,
        "channel": 2
      },
      {
        "type": "note_on",
        "time": 1,
        "note": 35,
        "velocity": 90,
        "channel": 2
      },
      {
        "type": "note_on",
        "time": 59,
        "note": 35,
        "velocity": 0,
        "channel": 2
      },
      {
        "type": "note_on",
        "time": 121,
        "note": 30,
        "velocity": 90,
        "channel": 2
      },
      {
        "type": "note_on",
        "time": 29,
        "note": 30,
        "velocity": 0,
        "channel": 2
      },
      {
        "type": "note_on",
        "time": 1,
        "note": 33,
        "velocity": 90,
        "channel": 2
      },
      {
        "type": "note_on",
        "time": 29,
        "note": 33,
        "velocity": 0,
        "channel": 2
      },
      {
        "type": "note_on",
        "time": 1,
        "note": 37,
        "velocity": 90,
        "channel": 2
      },
      {
        "type": "note_on",
        "time": 29,
        "note": 37,
        "velocity": 0,
        "channel": 2
      },
      {
        "type": "note_on",
        "time": 1,
        "note": 42,
        "velocity": 90,
        "channel": 2
      },
      {
        "type": "note_on",
        "time": 119,
        "note": 42,
        "velocity": 0,
        "channel": 2
      },
      {
        "type": "note_on",
        "time": 1,
        "note": 37,
        "velocity": 90,
        "channel": 2
      },
      {
        "type": "note_on",
        "time": 29,
        "note": 37,
        "velocity": 0,
        "channel": 2
      },
      {
        "type": "note_on",
        "time": 1,
        "note": 42,
        "velocity": 90,
        "channel": 2
      },
      {
        "type": "note_on",
        "time": 59,
        "note": 42,
        "velocity": 0,
        "channel": 2
      },
      {
        "type": "note_on",
        "time": 31,
        "note": 37,
        "velocity": 90,
        "channel": 2
      },
      {
        "type": "note_on",
        "time": 29,
        "note": 37,
        "velocity": 0,
        "channel": 2
      },
      {
        "type": "note_on",
        "time": 1,
        "note": 42,
        "velocity": 90,
        "channel": 2
      },
      {
        "type": "note_on",
        "time": 59,
        "note": 42,
        "velocity": 0,
        "channel": 2
      },
      {
        "type": "note_on",
        "time": 61,
        "note": 35,
        "velocity": 90,
        "channel": 2
      },
      {
        "type": "note_on",
        "time": 29,
        "note": 35,
        "velocity": 0,
        "channel": 2
      },
      {
        "type": "note_on",
        "time": 1,
        "note": 35,
        "velocity": 90,
        "channel": 2
      },
      {
        "type": "note_on",
        "time": 29,
        "note": 35,
        "velocity": 0,
        "channel": 2
      },
      {
        "type": "note_on",
        "time": 1,
        "note": 30,
        "velocity": 90,
        "channel": 2
      },
      {
        "type": "note_on",
        "time": 59,
        "note": 30,
        "velocity": 0,
        "channel": 2
      },
      {
        "type": "note_on",
        "time": 1,
        "note": 35,
        "velocity": 90,
        "channel": 2
      },
      {
        "type": "note_on",
        "time": 59,
        "note": 35,
        "velocity": 0,
        "channel": 2
      },
      {
        "type": "note_on",
        "time": 31,
        "note": 30,
        "velocity": 90,
        "channel": 2
      },
      {
        "type": "note_on",
        "time": 29,
        "note": 30,
        "velocity": 0,
        "channel": 2
      },
      {
        "type": "note_on",
        "time": 1,
        "note": 35,
        "velocity": 90,
        "channel": 2
      },
      {
        "type": "note_on",
        "time": 29,
        "note": 35,
        "velocity": 0,
        "channel": 2
      },
      {
        "type": "note_on",
        "time": 1,
        "note": 35,
        "velocity": 90,
        "channel": 2
      },
      {
        "type": "note_on",
        "time": 29,
        "note": 35,
        "velocity": 0,
        "channel": 2
      },
      {
        "type": "note_on",
        "time": 1,
        "note": 30,
        "velocity": 90,
        "channel": 2
      },
      {
        "type": "note_on",
        "time": 59,
        "note": 30,
        "velocity": 0,
        "channel": 2
      },
      {
        "type": "note_on",
        "time": 121,
        "note": 30,
        "velocity": 90,
        "channel": 2
      },
      {
        "type": "note_on",
        "time": 29,
        "note": 30,
        "velocity": 0,
        "channel": 2
      },
      {
        "type": "note_on",
        "time": 1,
        "note": 30,
        "velocity": 90,
        "channel": 2
      },
      {
        "type": "note_on",
        "time": 29,
        "note": 30,
        "velocity": 0,
        "channel": 2
      },
      {
        "type": "note_on",
        "time": 1,
        "note": 34,
        "velocity": 90,
        "channel": 2
      },
      {
        "type": "note_on",
        "time": 59,
        "note": 34,
        "velocity": 0,
        "channel": 2
      },
      {
        "type": "note_on",
        "time": 1,
        "note": 37,
        "velocity": 90,
        "channel": 2
      },
      {
        "type": "note_on",
        "time": 59,
        "note": 37,
        "velocity": 0,
        "channel": 2
      },
      {
        "type": "note_on",
        "time": 31,
        "note": 34,
        "velocity": 90,
        "channel": 2
      },
      {
        "type": "note_on",
        "time": 29,
        "note": 34,
        "velocity": 0,
        "channel": 2
      },
      {
        "type": "note_on",
        "time": 1,
        "note": 42,
        "velocity": 90,
        "channel": 2
      },
      {
        "type": "note_on",
        "time": 30,
        "note": 42,
        "velocity": 90,
        "channel": 2
      },
      {
        "type": "note_on",
        "time": 29,
        "note": 42,
        "velocity": 0,
        "channel": 2
      },
      {
        "type": "note_on",
        "time": 0,
        "note": 42,
        "velocity": 0,
        "channel": 2
      },
      {
        "type": "note_on",
        "time": 1,
        "note": 34,
        "velocity": 90,
        "channel": 2
      },
      {
        "type": "note_on",
        "time": 59,
        "note": 34,
        "velocity": 0,
        "channel": 2
      },
      {
        "type": "note_on",
        "time": 121,
        "note": 33,
        "velocity": 90,
        "channel": 2
      },
      {
        "type": "note_on",
        "time": 29,
        "note": 33,
        "velocity": 0,
        "channel": 2
      },
      {
        "type": "note_on",
        "time": 1,
        "note": 33,
        "velocity": 90,
        "channel": 2
      },
      {
        "type": "note_on",
        "time": 29,
        "note": 33,
        "velocity": 0,
        "channel": 2
      },
      {
        "type": "note_on",
        "time": 1,
        "note": 40,
        "velocity": 90,
        "channel": 2
      },
      {
        "type": "note_on",
        "time": 59,
        "note": 40,
        "velocity": 0,
        "channel": 2
      },
      {
        "type": "note_on",
        "time": 1,
        "note": 45,
        "velocity": 90,
        "channel": 2
      },
      {
        "type": "note_on",
        "time": 59,
        "note": 45,
        "velocity": 0,
        "channel": 2
      },
      {
        "type": "note_on",
        "time": 31,
        "note": 40,
        "velocity": 90,
        "channel": 2
      },
      {
        "type": "note_on",
        "time": 29,
        "note": 40,
        "velocity": 0,
        "channel": 2
      },
      {
        "type": "note_on",
        "time": 1,
        "note": 45,
        "velocity": 90,
        "channel": 2
      },
      {
        "type": "note_on",
        "time": 30,
        "note": 45,
        "velocity": 90,
        "channel": 2
      },
      {
        "type": "note_on",
        "time": 29,
        "note": 45,
        "velocity": 0,
        "channel": 2
      },
      {
        "type": "note_on",
        "time": 0,
        "note": 45,
        "velocity": 0,
        "channel": 2
      },
      {
        "type": "note_on",
        "time": 1,
        "note": 40,
        "velocity": 90,
        "channel": 2
      },
      {
        "type": "note_on",
        "time": 59,
        "note": 40,
        "velocity": 0,
        "channel": 2
      },
      {
        "type": "note_on",
        "time": 121,
        "note": 28,
        "velocity": 90,
        "channel": 2
      },
      {
        "type": "note_on",
        "time": 29,
        "note": 28,
        "velocity": 0,
        "channel": 2
      },
      {
        "type": "note_on",
        "time": 1,
        "note": 28,
        "velocity": 90,
        "channel": 2
      },
      {
        "type": "note_on",
        "time": 29,
        "note": 28,
        "velocity": 0,
        "channel": 2
      },
      {
        "type": "note_on",
        "time": 1,
        "note": 35,
        "velocity": 90,
        "channel": 2
      },
      {
        "type": "note_on",
        "time": 59,
        "note": 35,
        "velocity": 0,
        "channel": 2
      },
      {
        "type": "note_on",
        "time": 1,
        "note": 40,
        "velocity": 90,
        "channel": 2
      },
      {
        "type": "note_on",
        "time": 59,
        "note": 40,
        "velocity": 0,
        "channel": 2
      },
      {
        "type": "note_on",
        "time": 31,
        "note": 35,
        "velocity": 90,
        "channel": 2
      },
      {
        "type": "note_on",
        "time": 29,
        "note": 35,
        "velocity": 0,
        "channel": 2
      },
      {
        "type": "note_on",
        "time": 1,
        "note": 40,
        "velocity": 90,
        "channel": 2
      },
      {
        "type": "note_on",
        "time": 30,
        "note": 40,
        "velocity": 90,
        "channel": 2
      },
      {
        "type": "note_on",
        "time": 29,
        "note": 40,
        "velocity": 0,
        "channel": 2
      },
      {
        "type": "note_on",
        "time": 1,
        "note": 35,
        "velocity": 90,
        "channel": 2
      },
      {
        "type": "note_on",
        "time": 59,
        "note": 35,
        "velocity": 0,
        "channel": 2
      },
      {
        "type": "note_on",
        "time": 120,
        "note": 40,
        "velocity": 0,
        "channel": 2
      },
      {
        "type": "note_on",
        "time": 1,
        "note": 31,
        "velocity": 90,
        "channel": 2
      },
      {
        "type": "note_on",
        "time": 29,
        "note": 31,
        "velocity": 0,
        "channel": 2
      },
      {
        "type": "note_on",
        "time": 1,
        "note": 31,
        "velocity": 90,
        "channel": 2
      },
      {
        "type": "note_on",
        "time": 29,
        "note": 31,
        "velocity": 0,
        "channel": 2
      },
      {
        "type": "note_on",
        "time": 1,
        "note": 38,
        "velocity": 90,
        "channel": 2
      },
      {
        "type": "note_on",
        "time": 59,
        "note": 38,
        "velocity": 0,
        "channel": 2
      },
      {
        "type": "note_on",
        "time": 1,
        "note": 43,
        "velocity": 90,
        "channel": 2
      },
      {
        "type": "note_on",
        "time": 59,
        "note": 43,
        "velocity": 0,
        "channel": 2
      },
      {
        "type": "note_on",
        "time": 31,
        "note": 38,
        "velocity": 90,
        "channel": 2
      },
      {
        "type": "note_on",
        "time": 29,
        "note": 38,
        "velocity": 0,
        "channel": 2
      },
      {
        "type": "note_on",
        "time": 1,
        "note": 43,
        "velocity": 90,
        "channel": 2
      },
      {
        "type": "note_on",
        "time": 29,
        "note": 43,
        "velocity": 0,
        "channel": 2
      },
      {
        "type": "note_on",
        "time": 1,
        "note": 43,
        "velocity": 90,
        "channel": 2
      },
      {
        "type": "note_on",
        "time": 29,
        "note": 43,
        "velocity": 0,
        "channel": 2
      },
      {
        "type": "note_on",
        "time": 1,
        "note": 38,
        "velocity": 90,
        "channel": 2
      },
      {
        "type": "note_on",
        "time": 29,
        "note": 38,
        "velocity": 0,
        "channel": 2
      },
      {
        "type": "note_on",
        "time": 151,
        "note": 30,
        "velocity": 90,
        "channel": 2
      },
      {
        "type": "note_on",
        "time": 29,
        "note": 30,
        "velocity": 0,
        "channel": 2
      },
      {
        "type": "note_on",
        "time": 1,
        "note": 33,
        "velocity": 90,
        "channel": 2
      },
      {
        "type": "note_on",
        "time": 29,
        "note": 33,
        "velocity": 0,
        "channel": 2
      },
      {
        "type": "note_on",
        "time": 1,
        "note": 38,
        "velocity": 90,
        "channel": 2
      },
      {
        "type": "note_on",
        "time": 59,
        "note": 38,
        "velocity": 0,
        "channel": 2
      },
      {
        "type": "note_on",
        "time": 1,
        "note": 42,
        "velocity": 90,
        "channel": 2
      },
      {
        "type": "note_on",
        "time": 59,
        "note": 42,
        "velocity": 0,
        "channel": 2
      },
      {
        "type": "note_on",
        "time": 31,
        "note": 38,
        "velocity": 90,
        "channel": 2
      },
      {
        "type": "note_on",
        "time": 29,
        "note": 38,
        "velocity": 0,
        "channel": 2
      },
      {
        "type": "note_on",
        "time": 1,
        "note": 42,
        "velocity": 90,
        "channel": 2
      },
      {
        "type": "note_on",
        "time": 29,
        "note": 42,
        "velocity": 0,
        "channel": 2
      },
      {
        "type": "note_on",
        "time": 1,
        "note": 42,
        "velocity": 90,
        "channel": 2
      },
      {
        "type": "note_on",
        "time": 29,
        "note": 42,
        "velocity": 0,
        "channel": 2
      },
      {
        "type": "note_on",
        "time": 1,
        "note": 38,
        "velocity": 90,
        "channel": 2
      },
      {
        "type": "note_on",
        "time": 59,
        "note": 38,
        "velocity": 0,
        "channel": 2
      },
      {
        "type": "note_on",
        "time": 121,
        "note": 28,
        "velocity": 90,
        "channel": 2
      },
      {
        "type": "note_on",
        "time": 29,
        "note": 28,
        "velocity": 0,
        "channel": 2
      },
      {
        "type": "note_on",
        "time": 1,
        "note": 31,
        "velocity": 90,
        "channel": 2
      },
      {
        "type": "note_on",
        "time": 29,
        "note": 31,
        "velocity": 0,
        "channel": 2
      },
      {
        "type": "note_on",
        "time": 1,
        "note": 35,
        "velocity": 90,
        "channel": 2
      },
      {
        "type": "note_on",
        "time": 59,
        "note": 35,
        "velocity": 0,
        "channel": 2
      },
      {
        "type": "note_on",
        "time": 1,
        "note": 40,
        "velocity": 90,
        "channel": 2
      },
      {
        "type": "note_on",
        "time": 59,
        "note": 40,
        "velocity": 0,
        "channel": 2
      },
      {
        "type": "note_on",
        "time": 31,
        "note": 35,
        "velocity": 90,
        "channel": 2
      },
      {
        "type": "note_on",
        "time": 29,
        "note": 35,
        "velocity": 0,
        "channel": 2
      },
      {
        "type": "note_on",
        "time": 1,
        "note": 40,
        "velocity": 90,
        "channel": 2
      },
      {
        "type": "note_on",
        "time": 29,
        "note": 40,
        "velocity": 0,
        "channel": 2
      },
      {
        "type": "note_on",
        "time": 1,
        "note": 40,
        "velocity": 90,
        "channel": 2
      },
      {
        "type": "note_on",
        "time": 29,
        "note": 40,
        "velocity": 0,
        "channel": 2
      },
      {
        "type": "note_on",
        "time": 1,
        "note": 35,
        "velocity": 90,
        "channel": 2
      },
      {
        "type": "note_on",
        "time": 59,
        "note": 35,
        "velocity": 0,
        "channel": 2
      },
      {
        "type": "note_on",
        "time": 121,
        "note": 30,
        "velocity": 90,
        "channel": 2
      },
      {
        "type": "note_on",
        "time": 29,
        "note": 30,
        "velocity": 0,
        "channel": 2
      },
      {
        "type": "note_on",
        "time": 1,
        "note": 33,
        "velocity": 90,
        "channel": 2
      },
      {
        "type": "note_on",
        "time": 29,
        "note": 33,
        "velocity": 0,
        "channel": 2
      },
      {
        "type": "note_on",
        "time": 1,
        "note": 37,
        "velocity": 90,
        "channel": 2
      },
      {
        "type": "note_on",
        "time": 29,
        "note": 37,
        "velocity": 0,
        "channel": 2
      },
      {
        "type": "note_on",
        "time": 1,
        "note": 42,
        "velocity": 90,
        "channel": 2
      },
      {
        "type": "note_on",
        "time": 119,
        "note": 42,
        "velocity": 0,
        "channel": 2
      },
      {
        "type": "note_on",
        "time": 1,
        "note": 37,
        "velocity": 90,
        "channel": 2
      },
      {
        "type": "note_on",
        "time": 29,
        "note": 37,
        "velocity": 0,
        "channel": 2
      },
      {
        "type": "note_on",
        "time": 1,
        "note": 42,
        "velocity": 90,
        "channel": 2
      },
      {
        "type": "note_on",
        "time": 59,
        "note": 42,
        "velocity": 0,
        "channel": 2
      },
      {
        "type": "note_on",
        "time": 61,
        "note": 35,
        "velocity": 90,
        "channel": 2
      },
      {
        "type": "note_on",
        "time": 30,
        "note": 37,
        "velocity": 90,
        "channel": 2
      },
      {
        "type": "note_on",
        "time": 29,
        "note": 35,
        "velocity": 0,
        "channel": 2
      },
      {
        "type": "note_on",
        "time": 0,
        "note": 37,
        "velocity": 0,
        "channel": 2
      },
      {
        "type": "note_on",
        "time": 1,
        "note": 38,
        "velocity": 90,
        "channel": 2
      },
      {
        "type": "note_on",
        "time": 29,
        "note": 38,
        "velocity": 0,
        "channel": 2
      },
      {
        "type": "note_on",
        "time": 1,
        "note": 42,
        "velocity": 90,
        "channel": 2
      },
      {
        "type": "note_on",
        "time": 29,
        "note": 42,
        "velocity": 0,
        "channel": 2
      },
      {
        "type": "note_on",
        "time": 1,
        "note": 43,
        "velocity": 90,
        "channel": 2
      },
      {
        "type": "note_on",
        "time": 29,
        "note": 43,
        "velocity": 0,
        "channel": 2
      },
      {
        "type": "note_on",
        "time": 1,
        "note": 38,
        "velocity": 90,
        "channel": 2
      },
      {
        "type": "note_on",
        "time": 29,
        "note": 38,
        "velocity": 0,
        "channel": 2
      },
      {
        "type": "note_on",
        "time": 1,
        "note": 31,
        "velocity": 90,
        "channel": 2
      },
      {
        "type": "note_on",
        "time": 0,
        "note": 43,
        "velocity": 90,
        "channel": 2
      },
      {
        "type": "note_on",
        "time": 59,
        "note": 31,
        "velocity": 0,
        "channel": 2
      },
      {
        "type": "note_on",
        "time": 0,
        "note": 43,
        "velocity": 0,
        "channel": 2
      },
      {
        "type": "note_on",
        "time": 91,
        "note": 38,
        "velocity": 90,
        "channel": 2
      },
      {
        "type": "note_on",
        "time": 29,
        "note": 38,
        "velocity": 0,
        "channel": 2
      },
      {
        "type": "note_on",
        "time": 1,
        "note": 43,
        "velocity": 90,
        "channel": 2
      },
      {
        "type": "note_on",
        "time": 59,
        "note": 43,
        "velocity": 0,
        "channel": 2
      },
      {
        "type": "note_on",
        "time": 31,
        "note": 38,
        "velocity": 90,
        "channel": 2
      },
      {
        "type": "note_on",
        "time": 29,
        "note": 38,
        "velocity": 0,
        "channel": 2
      },
      {
        "type": "note_on",
        "time": 1,
        "note": 43,
        "velocity": 90,
        "channel": 2
      },
      {
        "type": "note_on",
        "time": 59,
        "note": 43,
        "velocity": 0,
        "channel": 2
      },
      {
        "type": "note_on",
        "time": 31,
        "note": 37,
        "velocity": 90,
        "channel": 2
      },
      {
        "type": "note_on",
        "time": 29,
        "note": 37,
        "velocity": 0,
        "channel": 2
      },
      {
        "type": "note_on",
        "time": 1,
        "note": 38,
        "velocity": 90,
        "channel": 2
      },
      {
        "type": "note_on",
        "time": 29,
        "note": 38,
        "velocity": 0,
        "channel": 2
      },
      {
        "type": "note_on",
        "time": 1,
        "note": 33,
        "velocity": 90,
        "channel": 2
      },
      {
        "type": "note_on",
        "time": 29,
        "note": 33,
        "velocity": 0,
        "channel": 2
      },
      {
        "type": "note_on",
        "time": 1,
        "note": 26,
        "velocity": 90,
        "channel": 2
      },
      {
        "type": "note_on",
        "time": 0,
        "note": 38,
        "velocity": 90,
        "channel": 2
      },
      {
        "type": "note_on",
        "time": 59,
        "note": 26,
        "velocity": 0,
        "channel": 2
      },
      {
        "type": "note_on",
        "time": 0,
        "note": 38,
        "velocity": 0,
        "channel": 2
      },
      {
        "type": "note_on",
        "time": 91,
        "note": 33,
        "velocity": 90,
        "channel": 2
      },
      {
        "type": "note_on",
        "time": 29,
        "note": 33,
        "velocity": 0,
        "channel": 2
      },
      {
        "type": "note_on",
        "time": 1,
        "note": 38,
        "velocity": 90,
        "channel": 2
      },
      {
        "type": "note_on",
        "time": 59,
        "note": 38,
        "velocity": 0,
        "channel": 2
      },
      {
        "type": "note_on",
        "time": 31,
        "note": 33,
        "velocity": 90,
        "channel": 2
      },
      {
        "type": "note_on",
        "time": 29,
        "note": 33,
        "velocity": 0,
        "channel": 2
      },
      {
        "type": "note_on",
        "time": 1,
        "note": 38,
        "velocity": 90,
        "channel": 2
      },
      {
        "type": "note_on",
        "time": 59,
        "note": 38,
        "velocity": 0,
        "channel": 2
      },
      {
        "type": "note_on",
        "time": 31,
        "note": 42,
        "velocity": 90,
        "channel": 2
      },
      {
        "type": "note_on",
        "time": 29,
        "note": 42,
        "velocity": 0,
        "channel": 2
      },
      {
        "type": "note_on",
        "time": 1,
        "note": 42,
        "velocity": 90,
        "channel": 2
      },
      {
        "type": "note_on",
        "time": 29,
        "note": 42,
        "velocity": 0,
        "channel": 2
      },
      {
        "type": "note_on",
        "time": 1,
        "note": 37,
        "velocity": 90,
        "channel": 2
      },
      {
        "type": "note_on",
        "time": 29,
        "note": 37,
        "velocity": 0,
        "channel": 2
      },
      {
        "type": "note_on",
        "time": 1,
        "note": 42,
        "velocity": 90,
        "channel": 2
      },
      {
        "type": "note_on",
        "time": 0,
        "note": 30,
        "velocity": 90,
        "channel": 2
      },
      {
        "type": "note_on",
        "time": 59,
        "note": 42,
        "velocity": 0,
        "channel": 2
      },
      {
        "type": "note_on",
        "time": 0,
        "note": 30,
        "velocity": 0,
        "channel": 2
      },
      {
        "type": "note_on",
        "time": 91,
        "note": 37,
        "velocity": 90,
        "channel": 2
      },
      {
        "type": "note_on",
        "time": 29,
        "note": 37,
        "velocity": 0,
        "channel": 2
      },
      {
        "type": "note_on",
        "time": 1,
        "note": 42,
        "velocity": 90,
        "channel": 2
      },
      {
        "type": "note_on",
        "time": 59,
        "note": 42,
        "velocity": 0,
        "channel": 2
      },
      {
        "type": "note_on",
        "time": 31,
        "note": 37,
        "velocity": 90,
        "channel": 2
      },
      {
        "type": "note_on",
        "time": 29,
        "note": 37,
        "velocity": 0,
        "channel": 2
      },
      {
        "type": "note_on",
        "time": 1,
        "note": 42,
        "velocity": 90,
        "channel": 2
      },
      {
        "type": "note_on",
        "time": 59,
        "note": 42,
        "velocity": 0,
        "channel": 2
      },
      {
        "type": "note_on",
        "time": 61,
        "note": 35,
        "velocity": 90,
        "channel": 2
      },
      {
        "type": "note_on",
        "time": 119,
        "note": 35,
        "velocity": 0,
        "channel": 2
      },
      {
        "type": "note_on",
        "time": 1,
        "note": 37,
        "velocity": 90,
        "channel": 2
      },
      {
        "type": "note_on",
        "time": 119,
        "note": 37,
        "velocity": 0,
        "channel": 2
      },
      {
        "type": "note_on",
        "time": 1,
        "note": 38,
        "velocity": 90,
        "channel": 2
      },
      {
        "type": "note_on",
        "time": 119,
        "note": 38,
        "velocity": 0,
        "channel": 2
      },
      {
        "type": "note_on",
        "time": 1,
        "note": 40,
        "velocity": 90,
        "channel": 2
      },
      {
        "type": "note_on",
        "time": 59,
        "note": 40,
        "velocity": 0,
        "channel": 2
      },
      {
        "type": "note_on",
        "time": 1,
        "note": 42,
        "velocity": 90,
        "channel": 2
      },
      {
        "type": "note_on",
        "time": 59,
        "note": 42,
        "velocity": 0,
        "channel": 2
      },
      {
        "type": "note_on",
        "time": 1,
        "note": 43,
        "velocity": 90,
        "channel": 2
      },
      {
        "type": "note_on",
        "time": 29,
        "note": 43,
        "velocity": 0,
        "channel": 2
      },
      {
        "type": "note_on",
        "time": 1,
        "note": 38,
        "velocity": 90,
        "channel": 2
      },
      {
        "type": "note_on",
        "time": 29,
        "note": 38,
        "velocity": 0,
        "channel": 2
      },
      {
        "type": "note_on",
        "time": 1,
        "note": 31,
        "velocity": 90,
        "channel": 2
      },
      {
        "type": "note_on",
        "time": 0,
        "note": 43,
        "velocity": 90,
        "channel": 2
      },
      {
        "type": "note_on",
        "time": 29,
        "note": 31,
        "velocity": 0,
        "channel": 2
      },
      {
        "type": "note_on",
        "time": 0,
        "note": 43,
        "velocity": 0,
        "channel": 2
      },
      {
        "type": "note_on",
        "time": 121,
        "note": 38,
        "velocity": 90,
        "channel": 2
      },
      {
        "type": "note_on",
        "time": 29,
        "note": 38,
        "velocity": 0,
        "channel": 2
      },
      {
        "type": "note_on",
        "time": 1,
        "note": 43,
        "velocity": 90,
        "channel": 2
      },
      {
        "type": "note_on",
        "time": 59,
        "note": 43,
        "velocity": 0,
        "channel": 2
      },
      {
        "type": "note_on",
        "time": 31,
        "note": 38,
        "velocity": 90,
        "channel": 2
      },
      {
        "type": "note_on",
        "time": 29,
        "note": 38,
        "velocity": 0,
        "channel": 2
      },
      {
        "type": "note_on",
        "time": 1,
        "note": 43,
        "velocity": 90,
        "channel": 2
      },
      {
        "type": "note_on",
        "time": 59,
        "note": 43,
        "velocity": 0,
        "channel": 2
      },
      {
        "type": "note_on",
        "time": 31,
        "note": 37,
        "velocity": 90,
        "channel": 2
      },
      {
        "type": "note_on",
        "time": 29,
        "note": 37,
        "velocity": 0,
        "channel": 2
      },
      {
        "type": "note_on",
        "time": 1,
        "note": 38,
        "velocity": 90,
        "channel": 2
      },
      {
        "type": "note_on",
        "time": 29,
        "note": 38,
        "velocity": 0,
        "channel": 2
      },
      {
        "type": "note_on",
        "time": 1,
        "note": 33,
        "velocity": 90,
        "channel": 2
      },
      {
        "type": "note_on",
        "time": 29,
        "note": 33,
        "velocity": 0,
        "channel": 2
      },
      {
        "type": "note_on",
        "time": 1,
        "note": 38,
        "velocity": 90,
        "channel": 2
      },
      {
        "type": "note_on",
        "time": 0,
        "note": 26,
        "velocity": 90,
        "channel": 2
      },
      {
        "type": "note_on",
        "time": 59,
        "note": 38,
        "velocity": 0,
        "channel": 2
      },
      {
        "type": "note_on",
        "time": 0,
        "note": 26,
        "velocity": 0,
        "channel": 2
      },
      {
        "type": "note_on",
        "time": 91,
        "note": 33,
        "velocity": 90,
        "channel": 2
      },
      {
        "type": "note_on",
        "time": 29,
        "note": 33,
        "velocity": 0,
        "channel": 2
      },
      {
        "type": "note_on",
        "time": 1,
        "note": 38,
        "velocity": 90,
        "channel": 2
      },
      {
        "type": "note_on",
        "time": 59,
        "note": 38,
        "velocity": 0,
        "channel": 2
      },
      {
        "type": "note_on",
        "time": 31,
        "note": 33,
        "velocity": 90,
        "channel": 2
      },
      {
        "type": "note_on",
        "time": 29,
        "note": 33,
        "velocity": 0,
        "channel": 2
      },
      {
        "type": "note_on",
        "time": 1,
        "note": 38,
        "velocity": 90,
        "channel": 2
      },
      {
        "type": "note_on",
        "time": 59,
        "note": 38,
        "velocity": 0,
        "channel": 2
      },
      {
        "type": "note_on",
        "time": 31,
        "note": 42,
        "velocity": 90,
        "channel": 2
      },
      {
        "type": "note_on",
        "time": 29,
        "note": 42,
        "velocity": 0,
        "channel": 2
      },
      {
        "type": "note_on",
        "time": 1,
        "note": 43,
        "velocity": 90,
        "channel": 2
      },
      {
        "type": "note_on",
        "time": 29,
        "note": 43,
        "velocity": 0,
        "channel": 2
      },
      {
        "type": "note_on",
        "time": 1,
        "note": 35,
        "velocity": 90,
        "channel": 2
      },
      {
        "type": "note_on",
        "time": 29,
        "note": 35,
        "velocity": 0,
        "channel": 2
      },
      {
        "type": "note_on",
        "time": 1,
        "note": 28,
        "velocity": 90,
        "channel": 2
      },
      {
        "type": "note_on",
        "time": 0,
        "note": 40,
        "velocity": 90,
        "channel": 2
      },
      {
        "type": "note_on",
        "time": 59,
        "note": 28,
        "velocity": 0,
        "channel": 2
      },
      {
        "type": "note_on",
        "time": 0,
        "note": 40,
        "velocity": 0,
        "channel": 2
      },
      {
        "type": "note_on",
        "time": 91,
        "note": 35,
        "velocity": 90,
        "channel": 2
      },
      {
        "type": "note_on",
        "time": 29,
        "note": 35,
        "velocity": 0,
        "channel": 2
      },
      {
        "type": "note_on",
        "time": 1,
        "note": 40,
        "velocity": 90,
        "channel": 2
      },
      {
        "type": "note_on",
        "time": 59,
        "note": 40,
        "velocity": 0,
        "channel": 2
      },
      {
        "type": "note_on",
        "time": 31,
        "note": 35,
        "velocity": 90,
        "channel": 2
      },
      {
        "type": "note_on",
        "time": 29,
        "note": 35,
        "velocity": 0,
        "channel": 2
      },
      {
        "type": "note_on",
        "time": 1,
        "note": 40,
        "velocity": 90,
        "channel": 2
      },
      {
        "type": "note_on",
        "time": 59,
        "note": 40,
        "velocity": 0,
        "channel": 2
      },
      {
        "type": "note_on",
        "time": 31,
        "note": 43,
        "velocity": 90,
        "channel": 2
      },
      {
        "type": "note_on",
        "time": 29,
        "note": 43,
        "velocity": 0,
        "channel": 2
      },
      {
        "type": "note_on",
        "time": 1,
        "note": 42,
        "velocity": 90,
        "channel": 2
      },
      {
        "type": "note_on",
        "time": 239,
        "note": 42,
        "velocity": 0,
        "channel": 2
      },
      {
        "type": "note_on",
        "time": 241,
        "note": 35,
        "velocity": 90,
        "channel": 2
      },
      {
        "type": "note_on",
        "time": 239,
        "note": 35,
        "velocity": 0,
        "channel": 2
      },
      {
        "type": "note_on",
        "time": 241,
        "note": 30,
        "velocity": 90,
        "channel": 2
      },
      {
        "type": "note_on",
        "time": 239,
        "note": 30,
        "velocity": 0,
        "channel": 2
      },
      {
        "type": "note_on",
        "time": 241,
        "note": 33,
        "velocity": 90,
        "channel": 2
      },
      {
        "type": "note_on",
        "time": 239,
        "note": 33,
        "velocity": 0,
        "channel": 2
      },
      {
        "type": "note_on",
        "time": 241,
        "note": 28,
        "velocity": 90,
        "channel": 2
      },
      {
        "type": "note_on",
        "time": 239,
        "note": 28,
        "velocity": 0,
        "channel": 2
      },
      {
        "type": "note_on",
        "time": 241,
        "note": 31,
        "velocity": 90,
        "channel": 2
      },
      {
        "type": "note_on",
        "time": 239,
        "note": 31,
        "velocity": 0,
        "channel": 2
      },
      {
        "type": "note_on",
        "time": 241,
        "note": 38,
        "velocity": 90,
        "channel": 2
      },
      {
        "type": "note_on",
        "time": 239,
        "note": 38,
        "velocity": 0,
        "channel": 2
      },
      {
        "type": "note_on",
        "time": 241,
        "note": 28,
        "velocity": 90,
        "channel": 2
      },
      {
        "type": "note_on",
        "time": 239,
        "note": 28,
        "velocity": 0,
        "channel": 2
      },
      {
        "type": "note_on",
        "time": 241,
        "note": 30,
        "velocity": 90,
        "channel": 2
      },
      {
        "type": "note_on",
        "time": 239,
        "note": 30,
        "velocity": 0,
        "channel": 2
      },
      {
        "type": "note_on",
        "time": 241,
        "note": 35,
        "velocity": 90,
        "channel": 2
      },
      {
        "type": "note_on",
        "time": 29,
        "note": 35,
        "velocity": 0,
        "channel": 2
      },
      {
        "type": "note_on",
        "time": 1,
        "note": 35,
        "velocity": 90,
        "channel": 2
      },
      {
        "type": "note_on",
        "time": 29,
        "note": 35,
        "velocity": 0,
        "channel": 2
      },
      {
        "type": "note_on",
        "time": 1,
        "note": 30,
        "velocity": 90,
        "channel": 2
      },
      {
        "type": "note_on",
        "time": 59,
        "note": 30,
        "velocity": 0,
        "channel": 2
      },
      {
        "type": "note_on",
        "time": 1,
        "note": 35,
        "velocity": 90,
        "channel": 2
      },
      {
        "type": "note_on",
        "time": 59,
        "note": 35,
        "velocity": 0,
        "channel": 2
      },
      {
        "type": "note_on",
        "time": 31,
        "note": 30,
        "velocity": 90,
        "channel": 2
      },
      {
        "type": "note_on",
        "time": 29,
        "note": 30,
        "velocity": 0,
        "channel": 2
      },
      {
        "type": "note_on",
        "time": 1,
        "note": 35,
        "velocity": 90,
        "channel": 2
      },
      {
        "type": "note_on",
        "time": 29,
        "note": 35,
        "velocity": 0,
        "channel": 2
      },
      {
        "type": "note_on",
        "time": 1,
        "note": 35,
        "velocity": 90,
        "channel": 2
      },
      {
        "type": "note_on",
        "time": 29,
        "note": 35,
        "velocity": 0,
        "channel": 2
      },
      {
        "type": "note_on",
        "time": 1,
        "note": 30,
        "velocity": 90,
        "channel": 2
      },
      {
        "type": "note_on",
        "time": 59,
        "note": 30,
        "velocity": 0,
        "channel": 2
      },
      {
        "type": "note_on",
        "time": 121,
        "note": 30,
        "velocity": 90,
        "channel": 2
      },
      {
        "type": "note_on",
        "time": 29,
        "note": 30,
        "velocity": 0,
        "channel": 2
      },
      {
        "type": "note_on",
        "time": 1,
        "note": 30,
        "velocity": 90,
        "channel": 2
      },
      {
        "type": "note_on",
        "time": 29,
        "note": 30,
        "velocity": 0,
        "channel": 2
      },
      {
        "type": "note_on",
        "time": 1,
        "note": 34,
        "velocity": 90,
        "channel": 2
      },
      {
        "type": "note_on",
        "time": 59,
        "note": 34,
        "velocity": 0,
        "channel": 2
      },
      {
        "type": "note_on",
        "time": 1,
        "note": 37,
        "velocity": 90,
        "channel": 2
      },
      {
        "type": "note_on",
        "time": 59,
        "note": 37,
        "velocity": 0,
        "channel": 2
      },
      {
        "type": "note_on",
        "time": 31,
        "note": 34,
        "velocity": 90,
        "channel": 2
      },
      {
        "type": "note_on",
        "time": 29,
        "note": 34,
        "velocity": 0,
        "channel": 2
      },
      {
        "type": "note_on",
        "time": 1,
        "note": 42,
        "velocity": 90,
        "channel": 2
      },
      {
        "type": "note_on",
        "time": 30,
        "note": 42,
        "velocity": 90,
        "channel": 2
      },
      {
        "type": "note_on",
        "time": 29,
        "note": 42,
        "velocity": 0,
        "channel": 2
      },
      {
        "type": "note_on",
        "time": 0,
        "note": 42,
        "velocity": 0,
        "channel": 2
      },
      {
        "type": "note_on",
        "time": 1,
        "note": 34,
        "velocity": 90,
        "channel": 2
      },
      {
        "type": "note_on",
        "time": 59,
        "note": 34,
        "velocity": 0,
        "channel": 2
      },
      {
        "type": "note_on",
        "time": 121,
        "note": 33,
        "velocity": 90,
        "channel": 2
      },
      {
        "type": "note_on",
        "time": 29,
        "note": 33,
        "velocity": 0,
        "channel": 2
      },
      {
        "type": "note_on",
        "time": 1,
        "note": 33,
        "velocity": 90,
        "channel": 2
      },
      {
        "type": "note_on",
        "time": 29,
        "note": 33,
        "velocity": 0,
        "channel": 2
      },
      {
        "type": "note_on",
        "time": 1,
        "note": 40,
        "velocity": 90,
        "channel": 2
      },
      {
        "type": "note_on",
        "time": 59,
        "note": 40,
        "velocity": 0,
        "channel": 2
      },
      {
        "type": "note_on",
        "time": 1,
        "note": 45,
        "velocity": 90,
        "channel": 2
      },
      {
        "type": "note_on",
        "time": 59,
        "note": 45,
        "velocity": 0,
        "channel": 2
      },
      {
        "type": "note_on",
        "time": 31,
        "note": 40,
        "velocity": 90,
        "channel": 2
      },
      {
        "type": "note_on",
        "time": 29,
        "note": 40,
        "velocity": 0,
        "channel": 2
      },
      {
        "type": "note_on",
        "time": 1,
        "note": 45,
        "velocity": 90,
        "channel": 2
      },
      {
        "type": "note_on",
        "time": 30,
        "note": 45,
        "velocity": 90,
        "channel": 2
      },
      {
        "type": "note_on",
        "time": 29,
        "note": 45,
        "velocity": 0,
        "channel": 2
      },
      {
        "type": "note_on",
        "time": 0,
        "note": 45,
        "velocity": 0,
        "channel": 2
      },
      {
        "type": "note_on",
        "time": 1,
        "note": 40,
        "velocity": 90,
        "channel": 2
      },
      {
        "type": "note_on",
        "time": 59,
        "note": 40,
        "velocity": 0,
        "channel": 2
      },
      {
        "type": "note_on",
        "time": 121,
        "note": 28,
        "velocity": 90,
        "channel": 2
      },
      {
        "type": "note_on",
        "time": 29,
        "note": 28,
        "velocity": 0,
        "channel": 2
      },
      {
        "type": "note_on",
        "time": 1,
        "note": 28,
        "velocity": 90,
        "channel": 2
      },
      {
        "type": "note_on",
        "time": 29,
        "note": 28,
        "velocity": 0,
        "channel": 2
      },
      {
        "type": "note_on",
        "time": 1,
        "note": 35,
        "velocity": 90,
        "channel": 2
      },
      {
        "type": "note_on",
        "time": 59,
        "note": 35,
        "velocity": 0,
        "channel": 2
      },
      {
        "type": "note_on",
        "time": 1,
        "note": 40,
        "velocity": 90,
        "channel": 2
      },
      {
        "type": "note_on",
        "time": 59,
        "note": 40,
        "velocity": 0,
        "channel": 2
      },
      {
        "type": "note_on",
        "time": 31,
        "note": 35,
        "velocity": 90,
        "channel": 2
      },
      {
        "type": "note_on",
        "time": 29,
        "note": 35,
        "velocity": 0,
        "channel": 2
      },
      {
        "type": "note_on",
        "time": 1,
        "note": 40,
        "velocity": 90,
        "channel": 2
      },
      {
        "type": "note_on",
        "time": 30,
        "note": 40,
        "velocity": 90,
        "channel": 2
      },
      {
        "type": "note_on",
        "time": 29,
        "note": 40,
        "velocity": 0,
        "channel": 2
      },
      {
        "type": "note_on",
        "time": 1,
        "note": 35,
        "velocity": 90,
        "channel": 2
      },
      {
        "type": "note_on",
        "time": 59,
        "note": 35,
        "velocity": 0,
        "channel": 2
      },
      {
        "type": "note_on",
        "time": 120,
        "note": 40,
        "velocity": 0,
        "channel": 2
      },
      {
        "type": "note_on",
        "time": 1,
        "note": 31,
        "velocity": 90,
        "channel": 2
      },
      {
        "type": "note_on",
        "time": 29,
        "note": 31,
        "velocity": 0,
        "channel": 2
      },
      {
        "type": "note_on",
        "time": 1,
        "note": 31,
        "velocity": 90,
        "channel": 2
      },
      {
        "type": "note_on",
        "time": 29,
        "note": 31,
        "velocity": 0,
        "channel": 2
      },
      {
        "type": "note_on",
        "time": 1,
        "note": 38,
        "velocity": 90,
        "channel": 2
      },
      {
        "type": "note_on",
        "time": 59,
        "note": 38,
        "velocity": 0,
        "channel": 2
      },
      {
        "type": "note_on",
        "time": 1,
        "note": 43,
        "velocity": 90,
        "channel": 2
      },
      {
        "type": "note_on",
        "time": 59,
        "note": 43,
        "velocity": 0,
        "channel": 2
      },
      {
        "type": "note_on",
        "time": 31,
        "note": 38,
        "velocity": 90,
        "channel": 2
      },
      {
        "type": "note_on",
        "time": 29,
        "note": 38,
        "velocity": 0,
        "channel": 2
      },
      {
        "type": "note_on",
        "time": 1,
        "note": 43,
        "velocity": 90,
        "channel": 2
      },
      {
        "type": "note_on",
        "time": 29,
        "note": 43,
        "velocity": 0,
        "channel": 2
      },
      {
        "type": "note_on",
        "time": 1,
        "note": 43,
        "velocity": 90,
        "channel": 2
      },
      {
        "type": "note_on",
        "time": 29,
        "note": 43,
        "velocity": 0,
        "channel": 2
      },
      {
        "type": "note_on",
        "time": 1,
        "note": 38,
        "velocity": 90,
        "channel": 2
      },
      {
        "type": "note_on",
        "time": 29,
        "note": 38,
        "velocity": 0,
        "channel": 2
      },
      {
        "type": "note_on",
        "time": 151,
        "note": 30,
        "velocity": 90,
        "channel": 2
      },
      {
        "type": "note_on",
        "time": 29,
        "note": 30,
        "velocity": 0,
        "channel": 2
      },
      {
        "type": "note_on",
        "time": 1,
        "note": 33,
        "velocity": 90,
        "channel": 2
      },
      {
        "type": "note_on",
        "time": 29,
        "note": 33,
        "velocity": 0,
        "channel": 2
      },
      {
        "type": "note_on",
        "time": 1,
        "note": 38,
        "velocity": 90,
        "channel": 2
      },
      {
        "type": "note_on",
        "time": 59,
        "note": 38,
        "velocity": 0,
        "channel": 2
      },
      {
        "type": "note_on",
        "time": 1,
        "note": 42,
        "velocity": 90,
        "channel": 2
      },
      {
        "type": "note_on",
        "time": 59,
        "note": 42,
        "velocity": 0,
        "channel": 2
      },
      {
        "type": "note_on",
        "time": 31,
        "note": 38,
        "velocity": 90,
        "channel": 2
      },
      {
        "type": "note_on",
        "time": 29,
        "note": 38,
        "velocity": 0,
        "channel": 2
      },
      {
        "type": "note_on",
        "time": 1,
        "note": 42,
        "velocity": 90,
        "channel": 2
      },
      {
        "type": "note_on",
        "time": 29,
        "note": 42,
        "velocity": 0,
        "channel": 2
      },
      {
        "type": "note_on",
        "time": 1,
        "note": 42,
        "velocity": 90,
        "channel": 2
      },
      {
        "type": "note_on",
        "time": 29,
        "note": 42,
        "velocity": 0,
        "channel": 2
      },
      {
        "type": "note_on",
        "time": 1,
        "note": 38,
        "velocity": 90,
        "channel": 2
      },
      {
        "type": "note_on",
        "time": 59,
        "note": 38,
        "velocity": 0,
        "channel": 2
      },
      {
        "type": "note_on",
        "time": 121,
        "note": 28,
        "velocity": 90,
        "channel": 2
      },
      {
        "type": "note_on",
        "time": 29,
        "note": 28,
        "velocity": 0,
        "channel": 2
      },
      {
        "type": "note_on",
        "time": 1,
        "note": 31,
        "velocity": 90,
        "channel": 2
      },
      {
        "type": "note_on",
        "time": 29,
        "note": 31,
        "velocity": 0,
        "channel": 2
      },
      {
        "type": "note_on",
        "time": 1,
        "note": 35,
        "velocity": 90,
        "channel": 2
      },
      {
        "type": "note_on",
        "time": 59,
        "note": 35,
        "velocity": 0,
        "channel": 2
      },
      {
        "type": "note_on",
        "time": 1,
        "note": 40,
        "velocity": 90,
        "channel": 2
      },
      {
        "type": "note_on",
        "time": 59,
        "note": 40,
        "velocity": 0,
        "channel": 2
      },
      {
        "type": "note_on",
        "time": 31,
        "note": 35,
        "velocity": 90,
        "channel": 2
      },
      {
        "type": "note_on",
        "time": 29,
        "note": 35,
        "velocity": 0,
        "channel": 2
      },
      {
        "type": "note_on",
        "time": 1,
        "note": 40,
        "velocity": 90,
        "channel": 2
      },
      {
        "type": "note_on",
        "time": 29,
        "note": 40,
        "velocity": 0,
        "channel": 2
      },
      {
        "type": "note_on",
        "time": 1,
        "note": 40,
        "velocity": 90,
        "channel": 2
      },
      {
        "type": "note_on",
        "time": 29,
        "note": 40,
        "velocity": 0,
        "channel": 2
      },
      {
        "type": "note_on",
        "time": 1,
        "note": 35,
        "velocity": 90,
        "channel": 2
      },
      {
        "type": "note_on",
        "time": 59,
        "note": 35,
        "velocity": 0,
        "channel": 2
      },
      {
        "type": "note_on",
        "time": 121,
        "note": 30,
        "velocity": 90,
        "channel": 2
      },
      {
        "type": "note_on",
        "time": 29,
        "note": 30,
        "velocity": 0,
        "channel": 2
      },
      {
        "type": "note_on",
        "time": 1,
        "note": 33,
        "velocity": 90,
        "channel": 2
      },
      {
        "type": "note_on",
        "time": 29,
        "note": 33,
        "velocity": 0,
        "channel": 2
      },
      {
        "type": "note_on",
        "time": 1,
        "note": 37,
        "velocity": 90,
        "channel": 2
      },
      {
        "type": "note_on",
        "time": 29,
        "note": 37,
        "velocity": 0,
        "channel": 2
      },
      {
        "type": "note_on",
        "time": 1,
        "note": 42,
        "velocity": 90,
        "channel": 2
      },
      {
        "type": "note_on",
        "time": 119,
        "note": 42,
        "velocity": 0,
        "channel": 2
      },
      {
        "type": "note_on",
        "time": 1,
        "note": 37,
        "velocity": 90,
        "channel": 2
      },
      {
        "type": "note_on",
        "time": 29,
        "note": 37,
        "velocity": 0,
        "channel": 2
      },
      {
        "type": "note_on",
        "time": 1,
        "note": 42,
        "velocity": 90,
        "channel": 2
      },
      {
        "type": "note_on",
        "time": 59,
        "note": 42,
        "velocity": 0,
        "channel": 2
      },
      {
        "type": "note_on",
        "time": 181,
        "note": 35,
        "velocity": 90,
        "channel": 2
      },
      {
        "type": "note_on",
        "time": 29,
        "note": 35,
        "velocity": 0,
        "channel": 2
      },
      {
        "type": "note_on",
        "time": 1,
        "note": 35,
        "velocity": 90,
        "channel": 2
      },
      {
        "type": "note_on",
        "time": 29,
        "note": 35,
        "velocity": 0,
        "channel": 2
      },
      {
        "type": "note_on",
        "time": 1,
        "note": 30,
        "velocity": 90,
        "channel": 2
      },
      {
        "type": "note_on",
        "time": 59,
        "note": 30,
        "velocity": 0,
        "channel": 2
      },
      {
        "type": "note_on",
        "time": 1,
        "note": 35,
        "velocity": 90,
        "channel": 2
      },
      {
        "type": "note_on",
        "time": 59,
        "note": 35,
        "velocity": 0,
        "channel": 2
      },
      {
        "type": "note_on",
        "time": 31,
        "note": 30,
        "velocity": 90,
        "channel": 2
      },
      {
        "type": "note_on",
        "time": 29,
        "note": 30,
        "velocity": 0,
        "channel": 2
      },
      {
        "type": "note_on",
        "time": 1,
        "note": 35,
        "velocity": 90,
        "channel": 2
      },
      {
        "type": "note_on",
        "time": 29,
        "note": 35,
        "velocity": 0,
        "channel": 2
      },
      {
        "type": "note_on",
        "time": 1,
        "note": 35,
        "velocity": 90,
        "channel": 2
      },
      {
        "type": "note_on",
        "time": 29,
        "note": 35,
        "velocity": 0,
        "channel": 2
      },
      {
        "type": "note_on",
        "time": 1,
        "note": 30,
        "velocity": 90,
        "channel": 2
      },
      {
        "type": "note_on",
        "time": 59,
        "note": 30,
        "velocity": 0,
        "channel": 2
      },
      {
        "type": "note_on",
        "time": 121,
        "note": 30,
        "velocity": 90,
        "channel": 2
      },
      {
        "type": "note_on",
        "time": 29,
        "note": 30,
        "velocity": 0,
        "channel": 2
      },
      {
        "type": "note_on",
        "time": 1,
        "note": 30,
        "velocity": 90,
        "channel": 2
      },
      {
        "type": "note_on",
        "time": 29,
        "note": 30,
        "velocity": 0,
        "channel": 2
      },
      {
        "type": "note_on",
        "time": 1,
        "note": 34,
        "velocity": 90,
        "channel": 2
      },
      {
        "type": "note_on",
        "time": 59,
        "note": 34,
        "velocity": 0,
        "channel": 2
      },
      {
        "type": "note_on",
        "time": 1,
        "note": 37,
        "velocity": 90,
        "channel": 2
      },
      {
        "type": "note_on",
        "time": 59,
        "note": 37,
        "velocity": 0,
        "channel": 2
      },
      {
        "type": "note_on",
        "time": 31,
        "note": 34,
        "velocity": 90,
        "channel": 2
      },
      {
        "type": "note_on",
        "time": 29,
        "note": 34,
        "velocity": 0,
        "channel": 2
      },
      {
        "type": "note_on",
        "time": 1,
        "note": 42,
        "velocity": 90,
        "channel": 2
      },
      {
        "type": "note_on",
        "time": 30,
        "note": 42,
        "velocity": 90,
        "channel": 2
      },
      {
        "type": "note_on",
        "time": 29,
        "note": 42,
        "velocity": 0,
        "channel": 2
      },
      {
        "type": "note_on",
        "time": 0,
        "note": 42,
        "velocity": 0,
        "channel": 2
      },
      {
        "type": "note_on",
        "time": 1,
        "note": 34,
        "velocity": 90,
        "channel": 2
      },
      {
        "type": "note_on",
        "time": 59,
        "note": 34,
        "velocity": 0,
        "channel": 2
      },
      {
        "type": "note_on",
        "time": 121,
        "note": 33,
        "velocity": 90,
        "channel": 2
      },
      {
        "type": "note_on",
        "time": 29,
        "note": 33,
        "velocity": 0,
        "channel": 2
      },
      {
        "type": "note_on",
        "time": 1,
        "note": 33,
        "velocity": 90,
        "channel": 2
      },
      {
        "type": "note_on",
        "time": 29,
        "note": 33,
        "velocity": 0,
        "channel": 2
      },
      {
        "type": "note_on",
        "time": 1,
        "note": 40,
        "velocity": 90,
        "channel": 2
      },
      {
        "type": "note_on",
        "time": 59,
        "note": 40,
        "velocity": 0,
        "channel": 2
      },
      {
        "type": "note_on",
        "time": 1,
        "note": 45,
        "velocity": 90,
        "channel": 2
      },
      {
        "type": "note_on",
        "time": 59,
        "note": 45,
        "velocity": 0,
        "channel": 2
      },
      {
        "type": "note_on",
        "time": 31,
        "note": 40,
        "velocity": 90,
        "channel": 2
      },
      {
        "type": "note_on",
        "time": 29,
        "note": 40,
        "velocity": 0,
        "channel": 2
      },
      {
        "type": "note_on",
        "time": 1,
        "note": 45,
        "velocity": 90,
        "channel": 2
      },
      {
        "type": "note_on",
        "time": 30,
        "note": 45,
        "velocity": 90,
        "channel": 2
      },
      {
        "type": "note_on",
        "time": 29,
        "note": 45,
        "velocity": 0,
        "channel": 2
      },
      {
        "type": "note_on",
        "time": 0,
        "note": 45,
        "velocity": 0,
        "channel": 2
      },
      {
        "type": "note_on",
        "time": 1,
        "note": 40,
        "velocity": 90,
        "channel": 2
      },
      {
        "type": "note_on",
        "time": 59,
        "note": 40,
        "velocity": 0,
        "channel": 2
      },
      {
        "type": "note_on",
        "time": 121,
        "note": 28,
        "velocity": 90,
        "channel": 2
      },
      {
        "type": "note_on",
        "time": 29,
        "note": 28,
        "velocity": 0,
        "channel": 2
      },
      {
        "type": "note_on",
        "time": 1,
        "note": 28,
        "velocity": 90,
        "channel": 2
      },
      {
        "type": "note_on",
        "time": 29,
        "note": 28,
        "velocity": 0,
        "channel": 2
      },
      {
        "type": "note_on",
        "time": 1,
        "note": 35,
        "velocity": 90,
        "channel": 2
      },
      {
        "type": "note_on",
        "time": 59,
        "note": 35,
        "velocity": 0,
        "channel": 2
      },
      {
        "type": "note_on",
        "time": 1,
        "note": 40,
        "velocity": 90,
        "channel": 2
      },
      {
        "type": "note_on",
        "time": 59,
        "note": 40,
        "velocity": 0,
        "channel": 2
      },
      {
        "type": "note_on",
        "time": 31,
        "note": 35,
        "velocity": 90,
        "channel": 2
      },
      {
        "type": "note_on",
        "time": 29,
        "note": 35,
        "velocity": 0,
        "channel": 2
      },
      {
        "type": "note_on",
        "time": 1,
        "note": 40,
        "velocity": 90,
        "channel": 2
      },
      {
        "type": "note_on",
        "time": 30,
        "note": 40,
        "velocity": 90,
        "channel": 2
      },
      {
        "type": "note_on",
        "time": 29,
        "note": 40,
        "velocity": 0,
        "channel": 2
      },
      {
        "type": "note_on",
        "time": 1,
        "note": 35,
        "velocity": 90,
        "channel": 2
      },
      {
        "type": "note_on",
        "time": 59,
        "note": 35,
        "velocity": 0,
        "channel": 2
      },
      {
        "type": "note_on",
        "time": 120,
        "note": 40,
        "velocity": 0,
        "channel": 2
      },
      {
        "type": "note_on",
        "time": 1,
        "note": 31,
        "velocity": 90,
        "channel": 2
      },
      {
        "type": "note_on",
        "time": 29,
        "note": 31,
        "velocity": 0,
        "channel": 2
      },
      {
        "type": "note_on",
        "time": 1,
        "note": 31,
        "velocity": 90,
        "channel": 2
      },
      {
        "type": "note_on",
        "time": 29,
        "note": 31,
        "velocity": 0,
        "channel": 2
      },
      {
        "type": "note_on",
        "time": 1,
        "note": 38,
        "velocity": 90,
        "channel": 2
      },
      {
        "type": "note_on",
        "time": 59,
        "note": 38,
        "velocity": 0,
        "channel": 2
      },
      {
        "type": "note_on",
        "time": 1,
        "note": 43,
        "velocity": 90,
        "channel": 2
      },
      {
        "type": "note_on",
        "time": 59,
        "note": 43,
        "velocity": 0,
        "channel": 2
      },
      {
        "type": "note_on",
        "time": 31,
        "note": 38,
        "velocity": 90,
        "channel": 2
      },
      {
        "type": "note_on",
        "time": 29,
        "note": 38,
        "velocity": 0,
        "channel": 2
      },
      {
        "type": "note_on",
        "time": 1,
        "note": 43,
        "velocity": 90,
        "channel": 2
      },
      {
        "type": "note_on",
        "time": 29,
        "note": 43,
        "velocity": 0,
        "channel": 2
      },
      {
        "type": "note_on",
        "time": 1,
        "note": 43,
        "velocity": 90,
        "channel": 2
      },
      {
        "type": "note_on",
        "time": 29,
        "note": 43,
        "velocity": 0,
        "channel": 2
      },
      {
        "type": "note_on",
        "time": 1,
        "note": 38,
        "velocity": 90,
        "channel": 2
      },
      {
        "type": "note_on",
        "time": 59,
        "note": 38,
        "velocity": 0,
        "channel": 2
      },
      {
        "type": "note_on",
        "time": 121,
        "note": 30,
        "velocity": 90,
        "channel": 2
      },
      {
        "type": "note_on",
        "time": 29,
        "note": 30,
        "velocity": 0,
        "channel": 2
      },
      {
        "type": "note_on",
        "time": 1,
        "note": 33,
        "velocity": 90,
        "channel": 2
      },
      {
        "type": "note_on",
        "time": 29,
        "note": 33,
        "velocity": 0,
        "channel": 2
      },
      {
        "type": "note_on",
        "time": 1,
        "note": 38,
        "velocity": 90,
        "channel": 2
      },
      {
        "type": "note_on",
        "time": 59,
        "note": 38,
        "velocity": 0,
        "channel": 2
      },
      {
        "type": "note_on",
        "time": 1,
        "note": 42,
        "velocity": 90,
        "channel": 2
      },
      {
        "type": "note_on",
        "time": 59,
        "note": 42,
        "velocity": 0,
        "channel": 2
      },
      {
        "type": "note_on",
        "time": 31,
        "note": 38,
        "velocity": 90,
        "channel": 2
      },
      {
        "type": "note_on",
        "time": 29,
        "note": 38,
        "velocity": 0,
        "channel": 2
      },
      {
        "type": "note_on",
        "time": 1,
        "note": 42,
        "velocity": 90,
        "channel": 2
      },
      {
        "type": "note_on",
        "time": 29,
        "note": 42,
        "velocity": 0,
        "channel": 2
      },
      {
        "type": "note_on",
        "time": 1,
        "note": 42,
        "velocity": 90,
        "channel": 2
      },
      {
        "type": "note_on",
        "time": 29,
        "note": 42,
        "velocity": 0,
        "channel": 2
      },
      {
        "type": "note_on",
        "time": 1,
        "note": 38,
        "velocity": 90,
        "channel": 2
      },
      {
        "type": "note_on",
        "time": 59,
        "note": 38,
        "velocity": 0,
        "channel": 2
      },
      {
        "type": "note_on",
        "time": 121,
        "note": 28,
        "velocity": 90,
        "channel": 2
      },
      {
        "type": "note_on",
        "time": 29,
        "note": 28,
        "velocity": 0,
        "channel": 2
      },
      {
        "type": "note_on",
        "time": 1,
        "note": 31,
        "velocity": 90,
        "channel": 2
      },
      {
        "type": "note_on",
        "time": 29,
        "note": 31,
        "velocity": 0,
        "channel": 2
      },
      {
        "type": "note_on",
        "time": 1,
        "note": 35,
        "velocity": 90,
        "channel": 2
      },
      {
        "type": "note_on",
        "time": 59,
        "note": 35,
        "velocity": 0,
        "channel": 2
      },
      {
        "type": "note_on",
        "time": 1,
        "note": 40,
        "velocity": 90,
        "channel": 2
      },
      {
        "type": "note_on",
        "time": 59,
        "note": 40,
        "velocity": 0,
        "channel": 2
      },
      {
        "type": "note_on",
        "time": 31,
        "note": 35,
        "velocity": 90,
        "channel": 2
      },
      {
        "type": "note_on",
        "time": 29,
        "note": 35,
        "velocity": 0,
        "channel": 2
      },
      {
        "type": "note_on",
        "time": 1,
        "note": 40,
        "velocity": 90,
        "channel": 2
      },
      {
        "type": "note_on",
        "time": 29,
        "note": 40,
        "velocity": 0,
        "channel": 2
      },
      {
        "type": "note_on",
        "time": 1,
        "note": 40,
        "velocity": 90,
        "channel": 2
      },
      {
        "type": "note_on",
        "time": 29,
        "note": 40,
        "velocity": 0,
        "channel": 2
      },
      {
        "type": "note_on",
        "time": 1,
        "note": 35,
        "velocity": 90,
        "channel": 2
      },
      {
        "type": "note_on",
        "time": 59,
        "note": 35,
        "velocity": 0,
        "channel": 2
      },
      {
        "type": "note_on",
        "time": 121,
        "note": 30,
        "velocity": 90,
        "channel": 2
      },
      {
        "type": "note_on",
        "time": 29,
        "note": 30,
        "velocity": 0,
        "channel": 2
      },
      {
        "type": "note_on",
        "time": 1,
        "note": 33,
        "velocity": 90,
        "channel": 2
      },
      {
        "type": "note_on",
        "time": 29,
        "note": 33,
        "velocity": 0,
        "channel": 2
      },
      {
        "type": "note_on",
        "time": 1,
        "note": 37,
        "velocity": 90,
        "channel": 2
      },
      {
        "type": "note_on",
        "time": 29,
        "note": 37,
        "velocity": 0,
        "channel": 2
      },
      {
        "type": "note_on",
        "time": 1,
        "note": 42,
        "velocity": 90,
        "channel": 2
      },
      {
        "type": "note_on",
        "time": 119,
        "note": 42,
        "velocity": 0,
        "channel": 2
      },
      {
        "type": "note_on",
        "time": 1,
        "note": 37,
        "velocity": 90,
        "channel": 2
      },
      {
        "type": "note_on",
        "time": 29,
        "note": 37,
        "velocity": 0,
        "channel": 2
      },
      {
        "type": "note_on",
        "time": 1,
        "note": 42,
        "velocity": 90,
        "channel": 2
      },
      {
        "type": "note_on",
        "time": 59,
        "note": 42,
        "velocity": 0,
        "channel": 2
      },
      {
        "type": "note_on",
        "time": 31,
        "note": 37,
        "velocity": 90,
        "channel": 2
      },
      {
        "type": "note_on",
        "time": 29,
        "note": 37,
        "velocity": 0,
        "channel": 2
      },
      {
        "type": "note_on",
        "time": 1,
        "note": 42,
        "velocity": 90,
        "channel": 2
      },
      {
        "type": "note_on",
        "time": 59,
        "note": 42,
        "velocity": 0,
        "channel": 2
      },
      {
        "type": "note_on",
        "time": 61,
        "note": 35,
        "velocity": 90,
        "channel": 2
      },
      {
        "type": "note_on",
        "time": 29,
        "note": 35,
        "velocity": 0,
        "channel": 2
      },
      {
        "type": "note_on",
        "time": 1,
        "note": 35,
        "velocity": 90,
        "channel": 2
      },
      {
        "type": "note_on",
        "time": 29,
        "note": 35,
        "velocity": 0,
        "channel": 2
      },
      {
        "type": "note_on",
        "time": 1,
        "note": 30,
        "velocity": 90,
        "channel": 2
      },
      {
        "type": "note_on",
        "time": 59,
        "note": 30,
        "velocity": 0,
        "channel": 2
      },
      {
        "type": "note_on",
        "time": 1,
        "note": 35,
        "velocity": 90,
        "channel": 2
      },
      {
        "type": "note_on",
        "time": 59,
        "note": 35,
        "velocity": 0,
        "channel": 2
      },
      {
        "type": "note_on",
        "time": 31,
        "note": 30,
        "velocity": 90,
        "channel": 2
      },
      {
        "type": "note_on",
        "time": 29,
        "note": 30,
        "velocity": 0,
        "channel": 2
      },
      {
        "type": "note_on",
        "time": 1,
        "note": 35,
        "velocity": 90,
        "channel": 2
      },
      {
        "type": "note_on",
        "time": 29,
        "note": 35,
        "velocity": 0,
        "channel": 2
      },
      {
        "type": "note_on",
        "time": 1,
        "note": 35,
        "velocity": 90,
        "channel": 2
      },
      {
        "type": "note_on",
        "time": 29,
        "note": 35,
        "velocity": 0,
        "channel": 2
      },
      {
        "type": "note_on",
        "time": 1,
        "note": 30,
        "velocity": 90,
        "channel": 2
      },
      {
        "type": "note_on",
        "time": 59,
        "note": 30,
        "velocity": 0,
        "channel": 2
      },
      {
        "type": "note_on",
        "time": 121,
        "note": 30,
        "velocity": 90,
        "channel": 2
      },
      {
        "type": "note_on",
        "time": 29,
        "note": 30,
        "velocity": 0,
        "channel": 2
      },
      {
        "type": "note_on",
        "time": 1,
        "note": 30,
        "velocity": 90,
        "channel": 2
      },
      {
        "type": "note_on",
        "time": 29,
        "note": 30,
        "velocity": 0,
        "channel": 2
      },
      {
        "type": "note_on",
        "time": 1,
        "note": 34,
        "velocity": 90,
        "channel": 2
      },
      {
        "type": "note_on",
        "time": 59,
        "note": 34,
        "velocity": 0,
        "channel": 2
      },
      {
        "type": "note_on",
        "time": 1,
        "note": 37,
        "velocity": 90,
        "channel": 2
      },
      {
        "type": "note_on",
        "time": 59,
        "note": 37,
        "velocity": 0,
        "channel": 2
      },
      {
        "type": "note_on",
        "time": 31,
        "note": 34,
        "velocity": 90,
        "channel": 2
      },
      {
        "type": "note_on",
        "time": 29,
        "note": 34,
        "velocity": 0,
        "channel": 2
      },
      {
        "type": "note_on",
        "time": 1,
        "note": 42,
        "velocity": 90,
        "channel": 2
      },
      {
        "type": "note_on",
        "time": 30,
        "note": 42,
        "velocity": 90,
        "channel": 2
      },
      {
        "type": "note_on",
        "time": 29,
        "note": 42,
        "velocity": 0,
        "channel": 2
      },
      {
        "type": "note_on",
        "time": 0,
        "note": 42,
        "velocity": 0,
        "channel": 2
      },
      {
        "type": "note_on",
        "time": 1,
        "note": 34,
        "velocity": 90,
        "channel": 2
      },
      {
        "type": "note_on",
        "time": 59,
        "note": 34,
        "velocity": 0,
        "channel": 2
      },
      {
        "type": "note_on",
        "time": 121,
        "note": 33,
        "velocity": 90,
        "channel": 2
      },
      {
        "type": "note_on",
        "time": 29,
        "note": 33,
        "velocity": 0,
        "channel": 2
      },
      {
        "type": "note_on",
        "time": 1,
        "note": 33,
        "velocity": 90,
        "channel": 2
      },
      {
        "type": "note_on",
        "time": 29,
        "note": 33,
        "velocity": 0,
        "channel": 2
      },
      {
        "type": "note_on",
        "time": 1,
        "note": 40,
        "velocity": 90,
        "channel": 2
      },
      {
        "type": "note_on",
        "time": 59,
        "note": 40,
        "velocity": 0,
        "channel": 2
      },
      {
        "type": "note_on",
        "time": 1,
        "note": 45,
        "velocity": 90,
        "channel": 2
      },
      {
        "type": "note_on",
        "time": 59,
        "note": 45,
        "velocity": 0,
        "channel": 2
      },
      {
        "type": "note_on",
        "time": 31,
        "note": 40,
        "velocity": 90,
        "channel": 2
      },
      {
        "type": "note_on",
        "time": 29,
        "note": 40,
        "velocity": 0,
        "channel": 2
      },
      {
        "type": "note_on",
        "time": 1,
        "note": 45,
        "velocity": 90,
        "channel": 2
      },
      {
        "type": "note_on",
        "time": 30,
        "note": 45,
        "velocity": 90,
        "channel": 2
      },
      {
        "type": "note_on",
        "time": 29,
        "note": 45,
        "velocity": 0,
        "channel": 2
      },
      {
        "type": "note_on",
        "time": 0,
        "note": 45,
        "velocity": 0,
        "channel": 2
      },
      {
        "type": "note_on",
        "time": 1,
        "note": 40,
        "velocity": 90,
        "channel": 2
      },
      {
        "type": "note_on",
        "time": 59,
        "note": 40,
        "velocity": 0,
        "channel": 2
      },
      {
        "type": "note_on",
        "time": 121,
        "note": 28,
        "velocity": 90,
        "channel": 2
      },
      {
        "type": "note_on",
        "time": 29,
        "note": 28,
        "velocity": 0,
        "channel": 2
      },
      {
        "type": "note_on",
        "time": 1,
        "note": 28,
        "velocity": 90,
        "channel": 2
      },
      {
        "type": "note_on",
        "time": 29,
        "note": 28,
        "velocity": 0,
        "channel": 2
      },
      {
        "type": "note_on",
        "time": 1,
        "note": 35,
        "velocity": 90,
        "channel": 2
      },
      {
        "type": "note_on",
        "time": 59,
        "note": 35,
        "velocity": 0,
        "channel": 2
      },
      {
        "type": "note_on",
        "time": 1,
        "note": 40,
        "velocity": 90,
        "channel": 2
      },
      {
        "type": "note_on",
        "time": 59,
        "note": 40,
        "velocity": 0,
        "channel": 2
      },
      {
        "type": "note_on",
        "time": 31,
        "note": 35,
        "velocity": 90,
        "channel": 2
      },
      {
        "type": "note_on",
        "time": 29,
        "note": 35,
        "velocity": 0,
        "channel": 2
      },
      {
        "type": "note_on",
        "time": 1,
        "note": 40,
        "velocity": 90,
        "channel": 2
      },
      {
        "type": "note_on",
        "time": 30,
        "note": 40,
        "velocity": 90,
        "channel": 2
      },
      {
        "type": "note_on",
        "time": 29,
        "note": 40,
        "velocity": 0,
        "channel": 2
      },
      {
        "type": "note_on",
        "time": 1,
        "note": 35,
        "velocity": 90,
        "channel": 2
      },
      {
        "type": "note_on",
        "time": 59,
        "note": 35,
        "velocity": 0,
        "channel": 2
      },
      {
        "type": "note_on",
        "time": 120,
        "note": 40,
        "velocity": 0,
        "channel": 2
      },
      {
        "type": "note_on",
        "time": 1,
        "note": 31,
        "velocity": 90,
        "channel": 2
      },
      {
        "type": "note_on",
        "time": 29,
        "note": 31,
        "velocity": 0,
        "channel": 2
      },
      {
        "type": "note_on",
        "time": 1,
        "note": 31,
        "velocity": 90,
        "channel": 2
      },
      {
        "type": "note_on",
        "time": 29,
        "note": 31,
        "velocity": 0,
        "channel": 2
      },
      {
        "type": "note_on",
        "time": 1,
        "note": 38,
        "velocity": 90,
        "channel": 2
      },
      {
        "type": "note_on",
        "time": 59,
        "note": 38,
        "velocity": 0,
        "channel": 2
      },
      {
        "type": "note_on",
        "time": 1,
        "note": 43,
        "velocity": 90,
        "channel": 2
      },
      {
        "type": "note_on",
        "time": 59,
        "note": 43,
        "velocity": 0,
        "channel": 2
      },
      {
        "type": "note_on",
        "time": 31,
        "note": 38,
        "velocity": 90,
        "channel": 2
      },
      {
        "type": "note_on",
        "time": 29,
        "note": 38,
        "velocity": 0,
        "channel": 2
      },
      {
        "type": "note_on",
        "time": 1,
        "note": 43,
        "velocity": 90,
        "channel": 2
      },
      {
        "type": "note_on",
        "time": 29,
        "note": 43,
        "velocity": 0,
        "channel": 2
      },
      {
        "type": "note_on",
        "time": 1,
        "note": 43,
        "velocity": 90,
        "channel": 2
      },
      {
        "type": "note_on",
        "time": 29,
        "note": 43,
        "velocity": 0,
        "channel": 2
      },
      {
        "type": "note_on",
        "time": 1,
        "note": 38,
        "velocity": 90,
        "channel": 2
      },
      {
        "type": "note_on",
        "time": 29,
        "note": 38,
        "velocity": 0,
        "channel": 2
      },
      {
        "type": "note_on",
        "time": 151,
        "note": 30,
        "velocity": 90,
        "channel": 2
      },
      {
        "type": "note_on",
        "time": 29,
        "note": 30,
        "velocity": 0,
        "channel": 2
      },
      {
        "type": "note_on",
        "time": 1,
        "note": 33,
        "velocity": 90,
        "channel": 2
      },
      {
        "type": "note_on",
        "time": 29,
        "note": 33,
        "velocity": 0,
        "channel": 2
      },
      {
        "type": "note_on",
        "time": 1,
        "note": 38,
        "velocity": 90,
        "channel": 2
      },
      {
        "type": "note_on",
        "time": 59,
        "note": 38,
        "velocity": 0,
        "channel": 2
      },
      {
        "type": "note_on",
        "time": 1,
        "note": 42,
        "velocity": 90,
        "channel": 2
      },
      {
        "type": "note_on",
        "time": 59,
        "note": 42,
        "velocity": 0,
        "channel": 2
      },
      {
        "type": "note_on",
        "time": 31,
        "note": 38,
        "velocity": 90,
        "channel": 2
      },
      {
        "type": "note_on",
        "time": 29,
        "note": 38,
        "velocity": 0,
        "channel": 2
      },
      {
        "type": "note_on",
        "time": 1,
        "note": 42,
        "velocity": 90,
        "channel": 2
      },
      {
        "type": "note_on",
        "time": 29,
        "note": 42,
        "velocity": 0,
        "channel": 2
      },
      {
        "type": "note_on",
        "time": 1,
        "note": 42,
        "velocity": 90,
        "channel": 2
      },
      {
        "type": "note_on",
        "time": 29,
        "note": 42,
        "velocity": 0,
        "channel": 2
      },
      {
        "type": "note_on",
        "time": 1,
        "note": 38,
        "velocity": 90,
        "channel": 2
      },
      {
        "type": "note_on",
        "time": 59,
        "note": 38,
        "velocity": 0,
        "channel": 2
      },
      {
        "type": "note_on",
        "time": 121,
        "note": 28,
        "velocity": 90,
        "channel": 2
      },
      {
        "type": "note_on",
        "time": 29,
        "note": 28,
        "velocity": 0,
        "channel": 2
      },
      {
        "type": "note_on",
        "time": 1,
        "note": 31,
        "velocity": 90,
        "channel": 2
      },
      {
        "type": "note_on",
        "time": 29,
        "note": 31,
        "velocity": 0,
        "channel": 2
      },
      {
        "type": "note_on",
        "time": 1,
        "note": 35,
        "velocity": 90,
        "channel": 2
      },
      {
        "type": "note_on",
        "time": 59,
        "note": 35,
        "velocity": 0,
        "channel": 2
      },
      {
        "type": "note_on",
        "time": 1,
        "note": 40,
        "velocity": 90,
        "channel": 2
      },
      {
        "type": "note_on",
        "time": 59,
        "note": 40,
        "velocity": 0,
        "channel": 2
      },
      {
        "type": "note_on",
        "time": 31,
        "note": 35,
        "velocity": 90,
        "channel": 2
      },
      {
        "type": "note_on",
        "time": 29,
        "note": 35,
        "velocity": 0,
        "channel": 2
      },
      {
        "type": "note_on",
        "time": 1,
        "note": 40,
        "velocity": 90,
        "channel": 2
      },
      {
        "type": "note_on",
        "time": 29,
        "note": 40,
        "velocity": 0,
        "channel": 2
      },
      {
        "type": "note_on",
        "time": 1,
        "note": 40,
        "velocity": 90,
        "channel": 2
      },
      {
        "type": "note_on",
        "time": 29,
        "note": 40,
        "velocity": 0,
        "channel": 2
      },
      {
        "type": "note_on",
        "time": 1,
        "note": 35,
        "velocity": 90,
        "channel": 2
      },
      {
        "type": "note_on",
        "time": 59,
        "note": 35,
        "velocity": 0,
        "channel": 2
      },
      {
        "type": "note_on",
        "time": 121,
        "note": 30,
        "velocity": 90,
        "channel": 2
      },
      {
        "type": "note_on",
        "time": 29,
        "note": 30,
        "velocity": 0,
        "channel": 2
      },
      {
        "type": "note_on",
        "time": 1,
        "note": 33,
        "velocity": 90,
        "channel": 2
      },
      {
        "type": "note_on",
        "time": 29,
        "note": 33,
        "velocity": 0,
        "channel": 2
      },
      {
        "type": "note_on",
        "time": 1,
        "note": 37,
        "velocity": 90,
        "channel": 2
      },
      {
        "type": "note_on",
        "time": 29,
        "note": 37,
        "velocity": 0,
        "channel": 2
      },
      {
        "type": "note_on",
        "time": 1,
        "note": 42,
        "velocity": 90,
        "channel": 2
      },
      {
        "type": "note_on",
        "time": 119,
        "note": 42,
        "velocity": 0,
        "channel": 2
      },
      {
        "type": "note_on",
        "time": 1,
        "note": 37,
        "velocity": 90,
        "channel": 2
      },
      {
        "type": "note_on",
        "time": 29,
        "note": 37,
        "velocity": 0,
        "channel": 2
      },
      {
        "type": "note_on",
        "time": 1,
        "note": 42,
        "velocity": 90,
        "channel": 2
      },
      {
        "type": "note_on",
        "time": 59,
        "note": 42,
        "velocity": 0,
        "channel": 2
      },
      {
        "type": "note_on",
        "time": 31,
        "note": 37,
        "velocity": 90,
        "channel": 2
      },
      {
        "type": "note_on",
        "time": 29,
        "note": 37,
        "velocity": 0,
        "channel": 2
      },
      {
        "type": "note_on",
        "time": 1,
        "note": 42,
        "velocity": 90,
        "channel": 2
      },
      {
        "type": "note_on",
        "time": 59,
        "note": 42,
        "velocity": 0,
        "channel": 2
      },
      {
        "type": "note_on",
        "time": 61,
        "note": 35,
        "velocity": 90,
        "channel": 2
      },
      {
        "type": "note_on",
        "time": 29,
        "note": 35,
        "velocity": 0,
        "channel": 2
      },
      {
        "type": "note_on",
        "time": 1,
        "note": 35,
        "velocity": 90,
        "channel": 2
      },
      {
        "type": "note_on",
        "time": 29,
        "note": 35,
        "velocity": 0,
        "channel": 2
      },
      {
        "type": "note_on",
        "time": 1,
        "note": 30,
        "velocity": 90,
        "channel": 2
      },
      {
        "type": "note_on",
        "time": 59,
        "note": 30,
        "velocity": 0,
        "channel": 2
      },
      {
        "type": "note_on",
        "time": 1,
        "note": 35,
        "velocity": 90,
        "channel": 2
      },
      {
        "type": "note_on",
        "time": 59,
        "note": 35,
        "velocity": 0,
        "channel": 2
      },
      {
        "type": "note_on",
        "time": 31,
        "note": 30,
        "velocity": 90,
        "channel": 2
      },
      {
        "type": "note_on",
        "time": 29,
        "note": 30,
        "velocity": 0,
        "channel": 2
      },
      {
        "type": "note_on",
        "time": 1,
        "note": 35,
        "velocity": 90,
        "channel": 2
      },
      {
        "type": "note_on",
        "time": 29,
        "note": 35,
        "velocity": 0,
        "channel": 2
      },
      {
        "type": "note_on",
        "time": 1,
        "note": 35,
        "velocity": 90,
        "channel": 2
      },
      {
        "type": "note_on",
        "time": 29,
        "note": 35,
        "velocity": 0,
        "channel": 2
      },
      {
        "type": "note_on",
        "time": 1,
        "note": 30,
        "velocity": 90,
        "channel": 2
      },
      {
        "type": "note_on",
        "time": 59,
        "note": 30,
        "velocity": 0,
        "channel": 2
      },
      {
        "type": "note_on",
        "time": 121,
        "note": 30,
        "velocity": 90,
        "channel": 2
      },
      {
        "type": "note_on",
        "time": 29,
        "note": 30,
        "velocity": 0,
        "channel": 2
      },
      {
        "type": "note_on",
        "time": 1,
        "note": 30,
        "velocity": 90,
        "channel": 2
      },
      {
        "type": "note_on",
        "time": 29,
        "note": 30,
        "velocity": 0,
        "channel": 2
      },
      {
        "type": "note_on",
        "time": 1,
        "note": 34,
        "velocity": 90,
        "channel": 2
      },
      {
        "type": "note_on",
        "time": 59,
        "note": 34,
        "velocity": 0,
        "channel": 2
      },
      {
        "type": "note_on",
        "time": 1,
        "note": 37,
        "velocity": 90,
        "channel": 2
      },
      {
        "type": "note_on",
        "time": 59,
        "note": 37,
        "velocity": 0,
        "channel": 2
      },
      {
        "type": "note_on",
        "time": 31,
        "note": 34,
        "velocity": 90,
        "channel": 2
      },
      {
        "type": "note_on",
        "time": 29,
        "note": 34,
        "velocity": 0,
        "channel": 2
      },
      {
        "type": "note_on",
        "time": 1,
        "note": 42,
        "velocity": 90,
        "channel": 2
      },
      {
        "type": "note_on",
        "time": 30,
        "note": 42,
        "velocity": 90,
        "channel": 2
      },
      {
        "type": "note_on",
        "time": 29,
        "note": 42,
        "velocity": 0,
        "channel": 2
      },
      {
        "type": "note_on",
        "time": 0,
        "note": 42,
        "velocity": 0,
        "channel": 2
      },
      {
        "type": "note_on",
        "time": 1,
        "note": 34,
        "velocity": 90,
        "channel": 2
      },
      {
        "type": "note_on",
        "time": 59,
        "note": 34,
        "velocity": 0,
        "channel": 2
      },
      {
        "type": "note_on",
        "time": 121,
        "note": 33,
        "velocity": 90,
        "channel": 2
      },
      {
        "type": "note_on",
        "time": 29,
        "note": 33,
        "velocity": 0,
        "channel": 2
      },
      {
        "type": "note_on",
        "time": 1,
        "note": 33,
        "velocity": 90,
        "channel": 2
      },
      {
        "type": "note_on",
        "time": 29,
        "note": 33,
        "velocity": 0,
        "channel": 2
      },
      {
        "type": "note_on",
        "time": 1,
        "note": 40,
        "velocity": 90,
        "channel": 2
      },
      {
        "type": "note_on",
        "time": 59,
        "note": 40,
        "velocity": 0,
        "channel": 2
      },
      {
        "type": "note_on",
        "time": 1,
        "note": 45,
        "velocity": 90,
        "channel": 2
      },
      {
        "type": "note_on",
        "time": 59,
        "note": 45,
        "velocity": 0,
        "channel": 2
      },
      {
        "type": "note_on",
        "time": 31,
        "note": 40,
        "velocity": 90,
        "channel": 2
      },
      {
        "type": "note_on",
        "time": 29,
        "note": 40,
        "velocity": 0,
        "channel": 2
      },
      {
        "type": "note_on",
        "time": 1,
        "note": 45,
        "velocity": 90,
        "channel": 2
      },
      {
        "type": "note_on",
        "time": 30,
        "note": 45,
        "velocity": 90,
        "channel": 2
      },
      {
        "type": "note_on",
        "time": 29,
        "note": 45,
        "velocity": 0,
        "channel": 2
      },
      {
        "type": "note_on",
        "time": 0,
        "note": 45,
        "velocity": 0,
        "channel": 2
      },
      {
        "type": "note_on",
        "time": 1,
        "note": 40,
        "velocity": 90,
        "channel": 2
      },
      {
        "type": "note_on",
        "time": 59,
        "note": 40,
        "velocity": 0,
        "channel": 2
      },
      {
        "type": "note_on",
        "time": 121,
        "note": 28,
        "velocity": 90,
        "channel": 2
      },
      {
        "type": "note_on",
        "time": 29,
        "note": 28,
        "velocity": 0,
        "channel": 2
      },
      {
        "type": "note_on",
        "time": 1,
        "note": 28,
        "velocity": 90,
        "channel": 2
      },
      {
        "type": "note_on",
        "time": 29,
        "note": 28,
        "velocity": 0,
        "channel": 2
      },
      {
        "type": "note_on",
        "time": 1,
        "note": 35,
        "velocity": 90,
        "channel": 2
      },
      {
        "type": "note_on",
        "time": 59,
        "note": 35,
        "velocity": 0,
        "channel": 2
      },
      {
        "type": "note_on",
        "time": 1,
        "note": 40,
        "velocity": 90,
        "channel": 2
      },
      {
        "type": "note_on",
        "time": 59,
        "note": 40,
        "velocity": 0,
        "channel": 2
      },
      {
        "type": "note_on",
        "time": 31,
        "note": 35,
        "velocity": 90,
        "channel": 2
      },
      {
        "type": "note_on",
        "time": 29,
        "note": 35,
        "velocity": 0,
        "channel": 2
      },
      {
        "type": "note_on",
        "time": 1,
        "note": 40,
        "velocity": 90,
        "channel": 2
      },
      {
        "type": "note_on",
        "time": 30,
        "note": 40,
        "velocity": 90,
        "channel": 2
      },
      {
        "type": "note_on",
        "time": 29,
        "note": 40,
        "velocity": 0,
        "channel": 2
      },
      {
        "type": "note_on",
        "time": 1,
        "note": 35,
        "velocity": 90,
        "channel": 2
      },
      {
        "type": "note_on",
        "time": 59,
        "note": 35,
        "velocity": 0,
        "channel": 2
      },
      {
        "type": "note_on",
        "time": 120,
        "note": 40,
        "velocity": 0,
        "channel": 2
      },
      {
        "type": "note_on",
        "time": 1,
        "note": 31,
        "velocity": 90,
        "channel": 2
      },
      {
        "type": "note_on",
        "time": 29,
        "note": 31,
        "velocity": 0,
        "channel": 2
      },
      {
        "type": "note_on",
        "time": 1,
        "note": 31,
        "velocity": 90,
        "channel": 2
      },
      {
        "type": "note_on",
        "time": 29,
        "note": 31,
        "velocity": 0,
        "channel": 2
      },
      {
        "type": "note_on",
        "time": 1,
        "note": 38,
        "velocity": 90,
        "channel": 2
      },
      {
        "type": "note_on",
        "time": 59,
        "note": 38,
        "velocity": 0,
        "channel": 2
      },
      {
        "type": "note_on",
        "time": 1,
        "note": 43,
        "velocity": 90,
        "channel": 2
      },
      {
        "type": "note_on",
        "time": 59,
        "note": 43,
        "velocity": 0,
        "channel": 2
      },
      {
        "type": "note_on",
        "time": 31,
        "note": 38,
        "velocity": 90,
        "channel": 2
      },
      {
        "type": "note_on",
        "time": 29,
        "note": 38,
        "velocity": 0,
        "channel": 2
      },
      {
        "type": "note_on",
        "time": 1,
        "note": 43,
        "velocity": 90,
        "channel": 2
      },
      {
        "type": "note_on",
        "time": 29,
        "note": 43,
        "velocity": 0,
        "channel": 2
      },
      {
        "type": "note_on",
        "time": 1,
        "note": 43,
        "velocity": 90,
        "channel": 2
      },
      {
        "type": "note_on",
        "time": 29,
        "note": 43,
        "velocity": 0,
        "channel": 2
      },
      {
        "type": "note_on",
        "time": 1,
        "note": 38,
        "velocity": 90,
        "channel": 2
      },
      {
        "type": "note_on",
        "time": 59,
        "note": 38,
        "velocity": 0,
        "channel": 2
      },
      {
        "type": "note_on",
        "time": 121,
        "note": 30,
        "velocity": 90,
        "channel": 2
      },
      {
        "type": "note_on",
        "time": 29,
        "note": 30,
        "velocity": 0,
        "channel": 2
      },
      {
        "type": "note_on",
        "time": 1,
        "note": 33,
        "velocity": 90,
        "channel": 2
      },
      {
        "type": "note_on",
        "time": 29,
        "note": 33,
        "velocity": 0,
        "channel": 2
      },
      {
        "type": "note_on",
        "time": 1,
        "note": 38,
        "velocity": 90,
        "channel": 2
      },
      {
        "type": "note_on",
        "time": 59,
        "note": 38,
        "velocity": 0,
        "channel": 2
      },
      {
        "type": "note_on",
        "time": 1,
        "note": 42,
        "velocity": 90,
        "channel": 2
      },
      {
        "type": "note_on",
        "time": 59,
        "note": 42,
        "velocity": 0,
        "channel": 2
      },
      {
        "type": "note_on",
        "time": 31,
        "note": 38,
        "velocity": 90,
        "channel": 2
      },
      {
        "type": "note_on",
        "time": 29,
        "note": 38,
        "velocity": 0,
        "channel": 2
      },
      {
        "type": "note_on",
        "time": 1,
        "note": 42,
        "velocity": 90,
        "channel": 2
      },
      {
        "type": "note_on",
        "time": 29,
        "note": 42,
        "velocity": 0,
        "channel": 2
      },
      {
        "type": "note_on",
        "time": 1,
        "note": 42,
        "velocity": 90,
        "channel": 2
      },
      {
        "type": "note_on",
        "time": 29,
        "note": 42,
        "velocity": 0,
        "channel": 2
      },
      {
        "type": "note_on",
        "time": 1,
        "note": 38,
        "velocity": 90,
        "channel": 2
      },
      {
        "type": "note_on",
        "time": 59,
        "note": 38,
        "velocity": 0,
        "channel": 2
      },
      {
        "type": "note_on",
        "time": 121,
        "note": 28,
        "velocity": 90,
        "channel": 2
      },
      {
        "type": "note_on",
        "time": 29,
        "note": 28,
        "velocity": 0,
        "channel": 2
      },
      {
        "type": "note_on",
        "time": 1,
        "note": 31,
        "velocity": 90,
        "channel": 2
      },
      {
        "type": "note_on",
        "time": 29,
        "note": 31,
        "velocity": 0,
        "channel": 2
      },
      {
        "type": "note_on",
        "time": 1,
        "note": 35,
        "velocity": 90,
        "channel": 2
      },
      {
        "type": "note_on",
        "time": 59,
        "note": 35,
        "velocity": 0,
        "channel": 2
      },
      {
        "type": "note_on",
        "time": 1,
        "note": 40,
        "velocity": 90,
        "channel": 2
      },
      {
        "type": "note_on",
        "time": 59,
        "note": 40,
        "velocity": 0,
        "channel": 2
      },
      {
        "type": "note_on",
        "time": 31,
        "note": 35,
        "velocity": 90,
        "channel": 2
      },
      {
        "type": "note_on",
        "time": 29,
        "note": 35,
        "velocity": 0,
        "channel": 2
      },
      {
        "type": "note_on",
        "time": 1,
        "note": 40,
        "velocity": 90,
        "channel": 2
      },
      {
        "type": "note_on",
        "time": 29,
        "note": 40,
        "velocity": 0,
        "channel": 2
      },
      {
        "type": "note_on",
        "time": 1,
        "note": 40,
        "velocity": 90,
        "channel": 2
      },
      {
        "type": "note_on",
        "time": 29,
        "note": 40,
        "velocity": 0,
        "channel": 2
      },
      {
        "type": "note_on",
        "time": 1,
        "note": 35,
        "velocity": 90,
        "channel": 2
      },
      {
        "type": "note_on",
        "time": 59,
        "note": 35,
        "velocity": 0,
        "channel": 2
      },
      {
        "type": "note_on",
        "time": 121,
        "note": 30,
        "velocity": 90,
        "channel": 2
      },
      {
        "type": "note_on",
        "time": 29,
        "note": 30,
        "velocity": 0,
        "channel": 2
      },
      {
        "type": "note_on",
        "time": 1,
        "note": 33,
        "velocity": 90,
        "channel": 2
      },
      {
        "type": "note_on",
        "time": 29,
        "note": 33,
        "velocity": 0,
        "channel": 2
      },
      {
        "type": "note_on",
        "time": 1,
        "note": 37,
        "velocity": 90,
        "channel": 2
      },
      {
        "type": "note_on",
        "time": 29,
        "note": 37,
        "velocity": 0,
        "channel": 2
      },
      {
        "type": "note_on",
        "time": 1,
        "note": 42,
        "velocity": 90,
        "channel": 2
      },
      {
        "type": "note_on",
        "time": 119,
        "note": 42,
        "velocity": 0,
        "channel": 2
      },
      {
        "type": "note_on",
        "time": 1,
        "note": 37,
        "velocity": 90,
        "channel": 2
      },
      {
        "type": "note_on",
        "time": 29,
        "note": 37,
        "velocity": 0,
        "channel": 2
      },
      {
        "type": "note_on",
        "time": 1,
        "note": 42,
        "velocity": 90,
        "channel": 2
      },
      {
        "type": "note_on",
        "time": 59,
        "note": 42,
        "velocity": 0,
        "channel": 2
      },
      {
        "type": "note_on",
        "time": 31,
        "note": 37,
        "velocity": 90,
        "channel": 2
      },
      {
        "type": "note_on",
        "time": 29,
        "note": 37,
        "velocity": 0,
        "channel": 2
      },
      {
        "type": "note_on",
        "time": 1,
        "note": 42,
        "velocity": 90,
        "channel": 2
      },
      {
        "type": "note_on",
        "time": 59,
        "note": 42,
        "velocity": 0,
        "channel": 2
      },
      {
        "type": "note_on",
        "time": 61,
        "note": 35,
        "velocity": 90,
        "channel": 2
      },
      {
        "type": "note_on",
        "time": 29,
        "note": 35,
        "velocity": 0,
        "channel": 2
      },
      {
        "type": "note_on",
        "time": 1,
        "note": 35,
        "velocity": 90,
        "channel": 2
      },
      {
        "type": "note_on",
        "time": 29,
        "note": 35,
        "velocity": 0,
        "channel": 2
      },
      {
        "type": "note_on",
        "time": 1,
        "note": 30,
        "velocity": 90,
        "channel": 2
      },
      {
        "type": "note_on",
        "time": 59,
        "note": 30,
        "velocity": 0,
        "channel": 2
      },
      {
        "type": "note_on",
        "time": 1,
        "note": 35,
        "velocity": 90,
        "channel": 2
      },
      {
        "type": "note_on",
        "time": 59,
        "note": 35,
        "velocity": 0,
        "channel": 2
      },
      {
        "type": "note_on",
        "time": 31,
        "note": 30,
        "velocity": 90,
        "channel": 2
      },
      {
        "type": "note_on",
        "time": 29,
        "note": 30,
        "velocity": 0,
        "channel": 2
      },
      {
        "type": "note_on",
        "time": 1,
        "note": 35,
        "velocity": 90,
        "channel": 2
      },
      {
        "type": "note_on",
        "time": 29,
        "note": 35,
        "velocity": 0,
        "channel": 2
      },
      {
        "type": "note_on",
        "time": 1,
        "note": 35,
        "velocity": 90,
        "channel": 2
      },
      {
        "type": "note_on",
        "time": 29,
        "note": 35,
        "velocity": 0,
        "channel": 2
      },
      {
        "type": "note_on",
        "time": 1,
        "note": 30,
        "velocity": 90,
        "channel": 2
      },
      {
        "type": "note_on",
        "time": 59,
        "note": 30,
        "velocity": 0,
        "channel": 2
      },
      {
        "type": "note_on",
        "time": 121,
        "note": 30,
        "velocity": 90,
        "channel": 2
      },
      {
        "type": "note_on",
        "time": 29,
        "note": 30,
        "velocity": 0,
        "channel": 2
      },
      {
        "type": "note_on",
        "time": 1,
        "note": 30,
        "velocity": 90,
        "channel": 2
      },
      {
        "type": "note_on",
        "time": 29,
        "note": 30,
        "velocity": 0,
        "channel": 2
      },
      {
        "type": "note_on",
        "time": 1,
        "note": 34,
        "velocity": 90,
        "channel": 2
      },
      {
        "type": "note_on",
        "time": 59,
        "note": 34,
        "velocity": 0,
        "channel": 2
      },
      {
        "type": "note_on",
        "time": 1,
        "note": 37,
        "velocity": 90,
        "channel": 2
      },
      {
        "type": "note_on",
        "time": 59,
        "note": 37,
        "velocity": 0,
        "channel": 2
      },
      {
        "type": "note_on",
        "time": 31,
        "note": 34,
        "velocity": 90,
        "channel": 2
      },
      {
        "type": "note_on",
        "time": 29,
        "note": 34,
        "velocity": 0,
        "channel": 2
      },
      {
        "type": "note_on",
        "time": 1,
        "note": 42,
        "velocity": 90,
        "channel": 2
      },
      {
        "type": "note_on",
        "time": 30,
        "note": 42,
        "velocity": 90,
        "channel": 2
      },
      {
        "type": "note_on",
        "time": 29,
        "note": 42,
        "velocity": 0,
        "channel": 2
      },
      {
        "type": "note_on",
        "time": 0,
        "note": 42,
        "velocity": 0,
        "channel": 2
      },
      {
        "type": "note_on",
        "time": 1,
        "note": 34,
        "velocity": 90,
        "channel": 2
      },
      {
        "type": "note_on",
        "time": 59,
        "note": 34,
        "velocity": 0,
        "channel": 2
      },
      {
        "type": "note_on",
        "time": 121,
        "note": 33,
        "velocity": 90,
        "channel": 2
      },
      {
        "type": "note_on",
        "time": 29,
        "note": 33,
        "velocity": 0,
        "channel": 2
      },
      {
        "type": "note_on",
        "time": 1,
        "note": 33,
        "velocity": 90,
        "channel": 2
      },
      {
        "type": "note_on",
        "time": 29,
        "note": 33,
        "velocity": 0,
        "channel": 2
      },
      {
        "type": "note_on",
        "time": 1,
        "note": 40,
        "velocity": 90,
        "channel": 2
      },
      {
        "type": "note_on",
        "time": 59,
        "note": 40,
        "velocity": 0,
        "channel": 2
      },
      {
        "type": "note_on",
        "time": 1,
        "note": 45,
        "velocity": 90,
        "channel": 2
      },
      {
        "type": "note_on",
        "time": 59,
        "note": 45,
        "velocity": 0,
        "channel": 2
      },
      {
        "type": "note_on",
        "time": 31,
        "note": 40,
        "velocity": 90,
        "channel": 2
      },
      {
        "type": "note_on",
        "time": 29,
        "note": 40,
        "velocity": 0,
        "channel": 2
      },
      {
        "type": "note_on",
        "time": 1,
        "note": 45,
        "velocity": 90,
        "channel": 2
      },
      {
        "type": "note_on",
        "time": 30,
        "note": 45,
        "velocity": 90,
        "channel": 2
      },
      {
        "type": "note_on",
        "time": 29,
        "note": 45,
        "velocity": 0,
        "channel": 2
      },
      {
        "type": "note_on",
        "time": 0,
        "note": 45,
        "velocity": 0,
        "channel": 2
      },
      {
        "type": "note_on",
        "time": 1,
        "note": 40,
        "velocity": 90,
        "channel": 2
      },
      {
        "type": "note_on",
        "time": 59,
        "note": 40,
        "velocity": 0,
        "channel": 2
      },
      {
        "type": "note_on",
        "time": 121,
        "note": 28,
        "velocity": 90,
        "channel": 2
      },
      {
        "type": "note_on",
        "time": 29,
        "note": 28,
        "velocity": 0,
        "channel": 2
      },
      {
        "type": "note_on",
        "time": 1,
        "note": 28,
        "velocity": 90,
        "channel": 2
      },
      {
        "type": "note_on",
        "time": 29,
        "note": 28,
        "velocity": 0,
        "channel": 2
      },
      {
        "type": "note_on",
        "time": 1,
        "note": 35,
        "velocity": 90,
        "channel": 2
      },
      {
        "type": "note_on",
        "time": 59,
        "note": 35,
        "velocity": 0,
        "channel": 2
      },
      {
        "type": "note_on",
        "time": 1,
        "note": 40,
        "velocity": 90,
        "channel": 2
      },
      {
        "type": "note_on",
        "time": 59,
        "note": 40,
        "velocity": 0,
        "channel": 2
      },
      {
        "type": "note_on",
        "time": 31,
        "note": 35,
        "velocity": 90,
        "channel": 2
      },
      {
        "type": "note_on",
        "time": 29,
        "note": 35,
        "velocity": 0,
        "channel": 2
      },
      {
        "type": "note_on",
        "time": 1,
        "note": 40,
        "velocity": 90,
        "channel": 2
      },
      {
        "type": "note_on",
        "time": 30,
        "note": 40,
        "velocity": 90,
        "channel": 2
      },
      {
        "type": "note_on",
        "time": 29,
        "note": 40,
        "velocity": 0,
        "channel": 2
      },
      {
        "type": "note_on",
        "time": 1,
        "note": 35,
        "velocity": 90,
        "channel": 2
      },
      {
        "type": "note_on",
        "time": 59,
        "note": 35,
        "velocity": 0,
        "channel": 2
      },
      {
        "type": "note_on",
        "time": 120,
        "note": 40,
        "velocity": 0,
        "channel": 2
      },
      {
        "type": "note_on",
        "time": 1,
        "note": 31,
        "velocity": 90,
        "channel": 2
      },
      {
        "type": "note_on",
        "time": 29,
        "note": 31,
        "velocity": 0,
        "channel": 2
      },
      {
        "type": "note_on",
        "time": 1,
        "note": 31,
        "velocity": 90,
        "channel": 2
      },
      {
        "type": "note_on",
        "time": 29,
        "note": 31,
        "velocity": 0,
        "channel": 2
      },
      {
        "type": "note_on",
        "time": 1,
        "note": 38,
        "velocity": 90,
        "channel": 2
      },
      {
        "type": "note_on",
        "time": 59,
        "note": 38,
        "velocity": 0,
        "channel": 2
      },
      {
        "type": "note_on",
        "time": 1,
        "note": 43,
        "velocity": 90,
        "channel": 2
      },
      {
        "type": "note_on",
        "time": 59,
        "note": 43,
        "velocity": 0,
        "channel": 2
      },
      {
        "type": "note_on",
        "time": 31,
        "note": 38,
        "velocity": 90,
        "channel": 2
      },
      {
        "type": "note_on",
        "time": 29,
        "note": 38,
        "velocity": 0,
        "channel": 2
      },
      {
        "type": "note_on",
        "time": 1,
        "note": 43,
        "velocity": 90,
        "channel": 2
      },
      {
        "type": "note_on",
        "time": 29,
        "note": 43,
        "velocity": 0,
        "channel": 2
      },
      {
        "type": "note_on",
        "time": 1,
        "note": 43,
        "velocity": 90,
        "channel": 2
      },
      {
        "type": "note_on",
        "time": 29,
        "note": 43,
        "velocity": 0,
        "channel": 2
      },
      {
        "type": "note_on",
        "time": 1,
        "note": 38,
        "velocity": 90,
        "channel": 2
      },
      {
        "type": "note_on",
        "time": 29,
        "note": 38,
        "velocity": 0,
        "channel": 2
      },
      {
        "type": "note_on",
        "time": 151,
        "note": 30,
        "velocity": 90,
        "channel": 2
      },
      {
        "type": "note_on",
        "time": 29,
        "note": 30,
        "velocity": 0,
        "channel": 2
      },
      {
        "type": "note_on",
        "time": 1,
        "note": 33,
        "velocity": 90,
        "channel": 2
      },
      {
        "type": "note_on",
        "time": 29,
        "note": 33,
        "velocity": 0,
        "channel": 2
      },
      {
        "type": "note_on",
        "time": 1,
        "note": 38,
        "velocity": 90,
        "channel": 2
      },
      {
        "type": "note_on",
        "time": 59,
        "note": 38,
        "velocity": 0,
        "channel": 2
      },
      {
        "type": "note_on",
        "time": 1,
        "note": 42,
        "velocity": 90,
        "channel": 2
      },
      {
        "type": "note_on",
        "time": 59,
        "note": 42,
        "velocity": 0,
        "channel": 2
      },
      {
        "type": "note_on",
        "time": 31,
        "note": 38,
        "velocity": 90,
        "channel": 2
      },
      {
        "type": "note_on",
        "time": 29,
        "note": 38,
        "velocity": 0,
        "channel": 2
      },
      {
        "type": "note_on",
        "time": 1,
        "note": 42,
        "velocity": 90,
        "channel": 2
      },
      {
        "type": "note_on",
        "time": 29,
        "note": 42,
        "velocity": 0,
        "channel": 2
      },
      {
        "type": "note_on",
        "time": 1,
        "note": 42,
        "velocity": 90,
        "channel": 2
      },
      {
        "type": "note_on",
        "time": 29,
        "note": 42,
        "velocity": 0,
        "channel": 2
      },
      {
        "type": "note_on",
        "time": 1,
        "note": 38,
        "velocity": 90,
        "channel": 2
      },
      {
        "type": "note_on",
        "time": 59,
        "note": 38,
        "velocity": 0,
        "channel": 2
      },
      {
        "type": "note_on",
        "time": 121,
        "note": 28,
        "velocity": 90,
        "channel": 2
      },
      {
        "type": "note_on",
        "time": 29,
        "note": 28,
        "velocity": 0,
        "channel": 2
      },
      {
        "type": "note_on",
        "time": 1,
        "note": 31,
        "velocity": 90,
        "channel": 2
      },
      {
        "type": "note_on",
        "time": 29,
        "note": 31,
        "velocity": 0,
        "channel": 2
      },
      {
        "type": "note_on",
        "time": 1,
        "note": 35,
        "velocity": 90,
        "channel": 2
      },
      {
        "type": "note_on",
        "time": 59,
        "note": 35,
        "velocity": 0,
        "channel": 2
      },
      {
        "type": "note_on",
        "time": 1,
        "note": 40,
        "velocity": 90,
        "channel": 2
      },
      {
        "type": "note_on",
        "time": 59,
        "note": 40,
        "velocity": 0,
        "channel": 2
      },
      {
        "type": "note_on",
        "time": 31,
        "note": 35,
        "velocity": 90,
        "channel": 2
      },
      {
        "type": "note_on",
        "time": 29,
        "note": 35,
        "velocity": 0,
        "channel": 2
      },
      {
        "type": "note_on",
        "time": 1,
        "note": 40,
        "velocity": 90,
        "channel": 2
      },
      {
        "type": "note_on",
        "time": 29,
        "note": 40,
        "velocity": 0,
        "channel": 2
      },
      {
        "type": "note_on",
        "time": 1,
        "note": 40,
        "velocity": 90,
        "channel": 2
      },
      {
        "type": "note_on",
        "time": 29,
        "note": 40,
        "velocity": 0,
        "channel": 2
      },
      {
        "type": "note_on",
        "time": 1,
        "note": 35,
        "velocity": 90,
        "channel": 2
      },
      {
        "type": "note_on",
        "time": 59,
        "note": 35,
        "velocity": 0,
        "channel": 2
      },
      {
        "type": "note_on",
        "time": 121,
        "note": 30,
        "velocity": 90,
        "channel": 2
      },
      {
        "type": "note_on",
        "time": 29,
        "note": 30,
        "velocity": 0,
        "channel": 2
      },
      {
        "type": "note_on",
        "time": 1,
        "note": 33,
        "velocity": 90,
        "channel": 2
      },
      {
        "type": "note_on",
        "time": 29,
        "note": 33,
        "velocity": 0,
        "channel": 2
      },
      {
        "type": "note_on",
        "time": 1,
        "note": 37,
        "velocity": 90,
        "channel": 2
      },
      {
        "type": "note_on",
        "time": 29,
        "note": 37,
        "velocity": 0,
        "channel": 2
      },
      {
        "type": "note_on",
        "time": 1,
        "note": 42,
        "velocity": 90,
        "channel": 2
      },
      {
        "type": "note_on",
        "time": 119,
        "note": 42,
        "velocity": 0,
        "channel": 2
      },
      {
        "type": "note_on",
        "time": 1,
        "note": 37,
        "velocity": 90,
        "channel": 2
      },
      {
        "type": "note_on",
        "time": 29,
        "note": 37,
        "velocity": 0,
        "channel": 2
      },
      {
        "type": "note_on",
        "time": 1,
        "note": 42,
        "velocity": 90,
        "channel": 2
      },
      {
        "type": "note_on",
        "time": 59,
        "note": 42,
        "velocity": 0,
        "channel": 2
      },
      {
        "type": "note_on",
        "time": 31,
        "note": 37,
        "velocity": 90,
        "channel": 2
      },
      {
        "type": "note_on",
        "time": 29,
        "note": 37,
        "velocity": 0,
        "channel": 2
      },
      {
        "type": "note_on",
        "time": 1,
        "note": 42,
        "velocity": 90,
        "channel": 2
      },
      {
        "type": "note_on",
        "time": 59,
        "note": 42,
        "velocity": 0,
        "channel": 2
      },
      {
        "type": "note_on",
        "time": 61,
        "note": 35,
        "velocity": 90,
        "channel": 2
      },
      {
        "type": "note_on",
        "time": 29,
        "note": 35,
        "velocity": 0,
        "channel": 2
      },
      {
        "type": "note_on",
        "time": 1,
        "note": 35,
        "velocity": 90,
        "channel": 2
      },
      {
        "type": "note_on",
        "time": 29,
        "note": 35,
        "velocity": 0,
        "channel": 2
      },
      {
        "type": "note_on",
        "time": 1,
        "note": 30,
        "velocity": 90,
        "channel": 2
      },
      {
        "type": "note_on",
        "time": 59,
        "note": 30,
        "velocity": 0,
        "channel": 2
      },
      {
        "type": "note_on",
        "time": 1,
        "note": 35,
        "velocity": 90,
        "channel": 2
      },
      {
        "type": "control_change",
        "time": 0,
        "control": 7,
        "value": 90,
        "channel": 2
      },
      {
        "type": "note_on",
        "time": 59,
        "note": 35,
        "velocity": 0,
        "channel": 2
      },
      {
        "type": "note_on",
        "time": 31,
        "note": 30,
        "velocity": 90,
        "channel": 2
      },
      {
        "type": "note_on",
        "time": 29,
        "note": 30,
        "velocity": 0,
        "channel": 2
      },
      {
        "type": "note_on",
        "time": 1,
        "note": 35,
        "velocity": 90,
        "channel": 2
      },
      {
        "type": "control_change",
        "time": 0,
        "control": 7,
        "value": 87,
        "channel": 2
      },
      {
        "type": "note_on",
        "time": 29,
        "note": 35,
        "velocity": 0,
        "channel": 2
      },
      {
        "type": "note_on",
        "time": 1,
        "note": 35,
        "velocity": 90,
        "channel": 2
      },
      {
        "type": "note_on",
        "time": 29,
        "note": 35,
        "velocity": 0,
        "channel": 2
      },
      {
        "type": "note_on",
        "time": 1,
        "note": 30,
        "velocity": 90,
        "channel": 2
      },
      {
        "type": "note_on",
        "time": 59,
        "note": 30,
        "velocity": 0,
        "channel": 2
      },
      {
        "type": "control_change",
        "time": 1,
        "control": 7,
        "value": 84,
        "channel": 2
      },
      {
        "type": "note_on",
        "time": 120,
        "note": 30,
        "velocity": 90,
        "channel": 2
      },
      {
        "type": "control_change",
        "time": 0,
        "control": 7,
        "value": 81,
        "channel": 2
      },
      {
        "type": "note_on",
        "time": 29,
        "note": 30,
        "velocity": 0,
        "channel": 2
      },
      {
        "type": "note_on",
        "time": 1,
        "note": 30,
        "velocity": 90,
        "channel": 2
      },
      {
        "type": "note_on",
        "time": 29,
        "note": 30,
        "velocity": 0,
        "channel": 2
      },
      {
        "type": "note_on",
        "time": 1,
        "note": 34,
        "velocity": 90,
        "channel": 2
      },
      {
        "type": "note_on",
        "time": 59,
        "note": 34,
        "velocity": 0,
        "channel": 2
      },
      {
        "type": "note_on",
        "time": 1,
        "note": 37,
        "velocity": 90,
        "channel": 2
      },
      {
        "type": "control_change",
        "time": 0,
        "control": 7,
        "value": 78,
        "channel": 2
      },
      {
        "type": "note_on",
        "time": 59,
        "note": 37,
        "velocity": 0,
        "channel": 2
      },
      {
        "type": "note_on",
        "time": 31,
        "note": 34,
        "velocity": 90,
        "channel": 2
      },
      {
        "type": "note_on",
        "time": 29,
        "note": 34,
        "velocity": 0,
        "channel": 2
      },
      {
        "type": "control_change",
        "time": 1,
        "control": 7,
        "value": 75,
        "channel": 2
      },
      {
        "type": "note_on",
        "time": 0,
        "note": 42,
        "velocity": 90,
        "channel": 2
      },
      {
        "type": "note_on",
        "time": 30,
        "note": 42,
        "velocity": 90,
        "channel": 2
      },
      {
        "type": "note_on",
        "time": 29,
        "note": 42,
        "velocity": 0,
        "channel": 2
      },
      {
        "type": "note_on",
        "time": 0,
        "note": 42,
        "velocity": 0,
        "channel": 2
      },
      {
        "type": "note_on",
        "time": 1,
        "note": 34,
        "velocity": 90,
        "channel": 2
      },
      {
        "type": "note_on",
        "time": 59,
        "note": 34,
        "velocity": 0,
        "channel": 2
      },
      {
        "type": "control_change",
        "time": 1,
        "control": 7,
        "value": 72,
        "channel": 2
      },
      {
        "type": "control_change",
        "time": 120,
        "control": 7,
        "value": 69,
        "channel": 2
      },
      {
        "type": "note_on",
        "time": 0,
        "note": 33,
        "velocity": 90,
        "channel": 2
      },
      {
        "type": "note_on",
        "time": 29,
        "note": 33,
        "velocity": 0,
        "channel": 2
      },
      {
        "type": "note_on",
        "time": 1,
        "note": 33,
        "velocity": 90,
        "channel": 2
      },
      {
        "type": "note_on",
        "time": 29,
        "note": 33,
        "velocity": 0,
        "channel": 2
      },
      {
        "type": "note_on",
        "time": 1,
        "note": 40,
        "velocity": 90,
        "channel": 2
      },
      {
        "type": "note_on",
        "time": 59,
        "note": 40,
        "velocity": 0,
        "channel": 2
      },
      {
        "type": "control_change",
        "time": 1,
        "control": 7,
        "value": 66,
        "channel": 2
      },
      {
        "type": "note_on",
        "time": 0,
        "note": 45,
        "velocity": 90,
        "channel": 2
      },
      {
        "type": "note_on",
        "time": 59,
        "note": 45,
        "velocity": 0,
        "channel": 2
      },
      {
        "type": "note_on",
        "time": 31,
        "note": 40,
        "velocity": 90,
        "channel": 2
      },
      {
        "type": "note_on",
        "time": 29,
        "note": 40,
        "velocity": 0,
        "channel": 2
      },
      {
        "type": "note_on",
        "time": 1,
        "note": 45,
        "velocity": 90,
        "channel": 2
      },
      {
        "type": "control_change",
        "time": 0,
        "control": 7,
        "value": 63,
        "channel": 2
      },
      {
        "type": "note_on",
        "time": 30,
        "note": 45,
        "velocity": 90,
        "channel": 2
      },
      {
        "type": "note_on",
        "time": 29,
        "note": 45,
        "velocity": 0,
        "channel": 2
      },
      {
        "type": "note_on",
        "time": 0,
        "note": 45,
        "velocity": 0,
        "channel": 2
      },
      {
        "type": "note_on",
        "time": 1,
        "note": 40,
        "velocity": 90,
        "channel": 2
      },
      {
        "type": "note_on",
        "time": 59,
        "note": 40,
        "velocity": 0,
        "channel": 2
      },
      {
        "type": "control_change",
        "time": 1,
        "control": 7,
        "value": 60,
        "channel": 2
      },
      {
        "type": "control_change",
        "time": 120,
        "control": 7,
        "value": 57,
        "channel": 2
      },
      {
        "type": "note_on",
        "time": 0,
        "note": 28,
        "velocity": 90,
        "channel": 2
      },
      {
        "type": "note_on",
        "time": 29,
        "note": 28,
        "velocity": 0,
        "channel": 2
      },
      {
        "type": "note_on",
        "time": 1,
        "note": 28,
        "velocity": 90,
        "channel": 2
      },
      {
        "type": "note_on",
        "time": 29,
        "note": 28,
        "velocity": 0,
        "channel": 2
      },
      {
        "type": "note_on",
        "time": 1,
        "note": 35,
        "velocity": 90,
        "channel": 2
      },
      {
        "type": "note_on",
        "time": 59,
        "note": 35,
        "velocity": 0,
        "channel": 2
      },
      {
        "type": "note_on",
        "time": 1,
        "note": 40,
        "velocity": 90,
        "channel": 2
      },
      {
        "type": "control_change",
        "time": 0,
        "control": 7,
        "value": 54,
        "channel": 2
      },
      {
        "type": "note_on",
        "time": 59,
        "note": 40,
        "velocity": 0,
        "channel": 2
      },
      {
        "type": "note_on",
        "time": 31,
        "note": 35,
        "velocity": 90,
        "channel": 2
      },
      {
        "type": "note_on",
        "time": 29,
        "note": 35,
        "velocity": 0,
        "channel": 2
      },
      {
        "type": "note_on",
        "time": 1,
        "note": 40,
        "velocity": 90,
        "channel": 2
      },
      {
        "type": "control_change",
        "time": 0,
        "control": 7,
        "value": 51,
        "channel": 2
      },
      {
        "type": "note_on",
        "time": 30,
        "note": 40,
        "velocity": 90,
        "channel": 2
      },
      {
        "type": "note_on",
        "time": 29,
        "note": 40,
        "velocity": 0,
        "channel": 2
      },
      {
        "type": "note_on",
        "time": 1,
        "note": 35,
        "velocity": 90,
        "channel": 2
      },
      {
        "type": "note_on",
        "time": 59,
        "note": 35,
        "velocity": 0,
        "channel": 2
      },
      {
        "type": "control_change",
        "time": 1,
        "control": 7,
        "value": 48,
        "channel": 2
      },
      {
        "type": "note_on",
        "time": 119,
        "note": 40,
        "velocity": 0,
        "channel": 2
      },
      {
        "type": "note_on",
        "time": 1,
        "note": 31,
        "velocity": 90,
        "channel": 2
      },
      {
        "type": "control_change",
        "time": 0,
        "control": 7,
        "value": 45,
        "channel": 2
      },
      {
        "type": "note_on",
        "time": 29,
        "note": 31,
        "velocity": 0,
        "channel": 2
      },
      {
        "type": "note_on",
        "time": 1,
        "note": 31,
        "velocity": 90,
        "channel": 2
      },
      {
        "type": "note_on",
        "time": 29,
        "note": 31,
        "velocity": 0,
        "channel": 2
      },
      {
        "type": "note_on",
        "time": 1,
        "note": 38,
        "velocity": 90,
        "channel": 2
      },
      {
        "type": "note_on",
        "time": 59,
        "note": 38,
        "velocity": 0,
        "channel": 2
      },
      {
        "type": "note_on",
        "time": 1,
        "note": 43,
        "velocity": 90,
        "channel": 2
      },
      {
        "type": "control_change",
        "time": 0,
        "control": 7,
        "value": 42,
        "channel": 2
      },
      {
        "type": "note_on",
        "time": 59,
        "note": 43,
        "velocity": 0,
        "channel": 2
      },
      {
        "type": "note_on",
        "time": 31,
        "note": 38,
        "velocity": 90,
        "channel": 2
      },
      {
        "type": "note_on",
        "time": 29,
        "note": 38,
        "velocity": 0,
        "channel": 2
      },
      {
        "type": "control_change",
        "time": 1,
        "control": 7,
        "value": 39,
        "channel": 2
      },
      {
        "type": "note_on",
        "time": 0,
        "note": 43,
        "velocity": 90,
        "channel": 2
      },
      {
        "type": "note_on",
        "time": 29,
        "note": 43,
        "velocity": 0,
        "channel": 2
      },
      {
        "type": "note_on",
        "time": 1,
        "note": 43,
        "velocity": 90,
        "channel": 2
      },
      {
        "type": "note_on",
        "time": 29,
        "note": 43,
        "velocity": 0,
        "channel": 2
      },
      {
        "type": "note_on",
        "time": 1,
        "note": 38,
        "velocity": 90,
        "channel": 2
      },
      {
        "type": "note_on",
        "time": 59,
        "note": 38,
        "velocity": 0,
        "channel": 2
      },
      {
        "type": "control_change",
        "time": 1,
        "control": 7,
        "value": 36,
        "channel": 2
      },
      {
        "type": "note_on",
        "time": 120,
        "note": 30,
        "velocity": 90,
        "channel": 2
      },
      {
        "type": "control_change",
        "time": 0,
        "control": 7,
        "value": 33,
        "channel": 2
      },
      {
        "type": "note_on",
        "time": 29,
        "note": 30,
        "velocity": 0,
        "channel": 2
      },
      {
        "type": "note_on",
        "time": 1,
        "note": 33,
        "velocity": 90,
        "channel": 2
      },
      {
        "type": "note_on",
        "time": 29,
        "note": 33,
        "velocity": 0,
        "channel": 2
      },
      {
        "type": "note_on",
        "time": 1,
        "note": 38,
        "velocity": 90,
        "channel": 2
      },
      {
        "type": "note_on",
        "time": 59,
        "note": 38,
        "velocity": 0,
        "channel": 2
      },
      {
        "type": "note_on",
        "time": 1,
        "note": 42,
        "velocity": 90,
        "channel": 2
      },
      {
        "type": "control_change",
        "time": 0,
        "control": 7,
        "value": 30,
        "channel": 2
      },
      {
        "type": "note_on",
        "time": 59,
        "note": 42,
        "velocity": 0,
        "channel": 2
      },
      {
        "type": "note_on",
        "time": 31,
        "note": 38,
        "velocity": 90,
        "channel": 2
      },
      {
        "type": "note_on",
        "time": 29,
        "note": 38,
        "velocity": 0,
        "channel": 2
      },
      {
        "type": "control_change",
        "time": 1,
        "control": 7,
        "value": 27,
        "channel": 2
      },
      {
        "type": "note_on",
        "time": 0,
        "note": 42,
        "velocity": 90,
        "channel": 2
      },
      {
        "type": "note_on",
        "time": 29,
        "note": 42,
        "velocity": 0,
        "channel": 2
      },
      {
        "type": "note_on",
        "time": 1,
        "note": 42,
        "velocity": 90,
        "channel": 2
      },
      {
        "type": "note_on",
        "time": 29,
        "note": 42,
        "velocity": 0,
        "channel": 2
      },
      {
        "type": "note_on",
        "time": 1,
        "note": 38,
        "velocity": 90,
        "channel": 2
      },
      {
        "type": "note_on",
        "time": 59,
        "note": 38,
        "velocity": 0,
        "channel": 2
      },
      {
        "type": "control_change",
        "time": 1,
        "control": 7,
        "value": 24,
        "channel": 2
      },
      {
        "type": "control_change",
        "time": 120,
        "control": 7,
        "value": 21,
        "channel": 2
      },
      {
        "type": "note_on",
        "time": 0,
        "note": 28,
        "velocity": 90,
        "channel": 2
      },
      {
        "type": "note_on",
        "time": 29,
        "note": 28,
        "velocity": 0,
        "channel": 2
      },
      {
        "type": "note_on",
        "time": 1,
        "note": 31,
        "velocity": 90,
        "channel": 2
      },
      {
        "type": "note_on",
        "time": 29,
        "note": 31,
        "velocity": 0,
        "channel": 2
      },
      {
        "type": "note_on",
        "time": 1,
        "note": 35,
        "velocity": 90,
        "channel": 2
      },
      {
        "type": "note_on",
        "time": 59,
        "note": 35,
        "velocity": 0,
        "channel": 2
      },
      {
        "type": "control_change",
        "time": 1,
        "control": 7,
        "value": 18,
        "channel": 2
      },
      {
        "type": "note_on",
        "time": 0,
        "note": 40,
        "velocity": 90,
        "channel": 2
      },
      {
        "type": "note_on",
        "time": 59,
        "note": 40,
        "velocity": 0,
        "channel": 2
      },
      {
        "type": "note_on",
        "time": 31,
        "note": 35,
        "velocity": 90,
        "channel": 2
      },
      {
        "type": "note_on",
        "time": 29,
        "note": 35,
        "velocity": 0,
        "channel": 2
      },
      {
        "type": "note_on",
        "time": 1,
        "note": 40,
        "velocity": 90,
        "channel": 2
      },
      {
        "type": "control_change",
        "time": 0,
        "control": 7,
        "value": 15,
        "channel": 2
      },
      {
        "type": "note_on",
        "time": 29,
        "note": 40,
        "velocity": 0,
        "channel": 2
      },
      {
        "type": "note_on",
        "time": 1,
        "note": 40,
        "velocity": 90,
        "channel": 2
      },
      {
        "type": "note_on",
        "time": 29,
        "note": 40,
        "velocity": 0,
        "channel": 2
      },
      {
        "type": "note_on",
        "time": 1,
        "note": 35,
        "velocity": 90,
        "channel": 2
      },
      {
        "type": "note_on",
        "time": 59,
        "note": 35,
        "velocity": 0,
        "channel": 2
      },
      {
        "type": "control_change",
        "time": 1,
        "control": 7,
        "value": 12,
        "channel": 2
      },
      {
        "type": "control_change",
        "time": 120,
        "control": 7,
        "value": 9,
        "channel": 2
      },
      {
        "type": "note_on",
        "time": 0,
        "note": 30,
        "velocity": 90,
        "channel": 2
      },
      {
        "type": "note_on",
        "time": 29,
        "note": 30,
        "velocity": 0,
        "channel": 2
      },
      {
        "type": "note_on",
        "time": 1,
        "note": 33,
        "velocity": 90,
        "channel": 2
      },
      {
        "type": "note_on",
        "time": 29,
        "note": 33,
        "velocity": 0,
        "channel": 2
      },
      {
        "type": "note_on",
        "time": 1,
        "note": 37,
        "velocity": 90,
        "channel": 2
      },
      {
        "type": "note_on",
        "time": 29,
        "note": 37,
        "velocity": 0,
        "channel": 2
      },
      {
        "type": "note_on",
        "time": 1,
        "note": 42,
        "velocity": 90,
        "channel": 2
      },
      {
        "type": "control_change",
        "time": 30,
        "control": 7,
        "value": 6,
        "channel": 2
      },
      {
        "type": "note_on",
        "time": 89,
        "note": 42,
        "velocity": 0,
        "channel": 2
      },
      {
        "type": "note_on",
        "time": 1,
        "note": 37,
        "velocity": 90,
        "channel": 2
      },
      {
        "type": "note_on",
        "time": 29,
        "note": 37,
        "velocity": 0,
        "channel": 2
      },
      {
        "type": "control_change",
        "time": 1,
        "control": 7,
        "value": 3,
        "channel": 2
      },
      {
        "type": "note_on",
        "time": 0,
        "note": 42,
        "velocity": 90,
        "channel": 2
      },
      {
        "type": "note_on",
        "time": 59,
        "note": 42,
        "velocity": 0,
        "channel": 2
      },
      {
        "type": "note_on",
        "time": 31,
        "note": 37,
        "velocity": 90,
        "channel": 2
      },
      {
        "type": "note_on",
        "time": 29,
        "note": 37,
        "velocity": 0,
        "channel": 2
      },
      {
        "type": "note_on",
        "time": 1,
        "note": 42,
        "velocity": 90,
        "channel": 2
      },
      {
        "type": "control_change",
        "time": 0,
        "control": 7,
        "value": 0,
        "channel": 2
      },
      {
        "type": "note_on",
        "time": 59,
        "note": 42,
        "velocity": 0,
        "channel": 2
      },
      {
        "type": "end_of_track",
        "time": 0
      }
    ],
    [
      {
        "type": "track_name",
        "name": "WinJammer Demo",
        "time": 0
      },
      {
        "type": "midi_port",
        "port": 0,
        "time": 0
      },
      {
        "type": "control_change",
        "time": 0,
        "control": 7,
        "value": 100,
        "channel": 3
      },
      {
        "type": "program_change",
        "time": 0,
        "program": 71,
        "channel": 3
      },
      {
        "type": "note_on",
        "time": 7740,
        "note": 66,
        "velocity": 100,
        "channel": 3
      },
      {
        "type": "note_on",
        "time": 29,
        "note": 66,
        "velocity": 0,
        "channel": 3
      },
      {
        "type": "note_on",
        "time": 1,
        "note": 66,
        "velocity": 100,
        "channel": 3
      },
      {
        "type": "note_on",
        "time": 29,
        "note": 66,
        "velocity": 0,
        "channel": 3
      },
      {
        "type": "note_on",
        "time": 1,
        "note": 66,
        "velocity": 100,
        "channel": 3
      },
      {
        "type": "note_on",
        "time": 59,
        "note": 66,
        "velocity": 0,
        "channel": 3
      },
      {
        "type": "note_on",
        "time": 1,
        "note": 64,
        "velocity": 100,
        "channel": 3
      },
      {
        "type": "note_on",
        "time": 29,
        "note": 64,
        "velocity": 0,
        "channel": 3
      },
      {
        "type": "note_on",
        "time": 1,
        "note": 62,
        "velocity": 100,
        "channel": 3
      },
      {
        "type": "note_on",
        "time": 29,
        "note": 62,
        "velocity": 0,
        "channel": 3
      },
      {
        "type": "note_on",
        "time": 1,
        "note": 62,
        "velocity": 100,
        "channel": 3
      },
      {
        "type": "note_on",
        "time": 59,
        "note": 62,
        "velocity": 0,
        "channel": 3
      },
      {
        "type": "note_on",
        "time": 1,
        "note": 66,
        "velocity": 100,
        "channel": 3
      },
      {
        "type": "note_on",
        "time": 119,
        "note": 66,
        "velocity": 0,
        "channel": 3
      },
      {
        "type": "note_on",
        "time": 121,
        "note": 66,
        "velocity": 100,
        "channel": 3
      },
      {
        "type": "note_on",
        "time": 59,
        "note": 66,
        "velocity": 0,
        "channel": 3
      },
      {
        "type": "note_on",
        "time": 1,
        "note": 66,
        "velocity": 100,
        "channel": 3
      },
      {
        "type": "note_on",
        "time": 39,
        "note": 66,
        "velocity": 0,
        "channel": 3
      },
      {
        "type": "note_on",
        "time": 1,
        "note": 64,
        "velocity": 100,
        "channel": 3
      },
      {
        "type": "note_on",
        "time": 39,
        "note": 64,
        "velocity": 0,
        "channel": 3
      },
      {
        "type": "note_on",
        "time": 1,
        "note": 62,
        "velocity": 100,
        "channel": 3
      },
      {
        "type": "note_on",
        "time": 39,
        "note": 62,
        "velocity": 0,
        "channel": 3
      },
      {
        "type": "note_on",
        "time": 1,
        "note": 66,
        "velocity": 100,
        "channel": 3
      },
      {
        "type": "note_on",
        "time": 119,
        "note": 66,
        "velocity": 0,
        "channel": 3
      },
      {
        "type": "note_on",
        "time": 181,
        "note": 64,
        "velocity": 100,
        "channel": 3
      },
      {
        "type": "note_on",
        "time": 59,
        "note": 64,
        "velocity": 0,
        "channel": 3
      },
      {
        "type": "note_on",
        "time": 1,
        "note": 64,
        "velocity": 100,
        "channel": 3
      },
      {
        "type": "note_on",
        "time": 39,
        "note": 64,
        "velocity": 0,
        "channel": 3
      },
      {
        "type": "note_on",
        "time": 1,
        "note": 64,
        "velocity": 100,
        "channel": 3
      },
      {
        "type": "note_on",
        "time": 39,
        "note": 64,
        "velocity": 0,
        "channel": 3
      },
      {
        "type": "note_on",
        "time": 1,
        "note": 64,
        "velocity": 100,
        "channel": 3
      },
      {
        "type": "note_on",
        "time": 39,
        "note": 64,
        "velocity": 0,
        "channel": 3
      },
      {
        "type": "note_on",
        "time": 1,
        "note": 64,
        "velocity": 100,
        "channel": 3
      },
      {
        "type": "note_on",
        "time": 59,
        "note": 64,
        "velocity": 0,
        "channel": 3
      },
      {
        "type": "note_on",
        "time": 1,
        "note": 66,
        "velocity": 100,
        "channel": 3
      },
      {
        "type": "note_on",
        "time": 119,
        "note": 66,
        "velocity": 0,
        "channel": 3
      },
      {
        "type": "note_on",
        "time": 121,
        "note": 66,
        "velocity": 100,
        "channel": 3
      },
      {
        "type": "note_on",
        "time": 29,
        "note": 66,
        "velocity": 0,
        "channel": 3
      },
      {
        "type": "note_on",
        "time": 1,
        "note": 66,
        "velocity": 100,
        "channel": 3
      },
      {
        "type": "note_on",
        "time": 29,
        "note": 66,
        "velocity": 0,
        "channel": 3
      },
      {
        "type": "note_on",
        "time": 1,
        "note": 66,
        "velocity": 100,
        "channel": 3
      },
      {
        "type": "note_on",
        "time": 39,
        "note": 66,
        "velocity": 0,
        "channel": 3
      },
      {
        "type": "note_on",
        "time": 1,
        "note": 64,
        "velocity": 100,
        "channel": 3
      },
      {
        "type": "note_on",
        "time": 39,
        "note": 64,
        "velocity": 0,
        "channel": 3
      },
      {
        "type": "note_on",
        "time": 1,
        "note": 64,
        "velocity": 100,
        "channel": 3
      },
      {
        "type": "note_on",
        "time": 39,
        "note": 64,
        "velocity": 0,
        "channel": 3
      },
      {
        "type": "note_on",
        "time": 1,
        "note": 64,
        "velocity": 100,
        "channel": 3
      },
      {
        "type": "note_on",
        "time": 29,
        "note": 64,
        "velocity": 0,
        "channel": 3
      },
      {
        "type": "note_on",
        "time": 1,
        "note": 62,
        "velocity": 100,
        "channel": 3
      },
      {
        "type": "note_on",
        "time": 29,
        "note": 62,
        "velocity": 0,
        "channel": 3
      },
      {
        "type": "note_on",
        "time": 1,
        "note": 59,
        "velocity": 100,
        "channel": 3
      },
      {
        "type": "note_on",
        "time": 119,
        "note": 59,
        "velocity": 0,
        "channel": 3
      },
      {
        "type": "note_on",
        "time": 121,
        "note": 66,
        "velocity": 100,
        "channel": 3
      },
      {
        "type": "note_on",
        "time": 29,
        "note": 66,
        "velocity": 0,
        "channel": 3
      },
      {
        "type": "note_on",
        "time": 1,
        "note": 66,
        "velocity": 100,
        "channel": 3
      },
      {
        "type": "note_on",
        "time": 29,
        "note": 66,
        "velocity": 0,
        "channel": 3
      },
      {
        "type": "note_on",
        "time": 1,
        "note": 66,
        "velocity": 100,
        "channel": 3
      },
      {
        "type": "note_on",
        "time": 59,
        "note": 66,
        "velocity": 0,
        "channel": 3
      },
      {
        "type": "note_on",
        "time": 1,
        "note": 64,
        "velocity": 100,
        "channel": 3
      },
      {
        "type": "note_on",
        "time": 29,
        "note": 64,
        "velocity": 0,
        "channel": 3
      },
      {
        "type": "note_on",
        "time": 1,
        "note": 62,
        "velocity": 100,
        "channel": 3
      },
      {
        "type": "note_on",
        "time": 29,
        "note": 62,
        "velocity": 0,
        "channel": 3
      },
      {
        "type": "note_on",
        "time": 1,
        "note": 62,
        "velocity": 100,
        "channel": 3
      },
      {
        "type": "note_on",
        "time": 59,
        "note": 62,
        "velocity": 0,
        "channel": 3
      },
      {
        "type": "note_on",
        "time": 1,
        "note": 66,
        "velocity": 100,
        "channel": 3
      },
      {
        "type": "note_on",
        "time": 119,
        "note": 66,
        "velocity": 0,
        "channel": 3
      },
      {
        "type": "note_on",
        "time": 91,
        "note": 57,
        "velocity": 100,
        "channel": 3
      },
      {
        "type": "note_on",
        "time": 29,
        "note": 57,
        "velocity": 0,
        "channel": 3
      },
      {
        "type": "note_on",
        "time": 1,
        "note": 57,
        "velocity": 100,
        "channel": 3
      },
      {
        "type": "note_on",
        "time": 29,
        "note": 57,
        "velocity": 0,
        "channel": 3
      },
      {
        "type": "note_on",
        "time": 1,
        "note": 57,
        "velocity": 100,
        "channel": 3
      },
      {
        "type": "note_on",
        "time": 29,
        "note": 57,
        "velocity": 0,
        "channel": 3
      },
      {
        "type": "note_on",
        "time": 1,
        "note": 66,
        "velocity": 100,
        "channel": 3
      },
      {
        "type": "note_on",
        "time": 39,
        "note": 66,
        "velocity": 0,
        "channel": 3
      },
      {
        "type": "note_on",
        "time": 1,
        "note": 64,
        "velocity": 100,
        "channel": 3
      },
      {
        "type": "note_on",
        "time": 39,
        "note": 64,
        "velocity": 0,
        "channel": 3
      },
      {
        "type": "note_on",
        "time": 1,
        "note": 62,
        "velocity": 100,
        "channel": 3
      },
      {
        "type": "note_on",
        "time": 39,
        "note": 62,
        "velocity": 0,
        "channel": 3
      },
      {
        "type": "note_on",
        "time": 1,
        "note": 62,
        "velocity": 100,
        "channel": 3
      },
      {
        "type": "note_on",
        "time": 119,
        "note": 62,
        "velocity": 0,
        "channel": 3
      },
      {
        "type": "note_on",
        "time": 151,
        "note": 57,
        "velocity": 100,
        "channel": 3
      },
      {
        "type": "note_on",
        "time": 29,
        "note": 57,
        "velocity": 0,
        "channel": 3
      },
      {
        "type": "note_on",
        "time": 1,
        "note": 64,
        "velocity": 100,
        "channel": 3
      },
      {
        "type": "note_on",
        "time": 29,
        "note": 64,
        "velocity": 0,
        "channel": 3
      },
      {
        "type": "note_on",
        "time": 1,
        "note": 64,
        "velocity": 100,
        "channel": 3
      },
      {
        "type": "note_on",
        "time": 29,
        "note": 64,
        "velocity": 0,
        "channel": 3
      },
      {
        "type": "note_on",
        "time": 1,
        "note": 64,
        "velocity": 100,
        "channel": 3
      },
      {
        "type": "note_on",
        "time": 29,
        "note": 64,
        "velocity": 0,
        "channel": 3
      },
      {
        "type": "note_on",
        "time": 1,
        "note": 64,
        "velocity": 100,
        "channel": 3
      },
      {
        "type": "note_on",
        "time": 29,
        "note": 64,
        "velocity": 0,
        "channel": 3
      },
      {
        "type": "note_on",
        "time": 1,
        "note": 64,
        "velocity": 100,
        "channel": 3
      },
      {
        "type": "note_on",
        "time": 29,
        "note": 64,
        "velocity": 0,
        "channel": 3
      },
      {
        "type": "note_on",
        "time": 1,
        "note": 64,
        "velocity": 100,
        "channel": 3
      },
      {
        "type": "note_on",
        "time": 29,
        "note": 64,
        "velocity": 0,
        "channel": 3
      },
      {
        "type": "note_on",
        "time": 1,
        "note": 64,
        "velocity": 100,
        "channel": 3
      },
      {
        "type": "note_on",
        "time": 29,
        "note": 64,
        "velocity": 0,
        "channel": 3
      },
      {
        "type": "note_on",
        "time": 1,
        "note": 62,
        "velocity": 100,
        "channel": 3
      },
      {
        "type": "note_on",
        "time": 59,
        "note": 62,
        "velocity": 0,
        "channel": 3
      },
      {
        "type": "note_on",
        "time": 1,
        "note": 66,
        "velocity": 100,
        "channel": 3
      },
      {
        "type": "note_on",
        "time": 119,
        "note": 66,
        "velocity": 0,
        "channel": 3
      },
      {
        "type": "note_on",
        "time": 61,
        "note": 57,
        "velocity": 100,
        "channel": 3
      },
      {
        "type": "note_on",
        "time": 29,
        "note": 57,
        "velocity": 0,
        "channel": 3
      },
      {
        "type": "note_on",
        "time": 1,
        "note": 66,
        "velocity": 100,
        "channel": 3
      },
      {
        "type": "note_on",
        "time": 29,
        "note": 66,
        "velocity": 0,
        "channel": 3
      },
      {
        "type": "note_on",
        "time": 1,
        "note": 66,
        "velocity": 100,
        "channel": 3
      },
      {
        "type": "note_on",
        "time": 29,
        "note": 66,
        "velocity": 0,
        "channel": 3
      },
      {
        "type": "note_on",
        "time": 1,
        "note": 66,
        "velocity": 100,
        "channel": 3
      },
      {
        "type": "note_on",
        "time": 59,
        "note": 66,
        "velocity": 0,
        "channel": 3
      },
      {
        "type": "note_on",
        "time": 1,
        "note": 64,
        "velocity": 100,
        "channel": 3
      },
      {
        "type": "note_on",
        "time": 29,
        "note": 64,
        "velocity": 0,
        "channel": 3
      },
      {
        "type": "note_on",
        "time": 1,
        "note": 62,
        "velocity": 100,
        "channel": 3
      },
      {
        "type": "note_on",
        "time": 29,
        "note": 62,
        "velocity": 0,
        "channel": 3
      },
      {
        "type": "note_on",
        "time": 1,
        "note": 66,
        "velocity": 100,
        "channel": 3
      },
      {
        "type": "note_on",
        "time": 119,
        "note": 66,
        "velocity": 0,
        "channel": 3
      },
      {
        "type": "note_on",
        "time": 181,
        "note": 66,
        "velocity": 100,
        "channel": 3
      },
      {
        "type": "note_on",
        "time": 29,
        "note": 66,
        "velocity": 0,
        "channel": 3
      },
      {
        "type": "note_on",
        "time": 1,
        "note": 66,
        "velocity": 100,
        "channel": 3
      },
      {
        "type": "note_on",
        "time": 29,
        "note": 66,
        "velocity": 0,
        "channel": 3
      },
      {
        "type": "note_on",
        "time": 1,
        "note": 66,
        "velocity": 100,
        "channel": 3
      },
      {
        "type": "note_on",
        "time": 39,
        "note": 66,
        "velocity": 0,
        "channel": 3
      },
      {
        "type": "note_on",
        "time": 1,
        "note": 67,
        "velocity": 100,
        "channel": 3
      },
      {
        "type": "note_on",
        "time": 39,
        "note": 67,
        "velocity": 0,
        "channel": 3
      },
      {
        "type": "note_on",
        "time": 1,
        "note": 66,
        "velocity": 100,
        "channel": 3
      },
      {
        "type": "note_on",
        "time": 39,
        "note": 66,
        "velocity": 0,
        "channel": 3
      },
      {
        "type": "note_on",
        "time": 1,
        "note": 67,
        "velocity": 100,
        "channel": 3
      },
      {
        "type": "note_on",
        "time": 29,
        "note": 67,
        "velocity": 0,
        "channel": 3
      },
      {
        "type": "note_on",
        "time": 1,
        "note": 66,
        "velocity": 100,
        "channel": 3
      },
      {
        "type": "note_on",
        "time": 149,
        "note": 66,
        "velocity": 0,
        "channel": 3
      },
      {
        "type": "note_on",
        "time": 91,
        "note": 57,
        "velocity": 100,
        "channel": 3
      },
      {
        "type": "note_on",
        "time": 29,
        "note": 57,
        "velocity": 0,
        "channel": 3
      },
      {
        "type": "note_on",
        "time": 1,
        "note": 66,
        "velocity": 100,
        "channel": 3
      },
      {
        "type": "note_on",
        "time": 29,
        "note": 66,
        "velocity": 0,
        "channel": 3
      },
      {
        "type": "note_on",
        "time": 1,
        "note": 66,
        "velocity": 100,
        "channel": 3
      },
      {
        "type": "note_on",
        "time": 29,
        "note": 66,
        "velocity": 0,
        "channel": 3
      },
      {
        "type": "note_on",
        "time": 1,
        "note": 66,
        "velocity": 100,
        "channel": 3
      },
      {
        "type": "note_on",
        "time": 29,
        "note": 66,
        "velocity": 0,
        "channel": 3
      },
      {
        "type": "note_on",
        "time": 1,
        "note": 64,
        "velocity": 100,
        "channel": 3
      },
      {
        "type": "note_on",
        "time": 59,
        "note": 64,
        "velocity": 0,
        "channel": 3
      },
      {
        "type": "note_on",
        "time": 1,
        "note": 64,
        "velocity": 100,
        "channel": 3
      },
      {
        "type": "note_on",
        "time": 149,
        "note": 64,
        "velocity": 0,
        "channel": 3
      },
      {
        "type": "note_on",
        "time": 211,
        "note": 59,
        "velocity": 100,
        "channel": 3
      },
      {
        "type": "note_on",
        "time": 29,
        "note": 59,
        "velocity": 0,
        "channel": 3
      },
      {
        "type": "note_on",
        "time": 1,
        "note": 64,
        "velocity": 100,
        "channel": 3
      },
      {
        "type": "note_on",
        "time": 29,
        "note": 64,
        "velocity": 0,
        "channel": 3
      },
      {
        "type": "note_on",
        "time": 1,
        "note": 64,
        "velocity": 100,
        "channel": 3
      },
      {
        "type": "note_on",
        "time": 29,
        "note": 64,
        "velocity": 0,
        "channel": 3
      },
      {
        "type": "note_on",
        "time": 1,
        "note": 64,
        "velocity": 100,
        "channel": 3
      },
      {
        "type": "note_on",
        "time": 29,
        "note": 64,
        "velocity": 0,
        "channel": 3
      },
      {
        "type": "note_on",
        "time": 1,
        "note": 64,
        "velocity": 100,
        "channel": 3
      },
      {
        "type": "note_on",
        "time": 29,
        "note": 64,
        "velocity": 0,
        "channel": 3
      },
      {
        "type": "note_on",
        "time": 1,
        "note": 64,
        "velocity": 100,
        "channel": 3
      },
      {
        "type": "note_on",
        "time": 39,
        "note": 64,
        "velocity": 0,
        "channel": 3
      },
      {
        "type": "note_on",
        "time": 1,
        "note": 64,
        "velocity": 100,
        "channel": 3
      },
      {
        "type": "note_on",
        "time": 39,
        "note": 64,
        "velocity": 0,
        "channel": 3
      },
      {
        "type": "note_on",
        "time": 1,
        "note": 66,
        "velocity": 100,
        "channel": 3
      },
      {
        "type": "note_on",
        "time": 69,
        "note": 66,
        "velocity": 0,
        "channel": 3
      },
      {
        "type": "note_on",
        "time": 1,
        "note": 66,
        "velocity": 100,
        "channel": 3
      },
      {
        "type": "note_on",
        "time": 29,
        "note": 66,
        "velocity": 0,
        "channel": 3
      },
      {
        "type": "note_on",
        "time": 1,
        "note": 66,
        "velocity": 100,
        "channel": 3
      },
      {
        "type": "note_on",
        "time": 29,
        "note": 66,
        "velocity": 0,
        "channel": 3
      },
      {
        "type": "note_on",
        "time": 1,
        "note": 66,
        "velocity": 100,
        "channel": 3
      },
      {
        "type": "note_on",
        "time": 29,
        "note": 66,
        "velocity": 0,
        "channel": 3
      },
      {
        "type": "note_on",
        "time": 1,
        "note": 66,
        "velocity": 100,
        "channel": 3
      },
      {
        "type": "note_on",
        "time": 59,
        "note": 66,
        "velocity": 0,
        "channel": 3
      },
      {
        "type": "note_on",
        "time": 1,
        "note": 66,
        "velocity": 100,
        "channel": 3
      },
      {
        "type": "note_on",
        "time": 29,
        "note": 66,
        "velocity": 0,
        "channel": 3
      },
      {
        "type": "note_on",
        "time": 1,
        "note": 66,
        "velocity": 100,
        "channel": 3
      },
      {
        "type": "note_on",
        "time": 29,
        "note": 66,
        "velocity": 0,
        "channel": 3
      },
      {
        "type": "note_on",
        "time": 1,
        "note": 66,
        "velocity": 100,
        "channel": 3
      },
      {
        "type": "note_on",
        "time": 39,
        "note": 66,
        "velocity": 0,
        "channel": 3
      },
      {
        "type": "note_on",
        "time": 1,
        "note": 64,
        "velocity": 100,
        "channel": 3
      },
      {
        "type": "note_on",
        "time": 39,
        "note": 64,
        "velocity": 0,
        "channel": 3
      },
      {
        "type": "note_on",
        "time": 1,
        "note": 64,
        "velocity": 100,
        "channel": 3
      },
      {
        "type": "note_on",
        "time": 69,
        "note": 64,
        "velocity": 0,
        "channel": 3
      },
      {
        "type": "note_on",
        "time": 1,
        "note": 64,
        "velocity": 100,
        "channel": 3
      },
      {
        "type": "note_on",
        "time": 14,
        "note": 64,
        "velocity": 0,
        "channel": 3
      },
      {
        "type": "note_on",
        "time": 1,
        "note": 62,
        "velocity": 100,
        "channel": 3
      },
      {
        "type": "note_on",
        "time": 14,
        "note": 62,
        "velocity": 0,
        "channel": 3
      },
      {
        "type": "note_on",
        "time": 1,
        "note": 59,
        "velocity": 100,
        "channel": 3
      },
      {
        "type": "note_on",
        "time": 179,
        "note": 59,
        "velocity": 0,
        "channel": 3
      },
      {
        "type": "note_on",
        "time": 61,
        "note": 66,
        "velocity": 100,
        "channel": 3
      },
      {
        "type": "note_on",
        "time": 29,
        "note": 66,
        "velocity": 0,
        "channel": 3
      },
      {
        "type": "note_on",
        "time": 1,
        "note": 66,
        "velocity": 100,
        "channel": 3
      },
      {
        "type": "note_on",
        "time": 29,
        "note": 66,
        "velocity": 0,
        "channel": 3
      },
      {
        "type": "note_on",
        "time": 1,
        "note": 66,
        "velocity": 100,
        "channel": 3
      },
      {
        "type": "note_on",
        "time": 39,
        "note": 66,
        "velocity": 0,
        "channel": 3
      },
      {
        "type": "note_on",
        "time": 1,
        "note": 64,
        "velocity": 100,
        "channel": 3
      },
      {
        "type": "note_on",
        "time": 39,
        "note": 64,
        "velocity": 0,
        "channel": 3
      },
      {
        "type": "note_on",
        "time": 1,
        "note": 62,
        "velocity": 100,
        "channel": 3
      },
      {
        "type": "note_on",
        "time": 39,
        "note": 62,
        "velocity": 0,
        "channel": 3
      },
      {
        "type": "note_on",
        "time": 1,
        "note": 62,
        "velocity": 100,
        "channel": 3
      },
      {
        "type": "note_on",
        "time": 59,
        "note": 62,
        "velocity": 0,
        "channel": 3
      },
      {
        "type": "note_on",
        "time": 1,
        "note": 66,
        "velocity": 100,
        "channel": 3
      },
      {
        "type": "note_on",
        "time": 179,
        "note": 66,
        "velocity": 0,
        "channel": 3
      },
      {
        "type": "note_on",
        "time": 61,
        "note": 57,
        "velocity": 100,
        "channel": 3
      },
      {
        "type": "note_on",
        "time": 29,
        "note": 57,
        "velocity": 0,
        "channel": 3
      },
      {
        "type": "note_on",
        "time": 1,
        "note": 57,
        "velocity": 100,
        "channel": 3
      },
      {
        "type": "note_on",
        "time": 29,
        "note": 57,
        "velocity": 0,
        "channel": 3
      },
      {
        "type": "note_on",
        "time": 1,
        "note": 66,
        "velocity": 100,
        "channel": 3
      },
      {
        "type": "note_on",
        "time": 39,
        "note": 66,
        "velocity": 0,
        "channel": 3
      },
      {
        "type": "note_on",
        "time": 1,
        "note": 64,
        "velocity": 100,
        "channel": 3
      },
      {
        "type": "note_on",
        "time": 39,
        "note": 64,
        "velocity": 0,
        "channel": 3
      },
      {
        "type": "note_on",
        "time": 1,
        "note": 62,
        "velocity": 100,
        "channel": 3
      },
      {
        "type": "note_on",
        "time": 39,
        "note": 62,
        "velocity": 0,
        "channel": 3
      },
      {
        "type": "note_on",
        "time": 1,
        "note": 62,
        "velocity": 100,
        "channel": 3
      },
      {
        "type": "note_on",
        "time": 119,
        "note": 62,
        "velocity": 0,
        "channel": 3
      },
      {
        "type": "note_on",
        "time": 181,
        "note": 64,
        "velocity": 100,
        "channel": 3
      },
      {
        "type": "note_on",
        "time": 29,
        "note": 64,
        "velocity": 0,
        "channel": 3
      },
      {
        "type": "note_on",
        "time": 1,
        "note": 64,
        "velocity": 100,
        "channel": 3
      },
      {
        "type": "note_on",
        "time": 29,
        "note": 64,
        "velocity": 0,
        "channel": 3
      },
      {
        "type": "note_on",
        "time": 1,
        "note": 64,
        "velocity": 100,
        "channel": 3
      },
      {
        "type": "note_on",
        "time": 29,
        "note": 64,
        "velocity": 0,
        "channel": 3
      },
      {
        "type": "note_on",
        "time": 1,
        "note": 64,
        "velocity": 100,
        "channel": 3
      },
      {
        "type": "note_on",
        "time": 29,
        "note": 64,
        "velocity": 0,
        "channel": 3
      },
      {
        "type": "note_on",
        "time": 1,
        "note": 64,
        "velocity": 100,
        "channel": 3
      },
      {
        "type": "note_on",
        "time": 29,
        "note": 64,
        "velocity": 0,
        "channel": 3
      },
      {
        "type": "note_on",
        "time": 1,
        "note": 64,
        "velocity": 100,
        "channel": 3
      },
      {
        "type": "note_on",
        "time": 29,
        "note": 64,
        "velocity": 0,
        "channel": 3
      },
      {
        "type": "note_on",
        "time": 1,
        "note": 64,
        "velocity": 100,
        "channel": 3
      },
      {
        "type": "note_on",
        "time": 29,
        "note": 64,
        "velocity": 0,
        "channel": 3
      },
      {
        "type": "note_on",
        "time": 1,
        "note": 62,
        "velocity": 100,
        "channel": 3
      },
      {
        "type": "note_on",
        "time": 59,
        "note": 62,
        "velocity": 0,
        "channel": 3
      },
      {
        "type": "note_on",
        "time": 1,
        "note": 66,
        "velocity": 100,
        "channel": 3
      },
      {
        "type": "note_on",
        "time": 149,
        "note": 66,
        "velocity": 0,
        "channel": 3
      },
      {
        "type": "note_on",
        "time": 31,
        "note": 66,
        "velocity": 100,
        "channel": 3
      },
      {
        "type": "note_on",
        "time": 29,
        "note": 66,
        "velocity": 0,
        "channel": 3
      },
      {
        "type": "note_on",
        "time": 1,
        "note": 66,
        "velocity": 100,
        "channel": 3
      },
      {
        "type": "note_on",
        "time": 29,
        "note": 66,
        "velocity": 0,
        "channel": 3
      },
      {
        "type": "note_on",
        "time": 1,
        "note": 66,
        "velocity": 100,
        "channel": 3
      },
      {
        "type": "note_on",
        "time": 29,
        "note": 66,
        "velocity": 0,
        "channel": 3
      },
      {
        "type": "note_on",
        "time": 1,
        "note": 66,
        "velocity": 100,
        "channel": 3
      },
      {
        "type": "note_on",
        "time": 59,
        "note": 66,
        "velocity": 0,
        "channel": 3
      },
      {
        "type": "note_on",
        "time": 1,
        "note": 70,
        "velocity": 100,
        "channel": 3
      },
      {
        "type": "note_on",
        "time": 59,
        "note": 70,
        "velocity": 0,
        "channel": 3
      },
      {
        "type": "note_on",
        "time": 1,
        "note": 66,
        "velocity": 100,
        "channel": 3
      },
      {
        "type": "note_on",
        "time": 119,
        "note": 66,
        "velocity": 0,
        "channel": 3
      },
      {
        "type": "note_on",
        "time": 181,
        "note": 67,
        "velocity": 100,
        "channel": 3
      },
      {
        "type": "note_on",
        "time": 29,
        "note": 67,
        "velocity": 0,
        "channel": 3
      },
      {
        "type": "note_on",
        "time": 1,
        "note": 67,
        "velocity": 100,
        "channel": 3
      },
      {
        "type": "note_on",
        "time": 29,
        "note": 67,
        "velocity": 0,
        "channel": 3
      },
      {
        "type": "note_on",
        "time": 31,
        "note": 67,
        "velocity": 100,
        "channel": 3
      },
      {
        "type": "note_on",
        "time": 29,
        "note": 67,
        "velocity": 0,
        "channel": 3
      },
      {
        "type": "note_on",
        "time": 1,
        "note": 67,
        "velocity": 100,
        "channel": 3
      },
      {
        "type": "note_on",
        "time": 29,
        "note": 67,
        "velocity": 0,
        "channel": 3
      },
      {
        "type": "note_on",
        "time": 1,
        "note": 67,
        "velocity": 100,
        "channel": 3
      },
      {
        "type": "note_on",
        "time": 89,
        "note": 67,
        "velocity": 0,
        "channel": 3
      },
      {
        "type": "note_on",
        "time": 1,
        "note": 67,
        "velocity": 100,
        "channel": 3
      },
      {
        "type": "note_on",
        "time": 59,
        "note": 67,
        "velocity": 0,
        "channel": 3
      },
      {
        "type": "note_on",
        "time": 1,
        "note": 69,
        "velocity": 100,
        "channel": 3
      },
      {
        "type": "note_on",
        "time": 59,
        "note": 69,
        "velocity": 0,
        "channel": 3
      },
      {
        "type": "note_on",
        "time": 1,
        "note": 67,
        "velocity": 100,
        "channel": 3
      },
      {
        "type": "note_on",
        "time": 29,
        "note": 67,
        "velocity": 0,
        "channel": 3
      },
      {
        "type": "note_on",
        "time": 1,
        "note": 67,
        "velocity": 100,
        "channel": 3
      },
      {
        "type": "note_on",
        "time": 59,
        "note": 67,
        "velocity": 0,
        "channel": 3
      },
      {
        "type": "note_on",
        "time": 1,
        "note": 66,
        "velocity": 100,
        "channel": 3
      },
      {
        "type": "note_on",
        "time": 89,
        "note": 66,
        "velocity": 0,
        "channel": 3
      },
      {
        "type": "note_on",
        "time": 301,
        "note": 66,
        "velocity": 100,
        "channel": 3
      },
      {
        "type": "note_on",
        "time": 29,
        "note": 66,
        "velocity": 0,
        "channel": 3
      },
      {
        "type": "note_on",
        "time": 1,
        "note": 66,
        "velocity": 100,
        "channel": 3
      },
      {
        "type": "note_on",
        "time": 29,
        "note": 66,
        "velocity": 0,
        "channel": 3
      },
      {
        "type": "note_on",
        "time": 1,
        "note": 66,
        "velocity": 100,
        "channel": 3
      },
      {
        "type": "note_on",
        "time": 59,
        "note": 66,
        "velocity": 0,
        "channel": 3
      },
      {
        "type": "note_on",
        "time": 1,
        "note": 64,
        "velocity": 100,
        "channel": 3
      },
      {
        "type": "note_on",
        "time": 29,
        "note": 64,
        "velocity": 0,
        "channel": 3
      },
      {
        "type": "note_on",
        "time": 1,
        "note": 64,
        "velocity": 100,
        "channel": 3
      },
      {
        "type": "note_on",
        "time": 89,
        "note": 64,
        "velocity": 0,
        "channel": 3
      },
      {
        "type": "note_on",
        "time": 241,
        "note": 64,
        "velocity": 100,
        "channel": 3
      },
      {
        "type": "note_on",
        "time": 29,
        "note": 64,
        "velocity": 0,
        "channel": 3
      },
      {
        "type": "note_on",
        "time": 1,
        "note": 64,
        "velocity": 100,
        "channel": 3
      },
      {
        "type": "note_on",
        "time": 29,
        "note": 64,
        "velocity": 0,
        "channel": 3
      },
      {
        "type": "note_on",
        "time": 1,
        "note": 64,
        "velocity": 100,
        "channel": 3
      },
      {
        "type": "note_on",
        "time": 59,
        "note": 64,
        "velocity": 0,
        "channel": 3
      },
      {
        "type": "note_on",
        "time": 1,
        "note": 62,
        "velocity": 100,
        "channel": 3
      },
      {
        "type": "note_on",
        "time": 29,
        "note": 62,
        "velocity": 0,
        "channel": 3
      },
      {
        "type": "note_on",
        "time": 1,
        "note": 62,
        "velocity": 100,
        "channel": 3
      },
      {
        "type": "note_on",
        "time": 89,
        "note": 62,
        "velocity": 0,
        "channel": 3
      },
      {
        "type": "note_on",
        "time": 301,
        "note": 67,
        "velocity": 100,
        "channel": 3
      },
      {
        "type": "note_on",
        "time": 29,
        "note": 67,
        "velocity": 0,
        "channel": 3
      },
      {
        "type": "note_on",
        "time": 1,
        "note": 67,
        "velocity": 100,
        "channel": 3
      },
      {
        "type": "note_on",
        "time": 29,
        "note": 67,
        "velocity": 0,
        "channel": 3
      },
      {
        "type": "note_on",
        "time": 1,
        "note": 67,
        "velocity": 100,
        "channel": 3
      },
      {
        "type": "note_on",
        "time": 29,
        "note": 67,
        "velocity": 0,
        "channel": 3
      },
      {
        "type": "note_on",
        "time": 1,
        "note": 67,
        "velocity": 100,
        "channel": 3
      },
      {
        "type": "note_on",
        "time": 29,
        "note": 67,
        "velocity": 0,
        "channel": 3
      },
      {
        "type": "note_on",
        "time": 31,
        "note": 67,
        "velocity": 100,
        "channel": 3
      },
      {
        "type": "note_on",
        "time": 29,
        "note": 67,
        "velocity": 0,
        "channel": 3
      },
      {
        "type": "note_on",
        "time": 1,
        "note": 67,
        "velocity": 100,
        "channel": 3
      },
      {
        "type": "note_on",
        "time": 29,
        "note": 67,
        "velocity": 0,
        "channel": 3
      },
      {
        "type": "note_on",
        "time": 1,
        "note": 67,
        "velocity": 100,
        "channel": 3
      },
      {
        "type": "note_on",
        "time": 89,
        "note": 67,
        "velocity": 0,
        "channel": 3
      },
      {
        "type": "note_on",
        "time": 1,
        "note": 67,
        "velocity": 100,
        "channel": 3
      },
      {
        "type": "note_on",
        "time": 59,
        "note": 67,
        "velocity": 0,
        "channel": 3
      },
      {
        "type": "note_on",
        "time": 1,
        "note": 69,
        "velocity": 100,
        "channel": 3
      },
      {
        "type": "note_on",
        "time": 59,
        "note": 69,
        "velocity": 0,
        "channel": 3
      },
      {
        "type": "note_on",
        "time": 1,
        "note": 67,
        "velocity": 100,
        "channel": 3
      },
      {
        "type": "note_on",
        "time": 59,
        "note": 67,
        "velocity": 0,
        "channel": 3
      },
      {
        "type": "note_on",
        "time": 1,
        "note": 67,
        "velocity": 100,
        "channel": 3
      },
      {
        "type": "note_on",
        "time": 29,
        "note": 67,
        "velocity": 0,
        "channel": 3
      },
      {
        "type": "note_on",
        "time": 1,
        "note": 66,
        "velocity": 100,
        "channel": 3
      },
      {
        "type": "note_on",
        "time": 29,
        "note": 66,
        "velocity": 0,
        "channel": 3
      },
      {
        "type": "note_on",
        "time": 361,
        "note": 66,
        "velocity": 100,
        "channel": 3
      },
      {
        "type": "note_on",
        "time": 29,
        "note": 66,
        "velocity": 0,
        "channel": 3
      },
      {
        "type": "note_on",
        "time": 1,
        "note": 66,
        "velocity": 100,
        "channel": 3
      },
      {
        "type": "note_on",
        "time": 29,
        "note": 66,
        "velocity": 0,
        "channel": 3
      },
      {
        "type": "note_on",
        "time": 1,
        "note": 66,
        "velocity": 100,
        "channel": 3
      },
      {
        "type": "note_on",
        "time": 59,
        "note": 66,
        "velocity": 0,
        "channel": 3
      },
      {
        "type": "note_on",
        "time": 1,
        "note": 64,
        "velocity": 100,
        "channel": 3
      },
      {
        "type": "note_on",
        "time": 29,
        "note": 64,
        "velocity": 0,
        "channel": 3
      },
      {
        "type": "note_on",
        "time": 1,
        "note": 64,
        "velocity": 100,
        "channel": 3
      },
      {
        "type": "note_on",
        "time": 89,
        "note": 64,
        "velocity": 0,
        "channel": 3
      },
      {
        "type": "note_on",
        "time": 241,
        "note": 67,
        "velocity": 100,
        "channel": 3
      },
      {
        "type": "note_on",
        "time": 29,
        "note": 67,
        "velocity": 0,
        "channel": 3
      },
      {
        "type": "note_on",
        "time": 1,
        "note": 67,
        "velocity": 100,
        "channel": 3
      },
      {
        "type": "note_on",
        "time": 29,
        "note": 67,
        "velocity": 0,
        "channel": 3
      },
      {
        "type": "note_on",
        "time": 1,
        "note": 67,
        "velocity": 100,
        "channel": 3
      },
      {
        "type": "note_on",
        "time": 59,
        "note": 67,
        "velocity": 0,
        "channel": 3
      },
      {
        "type": "note_on",
        "time": 1,
        "note": 66,
        "velocity": 100,
        "channel": 3
      },
      {
        "type": "note_on",
        "time": 29,
        "note": 66,
        "velocity": 0,
        "channel": 3
      },
      {
        "type": "note_on",
        "time": 1,
        "note": 66,
        "velocity": 100,
        "channel": 3
      },
      {
        "type": "note_on",
        "time": 89,
        "note": 66,
        "velocity": 0,
        "channel": 3
      },
      {
        "type": "note_on",
        "time": 331,
        "note": 66,
        "velocity": 100,
        "channel": 3
      },
      {
        "type": "note_on",
        "time": 29,
        "note": 66,
        "velocity": 0,
        "channel": 3
      },
      {
        "type": "note_on",
        "time": 1,
        "note": 66,
        "velocity": 100,
        "channel": 3
      },
      {
        "type": "note_on",
        "time": 29,
        "note": 66,
        "velocity": 0,
        "channel": 3
      },
      {
        "type": "note_on",
        "time": 1,
        "note": 66,
        "velocity": 100,
        "channel": 3
      },
      {
        "type": "note_on",
        "time": 29,
        "note": 66,
        "velocity": 0,
        "channel": 3
      },
      {
        "type": "note_on",
        "time": 1,
        "note": 67,
        "velocity": 100,
        "channel": 3
      },
      {
        "type": "note_on",
        "time": 39,
        "note": 67,
        "velocity": 0,
        "channel": 3
      },
      {
        "type": "note_on",
        "time": 1,
        "note": 66,
        "velocity": 100,
        "channel": 3
      },
      {
        "type": "note_on",
        "time": 39,
        "note": 66,
        "velocity": 0,
        "channel": 3
      },
      {
        "type": "note_on",
        "time": 1,
        "note": 67,
        "velocity": 100,
        "channel": 3
      },
      {
        "type": "note_on",
        "time": 39,
        "note": 67,
        "velocity": 0,
        "channel": 3
      },
      {
        "type": "note_on",
        "time": 1,
        "note": 67,
        "velocity": 100,
        "channel": 3
      },
      {
        "type": "note_on",
        "time": 59,
        "note": 67,
        "velocity": 0,
        "channel": 3
      },
      {
        "type": "note_on",
        "time": 1,
        "note": 66,
        "velocity": 100,
        "channel": 3
      },
      {
        "type": "note_on",
        "time": 119,
        "note": 66,
        "velocity": 0,
        "channel": 3
      },
      {
        "type": "note_on",
        "time": 91,
        "note": 66,
        "velocity": 100,
        "channel": 3
      },
      {
        "type": "note_on",
        "time": 29,
        "note": 66,
        "velocity": 0,
        "channel": 3
      },
      {
        "type": "note_on",
        "time": 1,
        "note": 66,
        "velocity": 100,
        "channel": 3
      },
      {
        "type": "note_on",
        "time": 59,
        "note": 66,
        "velocity": 0,
        "channel": 3
      },
      {
        "type": "note_on",
        "time": 1,
        "note": 66,
        "velocity": 100,
        "channel": 3
      },
      {
        "type": "note_on",
        "time": 39,
        "note": 66,
        "velocity": 0,
        "channel": 3
      },
      {
        "type": "note_on",
        "time": 1,
        "note": 64,
        "velocity": 100,
        "channel": 3
      },
      {
        "type": "note_on",
        "time": 39,
        "note": 64,
        "velocity": 0,
        "channel": 3
      },
      {
        "type": "note_on",
        "time": 1,
        "note": 62,
        "velocity": 100,
        "channel": 3
      },
      {
        "type": "note_on",
        "time": 39,
        "note": 62,
        "velocity": 0,
        "channel": 3
      },
      {
        "type": "note_on",
        "time": 1,
        "note": 66,
        "velocity": 100,
        "channel": 3
      },
      {
        "type": "note_on",
        "time": 119,
        "note": 66,
        "velocity": 0,
        "channel": 3
      },
      {
        "type": "note_on",
        "time": 151,
        "note": 64,
        "velocity": 100,
        "channel": 3
      },
      {
        "type": "note_on",
        "time": 29,
        "note": 64,
        "velocity": 0,
        "channel": 3
      },
      {
        "type": "note_on",
        "time": 1,
        "note": 64,
        "velocity": 100,
        "channel": 3
      },
      {
        "type": "note_on",
        "time": 29,
        "note": 64,
        "velocity": 0,
        "channel": 3
      },
      {
        "type": "note_on",
        "time": 1,
        "note": 64,
        "velocity": 100,
        "channel": 3
      },
      {
        "type": "note_on",
        "time": 29,
        "note": 64,
        "velocity": 0,
        "channel": 3
      },
      {
        "type": "note_on",
        "time": 1,
        "note": 66,
        "velocity": 100,
        "channel": 3
      },
      {
        "type": "note_on",
        "time": 29,
        "note": 66,
        "velocity": 0,
        "channel": 3
      },
      {
        "type": "note_on",
        "time": 1,
        "note": 64,
        "velocity": 100,
        "channel": 3
      },
      {
        "type": "note_on",
        "time": 29,
        "note": 64,
        "velocity": 0,
        "channel": 3
      },
      {
        "type": "note_on",
        "time": 1,
        "note": 66,
        "velocity": 100,
        "channel": 3
      },
      {
        "type": "note_on",
        "time": 29,
        "note": 66,
        "velocity": 0,
        "channel": 3
      },
      {
        "type": "note_on",
        "time": 1,
        "note": 64,
        "velocity": 100,
        "channel": 3
      },
      {
        "type": "note_on",
        "time": 59,
        "note": 64,
        "velocity": 0,
        "channel": 3
      },
      {
        "type": "note_on",
        "time": 1,
        "note": 66,
        "velocity": 100,
        "channel": 3
      },
      {
        "type": "note_on",
        "time": 29,
        "note": 66,
        "velocity": 0,
        "channel": 3
      },
      {
        "type": "note_on",
        "time": 1,
        "note": 64,
        "velocity": 100,
        "channel": 3
      },
      {
        "type": "note_on",
        "time": 29,
        "note": 64,
        "velocity": 0,
        "channel": 3
      },
      {
        "type": "note_on",
        "time": 1,
        "note": 66,
        "velocity": 100,
        "channel": 3
      },
      {
        "type": "note_on",
        "time": 59,
        "note": 66,
        "velocity": 0,
        "channel": 3
      },
      {
        "type": "note_on",
        "time": 181,
        "note": 66,
        "velocity": 100,
        "channel": 3
      },
      {
        "type": "note_on",
        "time": 29,
        "note": 66,
        "velocity": 0,
        "channel": 3
      },
      {
        "type": "note_on",
        "time": 1,
        "note": 66,
        "velocity": 100,
        "channel": 3
      },
      {
        "type": "note_on",
        "time": 39,
        "note": 66,
        "velocity": 0,
        "channel": 3
      },
      {
        "type": "note_on",
        "time": 1,
        "note": 64,
        "velocity": 100,
        "channel": 3
      },
      {
        "type": "note_on",
        "time": 79,
        "note": 64,
        "velocity": 0,
        "channel": 3
      },
      {
        "type": "note_on",
        "time": 1,
        "note": 64,
        "velocity": 100,
        "channel": 3
      },
      {
        "type": "note_on",
        "time": 29,
        "note": 64,
        "velocity": 0,
        "channel": 3
      },
      {
        "type": "note_on",
        "time": 1,
        "note": 62,
        "velocity": 100,
        "channel": 3
      },
      {
        "type": "note_on",
        "time": 29,
        "note": 62,
        "velocity": 0,
        "channel": 3
      },
      {
        "type": "note_on",
        "time": 1,
        "note": 59,
        "velocity": 100,
        "channel": 3
      },
      {
        "type": "note_on",
        "time": 119,
        "note": 59,
        "velocity": 0,
        "channel": 3
      },
      {
        "type": "note_on",
        "time": 121,
        "note": 66,
        "velocity": 100,
        "channel": 3
      },
      {
        "type": "note_on",
        "time": 29,
        "note": 66,
        "velocity": 0,
        "channel": 3
      },
      {
        "type": "note_on",
        "time": 1,
        "note": 66,
        "velocity": 100,
        "channel": 3
      },
      {
        "type": "note_on",
        "time": 29,
        "note": 66,
        "velocity": 0,
        "channel": 3
      },
      {
        "type": "note_on",
        "time": 1,
        "note": 66,
        "velocity": 100,
        "channel": 3
      },
      {
        "type": "note_on",
        "time": 59,
        "note": 66,
        "velocity": 0,
        "channel": 3
      },
      {
        "type": "note_on",
        "time": 1,
        "note": 64,
        "velocity": 100,
        "channel": 3
      },
      {
        "type": "note_on",
        "time": 29,
        "note": 64,
        "velocity": 0,
        "channel": 3
      },
      {
        "type": "note_on",
        "time": 1,
        "note": 62,
        "velocity": 100,
        "channel": 3
      },
      {
        "type": "note_on",
        "time": 29,
        "note": 62,
        "velocity": 0,
        "channel": 3
      },
      {
        "type": "note_on",
        "time": 1,
        "note": 62,
        "velocity": 100,
        "channel": 3
      },
      {
        "type": "note_on",
        "time": 59,
        "note": 62,
        "velocity": 0,
        "channel": 3
      },
      {
        "type": "note_on",
        "time": 1,
        "note": 66,
        "velocity": 100,
        "channel": 3
      },
      {
        "type": "note_on",
        "time": 119,
        "note": 66,
        "velocity": 0,
        "channel": 3
      },
      {
        "type": "note_on",
        "time": 121,
        "note": 66,
        "velocity": 100,
        "channel": 3
      },
      {
        "type": "note_on",
        "time": 99,
        "note": 66,
        "velocity": 0,
        "channel": 3
      },
      {
        "type": "note_on",
        "time": 1,
        "note": 64,
        "velocity": 100,
        "channel": 3
      },
      {
        "type": "note_on",
        "time": 39,
        "note": 64,
        "velocity": 0,
        "channel": 3
      },
      {
        "type": "note_on",
        "time": 1,
        "note": 62,
        "velocity": 100,
        "channel": 3
      },
      {
        "type": "note_on",
        "time": 39,
        "note": 62,
        "velocity": 0,
        "channel": 3
      },
      {
        "type": "note_on",
        "time": 1,
        "note": 62,
        "velocity": 100,
        "channel": 3
      },
      {
        "type": "note_on",
        "time": 119,
        "note": 62,
        "velocity": 0,
        "channel": 3
      },
      {
        "type": "note_on",
        "time": 181,
        "note": 64,
        "velocity": 100,
        "channel": 3
      },
      {
        "type": "note_on",
        "time": 59,
        "note": 64,
        "velocity": 0,
        "channel": 3
      },
      {
        "type": "note_on",
        "time": 1,
        "note": 64,
        "velocity": 100,
        "channel": 3
      },
      {
        "type": "note_on",
        "time": 59,
        "note": 64,
        "velocity": 0,
        "channel": 3
      },
      {
        "type": "note_on",
        "time": 1,
        "note": 64,
        "velocity": 100,
        "channel": 3
      },
      {
        "type": "note_on",
        "time": 29,
        "note": 64,
        "velocity": 0,
        "channel": 3
      },
      {
        "type": "note_on",
        "time": 1,
        "note": 62,
        "velocity": 100,
        "channel": 3
      },
      {
        "type": "note_on",
        "time": 29,
        "note": 62,
        "velocity": 0,
        "channel": 3
      },
      {
        "type": "note_on",
        "time": 1,
        "note": 66,
        "velocity": 100,
        "channel": 3
      },
      {
        "type": "note_on",
        "time": 59,
        "note": 66,
        "velocity": 0,
        "channel": 3
      },
      {
        "type": "note_on",
        "time": 1,
        "note": 64,
        "velocity": 100,
        "channel": 3
      },
      {
        "type": "note_on",
        "time": 59,
        "note": 64,
        "velocity": 0,
        "channel": 3
      },
      {
        "type": "note_on",
        "time": 181,
        "note": 66,
        "velocity": 100,
        "channel": 3
      },
      {
        "type": "note_on",
        "time": 59,
        "note": 66,
        "velocity": 0,
        "channel": 3
      },
      {
        "type": "note_on",
        "time": 1,
        "note": 66,
        "velocity": 100,
        "channel": 3
      },
      {
        "type": "note_on",
        "time": 59,
        "note": 66,
        "velocity": 0,
        "channel": 3
      },
      {
        "type": "note_on",
        "time": 1,
        "note": 64,
        "velocity": 100,
        "channel": 3
      },
      {
        "type": "note_on",
        "time": 29,
        "note": 64,
        "velocity": 0,
        "channel": 3
      },
      {
        "type": "note_on",
        "time": 1,
        "note": 62,
        "velocity": 100,
        "channel": 3
      },
      {
        "type": "note_on",
        "time": 59,
        "note": 62,
        "velocity": 0,
        "channel": 3
      },
      {
        "type": "note_on",
        "time": 1,
        "note": 66,
        "velocity": 100,
        "channel": 3
      },
      {
        "type": "note_on",
        "time": 119,
        "note": 66,
        "velocity": 0,
        "channel": 3
      },
      {
        "type": "note_on",
        "time": 151,
        "note": 66,
        "velocity": 100,
        "channel": 3
      },
      {
        "type": "note_on",
        "time": 29,
        "note": 66,
        "velocity": 0,
        "channel": 3
      },
      {
        "type": "note_on",
        "time": 1,
        "note": 66,
        "velocity": 100,
        "channel": 3
      },
      {
        "type": "note_on",
        "time": 29,
        "note": 66,
        "velocity": 0,
        "channel": 3
      },
      {
        "type": "note_on",
        "time": 1,
        "note": 66,
        "velocity": 100,
        "channel": 3
      },
      {
        "type": "note_on",
        "time": 39,
        "note": 66,
        "velocity": 0,
        "channel": 3
      },
      {
        "type": "note_on",
        "time": 1,
        "note": 67,
        "velocity": 100,
        "channel": 3
      },
      {
        "type": "note_on",
        "time": 39,
        "note": 67,
        "velocity": 0,
        "channel": 3
      },
      {
        "type": "note_on",
        "time": 1,
        "note": 66,
        "velocity": 100,
        "channel": 3
      },
      {
        "type": "note_on",
        "time": 39,
        "note": 66,
        "velocity": 0,
        "channel": 3
      },
      {
        "type": "note_on",
        "time": 1,
        "note": 67,
        "velocity": 100,
        "channel": 3
      },
      {
        "type": "note_on",
        "time": 29,
        "note": 67,
        "velocity": 0,
        "channel": 3
      },
      {
        "type": "note_on",
        "time": 1,
        "note": 66,
        "velocity": 100,
        "channel": 3
      },
      {
        "type": "note_on",
        "time": 149,
        "note": 66,
        "velocity": 0,
        "channel": 3
      },
      {
        "type": "note_on",
        "time": 121,
        "note": 66,
        "velocity": 100,
        "channel": 3
      },
      {
        "type": "note_on",
        "time": 59,
        "note": 66,
        "velocity": 0,
        "channel": 3
      },
      {
        "type": "note_on",
        "time": 1,
        "note": 66,
        "velocity": 100,
        "channel": 3
      },
      {
        "type": "note_on",
        "time": 29,
        "note": 66,
        "velocity": 0,
        "channel": 3
      },
      {
        "type": "note_on",
        "time": 1,
        "note": 64,
        "velocity": 100,
        "channel": 3
      },
      {
        "type": "note_on",
        "time": 59,
        "note": 64,
        "velocity": 0,
        "channel": 3
      },
      {
        "type": "note_on",
        "time": 1,
        "note": 62,
        "velocity": 100,
        "channel": 3
      },
      {
        "type": "note_on",
        "time": 59,
        "note": 62,
        "velocity": 0,
        "channel": 3
      },
      {
        "type": "note_on",
        "time": 1,
        "note": 66,
        "velocity": 100,
        "channel": 3
      },
      {
        "type": "note_on",
        "time": 59,
        "note": 66,
        "velocity": 0,
        "channel": 3
      },
      {
        "type": "note_on",
        "time": 61,
        "note": 57,
        "velocity": 100,
        "channel": 3
      },
      {
        "type": "note_on",
        "time": 29,
        "note": 57,
        "velocity": 0,
        "channel": 3
      },
      {
        "type": "note_on",
        "time": 1,
        "note": 57,
        "velocity": 100,
        "channel": 3
      },
      {
        "type": "note_on",
        "time": 59,
        "note": 57,
        "velocity": 0,
        "channel": 3
      },
      {
        "type": "note_on",
        "time": 91,
        "note": 59,
        "velocity": 100,
        "channel": 3
      },
      {
        "type": "note_on",
        "time": 29,
        "note": 59,
        "velocity": 0,
        "channel": 3
      },
      {
        "type": "note_on",
        "time": 1,
        "note": 64,
        "velocity": 100,
        "channel": 3
      },
      {
        "type": "note_on",
        "time": 29,
        "note": 64,
        "velocity": 0,
        "channel": 3
      },
      {
        "type": "note_on",
        "time": 1,
        "note": 64,
        "velocity": 100,
        "channel": 3
      },
      {
        "type": "note_on",
        "time": 29,
        "note": 64,
        "velocity": 0,
        "channel": 3
      },
      {
        "type": "note_on",
        "time": 1,
        "note": 64,
        "velocity": 100,
        "channel": 3
      },
      {
        "type": "note_on",
        "time": 29,
        "note": 64,
        "velocity": 0,
        "channel": 3
      },
      {
        "type": "note_on",
        "time": 1,
        "note": 64,
        "velocity": 100,
        "channel": 3
      },
      {
        "type": "note_on",
        "time": 29,
        "note": 64,
        "velocity": 0,
        "channel": 3
      },
      {
        "type": "note_on",
        "time": 1,
        "note": 64,
        "velocity": 100,
        "channel": 3
      },
      {
        "type": "note_on",
        "time": 39,
        "note": 64,
        "velocity": 0,
        "channel": 3
      },
      {
        "type": "note_on",
        "time": 1,
        "note": 64,
        "velocity": 100,
        "channel": 3
      },
      {
        "type": "note_on",
        "time": 39,
        "note": 64,
        "velocity": 0,
        "channel": 3
      },
      {
        "type": "note_on",
        "time": 1,
        "note": 66,
        "velocity": 100,
        "channel": 3
      },
      {
        "type": "note_on",
        "time": 99,
        "note": 66,
        "velocity": 0,
        "channel": 3
      },
      {
        "type": "note_on",
        "time": 91,
        "note": 62,
        "velocity": 100,
        "channel": 3
      },
      {
        "type": "note_on",
        "time": 29,
        "note": 62,
        "velocity": 0,
        "channel": 3
      },
      {
        "type": "note_on",
        "time": 1,
        "note": 66,
        "velocity": 100,
        "channel": 3
      },
      {
        "type": "note_on",
        "time": 29,
        "note": 66,
        "velocity": 0,
        "channel": 3
      },
      {
        "type": "note_on",
        "time": 1,
        "note": 66,
        "velocity": 100,
        "channel": 3
      },
      {
        "type": "note_on",
        "time": 29,
        "note": 66,
        "velocity": 0,
        "channel": 3
      },
      {
        "type": "note_on",
        "time": 1,
        "note": 66,
        "velocity": 100,
        "channel": 3
      },
      {
        "type": "note_on",
        "time": 39,
        "note": 66,
        "velocity": 0,
        "channel": 3
      },
      {
        "type": "note_on",
        "time": 1,
        "note": 64,
        "velocity": 100,
        "channel": 3
      },
      {
        "type": "note_on",
        "time": 39,
        "note": 64,
        "velocity": 0,
        "channel": 3
      },
      {
        "type": "note_on",
        "time": 1,
        "note": 64,
        "velocity": 100,
        "channel": 3
      },
      {
        "type": "note_on",
        "time": 69,
        "note": 64,
        "velocity": 0,
        "channel": 3
      },
      {
        "type": "note_on",
        "time": 1,
        "note": 64,
        "velocity": 100,
        "channel": 3
      },
      {
        "type": "note_on",
        "time": 14,
        "note": 64,
        "velocity": 0,
        "channel": 3
      },
      {
        "type": "note_on",
        "time": 1,
        "note": 62,
        "velocity": 100,
        "channel": 3
      },
      {
        "type": "note_on",
        "time": 14,
        "note": 62,
        "velocity": 0,
        "channel": 3
      },
      {
        "type": "note_on",
        "time": 1,
        "note": 59,
        "velocity": 100,
        "channel": 3
      },
      {
        "type": "note_on",
        "time": 179,
        "note": 59,
        "velocity": 0,
        "channel": 3
      },
      {
        "type": "note_on",
        "time": 61,
        "note": 66,
        "velocity": 100,
        "channel": 3
      },
      {
        "type": "note_on",
        "time": 59,
        "note": 66,
        "velocity": 0,
        "channel": 3
      },
      {
        "type": "note_on",
        "time": 1,
        "note": 66,
        "velocity": 100,
        "channel": 3
      },
      {
        "type": "note_on",
        "time": 59,
        "note": 66,
        "velocity": 0,
        "channel": 3
      },
      {
        "type": "note_on",
        "time": 1,
        "note": 66,
        "velocity": 100,
        "channel": 3
      },
      {
        "type": "note_on",
        "time": 59,
        "note": 66,
        "velocity": 0,
        "channel": 3
      },
      {
        "type": "note_on",
        "time": 1,
        "note": 66,
        "velocity": 100,
        "channel": 3
      },
      {
        "type": "note_on",
        "time": 29,
        "note": 66,
        "velocity": 0,
        "channel": 3
      },
      {
        "type": "note_on",
        "time": 1,
        "note": 64,
        "velocity": 100,
        "channel": 3
      },
      {
        "type": "note_on",
        "time": 29,
        "note": 64,
        "velocity": 0,
        "channel": 3
      },
      {
        "type": "note_on",
        "time": 1,
        "note": 62,
        "velocity": 100,
        "channel": 3
      },
      {
        "type": "note_on",
        "time": 29,
        "note": 62,
        "velocity": 0,
        "channel": 3
      },
      {
        "type": "note_on",
        "time": 1,
        "note": 62,
        "velocity": 100,
        "channel": 3
      },
      {
        "type": "note_on",
        "time": 59,
        "note": 62,
        "velocity": 0,
        "channel": 3
      },
      {
        "type": "note_on",
        "time": 1,
        "note": 64,
        "velocity": 100,
        "channel": 3
      },
      {
        "type": "note_on",
        "time": 29,
        "note": 64,
        "velocity": 0,
        "channel": 3
      },
      {
        "type": "note_on",
        "time": 1,
        "note": 66,
        "velocity": 100,
        "channel": 3
      },
      {
        "type": "note_on",
        "time": 59,
        "note": 66,
        "velocity": 0,
        "channel": 3
      },
      {
        "type": "note_on",
        "time": 1,
        "note": 66,
        "velocity": 100,
        "channel": 3
      },
      {
        "type": "note_on",
        "time": 149,
        "note": 66,
        "velocity": 0,
        "channel": 3
      },
      {
        "type": "note_on",
        "time": 1,
        "note": 64,
        "velocity": 100,
        "channel": 3
      },
      {
        "type": "note_on",
        "time": 29,
        "note": 64,
        "velocity": 0,
        "channel": 3
      },
      {
        "type": "note_on",
        "time": 1,
        "note": 62,
        "velocity": 100,
        "channel": 3
      },
      {
        "type": "note_on",
        "time": 29,
        "note": 62,
        "velocity": 0,
        "channel": 3
      },
      {
        "type": "note_on",
        "time": 1,
        "note": 62,
        "velocity": 100,
        "channel": 3
      },
      {
        "type": "note_on",
        "time": 29,
        "note": 62,
        "velocity": 0,
        "channel": 3
      },
      {
        "type": "note_on",
        "time": 31,
        "note": 59,
        "velocity": 100,
        "channel": 3
      },
      {
        "type": "note_on",
        "time": 29,
        "note": 59,
        "velocity": 0,
        "channel": 3
      },
      {
        "type": "note_on",
        "time": 1,
        "note": 57,
        "velocity": 100,
        "channel": 3
      },
      {
        "type": "note_on",
        "time": 59,
        "note": 57,
        "velocity": 0,
        "channel": 3
      },
      {
        "type": "note_on",
        "time": 181,
        "note": 64,
        "velocity": 100,
        "channel": 3
      },
      {
        "type": "note_on",
        "time": 29,
        "note": 64,
        "velocity": 0,
        "channel": 3
      },
      {
        "type": "note_on",
        "time": 1,
        "note": 64,
        "velocity": 100,
        "channel": 3
      },
      {
        "type": "note_on",
        "time": 29,
        "note": 64,
        "velocity": 0,
        "channel": 3
      },
      {
        "type": "note_on",
        "time": 1,
        "note": 64,
        "velocity": 100,
        "channel": 3
      },
      {
        "type": "note_on",
        "time": 59,
        "note": 64,
        "velocity": 0,
        "channel": 3
      },
      {
        "type": "note_on",
        "time": 1,
        "note": 64,
        "velocity": 100,
        "channel": 3
      },
      {
        "type": "note_on",
        "time": 29,
        "note": 64,
        "velocity": 0,
        "channel": 3
      },
      {
        "type": "note_on",
        "time": 1,
        "note": 64,
        "velocity": 100,
        "channel": 3
      },
      {
        "type": "note_on",
        "time": 29,
        "note": 64,
        "velocity": 0,
        "channel": 3
      },
      {
        "type": "note_on",
        "time": 1,
        "note": 64,
        "velocity": 100,
        "channel": 3
      },
      {
        "type": "note_on",
        "time": 29,
        "note": 64,
        "velocity": 0,
        "channel": 3
      },
      {
        "type": "note_on",
        "time": 1,
        "note": 64,
        "velocity": 100,
        "channel": 3
      },
      {
        "type": "note_on",
        "time": 29,
        "note": 64,
        "velocity": 0,
        "channel": 3
      },
      {
        "type": "note_on",
        "time": 1,
        "note": 64,
        "velocity": 100,
        "channel": 3
      },
      {
        "type": "note_on",
        "time": 29,
        "note": 64,
        "velocity": 0,
        "channel": 3
      },
      {
        "type": "note_on",
        "time": 1,
        "note": 62,
        "velocity": 100,
        "channel": 3
      },
      {
        "type": "note_on",
        "time": 29,
        "note": 62,
        "velocity": 0,
        "channel": 3
      },
      {
        "type": "note_on",
        "time": 1,
        "note": 66,
        "velocity": 100,
        "channel": 3
      },
      {
        "type": "note_on",
        "time": 59,
        "note": 66,
        "velocity": 0,
        "channel": 3
      },
      {
        "type": "note_on",
        "time": 121,
        "note": 66,
        "velocity": 100,
        "channel": 3
      },
      {
        "type": "note_on",
        "time": 29,
        "note": 66,
        "velocity": 0,
        "channel": 3
      },
      {
        "type": "note_on",
        "time": 1,
        "note": 66,
        "velocity": 100,
        "channel": 3
      },
      {
        "type": "note_on",
        "time": 29,
        "note": 66,
        "velocity": 0,
        "channel": 3
      },
      {
        "type": "note_on",
        "time": 1,
        "note": 66,
        "velocity": 100,
        "channel": 3
      },
      {
        "type": "note_on",
        "time": 59,
        "note": 66,
        "velocity": 0,
        "channel": 3
      },
      {
        "type": "note_on",
        "time": 1,
        "note": 70,
        "velocity": 100,
        "channel": 3
      },
      {
        "type": "note_on",
        "time": 59,
        "note": 70,
        "velocity": 0,
        "channel": 3
      },
      {
        "type": "note_on",
        "time": 1,
        "note": 64,
        "velocity": 100,
        "channel": 3
      },
      {
        "type": "note_on",
        "time": 119,
        "note": 64,
        "velocity": 0,
        "channel": 3
      },
      {
        "type": "note_on",
        "time": 1,
        "note": 66,
        "velocity": 100,
        "channel": 3
      },
      {
        "type": "note_on",
        "time": 119,
        "note": 66,
        "velocity": 0,
        "channel": 3
      },
      {
        "type": "note_on",
        "time": 61,
        "note": 67,
        "velocity": 100,
        "channel": 3
      },
      {
        "type": "note_on",
        "time": 29,
        "note": 67,
        "velocity": 0,
        "channel": 3
      },
      {
        "type": "note_on",
        "time": 1,
        "note": 67,
        "velocity": 100,
        "channel": 3
      },
      {
        "type": "note_on",
        "time": 29,
        "note": 67,
        "velocity": 0,
        "channel": 3
      },
      {
        "type": "note_on",
        "time": 31,
        "note": 67,
        "velocity": 100,
        "channel": 3
      },
      {
        "type": "note_on",
        "time": 29,
        "note": 67,
        "velocity": 0,
        "channel": 3
      },
      {
        "type": "note_on",
        "time": 1,
        "note": 67,
        "velocity": 100,
        "channel": 3
      },
      {
        "type": "note_on",
        "time": 29,
        "note": 67,
        "velocity": 0,
        "channel": 3
      },
      {
        "type": "note_on",
        "time": 1,
        "note": 67,
        "velocity": 100,
        "channel": 3
      },
      {
        "type": "note_on",
        "time": 89,
        "note": 67,
        "velocity": 0,
        "channel": 3
      },
      {
        "type": "note_on",
        "time": 1,
        "note": 67,
        "velocity": 100,
        "channel": 3
      },
      {
        "type": "note_on",
        "time": 59,
        "note": 67,
        "velocity": 0,
        "channel": 3
      },
      {
        "type": "note_on",
        "time": 1,
        "note": 69,
        "velocity": 100,
        "channel": 3
      },
      {
        "type": "note_on",
        "time": 59,
        "note": 69,
        "velocity": 0,
        "channel": 3
      },
      {
        "type": "note_on",
        "time": 1,
        "note": 67,
        "velocity": 100,
        "channel": 3
      },
      {
        "type": "note_on",
        "time": 29,
        "note": 67,
        "velocity": 0,
        "channel": 3
      },
      {
        "type": "note_on",
        "time": 1,
        "note": 67,
        "velocity": 100,
        "channel": 3
      },
      {
        "type": "note_on",
        "time": 59,
        "note": 67,
        "velocity": 0,
        "channel": 3
      },
      {
        "type": "note_on",
        "time": 1,
        "note": 66,
        "velocity": 100,
        "channel": 3
      },
      {
        "type": "note_on",
        "time": 89,
        "note": 66,
        "velocity": 0,
        "channel": 3
      },
      {
        "type": "note_on",
        "time": 301,
        "note": 66,
        "velocity": 100,
        "channel": 3
      },
      {
        "type": "note_on",
        "time": 29,
        "note": 66,
        "velocity": 0,
        "channel": 3
      },
      {
        "type": "note_on",
        "time": 1,
        "note": 66,
        "velocity": 100,
        "channel": 3
      },
      {
        "type": "note_on",
        "time": 29,
        "note": 66,
        "velocity": 0,
        "channel": 3
      },
      {
        "type": "note_on",
        "time": 1,
        "note": 66,
        "velocity": 100,
        "channel": 3
      },
      {
        "type": "note_on",
        "time": 59,
        "note": 66,
        "velocity": 0,
        "channel": 3
      },
      {
        "type": "note_on",
        "time": 1,
        "note": 64,
        "velocity": 100,
        "channel": 3
      },
      {
        "type": "note_on",
        "time": 29,
        "note": 64,
        "velocity": 0,
        "channel": 3
      },
      {
        "type": "note_on",
        "time": 1,
        "note": 64,
        "velocity": 100,
        "channel": 3
      },
      {
        "type": "note_on",
        "time": 89,
        "note": 64,
        "velocity": 0,
        "channel": 3
      },
      {
        "type": "note_on",
        "time": 241,
        "note": 64,
        "velocity": 100,
        "channel": 3
      },
      {
        "type": "note_on",
        "time": 29,
        "note": 64,
        "velocity": 0,
        "channel": 3
      },
      {
        "type": "note_on",
        "time": 1,
        "note": 64,
        "velocity": 100,
        "channel": 3
      },
      {
        "type": "note_on",
        "time": 29,
        "note": 64,
        "velocity": 0,
        "channel": 3
      },
      {
        "type": "note_on",
        "time": 1,
        "note": 64,
        "velocity": 100,
        "channel": 3
      },
      {
        "type": "note_on",
        "time": 59,
        "note": 64,
        "velocity": 0,
        "channel": 3
      },
      {
        "type": "note_on",
        "time": 1,
        "note": 62,
        "velocity": 100,
        "channel": 3
      },
      {
        "type": "note_on",
        "time": 29,
        "note": 62,
        "velocity": 0,
        "channel": 3
      },
      {
        "type": "note_on",
        "time": 1,
        "note": 62,
        "velocity": 100,
        "channel": 3
      },
      {
        "type": "note_on",
        "time": 89,
        "note": 62,
        "velocity": 0,
        "channel": 3
      },
      {
        "type": "note_on",
        "time": 301,
        "note": 67,
        "velocity": 100,
        "channel": 3
      },
      {
        "type": "note_on",
        "time": 29,
        "note": 67,
        "velocity": 0,
        "channel": 3
      },
      {
        "type": "note_on",
        "time": 1,
        "note": 67,
        "velocity": 100,
        "channel": 3
      },
      {
        "type": "note_on",
        "time": 29,
        "note": 67,
        "velocity": 0,
        "channel": 3
      },
      {
        "type": "note_on",
        "time": 1,
        "note": 67,
        "velocity": 100,
        "channel": 3
      },
      {
        "type": "note_on",
        "time": 29,
        "note": 67,
        "velocity": 0,
        "channel": 3
      },
      {
        "type": "note_on",
        "time": 1,
        "note": 67,
        "velocity": 100,
        "channel": 3
      },
      {
        "type": "note_on",
        "time": 29,
        "note": 67,
        "velocity": 0,
        "channel": 3
      },
      {
        "type": "note_on",
        "time": 31,
        "note": 67,
        "velocity": 100,
        "channel": 3
      },
      {
        "type": "note_on",
        "time": 29,
        "note": 67,
        "velocity": 0,
        "channel": 3
      },
      {
        "type": "note_on",
        "time": 1,
        "note": 67,
        "velocity": 100,
        "channel": 3
      },
      {
        "type": "note_on",
        "time": 29,
        "note": 67,
        "velocity": 0,
        "channel": 3
      },
      {
        "type": "note_on",
        "time": 1,
        "note": 67,
        "velocity": 100,
        "channel": 3
      },
      {
        "type": "note_on",
        "time": 89,
        "note": 67,
        "velocity": 0,
        "channel": 3
      },
      {
        "type": "note_on",
        "time": 1,
        "note": 67,
        "velocity": 100,
        "channel": 3
      },
      {
        "type": "note_on",
        "time": 59,
        "note": 67,
        "velocity": 0,
        "channel": 3
      },
      {
        "type": "note_on",
        "time": 1,
        "note": 69,
        "velocity": 100,
        "channel": 3
      },
      {
        "type": "note_on",
        "time": 59,
        "note": 69,
        "velocity": 0,
        "channel": 3
      },
      {
        "type": "note_on",
        "time": 1,
        "note": 67,
        "velocity": 100,
        "channel": 3
      },
      {
        "type": "note_on",
        "time": 59,
        "note": 67,
        "velocity": 0,
        "channel": 3
      },
      {
        "type": "note_on",
        "time": 1,
        "note": 67,
        "velocity": 100,
        "channel": 3
      },
      {
        "type": "note_on",
        "time": 29,
        "note": 67,
        "velocity": 0,
        "channel": 3
      },
      {
        "type": "note_on",
        "time": 1,
        "note": 66,
        "velocity": 100,
        "channel": 3
      },
      {
        "type": "note_on",
        "time": 29,
        "note": 66,
        "velocity": 0,
        "channel": 3
      },
      {
        "type": "note_on",
        "time": 361,
        "note": 66,
        "velocity": 100,
        "channel": 3
      },
      {
        "type": "note_on",
        "time": 29,
        "note": 66,
        "velocity": 0,
        "channel": 3
      },
      {
        "type": "note_on",
        "time": 1,
        "note": 66,
        "velocity": 100,
        "channel": 3
      },
      {
        "type": "note_on",
        "time": 29,
        "note": 66,
        "velocity": 0,
        "channel": 3
      },
      {
        "type": "note_on",
        "time": 1,
        "note": 66,
        "velocity": 100,
        "channel": 3
      },
      {
        "type": "note_on",
        "time": 59,
        "note": 66,
        "velocity": 0,
        "channel": 3
      },
      {
        "type": "note_on",
        "time": 1,
        "note": 64,
        "velocity": 100,
        "channel": 3
      },
      {
        "type": "note_on",
        "time": 29,
        "note": 64,
        "velocity": 0,
        "channel": 3
      },
      {
        "type": "note_on",
        "time": 1,
        "note": 64,
        "velocity": 100,
        "channel": 3
      },
      {
        "type": "note_on",
        "time": 89,
        "note": 64,
        "velocity": 0,
        "channel": 3
      },
      {
        "type": "note_on",
        "time": 241,
        "note": 67,
        "velocity": 100,
        "channel": 3
      },
      {
        "type": "note_on",
        "time": 29,
        "note": 67,
        "velocity": 0,
        "channel": 3
      },
      {
        "type": "note_on",
        "time": 1,
        "note": 67,
        "velocity": 100,
        "channel": 3
      },
      {
        "type": "note_on",
        "time": 29,
        "note": 67,
        "velocity": 0,
        "channel": 3
      },
      {
        "type": "note_on",
        "time": 1,
        "note": 67,
        "velocity": 100,
        "channel": 3
      },
      {
        "type": "note_on",
        "time": 59,
        "note": 67,
        "velocity": 0,
        "channel": 3
      },
      {
        "type": "note_on",
        "time": 1,
        "note": 66,
        "velocity": 100,
        "channel": 3
      },
      {
        "type": "note_on",
        "time": 29,
        "note": 66,
        "velocity": 0,
        "channel": 3
      },
      {
        "type": "note_on",
        "time": 1,
        "note": 66,
        "velocity": 100,
        "channel": 3
      },
      {
        "type": "note_on",
        "time": 149,
        "note": 66,
        "velocity": 0,
        "channel": 3
      },
      {
        "type": "note_on",
        "time": 301,
        "note": 66,
        "velocity": 100,
        "channel": 3
      },
      {
        "type": "note_on",
        "time": 29,
        "note": 66,
        "velocity": 0,
        "channel": 3
      },
      {
        "type": "note_on",
        "time": 1,
        "note": 67,
        "velocity": 100,
        "channel": 3
      },
      {
        "type": "note_on",
        "time": 59,
        "note": 67,
        "velocity": 0,
        "channel": 3
      },
      {
        "type": "note_on",
        "time": 1,
        "note": 67,
        "velocity": 100,
        "channel": 3
      },
      {
        "type": "note_on",
        "time": 59,
        "note": 67,
        "velocity": 0,
        "channel": 3
      },
      {
        "type": "note_on",
        "time": 1,
        "note": 66,
        "velocity": 100,
        "channel": 3
      },
      {
        "type": "note_on",
        "time": 29,
        "note": 66,
        "velocity": 0,
        "channel": 3
      },
      {
        "type": "note_on",
        "time": 1,
        "note": 67,
        "velocity": 100,
        "channel": 3
      },
      {
        "type": "note_on",
        "time": 59,
        "note": 67,
        "velocity": 0,
        "channel": 3
      },
      {
        "type": "note_on",
        "time": 1,
        "note": 66,
        "velocity": 100,
        "channel": 3
      },
      {
        "type": "note_on",
        "time": 59,
        "note": 66,
        "velocity": 0,
        "channel": 3
      },
      {
        "type": "note_on",
        "time": 151,
        "note": 52,
        "velocity": 100,
        "channel": 3
      },
      {
        "type": "note_on",
        "time": 29,
        "note": 52,
        "velocity": 0,
        "channel": 3
      },
      {
        "type": "note_on",
        "time": 1,
        "note": 66,
        "velocity": 100,
        "channel": 3
      },
      {
        "type": "note_on",
        "time": 29,
        "note": 66,
        "velocity": 0,
        "channel": 3
      },
      {
        "type": "note_on",
        "time": 1,
        "note": 66,
        "velocity": 100,
        "channel": 3
      },
      {
        "type": "note_on",
        "time": 59,
        "note": 66,
        "velocity": 0,
        "channel": 3
      },
      {
        "type": "note_on",
        "time": 1,
        "note": 66,
        "velocity": 100,
        "channel": 3
      },
      {
        "type": "note_on",
        "time": 59,
        "note": 66,
        "velocity": 0,
        "channel": 3
      },
      {
        "type": "note_on",
        "time": 1,
        "note": 64,
        "velocity": 100,
        "channel": 3
      },
      {
        "type": "note_on",
        "time": 29,
        "note": 64,
        "velocity": 0,
        "channel": 3
      },
      {
        "type": "note_on",
        "time": 1,
        "note": 66,
        "velocity": 100,
        "channel": 3
      },
      {
        "type": "note_on",
        "time": 59,
        "note": 66,
        "velocity": 0,
        "channel": 3
      },
      {
        "type": "note_on",
        "time": 31,
        "note": 52,
        "velocity": 100,
        "channel": 3
      },
      {
        "type": "note_on",
        "time": 29,
        "note": 52,
        "velocity": 0,
        "channel": 3
      },
      {
        "type": "note_on",
        "time": 1,
        "note": 54,
        "velocity": 100,
        "channel": 3
      },
      {
        "type": "note_on",
        "time": 29,
        "note": 54,
        "velocity": 0,
        "channel": 3
      },
      {
        "type": "note_on",
        "time": 1,
        "note": 54,
        "velocity": 100,
        "channel": 3
      },
      {
        "type": "note_on",
        "time": 59,
        "note": 54,
        "velocity": 0,
        "channel": 3
      },
      {
        "type": "note_on",
        "time": 91,
        "note": 66,
        "velocity": 100,
        "channel": 3
      },
      {
        "type": "note_on",
        "time": 29,
        "note": 66,
        "velocity": 0,
        "channel": 3
      },
      {
        "type": "note_on",
        "time": 1,
        "note": 64,
        "velocity": 100,
        "channel": 3
      },
      {
        "type": "note_on",
        "time": 29,
        "note": 64,
        "velocity": 0,
        "channel": 3
      },
      {
        "type": "note_on",
        "time": 1,
        "note": 64,
        "velocity": 100,
        "channel": 3
      },
      {
        "type": "note_on",
        "time": 59,
        "note": 64,
        "velocity": 0,
        "channel": 3
      },
      {
        "type": "note_on",
        "time": 1,
        "note": 64,
        "velocity": 100,
        "channel": 3
      },
      {
        "type": "note_on",
        "time": 59,
        "note": 64,
        "velocity": 0,
        "channel": 3
      },
      {
        "type": "note_on",
        "time": 1,
        "note": 66,
        "velocity": 100,
        "channel": 3
      },
      {
        "type": "note_on",
        "time": 44,
        "note": 66,
        "velocity": 0,
        "channel": 3
      },
      {
        "type": "note_on",
        "time": 1,
        "note": 64,
        "velocity": 100,
        "channel": 3
      },
      {
        "type": "note_on",
        "time": 29,
        "note": 64,
        "velocity": 0,
        "channel": 3
      },
      {
        "type": "note_on",
        "time": 1,
        "note": 64,
        "velocity": 100,
        "channel": 3
      },
      {
        "type": "note_on",
        "time": 44,
        "note": 64,
        "velocity": 0,
        "channel": 3
      },
      {
        "type": "note_on",
        "time": 1,
        "note": 66,
        "velocity": 100,
        "channel": 3
      },
      {
        "type": "note_on",
        "time": 59,
        "note": 66,
        "velocity": 0,
        "channel": 3
      },
      {
        "type": "note_on",
        "time": 121,
        "note": 66,
        "velocity": 100,
        "channel": 3
      },
      {
        "type": "note_on",
        "time": 29,
        "note": 66,
        "velocity": 0,
        "channel": 3
      },
      {
        "type": "note_on",
        "time": 1,
        "note": 66,
        "velocity": 100,
        "channel": 3
      },
      {
        "type": "note_on",
        "time": 29,
        "note": 66,
        "velocity": 0,
        "channel": 3
      },
      {
        "type": "note_on",
        "time": 1,
        "note": 66,
        "velocity": 100,
        "channel": 3
      },
      {
        "type": "note_on",
        "time": 29,
        "note": 66,
        "velocity": 0,
        "channel": 3
      },
      {
        "type": "note_on",
        "time": 1,
        "note": 64,
        "velocity": 100,
        "channel": 3
      },
      {
        "type": "note_on",
        "time": 59,
        "note": 64,
        "velocity": 0,
        "channel": 3
      },
      {
        "type": "note_on",
        "time": 1,
        "note": 62,
        "velocity": 100,
        "channel": 3
      },
      {
        "type": "note_on",
        "time": 29,
        "note": 62,
        "velocity": 0,
        "channel": 3
      },
      {
        "type": "note_on",
        "time": 1,
        "note": 62,
        "velocity": 100,
        "channel": 3
      },
      {
        "type": "note_on",
        "time": 59,
        "note": 62,
        "velocity": 0,
        "channel": 3
      },
      {
        "type": "note_on",
        "time": 211,
        "note": 62,
        "velocity": 100,
        "channel": 3
      },
      {
        "type": "note_on",
        "time": 29,
        "note": 62,
        "velocity": 0,
        "channel": 3
      },
      {
        "type": "note_on",
        "time": 1,
        "note": 66,
        "velocity": 100,
        "channel": 3
      },
      {
        "type": "note_on",
        "time": 29,
        "note": 66,
        "velocity": 0,
        "channel": 3
      },
      {
        "type": "note_on",
        "time": 1,
        "note": 66,
        "velocity": 100,
        "channel": 3
      },
      {
        "type": "note_on",
        "time": 29,
        "note": 66,
        "velocity": 0,
        "channel": 3
      },
      {
        "type": "note_on",
        "time": 1,
        "note": 66,
        "velocity": 100,
        "channel": 3
      },
      {
        "type": "note_on",
        "time": 59,
        "note": 66,
        "velocity": 0,
        "channel": 3
      },
      {
        "type": "note_on",
        "time": 1,
        "note": 64,
        "velocity": 100,
        "channel": 3
      },
      {
        "type": "note_on",
        "time": 59,
        "note": 64,
        "velocity": 0,
        "channel": 3
      },
      {
        "type": "note_on",
        "time": 1,
        "note": 62,
        "velocity": 100,
        "channel": 3
      },
      {
        "type": "note_on",
        "time": 59,
        "note": 62,
        "velocity": 0,
        "channel": 3
      },
      {
        "type": "note_on",
        "time": 1,
        "note": 66,
        "velocity": 100,
        "channel": 3
      },
      {
        "type": "note_on",
        "time": 59,
        "note": 66,
        "velocity": 0,
        "channel": 3
      },
      {
        "type": "note_on",
        "time": 151,
        "note": 54,
        "velocity": 100,
        "channel": 3
      },
      {
        "type": "note_on",
        "time": 29,
        "note": 54,
        "velocity": 0,
        "channel": 3
      },
      {
        "type": "note_on",
        "time": 1,
        "note": 66,
        "velocity": 100,
        "channel": 3
      },
      {
        "type": "note_on",
        "time": 59,
        "note": 66,
        "velocity": 0,
        "channel": 3
      },
      {
        "type": "note_on",
        "time": 1,
        "note": 64,
        "velocity": 100,
        "channel": 3
      },
      {
        "type": "note_on",
        "time": 39,
        "note": 64,
        "velocity": 0,
        "channel": 3
      },
      {
        "type": "note_on",
        "time": 1,
        "note": 64,
        "velocity": 100,
        "channel": 3
      },
      {
        "type": "note_on",
        "time": 39,
        "note": 64,
        "velocity": 0,
        "channel": 3
      },
      {
        "type": "note_on",
        "time": 1,
        "note": 62,
        "velocity": 100,
        "channel": 3
      },
      {
        "type": "note_on",
        "time": 39,
        "note": 62,
        "velocity": 0,
        "channel": 3
      },
      {
        "type": "note_on",
        "time": 1,
        "note": 62,
        "velocity": 100,
        "channel": 3
      },
      {
        "type": "note_on",
        "time": 59,
        "note": 62,
        "velocity": 0,
        "channel": 3
      },
      {
        "type": "note_on",
        "time": 211,
        "note": 52,
        "velocity": 100,
        "channel": 3
      },
      {
        "type": "note_on",
        "time": 29,
        "note": 52,
        "velocity": 0,
        "channel": 3
      },
      {
        "type": "note_on",
        "time": 1,
        "note": 64,
        "velocity": 100,
        "channel": 3
      },
      {
        "type": "note_on",
        "time": 59,
        "note": 64,
        "velocity": 0,
        "channel": 3
      },
      {
        "type": "note_on",
        "time": 1,
        "note": 64,
        "velocity": 100,
        "channel": 3
      },
      {
        "type": "note_on",
        "time": 39,
        "note": 64,
        "velocity": 0,
        "channel": 3
      },
      {
        "type": "note_on",
        "time": 1,
        "note": 64,
        "velocity": 100,
        "channel": 3
      },
      {
        "type": "note_on",
        "time": 39,
        "note": 64,
        "velocity": 0,
        "channel": 3
      },
      {
        "type": "note_on",
        "time": 1,
        "note": 62,
        "velocity": 100,
        "channel": 3
      },
      {
        "type": "note_on",
        "time": 69,
        "note": 62,
        "velocity": 0,
        "channel": 3
      },
      {
        "type": "note_on",
        "time": 1,
        "note": 64,
        "velocity": 100,
        "channel": 3
      },
      {
        "type": "note_on",
        "time": 59,
        "note": 64,
        "velocity": 0,
        "channel": 3
      },
      {
        "type": "note_on",
        "time": 1,
        "note": 62,
        "velocity": 100,
        "channel": 3
      },
      {
        "type": "note_on",
        "time": 29,
        "note": 62,
        "velocity": 0,
        "channel": 3
      },
      {
        "type": "note_on",
        "time": 1,
        "note": 66,
        "velocity": 100,
        "channel": 3
      },
      {
        "type": "note_on",
        "time": 59,
        "note": 66,
        "velocity": 0,
        "channel": 3
      },
      {
        "type": "note_on",
        "time": 1,
        "note": 66,
        "velocity": 100,
        "channel": 3
      },
      {
        "type": "note_on",
        "time": 29,
        "note": 66,
        "velocity": 0,
        "channel": 3
      },
      {
        "type": "note_on",
        "time": 1,
        "note": 62,
        "velocity": 100,
        "channel": 3
      },
      {
        "type": "note_on",
        "time": 29,
        "note": 62,
        "velocity": 0,
        "channel": 3
      },
      {
        "type": "note_on",
        "time": 1,
        "note": 66,
        "velocity": 100,
        "channel": 3
      },
      {
        "type": "note_on",
        "time": 59,
        "note": 66,
        "velocity": 0,
        "channel": 3
      },
      {
        "type": "note_on",
        "time": 1,
        "note": 66,
        "velocity": 100,
        "channel": 3
      },
      {
        "type": "note_on",
        "time": 59,
        "note": 66,
        "velocity": 0,
        "channel": 3
      },
      {
        "type": "note_on",
        "time": 31,
        "note": 66,
        "velocity": 100,
        "channel": 3
      },
      {
        "type": "note_on",
        "time": 59,
        "note": 66,
        "velocity": 0,
        "channel": 3
      },
      {
        "type": "note_on",
        "time": 1,
        "note": 64,
        "velocity": 100,
        "channel": 3
      },
      {
        "type": "note_on",
        "time": 29,
        "note": 64,
        "velocity": 0,
        "channel": 3
      },
      {
        "type": "note_on",
        "time": 1,
        "note": 66,
        "velocity": 100,
        "channel": 3
      },
      {
        "type": "note_on",
        "time": 59,
        "note": 66,
        "velocity": 0,
        "channel": 3
      },
      {
        "type": "note_on",
        "time": 241,
        "note": 66,
        "velocity": 100,
        "channel": 3
      },
      {
        "type": "note_on",
        "time": 59,
        "note": 66,
        "velocity": 0,
        "channel": 3
      },
      {
        "type": "note_on",
        "time": 1,
        "note": 66,
        "velocity": 100,
        "channel": 3
      },
      {
        "type": "note_on",
        "time": 39,
        "note": 66,
        "velocity": 0,
        "channel": 3
      },
      {
        "type": "note_on",
        "time": 1,
        "note": 67,
        "velocity": 100,
        "channel": 3
      },
      {
        "type": "note_on",
        "time": 39,
        "note": 67,
        "velocity": 0,
        "channel": 3
      },
      {
        "type": "note_on",
        "time": 1,
        "note": 66,
        "velocity": 100,
        "channel": 3
      },
      {
        "type": "note_on",
        "time": 39,
        "note": 66,
        "velocity": 0,
        "channel": 3
      },
      {
        "type": "note_on",
        "time": 1,
        "note": 67,
        "velocity": 100,
        "channel": 3
      },
      {
        "type": "note_on",
        "time": 59,
        "note": 67,
        "velocity": 0,
        "channel": 3
      },
      {
        "type": "note_on",
        "time": 1,
        "note": 66,
        "velocity": 100,
        "channel": 3
      },
      {
        "type": "note_on",
        "time": 89,
        "note": 66,
        "velocity": 0,
        "channel": 3
      },
      {
        "type": "note_on",
        "time": 31,
        "note": 54,
        "velocity": 100,
        "channel": 3
      },
      {
        "type": "note_on",
        "time": 29,
        "note": 54,
        "velocity": 0,
        "channel": 3
      },
      {
        "type": "note_on",
        "time": 1,
        "note": 59,
        "velocity": 100,
        "channel": 3
      },
      {
        "type": "note_on",
        "time": 29,
        "note": 59,
        "velocity": 0,
        "channel": 3
      },
      {
        "type": "note_on",
        "time": 61,
        "note": 66,
        "velocity": 100,
        "channel": 3
      },
      {
        "type": "note_on",
        "time": 29,
        "note": 66,
        "velocity": 0,
        "channel": 3
      },
      {
        "type": "note_on",
        "time": 1,
        "note": 66,
        "velocity": 100,
        "channel": 3
      },
      {
        "type": "note_on",
        "time": 59,
        "note": 66,
        "velocity": 0,
        "channel": 3
      },
      {
        "type": "note_on",
        "time": 1,
        "note": 66,
        "velocity": 100,
        "channel": 3
      },
      {
        "type": "note_on",
        "time": 29,
        "note": 66,
        "velocity": 0,
        "channel": 3
      },
      {
        "type": "note_on",
        "time": 1,
        "note": 64,
        "velocity": 100,
        "channel": 3
      },
      {
        "type": "note_on",
        "time": 59,
        "note": 64,
        "velocity": 0,
        "channel": 3
      },
      {
        "type": "note_on",
        "time": 1,
        "note": 66,
        "velocity": 100,
        "channel": 3
      },
      {
        "type": "note_on",
        "time": 59,
        "note": 66,
        "velocity": 0,
        "channel": 3
      },
      {
        "type": "note_on",
        "time": 271,
        "note": 64,
        "velocity": 100,
        "channel": 3
      },
      {
        "type": "note_on",
        "time": 29,
        "note": 64,
        "velocity": 0,
        "channel": 3
      },
      {
        "type": "note_on",
        "time": 1,
        "note": 64,
        "velocity": 100,
        "channel": 3
      },
      {
        "type": "note_on",
        "time": 29,
        "note": 64,
        "velocity": 0,
        "channel": 3
      },
      {
        "type": "note_on",
        "time": 1,
        "note": 64,
        "velocity": 100,
        "channel": 3
      },
      {
        "type": "note_on",
        "time": 29,
        "note": 64,
        "velocity": 0,
        "channel": 3
      },
      {
        "type": "note_on",
        "time": 1,
        "note": 64,
        "velocity": 100,
        "channel": 3
      },
      {
        "type": "note_on",
        "time": 29,
        "note": 64,
        "velocity": 0,
        "channel": 3
      },
      {
        "type": "note_on",
        "time": 1,
        "note": 64,
        "velocity": 100,
        "channel": 3
      },
      {
        "type": "note_on",
        "time": 29,
        "note": 64,
        "velocity": 0,
        "channel": 3
      },
      {
        "type": "note_on",
        "time": 1,
        "note": 64,
        "velocity": 100,
        "channel": 3
      },
      {
        "type": "note_on",
        "time": 29,
        "note": 64,
        "velocity": 0,
        "channel": 3
      },
      {
        "type": "note_on",
        "time": 1,
        "note": 64,
        "velocity": 100,
        "channel": 3
      },
      {
        "type": "note_on",
        "time": 59,
        "note": 64,
        "velocity": 0,
        "channel": 3
      },
      {
        "type": "note_on",
        "time": 1,
        "note": 66,
        "velocity": 100,
        "channel": 3
      },
      {
        "type": "note_on",
        "time": 59,
        "note": 66,
        "velocity": 0,
        "channel": 3
      },
      {
        "type": "note_on",
        "time": 31,
        "note": 66,
        "velocity": 100,
        "channel": 3
      },
      {
        "type": "note_on",
        "time": 29,
        "note": 66,
        "velocity": 0,
        "channel": 3
      },
      {
        "type": "note_on",
        "time": 1,
        "note": 66,
        "velocity": 100,
        "channel": 3
      },
      {
        "type": "note_on",
        "time": 29,
        "note": 66,
        "velocity": 0,
        "channel": 3
      },
      {
        "type": "note_on",
        "time": 1,
        "note": 66,
        "velocity": 100,
        "channel": 3
      },
      {
        "type": "note_on",
        "time": 59,
        "note": 66,
        "velocity": 0,
        "channel": 3
      },
      {
        "type": "note_on",
        "time": 1,
        "note": 66,
        "velocity": 100,
        "channel": 3
      },
      {
        "type": "note_on",
        "time": 59,
        "note": 66,
        "velocity": 0,
        "channel": 3
      },
      {
        "type": "note_on",
        "time": 1,
        "note": 66,
        "velocity": 100,
        "channel": 3
      },
      {
        "type": "note_on",
        "time": 29,
        "note": 66,
        "velocity": 0,
        "channel": 3
      },
      {
        "type": "note_on",
        "time": 1,
        "note": 64,
        "velocity": 100,
        "channel": 3
      },
      {
        "type": "note_on",
        "time": 29,
        "note": 64,
        "velocity": 0,
        "channel": 3
      },
      {
        "type": "note_on",
        "time": 1,
        "note": 62,
        "velocity": 100,
        "channel": 3
      },
      {
        "type": "note_on",
        "time": 29,
        "note": 62,
        "velocity": 0,
        "channel": 3
      },
      {
        "type": "note_on",
        "time": 1,
        "note": 64,
        "velocity": 100,
        "channel": 3
      },
      {
        "type": "note_on",
        "time": 59,
        "note": 64,
        "velocity": 0,
        "channel": 3
      },
      {
        "type": "note_on",
        "time": 1,
        "note": 62,
        "velocity": 100,
        "channel": 3
      },
      {
        "type": "note_on",
        "time": 29,
        "note": 62,
        "velocity": 0,
        "channel": 3
      },
      {
        "type": "note_on",
        "time": 1,
        "note": 59,
        "velocity": 100,
        "channel": 3
      },
      {
        "type": "note_on",
        "time": 59,
        "note": 59,
        "velocity": 0,
        "channel": 3
      },
      {
        "type": "note_on",
        "time": 181,
        "note": 62,
        "velocity": 100,
        "channel": 3
      },
      {
        "type": "note_on",
        "time": 29,
        "note": 62,
        "velocity": 0,
        "channel": 3
      },
      {
        "type": "note_on",
        "time": 1,
        "note": 66,
        "velocity": 100,
        "channel": 3
      },
      {
        "type": "note_on",
        "time": 89,
        "note": 66,
        "velocity": 0,
        "channel": 3
      },
      {
        "type": "note_on",
        "time": 1,
        "note": 64,
        "velocity": 100,
        "channel": 3
      },
      {
        "type": "note_on",
        "time": 29,
        "note": 64,
        "velocity": 0,
        "channel": 3
      },
      {
        "type": "note_on",
        "time": 1,
        "note": 62,
        "velocity": 100,
        "channel": 3
      },
      {
        "type": "note_on",
        "time": 29,
        "note": 62,
        "velocity": 0,
        "channel": 3
      },
      {
        "type": "note_on",
        "time": 1,
        "note": 62,
        "velocity": 100,
        "channel": 3
      },
      {
        "type": "note_on",
        "time": 59,
        "note": 62,
        "velocity": 0,
        "channel": 3
      },
      {
        "type": "note_on",
        "time": 1,
        "note": 66,
        "velocity": 100,
        "channel": 3
      },
      {
        "type": "note_on",
        "time": 59,
        "note": 66,
        "velocity": 0,
        "channel": 3
      },
      {
        "type": "note_on",
        "time": 61,
        "note": 62,
        "velocity": 100,
        "channel": 3
      },
      {
        "type": "note_on",
        "time": 29,
        "note": 62,
        "velocity": 0,
        "channel": 3
      },
      {
        "type": "note_on",
        "time": 1,
        "note": 57,
        "velocity": 100,
        "channel": 3
      },
      {
        "type": "note_on",
        "time": 89,
        "note": 57,
        "velocity": 0,
        "channel": 3
      },
      {
        "type": "note_on",
        "time": 1,
        "note": 62,
        "velocity": 100,
        "channel": 3
      },
      {
        "type": "note_on",
        "time": 29,
        "note": 62,
        "velocity": 0,
        "channel": 3
      },
      {
        "type": "note_on",
        "time": 1,
        "note": 62,
        "velocity": 100,
        "channel": 3
      },
      {
        "type": "note_on",
        "time": 59,
        "note": 62,
        "velocity": 0,
        "channel": 3
      },
      {
        "type": "note_on",
        "time": 1,
        "note": 62,
        "velocity": 100,
        "channel": 3
      },
      {
        "type": "note_on",
        "time": 59,
        "note": 62,
        "velocity": 0,
        "channel": 3
      },
      {
        "type": "note_on",
        "time": 1,
        "note": 59,
        "velocity": 100,
        "channel": 3
      },
      {
        "type": "note_on",
        "time": 29,
        "note": 59,
        "velocity": 0,
        "channel": 3
      },
      {
        "type": "note_on",
        "time": 1,
        "note": 62,
        "velocity": 100,
        "channel": 3
      },
      {
        "type": "note_on",
        "time": 59,
        "note": 62,
        "velocity": 0,
        "channel": 3
      },
      {
        "type": "note_on",
        "time": 241,
        "note": 64,
        "velocity": 100,
        "channel": 3
      },
      {
        "type": "note_on",
        "time": 29,
        "note": 64,
        "velocity": 0,
        "channel": 3
      },
      {
        "type": "note_on",
        "time": 1,
        "note": 64,
        "velocity": 100,
        "channel": 3
      },
      {
        "type": "note_on",
        "time": 29,
        "note": 64,
        "velocity": 0,
        "channel": 3
      },
      {
        "type": "note_on",
        "time": 1,
        "note": 64,
        "velocity": 100,
        "channel": 3
      },
      {
        "type": "note_on",
        "time": 29,
        "note": 64,
        "velocity": 0,
        "channel": 3
      },
      {
        "type": "note_on",
        "time": 1,
        "note": 64,
        "velocity": 100,
        "channel": 3
      },
      {
        "type": "note_on",
        "time": 29,
        "note": 64,
        "velocity": 0,
        "channel": 3
      },
      {
        "type": "note_on",
        "time": 1,
        "note": 64,
        "velocity": 100,
        "channel": 3
      },
      {
        "type": "note_on",
        "time": 29,
        "note": 64,
        "velocity": 0,
        "channel": 3
      },
      {
        "type": "note_on",
        "time": 1,
        "note": 62,
        "velocity": 100,
        "channel": 3
      },
      {
        "type": "note_on",
        "time": 59,
        "note": 62,
        "velocity": 0,
        "channel": 3
      },
      {
        "type": "note_on",
        "time": 1,
        "note": 64,
        "velocity": 100,
        "channel": 3
      },
      {
        "type": "note_on",
        "time": 59,
        "note": 64,
        "velocity": 0,
        "channel": 3
      },
      {
        "type": "note_on",
        "time": 1,
        "note": 62,
        "velocity": 100,
        "channel": 3
      },
      {
        "type": "note_on",
        "time": 29,
        "note": 62,
        "velocity": 0,
        "channel": 3
      },
      {
        "type": "note_on",
        "time": 1,
        "note": 64,
        "velocity": 100,
        "channel": 3
      },
      {
        "type": "note_on",
        "time": 29,
        "note": 64,
        "velocity": 0,
        "channel": 3
      },
      {
        "type": "note_on",
        "time": 1,
        "note": 66,
        "velocity": 100,
        "channel": 3
      },
      {
        "type": "note_on",
        "time": 59,
        "note": 66,
        "velocity": 0,
        "channel": 3
      },
      {
        "type": "note_on",
        "time": 61,
        "note": 66,
        "velocity": 100,
        "channel": 3
      },
      {
        "type": "note_on",
        "time": 29,
        "note": 66,
        "velocity": 0,
        "channel": 3
      },
      {
        "type": "note_on",
        "time": 1,
        "note": 66,
        "velocity": 100,
        "channel": 3
      },
      {
        "type": "note_on",
        "time": 29,
        "note": 66,
        "velocity": 0,
        "channel": 3
      },
      {
        "type": "note_on",
        "time": 1,
        "note": 66,
        "velocity": 100,
        "channel": 3
      },
      {
        "type": "note_on",
        "time": 29,
        "note": 66,
        "velocity": 0,
        "channel": 3
      },
      {
        "type": "note_on",
        "time": 31,
        "note": 70,
        "velocity": 100,
        "channel": 3
      },
      {
        "type": "note_on",
        "time": 29,
        "note": 70,
        "velocity": 0,
        "channel": 3
      },
      {
        "type": "note_on",
        "time": 1,
        "note": 66,
        "velocity": 100,
        "channel": 3
      },
      {
        "type": "note_on",
        "time": 29,
        "note": 66,
        "velocity": 0,
        "channel": 3
      },
      {
        "type": "note_on",
        "time": 31,
        "note": 66,
        "velocity": 100,
        "channel": 3
      },
      {
        "type": "note_on",
        "time": 29,
        "note": 66,
        "velocity": 0,
        "channel": 3
      },
      {
        "type": "note_on",
        "time": 1,
        "note": 64,
        "velocity": 100,
        "channel": 3
      },
      {
        "type": "note_on",
        "time": 29,
        "note": 64,
        "velocity": 0,
        "channel": 3
      },
      {
        "type": "note_on",
        "time": 1,
        "note": 66,
        "velocity": 100,
        "channel": 3
      },
      {
        "type": "note_on",
        "time": 59,
        "note": 66,
        "velocity": 0,
        "channel": 3
      },
      {
        "type": "end_of_track",
        "time": 0
      }
    ],
    [
      {
        "type": "track_name",
        "name": "WinJammer Demo",
        "time": 0
      },
      {
        "type": "midi_port",
        "port": 0,
        "time": 0
      },
      {
        "type": "control_change",
        "time": 0,
        "control": 7,
        "value": 90,
        "channel": 4
      },
      {
        "type": "program_change",
        "time": 0,
        "program": 30,
        "channel": 4
      },
      {
        "type": "note_on",
        "time": 11520,
        "note": 59,
        "velocity": 90,
        "channel": 4
      },
      {
        "type": "note_on",
        "time": 359,
        "note": 59,
        "velocity": 0,
        "channel": 4
      },
      {
        "type": "note_on",
        "time": 1,
        "note": 59,
        "velocity": 90,
        "channel": 4
      },
      {
        "type": "note_on",
        "time": 119,
        "note": 59,
        "velocity": 0,
        "channel": 4
      },
      {
        "type": "note_on",
        "time": 1,
        "note": 58,
        "velocity": 90,
        "channel": 4
      },
      {
        "type": "note_on",
        "time": 479,
        "note": 58,
        "velocity": 0,
        "channel": 4
      },
      {
        "type": "note_on",
        "time": 1,
        "note": 57,
        "velocity": 90,
        "channel": 4
      },
      {
        "type": "note_on",
        "time": 479,
        "note": 57,
        "velocity": 0,
        "channel": 4
      },
      {
        "type": "note_on",
        "time": 1,
        "note": 56,
        "velocity": 90,
        "channel": 4
      },
      {
        "type": "note_on",
        "time": 479,
        "note": 56,
        "velocity": 0,
        "channel": 4
      },
      {
        "type": "note_on",
        "time": 1,
        "note": 55,
        "velocity": 90,
        "channel": 4
      },
      {
        "type": "note_on",
        "time": 479,
        "note": 55,
        "velocity": 0,
        "channel": 4
      },
      {
        "type": "note_on",
        "time": 1,
        "note": 54,
        "velocity": 90,
        "channel": 4
      },
      {
        "type": "note_on",
        "time": 359,
        "note": 54,
        "velocity": 0,
        "channel": 4
      },
      {
        "type": "note_on",
        "time": 1,
        "note": 54,
        "velocity": 90,
        "channel": 4
      },
      {
        "type": "note_on",
        "time": 119,
        "note": 54,
        "velocity": 0,
        "channel": 4
      },
      {
        "type": "note_on",
        "time": 1,
        "note": 55,
        "velocity": 90,
        "channel": 4
      },
      {
        "type": "note_on",
        "time": 359,
        "note": 55,
        "velocity": 0,
        "channel": 4
      },
      {
        "type": "note_on",
        "time": 1,
        "note": 59,
        "velocity": 90,
        "channel": 4
      },
      {
        "type": "note_on",
        "time": 119,
        "note": 59,
        "velocity": 0,
        "channel": 4
      },
      {
        "type": "note_on",
        "time": 1,
        "note": 58,
        "velocity": 90,
        "channel": 4
      },
      {
        "type": "note_on",
        "time": 359,
        "note": 58,
        "velocity": 0,
        "channel": 4
      },
      {
        "type": "note_on",
        "time": 1,
        "note": 47,
        "velocity": 90,
        "channel": 4
      },
      {
        "type": "note_on",
        "time": 29,
        "note": 47,
        "velocity": 0,
        "channel": 4
      },
      {
        "type": "note_on",
        "time": 1,
        "note": 49,
        "velocity": 90,
        "channel": 4
      },
      {
        "type": "note_on",
        "time": 29,
        "note": 49,
        "velocity": 0,
        "channel": 4
      },
      {
        "type": "note_on",
        "time": 1,
        "note": 50,
        "velocity": 90,
        "channel": 4
      },
      {
        "type": "note_on",
        "time": 29,
        "note": 50,
        "velocity": 0,
        "channel": 4
      },
      {
        "type": "note_on",
        "time": 1,
        "note": 54,
        "velocity": 90,
        "channel": 4
      },
      {
        "type": "note_on",
        "time": 29,
        "note": 54,
        "velocity": 0,
        "channel": 4
      },
      {
        "type": "note_on",
        "time": 1,
        "note": 50,
        "velocity": 90,
        "channel": 4
      },
      {
        "type": "note_on",
        "time": 239,
        "note": 50,
        "velocity": 0,
        "channel": 4
      },
      {
        "type": "note_on",
        "time": 301,
        "note": 61,
        "velocity": 90,
        "channel": 4
      },
      {
        "type": "note_on",
        "time": 29,
        "note": 61,
        "velocity": 0,
        "channel": 4
      },
      {
        "type": "note_on",
        "time": 1,
        "note": 61,
        "velocity": 90,
        "channel": 4
      },
      {
        "type": "note_on",
        "time": 59,
        "note": 61,
        "velocity": 0,
        "channel": 4
      },
      {
        "type": "note_on",
        "time": 1,
        "note": 59,
        "velocity": 90,
        "channel": 4
      },
      {
        "type": "note_on",
        "time": 59,
        "note": 59,
        "velocity": 0,
        "channel": 4
      },
      {
        "type": "note_on",
        "time": 1,
        "note": 57,
        "velocity": 90,
        "channel": 4
      },
      {
        "type": "note_on",
        "time": 29,
        "note": 57,
        "velocity": 0,
        "channel": 4
      },
      {
        "type": "note_on",
        "time": 1,
        "note": 61,
        "velocity": 90,
        "channel": 4
      },
      {
        "type": "note_on",
        "time": 59,
        "note": 61,
        "velocity": 0,
        "channel": 4
      },
      {
        "type": "note_on",
        "time": 1,
        "note": 59,
        "velocity": 90,
        "channel": 4
      },
      {
        "type": "note_on",
        "time": 59,
        "note": 59,
        "velocity": 0,
        "channel": 4
      },
      {
        "type": "note_on",
        "time": 1,
        "note": 57,
        "velocity": 90,
        "channel": 4
      },
      {
        "type": "note_on",
        "time": 119,
        "note": 57,
        "velocity": 0,
        "channel": 4
      },
      {
        "type": "note_on",
        "time": 481,
        "note": 47,
        "velocity": 90,
        "channel": 4
      },
      {
        "type": "note_on",
        "time": 119,
        "note": 47,
        "velocity": 0,
        "channel": 4
      },
      {
        "type": "note_on",
        "time": 1,
        "note": 49,
        "velocity": 90,
        "channel": 4
      },
      {
        "type": "note_on",
        "time": 119,
        "note": 49,
        "velocity": 0,
        "channel": 4
      },
      {
        "type": "note_on",
        "time": 1,
        "note": 50,
        "velocity": 90,
        "channel": 4
      },
      {
        "type": "note_on",
        "time": 119,
        "note": 50,
        "velocity": 0,
        "channel": 4
      },
      {
        "type": "note_on",
        "time": 1,
        "note": 52,
        "velocity": 90,
        "channel": 4
      },
      {
        "type": "note_on",
        "time": 59,
        "note": 52,
        "velocity": 0,
        "channel": 4
      },
      {
        "type": "note_on",
        "time": 1,
        "note": 54,
        "velocity": 90,
        "channel": 4
      },
      {
        "type": "note_on",
        "time": 59,
        "note": 54,
        "velocity": 0,
        "channel": 4
      },
      {
        "type": "note_on",
        "time": 1,
        "note": 55,
        "velocity": 90,
        "channel": 4
      },
      {
        "type": "note_on",
        "time": 239,
        "note": 55,
        "velocity": 0,
        "channel": 4
      },
      {
        "type": "note_on",
        "time": 301,
        "note": 61,
        "velocity": 90,
        "channel": 4
      },
      {
        "type": "note_on",
        "time": 29,
        "note": 61,
        "velocity": 0,
        "channel": 4
      },
      {
        "type": "note_on",
        "time": 1,
        "note": 61,
        "velocity": 90,
        "channel": 4
      },
      {
        "type": "note_on",
        "time": 59,
        "note": 61,
        "velocity": 0,
        "channel": 4
      },
      {
        "type": "note_on",
        "time": 1,
        "note": 59,
        "velocity": 90,
        "channel": 4
      },
      {
        "type": "note_on",
        "time": 59,
        "note": 59,
        "velocity": 0,
        "channel": 4
      },
      {
        "type": "note_on",
        "time": 1,
        "note": 57,
        "velocity": 90,
        "channel": 4
      },
      {
        "type": "note_on",
        "time": 29,
        "note": 57,
        "velocity": 0,
        "channel": 4
      },
      {
        "type": "note_on",
        "time": 1,
        "note": 45,
        "velocity": 90,
        "channel": 4
      },
      {
        "type": "note_on",
        "time": 29,
        "note": 45,
        "velocity": 0,
        "channel": 4
      },
      {
        "type": "note_on",
        "time": 1,
        "note": 50,
        "velocity": 90,
        "channel": 4
      },
      {
        "type": "note_on",
        "time": 29,
        "note": 50,
        "velocity": 0,
        "channel": 4
      },
      {
        "type": "note_on",
        "time": 1,
        "note": 55,
        "velocity": 90,
        "channel": 4
      },
      {
        "type": "note_on",
        "time": 59,
        "note": 55,
        "velocity": 0,
        "channel": 4
      },
      {
        "type": "note_on",
        "time": 1,
        "note": 54,
        "velocity": 90,
        "channel": 4
      },
      {
        "type": "note_on",
        "time": 0,
        "note": 50,
        "velocity": 90,
        "channel": 4
      },
      {
        "type": "note_on",
        "time": 119,
        "note": 54,
        "velocity": 0,
        "channel": 4
      },
      {
        "type": "note_on",
        "time": 0,
        "note": 50,
        "velocity": 0,
        "channel": 4
      },
      {
        "type": "note_on",
        "time": 961,
        "note": 59,
        "velocity": 90,
        "channel": 4
      },
      {
        "type": "note_on",
        "time": 239,
        "note": 59,
        "velocity": 0,
        "channel": 4
      },
      {
        "type": "note_on",
        "time": 121,
        "note": 61,
        "velocity": 90,
        "channel": 4
      },
      {
        "type": "note_on",
        "time": 59,
        "note": 61,
        "velocity": 0,
        "channel": 4
      },
      {
        "type": "note_on",
        "time": 1,
        "note": 62,
        "velocity": 90,
        "channel": 4
      },
      {
        "type": "note_on",
        "time": 59,
        "note": 62,
        "velocity": 0,
        "channel": 4
      },
      {
        "type": "note_on",
        "time": 1,
        "note": 58,
        "velocity": 90,
        "channel": 4
      },
      {
        "type": "note_on",
        "time": 359,
        "note": 58,
        "velocity": 0,
        "channel": 4
      },
      {
        "type": "note_on",
        "time": 1,
        "note": 58,
        "velocity": 90,
        "channel": 4
      },
      {
        "type": "note_on",
        "time": 119,
        "note": 58,
        "velocity": 0,
        "channel": 4
      },
      {
        "type": "note_on",
        "time": 1,
        "note": 57,
        "velocity": 90,
        "channel": 4
      },
      {
        "type": "note_on",
        "time": 479,
        "note": 57,
        "velocity": 0,
        "channel": 4
      },
      {
        "type": "note_on",
        "time": 1,
        "note": 56,
        "velocity": 90,
        "channel": 4
      },
      {
        "type": "note_on",
        "time": 359,
        "note": 56,
        "velocity": 0,
        "channel": 4
      },
      {
        "type": "note_on",
        "time": 1,
        "note": 61,
        "velocity": 90,
        "channel": 4
      },
      {
        "type": "note_on",
        "time": 59,
        "note": 61,
        "velocity": 0,
        "channel": 4
      },
      {
        "type": "note_on",
        "time": 1,
        "note": 62,
        "velocity": 90,
        "channel": 4
      },
      {
        "type": "note_on",
        "time": 59,
        "note": 62,
        "velocity": 0,
        "channel": 4
      },
      {
        "type": "note_on",
        "time": 1,
        "note": 55,
        "velocity": 90,
        "channel": 4
      },
      {
        "type": "note_on",
        "time": 359,
        "note": 55,
        "velocity": 0,
        "channel": 4
      },
      {
        "type": "note_on",
        "time": 1,
        "note": 59,
        "velocity": 90,
        "channel": 4
      },
      {
        "type": "note_on",
        "time": 29,
        "note": 59,
        "velocity": 0,
        "channel": 4
      },
      {
        "type": "note_on",
        "time": 1,
        "note": 61,
        "velocity": 90,
        "channel": 4
      },
      {
        "type": "note_on",
        "time": 29,
        "note": 61,
        "velocity": 0,
        "channel": 4
      },
      {
        "type": "note_on",
        "time": 1,
        "note": 62,
        "velocity": 90,
        "channel": 4
      },
      {
        "type": "note_on",
        "time": 59,
        "note": 62,
        "velocity": 0,
        "channel": 4
      },
      {
        "type": "note_on",
        "time": 1,
        "note": 54,
        "velocity": 90,
        "channel": 4
      },
      {
        "type": "note_on",
        "time": 359,
        "note": 54,
        "velocity": 0,
        "channel": 4
      },
      {
        "type": "note_on",
        "time": 1,
        "note": 54,
        "velocity": 90,
        "channel": 4
      },
      {
        "type": "note_on",
        "time": 119,
        "note": 54,
        "velocity": 0,
        "channel": 4
      },
      {
        "type": "note_on",
        "time": 1,
        "note": 55,
        "velocity": 90,
        "channel": 4
      },
      {
        "type": "note_on",
        "time": 359,
        "note": 55,
        "velocity": 0,
        "channel": 4
      },
      {
        "type": "note_on",
        "time": 1,
        "note": 59,
        "velocity": 90,
        "channel": 4
      },
      {
        "type": "note_on",
        "time": 119,
        "note": 59,
        "velocity": 0,
        "channel": 4
      },
      {
        "type": "note_on",
        "time": 1,
        "note": 58,
        "velocity": 90,
        "channel": 4
      },
      {
        "type": "note_on",
        "time": 179,
        "note": 58,
        "velocity": 0,
        "channel": 4
      },
      {
        "type": "note_on",
        "time": 1,
        "note": 58,
        "velocity": 90,
        "channel": 4
      },
      {
        "type": "note_on",
        "time": 59,
        "note": 58,
        "velocity": 0,
        "channel": 4
      },
      {
        "type": "note_on",
        "time": 1,
        "note": 59,
        "velocity": 90,
        "channel": 4
      },
      {
        "type": "note_on",
        "time": 119,
        "note": 59,
        "velocity": 0,
        "channel": 4
      },
      {
        "type": "note_on",
        "time": 1,
        "note": 61,
        "velocity": 90,
        "channel": 4
      },
      {
        "type": "note_on",
        "time": 119,
        "note": 61,
        "velocity": 0,
        "channel": 4
      },
      {
        "type": "note_on",
        "time": 1,
        "note": 59,
        "velocity": 90,
        "channel": 4
      },
      {
        "type": "note_on",
        "time": 239,
        "note": 59,
        "velocity": 0,
        "channel": 4
      },
      {
        "type": "note_on",
        "time": 1,
        "note": 78,
        "velocity": 90,
        "channel": 4
      },
      {
        "type": "note_on",
        "time": 29,
        "note": 78,
        "velocity": 0,
        "channel": 4
      },
      {
        "type": "note_on",
        "time": 1,
        "note": 77,
        "velocity": 90,
        "channel": 4
      },
      {
        "type": "note_on",
        "time": 29,
        "note": 77,
        "velocity": 0,
        "channel": 4
      },
      {
        "type": "note_on",
        "time": 1,
        "note": 78,
        "velocity": 90,
        "channel": 4
      },
      {
        "type": "note_on",
        "time": 179,
        "note": 78,
        "velocity": 0,
        "channel": 4
      },
      {
        "type": "note_on",
        "time": 1,
        "note": 58,
        "velocity": 90,
        "channel": 4
      },
      {
        "type": "note_on",
        "time": 239,
        "note": 58,
        "velocity": 0,
        "channel": 4
      },
      {
        "type": "note_on",
        "time": 1,
        "note": 78,
        "velocity": 90,
        "channel": 4
      },
      {
        "type": "note_on",
        "time": 29,
        "note": 78,
        "velocity": 0,
        "channel": 4
      },
      {
        "type": "note_on",
        "time": 1,
        "note": 77,
        "velocity": 90,
        "channel": 4
      },
      {
        "type": "note_on",
        "time": 29,
        "note": 77,
        "velocity": 0,
        "channel": 4
      },
      {
        "type": "note_on",
        "time": 1,
        "note": 78,
        "velocity": 90,
        "channel": 4
      },
      {
        "type": "note_on",
        "time": 179,
        "note": 78,
        "velocity": 0,
        "channel": 4
      },
      {
        "type": "note_on",
        "time": 1,
        "note": 57,
        "velocity": 90,
        "channel": 4
      },
      {
        "type": "note_on",
        "time": 239,
        "note": 57,
        "velocity": 0,
        "channel": 4
      },
      {
        "type": "note_on",
        "time": 1,
        "note": 76,
        "velocity": 90,
        "channel": 4
      },
      {
        "type": "note_on",
        "time": 29,
        "note": 76,
        "velocity": 0,
        "channel": 4
      },
      {
        "type": "note_on",
        "time": 1,
        "note": 75,
        "velocity": 90,
        "channel": 4
      },
      {
        "type": "note_on",
        "time": 29,
        "note": 75,
        "velocity": 0,
        "channel": 4
      },
      {
        "type": "note_on",
        "time": 1,
        "note": 76,
        "velocity": 90,
        "channel": 4
      },
      {
        "type": "note_on",
        "time": 179,
        "note": 76,
        "velocity": 0,
        "channel": 4
      },
      {
        "type": "note_on",
        "time": 1,
        "note": 56,
        "velocity": 90,
        "channel": 4
      },
      {
        "type": "note_on",
        "time": 239,
        "note": 56,
        "velocity": 0,
        "channel": 4
      },
      {
        "type": "note_on",
        "time": 1,
        "note": 76,
        "velocity": 90,
        "channel": 4
      },
      {
        "type": "note_on",
        "time": 29,
        "note": 76,
        "velocity": 0,
        "channel": 4
      },
      {
        "type": "note_on",
        "time": 1,
        "note": 75,
        "velocity": 90,
        "channel": 4
      },
      {
        "type": "note_on",
        "time": 29,
        "note": 75,
        "velocity": 0,
        "channel": 4
      },
      {
        "type": "note_on",
        "time": 1,
        "note": 76,
        "velocity": 90,
        "channel": 4
      },
      {
        "type": "note_on",
        "time": 179,
        "note": 76,
        "velocity": 0,
        "channel": 4
      },
      {
        "type": "note_on",
        "time": 1,
        "note": 55,
        "velocity": 90,
        "channel": 4
      },
      {
        "type": "note_on",
        "time": 239,
        "note": 55,
        "velocity": 0,
        "channel": 4
      },
      {
        "type": "note_on",
        "time": 1,
        "note": 79,
        "velocity": 90,
        "channel": 4
      },
      {
        "type": "note_on",
        "time": 29,
        "note": 79,
        "velocity": 0,
        "channel": 4
      },
      {
        "type": "note_on",
        "time": 1,
        "note": 78,
        "velocity": 90,
        "channel": 4
      },
      {
        "type": "note_on",
        "time": 29,
        "note": 78,
        "velocity": 0,
        "channel": 4
      },
      {
        "type": "note_on",
        "time": 1,
        "note": 79,
        "velocity": 90,
        "channel": 4
      },
      {
        "type": "note_on",
        "time": 179,
        "note": 79,
        "velocity": 0,
        "channel": 4
      },
      {
        "type": "note_on",
        "time": 1,
        "note": 54,
        "velocity": 90,
        "channel": 4
      },
      {
        "type": "note_on",
        "time": 239,
        "note": 54,
        "velocity": 0,
        "channel": 4
      },
      {
        "type": "note_on",
        "time": 1,
        "note": 78,
        "velocity": 90,
        "channel": 4
      },
      {
        "type": "note_on",
        "time": 29,
        "note": 78,
        "velocity": 0,
        "channel": 4
      },
      {
        "type": "note_on",
        "time": 1,
        "note": 76,
        "velocity": 90,
        "channel": 4
      },
      {
        "type": "note_on",
        "time": 29,
        "note": 76,
        "velocity": 0,
        "channel": 4
      },
      {
        "type": "note_on",
        "time": 1,
        "note": 78,
        "velocity": 90,
        "channel": 4
      },
      {
        "type": "note_on",
        "time": 179,
        "note": 78,
        "velocity": 0,
        "channel": 4
      },
      {
        "type": "note_on",
        "time": 1,
        "note": 55,
        "velocity": 90,
        "channel": 4
      },
      {
        "type": "note_on",
        "time": 239,
        "note": 55,
        "velocity": 0,
        "channel": 4
      },
      {
        "type": "note_on",
        "time": 1,
        "note": 71,
        "velocity": 90,
        "channel": 4
      },
      {
        "type": "note_on",
        "time": 29,
        "note": 71,
        "velocity": 0,
        "channel": 4
      },
      {
        "type": "note_on",
        "time": 1,
        "note": 70,
        "velocity": 90,
        "channel": 4
      },
      {
        "type": "note_on",
        "time": 29,
        "note": 70,
        "velocity": 0,
        "channel": 4
      },
      {
        "type": "note_on",
        "time": 1,
        "note": 71,
        "velocity": 90,
        "channel": 4
      },
      {
        "type": "note_on",
        "time": 59,
        "note": 71,
        "velocity": 0,
        "channel": 4
      },
      {
        "type": "note_on",
        "time": 1,
        "note": 59,
        "velocity": 90,
        "channel": 4
      },
      {
        "type": "note_on",
        "time": 119,
        "note": 59,
        "velocity": 0,
        "channel": 4
      },
      {
        "type": "note_on",
        "time": 1,
        "note": 58,
        "velocity": 90,
        "channel": 4
      },
      {
        "type": "note_on",
        "time": 239,
        "note": 58,
        "velocity": 0,
        "channel": 4
      },
      {
        "type": "note_on",
        "time": 121,
        "note": 47,
        "velocity": 90,
        "channel": 4
      },
      {
        "type": "note_on",
        "time": 29,
        "note": 47,
        "velocity": 0,
        "channel": 4
      },
      {
        "type": "note_on",
        "time": 1,
        "note": 49,
        "velocity": 90,
        "channel": 4
      },
      {
        "type": "note_on",
        "time": 29,
        "note": 49,
        "velocity": 0,
        "channel": 4
      },
      {
        "type": "note_on",
        "time": 1,
        "note": 50,
        "velocity": 90,
        "channel": 4
      },
      {
        "type": "note_on",
        "time": 29,
        "note": 50,
        "velocity": 0,
        "channel": 4
      },
      {
        "type": "note_on",
        "time": 1,
        "note": 54,
        "velocity": 90,
        "channel": 4
      },
      {
        "type": "note_on",
        "time": 29,
        "note": 54,
        "velocity": 0,
        "channel": 4
      },
      {
        "type": "note_on",
        "time": 1,
        "note": 50,
        "velocity": 90,
        "channel": 4
      },
      {
        "type": "note_on",
        "time": 239,
        "note": 50,
        "velocity": 0,
        "channel": 4
      },
      {
        "type": "note_on",
        "time": 271,
        "note": 62,
        "velocity": 90,
        "channel": 4
      },
      {
        "type": "note_on",
        "time": 29,
        "note": 62,
        "velocity": 0,
        "channel": 4
      },
      {
        "type": "note_on",
        "time": 1,
        "note": 66,
        "velocity": 90,
        "channel": 4
      },
      {
        "type": "note_on",
        "time": 29,
        "note": 66,
        "velocity": 0,
        "channel": 4
      },
      {
        "type": "note_on",
        "time": 1,
        "note": 69,
        "velocity": 90,
        "channel": 4
      },
      {
        "type": "note_on",
        "time": 29,
        "note": 69,
        "velocity": 0,
        "channel": 4
      },
      {
        "type": "note_on",
        "time": 1,
        "note": 66,
        "velocity": 90,
        "channel": 4
      },
      {
        "type": "note_on",
        "time": 29,
        "note": 66,
        "velocity": 0,
        "channel": 4
      },
      {
        "type": "note_on",
        "time": 1,
        "note": 64,
        "velocity": 90,
        "channel": 4
      },
      {
        "type": "note_on",
        "time": 29,
        "note": 64,
        "velocity": 0,
        "channel": 4
      },
      {
        "type": "note_on",
        "time": 1,
        "note": 62,
        "velocity": 90,
        "channel": 4
      },
      {
        "type": "note_on",
        "time": 59,
        "note": 62,
        "velocity": 0,
        "channel": 4
      },
      {
        "type": "note_on",
        "time": 1,
        "note": 66,
        "velocity": 90,
        "channel": 4
      },
      {
        "type": "note_on",
        "time": 59,
        "note": 66,
        "velocity": 0,
        "channel": 4
      },
      {
        "type": "note_on",
        "time": 1,
        "note": 69,
        "velocity": 90,
        "channel": 4
      },
      {
        "type": "note_on",
        "time": 59,
        "note": 69,
        "velocity": 0,
        "channel": 4
      },
      {
        "type": "note_on",
        "time": 1,
        "note": 86,
        "velocity": 90,
        "channel": 4
      },
      {
        "type": "note_on",
        "time": 59,
        "note": 86,
        "velocity": 0,
        "channel": 4
      },
      {
        "type": "note_on",
        "time": 1,
        "note": 85,
        "velocity": 90,
        "channel": 4
      },
      {
        "type": "note_on",
        "time": 299,
        "note": 85,
        "velocity": 0,
        "channel": 4
      },
      {
        "type": "note_on",
        "time": 241,
        "note": 47,
        "velocity": 90,
        "channel": 4
      },
      {
        "type": "note_on",
        "time": 119,
        "note": 47,
        "velocity": 0,
        "channel": 4
      },
      {
        "type": "note_on",
        "time": 1,
        "note": 49,
        "velocity": 90,
        "channel": 4
      },
      {
        "type": "note_on",
        "time": 119,
        "note": 49,
        "velocity": 0,
        "channel": 4
      },
      {
        "type": "note_on",
        "time": 1,
        "note": 50,
        "velocity": 90,
        "channel": 4
      },
      {
        "type": "note_on",
        "time": 119,
        "note": 50,
        "velocity": 0,
        "channel": 4
      },
      {
        "type": "note_on",
        "time": 1,
        "note": 52,
        "velocity": 90,
        "channel": 4
      },
      {
        "type": "note_on",
        "time": 59,
        "note": 52,
        "velocity": 0,
        "channel": 4
      },
      {
        "type": "note_on",
        "time": 1,
        "note": 54,
        "velocity": 90,
        "channel": 4
      },
      {
        "type": "note_on",
        "time": 59,
        "note": 54,
        "velocity": 0,
        "channel": 4
      },
      {
        "type": "note_on",
        "time": 1,
        "note": 55,
        "velocity": 90,
        "channel": 4
      },
      {
        "type": "note_on",
        "time": 239,
        "note": 55,
        "velocity": 0,
        "channel": 4
      },
      {
        "type": "note_on",
        "time": 301,
        "note": 83,
        "velocity": 90,
        "channel": 4
      },
      {
        "type": "note_on",
        "time": 119,
        "note": 83,
        "velocity": 0,
        "channel": 4
      },
      {
        "type": "note_on",
        "time": 1,
        "note": 86,
        "velocity": 90,
        "channel": 4
      },
      {
        "type": "note_on",
        "time": 29,
        "note": 86,
        "velocity": 0,
        "channel": 4
      },
      {
        "type": "note_on",
        "time": 1,
        "note": 86,
        "velocity": 90,
        "channel": 4
      },
      {
        "type": "note_on",
        "time": 29,
        "note": 86,
        "velocity": 0,
        "channel": 4
      },
      {
        "type": "note_on",
        "time": 1,
        "note": 83,
        "velocity": 90,
        "channel": 4
      },
      {
        "type": "note_on",
        "time": 29,
        "note": 83,
        "velocity": 0,
        "channel": 4
      },
      {
        "type": "note_on",
        "time": 1,
        "note": 81,
        "velocity": 90,
        "channel": 4
      },
      {
        "type": "note_on",
        "time": 29,
        "note": 81,
        "velocity": 0,
        "channel": 4
      },
      {
        "type": "note_on",
        "time": 1,
        "note": 78,
        "velocity": 90,
        "channel": 4
      },
      {
        "type": "note_on",
        "time": 59,
        "note": 78,
        "velocity": 0,
        "channel": 4
      },
      {
        "type": "note_on",
        "time": 1,
        "note": 90,
        "velocity": 90,
        "channel": 4
      },
      {
        "type": "note_on",
        "time": 59,
        "note": 90,
        "velocity": 0,
        "channel": 4
      },
      {
        "type": "note_on",
        "time": 1,
        "note": 88,
        "velocity": 90,
        "channel": 4
      },
      {
        "type": "note_on",
        "time": 299,
        "note": 88,
        "velocity": 0,
        "channel": 4
      },
      {
        "type": "note_on",
        "time": 4561,
        "note": 59,
        "velocity": 90,
        "channel": 4
      },
      {
        "type": "note_on",
        "time": 239,
        "note": 59,
        "velocity": 0,
        "channel": 4
      },
      {
        "type": "note_on",
        "time": 1,
        "note": 78,
        "velocity": 90,
        "channel": 4
      },
      {
        "type": "note_on",
        "time": 29,
        "note": 78,
        "velocity": 0,
        "channel": 4
      },
      {
        "type": "note_on",
        "time": 1,
        "note": 77,
        "velocity": 90,
        "channel": 4
      },
      {
        "type": "note_on",
        "time": 29,
        "note": 77,
        "velocity": 0,
        "channel": 4
      },
      {
        "type": "note_on",
        "time": 1,
        "note": 78,
        "velocity": 90,
        "channel": 4
      },
      {
        "type": "note_on",
        "time": 179,
        "note": 78,
        "velocity": 0,
        "channel": 4
      },
      {
        "type": "note_on",
        "time": 1,
        "note": 58,
        "velocity": 90,
        "channel": 4
      },
      {
        "type": "note_on",
        "time": 239,
        "note": 58,
        "velocity": 0,
        "channel": 4
      },
      {
        "type": "note_on",
        "time": 1,
        "note": 78,
        "velocity": 90,
        "channel": 4
      },
      {
        "type": "note_on",
        "time": 29,
        "note": 78,
        "velocity": 0,
        "channel": 4
      },
      {
        "type": "note_on",
        "time": 1,
        "note": 77,
        "velocity": 90,
        "channel": 4
      },
      {
        "type": "note_on",
        "time": 29,
        "note": 77,
        "velocity": 0,
        "channel": 4
      },
      {
        "type": "note_on",
        "time": 1,
        "note": 78,
        "velocity": 90,
        "channel": 4
      },
      {
        "type": "note_on",
        "time": 179,
        "note": 78,
        "velocity": 0,
        "channel": 4
      },
      {
        "type": "note_on",
        "time": 1,
        "note": 57,
        "velocity": 90,
        "channel": 4
      },
      {
        "type": "note_on",
        "time": 239,
        "note": 57,
        "velocity": 0,
        "channel": 4
      },
      {
        "type": "note_on",
        "time": 1,
        "note": 76,
        "velocity": 90,
        "channel": 4
      },
      {
        "type": "note_on",
        "time": 29,
        "note": 76,
        "velocity": 0,
        "channel": 4
      },
      {
        "type": "note_on",
        "time": 1,
        "note": 75,
        "velocity": 90,
        "channel": 4
      },
      {
        "type": "note_on",
        "time": 29,
        "note": 75,
        "velocity": 0,
        "channel": 4
      },
      {
        "type": "note_on",
        "time": 1,
        "note": 76,
        "velocity": 90,
        "channel": 4
      },
      {
        "type": "note_on",
        "time": 179,
        "note": 76,
        "velocity": 0,
        "channel": 4
      },
      {
        "type": "note_on",
        "time": 1,
        "note": 56,
        "velocity": 90,
        "channel": 4
      },
      {
        "type": "note_on",
        "time": 239,
        "note": 56,
        "velocity": 0,
        "channel": 4
      },
      {
        "type": "note_on",
        "time": 1,
        "note": 76,
        "velocity": 90,
        "channel": 4
      },
      {
        "type": "note_on",
        "time": 29,
        "note": 76,
        "velocity": 0,
        "channel": 4
      },
      {
        "type": "note_on",
        "time": 1,
        "note": 75,
        "velocity": 90,
        "channel": 4
      },
      {
        "type": "note_on",
        "time": 29,
        "note": 75,
        "velocity": 0,
        "channel": 4
      },
      {
        "type": "note_on",
        "time": 1,
        "note": 76,
        "velocity": 90,
        "channel": 4
      },
      {
        "type": "note_on",
        "time": 179,
        "note": 76,
        "velocity": 0,
        "channel": 4
      },
      {
        "type": "note_on",
        "time": 1,
        "note": 55,
        "velocity": 90,
        "channel": 4
      },
      {
        "type": "note_on",
        "time": 239,
        "note": 55,
        "velocity": 0,
        "channel": 4
      },
      {
        "type": "note_on",
        "time": 1,
        "note": 79,
        "velocity": 90,
        "channel": 4
      },
      {
        "type": "note_on",
        "time": 29,
        "note": 79,
        "velocity": 0,
        "channel": 4
      },
      {
        "type": "note_on",
        "time": 1,
        "note": 78,
        "velocity": 90,
        "channel": 4
      },
      {
        "type": "note_on",
        "time": 29,
        "note": 78,
        "velocity": 0,
        "channel": 4
      },
      {
        "type": "note_on",
        "time": 1,
        "note": 79,
        "velocity": 90,
        "channel": 4
      },
      {
        "type": "note_on",
        "time": 179,
        "note": 79,
        "velocity": 0,
        "channel": 4
      },
      {
        "type": "note_on",
        "time": 1,
        "note": 54,
        "velocity": 90,
        "channel": 4
      },
      {
        "type": "note_on",
        "time": 239,
        "note": 54,
        "velocity": 0,
        "channel": 4
      },
      {
        "type": "note_on",
        "time": 1,
        "note": 78,
        "velocity": 90,
        "channel": 4
      },
      {
        "type": "note_on",
        "time": 29,
        "note": 78,
        "velocity": 0,
        "channel": 4
      },
      {
        "type": "note_on",
        "time": 1,
        "note": 76,
        "velocity": 90,
        "channel": 4
      },
      {
        "type": "note_on",
        "time": 29,
        "note": 76,
        "velocity": 0,
        "channel": 4
      },
      {
        "type": "note_on",
        "time": 1,
        "note": 78,
        "velocity": 90,
        "channel": 4
      },
      {
        "type": "note_on",
        "time": 179,
        "note": 78,
        "velocity": 0,
        "channel": 4
      },
      {
        "type": "note_on",
        "time": 1,
        "note": 55,
        "velocity": 90,
        "channel": 4
      },
      {
        "type": "note_on",
        "time": 239,
        "note": 55,
        "velocity": 0,
        "channel": 4
      },
      {
        "type": "note_on",
        "time": 1,
        "note": 71,
        "velocity": 90,
        "channel": 4
      },
      {
        "type": "note_on",
        "time": 29,
        "note": 71,
        "velocity": 0,
        "channel": 4
      },
      {
        "type": "note_on",
        "time": 1,
        "note": 70,
        "velocity": 90,
        "channel": 4
      },
      {
        "type": "note_on",
        "time": 29,
        "note": 70,
        "velocity": 0,
        "channel": 4
      },
      {
        "type": "note_on",
        "time": 1,
        "note": 71,
        "velocity": 90,
        "channel": 4
      },
      {
        "type": "note_on",
        "time": 59,
        "note": 71,
        "velocity": 0,
        "channel": 4
      },
      {
        "type": "note_on",
        "time": 1,
        "note": 59,
        "velocity": 90,
        "channel": 4
      },
      {
        "type": "note_on",
        "time": 119,
        "note": 59,
        "velocity": 0,
        "channel": 4
      },
      {
        "type": "note_on",
        "time": 1,
        "note": 58,
        "velocity": 90,
        "channel": 4
      },
      {
        "type": "note_on",
        "time": 239,
        "note": 58,
        "velocity": 0,
        "channel": 4
      },
      {
        "type": "note_on",
        "time": 1,
        "note": 78,
        "velocity": 90,
        "channel": 4
      },
      {
        "type": "note_on",
        "time": 29,
        "note": 78,
        "velocity": 0,
        "channel": 4
      },
      {
        "type": "note_on",
        "time": 1,
        "note": 77,
        "velocity": 90,
        "channel": 4
      },
      {
        "type": "note_on",
        "time": 29,
        "note": 77,
        "velocity": 0,
        "channel": 4
      },
      {
        "type": "note_on",
        "time": 1,
        "note": 78,
        "velocity": 90,
        "channel": 4
      },
      {
        "type": "note_on",
        "time": 29,
        "note": 78,
        "velocity": 0,
        "channel": 4
      },
      {
        "type": "control_change",
        "time": 31,
        "control": 7,
        "value": 100,
        "channel": 4
      },
      {
        "type": "note_on",
        "time": 0,
        "note": 59,
        "velocity": 90,
        "channel": 4
      },
      {
        "type": "note_on",
        "time": 29,
        "note": 59,
        "velocity": 0,
        "channel": 4
      },
      {
        "type": "note_on",
        "time": 1,
        "note": 66,
        "velocity": 90,
        "channel": 4
      },
      {
        "type": "note_on",
        "time": 29,
        "note": 66,
        "velocity": 0,
        "channel": 4
      },
      {
        "type": "note_on",
        "time": 1,
        "note": 69,
        "velocity": 90,
        "channel": 4
      },
      {
        "type": "note_on",
        "time": 29,
        "note": 69,
        "velocity": 0,
        "channel": 4
      },
      {
        "type": "note_on",
        "time": 1,
        "note": 71,
        "velocity": 90,
        "channel": 4
      },
      {
        "type": "note_on",
        "time": 29,
        "note": 71,
        "velocity": 0,
        "channel": 4
      },
      {
        "type": "note_on",
        "time": 1,
        "note": 74,
        "velocity": 90,
        "channel": 4
      },
      {
        "type": "note_on",
        "time": 179,
        "note": 74,
        "velocity": 0,
        "channel": 4
      },
      {
        "type": "note_on",
        "time": 1,
        "note": 69,
        "velocity": 90,
        "channel": 4
      },
      {
        "type": "note_on",
        "time": 29,
        "note": 69,
        "velocity": 0,
        "channel": 4
      },
      {
        "type": "note_on",
        "time": 1,
        "note": 71,
        "velocity": 90,
        "channel": 4
      },
      {
        "type": "note_on",
        "time": 29,
        "note": 71,
        "velocity": 0,
        "channel": 4
      },
      {
        "type": "note_on",
        "time": 1,
        "note": 66,
        "velocity": 90,
        "channel": 4
      },
      {
        "type": "note_on",
        "time": 119,
        "note": 66,
        "velocity": 0,
        "channel": 4
      },
      {
        "type": "note_on",
        "time": 1,
        "note": 62,
        "velocity": 90,
        "channel": 4
      },
      {
        "type": "note_on",
        "time": 29,
        "note": 62,
        "velocity": 0,
        "channel": 4
      },
      {
        "type": "note_on",
        "time": 1,
        "note": 64,
        "velocity": 90,
        "channel": 4
      },
      {
        "type": "note_on",
        "time": 29,
        "note": 64,
        "velocity": 0,
        "channel": 4
      },
      {
        "type": "note_on",
        "time": 1,
        "note": 66,
        "velocity": 90,
        "channel": 4
      },
      {
        "type": "note_on",
        "time": 29,
        "note": 66,
        "velocity": 0,
        "channel": 4
      },
      {
        "type": "note_on",
        "time": 1,
        "note": 62,
        "velocity": 90,
        "channel": 4
      },
      {
        "type": "note_on",
        "time": 29,
        "note": 62,
        "velocity": 0,
        "channel": 4
      },
      {
        "type": "note_on",
        "time": 1,
        "note": 58,
        "velocity": 90,
        "channel": 4
      },
      {
        "type": "note_on",
        "time": 119,
        "note": 58,
        "velocity": 0,
        "channel": 4
      },
      {
        "type": "note_on",
        "time": 1,
        "note": 59,
        "velocity": 90,
        "channel": 4
      },
      {
        "type": "note_on",
        "time": 15,
        "note": 62,
        "velocity": 90,
        "channel": 4
      },
      {
        "type": "note_on",
        "time": 14,
        "note": 59,
        "velocity": 0,
        "channel": 4
      },
      {
        "type": "note_on",
        "time": 0,
        "note": 62,
        "velocity": 0,
        "channel": 4
      },
      {
        "type": "note_on",
        "time": 1,
        "note": 59,
        "velocity": 90,
        "channel": 4
      },
      {
        "type": "note_on",
        "time": 14,
        "note": 59,
        "velocity": 0,
        "channel": 4
      },
      {
        "type": "note_on",
        "time": 1,
        "note": 58,
        "velocity": 90,
        "channel": 4
      },
      {
        "type": "note_on",
        "time": 14,
        "note": 58,
        "velocity": 0,
        "channel": 4
      },
      {
        "type": "note_on",
        "time": 1,
        "note": 57,
        "velocity": 90,
        "channel": 4
      },
      {
        "type": "note_on",
        "time": 59,
        "note": 57,
        "velocity": 0,
        "channel": 4
      },
      {
        "type": "note_on",
        "time": 1,
        "note": 58,
        "velocity": 90,
        "channel": 4
      },
      {
        "type": "note_on",
        "time": 179,
        "note": 58,
        "velocity": 0,
        "channel": 4
      },
      {
        "type": "note_on",
        "time": 1,
        "note": 42,
        "velocity": 90,
        "channel": 4
      },
      {
        "type": "note_on",
        "time": 59,
        "note": 42,
        "velocity": 0,
        "channel": 4
      },
      {
        "type": "note_on",
        "time": 1,
        "note": 62,
        "velocity": 90,
        "channel": 4
      },
      {
        "type": "note_on",
        "time": 29,
        "note": 62,
        "velocity": 0,
        "channel": 4
      },
      {
        "type": "note_on",
        "time": 1,
        "note": 64,
        "velocity": 90,
        "channel": 4
      },
      {
        "type": "note_on",
        "time": 29,
        "note": 64,
        "velocity": 0,
        "channel": 4
      },
      {
        "type": "note_on",
        "time": 1,
        "note": 66,
        "velocity": 90,
        "channel": 4
      },
      {
        "type": "note_on",
        "time": 29,
        "note": 66,
        "velocity": 0,
        "channel": 4
      },
      {
        "type": "note_on",
        "time": 1,
        "note": 62,
        "velocity": 90,
        "channel": 4
      },
      {
        "type": "note_on",
        "time": 29,
        "note": 62,
        "velocity": 0,
        "channel": 4
      },
      {
        "type": "note_on",
        "time": 1,
        "note": 59,
        "velocity": 90,
        "channel": 4
      },
      {
        "type": "note_on",
        "time": 29,
        "note": 59,
        "velocity": 0,
        "channel": 4
      },
      {
        "type": "note_on",
        "time": 1,
        "note": 58,
        "velocity": 90,
        "channel": 4
      },
      {
        "type": "note_on",
        "time": 29,
        "note": 58,
        "velocity": 0,
        "channel": 4
      },
      {
        "type": "note_on",
        "time": 1,
        "note": 59,
        "velocity": 90,
        "channel": 4
      },
      {
        "type": "note_on",
        "time": 59,
        "note": 59,
        "velocity": 0,
        "channel": 4
      },
      {
        "type": "note_on",
        "time": 1,
        "note": 62,
        "velocity": 90,
        "channel": 4
      },
      {
        "type": "note_on",
        "time": 29,
        "note": 62,
        "velocity": 0,
        "channel": 4
      },
      {
        "type": "note_on",
        "time": 1,
        "note": 64,
        "velocity": 90,
        "channel": 4
      },
      {
        "type": "note_on",
        "time": 29,
        "note": 64,
        "velocity": 0,
        "channel": 4
      },
      {
        "type": "note_on",
        "time": 1,
        "note": 66,
        "velocity": 90,
        "channel": 4
      },
      {
        "type": "note_on",
        "time": 29,
        "note": 66,
        "velocity": 0,
        "channel": 4
      },
      {
        "type": "note_on",
        "time": 1,
        "note": 62,
        "velocity": 90,
        "channel": 4
      },
      {
        "type": "note_on",
        "time": 29,
        "note": 62,
        "velocity": 0,
        "channel": 4
      },
      {
        "type": "note_on",
        "time": 1,
        "note": 59,
        "velocity": 90,
        "channel": 4
      },
      {
        "type": "note_on",
        "time": 29,
        "note": 59,
        "velocity": 0,
        "channel": 4
      },
      {
        "type": "note_on",
        "time": 1,
        "note": 58,
        "velocity": 90,
        "channel": 4
      },
      {
        "type": "note_on",
        "time": 29,
        "note": 58,
        "velocity": 0,
        "channel": 4
      },
      {
        "type": "note_on",
        "time": 1,
        "note": 59,
        "velocity": 90,
        "channel": 4
      },
      {
        "type": "note_on",
        "time": 29,
        "note": 59,
        "velocity": 0,
        "channel": 4
      },
      {
        "type": "note_on",
        "time": 1,
        "note": 58,
        "velocity": 90,
        "channel": 4
      },
      {
        "type": "note_on",
        "time": 29,
        "note": 58,
        "velocity": 0,
        "channel": 4
      },
      {
        "type": "note_on",
        "time": 1,
        "note": 69,
        "velocity": 90,
        "channel": 4
      },
      {
        "type": "note_on",
        "time": 29,
        "note": 69,
        "velocity": 0,
        "channel": 4
      },
      {
        "type": "note_on",
        "time": 1,
        "note": 71,
        "velocity": 90,
        "channel": 4
      },
      {
        "type": "note_on",
        "time": 29,
        "note": 71,
        "velocity": 0,
        "channel": 4
      },
      {
        "type": "note_on",
        "time": 1,
        "note": 74,
        "velocity": 90,
        "channel": 4
      },
      {
        "type": "note_on",
        "time": 29,
        "note": 74,
        "velocity": 0,
        "channel": 4
      },
      {
        "type": "note_on",
        "time": 1,
        "note": 71,
        "velocity": 90,
        "channel": 4
      },
      {
        "type": "note_on",
        "time": 59,
        "note": 71,
        "velocity": 0,
        "channel": 4
      },
      {
        "type": "note_on",
        "time": 1,
        "note": 68,
        "velocity": 90,
        "channel": 4
      },
      {
        "type": "note_on",
        "time": 29,
        "note": 68,
        "velocity": 0,
        "channel": 4
      },
      {
        "type": "note_on",
        "time": 1,
        "note": 69,
        "velocity": 90,
        "channel": 4
      },
      {
        "type": "note_on",
        "time": 59,
        "note": 69,
        "velocity": 0,
        "channel": 4
      },
      {
        "type": "note_on",
        "time": 1,
        "note": 68,
        "velocity": 90,
        "channel": 4
      },
      {
        "type": "note_on",
        "time": 119,
        "note": 68,
        "velocity": 0,
        "channel": 4
      },
      {
        "type": "note_on",
        "time": 1,
        "note": 71,
        "velocity": 90,
        "channel": 4
      },
      {
        "type": "note_on",
        "time": 29,
        "note": 71,
        "velocity": 0,
        "channel": 4
      },
      {
        "type": "note_on",
        "time": 1,
        "note": 69,
        "velocity": 90,
        "channel": 4
      },
      {
        "type": "note_on",
        "time": 29,
        "note": 69,
        "velocity": 0,
        "channel": 4
      },
      {
        "type": "note_on",
        "time": 1,
        "note": 76,
        "velocity": 90,
        "channel": 4
      },
      {
        "type": "note_on",
        "time": 119,
        "note": 76,
        "velocity": 0,
        "channel": 4
      },
      {
        "type": "note_on",
        "time": 1,
        "note": 74,
        "velocity": 90,
        "channel": 4
      },
      {
        "type": "note_on",
        "time": 30,
        "note": 74,
        "velocity": 0,
        "channel": 4
      },
      {
        "type": "note_on",
        "time": 30,
        "note": 76,
        "velocity": 90,
        "channel": 4
      },
      {
        "type": "note_on",
        "time": 30,
        "note": 76,
        "velocity": 0,
        "channel": 4
      },
      {
        "type": "note_on",
        "time": 0,
        "note": 74,
        "velocity": 90,
        "channel": 4
      },
      {
        "type": "note_on",
        "time": 30,
        "note": 74,
        "velocity": 0,
        "channel": 4
      },
      {
        "type": "note_on",
        "time": 0,
        "note": 71,
        "velocity": 90,
        "channel": 4
      },
      {
        "type": "note_on",
        "time": 30,
        "note": 71,
        "velocity": 0,
        "channel": 4
      },
      {
        "type": "note_on",
        "time": 0,
        "note": 69,
        "velocity": 90,
        "channel": 4
      },
      {
        "type": "note_on",
        "time": 30,
        "note": 69,
        "velocity": 0,
        "channel": 4
      },
      {
        "type": "note_on",
        "time": 0,
        "note": 71,
        "velocity": 90,
        "channel": 4
      },
      {
        "type": "note_on",
        "time": 30,
        "note": 71,
        "velocity": 0,
        "channel": 4
      },
      {
        "type": "note_on",
        "time": 0,
        "note": 74,
        "velocity": 90,
        "channel": 4
      },
      {
        "type": "note_on",
        "time": 30,
        "note": 74,
        "velocity": 0,
        "channel": 4
      },
      {
        "type": "note_on",
        "time": 0,
        "note": 71,
        "velocity": 90,
        "channel": 4
      },
      {
        "type": "note_on",
        "time": 30,
        "note": 71,
        "velocity": 0,
        "channel": 4
      },
      {
        "type": "note_on",
        "time": 0,
        "note": 69,
        "velocity": 90,
        "channel": 4
      },
      {
        "type": "note_on",
        "time": 30,
        "note": 69,
        "velocity": 0,
        "channel": 4
      },
      {
        "type": "note_on",
        "time": 0,
        "note": 67,
        "velocity": 90,
        "channel": 4
      },
      {
        "type": "note_on",
        "time": 60,
        "note": 67,
        "velocity": 0,
        "channel": 4
      },
      {
        "type": "note_on",
        "time": 0,
        "note": 69,
        "velocity": 90,
        "channel": 4
      },
      {
        "type": "note_on",
        "time": 15,
        "note": 69,
        "velocity": 0,
        "channel": 4
      },
      {
        "type": "note_on",
        "time": 15,
        "note": 59,
        "velocity": 90,
        "channel": 4
      },
      {
        "type": "note_on",
        "time": 15,
        "note": 59,
        "velocity": 0,
        "channel": 4
      },
      {
        "type": "note_on",
        "time": 15,
        "note": 66,
        "velocity": 90,
        "channel": 4
      },
      {
        "type": "note_on",
        "time": 59,
        "note": 66,
        "velocity": 0,
        "channel": 4
      },
      {
        "type": "note_on",
        "time": 1,
        "note": 74,
        "velocity": 90,
        "channel": 4
      },
      {
        "type": "note_on",
        "time": 59,
        "note": 74,
        "velocity": 0,
        "channel": 4
      },
      {
        "type": "note_on",
        "time": 1,
        "note": 66,
        "velocity": 90,
        "channel": 4
      },
      {
        "type": "note_on",
        "time": 29,
        "note": 66,
        "velocity": 0,
        "channel": 4
      },
      {
        "type": "note_on",
        "time": 1,
        "note": 64,
        "velocity": 90,
        "channel": 4
      },
      {
        "type": "note_on",
        "time": 29,
        "note": 64,
        "velocity": 0,
        "channel": 4
      },
      {
        "type": "note_on",
        "time": 1,
        "note": 62,
        "velocity": 90,
        "channel": 4
      },
      {
        "type": "note_on",
        "time": 59,
        "note": 62,
        "velocity": 0,
        "channel": 4
      },
      {
        "type": "note_on",
        "time": 1,
        "note": 62,
        "velocity": 90,
        "channel": 4
      },
      {
        "type": "note_on",
        "time": 29,
        "note": 62,
        "velocity": 0,
        "channel": 4
      },
      {
        "type": "note_on",
        "time": 1,
        "note": 61,
        "velocity": 90,
        "channel": 4
      },
      {
        "type": "note_on",
        "time": 29,
        "note": 61,
        "velocity": 0,
        "channel": 4
      },
      {
        "type": "note_on",
        "time": 1,
        "note": 62,
        "velocity": 90,
        "channel": 4
      },
      {
        "type": "note_on",
        "time": 59,
        "note": 62,
        "velocity": 0,
        "channel": 4
      },
      {
        "type": "note_on",
        "time": 1,
        "note": 62,
        "velocity": 90,
        "channel": 4
      },
      {
        "type": "note_on",
        "time": 119,
        "note": 62,
        "velocity": 0,
        "channel": 4
      },
      {
        "type": "note_on",
        "time": 1,
        "note": 62,
        "velocity": 90,
        "channel": 4
      },
      {
        "type": "note_on",
        "time": 29,
        "note": 62,
        "velocity": 0,
        "channel": 4
      },
      {
        "type": "note_on",
        "time": 1,
        "note": 64,
        "velocity": 90,
        "channel": 4
      },
      {
        "type": "note_on",
        "time": 29,
        "note": 64,
        "velocity": 0,
        "channel": 4
      },
      {
        "type": "note_on",
        "time": 1,
        "note": 67,
        "velocity": 90,
        "channel": 4
      },
      {
        "type": "note_on",
        "time": 29,
        "note": 67,
        "velocity": 0,
        "channel": 4
      },
      {
        "type": "note_on",
        "time": 31,
        "note": 67,
        "velocity": 90,
        "channel": 4
      },
      {
        "type": "note_on",
        "time": 29,
        "note": 67,
        "velocity": 0,
        "channel": 4
      },
      {
        "type": "note_on",
        "time": 1,
        "note": 66,
        "velocity": 90,
        "channel": 4
      },
      {
        "type": "note_on",
        "time": 29,
        "note": 66,
        "velocity": 0,
        "channel": 4
      },
      {
        "type": "note_on",
        "time": 1,
        "note": 64,
        "velocity": 90,
        "channel": 4
      },
      {
        "type": "note_on",
        "time": 29,
        "note": 64,
        "velocity": 0,
        "channel": 4
      },
      {
        "type": "note_on",
        "time": 31,
        "note": 64,
        "velocity": 90,
        "channel": 4
      },
      {
        "type": "note_on",
        "time": 29,
        "note": 64,
        "velocity": 0,
        "channel": 4
      },
      {
        "type": "note_on",
        "time": 1,
        "note": 67,
        "velocity": 90,
        "channel": 4
      },
      {
        "type": "note_on",
        "time": 29,
        "note": 67,
        "velocity": 0,
        "channel": 4
      },
      {
        "type": "note_on",
        "time": 16,
        "note": 67,
        "velocity": 90,
        "channel": 4
      },
      {
        "type": "note_on",
        "time": 29,
        "note": 67,
        "velocity": 0,
        "channel": 4
      },
      {
        "type": "note_on",
        "time": 16,
        "note": 67,
        "velocity": 90,
        "channel": 4
      },
      {
        "type": "note_on",
        "time": 29,
        "note": 67,
        "velocity": 0,
        "channel": 4
      },
      {
        "type": "note_on",
        "time": 1,
        "note": 66,
        "velocity": 90,
        "channel": 4
      },
      {
        "type": "note_on",
        "time": 29,
        "note": 66,
        "velocity": 0,
        "channel": 4
      },
      {
        "type": "note_on",
        "time": 1,
        "note": 64,
        "velocity": 90,
        "channel": 4
      },
      {
        "type": "note_on",
        "time": 29,
        "note": 64,
        "velocity": 0,
        "channel": 4
      },
      {
        "type": "note_on",
        "time": 1,
        "note": 62,
        "velocity": 90,
        "channel": 4
      },
      {
        "type": "note_on",
        "time": 29,
        "note": 62,
        "velocity": 0,
        "channel": 4
      },
      {
        "type": "note_on",
        "time": 1,
        "note": 66,
        "velocity": 90,
        "channel": 4
      },
      {
        "type": "note_on",
        "time": 29,
        "note": 66,
        "velocity": 0,
        "channel": 4
      },
      {
        "type": "note_on",
        "time": 1,
        "note": 66,
        "velocity": 90,
        "channel": 4
      },
      {
        "type": "note_on",
        "time": 29,
        "note": 66,
        "velocity": 0,
        "channel": 4
      },
      {
        "type": "note_on",
        "time": 1,
        "note": 69,
        "velocity": 90,
        "channel": 4
      },
      {
        "type": "note_on",
        "time": 29,
        "note": 69,
        "velocity": 0,
        "channel": 4
      },
      {
        "type": "note_on",
        "time": 1,
        "note": 66,
        "velocity": 90,
        "channel": 4
      },
      {
        "type": "note_on",
        "time": 29,
        "note": 66,
        "velocity": 0,
        "channel": 4
      },
      {
        "type": "note_on",
        "time": 1,
        "note": 66,
        "velocity": 90,
        "channel": 4
      },
      {
        "type": "note_on",
        "time": 29,
        "note": 66,
        "velocity": 0,
        "channel": 4
      },
      {
        "type": "note_on",
        "time": 1,
        "note": 71,
        "velocity": 90,
        "channel": 4
      },
      {
        "type": "note_on",
        "time": 29,
        "note": 71,
        "velocity": 0,
        "channel": 4
      },
      {
        "type": "note_on",
        "time": 1,
        "note": 66,
        "velocity": 90,
        "channel": 4
      },
      {
        "type": "note_on",
        "time": 29,
        "note": 66,
        "velocity": 0,
        "channel": 4
      },
      {
        "type": "note_on",
        "time": 1,
        "note": 64,
        "velocity": 90,
        "channel": 4
      },
      {
        "type": "note_on",
        "time": 14,
        "note": 64,
        "velocity": 0,
        "channel": 4
      },
      {
        "type": "note_on",
        "time": 1,
        "note": 62,
        "velocity": 90,
        "channel": 4
      },
      {
        "type": "note_on",
        "time": 14,
        "note": 62,
        "velocity": 0,
        "channel": 4
      },
      {
        "type": "note_on",
        "time": 1,
        "note": 66,
        "velocity": 90,
        "channel": 4
      },
      {
        "type": "note_on",
        "time": 239,
        "note": 66,
        "velocity": 0,
        "channel": 4
      },
      {
        "type": "note_on",
        "time": 1,
        "note": 66,
        "velocity": 90,
        "channel": 4
      },
      {
        "type": "note_on",
        "time": 29,
        "note": 66,
        "velocity": 0,
        "channel": 4
      },
      {
        "type": "note_on",
        "time": 1,
        "note": 66,
        "velocity": 90,
        "channel": 4
      },
      {
        "type": "note_on",
        "time": 29,
        "note": 66,
        "velocity": 0,
        "channel": 4
      },
      {
        "type": "note_on",
        "time": 1,
        "note": 69,
        "velocity": 90,
        "channel": 4
      },
      {
        "type": "note_on",
        "time": 29,
        "note": 69,
        "velocity": 0,
        "channel": 4
      },
      {
        "type": "note_on",
        "time": 1,
        "note": 66,
        "velocity": 90,
        "channel": 4
      },
      {
        "type": "note_on",
        "time": 29,
        "note": 66,
        "velocity": 0,
        "channel": 4
      },
      {
        "type": "note_on",
        "time": 1,
        "note": 66,
        "velocity": 90,
        "channel": 4
      },
      {
        "type": "note_on",
        "time": 29,
        "note": 66,
        "velocity": 0,
        "channel": 4
      },
      {
        "type": "note_on",
        "time": 1,
        "note": 71,
        "velocity": 90,
        "channel": 4
      },
      {
        "type": "note_on",
        "time": 29,
        "note": 71,
        "velocity": 0,
        "channel": 4
      },
      {
        "type": "note_on",
        "time": 1,
        "note": 66,
        "velocity": 90,
        "channel": 4
      },
      {
        "type": "note_on",
        "time": 29,
        "note": 66,
        "velocity": 0,
        "channel": 4
      },
      {
        "type": "note_on",
        "time": 1,
        "note": 71,
        "velocity": 90,
        "channel": 4
      },
      {
        "type": "note_on",
        "time": 29,
        "note": 71,
        "velocity": 0,
        "channel": 4
      },
      {
        "type": "note_on",
        "time": 1,
        "note": 71,
        "velocity": 90,
        "channel": 4
      },
      {
        "type": "note_on",
        "time": 29,
        "note": 71,
        "velocity": 0,
        "channel": 4
      },
      {
        "type": "note_on",
        "time": 1,
        "note": 66,
        "velocity": 90,
        "channel": 4
      },
      {
        "type": "note_on",
        "time": 29,
        "note": 66,
        "velocity": 0,
        "channel": 4
      },
      {
        "type": "note_on",
        "time": 1,
        "note": 66,
        "velocity": 90,
        "channel": 4
      },
      {
        "type": "note_on",
        "time": 29,
        "note": 66,
        "velocity": 0,
        "channel": 4
      },
      {
        "type": "note_on",
        "time": 1,
        "note": 66,
        "velocity": 90,
        "channel": 4
      },
      {
        "type": "note_on",
        "time": 29,
        "note": 66,
        "velocity": 0,
        "channel": 4
      },
      {
        "type": "note_on",
        "time": 1,
        "note": 66,
        "velocity": 90,
        "channel": 4
      },
      {
        "type": "note_on",
        "time": 19,
        "note": 66,
        "velocity": 0,
        "channel": 4
      },
      {
        "type": "note_on",
        "time": 1,
        "note": 64,
        "velocity": 90,
        "channel": 4
      },
      {
        "type": "note_on",
        "time": 19,
        "note": 64,
        "velocity": 0,
        "channel": 4
      },
      {
        "type": "note_on",
        "time": 1,
        "note": 62,
        "velocity": 90,
        "channel": 4
      },
      {
        "type": "note_on",
        "time": 19,
        "note": 62,
        "velocity": 0,
        "channel": 4
      },
      {
        "type": "note_on",
        "time": 1,
        "note": 64,
        "velocity": 90,
        "channel": 4
      },
      {
        "type": "note_on",
        "time": 29,
        "note": 64,
        "velocity": 0,
        "channel": 4
      },
      {
        "type": "note_on",
        "time": 1,
        "note": 62,
        "velocity": 90,
        "channel": 4
      },
      {
        "type": "note_on",
        "time": 29,
        "note": 62,
        "velocity": 0,
        "channel": 4
      },
      {
        "type": "note_on",
        "time": 1,
        "note": 66,
        "velocity": 90,
        "channel": 4
      },
      {
        "type": "note_on",
        "time": 239,
        "note": 66,
        "velocity": 0,
        "channel": 4
      },
      {
        "type": "note_on",
        "time": 1,
        "note": 76,
        "velocity": 90,
        "channel": 4
      },
      {
        "type": "note_on",
        "time": 29,
        "note": 76,
        "velocity": 0,
        "channel": 4
      },
      {
        "type": "note_on",
        "time": 1,
        "note": 78,
        "velocity": 90,
        "channel": 4
      },
      {
        "type": "note_on",
        "time": 29,
        "note": 78,
        "velocity": 0,
        "channel": 4
      },
      {
        "type": "note_on",
        "time": 171,
        "note": 52,
        "velocity": 90,
        "channel": 4
      },
      {
        "type": "note_on",
        "time": 4,
        "note": 52,
        "velocity": 0,
        "channel": 4
      },
      {
        "type": "note_on",
        "time": 1,
        "note": 57,
        "velocity": 90,
        "channel": 4
      },
      {
        "type": "note_on",
        "time": 4,
        "note": 57,
        "velocity": 0,
        "channel": 4
      },
      {
        "type": "note_on",
        "time": 1,
        "note": 62,
        "velocity": 90,
        "channel": 4
      },
      {
        "type": "note_on",
        "time": 4,
        "note": 62,
        "velocity": 0,
        "channel": 4
      },
      {
        "type": "note_on",
        "time": 1,
        "note": 69,
        "velocity": 90,
        "channel": 4
      },
      {
        "type": "note_on",
        "time": 84,
        "note": 69,
        "velocity": 0,
        "channel": 4
      },
      {
        "type": "note_on",
        "time": 1,
        "note": 66,
        "velocity": 90,
        "channel": 4
      },
      {
        "type": "note_on",
        "time": 29,
        "note": 66,
        "velocity": 0,
        "channel": 4
      },
      {
        "type": "note_on",
        "time": 1,
        "note": 64,
        "velocity": 90,
        "channel": 4
      },
      {
        "type": "note_on",
        "time": 29,
        "note": 64,
        "velocity": 0,
        "channel": 4
      },
      {
        "type": "note_on",
        "time": 1,
        "note": 66,
        "velocity": 90,
        "channel": 4
      },
      {
        "type": "note_on",
        "time": 29,
        "note": 66,
        "velocity": 0,
        "channel": 4
      },
      {
        "type": "note_on",
        "time": 1,
        "note": 62,
        "velocity": 90,
        "channel": 4
      },
      {
        "type": "note_on",
        "time": 59,
        "note": 62,
        "velocity": 0,
        "channel": 4
      },
      {
        "type": "note_on",
        "time": 1,
        "note": 59,
        "velocity": 90,
        "channel": 4
      },
      {
        "type": "note_on",
        "time": 59,
        "note": 59,
        "velocity": 0,
        "channel": 4
      },
      {
        "type": "note_on",
        "time": 1,
        "note": 69,
        "velocity": 90,
        "channel": 4
      },
      {
        "type": "note_on",
        "time": 29,
        "note": 69,
        "velocity": 0,
        "channel": 4
      },
      {
        "type": "note_on",
        "time": 1,
        "note": 71,
        "velocity": 90,
        "channel": 4
      },
      {
        "type": "note_on",
        "time": 29,
        "note": 71,
        "velocity": 0,
        "channel": 4
      },
      {
        "type": "note_on",
        "time": 1,
        "note": 71,
        "velocity": 90,
        "channel": 4
      },
      {
        "type": "note_on",
        "time": 59,
        "note": 71,
        "velocity": 0,
        "channel": 4
      },
      {
        "type": "note_on",
        "time": 1,
        "note": 69,
        "velocity": 90,
        "channel": 4
      },
      {
        "type": "note_on",
        "time": 29,
        "note": 69,
        "velocity": 0,
        "channel": 4
      },
      {
        "type": "note_on",
        "time": 1,
        "note": 66,
        "velocity": 90,
        "channel": 4
      },
      {
        "type": "note_on",
        "time": 29,
        "note": 66,
        "velocity": 0,
        "channel": 4
      },
      {
        "type": "note_on",
        "time": 1,
        "note": 69,
        "velocity": 90,
        "channel": 4
      },
      {
        "type": "note_on",
        "time": 29,
        "note": 69,
        "velocity": 0,
        "channel": 4
      },
      {
        "type": "note_on",
        "time": 1,
        "note": 71,
        "velocity": 90,
        "channel": 4
      },
      {
        "type": "note_on",
        "time": 29,
        "note": 71,
        "velocity": 0,
        "channel": 4
      },
      {
        "type": "note_on",
        "time": 1,
        "note": 74,
        "velocity": 90,
        "channel": 4
      },
      {
        "type": "note_on",
        "time": 29,
        "note": 74,
        "velocity": 0,
        "channel": 4
      },
      {
        "type": "note_on",
        "time": 1,
        "note": 69,
        "velocity": 90,
        "channel": 4
      },
      {
        "type": "note_on",
        "time": 29,
        "note": 69,
        "velocity": 0,
        "channel": 4
      },
      {
        "type": "note_on",
        "time": 1,
        "note": 71,
        "velocity": 90,
        "channel": 4
      },
      {
        "type": "note_on",
        "time": 29,
        "note": 71,
        "velocity": 0,
        "channel": 4
      },
      {
        "type": "note_on",
        "time": 1,
        "note": 70,
        "velocity": 90,
        "channel": 4
      },
      {
        "type": "note_on",
        "time": 29,
        "note": 70,
        "velocity": 0,
        "channel": 4
      },
      {
        "type": "note_on",
        "time": 1,
        "note": 69,
        "velocity": 90,
        "channel": 4
      },
      {
        "type": "note_on",
        "time": 29,
        "note": 69,
        "velocity": 0,
        "channel": 4
      },
      {
        "type": "note_on",
        "time": 1,
        "note": 68,
        "velocity": 90,
        "channel": 4
      },
      {
        "type": "note_on",
        "time": 179,
        "note": 68,
        "velocity": 0,
        "channel": 4
      },
      {
        "type": "note_on",
        "time": 31,
        "note": 69,
        "velocity": 90,
        "channel": 4
      },
      {
        "type": "note_on",
        "time": 59,
        "note": 69,
        "velocity": 0,
        "channel": 4
      },
      {
        "type": "note_on",
        "time": 1,
        "note": 71,
        "velocity": 90,
        "channel": 4
      },
      {
        "type": "note_on",
        "time": 59,
        "note": 71,
        "velocity": 0,
        "channel": 4
      },
      {
        "type": "note_on",
        "time": 1,
        "note": 71,
        "velocity": 90,
        "channel": 4
      },
      {
        "type": "note_on",
        "time": 59,
        "note": 71,
        "velocity": 0,
        "channel": 4
      },
      {
        "type": "note_on",
        "time": 1,
        "note": 71,
        "velocity": 90,
        "channel": 4
      },
      {
        "type": "note_on",
        "time": 59,
        "note": 71,
        "velocity": 0,
        "channel": 4
      },
      {
        "type": "note_on",
        "time": 1,
        "note": 76,
        "velocity": 90,
        "channel": 4
      },
      {
        "type": "note_on",
        "time": 29,
        "note": 76,
        "velocity": 0,
        "channel": 4
      },
      {
        "type": "note_on",
        "time": 1,
        "note": 74,
        "velocity": 90,
        "channel": 4
      },
      {
        "type": "note_on",
        "time": 29,
        "note": 74,
        "velocity": 0,
        "channel": 4
      },
      {
        "type": "note_on",
        "time": 1,
        "note": 76,
        "velocity": 90,
        "channel": 4
      },
      {
        "type": "note_on",
        "time": 29,
        "note": 76,
        "velocity": 0,
        "channel": 4
      },
      {
        "type": "note_on",
        "time": 1,
        "note": 78,
        "velocity": 90,
        "channel": 4
      },
      {
        "type": "note_on",
        "time": 29,
        "note": 78,
        "velocity": 0,
        "channel": 4
      },
      {
        "type": "note_on",
        "time": 1,
        "note": 81,
        "velocity": 90,
        "channel": 4
      },
      {
        "type": "note_on",
        "time": 29,
        "note": 81,
        "velocity": 0,
        "channel": 4
      },
      {
        "type": "note_on",
        "time": 1,
        "note": 78,
        "velocity": 90,
        "channel": 4
      },
      {
        "type": "note_on",
        "time": 29,
        "note": 78,
        "velocity": 0,
        "channel": 4
      },
      {
        "type": "note_on",
        "time": 1,
        "note": 76,
        "velocity": 90,
        "channel": 4
      },
      {
        "type": "note_on",
        "time": 29,
        "note": 76,
        "velocity": 0,
        "channel": 4
      },
      {
        "type": "note_on",
        "time": 1,
        "note": 74,
        "velocity": 90,
        "channel": 4
      },
      {
        "type": "note_on",
        "time": 29,
        "note": 74,
        "velocity": 0,
        "channel": 4
      },
      {
        "type": "note_on",
        "time": 1,
        "note": 76,
        "velocity": 90,
        "channel": 4
      },
      {
        "type": "note_on",
        "time": 29,
        "note": 76,
        "velocity": 0,
        "channel": 4
      },
      {
        "type": "note_on",
        "time": 1,
        "note": 74,
        "velocity": 90,
        "channel": 4
      },
      {
        "type": "note_on",
        "time": 29,
        "note": 74,
        "velocity": 0,
        "channel": 4
      },
      {
        "type": "note_on",
        "time": 1,
        "note": 78,
        "velocity": 90,
        "channel": 4
      },
      {
        "type": "note_on",
        "time": 29,
        "note": 78,
        "velocity": 0,
        "channel": 4
      },
      {
        "type": "note_on",
        "time": 1,
        "note": 79,
        "velocity": 90,
        "channel": 4
      },
      {
        "type": "note_on",
        "time": 29,
        "note": 79,
        "velocity": 0,
        "channel": 4
      },
      {
        "type": "note_on",
        "time": 1,
        "note": 80,
        "velocity": 90,
        "channel": 4
      },
      {
        "type": "note_on",
        "time": 29,
        "note": 80,
        "velocity": 0,
        "channel": 4
      },
      {
        "type": "note_on",
        "time": 1,
        "note": 81,
        "velocity": 90,
        "channel": 4
      },
      {
        "type": "note_on",
        "time": 29,
        "note": 81,
        "velocity": 0,
        "channel": 4
      },
      {
        "type": "note_on",
        "time": 1,
        "note": 83,
        "velocity": 90,
        "channel": 4
      },
      {
        "type": "note_on",
        "time": 29,
        "note": 83,
        "velocity": 0,
        "channel": 4
      },
      {
        "type": "note_on",
        "time": 1,
        "note": 78,
        "velocity": 90,
        "channel": 4
      },
      {
        "type": "note_on",
        "time": 59,
        "note": 78,
        "velocity": 0,
        "channel": 4
      },
      {
        "type": "note_on",
        "time": 1,
        "note": 76,
        "velocity": 90,
        "channel": 4
      },
      {
        "type": "note_on",
        "time": 29,
        "note": 76,
        "velocity": 0,
        "channel": 4
      },
      {
        "type": "note_on",
        "time": 1,
        "note": 74,
        "velocity": 90,
        "channel": 4
      },
      {
        "type": "note_on",
        "time": 119,
        "note": 74,
        "velocity": 0,
        "channel": 4
      },
      {
        "type": "note_on",
        "time": 1,
        "note": 76,
        "velocity": 90,
        "channel": 4
      },
      {
        "type": "note_on",
        "time": 29,
        "note": 76,
        "velocity": 0,
        "channel": 4
      },
      {
        "type": "note_on",
        "time": 61,
        "note": 76,
        "velocity": 90,
        "channel": 4
      },
      {
        "type": "note_on",
        "time": 14,
        "note": 76,
        "velocity": 0,
        "channel": 4
      },
      {
        "type": "note_on",
        "time": 1,
        "note": 74,
        "velocity": 90,
        "channel": 4
      },
      {
        "type": "note_on",
        "time": 14,
        "note": 74,
        "velocity": 0,
        "channel": 4
      },
      {
        "type": "note_on",
        "time": 1,
        "note": 76,
        "velocity": 90,
        "channel": 4
      },
      {
        "type": "note_on",
        "time": 29,
        "note": 76,
        "velocity": 0,
        "channel": 4
      },
      {
        "type": "note_on",
        "time": 1,
        "note": 78,
        "velocity": 90,
        "channel": 4
      },
      {
        "type": "note_on",
        "time": 59,
        "note": 78,
        "velocity": 0,
        "channel": 4
      },
      {
        "type": "note_on",
        "time": 1,
        "note": 81,
        "velocity": 90,
        "channel": 4
      },
      {
        "type": "note_on",
        "time": 59,
        "note": 81,
        "velocity": 0,
        "channel": 4
      },
      {
        "type": "note_on",
        "time": 1,
        "note": 81,
        "velocity": 90,
        "channel": 4
      },
      {
        "type": "note_on",
        "time": 29,
        "note": 81,
        "velocity": 0,
        "channel": 4
      },
      {
        "type": "note_on",
        "time": 1,
        "note": 78,
        "velocity": 90,
        "channel": 4
      },
      {
        "type": "note_on",
        "time": 29,
        "note": 78,
        "velocity": 0,
        "channel": 4
      },
      {
        "type": "note_on",
        "time": 1,
        "note": 76,
        "velocity": 90,
        "channel": 4
      },
      {
        "type": "note_on",
        "time": 29,
        "note": 76,
        "velocity": 0,
        "channel": 4
      },
      {
        "type": "note_on",
        "time": 1,
        "note": 78,
        "velocity": 90,
        "channel": 4
      },
      {
        "type": "note_on",
        "time": 119,
        "note": 78,
        "velocity": 0,
        "channel": 4
      },
      {
        "type": "note_on",
        "time": 1,
        "note": 78,
        "velocity": 90,
        "channel": 4
      },
      {
        "type": "note_on",
        "time": 29,
        "note": 78,
        "velocity": 0,
        "channel": 4
      },
      {
        "type": "note_on",
        "time": 1,
        "note": 76,
        "velocity": 90,
        "channel": 4
      },
      {
        "type": "note_on",
        "time": 29,
        "note": 76,
        "velocity": 0,
        "channel": 4
      },
      {
        "type": "note_on",
        "time": 1,
        "note": 74,
        "velocity": 90,
        "channel": 4
      },
      {
        "type": "note_on",
        "time": 59,
        "note": 74,
        "velocity": 0,
        "channel": 4
      },
      {
        "type": "note_on",
        "time": 1,
        "note": 76,
        "velocity": 90,
        "channel": 4
      },
      {
        "type": "note_on",
        "time": 29,
        "note": 76,
        "velocity": 0,
        "channel": 4
      },
      {
        "type": "note_on",
        "time": 1,
        "note": 78,
        "velocity": 90,
        "channel": 4
      },
      {
        "type": "note_on",
        "time": 59,
        "note": 78,
        "velocity": 0,
        "channel": 4
      },
      {
        "type": "note_on",
        "time": 1,
        "note": 81,
        "velocity": 90,
        "channel": 4
      },
      {
        "type": "note_on",
        "time": 59,
        "note": 81,
        "velocity": 0,
        "channel": 4
      },
      {
        "type": "note_on",
        "time": 1,
        "note": 81,
        "velocity": 90,
        "channel": 4
      },
      {
        "type": "note_on",
        "time": 29,
        "note": 81,
        "velocity": 0,
        "channel": 4
      },
      {
        "type": "note_on",
        "time": 1,
        "note": 78,
        "velocity": 90,
        "channel": 4
      },
      {
        "type": "note_on",
        "time": 29,
        "note": 78,
        "velocity": 0,
        "channel": 4
      },
      {
        "type": "note_on",
        "time": 1,
        "note": 76,
        "velocity": 90,
        "channel": 4
      },
      {
        "type": "note_on",
        "time": 29,
        "note": 76,
        "velocity": 0,
        "channel": 4
      },
      {
        "type": "note_on",
        "time": 1,
        "note": 78,
        "velocity": 90,
        "channel": 4
      },
      {
        "type": "note_on",
        "time": 119,
        "note": 78,
        "velocity": 0,
        "channel": 4
      },
      {
        "type": "note_on",
        "time": 1,
        "note": 78,
        "velocity": 90,
        "channel": 4
      },
      {
        "type": "note_on",
        "time": 0,
        "note": 74,
        "velocity": 90,
        "channel": 4
      },
      {
        "type": "note_on",
        "time": 29,
        "note": 78,
        "velocity": 0,
        "channel": 4
      },
      {
        "type": "note_on",
        "time": 0,
        "note": 74,
        "velocity": 0,
        "channel": 4
      },
      {
        "type": "note_on",
        "time": 1,
        "note": 73,
        "velocity": 90,
        "channel": 4
      },
      {
        "type": "note_on",
        "time": 0,
        "note": 76,
        "velocity": 90,
        "channel": 4
      },
      {
        "type": "note_on",
        "time": 29,
        "note": 73,
        "velocity": 0,
        "channel": 4
      },
      {
        "type": "note_on",
        "time": 0,
        "note": 76,
        "velocity": 0,
        "channel": 4
      },
      {
        "type": "note_on",
        "time": 1,
        "note": 74,
        "velocity": 90,
        "channel": 4
      },
      {
        "type": "note_on",
        "time": 0,
        "note": 71,
        "velocity": 90,
        "channel": 4
      },
      {
        "type": "note_on",
        "time": 59,
        "note": 74,
        "velocity": 0,
        "channel": 4
      },
      {
        "type": "note_on",
        "time": 0,
        "note": 71,
        "velocity": 0,
        "channel": 4
      },
      {
        "type": "note_on",
        "time": 1,
        "note": 83,
        "velocity": 90,
        "channel": 4
      },
      {
        "type": "note_on",
        "time": 0,
        "note": 74,
        "velocity": 90,
        "channel": 4
      },
      {
        "type": "note_on",
        "time": 234,
        "note": 74,
        "velocity": 0,
        "channel": 4
      },
      {
        "type": "note_on",
        "time": 5,
        "note": 83,
        "velocity": 0,
        "channel": 4
      },
      {
        "type": "note_on",
        "time": 1,
        "note": 74,
        "velocity": 90,
        "channel": 4
      },
      {
        "type": "note_on",
        "time": 29,
        "note": 74,
        "velocity": 0,
        "channel": 4
      },
      {
        "type": "note_on",
        "time": 1,
        "note": 74,
        "velocity": 90,
        "channel": 4
      },
      {
        "type": "note_on",
        "time": 29,
        "note": 74,
        "velocity": 0,
        "channel": 4
      },
      {
        "type": "note_on",
        "time": 1,
        "note": 74,
        "velocity": 90,
        "channel": 4
      },
      {
        "type": "note_on",
        "time": 29,
        "note": 74,
        "velocity": 0,
        "channel": 4
      },
      {
        "type": "note_on",
        "time": 1,
        "note": 74,
        "velocity": 90,
        "channel": 4
      },
      {
        "type": "pitchwheel",
        "time": 28,
        "channel": 4,
        "pitch": 8191
      },
      {
        "type": "note_on",
        "time": 1,
        "note": 74,
        "velocity": 0,
        "channel": 4
      },
      {
        "type": "note_on",
        "time": 1,
        "note": 64,
        "velocity": 90,
        "channel": 4
      },
      {
        "type": "pitchwheel",
        "time": 5,
        "channel": 4,
        "pitch": 7936
      },
      {
        "type": "pitchwheel",
        "time": 1,
        "channel": 4,
        "pitch": 7552
      },
      {
        "type": "pitchwheel",
        "time": 1,
        "channel": 4,
        "pitch": 7168
      },
      {
        "type": "pitchwheel",
        "time": 1,
        "channel": 4,
        "pitch": 6784
      },
      {
        "type": "pitchwheel",
        "time": 1,
        "channel": 4,
        "pitch": 6400
      },
      {
        "type": "pitchwheel",
        "time": 1,
        "channel": 4,
        "pitch": 6016
      },
      {
        "type": "pitchwheel",
        "time": 1,
        "channel": 4,
        "pitch": 5632
      },
      {
        "type": "pitchwheel",
        "time": 1,
        "channel": 4,
        "pitch": 5248
      },
      {
        "type": "pitchwheel",
        "time": 1,
        "channel": 4,
        "pitch": 4864
      },
      {
        "type": "pitchwheel",
        "time": 1,
        "channel": 4,
        "pitch": 4480
      },
      {
        "type": "pitchwheel",
        "time": 1,
        "channel": 4,
        "pitch": 4096
      },
      {
        "type": "pitchwheel",
        "time": 1,
        "channel": 4,
        "pitch": 3712
      },
      {
        "type": "pitchwheel",
        "time": 1,
        "channel": 4,
        "pitch": 3328
      },
      {
        "type": "pitchwheel",
        "time": 1,
        "channel": 4,
        "pitch": 2944
      },
      {
        "type": "pitchwheel",
        "time": 1,
        "channel": 4,
        "pitch": 2560
      },
      {
        "type": "pitchwheel",
        "time": 1,
        "channel": 4,
        "pitch": 2176
      },
      {
        "type": "pitchwheel",
        "time": 1,
        "channel": 4,
        "pitch": 1792
      },
      {
        "type": "pitchwheel",
        "time": 1,
        "channel": 4,
        "pitch": 1408
      },
      {
        "type": "pitchwheel",
        "time": 1,
        "channel": 4,
        "pitch": 1024
      },
      {
        "type": "pitchwheel",
        "time": 1,
        "channel": 4,
        "pitch": 640
      },
      {
        "type": "pitchwheel",
        "time": 1,
        "channel": 4,
        "pitch": 256
      },
      {
        "type": "pitchwheel",
        "time": 1,
        "channel": 4,
        "pitch": -256
      },
      {
        "type": "pitchwheel",
        "time": 1,
        "channel": 4,
        "pitch": -640
      },
      {
        "type": "pitchwheel",
        "time": 1,
        "channel": 4,
        "pitch": -1024
      },
      {
        "type": "pitchwheel",
        "time": 1,
        "channel": 4,
        "pitch": -1408
      },
      {
        "type": "pitchwheel",
        "time": 1,
        "channel": 4,
        "pitch": -1792
      },
      {
        "type": "pitchwheel",
        "time": 1,
        "channel": 4,
        "pitch": -2176
      },
      {
        "type": "pitchwheel",
        "time": 1,
        "channel": 4,
        "pitch": -2560
      },
      {
        "type": "pitchwheel",
        "time": 1,
        "channel": 4,
        "pitch": -2944
      },
      {
        "type": "pitchwheel",
        "time": 1,
        "channel": 4,
        "pitch": -3328
      },
      {
        "type": "pitchwheel",
        "time": 1,
        "channel": 4,
        "pitch": -3712
      },
      {
        "type": "pitchwheel",
        "time": 1,
        "channel": 4,
        "pitch": -4096
      },
      {
        "type": "pitchwheel",
        "time": 1,
        "channel": 4,
        "pitch": -4480
      },
      {
        "type": "pitchwheel",
        "time": 1,
        "channel": 4,
        "pitch": -4864
      },
      {
        "type": "pitchwheel",
        "time": 1,
        "channel": 4,
        "pitch": -5248
      },
      {
        "type": "pitchwheel",
        "time": 1,
        "channel": 4,
        "pitch": -5632
      },
      {
        "type": "pitchwheel",
        "time": 1,
        "channel": 4,
        "pitch": -6016
      },
      {
        "type": "pitchwheel",
        "time": 1,
        "channel": 4,
        "pitch": -6400
      },
      {
        "type": "pitchwheel",
        "time": 1,
        "channel": 4,
        "pitch": -6784
      },
      {
        "type": "pitchwheel",
        "time": 1,
        "channel": 4,
        "pitch": -7168
      },
      {
        "type": "pitchwheel",
        "time": 1,
        "channel": 4,
        "pitch": -7552
      },
      {
        "type": "pitchwheel",
        "time": 1,
        "channel": 4,
        "pitch": -8064
      },
      {
        "type": "pitchwheel",
        "time": 12,
        "channel": 4,
        "pitch": 0
      },
      {
        "type": "note_on",
        "time": 1,
        "note": 64,
        "velocity": 0,
        "channel": 4
      },
      {
        "type": "note_on",
        "time": 1,
        "note": 59,
        "velocity": 90,
        "channel": 4
      },
      {
        "type": "note_on",
        "time": 29,
        "note": 59,
        "velocity": 0,
        "channel": 4
      },
      {
        "type": "note_on",
        "time": 1,
        "note": 58,
        "velocity": 90,
        "channel": 4
      },
      {
        "type": "note_on",
        "time": 29,
        "note": 58,
        "velocity": 0,
        "channel": 4
      },
      {
        "type": "note_on",
        "time": 1,
        "note": 70,
        "velocity": 90,
        "channel": 4
      },
      {
        "type": "note_on",
        "time": 479,
        "note": 70,
        "velocity": 0,
        "channel": 4
      },
      {
        "type": "note_on",
        "time": 1,
        "note": 78,
        "velocity": 90,
        "channel": 4
      },
      {
        "type": "note_on",
        "time": 89,
        "note": 78,
        "velocity": 0,
        "channel": 4
      },
      {
        "type": "note_on",
        "time": 1,
        "note": 77,
        "velocity": 90,
        "channel": 4
      },
      {
        "type": "note_on",
        "time": 29,
        "note": 77,
        "velocity": 0,
        "channel": 4
      },
      {
        "type": "note_on",
        "time": 1,
        "note": 76,
        "velocity": 90,
        "channel": 4
      },
      {
        "type": "note_on",
        "time": 29,
        "note": 76,
        "velocity": 0,
        "channel": 4
      },
      {
        "type": "note_on",
        "time": 1,
        "note": 76,
        "velocity": 90,
        "channel": 4
      },
      {
        "type": "note_on",
        "time": 29,
        "note": 76,
        "velocity": 0,
        "channel": 4
      },
      {
        "type": "note_on",
        "time": 1,
        "note": 76,
        "velocity": 90,
        "channel": 4
      },
      {
        "type": "note_on",
        "time": 29,
        "note": 76,
        "velocity": 0,
        "channel": 4
      },
      {
        "type": "note_on",
        "time": 1,
        "note": 76,
        "velocity": 90,
        "channel": 4
      },
      {
        "type": "note_on",
        "time": 29,
        "note": 76,
        "velocity": 0,
        "channel": 4
      },
      {
        "type": "note_on",
        "time": 1,
        "note": 76,
        "velocity": 90,
        "channel": 4
      },
      {
        "type": "note_on",
        "time": 29,
        "note": 76,
        "velocity": 0,
        "channel": 4
      },
      {
        "type": "note_on",
        "time": 1,
        "note": 76,
        "velocity": 90,
        "channel": 4
      },
      {
        "type": "note_on",
        "time": 29,
        "note": 76,
        "velocity": 0,
        "channel": 4
      },
      {
        "type": "note_on",
        "time": 1,
        "note": 76,
        "velocity": 90,
        "channel": 4
      },
      {
        "type": "note_on",
        "time": 29,
        "note": 76,
        "velocity": 0,
        "channel": 4
      },
      {
        "type": "note_on",
        "time": 1,
        "note": 76,
        "velocity": 90,
        "channel": 4
      },
      {
        "type": "note_on",
        "time": 29,
        "note": 76,
        "velocity": 0,
        "channel": 4
      },
      {
        "type": "note_on",
        "time": 1,
        "note": 76,
        "velocity": 90,
        "channel": 4
      },
      {
        "type": "note_on",
        "time": 19,
        "note": 76,
        "velocity": 0,
        "channel": 4
      },
      {
        "type": "note_on",
        "time": 1,
        "note": 74,
        "velocity": 90,
        "channel": 4
      },
      {
        "type": "note_on",
        "time": 19,
        "note": 74,
        "velocity": 0,
        "channel": 4
      },
      {
        "type": "note_on",
        "time": 1,
        "note": 71,
        "velocity": 90,
        "channel": 4
      },
      {
        "type": "note_on",
        "time": 19,
        "note": 71,
        "velocity": 0,
        "channel": 4
      },
      {
        "type": "note_on",
        "time": 1,
        "note": 76,
        "velocity": 90,
        "channel": 4
      },
      {
        "type": "note_on",
        "time": 29,
        "note": 76,
        "velocity": 0,
        "channel": 4
      },
      {
        "type": "note_on",
        "time": 1,
        "note": 75,
        "velocity": 90,
        "channel": 4
      },
      {
        "type": "note_on",
        "time": 29,
        "note": 75,
        "velocity": 0,
        "channel": 4
      },
      {
        "type": "note_on",
        "time": 1,
        "note": 71,
        "velocity": 90,
        "channel": 4
      },
      {
        "type": "note_on",
        "time": 119,
        "note": 71,
        "velocity": 0,
        "channel": 4
      },
      {
        "type": "note_on",
        "time": 1,
        "note": 69,
        "velocity": 90,
        "channel": 4
      },
      {
        "type": "note_on",
        "time": 29,
        "note": 69,
        "velocity": 0,
        "channel": 4
      },
      {
        "type": "note_on",
        "time": 1,
        "note": 66,
        "velocity": 90,
        "channel": 4
      },
      {
        "type": "note_on",
        "time": 29,
        "note": 66,
        "velocity": 0,
        "channel": 4
      },
      {
        "type": "note_on",
        "time": 1,
        "note": 64,
        "velocity": 90,
        "channel": 4
      },
      {
        "type": "note_on",
        "time": 29,
        "note": 64,
        "velocity": 0,
        "channel": 4
      },
      {
        "type": "note_on",
        "time": 1,
        "note": 62,
        "velocity": 90,
        "channel": 4
      },
      {
        "type": "note_on",
        "time": 29,
        "note": 62,
        "velocity": 0,
        "channel": 4
      },
      {
        "type": "note_on",
        "time": 1,
        "note": 64,
        "velocity": 90,
        "channel": 4
      },
      {
        "type": "note_on",
        "time": 29,
        "note": 64,
        "velocity": 0,
        "channel": 4
      },
      {
        "type": "note_on",
        "time": 1,
        "note": 66,
        "velocity": 90,
        "channel": 4
      },
      {
        "type": "note_on",
        "time": 29,
        "note": 66,
        "velocity": 0,
        "channel": 4
      },
      {
        "type": "note_on",
        "time": 1,
        "note": 69,
        "velocity": 90,
        "channel": 4
      },
      {
        "type": "note_on",
        "time": 89,
        "note": 69,
        "velocity": 0,
        "channel": 4
      },
      {
        "type": "note_on",
        "time": 1,
        "note": 62,
        "velocity": 90,
        "channel": 4
      },
      {
        "type": "note_on",
        "time": 29,
        "note": 62,
        "velocity": 0,
        "channel": 4
      },
      {
        "type": "note_on",
        "time": 1,
        "note": 64,
        "velocity": 90,
        "channel": 4
      },
      {
        "type": "note_on",
        "time": 0,
        "note": 69,
        "velocity": 90,
        "channel": 4
      },
      {
        "type": "note_on",
        "time": 29,
        "note": 64,
        "velocity": 0,
        "channel": 4
      },
      {
        "type": "note_on",
        "time": 0,
        "note": 69,
        "velocity": 0,
        "channel": 4
      },
      {
        "type": "note_on",
        "time": 1,
        "note": 71,
        "velocity": 90,
        "channel": 4
      },
      {
        "type": "note_on",
        "time": 0,
        "note": 66,
        "velocity": 90,
        "channel": 4
      },
      {
        "type": "note_on",
        "time": 29,
        "note": 71,
        "velocity": 0,
        "channel": 4
      },
      {
        "type": "note_on",
        "time": 0,
        "note": 66,
        "velocity": 0,
        "channel": 4
      },
      {
        "type": "note_on",
        "time": 1,
        "note": 71,
        "velocity": 90,
        "channel": 4
      },
      {
        "type": "note_on",
        "time": 0,
        "note": 74,
        "velocity": 90,
        "channel": 4
      },
      {
        "type": "note_on",
        "time": 29,
        "note": 71,
        "velocity": 0,
        "channel": 4
      },
      {
        "type": "note_on",
        "time": 0,
        "note": 74,
        "velocity": 0,
        "channel": 4
      },
      {
        "type": "note_on",
        "time": 1,
        "note": 66,
        "velocity": 90,
        "channel": 4
      },
      {
        "type": "note_on",
        "time": 0,
        "note": 69,
        "velocity": 90,
        "channel": 4
      },
      {
        "type": "note_on",
        "time": 29,
        "note": 66,
        "velocity": 0,
        "channel": 4
      },
      {
        "type": "note_on",
        "time": 0,
        "note": 69,
        "velocity": 0,
        "channel": 4
      },
      {
        "type": "note_on",
        "time": 1,
        "note": 73,
        "velocity": 90,
        "channel": 4
      },
      {
        "type": "note_on",
        "time": 0,
        "note": 69,
        "velocity": 90,
        "channel": 4
      },
      {
        "type": "note_on",
        "time": 29,
        "note": 73,
        "velocity": 0,
        "channel": 4
      },
      {
        "type": "note_on",
        "time": 0,
        "note": 69,
        "velocity": 0,
        "channel": 4
      },
      {
        "type": "note_on",
        "time": 1,
        "note": 64,
        "velocity": 90,
        "channel": 4
      },
      {
        "type": "note_on",
        "time": 0,
        "note": 67,
        "velocity": 90,
        "channel": 4
      },
      {
        "type": "note_on",
        "time": 29,
        "note": 64,
        "velocity": 0,
        "channel": 4
      },
      {
        "type": "note_on",
        "time": 0,
        "note": 67,
        "velocity": 0,
        "channel": 4
      },
      {
        "type": "note_on",
        "time": 1,
        "note": 71,
        "velocity": 90,
        "channel": 4
      },
      {
        "type": "note_on",
        "time": 0,
        "note": 66,
        "velocity": 90,
        "channel": 4
      },
      {
        "type": "note_on",
        "time": 29,
        "note": 71,
        "velocity": 0,
        "channel": 4
      },
      {
        "type": "note_on",
        "time": 0,
        "note": 66,
        "velocity": 0,
        "channel": 4
      },
      {
        "type": "note_on",
        "time": 1,
        "note": 66,
        "velocity": 90,
        "channel": 4
      },
      {
        "type": "note_on",
        "time": 0,
        "note": 62,
        "velocity": 90,
        "channel": 4
      },
      {
        "type": "note_on",
        "time": 29,
        "note": 66,
        "velocity": 0,
        "channel": 4
      },
      {
        "type": "note_on",
        "time": 0,
        "note": 62,
        "velocity": 0,
        "channel": 4
      },
      {
        "type": "note_on",
        "time": 1,
        "note": 69,
        "velocity": 90,
        "channel": 4
      },
      {
        "type": "note_on",
        "time": 0,
        "note": 64,
        "velocity": 90,
        "channel": 4
      },
      {
        "type": "note_on",
        "time": 29,
        "note": 69,
        "velocity": 0,
        "channel": 4
      },
      {
        "type": "note_on",
        "time": 0,
        "note": 64,
        "velocity": 0,
        "channel": 4
      },
      {
        "type": "note_on",
        "time": 1,
        "note": 64,
        "velocity": 90,
        "channel": 4
      },
      {
        "type": "note_on",
        "time": 0,
        "note": 59,
        "velocity": 90,
        "channel": 4
      },
      {
        "type": "note_on",
        "time": 29,
        "note": 64,
        "velocity": 0,
        "channel": 4
      },
      {
        "type": "note_on",
        "time": 0,
        "note": 59,
        "velocity": 0,
        "channel": 4
      },
      {
        "type": "note_on",
        "time": 1,
        "note": 67,
        "velocity": 90,
        "channel": 4
      },
      {
        "type": "note_on",
        "time": 0,
        "note": 62,
        "velocity": 90,
        "channel": 4
      },
      {
        "type": "note_on",
        "time": 29,
        "note": 67,
        "velocity": 0,
        "channel": 4
      },
      {
        "type": "note_on",
        "time": 0,
        "note": 62,
        "velocity": 0,
        "channel": 4
      },
      {
        "type": "note_on",
        "time": 1,
        "note": 57,
        "velocity": 90,
        "channel": 4
      },
      {
        "type": "note_on",
        "time": 0,
        "note": 54,
        "velocity": 90,
        "channel": 4
      },
      {
        "type": "note_on",
        "time": 29,
        "note": 57,
        "velocity": 0,
        "channel": 4
      },
      {
        "type": "note_on",
        "time": 0,
        "note": 54,
        "velocity": 0,
        "channel": 4
      },
      {
        "type": "note_on",
        "time": 1,
        "note": 62,
        "velocity": 90,
        "channel": 4
      },
      {
        "type": "note_on",
        "time": 0,
        "note": 57,
        "velocity": 90,
        "channel": 4
      },
      {
        "type": "note_on",
        "time": 29,
        "note": 62,
        "velocity": 0,
        "channel": 4
      },
      {
        "type": "note_on",
        "time": 0,
        "note": 57,
        "velocity": 0,
        "channel": 4
      },
      {
        "type": "note_on",
        "time": 1,
        "note": 57,
        "velocity": 90,
        "channel": 4
      },
      {
        "type": "note_on",
        "time": 0,
        "note": 54,
        "velocity": 90,
        "channel": 4
      },
      {
        "type": "note_on",
        "time": 29,
        "note": 57,
        "velocity": 0,
        "channel": 4
      },
      {
        "type": "note_on",
        "time": 0,
        "note": 54,
        "velocity": 0,
        "channel": 4
      },
      {
        "type": "note_on",
        "time": 1,
        "note": 55,
        "velocity": 90,
        "channel": 4
      },
      {
        "type": "note_on",
        "time": 0,
        "note": 52,
        "velocity": 90,
        "channel": 4
      },
      {
        "type": "note_on",
        "time": 29,
        "note": 55,
        "velocity": 0,
        "channel": 4
      },
      {
        "type": "note_on",
        "time": 0,
        "note": 52,
        "velocity": 0,
        "channel": 4
      },
      {
        "type": "note_on",
        "time": 1,
        "note": 54,
        "velocity": 90,
        "channel": 4
      },
      {
        "type": "note_on",
        "time": 0,
        "note": 50,
        "velocity": 90,
        "channel": 4
      },
      {
        "type": "note_on",
        "time": 29,
        "note": 54,
        "velocity": 0,
        "channel": 4
      },
      {
        "type": "note_on",
        "time": 0,
        "note": 50,
        "velocity": 0,
        "channel": 4
      },
      {
        "type": "note_on",
        "time": 1,
        "note": 55,
        "velocity": 90,
        "channel": 4
      },
      {
        "type": "note_on",
        "time": 0,
        "note": 52,
        "velocity": 90,
        "channel": 4
      },
      {
        "type": "note_on",
        "time": 29,
        "note": 55,
        "velocity": 0,
        "channel": 4
      },
      {
        "type": "note_on",
        "time": 0,
        "note": 52,
        "velocity": 0,
        "channel": 4
      },
      {
        "type": "note_on",
        "time": 1,
        "note": 57,
        "velocity": 90,
        "channel": 4
      },
      {
        "type": "note_on",
        "time": 0,
        "note": 54,
        "velocity": 90,
        "channel": 4
      },
      {
        "type": "note_on",
        "time": 29,
        "note": 57,
        "velocity": 0,
        "channel": 4
      },
      {
        "type": "note_on",
        "time": 0,
        "note": 54,
        "velocity": 0,
        "channel": 4
      },
      {
        "type": "note_on",
        "time": 1,
        "note": 57,
        "velocity": 90,
        "channel": 4
      },
      {
        "type": "note_on",
        "time": 59,
        "note": 57,
        "velocity": 0,
        "channel": 4
      },
      {
        "type": "note_on",
        "time": 1,
        "note": 78,
        "velocity": 90,
        "channel": 4
      },
      {
        "type": "note_on",
        "time": 0,
        "note": 71,
        "velocity": 90,
        "channel": 4
      },
      {
        "type": "note_on",
        "time": 59,
        "note": 78,
        "velocity": 0,
        "channel": 4
      },
      {
        "type": "note_on",
        "time": 0,
        "note": 71,
        "velocity": 0,
        "channel": 4
      },
      {
        "type": "note_on",
        "time": 1,
        "note": 76,
        "velocity": 90,
        "channel": 4
      },
      {
        "type": "note_on",
        "time": 0,
        "note": 69,
        "velocity": 90,
        "channel": 4
      },
      {
        "type": "note_on",
        "time": 29,
        "note": 76,
        "velocity": 0,
        "channel": 4
      },
      {
        "type": "note_on",
        "time": 0,
        "note": 69,
        "velocity": 0,
        "channel": 4
      },
      {
        "type": "note_on",
        "time": 1,
        "note": 74,
        "velocity": 90,
        "channel": 4
      },
      {
        "type": "note_on",
        "time": 0,
        "note": 66,
        "velocity": 90,
        "channel": 4
      },
      {
        "type": "note_on",
        "time": 29,
        "note": 74,
        "velocity": 0,
        "channel": 4
      },
      {
        "type": "note_on",
        "time": 0,
        "note": 66,
        "velocity": 0,
        "channel": 4
      },
      {
        "type": "note_on",
        "time": 1,
        "note": 69,
        "velocity": 90,
        "channel": 4
      },
      {
        "type": "note_on",
        "time": 0,
        "note": 66,
        "velocity": 90,
        "channel": 4
      },
      {
        "type": "note_on",
        "time": 29,
        "note": 69,
        "velocity": 0,
        "channel": 4
      },
      {
        "type": "note_on",
        "time": 0,
        "note": 66,
        "velocity": 0,
        "channel": 4
      },
      {
        "type": "note_on",
        "time": 1,
        "note": 67,
        "velocity": 90,
        "channel": 4
      },
      {
        "type": "note_on",
        "time": 0,
        "note": 64,
        "velocity": 90,
        "channel": 4
      },
      {
        "type": "note_on",
        "time": 29,
        "note": 67,
        "velocity": 0,
        "channel": 4
      },
      {
        "type": "note_on",
        "time": 0,
        "note": 64,
        "velocity": 0,
        "channel": 4
      },
      {
        "type": "note_on",
        "time": 1,
        "note": 66,
        "velocity": 90,
        "channel": 4
      },
      {
        "type": "note_on",
        "time": 0,
        "note": 62,
        "velocity": 90,
        "channel": 4
      },
      {
        "type": "note_on",
        "time": 179,
        "note": 66,
        "velocity": 0,
        "channel": 4
      },
      {
        "type": "note_on",
        "time": 0,
        "note": 62,
        "velocity": 0,
        "channel": 4
      },
      {
        "type": "note_on",
        "time": 1,
        "note": 66,
        "velocity": 90,
        "channel": 4
      },
      {
        "type": "note_on",
        "time": 0,
        "note": 62,
        "velocity": 90,
        "channel": 4
      },
      {
        "type": "note_on",
        "time": 59,
        "note": 66,
        "velocity": 0,
        "channel": 4
      },
      {
        "type": "note_on",
        "time": 0,
        "note": 62,
        "velocity": 0,
        "channel": 4
      },
      {
        "type": "note_on",
        "time": 1,
        "note": 67,
        "velocity": 90,
        "channel": 4
      },
      {
        "type": "note_on",
        "time": 0,
        "note": 64,
        "velocity": 90,
        "channel": 4
      },
      {
        "type": "note_on",
        "time": 179,
        "note": 67,
        "velocity": 0,
        "channel": 4
      },
      {
        "type": "note_on",
        "time": 0,
        "note": 64,
        "velocity": 0,
        "channel": 4
      },
      {
        "type": "note_on",
        "time": 1,
        "note": 67,
        "velocity": 90,
        "channel": 4
      },
      {
        "type": "note_on",
        "time": 0,
        "note": 64,
        "velocity": 90,
        "channel": 4
      },
      {
        "type": "note_on",
        "time": 59,
        "note": 67,
        "velocity": 0,
        "channel": 4
      },
      {
        "type": "note_on",
        "time": 0,
        "note": 64,
        "velocity": 0,
        "channel": 4
      },
      {
        "type": "note_on",
        "time": 1,
        "note": 69,
        "velocity": 90,
        "channel": 4
      },
      {
        "type": "note_on",
        "time": 0,
        "note": 66,
        "velocity": 90,
        "channel": 4
      },
      {
        "type": "note_on",
        "time": 119,
        "note": 69,
        "velocity": 0,
        "channel": 4
      },
      {
        "type": "note_on",
        "time": 0,
        "note": 66,
        "velocity": 0,
        "channel": 4
      },
      {
        "type": "note_on",
        "time": 1,
        "note": 71,
        "velocity": 90,
        "channel": 4
      },
      {
        "type": "note_on",
        "time": 0,
        "note": 67,
        "velocity": 90,
        "channel": 4
      },
      {
        "type": "note_on",
        "time": 119,
        "note": 71,
        "velocity": 0,
        "channel": 4
      },
      {
        "type": "note_on",
        "time": 0,
        "note": 67,
        "velocity": 0,
        "channel": 4
      },
      {
        "type": "note_on",
        "time": 1,
        "note": 70,
        "velocity": 90,
        "channel": 4
      },
      {
        "type": "note_on",
        "time": 0,
        "note": 66,
        "velocity": 90,
        "channel": 4
      },
      {
        "type": "note_on",
        "time": 179,
        "note": 70,
        "velocity": 0,
        "channel": 4
      },
      {
        "type": "note_on",
        "time": 0,
        "note": 66,
        "velocity": 0,
        "channel": 4
      },
      {
        "type": "note_on",
        "time": 1,
        "note": 70,
        "velocity": 90,
        "channel": 4
      },
      {
        "type": "note_on",
        "time": 0,
        "note": 73,
        "velocity": 90,
        "channel": 4
      },
      {
        "type": "note_on",
        "time": 59,
        "note": 70,
        "velocity": 0,
        "channel": 4
      },
      {
        "type": "note_on",
        "time": 0,
        "note": 73,
        "velocity": 0,
        "channel": 4
      },
      {
        "type": "note_on",
        "time": 1,
        "note": 74,
        "velocity": 90,
        "channel": 4
      },
      {
        "type": "note_on",
        "time": 0,
        "note": 71,
        "velocity": 90,
        "channel": 4
      },
      {
        "type": "note_on",
        "time": 119,
        "note": 74,
        "velocity": 0,
        "channel": 4
      },
      {
        "type": "note_on",
        "time": 0,
        "note": 71,
        "velocity": 0,
        "channel": 4
      },
      {
        "type": "note_on",
        "time": 1,
        "note": 76,
        "velocity": 90,
        "channel": 4
      },
      {
        "type": "note_on",
        "time": 0,
        "note": 73,
        "velocity": 90,
        "channel": 4
      },
      {
        "type": "note_on",
        "time": 119,
        "note": 76,
        "velocity": 0,
        "channel": 4
      },
      {
        "type": "note_on",
        "time": 0,
        "note": 73,
        "velocity": 0,
        "channel": 4
      },
      {
        "type": "note_on",
        "time": 1,
        "note": 78,
        "velocity": 90,
        "channel": 4
      },
      {
        "type": "note_on",
        "time": 0,
        "note": 74,
        "velocity": 90,
        "channel": 4
      },
      {
        "type": "note_on",
        "time": 29,
        "note": 78,
        "velocity": 0,
        "channel": 4
      },
      {
        "type": "note_on",
        "time": 0,
        "note": 74,
        "velocity": 0,
        "channel": 4
      },
      {
        "type": "note_on",
        "time": 1,
        "note": 74,
        "velocity": 90,
        "channel": 4
      },
      {
        "type": "note_on",
        "time": 0,
        "note": 71,
        "velocity": 90,
        "channel": 4
      },
      {
        "type": "note_on",
        "time": 29,
        "note": 74,
        "velocity": 0,
        "channel": 4
      },
      {
        "type": "note_on",
        "time": 0,
        "note": 71,
        "velocity": 0,
        "channel": 4
      },
      {
        "type": "note_on",
        "time": 1,
        "note": 71,
        "velocity": 90,
        "channel": 4
      },
      {
        "type": "note_on",
        "time": 0,
        "note": 66,
        "velocity": 90,
        "channel": 4
      },
      {
        "type": "note_on",
        "time": 29,
        "note": 71,
        "velocity": 0,
        "channel": 4
      },
      {
        "type": "note_on",
        "time": 0,
        "note": 66,
        "velocity": 0,
        "channel": 4
      },
      {
        "type": "note_on",
        "time": 1,
        "note": 78,
        "velocity": 90,
        "channel": 4
      },
      {
        "type": "note_on",
        "time": 0,
        "note": 74,
        "velocity": 90,
        "channel": 4
      },
      {
        "type": "note_on",
        "time": 29,
        "note": 78,
        "velocity": 0,
        "channel": 4
      },
      {
        "type": "note_on",
        "time": 0,
        "note": 74,
        "velocity": 0,
        "channel": 4
      },
      {
        "type": "note_on",
        "time": 1,
        "note": 74,
        "velocity": 90,
        "channel": 4
      },
      {
        "type": "note_on",
        "time": 0,
        "note": 71,
        "velocity": 90,
        "channel": 4
      },
      {
        "type": "note_on",
        "time": 29,
        "note": 74,
        "velocity": 0,
        "channel": 4
      },
      {
        "type": "note_on",
        "time": 0,
        "note": 71,
        "velocity": 0,
        "channel": 4
      },
      {
        "type": "note_on",
        "time": 1,
        "note": 71,
        "velocity": 90,
        "channel": 4
      },
      {
        "type": "note_on",
        "time": 0,
        "note": 66,
        "velocity": 90,
        "channel": 4
      },
      {
        "type": "note_on",
        "time": 29,
        "note": 71,
        "velocity": 0,
        "channel": 4
      },
      {
        "type": "note_on",
        "time": 0,
        "note": 66,
        "velocity": 0,
        "channel": 4
      },
      {
        "type": "note_on",
        "time": 1,
        "note": 78,
        "velocity": 90,
        "channel": 4
      },
      {
        "type": "note_on",
        "time": 0,
        "note": 74,
        "velocity": 90,
        "channel": 4
      },
      {
        "type": "note_on",
        "time": 29,
        "note": 78,
        "velocity": 0,
        "channel": 4
      },
      {
        "type": "note_on",
        "time": 0,
        "note": 74,
        "velocity": 0,
        "channel": 4
      },
      {
        "type": "note_on",
        "time": 1,
        "note": 74,
        "velocity": 90,
        "channel": 4
      },
      {
        "type": "note_on",
        "time": 0,
        "note": 71,
        "velocity": 90,
        "channel": 4
      },
      {
        "type": "note_on",
        "time": 29,
        "note": 74,
        "velocity": 0,
        "channel": 4
      },
      {
        "type": "note_on",
        "time": 0,
        "note": 71,
        "velocity": 0,
        "channel": 4
      },
      {
        "type": "note_on",
        "time": 1,
        "note": 71,
        "velocity": 90,
        "channel": 4
      },
      {
        "type": "note_on",
        "time": 0,
        "note": 66,
        "velocity": 90,
        "channel": 4
      },
      {
        "type": "note_on",
        "time": 29,
        "note": 71,
        "velocity": 0,
        "channel": 4
      },
      {
        "type": "note_on",
        "time": 0,
        "note": 66,
        "velocity": 0,
        "channel": 4
      },
      {
        "type": "note_on",
        "time": 1,
        "note": 78,
        "velocity": 90,
        "channel": 4
      },
      {
        "type": "note_on",
        "time": 0,
        "note": 74,
        "velocity": 90,
        "channel": 4
      },
      {
        "type": "note_on",
        "time": 29,
        "note": 78,
        "velocity": 0,
        "channel": 4
      },
      {
        "type": "note_on",
        "time": 0,
        "note": 74,
        "velocity": 0,
        "channel": 4
      },
      {
        "type": "note_on",
        "time": 1,
        "note": 71,
        "velocity": 90,
        "channel": 4
      },
      {
        "type": "note_on",
        "time": 0,
        "note": 74,
        "velocity": 90,
        "channel": 4
      },
      {
        "type": "note_on",
        "time": 29,
        "note": 71,
        "velocity": 0,
        "channel": 4
      },
      {
        "type": "note_on",
        "time": 0,
        "note": 74,
        "velocity": 0,
        "channel": 4
      },
      {
        "type": "note_on",
        "time": 1,
        "note": 71,
        "velocity": 90,
        "channel": 4
      },
      {
        "type": "note_on",
        "time": 0,
        "note": 66,
        "velocity": 90,
        "channel": 4
      },
      {
        "type": "note_on",
        "time": 29,
        "note": 71,
        "velocity": 0,
        "channel": 4
      },
      {
        "type": "note_on",
        "time": 0,
        "note": 66,
        "velocity": 0,
        "channel": 4
      },
      {
        "type": "note_on",
        "time": 1,
        "note": 74,
        "velocity": 90,
        "channel": 4
      },
      {
        "type": "note_on",
        "time": 0,
        "note": 78,
        "velocity": 90,
        "channel": 4
      },
      {
        "type": "note_on",
        "time": 29,
        "note": 74,
        "velocity": 0,
        "channel": 4
      },
      {
        "type": "note_on",
        "time": 0,
        "note": 78,
        "velocity": 0,
        "channel": 4
      },
      {
        "type": "note_on",
        "time": 1,
        "note": 71,
        "velocity": 90,
        "channel": 4
      },
      {
        "type": "note_on",
        "time": 0,
        "note": 74,
        "velocity": 90,
        "channel": 4
      },
      {
        "type": "note_on",
        "time": 29,
        "note": 71,
        "velocity": 0,
        "channel": 4
      },
      {
        "type": "note_on",
        "time": 0,
        "note": 74,
        "velocity": 0,
        "channel": 4
      },
      {
        "type": "note_on",
        "time": 1,
        "note": 71,
        "velocity": 90,
        "channel": 4
      },
      {
        "type": "note_on",
        "time": 0,
        "note": 66,
        "velocity": 90,
        "channel": 4
      },
      {
        "type": "note_on",
        "time": 59,
        "note": 71,
        "velocity": 0,
        "channel": 4
      },
      {
        "type": "note_on",
        "time": 0,
        "note": 66,
        "velocity": 0,
        "channel": 4
      },
      {
        "type": "note_on",
        "time": 1,
        "note": 73,
        "velocity": 90,
        "channel": 4
      },
      {
        "type": "note_on",
        "time": 0,
        "note": 76,
        "velocity": 90,
        "channel": 4
      },
      {
        "type": "note_on",
        "time": 29,
        "note": 73,
        "velocity": 0,
        "channel": 4
      },
      {
        "type": "note_on",
        "time": 0,
        "note": 76,
        "velocity": 0,
        "channel": 4
      },
      {
        "type": "note_on",
        "time": 1,
        "note": 70,
        "velocity": 90,
        "channel": 4
      },
      {
        "type": "note_on",
        "time": 0,
        "note": 73,
        "velocity": 90,
        "channel": 4
      },
      {
        "type": "note_on",
        "time": 29,
        "note": 70,
        "velocity": 0,
        "channel": 4
      },
      {
        "type": "note_on",
        "time": 0,
        "note": 73,
        "velocity": 0,
        "channel": 4
      },
      {
        "type": "note_on",
        "time": 1,
        "note": 70,
        "velocity": 90,
        "channel": 4
      },
      {
        "type": "note_on",
        "time": 0,
        "note": 66,
        "velocity": 90,
        "channel": 4
      },
      {
        "type": "note_on",
        "time": 29,
        "note": 70,
        "velocity": 0,
        "channel": 4
      },
      {
        "type": "note_on",
        "time": 0,
        "note": 66,
        "velocity": 0,
        "channel": 4
      },
      {
        "type": "note_on",
        "time": 1,
        "note": 73,
        "velocity": 90,
        "channel": 4
      },
      {
        "type": "note_on",
        "time": 0,
        "note": 76,
        "velocity": 90,
        "channel": 4
      },
      {
        "type": "note_on",
        "time": 29,
        "note": 73,
        "velocity": 0,
        "channel": 4
      },
      {
        "type": "note_on",
        "time": 0,
        "note": 76,
        "velocity": 0,
        "channel": 4
      },
      {
        "type": "note_on",
        "time": 1,
        "note": 70,
        "velocity": 90,
        "channel": 4
      },
      {
        "type": "note_on",
        "time": 0,
        "note": 73,
        "velocity": 90,
        "channel": 4
      },
      {
        "type": "note_on",
        "time": 29,
        "note": 70,
        "velocity": 0,
        "channel": 4
      },
      {
        "type": "note_on",
        "time": 0,
        "note": 73,
        "velocity": 0,
        "channel": 4
      },
      {
        "type": "note_on",
        "time": 1,
        "note": 70,
        "velocity": 90,
        "channel": 4
      },
      {
        "type": "note_on",
        "time": 0,
        "note": 66,
        "velocity": 90,
        "channel": 4
      },
      {
        "type": "note_on",
        "time": 29,
        "note": 70,
        "velocity": 0,
        "channel": 4
      },
      {
        "type": "note_on",
        "time": 0,
        "note": 66,
        "velocity": 0,
        "channel": 4
      },
      {
        "type": "note_on",
        "time": 1,
        "note": 73,
        "velocity": 90,
        "channel": 4
      },
      {
        "type": "note_on",
        "time": 0,
        "note": 76,
        "velocity": 90,
        "channel": 4
      },
      {
        "type": "note_on",
        "time": 29,
        "note": 73,
        "velocity": 0,
        "channel": 4
      },
      {
        "type": "note_on",
        "time": 0,
        "note": 76,
        "velocity": 0,
        "channel": 4
      },
      {
        "type": "note_on",
        "time": 1,
        "note": 70,
        "velocity": 90,
        "channel": 4
      },
      {
        "type": "note_on",
        "time": 0,
        "note": 73,
        "velocity": 90,
        "channel": 4
      },
      {
        "type": "note_on",
        "time": 29,
        "note": 70,
        "velocity": 0,
        "channel": 4
      },
      {
        "type": "note_on",
        "time": 0,
        "note": 73,
        "velocity": 0,
        "channel": 4
      },
      {
        "type": "note_on",
        "time": 1,
        "note": 82,
        "velocity": 90,
        "channel": 4
      },
      {
        "type": "note_on",
        "time": 0,
        "note": 78,
        "velocity": 90,
        "channel": 4
      },
      {
        "type": "note_on",
        "time": 239,
        "note": 82,
        "velocity": 0,
        "channel": 4
      },
      {
        "type": "note_on",
        "time": 0,
        "note": 78,
        "velocity": 0,
        "channel": 4
      },
      {
        "type": "note_on",
        "time": 1,
        "note": 73,
        "velocity": 90,
        "channel": 4
      },
      {
        "type": "note_on",
        "time": 0,
        "note": 76,
        "velocity": 90,
        "channel": 4
      },
      {
        "type": "note_on",
        "time": 29,
        "note": 73,
        "velocity": 0,
        "channel": 4
      },
      {
        "type": "note_on",
        "time": 0,
        "note": 76,
        "velocity": 0,
        "channel": 4
      },
      {
        "type": "note_on",
        "time": 1,
        "note": 73,
        "velocity": 90,
        "channel": 4
      },
      {
        "type": "note_on",
        "time": 0,
        "note": 69,
        "velocity": 90,
        "channel": 4
      },
      {
        "type": "note_on",
        "time": 29,
        "note": 73,
        "velocity": 0,
        "channel": 4
      },
      {
        "type": "note_on",
        "time": 0,
        "note": 69,
        "velocity": 0,
        "channel": 4
      },
      {
        "type": "note_on",
        "time": 1,
        "note": 69,
        "velocity": 90,
        "channel": 4
      },
      {
        "type": "note_on",
        "time": 0,
        "note": 64,
        "velocity": 90,
        "channel": 4
      },
      {
        "type": "note_on",
        "time": 29,
        "note": 69,
        "velocity": 0,
        "channel": 4
      },
      {
        "type": "note_on",
        "time": 0,
        "note": 64,
        "velocity": 0,
        "channel": 4
      },
      {
        "type": "note_on",
        "time": 1,
        "note": 76,
        "velocity": 90,
        "channel": 4
      },
      {
        "type": "note_on",
        "time": 0,
        "note": 73,
        "velocity": 90,
        "channel": 4
      },
      {
        "type": "note_on",
        "time": 29,
        "note": 76,
        "velocity": 0,
        "channel": 4
      },
      {
        "type": "note_on",
        "time": 0,
        "note": 73,
        "velocity": 0,
        "channel": 4
      },
      {
        "type": "note_on",
        "time": 1,
        "note": 73,
        "velocity": 90,
        "channel": 4
      },
      {
        "type": "note_on",
        "time": 0,
        "note": 69,
        "velocity": 90,
        "channel": 4
      },
      {
        "type": "note_on",
        "time": 29,
        "note": 73,
        "velocity": 0,
        "channel": 4
      },
      {
        "type": "note_on",
        "time": 0,
        "note": 69,
        "velocity": 0,
        "channel": 4
      },
      {
        "type": "note_on",
        "time": 1,
        "note": 69,
        "velocity": 90,
        "channel": 4
      },
      {
        "type": "note_on",
        "time": 0,
        "note": 64,
        "velocity": 90,
        "channel": 4
      },
      {
        "type": "note_on",
        "time": 29,
        "note": 69,
        "velocity": 0,
        "channel": 4
      },
      {
        "type": "note_on",
        "time": 0,
        "note": 64,
        "velocity": 0,
        "channel": 4
      },
      {
        "type": "note_on",
        "time": 1,
        "note": 76,
        "velocity": 90,
        "channel": 4
      },
      {
        "type": "note_on",
        "time": 0,
        "note": 73,
        "velocity": 90,
        "channel": 4
      },
      {
        "type": "note_on",
        "time": 29,
        "note": 76,
        "velocity": 0,
        "channel": 4
      },
      {
        "type": "note_on",
        "time": 0,
        "note": 73,
        "velocity": 0,
        "channel": 4
      },
      {
        "type": "note_on",
        "time": 1,
        "note": 73,
        "velocity": 90,
        "channel": 4
      },
      {
        "type": "note_on",
        "time": 0,
        "note": 69,
        "velocity": 90,
        "channel": 4
      },
      {
        "type": "note_on",
        "time": 29,
        "note": 73,
        "velocity": 0,
        "channel": 4
      },
      {
        "type": "note_on",
        "time": 0,
        "note": 69,
        "velocity": 0,
        "channel": 4
      },
      {
        "type": "note_on",
        "time": 1,
        "note": 69,
        "velocity": 90,
        "channel": 4
      },
      {
        "type": "note_on",
        "time": 0,
        "note": 64,
        "velocity": 90,
        "channel": 4
      },
      {
        "type": "note_on",
        "time": 29,
        "note": 69,
        "velocity": 0,
        "channel": 4
      },
      {
        "type": "note_on",
        "time": 0,
        "note": 64,
        "velocity": 0,
        "channel": 4
      },
      {
        "type": "note_on",
        "time": 1,
        "note": 76,
        "velocity": 90,
        "channel": 4
      },
      {
        "type": "note_on",
        "time": 0,
        "note": 73,
        "velocity": 90,
        "channel": 4
      },
      {
        "type": "note_on",
        "time": 29,
        "note": 76,
        "velocity": 0,
        "channel": 4
      },
      {
        "type": "note_on",
        "time": 0,
        "note": 73,
        "velocity": 0,
        "channel": 4
      },
      {
        "type": "note_on",
        "time": 1,
        "note": 73,
        "velocity": 90,
        "channel": 4
      },
      {
        "type": "note_on",
        "time": 0,
        "note": 69,
        "velocity": 90,
        "channel": 4
      },
      {
        "type": "note_on",
        "time": 29,
        "note": 73,
        "velocity": 0,
        "channel": 4
      },
      {
        "type": "note_on",
        "time": 0,
        "note": 69,
        "velocity": 0,
        "channel": 4
      },
      {
        "type": "note_on",
        "time": 1,
        "note": 69,
        "velocity": 90,
        "channel": 4
      },
      {
        "type": "note_on",
        "time": 0,
        "note": 64,
        "velocity": 90,
        "channel": 4
      },
      {
        "type": "note_on",
        "time": 29,
        "note": 69,
        "velocity": 0,
        "channel": 4
      },
      {
        "type": "note_on",
        "time": 0,
        "note": 64,
        "velocity": 0,
        "channel": 4
      },
      {
        "type": "note_on",
        "time": 1,
        "note": 76,
        "velocity": 90,
        "channel": 4
      },
      {
        "type": "note_on",
        "time": 0,
        "note": 73,
        "velocity": 90,
        "channel": 4
      },
      {
        "type": "note_on",
        "time": 29,
        "note": 76,
        "velocity": 0,
        "channel": 4
      },
      {
        "type": "note_on",
        "time": 0,
        "note": 73,
        "velocity": 0,
        "channel": 4
      },
      {
        "type": "note_on",
        "time": 1,
        "note": 69,
        "velocity": 90,
        "channel": 4
      },
      {
        "type": "note_on",
        "time": 0,
        "note": 73,
        "velocity": 90,
        "channel": 4
      },
      {
        "type": "note_on",
        "time": 29,
        "note": 69,
        "velocity": 0,
        "channel": 4
      },
      {
        "type": "note_on",
        "time": 0,
        "note": 73,
        "velocity": 0,
        "channel": 4
      },
      {
        "type": "note_on",
        "time": 1,
        "note": 69,
        "velocity": 90,
        "channel": 4
      },
      {
        "type": "note_on",
        "time": 0,
        "note": 64,
        "velocity": 90,
        "channel": 4
      },
      {
        "type": "note_on",
        "time": 59,
        "note": 69,
        "velocity": 0,
        "channel": 4
      },
      {
        "type": "note_on",
        "time": 0,
        "note": 64,
        "velocity": 0,
        "channel": 4
      },
      {
        "type": "note_on",
        "time": 1,
        "note": 74,
        "velocity": 90,
        "channel": 4
      },
      {
        "type": "note_on",
        "time": 0,
        "note": 71,
        "velocity": 90,
        "channel": 4
      },
      {
        "type": "note_on",
        "time": 29,
        "note": 74,
        "velocity": 0,
        "channel": 4
      },
      {
        "type": "note_on",
        "time": 0,
        "note": 71,
        "velocity": 0,
        "channel": 4
      },
      {
        "type": "note_on",
        "time": 1,
        "note": 71,
        "velocity": 90,
        "channel": 4
      },
      {
        "type": "note_on",
        "time": 0,
        "note": 68,
        "velocity": 90,
        "channel": 4
      },
      {
        "type": "note_on",
        "time": 29,
        "note": 71,
        "velocity": 0,
        "channel": 4
      },
      {
        "type": "note_on",
        "time": 0,
        "note": 68,
        "velocity": 0,
        "channel": 4
      },
      {
        "type": "note_on",
        "time": 1,
        "note": 68,
        "velocity": 90,
        "channel": 4
      },
      {
        "type": "note_on",
        "time": 0,
        "note": 64,
        "velocity": 90,
        "channel": 4
      },
      {
        "type": "note_on",
        "time": 29,
        "note": 68,
        "velocity": 0,
        "channel": 4
      },
      {
        "type": "note_on",
        "time": 0,
        "note": 64,
        "velocity": 0,
        "channel": 4
      },
      {
        "type": "note_on",
        "time": 1,
        "note": 74,
        "velocity": 90,
        "channel": 4
      },
      {
        "type": "note_on",
        "time": 0,
        "note": 71,
        "velocity": 90,
        "channel": 4
      },
      {
        "type": "note_on",
        "time": 29,
        "note": 74,
        "velocity": 0,
        "channel": 4
      },
      {
        "type": "note_on",
        "time": 0,
        "note": 71,
        "velocity": 0,
        "channel": 4
      },
      {
        "type": "note_on",
        "time": 1,
        "note": 71,
        "velocity": 90,
        "channel": 4
      },
      {
        "type": "note_on",
        "time": 0,
        "note": 68,
        "velocity": 90,
        "channel": 4
      },
      {
        "type": "note_on",
        "time": 29,
        "note": 71,
        "velocity": 0,
        "channel": 4
      },
      {
        "type": "note_on",
        "time": 0,
        "note": 68,
        "velocity": 0,
        "channel": 4
      },
      {
        "type": "note_on",
        "time": 1,
        "note": 68,
        "velocity": 90,
        "channel": 4
      },
      {
        "type": "note_on",
        "time": 0,
        "note": 64,
        "velocity": 90,
        "channel": 4
      },
      {
        "type": "note_on",
        "time": 29,
        "note": 68,
        "velocity": 0,
        "channel": 4
      },
      {
        "type": "note_on",
        "time": 0,
        "note": 64,
        "velocity": 0,
        "channel": 4
      },
      {
        "type": "note_on",
        "time": 1,
        "note": 74,
        "velocity": 90,
        "channel": 4
      },
      {
        "type": "note_on",
        "time": 0,
        "note": 71,
        "velocity": 90,
        "channel": 4
      },
      {
        "type": "note_on",
        "time": 29,
        "note": 74,
        "velocity": 0,
        "channel": 4
      },
      {
        "type": "note_on",
        "time": 0,
        "note": 71,
        "velocity": 0,
        "channel": 4
      },
      {
        "type": "note_on",
        "time": 1,
        "note": 71,
        "velocity": 90,
        "channel": 4
      },
      {
        "type": "note_on",
        "time": 0,
        "note": 68,
        "velocity": 90,
        "channel": 4
      },
      {
        "type": "note_on",
        "time": 29,
        "note": 71,
        "velocity": 0,
        "channel": 4
      },
      {
        "type": "note_on",
        "time": 0,
        "note": 68,
        "velocity": 0,
        "channel": 4
      },
      {
        "type": "note_on",
        "time": 1,
        "note": 80,
        "velocity": 90,
        "channel": 4
      },
      {
        "type": "note_on",
        "time": 0,
        "note": 76,
        "velocity": 90,
        "channel": 4
      },
      {
        "type": "note_on",
        "time": 239,
        "note": 80,
        "velocity": 0,
        "channel": 4
      },
      {
        "type": "note_on",
        "time": 0,
        "note": 76,
        "velocity": 0,
        "channel": 4
      },
      {
        "type": "note_on",
        "time": 1,
        "note": 74,
        "velocity": 90,
        "channel": 4
      },
      {
        "type": "note_on",
        "time": 0,
        "note": 71,
        "velocity": 90,
        "channel": 4
      },
      {
        "type": "note_on",
        "time": 29,
        "note": 74,
        "velocity": 0,
        "channel": 4
      },
      {
        "type": "note_on",
        "time": 0,
        "note": 71,
        "velocity": 0,
        "channel": 4
      },
      {
        "type": "note_on",
        "time": 1,
        "note": 71,
        "velocity": 90,
        "channel": 4
      },
      {
        "type": "note_on",
        "time": 0,
        "note": 67,
        "velocity": 90,
        "channel": 4
      },
      {
        "type": "note_on",
        "time": 29,
        "note": 71,
        "velocity": 0,
        "channel": 4
      },
      {
        "type": "note_on",
        "time": 0,
        "note": 67,
        "velocity": 0,
        "channel": 4
      },
      {
        "type": "note_on",
        "time": 1,
        "note": 62,
        "velocity": 90,
        "channel": 4
      },
      {
        "type": "note_on",
        "time": 0,
        "note": 67,
        "velocity": 90,
        "channel": 4
      },
      {
        "type": "note_on",
        "time": 29,
        "note": 62,
        "velocity": 0,
        "channel": 4
      },
      {
        "type": "note_on",
        "time": 0,
        "note": 67,
        "velocity": 0,
        "channel": 4
      },
      {
        "type": "note_on",
        "time": 1,
        "note": 74,
        "velocity": 90,
        "channel": 4
      },
      {
        "type": "note_on",
        "time": 0,
        "note": 71,
        "velocity": 90,
        "channel": 4
      },
      {
        "type": "note_on",
        "time": 29,
        "note": 74,
        "velocity": 0,
        "channel": 4
      },
      {
        "type": "note_on",
        "time": 0,
        "note": 71,
        "velocity": 0,
        "channel": 4
      },
      {
        "type": "note_on",
        "time": 1,
        "note": 71,
        "velocity": 90,
        "channel": 4
      },
      {
        "type": "note_on",
        "time": 0,
        "note": 67,
        "velocity": 90,
        "channel": 4
      },
      {
        "type": "note_on",
        "time": 29,
        "note": 71,
        "velocity": 0,
        "channel": 4
      },
      {
        "type": "note_on",
        "time": 0,
        "note": 67,
        "velocity": 0,
        "channel": 4
      },
      {
        "type": "note_on",
        "time": 1,
        "note": 67,
        "velocity": 90,
        "channel": 4
      },
      {
        "type": "note_on",
        "time": 0,
        "note": 62,
        "velocity": 90,
        "channel": 4
      },
      {
        "type": "note_on",
        "time": 29,
        "note": 67,
        "velocity": 0,
        "channel": 4
      },
      {
        "type": "note_on",
        "time": 0,
        "note": 62,
        "velocity": 0,
        "channel": 4
      },
      {
        "type": "note_on",
        "time": 1,
        "note": 74,
        "velocity": 90,
        "channel": 4
      },
      {
        "type": "note_on",
        "time": 0,
        "note": 71,
        "velocity": 90,
        "channel": 4
      },
      {
        "type": "note_on",
        "time": 29,
        "note": 74,
        "velocity": 0,
        "channel": 4
      },
      {
        "type": "note_on",
        "time": 0,
        "note": 71,
        "velocity": 0,
        "channel": 4
      },
      {
        "type": "note_on",
        "time": 1,
        "note": 71,
        "velocity": 90,
        "channel": 4
      },
      {
        "type": "note_on",
        "time": 0,
        "note": 67,
        "velocity": 90,
        "channel": 4
      },
      {
        "type": "note_on",
        "time": 29,
        "note": 71,
        "velocity": 0,
        "channel": 4
      },
      {
        "type": "note_on",
        "time": 0,
        "note": 67,
        "velocity": 0,
        "channel": 4
      },
      {
        "type": "note_on",
        "time": 1,
        "note": 67,
        "velocity": 90,
        "channel": 4
      },
      {
        "type": "note_on",
        "time": 0,
        "note": 62,
        "velocity": 90,
        "channel": 4
      },
      {
        "type": "note_on",
        "time": 29,
        "note": 67,
        "velocity": 0,
        "channel": 4
      },
      {
        "type": "note_on",
        "time": 0,
        "note": 62,
        "velocity": 0,
        "channel": 4
      },
      {
        "type": "note_on",
        "time": 1,
        "note": 74,
        "velocity": 90,
        "channel": 4
      },
      {
        "type": "note_on",
        "time": 0,
        "note": 71,
        "velocity": 90,
        "channel": 4
      },
      {
        "type": "note_on",
        "time": 29,
        "note": 74,
        "velocity": 0,
        "channel": 4
      },
      {
        "type": "note_on",
        "time": 0,
        "note": 71,
        "velocity": 0,
        "channel": 4
      },
      {
        "type": "note_on",
        "time": 1,
        "note": 71,
        "velocity": 90,
        "channel": 4
      },
      {
        "type": "note_on",
        "time": 0,
        "note": 67,
        "velocity": 90,
        "channel": 4
      },
      {
        "type": "note_on",
        "time": 29,
        "note": 71,
        "velocity": 0,
        "channel": 4
      },
      {
        "type": "note_on",
        "time": 0,
        "note": 67,
        "velocity": 0,
        "channel": 4
      },
      {
        "type": "note_on",
        "time": 1,
        "note": 67,
        "velocity": 90,
        "channel": 4
      },
      {
        "type": "note_on",
        "time": 0,
        "note": 62,
        "velocity": 90,
        "channel": 4
      },
      {
        "type": "note_on",
        "time": 29,
        "note": 67,
        "velocity": 0,
        "channel": 4
      },
      {
        "type": "note_on",
        "time": 0,
        "note": 62,
        "velocity": 0,
        "channel": 4
      },
      {
        "type": "note_on",
        "time": 1,
        "note": 74,
        "velocity": 90,
        "channel": 4
      },
      {
        "type": "note_on",
        "time": 0,
        "note": 71,
        "velocity": 90,
        "channel": 4
      },
      {
        "type": "note_on",
        "time": 29,
        "note": 74,
        "velocity": 0,
        "channel": 4
      },
      {
        "type": "note_on",
        "time": 0,
        "note": 71,
        "velocity": 0,
        "channel": 4
      },
      {
        "type": "note_on",
        "time": 1,
        "note": 71,
        "velocity": 90,
        "channel": 4
      },
      {
        "type": "note_on",
        "time": 0,
        "note": 67,
        "velocity": 90,
        "channel": 4
      },
      {
        "type": "note_on",
        "time": 29,
        "note": 71,
        "velocity": 0,
        "channel": 4
      },
      {
        "type": "note_on",
        "time": 0,
        "note": 67,
        "velocity": 0,
        "channel": 4
      },
      {
        "type": "note_on",
        "time": 1,
        "note": 67,
        "velocity": 90,
        "channel": 4
      },
      {
        "type": "note_on",
        "time": 0,
        "note": 62,
        "velocity": 90,
        "channel": 4
      },
      {
        "type": "note_on",
        "time": 59,
        "note": 67,
        "velocity": 0,
        "channel": 4
      },
      {
        "type": "note_on",
        "time": 0,
        "note": 62,
        "velocity": 0,
        "channel": 4
      },
      {
        "type": "note_on",
        "time": 1,
        "note": 69,
        "velocity": 90,
        "channel": 4
      },
      {
        "type": "note_on",
        "time": 0,
        "note": 74,
        "velocity": 90,
        "channel": 4
      },
      {
        "type": "note_on",
        "time": 29,
        "note": 69,
        "velocity": 0,
        "channel": 4
      },
      {
        "type": "note_on",
        "time": 0,
        "note": 74,
        "velocity": 0,
        "channel": 4
      },
      {
        "type": "note_on",
        "time": 1,
        "note": 69,
        "velocity": 90,
        "channel": 4
      },
      {
        "type": "note_on",
        "time": 0,
        "note": 66,
        "velocity": 90,
        "channel": 4
      },
      {
        "type": "note_on",
        "time": 29,
        "note": 69,
        "velocity": 0,
        "channel": 4
      },
      {
        "type": "note_on",
        "time": 0,
        "note": 66,
        "velocity": 0,
        "channel": 4
      },
      {
        "type": "note_on",
        "time": 1,
        "note": 62,
        "velocity": 90,
        "channel": 4
      },
      {
        "type": "note_on",
        "time": 0,
        "note": 66,
        "velocity": 90,
        "channel": 4
      },
      {
        "type": "note_on",
        "time": 29,
        "note": 62,
        "velocity": 0,
        "channel": 4
      },
      {
        "type": "note_on",
        "time": 0,
        "note": 66,
        "velocity": 0,
        "channel": 4
      },
      {
        "type": "note_on",
        "time": 1,
        "note": 69,
        "velocity": 90,
        "channel": 4
      },
      {
        "type": "note_on",
        "time": 0,
        "note": 74,
        "velocity": 90,
        "channel": 4
      },
      {
        "type": "note_on",
        "time": 29,
        "note": 69,
        "velocity": 0,
        "channel": 4
      },
      {
        "type": "note_on",
        "time": 0,
        "note": 74,
        "velocity": 0,
        "channel": 4
      },
      {
        "type": "note_on",
        "time": 1,
        "note": 69,
        "velocity": 90,
        "channel": 4
      },
      {
        "type": "note_on",
        "time": 0,
        "note": 66,
        "velocity": 90,
        "channel": 4
      },
      {
        "type": "note_on",
        "time": 29,
        "note": 69,
        "velocity": 0,
        "channel": 4
      },
      {
        "type": "note_on",
        "time": 0,
        "note": 66,
        "velocity": 0,
        "channel": 4
      },
      {
        "type": "note_on",
        "time": 1,
        "note": 62,
        "velocity": 90,
        "channel": 4
      },
      {
        "type": "note_on",
        "time": 0,
        "note": 66,
        "velocity": 90,
        "channel": 4
      },
      {
        "type": "note_on",
        "time": 29,
        "note": 62,
        "velocity": 0,
        "channel": 4
      },
      {
        "type": "note_on",
        "time": 0,
        "note": 66,
        "velocity": 0,
        "channel": 4
      },
      {
        "type": "note_on",
        "time": 1,
        "note": 69,
        "velocity": 90,
        "channel": 4
      },
      {
        "type": "note_on",
        "time": 0,
        "note": 74,
        "velocity": 90,
        "channel": 4
      },
      {
        "type": "note_on",
        "time": 29,
        "note": 69,
        "velocity": 0,
        "channel": 4
      },
      {
        "type": "note_on",
        "time": 0,
        "note": 74,
        "velocity": 0,
        "channel": 4
      },
      {
        "type": "note_on",
        "time": 1,
        "note": 71,
        "velocity": 90,
        "channel": 4
      },
      {
        "type": "note_on",
        "time": 0,
        "note": 66,
        "velocity": 90,
        "channel": 4
      },
      {
        "type": "note_on",
        "time": 29,
        "note": 71,
        "velocity": 0,
        "channel": 4
      },
      {
        "type": "note_on",
        "time": 0,
        "note": 66,
        "velocity": 0,
        "channel": 4
      },
      {
        "type": "note_on",
        "time": 1,
        "note": 74,
        "velocity": 90,
        "channel": 4
      },
      {
        "type": "note_on",
        "time": 0,
        "note": 78,
        "velocity": 90,
        "channel": 4
      },
      {
        "type": "note_on",
        "time": 239,
        "note": 74,
        "velocity": 0,
        "channel": 4
      },
      {
        "type": "note_on",
        "time": 0,
        "note": 78,
        "velocity": 0,
        "channel": 4
      },
      {
        "type": "note_on",
        "time": 1,
        "note": 67,
        "velocity": 90,
        "channel": 4
      },
      {
        "type": "note_on",
        "time": 0,
        "note": 71,
        "velocity": 90,
        "channel": 4
      },
      {
        "type": "note_on",
        "time": 29,
        "note": 67,
        "velocity": 0,
        "channel": 4
      },
      {
        "type": "note_on",
        "time": 0,
        "note": 71,
        "velocity": 0,
        "channel": 4
      },
      {
        "type": "note_on",
        "time": 1,
        "note": 67,
        "velocity": 90,
        "channel": 4
      },
      {
        "type": "note_on",
        "time": 0,
        "note": 64,
        "velocity": 90,
        "channel": 4
      },
      {
        "type": "note_on",
        "time": 29,
        "note": 67,
        "velocity": 0,
        "channel": 4
      },
      {
        "type": "note_on",
        "time": 0,
        "note": 64,
        "velocity": 0,
        "channel": 4
      },
      {
        "type": "note_on",
        "time": 1,
        "note": 59,
        "velocity": 90,
        "channel": 4
      },
      {
        "type": "note_on",
        "time": 0,
        "note": 64,
        "velocity": 90,
        "channel": 4
      },
      {
        "type": "note_on",
        "time": 29,
        "note": 59,
        "velocity": 0,
        "channel": 4
      },
      {
        "type": "note_on",
        "time": 0,
        "note": 64,
        "velocity": 0,
        "channel": 4
      },
      {
        "type": "note_on",
        "time": 1,
        "note": 67,
        "velocity": 90,
        "channel": 4
      },
      {
        "type": "note_on",
        "time": 0,
        "note": 71,
        "velocity": 90,
        "channel": 4
      },
      {
        "type": "note_on",
        "time": 29,
        "note": 67,
        "velocity": 0,
        "channel": 4
      },
      {
        "type": "note_on",
        "time": 0,
        "note": 71,
        "velocity": 0,
        "channel": 4
      },
      {
        "type": "note_on",
        "time": 1,
        "note": 67,
        "velocity": 90,
        "channel": 4
      },
      {
        "type": "note_on",
        "time": 0,
        "note": 64,
        "velocity": 90,
        "channel": 4
      },
      {
        "type": "note_on",
        "time": 29,
        "note": 67,
        "velocity": 0,
        "channel": 4
      },
      {
        "type": "note_on",
        "time": 0,
        "note": 64,
        "velocity": 0,
        "channel": 4
      },
      {
        "type": "note_on",
        "time": 1,
        "note": 59,
        "velocity": 90,
        "channel": 4
      },
      {
        "type": "note_on",
        "time": 0,
        "note": 64,
        "velocity": 90,
        "channel": 4
      },
      {
        "type": "note_on",
        "time": 29,
        "note": 59,
        "velocity": 0,
        "channel": 4
      },
      {
        "type": "note_on",
        "time": 0,
        "note": 64,
        "velocity": 0,
        "channel": 4
      },
      {
        "type": "note_on",
        "time": 1,
        "note": 71,
        "velocity": 90,
        "channel": 4
      },
      {
        "type": "note_on",
        "time": 0,
        "note": 67,
        "velocity": 90,
        "channel": 4
      },
      {
        "type": "note_on",
        "time": 29,
        "note": 71,
        "velocity": 0,
        "channel": 4
      },
      {
        "type": "note_on",
        "time": 0,
        "note": 67,
        "velocity": 0,
        "channel": 4
      },
      {
        "type": "note_on",
        "time": 1,
        "note": 67,
        "velocity": 90,
        "channel": 4
      },
      {
        "type": "note_on",
        "time": 0,
        "note": 64,
        "velocity": 90,
        "channel": 4
      },
      {
        "type": "note_on",
        "time": 29,
        "note": 67,
        "velocity": 0,
        "channel": 4
      },
      {
        "type": "note_on",
        "time": 0,
        "note": 64,
        "velocity": 0,
        "channel": 4
      },
      {
        "type": "note_on",
        "time": 1,
        "note": 64,
        "velocity": 90,
        "channel": 4
      },
      {
        "type": "note_on",
        "time": 0,
        "note": 59,
        "velocity": 90,
        "channel": 4
      },
      {
        "type": "note_on",
        "time": 29,
        "note": 64,
        "velocity": 0,
        "channel": 4
      },
      {
        "type": "note_on",
        "time": 0,
        "note": 59,
        "velocity": 0,
        "channel": 4
      },
      {
        "type": "note_on",
        "time": 1,
        "note": 71,
        "velocity": 90,
        "channel": 4
      },
      {
        "type": "note_on",
        "time": 0,
        "note": 67,
        "velocity": 90,
        "channel": 4
      },
      {
        "type": "note_on",
        "time": 29,
        "note": 71,
        "velocity": 0,
        "channel": 4
      },
      {
        "type": "note_on",
        "time": 0,
        "note": 67,
        "velocity": 0,
        "channel": 4
      },
      {
        "type": "note_on",
        "time": 1,
        "note": 67,
        "velocity": 90,
        "channel": 4
      },
      {
        "type": "note_on",
        "time": 0,
        "note": 64,
        "velocity": 90,
        "channel": 4
      },
      {
        "type": "note_on",
        "time": 29,
        "note": 67,
        "velocity": 0,
        "channel": 4
      },
      {
        "type": "note_on",
        "time": 0,
        "note": 64,
        "velocity": 0,
        "channel": 4
      },
      {
        "type": "note_on",
        "time": 1,
        "note": 64,
        "velocity": 90,
        "channel": 4
      },
      {
        "type": "note_on",
        "time": 0,
        "note": 59,
        "velocity": 90,
        "channel": 4
      },
      {
        "type": "note_on",
        "time": 29,
        "note": 64,
        "velocity": 0,
        "channel": 4
      },
      {
        "type": "note_on",
        "time": 0,
        "note": 59,
        "velocity": 0,
        "channel": 4
      },
      {
        "type": "note_on",
        "time": 1,
        "note": 71,
        "velocity": 90,
        "channel": 4
      },
      {
        "type": "note_on",
        "time": 0,
        "note": 67,
        "velocity": 90,
        "channel": 4
      },
      {
        "type": "note_on",
        "time": 29,
        "note": 71,
        "velocity": 0,
        "channel": 4
      },
      {
        "type": "note_on",
        "time": 0,
        "note": 67,
        "velocity": 0,
        "channel": 4
      },
      {
        "type": "note_on",
        "time": 1,
        "note": 67,
        "velocity": 90,
        "channel": 4
      },
      {
        "type": "note_on",
        "time": 0,
        "note": 64,
        "velocity": 90,
        "channel": 4
      },
      {
        "type": "note_on",
        "time": 29,
        "note": 67,
        "velocity": 0,
        "channel": 4
      },
      {
        "type": "note_on",
        "time": 0,
        "note": 64,
        "velocity": 0,
        "channel": 4
      },
      {
        "type": "note_on",
        "time": 1,
        "note": 64,
        "velocity": 90,
        "channel": 4
      },
      {
        "type": "note_on",
        "time": 0,
        "note": 59,
        "velocity": 90,
        "channel": 4
      },
      {
        "type": "note_on",
        "time": 59,
        "note": 64,
        "velocity": 0,
        "channel": 4
      },
      {
        "type": "note_on",
        "time": 0,
        "note": 59,
        "velocity": 0,
        "channel": 4
      },
      {
        "type": "note_on",
        "time": 1,
        "note": 73,
        "velocity": 90,
        "channel": 4
      },
      {
        "type": "note_on",
        "time": 0,
        "note": 70,
        "velocity": 90,
        "channel": 4
      },
      {
        "type": "note_on",
        "time": 29,
        "note": 73,
        "velocity": 0,
        "channel": 4
      },
      {
        "type": "note_on",
        "time": 0,
        "note": 70,
        "velocity": 0,
        "channel": 4
      },
      {
        "type": "note_on",
        "time": 1,
        "note": 70,
        "velocity": 90,
        "channel": 4
      },
      {
        "type": "note_on",
        "time": 0,
        "note": 66,
        "velocity": 90,
        "channel": 4
      },
      {
        "type": "note_on",
        "time": 29,
        "note": 70,
        "velocity": 0,
        "channel": 4
      },
      {
        "type": "note_on",
        "time": 0,
        "note": 66,
        "velocity": 0,
        "channel": 4
      },
      {
        "type": "note_on",
        "time": 1,
        "note": 66,
        "velocity": 90,
        "channel": 4
      },
      {
        "type": "note_on",
        "time": 0,
        "note": 61,
        "velocity": 90,
        "channel": 4
      },
      {
        "type": "note_on",
        "time": 29,
        "note": 66,
        "velocity": 0,
        "channel": 4
      },
      {
        "type": "note_on",
        "time": 0,
        "note": 61,
        "velocity": 0,
        "channel": 4
      },
      {
        "type": "note_on",
        "time": 1,
        "note": 70,
        "velocity": 90,
        "channel": 4
      },
      {
        "type": "note_on",
        "time": 0,
        "note": 73,
        "velocity": 90,
        "channel": 4
      },
      {
        "type": "note_on",
        "time": 29,
        "note": 70,
        "velocity": 0,
        "channel": 4
      },
      {
        "type": "note_on",
        "time": 0,
        "note": 73,
        "velocity": 0,
        "channel": 4
      },
      {
        "type": "note_on",
        "time": 1,
        "note": 70,
        "velocity": 90,
        "channel": 4
      },
      {
        "type": "note_on",
        "time": 0,
        "note": 66,
        "velocity": 90,
        "channel": 4
      },
      {
        "type": "note_on",
        "time": 29,
        "note": 70,
        "velocity": 0,
        "channel": 4
      },
      {
        "type": "note_on",
        "time": 0,
        "note": 66,
        "velocity": 0,
        "channel": 4
      },
      {
        "type": "note_on",
        "time": 1,
        "note": 66,
        "velocity": 90,
        "channel": 4
      },
      {
        "type": "note_on",
        "time": 0,
        "note": 61,
        "velocity": 90,
        "channel": 4
      },
      {
        "type": "note_on",
        "time": 29,
        "note": 66,
        "velocity": 0,
        "channel": 4
      },
      {
        "type": "note_on",
        "time": 0,
        "note": 61,
        "velocity": 0,
        "channel": 4
      },
      {
        "type": "note_on",
        "time": 1,
        "note": 73,
        "velocity": 90,
        "channel": 4
      },
      {
        "type": "note_on",
        "time": 0,
        "note": 70,
        "velocity": 90,
        "channel": 4
      },
      {
        "type": "note_on",
        "time": 29,
        "note": 73,
        "velocity": 0,
        "channel": 4
      },
      {
        "type": "note_on",
        "time": 0,
        "note": 70,
        "velocity": 0,
        "channel": 4
      },
      {
        "type": "note_on",
        "time": 1,
        "note": 70,
        "velocity": 90,
        "channel": 4
      },
      {
        "type": "note_on",
        "time": 0,
        "note": 66,
        "velocity": 90,
        "channel": 4
      },
      {
        "type": "note_on",
        "time": 29,
        "note": 70,
        "velocity": 0,
        "channel": 4
      },
      {
        "type": "note_on",
        "time": 0,
        "note": 66,
        "velocity": 0,
        "channel": 4
      },
      {
        "type": "note_on",
        "time": 1,
        "note": 78,
        "velocity": 90,
        "channel": 4
      },
      {
        "type": "note_on",
        "time": 0,
        "note": 73,
        "velocity": 90,
        "channel": 4
      },
      {
        "type": "note_on",
        "time": 239,
        "note": 78,
        "velocity": 0,
        "channel": 4
      },
      {
        "type": "note_on",
        "time": 0,
        "note": 73,
        "velocity": 0,
        "channel": 4
      },
      {
        "type": "note_on",
        "time": 1,
        "note": 78,
        "velocity": 90,
        "channel": 4
      },
      {
        "type": "note_on",
        "time": 0,
        "note": 74,
        "velocity": 90,
        "channel": 4
      },
      {
        "type": "note_on",
        "time": 29,
        "note": 78,
        "velocity": 0,
        "channel": 4
      },
      {
        "type": "note_on",
        "time": 0,
        "note": 74,
        "velocity": 0,
        "channel": 4
      },
      {
        "type": "note_on",
        "time": 1,
        "note": 74,
        "velocity": 90,
        "channel": 4
      },
      {
        "type": "note_on",
        "time": 0,
        "note": 71,
        "velocity": 90,
        "channel": 4
      },
      {
        "type": "note_on",
        "time": 29,
        "note": 74,
        "velocity": 0,
        "channel": 4
      },
      {
        "type": "note_on",
        "time": 0,
        "note": 71,
        "velocity": 0,
        "channel": 4
      },
      {
        "type": "note_on",
        "time": 1,
        "note": 71,
        "velocity": 90,
        "channel": 4
      },
      {
        "type": "note_on",
        "time": 0,
        "note": 66,
        "velocity": 90,
        "channel": 4
      },
      {
        "type": "note_on",
        "time": 29,
        "note": 71,
        "velocity": 0,
        "channel": 4
      },
      {
        "type": "note_on",
        "time": 0,
        "note": 66,
        "velocity": 0,
        "channel": 4
      },
      {
        "type": "note_on",
        "time": 1,
        "note": 78,
        "velocity": 90,
        "channel": 4
      },
      {
        "type": "note_on",
        "time": 0,
        "note": 74,
        "velocity": 90,
        "channel": 4
      },
      {
        "type": "note_on",
        "time": 29,
        "note": 78,
        "velocity": 0,
        "channel": 4
      },
      {
        "type": "note_on",
        "time": 0,
        "note": 74,
        "velocity": 0,
        "channel": 4
      },
      {
        "type": "note_on",
        "time": 1,
        "note": 74,
        "velocity": 90,
        "channel": 4
      },
      {
        "type": "note_on",
        "time": 0,
        "note": 71,
        "velocity": 90,
        "channel": 4
      },
      {
        "type": "control_change",
        "time": 0,
        "control": 7,
        "value": 90,
        "channel": 4
      },
      {
        "type": "note_on",
        "time": 29,
        "note": 74,
        "velocity": 0,
        "channel": 4
      },
      {
        "type": "note_on",
        "time": 0,
        "note": 71,
        "velocity": 0,
        "channel": 4
      },
      {
        "type": "note_on",
        "time": 1,
        "note": 66,
        "velocity": 90,
        "channel": 4
      },
      {
        "type": "note_on",
        "time": 0,
        "note": 71,
        "velocity": 90,
        "channel": 4
      },
      {
        "type": "note_on",
        "time": 29,
        "note": 66,
        "velocity": 0,
        "channel": 4
      },
      {
        "type": "note_on",
        "time": 0,
        "note": 71,
        "velocity": 0,
        "channel": 4
      },
      {
        "type": "note_on",
        "time": 1,
        "note": 78,
        "velocity": 90,
        "channel": 4
      },
      {
        "type": "note_on",
        "time": 0,
        "note": 74,
        "velocity": 90,
        "channel": 4
      },
      {
        "type": "note_on",
        "time": 29,
        "note": 78,
        "velocity": 0,
        "channel": 4
      },
      {
        "type": "note_on",
        "time": 0,
        "note": 74,
        "velocity": 0,
        "channel": 4
      },
      {
        "type": "note_on",
        "time": 1,
        "note": 74,
        "velocity": 90,
        "channel": 4
      },
      {
        "type": "note_on",
        "time": 0,
        "note": 71,
        "velocity": 90,
        "channel": 4
      },
      {
        "type": "note_on",
        "time": 29,
        "note": 74,
        "velocity": 0,
        "channel": 4
      },
      {
        "type": "note_on",
        "time": 0,
        "note": 71,
        "velocity": 0,
        "channel": 4
      },
      {
        "type": "note_on",
        "time": 1,
        "note": 71,
        "velocity": 90,
        "channel": 4
      },
      {
        "type": "control_change",
        "time": 0,
        "control": 7,
        "value": 87,
        "channel": 4
      },
      {
        "type": "note_on",
        "time": 0,
        "note": 66,
        "velocity": 90,
        "channel": 4
      },
      {
        "type": "note_on",
        "time": 29,
        "note": 71,
        "velocity": 0,
        "channel": 4
      },
      {
        "type": "note_on",
        "time": 0,
        "note": 66,
        "velocity": 0,
        "channel": 4
      },
      {
        "type": "note_on",
        "time": 1,
        "note": 74,
        "velocity": 90,
        "channel": 4
      },
      {
        "type": "note_on",
        "time": 0,
        "note": 78,
        "velocity": 90,
        "channel": 4
      },
      {
        "type": "note_on",
        "time": 29,
        "note": 74,
        "velocity": 0,
        "channel": 4
      },
      {
        "type": "note_on",
        "time": 0,
        "note": 78,
        "velocity": 0,
        "channel": 4
      },
      {
        "type": "note_on",
        "time": 1,
        "note": 74,
        "velocity": 90,
        "channel": 4
      },
      {
        "type": "note_on",
        "time": 0,
        "note": 71,
        "velocity": 90,
        "channel": 4
      },
      {
        "type": "note_on",
        "time": 29,
        "note": 74,
        "velocity": 0,
        "channel": 4
      },
      {
        "type": "note_on",
        "time": 0,
        "note": 71,
        "velocity": 0,
        "channel": 4
      },
      {
        "type": "note_on",
        "time": 1,
        "note": 71,
        "velocity": 90,
        "channel": 4
      },
      {
        "type": "note_on",
        "time": 0,
        "note": 66,
        "velocity": 90,
        "channel": 4
      },
      {
        "type": "note_on",
        "time": 29,
        "note": 71,
        "velocity": 0,
        "channel": 4
      },
      {
        "type": "note_on",
        "time": 0,
        "note": 66,
        "velocity": 0,
        "channel": 4
      },
      {
        "type": "note_on",
        "time": 1,
        "note": 74,
        "velocity": 90,
        "channel": 4
      },
      {
        "type": "note_on",
        "time": 0,
        "note": 78,
        "velocity": 90,
        "channel": 4
      },
      {
        "type": "control_change",
        "time": 0,
        "control": 7,
        "value": 84,
        "channel": 4
      },
      {
        "type": "note_on",
        "time": 29,
        "note": 74,
        "velocity": 0,
        "channel": 4
      },
      {
        "type": "note_on",
        "time": 0,
        "note": 78,
        "velocity": 0,
        "channel": 4
      },
      {
        "type": "note_on",
        "time": 1,
        "note": 71,
        "velocity": 90,
        "channel": 4
      },
      {
        "type": "note_on",
        "time": 0,
        "note": 74,
        "velocity": 90,
        "channel": 4
      },
      {
        "type": "note_on",
        "time": 29,
        "note": 71,
        "velocity": 0,
        "channel": 4
      },
      {
        "type": "note_on",
        "time": 0,
        "note": 74,
        "velocity": 0,
        "channel": 4
      },
      {
        "type": "note_on",
        "time": 1,
        "note": 71,
        "velocity": 90,
        "channel": 4
      },
      {
        "type": "note_on",
        "time": 0,
        "note": 66,
        "velocity": 90,
        "channel": 4
      },
      {
        "type": "note_on",
        "time": 55,
        "note": 66,
        "velocity": 0,
        "channel": 4
      },
      {
        "type": "note_on",
        "time": 4,
        "note": 71,
        "velocity": 0,
        "channel": 4
      },
      {
        "type": "note_on",
        "time": 1,
        "note": 73,
        "velocity": 90,
        "channel": 4
      },
      {
        "type": "note_on",
        "time": 0,
        "note": 76,
        "velocity": 90,
        "channel": 4
      },
      {
        "type": "control_change",
        "time": 0,
        "control": 7,
        "value": 81,
        "channel": 4
      },
      {
        "type": "note_on",
        "time": 29,
        "note": 73,
        "velocity": 0,
        "channel": 4
      },
      {
        "type": "note_on",
        "time": 0,
        "note": 76,
        "velocity": 0,
        "channel": 4
      },
      {
        "type": "note_on",
        "time": 1,
        "note": 70,
        "velocity": 90,
        "channel": 4
      },
      {
        "type": "note_on",
        "time": 0,
        "note": 73,
        "velocity": 90,
        "channel": 4
      },
      {
        "type": "note_on",
        "time": 29,
        "note": 70,
        "velocity": 0,
        "channel": 4
      },
      {
        "type": "note_on",
        "time": 0,
        "note": 73,
        "velocity": 0,
        "channel": 4
      },
      {
        "type": "note_on",
        "time": 1,
        "note": 70,
        "velocity": 90,
        "channel": 4
      },
      {
        "type": "note_on",
        "time": 0,
        "note": 66,
        "velocity": 90,
        "channel": 4
      },
      {
        "type": "note_on",
        "time": 29,
        "note": 70,
        "velocity": 0,
        "channel": 4
      },
      {
        "type": "note_on",
        "time": 0,
        "note": 66,
        "velocity": 0,
        "channel": 4
      },
      {
        "type": "note_on",
        "time": 1,
        "note": 76,
        "velocity": 90,
        "channel": 4
      },
      {
        "type": "note_on",
        "time": 0,
        "note": 73,
        "velocity": 90,
        "channel": 4
      },
      {
        "type": "note_on",
        "time": 29,
        "note": 76,
        "velocity": 0,
        "channel": 4
      },
      {
        "type": "note_on",
        "time": 0,
        "note": 73,
        "velocity": 0,
        "channel": 4
      },
      {
        "type": "note_on",
        "time": 1,
        "note": 70,
        "velocity": 90,
        "channel": 4
      },
      {
        "type": "note_on",
        "time": 0,
        "note": 73,
        "velocity": 90,
        "channel": 4
      },
      {
        "type": "control_change",
        "time": 0,
        "control": 7,
        "value": 78,
        "channel": 4
      },
      {
        "type": "note_on",
        "time": 29,
        "note": 70,
        "velocity": 0,
        "channel": 4
      },
      {
        "type": "note_on",
        "time": 0,
        "note": 73,
        "velocity": 0,
        "channel": 4
      },
      {
        "type": "note_on",
        "time": 1,
        "note": 66,
        "velocity": 90,
        "channel": 4
      },
      {
        "type": "note_on",
        "time": 0,
        "note": 70,
        "velocity": 90,
        "channel": 4
      },
      {
        "type": "note_on",
        "time": 29,
        "note": 66,
        "velocity": 0,
        "channel": 4
      },
      {
        "type": "note_on",
        "time": 0,
        "note": 70,
        "velocity": 0,
        "channel": 4
      },
      {
        "type": "note_on",
        "time": 1,
        "note": 76,
        "velocity": 90,
        "channel": 4
      },
      {
        "type": "note_on",
        "time": 0,
        "note": 73,
        "velocity": 90,
        "channel": 4
      },
      {
        "type": "note_on",
        "time": 29,
        "note": 76,
        "velocity": 0,
        "channel": 4
      },
      {
        "type": "note_on",
        "time": 0,
        "note": 73,
        "velocity": 0,
        "channel": 4
      },
      {
        "type": "note_on",
        "time": 1,
        "note": 73,
        "velocity": 90,
        "channel": 4
      },
      {
        "type": "note_on",
        "time": 0,
        "note": 70,
        "velocity": 90,
        "channel": 4
      },
      {
        "type": "note_on",
        "time": 29,
        "note": 73,
        "velocity": 0,
        "channel": 4
      },
      {
        "type": "note_on",
        "time": 0,
        "note": 70,
        "velocity": 0,
        "channel": 4
      },
      {
        "type": "note_on",
        "time": 1,
        "note": 82,
        "velocity": 90,
        "channel": 4
      },
      {
        "type": "note_on",
        "time": 0,
        "note": 78,
        "velocity": 90,
        "channel": 4
      },
      {
        "type": "control_change",
        "time": 0,
        "control": 7,
        "value": 75,
        "channel": 4
      },
      {
        "type": "control_change",
        "time": 120,
        "control": 7,
        "value": 72,
        "channel": 4
      },
      {
        "type": "note_on",
        "time": 119,
        "note": 82,
        "velocity": 0,
        "channel": 4
      },
      {
        "type": "note_on",
        "time": 0,
        "note": 78,
        "velocity": 0,
        "channel": 4
      },
      {
        "type": "note_on",
        "time": 1,
        "note": 73,
        "velocity": 90,
        "channel": 4
      },
      {
        "type": "note_on",
        "time": 0,
        "note": 76,
        "velocity": 90,
        "channel": 4
      },
      {
        "type": "control_change",
        "time": 0,
        "control": 7,
        "value": 69,
        "channel": 4
      },
      {
        "type": "note_on",
        "time": 29,
        "note": 73,
        "velocity": 0,
        "channel": 4
      },
      {
        "type": "note_on",
        "time": 0,
        "note": 76,
        "velocity": 0,
        "channel": 4
      },
      {
        "type": "note_on",
        "time": 1,
        "note": 69,
        "velocity": 90,
        "channel": 4
      },
      {
        "type": "note_on",
        "time": 0,
        "note": 73,
        "velocity": 90,
        "channel": 4
      },
      {
        "type": "note_on",
        "time": 29,
        "note": 69,
        "velocity": 0,
        "channel": 4
      },
      {
        "type": "note_on",
        "time": 0,
        "note": 73,
        "velocity": 0,
        "channel": 4
      },
      {
        "type": "note_on",
        "time": 1,
        "note": 69,
        "velocity": 90,
        "channel": 4
      },
      {
        "type": "note_on",
        "time": 0,
        "note": 64,
        "velocity": 90,
        "channel": 4
      },
      {
        "type": "note_on",
        "time": 29,
        "note": 69,
        "velocity": 0,
        "channel": 4
      },
      {
        "type": "note_on",
        "time": 0,
        "note": 64,
        "velocity": 0,
        "channel": 4
      },
      {
        "type": "note_on",
        "time": 1,
        "note": 76,
        "velocity": 90,
        "channel": 4
      },
      {
        "type": "note_on",
        "time": 0,
        "note": 73,
        "velocity": 90,
        "channel": 4
      },
      {
        "type": "note_on",
        "time": 29,
        "note": 76,
        "velocity": 0,
        "channel": 4
      },
      {
        "type": "note_on",
        "time": 0,
        "note": 73,
        "velocity": 0,
        "channel": 4
      },
      {
        "type": "note_on",
        "time": 1,
        "note": 69,
        "velocity": 90,
        "channel": 4
      },
      {
        "type": "note_on",
        "time": 0,
        "note": 73,
        "velocity": 90,
        "channel": 4
      },
      {
        "type": "control_change",
        "time": 0,
        "control": 7,
        "value": 66,
        "channel": 4
      },
      {
        "type": "note_on",
        "time": 29,
        "note": 69,
        "velocity": 0,
        "channel": 4
      },
      {
        "type": "note_on",
        "time": 0,
        "note": 73,
        "velocity": 0,
        "channel": 4
      },
      {
        "type": "note_on",
        "time": 1,
        "note": 64,
        "velocity": 90,
        "channel": 4
      },
      {
        "type": "note_on",
        "time": 0,
        "note": 69,
        "velocity": 90,
        "channel": 4
      },
      {
        "type": "note_on",
        "time": 29,
        "note": 64,
        "velocity": 0,
        "channel": 4
      },
      {
        "type": "note_on",
        "time": 0,
        "note": 69,
        "velocity": 0,
        "channel": 4
      },
      {
        "type": "note_on",
        "time": 1,
        "note": 73,
        "velocity": 90,
        "channel": 4
      },
      {
        "type": "note_on",
        "time": 0,
        "note": 76,
        "velocity": 90,
        "channel": 4
      },
      {
        "type": "note_on",
        "time": 29,
        "note": 73,
        "velocity": 0,
        "channel": 4
      },
      {
        "type": "note_on",
        "time": 0,
        "note": 76,
        "velocity": 0,
        "channel": 4
      },
      {
        "type": "note_on",
        "time": 1,
        "note": 69,
        "velocity": 90,
        "channel": 4
      },
      {
        "type": "note_on",
        "time": 0,
        "note": 73,
        "velocity": 90,
        "channel": 4
      },
      {
        "type": "note_on",
        "time": 29,
        "note": 69,
        "velocity": 0,
        "channel": 4
      },
      {
        "type": "note_on",
        "time": 0,
        "note": 73,
        "velocity": 0,
        "channel": 4
      },
      {
        "type": "note_on",
        "time": 1,
        "note": 64,
        "velocity": 90,
        "channel": 4
      },
      {
        "type": "note_on",
        "time": 0,
        "note": 69,
        "velocity": 90,
        "channel": 4
      },
      {
        "type": "control_change",
        "time": 0,
        "control": 7,
        "value": 63,
        "channel": 4
      },
      {
        "type": "note_on",
        "time": 29,
        "note": 64,
        "velocity": 0,
        "channel": 4
      },
      {
        "type": "note_on",
        "time": 0,
        "note": 69,
        "velocity": 0,
        "channel": 4
      },
      {
        "type": "note_on",
        "time": 1,
        "note": 76,
        "velocity": 90,
        "channel": 4
      },
      {
        "type": "note_on",
        "time": 0,
        "note": 73,
        "velocity": 90,
        "channel": 4
      },
      {
        "type": "note_on",
        "time": 29,
        "note": 76,
        "velocity": 0,
        "channel": 4
      },
      {
        "type": "note_on",
        "time": 0,
        "note": 73,
        "velocity": 0,
        "channel": 4
      },
      {
        "type": "note_on",
        "time": 1,
        "note": 69,
        "velocity": 90,
        "channel": 4
      },
      {
        "type": "note_on",
        "time": 0,
        "note": 73,
        "velocity": 90,
        "channel": 4
      },
      {
        "type": "note_on",
        "time": 29,
        "note": 69,
        "velocity": 0,
        "channel": 4
      },
      {
        "type": "note_on",
        "time": 0,
        "note": 73,
        "velocity": 0,
        "channel": 4
      },
      {
        "type": "note_on",
        "time": 1,
        "note": 69,
        "velocity": 90,
        "channel": 4
      },
      {
        "type": "note_on",
        "time": 0,
        "note": 64,
        "velocity": 90,
        "channel": 4
      },
      {
        "type": "note_on",
        "time": 29,
        "note": 69,
        "velocity": 0,
        "channel": 4
      },
      {
        "type": "note_on",
        "time": 0,
        "note": 64,
        "velocity": 0,
        "channel": 4
      },
      {
        "type": "note_on",
        "time": 1,
        "note": 76,
        "velocity": 90,
        "channel": 4
      },
      {
        "type": "note_on",
        "time": 0,
        "note": 73,
        "velocity": 90,
        "channel": 4
      },
      {
        "type": "control_change",
        "time": 0,
        "control": 7,
        "value": 60,
        "channel": 4
      },
      {
        "type": "note_on",
        "time": 29,
        "note": 76,
        "velocity": 0,
        "channel": 4
      },
      {
        "type": "note_on",
        "time": 0,
        "note": 73,
        "velocity": 0,
        "channel": 4
      },
      {
        "type": "note_on",
        "time": 1,
        "note": 69,
        "velocity": 90,
        "channel": 4
      },
      {
        "type": "note_on",
        "time": 0,
        "note": 73,
        "velocity": 90,
        "channel": 4
      },
      {
        "type": "note_on",
        "time": 29,
        "note": 69,
        "velocity": 0,
        "channel": 4
      },
      {
        "type": "note_on",
        "time": 0,
        "note": 73,
        "velocity": 0,
        "channel": 4
      },
      {
        "type": "note_on",
        "time": 1,
        "note": 69,
        "velocity": 90,
        "channel": 4
      },
      {
        "type": "note_on",
        "time": 0,
        "note": 64,
        "velocity": 90,
        "channel": 4
      },
      {
        "type": "note_on",
        "time": 59,
        "note": 69,
        "velocity": 0,
        "channel": 4
      },
      {
        "type": "note_on",
        "time": 0,
        "note": 64,
        "velocity": 0,
        "channel": 4
      },
      {
        "type": "note_on",
        "time": 1,
        "note": 71,
        "velocity": 90,
        "channel": 4
      },
      {
        "type": "control_change",
        "time": 0,
        "control": 7,
        "value": 57,
        "channel": 4
      },
      {
        "type": "note_on",
        "time": 0,
        "note": 74,
        "velocity": 90,
        "channel": 4
      },
      {
        "type": "note_on",
        "time": 29,
        "note": 71,
        "velocity": 0,
        "channel": 4
      },
      {
        "type": "note_on",
        "time": 0,
        "note": 74,
        "velocity": 0,
        "channel": 4
      },
      {
        "type": "note_on",
        "time": 1,
        "note": 71,
        "velocity": 90,
        "channel": 4
      },
      {
        "type": "note_on",
        "time": 0,
        "note": 68,
        "velocity": 90,
        "channel": 4
      },
      {
        "type": "note_on",
        "time": 29,
        "note": 71,
        "velocity": 0,
        "channel": 4
      },
      {
        "type": "note_on",
        "time": 0,
        "note": 68,
        "velocity": 0,
        "channel": 4
      },
      {
        "type": "note_on",
        "time": 1,
        "note": 64,
        "velocity": 90,
        "channel": 4
      },
      {
        "type": "note_on",
        "time": 0,
        "note": 68,
        "velocity": 90,
        "channel": 4
      },
      {
        "type": "note_on",
        "time": 29,
        "note": 64,
        "velocity": 0,
        "channel": 4
      },
      {
        "type": "note_on",
        "time": 0,
        "note": 68,
        "velocity": 0,
        "channel": 4
      },
      {
        "type": "note_on",
        "time": 1,
        "note": 74,
        "velocity": 90,
        "channel": 4
      },
      {
        "type": "note_on",
        "time": 0,
        "note": 71,
        "velocity": 90,
        "channel": 4
      },
      {
        "type": "note_on",
        "time": 29,
        "note": 74,
        "velocity": 0,
        "channel": 4
      },
      {
        "type": "note_on",
        "time": 0,
        "note": 71,
        "velocity": 0,
        "channel": 4
      },
      {
        "type": "note_on",
        "time": 1,
        "note": 71,
        "velocity": 90,
        "channel": 4
      },
      {
        "type": "control_change",
        "time": 0,
        "control": 7,
        "value": 54,
        "channel": 4
      },
      {
        "type": "note_on",
        "time": 0,
        "note": 68,
        "velocity": 90,
        "channel": 4
      },
      {
        "type": "note_on",
        "time": 29,
        "note": 71,
        "velocity": 0,
        "channel": 4
      },
      {
        "type": "note_on",
        "time": 0,
        "note": 68,
        "velocity": 0,
        "channel": 4
      },
      {
        "type": "note_on",
        "time": 1,
        "note": 68,
        "velocity": 90,
        "channel": 4
      },
      {
        "type": "note_on",
        "time": 0,
        "note": 64,
        "velocity": 90,
        "channel": 4
      },
      {
        "type": "note_on",
        "time": 29,
        "note": 68,
        "velocity": 0,
        "channel": 4
      },
      {
        "type": "note_on",
        "time": 0,
        "note": 64,
        "velocity": 0,
        "channel": 4
      },
      {
        "type": "note_on",
        "time": 1,
        "note": 71,
        "velocity": 90,
        "channel": 4
      },
      {
        "type": "note_on",
        "time": 0,
        "note": 74,
        "velocity": 90,
        "channel": 4
      },
      {
        "type": "note_on",
        "time": 29,
        "note": 71,
        "velocity": 0,
        "channel": 4
      },
      {
        "type": "note_on",
        "time": 0,
        "note": 74,
        "velocity": 0,
        "channel": 4
      },
      {
        "type": "note_on",
        "time": 1,
        "note": 71,
        "velocity": 90,
        "channel": 4
      },
      {
        "type": "note_on",
        "time": 0,
        "note": 68,
        "velocity": 90,
        "channel": 4
      },
      {
        "type": "note_on",
        "time": 29,
        "note": 71,
        "velocity": 0,
        "channel": 4
      },
      {
        "type": "note_on",
        "time": 0,
        "note": 68,
        "velocity": 0,
        "channel": 4
      },
      {
        "type": "control_change",
        "time": 1,
        "control": 7,
        "value": 51,
        "channel": 4
      },
      {
        "type": "note_on",
        "time": 0,
        "note": 80,
        "velocity": 90,
        "channel": 4
      },
      {
        "type": "note_on",
        "time": 0,
        "note": 76,
        "velocity": 90,
        "channel": 4
      },
      {
        "type": "control_change",
        "time": 120,
        "control": 7,
        "value": 48,
        "channel": 4
      },
      {
        "type": "note_on",
        "time": 119,
        "note": 80,
        "velocity": 0,
        "channel": 4
      },
      {
        "type": "note_on",
        "time": 0,
        "note": 76,
        "velocity": 0,
        "channel": 4
      },
      {
        "type": "control_change",
        "time": 1,
        "control": 7,
        "value": 45,
        "channel": 4
      },
      {
        "type": "note_on",
        "time": 0,
        "note": 74,
        "velocity": 90,
        "channel": 4
      },
      {
        "type": "note_on",
        "time": 0,
        "note": 71,
        "velocity": 90,
        "channel": 4
      },
      {
        "type": "note_on",
        "time": 29,
        "note": 74,
        "velocity": 0,
        "channel": 4
      },
      {
        "type": "note_on",
        "time": 0,
        "note": 71,
        "velocity": 0,
        "channel": 4
      },
      {
        "type": "note_on",
        "time": 1,
        "note": 71,
        "velocity": 90,
        "channel": 4
      },
      {
        "type": "note_on",
        "time": 0,
        "note": 67,
        "velocity": 90,
        "channel": 4
      },
      {
        "type": "note_on",
        "time": 29,
        "note": 71,
        "velocity": 0,
        "channel": 4
      },
      {
        "type": "note_on",
        "time": 0,
        "note": 67,
        "velocity": 0,
        "channel": 4
      },
      {
        "type": "note_on",
        "time": 1,
        "note": 67,
        "velocity": 90,
        "channel": 4
      },
      {
        "type": "note_on",
        "time": 0,
        "note": 62,
        "velocity": 90,
        "channel": 4
      },
      {
        "type": "note_on",
        "time": 29,
        "note": 67,
        "velocity": 0,
        "channel": 4
      },
      {
        "type": "note_on",
        "time": 0,
        "note": 62,
        "velocity": 0,
        "channel": 4
      },
      {
        "type": "note_on",
        "time": 1,
        "note": 74,
        "velocity": 90,
        "channel": 4
      },
      {
        "type": "note_on",
        "time": 0,
        "note": 71,
        "velocity": 90,
        "channel": 4
      },
      {
        "type": "note_on",
        "time": 29,
        "note": 74,
        "velocity": 0,
        "channel": 4
      },
      {
        "type": "note_on",
        "time": 0,
        "note": 71,
        "velocity": 0,
        "channel": 4
      },
      {
        "type": "control_change",
        "time": 1,
        "control": 7,
        "value": 42,
        "channel": 4
      },
      {
        "type": "note_on",
        "time": 0,
        "note": 67,
        "velocity": 90,
        "channel": 4
      },
      {
        "type": "note_on",
        "time": 0,
        "note": 71,
        "velocity": 90,
        "channel": 4
      },
      {
        "type": "note_on",
        "time": 29,
        "note": 67,
        "velocity": 0,
        "channel": 4
      },
      {
        "type": "note_on",
        "time": 0,
        "note": 71,
        "velocity": 0,
        "channel": 4
      },
      {
        "type": "note_on",
        "time": 1,
        "note": 67,
        "velocity": 90,
        "channel": 4
      },
      {
        "type": "note_on",
        "time": 0,
        "note": 62,
        "velocity": 90,
        "channel": 4
      },
      {
        "type": "note_on",
        "time": 29,
        "note": 67,
        "velocity": 0,
        "channel": 4
      },
      {
        "type": "note_on",
        "time": 0,
        "note": 62,
        "velocity": 0,
        "channel": 4
      },
      {
        "type": "note_on",
        "time": 1,
        "note": 74,
        "velocity": 90,
        "channel": 4
      },
      {
        "type": "note_on",
        "time": 0,
        "note": 71,
        "velocity": 90,
        "channel": 4
      },
      {
        "type": "note_on",
        "time": 29,
        "note": 74,
        "velocity": 0,
        "channel": 4
      },
      {
        "type": "note_on",
        "time": 0,
        "note": 71,
        "velocity": 0,
        "channel": 4
      },
      {
        "type": "note_on",
        "time": 1,
        "note": 71,
        "velocity": 90,
        "channel": 4
      },
      {
        "type": "note_on",
        "time": 0,
        "note": 67,
        "velocity": 90,
        "channel": 4
      },
      {
        "type": "note_on",
        "time": 29,
        "note": 71,
        "velocity": 0,
        "channel": 4
      },
      {
        "type": "note_on",
        "time": 0,
        "note": 67,
        "velocity": 0,
        "channel": 4
      },
      {
        "type": "control_change",
        "time": 1,
        "control": 7,
        "value": 39,
        "channel": 4
      },
      {
        "type": "note_on",
        "time": 0,
        "note": 67,
        "velocity": 90,
        "channel": 4
      },
      {
        "type": "note_on",
        "time": 0,
        "note": 62,
        "velocity": 90,
        "channel": 4
      },
      {
        "type": "note_on",
        "time": 29,
        "note": 67,
        "velocity": 0,
        "channel": 4
      },
      {
        "type": "note_on",
        "time": 0,
        "note": 62,
        "velocity": 0,
        "channel": 4
      },
      {
        "type": "note_on",
        "time": 1,
        "note": 71,
        "velocity": 90,
        "channel": 4
      },
      {
        "type": "note_on",
        "time": 0,
        "note": 74,
        "velocity": 90,
        "channel": 4
      },
      {
        "type": "note_on",
        "time": 29,
        "note": 71,
        "velocity": 0,
        "channel": 4
      },
      {
        "type": "note_on",
        "time": 0,
        "note": 74,
        "velocity": 0,
        "channel": 4
      },
      {
        "type": "note_on",
        "time": 1,
        "note": 71,
        "velocity": 90,
        "channel": 4
      },
      {
        "type": "note_on",
        "time": 0,
        "note": 67,
        "velocity": 90,
        "channel": 4
      },
      {
        "type": "note_on",
        "time": 29,
        "note": 71,
        "velocity": 0,
        "channel": 4
      },
      {
        "type": "note_on",
        "time": 0,
        "note": 67,
        "velocity": 0,
        "channel": 4
      },
      {
        "type": "note_on",
        "time": 1,
        "note": 67,
        "velocity": 90,
        "channel": 4
      },
      {
        "type": "note_on",
        "time": 0,
        "note": 62,
        "velocity": 90,
        "channel": 4
      },
      {
        "type": "note_on",
        "time": 29,
        "note": 67,
        "velocity": 0,
        "channel": 4
      },
      {
        "type": "note_on",
        "time": 0,
        "note": 62,
        "velocity": 0,
        "channel": 4
      },
      {
        "type": "note_on",
        "time": 1,
        "note": 74,
        "velocity": 90,
        "channel": 4
      },
      {
        "type": "note_on",
        "time": 0,
        "note": 71,
        "velocity": 90,
        "channel": 4
      },
      {
        "type": "control_change",
        "time": 0,
        "control": 7,
        "value": 36,
        "channel": 4
      },
      {
        "type": "note_on",
        "time": 29,
        "note": 74,
        "velocity": 0,
        "channel": 4
      },
      {
        "type": "note_on",
        "time": 0,
        "note": 71,
        "velocity": 0,
        "channel": 4
      },
      {
        "type": "note_on",
        "time": 1,
        "note": 71,
        "velocity": 90,
        "channel": 4
      },
      {
        "type": "note_on",
        "time": 0,
        "note": 67,
        "velocity": 90,
        "channel": 4
      },
      {
        "type": "note_on",
        "time": 29,
        "note": 71,
        "velocity": 0,
        "channel": 4
      },
      {
        "type": "note_on",
        "time": 0,
        "note": 67,
        "velocity": 0,
        "channel": 4
      },
      {
        "type": "note_on",
        "time": 1,
        "note": 67,
        "velocity": 90,
        "channel": 4
      },
      {
        "type": "note_on",
        "time": 0,
        "note": 62,
        "velocity": 90,
        "channel": 4
      },
      {
        "type": "note_on",
        "time": 59,
        "note": 67,
        "velocity": 0,
        "channel": 4
      },
      {
        "type": "note_on",
        "time": 0,
        "note": 62,
        "velocity": 0,
        "channel": 4
      },
      {
        "type": "control_change",
        "time": 1,
        "control": 7,
        "value": 33,
        "channel": 4
      },
      {
        "type": "note_on",
        "time": 0,
        "note": 74,
        "velocity": 90,
        "channel": 4
      },
      {
        "type": "note_on",
        "time": 0,
        "note": 69,
        "velocity": 90,
        "channel": 4
      },
      {
        "type": "note_on",
        "time": 29,
        "note": 74,
        "velocity": 0,
        "channel": 4
      },
      {
        "type": "note_on",
        "time": 0,
        "note": 69,
        "velocity": 0,
        "channel": 4
      },
      {
        "type": "note_on",
        "time": 1,
        "note": 66,
        "velocity": 90,
        "channel": 4
      },
      {
        "type": "note_on",
        "time": 0,
        "note": 69,
        "velocity": 90,
        "channel": 4
      },
      {
        "type": "note_on",
        "time": 29,
        "note": 66,
        "velocity": 0,
        "channel": 4
      },
      {
        "type": "note_on",
        "time": 0,
        "note": 69,
        "velocity": 0,
        "channel": 4
      },
      {
        "type": "note_on",
        "time": 1,
        "note": 62,
        "velocity": 90,
        "channel": 4
      },
      {
        "type": "note_on",
        "time": 0,
        "note": 66,
        "velocity": 90,
        "channel": 4
      },
      {
        "type": "note_on",
        "time": 29,
        "note": 62,
        "velocity": 0,
        "channel": 4
      },
      {
        "type": "note_on",
        "time": 0,
        "note": 66,
        "velocity": 0,
        "channel": 4
      },
      {
        "type": "note_on",
        "time": 1,
        "note": 74,
        "velocity": 90,
        "channel": 4
      },
      {
        "type": "note_on",
        "time": 0,
        "note": 69,
        "velocity": 90,
        "channel": 4
      },
      {
        "type": "note_on",
        "time": 29,
        "note": 74,
        "velocity": 0,
        "channel": 4
      },
      {
        "type": "note_on",
        "time": 0,
        "note": 69,
        "velocity": 0,
        "channel": 4
      },
      {
        "type": "note_on",
        "time": 1,
        "note": 66,
        "velocity": 90,
        "channel": 4
      },
      {
        "type": "note_on",
        "time": 0,
        "note": 69,
        "velocity": 90,
        "channel": 4
      },
      {
        "type": "control_change",
        "time": 0,
        "control": 7,
        "value": 30,
        "channel": 4
      },
      {
        "type": "note_on",
        "time": 29,
        "note": 66,
        "velocity": 0,
        "channel": 4
      },
      {
        "type": "note_on",
        "time": 0,
        "note": 69,
        "velocity": 0,
        "channel": 4
      },
      {
        "type": "note_on",
        "time": 1,
        "note": 66,
        "velocity": 90,
        "channel": 4
      },
      {
        "type": "note_on",
        "time": 0,
        "note": 62,
        "velocity": 90,
        "channel": 4
      },
      {
        "type": "note_on",
        "time": 29,
        "note": 66,
        "velocity": 0,
        "channel": 4
      },
      {
        "type": "note_on",
        "time": 0,
        "note": 62,
        "velocity": 0,
        "channel": 4
      },
      {
        "type": "note_on",
        "time": 1,
        "note": 69,
        "velocity": 90,
        "channel": 4
      },
      {
        "type": "note_on",
        "time": 0,
        "note": 74,
        "velocity": 90,
        "channel": 4
      },
      {
        "type": "note_on",
        "time": 29,
        "note": 69,
        "velocity": 0,
        "channel": 4
      },
      {
        "type": "note_on",
        "time": 0,
        "note": 74,
        "velocity": 0,
        "channel": 4
      },
      {
        "type": "note_on",
        "time": 1,
        "note": 71,
        "velocity": 90,
        "channel": 4
      },
      {
        "type": "note_on",
        "time": 0,
        "note": 66,
        "velocity": 90,
        "channel": 4
      },
      {
        "type": "note_on",
        "time": 29,
        "note": 71,
        "velocity": 0,
        "channel": 4
      },
      {
        "type": "note_on",
        "time": 0,
        "note": 66,
        "velocity": 0,
        "channel": 4
      },
      {
        "type": "control_change",
        "time": 1,
        "control": 7,
        "value": 27,
        "channel": 4
      },
      {
        "type": "note_on",
        "time": 0,
        "note": 78,
        "velocity": 90,
        "channel": 4
      },
      {
        "type": "note_on",
        "time": 0,
        "note": 74,
        "velocity": 90,
        "channel": 4
      },
      {
        "type": "control_change",
        "time": 120,
        "control": 7,
        "value": 24,
        "channel": 4
      },
      {
        "type": "note_on",
        "time": 119,
        "note": 78,
        "velocity": 0,
        "channel": 4
      },
      {
        "type": "note_on",
        "time": 0,
        "note": 74,
        "velocity": 0,
        "channel": 4
      },
      {
        "type": "control_change",
        "time": 1,
        "control": 7,
        "value": 21,
        "channel": 4
      },
      {
        "type": "note_on",
        "time": 0,
        "note": 67,
        "velocity": 90,
        "channel": 4
      },
      {
        "type": "note_on",
        "time": 0,
        "note": 71,
        "velocity": 90,
        "channel": 4
      },
      {
        "type": "note_on",
        "time": 29,
        "note": 67,
        "velocity": 0,
        "channel": 4
      },
      {
        "type": "note_on",
        "time": 0,
        "note": 71,
        "velocity": 0,
        "channel": 4
      },
      {
        "type": "note_on",
        "time": 1,
        "note": 64,
        "velocity": 90,
        "channel": 4
      },
      {
        "type": "note_on",
        "time": 0,
        "note": 67,
        "velocity": 90,
        "channel": 4
      },
      {
        "type": "note_on",
        "time": 29,
        "note": 64,
        "velocity": 0,
        "channel": 4
      },
      {
        "type": "note_on",
        "time": 0,
        "note": 67,
        "velocity": 0,
        "channel": 4
      },
      {
        "type": "note_on",
        "time": 1,
        "note": 64,
        "velocity": 90,
        "channel": 4
      },
      {
        "type": "note_on",
        "time": 0,
        "note": 59,
        "velocity": 90,
        "channel": 4
      },
      {
        "type": "note_on",
        "time": 29,
        "note": 64,
        "velocity": 0,
        "channel": 4
      },
      {
        "type": "note_on",
        "time": 0,
        "note": 59,
        "velocity": 0,
        "channel": 4
      },
      {
        "type": "note_on",
        "time": 1,
        "note": 67,
        "velocity": 90,
        "channel": 4
      },
      {
        "type": "note_on",
        "time": 0,
        "note": 71,
        "velocity": 90,
        "channel": 4
      },
      {
        "type": "note_on",
        "time": 29,
        "note": 67,
        "velocity": 0,
        "channel": 4
      },
      {
        "type": "note_on",
        "time": 0,
        "note": 71,
        "velocity": 0,
        "channel": 4
      },
      {
        "type": "control_change",
        "time": 1,
        "control": 7,
        "value": 18,
        "channel": 4
      },
      {
        "type": "note_on",
        "time": 0,
        "note": 64,
        "velocity": 90,
        "channel": 4
      },
      {
        "type": "note_on",
        "time": 0,
        "note": 67,
        "velocity": 90,
        "channel": 4
      },
      {
        "type": "note_on",
        "time": 29,
        "note": 64,
        "velocity": 0,
        "channel": 4
      },
      {
        "type": "note_on",
        "time": 0,
        "note": 67,
        "velocity": 0,
        "channel": 4
      },
      {
        "type": "note_on",
        "time": 1,
        "note": 64,
        "velocity": 90,
        "channel": 4
      },
      {
        "type": "note_on",
        "time": 0,
        "note": 59,
        "velocity": 90,
        "channel": 4
      },
      {
        "type": "note_on",
        "time": 29,
        "note": 64,
        "velocity": 0,
        "channel": 4
      },
      {
        "type": "note_on",
        "time": 0,
        "note": 59,
        "velocity": 0,
        "channel": 4
      },
      {
        "type": "note_on",
        "time": 1,
        "note": 67,
        "velocity": 90,
        "channel": 4
      },
      {
        "type": "note_on",
        "time": 0,
        "note": 71,
        "velocity": 90,
        "channel": 4
      },
      {
        "type": "note_on",
        "time": 29,
        "note": 67,
        "velocity": 0,
        "channel": 4
      },
      {
        "type": "note_on",
        "time": 0,
        "note": 71,
        "velocity": 0,
        "channel": 4
      },
      {
        "type": "note_on",
        "time": 1,
        "note": 64,
        "velocity": 90,
        "channel": 4
      },
      {
        "type": "note_on",
        "time": 0,
        "note": 67,
        "velocity": 90,
        "channel": 4
      },
      {
        "type": "note_on",
        "time": 29,
        "note": 64,
        "velocity": 0,
        "channel": 4
      },
      {
        "type": "note_on",
        "time": 0,
        "note": 67,
        "velocity": 0,
        "channel": 4
      },
      {
        "type": "note_on",
        "time": 1,
        "note": 59,
        "velocity": 90,
        "channel": 4
      },
      {
        "type": "control_change",
        "time": 0,
        "control": 7,
        "value": 15,
        "channel": 4
      },
      {
        "type": "note_on",
        "time": 0,
        "note": 64,
        "velocity": 90,
        "channel": 4
      },
      {
        "type": "note_on",
        "time": 29,
        "note": 59,
        "velocity": 0,
        "channel": 4
      },
      {
        "type": "note_on",
        "time": 0,
        "note": 64,
        "velocity": 0,
        "channel": 4
      },
      {
        "type": "note_on",
        "time": 1,
        "note": 67,
        "velocity": 90,
        "channel": 4
      },
      {
        "type": "note_on",
        "time": 0,
        "note": 71,
        "velocity": 90,
        "channel": 4
      },
      {
        "type": "note_on",
        "time": 29,
        "note": 67,
        "velocity": 0,
        "channel": 4
      },
      {
        "type": "note_on",
        "time": 0,
        "note": 71,
        "velocity": 0,
        "channel": 4
      },
      {
        "type": "note_on",
        "time": 1,
        "note": 64,
        "velocity": 90,
        "channel": 4
      },
      {
        "type": "note_on",
        "time": 0,
        "note": 67,
        "velocity": 90,
        "channel": 4
      },
      {
        "type": "note_on",
        "time": 29,
        "note": 64,
        "velocity": 0,
        "channel": 4
      },
      {
        "type": "note_on",
        "time": 0,
        "note": 67,
        "velocity": 0,
        "channel": 4
      },
      {
        "type": "note_on",
        "time": 1,
        "note": 59,
        "velocity": 90,
        "channel": 4
      },
      {
        "type": "note_on",
        "time": 0,
        "note": 64,
        "velocity": 90,
        "channel": 4
      },
      {
        "type": "note_on",
        "time": 29,
        "note": 59,
        "velocity": 0,
        "channel": 4
      },
      {
        "type": "note_on",
        "time": 0,
        "note": 64,
        "velocity": 0,
        "channel": 4
      },
      {
        "type": "control_change",
        "time": 1,
        "control": 7,
        "value": 12,
        "channel": 4
      },
      {
        "type": "note_on",
        "time": 0,
        "note": 67,
        "velocity": 90,
        "channel": 4
      },
      {
        "type": "note_on",
        "time": 0,
        "note": 71,
        "velocity": 90,
        "channel": 4
      },
      {
        "type": "note_on",
        "time": 29,
        "note": 67,
        "velocity": 0,
        "channel": 4
      },
      {
        "type": "note_on",
        "time": 0,
        "note": 71,
        "velocity": 0,
        "channel": 4
      },
      {
        "type": "note_on",
        "time": 1,
        "note": 64,
        "velocity": 90,
        "channel": 4
      },
      {
        "type": "note_on",
        "time": 0,
        "note": 67,
        "velocity": 90,
        "channel": 4
      },
      {
        "type": "note_on",
        "time": 29,
        "note": 64,
        "velocity": 0,
        "channel": 4
      },
      {
        "type": "note_on",
        "time": 0,
        "note": 67,
        "velocity": 0,
        "channel": 4
      },
      {
        "type": "note_on",
        "time": 1,
        "note": 64,
        "velocity": 90,
        "channel": 4
      },
      {
        "type": "note_on",
        "time": 0,
        "note": 59,
        "velocity": 90,
        "channel": 4
      },
      {
        "type": "note_on",
        "time": 59,
        "note": 64,
        "velocity": 0,
        "channel": 4
      },
      {
        "type": "note_on",
        "time": 0,
        "note": 59,
        "velocity": 0,
        "channel": 4
      },
      {
        "type": "note_on",
        "time": 1,
        "note": 73,
        "velocity": 90,
        "channel": 4
      },
      {
        "type": "note_on",
        "time": 0,
        "note": 70,
        "velocity": 90,
        "channel": 4
      },
      {
        "type": "control_change",
        "time": 0,
        "control": 7,
        "value": 9,
        "channel": 4
      },
      {
        "type": "note_on",
        "time": 29,
        "note": 73,
        "velocity": 0,
        "channel": 4
      },
      {
        "type": "note_on",
        "time": 0,
        "note": 70,
        "velocity": 0,
        "channel": 4
      },
      {
        "type": "note_on",
        "time": 1,
        "note": 66,
        "velocity": 90,
        "channel": 4
      },
      {
        "type": "note_on",
        "time": 0,
        "note": 70,
        "velocity": 90,
        "channel": 4
      },
      {
        "type": "note_on",
        "time": 29,
        "note": 66,
        "velocity": 0,
        "channel": 4
      },
      {
        "type": "note_on",
        "time": 0,
        "note": 70,
        "velocity": 0,
        "channel": 4
      },
      {
        "type": "note_on",
        "time": 1,
        "note": 66,
        "velocity": 90,
        "channel": 4
      },
      {
        "type": "note_on",
        "time": 0,
        "note": 61,
        "velocity": 90,
        "channel": 4
      },
      {
        "type": "note_on",
        "time": 29,
        "note": 66,
        "velocity": 0,
        "channel": 4
      },
      {
        "type": "note_on",
        "time": 0,
        "note": 61,
        "velocity": 0,
        "channel": 4
      },
      {
        "type": "note_on",
        "time": 1,
        "note": 73,
        "velocity": 90,
        "channel": 4
      },
      {
        "type": "note_on",
        "time": 0,
        "note": 70,
        "velocity": 90,
        "channel": 4
      },
      {
        "type": "note_on",
        "time": 29,
        "note": 73,
        "velocity": 0,
        "channel": 4
      },
      {
        "type": "note_on",
        "time": 0,
        "note": 70,
        "velocity": 0,
        "channel": 4
      },
      {
        "type": "note_on",
        "time": 1,
        "note": 70,
        "velocity": 90,
        "channel": 4
      },
      {
        "type": "control_change",
        "time": 0,
        "control": 7,
        "value": 6,
        "channel": 4
      },
      {
        "type": "note_on",
        "time": 0,
        "note": 66,
        "velocity": 90,
        "channel": 4
      },
      {
        "type": "note_on",
        "time": 29,
        "note": 70,
        "velocity": 0,
        "channel": 4
      },
      {
        "type": "note_on",
        "time": 0,
        "note": 66,
        "velocity": 0,
        "channel": 4
      },
      {
        "type": "note_on",
        "time": 1,
        "note": 61,
        "velocity": 90,
        "channel": 4
      },
      {
        "type": "note_on",
        "time": 0,
        "note": 66,
        "velocity": 90,
        "channel": 4
      },
      {
        "type": "note_on",
        "time": 29,
        "note": 61,
        "velocity": 0,
        "channel": 4
      },
      {
        "type": "note_on",
        "time": 0,
        "note": 66,
        "velocity": 0,
        "channel": 4
      },
      {
        "type": "note_on",
        "time": 1,
        "note": 73,
        "velocity": 90,
        "channel": 4
      },
      {
        "type": "note_on",
        "time": 0,
        "note": 70,
        "velocity": 90,
        "channel": 4
      },
      {
        "type": "note_on",
        "time": 29,
        "note": 73,
        "velocity": 0,
        "channel": 4
      },
      {
        "type": "note_on",
        "time": 0,
        "note": 70,
        "velocity": 0,
        "channel": 4
      },
      {
        "type": "note_on",
        "time": 1,
        "note": 70,
        "velocity": 90,
        "channel": 4
      },
      {
        "type": "note_on",
        "time": 0,
        "note": 66,
        "velocity": 90,
        "channel": 4
      },
      {
        "type": "note_on",
        "time": 29,
        "note": 70,
        "velocity": 0,
        "channel": 4
      },
      {
        "type": "note_on",
        "time": 0,
        "note": 66,
        "velocity": 0,
        "channel": 4
      },
      {
        "type": "note_on",
        "time": 1,
        "note": 73,
        "velocity": 90,
        "channel": 4
      },
      {
        "type": "note_on",
        "time": 0,
        "note": 78,
        "velocity": 90,
        "channel": 4
      },
      {
        "type": "control_change",
        "time": 0,
        "control": 7,
        "value": 3,
        "channel": 4
      },
      {
        "type": "control_change",
        "time": 120,
        "control": 7,
        "value": 0,
        "channel": 4
      },
      {
        "type": "note_on",
        "time": 119,
        "note": 73,
        "velocity": 0,
        "channel": 4
      },
      {
        "type": "note_on",
        "time": 0,
        "note": 78,
        "velocity": 0,
        "channel": 4
      },
      {
        "type": "end_of_track",
        "time": 0
      }
    ],
    [
      {
        "type": "track_name",
        "name": "WinJammer Demo",
        "time": 0
      },
      {
        "type": "midi_port",
        "port": 0,
        "time": 0
      },
      {
        "type": "control_change",
        "time": 1800,
        "control": 7,
        "value": 40,
        "channel": 9
      },
      {
        "type": "note_on",
        "time": 0,
        "note": 44,
        "velocity": 100,
        "channel": 9
      },
      {
        "type": "note_on",
        "time": 14,
        "note": 44,
        "velocity": 0,
        "channel": 9
      },
      {
        "type": "control_change",
        "time": 1,
        "control": 7,
        "value": 60,
        "channel": 9
      },
      {
        "type": "note_on",
        "time": 0,
        "note": 44,
        "velocity": 100,
        "channel": 9
      },
      {
        "type": "note_on",
        "time": 14,
        "note": 44,
        "velocity": 0,
        "channel": 9
      },
      {
        "type": "control_change",
        "time": 1,
        "control": 7,
        "value": 80,
        "channel": 9
      },
      {
        "type": "note_on",
        "time": 0,
        "note": 44,
        "velocity": 100,
        "channel": 9
      },
      {
        "type": "note_on",
        "time": 14,
        "note": 44,
        "velocity": 0,
        "channel": 9
      },
      {
        "type": "control_change",
        "time": 1,
        "control": 7,
        "value": 100,
        "channel": 9
      },
      {
        "type": "note_on",
        "time": 0,
        "note": 44,
        "velocity": 100,
        "channel": 9
      },
      {
        "type": "note_on",
        "time": 14,
        "note": 44,
        "velocity": 0,
        "channel": 9
      },
      {
        "type": "control_change",
        "time": 1,
        "control": 7,
        "value": 120,
        "channel": 9
      },
      {
        "type": "note_on",
        "time": 0,
        "note": 44,
        "velocity": 100,
        "channel": 9
      },
      {
        "type": "note_on",
        "time": 14,
        "note": 44,
        "velocity": 0,
        "channel": 9
      },
      {
        "type": "control_change",
        "time": 1,
        "control": 7,
        "value": 100,
        "channel": 9
      },
      {
        "type": "note_on",
        "time": 0,
        "note": 44,
        "velocity": 100,
        "channel": 9
      },
      {
        "type": "note_on",
        "time": 14,
        "note": 44,
        "velocity": 0,
        "channel": 9
      },
      {
        "type": "note_on",
        "time": 1,
        "note": 44,
        "velocity": 100,
        "channel": 9
      },
      {
        "type": "note_on",
        "time": 14,
        "note": 44,
        "velocity": 0,
        "channel": 9
      },
      {
        "type": "note_on",
        "time": 1,
        "note": 44,
        "velocity": 100,
        "channel": 9
      },
      {
        "type": "note_on",
        "time": 14,
        "note": 44,
        "velocity": 0,
        "channel": 9
      },
      {
        "type": "note_on",
        "time": 5641,
        "note": 40,
        "velocity": 100,
        "channel": 9
      },
      {
        "type": "note_on",
        "time": 59,
        "note": 40,
        "velocity": 0,
        "channel": 9
      },
      {
        "type": "note_on",
        "time": 1,
        "note": 40,
        "velocity": 100,
        "channel": 9
      },
      {
        "type": "note_on",
        "time": 59,
        "note": 40,
        "velocity": 0,
        "channel": 9
      },
      {
        "type": "note_on",
        "time": 121,
        "note": 40,
        "velocity": 100,
        "channel": 9
      },
      {
        "type": "note_on",
        "time": 59,
        "note": 40,
        "velocity": 0,
        "channel": 9
      },
      {
        "type": "note_on",
        "time": 181,
        "note": 40,
        "velocity": 100,
        "channel": 9
      },
      {
        "type": "note_on",
        "time": 59,
        "note": 40,
        "velocity": 0,
        "channel": 9
      },
      {
        "type": "note_on",
        "time": 181,
        "note": 40,
        "velocity": 100,
        "channel": 9
      },
      {
        "type": "note_on",
        "time": 59,
        "note": 40,
        "velocity": 0,
        "channel": 9
      },
      {
        "type": "note_on",
        "time": 181,
        "note": 40,
        "velocity": 100,
        "channel": 9
      },
      {
        "type": "note_on",
        "time": 59,
        "note": 40,
        "velocity": 0,
        "channel": 9
      },
      {
        "type": "note_on",
        "time": 181,
        "note": 40,
        "velocity": 100,
        "channel": 9
      },
      {
        "type": "note_on",
        "time": 59,
        "note": 40,
        "velocity": 0,
        "channel": 9
      },
      {
        "type": "note_on",
        "time": 181,
        "note": 40,
        "velocity": 100,
        "channel": 9
      },
      {
        "type": "note_on",
        "time": 59,
        "note": 40,
        "velocity": 0,
        "channel": 9
      },
      {
        "type": "note_on",
        "time": 181,
        "note": 40,
        "velocity": 100,
        "channel": 9
      },
      {
        "type": "note_on",
        "time": 59,
        "note": 40,
        "velocity": 0,
        "channel": 9
      },
      {
        "type": "note_on",
        "time": 181,
        "note": 40,
        "velocity": 100,
        "channel": 9
      },
      {
        "type": "note_on",
        "time": 59,
        "note": 40,
        "velocity": 0,
        "channel": 9
      },
      {
        "type": "note_on",
        "time": 181,
        "note": 40,
        "velocity": 100,
        "channel": 9
      },
      {
        "type": "note_on",
        "time": 59,
        "note": 40,
        "velocity": 0,
        "channel": 9
      },
      {
        "type": "note_on",
        "time": 181,
        "note": 40,
        "velocity": 100,
        "channel": 9
      },
      {
        "type": "note_on",
        "time": 59,
        "note": 40,
        "velocity": 0,
        "channel": 9
      },
      {
        "type": "note_on",
        "time": 181,
        "note": 40,
        "velocity": 100,
        "channel": 9
      },
      {
        "type": "note_on",
        "time": 59,
        "note": 40,
        "velocity": 0,
        "channel": 9
      },
      {
        "type": "note_on",
        "time": 181,
        "note": 40,
        "velocity": 100,
        "channel": 9
      },
      {
        "type": "note_on",
        "time": 59,
        "note": 40,
        "velocity": 0,
        "channel": 9
      },
      {
        "type": "note_on",
        "time": 181,
        "note": 40,
        "velocity": 100,
        "channel": 9
      },
      {
        "type": "note_on",
        "time": 59,
        "note": 40,
        "velocity": 0,
        "channel": 9
      },
      {
        "type": "note_on",
        "time": 181,
        "note": 40,
        "velocity": 100,
        "channel": 9
      },
      {
        "type": "note_on",
        "time": 59,
        "note": 40,
        "velocity": 0,
        "channel": 9
      },
      {
        "type": "note_on",
        "time": 181,
        "note": 40,
        "velocity": 100,
        "channel": 9
      },
      {
        "type": "note_on",
        "time": 119,
        "note": 40,
        "velocity": 0,
        "channel": 9
      },
      {
        "type": "note_on",
        "time": 121,
        "note": 40,
        "velocity": 100,
        "channel": 9
      },
      {
        "type": "note_on",
        "time": 59,
        "note": 40,
        "velocity": 0,
        "channel": 9
      },
      {
        "type": "note_on",
        "time": 1,
        "note": 40,
        "velocity": 100,
        "channel": 9
      },
      {
        "type": "note_on",
        "time": 59,
        "note": 40,
        "velocity": 0,
        "channel": 9
      },
      {
        "type": "note_on",
        "time": 121,
        "note": 40,
        "velocity": 100,
        "channel": 9
      },
      {
        "type": "note_on",
        "time": 59,
        "note": 40,
        "velocity": 0,
        "channel": 9
      },
      {
        "type": "note_on",
        "time": 181,
        "note": 40,
        "velocity": 100,
        "channel": 9
      },
      {
        "type": "note_on",
        "time": 59,
        "note": 40,
        "velocity": 0,
        "channel": 9
      },
      {
        "type": "note_on",
        "time": 181,
        "note": 40,
        "velocity": 100,
        "channel": 9
      },
      {
        "type": "note_on",
        "time": 59,
        "note": 40,
        "velocity": 0,
        "channel": 9
      },
      {
        "type": "note_on",
        "time": 181,
        "note": 40,
        "velocity": 100,
        "channel": 9
      },
      {
        "type": "note_on",
        "time": 59,
        "note": 40,
        "velocity": 0,
        "channel": 9
      },
      {
        "type": "note_on",
        "time": 181,
        "note": 40,
        "velocity": 100,
        "channel": 9
      },
      {
        "type": "note_on",
        "time": 119,
        "note": 40,
        "velocity": 0,
        "channel": 9
      },
      {
        "type": "note_on",
        "time": 121,
        "note": 40,
        "velocity": 100,
        "channel": 9
      },
      {
        "type": "note_on",
        "time": 119,
        "note": 40,
        "velocity": 0,
        "channel": 9
      },
      {
        "type": "note_on",
        "time": 121,
        "note": 40,
        "velocity": 100,
        "channel": 9
      },
      {
        "type": "note_on",
        "time": 119,
        "note": 40,
        "velocity": 0,
        "channel": 9
      },
      {
        "type": "note_on",
        "time": 121,
        "note": 40,
        "velocity": 100,
        "channel": 9
      },
      {
        "type": "note_on",
        "time": 119,
        "note": 40,
        "velocity": 0,
        "channel": 9
      },
      {
        "type": "note_on",
        "time": 121,
        "note": 40,
        "velocity": 100,
        "channel": 9
      },
      {
        "type": "note_on",
        "time": 119,
        "note": 40,
        "velocity": 0,
        "channel": 9
      },
      {
        "type": "note_on",
        "time": 121,
        "note": 40,
        "velocity": 100,
        "channel": 9
      },
      {
        "type": "note_on",
        "time": 119,
        "note": 40,
        "velocity": 0,
        "channel": 9
      },
      {
        "type": "note_on",
        "time": 121,
        "note": 40,
        "velocity": 100,
        "channel": 9
      },
      {
        "type": "note_on",
        "time": 119,
        "note": 40,
        "velocity": 0,
        "channel": 9
      },
      {
        "type": "note_on",
        "time": 121,
        "note": 40,
        "velocity": 100,
        "channel": 9
      },
      {
        "type": "note_on",
        "time": 119,
        "note": 40,
        "velocity": 0,
        "channel": 9
      },
      {
        "type": "note_on",
        "time": 121,
        "note": 40,
        "velocity": 100,
        "channel": 9
      },
      {
        "type": "note_on",
        "time": 119,
        "note": 40,
        "velocity": 0,
        "channel": 9
      },
      {
        "type": "note_on",
        "time": 121,
        "note": 40,
        "velocity": 100,
        "channel": 9
      },
      {
        "type": "note_on",
        "time": 119,
        "note": 40,
        "velocity": 0,
        "channel": 9
      },
      {
        "type": "note_on",
        "time": 121,
        "note": 40,
        "velocity": 100,
        "channel": 9
      },
      {
        "type": "note_on",
        "time": 119,
        "note": 40,
        "velocity": 0,
        "channel": 9
      },
      {
        "type": "note_on",
        "time": 61,
        "note": 40,
        "velocity": 100,
        "channel": 9
      },
      {
        "type": "note_on",
        "time": 29,
        "note": 40,
        "velocity": 0,
        "channel": 9
      },
      {
        "type": "note_on",
        "time": 31,
        "note": 40,
        "velocity": 100,
        "channel": 9
      },
      {
        "type": "note_on",
        "time": 30,
        "note": 40,
        "velocity": 100,
        "channel": 9
      },
      {
        "type": "note_on",
        "time": 29,
        "note": 40,
        "velocity": 0,
        "channel": 9
      },
      {
        "type": "note_on",
        "time": 0,
        "note": 40,
        "velocity": 0,
        "channel": 9
      },
      {
        "type": "note_on",
        "time": 1,
        "note": 40,
        "velocity": 100,
        "channel": 9
      },
      {
        "type": "note_on",
        "time": 0,
        "note": 35,
        "velocity": 100,
        "channel": 9
      },
      {
        "type": "note_on",
        "time": 30,
        "note": 40,
        "velocity": 100,
        "channel": 9
      },
      {
        "type": "note_on",
        "time": 0,
        "note": 35,
        "velocity": 100,
        "channel": 9
      },
      {
        "type": "note_on",
        "time": 29,
        "note": 40,
        "velocity": 0,
        "channel": 9
      },
      {
        "type": "note_on",
        "time": 0,
        "note": 35,
        "velocity": 0,
        "channel": 9
      },
      {
        "type": "note_on",
        "time": 0,
        "note": 40,
        "velocity": 0,
        "channel": 9
      },
      {
        "type": "note_on",
        "time": 0,
        "note": 35,
        "velocity": 0,
        "channel": 9
      },
      {
        "type": "note_on",
        "time": 1,
        "note": 54,
        "velocity": 100,
        "channel": 9
      },
      {
        "type": "note_on",
        "time": 0,
        "note": 36,
        "velocity": 100,
        "channel": 9
      },
      {
        "type": "note_on",
        "time": 29,
        "note": 54,
        "velocity": 0,
        "channel": 9
      },
      {
        "type": "note_on",
        "time": 0,
        "note": 36,
        "velocity": 0,
        "channel": 9
      },
      {
        "type": "note_on",
        "time": 1,
        "note": 54,
        "velocity": 100,
        "channel": 9
      },
      {
        "type": "note_on",
        "time": 0,
        "note": 36,
        "velocity": 100,
        "channel": 9
      },
      {
        "type": "note_on",
        "time": 29,
        "note": 54,
        "velocity": 0,
        "channel": 9
      },
      {
        "type": "note_on",
        "time": 0,
        "note": 36,
        "velocity": 0,
        "channel": 9
      },
      {
        "type": "note_on",
        "time": 1,
        "note": 36,
        "velocity": 100,
        "channel": 9
      },
      {
        "type": "note_on",
        "time": 0,
        "note": 54,
        "velocity": 100,
        "channel": 9
      },
      {
        "type": "note_on",
        "time": 29,
        "note": 36,
        "velocity": 0,
        "channel": 9
      },
      {
        "type": "note_on",
        "time": 0,
        "note": 54,
        "velocity": 0,
        "channel": 9
      },
      {
        "type": "note_on",
        "time": 31,
        "note": 55,
        "velocity": 100,
        "channel": 9
      },
      {
        "type": "note_on",
        "time": 0,
        "note": 40,
        "velocity": 100,
        "channel": 9
      },
      {
        "type": "note_on",
        "time": 29,
        "note": 55,
        "velocity": 0,
        "channel": 9
      },
      {
        "type": "note_on",
        "time": 0,
        "note": 40,
        "velocity": 0,
        "channel": 9
      },
      {
        "type": "note_on",
        "time": 91,
        "note": 36,
        "velocity": 100,
        "channel": 9
      },
      {
        "type": "note_on",
        "time": 0,
        "note": 54,
        "velocity": 100,
        "channel": 9
      },
      {
        "type": "note_on",
        "time": 29,
        "note": 36,
        "velocity": 0,
        "channel": 9
      },
      {
        "type": "note_on",
        "time": 0,
        "note": 54,
        "velocity": 0,
        "channel": 9
      },
      {
        "type": "note_on",
        "time": 1,
        "note": 36,
        "velocity": 100,
        "channel": 9
      },
      {
        "type": "note_on",
        "time": 0,
        "note": 54,
        "velocity": 100,
        "channel": 9
      },
      {
        "type": "note_on",
        "time": 29,
        "note": 36,
        "velocity": 0,
        "channel": 9
      },
      {
        "type": "note_on",
        "time": 0,
        "note": 54,
        "velocity": 0,
        "channel": 9
      },
      {
        "type": "note_on",
        "time": 1,
        "note": 54,
        "velocity": 100,
        "channel": 9
      },
      {
        "type": "note_on",
        "time": 0,
        "note": 36,
        "velocity": 100,
        "channel": 9
      },
      {
        "type": "note_on",
        "time": 29,
        "note": 54,
        "velocity": 0,
        "channel": 9
      },
      {
        "type": "note_on",
        "time": 0,
        "note": 36,
        "velocity": 0,
        "channel": 9
      },
      {
        "type": "note_on",
        "time": 31,
        "note": 40,
        "velocity": 100,
        "channel": 9
      },
      {
        "type": "note_on",
        "time": 0,
        "note": 55,
        "velocity": 100,
        "channel": 9
      },
      {
        "type": "note_on",
        "time": 29,
        "note": 40,
        "velocity": 0,
        "channel": 9
      },
      {
        "type": "note_on",
        "time": 0,
        "note": 55,
        "velocity": 0,
        "channel": 9
      },
      {
        "type": "note_on",
        "time": 91,
        "note": 36,
        "velocity": 100,
        "channel": 9
      },
      {
        "type": "note_on",
        "time": 0,
        "note": 54,
        "velocity": 100,
        "channel": 9
      },
      {
        "type": "note_on",
        "time": 29,
        "note": 36,
        "velocity": 0,
        "channel": 9
      },
      {
        "type": "note_on",
        "time": 0,
        "note": 54,
        "velocity": 0,
        "channel": 9
      },
      {
        "type": "note_on",
        "time": 1,
        "note": 36,
        "velocity": 100,
        "channel": 9
      },
      {
        "type": "note_on",
        "time": 0,
        "note": 54,
        "velocity": 100,
        "channel": 9
      },
      {
        "type": "note_on",
        "time": 29,
        "note": 36,
        "velocity": 0,
        "channel": 9
      },
      {
        "type": "note_on",
        "time": 0,
        "note": 54,
        "velocity": 0,
        "channel": 9
      },
      {
        "type": "note_on",
        "time": 1,
        "note": 36,
        "velocity": 100,
        "channel": 9
      },
      {
        "type": "note_on",
        "time": 0,
        "note": 54,
        "velocity": 100,
        "channel": 9
      },
      {
        "type": "note_on",
        "time": 29,
        "note": 36,
        "velocity": 0,
        "channel": 9
      },
      {
        "type": "note_on",
        "time": 0,
        "note": 54,
        "velocity": 0,
        "channel": 9
      },
      {
        "type": "note_on",
        "time": 31,
        "note": 40,
        "velocity": 100,
        "channel": 9
      },
      {
        "type": "note_on",
        "time": 0,
        "note": 55,
        "velocity": 100,
        "channel": 9
      },
      {
        "type": "note_on",
        "time": 29,
        "note": 40,
        "velocity": 0,
        "channel": 9
      },
      {
        "type": "note_on",
        "time": 0,
        "note": 55,
        "velocity": 0,
        "channel": 9
      },
      {
        "type": "note_on",
        "time": 91,
        "note": 54,
        "velocity": 100,
        "channel": 9
      },
      {
        "type": "note_on",
        "time": 0,
        "note": 36,
        "velocity": 100,
        "channel": 9
      },
      {
        "type": "note_on",
        "time": 29,
        "note": 54,
        "velocity": 0,
        "channel": 9
      },
      {
        "type": "note_on",
        "time": 0,
        "note": 36,
        "velocity": 0,
        "channel": 9
      },
      {
        "type": "note_on",
        "time": 1,
        "note": 36,
        "velocity": 100,
        "channel": 9
      },
      {
        "type": "note_on",
        "time": 0,
        "note": 54,
        "velocity": 100,
        "channel": 9
      },
      {
        "type": "note_on",
        "time": 29,
        "note": 36,
        "velocity": 0,
        "channel": 9
      },
      {
        "type": "note_on",
        "time": 0,
        "note": 54,
        "velocity": 0,
        "channel": 9
      },
      {
        "type": "note_on",
        "time": 1,
        "note": 36,
        "velocity": 100,
        "channel": 9
      },
      {
        "type": "note_on",
        "time": 0,
        "note": 54,
        "velocity": 100,
        "channel": 9
      },
      {
        "type": "note_on",
        "time": 29,
        "note": 36,
        "velocity": 0,
        "channel": 9
      },
      {
        "type": "note_on",
        "time": 0,
        "note": 54,
        "velocity": 0,
        "channel": 9
      },
      {
        "type": "note_on",
        "time": 31,
        "note": 55,
        "velocity": 100,
        "channel": 9
      },
      {
        "type": "note_on",
        "time": 0,
        "note": 40,
        "velocity": 100,
        "channel": 9
      },
      {
        "type": "note_on",
        "time": 29,
        "note": 55,
        "velocity": 0,
        "channel": 9
      },
      {
        "type": "note_on",
        "time": 0,
        "note": 40,
        "velocity": 0,
        "channel": 9
      },
      {
        "type": "note_on",
        "time": 91,
        "note": 36,
        "velocity": 100,
        "channel": 9
      },
      {
        "type": "note_on",
        "time": 0,
        "note": 54,
        "velocity": 100,
        "channel": 9
      },
      {
        "type": "note_on",
        "time": 29,
        "note": 36,
        "velocity": 0,
        "channel": 9
      },
      {
        "type": "note_on",
        "time": 0,
        "note": 54,
        "velocity": 0,
        "channel": 9
      },
      {
        "type": "note_on",
        "time": 1,
        "note": 36,
        "velocity": 100,
        "channel": 9
      },
      {
        "type": "note_on",
        "time": 0,
        "note": 54,
        "velocity": 100,
        "channel": 9
      },
      {
        "type": "note_on",
        "time": 29,
        "note": 36,
        "velocity": 0,
        "channel": 9
      },
      {
        "type": "note_on",
        "time": 0,
        "note": 54,
        "velocity": 0,
        "channel": 9
      },
      {
        "type": "note_on",
        "time": 1,
        "note": 36,
        "velocity": 100,
        "channel": 9
      },
      {
        "type": "note_on",
        "time": 0,
        "note": 54,
        "velocity": 100,
        "channel": 9
      },
      {
        "type": "note_on",
        "time": 29,
        "note": 36,
        "velocity": 0,
        "channel": 9
      },
      {
        "type": "note_on",
        "time": 0,
        "note": 54,
        "velocity": 0,
        "channel": 9
      },
      {
        "type": "note_on",
        "time": 31,
        "note": 40,
        "velocity": 100,
        "channel": 9
      },
      {
        "type": "note_on",
        "time": 0,
        "note": 55,
        "velocity": 100,
        "channel": 9
      },
      {
        "type": "note_on",
        "time": 29,
        "note": 40,
        "velocity": 0,
        "channel": 9
      },
      {
        "type": "note_on",
        "time": 0,
        "note": 55,
        "velocity": 0,
        "channel": 9
      },
      {
        "type": "note_on",
        "time": 91,
        "note": 36,
        "velocity": 100,
        "channel": 9
      },
      {
        "type": "note_on",
        "time": 0,
        "note": 54,
        "velocity": 100,
        "channel": 9
      },
      {
        "type": "note_on",
        "time": 29,
        "note": 36,
        "velocity": 0,
        "channel": 9
      },
      {
        "type": "note_on",
        "time": 0,
        "note": 54,
        "velocity": 0,
        "channel": 9
      },
      {
        "type": "note_on",
        "time": 1,
        "note": 36,
        "velocity": 100,
        "channel": 9
      },
      {
        "type": "note_on",
        "time": 0,
        "note": 54,
        "velocity": 100,
        "channel": 9
      },
      {
        "type": "note_on",
        "time": 29,
        "note": 36,
        "velocity": 0,
        "channel": 9
      },
      {
        "type": "note_on",
        "time": 0,
        "note": 54,
        "velocity": 0,
        "channel": 9
      },
      {
        "type": "note_on",
        "time": 1,
        "note": 36,
        "velocity": 100,
        "channel": 9
      },
      {
        "type": "note_on",
        "time": 0,
        "note": 54,
        "velocity": 100,
        "channel": 9
      },
      {
        "type": "note_on",
        "time": 29,
        "note": 36,
        "velocity": 0,
        "channel": 9
      },
      {
        "type": "note_on",
        "time": 0,
        "note": 54,
        "velocity": 0,
        "channel": 9
      },
      {
        "type": "note_on",
        "time": 31,
        "note": 40,
        "velocity": 100,
        "channel": 9
      },
      {
        "type": "note_on",
        "time": 0,
        "note": 55,
        "velocity": 100,
        "channel": 9
      },
      {
        "type": "note_on",
        "time": 29,
        "note": 40,
        "velocity": 0,
        "channel": 9
      },
      {
        "type": "note_on",
        "time": 0,
        "note": 55,
        "velocity": 0,
        "channel": 9
      },
      {
        "type": "note_on",
        "time": 91,
        "note": 55,
        "velocity": 100,
        "channel": 9
      },
      {
        "type": "note_on",
        "time": 0,
        "note": 40,
        "velocity": 100,
        "channel": 9
      },
      {
        "type": "note_on",
        "time": 29,
        "note": 55,
        "velocity": 0,
        "channel": 9
      },
      {
        "type": "note_on",
        "time": 0,
        "note": 40,
        "velocity": 0,
        "channel": 9
      },
      {
        "type": "note_on",
        "time": 31,
        "note": 54,
        "velocity": 100,
        "channel": 9
      },
      {
        "type": "note_on",
        "time": 0,
        "note": 36,
        "velocity": 100,
        "channel": 9
      },
      {
        "type": "note_on",
        "time": 29,
        "note": 54,
        "velocity": 0,
        "channel": 9
      },
      {
        "type": "note_on",
        "time": 0,
        "note": 36,
        "velocity": 0,
        "channel": 9
      },
      {
        "type": "note_on",
        "time": 1,
        "note": 36,
        "velocity": 100,
        "channel": 9
      },
      {
        "type": "note_on",
        "time": 0,
        "note": 54,
        "velocity": 100,
        "channel": 9
      },
      {
        "type": "note_on",
        "time": 29,
        "note": 36,
        "velocity": 0,
        "channel": 9
      },
      {
        "type": "note_on",
        "time": 0,
        "note": 54,
        "velocity": 0,
        "channel": 9
      },
      {
        "type": "note_on",
        "time": 1,
        "note": 55,
        "velocity": 100,
        "channel": 9
      },
      {
        "type": "note_on",
        "time": 0,
        "note": 40,
        "velocity": 100,
        "channel": 9
      },
      {
        "type": "note_on",
        "time": 29,
        "note": 55,
        "velocity": 0,
        "channel": 9
      },
      {
        "type": "note_on",
        "time": 0,
        "note": 40,
        "velocity": 0,
        "channel": 9
      },
      {
        "type": "note_on",
        "time": 31,
        "note": 54,
        "velocity": 100,
        "channel": 9
      },
      {
        "type": "note_on",
        "time": 0,
        "note": 36,
        "velocity": 100,
        "channel": 9
      },
      {
        "type": "note_on",
        "time": 29,
        "note": 54,
        "velocity": 0,
        "channel": 9
      },
      {
        "type": "note_on",
        "time": 0,
        "note": 36,
        "velocity": 0,
        "channel": 9
      },
      {
        "type": "note_on",
        "time": 1,
        "note": 36,
        "velocity": 100,
        "channel": 9
      },
      {
        "type": "note_on",
        "time": 0,
        "note": 54,
        "velocity": 100,
        "channel": 9
      },
      {
        "type": "note_on",
        "time": 29,
        "note": 36,
        "velocity": 0,
        "channel": 9
      },
      {
        "type": "note_on",
        "time": 0,
        "note": 54,
        "velocity": 0,
        "channel": 9
      },
      {
        "type": "note_on",
        "time": 1,
        "note": 55,
        "velocity": 100,
        "channel": 9
      },
      {
        "type": "note_on",
        "time": 0,
        "note": 40,
        "velocity": 100,
        "channel": 9
      },
      {
        "type": "note_on",
        "time": 29,
        "note": 55,
        "velocity": 0,
        "channel": 9
      },
      {
        "type": "note_on",
        "time": 0,
        "note": 40,
        "velocity": 0,
        "channel": 9
      },
      {
        "type": "note_on",
        "time": 31,
        "note": 36,
        "velocity": 100,
        "channel": 9
      },
      {
        "type": "note_on",
        "time": 0,
        "note": 54,
        "velocity": 100,
        "channel": 9
      },
      {
        "type": "note_on",
        "time": 29,
        "note": 36,
        "velocity": 0,
        "channel": 9
      },
      {
        "type": "note_on",
        "time": 0,
        "note": 54,
        "velocity": 0,
        "channel": 9
      },
      {
        "type": "note_on",
        "time": 1,
        "note": 36,
        "velocity": 100,
        "channel": 9
      },
      {
        "type": "note_on",
        "time": 0,
        "note": 54,
        "velocity": 100,
        "channel": 9
      },
      {
        "type": "note_on",
        "time": 29,
        "note": 36,
        "velocity": 0,
        "channel": 9
      },
      {
        "type": "note_on",
        "time": 0,
        "note": 54,
        "velocity": 0,
        "channel": 9
      },
      {
        "type": "note_on",
        "time": 1,
        "note": 55,
        "velocity": 100,
        "channel": 9
      },
      {
        "type": "note_on",
        "time": 0,
        "note": 40,
        "velocity": 100,
        "channel": 9
      },
      {
        "type": "note_on",
        "time": 29,
        "note": 55,
        "velocity": 0,
        "channel": 9
      },
      {
        "type": "note_on",
        "time": 0,
        "note": 40,
        "velocity": 0,
        "channel": 9
      },
      {
        "type": "note_on",
        "time": 31,
        "note": 54,
        "velocity": 100,
        "channel": 9
      },
      {
        "type": "note_on",
        "time": 0,
        "note": 36,
        "velocity": 100,
        "channel": 9
      },
      {
        "type": "note_on",
        "time": 29,
        "note": 54,
        "velocity": 0,
        "channel": 9
      },
      {
        "type": "note_on",
        "time": 0,
        "note": 36,
        "velocity": 0,
        "channel": 9
      },
      {
        "type": "note_on",
        "time": 1,
        "note": 36,
        "velocity": 100,
        "channel": 9
      },
      {
        "type": "note_on",
        "time": 0,
        "note": 54,
        "velocity": 100,
        "channel": 9
      },
      {
        "type": "note_on",
        "time": 29,
        "note": 36,
        "velocity": 0,
        "channel": 9
      },
      {
        "type": "note_on",
        "time": 0,
        "note": 54,
        "velocity": 0,
        "channel": 9
      },
      {
        "type": "note_on",
        "time": 1,
        "note": 36,
        "velocity": 100,
        "channel": 9
      },
      {
        "type": "note_on",
        "time": 0,
        "note": 54,
        "velocity": 100,
        "channel": 9
      },
      {
        "type": "note_on",
        "time": 29,
        "note": 36,
        "velocity": 0,
        "channel": 9
      },
      {
        "type": "note_on",
        "time": 0,
        "note": 54,
        "velocity": 0,
        "channel": 9
      },
      {
        "type": "note_on",
        "time": 1,
        "note": 36,
        "velocity": 100,
        "channel": 9
      },
      {
        "type": "note_on",
        "time": 0,
        "note": 54,
        "velocity": 100,
        "channel": 9
      },
      {
        "type": "note_on",
        "time": 29,
        "note": 36,
        "velocity": 0,
        "channel": 9
      },
      {
        "type": "note_on",
        "time": 0,
        "note": 54,
        "velocity": 0,
        "channel": 9
      },
      {
        "type": "note_on",
        "time": 1,
        "note": 54,
        "velocity": 100,
        "channel": 9
      },
      {
        "type": "note_on",
        "time": 0,
        "note": 36,
        "velocity": 100,
        "channel": 9
      },
      {
        "type": "note_on",
        "time": 29,
        "note": 54,
        "velocity": 0,
        "channel": 9
      },
      {
        "type": "note_on",
        "time": 0,
        "note": 36,
        "velocity": 0,
        "channel": 9
      },
      {
        "type": "note_on",
        "time": 31,
        "note": 40,
        "velocity": 100,
        "channel": 9
      },
      {
        "type": "note_on",
        "time": 0,
        "note": 55,
        "velocity": 100,
        "channel": 9
      },
      {
        "type": "note_on",
        "time": 29,
        "note": 40,
        "velocity": 0,
        "channel": 9
      },
      {
        "type": "note_on",
        "time": 0,
        "note": 55,
        "velocity": 0,
        "channel": 9
      },
      {
        "type": "note_on",
        "time": 91,
        "note": 36,
        "velocity": 100,
        "channel": 9
      },
      {
        "type": "note_on",
        "time": 0,
        "note": 54,
        "velocity": 100,
        "channel": 9
      },
      {
        "type": "note_on",
        "time": 29,
        "note": 36,
        "velocity": 0,
        "channel": 9
      },
      {
        "type": "note_on",
        "time": 0,
        "note": 54,
        "velocity": 0,
        "channel": 9
      },
      {
        "type": "note_on",
        "time": 1,
        "note": 54,
        "velocity": 100,
        "channel": 9
      },
      {
        "type": "note_on",
        "time": 0,
        "note": 36,
        "velocity": 100,
        "channel": 9
      },
      {
        "type": "note_on",
        "time": 29,
        "note": 54,
        "velocity": 0,
        "channel": 9
      },
      {
        "type": "note_on",
        "time": 0,
        "note": 36,
        "velocity": 0,
        "channel": 9
      },
      {
        "type": "note_on",
        "time": 1,
        "note": 36,
        "velocity": 100,
        "channel": 9
      },
      {
        "type": "note_on",
        "time": 0,
        "note": 54,
        "velocity": 100,
        "channel": 9
      },
      {
        "type": "note_on",
        "time": 29,
        "note": 36,
        "velocity": 0,
        "channel": 9
      },
      {
        "type": "note_on",
        "time": 0,
        "note": 54,
        "velocity": 0,
        "channel": 9
      },
      {
        "type": "note_on",
        "time": 31,
        "note": 40,
        "velocity": 100,
        "channel": 9
      },
      {
        "type": "note_on",
        "time": 0,
        "note": 55,
        "velocity": 100,
        "channel": 9
      },
      {
        "type": "note_on",
        "time": 29,
        "note": 40,
        "velocity": 0,
        "channel": 9
      },
      {
        "type": "note_on",
        "time": 0,
        "note": 55,
        "velocity": 0,
        "channel": 9
      },
      {
        "type": "note_on",
        "time": 91,
        "note": 54,
        "velocity": 100,
        "channel": 9
      },
      {
        "type": "note_on",
        "time": 0,
        "note": 36,
        "velocity": 100,
        "channel": 9
      },
      {
        "type": "note_on",
        "time": 29,
        "note": 54,
        "velocity": 0,
        "channel": 9
      },
      {
        "type": "note_on",
        "time": 0,
        "note": 36,
        "velocity": 0,
        "channel": 9
      },
      {
        "type": "note_on",
        "time": 1,
        "note": 54,
        "velocity": 100,
        "channel": 9
      },
      {
        "type": "note_on",
        "time": 0,
        "note": 36,
        "velocity": 100,
        "channel": 9
      },
      {
        "type": "note_on",
        "time": 29,
        "note": 54,
        "velocity": 0,
        "channel": 9
      },
      {
        "type": "note_on",
        "time": 0,
        "note": 36,
        "velocity": 0,
        "channel": 9
      },
      {
        "type": "note_on",
        "time": 1,
        "note": 36,
        "velocity": 100,
        "channel": 9
      },
      {
        "type": "note_on",
        "time": 0,
        "note": 54,
        "velocity": 100,
        "channel": 9
      },
      {
        "type": "note_on",
        "time": 29,
        "note": 36,
        "velocity": 0,
        "channel": 9
      },
      {
        "type": "note_on",
        "time": 0,
        "note": 54,
        "velocity": 0,
        "channel": 9
      },
      {
        "type": "note_on",
        "time": 31,
        "note": 40,
        "velocity": 100,
        "channel": 9
      },
      {
        "type": "note_on",
        "time": 0,
        "note": 55,
        "velocity": 100,
        "channel": 9
      },
      {
        "type": "note_on",
        "time": 29,
        "note": 40,
        "velocity": 0,
        "channel": 9
      },
      {
        "type": "note_on",
        "time": 0,
        "note": 55,
        "velocity": 0,
        "channel": 9
      },
      {
        "type": "note_on",
        "time": 91,
        "note": 36,
        "velocity": 100,
        "channel": 9
      },
      {
        "type": "note_on",
        "time": 0,
        "note": 54,
        "velocity": 100,
        "channel": 9
      },
      {
        "type": "note_on",
        "time": 29,
        "note": 36,
        "velocity": 0,
        "channel": 9
      },
      {
        "type": "note_on",
        "time": 0,
        "note": 54,
        "velocity": 0,
        "channel": 9
      },
      {
        "type": "note_on",
        "time": 1,
        "note": 36,
        "velocity": 100,
        "channel": 9
      },
      {
        "type": "note_on",
        "time": 0,
        "note": 54,
        "velocity": 100,
        "channel": 9
      },
      {
        "type": "note_on",
        "time": 29,
        "note": 36,
        "velocity": 0,
        "channel": 9
      },
      {
        "type": "note_on",
        "time": 0,
        "note": 54,
        "velocity": 0,
        "channel": 9
      },
      {
        "type": "note_on",
        "time": 1,
        "note": 54,
        "velocity": 100,
        "channel": 9
      },
      {
        "type": "note_on",
        "time": 0,
        "note": 36,
        "velocity": 100,
        "channel": 9
      },
      {
        "type": "note_on",
        "time": 29,
        "note": 54,
        "velocity": 0,
        "channel": 9
      },
      {
        "type": "note_on",
        "time": 0,
        "note": 36,
        "velocity": 0,
        "channel": 9
      },
      {
        "type": "note_on",
        "time": 31,
        "note": 40,
        "velocity": 100,
        "channel": 9
      },
      {
        "type": "note_on",
        "time": 0,
        "note": 55,
        "velocity": 100,
        "channel": 9
      },
      {
        "type": "note_on",
        "time": 29,
        "note": 40,
        "velocity": 0,
        "channel": 9
      },
      {
        "type": "note_on",
        "time": 0,
        "note": 55,
        "velocity": 0,
        "channel": 9
      },
      {
        "type": "note_on",
        "time": 91,
        "note": 54,
        "velocity": 100,
        "channel": 9
      },
      {
        "type": "note_on",
        "time": 0,
        "note": 36,
        "velocity": 100,
        "channel": 9
      },
      {
        "type": "note_on",
        "time": 29,
        "note": 54,
        "velocity": 0,
        "channel": 9
      },
      {
        "type": "note_on",
        "time": 0,
        "note": 36,
        "velocity": 0,
        "channel": 9
      },
      {
        "type": "note_on",
        "time": 1,
        "note": 54,
        "velocity": 100,
        "channel": 9
      },
      {
        "type": "note_on",
        "time": 0,
        "note": 36,
        "velocity": 100,
        "channel": 9
      },
      {
        "type": "note_on",
        "time": 29,
        "note": 54,
        "velocity": 0,
        "channel": 9
      },
      {
        "type": "note_on",
        "time": 0,
        "note": 36,
        "velocity": 0,
        "channel": 9
      },
      {
        "type": "note_on",
        "time": 1,
        "note": 36,
        "velocity": 100,
        "channel": 9
      },
      {
        "type": "note_on",
        "time": 0,
        "note": 54,
        "velocity": 100,
        "channel": 9
      },
      {
        "type": "note_on",
        "time": 29,
        "note": 36,
        "velocity": 0,
        "channel": 9
      },
      {
        "type": "note_on",
        "time": 0,
        "note": 54,
        "velocity": 0,
        "channel": 9
      },
      {
        "type": "note_on",
        "time": 31,
        "note": 55,
        "velocity": 100,
        "channel": 9
      },
      {
        "type": "note_on",
        "time": 0,
        "note": 40,
        "velocity": 100,
        "channel": 9
      },
      {
        "type": "note_on",
        "time": 29,
        "note": 55,
        "velocity": 0,
        "channel": 9
      },
      {
        "type": "note_on",
        "time": 0,
        "note": 40,
        "velocity": 0,
        "channel": 9
      },
      {
        "type": "note_on",
        "time": 91,
        "note": 36,
        "velocity": 100,
        "channel": 9
      },
      {
        "type": "note_on",
        "time": 0,
        "note": 54,
        "velocity": 100,
        "channel": 9
      },
      {
        "type": "note_on",
        "time": 29,
        "note": 36,
        "velocity": 0,
        "channel": 9
      },
      {
        "type": "note_on",
        "time": 0,
        "note": 54,
        "velocity": 0,
        "channel": 9
      },
      {
        "type": "note_on",
        "time": 1,
        "note": 36,
        "velocity": 100,
        "channel": 9
      },
      {
        "type": "note_on",
        "time": 0,
        "note": 54,
        "velocity": 100,
        "channel": 9
      },
      {
        "type": "note_on",
        "time": 29,
        "note": 36,
        "velocity": 0,
        "channel": 9
      },
      {
        "type": "note_on",
        "time": 0,
        "note": 54,
        "velocity": 0,
        "channel": 9
      },
      {
        "type": "note_on",
        "time": 1,
        "note": 54,
        "velocity": 100,
        "channel": 9
      },
      {
        "type": "note_on",
        "time": 0,
        "note": 36,
        "velocity": 100,
        "channel": 9
      },
      {
        "type": "note_on",
        "time": 29,
        "note": 54,
        "velocity": 0,
        "channel": 9
      },
      {
        "type": "note_on",
        "time": 0,
        "note": 36,
        "velocity": 0,
        "channel": 9
      },
      {
        "type": "note_on",
        "time": 31,
        "note": 40,
        "velocity": 100,
        "channel": 9
      },
      {
        "type": "note_on",
        "time": 0,
        "note": 55,
        "velocity": 100,
        "channel": 9
      },
      {
        "type": "note_on",
        "time": 29,
        "note": 40,
        "velocity": 0,
        "channel": 9
      },
      {
        "type": "note_on",
        "time": 0,
        "note": 55,
        "velocity": 0,
        "channel": 9
      },
      {
        "type": "note_on",
        "time": 91,
        "note": 36,
        "velocity": 100,
        "channel": 9
      },
      {
        "type": "note_on",
        "time": 0,
        "note": 54,
        "velocity": 100,
        "channel": 9
      },
      {
        "type": "note_on",
        "time": 29,
        "note": 36,
        "velocity": 0,
        "channel": 9
      },
      {
        "type": "note_on",
        "time": 0,
        "note": 54,
        "velocity": 0,
        "channel": 9
      },
      {
        "type": "note_on",
        "time": 1,
        "note": 36,
        "velocity": 100,
        "channel": 9
      },
      {
        "type": "note_on",
        "time": 0,
        "note": 54,
        "velocity": 100,
        "channel": 9
      },
      {
        "type": "note_on",
        "time": 29,
        "note": 36,
        "velocity": 0,
        "channel": 9
      },
      {
        "type": "note_on",
        "time": 0,
        "note": 54,
        "velocity": 0,
        "channel": 9
      },
      {
        "type": "note_on",
        "time": 1,
        "note": 36,
        "velocity": 100,
        "channel": 9
      },
      {
        "type": "note_on",
        "time": 0,
        "note": 54,
        "velocity": 100,
        "channel": 9
      },
      {
        "type": "note_on",
        "time": 29,
        "note": 36,
        "velocity": 0,
        "channel": 9
      },
      {
        "type": "note_on",
        "time": 0,
        "note": 54,
        "velocity": 0,
        "channel": 9
      },
      {
        "type": "note_on",
        "time": 31,
        "note": 40,
        "velocity": 100,
        "channel": 9
      },
      {
        "type": "note_on",
        "time": 0,
        "note": 55,
        "velocity": 100,
        "channel": 9
      },
      {
        "type": "note_on",
        "time": 29,
        "note": 40,
        "velocity": 0,
        "channel": 9
      },
      {
        "type": "note_on",
        "time": 0,
        "note": 55,
        "velocity": 0,
        "channel": 9
      },
      {
        "type": "note_on",
        "time": 1,
        "note": 36,
        "velocity": 100,
        "channel": 9
      },
      {
        "type": "note_on",
        "time": 0,
        "note": 54,
        "velocity": 100,
        "channel": 9
      },
      {
        "type": "note_on",
        "time": 29,
        "note": 36,
        "velocity": 0,
        "channel": 9
      },
      {
        "type": "note_on",
        "time": 0,
        "note": 54,
        "velocity": 0,
        "channel": 9
      },
      {
        "type": "note_on",
        "time": 1,
        "note": 54,
        "velocity": 100,
        "channel": 9
      },
      {
        "type": "note_on",
        "time": 0,
        "note": 36,
        "velocity": 100,
        "channel": 9
      },
      {
        "type": "note_on",
        "time": 29,
        "note": 54,
        "velocity": 0,
        "channel": 9
      },
      {
        "type": "note_on",
        "time": 0,
        "note": 36,
        "velocity": 0,
        "channel": 9
      },
      {
        "type": "note_on",
        "time": 31,
        "note": 55,
        "velocity": 100,
        "channel": 9
      },
      {
        "type": "note_on",
        "time": 0,
        "note": 40,
        "velocity": 100,
        "channel": 9
      },
      {
        "type": "note_on",
        "time": 30,
        "note": 36,
        "velocity": 100,
        "channel": 9
      },
      {
        "type": "note_on",
        "time": 0,
        "note": 54,
        "velocity": 100,
        "channel": 9
      },
      {
        "type": "note_on",
        "time": 29,
        "note": 55,
        "velocity": 0,
        "channel": 9
      },
      {
        "type": "note_on",
        "time": 0,
        "note": 40,
        "velocity": 0,
        "channel": 9
      },
      {
        "type": "note_on",
        "time": 0,
        "note": 36,
        "velocity": 0,
        "channel": 9
      },
      {
        "type": "note_on",
        "time": 0,
        "note": 54,
        "velocity": 0,
        "channel": 9
      },
      {
        "type": "note_on",
        "time": 1,
        "note": 54,
        "velocity": 100,
        "channel": 9
      },
      {
        "type": "note_on",
        "time": 0,
        "note": 36,
        "velocity": 100,
        "channel": 9
      },
      {
        "type": "note_on",
        "time": 29,
        "note": 54,
        "velocity": 0,
        "channel": 9
      },
      {
        "type": "note_on",
        "time": 0,
        "note": 36,
        "velocity": 0,
        "channel": 9
      },
      {
        "type": "note_on",
        "time": 31,
        "note": 55,
        "velocity": 100,
        "channel": 9
      },
      {
        "type": "note_on",
        "time": 0,
        "note": 57,
        "velocity": 100,
        "channel": 9
      },
      {
        "type": "note_on",
        "time": 0,
        "note": 49,
        "velocity": 100,
        "channel": 9
      },
      {
        "type": "note_on",
        "time": 0,
        "note": 40,
        "velocity": 100,
        "channel": 9
      },
      {
        "type": "note_on",
        "time": 30,
        "note": 54,
        "velocity": 100,
        "channel": 9
      },
      {
        "type": "note_on",
        "time": 0,
        "note": 36,
        "velocity": 100,
        "channel": 9
      },
      {
        "type": "note_on",
        "time": 29,
        "note": 55,
        "velocity": 0,
        "channel": 9
      },
      {
        "type": "note_on",
        "time": 0,
        "note": 57,
        "velocity": 0,
        "channel": 9
      },
      {
        "type": "note_on",
        "time": 0,
        "note": 49,
        "velocity": 0,
        "channel": 9
      },
      {
        "type": "note_on",
        "time": 0,
        "note": 40,
        "velocity": 0,
        "channel": 9
      },
      {
        "type": "note_on",
        "time": 0,
        "note": 54,
        "velocity": 0,
        "channel": 9
      },
      {
        "type": "note_on",
        "time": 0,
        "note": 36,
        "velocity": 0,
        "channel": 9
      },
      {
        "type": "note_on",
        "time": 1,
        "note": 36,
        "velocity": 100,
        "channel": 9
      },
      {
        "type": "note_on",
        "time": 0,
        "note": 54,
        "velocity": 100,
        "channel": 9
      },
      {
        "type": "note_on",
        "time": 29,
        "note": 36,
        "velocity": 0,
        "channel": 9
      },
      {
        "type": "note_on",
        "time": 0,
        "note": 54,
        "velocity": 0,
        "channel": 9
      },
      {
        "type": "note_on",
        "time": 151,
        "note": 40,
        "velocity": 100,
        "channel": 9
      },
      {
        "type": "note_on",
        "time": 59,
        "note": 40,
        "velocity": 0,
        "channel": 9
      },
      {
        "type": "note_on",
        "time": 181,
        "note": 40,
        "velocity": 100,
        "channel": 9
      },
      {
        "type": "note_on",
        "time": 59,
        "note": 40,
        "velocity": 0,
        "channel": 9
      },
      {
        "type": "note_on",
        "time": 181,
        "note": 40,
        "velocity": 100,
        "channel": 9
      },
      {
        "type": "note_on",
        "time": 59,
        "note": 40,
        "velocity": 0,
        "channel": 9
      },
      {
        "type": "note_on",
        "time": 181,
        "note": 40,
        "velocity": 100,
        "channel": 9
      },
      {
        "type": "note_on",
        "time": 59,
        "note": 40,
        "velocity": 0,
        "channel": 9
      },
      {
        "type": "note_on",
        "time": 181,
        "note": 40,
        "velocity": 100,
        "channel": 9
      },
      {
        "type": "note_on",
        "time": 119,
        "note": 40,
        "velocity": 0,
        "channel": 9
      },
      {
        "type": "note_on",
        "time": 121,
        "note": 40,
        "velocity": 100,
        "channel": 9
      },
      {
        "type": "note_on",
        "time": 119,
        "note": 40,
        "velocity": 0,
        "channel": 9
      },
      {
        "type": "note_on",
        "time": 121,
        "note": 40,
        "velocity": 100,
        "channel": 9
      },
      {
        "type": "note_on",
        "time": 119,
        "note": 40,
        "velocity": 0,
        "channel": 9
      },
      {
        "type": "note_on",
        "time": 121,
        "note": 40,
        "velocity": 100,
        "channel": 9
      },
      {
        "type": "note_on",
        "time": 119,
        "note": 40,
        "velocity": 0,
        "channel": 9
      },
      {
        "type": "note_on",
        "time": 121,
        "note": 40,
        "velocity": 100,
        "channel": 9
      },
      {
        "type": "note_on",
        "time": 119,
        "note": 40,
        "velocity": 0,
        "channel": 9
      },
      {
        "type": "note_on",
        "time": 121,
        "note": 40,
        "velocity": 100,
        "channel": 9
      },
      {
        "type": "note_on",
        "time": 119,
        "note": 40,
        "velocity": 0,
        "channel": 9
      },
      {
        "type": "note_on",
        "time": 121,
        "note": 40,
        "velocity": 100,
        "channel": 9
      },
      {
        "type": "note_on",
        "time": 119,
        "note": 40,
        "velocity": 0,
        "channel": 9
      },
      {
        "type": "note_on",
        "time": 121,
        "note": 40,
        "velocity": 100,
        "channel": 9
      },
      {
        "type": "note_on",
        "time": 119,
        "note": 40,
        "velocity": 0,
        "channel": 9
      },
      {
        "type": "note_on",
        "time": 121,
        "note": 40,
        "velocity": 100,
        "channel": 9
      },
      {
        "type": "note_on",
        "time": 119,
        "note": 40,
        "velocity": 0,
        "channel": 9
      },
      {
        "type": "note_on",
        "time": 121,
        "note": 40,
        "velocity": 100,
        "channel": 9
      },
      {
        "type": "note_on",
        "time": 119,
        "note": 40,
        "velocity": 0,
        "channel": 9
      },
      {
        "type": "note_on",
        "time": 121,
        "note": 40,
        "velocity": 100,
        "channel": 9
      },
      {
        "type": "note_on",
        "time": 119,
        "note": 40,
        "velocity": 0,
        "channel": 9
      },
      {
        "type": "note_on",
        "time": 121,
        "note": 40,
        "velocity": 100,
        "channel": 9
      },
      {
        "type": "note_on",
        "time": 59,
        "note": 40,
        "velocity": 0,
        "channel": 9
      },
      {
        "type": "note_on",
        "time": 1,
        "note": 40,
        "velocity": 100,
        "channel": 9
      },
      {
        "type": "note_on",
        "time": 59,
        "note": 40,
        "velocity": 0,
        "channel": 9
      },
      {
        "type": "note_on",
        "time": 121,
        "note": 40,
        "velocity": 100,
        "channel": 9
      },
      {
        "type": "note_on",
        "time": 59,
        "note": 40,
        "velocity": 0,
        "channel": 9
      },
      {
        "type": "note_on",
        "time": 181,
        "note": 40,
        "velocity": 100,
        "channel": 9
      },
      {
        "type": "note_on",
        "time": 59,
        "note": 40,
        "velocity": 0,
        "channel": 9
      },
      {
        "type": "note_on",
        "time": 181,
        "note": 40,
        "velocity": 100,
        "channel": 9
      },
      {
        "type": "note_on",
        "time": 59,
        "note": 40,
        "velocity": 0,
        "channel": 9
      },
      {
        "type": "note_on",
        "time": 181,
        "note": 40,
        "velocity": 100,
        "channel": 9
      },
      {
        "type": "note_on",
        "time": 59,
        "note": 40,
        "velocity": 0,
        "channel": 9
      },
      {
        "type": "note_on",
        "time": 181,
        "note": 40,
        "velocity": 100,
        "channel": 9
      },
      {
        "type": "note_on",
        "time": 119,
        "note": 40,
        "velocity": 0,
        "channel": 9
      },
      {
        "type": "note_on",
        "time": 121,
        "note": 40,
        "velocity": 100,
        "channel": 9
      },
      {
        "type": "note_on",
        "time": 119,
        "note": 40,
        "velocity": 0,
        "channel": 9
      },
      {
        "type": "note_on",
        "time": 121,
        "note": 40,
        "velocity": 100,
        "channel": 9
      },
      {
        "type": "note_on",
        "time": 119,
        "note": 40,
        "velocity": 0,
        "channel": 9
      },
      {
        "type": "note_on",
        "time": 121,
        "note": 40,
        "velocity": 100,
        "channel": 9
      },
      {
        "type": "note_on",
        "time": 119,
        "note": 40,
        "velocity": 0,
        "channel": 9
      },
      {
        "type": "note_on",
        "time": 121,
        "note": 40,
        "velocity": 100,
        "channel": 9
      },
      {
        "type": "note_on",
        "time": 119,
        "note": 40,
        "velocity": 0,
        "channel": 9
      },
      {
        "type": "note_on",
        "time": 121,
        "note": 40,
        "velocity": 100,
        "channel": 9
      },
      {
        "type": "note_on",
        "time": 119,
        "note": 40,
        "velocity": 0,
        "channel": 9
      },
      {
        "type": "note_on",
        "time": 121,
        "note": 40,
        "velocity": 100,
        "channel": 9
      },
      {
        "type": "note_on",
        "time": 119,
        "note": 40,
        "velocity": 0,
        "channel": 9
      },
      {
        "type": "note_on",
        "time": 121,
        "note": 40,
        "velocity": 100,
        "channel": 9
      },
      {
        "type": "note_on",
        "time": 119,
        "note": 40,
        "velocity": 0,
        "channel": 9
      },
      {
        "type": "note_on",
        "time": 121,
        "note": 40,
        "velocity": 100,
        "channel": 9
      },
      {
        "type": "note_on",
        "time": 119,
        "note": 40,
        "velocity": 0,
        "channel": 9
      },
      {
        "type": "note_on",
        "time": 121,
        "note": 40,
        "velocity": 100,
        "channel": 9
      },
      {
        "type": "note_on",
        "time": 119,
        "note": 40,
        "velocity": 0,
        "channel": 9
      },
      {
        "type": "note_on",
        "time": 121,
        "note": 40,
        "velocity": 100,
        "channel": 9
      },
      {
        "type": "note_on",
        "time": 119,
        "note": 40,
        "velocity": 0,
        "channel": 9
      },
      {
        "type": "note_on",
        "time": 61,
        "note": 40,
        "velocity": 100,
        "channel": 9
      },
      {
        "type": "note_on",
        "time": 29,
        "note": 40,
        "velocity": 0,
        "channel": 9
      },
      {
        "type": "note_on",
        "time": 31,
        "note": 40,
        "velocity": 100,
        "channel": 9
      },
      {
        "type": "note_on",
        "time": 30,
        "note": 40,
        "velocity": 100,
        "channel": 9
      },
      {
        "type": "note_on",
        "time": 29,
        "note": 40,
        "velocity": 0,
        "channel": 9
      },
      {
        "type": "note_on",
        "time": 0,
        "note": 40,
        "velocity": 0,
        "channel": 9
      },
      {
        "type": "note_on",
        "time": 1,
        "note": 40,
        "velocity": 100,
        "channel": 9
      },
      {
        "type": "note_on",
        "time": 0,
        "note": 36,
        "velocity": 100,
        "channel": 9
      },
      {
        "type": "note_on",
        "time": 29,
        "note": 36,
        "velocity": 0,
        "channel": 9
      },
      {
        "type": "note_on",
        "time": 1,
        "note": 40,
        "velocity": 100,
        "channel": 9
      },
      {
        "type": "note_on",
        "time": 0,
        "note": 36,
        "velocity": 100,
        "channel": 9
      },
      {
        "type": "note_on",
        "time": 29,
        "note": 40,
        "velocity": 0,
        "channel": 9
      },
      {
        "type": "note_on",
        "time": 0,
        "note": 40,
        "velocity": 0,
        "channel": 9
      },
      {
        "type": "note_on",
        "time": 0,
        "note": 36,
        "velocity": 0,
        "channel": 9
      },
      {
        "type": "note_on",
        "time": 1,
        "note": 36,
        "velocity": 100,
        "channel": 9
      },
      {
        "type": "note_on",
        "time": 0,
        "note": 54,
        "velocity": 100,
        "channel": 9
      },
      {
        "type": "note_on",
        "time": 29,
        "note": 36,
        "velocity": 0,
        "channel": 9
      },
      {
        "type": "note_on",
        "time": 0,
        "note": 54,
        "velocity": 0,
        "channel": 9
      },
      {
        "type": "note_on",
        "time": 1,
        "note": 54,
        "velocity": 100,
        "channel": 9
      },
      {
        "type": "note_on",
        "time": 0,
        "note": 36,
        "velocity": 100,
        "channel": 9
      },
      {
        "type": "note_on",
        "time": 29,
        "note": 54,
        "velocity": 0,
        "channel": 9
      },
      {
        "type": "note_on",
        "time": 0,
        "note": 36,
        "velocity": 0,
        "channel": 9
      },
      {
        "type": "note_on",
        "time": 1,
        "note": 54,
        "velocity": 100,
        "channel": 9
      },
      {
        "type": "note_on",
        "time": 0,
        "note": 36,
        "velocity": 100,
        "channel": 9
      },
      {
        "type": "note_on",
        "time": 29,
        "note": 54,
        "velocity": 0,
        "channel": 9
      },
      {
        "type": "note_on",
        "time": 30,
        "note": 36,
        "velocity": 0,
        "channel": 9
      },
      {
        "type": "note_on",
        "time": 1,
        "note": 55,
        "velocity": 100,
        "channel": 9
      },
      {
        "type": "note_on",
        "time": 0,
        "note": 40,
        "velocity": 100,
        "channel": 9
      },
      {
        "type": "note_on",
        "time": 29,
        "note": 55,
        "velocity": 0,
        "channel": 9
      },
      {
        "type": "note_on",
        "time": 0,
        "note": 40,
        "velocity": 0,
        "channel": 9
      },
      {
        "type": "note_on",
        "time": 91,
        "note": 54,
        "velocity": 100,
        "channel": 9
      },
      {
        "type": "note_on",
        "time": 0,
        "note": 36,
        "velocity": 100,
        "channel": 9
      },
      {
        "type": "note_on",
        "time": 29,
        "note": 54,
        "velocity": 0,
        "channel": 9
      },
      {
        "type": "note_on",
        "time": 0,
        "note": 36,
        "velocity": 0,
        "channel": 9
      },
      {
        "type": "note_on",
        "time": 1,
        "note": 54,
        "velocity": 100,
        "channel": 9
      },
      {
        "type": "note_on",
        "time": 0,
        "note": 36,
        "velocity": 100,
        "channel": 9
      },
      {
        "type": "note_on",
        "time": 29,
        "note": 54,
        "velocity": 0,
        "channel": 9
      },
      {
        "type": "note_on",
        "time": 0,
        "note": 36,
        "velocity": 0,
        "channel": 9
      },
      {
        "type": "note_on",
        "time": 1,
        "note": 36,
        "velocity": 100,
        "channel": 9
      },
      {
        "type": "note_on",
        "time": 0,
        "note": 54,
        "velocity": 100,
        "channel": 9
      },
      {
        "type": "note_on",
        "time": 29,
        "note": 54,
        "velocity": 0,
        "channel": 9
      },
      {
        "type": "note_on",
        "time": 30,
        "note": 36,
        "velocity": 0,
        "channel": 9
      },
      {
        "type": "note_on",
        "time": 1,
        "note": 40,
        "velocity": 100,
        "channel": 9
      },
      {
        "type": "note_on",
        "time": 0,
        "note": 55,
        "velocity": 100,
        "channel": 9
      },
      {
        "type": "note_on",
        "time": 29,
        "note": 40,
        "velocity": 0,
        "channel": 9
      },
      {
        "type": "note_on",
        "time": 0,
        "note": 55,
        "velocity": 0,
        "channel": 9
      },
      {
        "type": "note_on",
        "time": 91,
        "note": 54,
        "velocity": 100,
        "channel": 9
      },
      {
        "type": "note_on",
        "time": 0,
        "note": 36,
        "velocity": 100,
        "channel": 9
      },
      {
        "type": "note_on",
        "time": 29,
        "note": 54,
        "velocity": 0,
        "channel": 9
      },
      {
        "type": "note_on",
        "time": 0,
        "note": 36,
        "velocity": 0,
        "channel": 9
      },
      {
        "type": "note_on",
        "time": 1,
        "note": 36,
        "velocity": 100,
        "channel": 9
      },
      {
        "type": "note_on",
        "time": 0,
        "note": 54,
        "velocity": 100,
        "channel": 9
      },
      {
        "type": "note_on",
        "time": 29,
        "note": 36,
        "velocity": 0,
        "channel": 9
      },
      {
        "type": "note_on",
        "time": 0,
        "note": 54,
        "velocity": 0,
        "channel": 9
      },
      {
        "type": "note_on",
        "time": 1,
        "note": 54,
        "velocity": 100,
        "channel": 9
      },
      {
        "type": "note_on",
        "time": 0,
        "note": 36,
        "velocity": 100,
        "channel": 9
      },
      {
        "type": "note_on",
        "time": 29,
        "note": 54,
        "velocity": 0,
        "channel": 9
      },
      {
        "type": "note_on",
        "time": 30,
        "note": 36,
        "velocity": 0,
        "channel": 9
      },
      {
        "type": "note_on",
        "time": 1,
        "note": 40,
        "velocity": 100,
        "channel": 9
      },
      {
        "type": "note_on",
        "time": 0,
        "note": 55,
        "velocity": 100,
        "channel": 9
      },
      {
        "type": "note_on",
        "time": 29,
        "note": 40,
        "velocity": 0,
        "channel": 9
      },
      {
        "type": "note_on",
        "time": 0,
        "note": 55,
        "velocity": 0,
        "channel": 9
      },
      {
        "type": "note_on",
        "time": 91,
        "note": 36,
        "velocity": 100,
        "channel": 9
      },
      {
        "type": "note_on",
        "time": 0,
        "note": 54,
        "velocity": 100,
        "channel": 9
      },
      {
        "type": "note_on",
        "time": 29,
        "note": 36,
        "velocity": 0,
        "channel": 9
      },
      {
        "type": "note_on",
        "time": 0,
        "note": 54,
        "velocity": 0,
        "channel": 9
      },
      {
        "type": "note_on",
        "time": 1,
        "note": 54,
        "velocity": 100,
        "channel": 9
      },
      {
        "type": "note_on",
        "time": 0,
        "note": 36,
        "velocity": 100,
        "channel": 9
      },
      {
        "type": "note_on",
        "time": 29,
        "note": 54,
        "velocity": 0,
        "channel": 9
      },
      {
        "type": "note_on",
        "time": 0,
        "note": 36,
        "velocity": 0,
        "channel": 9
      },
      {
        "type": "note_on",
        "time": 1,
        "note": 54,
        "velocity": 100,
        "channel": 9
      },
      {
        "type": "note_on",
        "time": 0,
        "note": 36,
        "velocity": 100,
        "channel": 9
      },
      {
        "type": "note_on",
        "time": 29,
        "note": 54,
        "velocity": 0,
        "channel": 9
      },
      {
        "type": "note_on",
        "time": 30,
        "note": 36,
        "velocity": 0,
        "channel": 9
      },
      {
        "type": "note_on",
        "time": 1,
        "note": 55,
        "velocity": 100,
        "channel": 9
      },
      {
        "type": "note_on",
        "time": 0,
        "note": 40,
        "velocity": 100,
        "channel": 9
      },
      {
        "type": "note_on",
        "time": 29,
        "note": 55,
        "velocity": 0,
        "channel": 9
      },
      {
        "type": "note_on",
        "time": 0,
        "note": 40,
        "velocity": 0,
        "channel": 9
      },
      {
        "type": "note_on",
        "time": 91,
        "note": 54,
        "velocity": 100,
        "channel": 9
      },
      {
        "type": "note_on",
        "time": 0,
        "note": 36,
        "velocity": 100,
        "channel": 9
      },
      {
        "type": "note_on",
        "time": 29,
        "note": 54,
        "velocity": 0,
        "channel": 9
      },
      {
        "type": "note_on",
        "time": 0,
        "note": 36,
        "velocity": 0,
        "channel": 9
      },
      {
        "type": "note_on",
        "time": 1,
        "note": 36,
        "velocity": 100,
        "channel": 9
      },
      {
        "type": "note_on",
        "time": 0,
        "note": 54,
        "velocity": 100,
        "channel": 9
      },
      {
        "type": "note_on",
        "time": 29,
        "note": 36,
        "velocity": 0,
        "channel": 9
      },
      {
        "type": "note_on",
        "time": 0,
        "note": 54,
        "velocity": 0,
        "channel": 9
      },
      {
        "type": "note_on",
        "time": 1,
        "note": 54,
        "velocity": 100,
        "channel": 9
      },
      {
        "type": "note_on",
        "time": 0,
        "note": 36,
        "velocity": 100,
        "channel": 9
      },
      {
        "type": "note_on",
        "time": 29,
        "note": 54,
        "velocity": 0,
        "channel": 9
      },
      {
        "type": "note_on",
        "time": 30,
        "note": 36,
        "velocity": 0,
        "channel": 9
      },
      {
        "type": "note_on",
        "time": 1,
        "note": 40,
        "velocity": 100,
        "channel": 9
      },
      {
        "type": "note_on",
        "time": 0,
        "note": 55,
        "velocity": 100,
        "channel": 9
      },
      {
        "type": "note_on",
        "time": 29,
        "note": 40,
        "velocity": 0,
        "channel": 9
      },
      {
        "type": "note_on",
        "time": 0,
        "note": 55,
        "velocity": 0,
        "channel": 9
      },
      {
        "type": "note_on",
        "time": 91,
        "note": 36,
        "velocity": 100,
        "channel": 9
      },
      {
        "type": "note_on",
        "time": 0,
        "note": 54,
        "velocity": 100,
        "channel": 9
      },
      {
        "type": "note_on",
        "time": 29,
        "note": 36,
        "velocity": 0,
        "channel": 9
      },
      {
        "type": "note_on",
        "time": 0,
        "note": 54,
        "velocity": 0,
        "channel": 9
      },
      {
        "type": "note_on",
        "time": 1,
        "note": 36,
        "velocity": 100,
        "channel": 9
      },
      {
        "type": "note_on",
        "time": 0,
        "note": 54,
        "velocity": 100,
        "channel": 9
      },
      {
        "type": "note_on",
        "time": 29,
        "note": 36,
        "velocity": 0,
        "channel": 9
      },
      {
        "type": "note_on",
        "time": 0,
        "note": 54,
        "velocity": 0,
        "channel": 9
      },
      {
        "type": "note_on",
        "time": 1,
        "note": 36,
        "velocity": 100,
        "channel": 9
      },
      {
        "type": "note_on",
        "time": 0,
        "note": 54,
        "velocity": 100,
        "channel": 9
      },
      {
        "type": "note_on",
        "time": 29,
        "note": 36,
        "velocity": 0,
        "channel": 9
      },
      {
        "type": "note_on",
        "time": 0,
        "note": 54,
        "velocity": 0,
        "channel": 9
      },
      {
        "type": "note_on",
        "time": 31,
        "note": 40,
        "velocity": 100,
        "channel": 9
      },
      {
        "type": "note_on",
        "time": 0,
        "note": 55,
        "velocity": 100,
        "channel": 9
      },
      {
        "type": "note_on",
        "time": 29,
        "note": 40,
        "velocity": 0,
        "channel": 9
      },
      {
        "type": "note_on",
        "time": 0,
        "note": 55,
        "velocity": 0,
        "channel": 9
      },
      {
        "type": "note_on",
        "time": 91,
        "note": 55,
        "velocity": 100,
        "channel": 9
      },
      {
        "type": "note_on",
        "time": 0,
        "note": 40,
        "velocity": 100,
        "channel": 9
      },
      {
        "type": "note_on",
        "time": 29,
        "note": 55,
        "velocity": 0,
        "channel": 9
      },
      {
        "type": "note_on",
        "time": 0,
        "note": 40,
        "velocity": 0,
        "channel": 9
      },
      {
        "type": "note_on",
        "time": 31,
        "note": 54,
        "velocity": 100,
        "channel": 9
      },
      {
        "type": "note_on",
        "time": 0,
        "note": 36,
        "velocity": 100,
        "channel": 9
      },
      {
        "type": "note_on",
        "time": 29,
        "note": 54,
        "velocity": 0,
        "channel": 9
      },
      {
        "type": "note_on",
        "time": 0,
        "note": 36,
        "velocity": 0,
        "channel": 9
      },
      {
        "type": "note_on",
        "time": 1,
        "note": 36,
        "velocity": 100,
        "channel": 9
      },
      {
        "type": "note_on",
        "time": 0,
        "note": 54,
        "velocity": 100,
        "channel": 9
      },
      {
        "type": "note_on",
        "time": 29,
        "note": 36,
        "velocity": 0,
        "channel": 9
      },
      {
        "type": "note_on",
        "time": 0,
        "note": 54,
        "velocity": 0,
        "channel": 9
      },
      {
        "type": "note_on",
        "time": 1,
        "note": 55,
        "velocity": 100,
        "channel": 9
      },
      {
        "type": "note_on",
        "time": 0,
        "note": 40,
        "velocity": 100,
        "channel": 9
      },
      {
        "type": "note_on",
        "time": 29,
        "note": 55,
        "velocity": 0,
        "channel": 9
      },
      {
        "type": "note_on",
        "time": 0,
        "note": 40,
        "velocity": 0,
        "channel": 9
      },
      {
        "type": "note_on",
        "time": 31,
        "note": 54,
        "velocity": 100,
        "channel": 9
      },
      {
        "type": "note_on",
        "time": 0,
        "note": 36,
        "velocity": 100,
        "channel": 9
      },
      {
        "type": "note_on",
        "time": 29,
        "note": 54,
        "velocity": 0,
        "channel": 9
      },
      {
        "type": "note_on",
        "time": 0,
        "note": 36,
        "velocity": 0,
        "channel": 9
      },
      {
        "type": "note_on",
        "time": 1,
        "note": 36,
        "velocity": 100,
        "channel": 9
      },
      {
        "type": "note_on",
        "time": 0,
        "note": 54,
        "velocity": 100,
        "channel": 9
      },
      {
        "type": "note_on",
        "time": 29,
        "note": 36,
        "velocity": 0,
        "channel": 9
      },
      {
        "type": "note_on",
        "time": 0,
        "note": 54,
        "velocity": 0,
        "channel": 9
      },
      {
        "type": "note_on",
        "time": 1,
        "note": 55,
        "velocity": 100,
        "channel": 9
      },
      {
        "type": "note_on",
        "time": 0,
        "note": 40,
        "velocity": 100,
        "channel": 9
      },
      {
        "type": "note_on",
        "time": 29,
        "note": 55,
        "velocity": 0,
        "channel": 9
      },
      {
        "type": "note_on",
        "time": 0,
        "note": 40,
        "velocity": 0,
        "channel": 9
      },
      {
        "type": "note_on",
        "time": 31,
        "note": 36,
        "velocity": 100,
        "channel": 9
      },
      {
        "type": "note_on",
        "time": 0,
        "note": 54,
        "velocity": 100,
        "channel": 9
      },
      {
        "type": "note_on",
        "time": 29,
        "note": 36,
        "velocity": 0,
        "channel": 9
      },
      {
        "type": "note_on",
        "time": 0,
        "note": 54,
        "velocity": 0,
        "channel": 9
      },
      {
        "type": "note_on",
        "time": 1,
        "note": 36,
        "velocity": 100,
        "channel": 9
      },
      {
        "type": "note_on",
        "time": 0,
        "note": 54,
        "velocity": 100,
        "channel": 9
      },
      {
        "type": "note_on",
        "time": 29,
        "note": 36,
        "velocity": 0,
        "channel": 9
      },
      {
        "type": "note_on",
        "time": 0,
        "note": 54,
        "velocity": 0,
        "channel": 9
      },
      {
        "type": "note_on",
        "time": 1,
        "note": 55,
        "velocity": 100,
        "channel": 9
      },
      {
        "type": "note_on",
        "time": 0,
        "note": 40,
        "velocity": 100,
        "channel": 9
      },
      {
        "type": "note_on",
        "time": 29,
        "note": 55,
        "velocity": 0,
        "channel": 9
      },
      {
        "type": "note_on",
        "time": 0,
        "note": 40,
        "velocity": 0,
        "channel": 9
      },
      {
        "type": "note_on",
        "time": 31,
        "note": 54,
        "velocity": 100,
        "channel": 9
      },
      {
        "type": "note_on",
        "time": 0,
        "note": 36,
        "velocity": 100,
        "channel": 9
      },
      {
        "type": "note_on",
        "time": 29,
        "note": 54,
        "velocity": 0,
        "channel": 9
      },
      {
        "type": "note_on",
        "time": 0,
        "note": 36,
        "velocity": 0,
        "channel": 9
      },
      {
        "type": "note_on",
        "time": 1,
        "note": 43,
        "velocity": 100,
        "channel": 9
      },
      {
        "type": "note_on",
        "time": 0,
        "note": 54,
        "velocity": 100,
        "channel": 9
      },
      {
        "type": "note_on",
        "time": 29,
        "note": 43,
        "velocity": 0,
        "channel": 9
      },
      {
        "type": "note_on",
        "time": 0,
        "note": 54,
        "velocity": 0,
        "channel": 9
      },
      {
        "type": "note_on",
        "time": 1,
        "note": 36,
        "velocity": 100,
        "channel": 9
      },
      {
        "type": "note_on",
        "time": 0,
        "note": 54,
        "velocity": 100,
        "channel": 9
      },
      {
        "type": "note_on",
        "time": 29,
        "note": 36,
        "velocity": 0,
        "channel": 9
      },
      {
        "type": "note_on",
        "time": 0,
        "note": 54,
        "velocity": 0,
        "channel": 9
      },
      {
        "type": "note_on",
        "time": 1,
        "note": 36,
        "velocity": 100,
        "channel": 9
      },
      {
        "type": "note_on",
        "time": 0,
        "note": 54,
        "velocity": 100,
        "channel": 9
      },
      {
        "type": "note_on",
        "time": 29,
        "note": 36,
        "velocity": 0,
        "channel": 9
      },
      {
        "type": "note_on",
        "time": 0,
        "note": 54,
        "velocity": 0,
        "channel": 9
      },
      {
        "type": "note_on",
        "time": 1,
        "note": 54,
        "velocity": 100,
        "channel": 9
      },
      {
        "type": "note_on",
        "time": 0,
        "note": 36,
        "velocity": 100,
        "channel": 9
      },
      {
        "type": "note_on",
        "time": 29,
        "note": 54,
        "velocity": 0,
        "channel": 9
      },
      {
        "type": "note_on",
        "time": 0,
        "note": 36,
        "velocity": 0,
        "channel": 9
      },
      {
        "type": "note_on",
        "time": 31,
        "note": 40,
        "velocity": 100,
        "channel": 9
      },
      {
        "type": "note_on",
        "time": 0,
        "note": 55,
        "velocity": 100,
        "channel": 9
      },
      {
        "type": "note_on",
        "time": 29,
        "note": 40,
        "velocity": 0,
        "channel": 9
      },
      {
        "type": "note_on",
        "time": 0,
        "note": 55,
        "velocity": 0,
        "channel": 9
      },
      {
        "type": "note_on",
        "time": 91,
        "note": 36,
        "velocity": 100,
        "channel": 9
      },
      {
        "type": "note_on",
        "time": 0,
        "note": 54,
        "velocity": 100,
        "channel": 9
      },
      {
        "type": "note_on",
        "time": 29,
        "note": 36,
        "velocity": 0,
        "channel": 9
      },
      {
        "type": "note_on",
        "time": 0,
        "note": 54,
        "velocity": 0,
        "channel": 9
      },
      {
        "type": "note_on",
        "time": 1,
        "note": 54,
        "velocity": 100,
        "channel": 9
      },
      {
        "type": "note_on",
        "time": 0,
        "note": 36,
        "velocity": 100,
        "channel": 9
      },
      {
        "type": "note_on",
        "time": 29,
        "note": 54,
        "velocity": 0,
        "channel": 9
      },
      {
        "type": "note_on",
        "time": 0,
        "note": 36,
        "velocity": 0,
        "channel": 9
      },
      {
        "type": "note_on",
        "time": 1,
        "note": 36,
        "velocity": 100,
        "channel": 9
      },
      {
        "type": "note_on",
        "time": 0,
        "note": 54,
        "velocity": 100,
        "channel": 9
      },
      {
        "type": "note_on",
        "time": 29,
        "note": 36,
        "velocity": 0,
        "channel": 9
      },
      {
        "type": "note_on",
        "time": 0,
        "note": 54,
        "velocity": 0,
        "channel": 9
      },
      {
        "type": "note_on",
        "time": 31,
        "note": 40,
        "velocity": 100,
        "channel": 9
      },
      {
        "type": "note_on",
        "time": 0,
        "note": 55,
        "velocity": 100,
        "channel": 9
      },
      {
        "type": "note_on",
        "time": 29,
        "note": 40,
        "velocity": 0,
        "channel": 9
      },
      {
        "type": "note_on",
        "time": 0,
        "note": 55,
        "velocity": 0,
        "channel": 9
      },
      {
        "type": "note_on",
        "time": 91,
        "note": 54,
        "velocity": 100,
        "channel": 9
      },
      {
        "type": "note_on",
        "time": 0,
        "note": 36,
        "velocity": 100,
        "channel": 9
      },
      {
        "type": "note_on",
        "time": 29,
        "note": 54,
        "velocity": 0,
        "channel": 9
      },
      {
        "type": "note_on",
        "time": 0,
        "note": 36,
        "velocity": 0,
        "channel": 9
      },
      {
        "type": "note_on",
        "time": 1,
        "note": 54,
        "velocity": 100,
        "channel": 9
      },
      {
        "type": "note_on",
        "time": 0,
        "note": 36,
        "velocity": 100,
        "channel": 9
      },
      {
        "type": "note_on",
        "time": 29,
        "note": 54,
        "velocity": 0,
        "channel": 9
      },
      {
        "type": "note_on",
        "time": 0,
        "note": 36,
        "velocity": 0,
        "channel": 9
      },
      {
        "type": "note_on",
        "time": 1,
        "note": 36,
        "velocity": 100,
        "channel": 9
      },
      {
        "type": "note_on",
        "time": 0,
        "note": 54,
        "velocity": 100,
        "channel": 9
      },
      {
        "type": "note_on",
        "time": 29,
        "note": 36,
        "velocity": 0,
        "channel": 9
      },
      {
        "type": "note_on",
        "time": 0,
        "note": 54,
        "velocity": 0,
        "channel": 9
      },
      {
        "type": "note_on",
        "time": 31,
        "note": 40,
        "velocity": 100,
        "channel": 9
      },
      {
        "type": "note_on",
        "time": 0,
        "note": 55,
        "velocity": 100,
        "channel": 9
      },
      {
        "type": "note_on",
        "time": 29,
        "note": 40,
        "velocity": 0,
        "channel": 9
      },
      {
        "type": "note_on",
        "time": 0,
        "note": 55,
        "velocity": 0,
        "channel": 9
      },
      {
        "type": "note_on",
        "time": 91,
        "note": 36,
        "velocity": 100,
        "channel": 9
      },
      {
        "type": "note_on",
        "time": 0,
        "note": 54,
        "velocity": 100,
        "channel": 9
      },
      {
        "type": "note_on",
        "time": 29,
        "note": 36,
        "velocity": 0,
        "channel": 9
      },
      {
        "type": "note_on",
        "time": 0,
        "note": 54,
        "velocity": 0,
        "channel": 9
      },
      {
        "type": "note_on",
        "time": 1,
        "note": 36,
        "velocity": 100,
        "channel": 9
      },
      {
        "type": "note_on",
        "time": 0,
        "note": 54,
        "velocity": 100,
        "channel": 9
      },
      {
        "type": "note_on",
        "time": 29,
        "note": 36,
        "velocity": 0,
        "channel": 9
      },
      {
        "type": "note_on",
        "time": 0,
        "note": 54,
        "velocity": 0,
        "channel": 9
      },
      {
        "type": "note_on",
        "time": 1,
        "note": 54,
        "velocity": 100,
        "channel": 9
      },
      {
        "type": "note_on",
        "time": 0,
        "note": 36,
        "velocity": 100,
        "channel": 9
      },
      {
        "type": "note_on",
        "time": 29,
        "note": 54,
        "velocity": 0,
        "channel": 9
      },
      {
        "type": "note_on",
        "time": 0,
        "note": 36,
        "velocity": 0,
        "channel": 9
      },
      {
        "type": "note_on",
        "time": 31,
        "note": 40,
        "velocity": 100,
        "channel": 9
      },
      {
        "type": "note_on",
        "time": 0,
        "note": 55,
        "velocity": 100,
        "channel": 9
      },
      {
        "type": "note_on",
        "time": 29,
        "note": 40,
        "velocity": 0,
        "channel": 9
      },
      {
        "type": "note_on",
        "time": 0,
        "note": 55,
        "velocity": 0,
        "channel": 9
      },
      {
        "type": "note_on",
        "time": 91,
        "note": 54,
        "velocity": 100,
        "channel": 9
      },
      {
        "type": "note_on",
        "time": 0,
        "note": 36,
        "velocity": 100,
        "channel": 9
      },
      {
        "type": "note_on",
        "time": 29,
        "note": 54,
        "velocity": 0,
        "channel": 9
      },
      {
        "type": "note_on",
        "time": 0,
        "note": 36,
        "velocity": 0,
        "channel": 9
      },
      {
        "type": "note_on",
        "time": 1,
        "note": 54,
        "velocity": 100,
        "channel": 9
      },
      {
        "type": "note_on",
        "time": 0,
        "note": 36,
        "velocity": 100,
        "channel": 9
      },
      {
        "type": "note_on",
        "time": 29,
        "note": 54,
        "velocity": 0,
        "channel": 9
      },
      {
        "type": "note_on",
        "time": 0,
        "note": 36,
        "velocity": 0,
        "channel": 9
      },
      {
        "type": "note_on",
        "time": 1,
        "note": 36,
        "velocity": 100,
        "channel": 9
      },
      {
        "type": "note_on",
        "time": 0,
        "note": 54,
        "velocity": 100,
        "channel": 9
      },
      {
        "type": "note_on",
        "time": 29,
        "note": 36,
        "velocity": 0,
        "channel": 9
      },
      {
        "type": "note_on",
        "time": 0,
        "note": 54,
        "velocity": 0,
        "channel": 9
      },
      {
        "type": "note_on",
        "time": 31,
        "note": 55,
        "velocity": 100,
        "channel": 9
      },
      {
        "type": "note_on",
        "time": 0,
        "note": 40,
        "velocity": 100,
        "channel": 9
      },
      {
        "type": "note_on",
        "time": 29,
        "note": 55,
        "velocity": 0,
        "channel": 9
      },
      {
        "type": "note_on",
        "time": 0,
        "note": 40,
        "velocity": 0,
        "channel": 9
      },
      {
        "type": "note_on",
        "time": 91,
        "note": 36,
        "velocity": 100,
        "channel": 9
      },
      {
        "type": "note_on",
        "time": 0,
        "note": 54,
        "velocity": 100,
        "channel": 9
      },
      {
        "type": "note_on",
        "time": 29,
        "note": 36,
        "velocity": 0,
        "channel": 9
      },
      {
        "type": "note_on",
        "time": 0,
        "note": 54,
        "velocity": 0,
        "channel": 9
      },
      {
        "type": "note_on",
        "time": 1,
        "note": 36,
        "velocity": 100,
        "channel": 9
      },
      {
        "type": "note_on",
        "time": 0,
        "note": 54,
        "velocity": 100,
        "channel": 9
      },
      {
        "type": "note_on",
        "time": 29,
        "note": 36,
        "velocity": 0,
        "channel": 9
      },
      {
        "type": "note_on",
        "time": 0,
        "note": 54,
        "velocity": 0,
        "channel": 9
      },
      {
        "type": "note_on",
        "time": 1,
        "note": 54,
        "velocity": 100,
        "channel": 9
      },
      {
        "type": "note_on",
        "time": 0,
        "note": 36,
        "velocity": 100,
        "channel": 9
      },
      {
        "type": "note_on",
        "time": 29,
        "note": 54,
        "velocity": 0,
        "channel": 9
      },
      {
        "type": "note_on",
        "time": 0,
        "note": 36,
        "velocity": 0,
        "channel": 9
      },
      {
        "type": "note_on",
        "time": 31,
        "note": 40,
        "velocity": 100,
        "channel": 9
      },
      {
        "type": "note_on",
        "time": 0,
        "note": 55,
        "velocity": 100,
        "channel": 9
      },
      {
        "type": "note_on",
        "time": 29,
        "note": 40,
        "velocity": 0,
        "channel": 9
      },
      {
        "type": "note_on",
        "time": 0,
        "note": 55,
        "velocity": 0,
        "channel": 9
      },
      {
        "type": "note_on",
        "time": 3991,
        "note": 43,
        "velocity": 100,
        "channel": 9
      },
      {
        "type": "note_on",
        "time": 59,
        "note": 43,
        "velocity": 0,
        "channel": 9
      },
      {
        "type": "note_on",
        "time": 31,
        "note": 43,
        "velocity": 100,
        "channel": 9
      },
      {
        "type": "note_on",
        "time": 59,
        "note": 43,
        "velocity": 0,
        "channel": 9
      },
      {
        "type": "note_on",
        "time": 31,
        "note": 43,
        "velocity": 100,
        "channel": 9
      },
      {
        "type": "note_on",
        "time": 59,
        "note": 43,
        "velocity": 0,
        "channel": 9
      },
      {
        "type": "note_on",
        "time": 1,
        "note": 40,
        "velocity": 100,
        "channel": 9
      },
      {
        "type": "note_on",
        "time": 29,
        "note": 40,
        "velocity": 0,
        "channel": 9
      },
      {
        "type": "note_on",
        "time": 1,
        "note": 36,
        "velocity": 100,
        "channel": 9
      },
      {
        "type": "note_on",
        "time": 14,
        "note": 36,
        "velocity": 0,
        "channel": 9
      },
      {
        "type": "note_on",
        "time": 1,
        "note": 36,
        "velocity": 100,
        "channel": 9
      },
      {
        "type": "note_on",
        "time": 14,
        "note": 36,
        "velocity": 0,
        "channel": 9
      },
      {
        "type": "note_on",
        "time": 1,
        "note": 36,
        "velocity": 100,
        "channel": 9
      },
      {
        "type": "note_on",
        "time": 29,
        "note": 36,
        "velocity": 0,
        "channel": 9
      },
      {
        "type": "note_on",
        "time": 1,
        "note": 35,
        "velocity": 100,
        "channel": 9
      },
      {
        "type": "note_on",
        "time": 29,
        "note": 35,
        "velocity": 0,
        "channel": 9
      },
      {
        "type": "note_on",
        "time": 1,
        "note": 35,
        "velocity": 100,
        "channel": 9
      },
      {
        "type": "note_on",
        "time": 29,
        "note": 35,
        "velocity": 0,
        "channel": 9
      },
      {
        "type": "note_on",
        "time": 31,
        "note": 57,
        "velocity": 100,
        "channel": 9
      },
      {
        "type": "note_on",
        "time": 0,
        "note": 44,
        "velocity": 100,
        "channel": 9
      },
      {
        "type": "note_on",
        "time": 29,
        "note": 44,
        "velocity": 0,
        "channel": 9
      },
      {
        "type": "note_on",
        "time": 1,
        "note": 44,
        "velocity": 100,
        "channel": 9
      },
      {
        "type": "note_on",
        "time": 29,
        "note": 44,
        "velocity": 0,
        "channel": 9
      },
      {
        "type": "note_on",
        "time": 1,
        "note": 44,
        "velocity": 100,
        "channel": 9
      },
      {
        "type": "note_on",
        "time": 29,
        "note": 44,
        "velocity": 0,
        "channel": 9
      },
      {
        "type": "note_on",
        "time": 1,
        "note": 44,
        "velocity": 100,
        "channel": 9
      },
      {
        "type": "note_on",
        "time": 29,
        "note": 57,
        "velocity": 0,
        "channel": 9
      },
      {
        "type": "note_on",
        "time": 0,
        "note": 44,
        "velocity": 0,
        "channel": 9
      },
      {
        "type": "note_on",
        "time": 1,
        "note": 40,
        "velocity": 100,
        "channel": 9
      },
      {
        "type": "note_on",
        "time": 0,
        "note": 44,
        "velocity": 100,
        "channel": 9
      },
      {
        "type": "note_on",
        "time": 29,
        "note": 44,
        "velocity": 0,
        "channel": 9
      },
      {
        "type": "note_on",
        "time": 1,
        "note": 44,
        "velocity": 100,
        "channel": 9
      },
      {
        "type": "note_on",
        "time": 29,
        "note": 40,
        "velocity": 0,
        "channel": 9
      },
      {
        "type": "note_on",
        "time": 0,
        "note": 44,
        "velocity": 0,
        "channel": 9
      },
      {
        "type": "note_on",
        "time": 1,
        "note": 44,
        "velocity": 100,
        "channel": 9
      },
      {
        "type": "note_on",
        "time": 29,
        "note": 44,
        "velocity": 0,
        "channel": 9
      },
      {
        "type": "note_on",
        "time": 1,
        "note": 44,
        "velocity": 100,
        "channel": 9
      },
      {
        "type": "note_on",
        "time": 29,
        "note": 44,
        "velocity": 0,
        "channel": 9
      },
      {
        "type": "note_on",
        "time": 1,
        "note": 44,
        "velocity": 100,
        "channel": 9
      },
      {
        "type": "note_on",
        "time": 29,
        "note": 44,
        "velocity": 0,
        "channel": 9
      },
      {
        "type": "note_on",
        "time": 1,
        "note": 44,
        "velocity": 100,
        "channel": 9
      },
      {
        "type": "note_on",
        "time": 29,
        "note": 44,
        "velocity": 0,
        "channel": 9
      },
      {
        "type": "note_on",
        "time": 1,
        "note": 44,
        "velocity": 100,
        "channel": 9
      },
      {
        "type": "note_on",
        "time": 29,
        "note": 44,
        "velocity": 0,
        "channel": 9
      },
      {
        "type": "note_on",
        "time": 1,
        "note": 44,
        "velocity": 100,
        "channel": 9
      },
      {
        "type": "note_on",
        "time": 29,
        "note": 44,
        "velocity": 0,
        "channel": 9
      },
      {
        "type": "note_on",
        "time": 1,
        "note": 40,
        "velocity": 100,
        "channel": 9
      },
      {
        "type": "note_on",
        "time": 0,
        "note": 44,
        "velocity": 100,
        "channel": 9
      },
      {
        "type": "note_on",
        "time": 29,
        "note": 44,
        "velocity": 0,
        "channel": 9
      },
      {
        "type": "note_on",
        "time": 1,
        "note": 44,
        "velocity": 100,
        "channel": 9
      },
      {
        "type": "note_on",
        "time": 29,
        "note": 40,
        "velocity": 0,
        "channel": 9
      },
      {
        "type": "note_on",
        "time": 0,
        "note": 44,
        "velocity": 0,
        "channel": 9
      },
      {
        "type": "note_on",
        "time": 1,
        "note": 44,
        "velocity": 100,
        "channel": 9
      },
      {
        "type": "note_on",
        "time": 29,
        "note": 44,
        "velocity": 0,
        "channel": 9
      },
      {
        "type": "note_on",
        "time": 1,
        "note": 44,
        "velocity": 100,
        "channel": 9
      },
      {
        "type": "note_on",
        "time": 29,
        "note": 44,
        "velocity": 0,
        "channel": 9
      },
      {
        "type": "note_on",
        "time": 1,
        "note": 44,
        "velocity": 100,
        "channel": 9
      },
      {
        "type": "note_on",
        "time": 29,
        "note": 44,
        "velocity": 0,
        "channel": 9
      },
      {
        "type": "note_on",
        "time": 1,
        "note": 44,
        "velocity": 100,
        "channel": 9
      },
      {
        "type": "note_on",
        "time": 29,
        "note": 44,
        "velocity": 0,
        "channel": 9
      },
      {
        "type": "note_on",
        "time": 1,
        "note": 44,
        "velocity": 100,
        "channel": 9
      },
      {
        "type": "note_on",
        "time": 29,
        "note": 44,
        "velocity": 0,
        "channel": 9
      },
      {
        "type": "note_on",
        "time": 1,
        "note": 44,
        "velocity": 100,
        "channel": 9
      },
      {
        "type": "note_on",
        "time": 29,
        "note": 44,
        "velocity": 0,
        "channel": 9
      },
      {
        "type": "note_on",
        "time": 1,
        "note": 40,
        "velocity": 100,
        "channel": 9
      },
      {
        "type": "note_on",
        "time": 0,
        "note": 44,
        "velocity": 100,
        "channel": 9
      },
      {
        "type": "note_on",
        "time": 29,
        "note": 44,
        "velocity": 0,
        "channel": 9
      },
      {
        "type": "note_on",
        "time": 1,
        "note": 44,
        "velocity": 100,
        "channel": 9
      },
      {
        "type": "note_on",
        "time": 29,
        "note": 40,
        "velocity": 0,
        "channel": 9
      },
      {
        "type": "note_on",
        "time": 0,
        "note": 44,
        "velocity": 0,
        "channel": 9
      },
      {
        "type": "note_on",
        "time": 1,
        "note": 44,
        "velocity": 100,
        "channel": 9
      },
      {
        "type": "note_on",
        "time": 29,
        "note": 44,
        "velocity": 0,
        "channel": 9
      },
      {
        "type": "note_on",
        "time": 1,
        "note": 44,
        "velocity": 100,
        "channel": 9
      },
      {
        "type": "note_on",
        "time": 29,
        "note": 44,
        "velocity": 0,
        "channel": 9
      },
      {
        "type": "note_on",
        "time": 1,
        "note": 44,
        "velocity": 100,
        "channel": 9
      },
      {
        "type": "note_on",
        "time": 29,
        "note": 44,
        "velocity": 0,
        "channel": 9
      },
      {
        "type": "note_on",
        "time": 1,
        "note": 44,
        "velocity": 100,
        "channel": 9
      },
      {
        "type": "note_on",
        "time": 29,
        "note": 44,
        "velocity": 0,
        "channel": 9
      },
      {
        "type": "note_on",
        "time": 1,
        "note": 44,
        "velocity": 100,
        "channel": 9
      },
      {
        "type": "note_on",
        "time": 29,
        "note": 44,
        "velocity": 0,
        "channel": 9
      },
      {
        "type": "note_on",
        "time": 1,
        "note": 44,
        "velocity": 100,
        "channel": 9
      },
      {
        "type": "note_on",
        "time": 29,
        "note": 44,
        "velocity": 0,
        "channel": 9
      },
      {
        "type": "note_on",
        "time": 1,
        "note": 40,
        "velocity": 100,
        "channel": 9
      },
      {
        "type": "note_on",
        "time": 0,
        "note": 44,
        "velocity": 100,
        "channel": 9
      },
      {
        "type": "note_on",
        "time": 29,
        "note": 44,
        "velocity": 0,
        "channel": 9
      },
      {
        "type": "note_on",
        "time": 1,
        "note": 44,
        "velocity": 100,
        "channel": 9
      },
      {
        "type": "note_on",
        "time": 29,
        "note": 40,
        "velocity": 0,
        "channel": 9
      },
      {
        "type": "note_on",
        "time": 0,
        "note": 44,
        "velocity": 0,
        "channel": 9
      },
      {
        "type": "note_on",
        "time": 1,
        "note": 44,
        "velocity": 100,
        "channel": 9
      },
      {
        "type": "note_on",
        "time": 29,
        "note": 44,
        "velocity": 0,
        "channel": 9
      },
      {
        "type": "note_on",
        "time": 1,
        "note": 44,
        "velocity": 100,
        "channel": 9
      },
      {
        "type": "note_on",
        "time": 29,
        "note": 44,
        "velocity": 0,
        "channel": 9
      },
      {
        "type": "note_on",
        "time": 1,
        "note": 44,
        "velocity": 100,
        "channel": 9
      },
      {
        "type": "note_on",
        "time": 29,
        "note": 44,
        "velocity": 0,
        "channel": 9
      },
      {
        "type": "note_on",
        "time": 1,
        "note": 44,
        "velocity": 100,
        "channel": 9
      },
      {
        "type": "note_on",
        "time": 29,
        "note": 44,
        "velocity": 0,
        "channel": 9
      },
      {
        "type": "note_on",
        "time": 1,
        "note": 44,
        "velocity": 100,
        "channel": 9
      },
      {
        "type": "note_on",
        "time": 29,
        "note": 44,
        "velocity": 0,
        "channel": 9
      },
      {
        "type": "note_on",
        "time": 1,
        "note": 44,
        "velocity": 100,
        "channel": 9
      },
      {
        "type": "note_on",
        "time": 29,
        "note": 44,
        "velocity": 0,
        "channel": 9
      },
      {
        "type": "note_on",
        "time": 1,
        "note": 40,
        "velocity": 100,
        "channel": 9
      },
      {
        "type": "note_on",
        "time": 0,
        "note": 44,
        "velocity": 100,
        "channel": 9
      },
      {
        "type": "note_on",
        "time": 29,
        "note": 44,
        "velocity": 0,
        "channel": 9
      },
      {
        "type": "note_on",
        "time": 1,
        "note": 44,
        "velocity": 100,
        "channel": 9
      },
      {
        "type": "note_on",
        "time": 29,
        "note": 40,
        "velocity": 0,
        "channel": 9
      },
      {
        "type": "note_on",
        "time": 0,
        "note": 44,
        "velocity": 0,
        "channel": 9
      },
      {
        "type": "note_on",
        "time": 1,
        "note": 44,
        "velocity": 100,
        "channel": 9
      },
      {
        "type": "note_on",
        "time": 29,
        "note": 44,
        "velocity": 0,
        "channel": 9
      },
      {
        "type": "note_on",
        "time": 1,
        "note": 44,
        "velocity": 100,
        "channel": 9
      },
      {
        "type": "note_on",
        "time": 29,
        "note": 44,
        "velocity": 0,
        "channel": 9
      },
      {
        "type": "note_on",
        "time": 1,
        "note": 44,
        "velocity": 100,
        "channel": 9
      },
      {
        "type": "note_on",
        "time": 29,
        "note": 44,
        "velocity": 0,
        "channel": 9
      },
      {
        "type": "note_on",
        "time": 1,
        "note": 44,
        "velocity": 100,
        "channel": 9
      },
      {
        "type": "note_on",
        "time": 29,
        "note": 44,
        "velocity": 0,
        "channel": 9
      },
      {
        "type": "note_on",
        "time": 1,
        "note": 44,
        "velocity": 100,
        "channel": 9
      },
      {
        "type": "note_on",
        "time": 29,
        "note": 44,
        "velocity": 0,
        "channel": 9
      },
      {
        "type": "note_on",
        "time": 1,
        "note": 44,
        "velocity": 100,
        "channel": 9
      },
      {
        "type": "note_on",
        "time": 29,
        "note": 44,
        "velocity": 0,
        "channel": 9
      },
      {
        "type": "note_on",
        "time": 1,
        "note": 40,
        "velocity": 100,
        "channel": 9
      },
      {
        "type": "note_on",
        "time": 0,
        "note": 44,
        "velocity": 100,
        "channel": 9
      },
      {
        "type": "note_on",
        "time": 29,
        "note": 44,
        "velocity": 0,
        "channel": 9
      },
      {
        "type": "note_on",
        "time": 1,
        "note": 44,
        "velocity": 100,
        "channel": 9
      },
      {
        "type": "note_on",
        "time": 29,
        "note": 40,
        "velocity": 0,
        "channel": 9
      },
      {
        "type": "note_on",
        "time": 0,
        "note": 44,
        "velocity": 0,
        "channel": 9
      },
      {
        "type": "note_on",
        "time": 1,
        "note": 44,
        "velocity": 100,
        "channel": 9
      },
      {
        "type": "note_on",
        "time": 29,
        "note": 44,
        "velocity": 0,
        "channel": 9
      },
      {
        "type": "note_on",
        "time": 1,
        "note": 44,
        "velocity": 100,
        "channel": 9
      },
      {
        "type": "note_on",
        "time": 29,
        "note": 44,
        "velocity": 0,
        "channel": 9
      },
      {
        "type": "note_on",
        "time": 1,
        "note": 44,
        "velocity": 100,
        "channel": 9
      },
      {
        "type": "note_on",
        "time": 29,
        "note": 44,
        "velocity": 0,
        "channel": 9
      },
      {
        "type": "note_on",
        "time": 1,
        "note": 44,
        "velocity": 100,
        "channel": 9
      },
      {
        "type": "note_on",
        "time": 29,
        "note": 44,
        "velocity": 0,
        "channel": 9
      },
      {
        "type": "note_on",
        "time": 1,
        "note": 44,
        "velocity": 100,
        "channel": 9
      },
      {
        "type": "note_on",
        "time": 29,
        "note": 44,
        "velocity": 0,
        "channel": 9
      },
      {
        "type": "note_on",
        "time": 1,
        "note": 44,
        "velocity": 100,
        "channel": 9
      },
      {
        "type": "note_on",
        "time": 29,
        "note": 44,
        "velocity": 0,
        "channel": 9
      },
      {
        "type": "note_on",
        "time": 1,
        "note": 40,
        "velocity": 100,
        "channel": 9
      },
      {
        "type": "note_on",
        "time": 0,
        "note": 44,
        "velocity": 100,
        "channel": 9
      },
      {
        "type": "note_on",
        "time": 29,
        "note": 44,
        "velocity": 0,
        "channel": 9
      },
      {
        "type": "note_on",
        "time": 1,
        "note": 44,
        "velocity": 100,
        "channel": 9
      },
      {
        "type": "note_on",
        "time": 29,
        "note": 40,
        "velocity": 0,
        "channel": 9
      },
      {
        "type": "note_on",
        "time": 0,
        "note": 44,
        "velocity": 0,
        "channel": 9
      },
      {
        "type": "note_on",
        "time": 1,
        "note": 44,
        "velocity": 100,
        "channel": 9
      },
      {
        "type": "note_on",
        "time": 29,
        "note": 44,
        "velocity": 0,
        "channel": 9
      },
      {
        "type": "note_on",
        "time": 1,
        "note": 44,
        "velocity": 100,
        "channel": 9
      },
      {
        "type": "note_on",
        "time": 29,
        "note": 44,
        "velocity": 0,
        "channel": 9
      },
      {
        "type": "note_on",
        "time": 1,
        "note": 44,
        "velocity": 100,
        "channel": 9
      },
      {
        "type": "note_on",
        "time": 29,
        "note": 44,
        "velocity": 0,
        "channel": 9
      },
      {
        "type": "note_on",
        "time": 1,
        "note": 44,
        "velocity": 100,
        "channel": 9
      },
      {
        "type": "note_on",
        "time": 29,
        "note": 44,
        "velocity": 0,
        "channel": 9
      },
      {
        "type": "note_on",
        "time": 1,
        "note": 44,
        "velocity": 100,
        "channel": 9
      },
      {
        "type": "note_on",
        "time": 29,
        "note": 44,
        "velocity": 0,
        "channel": 9
      },
      {
        "type": "note_on",
        "time": 1,
        "note": 44,
        "velocity": 100,
        "channel": 9
      },
      {
        "type": "note_on",
        "time": 29,
        "note": 44,
        "velocity": 0,
        "channel": 9
      },
      {
        "type": "note_on",
        "time": 1,
        "note": 40,
        "velocity": 100,
        "channel": 9
      },
      {
        "type": "note_on",
        "time": 0,
        "note": 44,
        "velocity": 100,
        "channel": 9
      },
      {
        "type": "note_on",
        "time": 29,
        "note": 44,
        "velocity": 0,
        "channel": 9
      },
      {
        "type": "note_on",
        "time": 1,
        "note": 44,
        "velocity": 100,
        "channel": 9
      },
      {
        "type": "note_on",
        "time": 29,
        "note": 40,
        "velocity": 0,
        "channel": 9
      },
      {
        "type": "note_on",
        "time": 0,
        "note": 44,
        "velocity": 0,
        "channel": 9
      },
      {
        "type": "note_on",
        "time": 1,
        "note": 44,
        "velocity": 100,
        "channel": 9
      },
      {
        "type": "note_on",
        "time": 29,
        "note": 44,
        "velocity": 0,
        "channel": 9
      },
      {
        "type": "note_on",
        "time": 1,
        "note": 44,
        "velocity": 100,
        "channel": 9
      },
      {
        "type": "note_on",
        "time": 29,
        "note": 44,
        "velocity": 0,
        "channel": 9
      },
      {
        "type": "note_on",
        "time": 1,
        "note": 44,
        "velocity": 100,
        "channel": 9
      },
      {
        "type": "note_on",
        "time": 29,
        "note": 44,
        "velocity": 0,
        "channel": 9
      },
      {
        "type": "note_on",
        "time": 1,
        "note": 44,
        "velocity": 100,
        "channel": 9
      },
      {
        "type": "note_on",
        "time": 29,
        "note": 44,
        "velocity": 0,
        "channel": 9
      },
      {
        "type": "note_on",
        "time": 1,
        "note": 44,
        "velocity": 100,
        "channel": 9
      },
      {
        "type": "note_on",
        "time": 29,
        "note": 44,
        "velocity": 0,
        "channel": 9
      },
      {
        "type": "note_on",
        "time": 1,
        "note": 44,
        "velocity": 100,
        "channel": 9
      },
      {
        "type": "note_on",
        "time": 29,
        "note": 44,
        "velocity": 0,
        "channel": 9
      },
      {
        "type": "note_on",
        "time": 1,
        "note": 40,
        "velocity": 100,
        "channel": 9
      },
      {
        "type": "note_on",
        "time": 0,
        "note": 44,
        "velocity": 100,
        "channel": 9
      },
      {
        "type": "note_on",
        "time": 29,
        "note": 44,
        "velocity": 0,
        "channel": 9
      },
      {
        "type": "note_on",
        "time": 1,
        "note": 44,
        "velocity": 100,
        "channel": 9
      },
      {
        "type": "note_on",
        "time": 29,
        "note": 40,
        "velocity": 0,
        "channel": 9
      },
      {
        "type": "note_on",
        "time": 0,
        "note": 44,
        "velocity": 0,
        "channel": 9
      },
      {
        "type": "note_on",
        "time": 1,
        "note": 44,
        "velocity": 100,
        "channel": 9
      },
      {
        "type": "note_on",
        "time": 29,
        "note": 44,
        "velocity": 0,
        "channel": 9
      },
      {
        "type": "note_on",
        "time": 1,
        "note": 44,
        "velocity": 100,
        "channel": 9
      },
      {
        "type": "note_on",
        "time": 29,
        "note": 44,
        "velocity": 0,
        "channel": 9
      },
      {
        "type": "note_on",
        "time": 1,
        "note": 44,
        "velocity": 100,
        "channel": 9
      },
      {
        "type": "note_on",
        "time": 29,
        "note": 44,
        "velocity": 0,
        "channel": 9
      },
      {
        "type": "note_on",
        "time": 1,
        "note": 44,
        "velocity": 100,
        "channel": 9
      },
      {
        "type": "note_on",
        "time": 29,
        "note": 44,
        "velocity": 0,
        "channel": 9
      },
      {
        "type": "note_on",
        "time": 1,
        "note": 44,
        "velocity": 100,
        "channel": 9
      },
      {
        "type": "note_on",
        "time": 29,
        "note": 44,
        "velocity": 0,
        "channel": 9
      },
      {
        "type": "note_on",
        "time": 1,
        "note": 44,
        "velocity": 100,
        "channel": 9
      },
      {
        "type": "note_on",
        "time": 29,
        "note": 44,
        "velocity": 0,
        "channel": 9
      },
      {
        "type": "note_on",
        "time": 1,
        "note": 40,
        "velocity": 100,
        "channel": 9
      },
      {
        "type": "note_on",
        "time": 0,
        "note": 44,
        "velocity": 100,
        "channel": 9
      },
      {
        "type": "note_on",
        "time": 29,
        "note": 44,
        "velocity": 0,
        "channel": 9
      },
      {
        "type": "note_on",
        "time": 1,
        "note": 44,
        "velocity": 100,
        "channel": 9
      },
      {
        "type": "note_on",
        "time": 29,
        "note": 40,
        "velocity": 0,
        "channel": 9
      },
      {
        "type": "note_on",
        "time": 0,
        "note": 44,
        "velocity": 0,
        "channel": 9
      },
      {
        "type": "note_on",
        "time": 1,
        "note": 44,
        "velocity": 100,
        "channel": 9
      },
      {
        "type": "note_on",
        "time": 29,
        "note": 44,
        "velocity": 0,
        "channel": 9
      },
      {
        "type": "note_on",
        "time": 1,
        "note": 44,
        "velocity": 100,
        "channel": 9
      },
      {
        "type": "note_on",
        "time": 29,
        "note": 44,
        "velocity": 0,
        "channel": 9
      },
      {
        "type": "note_on",
        "time": 1,
        "note": 44,
        "velocity": 100,
        "channel": 9
      },
      {
        "type": "note_on",
        "time": 29,
        "note": 44,
        "velocity": 0,
        "channel": 9
      },
      {
        "type": "note_on",
        "time": 1,
        "note": 44,
        "velocity": 100,
        "channel": 9
      },
      {
        "type": "note_on",
        "time": 29,
        "note": 44,
        "velocity": 0,
        "channel": 9
      },
      {
        "type": "note_on",
        "time": 1,
        "note": 44,
        "velocity": 100,
        "channel": 9
      },
      {
        "type": "note_on",
        "time": 29,
        "note": 44,
        "velocity": 0,
        "channel": 9
      },
      {
        "type": "note_on",
        "time": 1,
        "note": 44,
        "velocity": 100,
        "channel": 9
      },
      {
        "type": "note_on",
        "time": 29,
        "note": 44,
        "velocity": 0,
        "channel": 9
      },
      {
        "type": "note_on",
        "time": 1,
        "note": 40,
        "velocity": 100,
        "channel": 9
      },
      {
        "type": "note_on",
        "time": 0,
        "note": 44,
        "velocity": 100,
        "channel": 9
      },
      {
        "type": "note_on",
        "time": 29,
        "note": 44,
        "velocity": 0,
        "channel": 9
      },
      {
        "type": "note_on",
        "time": 1,
        "note": 44,
        "velocity": 100,
        "channel": 9
      },
      {
        "type": "note_on",
        "time": 29,
        "note": 40,
        "velocity": 0,
        "channel": 9
      },
      {
        "type": "note_on",
        "time": 0,
        "note": 44,
        "velocity": 0,
        "channel": 9
      },
      {
        "type": "note_on",
        "time": 1,
        "note": 44,
        "velocity": 100,
        "channel": 9
      },
      {
        "type": "note_on",
        "time": 29,
        "note": 44,
        "velocity": 0,
        "channel": 9
      },
      {
        "type": "note_on",
        "time": 1,
        "note": 44,
        "velocity": 100,
        "channel": 9
      },
      {
        "type": "note_on",
        "time": 29,
        "note": 44,
        "velocity": 0,
        "channel": 9
      },
      {
        "type": "note_on",
        "time": 1,
        "note": 44,
        "velocity": 100,
        "channel": 9
      },
      {
        "type": "note_on",
        "time": 29,
        "note": 44,
        "velocity": 0,
        "channel": 9
      },
      {
        "type": "note_on",
        "time": 1,
        "note": 44,
        "velocity": 100,
        "channel": 9
      },
      {
        "type": "note_on",
        "time": 29,
        "note": 44,
        "velocity": 0,
        "channel": 9
      },
      {
        "type": "note_on",
        "time": 1,
        "note": 44,
        "velocity": 100,
        "channel": 9
      },
      {
        "type": "note_on",
        "time": 29,
        "note": 44,
        "velocity": 0,
        "channel": 9
      },
      {
        "type": "note_on",
        "time": 1,
        "note": 44,
        "velocity": 100,
        "channel": 9
      },
      {
        "type": "note_on",
        "time": 29,
        "note": 44,
        "velocity": 0,
        "channel": 9
      },
      {
        "type": "note_on",
        "time": 1,
        "note": 40,
        "velocity": 100,
        "channel": 9
      },
      {
        "type": "note_on",
        "time": 0,
        "note": 44,
        "velocity": 100,
        "channel": 9
      },
      {
        "type": "note_on",
        "time": 29,
        "note": 44,
        "velocity": 0,
        "channel": 9
      },
      {
        "type": "note_on",
        "time": 1,
        "note": 44,
        "velocity": 100,
        "channel": 9
      },
      {
        "type": "note_on",
        "time": 29,
        "note": 40,
        "velocity": 0,
        "channel": 9
      },
      {
        "type": "note_on",
        "time": 0,
        "note": 44,
        "velocity": 0,
        "channel": 9
      },
      {
        "type": "note_on",
        "time": 1,
        "note": 44,
        "velocity": 100,
        "channel": 9
      },
      {
        "type": "note_on",
        "time": 29,
        "note": 44,
        "velocity": 0,
        "channel": 9
      },
      {
        "type": "note_on",
        "time": 1,
        "note": 44,
        "velocity": 100,
        "channel": 9
      },
      {
        "type": "note_on",
        "time": 29,
        "note": 44,
        "velocity": 0,
        "channel": 9
      },
      {
        "type": "note_on",
        "time": 1,
        "note": 44,
        "velocity": 100,
        "channel": 9
      },
      {
        "type": "note_on",
        "time": 29,
        "note": 44,
        "velocity": 0,
        "channel": 9
      },
      {
        "type": "note_on",
        "time": 1,
        "note": 44,
        "velocity": 100,
        "channel": 9
      },
      {
        "type": "note_on",
        "time": 29,
        "note": 44,
        "velocity": 0,
        "channel": 9
      },
      {
        "type": "note_on",
        "time": 1,
        "note": 44,
        "velocity": 100,
        "channel": 9
      },
      {
        "type": "note_on",
        "time": 29,
        "note": 44,
        "velocity": 0,
        "channel": 9
      },
      {
        "type": "note_on",
        "time": 1,
        "note": 44,
        "velocity": 100,
        "channel": 9
      },
      {
        "type": "note_on",
        "time": 29,
        "note": 44,
        "velocity": 0,
        "channel": 9
      },
      {
        "type": "note_on",
        "time": 1,
        "note": 40,
        "velocity": 100,
        "channel": 9
      },
      {
        "type": "note_on",
        "time": 0,
        "note": 44,
        "velocity": 100,
        "channel": 9
      },
      {
        "type": "note_on",
        "time": 29,
        "note": 44,
        "velocity": 0,
        "channel": 9
      },
      {
        "type": "note_on",
        "time": 1,
        "note": 44,
        "velocity": 100,
        "channel": 9
      },
      {
        "type": "note_on",
        "time": 29,
        "note": 40,
        "velocity": 0,
        "channel": 9
      },
      {
        "type": "note_on",
        "time": 0,
        "note": 44,
        "velocity": 0,
        "channel": 9
      },
      {
        "type": "note_on",
        "time": 1,
        "note": 44,
        "velocity": 100,
        "channel": 9
      },
      {
        "type": "note_on",
        "time": 29,
        "note": 44,
        "velocity": 0,
        "channel": 9
      },
      {
        "type": "note_on",
        "time": 1,
        "note": 44,
        "velocity": 100,
        "channel": 9
      },
      {
        "type": "note_on",
        "time": 29,
        "note": 44,
        "velocity": 0,
        "channel": 9
      },
      {
        "type": "note_on",
        "time": 1,
        "note": 44,
        "velocity": 100,
        "channel": 9
      },
      {
        "type": "note_on",
        "time": 29,
        "note": 44,
        "velocity": 0,
        "channel": 9
      },
      {
        "type": "note_on",
        "time": 1,
        "note": 44,
        "velocity": 100,
        "channel": 9
      },
      {
        "type": "note_on",
        "time": 29,
        "note": 44,
        "velocity": 0,
        "channel": 9
      },
      {
        "type": "note_on",
        "time": 1,
        "note": 44,
        "velocity": 100,
        "channel": 9
      },
      {
        "type": "note_on",
        "time": 29,
        "note": 44,
        "velocity": 0,
        "channel": 9
      },
      {
        "type": "note_on",
        "time": 1,
        "note": 44,
        "velocity": 100,
        "channel": 9
      },
      {
        "type": "note_on",
        "time": 29,
        "note": 44,
        "velocity": 0,
        "channel": 9
      },
      {
        "type": "note_on",
        "time": 1,
        "note": 40,
        "velocity": 100,
        "channel": 9
      },
      {
        "type": "note_on",
        "time": 0,
        "note": 44,
        "velocity": 100,
        "channel": 9
      },
      {
        "type": "note_on",
        "time": 29,
        "note": 44,
        "velocity": 0,
        "channel": 9
      },
      {
        "type": "note_on",
        "time": 1,
        "note": 44,
        "velocity": 100,
        "channel": 9
      },
      {
        "type": "note_on",
        "time": 29,
        "note": 40,
        "velocity": 0,
        "channel": 9
      },
      {
        "type": "note_on",
        "time": 0,
        "note": 44,
        "velocity": 0,
        "channel": 9
      },
      {
        "type": "note_on",
        "time": 1,
        "note": 44,
        "velocity": 100,
        "channel": 9
      },
      {
        "type": "note_on",
        "time": 29,
        "note": 44,
        "velocity": 0,
        "channel": 9
      },
      {
        "type": "note_on",
        "time": 1,
        "note": 44,
        "velocity": 100,
        "channel": 9
      },
      {
        "type": "note_on",
        "time": 29,
        "note": 44,
        "velocity": 0,
        "channel": 9
      },
      {
        "type": "note_on",
        "time": 1,
        "note": 44,
        "velocity": 100,
        "channel": 9
      },
      {
        "type": "note_on",
        "time": 29,
        "note": 44,
        "velocity": 0,
        "channel": 9
      },
      {
        "type": "note_on",
        "time": 1,
        "note": 44,
        "velocity": 100,
        "channel": 9
      },
      {
        "type": "note_on",
        "time": 29,
        "note": 44,
        "velocity": 0,
        "channel": 9
      },
      {
        "type": "note_on",
        "time": 1,
        "note": 44,
        "velocity": 100,
        "channel": 9
      },
      {
        "type": "note_on",
        "time": 29,
        "note": 44,
        "velocity": 0,
        "channel": 9
      },
      {
        "type": "note_on",
        "time": 1,
        "note": 44,
        "velocity": 100,
        "channel": 9
      },
      {
        "type": "note_on",
        "time": 29,
        "note": 44,
        "velocity": 0,
        "channel": 9
      },
      {
        "type": "note_on",
        "time": 1,
        "note": 40,
        "velocity": 100,
        "channel": 9
      },
      {
        "type": "note_on",
        "time": 0,
        "note": 44,
        "velocity": 100,
        "channel": 9
      },
      {
        "type": "note_on",
        "time": 29,
        "note": 44,
        "velocity": 0,
        "channel": 9
      },
      {
        "type": "note_on",
        "time": 1,
        "note": 44,
        "velocity": 100,
        "channel": 9
      },
      {
        "type": "note_on",
        "time": 29,
        "note": 40,
        "velocity": 0,
        "channel": 9
      },
      {
        "type": "note_on",
        "time": 0,
        "note": 44,
        "velocity": 0,
        "channel": 9
      },
      {
        "type": "note_on",
        "time": 1,
        "note": 44,
        "velocity": 100,
        "channel": 9
      },
      {
        "type": "note_on",
        "time": 29,
        "note": 44,
        "velocity": 0,
        "channel": 9
      },
      {
        "type": "note_on",
        "time": 1,
        "note": 44,
        "velocity": 100,
        "channel": 9
      },
      {
        "type": "note_on",
        "time": 29,
        "note": 44,
        "velocity": 0,
        "channel": 9
      },
      {
        "type": "note_on",
        "time": 1,
        "note": 40,
        "velocity": 100,
        "channel": 9
      },
      {
        "type": "note_on",
        "time": 0,
        "note": 44,
        "velocity": 100,
        "channel": 9
      },
      {
        "type": "note_on",
        "time": 29,
        "note": 40,
        "velocity": 0,
        "channel": 9
      },
      {
        "type": "note_on",
        "time": 0,
        "note": 44,
        "velocity": 0,
        "channel": 9
      },
      {
        "type": "note_on",
        "time": 1,
        "note": 40,
        "velocity": 100,
        "channel": 9
      },
      {
        "type": "note_on",
        "time": 0,
        "note": 44,
        "velocity": 100,
        "channel": 9
      },
      {
        "type": "note_on",
        "time": 29,
        "note": 40,
        "velocity": 0,
        "channel": 9
      },
      {
        "type": "note_on",
        "time": 0,
        "note": 44,
        "velocity": 0,
        "channel": 9
      },
      {
        "type": "note_on",
        "time": 1,
        "note": 40,
        "velocity": 100,
        "channel": 9
      },
      {
        "type": "note_on",
        "time": 0,
        "note": 44,
        "velocity": 100,
        "channel": 9
      },
      {
        "type": "note_on",
        "time": 59,
        "note": 40,
        "velocity": 0,
        "channel": 9
      },
      {
        "type": "note_on",
        "time": 0,
        "note": 44,
        "velocity": 0,
        "channel": 9
      },
      {
        "type": "note_on",
        "time": 121,
        "note": 57,
        "velocity": 100,
        "channel": 9
      },
      {
        "type": "note_on",
        "time": 0,
        "note": 44,
        "velocity": 100,
        "channel": 9
      },
      {
        "type": "note_on",
        "time": 29,
        "note": 44,
        "velocity": 0,
        "channel": 9
      },
      {
        "type": "note_on",
        "time": 1,
        "note": 44,
        "velocity": 100,
        "channel": 9
      },
      {
        "type": "note_on",
        "time": 29,
        "note": 44,
        "velocity": 0,
        "channel": 9
      },
      {
        "type": "note_on",
        "time": 1,
        "note": 44,
        "velocity": 100,
        "channel": 9
      },
      {
        "type": "note_on",
        "time": 29,
        "note": 44,
        "velocity": 0,
        "channel": 9
      },
      {
        "type": "note_on",
        "time": 1,
        "note": 44,
        "velocity": 100,
        "channel": 9
      },
      {
        "type": "note_on",
        "time": 29,
        "note": 57,
        "velocity": 0,
        "channel": 9
      },
      {
        "type": "note_on",
        "time": 0,
        "note": 44,
        "velocity": 0,
        "channel": 9
      },
      {
        "type": "note_on",
        "time": 1,
        "note": 40,
        "velocity": 100,
        "channel": 9
      },
      {
        "type": "note_on",
        "time": 0,
        "note": 44,
        "velocity": 100,
        "channel": 9
      },
      {
        "type": "note_on",
        "time": 29,
        "note": 44,
        "velocity": 0,
        "channel": 9
      },
      {
        "type": "note_on",
        "time": 1,
        "note": 44,
        "velocity": 100,
        "channel": 9
      },
      {
        "type": "note_on",
        "time": 29,
        "note": 40,
        "velocity": 0,
        "channel": 9
      },
      {
        "type": "note_on",
        "time": 0,
        "note": 44,
        "velocity": 0,
        "channel": 9
      },
      {
        "type": "note_on",
        "time": 1,
        "note": 44,
        "velocity": 100,
        "channel": 9
      },
      {
        "type": "note_on",
        "time": 29,
        "note": 44,
        "velocity": 0,
        "channel": 9
      },
      {
        "type": "note_on",
        "time": 1,
        "note": 44,
        "velocity": 100,
        "channel": 9
      },
      {
        "type": "note_on",
        "time": 29,
        "note": 44,
        "velocity": 0,
        "channel": 9
      },
      {
        "type": "note_on",
        "time": 1,
        "note": 44,
        "velocity": 100,
        "channel": 9
      },
      {
        "type": "note_on",
        "time": 29,
        "note": 44,
        "velocity": 0,
        "channel": 9
      },
      {
        "type": "note_on",
        "time": 1,
        "note": 44,
        "velocity": 100,
        "channel": 9
      },
      {
        "type": "note_on",
        "time": 29,
        "note": 44,
        "velocity": 0,
        "channel": 9
      },
      {
        "type": "note_on",
        "time": 1,
        "note": 44,
        "velocity": 100,
        "channel": 9
      },
      {
        "type": "note_on",
        "time": 29,
        "note": 44,
        "velocity": 0,
        "channel": 9
      },
      {
        "type": "note_on",
        "time": 1,
        "note": 44,
        "velocity": 100,
        "channel": 9
      },
      {
        "type": "note_on",
        "time": 29,
        "note": 44,
        "velocity": 0,
        "channel": 9
      },
      {
        "type": "note_on",
        "time": 1,
        "note": 40,
        "velocity": 100,
        "channel": 9
      },
      {
        "type": "note_on",
        "time": 0,
        "note": 44,
        "velocity": 100,
        "channel": 9
      },
      {
        "type": "note_on",
        "time": 29,
        "note": 44,
        "velocity": 0,
        "channel": 9
      },
      {
        "type": "note_on",
        "time": 1,
        "note": 44,
        "velocity": 100,
        "channel": 9
      },
      {
        "type": "note_on",
        "time": 29,
        "note": 40,
        "velocity": 0,
        "channel": 9
      },
      {
        "type": "note_on",
        "time": 0,
        "note": 44,
        "velocity": 0,
        "channel": 9
      },
      {
        "type": "note_on",
        "time": 1,
        "note": 44,
        "velocity": 100,
        "channel": 9
      },
      {
        "type": "note_on",
        "time": 29,
        "note": 44,
        "velocity": 0,
        "channel": 9
      },
      {
        "type": "note_on",
        "time": 1,
        "note": 44,
        "velocity": 100,
        "channel": 9
      },
      {
        "type": "note_on",
        "time": 29,
        "note": 44,
        "velocity": 0,
        "channel": 9
      },
      {
        "type": "note_on",
        "time": 1,
        "note": 44,
        "velocity": 100,
        "channel": 9
      },
      {
        "type": "note_on",
        "time": 29,
        "note": 44,
        "velocity": 0,
        "channel": 9
      },
      {
        "type": "note_on",
        "time": 1,
        "note": 44,
        "velocity": 100,
        "channel": 9
      },
      {
        "type": "note_on",
        "time": 29,
        "note": 44,
        "velocity": 0,
        "channel": 9
      },
      {
        "type": "note_on",
        "time": 1,
        "note": 44,
        "velocity": 100,
        "channel": 9
      },
      {
        "type": "note_on",
        "time": 29,
        "note": 44,
        "velocity": 0,
        "channel": 9
      },
      {
        "type": "note_on",
        "time": 1,
        "note": 44,
        "velocity": 100,
        "channel": 9
      },
      {
        "type": "note_on",
        "time": 29,
        "note": 44,
        "velocity": 0,
        "channel": 9
      },
      {
        "type": "note_on",
        "time": 1,
        "note": 40,
        "velocity": 100,
        "channel": 9
      },
      {
        "type": "note_on",
        "time": 0,
        "note": 44,
        "velocity": 100,
        "channel": 9
      },
      {
        "type": "note_on",
        "time": 29,
        "note": 44,
        "velocity": 0,
        "channel": 9
      },
      {
        "type": "note_on",
        "time": 1,
        "note": 44,
        "velocity": 100,
        "channel": 9
      },
      {
        "type": "note_on",
        "time": 29,
        "note": 40,
        "velocity": 0,
        "channel": 9
      },
      {
        "type": "note_on",
        "time": 0,
        "note": 44,
        "velocity": 0,
        "channel": 9
      },
      {
        "type": "note_on",
        "time": 1,
        "note": 44,
        "velocity": 100,
        "channel": 9
      },
      {
        "type": "note_on",
        "time": 29,
        "note": 44,
        "velocity": 0,
        "channel": 9
      },
      {
        "type": "note_on",
        "time": 1,
        "note": 44,
        "velocity": 100,
        "channel": 9
      },
      {
        "type": "note_on",
        "time": 29,
        "note": 44,
        "velocity": 0,
        "channel": 9
      },
      {
        "type": "note_on",
        "time": 1,
        "note": 44,
        "velocity": 100,
        "channel": 9
      },
      {
        "type": "note_on",
        "time": 29,
        "note": 44,
        "velocity": 0,
        "channel": 9
      },
      {
        "type": "note_on",
        "time": 1,
        "note": 44,
        "velocity": 100,
        "channel": 9
      },
      {
        "type": "note_on",
        "time": 29,
        "note": 44,
        "velocity": 0,
        "channel": 9
      },
      {
        "type": "note_on",
        "time": 1,
        "note": 44,
        "velocity": 100,
        "channel": 9
      },
      {
        "type": "note_on",
        "time": 29,
        "note": 44,
        "velocity": 0,
        "channel": 9
      },
      {
        "type": "note_on",
        "time": 1,
        "note": 44,
        "velocity": 100,
        "channel": 9
      },
      {
        "type": "note_on",
        "time": 29,
        "note": 44,
        "velocity": 0,
        "channel": 9
      },
      {
        "type": "note_on",
        "time": 1,
        "note": 40,
        "velocity": 100,
        "channel": 9
      },
      {
        "type": "note_on",
        "time": 0,
        "note": 44,
        "velocity": 100,
        "channel": 9
      },
      {
        "type": "note_on",
        "time": 29,
        "note": 44,
        "velocity": 0,
        "channel": 9
      },
      {
        "type": "note_on",
        "time": 1,
        "note": 44,
        "velocity": 100,
        "channel": 9
      },
      {
        "type": "note_on",
        "time": 29,
        "note": 40,
        "velocity": 0,
        "channel": 9
      },
      {
        "type": "note_on",
        "time": 0,
        "note": 44,
        "velocity": 0,
        "channel": 9
      },
      {
        "type": "note_on",
        "time": 1,
        "note": 44,
        "velocity": 100,
        "channel": 9
      },
      {
        "type": "note_on",
        "time": 29,
        "note": 44,
        "velocity": 0,
        "channel": 9
      },
      {
        "type": "note_on",
        "time": 1,
        "note": 44,
        "velocity": 100,
        "channel": 9
      },
      {
        "type": "note_on",
        "time": 29,
        "note": 44,
        "velocity": 0,
        "channel": 9
      },
      {
        "type": "note_on",
        "time": 1,
        "note": 44,
        "velocity": 100,
        "channel": 9
      },
      {
        "type": "note_on",
        "time": 0,
        "note": 57,
        "velocity": 100,
        "channel": 9
      },
      {
        "type": "note_on",
        "time": 29,
        "note": 44,
        "velocity": 0,
        "channel": 9
      },
      {
        "type": "note_on",
        "time": 1,
        "note": 44,
        "velocity": 100,
        "channel": 9
      },
      {
        "type": "note_on",
        "time": 29,
        "note": 44,
        "velocity": 0,
        "channel": 9
      },
      {
        "type": "note_on",
        "time": 1,
        "note": 44,
        "velocity": 100,
        "channel": 9
      },
      {
        "type": "note_on",
        "time": 29,
        "note": 44,
        "velocity": 0,
        "channel": 9
      },
      {
        "type": "note_on",
        "time": 1,
        "note": 44,
        "velocity": 100,
        "channel": 9
      },
      {
        "type": "note_on",
        "time": 29,
        "note": 57,
        "velocity": 0,
        "channel": 9
      },
      {
        "type": "note_on",
        "time": 0,
        "note": 44,
        "velocity": 0,
        "channel": 9
      },
      {
        "type": "note_on",
        "time": 1,
        "note": 40,
        "velocity": 100,
        "channel": 9
      },
      {
        "type": "note_on",
        "time": 0,
        "note": 44,
        "velocity": 100,
        "channel": 9
      },
      {
        "type": "note_on",
        "time": 29,
        "note": 44,
        "velocity": 0,
        "channel": 9
      },
      {
        "type": "note_on",
        "time": 1,
        "note": 44,
        "velocity": 100,
        "channel": 9
      },
      {
        "type": "note_on",
        "time": 29,
        "note": 40,
        "velocity": 0,
        "channel": 9
      },
      {
        "type": "note_on",
        "time": 0,
        "note": 44,
        "velocity": 0,
        "channel": 9
      },
      {
        "type": "note_on",
        "time": 1,
        "note": 44,
        "velocity": 100,
        "channel": 9
      },
      {
        "type": "note_on",
        "time": 29,
        "note": 44,
        "velocity": 0,
        "channel": 9
      },
      {
        "type": "note_on",
        "time": 1,
        "note": 44,
        "velocity": 100,
        "channel": 9
      },
      {
        "type": "note_on",
        "time": 29,
        "note": 44,
        "velocity": 0,
        "channel": 9
      },
      {
        "type": "note_on",
        "time": 1,
        "note": 44,
        "velocity": 100,
        "channel": 9
      },
      {
        "type": "note_on",
        "time": 29,
        "note": 44,
        "velocity": 0,
        "channel": 9
      },
      {
        "type": "note_on",
        "time": 1,
        "note": 44,
        "velocity": 100,
        "channel": 9
      },
      {
        "type": "note_on",
        "time": 29,
        "note": 44,
        "velocity": 0,
        "channel": 9
      },
      {
        "type": "note_on",
        "time": 1,
        "note": 44,
        "velocity": 100,
        "channel": 9
      },
      {
        "type": "note_on",
        "time": 29,
        "note": 44,
        "velocity": 0,
        "channel": 9
      },
      {
        "type": "note_on",
        "time": 1,
        "note": 44,
        "velocity": 100,
        "channel": 9
      },
      {
        "type": "note_on",
        "time": 29,
        "note": 44,
        "velocity": 0,
        "channel": 9
      },
      {
        "type": "note_on",
        "time": 1,
        "note": 40,
        "velocity": 100,
        "channel": 9
      },
      {
        "type": "note_on",
        "time": 0,
        "note": 44,
        "velocity": 100,
        "channel": 9
      },
      {
        "type": "note_on",
        "time": 29,
        "note": 44,
        "velocity": 0,
        "channel": 9
      },
      {
        "type": "note_on",
        "time": 1,
        "note": 44,
        "velocity": 100,
        "channel": 9
      },
      {
        "type": "note_on",
        "time": 29,
        "note": 40,
        "velocity": 0,
        "channel": 9
      },
      {
        "type": "note_on",
        "time": 0,
        "note": 44,
        "velocity": 0,
        "channel": 9
      },
      {
        "type": "note_on",
        "time": 1,
        "note": 44,
        "velocity": 100,
        "channel": 9
      },
      {
        "type": "note_on",
        "time": 29,
        "note": 44,
        "velocity": 0,
        "channel": 9
      },
      {
        "type": "note_on",
        "time": 1,
        "note": 44,
        "velocity": 100,
        "channel": 9
      },
      {
        "type": "note_on",
        "time": 29,
        "note": 44,
        "velocity": 0,
        "channel": 9
      },
      {
        "type": "note_on",
        "time": 1,
        "note": 44,
        "velocity": 100,
        "channel": 9
      },
      {
        "type": "note_on",
        "time": 29,
        "note": 44,
        "velocity": 0,
        "channel": 9
      },
      {
        "type": "note_on",
        "time": 1,
        "note": 44,
        "velocity": 100,
        "channel": 9
      },
      {
        "type": "note_on",
        "time": 29,
        "note": 44,
        "velocity": 0,
        "channel": 9
      },
      {
        "type": "note_on",
        "time": 1,
        "note": 44,
        "velocity": 100,
        "channel": 9
      },
      {
        "type": "note_on",
        "time": 29,
        "note": 44,
        "velocity": 0,
        "channel": 9
      },
      {
        "type": "note_on",
        "time": 1,
        "note": 44,
        "velocity": 100,
        "channel": 9
      },
      {
        "type": "note_on",
        "time": 29,
        "note": 44,
        "velocity": 0,
        "channel": 9
      },
      {
        "type": "note_on",
        "time": 1,
        "note": 40,
        "velocity": 100,
        "channel": 9
      },
      {
        "type": "note_on",
        "time": 0,
        "note": 44,
        "velocity": 100,
        "channel": 9
      },
      {
        "type": "note_on",
        "time": 29,
        "note": 44,
        "velocity": 0,
        "channel": 9
      },
      {
        "type": "note_on",
        "time": 1,
        "note": 44,
        "velocity": 100,
        "channel": 9
      },
      {
        "type": "note_on",
        "time": 29,
        "note": 40,
        "velocity": 0,
        "channel": 9
      },
      {
        "type": "note_on",
        "time": 0,
        "note": 44,
        "velocity": 0,
        "channel": 9
      },
      {
        "type": "note_on",
        "time": 1,
        "note": 44,
        "velocity": 100,
        "channel": 9
      },
      {
        "type": "note_on",
        "time": 29,
        "note": 44,
        "velocity": 0,
        "channel": 9
      },
      {
        "type": "note_on",
        "time": 1,
        "note": 44,
        "velocity": 100,
        "channel": 9
      },
      {
        "type": "note_on",
        "time": 29,
        "note": 44,
        "velocity": 0,
        "channel": 9
      },
      {
        "type": "note_on",
        "time": 1,
        "note": 44,
        "velocity": 100,
        "channel": 9
      },
      {
        "type": "note_on",
        "time": 29,
        "note": 44,
        "velocity": 0,
        "channel": 9
      },
      {
        "type": "note_on",
        "time": 1,
        "note": 44,
        "velocity": 100,
        "channel": 9
      },
      {
        "type": "note_on",
        "time": 29,
        "note": 44,
        "velocity": 0,
        "channel": 9
      },
      {
        "type": "note_on",
        "time": 1,
        "note": 44,
        "velocity": 100,
        "channel": 9
      },
      {
        "type": "note_on",
        "time": 29,
        "note": 44,
        "velocity": 0,
        "channel": 9
      },
      {
        "type": "note_on",
        "time": 1,
        "note": 44,
        "velocity": 100,
        "channel": 9
      },
      {
        "type": "note_on",
        "time": 29,
        "note": 44,
        "velocity": 0,
        "channel": 9
      },
      {
        "type": "note_on",
        "time": 1,
        "note": 40,
        "velocity": 100,
        "channel": 9
      },
      {
        "type": "note_on",
        "time": 0,
        "note": 44,
        "velocity": 100,
        "channel": 9
      },
      {
        "type": "note_on",
        "time": 29,
        "note": 44,
        "velocity": 0,
        "channel": 9
      },
      {
        "type": "note_on",
        "time": 1,
        "note": 44,
        "velocity": 100,
        "channel": 9
      },
      {
        "type": "note_on",
        "time": 29,
        "note": 40,
        "velocity": 0,
        "channel": 9
      },
      {
        "type": "note_on",
        "time": 0,
        "note": 44,
        "velocity": 0,
        "channel": 9
      },
      {
        "type": "note_on",
        "time": 1,
        "note": 44,
        "velocity": 100,
        "channel": 9
      },
      {
        "type": "note_on",
        "time": 29,
        "note": 44,
        "velocity": 0,
        "channel": 9
      },
      {
        "type": "note_on",
        "time": 1,
        "note": 44,
        "velocity": 100,
        "channel": 9
      },
      {
        "type": "note_on",
        "time": 29,
        "note": 44,
        "velocity": 0,
        "channel": 9
      },
      {
        "type": "note_on",
        "time": 1,
        "note": 44,
        "velocity": 100,
        "channel": 9
      },
      {
        "type": "note_on",
        "time": 0,
        "note": 57,
        "velocity": 100,
        "channel": 9
      },
      {
        "type": "note_on",
        "time": 29,
        "note": 44,
        "velocity": 0,
        "channel": 9
      },
      {
        "type": "note_on",
        "time": 1,
        "note": 44,
        "velocity": 100,
        "channel": 9
      },
      {
        "type": "note_on",
        "time": 29,
        "note": 44,
        "velocity": 0,
        "channel": 9
      },
      {
        "type": "note_on",
        "time": 1,
        "note": 44,
        "velocity": 100,
        "channel": 9
      },
      {
        "type": "note_on",
        "time": 29,
        "note": 44,
        "velocity": 0,
        "channel": 9
      },
      {
        "type": "note_on",
        "time": 1,
        "note": 44,
        "velocity": 100,
        "channel": 9
      },
      {
        "type": "note_on",
        "time": 29,
        "note": 57,
        "velocity": 0,
        "channel": 9
      },
      {
        "type": "note_on",
        "time": 0,
        "note": 44,
        "velocity": 0,
        "channel": 9
      },
      {
        "type": "note_on",
        "time": 1,
        "note": 40,
        "velocity": 100,
        "channel": 9
      },
      {
        "type": "note_on",
        "time": 0,
        "note": 44,
        "velocity": 100,
        "channel": 9
      },
      {
        "type": "note_on",
        "time": 29,
        "note": 44,
        "velocity": 0,
        "channel": 9
      },
      {
        "type": "note_on",
        "time": 1,
        "note": 44,
        "velocity": 100,
        "channel": 9
      },
      {
        "type": "note_on",
        "time": 29,
        "note": 40,
        "velocity": 0,
        "channel": 9
      },
      {
        "type": "note_on",
        "time": 0,
        "note": 44,
        "velocity": 0,
        "channel": 9
      },
      {
        "type": "note_on",
        "time": 1,
        "note": 44,
        "velocity": 100,
        "channel": 9
      },
      {
        "type": "note_on",
        "time": 29,
        "note": 44,
        "velocity": 0,
        "channel": 9
      },
      {
        "type": "note_on",
        "time": 1,
        "note": 44,
        "velocity": 100,
        "channel": 9
      },
      {
        "type": "note_on",
        "time": 29,
        "note": 44,
        "velocity": 0,
        "channel": 9
      },
      {
        "type": "note_on",
        "time": 1,
        "note": 44,
        "velocity": 100,
        "channel": 9
      },
      {
        "type": "note_on",
        "time": 29,
        "note": 44,
        "velocity": 0,
        "channel": 9
      },
      {
        "type": "note_on",
        "time": 1,
        "note": 44,
        "velocity": 100,
        "channel": 9
      },
      {
        "type": "note_on",
        "time": 29,
        "note": 44,
        "velocity": 0,
        "channel": 9
      },
      {
        "type": "note_on",
        "time": 1,
        "note": 44,
        "velocity": 100,
        "channel": 9
      },
      {
        "type": "note_on",
        "time": 29,
        "note": 44,
        "velocity": 0,
        "channel": 9
      },
      {
        "type": "note_on",
        "time": 1,
        "note": 44,
        "velocity": 100,
        "channel": 9
      },
      {
        "type": "note_on",
        "time": 29,
        "note": 44,
        "velocity": 0,
        "channel": 9
      },
      {
        "type": "note_on",
        "time": 1,
        "note": 40,
        "velocity": 100,
        "channel": 9
      },
      {
        "type": "note_on",
        "time": 0,
        "note": 44,
        "velocity": 100,
        "channel": 9
      },
      {
        "type": "note_on",
        "time": 29,
        "note": 44,
        "velocity": 0,
        "channel": 9
      },
      {
        "type": "note_on",
        "time": 1,
        "note": 44,
        "velocity": 100,
        "channel": 9
      },
      {
        "type": "note_on",
        "time": 29,
        "note": 40,
        "velocity": 0,
        "channel": 9
      },
      {
        "type": "note_on",
        "time": 0,
        "note": 44,
        "velocity": 0,
        "channel": 9
      },
      {
        "type": "note_on",
        "time": 1,
        "note": 44,
        "velocity": 100,
        "channel": 9
      },
      {
        "type": "note_on",
        "time": 29,
        "note": 44,
        "velocity": 0,
        "channel": 9
      },
      {
        "type": "note_on",
        "time": 1,
        "note": 44,
        "velocity": 100,
        "channel": 9
      },
      {
        "type": "note_on",
        "time": 29,
        "note": 44,
        "velocity": 0,
        "channel": 9
      },
      {
        "type": "note_on",
        "time": 1,
        "note": 44,
        "velocity": 100,
        "channel": 9
      },
      {
        "type": "note_on",
        "time": 29,
        "note": 44,
        "velocity": 0,
        "channel": 9
      },
      {
        "type": "note_on",
        "time": 1,
        "note": 44,
        "velocity": 100,
        "channel": 9
      },
      {
        "type": "note_on",
        "time": 29,
        "note": 44,
        "velocity": 0,
        "channel": 9
      },
      {
        "type": "note_on",
        "time": 1,
        "note": 44,
        "velocity": 100,
        "channel": 9
      },
      {
        "type": "note_on",
        "time": 29,
        "note": 44,
        "velocity": 0,
        "channel": 9
      },
      {
        "type": "note_on",
        "time": 1,
        "note": 44,
        "velocity": 100,
        "channel": 9
      },
      {
        "type": "note_on",
        "time": 29,
        "note": 44,
        "velocity": 0,
        "channel": 9
      },
      {
        "type": "note_on",
        "time": 1,
        "note": 40,
        "velocity": 100,
        "channel": 9
      },
      {
        "type": "note_on",
        "time": 0,
        "note": 44,
        "velocity": 100,
        "channel": 9
      },
      {
        "type": "note_on",
        "time": 29,
        "note": 44,
        "velocity": 0,
        "channel": 9
      },
      {
        "type": "note_on",
        "time": 1,
        "note": 44,
        "velocity": 100,
        "channel": 9
      },
      {
        "type": "note_on",
        "time": 29,
        "note": 40,
        "velocity": 0,
        "channel": 9
      },
      {
        "type": "note_on",
        "time": 0,
        "note": 44,
        "velocity": 0,
        "channel": 9
      },
      {
        "type": "note_on",
        "time": 1,
        "note": 44,
        "velocity": 100,
        "channel": 9
      },
      {
        "type": "note_on",
        "time": 29,
        "note": 44,
        "velocity": 0,
        "channel": 9
      },
      {
        "type": "note_on",
        "time": 1,
        "note": 44,
        "velocity": 100,
        "channel": 9
      },
      {
        "type": "note_on",
        "time": 29,
        "note": 44,
        "velocity": 0,
        "channel": 9
      },
      {
        "type": "note_on",
        "time": 1,
        "note": 44,
        "velocity": 100,
        "channel": 9
      },
      {
        "type": "note_on",
        "time": 29,
        "note": 44,
        "velocity": 0,
        "channel": 9
      },
      {
        "type": "note_on",
        "time": 1,
        "note": 44,
        "velocity": 100,
        "channel": 9
      },
      {
        "type": "note_on",
        "time": 29,
        "note": 44,
        "velocity": 0,
        "channel": 9
      },
      {
        "type": "note_on",
        "time": 1,
        "note": 44,
        "velocity": 100,
        "channel": 9
      },
      {
        "type": "note_on",
        "time": 29,
        "note": 44,
        "velocity": 0,
        "channel": 9
      },
      {
        "type": "note_on",
        "time": 1,
        "note": 44,
        "velocity": 100,
        "channel": 9
      },
      {
        "type": "note_on",
        "time": 29,
        "note": 44,
        "velocity": 0,
        "channel": 9
      },
      {
        "type": "note_on",
        "time": 1,
        "note": 40,
        "velocity": 100,
        "channel": 9
      },
      {
        "type": "note_on",
        "time": 0,
        "note": 44,
        "velocity": 100,
        "channel": 9
      },
      {
        "type": "note_on",
        "time": 0,
        "note": 57,
        "velocity": 100,
        "channel": 9
      },
      {
        "type": "note_on",
        "time": 29,
        "note": 44,
        "velocity": 0,
        "channel": 9
      },
      {
        "type": "note_on",
        "time": 0,
        "note": 57,
        "velocity": 0,
        "channel": 9
      },
      {
        "type": "note_on",
        "time": 1,
        "note": 44,
        "velocity": 100,
        "channel": 9
      },
      {
        "type": "note_on",
        "time": 0,
        "note": 57,
        "velocity": 100,
        "channel": 9
      },
      {
        "type": "note_on",
        "time": 29,
        "note": 40,
        "velocity": 0,
        "channel": 9
      },
      {
        "type": "note_on",
        "time": 0,
        "note": 44,
        "velocity": 0,
        "channel": 9
      },
      {
        "type": "note_on",
        "time": 0,
        "note": 57,
        "velocity": 0,
        "channel": 9
      },
      {
        "type": "note_on",
        "time": 1,
        "note": 44,
        "velocity": 100,
        "channel": 9
      },
      {
        "type": "note_on",
        "time": 0,
        "note": 57,
        "velocity": 100,
        "channel": 9
      },
      {
        "type": "note_on",
        "time": 29,
        "note": 44,
        "velocity": 0,
        "channel": 9
      },
      {
        "type": "note_on",
        "time": 1,
        "note": 44,
        "velocity": 100,
        "channel": 9
      },
      {
        "type": "note_on",
        "time": 29,
        "note": 57,
        "velocity": 0,
        "channel": 9
      },
      {
        "type": "note_on",
        "time": 0,
        "note": 44,
        "velocity": 0,
        "channel": 9
      },
      {
        "type": "note_on",
        "time": 1,
        "note": 44,
        "velocity": 100,
        "channel": 9
      },
      {
        "type": "note_on",
        "time": 29,
        "note": 44,
        "velocity": 0,
        "channel": 9
      },
      {
        "type": "note_on",
        "time": 1,
        "note": 44,
        "velocity": 100,
        "channel": 9
      },
      {
        "type": "note_on",
        "time": 29,
        "note": 44,
        "velocity": 0,
        "channel": 9
      },
      {
        "type": "note_on",
        "time": 1,
        "note": 44,
        "velocity": 100,
        "channel": 9
      },
      {
        "type": "note_on",
        "time": 29,
        "note": 44,
        "velocity": 0,
        "channel": 9
      },
      {
        "type": "note_on",
        "time": 1,
        "note": 44,
        "velocity": 100,
        "channel": 9
      },
      {
        "type": "note_on",
        "time": 29,
        "note": 44,
        "velocity": 0,
        "channel": 9
      },
      {
        "type": "note_on",
        "time": 1,
        "note": 40,
        "velocity": 100,
        "channel": 9
      },
      {
        "type": "note_on",
        "time": 0,
        "note": 44,
        "velocity": 100,
        "channel": 9
      },
      {
        "type": "note_on",
        "time": 29,
        "note": 44,
        "velocity": 0,
        "channel": 9
      },
      {
        "type": "note_on",
        "time": 1,
        "note": 44,
        "velocity": 100,
        "channel": 9
      },
      {
        "type": "note_on",
        "time": 29,
        "note": 40,
        "velocity": 0,
        "channel": 9
      },
      {
        "type": "note_on",
        "time": 0,
        "note": 44,
        "velocity": 0,
        "channel": 9
      },
      {
        "type": "note_on",
        "time": 1,
        "note": 44,
        "velocity": 100,
        "channel": 9
      },
      {
        "type": "note_on",
        "time": 29,
        "note": 44,
        "velocity": 0,
        "channel": 9
      },
      {
        "type": "note_on",
        "time": 1,
        "note": 44,
        "velocity": 100,
        "channel": 9
      },
      {
        "type": "note_on",
        "time": 29,
        "note": 44,
        "velocity": 0,
        "channel": 9
      },
      {
        "type": "note_on",
        "time": 1,
        "note": 44,
        "velocity": 100,
        "channel": 9
      },
      {
        "type": "note_on",
        "time": 29,
        "note": 44,
        "velocity": 0,
        "channel": 9
      },
      {
        "type": "note_on",
        "time": 1,
        "note": 44,
        "velocity": 100,
        "channel": 9
      },
      {
        "type": "note_on",
        "time": 29,
        "note": 44,
        "velocity": 0,
        "channel": 9
      },
      {
        "type": "note_on",
        "time": 1,
        "note": 44,
        "velocity": 100,
        "channel": 9
      },
      {
        "type": "note_on",
        "time": 29,
        "note": 44,
        "velocity": 0,
        "channel": 9
      },
      {
        "type": "note_on",
        "time": 1,
        "note": 44,
        "velocity": 100,
        "channel": 9
      },
      {
        "type": "note_on",
        "time": 29,
        "note": 44,
        "velocity": 0,
        "channel": 9
      },
      {
        "type": "note_on",
        "time": 1,
        "note": 40,
        "velocity": 100,
        "channel": 9
      },
      {
        "type": "note_on",
        "time": 0,
        "note": 44,
        "velocity": 100,
        "channel": 9
      },
      {
        "type": "note_on",
        "time": 29,
        "note": 44,
        "velocity": 0,
        "channel": 9
      },
      {
        "type": "note_on",
        "time": 1,
        "note": 44,
        "velocity": 100,
        "channel": 9
      },
      {
        "type": "note_on",
        "time": 29,
        "note": 40,
        "velocity": 0,
        "channel": 9
      },
      {
        "type": "note_on",
        "time": 0,
        "note": 44,
        "velocity": 0,
        "channel": 9
      },
      {
        "type": "note_on",
        "time": 1,
        "note": 44,
        "velocity": 100,
        "channel": 9
      },
      {
        "type": "note_on",
        "time": 29,
        "note": 44,
        "velocity": 0,
        "channel": 9
      },
      {
        "type": "note_on",
        "time": 1,
        "note": 44,
        "velocity": 100,
        "channel": 9
      },
      {
        "type": "note_on",
        "time": 29,
        "note": 44,
        "velocity": 0,
        "channel": 9
      },
      {
        "type": "note_on",
        "time": 1,
        "note": 44,
        "velocity": 100,
        "channel": 9
      },
      {
        "type": "note_on",
        "time": 29,
        "note": 44,
        "velocity": 0,
        "channel": 9
      },
      {
        "type": "note_on",
        "time": 1,
        "note": 44,
        "velocity": 100,
        "channel": 9
      },
      {
        "type": "note_on",
        "time": 29,
        "note": 44,
        "velocity": 0,
        "channel": 9
      },
      {
        "type": "note_on",
        "time": 1,
        "note": 44,
        "velocity": 100,
        "channel": 9
      },
      {
        "type": "note_on",
        "time": 29,
        "note": 44,
        "velocity": 0,
        "channel": 9
      },
      {
        "type": "note_on",
        "time": 1,
        "note": 44,
        "velocity": 100,
        "channel": 9
      },
      {
        "type": "note_on",
        "time": 29,
        "note": 44,
        "velocity": 0,
        "channel": 9
      },
      {
        "type": "note_on",
        "time": 1,
        "note": 40,
        "velocity": 100,
        "channel": 9
      },
      {
        "type": "note_on",
        "time": 0,
        "note": 44,
        "velocity": 100,
        "channel": 9
      },
      {
        "type": "note_on",
        "time": 29,
        "note": 44,
        "velocity": 0,
        "channel": 9
      },
      {
        "type": "note_on",
        "time": 1,
        "note": 44,
        "velocity": 100,
        "channel": 9
      },
      {
        "type": "note_on",
        "time": 29,
        "note": 40,
        "velocity": 0,
        "channel": 9
      },
      {
        "type": "note_on",
        "time": 0,
        "note": 44,
        "velocity": 0,
        "channel": 9
      },
      {
        "type": "note_on",
        "time": 1,
        "note": 44,
        "velocity": 100,
        "channel": 9
      },
      {
        "type": "note_on",
        "time": 29,
        "note": 44,
        "velocity": 0,
        "channel": 9
      },
      {
        "type": "note_on",
        "time": 1,
        "note": 44,
        "velocity": 100,
        "channel": 9
      },
      {
        "type": "note_on",
        "time": 29,
        "note": 44,
        "velocity": 0,
        "channel": 9
      },
      {
        "type": "note_on",
        "time": 1,
        "note": 44,
        "velocity": 100,
        "channel": 9
      },
      {
        "type": "note_on",
        "time": 29,
        "note": 44,
        "velocity": 0,
        "channel": 9
      },
      {
        "type": "note_on",
        "time": 1,
        "note": 44,
        "velocity": 100,
        "channel": 9
      },
      {
        "type": "note_on",
        "time": 29,
        "note": 44,
        "velocity": 0,
        "channel": 9
      },
      {
        "type": "note_on",
        "time": 1,
        "note": 44,
        "velocity": 100,
        "channel": 9
      },
      {
        "type": "note_on",
        "time": 29,
        "note": 44,
        "velocity": 0,
        "channel": 9
      },
      {
        "type": "note_on",
        "time": 1,
        "note": 44,
        "velocity": 100,
        "channel": 9
      },
      {
        "type": "note_on",
        "time": 29,
        "note": 44,
        "velocity": 0,
        "channel": 9
      },
      {
        "type": "note_on",
        "time": 1,
        "note": 40,
        "velocity": 100,
        "channel": 9
      },
      {
        "type": "note_on",
        "time": 0,
        "note": 44,
        "velocity": 100,
        "channel": 9
      },
      {
        "type": "note_on",
        "time": 29,
        "note": 44,
        "velocity": 0,
        "channel": 9
      },
      {
        "type": "note_on",
        "time": 1,
        "note": 44,
        "velocity": 100,
        "channel": 9
      },
      {
        "type": "note_on",
        "time": 29,
        "note": 40,
        "velocity": 0,
        "channel": 9
      },
      {
        "type": "note_on",
        "time": 0,
        "note": 44,
        "velocity": 0,
        "channel": 9
      },
      {
        "type": "note_on",
        "time": 1,
        "note": 44,
        "velocity": 100,
        "channel": 9
      },
      {
        "type": "note_on",
        "time": 29,
        "note": 44,
        "velocity": 0,
        "channel": 9
      },
      {
        "type": "note_on",
        "time": 1,
        "note": 44,
        "velocity": 100,
        "channel": 9
      },
      {
        "type": "note_on",
        "time": 29,
        "note": 44,
        "velocity": 0,
        "channel": 9
      },
      {
        "type": "note_on",
        "time": 1,
        "note": 44,
        "velocity": 100,
        "channel": 9
      },
      {
        "type": "note_on",
        "time": 0,
        "note": 57,
        "velocity": 100,
        "channel": 9
      },
      {
        "type": "note_on",
        "time": 29,
        "note": 44,
        "velocity": 0,
        "channel": 9
      },
      {
        "type": "note_on",
        "time": 1,
        "note": 44,
        "velocity": 100,
        "channel": 9
      },
      {
        "type": "note_on",
        "time": 29,
        "note": 44,
        "velocity": 0,
        "channel": 9
      },
      {
        "type": "note_on",
        "time": 1,
        "note": 44,
        "velocity": 100,
        "channel": 9
      },
      {
        "type": "note_on",
        "time": 29,
        "note": 44,
        "velocity": 0,
        "channel": 9
      },
      {
        "type": "note_on",
        "time": 1,
        "note": 44,
        "velocity": 100,
        "channel": 9
      },
      {
        "type": "note_on",
        "time": 29,
        "note": 57,
        "velocity": 0,
        "channel": 9
      },
      {
        "type": "note_on",
        "time": 0,
        "note": 44,
        "velocity": 0,
        "channel": 9
      },
      {
        "type": "note_on",
        "time": 1,
        "note": 40,
        "velocity": 100,
        "channel": 9
      },
      {
        "type": "note_on",
        "time": 0,
        "note": 44,
        "velocity": 100,
        "channel": 9
      },
      {
        "type": "note_on",
        "time": 29,
        "note": 44,
        "velocity": 0,
        "channel": 9
      },
      {
        "type": "note_on",
        "time": 1,
        "note": 44,
        "velocity": 100,
        "channel": 9
      },
      {
        "type": "note_on",
        "time": 29,
        "note": 40,
        "velocity": 0,
        "channel": 9
      },
      {
        "type": "note_on",
        "time": 0,
        "note": 44,
        "velocity": 0,
        "channel": 9
      },
      {
        "type": "note_on",
        "time": 1,
        "note": 44,
        "velocity": 100,
        "channel": 9
      },
      {
        "type": "note_on",
        "time": 29,
        "note": 44,
        "velocity": 0,
        "channel": 9
      },
      {
        "type": "note_on",
        "time": 1,
        "note": 44,
        "velocity": 100,
        "channel": 9
      },
      {
        "type": "note_on",
        "time": 29,
        "note": 44,
        "velocity": 0,
        "channel": 9
      },
      {
        "type": "note_on",
        "time": 1,
        "note": 44,
        "velocity": 100,
        "channel": 9
      },
      {
        "type": "note_on",
        "time": 29,
        "note": 44,
        "velocity": 0,
        "channel": 9
      },
      {
        "type": "note_on",
        "time": 1,
        "note": 44,
        "velocity": 100,
        "channel": 9
      },
      {
        "type": "note_on",
        "time": 29,
        "note": 44,
        "velocity": 0,
        "channel": 9
      },
      {
        "type": "note_on",
        "time": 1,
        "note": 44,
        "velocity": 100,
        "channel": 9
      },
      {
        "type": "note_on",
        "time": 29,
        "note": 44,
        "velocity": 0,
        "channel": 9
      },
      {
        "type": "note_on",
        "time": 1,
        "note": 44,
        "velocity": 100,
        "channel": 9
      },
      {
        "type": "note_on",
        "time": 29,
        "note": 44,
        "velocity": 0,
        "channel": 9
      },
      {
        "type": "note_on",
        "time": 1,
        "note": 40,
        "velocity": 100,
        "channel": 9
      },
      {
        "type": "note_on",
        "time": 0,
        "note": 44,
        "velocity": 100,
        "channel": 9
      },
      {
        "type": "note_on",
        "time": 29,
        "note": 44,
        "velocity": 0,
        "channel": 9
      },
      {
        "type": "note_on",
        "time": 1,
        "note": 44,
        "velocity": 100,
        "channel": 9
      },
      {
        "type": "note_on",
        "time": 29,
        "note": 40,
        "velocity": 0,
        "channel": 9
      },
      {
        "type": "note_on",
        "time": 0,
        "note": 44,
        "velocity": 0,
        "channel": 9
      },
      {
        "type": "note_on",
        "time": 1,
        "note": 44,
        "velocity": 100,
        "channel": 9
      },
      {
        "type": "note_on",
        "time": 29,
        "note": 44,
        "velocity": 0,
        "channel": 9
      },
      {
        "type": "note_on",
        "time": 1,
        "note": 44,
        "velocity": 100,
        "channel": 9
      },
      {
        "type": "note_on",
        "time": 29,
        "note": 44,
        "velocity": 0,
        "channel": 9
      },
      {
        "type": "note_on",
        "time": 1,
        "note": 44,
        "velocity": 100,
        "channel": 9
      },
      {
        "type": "note_on",
        "time": 29,
        "note": 44,
        "velocity": 0,
        "channel": 9
      },
      {
        "type": "note_on",
        "time": 1,
        "note": 44,
        "velocity": 100,
        "channel": 9
      },
      {
        "type": "note_on",
        "time": 29,
        "note": 44,
        "velocity": 0,
        "channel": 9
      },
      {
        "type": "note_on",
        "time": 1,
        "note": 44,
        "velocity": 100,
        "channel": 9
      },
      {
        "type": "note_on",
        "time": 29,
        "note": 44,
        "velocity": 0,
        "channel": 9
      },
      {
        "type": "note_on",
        "time": 1,
        "note": 44,
        "velocity": 100,
        "channel": 9
      },
      {
        "type": "note_on",
        "time": 29,
        "note": 44,
        "velocity": 0,
        "channel": 9
      },
      {
        "type": "note_on",
        "time": 1,
        "note": 40,
        "velocity": 100,
        "channel": 9
      },
      {
        "type": "note_on",
        "time": 0,
        "note": 44,
        "velocity": 100,
        "channel": 9
      },
      {
        "type": "note_on",
        "time": 29,
        "note": 44,
        "velocity": 0,
        "channel": 9
      },
      {
        "type": "note_on",
        "time": 1,
        "note": 44,
        "velocity": 100,
        "channel": 9
      },
      {
        "type": "note_on",
        "time": 29,
        "note": 40,
        "velocity": 0,
        "channel": 9
      },
      {
        "type": "note_on",
        "time": 0,
        "note": 44,
        "velocity": 0,
        "channel": 9
      },
      {
        "type": "note_on",
        "time": 1,
        "note": 44,
        "velocity": 100,
        "channel": 9
      },
      {
        "type": "note_on",
        "time": 29,
        "note": 44,
        "velocity": 0,
        "channel": 9
      },
      {
        "type": "note_on",
        "time": 1,
        "note": 44,
        "velocity": 100,
        "channel": 9
      },
      {
        "type": "note_on",
        "time": 29,
        "note": 44,
        "velocity": 0,
        "channel": 9
      },
      {
        "type": "note_on",
        "time": 1,
        "note": 44,
        "velocity": 100,
        "channel": 9
      },
      {
        "type": "note_on",
        "time": 29,
        "note": 44,
        "velocity": 0,
        "channel": 9
      },
      {
        "type": "note_on",
        "time": 1,
        "note": 44,
        "velocity": 100,
        "channel": 9
      },
      {
        "type": "note_on",
        "time": 29,
        "note": 44,
        "velocity": 0,
        "channel": 9
      },
      {
        "type": "note_on",
        "time": 1,
        "note": 44,
        "velocity": 100,
        "channel": 9
      },
      {
        "type": "note_on",
        "time": 29,
        "note": 44,
        "velocity": 0,
        "channel": 9
      },
      {
        "type": "note_on",
        "time": 1,
        "note": 44,
        "velocity": 100,
        "channel": 9
      },
      {
        "type": "note_on",
        "time": 29,
        "note": 44,
        "velocity": 0,
        "channel": 9
      },
      {
        "type": "note_on",
        "time": 1,
        "note": 40,
        "velocity": 100,
        "channel": 9
      },
      {
        "type": "note_on",
        "time": 0,
        "note": 44,
        "velocity": 100,
        "channel": 9
      },
      {
        "type": "note_on",
        "time": 29,
        "note": 44,
        "velocity": 0,
        "channel": 9
      },
      {
        "type": "note_on",
        "time": 1,
        "note": 44,
        "velocity": 100,
        "channel": 9
      },
      {
        "type": "note_on",
        "time": 29,
        "note": 40,
        "velocity": 0,
        "channel": 9
      },
      {
        "type": "note_on",
        "time": 0,
        "note": 44,
        "velocity": 0,
        "channel": 9
      },
      {
        "type": "note_on",
        "time": 1,
        "note": 44,
        "velocity": 100,
        "channel": 9
      },
      {
        "type": "note_on",
        "time": 29,
        "note": 44,
        "velocity": 0,
        "channel": 9
      },
      {
        "type": "note_on",
        "time": 1,
        "note": 44,
        "velocity": 100,
        "channel": 9
      },
      {
        "type": "note_on",
        "time": 29,
        "note": 44,
        "velocity": 0,
        "channel": 9
      },
      {
        "type": "note_on",
        "time": 1,
        "note": 44,
        "velocity": 100,
        "channel": 9
      },
      {
        "type": "note_on",
        "time": 0,
        "note": 57,
        "velocity": 100,
        "channel": 9
      },
      {
        "type": "note_on",
        "time": 29,
        "note": 44,
        "velocity": 0,
        "channel": 9
      },
      {
        "type": "note_on",
        "time": 1,
        "note": 44,
        "velocity": 100,
        "channel": 9
      },
      {
        "type": "note_on",
        "time": 29,
        "note": 44,
        "velocity": 0,
        "channel": 9
      },
      {
        "type": "note_on",
        "time": 1,
        "note": 44,
        "velocity": 100,
        "channel": 9
      },
      {
        "type": "note_on",
        "time": 29,
        "note": 44,
        "velocity": 0,
        "channel": 9
      },
      {
        "type": "note_on",
        "time": 1,
        "note": 44,
        "velocity": 100,
        "channel": 9
      },
      {
        "type": "note_on",
        "time": 29,
        "note": 57,
        "velocity": 0,
        "channel": 9
      },
      {
        "type": "note_on",
        "time": 0,
        "note": 44,
        "velocity": 0,
        "channel": 9
      },
      {
        "type": "note_on",
        "time": 1,
        "note": 40,
        "velocity": 100,
        "channel": 9
      },
      {
        "type": "note_on",
        "time": 0,
        "note": 44,
        "velocity": 100,
        "channel": 9
      },
      {
        "type": "note_on",
        "time": 29,
        "note": 44,
        "velocity": 0,
        "channel": 9
      },
      {
        "type": "note_on",
        "time": 1,
        "note": 44,
        "velocity": 100,
        "channel": 9
      },
      {
        "type": "note_on",
        "time": 29,
        "note": 40,
        "velocity": 0,
        "channel": 9
      },
      {
        "type": "note_on",
        "time": 0,
        "note": 44,
        "velocity": 0,
        "channel": 9
      },
      {
        "type": "note_on",
        "time": 1,
        "note": 44,
        "velocity": 100,
        "channel": 9
      },
      {
        "type": "note_on",
        "time": 29,
        "note": 44,
        "velocity": 0,
        "channel": 9
      },
      {
        "type": "note_on",
        "time": 1,
        "note": 44,
        "velocity": 100,
        "channel": 9
      },
      {
        "type": "note_on",
        "time": 29,
        "note": 44,
        "velocity": 0,
        "channel": 9
      },
      {
        "type": "note_on",
        "time": 1,
        "note": 44,
        "velocity": 100,
        "channel": 9
      },
      {
        "type": "note_on",
        "time": 29,
        "note": 44,
        "velocity": 0,
        "channel": 9
      },
      {
        "type": "note_on",
        "time": 1,
        "note": 44,
        "velocity": 100,
        "channel": 9
      },
      {
        "type": "note_on",
        "time": 29,
        "note": 44,
        "velocity": 0,
        "channel": 9
      },
      {
        "type": "note_on",
        "time": 1,
        "note": 44,
        "velocity": 100,
        "channel": 9
      },
      {
        "type": "note_on",
        "time": 29,
        "note": 44,
        "velocity": 0,
        "channel": 9
      },
      {
        "type": "note_on",
        "time": 1,
        "note": 44,
        "velocity": 100,
        "channel": 9
      },
      {
        "type": "note_on",
        "time": 29,
        "note": 44,
        "velocity": 0,
        "channel": 9
      },
      {
        "type": "note_on",
        "time": 1,
        "note": 40,
        "velocity": 100,
        "channel": 9
      },
      {
        "type": "note_on",
        "time": 0,
        "note": 44,
        "velocity": 100,
        "channel": 9
      },
      {
        "type": "note_on",
        "time": 29,
        "note": 44,
        "velocity": 0,
        "channel": 9
      },
      {
        "type": "note_on",
        "time": 1,
        "note": 44,
        "velocity": 100,
        "channel": 9
      },
      {
        "type": "note_on",
        "time": 29,
        "note": 40,
        "velocity": 0,
        "channel": 9
      },
      {
        "type": "note_on",
        "time": 0,
        "note": 44,
        "velocity": 0,
        "channel": 9
      },
      {
        "type": "note_on",
        "time": 1,
        "note": 44,
        "velocity": 100,
        "channel": 9
      },
      {
        "type": "note_on",
        "time": 29,
        "note": 44,
        "velocity": 0,
        "channel": 9
      },
      {
        "type": "note_on",
        "time": 1,
        "note": 44,
        "velocity": 100,
        "channel": 9
      },
      {
        "type": "note_on",
        "time": 29,
        "note": 44,
        "velocity": 0,
        "channel": 9
      },
      {
        "type": "note_on",
        "time": 1,
        "note": 44,
        "velocity": 100,
        "channel": 9
      },
      {
        "type": "note_on",
        "time": 29,
        "note": 44,
        "velocity": 0,
        "channel": 9
      },
      {
        "type": "note_on",
        "time": 1,
        "note": 44,
        "velocity": 100,
        "channel": 9
      },
      {
        "type": "note_on",
        "time": 29,
        "note": 44,
        "velocity": 0,
        "channel": 9
      },
      {
        "type": "note_on",
        "time": 1,
        "note": 44,
        "velocity": 100,
        "channel": 9
      },
      {
        "type": "note_on",
        "time": 29,
        "note": 44,
        "velocity": 0,
        "channel": 9
      },
      {
        "type": "note_on",
        "time": 1,
        "note": 44,
        "velocity": 100,
        "channel": 9
      },
      {
        "type": "note_on",
        "time": 29,
        "note": 44,
        "velocity": 0,
        "channel": 9
      },
      {
        "type": "note_on",
        "time": 1,
        "note": 40,
        "velocity": 100,
        "channel": 9
      },
      {
        "type": "note_on",
        "time": 0,
        "note": 44,
        "velocity": 100,
        "channel": 9
      },
      {
        "type": "note_on",
        "time": 29,
        "note": 44,
        "velocity": 0,
        "channel": 9
      },
      {
        "type": "note_on",
        "time": 1,
        "note": 44,
        "velocity": 100,
        "channel": 9
      },
      {
        "type": "note_on",
        "time": 29,
        "note": 40,
        "velocity": 0,
        "channel": 9
      },
      {
        "type": "note_on",
        "time": 0,
        "note": 44,
        "velocity": 0,
        "channel": 9
      },
      {
        "type": "note_on",
        "time": 1,
        "note": 44,
        "velocity": 100,
        "channel": 9
      },
      {
        "type": "note_on",
        "time": 29,
        "note": 44,
        "velocity": 0,
        "channel": 9
      },
      {
        "type": "note_on",
        "time": 1,
        "note": 44,
        "velocity": 100,
        "channel": 9
      },
      {
        "type": "note_on",
        "time": 29,
        "note": 44,
        "velocity": 0,
        "channel": 9
      },
      {
        "type": "note_on",
        "time": 1,
        "note": 44,
        "velocity": 100,
        "channel": 9
      },
      {
        "type": "note_on",
        "time": 29,
        "note": 44,
        "velocity": 0,
        "channel": 9
      },
      {
        "type": "note_on",
        "time": 1,
        "note": 44,
        "velocity": 100,
        "channel": 9
      },
      {
        "type": "note_on",
        "time": 29,
        "note": 44,
        "velocity": 0,
        "channel": 9
      },
      {
        "type": "note_on",
        "time": 1,
        "note": 44,
        "velocity": 100,
        "channel": 9
      },
      {
        "type": "note_on",
        "time": 29,
        "note": 44,
        "velocity": 0,
        "channel": 9
      },
      {
        "type": "note_on",
        "time": 1,
        "note": 44,
        "velocity": 100,
        "channel": 9
      },
      {
        "type": "note_on",
        "time": 29,
        "note": 44,
        "velocity": 0,
        "channel": 9
      },
      {
        "type": "note_on",
        "time": 1,
        "note": 40,
        "velocity": 100,
        "channel": 9
      },
      {
        "type": "note_on",
        "time": 0,
        "note": 44,
        "velocity": 100,
        "channel": 9
      },
      {
        "type": "note_on",
        "time": 29,
        "note": 44,
        "velocity": 0,
        "channel": 9
      },
      {
        "type": "note_on",
        "time": 1,
        "note": 44,
        "velocity": 100,
        "channel": 9
      },
      {
        "type": "note_on",
        "time": 29,
        "note": 40,
        "velocity": 0,
        "channel": 9
      },
      {
        "type": "note_on",
        "time": 0,
        "note": 44,
        "velocity": 0,
        "channel": 9
      },
      {
        "type": "note_on",
        "time": 1,
        "note": 44,
        "velocity": 100,
        "channel": 9
      },
      {
        "type": "note_on",
        "time": 29,
        "note": 44,
        "velocity": 0,
        "channel": 9
      },
      {
        "type": "note_on",
        "time": 1,
        "note": 44,
        "velocity": 100,
        "channel": 9
      },
      {
        "type": "note_on",
        "time": 29,
        "note": 44,
        "velocity": 0,
        "channel": 9
      },
      {
        "type": "note_on",
        "time": 1,
        "note": 44,
        "velocity": 100,
        "channel": 9
      },
      {
        "type": "note_on",
        "time": 29,
        "note": 44,
        "velocity": 0,
        "channel": 9
      },
      {
        "type": "note_on",
        "time": 1,
        "note": 44,
        "velocity": 100,
        "channel": 9
      },
      {
        "type": "note_on",
        "time": 29,
        "note": 44,
        "velocity": 0,
        "channel": 9
      },
      {
        "type": "note_on",
        "time": 1,
        "note": 44,
        "velocity": 100,
        "channel": 9
      },
      {
        "type": "note_on",
        "time": 29,
        "note": 44,
        "velocity": 0,
        "channel": 9
      },
      {
        "type": "note_on",
        "time": 1,
        "note": 44,
        "velocity": 100,
        "channel": 9
      },
      {
        "type": "note_on",
        "time": 29,
        "note": 44,
        "velocity": 0,
        "channel": 9
      },
      {
        "type": "note_on",
        "time": 1,
        "note": 40,
        "velocity": 100,
        "channel": 9
      },
      {
        "type": "note_on",
        "time": 0,
        "note": 44,
        "velocity": 100,
        "channel": 9
      },
      {
        "type": "note_on",
        "time": 29,
        "note": 44,
        "velocity": 0,
        "channel": 9
      },
      {
        "type": "note_on",
        "time": 1,
        "note": 44,
        "velocity": 100,
        "channel": 9
      },
      {
        "type": "note_on",
        "time": 29,
        "note": 40,
        "velocity": 0,
        "channel": 9
      },
      {
        "type": "note_on",
        "time": 0,
        "note": 44,
        "velocity": 0,
        "channel": 9
      },
      {
        "type": "note_on",
        "time": 1,
        "note": 44,
        "velocity": 100,
        "channel": 9
      },
      {
        "type": "note_on",
        "time": 29,
        "note": 44,
        "velocity": 0,
        "channel": 9
      },
      {
        "type": "note_on",
        "time": 1,
        "note": 44,
        "velocity": 100,
        "channel": 9
      },
      {
        "type": "note_on",
        "time": 29,
        "note": 44,
        "velocity": 0,
        "channel": 9
      },
      {
        "type": "note_on",
        "time": 1,
        "note": 44,
        "velocity": 100,
        "channel": 9
      },
      {
        "type": "note_on",
        "time": 29,
        "note": 44,
        "velocity": 0,
        "channel": 9
      },
      {
        "type": "note_on",
        "time": 1,
        "note": 44,
        "velocity": 100,
        "channel": 9
      },
      {
        "type": "note_on",
        "time": 29,
        "note": 44,
        "velocity": 0,
        "channel": 9
      },
      {
        "type": "note_on",
        "time": 1,
        "note": 44,
        "velocity": 100,
        "channel": 9
      },
      {
        "type": "note_on",
        "time": 29,
        "note": 44,
        "velocity": 0,
        "channel": 9
      },
      {
        "type": "note_on",
        "time": 1,
        "note": 44,
        "velocity": 100,
        "channel": 9
      },
      {
        "type": "note_on",
        "time": 29,
        "note": 44,
        "velocity": 0,
        "channel": 9
      },
      {
        "type": "note_on",
        "time": 1,
        "note": 40,
        "velocity": 100,
        "channel": 9
      },
      {
        "type": "note_on",
        "time": 0,
        "note": 44,
        "velocity": 100,
        "channel": 9
      },
      {
        "type": "note_on",
        "time": 29,
        "note": 44,
        "velocity": 0,
        "channel": 9
      },
      {
        "type": "note_on",
        "time": 1,
        "note": 44,
        "velocity": 100,
        "channel": 9
      },
      {
        "type": "note_on",
        "time": 29,
        "note": 40,
        "velocity": 0,
        "channel": 9
      },
      {
        "type": "note_on",
        "time": 0,
        "note": 44,
        "velocity": 0,
        "channel": 9
      },
      {
        "type": "note_on",
        "time": 1,
        "note": 44,
        "velocity": 100,
        "channel": 9
      },
      {
        "type": "note_on",
        "time": 29,
        "note": 44,
        "velocity": 0,
        "channel": 9
      },
      {
        "type": "note_on",
        "time": 1,
        "note": 44,
        "velocity": 100,
        "channel": 9
      },
      {
        "type": "note_on",
        "time": 29,
        "note": 44,
        "velocity": 0,
        "channel": 9
      },
      {
        "type": "note_on",
        "time": 1,
        "note": 44,
        "velocity": 100,
        "channel": 9
      },
      {
        "type": "note_on",
        "time": 29,
        "note": 44,
        "velocity": 0,
        "channel": 9
      },
      {
        "type": "note_on",
        "time": 1,
        "note": 44,
        "velocity": 100,
        "channel": 9
      },
      {
        "type": "note_on",
        "time": 29,
        "note": 44,
        "velocity": 0,
        "channel": 9
      },
      {
        "type": "note_on",
        "time": 1,
        "note": 44,
        "velocity": 100,
        "channel": 9
      },
      {
        "type": "note_on",
        "time": 29,
        "note": 44,
        "velocity": 0,
        "channel": 9
      },
      {
        "type": "note_on",
        "time": 1,
        "note": 44,
        "velocity": 100,
        "channel": 9
      },
      {
        "type": "note_on",
        "time": 29,
        "note": 44,
        "velocity": 0,
        "channel": 9
      },
      {
        "type": "note_on",
        "time": 1,
        "note": 40,
        "velocity": 100,
        "channel": 9
      },
      {
        "type": "note_on",
        "time": 0,
        "note": 44,
        "velocity": 100,
        "channel": 9
      },
      {
        "type": "note_on",
        "time": 29,
        "note": 44,
        "velocity": 0,
        "channel": 9
      },
      {
        "type": "note_on",
        "time": 1,
        "note": 44,
        "velocity": 100,
        "channel": 9
      },
      {
        "type": "note_on",
        "time": 29,
        "note": 40,
        "velocity": 0,
        "channel": 9
      },
      {
        "type": "note_on",
        "time": 0,
        "note": 44,
        "velocity": 0,
        "channel": 9
      },
      {
        "type": "note_on",
        "time": 1,
        "note": 44,
        "velocity": 100,
        "channel": 9
      },
      {
        "type": "note_on",
        "time": 29,
        "note": 44,
        "velocity": 0,
        "channel": 9
      },
      {
        "type": "note_on",
        "time": 1,
        "note": 44,
        "velocity": 100,
        "channel": 9
      },
      {
        "type": "note_on",
        "time": 29,
        "note": 44,
        "velocity": 0,
        "channel": 9
      },
      {
        "type": "note_on",
        "time": 1,
        "note": 44,
        "velocity": 100,
        "channel": 9
      },
      {
        "type": "note_on",
        "time": 29,
        "note": 44,
        "velocity": 0,
        "channel": 9
      },
      {
        "type": "note_on",
        "time": 1,
        "note": 44,
        "velocity": 100,
        "channel": 9
      },
      {
        "type": "note_on",
        "time": 29,
        "note": 44,
        "velocity": 0,
        "channel": 9
      },
      {
        "type": "note_on",
        "time": 1,
        "note": 44,
        "velocity": 100,
        "channel": 9
      },
      {
        "type": "note_on",
        "time": 29,
        "note": 44,
        "velocity": 0,
        "channel": 9
      },
      {
        "type": "note_on",
        "time": 1,
        "note": 44,
        "velocity": 100,
        "channel": 9
      },
      {
        "type": "note_on",
        "time": 29,
        "note": 44,
        "velocity": 0,
        "channel": 9
      },
      {
        "type": "note_on",
        "time": 1,
        "note": 40,
        "velocity": 100,
        "channel": 9
      },
      {
        "type": "note_on",
        "time": 0,
        "note": 44,
        "velocity": 100,
        "channel": 9
      },
      {
        "type": "note_on",
        "time": 29,
        "note": 44,
        "velocity": 0,
        "channel": 9
      },
      {
        "type": "note_on",
        "time": 1,
        "note": 44,
        "velocity": 100,
        "channel": 9
      },
      {
        "type": "note_on",
        "time": 29,
        "note": 40,
        "velocity": 0,
        "channel": 9
      },
      {
        "type": "note_on",
        "time": 0,
        "note": 44,
        "velocity": 0,
        "channel": 9
      },
      {
        "type": "note_on",
        "time": 1,
        "note": 44,
        "velocity": 100,
        "channel": 9
      },
      {
        "type": "note_on",
        "time": 0,
        "note": 57,
        "velocity": 100,
        "channel": 9
      },
      {
        "type": "note_on",
        "time": 29,
        "note": 44,
        "velocity": 0,
        "channel": 9
      },
      {
        "type": "note_on",
        "time": 1,
        "note": 44,
        "velocity": 100,
        "channel": 9
      },
      {
        "type": "note_on",
        "time": 29,
        "note": 57,
        "velocity": 0,
        "channel": 9
      },
      {
        "type": "note_on",
        "time": 0,
        "note": 44,
        "velocity": 0,
        "channel": 9
      },
      {
        "type": "note_on",
        "time": 1,
        "note": 44,
        "velocity": 100,
        "channel": 9
      },
      {
        "type": "note_on",
        "time": 29,
        "note": 44,
        "velocity": 0,
        "channel": 9
      },
      {
        "type": "note_on",
        "time": 1,
        "note": 44,
        "velocity": 100,
        "channel": 9
      },
      {
        "type": "note_on",
        "time": 29,
        "note": 44,
        "velocity": 0,
        "channel": 9
      },
      {
        "type": "note_on",
        "time": 1,
        "note": 44,
        "velocity": 100,
        "channel": 9
      },
      {
        "type": "note_on",
        "time": 29,
        "note": 44,
        "velocity": 0,
        "channel": 9
      },
      {
        "type": "note_on",
        "time": 1,
        "note": 44,
        "velocity": 100,
        "channel": 9
      },
      {
        "type": "note_on",
        "time": 29,
        "note": 44,
        "velocity": 0,
        "channel": 9
      },
      {
        "type": "note_on",
        "time": 1,
        "note": 40,
        "velocity": 100,
        "channel": 9
      },
      {
        "type": "note_on",
        "time": 0,
        "note": 44,
        "velocity": 100,
        "channel": 9
      },
      {
        "type": "note_on",
        "time": 29,
        "note": 44,
        "velocity": 0,
        "channel": 9
      },
      {
        "type": "note_on",
        "time": 1,
        "note": 44,
        "velocity": 100,
        "channel": 9
      },
      {
        "type": "note_on",
        "time": 29,
        "note": 40,
        "velocity": 0,
        "channel": 9
      },
      {
        "type": "note_on",
        "time": 0,
        "note": 44,
        "velocity": 0,
        "channel": 9
      },
      {
        "type": "note_on",
        "time": 1,
        "note": 44,
        "velocity": 100,
        "channel": 9
      },
      {
        "type": "note_on",
        "time": 29,
        "note": 44,
        "velocity": 0,
        "channel": 9
      },
      {
        "type": "note_on",
        "time": 1,
        "note": 44,
        "velocity": 100,
        "channel": 9
      },
      {
        "type": "note_on",
        "time": 29,
        "note": 44,
        "velocity": 0,
        "channel": 9
      },
      {
        "type": "note_on",
        "time": 1,
        "note": 44,
        "velocity": 100,
        "channel": 9
      },
      {
        "type": "note_on",
        "time": 29,
        "note": 44,
        "velocity": 0,
        "channel": 9
      },
      {
        "type": "note_on",
        "time": 1,
        "note": 44,
        "velocity": 100,
        "channel": 9
      },
      {
        "type": "note_on",
        "time": 29,
        "note": 44,
        "velocity": 0,
        "channel": 9
      },
      {
        "type": "note_on",
        "time": 1,
        "note": 44,
        "velocity": 100,
        "channel": 9
      },
      {
        "type": "note_on",
        "time": 29,
        "note": 44,
        "velocity": 0,
        "channel": 9
      },
      {
        "type": "note_on",
        "time": 1,
        "note": 44,
        "velocity": 100,
        "channel": 9
      },
      {
        "type": "note_on",
        "time": 29,
        "note": 44,
        "velocity": 0,
        "channel": 9
      },
      {
        "type": "note_on",
        "time": 1,
        "note": 40,
        "velocity": 100,
        "channel": 9
      },
      {
        "type": "note_on",
        "time": 0,
        "note": 44,
        "velocity": 100,
        "channel": 9
      },
      {
        "type": "note_on",
        "time": 29,
        "note": 44,
        "velocity": 0,
        "channel": 9
      },
      {
        "type": "note_on",
        "time": 1,
        "note": 44,
        "velocity": 100,
        "channel": 9
      },
      {
        "type": "note_on",
        "time": 29,
        "note": 40,
        "velocity": 0,
        "channel": 9
      },
      {
        "type": "note_on",
        "time": 0,
        "note": 44,
        "velocity": 0,
        "channel": 9
      },
      {
        "type": "note_on",
        "time": 1,
        "note": 44,
        "velocity": 100,
        "channel": 9
      },
      {
        "type": "note_on",
        "time": 29,
        "note": 44,
        "velocity": 0,
        "channel": 9
      },
      {
        "type": "note_on",
        "time": 1,
        "note": 44,
        "velocity": 100,
        "channel": 9
      },
      {
        "type": "note_on",
        "time": 29,
        "note": 44,
        "velocity": 0,
        "channel": 9
      },
      {
        "type": "note_on",
        "time": 1,
        "note": 44,
        "velocity": 100,
        "channel": 9
      },
      {
        "type": "note_on",
        "time": 29,
        "note": 44,
        "velocity": 0,
        "channel": 9
      },
      {
        "type": "note_on",
        "time": 1,
        "note": 44,
        "velocity": 100,
        "channel": 9
      },
      {
        "type": "note_on",
        "time": 29,
        "note": 44,
        "velocity": 0,
        "channel": 9
      },
      {
        "type": "note_on",
        "time": 1,
        "note": 44,
        "velocity": 100,
        "channel": 9
      },
      {
        "type": "note_on",
        "time": 29,
        "note": 44,
        "velocity": 0,
        "channel": 9
      },
      {
        "type": "note_on",
        "time": 1,
        "note": 44,
        "velocity": 100,
        "channel": 9
      },
      {
        "type": "note_on",
        "time": 29,
        "note": 44,
        "velocity": 0,
        "channel": 9
      },
      {
        "type": "note_on",
        "time": 1,
        "note": 40,
        "velocity": 100,
        "channel": 9
      },
      {
        "type": "note_on",
        "time": 0,
        "note": 44,
        "velocity": 100,
        "channel": 9
      },
      {
        "type": "note_on",
        "time": 29,
        "note": 44,
        "velocity": 0,
        "channel": 9
      },
      {
        "type": "note_on",
        "time": 1,
        "note": 44,
        "velocity": 100,
        "channel": 9
      },
      {
        "type": "note_on",
        "time": 29,
        "note": 40,
        "velocity": 0,
        "channel": 9
      },
      {
        "type": "note_on",
        "time": 0,
        "note": 44,
        "velocity": 0,
        "channel": 9
      },
      {
        "type": "note_on",
        "time": 1,
        "note": 44,
        "velocity": 100,
        "channel": 9
      },
      {
        "type": "note_on",
        "time": 29,
        "note": 44,
        "velocity": 0,
        "channel": 9
      },
      {
        "type": "note_on",
        "time": 1,
        "note": 44,
        "velocity": 100,
        "channel": 9
      },
      {
        "type": "note_on",
        "time": 29,
        "note": 44,
        "velocity": 0,
        "channel": 9
      },
      {
        "type": "note_on",
        "time": 1,
        "note": 44,
        "velocity": 100,
        "channel": 9
      },
      {
        "type": "note_on",
        "time": 29,
        "note": 44,
        "velocity": 0,
        "channel": 9
      },
      {
        "type": "note_on",
        "time": 1,
        "note": 44,
        "velocity": 100,
        "channel": 9
      },
      {
        "type": "note_on",
        "time": 29,
        "note": 44,
        "velocity": 0,
        "channel": 9
      },
      {
        "type": "note_on",
        "time": 1,
        "note": 44,
        "velocity": 100,
        "channel": 9
      },
      {
        "type": "note_on",
        "time": 29,
        "note": 44,
        "velocity": 0,
        "channel": 9
      },
      {
        "type": "note_on",
        "time": 1,
        "note": 44,
        "velocity": 100,
        "channel": 9
      },
      {
        "type": "note_on",
        "time": 29,
        "note": 44,
        "velocity": 0,
        "channel": 9
      },
      {
        "type": "note_on",
        "time": 1,
        "note": 40,
        "velocity": 100,
        "channel": 9
      },
      {
        "type": "note_on",
        "time": 0,
        "note": 44,
        "velocity": 100,
        "channel": 9
      },
      {
        "type": "note_on",
        "time": 29,
        "note": 44,
        "velocity": 0,
        "channel": 9
      },
      {
        "type": "note_on",
        "time": 1,
        "note": 44,
        "velocity": 100,
        "channel": 9
      },
      {
        "type": "note_on",
        "time": 29,
        "note": 40,
        "velocity": 0,
        "channel": 9
      },
      {
        "type": "note_on",
        "time": 0,
        "note": 44,
        "velocity": 0,
        "channel": 9
      },
      {
        "type": "note_on",
        "time": 1,
        "note": 44,
        "velocity": 100,
        "channel": 9
      },
      {
        "type": "note_on",
        "time": 29,
        "note": 44,
        "velocity": 0,
        "channel": 9
      },
      {
        "type": "note_on",
        "time": 1,
        "note": 44,
        "velocity": 100,
        "channel": 9
      },
      {
        "type": "note_on",
        "time": 29,
        "note": 44,
        "velocity": 0,
        "channel": 9
      },
      {
        "type": "note_on",
        "time": 1,
        "note": 44,
        "velocity": 100,
        "channel": 9
      },
      {
        "type": "note_on",
        "time": 0,
        "note": 57,
        "velocity": 100,
        "channel": 9
      },
      {
        "type": "note_on",
        "time": 29,
        "note": 44,
        "velocity": 0,
        "channel": 9
      },
      {
        "type": "note_on",
        "time": 1,
        "note": 44,
        "velocity": 100,
        "channel": 9
      },
      {
        "type": "note_on",
        "time": 29,
        "note": 44,
        "velocity": 0,
        "channel": 9
      },
      {
        "type": "note_on",
        "time": 1,
        "note": 44,
        "velocity": 100,
        "channel": 9
      },
      {
        "type": "note_on",
        "time": 29,
        "note": 44,
        "velocity": 0,
        "channel": 9
      },
      {
        "type": "note_on",
        "time": 1,
        "note": 44,
        "velocity": 100,
        "channel": 9
      },
      {
        "type": "note_on",
        "time": 29,
        "note": 57,
        "velocity": 0,
        "channel": 9
      },
      {
        "type": "note_on",
        "time": 0,
        "note": 44,
        "velocity": 0,
        "channel": 9
      },
      {
        "type": "note_on",
        "time": 1,
        "note": 40,
        "velocity": 100,
        "channel": 9
      },
      {
        "type": "note_on",
        "time": 0,
        "note": 44,
        "velocity": 100,
        "channel": 9
      },
      {
        "type": "note_on",
        "time": 29,
        "note": 44,
        "velocity": 0,
        "channel": 9
      },
      {
        "type": "note_on",
        "time": 1,
        "note": 44,
        "velocity": 100,
        "channel": 9
      },
      {
        "type": "note_on",
        "time": 29,
        "note": 40,
        "velocity": 0,
        "channel": 9
      },
      {
        "type": "note_on",
        "time": 0,
        "note": 44,
        "velocity": 0,
        "channel": 9
      },
      {
        "type": "note_on",
        "time": 1,
        "note": 44,
        "velocity": 100,
        "channel": 9
      },
      {
        "type": "note_on",
        "time": 29,
        "note": 44,
        "velocity": 0,
        "channel": 9
      },
      {
        "type": "note_on",
        "time": 1,
        "note": 44,
        "velocity": 100,
        "channel": 9
      },
      {
        "type": "note_on",
        "time": 29,
        "note": 44,
        "velocity": 0,
        "channel": 9
      },
      {
        "type": "note_on",
        "time": 1,
        "note": 44,
        "velocity": 100,
        "channel": 9
      },
      {
        "type": "note_on",
        "time": 29,
        "note": 44,
        "velocity": 0,
        "channel": 9
      },
      {
        "type": "note_on",
        "time": 1,
        "note": 44,
        "velocity": 100,
        "channel": 9
      },
      {
        "type": "note_on",
        "time": 29,
        "note": 44,
        "velocity": 0,
        "channel": 9
      },
      {
        "type": "note_on",
        "time": 1,
        "note": 44,
        "velocity": 100,
        "channel": 9
      },
      {
        "type": "note_on",
        "time": 29,
        "note": 44,
        "velocity": 0,
        "channel": 9
      },
      {
        "type": "note_on",
        "time": 1,
        "note": 44,
        "velocity": 100,
        "channel": 9
      },
      {
        "type": "note_on",
        "time": 29,
        "note": 44,
        "velocity": 0,
        "channel": 9
      },
      {
        "type": "note_on",
        "time": 1,
        "note": 40,
        "velocity": 100,
        "channel": 9
      },
      {
        "type": "note_on",
        "time": 0,
        "note": 44,
        "velocity": 100,
        "channel": 9
      },
      {
        "type": "note_on",
        "time": 29,
        "note": 44,
        "velocity": 0,
        "channel": 9
      },
      {
        "type": "note_on",
        "time": 1,
        "note": 44,
        "velocity": 100,
        "channel": 9
      },
      {
        "type": "note_on",
        "time": 29,
        "note": 40,
        "velocity": 0,
        "channel": 9
      },
      {
        "type": "note_on",
        "time": 0,
        "note": 44,
        "velocity": 0,
        "channel": 9
      },
      {
        "type": "note_on",
        "time": 1,
        "note": 44,
        "velocity": 100,
        "channel": 9
      },
      {
        "type": "note_on",
        "time": 29,
        "note": 44,
        "velocity": 0,
        "channel": 9
      },
      {
        "type": "note_on",
        "time": 1,
        "note": 44,
        "velocity": 100,
        "channel": 9
      },
      {
        "type": "note_on",
        "time": 29,
        "note": 44,
        "velocity": 0,
        "channel": 9
      },
      {
        "type": "note_on",
        "time": 1,
        "note": 44,
        "velocity": 100,
        "channel": 9
      },
      {
        "type": "note_on",
        "time": 29,
        "note": 44,
        "velocity": 0,
        "channel": 9
      },
      {
        "type": "note_on",
        "time": 1,
        "note": 44,
        "velocity": 100,
        "channel": 9
      },
      {
        "type": "note_on",
        "time": 29,
        "note": 44,
        "velocity": 0,
        "channel": 9
      },
      {
        "type": "note_on",
        "time": 1,
        "note": 44,
        "velocity": 100,
        "channel": 9
      },
      {
        "type": "note_on",
        "time": 29,
        "note": 44,
        "velocity": 0,
        "channel": 9
      },
      {
        "type": "note_on",
        "time": 1,
        "note": 44,
        "velocity": 100,
        "channel": 9
      },
      {
        "type": "note_on",
        "time": 29,
        "note": 44,
        "velocity": 0,
        "channel": 9
      },
      {
        "type": "note_on",
        "time": 1,
        "note": 40,
        "velocity": 100,
        "channel": 9
      },
      {
        "type": "note_on",
        "time": 0,
        "note": 44,
        "velocity": 100,
        "channel": 9
      },
      {
        "type": "note_on",
        "time": 29,
        "note": 44,
        "velocity": 0,
        "channel": 9
      },
      {
        "type": "note_on",
        "time": 1,
        "note": 44,
        "velocity": 100,
        "channel": 9
      },
      {
        "type": "note_on",
        "time": 29,
        "note": 40,
        "velocity": 0,
        "channel": 9
      },
      {
        "type": "note_on",
        "time": 0,
        "note": 44,
        "velocity": 0,
        "channel": 9
      },
      {
        "type": "note_on",
        "time": 1,
        "note": 44,
        "velocity": 100,
        "channel": 9
      },
      {
        "type": "note_on",
        "time": 29,
        "note": 44,
        "velocity": 0,
        "channel": 9
      },
      {
        "type": "note_on",
        "time": 1,
        "note": 44,
        "velocity": 100,
        "channel": 9
      },
      {
        "type": "note_on",
        "time": 29,
        "note": 44,
        "velocity": 0,
        "channel": 9
      },
      {
        "type": "note_on",
        "time": 1,
        "note": 44,
        "velocity": 100,
        "channel": 9
      },
      {
        "type": "note_on",
        "time": 29,
        "note": 44,
        "velocity": 0,
        "channel": 9
      },
      {
        "type": "note_on",
        "time": 1,
        "note": 44,
        "velocity": 100,
        "channel": 9
      },
      {
        "type": "note_on",
        "time": 29,
        "note": 44,
        "velocity": 0,
        "channel": 9
      },
      {
        "type": "note_on",
        "time": 1,
        "note": 44,
        "velocity": 100,
        "channel": 9
      },
      {
        "type": "note_on",
        "time": 29,
        "note": 44,
        "velocity": 0,
        "channel": 9
      },
      {
        "type": "note_on",
        "time": 1,
        "note": 44,
        "velocity": 100,
        "channel": 9
      },
      {
        "type": "note_on",
        "time": 29,
        "note": 44,
        "velocity": 0,
        "channel": 9
      },
      {
        "type": "note_on",
        "time": 1,
        "note": 40,
        "velocity": 100,
        "channel": 9
      },
      {
        "type": "note_on",
        "time": 0,
        "note": 44,
        "velocity": 100,
        "channel": 9
      },
      {
        "type": "note_on",
        "time": 29,
        "note": 44,
        "velocity": 0,
        "channel": 9
      },
      {
        "type": "note_on",
        "time": 1,
        "note": 44,
        "velocity": 100,
        "channel": 9
      },
      {
        "type": "note_on",
        "time": 29,
        "note": 40,
        "velocity": 0,
        "channel": 9
      },
      {
        "type": "note_on",
        "time": 0,
        "note": 44,
        "velocity": 0,
        "channel": 9
      },
      {
        "type": "note_on",
        "time": 1,
        "note": 44,
        "velocity": 100,
        "channel": 9
      },
      {
        "type": "note_on",
        "time": 29,
        "note": 44,
        "velocity": 0,
        "channel": 9
      },
      {
        "type": "note_on",
        "time": 1,
        "note": 44,
        "velocity": 100,
        "channel": 9
      },
      {
        "type": "note_on",
        "time": 29,
        "note": 44,
        "velocity": 0,
        "channel": 9
      },
      {
        "type": "note_on",
        "time": 1,
        "note": 44,
        "velocity": 100,
        "channel": 9
      },
      {
        "type": "note_on",
        "time": 0,
        "note": 57,
        "velocity": 100,
        "channel": 9
      },
      {
        "type": "note_on",
        "time": 29,
        "note": 44,
        "velocity": 0,
        "channel": 9
      },
      {
        "type": "note_on",
        "time": 1,
        "note": 44,
        "velocity": 100,
        "channel": 9
      },
      {
        "type": "note_on",
        "time": 29,
        "note": 44,
        "velocity": 0,
        "channel": 9
      },
      {
        "type": "note_on",
        "time": 1,
        "note": 44,
        "velocity": 100,
        "channel": 9
      },
      {
        "type": "note_on",
        "time": 29,
        "note": 44,
        "velocity": 0,
        "channel": 9
      },
      {
        "type": "note_on",
        "time": 1,
        "note": 44,
        "velocity": 100,
        "channel": 9
      },
      {
        "type": "note_on",
        "time": 29,
        "note": 57,
        "velocity": 0,
        "channel": 9
      },
      {
        "type": "note_on",
        "time": 0,
        "note": 44,
        "velocity": 0,
        "channel": 9
      },
      {
        "type": "note_on",
        "time": 1,
        "note": 40,
        "velocity": 100,
        "channel": 9
      },
      {
        "type": "note_on",
        "time": 0,
        "note": 44,
        "velocity": 100,
        "channel": 9
      },
      {
        "type": "note_on",
        "time": 29,
        "note": 44,
        "velocity": 0,
        "channel": 9
      },
      {
        "type": "note_on",
        "time": 1,
        "note": 44,
        "velocity": 100,
        "channel": 9
      },
      {
        "type": "note_on",
        "time": 29,
        "note": 40,
        "velocity": 0,
        "channel": 9
      },
      {
        "type": "note_on",
        "time": 0,
        "note": 44,
        "velocity": 0,
        "channel": 9
      },
      {
        "type": "note_on",
        "time": 1,
        "note": 44,
        "velocity": 100,
        "channel": 9
      },
      {
        "type": "note_on",
        "time": 29,
        "note": 44,
        "velocity": 0,
        "channel": 9
      },
      {
        "type": "note_on",
        "time": 1,
        "note": 44,
        "velocity": 100,
        "channel": 9
      },
      {
        "type": "note_on",
        "time": 29,
        "note": 44,
        "velocity": 0,
        "channel": 9
      },
      {
        "type": "note_on",
        "time": 1,
        "note": 44,
        "velocity": 100,
        "channel": 9
      },
      {
        "type": "note_on",
        "time": 29,
        "note": 44,
        "velocity": 0,
        "channel": 9
      },
      {
        "type": "note_on",
        "time": 1,
        "note": 44,
        "velocity": 100,
        "channel": 9
      },
      {
        "type": "note_on",
        "time": 29,
        "note": 44,
        "velocity": 0,
        "channel": 9
      },
      {
        "type": "note_on",
        "time": 1,
        "note": 44,
        "velocity": 100,
        "channel": 9
      },
      {
        "type": "note_on",
        "time": 29,
        "note": 44,
        "velocity": 0,
        "channel": 9
      },
      {
        "type": "note_on",
        "time": 1,
        "note": 44,
        "velocity": 100,
        "channel": 9
      },
      {
        "type": "note_on",
        "time": 29,
        "note": 44,
        "velocity": 0,
        "channel": 9
      },
      {
        "type": "note_on",
        "time": 1,
        "note": 40,
        "velocity": 100,
        "channel": 9
      },
      {
        "type": "note_on",
        "time": 0,
        "note": 44,
        "velocity": 100,
        "channel": 9
      },
      {
        "type": "note_on",
        "time": 29,
        "note": 44,
        "velocity": 0,
        "channel": 9
      },
      {
        "type": "note_on",
        "time": 1,
        "note": 44,
        "velocity": 100,
        "channel": 9
      },
      {
        "type": "note_on",
        "time": 29,
        "note": 40,
        "velocity": 0,
        "channel": 9
      },
      {
        "type": "note_on",
        "time": 0,
        "note": 44,
        "velocity": 0,
        "channel": 9
      },
      {
        "type": "note_on",
        "time": 1,
        "note": 44,
        "velocity": 100,
        "channel": 9
      },
      {
        "type": "note_on",
        "time": 29,
        "note": 44,
        "velocity": 0,
        "channel": 9
      },
      {
        "type": "note_on",
        "time": 1,
        "note": 44,
        "velocity": 100,
        "channel": 9
      },
      {
        "type": "note_on",
        "time": 29,
        "note": 44,
        "velocity": 0,
        "channel": 9
      },
      {
        "type": "note_on",
        "time": 1,
        "note": 44,
        "velocity": 100,
        "channel": 9
      },
      {
        "type": "note_on",
        "time": 29,
        "note": 44,
        "velocity": 0,
        "channel": 9
      },
      {
        "type": "note_on",
        "time": 1,
        "note": 44,
        "velocity": 100,
        "channel": 9
      },
      {
        "type": "note_on",
        "time": 29,
        "note": 44,
        "velocity": 0,
        "channel": 9
      },
      {
        "type": "note_on",
        "time": 1,
        "note": 44,
        "velocity": 100,
        "channel": 9
      },
      {
        "type": "note_on",
        "time": 29,
        "note": 44,
        "velocity": 0,
        "channel": 9
      },
      {
        "type": "note_on",
        "time": 1,
        "note": 44,
        "velocity": 100,
        "channel": 9
      },
      {
        "type": "note_on",
        "time": 29,
        "note": 44,
        "velocity": 0,
        "channel": 9
      },
      {
        "type": "note_on",
        "time": 1,
        "note": 40,
        "velocity": 100,
        "channel": 9
      },
      {
        "type": "note_on",
        "time": 0,
        "note": 44,
        "velocity": 100,
        "channel": 9
      },
      {
        "type": "note_on",
        "time": 29,
        "note": 44,
        "velocity": 0,
        "channel": 9
      },
      {
        "type": "note_on",
        "time": 1,
        "note": 44,
        "velocity": 100,
        "channel": 9
      },
      {
        "type": "note_on",
        "time": 29,
        "note": 40,
        "velocity": 0,
        "channel": 9
      },
      {
        "type": "note_on",
        "time": 0,
        "note": 44,
        "velocity": 0,
        "channel": 9
      },
      {
        "type": "note_on",
        "time": 1,
        "note": 44,
        "velocity": 100,
        "channel": 9
      },
      {
        "type": "note_on",
        "time": 29,
        "note": 44,
        "velocity": 0,
        "channel": 9
      },
      {
        "type": "note_on",
        "time": 1,
        "note": 44,
        "velocity": 100,
        "channel": 9
      },
      {
        "type": "note_on",
        "time": 29,
        "note": 44,
        "velocity": 0,
        "channel": 9
      },
      {
        "type": "note_on",
        "time": 1,
        "note": 44,
        "velocity": 100,
        "channel": 9
      },
      {
        "type": "note_on",
        "time": 29,
        "note": 44,
        "velocity": 0,
        "channel": 9
      },
      {
        "type": "note_on",
        "time": 1,
        "note": 44,
        "velocity": 100,
        "channel": 9
      },
      {
        "type": "note_on",
        "time": 29,
        "note": 44,
        "velocity": 0,
        "channel": 9
      },
      {
        "type": "note_on",
        "time": 1,
        "note": 44,
        "velocity": 100,
        "channel": 9
      },
      {
        "type": "note_on",
        "time": 29,
        "note": 44,
        "velocity": 0,
        "channel": 9
      },
      {
        "type": "note_on",
        "time": 1,
        "note": 44,
        "velocity": 100,
        "channel": 9
      },
      {
        "type": "note_on",
        "time": 29,
        "note": 44,
        "velocity": 0,
        "channel": 9
      },
      {
        "type": "note_on",
        "time": 1,
        "note": 40,
        "velocity": 100,
        "channel": 9
      },
      {
        "type": "note_on",
        "time": 0,
        "note": 44,
        "velocity": 100,
        "channel": 9
      },
      {
        "type": "note_on",
        "time": 29,
        "note": 44,
        "velocity": 0,
        "channel": 9
      },
      {
        "type": "note_on",
        "time": 1,
        "note": 44,
        "velocity": 100,
        "channel": 9
      },
      {
        "type": "note_on",
        "time": 29,
        "note": 40,
        "velocity": 0,
        "channel": 9
      },
      {
        "type": "note_on",
        "time": 0,
        "note": 44,
        "velocity": 0,
        "channel": 9
      },
      {
        "type": "note_on",
        "time": 1,
        "note": 44,
        "velocity": 100,
        "channel": 9
      },
      {
        "type": "note_on",
        "time": 29,
        "note": 44,
        "velocity": 0,
        "channel": 9
      },
      {
        "type": "note_on",
        "time": 1,
        "note": 44,
        "velocity": 100,
        "channel": 9
      },
      {
        "type": "note_on",
        "time": 29,
        "note": 44,
        "velocity": 0,
        "channel": 9
      },
      {
        "type": "note_on",
        "time": 1,
        "note": 44,
        "velocity": 100,
        "channel": 9
      },
      {
        "type": "note_on",
        "time": 0,
        "note": 57,
        "velocity": 100,
        "channel": 9
      },
      {
        "type": "note_on",
        "time": 29,
        "note": 44,
        "velocity": 0,
        "channel": 9
      },
      {
        "type": "note_on",
        "time": 1,
        "note": 44,
        "velocity": 100,
        "channel": 9
      },
      {
        "type": "note_on",
        "time": 29,
        "note": 44,
        "velocity": 0,
        "channel": 9
      },
      {
        "type": "note_on",
        "time": 1,
        "note": 44,
        "velocity": 100,
        "channel": 9
      },
      {
        "type": "note_on",
        "time": 29,
        "note": 44,
        "velocity": 0,
        "channel": 9
      },
      {
        "type": "note_on",
        "time": 1,
        "note": 44,
        "velocity": 100,
        "channel": 9
      },
      {
        "type": "note_on",
        "time": 29,
        "note": 57,
        "velocity": 0,
        "channel": 9
      },
      {
        "type": "note_on",
        "time": 0,
        "note": 44,
        "velocity": 0,
        "channel": 9
      },
      {
        "type": "note_on",
        "time": 1,
        "note": 40,
        "velocity": 100,
        "channel": 9
      },
      {
        "type": "note_on",
        "time": 0,
        "note": 44,
        "velocity": 100,
        "channel": 9
      },
      {
        "type": "note_on",
        "time": 29,
        "note": 44,
        "velocity": 0,
        "channel": 9
      },
      {
        "type": "note_on",
        "time": 1,
        "note": 44,
        "velocity": 100,
        "channel": 9
      },
      {
        "type": "note_on",
        "time": 29,
        "note": 40,
        "velocity": 0,
        "channel": 9
      },
      {
        "type": "note_on",
        "time": 0,
        "note": 44,
        "velocity": 0,
        "channel": 9
      },
      {
        "type": "note_on",
        "time": 1,
        "note": 44,
        "velocity": 100,
        "channel": 9
      },
      {
        "type": "note_on",
        "time": 29,
        "note": 44,
        "velocity": 0,
        "channel": 9
      },
      {
        "type": "note_on",
        "time": 1,
        "note": 44,
        "velocity": 100,
        "channel": 9
      },
      {
        "type": "note_on",
        "time": 29,
        "note": 44,
        "velocity": 0,
        "channel": 9
      },
      {
        "type": "note_on",
        "time": 1,
        "note": 44,
        "velocity": 100,
        "channel": 9
      },
      {
        "type": "note_on",
        "time": 29,
        "note": 44,
        "velocity": 0,
        "channel": 9
      },
      {
        "type": "note_on",
        "time": 1,
        "note": 44,
        "velocity": 100,
        "channel": 9
      },
      {
        "type": "note_on",
        "time": 29,
        "note": 44,
        "velocity": 0,
        "channel": 9
      },
      {
        "type": "note_on",
        "time": 1,
        "note": 44,
        "velocity": 100,
        "channel": 9
      },
      {
        "type": "note_on",
        "time": 29,
        "note": 44,
        "velocity": 0,
        "channel": 9
      },
      {
        "type": "note_on",
        "time": 1,
        "note": 44,
        "velocity": 100,
        "channel": 9
      },
      {
        "type": "note_on",
        "time": 29,
        "note": 44,
        "velocity": 0,
        "channel": 9
      },
      {
        "type": "note_on",
        "time": 1,
        "note": 40,
        "velocity": 100,
        "channel": 9
      },
      {
        "type": "note_on",
        "time": 0,
        "note": 44,
        "velocity": 100,
        "channel": 9
      },
      {
        "type": "note_on",
        "time": 29,
        "note": 44,
        "velocity": 0,
        "channel": 9
      },
      {
        "type": "note_on",
        "time": 1,
        "note": 44,
        "velocity": 100,
        "channel": 9
      },
      {
        "type": "note_on",
        "time": 29,
        "note": 40,
        "velocity": 0,
        "channel": 9
      },
      {
        "type": "note_on",
        "time": 0,
        "note": 44,
        "velocity": 0,
        "channel": 9
      },
      {
        "type": "note_on",
        "time": 1,
        "note": 44,
        "velocity": 100,
        "channel": 9
      },
      {
        "type": "note_on",
        "time": 29,
        "note": 44,
        "velocity": 0,
        "channel": 9
      },
      {
        "type": "note_on",
        "time": 1,
        "note": 44,
        "velocity": 100,
        "channel": 9
      },
      {
        "type": "note_on",
        "time": 29,
        "note": 44,
        "velocity": 0,
        "channel": 9
      },
      {
        "type": "note_on",
        "time": 1,
        "note": 44,
        "velocity": 100,
        "channel": 9
      },
      {
        "type": "note_on",
        "time": 29,
        "note": 44,
        "velocity": 0,
        "channel": 9
      },
      {
        "type": "note_on",
        "time": 1,
        "note": 44,
        "velocity": 100,
        "channel": 9
      },
      {
        "type": "note_on",
        "time": 29,
        "note": 44,
        "velocity": 0,
        "channel": 9
      },
      {
        "type": "note_on",
        "time": 1,
        "note": 44,
        "velocity": 100,
        "channel": 9
      },
      {
        "type": "note_on",
        "time": 29,
        "note": 44,
        "velocity": 0,
        "channel": 9
      },
      {
        "type": "note_on",
        "time": 1,
        "note": 44,
        "velocity": 100,
        "channel": 9
      },
      {
        "type": "note_on",
        "time": 29,
        "note": 44,
        "velocity": 0,
        "channel": 9
      },
      {
        "type": "note_on",
        "time": 1,
        "note": 40,
        "velocity": 100,
        "channel": 9
      },
      {
        "type": "note_on",
        "time": 0,
        "note": 44,
        "velocity": 100,
        "channel": 9
      },
      {
        "type": "note_on",
        "time": 29,
        "note": 44,
        "velocity": 0,
        "channel": 9
      },
      {
        "type": "note_on",
        "time": 1,
        "note": 44,
        "velocity": 100,
        "channel": 9
      },
      {
        "type": "note_on",
        "time": 29,
        "note": 40,
        "velocity": 0,
        "channel": 9
      },
      {
        "type": "note_on",
        "time": 0,
        "note": 44,
        "velocity": 0,
        "channel": 9
      },
      {
        "type": "note_on",
        "time": 1,
        "note": 44,
        "velocity": 100,
        "channel": 9
      },
      {
        "type": "note_on",
        "time": 29,
        "note": 44,
        "velocity": 0,
        "channel": 9
      },
      {
        "type": "note_on",
        "time": 1,
        "note": 44,
        "velocity": 100,
        "channel": 9
      },
      {
        "type": "note_on",
        "time": 29,
        "note": 44,
        "velocity": 0,
        "channel": 9
      },
      {
        "type": "note_on",
        "time": 1,
        "note": 44,
        "velocity": 100,
        "channel": 9
      },
      {
        "type": "note_on",
        "time": 29,
        "note": 44,
        "velocity": 0,
        "channel": 9
      },
      {
        "type": "note_on",
        "time": 1,
        "note": 44,
        "velocity": 100,
        "channel": 9
      },
      {
        "type": "note_on",
        "time": 29,
        "note": 44,
        "velocity": 0,
        "channel": 9
      },
      {
        "type": "note_on",
        "time": 1,
        "note": 44,
        "velocity": 100,
        "channel": 9
      },
      {
        "type": "note_on",
        "time": 29,
        "note": 44,
        "velocity": 0,
        "channel": 9
      },
      {
        "type": "note_on",
        "time": 1,
        "note": 44,
        "velocity": 100,
        "channel": 9
      },
      {
        "type": "note_on",
        "time": 29,
        "note": 44,
        "velocity": 0,
        "channel": 9
      },
      {
        "type": "note_on",
        "time": 1,
        "note": 40,
        "velocity": 100,
        "channel": 9
      },
      {
        "type": "note_on",
        "time": 0,
        "note": 44,
        "velocity": 100,
        "channel": 9
      },
      {
        "type": "note_on",
        "time": 29,
        "note": 44,
        "velocity": 0,
        "channel": 9
      },
      {
        "type": "note_on",
        "time": 1,
        "note": 44,
        "velocity": 100,
        "channel": 9
      },
      {
        "type": "note_on",
        "time": 29,
        "note": 40,
        "velocity": 0,
        "channel": 9
      },
      {
        "type": "note_on",
        "time": 0,
        "note": 44,
        "velocity": 0,
        "channel": 9
      },
      {
        "type": "note_on",
        "time": 1,
        "note": 44,
        "velocity": 100,
        "channel": 9
      },
      {
        "type": "note_on",
        "time": 29,
        "note": 44,
        "velocity": 0,
        "channel": 9
      },
      {
        "type": "note_on",
        "time": 1,
        "note": 44,
        "velocity": 100,
        "channel": 9
      },
      {
        "type": "note_on",
        "time": 29,
        "note": 44,
        "velocity": 0,
        "channel": 9
      },
      {
        "type": "note_on",
        "time": 1,
        "note": 44,
        "velocity": 100,
        "channel": 9
      },
      {
        "type": "note_on",
        "time": 0,
        "note": 57,
        "velocity": 100,
        "channel": 9
      },
      {
        "type": "note_on",
        "time": 29,
        "note": 44,
        "velocity": 0,
        "channel": 9
      },
      {
        "type": "note_on",
        "time": 1,
        "note": 44,
        "velocity": 100,
        "channel": 9
      },
      {
        "type": "note_on",
        "time": 29,
        "note": 44,
        "velocity": 0,
        "channel": 9
      },
      {
        "type": "note_on",
        "time": 1,
        "note": 44,
        "velocity": 100,
        "channel": 9
      },
      {
        "type": "note_on",
        "time": 29,
        "note": 44,
        "velocity": 0,
        "channel": 9
      },
      {
        "type": "note_on",
        "time": 1,
        "note": 44,
        "velocity": 100,
        "channel": 9
      },
      {
        "type": "note_on",
        "time": 29,
        "note": 57,
        "velocity": 0,
        "channel": 9
      },
      {
        "type": "note_on",
        "time": 0,
        "note": 44,
        "velocity": 0,
        "channel": 9
      },
      {
        "type": "note_on",
        "time": 1,
        "note": 40,
        "velocity": 100,
        "channel": 9
      },
      {
        "type": "note_on",
        "time": 0,
        "note": 44,
        "velocity": 100,
        "channel": 9
      },
      {
        "type": "note_on",
        "time": 29,
        "note": 44,
        "velocity": 0,
        "channel": 9
      },
      {
        "type": "note_on",
        "time": 1,
        "note": 44,
        "velocity": 100,
        "channel": 9
      },
      {
        "type": "note_on",
        "time": 29,
        "note": 40,
        "velocity": 0,
        "channel": 9
      },
      {
        "type": "note_on",
        "time": 0,
        "note": 44,
        "velocity": 0,
        "channel": 9
      },
      {
        "type": "note_on",
        "time": 1,
        "note": 44,
        "velocity": 100,
        "channel": 9
      },
      {
        "type": "note_on",
        "time": 29,
        "note": 44,
        "velocity": 0,
        "channel": 9
      },
      {
        "type": "note_on",
        "time": 1,
        "note": 44,
        "velocity": 100,
        "channel": 9
      },
      {
        "type": "note_on",
        "time": 29,
        "note": 44,
        "velocity": 0,
        "channel": 9
      },
      {
        "type": "note_on",
        "time": 1,
        "note": 44,
        "velocity": 100,
        "channel": 9
      },
      {
        "type": "note_on",
        "time": 29,
        "note": 44,
        "velocity": 0,
        "channel": 9
      },
      {
        "type": "note_on",
        "time": 1,
        "note": 44,
        "velocity": 100,
        "channel": 9
      },
      {
        "type": "note_on",
        "time": 29,
        "note": 44,
        "velocity": 0,
        "channel": 9
      },
      {
        "type": "note_on",
        "time": 1,
        "note": 44,
        "velocity": 100,
        "channel": 9
      },
      {
        "type": "note_on",
        "time": 29,
        "note": 44,
        "velocity": 0,
        "channel": 9
      },
      {
        "type": "note_on",
        "time": 1,
        "note": 44,
        "velocity": 100,
        "channel": 9
      },
      {
        "type": "note_on",
        "time": 29,
        "note": 44,
        "velocity": 0,
        "channel": 9
      },
      {
        "type": "note_on",
        "time": 1,
        "note": 40,
        "velocity": 100,
        "channel": 9
      },
      {
        "type": "note_on",
        "time": 0,
        "note": 44,
        "velocity": 100,
        "channel": 9
      },
      {
        "type": "note_on",
        "time": 29,
        "note": 44,
        "velocity": 0,
        "channel": 9
      },
      {
        "type": "note_on",
        "time": 1,
        "note": 44,
        "velocity": 100,
        "channel": 9
      },
      {
        "type": "note_on",
        "time": 29,
        "note": 40,
        "velocity": 0,
        "channel": 9
      },
      {
        "type": "note_on",
        "time": 0,
        "note": 44,
        "velocity": 0,
        "channel": 9
      },
      {
        "type": "note_on",
        "time": 1,
        "note": 44,
        "velocity": 100,
        "channel": 9
      },
      {
        "type": "note_on",
        "time": 29,
        "note": 44,
        "velocity": 0,
        "channel": 9
      },
      {
        "type": "note_on",
        "time": 1,
        "note": 44,
        "velocity": 100,
        "channel": 9
      },
      {
        "type": "note_on",
        "time": 29,
        "note": 44,
        "velocity": 0,
        "channel": 9
      },
      {
        "type": "note_on",
        "time": 1,
        "note": 44,
        "velocity": 100,
        "channel": 9
      },
      {
        "type": "note_on",
        "time": 29,
        "note": 44,
        "velocity": 0,
        "channel": 9
      },
      {
        "type": "note_on",
        "time": 1,
        "note": 44,
        "velocity": 100,
        "channel": 9
      },
      {
        "type": "note_on",
        "time": 29,
        "note": 44,
        "velocity": 0,
        "channel": 9
      },
      {
        "type": "note_on",
        "time": 1,
        "note": 44,
        "velocity": 100,
        "channel": 9
      },
      {
        "type": "note_on",
        "time": 29,
        "note": 44,
        "velocity": 0,
        "channel": 9
      },
      {
        "type": "note_on",
        "time": 1,
        "note": 44,
        "velocity": 100,
        "channel": 9
      },
      {
        "type": "note_on",
        "time": 29,
        "note": 44,
        "velocity": 0,
        "channel": 9
      },
      {
        "type": "note_on",
        "time": 1,
        "note": 40,
        "velocity": 100,
        "channel": 9
      },
      {
        "type": "note_on",
        "time": 0,
        "note": 44,
        "velocity": 100,
        "channel": 9
      },
      {
        "type": "note_on",
        "time": 29,
        "note": 44,
        "velocity": 0,
        "channel": 9
      },
      {
        "type": "note_on",
        "time": 1,
        "note": 44,
        "velocity": 100,
        "channel": 9
      },
      {
        "type": "note_on",
        "time": 29,
        "note": 40,
        "velocity": 0,
        "channel": 9
      },
      {
        "type": "note_on",
        "time": 0,
        "note": 44,
        "velocity": 0,
        "channel": 9
      },
      {
        "type": "note_on",
        "time": 1,
        "note": 44,
        "velocity": 100,
        "channel": 9
      },
      {
        "type": "note_on",
        "time": 29,
        "note": 44,
        "velocity": 0,
        "channel": 9
      },
      {
        "type": "note_on",
        "time": 1,
        "note": 44,
        "velocity": 100,
        "channel": 9
      },
      {
        "type": "note_on",
        "time": 29,
        "note": 44,
        "velocity": 0,
        "channel": 9
      },
      {
        "type": "note_on",
        "time": 1,
        "note": 44,
        "velocity": 100,
        "channel": 9
      },
      {
        "type": "note_on",
        "time": 29,
        "note": 44,
        "velocity": 0,
        "channel": 9
      },
      {
        "type": "note_on",
        "time": 1,
        "note": 44,
        "velocity": 100,
        "channel": 9
      },
      {
        "type": "note_on",
        "time": 29,
        "note": 44,
        "velocity": 0,
        "channel": 9
      },
      {
        "type": "note_on",
        "time": 1,
        "note": 44,
        "velocity": 100,
        "channel": 9
      },
      {
        "type": "note_on",
        "time": 29,
        "note": 44,
        "velocity": 0,
        "channel": 9
      },
      {
        "type": "note_on",
        "time": 1,
        "note": 44,
        "velocity": 100,
        "channel": 9
      },
      {
        "type": "note_on",
        "time": 29,
        "note": 44,
        "velocity": 0,
        "channel": 9
      },
      {
        "type": "note_on",
        "time": 1,
        "note": 40,
        "velocity": 100,
        "channel": 9
      },
      {
        "type": "note_on",
        "time": 0,
        "note": 44,
        "velocity": 100,
        "channel": 9
      },
      {
        "type": "note_on",
        "time": 29,
        "note": 44,
        "velocity": 0,
        "channel": 9
      },
      {
        "type": "note_on",
        "time": 1,
        "note": 44,
        "velocity": 100,
        "channel": 9
      },
      {
        "type": "note_on",
        "time": 29,
        "note": 40,
        "velocity": 0,
        "channel": 9
      },
      {
        "type": "note_on",
        "time": 0,
        "note": 44,
        "velocity": 0,
        "channel": 9
      },
      {
        "type": "note_on",
        "time": 1,
        "note": 44,
        "velocity": 100,
        "channel": 9
      },
      {
        "type": "note_on",
        "time": 29,
        "note": 44,
        "velocity": 0,
        "channel": 9
      },
      {
        "type": "note_on",
        "time": 1,
        "note": 44,
        "velocity": 100,
        "channel": 9
      },
      {
        "type": "note_on",
        "time": 29,
        "note": 44,
        "velocity": 0,
        "channel": 9
      },
      {
        "type": "note_on",
        "time": 1,
        "note": 44,
        "velocity": 100,
        "channel": 9
      },
      {
        "type": "note_on",
        "time": 0,
        "note": 57,
        "velocity": 100,
        "channel": 9
      },
      {
        "type": "note_on",
        "time": 29,
        "note": 44,
        "velocity": 0,
        "channel": 9
      },
      {
        "type": "note_on",
        "time": 1,
        "note": 44,
        "velocity": 100,
        "channel": 9
      },
      {
        "type": "note_on",
        "time": 29,
        "note": 44,
        "velocity": 0,
        "channel": 9
      },
      {
        "type": "note_on",
        "time": 1,
        "note": 44,
        "velocity": 100,
        "channel": 9
      },
      {
        "type": "note_on",
        "time": 29,
        "note": 44,
        "velocity": 0,
        "channel": 9
      },
      {
        "type": "note_on",
        "time": 1,
        "note": 44,
        "velocity": 100,
        "channel": 9
      },
      {
        "type": "note_on",
        "time": 29,
        "note": 57,
        "velocity": 0,
        "channel": 9
      },
      {
        "type": "note_on",
        "time": 0,
        "note": 44,
        "velocity": 0,
        "channel": 9
      },
      {
        "type": "note_on",
        "time": 1,
        "note": 40,
        "velocity": 100,
        "channel": 9
      },
      {
        "type": "note_on",
        "time": 0,
        "note": 44,
        "velocity": 100,
        "channel": 9
      },
      {
        "type": "note_on",
        "time": 29,
        "note": 44,
        "velocity": 0,
        "channel": 9
      },
      {
        "type": "note_on",
        "time": 1,
        "note": 44,
        "velocity": 100,
        "channel": 9
      },
      {
        "type": "note_on",
        "time": 29,
        "note": 40,
        "velocity": 0,
        "channel": 9
      },
      {
        "type": "note_on",
        "time": 0,
        "note": 44,
        "velocity": 0,
        "channel": 9
      },
      {
        "type": "note_on",
        "time": 1,
        "note": 44,
        "velocity": 100,
        "channel": 9
      },
      {
        "type": "note_on",
        "time": 29,
        "note": 44,
        "velocity": 0,
        "channel": 9
      },
      {
        "type": "note_on",
        "time": 1,
        "note": 44,
        "velocity": 100,
        "channel": 9
      },
      {
        "type": "note_on",
        "time": 29,
        "note": 44,
        "velocity": 0,
        "channel": 9
      },
      {
        "type": "note_on",
        "time": 1,
        "note": 44,
        "velocity": 100,
        "channel": 9
      },
      {
        "type": "note_on",
        "time": 29,
        "note": 44,
        "velocity": 0,
        "channel": 9
      },
      {
        "type": "note_on",
        "time": 1,
        "note": 44,
        "velocity": 100,
        "channel": 9
      },
      {
        "type": "note_on",
        "time": 29,
        "note": 44,
        "velocity": 0,
        "channel": 9
      },
      {
        "type": "note_on",
        "time": 1,
        "note": 44,
        "velocity": 100,
        "channel": 9
      },
      {
        "type": "note_on",
        "time": 29,
        "note": 44,
        "velocity": 0,
        "channel": 9
      },
      {
        "type": "note_on",
        "time": 1,
        "note": 44,
        "velocity": 100,
        "channel": 9
      },
      {
        "type": "note_on",
        "time": 29,
        "note": 44,
        "velocity": 0,
        "channel": 9
      },
      {
        "type": "note_on",
        "time": 1,
        "note": 40,
        "velocity": 100,
        "channel": 9
      },
      {
        "type": "note_on",
        "time": 0,
        "note": 44,
        "velocity": 100,
        "channel": 9
      },
      {
        "type": "note_on",
        "time": 0,
        "note": 57,
        "velocity": 100,
        "channel": 9
      },
      {
        "type": "note_on",
        "time": 29,
        "note": 44,
        "velocity": 0,
        "channel": 9
      },
      {
        "type": "note_on",
        "time": 1,
        "note": 44,
        "velocity": 100,
        "channel": 9
      },
      {
        "type": "note_on",
        "time": 29,
        "note": 40,
        "velocity": 0,
        "channel": 9
      },
      {
        "type": "note_on",
        "time": 0,
        "note": 57,
        "velocity": 0,
        "channel": 9
      },
      {
        "type": "note_on",
        "time": 0,
        "note": 44,
        "velocity": 0,
        "channel": 9
      },
      {
        "type": "note_on",
        "time": 1,
        "note": 44,
        "velocity": 100,
        "channel": 9
      },
      {
        "type": "note_on",
        "time": 0,
        "note": 57,
        "velocity": 100,
        "channel": 9
      },
      {
        "type": "note_on",
        "time": 29,
        "note": 44,
        "velocity": 0,
        "channel": 9
      },
      {
        "type": "note_on",
        "time": 1,
        "note": 44,
        "velocity": 100,
        "channel": 9
      },
      {
        "type": "note_on",
        "time": 29,
        "note": 57,
        "velocity": 0,
        "channel": 9
      },
      {
        "type": "note_on",
        "time": 0,
        "note": 44,
        "velocity": 0,
        "channel": 9
      },
      {
        "type": "note_on",
        "time": 1,
        "note": 44,
        "velocity": 100,
        "channel": 9
      },
      {
        "type": "note_on",
        "time": 29,
        "note": 44,
        "velocity": 0,
        "channel": 9
      },
      {
        "type": "note_on",
        "time": 1,
        "note": 44,
        "velocity": 100,
        "channel": 9
      },
      {
        "type": "note_on",
        "time": 29,
        "note": 44,
        "velocity": 0,
        "channel": 9
      },
      {
        "type": "note_on",
        "time": 1,
        "note": 44,
        "velocity": 100,
        "channel": 9
      },
      {
        "type": "note_on",
        "time": 29,
        "note": 44,
        "velocity": 0,
        "channel": 9
      },
      {
        "type": "note_on",
        "time": 1,
        "note": 44,
        "velocity": 100,
        "channel": 9
      },
      {
        "type": "note_on",
        "time": 29,
        "note": 44,
        "velocity": 0,
        "channel": 9
      },
      {
        "type": "note_on",
        "time": 1,
        "note": 40,
        "velocity": 100,
        "channel": 9
      },
      {
        "type": "note_on",
        "time": 0,
        "note": 44,
        "velocity": 100,
        "channel": 9
      },
      {
        "type": "note_on",
        "time": 29,
        "note": 44,
        "velocity": 0,
        "channel": 9
      },
      {
        "type": "note_on",
        "time": 1,
        "note": 44,
        "velocity": 100,
        "channel": 9
      },
      {
        "type": "note_on",
        "time": 29,
        "note": 40,
        "velocity": 0,
        "channel": 9
      },
      {
        "type": "note_on",
        "time": 0,
        "note": 44,
        "velocity": 0,
        "channel": 9
      },
      {
        "type": "note_on",
        "time": 1,
        "note": 44,
        "velocity": 100,
        "channel": 9
      },
      {
        "type": "note_on",
        "time": 29,
        "note": 44,
        "velocity": 0,
        "channel": 9
      },
      {
        "type": "note_on",
        "time": 1,
        "note": 44,
        "velocity": 100,
        "channel": 9
      },
      {
        "type": "note_on",
        "time": 29,
        "note": 44,
        "velocity": 0,
        "channel": 9
      },
      {
        "type": "note_on",
        "time": 1,
        "note": 44,
        "velocity": 100,
        "channel": 9
      },
      {
        "type": "note_on",
        "time": 29,
        "note": 44,
        "velocity": 0,
        "channel": 9
      },
      {
        "type": "note_on",
        "time": 1,
        "note": 44,
        "velocity": 100,
        "channel": 9
      },
      {
        "type": "note_on",
        "time": 29,
        "note": 44,
        "velocity": 0,
        "channel": 9
      },
      {
        "type": "note_on",
        "time": 1,
        "note": 44,
        "velocity": 100,
        "channel": 9
      },
      {
        "type": "note_on",
        "time": 29,
        "note": 44,
        "velocity": 0,
        "channel": 9
      },
      {
        "type": "note_on",
        "time": 1,
        "note": 44,
        "velocity": 100,
        "channel": 9
      },
      {
        "type": "note_on",
        "time": 29,
        "note": 44,
        "velocity": 0,
        "channel": 9
      },
      {
        "type": "note_on",
        "time": 1,
        "note": 40,
        "velocity": 100,
        "channel": 9
      },
      {
        "type": "note_on",
        "time": 0,
        "note": 44,
        "velocity": 100,
        "channel": 9
      },
      {
        "type": "note_on",
        "time": 0,
        "note": 57,
        "velocity": 100,
        "channel": 9
      },
      {
        "type": "note_on",
        "time": 29,
        "note": 44,
        "velocity": 0,
        "channel": 9
      },
      {
        "type": "note_on",
        "time": 1,
        "note": 44,
        "velocity": 100,
        "channel": 9
      },
      {
        "type": "note_on",
        "time": 29,
        "note": 40,
        "velocity": 0,
        "channel": 9
      },
      {
        "type": "note_on",
        "time": 0,
        "note": 57,
        "velocity": 0,
        "channel": 9
      },
      {
        "type": "note_on",
        "time": 0,
        "note": 44,
        "velocity": 0,
        "channel": 9
      },
      {
        "type": "note_on",
        "time": 1,
        "note": 44,
        "velocity": 100,
        "channel": 9
      },
      {
        "type": "note_on",
        "time": 0,
        "note": 57,
        "velocity": 100,
        "channel": 9
      },
      {
        "type": "note_on",
        "time": 29,
        "note": 44,
        "velocity": 0,
        "channel": 9
      },
      {
        "type": "note_on",
        "time": 1,
        "note": 44,
        "velocity": 100,
        "channel": 9
      },
      {
        "type": "note_on",
        "time": 29,
        "note": 57,
        "velocity": 0,
        "channel": 9
      },
      {
        "type": "note_on",
        "time": 0,
        "note": 44,
        "velocity": 0,
        "channel": 9
      },
      {
        "type": "note_on",
        "time": 1,
        "note": 44,
        "velocity": 100,
        "channel": 9
      },
      {
        "type": "note_on",
        "time": 29,
        "note": 44,
        "velocity": 0,
        "channel": 9
      },
      {
        "type": "note_on",
        "time": 1,
        "note": 44,
        "velocity": 100,
        "channel": 9
      },
      {
        "type": "note_on",
        "time": 29,
        "note": 44,
        "velocity": 0,
        "channel": 9
      },
      {
        "type": "note_on",
        "time": 1,
        "note": 44,
        "velocity": 100,
        "channel": 9
      },
      {
        "type": "note_on",
        "time": 29,
        "note": 44,
        "velocity": 0,
        "channel": 9
      },
      {
        "type": "note_on",
        "time": 1,
        "note": 44,
        "velocity": 100,
        "channel": 9
      },
      {
        "type": "note_on",
        "time": 29,
        "note": 44,
        "velocity": 0,
        "channel": 9
      },
      {
        "type": "note_on",
        "time": 1,
        "note": 40,
        "velocity": 100,
        "channel": 9
      },
      {
        "type": "note_on",
        "time": 0,
        "note": 44,
        "velocity": 100,
        "channel": 9
      },
      {
        "type": "note_on",
        "time": 29,
        "note": 44,
        "velocity": 0,
        "channel": 9
      },
      {
        "type": "note_on",
        "time": 1,
        "note": 44,
        "velocity": 100,
        "channel": 9
      },
      {
        "type": "note_on",
        "time": 29,
        "note": 40,
        "velocity": 0,
        "channel": 9
      },
      {
        "type": "note_on",
        "time": 0,
        "note": 44,
        "velocity": 0,
        "channel": 9
      },
      {
        "type": "note_on",
        "time": 1,
        "note": 44,
        "velocity": 100,
        "channel": 9
      },
      {
        "type": "note_on",
        "time": 29,
        "note": 44,
        "velocity": 0,
        "channel": 9
      },
      {
        "type": "note_on",
        "time": 1,
        "note": 44,
        "velocity": 100,
        "channel": 9
      },
      {
        "type": "note_on",
        "time": 29,
        "note": 44,
        "velocity": 0,
        "channel": 9
      },
      {
        "type": "note_on",
        "time": 1,
        "note": 44,
        "velocity": 100,
        "channel": 9
      },
      {
        "type": "note_on",
        "time": 29,
        "note": 44,
        "velocity": 0,
        "channel": 9
      },
      {
        "type": "note_on",
        "time": 1,
        "note": 44,
        "velocity": 100,
        "channel": 9
      },
      {
        "type": "note_on",
        "time": 29,
        "note": 44,
        "velocity": 0,
        "channel": 9
      },
      {
        "type": "note_on",
        "time": 1,
        "note": 44,
        "velocity": 100,
        "channel": 9
      },
      {
        "type": "note_on",
        "time": 29,
        "note": 44,
        "velocity": 0,
        "channel": 9
      },
      {
        "type": "note_on",
        "time": 1,
        "note": 44,
        "velocity": 100,
        "channel": 9
      },
      {
        "type": "note_on",
        "time": 29,
        "note": 44,
        "velocity": 0,
        "channel": 9
      },
      {
        "type": "note_on",
        "time": 1,
        "note": 40,
        "velocity": 100,
        "channel": 9
      },
      {
        "type": "note_on",
        "time": 0,
        "note": 44,
        "velocity": 100,
        "channel": 9
      },
      {
        "type": "note_on",
        "time": 0,
        "note": 57,
        "velocity": 100,
        "channel": 9
      },
      {
        "type": "note_on",
        "time": 29,
        "note": 44,
        "velocity": 0,
        "channel": 9
      },
      {
        "type": "note_on",
        "time": 1,
        "note": 44,
        "velocity": 100,
        "channel": 9
      },
      {
        "type": "note_on",
        "time": 29,
        "note": 40,
        "velocity": 0,
        "channel": 9
      },
      {
        "type": "note_on",
        "time": 0,
        "note": 57,
        "velocity": 0,
        "channel": 9
      },
      {
        "type": "note_on",
        "time": 0,
        "note": 44,
        "velocity": 0,
        "channel": 9
      },
      {
        "type": "note_on",
        "time": 1,
        "note": 44,
        "velocity": 100,
        "channel": 9
      },
      {
        "type": "note_on",
        "time": 0,
        "note": 57,
        "velocity": 100,
        "channel": 9
      },
      {
        "type": "note_on",
        "time": 29,
        "note": 44,
        "velocity": 0,
        "channel": 9
      },
      {
        "type": "note_on",
        "time": 1,
        "note": 44,
        "velocity": 100,
        "channel": 9
      },
      {
        "type": "note_on",
        "time": 29,
        "note": 57,
        "velocity": 0,
        "channel": 9
      },
      {
        "type": "note_on",
        "time": 0,
        "note": 44,
        "velocity": 0,
        "channel": 9
      },
      {
        "type": "note_on",
        "time": 1,
        "note": 44,
        "velocity": 100,
        "channel": 9
      },
      {
        "type": "note_on",
        "time": 29,
        "note": 44,
        "velocity": 0,
        "channel": 9
      },
      {
        "type": "note_on",
        "time": 1,
        "note": 44,
        "velocity": 100,
        "channel": 9
      },
      {
        "type": "note_on",
        "time": 29,
        "note": 44,
        "velocity": 0,
        "channel": 9
      },
      {
        "type": "note_on",
        "time": 1,
        "note": 44,
        "velocity": 100,
        "channel": 9
      },
      {
        "type": "note_on",
        "time": 29,
        "note": 44,
        "velocity": 0,
        "channel": 9
      },
      {
        "type": "note_on",
        "time": 1,
        "note": 44,
        "velocity": 100,
        "channel": 9
      },
      {
        "type": "note_on",
        "time": 29,
        "note": 44,
        "velocity": 0,
        "channel": 9
      },
      {
        "type": "note_on",
        "time": 1,
        "note": 40,
        "velocity": 100,
        "channel": 9
      },
      {
        "type": "note_on",
        "time": 0,
        "note": 44,
        "velocity": 100,
        "channel": 9
      },
      {
        "type": "note_on",
        "time": 29,
        "note": 44,
        "velocity": 0,
        "channel": 9
      },
      {
        "type": "note_on",
        "time": 1,
        "note": 44,
        "velocity": 100,
        "channel": 9
      },
      {
        "type": "note_on",
        "time": 29,
        "note": 40,
        "velocity": 0,
        "channel": 9
      },
      {
        "type": "note_on",
        "time": 0,
        "note": 44,
        "velocity": 0,
        "channel": 9
      },
      {
        "type": "note_on",
        "time": 1,
        "note": 44,
        "velocity": 100,
        "channel": 9
      },
      {
        "type": "note_on",
        "time": 29,
        "note": 44,
        "velocity": 0,
        "channel": 9
      },
      {
        "type": "note_on",
        "time": 1,
        "note": 44,
        "velocity": 100,
        "channel": 9
      },
      {
        "type": "note_on",
        "time": 29,
        "note": 44,
        "velocity": 0,
        "channel": 9
      },
      {
        "type": "note_on",
        "time": 1,
        "note": 44,
        "velocity": 100,
        "channel": 9
      },
      {
        "type": "note_on",
        "time": 29,
        "note": 44,
        "velocity": 0,
        "channel": 9
      },
      {
        "type": "note_on",
        "time": 1,
        "note": 44,
        "velocity": 100,
        "channel": 9
      },
      {
        "type": "note_on",
        "time": 29,
        "note": 44,
        "velocity": 0,
        "channel": 9
      },
      {
        "type": "note_on",
        "time": 1,
        "note": 44,
        "velocity": 100,
        "channel": 9
      },
      {
        "type": "note_on",
        "time": 29,
        "note": 44,
        "velocity": 0,
        "channel": 9
      },
      {
        "type": "note_on",
        "time": 1,
        "note": 44,
        "velocity": 100,
        "channel": 9
      },
      {
        "type": "note_on",
        "time": 29,
        "note": 44,
        "velocity": 0,
        "channel": 9
      },
      {
        "type": "note_on",
        "time": 1,
        "note": 40,
        "velocity": 100,
        "channel": 9
      },
      {
        "type": "note_on",
        "time": 0,
        "note": 44,
        "velocity": 100,
        "channel": 9
      },
      {
        "type": "note_on",
        "time": 0,
        "note": 57,
        "velocity": 100,
        "channel": 9
      },
      {
        "type": "note_on",
        "time": 29,
        "note": 44,
        "velocity": 0,
        "channel": 9
      },
      {
        "type": "note_on",
        "time": 1,
        "note": 44,
        "velocity": 100,
        "channel": 9
      },
      {
        "type": "note_on",
        "time": 29,
        "note": 40,
        "velocity": 0,
        "channel": 9
      },
      {
        "type": "note_on",
        "time": 0,
        "note": 57,
        "velocity": 0,
        "channel": 9
      },
      {
        "type": "note_on",
        "time": 0,
        "note": 44,
        "velocity": 0,
        "channel": 9
      },
      {
        "type": "note_on",
        "time": 1,
        "note": 44,
        "velocity": 100,
        "channel": 9
      },
      {
        "type": "note_on",
        "time": 0,
        "note": 57,
        "velocity": 100,
        "channel": 9
      },
      {
        "type": "note_on",
        "time": 29,
        "note": 44,
        "velocity": 0,
        "channel": 9
      },
      {
        "type": "note_on",
        "time": 1,
        "note": 44,
        "velocity": 100,
        "channel": 9
      },
      {
        "type": "note_on",
        "time": 29,
        "note": 57,
        "velocity": 0,
        "channel": 9
      },
      {
        "type": "note_on",
        "time": 0,
        "note": 44,
        "velocity": 0,
        "channel": 9
      },
      {
        "type": "note_on",
        "time": 1,
        "note": 44,
        "velocity": 100,
        "channel": 9
      },
      {
        "type": "note_on",
        "time": 29,
        "note": 44,
        "velocity": 0,
        "channel": 9
      },
      {
        "type": "note_on",
        "time": 1,
        "note": 44,
        "velocity": 100,
        "channel": 9
      },
      {
        "type": "note_on",
        "time": 29,
        "note": 44,
        "velocity": 0,
        "channel": 9
      },
      {
        "type": "note_on",
        "time": 1,
        "note": 44,
        "velocity": 100,
        "channel": 9
      },
      {
        "type": "note_on",
        "time": 29,
        "note": 44,
        "velocity": 0,
        "channel": 9
      },
      {
        "type": "note_on",
        "time": 1,
        "note": 44,
        "velocity": 100,
        "channel": 9
      },
      {
        "type": "note_on",
        "time": 29,
        "note": 44,
        "velocity": 0,
        "channel": 9
      },
      {
        "type": "note_on",
        "time": 1,
        "note": 40,
        "velocity": 100,
        "channel": 9
      },
      {
        "type": "note_on",
        "time": 0,
        "note": 44,
        "velocity": 100,
        "channel": 9
      },
      {
        "type": "note_on",
        "time": 29,
        "note": 44,
        "velocity": 0,
        "channel": 9
      },
      {
        "type": "note_on",
        "time": 1,
        "note": 44,
        "velocity": 100,
        "channel": 9
      },
      {
        "type": "note_on",
        "time": 29,
        "note": 40,
        "velocity": 0,
        "channel": 9
      },
      {
        "type": "note_on",
        "time": 0,
        "note": 44,
        "velocity": 0,
        "channel": 9
      },
      {
        "type": "note_on",
        "time": 1,
        "note": 44,
        "velocity": 100,
        "channel": 9
      },
      {
        "type": "note_on",
        "time": 29,
        "note": 44,
        "velocity": 0,
        "channel": 9
      },
      {
        "type": "note_on",
        "time": 1,
        "note": 44,
        "velocity": 100,
        "channel": 9
      },
      {
        "type": "note_on",
        "time": 29,
        "note": 44,
        "velocity": 0,
        "channel": 9
      },
      {
        "type": "note_on",
        "time": 1,
        "note": 44,
        "velocity": 100,
        "channel": 9
      },
      {
        "type": "note_on",
        "time": 29,
        "note": 44,
        "velocity": 0,
        "channel": 9
      },
      {
        "type": "note_on",
        "time": 1,
        "note": 44,
        "velocity": 100,
        "channel": 9
      },
      {
        "type": "note_on",
        "time": 29,
        "note": 44,
        "velocity": 0,
        "channel": 9
      },
      {
        "type": "note_on",
        "time": 1,
        "note": 44,
        "velocity": 100,
        "channel": 9
      },
      {
        "type": "note_on",
        "time": 29,
        "note": 44,
        "velocity": 0,
        "channel": 9
      },
      {
        "type": "note_on",
        "time": 1,
        "note": 44,
        "velocity": 100,
        "channel": 9
      },
      {
        "type": "note_on",
        "time": 29,
        "note": 44,
        "velocity": 0,
        "channel": 9
      },
      {
        "type": "note_on",
        "time": 1,
        "note": 40,
        "velocity": 100,
        "channel": 9
      },
      {
        "type": "note_on",
        "time": 0,
        "note": 44,
        "velocity": 100,
        "channel": 9
      },
      {
        "type": "note_on",
        "time": 0,
        "note": 57,
        "velocity": 100,
        "channel": 9
      },
      {
        "type": "note_on",
        "time": 29,
        "note": 44,
        "velocity": 0,
        "channel": 9
      },
      {
        "type": "note_on",
        "time": 1,
        "note": 44,
        "velocity": 100,
        "channel": 9
      },
      {
        "type": "note_on",
        "time": 29,
        "note": 40,
        "velocity": 0,
        "channel": 9
      },
      {
        "type": "note_on",
        "time": 0,
        "note": 57,
        "velocity": 0,
        "channel": 9
      },
      {
        "type": "note_on",
        "time": 0,
        "note": 44,
        "velocity": 0,
        "channel": 9
      },
      {
        "type": "note_on",
        "time": 1,
        "note": 44,
        "velocity": 100,
        "channel": 9
      },
      {
        "type": "note_on",
        "time": 0,
        "note": 57,
        "velocity": 100,
        "channel": 9
      },
      {
        "type": "note_on",
        "time": 29,
        "note": 44,
        "velocity": 0,
        "channel": 9
      },
      {
        "type": "note_on",
        "time": 1,
        "note": 44,
        "velocity": 100,
        "channel": 9
      },
      {
        "type": "note_on",
        "time": 29,
        "note": 57,
        "velocity": 0,
        "channel": 9
      },
      {
        "type": "note_on",
        "time": 0,
        "note": 44,
        "velocity": 0,
        "channel": 9
      },
      {
        "type": "note_on",
        "time": 1,
        "note": 44,
        "velocity": 100,
        "channel": 9
      },
      {
        "type": "note_on",
        "time": 29,
        "note": 44,
        "velocity": 0,
        "channel": 9
      },
      {
        "type": "note_on",
        "time": 1,
        "note": 44,
        "velocity": 100,
        "channel": 9
      },
      {
        "type": "note_on",
        "time": 29,
        "note": 44,
        "velocity": 0,
        "channel": 9
      },
      {
        "type": "note_on",
        "time": 1,
        "note": 44,
        "velocity": 100,
        "channel": 9
      },
      {
        "type": "note_on",
        "time": 29,
        "note": 44,
        "velocity": 0,
        "channel": 9
      },
      {
        "type": "note_on",
        "time": 1,
        "note": 44,
        "velocity": 100,
        "channel": 9
      },
      {
        "type": "note_on",
        "time": 29,
        "note": 44,
        "velocity": 0,
        "channel": 9
      },
      {
        "type": "note_on",
        "time": 1,
        "note": 40,
        "velocity": 100,
        "channel": 9
      },
      {
        "type": "note_on",
        "time": 0,
        "note": 44,
        "velocity": 100,
        "channel": 9
      },
      {
        "type": "note_on",
        "time": 29,
        "note": 44,
        "velocity": 0,
        "channel": 9
      },
      {
        "type": "note_on",
        "time": 1,
        "note": 44,
        "velocity": 100,
        "channel": 9
      },
      {
        "type": "note_on",
        "time": 29,
        "note": 40,
        "velocity": 0,
        "channel": 9
      },
      {
        "type": "note_on",
        "time": 0,
        "note": 44,
        "velocity": 0,
        "channel": 9
      },
      {
        "type": "note_on",
        "time": 1,
        "note": 44,
        "velocity": 100,
        "channel": 9
      },
      {
        "type": "note_on",
        "time": 29,
        "note": 44,
        "velocity": 0,
        "channel": 9
      },
      {
        "type": "note_on",
        "time": 1,
        "note": 44,
        "velocity": 100,
        "channel": 9
      },
      {
        "type": "note_on",
        "time": 29,
        "note": 44,
        "velocity": 0,
        "channel": 9
      },
      {
        "type": "note_on",
        "time": 1,
        "note": 44,
        "velocity": 100,
        "channel": 9
      },
      {
        "type": "note_on",
        "time": 29,
        "note": 44,
        "velocity": 0,
        "channel": 9
      },
      {
        "type": "note_on",
        "time": 1,
        "note": 44,
        "velocity": 100,
        "channel": 9
      },
      {
        "type": "note_on",
        "time": 29,
        "note": 44,
        "velocity": 0,
        "channel": 9
      },
      {
        "type": "note_on",
        "time": 1,
        "note": 44,
        "velocity": 100,
        "channel": 9
      },
      {
        "type": "note_on",
        "time": 29,
        "note": 44,
        "velocity": 0,
        "channel": 9
      },
      {
        "type": "note_on",
        "time": 1,
        "note": 44,
        "velocity": 100,
        "channel": 9
      },
      {
        "type": "note_on",
        "time": 29,
        "note": 44,
        "velocity": 0,
        "channel": 9
      },
      {
        "type": "note_on",
        "time": 1,
        "note": 40,
        "velocity": 100,
        "channel": 9
      },
      {
        "type": "note_on",
        "time": 0,
        "note": 44,
        "velocity": 100,
        "channel": 9
      },
      {
        "type": "note_on",
        "time": 0,
        "note": 57,
        "velocity": 100,
        "channel": 9
      },
      {
        "type": "note_on",
        "time": 29,
        "note": 44,
        "velocity": 0,
        "channel": 9
      },
      {
        "type": "note_on",
        "time": 1,
        "note": 44,
        "velocity": 100,
        "channel": 9
      },
      {
        "type": "note_on",
        "time": 29,
        "note": 40,
        "velocity": 0,
        "channel": 9
      },
      {
        "type": "note_on",
        "time": 0,
        "note": 57,
        "velocity": 0,
        "channel": 9
      },
      {
        "type": "note_on",
        "time": 0,
        "note": 44,
        "velocity": 0,
        "channel": 9
      },
      {
        "type": "note_on",
        "time": 1,
        "note": 44,
        "velocity": 100,
        "channel": 9
      },
      {
        "type": "note_on",
        "time": 0,
        "note": 57,
        "velocity": 100,
        "channel": 9
      },
      {
        "type": "note_on",
        "time": 29,
        "note": 44,
        "velocity": 0,
        "channel": 9
      },
      {
        "type": "note_on",
        "time": 1,
        "note": 44,
        "velocity": 100,
        "channel": 9
      },
      {
        "type": "note_on",
        "time": 29,
        "note": 57,
        "velocity": 0,
        "channel": 9
      },
      {
        "type": "note_on",
        "time": 0,
        "note": 44,
        "velocity": 0,
        "channel": 9
      },
      {
        "type": "note_on",
        "time": 1,
        "note": 44,
        "velocity": 100,
        "channel": 9
      },
      {
        "type": "note_on",
        "time": 29,
        "note": 44,
        "velocity": 0,
        "channel": 9
      },
      {
        "type": "note_on",
        "time": 1,
        "note": 44,
        "velocity": 100,
        "channel": 9
      },
      {
        "type": "note_on",
        "time": 29,
        "note": 44,
        "velocity": 0,
        "channel": 9
      },
      {
        "type": "note_on",
        "time": 1,
        "note": 44,
        "velocity": 100,
        "channel": 9
      },
      {
        "type": "note_on",
        "time": 29,
        "note": 44,
        "velocity": 0,
        "channel": 9
      },
      {
        "type": "note_on",
        "time": 1,
        "note": 44,
        "velocity": 100,
        "channel": 9
      },
      {
        "type": "note_on",
        "time": 29,
        "note": 44,
        "velocity": 0,
        "channel": 9
      },
      {
        "type": "note_on",
        "time": 1,
        "note": 40,
        "velocity": 100,
        "channel": 9
      },
      {
        "type": "note_on",
        "time": 0,
        "note": 44,
        "velocity": 100,
        "channel": 9
      },
      {
        "type": "note_on",
        "time": 29,
        "note": 44,
        "velocity": 0,
        "channel": 9
      },
      {
        "type": "note_on",
        "time": 1,
        "note": 44,
        "velocity": 100,
        "channel": 9
      },
      {
        "type": "note_on",
        "time": 29,
        "note": 40,
        "velocity": 0,
        "channel": 9
      },
      {
        "type": "note_on",
        "time": 0,
        "note": 44,
        "velocity": 0,
        "channel": 9
      },
      {
        "type": "note_on",
        "time": 1,
        "note": 44,
        "velocity": 100,
        "channel": 9
      },
      {
        "type": "note_on",
        "time": 29,
        "note": 44,
        "velocity": 0,
        "channel": 9
      },
      {
        "type": "note_on",
        "time": 1,
        "note": 44,
        "velocity": 100,
        "channel": 9
      },
      {
        "type": "note_on",
        "time": 29,
        "note": 44,
        "velocity": 0,
        "channel": 9
      },
      {
        "type": "note_on",
        "time": 1,
        "note": 44,
        "velocity": 100,
        "channel": 9
      },
      {
        "type": "note_on",
        "time": 29,
        "note": 44,
        "velocity": 0,
        "channel": 9
      },
      {
        "type": "note_on",
        "time": 1,
        "note": 44,
        "velocity": 100,
        "channel": 9
      },
      {
        "type": "note_on",
        "time": 29,
        "note": 44,
        "velocity": 0,
        "channel": 9
      },
      {
        "type": "note_on",
        "time": 1,
        "note": 44,
        "velocity": 100,
        "channel": 9
      },
      {
        "type": "note_on",
        "time": 29,
        "note": 44,
        "velocity": 0,
        "channel": 9
      },
      {
        "type": "note_on",
        "time": 1,
        "note": 44,
        "velocity": 100,
        "channel": 9
      },
      {
        "type": "note_on",
        "time": 29,
        "note": 44,
        "velocity": 0,
        "channel": 9
      },
      {
        "type": "note_on",
        "time": 1,
        "note": 40,
        "velocity": 100,
        "channel": 9
      },
      {
        "type": "note_on",
        "time": 0,
        "note": 44,
        "velocity": 100,
        "channel": 9
      },
      {
        "type": "note_on",
        "time": 0,
        "note": 57,
        "velocity": 100,
        "channel": 9
      },
      {
        "type": "note_on",
        "time": 29,
        "note": 44,
        "velocity": 0,
        "channel": 9
      },
      {
        "type": "note_on",
        "time": 1,
        "note": 44,
        "velocity": 100,
        "channel": 9
      },
      {
        "type": "note_on",
        "time": 29,
        "note": 40,
        "velocity": 0,
        "channel": 9
      },
      {
        "type": "note_on",
        "time": 0,
        "note": 57,
        "velocity": 0,
        "channel": 9
      },
      {
        "type": "note_on",
        "time": 0,
        "note": 44,
        "velocity": 0,
        "channel": 9
      },
      {
        "type": "note_on",
        "time": 1,
        "note": 44,
        "velocity": 100,
        "channel": 9
      },
      {
        "type": "note_on",
        "time": 0,
        "note": 57,
        "velocity": 100,
        "channel": 9
      },
      {
        "type": "note_on",
        "time": 29,
        "note": 44,
        "velocity": 0,
        "channel": 9
      },
      {
        "type": "note_on",
        "time": 1,
        "note": 44,
        "velocity": 100,
        "channel": 9
      },
      {
        "type": "note_on",
        "time": 29,
        "note": 57,
        "velocity": 0,
        "channel": 9
      },
      {
        "type": "note_on",
        "time": 0,
        "note": 44,
        "velocity": 0,
        "channel": 9
      },
      {
        "type": "note_on",
        "time": 1,
        "note": 44,
        "velocity": 100,
        "channel": 9
      },
      {
        "type": "note_on",
        "time": 29,
        "note": 44,
        "velocity": 0,
        "channel": 9
      },
      {
        "type": "note_on",
        "time": 1,
        "note": 44,
        "velocity": 100,
        "channel": 9
      },
      {
        "type": "note_on",
        "time": 29,
        "note": 44,
        "velocity": 0,
        "channel": 9
      },
      {
        "type": "note_on",
        "time": 1,
        "note": 44,
        "velocity": 100,
        "channel": 9
      },
      {
        "type": "note_on",
        "time": 29,
        "note": 44,
        "velocity": 0,
        "channel": 9
      },
      {
        "type": "note_on",
        "time": 1,
        "note": 44,
        "velocity": 100,
        "channel": 9
      },
      {
        "type": "note_on",
        "time": 29,
        "note": 44,
        "velocity": 0,
        "channel": 9
      },
      {
        "type": "note_on",
        "time": 1,
        "note": 40,
        "velocity": 100,
        "channel": 9
      },
      {
        "type": "note_on",
        "time": 0,
        "note": 44,
        "velocity": 100,
        "channel": 9
      },
      {
        "type": "note_on",
        "time": 29,
        "note": 44,
        "velocity": 0,
        "channel": 9
      },
      {
        "type": "note_on",
        "time": 1,
        "note": 44,
        "velocity": 100,
        "channel": 9
      },
      {
        "type": "note_on",
        "time": 29,
        "note": 40,
        "velocity": 0,
        "channel": 9
      },
      {
        "type": "note_on",
        "time": 0,
        "note": 44,
        "velocity": 0,
        "channel": 9
      },
      {
        "type": "note_on",
        "time": 1,
        "note": 44,
        "velocity": 100,
        "channel": 9
      },
      {
        "type": "note_on",
        "time": 29,
        "note": 44,
        "velocity": 0,
        "channel": 9
      },
      {
        "type": "note_on",
        "time": 1,
        "note": 44,
        "velocity": 100,
        "channel": 9
      },
      {
        "type": "note_on",
        "time": 29,
        "note": 44,
        "velocity": 0,
        "channel": 9
      },
      {
        "type": "note_on",
        "time": 1,
        "note": 48,
        "velocity": 100,
        "channel": 9
      },
      {
        "type": "note_on",
        "time": 14,
        "note": 48,
        "velocity": 0,
        "channel": 9
      },
      {
        "type": "note_on",
        "time": 1,
        "note": 48,
        "velocity": 100,
        "channel": 9
      },
      {
        "type": "note_on",
        "time": 14,
        "note": 48,
        "velocity": 0,
        "channel": 9
      },
      {
        "type": "note_on",
        "time": 1,
        "note": 48,
        "velocity": 100,
        "channel": 9
      },
      {
        "type": "note_on",
        "time": 29,
        "note": 48,
        "velocity": 0,
        "channel": 9
      },
      {
        "type": "note_on",
        "time": 1,
        "note": 47,
        "velocity": 100,
        "channel": 9
      },
      {
        "type": "note_on",
        "time": 14,
        "note": 47,
        "velocity": 0,
        "channel": 9
      },
      {
        "type": "note_on",
        "time": 1,
        "note": 47,
        "velocity": 100,
        "channel": 9
      },
      {
        "type": "note_on",
        "time": 14,
        "note": 47,
        "velocity": 0,
        "channel": 9
      },
      {
        "type": "note_on",
        "time": 1,
        "note": 47,
        "velocity": 100,
        "channel": 9
      },
      {
        "type": "note_on",
        "time": 29,
        "note": 47,
        "velocity": 0,
        "channel": 9
      },
      {
        "type": "note_on",
        "time": 1,
        "note": 45,
        "velocity": 100,
        "channel": 9
      },
      {
        "type": "note_on",
        "time": 14,
        "note": 45,
        "velocity": 0,
        "channel": 9
      },
      {
        "type": "note_on",
        "time": 1,
        "note": 45,
        "velocity": 100,
        "channel": 9
      },
      {
        "type": "note_on",
        "time": 14,
        "note": 45,
        "velocity": 0,
        "channel": 9
      },
      {
        "type": "note_on",
        "time": 1,
        "note": 45,
        "velocity": 100,
        "channel": 9
      },
      {
        "type": "note_on",
        "time": 29,
        "note": 45,
        "velocity": 0,
        "channel": 9
      },
      {
        "type": "note_on",
        "time": 1,
        "note": 43,
        "velocity": 100,
        "channel": 9
      },
      {
        "type": "note_on",
        "time": 14,
        "note": 43,
        "velocity": 0,
        "channel": 9
      },
      {
        "type": "note_on",
        "time": 1,
        "note": 43,
        "velocity": 100,
        "channel": 9
      },
      {
        "type": "note_on",
        "time": 14,
        "note": 43,
        "velocity": 0,
        "channel": 9
      },
      {
        "type": "note_on",
        "time": 1,
        "note": 43,
        "velocity": 100,
        "channel": 9
      },
      {
        "type": "note_on",
        "time": 29,
        "note": 43,
        "velocity": 0,
        "channel": 9
      },
      {
        "type": "note_on",
        "time": 1,
        "note": 44,
        "velocity": 100,
        "channel": 9
      },
      {
        "type": "note_on",
        "time": 0,
        "note": 57,
        "velocity": 100,
        "channel": 9
      },
      {
        "type": "note_on",
        "time": 29,
        "note": 44,
        "velocity": 0,
        "channel": 9
      },
      {
        "type": "note_on",
        "time": 1,
        "note": 44,
        "velocity": 100,
        "channel": 9
      },
      {
        "type": "note_on",
        "time": 29,
        "note": 44,
        "velocity": 0,
        "channel": 9
      },
      {
        "type": "note_on",
        "time": 1,
        "note": 44,
        "velocity": 100,
        "channel": 9
      },
      {
        "type": "note_on",
        "time": 29,
        "note": 44,
        "velocity": 0,
        "channel": 9
      },
      {
        "type": "note_on",
        "time": 1,
        "note": 44,
        "velocity": 100,
        "channel": 9
      },
      {
        "type": "note_on",
        "time": 29,
        "note": 57,
        "velocity": 0,
        "channel": 9
      },
      {
        "type": "note_on",
        "time": 0,
        "note": 44,
        "velocity": 0,
        "channel": 9
      },
      {
        "type": "note_on",
        "time": 1,
        "note": 40,
        "velocity": 100,
        "channel": 9
      },
      {
        "type": "note_on",
        "time": 0,
        "note": 44,
        "velocity": 100,
        "channel": 9
      },
      {
        "type": "control_change",
        "time": 0,
        "control": 7,
        "value": 90,
        "channel": 9
      },
      {
        "type": "note_on",
        "time": 29,
        "note": 44,
        "velocity": 0,
        "channel": 9
      },
      {
        "type": "note_on",
        "time": 1,
        "note": 44,
        "velocity": 100,
        "channel": 9
      },
      {
        "type": "note_on",
        "time": 29,
        "note": 40,
        "velocity": 0,
        "channel": 9
      },
      {
        "type": "note_on",
        "time": 0,
        "note": 44,
        "velocity": 0,
        "channel": 9
      },
      {
        "type": "note_on",
        "time": 1,
        "note": 44,
        "velocity": 100,
        "channel": 9
      },
      {
        "type": "note_on",
        "time": 29,
        "note": 44,
        "velocity": 0,
        "channel": 9
      },
      {
        "type": "note_on",
        "time": 1,
        "note": 44,
        "velocity": 100,
        "channel": 9
      },
      {
        "type": "note_on",
        "time": 29,
        "note": 44,
        "velocity": 0,
        "channel": 9
      },
      {
        "type": "control_change",
        "time": 1,
        "control": 7,
        "value": 87,
        "channel": 9
      },
      {
        "type": "note_on",
        "time": 0,
        "note": 44,
        "velocity": 100,
        "channel": 9
      },
      {
        "type": "note_on",
        "time": 29,
        "note": 44,
        "velocity": 0,
        "channel": 9
      },
      {
        "type": "note_on",
        "time": 1,
        "note": 44,
        "velocity": 100,
        "channel": 9
      },
      {
        "type": "note_on",
        "time": 29,
        "note": 44,
        "velocity": 0,
        "channel": 9
      },
      {
        "type": "note_on",
        "time": 1,
        "note": 44,
        "velocity": 100,
        "channel": 9
      },
      {
        "type": "note_on",
        "time": 29,
        "note": 44,
        "velocity": 0,
        "channel": 9
      },
      {
        "type": "note_on",
        "time": 1,
        "note": 44,
        "velocity": 100,
        "channel": 9
      },
      {
        "type": "note_on",
        "time": 29,
        "note": 44,
        "velocity": 0,
        "channel": 9
      },
      {
        "type": "control_change",
        "time": 1,
        "control": 7,
        "value": 84,
        "channel": 9
      },
      {
        "type": "note_on",
        "time": 0,
        "note": 44,
        "velocity": 100,
        "channel": 9
      },
      {
        "type": "note_on",
        "time": 0,
        "note": 40,
        "velocity": 100,
        "channel": 9
      },
      {
        "type": "note_on",
        "time": 29,
        "note": 44,
        "velocity": 0,
        "channel": 9
      },
      {
        "type": "note_on",
        "time": 1,
        "note": 44,
        "velocity": 100,
        "channel": 9
      },
      {
        "type": "note_on",
        "time": 29,
        "note": 40,
        "velocity": 0,
        "channel": 9
      },
      {
        "type": "note_on",
        "time": 0,
        "note": 44,
        "velocity": 0,
        "channel": 9
      },
      {
        "type": "note_on",
        "time": 1,
        "note": 44,
        "velocity": 100,
        "channel": 9
      },
      {
        "type": "note_on",
        "time": 29,
        "note": 44,
        "velocity": 0,
        "channel": 9
      },
      {
        "type": "note_on",
        "time": 1,
        "note": 44,
        "velocity": 100,
        "channel": 9
      },
      {
        "type": "note_on",
        "time": 29,
        "note": 44,
        "velocity": 0,
        "channel": 9
      },
      {
        "type": "note_on",
        "time": 1,
        "note": 44,
        "velocity": 100,
        "channel": 9
      },
      {
        "type": "control_change",
        "time": 0,
        "control": 7,
        "value": 81,
        "channel": 9
      },
      {
        "type": "note_on",
        "time": 29,
        "note": 44,
        "velocity": 0,
        "channel": 9
      },
      {
        "type": "note_on",
        "time": 1,
        "note": 44,
        "velocity": 100,
        "channel": 9
      },
      {
        "type": "note_on",
        "time": 29,
        "note": 44,
        "velocity": 0,
        "channel": 9
      },
      {
        "type": "note_on",
        "time": 1,
        "note": 44,
        "velocity": 100,
        "channel": 9
      },
      {
        "type": "note_on",
        "time": 29,
        "note": 44,
        "velocity": 0,
        "channel": 9
      },
      {
        "type": "note_on",
        "time": 1,
        "note": 44,
        "velocity": 100,
        "channel": 9
      },
      {
        "type": "note_on",
        "time": 29,
        "note": 44,
        "velocity": 0,
        "channel": 9
      },
      {
        "type": "note_on",
        "time": 1,
        "note": 40,
        "velocity": 100,
        "channel": 9
      },
      {
        "type": "note_on",
        "time": 0,
        "note": 44,
        "velocity": 100,
        "channel": 9
      },
      {
        "type": "control_change",
        "time": 0,
        "control": 7,
        "value": 78,
        "channel": 9
      },
      {
        "type": "note_on",
        "time": 29,
        "note": 44,
        "velocity": 0,
        "channel": 9
      },
      {
        "type": "note_on",
        "time": 1,
        "note": 44,
        "velocity": 100,
        "channel": 9
      },
      {
        "type": "note_on",
        "time": 29,
        "note": 40,
        "velocity": 0,
        "channel": 9
      },
      {
        "type": "note_on",
        "time": 0,
        "note": 44,
        "velocity": 0,
        "channel": 9
      },
      {
        "type": "note_on",
        "time": 1,
        "note": 44,
        "velocity": 100,
        "channel": 9
      },
      {
        "type": "note_on",
        "time": 29,
        "note": 44,
        "velocity": 0,
        "channel": 9
      },
      {
        "type": "note_on",
        "time": 1,
        "note": 44,
        "velocity": 100,
        "channel": 9
      },
      {
        "type": "note_on",
        "time": 29,
        "note": 44,
        "velocity": 0,
        "channel": 9
      },
      {
        "type": "note_on",
        "time": 1,
        "note": 44,
        "velocity": 100,
        "channel": 9
      },
      {
        "type": "control_change",
        "time": 0,
        "control": 7,
        "value": 75,
        "channel": 9
      },
      {
        "type": "note_on",
        "time": 29,
        "note": 44,
        "velocity": 0,
        "channel": 9
      },
      {
        "type": "note_on",
        "time": 1,
        "note": 44,
        "velocity": 100,
        "channel": 9
      },
      {
        "type": "note_on",
        "time": 29,
        "note": 44,
        "velocity": 0,
        "channel": 9
      },
      {
        "type": "note_on",
        "time": 1,
        "note": 44,
        "velocity": 100,
        "channel": 9
      },
      {
        "type": "note_on",
        "time": 29,
        "note": 44,
        "velocity": 0,
        "channel": 9
      },
      {
        "type": "note_on",
        "time": 1,
        "note": 44,
        "velocity": 100,
        "channel": 9
      },
      {
        "type": "note_on",
        "time": 29,
        "note": 44,
        "velocity": 0,
        "channel": 9
      },
      {
        "type": "control_change",
        "time": 1,
        "control": 7,
        "value": 72,
        "channel": 9
      },
      {
        "type": "note_on",
        "time": 0,
        "note": 40,
        "velocity": 100,
        "channel": 9
      },
      {
        "type": "note_on",
        "time": 0,
        "note": 44,
        "velocity": 100,
        "channel": 9
      },
      {
        "type": "note_on",
        "time": 29,
        "note": 44,
        "velocity": 0,
        "channel": 9
      },
      {
        "type": "note_on",
        "time": 1,
        "note": 44,
        "velocity": 100,
        "channel": 9
      },
      {
        "type": "note_on",
        "time": 29,
        "note": 40,
        "velocity": 0,
        "channel": 9
      },
      {
        "type": "note_on",
        "time": 0,
        "note": 44,
        "velocity": 0,
        "channel": 9
      },
      {
        "type": "note_on",
        "time": 1,
        "note": 44,
        "velocity": 100,
        "channel": 9
      },
      {
        "type": "note_on",
        "time": 29,
        "note": 44,
        "velocity": 0,
        "channel": 9
      },
      {
        "type": "note_on",
        "time": 1,
        "note": 44,
        "velocity": 100,
        "channel": 9
      },
      {
        "type": "note_on",
        "time": 29,
        "note": 44,
        "velocity": 0,
        "channel": 9
      },
      {
        "type": "note_on",
        "time": 1,
        "note": 44,
        "velocity": 100,
        "channel": 9
      },
      {
        "type": "control_change",
        "time": 0,
        "control": 7,
        "value": 69,
        "channel": 9
      },
      {
        "type": "note_on",
        "time": 0,
        "note": 57,
        "velocity": 100,
        "channel": 9
      },
      {
        "type": "note_on",
        "time": 29,
        "note": 44,
        "velocity": 0,
        "channel": 9
      },
      {
        "type": "note_on",
        "time": 1,
        "note": 44,
        "velocity": 100,
        "channel": 9
      },
      {
        "type": "note_on",
        "time": 29,
        "note": 44,
        "velocity": 0,
        "channel": 9
      },
      {
        "type": "note_on",
        "time": 1,
        "note": 44,
        "velocity": 100,
        "channel": 9
      },
      {
        "type": "note_on",
        "time": 29,
        "note": 44,
        "velocity": 0,
        "channel": 9
      },
      {
        "type": "note_on",
        "time": 1,
        "note": 44,
        "velocity": 100,
        "channel": 9
      },
      {
        "type": "note_on",
        "time": 29,
        "note": 57,
        "velocity": 0,
        "channel": 9
      },
      {
        "type": "note_on",
        "time": 0,
        "note": 44,
        "velocity": 0,
        "channel": 9
      },
      {
        "type": "control_change",
        "time": 1,
        "control": 7,
        "value": 66,
        "channel": 9
      },
      {
        "type": "note_on",
        "time": 0,
        "note": 40,
        "velocity": 100,
        "channel": 9
      },
      {
        "type": "note_on",
        "time": 0,
        "note": 44,
        "velocity": 100,
        "channel": 9
      },
      {
        "type": "note_on",
        "time": 29,
        "note": 44,
        "velocity": 0,
        "channel": 9
      },
      {
        "type": "note_on",
        "time": 1,
        "note": 44,
        "velocity": 100,
        "channel": 9
      },
      {
        "type": "note_on",
        "time": 29,
        "note": 40,
        "velocity": 0,
        "channel": 9
      },
      {
        "type": "note_on",
        "time": 0,
        "note": 44,
        "velocity": 0,
        "channel": 9
      },
      {
        "type": "note_on",
        "time": 1,
        "note": 44,
        "velocity": 100,
        "channel": 9
      },
      {
        "type": "note_on",
        "time": 29,
        "note": 44,
        "velocity": 0,
        "channel": 9
      },
      {
        "type": "note_on",
        "time": 1,
        "note": 44,
        "velocity": 100,
        "channel": 9
      },
      {
        "type": "note_on",
        "time": 29,
        "note": 44,
        "velocity": 0,
        "channel": 9
      },
      {
        "type": "note_on",
        "time": 1,
        "note": 44,
        "velocity": 100,
        "channel": 9
      },
      {
        "type": "control_change",
        "time": 0,
        "control": 7,
        "value": 63,
        "channel": 9
      },
      {
        "type": "note_on",
        "time": 29,
        "note": 44,
        "velocity": 0,
        "channel": 9
      },
      {
        "type": "note_on",
        "time": 1,
        "note": 44,
        "velocity": 100,
        "channel": 9
      },
      {
        "type": "note_on",
        "time": 29,
        "note": 44,
        "velocity": 0,
        "channel": 9
      },
      {
        "type": "note_on",
        "time": 1,
        "note": 44,
        "velocity": 100,
        "channel": 9
      },
      {
        "type": "note_on",
        "time": 29,
        "note": 44,
        "velocity": 0,
        "channel": 9
      },
      {
        "type": "note_on",
        "time": 1,
        "note": 44,
        "velocity": 100,
        "channel": 9
      },
      {
        "type": "note_on",
        "time": 29,
        "note": 44,
        "velocity": 0,
        "channel": 9
      },
      {
        "type": "note_on",
        "time": 1,
        "note": 40,
        "velocity": 100,
        "channel": 9
      },
      {
        "type": "note_on",
        "time": 0,
        "note": 44,
        "velocity": 100,
        "channel": 9
      },
      {
        "type": "control_change",
        "time": 0,
        "control": 7,
        "value": 60,
        "channel": 9
      },
      {
        "type": "note_on",
        "time": 29,
        "note": 44,
        "velocity": 0,
        "channel": 9
      },
      {
        "type": "note_on",
        "time": 1,
        "note": 44,
        "velocity": 100,
        "channel": 9
      },
      {
        "type": "note_on",
        "time": 29,
        "note": 40,
        "velocity": 0,
        "channel": 9
      },
      {
        "type": "note_on",
        "time": 0,
        "note": 44,
        "velocity": 0,
        "channel": 9
      },
      {
        "type": "note_on",
        "time": 1,
        "note": 44,
        "velocity": 100,
        "channel": 9
      },
      {
        "type": "note_on",
        "time": 29,
        "note": 44,
        "velocity": 0,
        "channel": 9
      },
      {
        "type": "note_on",
        "time": 1,
        "note": 44,
        "velocity": 100,
        "channel": 9
      },
      {
        "type": "note_on",
        "time": 29,
        "note": 44,
        "velocity": 0,
        "channel": 9
      },
      {
        "type": "note_on",
        "time": 1,
        "note": 44,
        "velocity": 100,
        "channel": 9
      },
      {
        "type": "control_change",
        "time": 0,
        "control": 7,
        "value": 57,
        "channel": 9
      },
      {
        "type": "note_on",
        "time": 29,
        "note": 44,
        "velocity": 0,
        "channel": 9
      },
      {
        "type": "note_on",
        "time": 1,
        "note": 44,
        "velocity": 100,
        "channel": 9
      },
      {
        "type": "note_on",
        "time": 29,
        "note": 44,
        "velocity": 0,
        "channel": 9
      },
      {
        "type": "note_on",
        "time": 1,
        "note": 44,
        "velocity": 100,
        "channel": 9
      },
      {
        "type": "note_on",
        "time": 29,
        "note": 44,
        "velocity": 0,
        "channel": 9
      },
      {
        "type": "note_on",
        "time": 1,
        "note": 44,
        "velocity": 100,
        "channel": 9
      },
      {
        "type": "note_on",
        "time": 29,
        "note": 44,
        "velocity": 0,
        "channel": 9
      },
      {
        "type": "note_on",
        "time": 1,
        "note": 44,
        "velocity": 100,
        "channel": 9
      },
      {
        "type": "control_change",
        "time": 0,
        "control": 7,
        "value": 54,
        "channel": 9
      },
      {
        "type": "note_on",
        "time": 0,
        "note": 40,
        "velocity": 100,
        "channel": 9
      },
      {
        "type": "note_on",
        "time": 29,
        "note": 44,
        "velocity": 0,
        "channel": 9
      },
      {
        "type": "note_on",
        "time": 1,
        "note": 44,
        "velocity": 100,
        "channel": 9
      },
      {
        "type": "note_on",
        "time": 29,
        "note": 40,
        "velocity": 0,
        "channel": 9
      },
      {
        "type": "note_on",
        "time": 0,
        "note": 44,
        "velocity": 0,
        "channel": 9
      },
      {
        "type": "note_on",
        "time": 1,
        "note": 44,
        "velocity": 100,
        "channel": 9
      },
      {
        "type": "note_on",
        "time": 29,
        "note": 44,
        "velocity": 0,
        "channel": 9
      },
      {
        "type": "note_on",
        "time": 1,
        "note": 44,
        "velocity": 100,
        "channel": 9
      },
      {
        "type": "note_on",
        "time": 29,
        "note": 44,
        "velocity": 0,
        "channel": 9
      },
      {
        "type": "note_on",
        "time": 1,
        "note": 44,
        "velocity": 100,
        "channel": 9
      },
      {
        "type": "control_change",
        "time": 0,
        "control": 7,
        "value": 51,
        "channel": 9
      },
      {
        "type": "note_on",
        "time": 29,
        "note": 44,
        "velocity": 0,
        "channel": 9
      },
      {
        "type": "note_on",
        "time": 1,
        "note": 44,
        "velocity": 100,
        "channel": 9
      },
      {
        "type": "note_on",
        "time": 29,
        "note": 44,
        "velocity": 0,
        "channel": 9
      },
      {
        "type": "note_on",
        "time": 1,
        "note": 44,
        "velocity": 100,
        "channel": 9
      },
      {
        "type": "note_on",
        "time": 29,
        "note": 44,
        "velocity": 0,
        "channel": 9
      },
      {
        "type": "note_on",
        "time": 1,
        "note": 44,
        "velocity": 100,
        "channel": 9
      },
      {
        "type": "note_on",
        "time": 29,
        "note": 44,
        "velocity": 0,
        "channel": 9
      },
      {
        "type": "control_change",
        "time": 1,
        "control": 7,
        "value": 48,
        "channel": 9
      },
      {
        "type": "note_on",
        "time": 0,
        "note": 44,
        "velocity": 100,
        "channel": 9
      },
      {
        "type": "note_on",
        "time": 0,
        "note": 40,
        "velocity": 100,
        "channel": 9
      },
      {
        "type": "note_on",
        "time": 29,
        "note": 44,
        "velocity": 0,
        "channel": 9
      },
      {
        "type": "note_on",
        "time": 1,
        "note": 44,
        "velocity": 100,
        "channel": 9
      },
      {
        "type": "note_on",
        "time": 29,
        "note": 40,
        "velocity": 0,
        "channel": 9
      },
      {
        "type": "note_on",
        "time": 0,
        "note": 44,
        "velocity": 0,
        "channel": 9
      },
      {
        "type": "note_on",
        "time": 1,
        "note": 44,
        "velocity": 100,
        "channel": 9
      },
      {
        "type": "note_on",
        "time": 29,
        "note": 44,
        "velocity": 0,
        "channel": 9
      },
      {
        "type": "note_on",
        "time": 1,
        "note": 44,
        "velocity": 100,
        "channel": 9
      },
      {
        "type": "note_on",
        "time": 29,
        "note": 44,
        "velocity": 0,
        "channel": 9
      },
      {
        "type": "control_change",
        "time": 1,
        "control": 7,
        "value": 45,
        "channel": 9
      },
      {
        "type": "note_on",
        "time": 0,
        "note": 44,
        "velocity": 100,
        "channel": 9
      },
      {
        "type": "note_on",
        "time": 29,
        "note": 44,
        "velocity": 0,
        "channel": 9
      },
      {
        "type": "note_on",
        "time": 1,
        "note": 44,
        "velocity": 100,
        "channel": 9
      },
      {
        "type": "note_on",
        "time": 29,
        "note": 44,
        "velocity": 0,
        "channel": 9
      },
      {
        "type": "note_on",
        "time": 1,
        "note": 44,
        "velocity": 100,
        "channel": 9
      },
      {
        "type": "note_on",
        "time": 29,
        "note": 44,
        "velocity": 0,
        "channel": 9
      },
      {
        "type": "note_on",
        "time": 1,
        "note": 44,
        "velocity": 100,
        "channel": 9
      },
      {
        "type": "note_on",
        "time": 29,
        "note": 44,
        "velocity": 0,
        "channel": 9
      },
      {
        "type": "control_change",
        "time": 1,
        "control": 7,
        "value": 42,
        "channel": 9
      },
      {
        "type": "note_on",
        "time": 0,
        "note": 40,
        "velocity": 100,
        "channel": 9
      },
      {
        "type": "note_on",
        "time": 0,
        "note": 44,
        "velocity": 100,
        "channel": 9
      },
      {
        "type": "note_on",
        "time": 29,
        "note": 44,
        "velocity": 0,
        "channel": 9
      },
      {
        "type": "note_on",
        "time": 1,
        "note": 44,
        "velocity": 100,
        "channel": 9
      },
      {
        "type": "note_on",
        "time": 29,
        "note": 40,
        "velocity": 0,
        "channel": 9
      },
      {
        "type": "note_on",
        "time": 0,
        "note": 44,
        "velocity": 0,
        "channel": 9
      },
      {
        "type": "note_on",
        "time": 1,
        "note": 44,
        "velocity": 100,
        "channel": 9
      },
      {
        "type": "note_on",
        "time": 29,
        "note": 44,
        "velocity": 0,
        "channel": 9
      },
      {
        "type": "note_on",
        "time": 1,
        "note": 44,
        "velocity": 100,
        "channel": 9
      },
      {
        "type": "note_on",
        "time": 29,
        "note": 44,
        "velocity": 0,
        "channel": 9
      },
      {
        "type": "note_on",
        "time": 1,
        "note": 44,
        "velocity": 100,
        "channel": 9
      },
      {
        "type": "control_change",
        "time": 0,
        "control": 7,
        "value": 39,
        "channel": 9
      },
      {
        "type": "note_on",
        "time": 29,
        "note": 44,
        "velocity": 0,
        "channel": 9
      },
      {
        "type": "note_on",
        "time": 1,
        "note": 44,
        "velocity": 100,
        "channel": 9
      },
      {
        "type": "note_on",
        "time": 29,
        "note": 44,
        "velocity": 0,
        "channel": 9
      },
      {
        "type": "note_on",
        "time": 1,
        "note": 44,
        "velocity": 100,
        "channel": 9
      },
      {
        "type": "note_on",
        "time": 29,
        "note": 44,
        "velocity": 0,
        "channel": 9
      },
      {
        "type": "note_on",
        "time": 1,
        "note": 44,
        "velocity": 100,
        "channel": 9
      },
      {
        "type": "note_on",
        "time": 29,
        "note": 44,
        "velocity": 0,
        "channel": 9
      },
      {
        "type": "note_on",
        "time": 1,
        "note": 40,
        "velocity": 100,
        "channel": 9
      },
      {
        "type": "control_change",
        "time": 0,
        "control": 7,
        "value": 36,
        "channel": 9
      },
      {
        "type": "note_on",
        "time": 0,
        "note": 44,
        "velocity": 100,
        "channel": 9
      },
      {
        "type": "note_on",
        "time": 29,
        "note": 44,
        "velocity": 0,
        "channel": 9
      },
      {
        "type": "note_on",
        "time": 1,
        "note": 44,
        "velocity": 100,
        "channel": 9
      },
      {
        "type": "note_on",
        "time": 29,
        "note": 40,
        "velocity": 0,
        "channel": 9
      },
      {
        "type": "note_on",
        "time": 0,
        "note": 44,
        "velocity": 0,
        "channel": 9
      },
      {
        "type": "note_on",
        "time": 1,
        "note": 44,
        "velocity": 100,
        "channel": 9
      },
      {
        "type": "note_on",
        "time": 29,
        "note": 44,
        "velocity": 0,
        "channel": 9
      },
      {
        "type": "note_on",
        "time": 1,
        "note": 44,
        "velocity": 100,
        "channel": 9
      },
      {
        "type": "note_on",
        "time": 29,
        "note": 44,
        "velocity": 0,
        "channel": 9
      },
      {
        "type": "note_on",
        "time": 1,
        "note": 44,
        "velocity": 100,
        "channel": 9
      },
      {
        "type": "control_change",
        "time": 0,
        "control": 7,
        "value": 33,
        "channel": 9
      },
      {
        "type": "note_on",
        "time": 29,
        "note": 44,
        "velocity": 0,
        "channel": 9
      },
      {
        "type": "note_on",
        "time": 1,
        "note": 44,
        "velocity": 100,
        "channel": 9
      },
      {
        "type": "note_on",
        "time": 29,
        "note": 44,
        "velocity": 0,
        "channel": 9
      },
      {
        "type": "note_on",
        "time": 1,
        "note": 44,
        "velocity": 100,
        "channel": 9
      },
      {
        "type": "note_on",
        "time": 29,
        "note": 44,
        "velocity": 0,
        "channel": 9
      },
      {
        "type": "note_on",
        "time": 1,
        "note": 44,
        "velocity": 100,
        "channel": 9
      },
      {
        "type": "note_on",
        "time": 29,
        "note": 44,
        "velocity": 0,
        "channel": 9
      },
      {
        "type": "note_on",
        "time": 1,
        "note": 44,
        "velocity": 100,
        "channel": 9
      },
      {
        "type": "note_on",
        "time": 0,
        "note": 40,
        "velocity": 100,
        "channel": 9
      },
      {
        "type": "control_change",
        "time": 0,
        "control": 7,
        "value": 30,
        "channel": 9
      },
      {
        "type": "note_on",
        "time": 29,
        "note": 44,
        "velocity": 0,
        "channel": 9
      },
      {
        "type": "note_on",
        "time": 1,
        "note": 44,
        "velocity": 100,
        "channel": 9
      },
      {
        "type": "note_on",
        "time": 29,
        "note": 40,
        "velocity": 0,
        "channel": 9
      },
      {
        "type": "note_on",
        "time": 0,
        "note": 44,
        "velocity": 0,
        "channel": 9
      },
      {
        "type": "note_on",
        "time": 1,
        "note": 44,
        "velocity": 100,
        "channel": 9
      },
      {
        "type": "note_on",
        "time": 29,
        "note": 44,
        "velocity": 0,
        "channel": 9
      },
      {
        "type": "note_on",
        "time": 1,
        "note": 44,
        "velocity": 100,
        "channel": 9
      },
      {
        "type": "note_on",
        "time": 29,
        "note": 44,
        "velocity": 0,
        "channel": 9
      },
      {
        "type": "note_on",
        "time": 1,
        "note": 44,
        "velocity": 100,
        "channel": 9
      },
      {
        "type": "control_change",
        "time": 0,
        "control": 7,
        "value": 27,
        "channel": 9
      },
      {
        "type": "note_on",
        "time": 29,
        "note": 44,
        "velocity": 0,
        "channel": 9
      },
      {
        "type": "note_on",
        "time": 1,
        "note": 44,
        "velocity": 100,
        "channel": 9
      },
      {
        "type": "note_on",
        "time": 29,
        "note": 44,
        "velocity": 0,
        "channel": 9
      },
      {
        "type": "note_on",
        "time": 1,
        "note": 44,
        "velocity": 100,
        "channel": 9
      },
      {
        "type": "note_on",
        "time": 29,
        "note": 44,
        "velocity": 0,
        "channel": 9
      },
      {
        "type": "note_on",
        "time": 1,
        "note": 44,
        "velocity": 100,
        "channel": 9
      },
      {
        "type": "note_on",
        "time": 29,
        "note": 44,
        "velocity": 0,
        "channel": 9
      },
      {
        "type": "note_on",
        "time": 1,
        "note": 44,
        "velocity": 100,
        "channel": 9
      },
      {
        "type": "note_on",
        "time": 0,
        "note": 40,
        "velocity": 100,
        "channel": 9
      },
      {
        "type": "control_change",
        "time": 0,
        "control": 7,
        "value": 24,
        "channel": 9
      },
      {
        "type": "note_on",
        "time": 29,
        "note": 44,
        "velocity": 0,
        "channel": 9
      },
      {
        "type": "note_on",
        "time": 1,
        "note": 44,
        "velocity": 100,
        "channel": 9
      },
      {
        "type": "note_on",
        "time": 29,
        "note": 40,
        "velocity": 0,
        "channel": 9
      },
      {
        "type": "note_on",
        "time": 0,
        "note": 44,
        "velocity": 0,
        "channel": 9
      },
      {
        "type": "note_on",
        "time": 1,
        "note": 44,
        "velocity": 100,
        "channel": 9
      },
      {
        "type": "note_on",
        "time": 29,
        "note": 44,
        "velocity": 0,
        "channel": 9
      },
      {
        "type": "note_on",
        "time": 1,
        "note": 44,
        "velocity": 100,
        "channel": 9
      },
      {
        "type": "note_on",
        "time": 29,
        "note": 44,
        "velocity": 0,
        "channel": 9
      },
      {
        "type": "note_on",
        "time": 1,
        "note": 44,
        "velocity": 100,
        "channel": 9
      },
      {
        "type": "control_change",
        "time": 0,
        "control": 7,
        "value": 21,
        "channel": 9
      },
      {
        "type": "note_on",
        "time": 29,
        "note": 44,
        "velocity": 0,
        "channel": 9
      },
      {
        "type": "note_on",
        "time": 1,
        "note": 44,
        "velocity": 100,
        "channel": 9
      },
      {
        "type": "note_on",
        "time": 29,
        "note": 44,
        "velocity": 0,
        "channel": 9
      },
      {
        "type": "note_on",
        "time": 1,
        "note": 44,
        "velocity": 100,
        "channel": 9
      },
      {
        "type": "note_on",
        "time": 29,
        "note": 44,
        "velocity": 0,
        "channel": 9
      },
      {
        "type": "note_on",
        "time": 1,
        "note": 44,
        "velocity": 100,
        "channel": 9
      },
      {
        "type": "note_on",
        "time": 29,
        "note": 44,
        "velocity": 0,
        "channel": 9
      },
      {
        "type": "note_on",
        "time": 1,
        "note": 40,
        "velocity": 100,
        "channel": 9
      },
      {
        "type": "note_on",
        "time": 0,
        "note": 44,
        "velocity": 100,
        "channel": 9
      },
      {
        "type": "control_change",
        "time": 0,
        "control": 7,
        "value": 18,
        "channel": 9
      },
      {
        "type": "note_on",
        "time": 29,
        "note": 44,
        "velocity": 0,
        "channel": 9
      },
      {
        "type": "note_on",
        "time": 1,
        "note": 44,
        "velocity": 100,
        "channel": 9
      },
      {
        "type": "note_on",
        "time": 29,
        "note": 40,
        "velocity": 0,
        "channel": 9
      },
      {
        "type": "note_on",
        "time": 0,
        "note": 44,
        "velocity": 0,
        "channel": 9
      },
      {
        "type": "note_on",
        "time": 1,
        "note": 44,
        "velocity": 100,
        "channel": 9
      },
      {
        "type": "note_on",
        "time": 29,
        "note": 44,
        "velocity": 0,
        "channel": 9
      },
      {
        "type": "note_on",
        "time": 1,
        "note": 44,
        "velocity": 100,
        "channel": 9
      },
      {
        "type": "note_on",
        "time": 29,
        "note": 44,
        "velocity": 0,
        "channel": 9
      },
      {
        "type": "note_on",
        "time": 1,
        "note": 44,
        "velocity": 100,
        "channel": 9
      },
      {
        "type": "control_change",
        "time": 0,
        "control": 7,
        "value": 15,
        "channel": 9
      },
      {
        "type": "note_on",
        "time": 29,
        "note": 44,
        "velocity": 0,
        "channel": 9
      },
      {
        "type": "note_on",
        "time": 1,
        "note": 44,
        "velocity": 100,
        "channel": 9
      },
      {
        "type": "note_on",
        "time": 29,
        "note": 44,
        "velocity": 0,
        "channel": 9
      },
      {
        "type": "note_on",
        "time": 1,
        "note": 44,
        "velocity": 100,
        "channel": 9
      },
      {
        "type": "note_on",
        "time": 29,
        "note": 44,
        "velocity": 0,
        "channel": 9
      },
      {
        "type": "note_on",
        "time": 1,
        "note": 44,
        "velocity": 100,
        "channel": 9
      },
      {
        "type": "note_on",
        "time": 29,
        "note": 44,
        "velocity": 0,
        "channel": 9
      },
      {
        "type": "note_on",
        "time": 1,
        "note": 40,
        "velocity": 100,
        "channel": 9
      },
      {
        "type": "note_on",
        "time": 0,
        "note": 44,
        "velocity": 100,
        "channel": 9
      },
      {
        "type": "control_change",
        "time": 0,
        "control": 7,
        "value": 12,
        "channel": 9
      },
      {
        "type": "note_on",
        "time": 29,
        "note": 44,
        "velocity": 0,
        "channel": 9
      },
      {
        "type": "note_on",
        "time": 1,
        "note": 44,
        "velocity": 100,
        "channel": 9
      },
      {
        "type": "note_on",
        "time": 29,
        "note": 40,
        "velocity": 0,
        "channel": 9
      },
      {
        "type": "note_on",
        "time": 0,
        "note": 44,
        "velocity": 0,
        "channel": 9
      },
      {
        "type": "note_on",
        "time": 1,
        "note": 44,
        "velocity": 100,
        "channel": 9
      },
      {
        "type": "note_on",
        "time": 29,
        "note": 44,
        "velocity": 0,
        "channel": 9
      },
      {
        "type": "note_on",
        "time": 1,
        "note": 44,
        "velocity": 100,
        "channel": 9
      },
      {
        "type": "note_on",
        "time": 29,
        "note": 44,
        "velocity": 0,
        "channel": 9
      },
      {
        "type": "control_change",
        "time": 1,
        "control": 7,
        "value": 9,
        "channel": 9
      },
      {
        "type": "note_on",
        "time": 0,
        "note": 44,
        "velocity": 100,
        "channel": 9
      },
      {
        "type": "note_on",
        "time": 29,
        "note": 44,
        "velocity": 0,
        "channel": 9
      },
      {
        "type": "note_on",
        "time": 1,
        "note": 44,
        "velocity": 100,
        "channel": 9
      },
      {
        "type": "note_on",
        "time": 29,
        "note": 44,
        "velocity": 0,
        "channel": 9
      },
      {
        "type": "note_on",
        "time": 1,
        "note": 44,
        "velocity": 100,
        "channel": 9
      },
      {
        "type": "note_on",
        "time": 29,
        "note": 44,
        "velocity": 0,
        "channel": 9
      },
      {
        "type": "note_on",
        "time": 1,
        "note": 44,
        "velocity": 100,
        "channel": 9
      },
      {
        "type": "note_on",
        "time": 29,
        "note": 44,
        "velocity": 0,
        "channel": 9
      },
      {
        "type": "control_change",
        "time": 1,
        "control": 7,
        "value": 6,
        "channel": 9
      },
      {
        "type": "note_on",
        "time": 0,
        "note": 44,
        "velocity": 100,
        "channel": 9
      },
      {
        "type": "note_on",
        "time": 0,
        "note": 40,
        "velocity": 100,
        "channel": 9
      },
      {
        "type": "note_on",
        "time": 29,
        "note": 44,
        "velocity": 0,
        "channel": 9
      },
      {
        "type": "note_on",
        "time": 1,
        "note": 44,
        "velocity": 100,
        "channel": 9
      },
      {
        "type": "note_on",
        "time": 29,
        "note": 40,
        "velocity": 0,
        "channel": 9
      },
      {
        "type": "note_on",
        "time": 0,
        "note": 44,
        "velocity": 0,
        "channel": 9
      },
      {
        "type": "note_on",
        "time": 1,
        "note": 44,
        "velocity": 100,
        "channel": 9
      },
      {
        "type": "note_on",
        "time": 29,
        "note": 44,
        "velocity": 0,
        "channel": 9
      },
      {
        "type": "note_on",
        "time": 1,
        "note": 44,
        "velocity": 100,
        "channel": 9
      },
      {
        "type": "note_on",
        "time": 29,
        "note": 44,
        "velocity": 0,
        "channel": 9
      },
      {
        "type": "control_change",
        "time": 1,
        "control": 7,
        "value": 3,
        "channel": 9
      },
      {
        "type": "note_on",
        "time": 0,
        "note": 44,
        "velocity": 100,
        "channel": 9
      },
      {
        "type": "note_on",
        "time": 29,
        "note": 44,
        "velocity": 0,
        "channel": 9
      },
      {
        "type": "note_on",
        "time": 1,
        "note": 44,
        "velocity": 100,
        "channel": 9
      },
      {
        "type": "note_on",
        "time": 29,
        "note": 44,
        "velocity": 0,
        "channel": 9
      },
      {
        "type": "note_on",
        "time": 1,
        "note": 44,
        "velocity": 100,
        "channel": 9
      },
      {
        "type": "note_on",
        "time": 29,
        "note": 44,
        "velocity": 0,
        "channel": 9
      },
      {
        "type": "note_on",
        "time": 1,
        "note": 44,
        "velocity": 100,
        "channel": 9
      },
      {
        "type": "note_on",
        "time": 29,
        "note": 44,
        "velocity": 0,
        "channel": 9
      },
      {
        "type": "note_on",
        "time": 1,
        "note": 40,
        "velocity": 100,
        "channel": 9
      },
      {
        "type": "control_change",
        "time": 0,
        "control": 7,
        "value": 0,
        "channel": 9
      },
      {
        "type": "note_on",
        "time": 0,
        "note": 44,
        "velocity": 100,
        "channel": 9
      },
      {
        "type": "note_on",
        "time": 29,
        "note": 44,
        "velocity": 0,
        "channel": 9
      },
      {
        "type": "note_on",
        "time": 1,
        "note": 44,
        "velocity": 100,
        "channel": 9
      },
      {
        "type": "note_on",
        "time": 29,
        "note": 40,
        "velocity": 0,
        "channel": 9
      },
      {
        "type": "note_on",
        "time": 0,
        "note": 44,
        "velocity": 0,
        "channel": 9
      },
      {
        "type": "note_on",
        "time": 1,
        "note": 44,
        "velocity": 100,
        "channel": 9
      },
      {
        "type": "note_on",
        "time": 29,
        "note": 44,
        "velocity": 0,
        "channel": 9
      },
      {
        "type": "note_on",
        "time": 1,
        "note": 44,
        "velocity": 100,
        "channel": 9
      },
      {
        "type": "note_on",
        "time": 29,
        "note": 44,
        "velocity": 0,
        "channel": 9
      },
      {
        "type": "end_of_track",
        "time": 0
      }
    ],
    [
      {
        "type": "track_name",
        "name": "WinJammer Demo",
        "time": 0
      },
      {
        "type": "midi_port",
        "port": 0,
        "time": 0
      },
      {
        "type": "control_change",
        "time": 53880,
        "control": 7,
        "value": 90,
        "channel": 6
      },
      {
        "type": "control_change",
        "time": 120,
        "control": 7,
        "value": 87,
        "channel": 6
      },
      {
        "type": "control_change",
        "time": 120,
        "control": 7,
        "value": 84,
        "channel": 6
      },
      {
        "type": "control_change",
        "time": 120,
        "control": 7,
        "value": 81,
        "channel": 6
      },
      {
        "type": "control_change",
        "time": 120,
        "control": 7,
        "value": 78,
        "channel": 6
      },
      {
        "type": "control_change",
        "time": 120,
        "control": 7,
        "value": 75,
        "channel": 6
      },
      {
        "type": "control_change",
        "time": 120,
        "control": 7,
        "value": 72,
        "channel": 6
      },
      {
        "type": "control_change",
        "time": 120,
        "control": 7,
        "value": 69,
        "channel": 6
      },
      {
        "type": "control_change",
        "time": 120,
        "control": 7,
        "value": 66,
        "channel": 6
      },
      {
        "type": "control_change",
        "time": 120,
        "control": 7,
        "value": 63,
        "channel": 6
      },
      {
        "type": "control_change",
        "time": 120,
        "control": 7,
        "value": 60,
        "channel": 6
      },
      {
        "type": "control_change",
        "time": 120,
        "control": 7,
        "value": 57,
        "channel": 6
      },
      {
        "type": "control_change",
        "time": 120,
        "control": 7,
        "value": 54,
        "channel": 6
      },
      {
        "type": "control_change",
        "time": 120,
        "control": 7,
        "value": 51,
        "channel": 6
      },
      {
        "type": "control_change",
        "time": 120,
        "control": 7,
        "value": 48,
        "channel": 6
      },
      {
        "type": "control_change",
        "time": 120,
        "control": 7,
        "value": 45,
        "channel": 6
      },
      {
        "type": "control_change",
        "time": 120,
        "control": 7,
        "value": 42,
        "channel": 6
      },
      {
        "type": "control_change",
        "time": 120,
        "control": 7,
        "value": 39,
        "channel": 6
      },
      {
        "type": "control_change",
        "time": 120,
        "control": 7,
        "value": 36,
        "channel": 6
      },
      {
        "type": "control_change",
        "time": 120,
        "control": 7,
        "value": 33,
        "channel": 6
      },
      {
        "type": "control_change",
        "time": 120,
        "control": 7,
        "value": 30,
        "channel": 6
      },
      {
        "type": "control_change",
        "time": 120,
        "control": 7,
        "value": 27,
        "channel": 6
      },
      {
        "type": "control_change",
        "time": 120,
        "control": 7,
        "value": 24,
        "channel": 6
      },
      {
        "type": "control_change",
        "time": 120,
        "control": 7,
        "value": 21,
        "channel": 6
      },
      {
        "type": "control_change",
        "time": 120,
        "control": 7,
        "value": 18,
        "channel": 6
      },
      {
        "type": "control_change",
        "time": 120,
        "control": 7,
        "value": 15,
        "channel": 6
      },
      {
        "type": "control_change",
        "time": 120,
        "control": 7,
        "value": 12,
        "channel": 6
      },
      {
        "type": "control_change",
        "time": 120,
        "control": 7,
        "value": 9,
        "channel": 6
      },
      {
        "type": "control_change",
        "time": 120,
        "control": 7,
        "value": 6,
        "channel": 6
      },
      {
        "type": "control_change",
        "time": 120,
        "control": 7,
        "value": 3,
        "channel": 6
      },
      {
        "type": "control_change",
        "time": 120,
        "control": 7,
        "value": 0,
        "channel": 6
      },
      {
        "type": "end_of_track",
        "time": 0
      }
    ]
  ]
}